<?xml version="1.0" encoding="UTF-8" standalone="no"?>
<!-- Created with Inkscape (http://www.inkscape.org/) -->
<svg id="svg7384" xmlns:rdf="http://www.w3.org/1999/02/22-rdf-syntax-ns#" style="enable-background:new" xmlns="http://www.w3.org/2000/svg" xmlns:osb="http://www.openswatchbook.org/uri/2009/osb" height="16" width="16" version="1.1" xmlns:cc="http://creativecommons.org/ns#" xmlns:dc="http://purl.org/dc/elements/1.1/">
 <metadata id="metadata90">
  <rdf:RDF>
   <cc:Work rdf:about="">
    <dc:format>image/svg+xml</dc:format>
    <dc:type rdf:resource="http://purl.org/dc/dcmitype/StillImage"/>
    <dc:title>Paper Symbolic Icon Theme</dc:title>
   </cc:Work>
  </rdf:RDF>
 </metadata>
 <title id="title8473">Paper Symbolic Icon Theme</title>
 <defs id="defs7386">
  <filter id="filter7554" style="color-interpolation-filters:sRGB">
   <feBlend id="feBlend7556" in2="BackgroundImage" mode="darken"/>
  </filter>
 </defs>
 <g id="g71291" transform="translate(-785 159)">
  <path id="path7944" style="color:#bebebe;enable-background:accumulate;fill:#555" d="m793-158c-3.866 0-7 3.134-7 7s3.134 7 7 7 7-3.134 7-7-3.134-7-7-7zm-3 4.0039c0.55407 0 1 0.44945 1 1 0 0.55064-0.44593 1-1 1-0.55424 0-1-0.44936-1-1 0-0.55055 0.44576-1 1-1zm4.5 0.99609h3c0.277 0 0.5 0.223 0.5 0.5s-0.223 0.5-0.5 0.5h-3c-0.277 0-0.5-0.223-0.5-0.5s0.223-0.5 0.5-0.5zm-4.3262 3.8301c0.74922 0.75042 1.7658 1.1728 2.8262 1.1738 1.0604-0.001 2.077-0.42341 2.8262-1.1738l0.70703 0.70703c-0.93673 0.93797-2.2076 1.4658-3.5332 1.4668-1.3256-0.001-2.5965-0.52883-3.5332-1.4668l0.70703-0.70703z"/>
 </g>
</svg>
