<?xml version="1.0" encoding="UTF-8" standalone="no"?>
<!-- Created with Inkscape (http://www.inkscape.org/) -->
<svg id="svg7384" xmlns:rdf="http://www.w3.org/1999/02/22-rdf-syntax-ns#" style="enable-background:new" xmlns="http://www.w3.org/2000/svg" xmlns:osb="http://www.openswatchbook.org/uri/2009/osb" height="16" width="16" version="1.1" xmlns:cc="http://creativecommons.org/ns#" xmlns:dc="http://purl.org/dc/elements/1.1/">
 <metadata id="metadata90">
  <rdf:RDF>
   <cc:Work rdf:about="">
    <dc:format>image/svg+xml</dc:format>
    <dc:type rdf:resource="http://purl.org/dc/dcmitype/StillImage"/>
    <dc:title>Paper Symbolic Icon Theme</dc:title>
   </cc:Work>
  </rdf:RDF>
 </metadata>
 <title id="title8473">Paper Symbolic Icon Theme</title>
 <defs id="defs7386">
  <filter id="filter7554" style="color-interpolation-filters:sRGB">
   <feBlend id="feBlend7556" in2="BackgroundImage" mode="darken"/>
  </filter>
 </defs>
 <g id="g71291" transform="translate(-745 139)">
  <path id="rect5869" style="color:#bebebe;enable-background:accumulate;fill:#555" d="m753-138c-3.866 0-7 3.134-7 7s3.134 7 7 7 7-3.134 7-7-3.134-7-7-7zm-3 4.0039c0.55407 0 1 0.44945 1 1 0 0.55064-0.44593 1-1 1-0.55424 0-1-0.44936-1-1 0-0.55055 0.44576-1 1-1zm6 0c0.55415 0 1 0.44945 1 1 0 0.55064-0.44585 1-1 1-0.55407 0-1-0.44936-1-1 0-0.55055 0.44593-1 1-1zm-7 3.9961 4 1 4-1c0.0206 0.14762 0.0192 0.27798 0 0.40625-0.0576 0.38481-0.27337 0.6646-0.65625 0.75l-1.3438 0.34375 1.3125 0.3125c0.53601 0.14363 0.6606 0.49922 0.6875 0.84375 0.009 0.11484 0 0.23785 0 0.34375l-4-1-4 1c-0.0655-0.63125 0.0484-0.97818 0.53125-1.125l1.4688-0.375-1.5-0.34375c-0.4745-0.12796-0.5831-0.67248-0.5-1.1562z"/>
 </g>
</svg>
