<?xml version="1.0" encoding="UTF-8" standalone="no"?>
<!-- Created with Inkscape (http://www.inkscape.org/) -->
<svg id="svg7384" xmlns:rdf="http://www.w3.org/1999/02/22-rdf-syntax-ns#" style="enable-background:new" xmlns="http://www.w3.org/2000/svg" xmlns:osb="http://www.openswatchbook.org/uri/2009/osb" height="16" width="16" version="1.1" xmlns:cc="http://creativecommons.org/ns#" xmlns:dc="http://purl.org/dc/elements/1.1/">
 <metadata id="metadata90">
  <rdf:RDF>
   <cc:Work rdf:about="">
    <dc:format>image/svg+xml</dc:format>
    <dc:type rdf:resource="http://purl.org/dc/dcmitype/StillImage"/>
    <dc:title>Paper Symbolic Icon Theme</dc:title>
   </cc:Work>
  </rdf:RDF>
 </metadata>
 <title id="title8473">Paper Symbolic Icon Theme</title>
 <defs id="defs7386">
  <filter id="filter7554" style="color-interpolation-filters:sRGB">
   <feBlend id="feBlend7556" in2="BackgroundImage" mode="darken"/>
  </filter>
 </defs>
 <g id="g71291" transform="translate(-685 139)">
  <path id="path7939" style="color:#bebebe;enable-background:accumulate;fill:#555" d="m693-138c-2.3756 0-4.4845 1.1905-5.75 3h11.5c-1.2655-1.8095-3.3744-3-5.75-3zm5.9688 3.3438 0.0312 1.4102c0 1.5064-0.7062 2.25-2.0625 2.25h-0.84375c-1.3563 0-2.0938-0.7435-2.0938-2.25v-0.75h-2v0.75c-0.0181 1.5064-0.79985 2.25-2.1562 2.25h-0.84375c-1.3561 0-1.989-0.7436-2-2.25l-0.0312-1.3164c-0.6179 1.0434-0.96875 2.2621-0.96875 3.5625 0 3.866 3.134 7 7 7s7-3.134 7-7c0-1.3417-0.37671-2.5913-1.0312-3.6562zm-8.7949 5.4863c0.74922 0.75042 1.7658 1.1728 2.8262 1.1738 1.0604-0.001 2.077-0.42341 2.8262-1.1738l0.70703 0.70703c-0.93673 0.93797-2.2076 1.4658-3.5332 1.4668-1.3256-0.001-2.5965-0.52883-3.5332-1.4668l0.70703-0.70703z"/>
 </g>
</svg>
