<?xml version="1.0" encoding="UTF-8" standalone="no"?>
<!-- Created with Inkscape (http://www.inkscape.org/) -->
<svg id="svg7384" xmlns:rdf="http://www.w3.org/1999/02/22-rdf-syntax-ns#" style="enable-background:new" xmlns="http://www.w3.org/2000/svg" xmlns:osb="http://www.openswatchbook.org/uri/2009/osb" height="16" width="16" version="1.1" xmlns:cc="http://creativecommons.org/ns#" xmlns:dc="http://purl.org/dc/elements/1.1/">
 <metadata id="metadata90">
  <rdf:RDF>
   <cc:Work rdf:about="">
    <dc:format>image/svg+xml</dc:format>
    <dc:type rdf:resource="http://purl.org/dc/dcmitype/StillImage"/>
    <dc:title>Paper Symbolic Icon Theme</dc:title>
   </cc:Work>
  </rdf:RDF>
 </metadata>
 <title id="title8473">Paper Symbolic Icon Theme</title>
 <defs id="defs7386">
  <filter id="filter7554" style="color-interpolation-filters:sRGB">
   <feBlend id="feBlend7556" in2="BackgroundImage" mode="darken"/>
  </filter>
 </defs>
 <g id="g71291" transform="translate(-805 139)">
  <path id="path7986" style="color:#bebebe;enable-background:accumulate;fill:#555" d="m813-138c-3.866 0-7 3.134-7 7s3.134 7 7 7 7-3.134 7-7-3.134-7-7-7zm-3 4.0039c0.55407 0 1 0.44945 1 1 0 0.55064-0.44593 1-1 1-0.55424 0-1-0.44936-1-1 0-0.55055 0.44576-1 1-1zm6 0c0.55415 0 1 0.44945 1 1 0 0.55064-0.44585 1-1 1-0.55407 0-1-0.44936-1-1 0-0.55055 0.44593-1 1-1zm-5.8262 4.8262c0.74922 0.75042 1.7658 1.1728 2.8262 1.1738 1.0604-0.001 2.077-0.42341 2.8262-1.1738l0.70703 0.70703c-0.44442 0.44501-0.96819 0.7892-1.5332 1.0371v0.67578c0 0.9272-0.669 1.6875-1.5 1.6875-0.8313 0-1.5-0.7603-1.5-1.6875v-0.34961c-0.9529-0.1954-1.8356-0.66471-2.5332-1.3633l0.70703-0.70703zm4.5684 1.8438c-0.23368 0.0874-0.46978 0.16704-0.71485 0.21875 0.24444-0.0533 0.48142-0.13051 0.71485-0.21875zm-2.6699 0.23828c0.30387 0.0579 0.61406 0.0915 0.92773 0.0918-0.31356-0.00029-0.624-0.0341-0.92773-0.0918zm0.93 0.09c0.2983-0.00023 0.59215-0.0339 0.88086-0.0879-0.28905 0.0521-0.58312 0.0877-0.88086 0.0879z"/>
 </g>
</svg>
