<svg width="512" height="512" version="1.1" viewBox="0 0 384 384" xmlns="http://www.w3.org/2000/svg"><defs><clipPath><rect width="384" height="384"/></clipPath><clipPath><rect width="384" height="384"/></clipPath><clipPath><rect width="384" height="384"/></clipPath><clipPath><rect width="384" height="384"/></clipPath><clipPath><rect width="384" height="384"/></clipPath><clipPath><rect width="384" height="384"/></clipPath></defs><path d="m360 343.2v-302.39c0-9.2773-7.5234-16.797-16.801-16.797h-302.39c-9.2773 0-16.797 7.5195-16.797 16.797v302.39c0 9.2773 7.5195 16.801 16.797 16.801h302.39c9.2773 0 16.801-7.5234 16.801-16.801z" fill="#272a34"/><path d="m96 108v192h192v-192zm36 36h120v120h-120z" fill="#b3b3b3"/><path transform="scale(.75)" d="m96 122v112h160v-112h-160zm263.99 0.00977c-30.927 0-56 25.068-56 56 0 30.927 25.073 56 56 56 30.932 0 56-25.073 56-56 0-30.932-25.068-56-56-56zm-263.99 159.99v160h160v-160h-160zm192 32v112h128v-112h-128z" opacity=".5" stroke-width="1.3333"/><path d="m72 204h120v120h-120z" fill="#4aaee6"/><path d="m72 84h120v84h-120z" fill="#fff"/><path d="m311.99 126.01c0 23.195-18.801 42-42 42-23.195 0-42-18.805-42-42 0-23.199 18.805-42 42-42 23.199 0 42 18.801 42 42z" fill="#fd4747"/><path d="m216 228h96v84h-96z" fill="#17a185"/><path transform="scale(.75)" d="m32.01 447.6v10c0 12.37 10.027 22.4 22.396 22.4h403.19c12.37 0 22.4-10.031 22.4-22.4v-10c0 12.37-10.031 22.4-22.4 22.4h-403.19c-12.37 0-22.396-10.031-22.396-22.4z" opacity=".5" stroke-width="1.3333"/><path transform="scale(.75)" d="m54.406 32.01c-12.37 0-22.396 10.027-22.396 22.396v10c0-12.37 10.027-22.396 22.396-22.396h403.19c12.37 0 22.4 10.027 22.4 22.396v-10c0-12.37-10.031-22.396-22.4-22.396h-403.19z" fill="#fff" opacity=".1" stroke-width="1.3333"/></svg>
