<?xml version="1.0" encoding="UTF-8"?>
<svg xmlns="http://www.w3.org/2000/svg" xmlns:xlink="http://www.w3.org/1999/xlink" width="12pt" height="12pt" viewBox="0 0 12 12" version="1.1">
<g id="surface1">
<path style=" stroke:none;fill-rule:nonzero;fill:rgb(36.078431%,38.039216%,42.352941%);fill-opacity:1;" d="M 6 0.75 C 3.097656 0.75 0.75 3.097656 0.75 6 C 0.75 8.894531 3.097656 11.25 6 11.25 C 8.902344 11.25 11.25 8.894531 11.25 6 C 11.25 3.097656 8.902344 0.75 6 0.75 Z M 3.75 3.75 C 4.164062 3.75 4.5 4.085938 4.5 4.5 C 4.5 4.914062 4.164062 5.25 3.75 5.25 C 3.335938 5.25 3 4.914062 3 4.5 C 3 4.085938 3.335938 3.75 3.75 3.75 Z M 8.25 3.75 C 8.664062 3.75 9 4.085938 9 4.5 C 9 4.914062 8.664062 5.25 8.25 5.25 C 7.835938 5.25 7.5 4.914062 7.5 4.5 C 7.5 4.085938 7.835938 3.75 8.25 3.75 Z M 9.074219 5.175781 L 9.234375 5.324219 L 9.863281 5.960938 C 10.066406 6.164062 10.199219 6.433594 10.199219 6.75 C 10.199219 7.363281 9.699219 7.875 9.074219 7.875 C 8.460938 7.875 7.949219 7.363281 7.949219 6.75 C 7.949219 6.433594 8.085938 6.164062 8.289062 5.960938 Z M 6 7.5 C 6.996094 7.5 7.949219 7.898438 8.648438 8.601562 L 8.121094 9.128906 C 7.558594 8.566406 6.796875 8.25 6 8.25 C 5.203125 8.25 4.441406 8.566406 3.878906 9.128906 L 3.351562 8.601562 C 4.050781 7.898438 5.003906 7.5 6 7.5 Z M 6 7.5 "/>
</g>
</svg>
