<?xml version="1.0" encoding="UTF-8"?>
<svg xmlns="http://www.w3.org/2000/svg" xmlns:xlink="http://www.w3.org/1999/xlink" width="12pt" height="12pt" viewBox="0 0 12 12" version="1.1">
<g id="surface1">
<path style=" stroke:none;fill-rule:nonzero;fill:rgb(36.078431%,38.039216%,42.352941%);fill-opacity:1;" d="M 6 0.75 C 3.097656 0.75 0.75 3.097656 0.75 6 C 0.75 8.894531 3.097656 11.25 6 11.25 C 8.902344 11.25 11.25 8.894531 11.25 6 C 11.25 3.097656 8.902344 0.75 6 0.75 Z M 4.996094 4.777344 C 4.996094 4.777344 5.316406 4.835938 5.371094 5.25 C 5.414062 5.65625 5.0625 6 5.0625 6 L 4.5 6 C 4.5 6.414062 4.164062 6.75 3.75 6.75 C 3.335938 6.75 3 6.414062 3 6 L 2.0625 6 C 1.921875 5.773438 1.882812 5.421875 2.128906 5.199219 Z M 6.960938 4.777344 L 7.003906 4.777344 L 9.871094 5.199219 C 10.117188 5.421875 10.078125 5.773438 9.9375 6 L 9 6 C 9 6.414062 8.664062 6.75 8.25 6.75 C 7.835938 6.75 7.5 6.414062 7.5 6 L 6.9375 6 C 6.9375 6 6.585938 5.65625 6.628906 5.25 C 6.667969 4.941406 6.871094 4.816406 6.960938 4.777344 Z M 4.875 9 L 7.125 9 C 7.335938 9 7.5 9.15625 7.5 9.34375 L 7.5 9.398438 C 7.5 9.59375 7.335938 9.75 7.125 9.75 L 4.875 9.75 C 4.664062 9.75 4.5 9.59375 4.5 9.398438 L 4.5 9.34375 C 4.5 9.15625 4.664062 9 4.875 9 Z M 4.875 9 "/>
</g>
</svg>
