<?xml version="1.0" encoding="UTF-8"?>
<svg xmlns="http://www.w3.org/2000/svg" xmlns:xlink="http://www.w3.org/1999/xlink" width="12pt" height="12pt" viewBox="0 0 12 12" version="1.1">
<g id="surface1">
<path style=" stroke:none;fill-rule:nonzero;fill:rgb(36.078431%,38.039216%,42.352941%);fill-opacity:1;" d="M 6 0.75 C 8.902344 0.75 11.25 3.097656 11.25 6 C 11.25 8.894531 8.902344 11.25 6 11.25 C 3.097656 11.25 0.75 8.894531 0.75 6 C 0.75 3.097656 3.097656 0.75 6 0.75 Z M 4.148438 3 C 3.601562 3 3.046875 3.328125 3 3.984375 C 2.910156 5.28125 4.125 3.726562 5.25 3.984375 C 5.25 3.328125 4.703125 3 4.148438 3 Z M 7.851562 3 C 7.296875 3 6.75 3.328125 6.75 3.984375 C 7.875 3.726562 9.097656 5.28125 9 3.984375 C 8.953125 3.328125 8.398438 3 7.851562 3 Z M 6 5.25 C 4.964844 5.25 4.125 6.253906 4.125 7.5 C 4.125 8.738281 4.964844 9.75 6 9.75 C 7.035156 9.75 7.875 8.738281 7.875 7.5 C 7.875 6.253906 7.035156 5.25 6 5.25 Z M 6 5.25 "/>
</g>
</svg>
