<?xml version="1.0" encoding="UTF-8"?>
<svg xmlns="http://www.w3.org/2000/svg" xmlns:xlink="http://www.w3.org/1999/xlink" width="12pt" height="12pt" viewBox="0 0 12 12" version="1.1">
<g id="surface1">
<path style=" stroke:none;fill-rule:nonzero;fill:rgb(36.078431%,38.039216%,42.352941%);fill-opacity:1;" d="M 6 0.75 C 3.097656 0.75 0.75 3.097656 0.75 6 C 0.75 8.894531 3.097656 11.25 6 11.25 C 8.902344 11.25 11.25 8.894531 11.25 6 C 11.25 3.097656 8.902344 0.75 6 0.75 Z M 3.75 3.75 C 4.164062 3.75 4.5 4.085938 4.5 4.5 C 4.5 4.914062 4.164062 5.25 3.75 5.25 C 3.335938 5.25 3 4.914062 3 4.5 C 3 4.085938 3.335938 3.75 3.75 3.75 Z M 8.25 3.75 C 8.664062 3.75 9 4.085938 9 4.5 C 9 4.914062 8.664062 5.25 8.25 5.25 C 7.835938 5.25 7.5 4.914062 7.5 4.5 C 7.5 4.085938 7.835938 3.75 8.25 3.75 Z M 8.765625 7.148438 C 8.925781 7.140625 9.246094 7.171875 9.398438 7.449219 C 9.601562 7.824219 9.140625 8.296875 9.140625 8.296875 C 9.140625 8.296875 5.429688 9.308594 5.414062 9.300781 C 5.121094 9.148438 4.941406 8.828125 5.273438 8.503906 C 5.296875 8.496094 8.671875 7.183594 8.671875 7.171875 C 8.671875 7.164062 8.714844 7.148438 8.765625 7.148438 Z M 8.765625 7.148438 "/>
</g>
</svg>
