<svg width="512" height="512" version="1.1" viewBox="0 0 384 384" xmlns="http://www.w3.org/2000/svg"><path d="m192 23.25c-54.083 0-97.734 43.65-97.734 97.733v171.99h27.926v-171.99c0-38.734 31.074-69.809 69.807-69.809 38.737 0 69.812 31.075 69.812 69.809v171.99h27.923v-171.99c0-54.083-43.649-97.733-97.735-97.733z" fill="#2d303b"/><path d="m314.01 232.64c0-67.385-54.628-122.01-122.01-122.01s-122.01 54.628-122.01 122.01c0 67.385 54.628 122.01 122.01 122.01s122.01-54.628 122.01-122.01z" fill="#fff"/><path d="m277.41 232.64c0-47.169-38.24-85.409-85.409-85.409s-85.409 38.24-85.409 85.409 38.24 85.409 85.409 85.409 85.409-38.24 85.409-85.409z" fill="#333643"/><path d="m150.29 192.69 19.41 6.47 17.71 5.914c12.845-3.793 26.73-0.27008 36.214 9.1827 14.294 14.294 14.294 37.474 0 51.768s-37.474 14.294-51.768 0c-9.4766-9.4885-13.008-23.406-9.1986-36.262l-5.898-17.662z" opacity=".5"/><path d="m150.29 185.19 19.41 6.47 17.71 5.914c12.845-3.793 26.73-0.27008 36.214 9.1827 14.294 14.294 14.294 37.474 0 51.768s-37.474 14.294-51.768 0c-9.4766-9.4885-13.008-23.406-9.1986-36.262l-5.898-17.662z" fill="#367bf0"/><path transform="scale(.75)" d="m142.24 305.18c-0.07165 1.658-0.11524 3.3243-0.11524 5 0 62.891 50.987 113.88 113.88 113.88 62.891 0 113.88-50.986 113.88-113.88 0-1.6757-0.04359-3.342-0.11524-5-2.6186 60.57-52.549 108.88-113.76 108.88-61.215 0-111.15-48.307-113.76-108.88z" opacity=".3"/><path transform="scale(.75)" d="m256 196.3c-62.891 0-113.88 50.987-113.88 113.88 0 1.6763 0.04353 3.3413 0.11524 5 2.6176-60.571 52.548-108.88 113.76-108.88 61.216 0 111.15 48.308 113.76 108.88 0.07171-1.6587 0.11524-3.3237 0.11524-5 0-62.891-50.988-113.88-113.88-113.88z" fill="#fff" opacity=".1"/><g stroke-width="1.3333"><path transform="scale(.75)" d="m93.4 305.18c-0.050161 1.661-0.083985 3.3268-0.083985 5 0 89.846 72.837 162.68 162.68 162.68s162.68-72.835 162.68-162.68c0-1.6732-0.03382-3.339-0.08398-5-2.6443 87.532-74.427 157.68-162.6 157.68s-159.96-70.15-162.6-157.68z" opacity=".3"/><path transform="scale(.75)" d="m256 31c-72.111 0-130.31 58.2-130.31 130.31v10c0-72.111 58.2-130.31 130.31-130.31 72.115 0 130.31 58.2 130.31 130.31v-10c0-72.111-58.197-130.31-130.31-130.31z" fill="#fff" opacity=".1"/><path transform="scale(.75)" d="m256 147.5c-89.846 0-162.68 72.837-162.68 162.68 0 1.6739 0.033785 3.3383 0.083985 5 2.6433-87.532 74.426-157.68 162.6-157.68s159.96 70.151 162.6 157.68c0.0502-1.6617 0.08398-3.3261 0.08398-5 0-89.846-72.837-162.68-162.68-162.68z" fill="#0b0b0b" opacity=".1"/></g><g transform="translate(-601.43 208.78)"><path d="m985.43 85.224c0 49.706-40.294 90-90 90s-90-40.294-90-90 40.294-90 90-90 90 40.294 90 90z" opacity=".3" stroke-width=".97425"/><path d="m985.43 77.724c0 49.706-40.294 90-90 90s-90-40.294-90-90 40.294-90 90-90 90 40.294 90 90z" fill="#fd4949" stroke-width=".97425"/><path d="m888.43 40.224-2.2283 11.635c-2.7476 0.76001-5.3613 1.9034-7.7906 3.2818l-10.012-6.5535-9.7008 9.6697 6.5174 9.9983c-1.3772 2.4217-2.4159 4.9609-3.1799 7.704l-11.61 2.2973v13.936l11.61 2.2939c0.75732 2.7464 1.8028 5.4444 3.1799 7.8695l-6.5174 9.8351 9.7008 9.8352 10.012-6.7192c2.4293 1.3715 5.043 2.5184 7.7906 3.2784l2.2283 11.638h13.99l2.2283-11.638c2.7476-0.76003 5.3647-1.9 7.7906-3.2784l10.016 6.7192 9.7009-9.8352-6.5207-9.8351c1.3772-2.4217 2.4193-5.1232 3.1832-7.8695l11.607-2.2939v-13.936l-11.607-2.2973c-0.76065-2.743-1.8061-5.2822-3.1832-7.704l6.5207-9.9983-9.7009-9.6697-10.016 6.5535c-2.426-1.3715-5.043-2.5219-7.7906-3.2818l-2.2283-11.635zm6.9999 29.174c8.431 0 15.263 7.044 15.263 15.736 0 8.6952-6.8323 15.736-15.263 15.736-8.434 0-15.267-7.0405-15.267-15.736 0-8.6922 6.8323-15.736 15.267-15.736z" opacity=".3" stroke-width=".871"/><path d="m888.43 32.724-2.2283 11.635c-2.7476 0.76001-5.3613 1.9034-7.7906 3.2818l-10.012-6.5535-9.7008 9.6697 6.5174 9.9983c-1.3772 2.4217-2.4159 4.9609-3.1799 7.704l-11.61 2.2973v13.936l11.61 2.2939c0.7573 2.7464 1.8028 5.4444 3.1799 7.8695l-6.5174 9.8351 9.7008 9.8352 10.012-6.7192c2.4293 1.3715 5.043 2.5184 7.7906 3.2784l2.2283 11.638h13.99l2.2283-11.638c2.7476-0.76002 5.3646-1.9 7.7906-3.2784l10.016 6.7192 9.7009-9.8352-6.5207-9.8351c1.3772-2.4217 2.4192-5.1232 3.1832-7.8695l11.607-2.2939v-13.936l-11.607-2.2973c-0.76065-2.743-1.8061-5.2822-3.1832-7.704l6.5207-9.9983-9.7009-9.6697-10.016 6.5535c-2.426-1.3715-5.043-2.5219-7.7906-3.2818l-2.2283-11.635zm6.9999 29.174c8.431 0 15.263 7.044 15.263 15.736 0 8.6952-6.8323 15.736-15.263 15.736-8.434 0-15.267-7.0405-15.267-15.736 0-8.6922 6.8323-15.736 15.267-15.736z" fill="#fff" stroke-width=".871"/></g></svg>
