<svg style="enable-background:new" version="1.0" viewBox="0 0 512 512" xmlns="http://www.w3.org/2000/svg"><title>Adwaita Icon Template</title><defs><clipPath><path d="m492.31-59.385-98.462-137.85h-246.15v482.46h344.62z" style="fill:#1c71d8"/></clipPath></defs><g transform="translate(0,-172)"><g style="display:none"><rect x="9.2651e-8" y="172" width="128" height="128" style="display:inline;enable-background:accumulate;fill:#f0f0f0"/><rect x="160" y="172" width="16" height="16" style="display:inline;enable-background:accumulate;fill:#f0f0f0"/><text x="-1.3798541e-16" y="164" style="display:inline;enable-background:new;fill:#000000;font-family:Cantarell;font-size:4px;font-weight:bold;line-height:125%;stroke-width:.33265" xml:space="preserve"><tspan x="-1.3798541e-16" y="164" style="font-size:4px;stroke-width:.33265">Hicolor</tspan></text><text x="160" y="164" style="display:inline;enable-background:new;fill:#000000;font-family:Cantarell;font-size:4px;font-weight:bold;line-height:125%;stroke-width:.33265" xml:space="preserve"><tspan x="160" y="164" style="font-size:4px;stroke-width:.33265">Symbolic</tspan></text><circle cx="64" cy="236" r="59.504" style="display:inline;enable-background:new;fill:none;opacity:.1;paint-order:normal;stroke-dasharray:0.99, 0.99;stroke-width:.99;stroke:#000"/><rect x="20.495" y="180.49" width="87.01" height="111.01" rx="8.701" ry="7.9293" style="display:inline;enable-background:new;fill:none;opacity:.1;paint-order:normal;stroke-dasharray:0.99, 0.99;stroke-width:.99;stroke:#000"/><rect x="12.495" y="184.5" width="103.01" height="103.01" rx="7.9238" ry="7.9238" style="display:inline;enable-background:new;fill:none;opacity:.1;paint-order:normal;stroke-dasharray:0.99, 0.99;stroke-width:.99;stroke:#000"/><rect x="8.495" y="200.49" width="111.01" height="87.01" rx="7.9293" ry="8.701" style="display:inline;enable-background:new;fill:none;opacity:.1;paint-order:normal;stroke-dasharray:0.99, 0.99;stroke-width:.99;stroke:#000"/><path d="m2.6203e-5 289h128" style="display:inline;enable-background:new;fill:none;stroke-width:2;stroke:#62a0ea"/></g><g><rect x="25.674" y="243.12" width="465.33" height="332.38" rx="30" ry="30" style="fill:#367bf0;stroke-linejoin:round;stroke-width:10"/><path transform="translate(0,172)" d="m25.674 363.49v10c0 16.62 13.38 30 30 30h405.33c16.62 0 30-13.38 30-30v-10c0 16.62-13.38 30-30 30h-405.33c-16.62 0-30-13.38-30-30z" style="opacity:.3;stroke-linejoin:round;stroke-width:10"/><rect transform="scale(1,-1)" x="-312.24" y="-1315" width="0" height="0" style="fill-opacity:0;opacity:.32;stroke-linejoin:round;stroke-width:1.8361;stroke:#3d3d3d"/><circle cx="-281.77" cy="716.75" r="0" style="fill:#9059a1"/><rect transform="scale(1,-1)" x="-303.93" y="-1182.1" width="0" height="0" style="fill-opacity:0;opacity:.32;stroke-linejoin:round;stroke-width:1.8361;stroke:#3d3d3d"/><rect transform="scale(1,-1)" x="-574.26" y="-1245.2" width="0" height="0" style="fill-opacity:0;opacity:.32;stroke-linejoin:round;stroke-width:2.2034;stroke:#3d3d3d"/><g transform="matrix(4.1547 0 0 4.1547 -2209.6 -571.2)" style="enable-background:new"><g transform="matrix(.325 0 0 -.23214 490 234.21)" style="enable-background:new;fill:#62a0ea;stroke-width:.91017"><g transform="matrix(3.0769 0 0 -4.3077 -1507.7 1008.9)" style="enable-background:new;opacity:.15"><path transform="translate(530)" d="m116 211h-104" style="enable-background:new;fill:none;opacity:1;stroke-width:2;stroke:#fff"/><path transform="translate(530)" d="m110 263h-98" style="enable-background:new;fill:none;opacity:1;stroke-width:2;stroke:#fff"/><path transform="translate(530)" d="m23 200v64" style="enable-background:new;fill:none;opacity:1;stroke-width:2;stroke:#fff"/><path transform="translate(530)" d="m105 200v38" style="enable-background:new;fill:none;opacity:1;stroke-width:2;stroke:#fff"/><path transform="translate(530)" d="m104 203h-80" style="enable-background:new;fill:none;opacity:1;stroke-width:2;stroke:#fff"/><path d="m545 212v50" style="enable-background:new;fill:none;opacity:1;stroke-width:2;stroke:#fff"/><path d="m646 219h-94" style="enable-background:new;fill:none;opacity:1;stroke-width:2;stroke:#fff"/><path d="m643 210v10" style="enable-background:new;fill:none;opacity:1;stroke-width:2;stroke:#fff"/><path d="m577 220v12" style="enable-background:new;fill:none;opacity:1;stroke-width:2;stroke:#fff"/><path d="m563 220v12" style="enable-background:new;fill:none;opacity:1;stroke-width:2;stroke:#fff"/><path d="m566 235h-12" style="enable-background:new;fill:none;opacity:1;stroke-width:2;stroke:#fff"/><path d="m563 244v18" style="enable-background:new;fill:none;opacity:1;stroke-width:2;stroke:#fff"/><path d="m566 247h-12" style="enable-background:new;fill:none;opacity:1;stroke-width:2;stroke:#fff"/><path d="m577 232v22" style="enable-background:new;fill:none;opacity:1;stroke-width:2;stroke:#fff"/><path d="m628 233h-12" style="enable-background:new;fill:none;opacity:1;stroke-width:2;stroke:#fff"/><path d="m585 233h-11" style="enable-background:new;fill:none;opacity:1;stroke-width:2;stroke:#fff"/><path d="m584 245h-10" style="enable-background:new;fill:none;opacity:1;stroke-width:2;stroke:#fff"/><path d="m569 244v10" style="enable-background:new;fill:none;opacity:1;stroke-width:2;stroke:#fff"/><path d="m577 251h-8" style="enable-background:new;fill:none;opacity:1;stroke-width:2;stroke:#fff"/></g></g><g transform="translate(530)" style="stroke:#fff"><path d="m23 210v54" style="fill:none;stroke-width:2;stroke:#fff"/><path d="m105 211h-82" style="fill:none;stroke-width:2;stroke:#fff"/><path d="m105 210v28" style="fill:none;stroke-width:2;stroke:#fff"/><circle cx="36" cy="232" r="3" style="fill:none;stroke-linejoin:round;stroke-width:2;stroke:#fff"/><path d="m86 233h-40" style="fill:none;stroke-width:2;stroke:#fff"/><circle cx="36" cy="244" r="3" style="fill:none;stroke-linejoin:round;stroke-width:2;stroke:#fff"/><path d="m86 245h-40" style="fill:none;stroke-width:2;stroke:#fff"/><path d="m104 219h-82" style="fill:none;stroke-width:2;stroke:#fff"/><path d="m110 263h-88" style="enable-background:new;fill:none;stroke-width:2;stroke:#fff"/></g><g transform="translate(540)"><path d="m104 223.15-104.38 60.262-2.7459 0.5853v1h107.12zm-14 24.248v23.6h-40.875z" style="color-rendering:auto;color:#000000;dominant-baseline:auto;enable-background:accumulate;font-feature-settings:normal;font-variant-alternates:normal;font-variant-caps:normal;font-variant-ligatures:normal;font-variant-numeric:normal;font-variant-position:normal;image-rendering:auto;isolation:auto;mix-blend-mode:normal;opacity:.5;shape-padding:0;shape-rendering:auto;solid-color:#000000;text-decoration-color:#000000;text-decoration-line:none;text-decoration-style:solid;text-indent:0;text-orientation:mixed;text-transform:none;white-space:normal"/><path d="m104 222.15-107.12 61.848v1h107.12zm-14 24.248v23.6h-40.875z" style="color-rendering:auto;color:#000000;dominant-baseline:auto;enable-background:accumulate;fill:#f8de68;font-feature-settings:normal;font-variant-alternates:normal;font-variant-caps:normal;font-variant-ligatures:normal;font-variant-numeric:normal;font-variant-position:normal;image-rendering:auto;isolation:auto;mix-blend-mode:normal;shape-padding:0;shape-rendering:auto;solid-color:#000000;text-decoration-color:#000000;text-decoration-line:none;text-decoration-style:solid;text-indent:0;text-orientation:mixed;text-transform:none;white-space:normal"/><path transform="translate(0,172)" d="m90 72.4-40.875 23.6v2l40.875-23.6zm-89.66 37.6-3.4648 2h107.12v-2h-81z" style="color-rendering:auto;color:#000000;dominant-baseline:auto;enable-background:accumulate;fill:#ffc730;font-feature-settings:normal;font-variant-alternates:normal;font-variant-caps:normal;font-variant-ligatures:normal;font-variant-numeric:normal;font-variant-position:normal;image-rendering:auto;isolation:auto;mix-blend-mode:normal;shape-padding:0;shape-rendering:auto;solid-color:#000000;text-decoration-color:#000000;text-decoration-line:none;text-decoration-style:solid;text-indent:0;text-orientation:mixed;text-transform:none;white-space:normal"/><g style="stroke:#b38108"><g transform="matrix(1 0 0 .83333 0 47.333)" style="stroke-width:1.0954;stroke:#b38108"><path d="m101.5 278v6" style="opacity:.5;stroke-width:1.0954px;stroke:#b38108"/><path d="m86.5 278v6" style="opacity:.5;stroke-width:1.0954px;stroke:#b38108"/><path d="m71.5 278v6" style="opacity:.5;stroke-width:1.0954px;stroke:#b38108"/><path d="m56.5 278v6" style="opacity:.5;stroke-width:1.0954px;stroke:#b38108"/><path d="m41.5 278v6" style="opacity:.5;stroke-width:1.0954px;stroke:#b38108"/><path d="m26.5 278v6" style="opacity:.5;stroke-width:1.0954px;stroke:#b38108"/><path d="m11.5 278v6" style="opacity:.5;stroke-width:1.0954px;stroke:#b38108"/></g><g style="stroke:#b38108"><path d="m98.5 281v3" style="opacity:.5;stroke-width:1px;stroke:#b38108"/><path d="m95.5 281v3" style="opacity:.5;stroke-width:1px;stroke:#b38108"/><path d="m92.5 281v3" style="opacity:.5;stroke-width:1px;stroke:#b38108"/><path d="m89.5 281v3" style="opacity:.5;stroke-width:1px;stroke:#b38108"/><path d="m83.5 281v3" style="opacity:.5;stroke-width:1px;stroke:#b38108"/><path d="m80.5 281v3" style="opacity:.5;stroke-width:1px;stroke:#b38108"/><path d="m77.5 281v3" style="opacity:.5;stroke-width:1px;stroke:#b38108"/><path d="m74.5 281v3" style="opacity:.5;stroke-width:1px;stroke:#b38108"/><path d="m68.5 281v3" style="opacity:.5;stroke-width:1px;stroke:#b38108"/><path d="m65.5 281v3" style="opacity:.5;stroke-width:1px;stroke:#b38108"/><path d="m62.5 281v3" style="opacity:.5;stroke-width:1px;stroke:#b38108"/><path d="m59.5 281v3" style="opacity:.5;stroke-width:1px;stroke:#b38108"/><path d="m53.5 281v3" style="opacity:.5;stroke-width:1px;stroke:#b38108"/><path d="m50.5 281v3" style="opacity:.5;stroke-width:1px;stroke:#b38108"/><path d="m47.5 281v3" style="opacity:.5;stroke-width:1px;stroke:#b38108"/><path d="m44.5 281v3" style="opacity:.5;stroke-width:1px;stroke:#b38108"/><path d="m38.5 281v3" style="opacity:.5;stroke-width:1px;stroke:#b38108"/><path d="m35.5 281v3" style="opacity:.5;stroke-width:1px;stroke:#b38108"/><path d="m32.5 281v3" style="opacity:.5;stroke-width:1px;stroke:#b38108"/><path d="m29.5 281v3" style="opacity:.5;stroke-width:1px;stroke:#b38108"/><path d="m23.5 281v3" style="opacity:.5;stroke-width:1px;stroke:#b38108"/><path d="m20.5 281v3" style="opacity:.5;stroke-width:1px;stroke:#b38108"/><path d="m17.5 281v3" style="opacity:.5;stroke-width:1px;stroke:#b38108"/><path d="m14.5 281v3" style="opacity:.5;stroke-width:1px;stroke:#b38108"/><path d="m8.5 281v3" style="opacity:.5;stroke-width:1px;stroke:#b38108"/><path d="m5.5 281v3" style="opacity:.5;stroke-width:1px;stroke:#b38108"/></g></g><path transform="matrix(.24069 0 0 .24069 -8.1795 178.88)" d="m21 436.73v4.1562h445.07v-4z" style="color-rendering:auto;color:#000000;dominant-baseline:auto;enable-background:accumulate;font-feature-settings:normal;font-variant-alternates:normal;font-variant-caps:normal;font-variant-ligatures:normal;font-variant-numeric:normal;font-variant-position:normal;image-rendering:auto;isolation:auto;mix-blend-mode:normal;opacity:.3;shape-padding:0;shape-rendering:auto;solid-color:#000000;text-decoration-color:#000000;text-decoration-line:none;text-decoration-style:solid;text-indent:0;text-orientation:mixed;text-transform:none;white-space:normal"/></g></g><path transform="translate(0,172)" d="m55.674 71.115c-16.62 0-30 13.38-30 30v10c0-16.62 13.38-30 30-30h405.33c16.62 0 30 13.38 30 30v-10c0-16.62-13.38-30-30-30h-405.33z" style="fill:#fff;opacity:.2;stroke-linejoin:round;stroke-width:10"/></g></g></svg>
