<svg width="512" height="512" version="1.1" viewBox="0 0 384 384" xmlns="http://www.w3.org/2000/svg" xmlns:xlink="http://www.w3.org/1999/xlink">
	<defs>
		<clipPath>
			<rect width="384" height="384"/>
		</clipPath>
		<clipPath>
			<rect width="384" height="384"/>
		</clipPath>
		<clipPath>
			<rect width="384" height="384"/>
		</clipPath>
		<clipPath>
			<rect width="384" height="384"/>
		</clipPath>
		<clipPath>
			<rect width="384" height="384"/>
		</clipPath>
		<clipPath>
			<rect width="384" height="384"/>
		</clipPath>
		<clipPath>
			<rect width="384" height="384"/>
		</clipPath>
		<clipPath>
			<rect width="384" height="384"/>
		</clipPath>
		<clipPath>
			<rect width="384" height="384"/>
		</clipPath>
		<clipPath>
			<rect width="384" height="384"/>
		</clipPath>
		<clipPath>
			<rect width="384" height="384"/>
		</clipPath>
		<clipPath>
			<rect width="384" height="384"/>
		</clipPath>
		<clipPath>
			<rect width="384" height="384"/>
		</clipPath>
		<clipPath>
			<rect width="384" height="384"/>
		</clipPath>
		<clipPath>
			<rect width="384" height="384"/>
		</clipPath>
		<clipPath>
			<rect width="384" height="384"/>
		</clipPath>
		<clipPath>
			<rect width="384" height="384"/>
		</clipPath>
		<clipPath>
			<rect width="384" height="384"/>
		</clipPath>
		<clipPath>
			<rect width="384" height="384"/>
		</clipPath>
		<clipPath>
			<rect width="384" height="384"/>
		</clipPath>
		<clipPath>
			<rect width="384" height="384"/>
		</clipPath>
		<clipPath>
			<rect width="384" height="384"/>
		</clipPath>
		<clipPath>
			<rect width="384" height="384"/>
		</clipPath>
		<clipPath>
			<rect width="384" height="384"/>
		</clipPath>
		<clipPath>
			<rect width="384" height="384"/>
		</clipPath>
		<clipPath>
			<rect width="384" height="384"/>
		</clipPath>
		<clipPath>
			<rect width="384" height="384"/>
		</clipPath>
		<clipPath>
			<rect width="384" height="384"/>
		</clipPath>
		<clipPath>
			<rect width="384" height="384"/>
		</clipPath>
		<clipPath>
			<rect width="384" height="384"/>
		</clipPath>
		<clipPath>
			<rect width="384" height="384"/>
		</clipPath>
		<clipPath>
			<rect width="384" height="384"/>
		</clipPath>
		<clipPath>
			<rect width="384" height="384"/>
		</clipPath>
		<clipPath>
			<rect width="384" height="384"/>
		</clipPath>
		<clipPath>
			<rect width="384" height="384"/>
		</clipPath>
		<clipPath>
			<rect width="384" height="384"/>
		</clipPath>
		<clipPath>
			<rect width="384" height="384"/>
		</clipPath>
		<clipPath>
			<rect width="384" height="384"/>
		</clipPath>
		<clipPath>
			<rect width="384" height="384"/>
		</clipPath>
		<clipPath>
			<rect width="384" height="384"/>
		</clipPath>
		<clipPath>
			<rect width="384" height="384"/>
		</clipPath>
		<clipPath>
			<rect width="384" height="384"/>
		</clipPath>
		<clipPath>
			<rect width="384" height="384"/>
		</clipPath>
		<clipPath>
			<rect width="384" height="384"/>
		</clipPath>
		<clipPath>
			<rect width="384" height="384"/>
		</clipPath>
		<clipPath>
			<rect width="384" height="384"/>
		</clipPath>
		<clipPath>
			<rect width="384" height="384"/>
		</clipPath>
		<clipPath>
			<rect width="384" height="384"/>
		</clipPath>
		<clipPath>
			<rect width="384" height="384"/>
		</clipPath>
		<clipPath>
			<rect width="384" height="384"/>
		</clipPath>
		<clipPath>
			<rect width="384" height="384"/>
		</clipPath>
		<clipPath>
			<rect width="384" height="384"/>
		</clipPath>
		<clipPath id="clip2-08">
			<path d="m111 119h177v23h-177z"/>
		</clipPath>
		<clipPath>
			<path d="m368.64 199.88c0-93.234-75.602-168.75-168.75-168.75-93.152 0-168.75 75.516-168.75 168.75s75.598 168.75 168.75 168.75c93.148 0 168.75-75.516 168.75-168.75z"/>
		</clipPath>
		<clipPath id="clip4-06">
			<path d="m177 130h45v89h-45z"/>
		</clipPath>
		<clipPath>
			<path d="m368.64 199.88c0-93.234-75.602-168.75-168.75-168.75-93.152 0-168.75 75.516-168.75 168.75s75.598 168.75 168.75 168.75c93.148 0 168.75-75.516 168.75-168.75z"/>
		</clipPath>
		<clipPath id="clip6">
			<path d="m111 207h177v89h-177z"/>
		</clipPath>
		<clipPath>
			<path d="m368.64 199.88c0-93.234-75.602-168.75-168.75-168.75-93.152 0-168.75 75.516-168.75 168.75s75.598 168.75 168.75 168.75c93.148 0 168.75-75.516 168.75-168.75z"/>
		</clipPath>
		<clipPath id="clip1-6">
			<rect width="384" height="384"/>
		</clipPath>
		<g clip-path="url(#clip1-6)">
			<g clip-path="url(#clip2-08)"></g>
			<g clip-path="url(#clip4-06)"></g>
			<g clip-path="url(#clip6)"></g>
		</g>
		<clipPath>
			<rect width="384" height="384"/>
		</clipPath>
		<clipPath>
			<rect width="384" height="384"/>
		</clipPath>
		<clipPath>
			<rect width="384" height="384"/>
		</clipPath>
		<clipPath>
			<rect width="384" height="384"/>
		</clipPath>
		<clipPath>
			<rect width="384" height="384"/>
		</clipPath>
		<clipPath>
			<rect width="384" height="384"/>
		</clipPath>
		<clipPath>
			<rect width="384" height="384"/>
		</clipPath>
		<clipPath>
			<rect width="384" height="384"/>
		</clipPath>
		<clipPath>
			<rect width="384" height="384"/>
		</clipPath>
		<clipPath>
			<rect width="384" height="384"/>
		</clipPath>
		<clipPath>
			<rect width="384" height="384"/>
		</clipPath>
	</defs>
	<path d="m360 343.2v-302.4c0-9.2773-7.5234-16.801-16.801-16.801h-302.4c-9.2773 0-16.801 7.5234-16.801 16.801v302.4c0 9.2773 7.5234 16.801 16.801 16.801h302.4c9.2773 0 16.801-7.5234 16.801-16.801z" style="fill:#ffc62f"/>
	<path d="m162.14 84c-16.531 0-29.938 13.434-29.938 30 0 16.57 13.406 30 29.938 30s29.934-13.43 29.934-30c0-16.566-13.402-30-29.934-30zm-23.949 72c-4.8359-0.003906-9.1992 2.9102-11.062 7.3828l-29.934 60c-6.6211 14.961 16.156 24.477 22.102 9.2344l13.281-31.922-0.42188 3.3047v84c0 6.6484 5.3438 12 11.977 12h0.046875c6.6328 0 11.977-5.3516 11.977-12l-0.050781-48h11.977l0.046874 48c0.007813 6.6484 5.3398 12 11.973 12 6.6367 0 11.977-5.3516 11.977-12l-0.050781-84-0.44141-3.5859 13.375 32.203c2.6719 6.8281 10.777 9.6797 17.121 6.0234l18.312-0.98438c-0.16016 0.78516-0.46875 1.5117-0.46875 2.3438v54c0 3.3242 2.6719 6 5.9883 6 3.3164 0 5.9844-2.6758 5.9844-6l-0.046875-30h12.02l0.050781 30c0.003907 3.3242 2.668 6 5.9844 6 3.3203 0 5.9883-2.6758 5.9883-6v-45.492l13.684 13.734c5.6406 5.8906 14.34-2.8281 8.4648-8.4844l-23.902-24c-1.1211-1.125-2.6445-1.7578-4.2305-1.7578h-22.336l-19.48 0.25781c0-1.6797-0.35156-3.3398-1.0312-4.875l-29.934-60c-1.8594-4.4648-6.2109-7.375-11.039-7.3828zm119.7 21c-11.535 0-20.953 9.4375-20.953 21s9.418 21 20.953 21c11.539 0 20.957-9.4375 20.957-21s-9.418-21-20.957-21z" style="fill:#272a34"/>
	<path d="m162.14 91.5c-16.531 0-29.938 13.434-29.938 30 0 16.57 13.406 30 29.938 30s29.934-13.43 29.934-30c0-16.566-13.402-30-29.934-30zm-23.949 72c-4.8359-4e-3 -9.1992 2.9102-11.062 7.3828l-29.934 60c-6.6211 14.961 16.156 24.477 22.102 9.2344l13.281-31.922-0.42187 3.3047v84c0 6.6484 5.3438 12 11.977 12h0.0469c6.6328 0 11.977-5.3516 11.977-12l-0.0508-48h11.977l0.0469 48c8e-3 6.6484 5.3398 12 11.973 12 6.6367 0 11.977-5.3516 11.977-12l-0.0508-84-0.44141-3.586 13.375 32.203c2.6719 6.8281 10.777 9.6797 17.121 6.0234l18.312-0.98438c-0.16016 0.78516-0.46875 1.5117-0.46875 2.3438v54c0 3.3242 2.6719 6 5.9883 6 3.3164 0 5.9844-2.6758 5.9844-6l-0.0469-30h12.02l0.0508 30c4e-3 3.3242 2.668 6 5.9844 6 3.3203 0 5.9883-2.6758 5.9883-6v-45.492l13.684 13.734c5.6406 5.8906 14.34-2.8281 8.4648-8.4844l-23.902-24c-1.1211-1.125-2.6446-1.7578-4.2305-1.7578h-22.336l-19.48 0.2578c0-1.6797-0.35157-3.3398-1.0312-4.875l-29.934-60c-1.8594-4.4648-6.2109-7.375-11.039-7.3828zm119.7 21c-11.535 0-20.953 9.4375-20.953 21s9.418 21 20.953 21c11.539 0 20.957-9.4375 20.957-21s-9.418-21-20.957-21z" style="opacity:.3"/>
	<path transform="scale(.75)" d="m32 445.6v12c0 12.37 10.031 22.4 22.4 22.4h403.2c12.37 0 22.4-10.031 22.4-22.4v-12c0 12.37-10.031 22.4-22.4 22.4h-403.2c-12.37 0-22.4-10.031-22.4-22.4z" style="opacity:.3;stroke-width:1.3333"/>
	<path transform="scale(.75)" d="m54.4 32c-12.37 0-22.4 10.031-22.4 22.4v10c0-12.37 10.031-22.4 22.4-22.4h403.2c12.37 0 22.4 10.031 22.4 22.4v-10c0-12.37-10.031-22.4-22.4-22.4h-403.2z" style="fill:#fff;opacity:.3;stroke-width:1.3333"/>
</svg>
