<svg width="512" height="512" version="1.1" viewBox="0 0 384 384" xmlns="http://www.w3.org/2000/svg"><defs><clipPath><rect width="384" height="384"/></clipPath><clipPath><rect width="384" height="384"/></clipPath></defs><path d="m324 343.2v-302.4c0-9.3086-7.3555-16.801-16.5-16.801h-231c-9.1406 0-16.5 7.4922-16.5 16.801v302.4c0 9.3125 7.3594 16.801 16.5 16.801h231c9.1445 0 16.5-7.4883 16.5-16.801z" fill="#fd7d00"/><path d="m132 151.5c-19.883 0-36 16.117-36 36s16.117 36 36 36c19.883 0 36-16.117 36-36h-36zm60 0v24h84v-24zm0 48v24h84v-24zm-96 48v24h144v-24z" fill="#222" opacity=".3"/><path d="m132 144c-19.883 0-36 16.117-36 36s16.117 36 36 36 36-16.117 36-36h-36zm60 0v24h84v-24zm0 48v24h84v-24zm-96 48v24h144v-24z" fill="#d41717"/><path transform="scale(.75)" d="m80 447.6v10c0 12.417 9.8125 22.4 22 22.4h308c12.193 0 22-9.9837 22-22.4v-10c0 12.417-9.8073 22.4-22 22.4h-308c-12.187 0-22-9.9837-22-22.4z" opacity=".3" stroke-width="1.3333"/><path transform="scale(.75)" d="m102 32c-12.187 0-22 9.9889-22 22.4v10c0-12.411 9.8125-22.4 22-22.4h308c12.193 0 22 9.9889 22 22.4v-10c0-12.411-9.8072-22.4-22-22.4h-308z" fill="#fff" opacity=".3" stroke-width="1.3333"/></svg>
