<svg width="512" height="512" version="1.1" viewBox="0 0 384 384" xmlns="http://www.w3.org/2000/svg"><defs><clipPath><rect width="384" height="384"/></clipPath><clipPath><rect width="384" height="384"/></clipPath><clipPath><rect width="384" height="384"/></clipPath><clipPath><rect width="384" height="384"/></clipPath></defs><path d="m140.85 241.69-56.24 92.045h214.77l61.364-92.045z" opacity=".3"/><path d="m140.85 234.19-56.24 92.045h214.77l61.364-92.045z" fill="#357af0"/><path transform="scale(.75)" d="m181.8 312.25v10h292.53l6.666-10z" fill="#fff" opacity=".3" stroke-width="1.3333"/><path d="m130.64 50.097 112.51 184.09h117.6l-107.39-184.09z" fill="#ffc72e"/><path d="m130.64 57.597-107.39 184.09 61.364 92.045 107.39-175.73z" opacity=".3"/><path d="m130.64 50.097-107.39 184.09 61.364 92.045 107.39-175.73z" fill="#0aa15c"/><path transform="scale(.75)" d="m174.18 76.795 143.9 235.46h157.08l-137.35-235.46h-163.64zm303.71 240.12-3.5547 5.334h6.666l-3.1113-5.334z" opacity=".3" stroke-width="1.3333"/><path d="m130.64 50.097 112.51 184.09h117.6l-107.39-184.09z" fill="#ffc72e"/><path transform="scale(.75)" d="m174.18 66.795 6.1113 10h157.53l137.35 235.46h5.834l-143.18-245.46h-163.64z" fill="#fff" opacity=".3" stroke-width="1.3333"/><path transform="scale(.75)" d="m174.18 66.795-143.18 245.46 3.1113 4.666 140.07-240.12 78.764 128.87 3.0547-5-81.818-133.87z" fill="#fff" opacity=".3" stroke-width="1.3333"/></svg>
