<svg width="512" height="512" version="1.1" viewBox="0 0 384 384" xmlns="http://www.w3.org/2000/svg"><defs><clipPath><rect width="384" height="384"/></clipPath><clipPath><rect width="384" height="384"/></clipPath><clipPath><rect width="384" height="384"/></clipPath><clipPath><rect width="384" height="384"/></clipPath><clipPath><rect width="384" height="384"/></clipPath><clipPath><rect width="384" height="384"/></clipPath></defs><path d="m360 342v-300c0-9.9414-8.0586-18-18-18h-300c-9.9414 0-18 8.0586-18 18v300c0 9.9414 8.0586 18 18 18h300c9.9414 0 18-8.0586 18-18z" fill="#4aaee6"/><path d="m312 127.5-12 36-11.996-35.996h-36l28.652 71.348-28.657 72.647h36l12-36 12 36h36l-28.655-72.647 28.655-71.353zm-276 4e-3v36h24v108h48v-108h24v-36zm108 36v144h96v-36h-60v-24h60v-24h-60v-24h60v-36z" opacity=".3"/><path transform="scale(.75)" d="m415.99 159.99-16 48-15.994-47.994h-48l38.203 95.131-38.209 96.863h48l16-48 16 48h48l-38.207-96.863 38.207-95.137h-48zm-367.99 0.00586v48h32v144h64v-144h32v-48h-128zm144 48v192h128v-48h-80v-32h80v-32h-80v-32h80v-48h-128z" fill="#fff" stroke-width="1.3333"/><path transform="scale(.75)" d="m32 446v10c0 13.255 10.745 24 24 24h400c13.255 0 24-10.745 24-24v-10c0 13.255-10.745 24-24 24h-400c-13.255 0-24-10.745-24-24z" opacity=".3" stroke-width="1.3333"/><path transform="scale(.75)" d="m56 32c-13.255 0-24 10.745-24 24v10c0-13.255 10.745-24 24-24h400c13.255 0 24 10.745 24 24v-10c0-13.255-10.745-24-24-24h-400z" fill="#fff" opacity=".3" stroke-width="1.3333"/></svg>
