<svg width="512" height="512" version="1.1" viewBox="0 0 384 384" xmlns="http://www.w3.org/2000/svg"><defs><linearGradient id="c" x1="458.39" x2="239.82" y1="825.23" y2="861.92" gradientTransform="matrix(1.309 0 0 1.1452 -205.5 -762.34)" gradientUnits="userSpaceOnUse"><stop stop-color="#8c42ab" offset="0"/><stop stop-color="#316fd8" offset=".34511"/><stop stop-color="#6ebeeb" offset="1"/></linearGradient><linearGradient id="b" x1="363.3" x2="267.61" y1="717.47" y2="769.95" gradientTransform="matrix(1.1452 0 0 1.1452 -159.81 -763.12)" gradientUnits="userSpaceOnUse"><stop stop-color="#8c42ab" offset="0"/><stop stop-color="#316fd8" offset=".23116"/><stop stop-color="#6ebeeb" offset="1"/></linearGradient><linearGradient id="a" x1="108.18" x2="549.57" y1="799.16" y2="967.2" gradientTransform="matrix(1.1452 0 0 1.1452 -159.8 -763.14)" gradientUnits="userSpaceOnUse"><stop stop-color="#8c42ab" offset="0"/><stop stop-color="#316fd8" offset=".32741"/><stop stop-color="#6ebeeb" offset="1"/></linearGradient></defs><path d="m325.09 85.66c-2.7747 2.0543-5.3666 4.475-7.771 7.1543-10.21 9.6137-17.556 22.84-21.719 34.515-3.2542 10.87-4.5215 21.409-2.4229 29.807 5.8255 20.003 25.24 30.574 31.835 47.858 0.24471 0.7881 0.47529 1.5845 0.6709 2.4023 3.3205 15.067 0.97479 31.517-4.1382 46.345 1.8396-17.638 0.70289-32.259-12.674-43.619-2.0196-1.7137-7.4664-6.3209-9.9272-8.0684 0.59073 2.228 1.0542 4.4368 1.3975 6.6196-2.4977-2.1067-6.1812-5.1869-8.1987-6.6196 3.6723 32.052-15.103 59.574-38.774 60.091-22.117 0.48269-34.135-8.6973-46.988-22.031-4.6797-9.2724-7.6046-19.02-9.2065-25.646-4.8423-27.598-22.748-30.516-31.434-33.935-7.2487-2.854-17.703-2.3689-22.396-0.95654-2.9265 0.88065-5.8676 5.0419-5.0376 11.31 0.82994 6.268 27.279 18.29 21.297 33.851h-3e-3c-5.9812 15.561-8.8413 47.729 15.154 62.565 20.339 23.081 48.122 37.234 78.652 37.037 0.97193-6e-3 1.942-0.0279 2.9077-0.063 1.2929 0.0434 2.5888 0.071 3.8921 0.063 61.603-0.40798 111.04-59.052 110.43-131 1.1768-18.497-2.964-35.73-10.685-51.107-2.0426-4.2486-4.3978-8.2058-6.8438-11.792-2.1838-3.2994-4.5312-6.4922-7.0254-9.5713-6.9668-10.451-10.217-20.728-13.753-33.303-0.0804-0.86975-0.28445-1.7303-0.43945-1.9028-1.8727 1.3864-3.6609 2.9435-5.3657 4.6304-0.21256-0.65235-0.42493-1.2834-0.63867-1.9482-0.0919-0.86971-0.32528-1.7303-0.50244-1.9028-8e-3 0.0053-0.0166 0.01073-0.0249 0.01613-0.0858-0.39396-0.18343-0.70118-0.26807-0.79541z" fill="url(#c)" stroke-width=".82462"/><path transform="scale(.75)" d="m389.74 192.25c-0.45846 6.2113-0.13944 12.052 1.1641 17.268 7.7674 26.671 33.653 40.766 42.447 63.811 0.32628 1.0508 0.63372 2.1127 0.89453 3.2031 1.058 4.8005 1.674 9.7076 1.9219 14.664 0.39256-8.345-0.15607-16.652-1.9219-24.664-0.26081-1.0904-0.56825-2.1523-0.89453-3.2031-8.7938-23.045-34.68-37.14-42.447-63.811-0.57639-2.3064-0.95246-4.7399-1.1641-7.2676zm104.6 52.111c-0.04253 1.1391-0.08331 2.2774-0.15625 3.4238 0.81835 95.933-65.103 174.13-147.24 174.67-1.7378 0.01067-3.4656-0.02612-5.1895-0.08398-1.2877 0.0468-2.5811 0.07598-3.877 0.08398-40.707 0.26266-77.751-18.608-104.87-49.383-17.894-11.064-24.583-29.357-25.611-46.961-1.1227 20.321 4.2828 43.773 25.611 56.961 27.118 30.775 64.162 49.645 104.87 49.383 1.2959-8e-3 2.5893-0.03718 3.877-0.08398 1.7239 0.05786 3.4517 0.09465 5.1895 0.08398 82.138-0.54397 148.06-78.737 147.24-174.67 0.28845-4.5338 0.33261-9.0089 0.15625-13.424zm-309.28 1.9102c-0.76064 2.2834-1.0724 5.0587-0.65039 8.2461 0.89787 6.781 24.281 18.613 28.811 33.918 5.7665-18.802-23.338-33.609-28.16-42.164zm204.46 23.137c0.22517 1.9653 0.36594 3.9128 0.46679 5.8496 0.10037-1.7817 0.13373-3.5855 0.12891-5.4024-0.18497-0.13601-0.42723-0.32762-0.5957-0.44726zm39.982 48.58c-0.14722 3.3573-0.41 6.7951-0.7793 10.336 0.30098-0.87281 0.58679-1.7539 0.87305-2.6348 0.06704-2.6266 0.03817-5.1913-0.09375-7.7012z" opacity=".3" stroke-width="1.0995"/><path transform="scale(.75)" d="m433.45 114.21c-3.6996 2.739-7.1555 5.9666-10.361 9.5391-13.614 12.818-23.409 30.453-28.959 46.02-3.4451 11.508-5.2102 22.732-4.3945 32.475 0.52568-7.122 2.0769-14.733 4.3945-22.475 5.5505-15.566 15.345-33.201 28.959-46.02 3.2059-3.5724 6.6618-6.8 10.361-9.5391 0.11285 0.12564 0.24303 0.53527 0.35743 1.0606 0.0111-7e-3 0.0225-0.0144 0.0332-0.0215 0.23621 0.23005 0.54739 1.3775 0.66992 2.5371 0.28499 0.88646 0.56814 1.7279 0.85156 2.5977 2.2731-2.2492 4.6574-4.3252 7.1543-6.1738 0.20667 0.23009 0.47874 1.3774 0.58594 2.5371 4.715 16.767 9.0488 30.47 18.338 44.404 3.3256 4.1054 6.4554 8.3625 9.3672 12.762 3.2613 4.7816 6.4015 10.058 9.125 15.723 8.4017 16.733 13.619 35.117 14.402 54.719 0.87243-23.366-4.5868-45.169-14.402-64.719-2.7235-5.6648-5.8637-10.941-9.125-15.723-2.9118-4.3992-6.0416-8.6563-9.3672-12.762-9.289-13.935-13.623-27.637-18.338-44.404-0.1072-1.1597-0.37927-2.307-0.58594-2.5371-2.4969 1.8486-4.8812 3.9247-7.1543 6.1738-0.28342-0.8698-0.56657-1.7112-0.85156-2.5977-0.12253-1.1596-0.43371-2.307-0.66992-2.5371-0.0107 7e-3 -0.0221 0.0143-0.0332 0.0215-0.1144-0.52528-0.24458-0.93491-0.35743-1.0606z" opacity=".1" stroke-width="1.0995"/><path transform="scale(.75)" d="m204.78 237.94c-5.475-0.0786-10.523 0.55451-13.652 1.4961-3.902 1.1742-7.8234 6.7226-6.7168 15.08 0.0729 0.55079 0.30289 1.1373 0.65039 1.7539 1.2338-3.7038 3.6526-6.1076 6.0664-6.834 6.2579-1.8832 20.196-2.5299 29.861 1.2754 11.582 4.5586 35.456 8.4482 41.912 45.246 2.1359 8.8353 6.0358 21.832 12.275 34.195 17.137 17.779 33.161 30.019 62.65 29.375 30.112-0.65717 54.262-34.096 52.166-74.279-2.0015 35.588-24.591 63.678-52.166 64.279-29.49 0.6436-45.513-11.596-62.65-29.375-6.2396-12.363-10.14-25.36-12.275-34.195-6.4564-36.798-30.33-40.687-41.912-45.246-4.8325-1.9026-10.734-2.6929-16.209-2.7715z" fill="#fff" opacity=".2" stroke-width="1.0995"/><path transform="scale(.75)" d="m389.52 269.4c0.40456 3.531 0.58659 7.0156 0.5957 10.447 2.7683 2.0357 7.2142 5.7459 10.336 8.3789-0.45775-2.9105-1.0756-5.8555-1.8633-8.8262 3.2811 2.33 10.544 8.4729 13.236 10.758 12.409 10.537 16.908 23.185 17.678 37.822 0.8306-18.941-2.5275-34.957-17.678-47.822-2.6927-2.2849-9.9552-8.4278-13.236-10.758 0.78764 2.9707 1.4055 5.9157 1.8633 8.8262-3.3303-2.8089-8.2417-6.9159-10.932-8.8262z" opacity=".1" stroke-width="1.0995"/><path transform="scale(.75)" d="m436.17 301.19c-0.54825 11.654-2.9548 23.38-6.5664 34.494-0.10395 4.073-0.41932 8.2844-0.87305 12.635 5.1882-15.046 8.229-31.344 7.4395-47.129z" fill="#fff" opacity=".2" stroke-width="1.0995"/><path d="m155.46 67.83c-0.3124 0.0284-0.51132 0.10799-0.56946 0.24949-0.0782 0.1968 0.35905 1.5312 0.98336 2.9398 2.4936 5.9481 4.4321 18.654 2.7754 26.859l27.058 3.6782c-2.0702-10.441-8.9582-25.548-17.502-30.091-2.5575-1.3576-7.6689-2.863-10.376-3.3897-1.0143-0.19606-1.8488-0.29241-2.3695-0.24507z" fill="#1e96da" stroke-width=".77131"/><path d="m155.9 67.821c-0.16731-0.0052-0.31773-0.0017-0.44789 0.01005-0.31241 0.02843-0.51054 0.10844-0.56868 0.24994-0.0782 0.1968 0.35874 1.5303 0.98299 2.939 0.45018 1.0738 0.88046 2.3732 1.2766 3.8213 0.227 0.03564 0.42667 0.0572 0.67772 0.10569 2.7072 0.52662 7.8195 2.0326 10.377 3.3902 6.7308 3.5791 12.423 13.709 15.552 22.955l1.9493 0.26505c-2.0702-10.441-8.9575-25.548-17.501-30.091-2.5575-1.3576-7.6699-2.8637-10.377-3.3902-0.7607-0.14705-1.4188-0.23867-1.9207-0.25498zm3.2376 26.233c-0.0983 1.3441-0.25473 2.6355-0.49486 3.8247l0.61563 0.08417c8e-3 -1.282-0.0367-2.5933-0.12077-3.9086z" fill="#082739" opacity=".3" stroke-width=".77131"/><path d="m173.43 60.024c-0.1568-0.0046-0.28713 8e-3 -0.38752 0.03642-0.0506 0.01477-0.0925 0.03424-0.12748 0.05841-0.0343 0.02359-0.0621 0.05153-0.0805 0.08463v0.0012c-3.9091 12.703-10.568 21.46-17.684 27.844-7.1013 0.95924-13.993 4.0142-21.372 6.3462-7.0348 1.3392-14.019 0.89073-20.6-1.1735-3.1094-0.97483-3.1316-0.97519-3.1067-0.11676 3.3217 19.743 11.896 45.334 31.385 50.578 1.4414 0.38785 2.7792 0.77369 4.0445 1.156 0.13295 0.0396 0.25461 0.0784 0.38582 0.11823 1.1947 0.36513 2.3329 0.72838 3.3936 1.0859 15.654 2.7939 16.794 5.5696 27.651 15.89 0 0-3.5056-3.86-13.254-4.1203 25.671 8.5169 27.023 51.233 23.755 67.37-2.4285 11.995-9.6087 22.513-20.249 29.111-17.468 9.0388-36.161 10.407-50.758 3.7146-0.52536-0.24063-1.0444-0.4912-1.5567-0.75171-1.5054-0.77524-2.952-1.6354-4.3347-2.5775-0.0726-0.0493-0.14589-0.0978-0.21807-0.14744-1.3582-0.93476-2.6525-1.9478-3.8784-3.0359-0.0592-0.0523-0.11723-0.10616-0.17614-0.1591-1.2419-1.1129-2.4114-2.302-3.5043-3.5628l-8e-3 -9e-3c-1.1-1.2753-2.1207-2.6222-3.058-4.0357-0.02357-0.0352-0.04869-0.0695-0.07217-0.10501-0.91354-1.3888-1.7459-2.8399-2.4945-4.348-0.03939-0.0791-0.08028-0.15708-0.1191-0.23644-0.72938-1.4887-1.3765-3.0308-1.9392-4.6209-0.03768-0.1065-0.07375-0.2141-0.11074-0.32104-0.55576-1.6038-1.0254-3.254-1.4074-4.945-0.01385-0.0613-0.02497-0.1239-0.0386-0.18541-0.38431-1.7307-0.67653-3.5018-0.87566-5.3069-0.0023-0.015-0.0057-0.0299-0.0069-0.0456-0.19388-1.8099-0.29409-3.6516-0.30026-5.5185-3.43e-4 -0.0761-0.0012-0.15163-0.0012-0.2277 2.4e-4 -1.8381 0.0915-3.6983 0.27344-5.5741 0.0092-0.0981 0.02016-0.19661 0.03024-0.29488 0.18978-1.885 0.4708-3.7832 0.84211-5.6879 0.01511-0.0772 0.03321-0.15484 0.04867-0.23204 0.26551-1.3399 0.57546-2.682 0.92932-4.024-2.4608 1.7475-7.9083 6.3546-9.9278 8.0685-17.322 14.711-14.143 34.871-10.516 60.001 0.23435 1.615 0.34438 2.9927 0.22982 3.0724-0.34295 0.23613-0.82301-0.47192-2.6723-4.1043-9.1889-18.058-15.178-41.164-10.654-61.696 4.6009-19.235 23.369-29.838 28.771-51.041 1.8361-8.3971 0.72666-18.936-2.1204-29.805-4.54-14.552-13.401-31.52-26.057-40.889-0.155 0.17257-0.35912 1.0336-0.43951 1.9032-3.5362 12.575-6.7872 22.85-13.754 33.301-2.4942 3.0791-4.8415 6.2733-7.0254 9.5733-2.446 3.5862-4.8013 7.5432-6.8442 11.792-7.7206 15.377-11.861 32.609-10.684 51.108-0.17263 20.236 3.6148 39.418 10.518 56.55 1.71e-4 4.4e-4 -1.83e-4 0 0 0 17.642 43.78 55.635 74.159 99.913 74.445 61.601 0.39749 112.03-57.606 112.65-129.55 8e-3 -0.96494 5e-3 -1.9273-7e-3 -2.8884-2e-5 0 5e-5 -8e-3 0-9e-3 -0.0122-0.95724-0.035-1.9134-0.0671-2.8666-0.0227-0.67278-0.0566-1.3435-0.0889-2.0142-0.0136-0.28331-0.0215-0.56795-0.0369-0.85087-5.2e-4 -9e-3 -8.6e-4 -0.0195-3e-3 -0.0292-0.0517-0.94291-0.11211-1.8828-0.18284-2.8213-8.6e-4 -0.0127-3e-3 -0.0254-4e-3 -0.0382-0.0706-0.93494-0.15047-1.8676-0.23989-2.7979-3e-3 -0.0165-4e-3 -0.0322-5e-3 -0.0479-0.0895-0.92669-0.18748-1.8513-0.29525-2.7731-3e-3 -0.0195-5e-3 -0.0388-7e-3 -0.0583-0.0356-0.30347-0.0781-0.60493-0.11575-0.90792-0.0789-0.63647-0.15728-1.2737-0.24492-1.9076-0.12584-0.91046-0.26076-1.8184-0.40429-2.7235-8.5e-4 -8e-3 -9.1e-4 -0.0157-4e-3 -0.0231-0.0867-0.54613-0.18372-1.0891-0.27678-1.6332-0.0636-0.37199-0.1213-0.74556-0.18787-1.1166-3e-3 -0.0119-5e-3 -0.0247-7e-3 -0.0366-0.10008-0.55719-0.21028-1.1104-0.31705-1.6653-0.0676-0.3507-0.12953-0.70253-0.19963-1.0524-3e-3 -0.0103-5e-3 -0.0217-7e-3 -0.0322-0.15612-0.77815-0.3208-1.5529-0.48983-2.3266-0.0275-0.12576-0.0528-0.25236-0.0805-0.37797-7.4e-4 0-8.6e-4 -8e-3 -3e-3 -0.0103-0.13506-0.60978-0.28139-1.2162-0.4244-1.823-0.0694-0.29436-0.13342-0.59073-0.20467-0.88449-5e-3 -0.0165-8e-3 -0.0328-0.0118-0.0493-0.0894-0.36812-0.18613-0.73347-0.27846-1.1005-0.13756-0.5468-0.27373-1.0949-0.4177-1.6391-3e-3 -9e-3 -5e-3 -0.0187-7e-3 -0.0277-0.0523-0.19773-0.10948-0.39368-0.16272-0.5911-0.18566-0.68908-0.37282-1.3775-0.56867-2.0624-4e-3 -0.0103-5e-3 -0.0217-8e-3 -0.0322-0.0672-0.23494-0.13958-0.46765-0.20801-0.70208-0.18574-0.63624-0.37087-1.2723-0.56531-1.9047-0.12768-0.41534-0.26282-0.82695-0.39422-1.2407-0.1391-0.43792-0.27446-0.87754-0.41771-1.3136-3.5005-12.223-11.071-28.071-34.347-46.725-0.0114-9e-3 -0.0237-0.0186-0.0352-0.0277-0.73958-0.59309-1.4949-1.1886-2.2663-1.7865-0.9304-0.55381-1.8899-1.1807-2.117-1.4187-0.22975-0.23879-0.50742-1.7481-0.63242-3.3424-0.82705-10.614-5.89-26.432-13.839-31.957-0.59497-0.41288-1.3474-0.85359-2.1824-1.2961-0.55885-0.29613-1.1594-0.5892-1.7698-0.87865-0.15644-0.07421-0.30668-0.14583-0.46465-0.21894-0.32044-0.14829-0.62908-0.28116-0.95117-0.42327-0.59406-0.26226-1.1636-0.50377-1.7329-0.73416-0.31997-0.12951-0.6353-0.26057-0.93775-0.37656-0.11969-0.04592-0.23108-0.08784-0.34725-0.13136-0.55117-0.20651-1.0756-0.39579-1.5198-0.53858-0.98408-0.31504-1.8008-0.5092-2.3234-0.52397z" fill="url(#b)" stroke-width=".77131"/><path d="m141.84 100.34c35.495-9.8607 21.334 3.2065 21.334 3.2065-4.8746-1.8942-9.7528-3.5006-21.334-3.2065z" fill="#f0f5fd" opacity=".3" stroke-width=".90665"/><path d="m110.44 92.478c-0.39112-0.01469-0.38988 0.19984-0.37744 0.62906 3.3217 19.743 11.896 45.335 31.385 50.578 1.4415 0.38787 2.7792 0.77351 4.0445 1.1558 0.13296 0.0403 0.25463 0.0791 0.38584 0.11905 1.1947 0.36511 2.3329 0.7279 3.3936 1.0854 15.553 2.7758 16.798 5.55 27.461 15.707-0.83178-0.76234-4.5806-3.7106-13.065-3.9371 17.924 5.9464 23.985 28.559 24.903 47.161 1.006-19.418-3.4701-50.357-24.903-57.468 8.4839 0.22658 12.233 3.1748 13.065 3.9371-10.662-10.156-11.908-12.931-27.461-15.707-1.0607-0.35746-2.1989-0.72026-3.3936-1.0854-0.13121-0.0403-0.25288-0.0791-0.38584-0.11904-1.2653-0.38229-2.603-0.76793-4.0445-1.1558-16.279-4.3799-24.926-22.953-29.274-40.46-0.83631-0.25572-1.45-0.43059-1.7329-0.44118z" opacity=".1" stroke-width=".77131"/><path d="m141.84 98.848c35.495-9.8607 21.334 3.2065 21.334 3.2065-4.8746-1.8942-9.7528-3.5006-21.334-3.2065z" fill="#153873" stroke-width=".90665"/><path d="m166.03 60.205c31.248 15.895-7.694 57.71 15.512 88.194 19.442 24.971 30.152 48.18 9.8625 78.239-14.284 21.163-26.904 36.158-58.185 35.505s-43.916-38.968-38.776-60.092c-2.0175 1.4327-5.7009 4.5138-8.1987 6.6205 0.34331-2.1828 0.80769-4.3925 1.3984-6.6205-2.4608 1.7475-7.9083 6.3557-9.9278 8.0694-13.377 11.359-14.514 25.98-12.674 43.618-5.113-14.827-7.4588-31.278-4.1383-46.344 4.6009-19.235 23.368-29.84 28.771-51.041 1.8361-8.3972 0.72609-18.935-2.1209-29.805-4.54-14.552-13.4-31.521-26.055-40.89-0.155 0.17257-0.35922 1.0334-0.4396 1.9031-0.27696 0.98489-0.55202 1.9321-0.82741 2.8899-1.7547-1.7508-3.599-3.3614-5.5328-4.7931-0.15499 0.17257-0.35922 1.0334-0.4396 1.9031-3.5362 12.575-6.7871 22.851-13.754 33.302-2.4942 3.0791-4.8418 6.273-7.0256 9.5724-2.446 3.5862-4.8008 7.5424-6.8434 11.791-7.7206 15.377-11.862 32.61-10.685 51.108-0.61376 71.95 48.827 130.59 110.43 131 1.3033 8e-3 2.5997-0.019 3.8926-0.0624 0.96576 0.0351 1.9353 0.0562 2.9073 0.0624 61.601 0.39748 112.03-57.606 112.65-129.56 0.12685-15.433-2.344-30.396-6.9379-44.381-3.6134-12.618-11.563-29.096-36.649-48.538-0.93041-0.55381-1.8899-1.1805-2.117-1.4184-0.22973-0.23879-0.50719-1.7486-0.63218-3.3428-0.82706-10.614-5.8894-26.432-13.839-31.957-2.3799-1.6516-7.28-3.7538-9.9061-4.5979-0.98408-0.31504-1.5354-0.42435-2.3228-0.5246-3.4953-0.44503-5.2471-0.58301-7.3963 0.18195z" fill="url(#a)" stroke-width=".77131"/><path d="m169.22 59.66c-1.1435 0.0055-2.1181 0.16204-3.1928 0.54452 8.7025 4.427 11.958 10.866 12.63 18.51 0.48274-7.0467-0.31563-13.389-4.1835-18.516-0.34544-0.07478-0.6703-0.12689-1.0505-0.17531-1.7476-0.22251-3.0599-0.36807-4.2034-0.36257zm4.5939 60.102c-0.52109 9.8934 0.95788 19.748 7.7254 28.637 11.247 14.445 19.557 28.304 20.649 43.238 1.3522-17.59-7.7145-33.425-20.649-50.038-5.2132-6.8481-7.2848-14.268-7.7254-21.838zm-83.353 23.996c-0.13248 2.0206-0.38498 3.9634-0.7862 5.7985-5.4024 21.203-24.169 31.806-28.771 51.041-1.297 5.8856-1.7189 11.982-1.4596 18.111 0.1747-3.8242 0.64384-7.6097 1.4596-11.311 4.6009-19.235 23.368-29.84 28.771-51.041 0.8338-3.8134 1.0544-8.0714 0.7862-12.598zm-74.643 39.982c-0.11082 3.1593-0.07736 6.358 0.12883 9.5978-0.61376 71.95 48.827 130.59 110.43 131 1.3033 8e-3 2.5997-0.0189 3.8926-0.0624 0.96576 0.0351 1.9353 0.0562 2.9073 0.0624 61.601 0.39747 112.03-57.606 112.65-129.56 0.0124-1.5103-7e-3 -3.0146-0.0438-4.5155-1.6503 70.889-51.66 127.66-112.61 127.28-0.97193-6e-3 -1.9415-0.0273-2.9073-0.0624-1.2929 0.0434-2.5893 0.0705-3.8926 0.0624-61.601-0.39779-111.04-59.047-110.43-131-0.05962-0.93693-0.09627-1.868-0.12883-2.7983zm78.62 18.314c-0.45057 0.31995-1.0061 0.74411-1.591 1.1993-0.51615 3.8409-0.65843 7.5941-0.43031 11.212 0.24049-4.0343 0.90166-8.1884 2.0214-12.411zm-29.999 36.818c-0.09378 2.0126-0.09739 4.0758-0.02523 6.1876 0.20493 0.62876 0.40796 1.2586 0.62289 1.8819-0.28862-2.7675-0.49138-5.4515-0.59764-8.0694z" fill="#2f1639" opacity=".3" stroke-width=".77131"/><path d="m54.695 85.661c-0.15499 0.17257-0.35922 1.0322-0.4396 1.9019-3.5362 12.575-6.7868 22.853-13.754 33.304-2.4942 3.079-4.8418 6.2731-7.0256 9.5729-2.4459 3.5862-4.8011 7.5424-6.8434 11.791-7.3296 14.598-11.424 30.871-10.813 48.308 0.5219-14.877 4.4452-28.825 10.813-41.508 2.0426-4.2486 4.3978-8.2047 6.8434-11.791 2.1838-3.2998 4.5314-6.4939 7.0256-9.5729 6.9672-10.451 10.217-20.729 13.754-33.304 0.08039-0.8697 0.28461-1.7293 0.4396-1.9019 1.9338 1.4317 3.7781 3.041 5.5329 4.7918 0.27538-0.95783 0.55045-1.9051 0.82741-2.8899 0.08039-0.8697 0.2846-1.7293 0.4396-1.9019 12.655 9.3695 21.516 26.338 26.056 40.89 1.554 5.9332 2.5849 11.764 2.9072 17.206 0.47349-7.2256-0.6825-15.512-2.9072-24.006-4.5399-14.552-13.401-31.52-26.056-40.89-0.155 0.17256-0.35921 1.0322-0.4396 1.9019-0.27695 0.98489-0.55202 1.9321-0.82741 2.8899-1.7548-1.7508-3.599-3.3601-5.5329-4.7918zm32.946 116.39c-2.4609 1.7475-7.9083 6.3558-9.9278 8.0694-11.278 9.5769-13.843 21.481-13.272 35.548 0.51904-11.139 3.8584-20.755 13.272-28.748 2.0196-1.7137 7.4669-6.322 9.9278-8.0694-0.59077 2.228-1.0552 4.4377-1.3985 6.6206 1.9399-1.6362 4.5729-3.8383 6.6073-5.4213 0.35348-2.6303 0.87535-5.3 1.591-7.9994-2.0175 1.4327-5.7007 4.5139-8.1986 6.6206 0.34331-2.1828 0.80769-4.3926 1.3985-6.6206zm-28.201 23.447c-0.5378 11.743 1.7417 23.853 5.5993 35.039-0.31111-2.9832-0.52689-5.8723-0.62288-8.6821-2.7666-8.4883-4.6003-17.455-4.9764-26.358z" opacity=".1" stroke-width=".67999"/><path transform="scale(.75)" d="m225.63 79.541c-1.5247 0.0073-2.825 0.21659-4.2578 0.72656l-2e-3 0.0059c5.5544 2.8254 9.4322 6.2708 12.078 10.207 0.28594 0.07822 0.53113 0.13156 0.88281 0.24414 3.5015 1.1255 10.036 3.9288 13.209 6.1309 10.6 7.3668 17.349 28.455 18.451 42.607 0.16667 2.1257 0.53749 4.1406 0.84375 4.459 0.3028 0.31721 1.5817 1.1522 2.8223 1.8906 33.447 25.923 44.048 47.893 48.865 64.717 5.4844 16.695 8.6904 34.439 9.1816 52.74 0.0306-1.1863 0.0582-2.3742 0.0684-3.5664 0.16914-20.577-3.1249-40.528-9.25-59.174-4.8178-16.824-15.418-38.794-48.865-64.717-1.2406-0.73841-2.5194-1.5734-2.8223-1.8906-0.3063-0.31839-0.67709-2.3333-0.84375-4.459-1.1027-14.152-7.8516-35.241-18.451-42.607-3.1732-2.2021-9.7075-5.0054-13.209-6.1309-1.3121-0.42005-2.0477-0.56555-3.0977-0.69922-2.3302-0.29669-4.0788-0.4917-5.6035-0.48438z" fill="#e3bdf2" opacity=".2" stroke-width="1.0284"/><path transform="scale(.75)" d="m238.17 114.56c-1.2474 16.59-7.6484 36.058-6.3867 54.809 1.0888-19.503 7.9129-39.096 6.3867-54.809z" fill="#e3bdf2" opacity=".2" stroke-width="1.0284"/><path transform="scale(.75)" d="m269.54 264.93c-0.96568 11.696-5.3703 23.975-14.338 37.26-19.046 28.217-35.872 48.211-77.58 47.34-33.632-0.70216-51.086-34.051-52.996-61.709-2.2002 28.838 15.175 70.919 52.996 71.709 41.708 0.87077 58.534-19.122 77.58-47.34 11.558-17.123 15.553-32.576 14.338-47.26z" fill="#e3bdf2" opacity=".2" stroke-width="1.0284"/><path transform="scale(.75)" d="m79.279 301.19c-0.79013 15.786 2.2509 32.086 7.4395 47.133-0.45409-4.3538-0.77133-8.5686-0.875-12.645-3.6106-11.113-6.0167-22.836-6.5645-34.488z" fill="#e3bdf2" opacity=".2" stroke-width="1.0284"/></svg>
