<svg xmlns="http://www.w3.org/2000/svg" width="12pt" height="12pt" version="1.1" viewBox="0 0 12 12">
 <g>
  <path style="fill:rgb(82.745098%,85.490196%,89.019608%)" d="M 2.5 2.5 L 2.5 9.5 L 6.5 9.5 L 6.5 8.5 L 5.5 8.5 L 5.5 7.5 L 6.5 7.5 L 6.5 6.5 L 5.5 6.5 L 5.5 5.5 L 6.5 5.5 L 6.5 4.5 L 5.5 4.5 L 5.5 3.5 L 6.5 3.5 L 6.5 2.5 Z M 7 3 L 7 6.5 L 7.5 6.5 L 7.5 6.359375 L 9 4.859375 L 9 6.140625 L 8.640625 6.5 L 9.5 6.5 L 9.5 3 L 9 3 L 9 4.140625 L 7.5 5.640625 L 7.5 4.359375 L 8.859375 3 L 8.140625 3 L 7.5 3.640625 L 7.5 3 Z M 3.5 3.5 L 4.5 3.5 L 4.5 4.5 L 3.5 4.5 Z M 3.5 5.5 L 4.5 5.5 L 4.5 6.5 L 3.5 6.5 Z M 7.5 7 L 7.5 9 L 9.5 8 Z M 3.5 7.5 L 4.5 7.5 L 4.5 8.5 L 3.5 8.5 Z M 3.5 7.5"/>
 </g>
</svg>
