<svg xmlns="http://www.w3.org/2000/svg" width="12pt" height="12pt" version="1.1" viewBox="0 0 12 12">
 <g>
  <path style="fill:rgb(82.745098%,85.490196%,89.019608%)" d="M 2 3 L 2 9 L 7 9 L 10 6 L 7 3 Z M 4 4 L 4.5 4 L 4.5 4.5 L 4 4.5 C 3.722656 4.5 3.5 4.722656 3.5 5 L 3.5 5.5 C 3.5 5.691406 3.429688 5.867188 3.3125 6 C 3.429688 6.132812 3.5 6.308594 3.5 6.5 L 3.5 7 C 3.5 7.277344 3.722656 7.5 4 7.5 L 4.5 7.5 L 4.5 8 L 4 8 C 3.449219 8 3 7.550781 3 7 L 3 6.5 C 3 6.363281 2.886719 6.25 2.75 6.25 L 2.5 6.25 L 2.5 5.75 L 2.75 5.75 C 2.886719 5.75 3 5.636719 3 5.5 L 3 5 C 3 4.449219 3.449219 4 4 4 Z M 5 4 L 5.5 4 C 6.050781 4 6.5 4.449219 6.5 5 L 6.5 5.5 C 6.5 5.636719 6.613281 5.75 6.75 5.75 L 7 5.75 L 7 6.25 L 6.75 6.25 C 6.613281 6.25 6.5 6.363281 6.5 6.5 L 6.5 7 C 6.5 7.550781 6.050781 8 5.5 8 L 5 8 L 5 7.5 L 5.5 7.5 C 5.777344 7.5 6 7.277344 6 7 L 6 6.5 C 6 6.308594 6.070312 6.132812 6.1875 6 C 6.070312 5.867188 6 5.691406 6 5.5 L 6 5 C 6 4.722656 5.777344 4.5 5.5 4.5 L 5 4.5 Z M 5 4"/>
 </g>
</svg>
