<svg xmlns="http://www.w3.org/2000/svg" width="12pt" height="12pt" version="1.1" viewBox="0 0 12 12">
 <g>
  <path style="fill:rgb(82.745098%,85.490196%,89.019608%)" d="M 6 2.5 C 4.066406 2.5 2.5 4.070312 2.5 6 C 2.5 7.933594 4.066406 9.5 6 9.5 C 7.933594 9.5 9.5 7.933594 9.5 6 C 9.5 4.070312 7.933594 2.5 6 2.5 Z M 6 3.875 C 6.34375 3.875 6.625 4.15625 6.625 4.5 C 6.625 4.847656 6.34375 5.125 6 5.125 C 5.65625 5.125 5.375 4.847656 5.375 4.5 C 5.375 4.15625 5.65625 3.875 6 3.875 Z M 5.5 5.5 L 6.5 5.5 L 6.5 8 L 5.5 8 Z M 5.5 5.5"/>
 </g>
</svg>
