<svg xmlns="http://www.w3.org/2000/svg" width="12pt" height="12pt" version="1.1" viewBox="0 0 12 12">
 <g>
  <path style="fill:rgb(82.745098%,85.490196%,89.019608%)" d="M 2.503906 2.746094 L 2.507812 2.75 C 2.375 2.742188 2.261719 2.84375 2.25 2.980469 C 2.238281 3.113281 2.335938 3.230469 2.46875 3.25 C 2.46875 3.25 4.3125 3.503906 5.617188 4.335938 C 6.269531 4.753906 6.773438 5.292969 6.898438 5.996094 C 7.019531 6.703125 6.78125 7.628906 5.804688 8.84375 C 5.746094 8.917969 5.734375 9.019531 5.777344 9.105469 C 5.816406 9.191406 5.902344 9.246094 5.996094 9.25 C 7.804688 9.25 8.78125 8.582031 9.265625 7.894531 C 9.746094 7.203125 9.742188 6.5 9.742188 6.5 C 9.746094 6.40625 9.699219 6.324219 9.621094 6.277344 C 9.542969 6.234375 9.445312 6.234375 9.367188 6.277344 C 9.289062 6.324219 9.242188 6.40625 9.242188 6.5 C 9.242188 6.5 9.246094 7.042969 8.851562 7.605469 C 8.507812 8.09375 7.761719 8.535156 6.480469 8.65625 C 7.195312 7.601562 7.515625 6.671875 7.382812 5.90625 C 7.222656 5.019531 6.601562 4.371094 5.878906 3.914062 C 4.433594 2.992188 2.527344 2.75 2.527344 2.75 C 2.519531 2.75 2.511719 2.746094 2.503906 2.746094 Z M 2.503906 2.746094"/>
 </g>
</svg>
