<svg xmlns="http://www.w3.org/2000/svg" width="12pt" height="12pt" version="1.1" viewBox="0 0 12 12">
 <g>
  <path style="fill:rgb(82.745098%,85.490196%,89.019608%)" d="M 9 2.75 L 9 3.75 L 9.5 3.75 L 9.5 2.75 Z M 9 4.25 L 9 5.25 L 9.5 5.25 L 9.5 4.25 Z M 9 5.75 L 9 6.75 L 9.5 6.75 L 9.5 5.75 Z M 9 7.25 L 9 8.25 L 9.5 8.25 L 9.5 7.25 Z M 8.5 8.5 L 8.5 10 L 10 10 L 10 8.5 Z M 2.75 9 L 2.75 9.5 L 3.75 9.5 L 3.75 9 Z M 4.25 9 L 4.25 9.5 L 5.25 9.5 L 5.25 9 Z M 5.75 9 L 5.75 9.5 L 6.75 9.5 L 6.75 9 Z M 7.25 9 L 7.25 9.5 L 8.25 9.5 L 8.25 9 Z M 7.25 9"/>
 </g>
</svg>
