<svg xmlns="http://www.w3.org/2000/svg" width="12pt" height="12pt" version="1.1" viewBox="0 0 12 12">
 <g>
  <path style="fill:rgb(82.745098%,85.490196%,89.019608%)" d="M 6 2.5 C 4.066406 2.5 2.5 4.066406 2.5 6 C 2.5 7.933594 4.066406 9.5 6 9.5 C 7.933594 9.5 9.5 7.933594 9.5 6 C 9.5 4.066406 7.933594 2.5 6 2.5 Z M 4.5 4.5 C 4.777344 4.5 5 4.726562 5 5 C 5 5.273438 4.777344 5.5 4.5 5.5 C 4.222656 5.5 4 5.273438 4 5 C 4 4.726562 4.222656 4.5 4.5 4.5 Z M 7.5 4.5 C 7.777344 4.5 8 4.726562 8 5 C 8 5.273438 7.777344 5.5 7.5 5.5 C 7.222656 5.5 7 5.273438 7 5 C 7 4.726562 7.222656 4.5 7.5 4.5 Z M 6 7 C 6.785156 7 7.527344 7.371094 8 8 L 4 8 C 4.472656 7.371094 5.214844 7 6 7 Z M 6 7"/>
 </g>
</svg>
