<svg xmlns="http://www.w3.org/2000/svg" width="12pt" height="12pt" version="1.1" viewBox="0 0 12 12">
 <g>
  <path style="fill:rgb(82.745098%,85.490196%,89.019608%)" d="M 7.015625 2.5 C 6.941406 2.5 6.863281 2.507812 6.785156 2.519531 C 6.5 2.558594 6.160156 2.695312 5.777344 2.898438 C 5.007812 2.472656 4.40625 2.445312 3.902344 2.578125 C 3.367188 2.714844 2.933594 2.941406 2.257812 2.921875 L 2 2.914062 L 2 10 L 9.5 10 L 9.5 2.921875 L 9.242188 2.929688 C 8.484375 2.957031 8.105469 2.730469 7.617188 2.585938 C 7.433594 2.53125 7.234375 2.496094 7.015625 2.5 Z M 4.609375 2.996094 C 4.859375 3.015625 5.140625 3.105469 5.5 3.304688 L 5.5 7.667969 C 4.949219 7.347656 4.394531 7.320312 3.90625 7.445312 C 3.582031 7.523438 3.285156 7.617188 3 7.695312 L 3 3.332031 C 3.402344 3.257812 3.738281 3.140625 4.027344 3.066406 C 4.144531 3.035156 4.253906 3.011719 4.367188 3 C 4.445312 2.992188 4.527344 2.992188 4.609375 2.996094 Z M 7.167969 3 C 7.273438 3.015625 7.371094 3.039062 7.476562 3.070312 C 7.742188 3.148438 8.070312 3.277344 8.5 3.351562 L 8.5 7.691406 C 8.214844 7.617188 7.917969 7.519531 7.59375 7.441406 C 7.105469 7.316406 6.550781 7.347656 6 7.683594 L 6 3.335938 C 6.351562 3.140625 6.621094 3.035156 6.839844 3.003906 C 6.960938 2.984375 7.066406 2.988281 7.167969 3 Z M 7.167969 3"/>
 </g>
</svg>
