<svg width="512" height="512" enable-background="new 1372 1372 256 256" version="1.1" viewBox="1372 1372 512 512" xmlns="http://www.w3.org/2000/svg"><g transform="translate(0,256)" display="none"><g display="inline"><path d="m1500 1372c-68.028 0-122.96 55.103-122.96 122.96 0 67.937 55.034 122.96 122.96 122.96 68.232 0 122.96-55.286 122.96-122.96 1e-3 -68.02-55.142-122.96-122.96-122.96zm63.276 195.38c-17.527 15.359-39.755 23.752-63.276 23.752-23.517 0-45.741-8.389-63.267-23.741-2.371-2.079-3.442-5.271-2.81-8.358 6.054-29.572 24.891-52.895 48.869-60.567-12.513-7.407-21.101-22.623-21.101-40.207 0-24.856 17.152-45.006 38.309-45.006 21.158 0 38.308 20.15 38.308 45.006 0 17.58-8.584 32.795-21.093 40.202 23.977 7.671 42.813 30.993 48.869 60.564 0.634 3.082-0.44 6.281-2.808 8.355z"/></g></g><g transform="matrix(1.8298 0 0 1.8298 -1116.8 -1116.7)"><g id="XMLID_1_"><path d="m1561.5 1524.8c11.767 35.3 17.431 40.18-8.543 66.637-11.076 11.283-47.926 14.257-63.648 12.035-17.185-2.428-56.029-10.983-63.309-30.172-5.479-14.439 9.165-38.605 12.066-52.761 9.67-47.178 11.666-113.77 72.604-111.1 55.05 2.408 38.651 78.83 50.83 115.37z" fill="#fff"/></g></g><g transform="matrix(1.8298 0 0 1.8298 -1116.8 -1116.7)"><path d="m1500 1377c-68.028 0-122.96 55.103-122.96 122.96 0 67.937 55.034 122.96 122.96 122.96 68.232 0 122.96-55.286 122.96-122.96 1e-3 -68.02-55.142-122.96-122.96-122.96zm63.276 195.38c-17.527 15.359-39.755 23.752-63.276 23.752-23.517 0-45.741-8.389-63.267-23.741-2.371-2.079-3.442-5.271-2.81-8.358 6.054-29.572 24.891-52.895 48.869-60.567-12.513-7.407-21.101-22.623-21.101-40.207 0-24.856 17.152-45.006 38.309-45.006 21.158 0 38.308 20.15 38.308 45.006 0 17.58-8.584 32.795-21.093 40.202 23.977 7.672 42.813 30.993 48.869 60.564 0.634 3.082-0.44 6.281-2.808 8.355z" fill="#fff"/></g><g id="Layer_2_copy" transform="matrix(1.8298 0 0 1.8298 -1116.8 -1116.7)"><linearGradient id="SVGID_1_" x1="1405" x2="1438.7" y1="1550.5" y2="1478.2" gradientUnits="userSpaceOnUse"><stop stop-color="#bf2e5e" offset=".3233"/><stop stop-color="#ca2a2a" offset=".6302"/><stop stop-color="#ca2a2a" offset=".7514"/><stop stop-color="#fd8a19" offset="1"/></linearGradient><path d="m1471.8 1493.6c-14.431-3.889-29.332-6.058-44.422-6.394-16.714-0.372-33.329 0.91-49.904 2.725-0.265 3.297-0.406 6.629-0.406 9.994 0 14.267 2.436 27.959 6.898 40.696 7.518-0.361 15.043-0.541 22.57-0.648 11.227-0.16 22.444-0.319 33.456 2.245 0.366 0.085 0.722 0.188 1.086 0.278 9.01-19.072 23.959-33.376 41.743-39.066-4.172-2.47-7.895-5.825-11.021-9.83z" fill="url(#SVGID_1_)"/><linearGradient id="SVGID_2_" x1="1504.9" x2="1558.5" y1="1470.4" y2="1391.1" gradientUnits="userSpaceOnUse"><stop stop-color="#fd9733" offset="0"/><stop stop-color="#fd9733" offset=".3123"/><stop stop-color="#fd8a19" offset=".8383"/></linearGradient><path d="m1481.1 1424.1c5.578-3.726 12.025-5.865 18.901-5.865 17.103 0 31.583 13.169 36.506 31.346 12.247 6.416 24.462 12.903 36.999 18.711 16.029 7.427 32.35 14.182 48.921 20.192-5.781-62.625-58.461-111.5-122.43-111.5-32.611 0-62.209 12.666-84.191 33.327 22.242 1.09 44.343 6.292 65.29 13.793z" fill="url(#SVGID_2_)"/><linearGradient id="SVGID_3_" x1="1558.2" x2="1587.3" y1="1537.7" y2="1475.4" gradientUnits="userSpaceOnUse"><stop stop-color="#bf2e5e" offset=".3233"/><stop stop-color="#ca2a2a" offset=".6302"/><stop stop-color="#ca2a2a" offset=".7514"/><stop stop-color="#fd8a19" offset="1"/></linearGradient><path d="m1537.5 1453.9c0.543 3.019 0.834 6.146 0.834 9.354 0 17.58-8.584 32.795-21.093 40.202 14.476 4.632 27.071 14.975 36.119 28.946 4.319 2.785 8.678 5.529 13.12 8.166 13.332 7.913 27.268 13.814 41.599 18.107 9.508-17.471 14.908-37.481 14.908-58.72 0-2.726-0.099-5.428-0.272-8.108-29.192-10.623-57.585-23.489-85.215-37.947z" fill="url(#SVGID_3_)"/><linearGradient id="SVGID_4_" x1="1412.8" x2="1453.7" y1="1503" y2="1415.2" gradientUnits="userSpaceOnUse"><stop stop-color="#bf2e5e" offset=".3233"/><stop stop-color="#ca2a2a" offset=".6302"/><stop stop-color="#ca2a2a" offset=".7514"/><stop stop-color="#fd8a19" offset="1"/></linearGradient><path d="m1477.9 1426.5c-10.841-3.85-21.934-7.031-33.383-9.272-10.657-2.086-21.388-3.176-32.146-3.551-18.955 19.248-31.609 44.708-34.645 73.038 7.708-0.847 15.428-1.58 23.17-2.056 22.981-1.415 45.856-0.394 68.013 4.931-4.555-7.4-7.243-16.488-7.243-26.319 0-15.195 6.417-28.621 16.234-36.771z" fill="url(#SVGID_4_)"/><linearGradient id="SVGID_5_" x1="1561.8" x2="1581.6" y1="1591.9" y2="1549.5" gradientUnits="userSpaceOnUse"><stop stop-color="#bf2e5e" offset=".3233"/><stop stop-color="#ca2a2a" offset=".6302"/><stop stop-color="#ca2a2a" offset=".7514"/><stop stop-color="#fd8a19" offset="1"/></linearGradient><path d="m1591.9 1556.8c-12.522-5.059-24.045-11.727-35.291-18.874 4.305 7.874 7.557 16.691 9.494 26.153 0.633 3.083-0.441 6.281-2.809 8.355-5.374 4.709-11.192 8.755-17.352 12.113 11.632 3.114 23.417 5.703 35.29 7.818 9.905-8.723 18.38-19.017 25.062-30.477-4.861-1.492-9.666-3.178-14.394-5.088z" fill="url(#SVGID_5_)"/><linearGradient id="SVGID_6_" x1="1460.4" x2="1487.9" y1="1617" y2="1555" gradientUnits="userSpaceOnUse"><stop stop-color="#112d5c" offset="0"/><stop stop-color="#703589" offset=".0955"/><stop stop-color="#bf2e5e" offset=".7882"/><stop stop-color="#ca2a2a" offset=".9487"/></linearGradient><path d="m1541.7 1586.7c-12.853 6.201-27.039 9.476-41.73 9.476-23.517 0-45.741-8.389-63.267-23.741-2.371-2.079-3.442-5.271-2.81-8.358 1.336-6.527 3.297-12.749 5.797-18.565-1.938-0.463-3.908-0.857-5.921-1.165-15.884-2.424-32.586-1.286-48.582-0.536-0.047 0-0.094 0.01-0.14 0.01 17.646 46.284 62.431 79.147 114.92 79.147 29.652 0 56.75-10.445 77.919-27.808-12.202-2.315-24.29-5.118-36.189-8.458z" fill="url(#SVGID_6_)"/></g><g id="Feather" transform="translate(0,256)" display="none"><linearGradient id="SVGID_7_" x1="-6160.3" x2="-6118.7" y1="4179.4" y2="4130.7" gradientTransform="matrix(.3 -.6433 -.6433 -.3 6007.6 -1273.9)" gradientUnits="userSpaceOnUse"><stop stop-color="#fd9733" offset="0"/><stop stop-color="#fd9733" offset=".3123"/><stop stop-color="#fd8a19" offset=".8383"/></linearGradient><path d="m1481.4 1418.6c-3.28 1.934-8.727 7.415-15.231 15.355l5.975 11.278c4.195-6 8.455-11.396 12.753-16.007 0.332-0.366 0.505-0.539 0.505-0.539-0.168 0.178-0.337 0.361-0.505 0.539-1.39 1.534-5.609 6.456-11.975 16.231 6.129-0.307 15.547-1.559 23.23-2.875 2.285-12.802-2.241-18.665-2.241-18.665s-5.755-9.309-12.511-5.317z" display="inline" fill="url(#SVGID_7_)"/><g fill="none"><path d="m1471.3 1482.9c0.044-0.01 0.089-0.015 0.133-0.025l-0.86 0.094c-0.055 0.025-0.1 0.049-0.153 0.069 0.297-0.043 0.589-0.093 0.88-0.138z" display="inline"/><path d="m1465.2 1503.1c-0.49 0.109-0.99 0.193-1.495 0.268 0.505-0.075 1.005-0.163 1.495-0.268z" display="inline"/><path d="m1423.8 1548.4c0.064-0.169 0.129-0.337 0.188-0.506 1.316-3.471 2.617-6.846 3.908-10.136 1.449-3.688 2.878-7.261 4.294-10.724 1.488-3.652 2.958-7.179 4.408-10.586 1.518-3.578 3.017-7.021 4.487-10.335 1.196-2.695 2.374-5.308 3.536-7.834 0.386-0.842 0.772-1.678 1.158-2.504 0.761-1.637 1.518-3.245 2.26-4.813 0.688-1.449 1.371-2.864 2.048-4.254 0.222-0.465 0.45-0.92 0.673-1.38 0.034-0.074 0.074-0.148 0.108-0.223l-0.731 0.08-0.584-1.148c-0.054 0.114-0.113 0.222-0.173 0.336-1.049 2.083-2.087 4.185-3.117 6.307-0.593 1.226-1.187 2.458-1.775 3.695-1.633 3.428-3.24 6.887-4.818 10.368-1.598 3.518-3.161 7.055-4.694 10.596-1.509 3.478-2.983 6.961-4.433 10.432-1.445 3.47-2.854 6.926-4.235 10.36-1.439 3.586-2.839 7.138-4.195 10.649-0.307 0.793-0.613 1.584-0.915 2.375-1.088 2.834-2.146 5.63-3.181 8.391l0.92 1.815 0.821-0.089c0.03-0.084 0.06-0.168 0.089-0.248 1.332-3.635 2.648-7.178 3.953-10.624z" display="inline"/><path d="m1463.3 1503.4h0.01-0.01z" display="inline"/></g><g fill="#b22525"><path d="m1461.4 1513.3c-0.761 0.14-1.548 0.273-2.355 0.411 0 0-0.01 0.01-0.015 0.01 0.406-0.06 0.806-0.119 1.203-0.188 0.396-0.07 0.782-0.144 1.167-0.229z" display="inline"/><path d="m1461.4 1513.3c-0.761 0.14-1.548 0.273-2.355 0.411 0 0-0.01 0.01-0.015 0.01 0.406-0.06 0.806-0.119 1.203-0.188 0.396-0.07 0.782-0.144 1.167-0.229z" display="inline" enable-background="new    " opacity=".35"/><path d="m1463.4 1503.4s-0.01 0-0.01 0.01h-0.01c0.128-0.015 0.252-0.039 0.375-0.054 0.51-0.076 1.01-0.164 1.495-0.269-0.608 0.101-1.227 0.209-1.855 0.312z" display="inline"/><path d="m1463.4 1503.4s-0.01 0-0.01 0.01h-0.01c0.128-0.015 0.252-0.039 0.375-0.054 0.51-0.076 1.01-0.164 1.495-0.269-0.608 0.101-1.227 0.209-1.855 0.312z" display="inline" enable-background="new    " opacity=".35"/></g><linearGradient id="SVGID_8_" x1="-6468.2" x2="-6171.4" y1="4184.7" y2="4184.7" gradientTransform="matrix(.3 -.6433 -.6433 -.3 6007.6 -1273.9)" gradientUnits="userSpaceOnUse"><stop stop-color="#bf2e5e" offset=".3233"/><stop stop-color="#ca2a2a" offset=".6302"/><stop stop-color="#ca2a2a" offset=".7514"/><stop stop-color="#fd8a19" offset="1"/></linearGradient><path d="m1454.6 1474.3c1.815-3.393 3.655-6.713 5.516-9.943 1.929-3.354 3.883-6.608 5.857-9.745 0.113-0.184 0.232-0.371 0.346-0.56 1.949-3.086 3.917-6.055 5.901-8.895l-5.976-11.278c-0.45 0.549-0.9 1.108-1.36 1.677-1.721 2.147-3.512 4.457-5.347 6.905-2.067 2.761-4.195 5.709-6.357 8.801-1.993 2.859-4.016 5.852-6.039 8.949-1.722 2.637-3.454 5.353-5.169 8.138-0.064 0.104-0.128 0.207-0.193 0.312l7.776 15.36c1.66-3.289 3.343-6.535 5.045-9.721z" display="inline" fill="url(#SVGID_8_)"/><linearGradient id="SVGID_9_" x1="-6432.4" x2="-6255.5" y1="4155" y2="4155" gradientTransform="matrix(.3 -.6433 -.6433 -.3 6007.6 -1273.9)" gradientUnits="userSpaceOnUse"><stop stop-color="#112d5c" offset="0"/><stop stop-color="#703589" offset=".0955"/><stop stop-color="#bf2e5e" offset=".7882"/><stop stop-color="#ca2a2a" offset=".9487"/></linearGradient><path d="m1419.1 1560.9c-1.029 2.828-2.063 5.708-3.102 8.651-0.015 0.045-0.029 0.084-0.044 0.13-0.148 0.414-0.292 0.829-0.441 1.246-0.697 1.982-1.306 3.77-2.696 7.83 2.291 1.043 4.13 3.795 5.872 6.915-0.183-3.23-1.524-6.267-4.062-8.616 11.294 0.51 21.024-2.346 26.056-10.603 0.45-0.737 0.86-1.507 1.231-2.333-2.286 2.898-5.12 4.131-10.458 3.828-0.01 0-0.024 0.011-0.035 0.015 0.011 0 0.025-0.01 0.035-0.015 7.856-3.518 11.798-6.891 15.281-12.485 0.826-1.327 1.628-2.775 2.449-4.384-6.871 7.054-14.831 9.063-23.216 7.539l-6.287 0.688c-0.197 0.53-0.39 1.058-0.583 1.594z" display="inline" fill="url(#SVGID_9_)"/><linearGradient id="SVGID_10_" x1="-6451.5" x2="-6154.7" y1="4187.5" y2="4187.5" gradientTransform="matrix(.3 -.6433 -.6433 -.3 6007.6 -1273.9)" gradientUnits="userSpaceOnUse"><stop stop-color="#bf2e5e" offset=".3233"/><stop stop-color="#ca2a2a" offset=".6302"/><stop stop-color="#ca2a2a" offset=".7514"/><stop stop-color="#fd8a19" offset="1"/></linearGradient><path d="m1422.1 1546.8c1.36-3.512 2.761-7.063 4.195-10.649 1.375-3.435 2.79-6.887 4.235-10.36 1.444-3.473 2.924-6.95 4.433-10.432 1.533-3.543 3.102-7.08 4.694-10.596 1.578-3.478 3.186-6.941 4.818-10.369 0.588-1.236 1.182-2.468 1.775-3.695 1.029-2.122 2.068-4.224 3.117-6.307 0.055-0.114 0.114-0.223 0.173-0.336l-7.776-15.36c-0.128 0.208-0.252 0.415-0.381 0.624-1.81 2.958-3.616 5.985-5.387 9.077-1.79 3.122-3.546 6.302-5.263 9.527-1.45 2.721-2.864 5.467-4.24 8.237-0.276 0.563-0.548 1.118-0.821 1.677-1.696 3.487-3.225 6.855-4.61 10.097-1.567 3.67-2.948 7.176-4.155 10.501-0.796 2.186-1.519 4.299-2.181 6.326-0.544 1.732-1.063 3.47-1.553 5.195-1.163 4.07-2.162 8.133-2.983 12.18l7.816 15.429c1.034-2.76 2.092-5.556 3.181-8.39 0.3-0.788 0.607-1.585 0.913-2.376z" display="inline" fill="url(#SVGID_10_)"/><linearGradient id="SVGID_11_" x1="-6429.9" x2="-6273.9" y1="4183.5" y2="4183.5" gradientTransform="matrix(.3 -.6433 -.6433 -.3 6007.6 -1273.9)" gradientUnits="userSpaceOnUse"><stop stop-color="#112d5c" offset="0"/><stop stop-color="#703589" offset=".0955"/><stop stop-color="#bf2e5e" offset=".7882"/><stop stop-color="#ca2a2a" offset=".9487"/></linearGradient><path d="m1410.1 1542.7c-0.98 4.938-1.677 9.855-2.028 14.741-0.01 0.175-0.03 0.342-0.04 0.516-2.439-3.908-8.969-7.723-8.954-7.688 4.674 6.775 8.221 13.505 8.75 20.107-2.503 0.516-5.932-0.226-9.894-1.686 4.13 3.793 7.232 4.843 8.439 5.124-3.794 0.238-7.748 2.845-11.729 5.848 5.822-2.374 10.526-3.314 13.896-2.553-5.342 15.127-10.7 31.828-16.057 49.558 1.642-0.484 2.621-1.588 3.171-3.081 0.954-3.212 7.291-24.275 17.22-51.963 0.282-0.786 0.569-1.577 0.855-2.374 0.079-0.222 0.163-0.445 0.242-0.664 1.049-2.901 2.137-5.865 3.26-8.889 0.257-0.687 0.514-1.374 0.771-2.066 0.01-0.015 0.01-0.031 0.015-0.041l-7.806-15.424c-0.032 0.173-0.077 0.352-0.111 0.535z" display="inline" fill="url(#SVGID_11_)"/><linearGradient id="SVGID_12_" x1="-6451.6" x2="-6154.7" y1="4156.8" y2="4156.8" gradientTransform="matrix(.3 -.6433 -.6433 -.3 6007.6 -1273.9)" gradientUnits="userSpaceOnUse"><stop stop-color="#bf2e5e" offset=".3233"/><stop stop-color="#ca2a2a" offset=".6302"/><stop stop-color="#ca2a2a" offset=".7514"/><stop stop-color="#fd8a19" offset="1"/></linearGradient><path d="m1450.7 1485.4c-0.223 0.455-0.445 0.915-0.673 1.38-0.673 1.39-1.355 2.805-2.048 4.254-0.747 1.568-1.499 3.171-2.26 4.813-0.386 0.826-0.768 1.657-1.158 2.502-1.162 2.529-2.34 5.14-3.536 7.836-1.47 3.313-2.969 6.757-4.487 10.333-1.45 3.409-2.919 6.937-4.408 10.586-1.416 3.463-2.845 7.041-4.294 10.726-1.292 3.288-2.592 6.663-3.908 10.137-0.064 0.168-0.129 0.335-0.188 0.503-1.305 3.448-2.621 6.989-3.947 10.621-0.03 0.084-0.059 0.168-0.089 0.248l6.287-0.688c-0.124-0.025-0.252-0.039-0.375-0.066 7.519-0.934 17.511-6.554 23.972-13.488 2.979-3.195 5.68-6.965 8.178-11.379 1.86-3.284 3.605-6.924 5.268-10.955 1.454-3.522 2.85-7.337 4.195-11.474-1.727 0.912-3.705 1.579-5.887 2.044-0.38 0.08-0.771 0.158-1.167 0.228s-0.796 0.134-1.203 0.188h0.015c7.01-2.696 11.433-7.904 14.648-14.281-1.846 1.258-4.844 2.905-8.435 3.696-0.49 0.108-0.989 0.193-1.494 0.267-0.128 0.021-0.253 0.039-0.376 0.054h0.01c2.434-1.02 4.486-2.159 6.269-3.503 0.38-0.288 0.75-0.585 1.108-0.896 0.544-0.47 1.058-0.965 1.553-1.484 0.316-0.331 0.624-0.672 0.92-1.028 0.697-0.831 1.351-1.727 1.963-2.701 0.188-0.297 0.371-0.599 0.555-0.911 0.232-0.45 0.454-0.89 0.672-1.326 0.979-1.969 1.761-3.726 2.385-5.269 0.312-0.771 0.583-1.484 0.815-2.146 0.094-0.262 0.184-0.52 0.267-0.767 0.248-0.742 0.451-1.4 0.609-1.979 0.237-0.865 0.38-1.553 0.46-2.053-0.238 0.188-0.509 0.376-0.816 0.56-2.116 1.266-5.748 2.414-8.677 2.953l5.772-0.633-5.772 0.633c-0.044 0.01-0.089 0.015-0.133 0.025-0.292 0.05-0.588 0.094-0.885 0.144 0.053-0.025 0.099-0.049 0.153-0.069l-19.753 2.167c-0.036 0.066-0.071 0.136-0.11 0.211z" display="inline" fill="url(#SVGID_12_)"/><linearGradient id="SVGID_13_" x1="-6470" x2="-6173.1" y1="4158.3" y2="4158.3" gradientTransform="matrix(.3 -.6433 -.6433 -.3 6007.6 -1273.9)" gradientUnits="userSpaceOnUse"><stop stop-color="#bf2e5e" offset=".3233"/><stop stop-color="#ca2a2a" offset=".6302"/><stop stop-color="#ca2a2a" offset=".7514"/><stop stop-color="#fd8a19" offset="1"/></linearGradient><path d="m1473 1445.4c-1.757 2.696-3.676 5.758-5.739 9.226-0.109 0.178-0.218 0.366-0.327 0.549-1.781 3.003-3.675 6.297-5.664 9.909-1.722 3.116-3.512 6.46-5.372 10.057-1.623 3.131-3.3 6.455-5.021 9.973l19.753-2.167c5.754-2.646 8.326-5.041 10.823-8.503 0.663-0.955 1.331-1.955 1.993-2.988 2.029-3.167 4.018-6.653 5.798-10.122 1.716-3.349 3.23-6.668 4.392-9.661 0.738-1.905 1.331-3.676 1.742-5.229 0.361-1.371 0.643-2.671 0.86-3.913-7.69 1.311-17.109 2.568-23.238 2.869z" display="inline" fill="url(#SVGID_13_)"/><path d="m1460.2 1513.5c-0.396 0.069-0.796 0.134-1.203 0.188 0.407-0.054 0.807-0.119 1.203-0.188z" display="inline" fill="#b22525"/><path d="m1460.2 1513.5c-0.396 0.069-0.796 0.134-1.203 0.188 0.407-0.054 0.807-0.119 1.203-0.188z" display="inline" enable-background="new    " fill="#b22525" opacity=".35"/><linearGradient id="SVGID_14_" x1="-6451.9" x2="-6154.5" y1="4147.6" y2="4147.6" gradientTransform="matrix(.3 -.6433 -.6433 -.3 6007.6 -1273.9)" gradientUnits="userSpaceOnUse"><stop stop-color="#bf2e5e" offset=".3233"/><stop stop-color="#ca2a2a" offset=".6302"/><stop stop-color="#ca2a2a" offset=".7514"/><stop stop-color="#fd8a19" offset="1"/></linearGradient><path d="m1460.2 1513.5c-0.396 0.069-0.796 0.134-1.203 0.188 0.407-0.054 0.807-0.119 1.203-0.188z" display="inline" fill="url(#SVGID_14_)"/><path d="m1463.3 1503.4c0.128-0.015 0.252-0.039 0.376-0.054-0.124 0.015-0.248 0.033-0.376 0.054z" display="inline" fill="#b22525"/><path d="m1463.3 1503.4c0.128-0.015 0.252-0.039 0.376-0.054-0.124 0.015-0.248 0.033-0.376 0.054z" display="inline" enable-background="new    " fill="#b22525" opacity=".35"/><linearGradient id="SVGID_15_" x1="-6450.9" x2="-6155" y1="4148.7" y2="4148.7" gradientTransform="matrix(.3 -.6433 -.6433 -.3 6007.6 -1273.9)" gradientUnits="userSpaceOnUse"><stop stop-color="#bf2e5e" offset=".3233"/><stop stop-color="#ca2a2a" offset=".6302"/><stop stop-color="#ca2a2a" offset=".7514"/><stop stop-color="#fd8a19" offset="1"/></linearGradient><path d="m1463.3 1503.4c0.128-0.015 0.252-0.039 0.376-0.054-0.124 0.015-0.248 0.033-0.376 0.054z" display="inline" fill="url(#SVGID_15_)"/><path d="m1463.3 1503.4s0.01 0 0.01-0.01c0 0-0.01 0-0.01 0.01z" display="inline" fill="#b22525"/><path d="m1463.3 1503.4s0.01 0 0.01-0.01c0 0-0.01 0-0.01 0.01z" display="inline" enable-background="new    " fill="#b22525" opacity=".35"/><linearGradient id="SVGID_16_" x1="-6293.4" x2="-6210.6" y1="4148.9" y2="4148.9" gradientTransform="matrix(.3 -.6433 -.6433 -.3 6007.6 -1273.9)" gradientUnits="userSpaceOnUse"><stop stop-color="#bf2e5e" offset=".3233"/><stop stop-color="#ca2a2a" offset=".6302"/><stop stop-color="#ca2a2a" offset=".7514"/><stop stop-color="#fd8a19" offset="1"/></linearGradient><path d="m1463.3 1503.4s0.01 0 0.01-0.01c0 0-0.01 0-0.01 0.01z" display="inline" fill="url(#SVGID_16_)"/><path d="m1502.2 1436.7v0.579h1.354v3.828h0.629v-3.828h1.365v-0.579zm7.831 0-1.514 3.077-1.522-3.077h-0.758v4.407h0.579v-3.497l1.499 3.032h0.4l1.498-3.032v3.497h0.58v-4.407z" display="inline" fill="#60636e"/></g><g id="Feather_copy" transform="translate(0,256)" display="none"><linearGradient id="SVGID_17_" x1="-6042.8" x2="-6001.2" y1="4060.6" y2="4011.9" gradientTransform="matrix(.3 -.6433 -.6433 -.3 6007.6 -1273.9)" gradientUnits="userSpaceOnUse"><stop stop-color="#fd9733" offset="0"/><stop stop-color="#fd9733" offset=".3123"/><stop stop-color="#fd8a19" offset=".8383"/></linearGradient><path d="m1593.1 1378.6c-3.28 1.934-8.727 7.415-15.231 15.355l5.976 11.278c4.195-6 8.455-11.396 12.752-16.007 0.332-0.366 0.506-0.539 0.506-0.539-0.168 0.178-0.337 0.361-0.506 0.539-1.39 1.534-5.608 6.456-11.975 16.231 6.129-0.307 15.547-1.559 23.23-2.875 2.284-12.802-2.241-18.665-2.241-18.665s-5.755-9.309-12.511-5.317z" display="inline" fill="url(#SVGID_17_)"/><g fill="none"><path d="m1583 1443c0.045-0.01 0.09-0.015 0.134-0.025l-0.86 0.094c-0.055 0.025-0.1 0.049-0.153 0.069 0.296-0.044 0.588-0.093 0.879-0.138z" display="inline"/><path d="m1576.9 1463.2c-0.49 0.109-0.989 0.193-1.495 0.268 0.505-0.074 1.004-0.162 1.495-0.268z" display="inline"/><path d="m1535.4 1508.5c0.064-0.168 0.129-0.336 0.188-0.506 1.315-3.471 2.616-6.846 3.908-10.135 1.449-3.688 2.878-7.261 4.294-10.724 1.488-3.652 2.958-7.179 4.407-10.586 1.519-3.578 3.018-7.021 4.487-10.335 1.196-2.695 2.374-5.308 3.536-7.834 0.386-0.842 0.771-1.678 1.158-2.504 0.762-1.637 1.518-3.245 2.26-4.813 0.688-1.449 1.371-2.864 2.049-4.254 0.223-0.465 0.449-0.92 0.673-1.38 0.034-0.074 0.074-0.148 0.108-0.223l-0.732 0.08-0.584-1.148c-0.054 0.114-0.113 0.222-0.172 0.336-1.049 2.083-2.088 4.185-3.117 6.307-0.594 1.226-1.188 2.458-1.775 3.695-1.633 3.428-3.24 6.887-4.818 10.368-1.598 3.518-3.161 7.055-4.694 10.596-1.509 3.478-2.983 6.961-4.433 10.432-1.444 3.47-2.854 6.926-4.235 10.36-1.438 3.586-2.839 7.137-4.194 10.649-0.307 0.793-0.613 1.584-0.915 2.375-1.088 2.834-2.146 5.631-3.181 8.391l0.92 1.816 0.821-0.09c0.029-0.084 0.06-0.168 0.09-0.248 1.33-3.635 2.647-7.177 3.951-10.625z" display="inline"/><path d="m1575 1463.5h0.011-0.011z" display="inline"/></g><g fill="#b22525"><path d="m1573 1473.3c-0.761 0.14-1.548 0.273-2.354 0.411-0.01 0-0.01 0.01-0.015 0.01 0.406-0.06 0.807-0.119 1.203-0.188 0.396-0.071 0.781-0.144 1.166-0.229z" display="inline"/><path d="m1573 1473.3c-0.761 0.14-1.548 0.273-2.354 0.411-0.01 0-0.01 0.01-0.015 0.01 0.406-0.06 0.807-0.119 1.203-0.188 0.396-0.071 0.781-0.144 1.166-0.229z" display="inline" enable-background="new    " opacity=".35"/><path d="m1575 1463.5s-0.01 0-0.01 0.01h-0.01c0.128-0.015 0.252-0.039 0.375-0.054 0.511-0.076 1.01-0.164 1.495-0.269-0.608 0.101-1.226 0.209-1.855 0.312z" display="inline"/><path d="m1575 1463.5s-0.01 0-0.01 0.01h-0.01c0.128-0.015 0.252-0.039 0.375-0.054 0.511-0.076 1.01-0.164 1.495-0.269-0.608 0.101-1.226 0.209-1.855 0.312z" display="inline" enable-background="new    " opacity=".35"/></g><linearGradient id="SVGID_18_" x1="-6350.8" x2="-6053.9" y1="4065.9" y2="4065.9" gradientTransform="matrix(.3 -.6433 -.6433 -.3 6007.6 -1273.9)" gradientUnits="userSpaceOnUse"><stop stop-color="#bf2e5e" offset=".3233"/><stop stop-color="#ca2a2a" offset=".6302"/><stop stop-color="#ca2a2a" offset=".7514"/><stop stop-color="#fd8a19" offset="1"/></linearGradient><path d="m1566.2 1434.4c1.814-3.393 3.655-6.713 5.516-9.943 1.929-3.354 3.883-6.608 5.857-9.745 0.113-0.184 0.231-0.371 0.346-0.56 1.949-3.086 3.917-6.055 5.901-8.895l-5.976-11.278c-0.45 0.549-0.9 1.108-1.361 1.677-1.721 2.147-3.512 4.457-5.347 6.905-2.067 2.761-4.195 5.709-6.357 8.801-1.993 2.859-4.017 5.852-6.039 8.949-1.722 2.637-3.454 5.353-5.169 8.138-0.064 0.104-0.129 0.207-0.193 0.312l7.775 15.36c1.663-3.29 3.345-6.535 5.047-9.721z" display="inline" fill="url(#SVGID_18_)"/><linearGradient id="SVGID_19_" x1="-6314.9" x2="-6138" y1="4036.2" y2="4036.2" gradientTransform="matrix(.3 -.6433 -.6433 -.3 6007.6 -1273.9)" gradientUnits="userSpaceOnUse"><stop stop-color="#112d5c" offset="0"/><stop stop-color="#703589" offset=".0955"/><stop stop-color="#bf2e5e" offset=".7882"/><stop stop-color="#ca2a2a" offset=".9487"/></linearGradient><path d="m1530.8 1521c-1.029 2.828-2.063 5.709-3.103 8.652-0.015 0.045-0.029 0.084-0.044 0.129-0.148 0.414-0.292 0.83-0.441 1.246-0.697 1.982-1.305 3.77-2.695 7.83 2.291 1.043 4.131 3.795 5.872 6.916-0.183-3.23-1.524-6.268-4.062-8.617 11.294 0.51 21.024-2.346 26.056-10.602 0.449-0.738 0.859-1.508 1.23-2.334-2.285 2.898-5.119 4.131-10.457 3.828-0.01 0.01-0.024 0.012-0.035 0.016 0.011 0 0.025-0.01 0.035-0.016 7.855-3.518 11.799-6.891 15.281-12.484 0.826-1.328 1.627-2.775 2.448-4.385-6.871 7.055-14.831 9.063-23.216 7.539l-6.287 0.688c-0.197 0.532-0.389 1.059-0.582 1.594z" display="inline" fill="url(#SVGID_19_)"/><linearGradient id="SVGID_20_" x1="-6334.1" x2="-6037.3" y1="4068.7" y2="4068.7" gradientTransform="matrix(.3 -.6433 -.6433 -.3 6007.6 -1273.9)" gradientUnits="userSpaceOnUse"><stop stop-color="#bf2e5e" offset=".3233"/><stop stop-color="#ca2a2a" offset=".6302"/><stop stop-color="#ca2a2a" offset=".7514"/><stop stop-color="#fd8a19" offset="1"/></linearGradient><path d="m1533.7 1506.9c1.36-3.512 2.761-7.063 4.194-10.649 1.376-3.435 2.791-6.887 4.235-10.36s2.924-6.95 4.433-10.432c1.533-3.543 3.102-7.08 4.694-10.596 1.578-3.478 3.186-6.941 4.818-10.369 0.588-1.236 1.182-2.468 1.775-3.695 1.029-2.122 2.068-4.224 3.117-6.307 0.055-0.114 0.113-0.223 0.172-0.336l-7.775-15.36c-0.129 0.208-0.253 0.415-0.381 0.624-1.811 2.958-3.616 5.985-5.388 9.077-1.79 3.122-3.547 6.302-5.263 9.527-1.45 2.721-2.864 5.467-4.24 8.237-0.276 0.563-0.548 1.118-0.821 1.677-1.696 3.487-3.225 6.855-4.61 10.097-1.567 3.67-2.948 7.176-4.155 10.501-0.797 2.186-1.519 4.299-2.182 6.326-0.544 1.732-1.063 3.47-1.553 5.195-1.162 4.07-2.162 8.133-2.982 12.179l7.815 15.43c1.034-2.76 2.093-5.557 3.181-8.391 0.303-0.787 0.609-1.584 0.916-2.375z" display="inline" fill="url(#SVGID_20_)"/><linearGradient id="SVGID_21_" x1="-6312.4" x2="-6156.4" y1="4064.7" y2="4064.7" gradientTransform="matrix(.3 -.6433 -.6433 -.3 6007.6 -1273.9)" gradientUnits="userSpaceOnUse"><stop stop-color="#112d5c" offset="0"/><stop stop-color="#703589" offset=".0955"/><stop stop-color="#bf2e5e" offset=".7882"/><stop stop-color="#ca2a2a" offset=".9487"/></linearGradient><path d="m1521.7 1502.8c-0.98 4.938-1.678 9.855-2.029 14.74-0.01 0.176-0.029 0.342-0.039 0.516-2.439-3.908-8.969-7.723-8.953-7.688 4.674 6.775 8.221 13.506 8.75 20.107-2.503 0.516-5.932-0.225-9.894-1.686 4.13 3.793 7.232 4.844 8.439 5.125-3.794 0.238-7.747 2.844-11.729 5.848 5.822-2.375 10.527-3.314 13.896-2.553-5.343 15.127-10.701 31.828-16.058 49.557 1.642-0.484 2.621-1.588 3.171-3.08 0.954-3.213 7.291-24.275 17.22-51.963 0.282-0.787 0.569-1.578 0.855-2.375 0.079-0.221 0.163-0.445 0.242-0.664 1.049-2.9 2.138-5.865 3.261-8.889 0.257-0.686 0.514-1.373 0.771-2.066 0.01-0.014 0.01-0.031 0.015-0.041l-7.806-15.424c-0.034 0.175-0.078 0.352-0.112 0.536z" display="inline" fill="url(#SVGID_21_)"/><linearGradient id="SVGID_22_" x1="-6334.1" x2="-6037.3" y1="4038" y2="4038" gradientTransform="matrix(.3 -.6433 -.6433 -.3 6007.6 -1273.9)" gradientUnits="userSpaceOnUse"><stop stop-color="#bf2e5e" offset=".3233"/><stop stop-color="#ca2a2a" offset=".6302"/><stop stop-color="#ca2a2a" offset=".7514"/><stop stop-color="#fd8a19" offset="1"/></linearGradient><path d="m1562.4 1445.4c-0.224 0.455-0.445 0.915-0.673 1.38-0.673 1.39-1.355 2.805-2.049 4.254-0.746 1.568-1.498 3.171-2.26 4.813-0.387 0.826-0.768 1.657-1.158 2.502-1.162 2.529-2.34 5.14-3.536 7.836-1.47 3.313-2.969 6.757-4.487 10.333-1.449 3.409-2.919 6.937-4.407 10.586-1.416 3.463-2.845 7.041-4.294 10.726-1.292 3.288-2.593 6.663-3.908 10.137-0.064 0.168-0.129 0.334-0.188 0.502-1.305 3.449-2.621 6.99-3.947 10.621-0.029 0.084-0.059 0.168-0.089 0.248l6.287-0.688c-0.124-0.025-0.252-0.039-0.376-0.066 7.52-0.934 17.512-6.553 23.973-13.488 2.979-3.195 5.68-6.964 8.178-11.378 1.86-3.284 3.605-6.924 5.268-10.955 1.454-3.522 2.85-7.337 4.195-11.474-1.727 0.912-3.705 1.579-5.888 2.044-0.38 0.08-0.771 0.158-1.166 0.228-0.396 0.07-0.797 0.134-1.203 0.188h0.015c7.01-2.696 11.433-7.904 14.648-14.281-1.846 1.258-4.844 2.905-8.435 3.696-0.49 0.108-0.989 0.193-1.494 0.267-0.129 0.021-0.253 0.039-0.376 0.054h0.01c2.434-1.02 4.486-2.159 6.269-3.503 0.38-0.288 0.751-0.585 1.108-0.896 0.544-0.47 1.058-0.965 1.553-1.484 0.316-0.331 0.623-0.672 0.92-1.028 0.697-0.831 1.351-1.727 1.963-2.701 0.188-0.297 0.371-0.599 0.555-0.911 0.232-0.45 0.454-0.89 0.673-1.326 0.979-1.969 1.761-3.726 2.385-5.269 0.312-0.771 0.583-1.484 0.815-2.146 0.094-0.262 0.184-0.52 0.268-0.767 0.247-0.742 0.45-1.4 0.608-1.979 0.237-0.865 0.38-1.553 0.46-2.053-0.238 0.188-0.51 0.376-0.816 0.56-2.116 1.266-5.748 2.414-8.677 2.953l5.772-0.633-5.772 0.633c-0.044 0.01-0.089 0.015-0.134 0.025-0.291 0.05-0.588 0.094-0.885 0.144 0.053-0.025 0.099-0.049 0.152-0.069l-19.752 2.167c-0.035 0.067-0.071 0.137-0.11 0.211z" display="inline" fill="url(#SVGID_22_)"/><linearGradient id="SVGID_23_" x1="-6352.5" x2="-6055.7" y1="4039.5" y2="4039.5" gradientTransform="matrix(.3 -.6433 -.6433 -.3 6007.6 -1273.9)" gradientUnits="userSpaceOnUse"><stop stop-color="#bf2e5e" offset=".3233"/><stop stop-color="#ca2a2a" offset=".6302"/><stop stop-color="#ca2a2a" offset=".7514"/><stop stop-color="#fd8a19" offset="1"/></linearGradient><path d="m1584.6 1405.5c-1.757 2.696-3.676 5.758-5.739 9.226-0.108 0.178-0.218 0.366-0.326 0.549-1.781 3.003-3.676 6.297-5.664 9.909-1.722 3.116-3.512 6.46-5.372 10.057-1.623 3.131-3.3 6.455-5.021 9.973l19.753-2.167c5.754-2.646 8.326-5.041 10.823-8.503 0.663-0.955 1.331-1.955 1.993-2.988 2.029-3.167 4.018-6.653 5.799-10.122 1.716-3.349 3.229-6.668 4.392-9.661 0.737-1.905 1.331-3.676 1.742-5.229 0.361-1.371 0.643-2.671 0.86-3.913-7.692 1.311-17.111 2.567-23.24 2.869z" display="inline" fill="url(#SVGID_23_)"/><path d="m1571.8 1473.6c-0.396 0.069-0.797 0.134-1.203 0.188 0.406-0.055 0.807-0.119 1.203-0.188z" display="inline" fill="#b22525"/><path d="m1571.8 1473.6c-0.396 0.069-0.797 0.134-1.203 0.188 0.406-0.055 0.807-0.119 1.203-0.188z" display="inline" enable-background="new    " fill="#b22525" opacity=".35"/><linearGradient id="SVGID_24_" x1="-6334.4" x2="-6037.1" y1="4028.9" y2="4028.9" gradientTransform="matrix(.3 -.6433 -.6433 -.3 6007.6 -1273.9)" gradientUnits="userSpaceOnUse"><stop stop-color="#bf2e5e" offset=".3233"/><stop stop-color="#ca2a2a" offset=".6302"/><stop stop-color="#ca2a2a" offset=".7514"/><stop stop-color="#fd8a19" offset="1"/></linearGradient><path d="m1571.8 1473.6c-0.396 0.069-0.797 0.134-1.203 0.188 0.406-0.055 0.807-0.119 1.203-0.188z" display="inline" fill="url(#SVGID_24_)"/><path d="m1575 1463.5c0.129-0.015 0.253-0.039 0.377-0.054-0.124 0.014-0.249 0.033-0.377 0.054z" display="inline" fill="#b22525"/><path d="m1575 1463.5c0.129-0.015 0.253-0.039 0.377-0.054-0.124 0.014-0.249 0.033-0.377 0.054z" display="inline" enable-background="new    " fill="#b22525" opacity=".35"/><linearGradient id="SVGID_25_" x1="-6333.5" x2="-6037.6" y1="4029.9" y2="4029.9" gradientTransform="matrix(.3 -.6433 -.6433 -.3 6007.6 -1273.9)" gradientUnits="userSpaceOnUse"><stop stop-color="#bf2e5e" offset=".3233"/><stop stop-color="#ca2a2a" offset=".6302"/><stop stop-color="#ca2a2a" offset=".7514"/><stop stop-color="#fd8a19" offset="1"/></linearGradient><path d="m1575 1463.5c0.129-0.015 0.253-0.039 0.377-0.054-0.124 0.014-0.249 0.033-0.377 0.054z" display="inline" fill="url(#SVGID_25_)"/><path d="m1575 1463.5s0.01 0 0.01-0.01c0 0-0.01 0-0.01 0.01z" display="inline" fill="#b22525"/><path d="m1575 1463.5s0.01 0 0.01-0.01c0 0-0.01 0-0.01 0.01z" display="inline" enable-background="new    " fill="#b22525" opacity=".35"/><linearGradient id="SVGID_26_" x1="-6175.9" x2="-6093.1" y1="4030.1" y2="4030.1" gradientTransform="matrix(.3 -.6433 -.6433 -.3 6007.6 -1273.9)" gradientUnits="userSpaceOnUse"><stop stop-color="#bf2e5e" offset=".3233"/><stop stop-color="#ca2a2a" offset=".6302"/><stop stop-color="#ca2a2a" offset=".7514"/><stop stop-color="#fd8a19" offset="1"/></linearGradient><path d="m1575 1463.5s0.01 0 0.01-0.01c0 0-0.01 0-0.01 0.01z" display="inline" fill="url(#SVGID_26_)"/><path d="m1613.8 1396.8v0.579h1.354v3.828h0.629v-3.828h1.365v-0.579zm7.83 0-1.514 3.077-1.522-3.077h-0.758v4.407h0.579v-3.497l1.499 3.032h0.4l1.498-3.032v3.497h0.58v-4.407z" display="inline" fill="#60636e"/></g><path transform="translate(1372,1372)" d="m256 31a225 225 0 0 0-225 225 225 225 0 0 0 0.20703 5.8535 225 225 0 0 1 224.79-220.85 225 225 0 0 1 224.79 219.15 225 225 0 0 0 0.20703-4.1465 225 225 0 0 0-225-225z" fill="#fff" opacity=".2"/><path transform="translate(1372,1372)" d="m480.79 250.15a225 225 0 0 1-224.79 220.85 225 225 0 0 1-224.79-219.15 225 225 0 0 0-0.20703 4.1465 225 225 0 0 0 225 225 225 225 0 0 0 225-225 225 225 0 0 0-0.20703-5.8535z" opacity=".3"/></svg>
