<svg width="512" height="512" version="1.1" viewBox="0 0 384 384" xmlns="http://www.w3.org/2000/svg"><path d="m127.84 299.81c11.003 16.018 29.106 41.725 42.833 59.408-8.6153-17.164-21.723-42.417-27.65-57.942-4.8982-0.39207-10.072-0.94198-15.183-1.4665z" fill="#001b48" opacity=".3" stroke-width="1.205"/><path d="m134.04 301.47c11.003 16.018 22.902 32.572 36.63 50.256-8.6153-17.164-15.519-33.264-21.447-48.789-4.8982-0.39208-10.072-0.94198-15.183-1.4665z" fill="#357af0" stroke-width="1.3034"/><path d="m213.34 30.752c176.64 227.56 127.83 317.19-146.47 268.85 184.15-6.8383 232.97-96.448 146.47-268.85" opacity=".3" stroke-width="1.205"/><path d="m213.34 23.252c176.64 227.56 127.83 317.19-146.47 268.85 184.15-6.8383 232.97-96.448 146.47-268.85" fill="#fd7d00" stroke-width="1.3034"/><path d="m186.62 77.739c-134.71 2.4084-159.18 68.1-66.594 209.59 6.2171-1.0387 12.307-2.1436 18.086-3.4522-40.922-127.4 21.232-187.62 179.03-193.49-51.432-9.0532-94.93-13.274-130.51-12.638z" fill="#001b48" opacity=".3" stroke-width="1.205"/><path d="m186.62 70.239c-134.71 2.4084-155.16 74.716-62.567 216.2 6.2171-1.0387 12.307-2.1436 18.086-3.4522-40.922-127.4 17.205-194.23 175-200.1-51.432-9.0532-94.93-13.274-130.51-12.638z" fill="#357af0" stroke-width="1.3034"/><path transform="scale(.75)" d="m284.45 31.002c4.5582 9.085 8.8003 17.979 12.795 26.719 10.21 13.498 19.796 26.615 28.762 39.352 1.5205 0.14414 3.0527 0.29613 4.5879 0.44922 0.96475 0.094284 1.9182 0.1811 2.8926 0.28125-14.569-21.18-30.904-43.44-49.037-66.801zm62.467 86.801c-2.0063 0.33312-3.9952 0.67692-5.9668 1.0312 52.643 78.513 79.937 141.52 81.785 188.95 1.8688-46.722-23.421-110.06-75.818-189.98zm-7.2402 104.78c-2.5509 105.15-86.052 160.78-250.52 166.89 15.068 2.6554 29.613 4.9925 43.66 7.0234 140.26-14.351 209.21-72.321 206.86-173.91z" fill="#fff" opacity=".2" stroke-width="1.7379"/><path transform="scale(.75)" d="m257.86 93.582c-3.0475 0.002417-6.0545 0.030985-9.0195 0.083985l-0.01172-0.013672c-108.84 1.9459-161.73 38.12-159.05 108.3 2.5911-63.618 55.5-96.448 159.05-98.299l0.01172 0.01368c37.017-0.66169 80.494 2.6373 130.38 9.8457 13.855-1.4214 28.385-2.4287 43.637-2.9961-64.29-11.316-119.28-16.97-164.99-16.934zm-85.164 193.51c-0.70042 27.012 3.9537 57.299 13.936 90.844 0.96338-0.20746 1.9394-0.4057 2.8906-0.62109-10.65-33.157-16.246-63.223-16.826-90.223z" fill="#cadcfb" opacity=".3" stroke-width="1.7379"/></svg>
