<svg width="512" height="512" version="1.1" viewBox="0 0 384 384" xmlns="http://www.w3.org/2000/svg"><path d="m142 24c-55.23 0-100 46.422-100 103.69v56.625c0 2.2268 0.0761 4.4351 0.20947 6.627 1.0291 40.265 6.6737 107 31.767 135.58 25.695 29.266 85.625 33.48 109.83 33.48 43.023 0 62.191-16.847 62.191-16.847v-27.677s-25.949 9.0625-56.597 8.5195c-21.043-0.375-39.071-5.8936-48.122-19.526-3.321-5.0052-2.7869-9.4001-3.8584-16.582 1.5188 0.071 3.0448 0.11279 4.5806 0.11279h99.993c55.23 0 100-46.422 100-103.69v-56.625c0-57.266-44.773-103.69-100-103.69z" style="fill:#265ab1"/><path d="m150 130.5c0 9.9414-8.0586 18-18 18s-18-8.0586-18-18 8.0586-18 18-18 18 8.0586 18 18z" opacity=".3"/><path d="m150 126c0 9.9414-8.0586 18-18 18s-18-8.0586-18-18 8.0586-18 18-18 18 8.0586 18 18z" fill="#fff"/><path transform="scale(.75)" d="m56 235.75v10c0 2.969 0.10146 5.9134 0.2793 8.8359 1.3721 53.687 8.8983 142.67 42.355 180.77 34.26 39.021 114.17 44.641 146.44 44.641 57.365 0 82.922-22.463 82.922-22.463v-10s-25.557 22.463-82.922 22.463c-32.276 0-112.18-5.6198-146.44-44.641-33.457-38.105-40.983-127.09-42.355-180.77-0.17783-2.9225-0.2793-5.8669-0.2793-8.8359zm400 0c0 76.354-59.697 138.25-133.34 138.25h-133.32c-2.0476 0-4.0823-0.05572-6.1074-0.15039 0.57542 3.8569 0.81139 7.0958 1.168 10.043 1.6398 0.06394 3.2846 0.10742 4.9394 0.10742h133.32c73.641 0 133.34-61.896 133.34-138.25v-10z" opacity=".3" stroke-width="1.3333"/><path transform="scale(.75)" d="m189.34 32c-73.641 0-133.34 61.896-133.34 138.25v10c0-76.354 59.697-138.25 133.34-138.25h133.32c73.641 0 133.34 61.896 133.34 138.25v-10c0-76.354-59.697-138.25-133.34-138.25h-133.32zm-6.1074 361.85c1.4287 9.576 0.71657 15.436 5.1445 22.109 12.068 18.177 36.105 25.535 64.162 26.035 40.865 0.72396 75.463-11.359 75.463-11.359v-10s-34.598 12.083-75.463 11.359c-28.057-0.5-52.094-7.8581-64.162-26.035-2.6445-3.9856-3.4478-7.6963-3.9766-12.066-0.38913-0.01517-0.77958-0.02481-1.168-0.04297z" fill="#fff" opacity=".3" stroke-width="1.3333" style="opacity:.1"/></svg>
