<svg xmlns="http://www.w3.org/2000/svg" width="48" height="48" version="1.1" viewBox="0 0 48 48">
 <defs>
  <filter id="filter4201" style="color-interpolation-filters:sRGB" width="1.12" height="1.12" x="-.06" y="-.06">
   <feGaussianBlur stdDeviation=".283"/>
  </filter>
  <clipPath id="clipPath4157" clipPathUnits="userSpaceOnUse">
   <path style="fill:#f9f8f2" d="m 27.642964,3.2951379 13.085584,13.0855841 -11.072418,0 c -0.977824,0 -2.013166,-1.035372 -2.013166,-2.013167 l 0,-11.0724171 z"/>
  </clipPath>
 </defs>
 <path style="fill:#8e44ad" d="m 9.797669,4.203584 c -0.8944343,0 -1.73913,0.8446957 -1.73913,1.7391304 l 0,36.5217396 c 0,0.844721 0.8944348,1.73913 1.73913,1.73913 l 27.826087,0 c 0.844722,0 1.739131,-0.894435 1.739131,-1.73913 l 0,-26.956522 L 28.058539,4.203584 Z"/>
 <path style="fill-opacity:0.39200003;filter:url(#filter4201)" d="m 28.248139,4.2710929 11.304348,11.3043481 -9.565218,0 c -0.844721,0 -1.73913,-0.894435 -1.73913,-1.739131 l 0,-9.5652171 z" clip-path="url(#clipPath4157)" transform="translate(-0.28928697,0.20358399)"/>
 <path style="fill:#ae76c6" d="m 28.058539,4.203584 11.304348,11.304348 -9.565218,0 c -0.844721,0 -1.73913,-0.894435 -1.73913,-1.739131 l 0,-9.565217 z"/>
 <g transform="matrix(0.86956522,0,0,0.86956522,3.1304347,5.7391304)">
  <path style="fill:#ffffff;fill-rule:evenodd" d="m 37.627,26.949 c 0,5.5603 -6.693,10.068 -14.949,10.068 -8.2562,0 -14.949,-4.5075 -14.949,-10.068 0,-5.5603 6.693,-10.068 14.949,-10.068 8.2562,0 14.949,4.5075 14.949,10.068 z" transform="matrix(0.80272,0,0,0.79461,5.7959,2.5859)"/>
 </g>
 <g style="fill:#8e44ad" transform="matrix(0.69565217,0,0,0.62112174,7.3043477,9.838522)">
  <path style="fill:#8e44ad" d="m 19.79,22.851 c 0.63964,8e-6 1.1435,0.2461 1.5115,0.73828 0.37239,0.48764 0.55859,1.1712 0.5586,2.0508 -7e-6,0.87045 -0.15116,1.709 -0.45345,2.5156 -0.29793,0.80209 -0.70756,1.4401 -1.2289,1.9141 -0.52136,0.4694 -1.0953,0.7041 -1.7218,0.7041 -0.36364,0 -0.67689,-0.08431 -0.93976,-0.25293 -0.26287,-0.16862 -0.50603,-0.45573 -0.72946,-0.86133 l -0.05257,0 c -0.05257,0.72461 -0.14677,1.3968 -0.28258,2.0166 l -0.473,2.323 -1.9781,0 2.2475,-11.006 1.5115,0 -0.11172,1.1621 0.05915,0 c 0.6046,-0.87044 1.299,-1.3057 2.0832,-1.3057 m -0.79518,1.668 c -0.29792,7e-6 -0.58708,0.15495 -0.86747,0.46484 -0.27602,0.30534 -0.49946,0.7155 -0.67032,1.2305 -0.16649,0.51042 -0.24973,1.0755 -0.24973,1.6953 -3e-6,0.36459 0.08105,0.65625 0.24315,0.875 0.1621,0.21875 0.38554,0.32813 0.67032,0.32812 0.29353,2e-6 0.57393,-0.15722 0.84118,-0.47168 0.26725,-0.31445 0.48192,-0.74511 0.64403,-1.292 0.16648,-0.55143 0.24972,-1.0937 0.24973,-1.627 -5e-6,-0.80208 -0.28697,-1.2031 -0.8609,-1.2031"/>
  <path style="fill:#8e44ad" d="m 26.885,30.637 -1.9781,0 0.90033,-4.4639 c 0.07009,-0.30989 0.10514,-0.58105 0.10515,-0.81348 -6e-6,-0.56054 -0.23659,-0.84081 -0.70975,-0.84082 -0.40307,7e-6 -0.7689,0.25977 -1.0975,0.7793 -0.32859,0.51954 -0.58708,1.2441 -0.77547,2.1738 l -0.64403,3.165 -1.9781,0 2.169,-10.637 1.9781,0 c -0.17087,0.82488 -0.3023,1.4583 -0.3943,1.9004 -0.09201,0.44207 -0.2804,1.1462 -0.56517,2.1123 l 0.05257,0 c 0.27163,-0.3509 0.57393,-0.63118 0.9069,-0.84082 0.33296,-0.21418 0.71851,-0.32128 1.1566,-0.32129 0.60459,8e-6 1.0712,0.19141 1.3998,0.57422 0.33296,0.37826 0.49944,0.92058 0.49945,1.627 -7e-6,0.33269 -0.05039,0.74284 -0.15115,1.2305 l -0.87404,4.3545"/>
  <path style="fill:#8e44ad" d="m 31.93,22.851 c 0.63964,8e-6 1.1435,0.2461 1.5115,0.73828 0.37239,0.48764 0.55859,1.1712 0.5586,2.0508 -7e-6,0.87045 -0.15116,1.709 -0.45345,2.5156 -0.29792,0.80209 -0.70756,1.4401 -1.2289,1.9141 -0.52136,0.4694 -1.0953,0.7041 -1.7218,0.7041 -0.36364,0 -0.67689,-0.08431 -0.93976,-0.25293 -0.263,-0.169 -0.506,-0.456 -0.729,-0.862 l -0.05257,0 c -0.05257,0.72461 -0.14677,1.3968 -0.28258,2.0166 l -0.473,2.324 -1.9781,0 2.2475,-11.006 1.5115,0 -0.11172,1.1621 0.05914,0 c 0.6046,-0.87044 1.299,-1.3057 2.0832,-1.3057 m -0.79518,1.668 c -0.29792,7e-6 -0.58708,0.15495 -0.86747,0.46484 -0.27602,0.30534 -0.49946,0.7155 -0.67032,1.2305 -0.16649,0.51042 -0.24973,1.0755 -0.24973,1.6953 -3e-6,0.36459 0.08105,0.65625 0.24316,0.875 0.1621,0.21875 0.38554,0.32813 0.67032,0.32812 0.29353,2e-6 0.57393,-0.15722 0.84118,-0.47168 0.26725,-0.31445 0.48192,-0.74511 0.64403,-1.292 0.16648,-0.55143 0.24972,-1.0937 0.24973,-1.627 -5e-6,-0.80208 -0.28697,-1.2031 -0.8609,-1.2031"/>
 </g>
</svg>
