<svg xmlns="http://www.w3.org/2000/svg" width="48" height="48" version="1.1" viewBox="0 0 48 48">
 <defs>
  <clipPath id="clipPath4157" clipPathUnits="userSpaceOnUse">
   <path style="fill:#f9f8f2" d="M 27.642964,3.2951379 40.728548,16.380722 H 29.65613 c -0.977824,0 -2.013166,-1.035372 -2.013166,-2.013167 z"/>
  </clipPath>
  <filter id="filter4201" style="color-interpolation-filters:sRGB" width="1.12" height="1.12" x="-.06" y="-.06">
   <feGaussianBlur stdDeviation=".283"/>
  </filter>
 </defs>
 <path style="fill:#e6e6e6" d="m 9.797669,4.2035841 c -0.8944343,0 -1.73913,0.8446957 -1.73913,1.7391304 V 42.464454 c 0,0.844721 0.8944348,1.73913 1.73913,1.73913 h 27.826087 c 0.844722,0 1.739131,-0.894435 1.739131,-1.73913 V 15.507932 L 28.058539,4.2035841 Z"/>
 <path style="fill-opacity:0.39200003;filter:url(#filter4201)" d="M 28.248139,4.2710929 39.552487,15.575441 h -9.565218 c -0.844721,0 -1.73913,-0.894435 -1.73913,-1.739131 z" clip-path="url(#clipPath4157)" transform="translate(-0.28928697,0.20358397)"/>
 <path style="fill:#f9f8f8" d="M 28.058539,4.2035841 39.362887,15.507932 h -9.565218 c -0.844721,0 -1.73913,-0.894435 -1.73913,-1.739131 z"/>
 <path style="fill:#888888" d="m 24.000027,17.541667 c 0,0 6.452407,-0.408871 6.458306,3.875 v 3.875 c 0,0 1.291696,0.08504 1.291693,1.056777 L 31.75,35.375392 c -9e-5,0.815158 -0.791191,1.541185 -1.660717,1.541275 H 17.910707 c -0.86952,-9e-5 -1.660627,-0.726117 -1.660708,-1.541275 l 2.8e-5,-9.026948 c 3e-6,-0.971739 1.29164,-1.056777 1.29164,-1.056777 v -3.875 c 0,-3.875 6.458365,-3.875 6.45836,-3.875 z m 0,2.642033 c 0,0 -3.875027,-0.149783 -3.875027,3.066891 v 2.041076 h 7.75 v -2.025595 c 0,-3.216676 -3.874973,-3.082372 -3.874973,-3.082372 z"/>
</svg>
