<svg xmlns="http://www.w3.org/2000/svg" width="48" height="48" version="1.1" viewBox="0 0 48 48">
 <defs>
  <filter id="filter4201" style="color-interpolation-filters:sRGB" width="1.12" height="1.12" x="-.06" y="-.06">
   <feGaussianBlur stdDeviation=".283"/>
  </filter>
  <clipPath id="clipPath4157" clipPathUnits="userSpaceOnUse">
   <path style="fill:#f9f8f2" d="m 27.642964,3.2951379 13.085584,13.0855841 -11.072418,0 c -0.977824,0 -2.013166,-1.035372 -2.013166,-2.013167 l 0,-11.0724171 z"/>
  </clipPath>
 </defs>
 <g>
  <path style="fill:#ece9d8" d="m 9.797669,4.203584 c -0.8944343,0 -1.73913,0.8446957 -1.73913,1.7391304 l 0,36.5217396 c 0,0.844721 0.8944348,1.73913 1.73913,1.73913 l 27.826087,0 c 0.844722,0 1.739131,-0.894435 1.739131,-1.73913 l 0,-26.956522 L 28.058539,4.203584 Z"/>
  <path style="fill-opacity:0.39200003;filter:url(#filter4201)" d="m 28.248139,4.2710929 11.304348,11.3043481 -9.565218,0 c -0.844721,0 -1.73913,-0.894435 -1.73913,-1.739131 l 0,-9.5652171 z" clip-path="url(#clipPath4157)" transform="translate(-0.28928697,0.20358399)"/>
  <path style="fill:#f9f8f2" d="m 28.058539,4.203584 11.304348,11.304348 -9.565218,0 c -0.844721,0 -1.73913,-0.894435 -1.73913,-1.739131 l 0,-9.565217 z"/>
 </g>
 <g style="fill-opacity:0.35294119" transform="matrix(-0.86956522,0,0,0.86956522,45.304348,2.2608696)">
  <path style="fill-opacity:0.35294119" d="m 18.119,23.058 c -1.1329,0.34702 -0.13923,1.9629 -1.7605,2.7545 -1.8528,0.90459 -2.7739,-1.3782 -3.8868,0.25148 -1.1128,1.6297 1.5358,1.3769 1.4612,3.295 -0.07466,1.9181 -2.6957,1.5107 -1.7121,3.2032 0.98355,1.6925 2.0758,-0.52877 3.8539,0.48472 1.7782,1.0135 0.07824,2.8889 2.1746,2.9518 2.0964,0.06288 0.53992,-1.9057 2.3927,-2.8103 1.8528,-0.90459 2.7739,1.3782 3.8867,-0.25148 1.1128,-1.62968 -1.5358,-1.3769 -1.4612,-3.295 0.07466,-1.9181 2.6957,-1.5107 1.7121,-3.2032 -0.98355,-1.6925 -2.0758,0.52877 -3.8539,-0.48471 -1.7782,-1.0135 -0.07824,-2.8889 -2.1746,-2.9518 -0.26205,-0.0079 -0.47044,0.0063 -0.63228,0.05586 z m 0.02144,4.8836 c 0.93509,-0.18299 1.8543,0.36657 2.053,1.2275 0.19876,0.86092 -0.39816,1.7072 -1.3332,1.8902 -0.9351,0.18299 -1.8543,-0.36657 -2.053,-1.2275 -0.19876,-0.86092 0.39816,-1.7072 1.3332,-1.8902 z"/>
  <path style="fill-opacity:0.35294119" d="m 27.119,15.058 c -1.1329,0.34702 -0.13923,1.9629 -1.7605,2.7545 -1.8528,0.90459 -2.7739,-1.3782 -3.8868,0.25148 -1.1128,1.6297 1.5358,1.3769 1.4612,3.295 -0.07466,1.9181 -2.6957,1.5107 -1.7121,3.2032 0.98355,1.6925 2.0758,-0.52877 3.8539,0.48472 1.7782,1.0135 0.07824,2.8889 2.1746,2.9518 2.0964,0.06288 0.53992,-1.9057 2.3927,-2.8103 1.8528,-0.90459 2.7739,1.3782 3.8867,-0.25148 1.1128,-1.62968 -1.5358,-1.3769 -1.4612,-3.295 0.07466,-1.9181 2.6957,-1.5107 1.7121,-3.2032 -0.98355,-1.6925 -2.0758,0.52877 -3.8539,-0.48471 -1.7782,-1.0135 -0.07824,-2.8889 -2.1746,-2.9518 -0.26205,-0.0079 -0.47044,0.0063 -0.63228,0.05586 z m 0.02144,4.8836 c 0.93509,-0.18299 1.8543,0.36657 2.053,1.2275 0.19876,0.86092 -0.39816,1.7072 -1.3332,1.8902 -0.9351,0.18299 -1.8543,-0.36657 -2.053,-1.2275 -0.19876,-0.86092 0.39816,-1.7072 1.3332,-1.8902 z"/>
  <path style="fill-opacity:0.35294119" d="m 30.119,26.058 c -1.1329,0.34702 -0.13923,1.9629 -1.7605,2.7545 -1.8528,0.90459 -2.7739,-1.3782 -3.8868,0.25148 -1.1128,1.6297 1.5358,1.3769 1.4612,3.295 -0.07466,1.9181 -2.6957,1.5107 -1.7121,3.2032 0.98355,1.6925 2.0758,-0.52877 3.8539,0.48472 1.7782,1.0135 0.07824,2.8889 2.1746,2.9518 2.0964,0.06288 0.53992,-1.9057 2.3927,-2.8103 1.8528,-0.90459 2.7739,1.3782 3.8867,-0.25148 1.1128,-1.62968 -1.5358,-1.3769 -1.4612,-3.295 0.07466,-1.9181 2.6957,-1.5107 1.7121,-3.2032 -0.98355,-1.6925 -2.0758,0.52877 -3.8539,-0.48471 -1.7782,-1.0135 -0.07824,-2.8889 -2.1746,-2.9518 -0.26205,-0.0079 -0.47044,0.0063 -0.63228,0.05586 z m 0.02144,4.8836 c 0.93509,-0.18299 1.8543,0.36657 2.053,1.2275 0.19876,0.86092 -0.39816,1.7072 -1.3332,1.8902 -0.9351,0.18299 -1.8543,-0.36657 -2.053,-1.2275 -0.19876,-0.86092 0.39816,-1.7072 1.3332,-1.8902 z"/>
 </g>
</svg>
