<svg xmlns="http://www.w3.org/2000/svg" width="48" height="48" version="1.1" viewBox="0 0 48 48">
 <defs>
  <filter id="filter4201" style="color-interpolation-filters:sRGB" width="1.12" height="1.12" x="-.06" y="-.06">
   <feGaussianBlur stdDeviation=".283"/>
  </filter>
  <clipPath id="clipPath4157" clipPathUnits="userSpaceOnUse">
   <path style="fill:#f9f8f2" d="m 27.642964,3.2951379 13.085584,13.0855841 -11.072418,0 c -0.977824,0 -2.013166,-1.035372 -2.013166,-2.013167 l 0,-11.0724171 z"/>
  </clipPath>
 </defs>
 <g>
  <path style="fill:#ece9d8" d="m 9.797669,4.203584 c -0.8944343,0 -1.73913,0.8446957 -1.73913,1.7391304 l 0,36.5217396 c 0,0.844721 0.8944348,1.73913 1.73913,1.73913 l 27.826087,0 c 0.844722,0 1.739131,-0.894435 1.739131,-1.73913 l 0,-26.956522 L 28.058539,4.203584 Z"/>
  <path style="fill-opacity:0.39200003;filter:url(#filter4201)" d="m 28.248139,4.2710929 11.304348,11.3043481 -9.565218,0 c -0.844721,0 -1.73913,-0.894435 -1.73913,-1.739131 l 0,-9.5652171 z" clip-path="url(#clipPath4157)" transform="translate(-0.28928697,0.20358399)"/>
  <path style="fill:#f9f8f2" d="m 28.058539,4.203584 11.304348,11.304348 -9.565218,0 c -0.844721,0 -1.73913,-0.894435 -1.73913,-1.739131 l 0,-9.565217 z"/>
 </g>
 <g style="fill-opacity:0.35294119" transform="matrix(0.92713043,0,0,0.81555652,3.1304347,3.1304348)">
  <path style="fill-opacity:0.35294119" d="m 20.577,32.291 0,-0.76159 c -4e-6,-1.1001 0.16924,-2.0027 0.50773,-2.7079 0.33848,-0.71457 0.96844,-1.4668 1.8899,-2.2566 1.2787,-1.0813 2.0826,-1.8946 2.4117,-2.4399 0.33848,-0.54532 0.50772,-1.2035 0.50773,-1.9745 -9e-6,-0.95902 -0.31029,-1.6971 -0.93083,-2.2143 -0.61116,-0.52651 -1.495,-0.78978 -2.6515,-0.7898 -0.74279,1.9e-5 -1.4668,0.08934 -2.1719,0.26797 -0.70518,0.16926 -1.5138,0.48424 -2.4258,0.94494 l -0.83211,-1.904 c 1.777,-0.93081 3.634,-1.3962 5.5709,-1.3963 1.7958,2.1e-5 3.1921,0.44193 4.1888,1.3257 0.99664,0.88384 1.495,2.1297 1.495,3.7374 -1.2e-5,0.68639 -0.09404,1.2928 -0.28207,1.8194 -0.17866,0.51714 -0.44662,1.0108 -0.8039,1.4809 -0.3573,0.46073 -1.1283,1.2082 -2.313,2.2425 -0.94965,0.80861 -1.5796,1.4809 -1.8899,2.0168 -0.30088,0.53594 -0.45132,1.2505 -0.45131,2.1437 l 0,0.46542 -1.8194,0 m -0.69107,4.1888 c -3e-6,-1.2787 0.56414,-1.9181 1.6924,-1.9181 0.54533,3e-6 0.96374,0.16454 1.2552,0.49362 0.30087,0.32908 0.45131,0.8039 0.45131,1.4245 -6e-6,0.60175 -0.15044,1.0719 -0.45131,1.4104 -0.30088,0.32908 -0.71929,0.49362 -1.2552,0.49362 -0.48893,0 -0.89323,-0.14574 -1.2129,-0.43721 -0.31968,-0.30088 -0.47952,-0.7898 -0.47952,-1.4668"/>
 </g>
</svg>
