<svg width="16" xmlns="http://www.w3.org/2000/svg" viewBox="0 0 16 16" height="16">
<g style="fill:#bebebe">
<path d="M 1,4 C 0.446,4 0,4.446 0,5 l 0,7 c 0,0.554 0.446,1 1,1 l 14,0 c 0.554,0 1,-0.446 1,-1 L 16,5 C 16,4.446 15.554,4 15,4 Z m 2,1.5 10,0 c 0.554,0 1.5,0.946 1.5,1.5 l 0,3 c 0,0.554 -0.946,1.5 -1.5,1.5 l -10,0 C 2.446,11.5 1.5,10.554 1.5,10 l 0,-3 C 1.5,6.446 2.446,5.5 3,5.5 Z"/>
<path d="M 3,7 3,8 4,8 4,7 z"/>
<path d="M 5,7 5,8 6,8 6,7 z"/>
<path d="M 7,7 7,8 8,8 8,7 z"/>
<path d="m 9,7 0,1 1,0 0,-1 z"/>
<path d="m 3,9 0,1 2.0361386,0 0,-1 z"/>
<path d="m 6,9 0,1 4.964356,0 0,-1 z"/>
<path d="m 11,7 0,1 1,0 0,2 1,0 0,-3 z"/>
</g>
</svg>
