<svg width="512" height="512" version="1.1" viewBox="0 0 135.47 135.47" xmlns="http://www.w3.org/2000/svg" xmlns:xlink="http://www.w3.org/1999/xlink"><defs><linearGradient id="b"><stop stop-color="#23bac2" offset="0"/><stop stop-color="#367bf0" offset="1"/></linearGradient><linearGradient id="a" x1="82.732" x2="42.975" y1="31.579" y2="55.428" gradientTransform="matrix(.66062 0 0 .66062 23.19 28.65)" gradientUnits="userSpaceOnUse" xlink:href="#b"/><linearGradient id="c" x1="82.732" x2="42.975" y1="31.579" y2="55.428" gradientTransform="matrix(.66061 0 0 .66061 23.19 30.398)" gradientUnits="userSpaceOnUse" xlink:href="#b"/></defs><ellipse cx="67.735" cy="85.331" rx="40.958" ry="36.793" fill="#ffd259" stroke-width=".26274"/><path d="m53.785 115.44c-2.2801-0.4964-4.6291-1.4465-6.3509-2.5688-1.461-0.95223-4.0574-3.7039-3.9122-4.1462 0.05213-0.15912 0.72524-0.43352 1.4956-0.60975 1.8621-0.42597 2.8894-0.89556 7.8953-3.609 5.9791-3.241 8.6354-4.0094 9.2355-2.6718 0.5247 1.1697 1.9275 2.5557 3.0473 3.0108 3.0006 1.2195 6.4505 0.0347 7.8855-2.708 0.50955-0.97393 0.55338-0.9951 1.729-0.83526 1.6476 0.22401 4.2671 1.2804 6.8351 2.7565 3.4966 2.0098 7.0354 3.66 8.6452 4.0314 0.82906 0.19125 1.5565 0.49738 1.6165 0.68027 0.21188 0.64567-3.4622 3.9436-5.5709 5.0005-3.0656 1.5366-4.9678 1.9597-8.8454 1.9678-3.72 7e-3 -5.9315-0.51062-8.4101-1.9713l-1.307-0.7702-2.0532 1.0398c-3.5395 1.7925-7.83 2.2969-11.935 1.4032z" opacity=".3"/><path transform="scale(.26459)" d="m101.3 317.49a154.8 139.06 0 0 0-0.09961 5.0098 154.8 139.06 0 0 0 154.8 139.06 154.8 139.06 0 0 0 154.8-139.06 154.8 139.06 0 0 0-0.09961-4.9902 154.8 139.06 0 0 1-154.7 134.05 154.8 139.06 0 0 1-154.7-134.07z" fill="#ffc730" stroke-width=".99302"/><path transform="scale(.26459)" d="m249.03 280.76c-22.042 0.13769-43.648 1.2479-64.809 3.332-21.926 2.1594-59.868 6.9539-77.141 9.8379-1.3395 5.0668-2.3093 8.3419-2.7051 10.445 15.824-2.8121 56.812-8.0147 79.846-10.283 24.183-2.3819 48.948-3.4923 74.281-3.332 32.572 0.20613 66.086 2.5142 100.52 6.9219 14.071 1.8015 38.12 5.0321 48.785 6.9473-0.19673-1.2082-1.0599-6.6384-1.6406-10.277-11.288-1.9366-33.703-4.949-47.145-6.6699-34.432-4.4076-67.946-6.7157-100.52-6.9219-3.1666-0.02-6.3238-0.0197-9.4726 0z" fill="#ffc730" stroke-width=".99996"/><path d="m68.113 8.3163c-2.3278 0.00818-4.8593 0.28522-6.4801 0.76842-3.5443 1.0566-6.6304 2.8339-9.3698 5.3964l-1.4614 1.3673-1.3255-0.36327c-2.0765-0.56914-6.4137-0.69722-8.7256-0.25735-4.205 0.80006-7.5966 2.5398-10.668 5.472-6.9047 6.591-8.5822 16.401-4.2626 24.925 1.1873 2.343 3.8885 5.544 5.9015 6.9923l0.64854 0.46664-1.7451 10.917c-1.418 8.8732-2.7326 12.424-3.0076 13.886 4.187-0.74405 15.032-2.1204 21.126-2.7207 6.3986-0.63023 12.951-0.92399 19.654-0.88158 8.6182 0.05454 17.485 0.66518 26.596 1.8314 3.7232 0.47667 10.086 1.3314 12.908 1.8381-0.10172-0.62473-0.44063-2.7466-0.848-5.3138-0.43725-2.7553-2.1444-8.2647-2.7787-12.243l-1.1534-7.2341 0.75135-0.62219c1.6195-1.3405 2.691-2.4038 3.5652-3.5377 6.505-8.4388 6.0581-19.686-1.0852-27.307-2.8339-3.0239-6.2369-5.1019-10.048-6.1369-2.5072-0.68092-7.9035-0.73646-10.203-0.1049l-1.4469 0.3974-1.2857-1.2139c-3.3752-3.1858-7.7718-5.4361-11.924-6.1028-0.68915-0.1107-1.4922-0.17801-2.3481-0.20464-0.32099-0.00999-0.64931-0.014086-0.98183-0.012919z" fill="#fff" stroke-width=".26458"/><path d="m53.785 113.85c-2.2801-0.4964-4.6291-1.4465-6.3509-2.5688-1.461-0.95223-4.0574-3.7039-3.9122-4.1462 0.05213-0.15912 0.72524-0.43352 1.4956-0.60975 1.8621-0.42597 2.8894-0.89556 7.8953-3.609 5.9791-3.241 8.6354-4.0094 9.2355-2.6718 0.5247 1.1697 1.9275 2.5557 3.0473 3.0108 3.0006 1.2195 6.4505 0.0347 7.8855-2.708 0.50955-0.97393 0.55338-0.9951 1.729-0.83526 1.6476 0.22401 4.2671 1.2804 6.8351 2.7565 3.4966 2.0098 7.0354 3.66 8.6452 4.0314 0.82906 0.19125 1.5565 0.49738 1.6165 0.68027 0.21188 0.64567-3.4622 3.9436-5.5709 5.0005-3.0656 1.5366-4.9678 1.9597-8.8454 1.9678-3.72 7e-3 -5.9315-0.51062-8.4101-1.9713l-1.307-0.7702-2.0532 1.0398c-3.5395 1.7925-7.83 2.2969-11.935 1.4032z" fill="#714b2b"/><path d="m52.666 83.447c-2.2047-0.01133-3.7904 0.79005-5.1087 2.5656-2.3227 3.1284-1.1857 7.8197 2.3352 9.6359 1.9074 0.98394 4.7525 0.77058 6.4635-0.48498 3.6016-2.6429 3.6016-8.0271 0-10.67-1.0602-0.77795-1.5938-0.94808-3.2407-1.0337-0.15259-0.0079-0.30229-0.01215-0.44928-0.01283z" opacity=".1" stroke-width=".2969"/><path d="m52.666 81.86c-2.2047-0.01133-3.7904 0.79005-5.1087 2.5656-2.3227 3.1284-1.1857 7.8197 2.3352 9.6359 1.9074 0.98394 4.7525 0.77058 6.4635-0.48498 3.6016-2.6429 3.6016-8.0271 0-10.67-1.0602-0.77795-1.5938-0.94808-3.2407-1.0337-0.15259-0.0079-0.30229-0.01215-0.44928-0.01283z" fill="#272a34" stroke-width=".2969"/><path d="m83.316 83.351c-2.2047-0.01133-3.7904 0.79005-5.1087 2.5656-2.3227 3.1284-1.1857 7.8197 2.3352 9.6359 1.9074 0.98394 4.7525 0.77058 6.4635-0.48498 3.6016-2.6429 3.6016-8.0271 0-10.67-1.0602-0.77795-1.5938-0.94808-3.2407-1.0337-0.15259-0.0079-0.30229-0.01214-0.44927-0.01282z" opacity=".1" stroke-width=".2969"/><path d="m83.316 81.764c-2.2047-0.01133-3.7904 0.79005-5.1087 2.5656-2.3227 3.1284-1.1857 7.8197 2.3352 9.6359 1.9074 0.98394 4.7525 0.77058 6.4635-0.48498 3.6016-2.6429 3.6016-8.0271 0-10.67-1.0602-0.77795-1.5938-0.94808-3.2407-1.0337-0.15259-0.0079-0.30229-0.01214-0.44927-0.01282z" fill="#272a34" stroke-width=".2969"/><path d="m111.98 34.536c-0.26665 4.1187-1.7715 8.2258-4.5439 11.822-0.87409 1.1339-1.9456 2.1972-3.5652 3.5377l-0.75136 0.62219-1e-4 2.6458 0.75146-0.62229c1.6195-1.3405 2.691-2.4038 3.5652-3.5377 3.3668-4.368 4.8664-9.4876 4.5439-14.468zm-88.486 0.04754c-0.23558 3.6861 0.51792 7.4768 2.3249 11.043 1.1873 2.343 3.8885 5.544 5.9015 6.9923l0.64833 0.46674 2.01e-4 -2.6458-0.64854-0.46664c-2.0127-1.4483-4.714-4.6492-5.9015-6.9923-1.3768-2.717-2.1416-5.5644-2.3249-8.3967z" fill="#737680" opacity=".3" stroke-width=".26458"/><path d="m44.264 106.74c-0.40616 0.14058-0.70862 0.28914-0.74207 0.39119-0.14514 0.44227 2.4514 3.1943 3.9123 4.1465 1.7218 1.1223 4.0708 2.0724 6.351 2.5688 4.1052 0.8937 8.3957 0.38896 11.935-1.4035l2.0531-1.0397 1.3069 0.77049c2.4785 1.4606 4.6902 1.9779 8.4102 1.9709 3.8777-8e-3 5.7792-0.43127 8.8449-1.9678 2.1087-1.0569 5.7829-4.3545 5.5713-5-0.0361-0.11-0.3281-0.26347-0.72397-0.41081-1.143 1.2574-3.3747 3.0855-4.8471 3.8234-3.0657 1.5366-4.9672 1.9597-8.8449 1.9678-3.72 7e-3 -5.9316-0.51026-8.4102-1.9709l-1.3069-0.77049-2.0531 1.0397c-3.5396 1.7925-7.83 2.2972-11.935 1.4035-2.2801-0.49641-4.6291-1.4465-6.351-2.5688-0.93246-0.60776-2.3208-1.9447-3.1702-2.9501z" opacity=".3" stroke-width=".26458"/><g transform="translate(0 -2.2739)"><path x="44.944817" y="45.202805" width="45.58036" height="25.032843" rx="5.867085" ry="5.867085" d="m49.354 44.555c12.107-1.2998 24.386-1.354 36.578-0.03934 3.5124 0.37876 5.9467 3.3961 5.4697 6.6112l-1.9517 13.155c-0.47703 3.2151-3.236 5.4374-6.2077 5.1152-10.315-1.1183-20.808-1.0593-31.22 0.05377-2.9998 0.32068-5.7762-1.9172-6.2359-5.1348l-1.881-13.165c-0.45974-3.2177 1.9613-6.2212 5.4494-6.5957z" fill="#272a34" stroke-width=".34108"/><path x="44.944817" y="45.202805" width="45.58036" height="25.032843" rx="5.867085" ry="5.867085" d="m49.354 44.555c12.107-1.2998 24.386-1.354 36.578-0.03934 3.5124 0.37876 5.9467 3.3961 5.4697 6.6112l-1.9517 13.155c-0.47703 3.2151-3.236 5.4374-6.2077 5.1152-10.315-1.1183-20.808-1.0593-31.22 0.05377-2.9998 0.32068-5.7762-1.9172-6.2359-5.1348l-1.881-13.165c-0.45974-3.2177 1.9613-6.2212 5.4494-6.5957z" opacity=".5" stroke-width=".34108"/><path d="m87.355 50.763c-1.1011-0.14485-2.7151 0.72108-3.822 0.61331-3.5764-0.34819-6.0702 1.3272-6.2309 4.0366-0.13547 2.2849 1.4678 3.212 3.0462 3.8468 1.589 0.63907 3.1824 0.99604 3.0751 2.0339-0.06419 0.62127-0.66285 0.90422-1.9164 0.79053-1.1768-0.10673-2.5891-0.45297-3.8525-1.0969-0.32378 0.31801-0.64558 0.63708-0.96539 0.95718l-0.10077 1.7445c1.2756 0.69411 2.9463 1.2639 4.5164 1.4049 3.3466 0.30054 5.451-1.1168 5.7941-3.8102 0.31405-2.4655-1.2141-3.5238-2.8353-4.1954-1.6107-0.6672-3.2771-0.93129-3.1949-1.9293 0.05572-0.67653 0.85488-0.98729 2.2001-0.85785 1.1099 0.1068 2.3057 0.43055 3.2326 0.87423 0.41917-0.85124 0.8438-1.7009 1.2739-2.5488l0.21603-1.7341c-0.13243-0.06728-0.27894-0.10856-0.43624-0.12925-3.7e-5 -3e-6 -7.4e-5 -5e-6 -1.11e-4 -7e-6zm-40.138 1.3561 1.6669 13.398c1.5165-0.18821 3.0354-0.35473 4.5559-0.49921 4.3304-0.41147 7.1724-3.2927 6.9696-7.5382-0.19299-4.0403-3.116-6.3846-7.9869-5.9288-1.7384 0.16266-3.4738 0.35208-5.2056 0.56783 2.6e-5 1.9e-5 5.2e-5 3.8e-5 7.7e-5 5.7e-5zm15.059-1.1997 0.46822 13.493c1.0119-0.03534 2.0239-0.06065 3.0357-0.07582l-0.13066-8.8694c1.9248 2.9288 3.7458 5.8918 5.4593 8.8839 1.1955 0.02455 2.3903 0.06354 3.584 0.11714l0.60801-13.483c-1.1154-0.05042-2.2311-0.08921-3.347-0.11646-0.08456 2.9291-0.1684 5.8582-0.2515 8.7873-1.7095-2.972-3.5224-5.9159-5.4352-8.8269-1.3307 0.01385-2.6611 0.04385-3.9908 0.08982-4.3e-5 1e-6 -8.6e-5 3e-6 -1.29e-4 4e-6zm-11.356 3.6937c0.52514-0.05476 1.0506-0.10705 1.5762-0.15686 2.6408-0.25021 4.2872 1.1375 4.4592 3.6158 0.16743 2.4122-1.0575 3.8063-3.4127 4.0246-0.60826 0.05637-1.2162 0.11621-1.8239 0.1795l-0.7988-7.663c-2.3e-5 2e-6 -4.6e-5 4e-6 -6.8e-5 7e-6z" fill="url(#c)" stroke-width="1.0755"/><path d="m87.355 50.763c-1.1011-0.14485-2.7151 0.72108-3.822 0.61331-3.5764-0.34819-6.0702 1.3272-6.2309 4.0366-0.13547 2.2849 1.4678 3.212 3.0462 3.8468 1.589 0.63907 3.1824 0.99604 3.0751 2.0339-0.06419 0.62127-0.66285 0.90422-1.9164 0.79053-1.1768-0.10673-2.5891-0.45297-3.8525-1.0969-0.32378 0.31801-0.64558 0.63708-0.96539 0.95718l-0.10077 1.7445c1.2756 0.69411 2.9463 1.2639 4.5164 1.4049 3.3466 0.30054 5.451-1.1168 5.7941-3.8102 0.31405-2.4655-1.2141-3.5238-2.8353-4.1954-1.6107-0.6672-3.2771-0.93129-3.1949-1.9293 0.05572-0.67653 0.85488-0.98729 2.2001-0.85785 1.1099 0.1068 2.3057 0.43055 3.2326 0.87423 0.41917-0.85124 0.8438-1.7009 1.2739-2.5488l0.21603-1.7341c-0.13243-0.06728-0.27894-0.10856-0.43624-0.12925-3.7e-5 -3e-6 -7.4e-5 -5e-6 -1.11e-4 -7e-6zm-40.138 1.3561 1.6669 13.398c1.5165-0.18821 3.0354-0.35473 4.5559-0.49921 4.3304-0.41147 7.1724-3.2927 6.9696-7.5382-0.19299-4.0403-3.116-6.3846-7.9869-5.9288-1.7384 0.16266-3.4738 0.35208-5.2056 0.56783 2.6e-5 1.9e-5 5.2e-5 3.8e-5 7.7e-5 5.7e-5zm15.059-1.1997 0.46822 13.493c1.0119-0.03534 2.0239-0.06065 3.0357-0.07582l-0.13066-8.8694c1.9248 2.9288 3.7458 5.8918 5.4593 8.8839 1.1955 0.02455 2.3903 0.06354 3.584 0.11714l0.60801-13.483c-1.1154-0.05042-2.2311-0.08921-3.347-0.11646-0.08456 2.9291-0.1684 5.8582-0.2515 8.7873-1.7095-2.972-3.5224-5.9159-5.4352-8.8269-1.3307 0.01385-2.6611 0.04385-3.9908 0.08982-4.3e-5 1e-6 -8.6e-5 3e-6 -1.29e-4 4e-6zm-11.356 3.6937c0.52514-0.05476 1.0506-0.10705 1.5762-0.15686 2.6408-0.25021 4.2872 1.1375 4.4592 3.6158 0.16743 2.4122-1.0575 3.8063-3.4127 4.0246-0.60826 0.05637-1.2162 0.11621-1.8239 0.1795l-0.7988-7.663c-2.3e-5 2e-6 -4.6e-5 4e-6 -6.8e-5 7e-6z" opacity=".3" stroke-width="1.0755"/><path d="m48.67 63.783c1.5332-0.19036 3.0689-0.35877 4.6063-0.50486 4.3793-0.41612 7.2545-3.2981 7.0518-7.5438-0.19293-4.0401-3.1459-6.3838-8.0662-5.9235-1.7561 0.16432-3.5092 0.35569-5.2585 0.5737 0.55554 4.4662 1.1111 8.9323 1.6666 13.398zm2.8684-3.2451-0.79873-7.663c0.53063-0.05534 1.0616-0.10818 1.5928-0.15851 2.6683-0.25282 4.3309 1.1343 4.5029 3.6126 0.16741 2.4123-1.072 3.8069-3.4531 4.0275-0.6149 0.05694-1.2295 0.11739-1.8438 0.18134z" fill="url(#a)" stroke-width=".66062"/><path d="m62.685 62.666c1.0236-0.03569 2.0473-0.06122 3.0708-0.07649l-0.13054-8.8694c1.9451 2.9286 3.7867 5.8918 5.5209 8.8844 1.2096 0.02492 2.4185 0.06445 3.6264 0.11875l0.60818-13.483c-1.1275-0.05103-2.2552-0.09029-3.3831-0.1179-0.08474 2.9291-0.16875 5.8582-0.25204 8.7873-1.7298-2.9726-3.5629-5.9167-5.4957-8.8276-1.3449 0.01392-2.6893 0.04416-4.033 0.09053 0.15602 4.4978 0.31203 8.9955 0.46805 13.493z" fill="url(#a)" stroke-width=".66062"/><path d="m81.261 63.354c3.388 0.30423 5.5157-1.1099 5.8589-3.8035 0.31407-2.4656-1.2336-3.5263-2.8741-4.1998-1.63-0.66919-3.3156-0.93489-3.2334-1.933 0.05572-0.67651 0.86358-0.98654 2.2241-0.85565 1.1226 0.108 2.3321 0.43335 3.2702 0.87832 0.42283-0.85087 0.85113-1.7001 1.2849-2.5477-1.1136-0.6501-2.6382-1.1139-4.0887-1.2551-3.6159-0.35199-6.1364 1.322-6.297 4.0315-0.13548 2.2849 1.4866 3.2131 3.0841 3.8495 1.608 0.64056 3.2206 0.9994 3.1134 2.0372-0.06419 0.62131-0.66967 0.90382-1.9383 0.78876-1.1909-0.108-2.6201-0.45567-3.8989-1.1006-0.36448 0.89906-0.72343 1.7994-1.0769 2.701 1.2911 0.69504 2.9825 1.2664 4.5718 1.4091 4.4e-5 -2.3e-5 8.9e-5 -4.6e-5 1.33e-4 -6.8e-5z" fill="url(#a)" stroke-width=".66062"/></g><path transform="scale(.26459)" d="m257.43 31.432c-8.7977 0.03092-18.364 1.0781-24.49 2.9043-13.396 3.9935-25.06 10.71-35.414 20.395l-5.5234 5.168-5.0078-1.373c-7.848-2.151-24.241-2.6351-32.979-0.97266-15.892 3.0238-28.711 9.5996-40.32 20.682-17.778 16.97-26.378 39.585-24.898 62.465 1.2387-19.371 9.7198-37.976 24.898-52.465 11.61-11.082 24.428-17.658 40.32-20.682 8.7377-1.6625 25.131-1.1784 32.979 0.97266l5.0078 1.373 5.5234-5.168c10.354-9.6846 22.019-16.401 35.414-20.395 6.1258-1.8262 15.693-2.8733 24.49-2.9043l6e-3 0.0039c1.2568-0.0044 2.4978 0.01103 3.7109 0.04883 3.2351 0.10064 6.2704 0.35507 8.875 0.77344 15.693 2.5199 32.308 11.024 45.064 23.064l4.8594 4.5879 5.4688-1.502c8.6897-2.3869 29.085-2.177 38.561 0.39648 14.405 3.9119 27.268 11.765 37.979 23.193 13.024 13.895 20.139 30.982 21.275 48.525 1.3568-20.958-5.7841-41.998-21.275-58.525-10.711-11.429-23.573-19.282-37.979-23.193-9.4758-2.5735-29.871-2.7834-38.561-0.39648l-5.4688 1.502-4.8594-4.5879c-12.757-12.041-29.371-20.545-45.065-23.064-2.6046-0.41836-5.6399-0.6728-8.875-0.77344-1.2132-0.03776-2.4542-0.05324-3.7109-0.04883z" fill="#737680" opacity=".2" stroke-width=".99996"/><path transform="scale(.26459)" d="m249.03 274.76c-22.042 0.13769-43.648 1.2479-64.809 3.332-22.387 2.2048-61.545 7.1639-78.266 10.023-0.75106 2.7622-1.307 4.8086-1.5801 6.2598 15.824-2.8121 56.812-8.0147 79.846-10.283 24.183-2.3819 48.948-3.4923 74.281-3.332 32.572 0.20613 66.086 2.5142 100.52 6.9219 14.071 1.8015 38.12 5.0321 48.785 6.9473-0.11803-0.7249-0.71581-4.4895-0.98438-6.166-11.062-1.9305-34.107-5.0281-47.801-6.7812-34.432-4.4076-67.946-6.7157-100.52-6.9219-3.1666-0.02-6.3238-0.0197-9.4726 0z" fill="#737680" opacity=".3" stroke-width=".99996"/><path transform="scale(.26459)" d="m345.45 178.62c-0.00115 0.0078-7.9e-4 0.01565-0.00195 0.02344l-7.375 49.717c-1.8029 12.151-12.232 20.552-23.463 19.334-38.985-4.2265-78.643-4.0036-117.99 0.20313-11.338 1.212-21.831-7.2455-23.568-19.406l-7.0996-49.703c-0.28022 1.9323-0.29624 3.9266-0.00781 5.9453l7.1074 49.758c1.7374 12.161 12.231 20.618 23.568 19.406 39.351-4.2068 79.009-4.4297 117.99-0.20313 11.231 1.2177 21.66-7.1827 23.463-19.334l7.375-49.717c0.3032-2.0436 0.28825-4.066 0.00195-6.0234z"/></svg>
