<svg xmlns="http://www.w3.org/2000/svg" width="512" height="512" version="1.1" viewBox="0 0 384 384"> <g transform="translate(9.9999995e-7,-0.0604593)"> <path d="m 178.5,364.78906 c -33.89844,-3.10937 -64.32422,-14.75 -91.433594,-34.98437 -9.234375,-6.89063 -25.980468,-23.63672 -32.871094,-32.8711 -14.367187,-19.25 -24.277343,-39.78515 -29.875,-61.91406 C 20.210938,218.77344 19.179688,210.16016 19.179688,192 c 0,-18.16016 1.03125,-26.77344 5.140624,-43.01953 C 32.179688,117.91406 49.175781,88.9375 72.613281,66.652344 98.710938,41.835938 130.88672,26.164062 167.35547,20.503906 c 11.86719,-1.84375 37.46094,-1.835937 49.36719,0.01172 38.14843,5.917969 70.5625,22.273437 97.55859,49.222656 22.66016,22.617188 37.73047,48.921878 45.39844,79.242188 4.10937,16.24609 5.14062,24.85937 5.14062,43.01953 0,18.16016 -1.03125,26.77344 -5.14062,43.01953 -12.1836,48.17188 -44.82422,88.75 -89.60547,111.39844 -16.98047,8.58984 -34,14.0664 -52.61719,16.92969 -7.57422,1.16796 -32.06641,2.07031 -38.95703,1.4414 z m 34.79297,-28.73437 C 241.56641,328.59766 266.57422,303.25391 281.42969,267 294.36719,235.4375 298.24219,195.85547 292.03516,158.625 284.45312,113.12109 259.65625,73.664062 228.92969,58.210938 216.73047,52.078125 208.54687,50.070312 195.75,50.078125 c -7.64453,0 -10.73047,0.359375 -16.70703,1.925781 -26.91797,7.050782 -49.19141,27.738282 -64.73047,60.121094 -11.85156,24.69531 -17.539062,51.12109 -17.554688,81.53125 -0.01953,34.78906 7.499998,65.5625 22.464848,91.92578 15.8789,27.97656 37.41796,45.61328 62.65234,51.29688 8.03125,1.80859 22.92187,1.41796 31.41797,-0.82422 z m 0,0" style="fill:rgb(80.000%,80.000%,80.000%)"/> <path d="m 182.08984,346.44141 c -12.9414,-1.57422 -25.27734,-5.58594 -38.04297,-12.36329 -9.61328,-5.10546 -17.15624,-10.64843 -25.93359,-19.0625 C 104.94531,302.39453 96.519531,290.72266 87.84375,273.08594 65.914062,228.52734 64.195312,173.19141 83.289062,126.73047 87.546875,116.37109 89.21875,113.03125 94.488281,104.33984 108.64063,81 129.07812,62.226562 151.06641,52.371094 c 15.01562,-6.726563 25.75,-9.023438 42.25781,-9.042969 16.96094,-0.01953 28.57031,2.492187 43.32031,9.375 13.6875,6.386719 23.61719,13.464844 35.0625,24.992187 23.84375,24.011718 38.625,55.613278 43.79688,93.632808 1.46484,10.75391 1.66796,34.76954 0.375,44.74219 -3.3125,25.625 -11.17969,49.55469 -22.37891,68.06641 -20.33594,33.60937 -49.10547,55.11719 -81.90625,61.23437 -7.76172,1.44922 -22.125,1.96875 -29.50391,1.07032 z m 28.26563,-11.45313 c 21.37109,-5.23828 39.85156,-19.42187 54.82422,-42.06641 27.70703,-41.91406 34.59765,-104.71484 17.22265,-156.92578 -11.125,-33.42578 -30.125,-58.632809 -53.83984,-71.421871 C 205.58984,52.179688 179.03906,53.164062 156.625,67.238281 99.898438,102.85156 80.054688,203.47656 115.34375,276.58203 c 7.37891,15.28125 14.58594,25.5625 25.41406,36.24219 13.80078,13.61719 28.58594,21.09375 47.13281,23.82812 4.35938,0.64453 16.8125,-0.27734 22.46485,-1.66406 z m 0,0"/> </g> </svg>
