<svg version="1.1" viewBox="0 0 512 512" xmlns="http://www.w3.org/2000/svg" xmlns:xlink="http://www.w3.org/1999/xlink"><defs><linearGradient id="a" x1="173.59" x2="445.72" y1="396.42" y2="149.7" gradientTransform="matrix(.91243 0 0 .91243 25.569 21.511)" gradientUnits="userSpaceOnUse"><stop stop-color="#2656a8" offset="0"/><stop stop-color="#367bf0" offset=".17626"/><stop stop-color="#2656a8" offset=".35522"/><stop stop-color="#367bf0" offset=".54781"/><stop stop-color="#2656a8" offset=".72292"/><stop stop-color="#367bf0" offset=".87058"/><stop stop-color="#2656a8" offset="1"/></linearGradient></defs><ellipse cx="256" cy="188.41" r="166.5" fill="#fff" style="paint-order:stroke fill markers"/><g transform="matrix(-.76277 .76277 -.76277 -.76277 691.53 266.6)" shape-rendering="auto"><path d="m147.11 210.05c-0.0967 3e-3 -0.1934 7e-3 -0.28975 0.017l-16.337 1.5908c-2.2552 0.21896-3.9059 2.2245-3.6872 4.4797l1.1902 12.249-16.087 1.5652c-0.41368-0.0225-0.82838 0.0176-1.23 0.11926l-22.413 2.1759h-0.0087c-0.18476-7e-3 -0.36983-3e-3 -0.55393 0.0145-0.08828 7e-3 -0.17645 0.016-0.26418 0.0284-0.14137 0.0192-0.28176 0.0457-0.42043 0.0796l-22.222 2.1617c-0.0044-2e-5 -0.01018-2e-5 -0.01454 0-0.32717-0.0173-0.65523 4e-3 -0.97718 0.0653-0.09919 0.0153-0.19768 0.0343-0.29544 0.0569l-22.362 2.1759c-0.38395-0.0167-0.76835 0.0207-1.1419 0.11082l-14.087 1.372c-2.2552 0.21896-3.9059 2.2245-3.6872 4.4797l3.1815 32.665c0.21896 2.2552 2.2245 3.9059 4.4797 3.6872l16.453-1.6021c0.44243 0.0286 0.88661-0.0146 1.3152-0.12784l22.742-2.2129c0.07854 3e-3 0.15719 3e-3 0.23578 0 0.1005-1.9e-4 0.20091-4e-3 0.30111-0.0116 0.08552-6e-3 0.17072-0.0145 0.25566-0.0256 0.0087-9.4e-4 0.01702-1e-3 0.0256-3e-3 0.0058-9.6e-4 0.01163-1e-3 0.01702-3e-3 0.13672-0.0196 0.27224-0.0462 0.40622-0.0796l23.416-2.2782c0.2437 0.0116 0.48803 3e-3 0.73004-0.0284 0.0058 1e-5 0.01164 1e-5 0.01702 0 0.0087-9.5e-4 0.01702-1e-3 0.0256-3e-3 0.07897-0.0116 0.15759-0.0241 0.23578-0.0397 0.07999-0.0131 0.15956-0.0298 0.23861-0.0483l21.41-2.085c0.40597 0.0212 0.81284-0.018 1.2073-0.1165l13.044-1.2698 1.1931 12.252c0.21897 2.2552 2.2245 3.9059 4.4797 3.6872l16.325-1.5936c2.2528-0.22044 3.9015-2.2237 3.6843-4.4769l-2.0623-21.257c190.27-20.89 330.1 22.276 330.1 22.276 3.6066 1.112 6.6748-2.8249 4.7155-6.0506l-10.959-18.007c-0.51737-0.84997-1.326-1.483-2.2754-1.7811 0 0-134.84-42.248-324.3-24.31l-1.568-16.195c-0.20843-2.1428-2.0378-3.7601-4.19-3.7042z" color="#000000" color-rendering="auto" dominant-baseline="auto" fill="#fff" image-rendering="auto" solid-color="#000000" style="font-feature-settings:normal;font-variant-alternates:normal;font-variant-caps:normal;font-variant-ligatures:normal;font-variant-numeric:normal;font-variant-position:normal;isolation:auto;mix-blend-mode:normal;shape-padding:0;text-decoration-color:#000000;text-decoration-line:none;text-decoration-style:solid;text-indent:0;text-orientation:mixed;text-transform:none;white-space:normal"/><path d="m147.11 210.05c-0.0965 2e-3 -0.19292 7e-3 -0.28906 0.0156l-16.336 1.5918c-2.2556 0.21878-3.9067 2.2249-3.6875 4.4805l1.1894 12.248-16.086 1.5644c-0.41382-0.0227-0.82868 0.0175-1.2305 0.11914l-22.412 2.1777h-0.01c-0.18435-8e-3 -0.36901-3e-3 -0.55274 0.0137-0.0888 6e-3 -0.1774 0.0153-0.26562 0.0273-0.14127 0.0194-0.28144 0.0461-0.41993 0.0801l-22.223 2.1621c-5e-3 -1e-5 -9e-3 -1e-5 -0.0137 0-0.32758-0.0177-0.6561 4e-3 -0.97852 0.0644-0.099 0.0159-0.19736 0.0355-0.29492 0.0586l-22.361 2.1758c-0.38407-0.0172-0.76869 0.0196-1.1425 0.10944l-14.086 1.373c-2.2548 0.2188-3.9055 2.2236-3.6875 4.4785l3.1816 32.666c0.21878 2.2556 2.2249 3.9067 4.4805 3.6875l16.453-1.6035c0.44214 0.0289 0.88603-0.0139 1.3145-0.12695l22.742-2.2129c0.0788 2e-3 0.15757 2e-3 0.23633 0 0.10037-2.3e-4 0.2007-4e-3 0.30078-0.0117 0.0855-6e-3 0.17086-0.0143 0.25586-0.0254 8e-3 -1e-3 0.0169-3e-3 0.0254-4e-3 6e-3 -6.4e-4 0.0117-1e-3 0.0176-2e-3 0.13668-0.0198 0.27227-0.0466 0.40625-0.0801l23.414-2.2773c0.24387 0.012 0.48833 2e-3 0.73046-0.0293 6e-3 1e-5 0.0117 1e-5 0.0176 0 8e-3 -6.2e-4 0.0169-1e-3 0.0254-2e-3 0.0792-0.0114 0.15797-0.0251 0.23633-0.041 0.0799-0.0133 0.15934-0.0289 0.23828-0.0469l21.41-2.0859c0.40593 0.0209 0.81271-0.0186 1.207-0.11719l13.045-1.2695 1.1914 12.252c0.21878 2.2556 2.2249 3.9067 4.4805 3.6875l16.326-1.5938c2.2524-0.22083 3.9006-2.2238 3.6836-4.4766l-6.3438-65.324c-0.20897-2.1422-2.0378-3.7587-4.1894-3.7031z" color="#000000" color-rendering="auto" dominant-baseline="auto" fill="#aa1414" image-rendering="auto" solid-color="#000000" style="font-feature-settings:normal;font-variant-alternates:normal;font-variant-caps:normal;font-variant-ligatures:normal;font-variant-numeric:normal;font-variant-position:normal;isolation:auto;mix-blend-mode:normal;shape-padding:0;text-decoration-color:#000000;text-decoration-line:none;text-decoration-style:solid;text-indent:0;text-orientation:mixed;text-transform:none;white-space:normal"/><path d="m147.11 210.05c-0.0965 2e-3 -0.19292 7e-3 -0.28906 0.0156l-16.336 1.5918c-2.2556 0.21878-3.9067 2.2249-3.6875 4.4805l1.1894 12.248-16.086 1.5644c-0.41382-0.0227-0.82868 0.0175-1.2305 0.11914l-22.412 2.1777h-0.0098c-0.18434-8e-3 -0.36901-3e-3 -0.55273 0.0137-0.08881 6e-3 -0.1774 0.0153-0.26562 0.0273-0.14127 0.0194-0.28144 0.0461-0.41992 0.0801l-22.223 2.1621c-0.0046-1e-5 -0.0091-1e-5 -0.01367 0-0.32758-0.0177-0.65609 4e-3 -0.97852 0.0644-0.09899 0.0159-0.19736 0.0355-0.29492 0.0586l-22.361 2.1758c-0.38407-0.0172-0.76869 0.01962-1.1425 0.10944l-14.086 1.373c-2.2548 0.2188-3.9055 2.2236-3.6875 4.4785l3.1816 32.666c0.21878 2.2556 2.2249 3.9067 4.4805 3.6875l16.453-1.6035c0.44213 0.0289 0.88603-0.0139 1.3145-0.12695l22.742-2.2129c0.07876 2e-3 0.15757 2e-3 0.23633 0 0.10037-2.3e-4 0.2007-4e-3 0.30078-0.0117 0.08553-6e-3 0.17086-0.0143 0.25586-0.0254 0.0085-1e-3 0.01693-3e-3 0.02539-4e-3 0.0059-6.4e-4 0.01172-1e-3 0.01758-2e-3 0.13668-0.0198 0.27227-0.0466 0.40625-0.0801l23.414-2.2773c0.24388 0.012 0.48834 2e-3 0.73047-0.0293 0.0059 1e-5 0.01172 1e-5 0.01758 0 0.0085-6.2e-4 0.01693-1e-3 0.02539-2e-3 0.07916-0.0114 0.15797-0.0251 0.23633-0.041 0.07987-0.0133 0.15933-0.0289 0.23828-0.0469l21.41-2.0859c0.40593 0.0209 0.81271-0.0186 1.207-0.11719l13.045-1.2695 1.1914 12.252c0.21878 2.2556 2.2249 3.9067 4.4805 3.6875l16.326-1.5938c2.2524-0.22083 3.9006-2.2238 3.6836-4.4766l-6.3438-65.324c-0.20897-2.1422-2.0378-3.7587-4.1894-3.7031zm-3.582 8.582 1.668 17.205c-0.0139 0.3697 0.0222 0.73959 0.10742 1.0996l1.6484 16.898v6e-3c-0.0309 0.44797 0.012 0.89797 0.12695 1.332l2.0039 20.615-8.1582 0.79492-1.1367-11.67c0.0188-0.40083-0.0214-0.80224-0.11914-1.1914l-1.6484-16.887v-0.012l-1.4688-15.148c-4e-3 -0.0235-8e-3 -0.0469-0.0117-0.0703l-1.1816-12.178zm-14.75 17.918h2e-3l1.0742 11.078 1.3027 13.416-11.742 1.1426-11.184-11.264 6.1387-12.971zm-23.926 2.3262-2.7695 5.8555-5.0566-5.0938zm-23.838 2.3184-2.6426 5.2578-4.6641-4.5469zm8.1094 2.1328 9.2246 9.2871-4.3066 9.0977-9.502-9.2539zm-31.703 0.16211-2.8066 5.4492-4.6504-4.7246zm-17.965 1.748 11.203 11.381-6.6445 12.906-10.84 1.0527-2.3867-24.5zm26.164 0.24609 8.8926 8.6621-4.9883 9.9473-8.8555-8.9902zm38.875 13.32 4.377 4.4082-6.7773 0.66015zm-23.816 1.3457 5.418 5.2793-8.4766 0.82227zm-23.963 2.6309 4.9473 5.0254-7.9336 0.77343z" color="#000000" color-rendering="auto" dominant-baseline="auto" image-rendering="auto" opacity=".5" solid-color="#000000" style="font-feature-settings:normal;font-variant-alternates:normal;font-variant-caps:normal;font-variant-ligatures:normal;font-variant-numeric:normal;font-variant-position:normal;isolation:auto;mix-blend-mode:normal;shape-padding:0;text-decoration-color:#000000;text-decoration-line:none;text-decoration-style:solid;text-indent:0;text-orientation:mixed;text-transform:none;white-space:normal"/></g><path d="m488.62 97.735-8.3309 10.13c-0.21622 0.35369-0.4814 0.67658-0.78701 0.95671l-15.397 18.717c-0.0573 0.0918-0.11738 0.18056-0.18137 0.26789-0.19881 0.29233-0.43273 0.55896-0.69548 0.79531l-0.0117 0.0117-15.301 18.598c-0.0799 0.13163-0.16805 0.25854-0.26123 0.38102-0.0575 0.0764-0.11768 0.15195-0.17969 0.22462-0.12708 0.15377-0.2647 0.29701-0.41098 0.43259l-7e-3 7e-3 -15.436 18.757c-0.22882 0.3839-0.51586 0.72987-0.84857 1.0283l-11.076 13.466 4.1796 3.4392 6.8966-8.3858c0.33271-0.29838 0.61975-0.64436 0.84857-1.0283l15.436-18.757 7e-3 -7e-3c0.14628-0.13559 0.2839-0.27882 0.41098-0.4326 0.062-0.0727 0.12223-0.14658 0.17969-0.22296 0.0932-0.12247 0.18131-0.25105 0.26123-0.38267l15.301-18.598 0.0117-0.0116c0.26275-0.23637 0.49667-0.50299 0.69548-0.79532 0.064-0.0873 0.12403-0.17608 0.18137-0.26788l15.397-18.717c0.30561-0.28013 0.57079-0.60301 0.78701-0.95671l9.6986-11.792c1.5532-1.8872 1.2814-4.6761-0.60564-6.2294zm-129.44 68.354-1.3693 1.6655c-1.5502 1.8865-1.2803 4.6715 0.60398 6.2244l13.647 11.234c1.3806-1.6985 2.7613-3.393 4.1397-5.1113zm70.01 31.743-9.8816 12.013c-0.0654 0.0805-0.13539 0.15743-0.20632 0.23294l-2e-3 2e-3c-1.5992 1.6826-4.2269 1.8444-6.0198 0.36938l-13.549-11.156c-130.83 158.19-265.91 228.82-265.91 228.82-0.95153 0.49673-2.0501 0.62974-3.0931 0.37604l-22.094-5.3759c-0.0993-0.0242-0.18776-0.0619-0.28285-0.0915-0.22752 0.1224-0.73709 0.39933-0.73709 0.39933-3.5992 1.9028-2.935 7.2451 1.0199 8.2111l22.094 5.3759c1.043 0.2537 2.1416 0.12069 3.0931-0.37603 0 0 135.08-70.63 265.91-228.82l13.549 11.156c1.7929 1.475 4.4206 1.3133 6.0198-0.36938l2e-3 -2e-3c0.0709-0.0755 0.14096-0.15243 0.20632-0.23294l11.249-13.675c1.5532-1.8872 1.2814-4.6761-0.60564-6.2294z" color="#000000" color-rendering="auto" dominant-baseline="auto" fill="#0e0000" image-rendering="auto" opacity=".3" shape-rendering="auto" solid-color="#000000" style="font-feature-settings:normal;font-variant-alternates:normal;font-variant-caps:normal;font-variant-ligatures:normal;font-variant-numeric:normal;font-variant-position:normal;isolation:auto;mix-blend-mode:normal;shape-padding:0;text-decoration-color:#000000;text-decoration-line:none;text-decoration-style:solid;text-indent:0;text-orientation:mixed;text-transform:none;white-space:normal"/><path d="m306.64 184.26-15.925 1.1334c-17.979 1.2768-28.053 2.0407-34.476 2.9814-1.6061 0.2352-2.9923 0.47149-4.5408 0.87322-1.5485 0.40175-3.1837 0.43209-6.5866 3.1454-1.6489 1.3147-3.9915 3.8746-4.9506 7.7432-9.5217 4.8597-17.758 11.276-24.623 18.799l7.6006-11.771-25.477 0.29405c-14.153 0.16307-26.158 2.5693-37.615 4.4463-0.68848-3.9396-2.8896-7.815-5.0308-9.6821-2.8731-2.5052-5.1528-3.2048-7.1177-3.803-3.9297-1.1965-7.2228-1.4538-11.02-1.7072-7.5953-0.50686-16.672-0.40409-25.753-0.5061-9.0812-0.10196-18.153-0.44118-24.17-1.374-2.2098-0.34257-3.2429-0.71315-4.2592-1.0354l-2.3666-7.1872-11.19 1.4132c-5.2514 0.66325-7.6449 2.9546-9.3756 4.5408-1.7307 1.5862-2.8475 3.0204-3.8992 4.457-2.1035 2.8732-3.809 5.8089-5.4674 8.6841s-3.2233 5.6627-4.4624 7.6594c-1.239 1.9967-2.9159 3.3897-0.99441 1.8462l-0.97302 0.78056-0.8162 0.94629c-17.196 19.918-15.282 50.851 6.1126 65.677l0.14791 0.10154 0.14791 0.098c20.396 13.36 44.34 12.219 61.71 14.519 8.6851 1.1497 15.514 3.0041 19.345 5.3872 3.513 2.1858 5.3722 4.2311 6.5545 10.047-0.3437 0.87996-1.5223 1.9374-5.8435 4.0739-5.9004 2.9173-15.984 5.5181-27.002 7.1907-22.036 3.3452-46.24 3.2802-59.704 5.275l-17.217 2.552 6.5385 16.13c6.9945 17.253 22.392 27.897 39.076 32.748 16.684 4.8509 35.293 4.9389 53.714 2.347 18.421-2.5919 36.639-7.96 52.324-15.164s28.989-15.812 37.338-27.843l0.20672-0.29938 0.19247-0.3083c0.0586-0.0948 0.067-0.17165 0.12296-0.26554 6.4985 7.1294 14.091 13.483 22.355 19.01l7.328 23.671c11.531-0.7705 25.922-1.9053 40.475-5.4514 1.6953 5.4374 3.391 10.875 5.0861 16.311l4.3144 13.84 13.569-5.1021c12.411-4.6671 21.652-7.9682 33.559-12.991l3.8707-1.6324 2.2882-3.525c0.84946-1.3085 1.3896-2.4739 1.7732-3.5464 0.128 0.14385 0.15055 0.2567 0.28692 0.40274 2.9055 3.1118 7.4682 4.4287 10.12 4.4695 2.6523 0.0408 4.0692-0.46968 5.1253-0.82688 2.1122-0.71442 2.9472-1.2599 3.9046-1.7821l0.24236-0.13366 0.23701-0.14078c23.809-14.262 46.333-20.83 83.455-1.6876l2.9511 1.5219h3.3218c5.5804 0 8.8441-2.8409 10.459-4.5033 1.615-1.6625 2.3016-2.8986 2.9173-4.0222 1.2315-2.2471 1.9272-4.1646 2.7052-6.4725 1.5559-4.616 3.1196-10.569 4.9578-18.455 1.5338-6.5806 2.8998-11.373 3.7032-16.279 0.40168-2.4534 0.74457-5.0054 0.33147-8.3491-0.41309-3.3437-2.1325-7.8368-5.2821-10.915-6.2992-6.157-12.216-5.8016-17.577-6.0448-5.3604-0.24323-11.532-0.0733-19.943-0.0819h-0.0207c-6.6901 3e-3 -14.914 0.42747-23.775 1.7233 7.5639-30.892 14.48-63.148 5.7864-103.19l-3e-3 -0.0161c-0.50154-2.8957-1.2747-5.4686-2.7783-8.2422-0.75324-1.3894-1.6466-2.862-3.4376-4.5835-1.7906-1.7211-5.0002-4.2492-10.324-4.2752h-3e-3c-3.0048-0.0145-2.9394 0.28192-3.4572 0.40098-0.51818 0.11913-0.88318 0.22061-1.2635 0.32791-0.76065 0.21457-1.5319 0.45248-2.445 0.74312-1.8262 0.58129-4.1543 1.3588-6.886 2.29-5.4633 1.8624-12.494 4.329-19.525 6.8379-7.0308 2.5089-14.045 5.0539-19.475 7.0785-2.7148 1.0123-5.023 1.8892-6.8183 2.6001-0.89764 0.35542-1.6558 0.6639-2.3809 0.97836-0.36253 0.15724-0.70809 0.30873-1.169 0.53464-0.46096 0.2259-0.6657 0.0941-2.6642 1.6431l-7.0104 5.4336 0.34395 1.4114c-7.0301-7.6437-15.432-14.26-25.201-19.202zm-45.265 8.4614c0.14761 0.0872 0.56023 0.16566 1.2261 0.69501-0.39848-0.19169-0.93226-0.52141-1.2261-0.69501zm150.15 22.281c-0.0751 0.0333-0.17026 0.0939-0.5168 0.15861 0.15614-0.0471 0.42639-0.13272 0.5168-0.15861zm-208.38 21.478c-5.8224 10.9-9.417 23.055-10.365 35.834-6.0212-4.8819-13.171-8.7253-21.15-11.19-1.6369-0.50561-3.1432-0.69558-4.7083-1.0318 13.385-5.4057 26.453-12.728 36.223-23.613zm73.292 6.0359c6.6549 10.067 10.284 18.744 12.608 35.574 0.85998 13.749-0.93393 23.982-5.7401 34.736-4.8291-0.8146-9.0638-1.0092-13.132-1.0158-2.9567-9.2116-4.5526-19.447-4.58-30.648 0.12655-11.099 3.9817-25.674 10.844-38.646zm84.008 61.842c0.0609 6.8525-0.77346 14.165-2.9743 22.501l-0.12832 0.48829-0.0926 0.4972c-0.82968 4.4505-1.3466 5.5848-2.5359 7.1426-1.1894 1.5579-4.0423 4.134-10.29 8.1673l-7.4135 4.7849c-0.0345-0.0472-0.0583-0.0795-0.0926-0.12653 7.2306-7.7658 13.078-15.204 17.358-23.951 2.9455-6.0204 4.9379-12.454 6.1696-19.503zm-101.12 45.876c0.0163 0.0252 0.046 0.0462 0.0625 0.0712 0.17526 0.23793 0.32153 0.49607 0.49897 0.73244zm98.371 18.366c0.11039 3e-3 0.49718 0.0228 0.58809 0.0268 0.64728 0.0277 0.37394 0.25325-0.58809-0.0268z" color="#000000" color-rendering="auto" dominant-baseline="auto" fill="#fff" image-rendering="auto" opacity=".2" shape-rendering="auto" solid-color="#000000" stroke="#000" stroke-width="9.1243" style="font-feature-settings:normal;font-variant-alternates:normal;font-variant-caps:normal;font-variant-ligatures:normal;font-variant-numeric:normal;font-variant-position:normal;isolation:auto;mix-blend-mode:normal;shape-padding:0;text-decoration-color:#000000;text-decoration-line:none;text-decoration-style:solid;text-indent:0;text-orientation:mixed;text-transform:none;white-space:normal"/><g transform="matrix(.76277 .76277 .76277 -.76277 -179.53 266.6)" shape-rendering="auto"><path d="m147.11 210.05c-0.0967 3e-3 -0.1934 7e-3 -0.28975 0.017l-16.337 1.5908c-2.2552 0.21896-3.9059 2.2245-3.6872 4.4797l1.1902 12.249-16.087 1.5652c-0.41368-0.0225-0.82838 0.0176-1.23 0.11926l-22.413 2.1759h-0.0087c-0.18476-7e-3 -0.36983-3e-3 -0.55393 0.0145-0.08828 7e-3 -0.17645 0.016-0.26418 0.0284-0.14137 0.0192-0.28176 0.0457-0.42043 0.0796l-22.222 2.1617c-0.0044-2e-5 -0.01018-2e-5 -0.01454 0-0.32717-0.0173-0.65523 4e-3 -0.97718 0.0653-0.09919 0.0153-0.19768 0.0343-0.29544 0.0569l-22.362 2.1759c-0.38395-0.0167-0.76835 0.0207-1.1419 0.11082l-14.087 1.372c-2.2552 0.21896-3.9059 2.2245-3.6872 4.4797l3.1815 32.665c0.21896 2.2552 2.2245 3.9059 4.4797 3.6872l16.453-1.6021c0.44243 0.0286 0.88661-0.0146 1.3152-0.12784l22.742-2.2129c0.07854 3e-3 0.15719 3e-3 0.23578 0 0.1005-1.9e-4 0.20091-4e-3 0.30111-0.0116 0.08552-6e-3 0.17072-0.0145 0.25566-0.0256 0.0087-9.4e-4 0.01702-1e-3 0.0256-3e-3 0.0058-9.6e-4 0.01163-1e-3 0.01702-3e-3 0.13672-0.0196 0.27224-0.0462 0.40622-0.0796l23.416-2.2782c0.2437 0.0116 0.48803 3e-3 0.73004-0.0284 0.0058 1e-5 0.01164 1e-5 0.01702 0 0.0087-9.5e-4 0.01702-1e-3 0.0256-3e-3 0.07897-0.0116 0.15759-0.0241 0.23578-0.0397 0.07999-0.0131 0.15956-0.0298 0.23861-0.0483l21.41-2.085c0.40597 0.0212 0.81284-0.018 1.2073-0.1165l13.044-1.2698 1.1931 12.252c0.21897 2.2552 2.2245 3.9059 4.4797 3.6872l16.325-1.5936c2.2528-0.22044 3.9015-2.2237 3.6843-4.4769l-2.0623-21.257c190.27-20.89 330.1 22.276 330.1 22.276 3.6066 1.112 6.6748-2.8249 4.7155-6.0506l-10.959-18.007c-0.51737-0.84997-1.326-1.483-2.2754-1.7811 0 0-134.84-42.248-324.3-24.31l-1.568-16.195c-0.20843-2.1428-2.0378-3.7601-4.19-3.7042z" color="#000000" color-rendering="auto" dominant-baseline="auto" fill="#fff" image-rendering="auto" solid-color="#000000" style="font-feature-settings:normal;font-variant-alternates:normal;font-variant-caps:normal;font-variant-ligatures:normal;font-variant-numeric:normal;font-variant-position:normal;isolation:auto;mix-blend-mode:normal;shape-padding:0;text-decoration-color:#000000;text-decoration-line:none;text-decoration-style:solid;text-indent:0;text-orientation:mixed;text-transform:none;white-space:normal"/><path d="m147.11 210.05c-0.0965 2e-3 -0.19292 7e-3 -0.28906 0.0156l-16.336 1.5918c-2.2556 0.21878-3.9067 2.2249-3.6875 4.4805l1.1894 12.248-16.086 1.5644c-0.41382-0.0227-0.82868 0.0175-1.2305 0.11914l-22.412 2.1777h-0.01c-0.18435-8e-3 -0.36901-3e-3 -0.55274 0.0137-0.0888 6e-3 -0.1774 0.0153-0.26562 0.0273-0.14127 0.0194-0.28144 0.0461-0.41993 0.0801l-22.223 2.1621c-5e-3 -1e-5 -9e-3 -1e-5 -0.0137 0-0.32758-0.0177-0.6561 4e-3 -0.97852 0.0644-0.099 0.0159-0.19736 0.0355-0.29492 0.0586l-22.361 2.1758c-0.38407-0.0172-0.76869 0.0196-1.1425 0.10944l-14.086 1.373c-2.2548 0.2188-3.9055 2.2236-3.6875 4.4785l3.1816 32.666c0.21878 2.2556 2.2249 3.9067 4.4805 3.6875l16.453-1.6035c0.44214 0.0289 0.88603-0.0139 1.3145-0.12695l22.742-2.2129c0.0788 2e-3 0.15757 2e-3 0.23633 0 0.10037-2.3e-4 0.2007-4e-3 0.30078-0.0117 0.0855-6e-3 0.17086-0.0143 0.25586-0.0254 8e-3 -1e-3 0.0169-3e-3 0.0254-4e-3 6e-3 -6.4e-4 0.0117-1e-3 0.0176-2e-3 0.13668-0.0198 0.27227-0.0466 0.40625-0.0801l23.414-2.2773c0.24387 0.012 0.48833 2e-3 0.73046-0.0293 6e-3 1e-5 0.0117 1e-5 0.0176 0 8e-3 -6.2e-4 0.0169-1e-3 0.0254-2e-3 0.0792-0.0114 0.15797-0.0251 0.23633-0.041 0.0799-0.0133 0.15934-0.0289 0.23828-0.0469l21.41-2.0859c0.40593 0.0209 0.81271-0.0186 1.207-0.11719l13.045-1.2695 1.1914 12.252c0.21878 2.2556 2.2249 3.9067 4.4805 3.6875l16.326-1.5938c2.2524-0.22083 3.9006-2.2238 3.6836-4.4766l-6.3438-65.324c-0.20897-2.1422-2.0378-3.7587-4.1894-3.7031z" color="#000000" color-rendering="auto" dominant-baseline="auto" fill="#aa1414" image-rendering="auto" solid-color="#000000" style="font-feature-settings:normal;font-variant-alternates:normal;font-variant-caps:normal;font-variant-ligatures:normal;font-variant-numeric:normal;font-variant-position:normal;isolation:auto;mix-blend-mode:normal;shape-padding:0;text-decoration-color:#000000;text-decoration-line:none;text-decoration-style:solid;text-indent:0;text-orientation:mixed;text-transform:none;white-space:normal"/><path d="m147.11 210.05c-0.0965 2e-3 -0.19292 7e-3 -0.28906 0.0156l-16.336 1.5918c-2.2556 0.21878-3.9067 2.2249-3.6875 4.4805l1.1894 12.248-16.086 1.5644c-0.41382-0.0227-0.82868 0.0175-1.2305 0.11914l-22.412 2.1777h-0.0098c-0.18434-8e-3 -0.36901-3e-3 -0.55273 0.0137-0.08881 6e-3 -0.1774 0.0153-0.26562 0.0273-0.14127 0.0194-0.28144 0.0461-0.41992 0.0801l-22.223 2.1621c-0.0046-1e-5 -0.0091-1e-5 -0.01367 0-0.32758-0.0177-0.65609 4e-3 -0.97852 0.0644-0.09899 0.0159-0.19736 0.0355-0.29492 0.0586l-22.361 2.1758c-0.38407-0.0172-0.76869 0.01962-1.1425 0.10944l-14.086 1.373c-2.2548 0.2188-3.9055 2.2236-3.6875 4.4785l3.1816 32.666c0.21878 2.2556 2.2249 3.9067 4.4805 3.6875l16.453-1.6035c0.44213 0.0289 0.88603-0.0139 1.3145-0.12695l22.742-2.2129c0.07876 2e-3 0.15757 2e-3 0.23633 0 0.10037-2.3e-4 0.2007-4e-3 0.30078-0.0117 0.08553-6e-3 0.17086-0.0143 0.25586-0.0254 0.0085-1e-3 0.01693-3e-3 0.02539-4e-3 0.0059-6.4e-4 0.01172-1e-3 0.01758-2e-3 0.13668-0.0198 0.27227-0.0466 0.40625-0.0801l23.414-2.2773c0.24388 0.012 0.48834 2e-3 0.73047-0.0293 0.0059 1e-5 0.01172 1e-5 0.01758 0 0.0085-6.2e-4 0.01693-1e-3 0.02539-2e-3 0.07916-0.0114 0.15797-0.0251 0.23633-0.041 0.07987-0.0133 0.15933-0.0289 0.23828-0.0469l21.41-2.0859c0.40593 0.0209 0.81271-0.0186 1.207-0.11719l13.045-1.2695 1.1914 12.252c0.21878 2.2556 2.2249 3.9067 4.4805 3.6875l16.326-1.5938c2.2524-0.22083 3.9006-2.2238 3.6836-4.4766l-6.3438-65.324c-0.20897-2.1422-2.0378-3.7587-4.1894-3.7031zm-3.582 8.582 1.668 17.205c-0.0139 0.3697 0.0222 0.73959 0.10742 1.0996l1.6484 16.898v6e-3c-0.0309 0.44797 0.012 0.89797 0.12695 1.332l2.0039 20.615-8.1582 0.79492-1.1367-11.67c0.0188-0.40083-0.0214-0.80224-0.11914-1.1914l-1.6484-16.887v-0.012l-1.4688-15.148c-4e-3 -0.0235-8e-3 -0.0469-0.0117-0.0703l-1.1816-12.178zm-14.75 17.918h2e-3l1.0742 11.078 1.3027 13.416-11.742 1.1426-11.184-11.264 6.1387-12.971zm-23.926 2.3262-2.7695 5.8555-5.0566-5.0938zm-23.838 2.3184-2.6426 5.2578-4.6641-4.5469zm8.1094 2.1328 9.2246 9.2871-4.3066 9.0977-9.502-9.2539zm-31.703 0.16211-2.8066 5.4492-4.6504-4.7246zm-17.965 1.748 11.203 11.381-6.6445 12.906-10.84 1.0527-2.3867-24.5zm26.164 0.24609 8.8926 8.6621-4.9883 9.9473-8.8555-8.9902zm38.875 13.32 4.377 4.4082-6.7773 0.66015zm-23.816 1.3457 5.418 5.2793-8.4766 0.82227zm-23.963 2.6309 4.9473 5.0254-7.9336 0.77343z" color="#000000" color-rendering="auto" dominant-baseline="auto" image-rendering="auto" opacity=".5" solid-color="#000000" style="font-feature-settings:normal;font-variant-alternates:normal;font-variant-caps:normal;font-variant-ligatures:normal;font-variant-numeric:normal;font-variant-position:normal;isolation:auto;mix-blend-mode:normal;shape-padding:0;text-decoration-color:#000000;text-decoration-line:none;text-decoration-style:solid;text-indent:0;text-orientation:mixed;text-transform:none;white-space:normal"/></g><g><path d="m23.376 97.735-0.76204 0.62727c-1.887 1.5533-2.1588 4.3422-0.60564 6.2294l9.6986 11.792c0.21622 0.3537 0.48139 0.67659 0.787 0.95671l15.397 18.717c0.05732 0.0918 0.11738 0.18056 0.18136 0.26788 0.19882 0.29234 0.43274 0.55896 0.69549 0.79532 0.0033 3e-3 0.0082 8e-3 0.01165 0.0116l15.302 18.598c0.07991 0.13162 0.16637 0.25854 0.25956 0.38101 0.05746 0.0764 0.1177 0.15195 0.1797 0.22462 0.12708 0.15378 0.26471 0.29702 0.41097 0.4326l0.0067 7e-3 15.436 18.757c0.22881 0.3839 0.51586 0.72988 0.84856 1.0283l6.8966 8.3858 4.1796-3.4392-11.076-13.466c-0.3327-0.29839-0.61975-0.64436-0.84856-1.0283l-15.436-18.757-0.0067-7e-3c-0.14626-0.13556-0.28389-0.27882-0.41097-0.43259-0.062-0.0727-0.12224-0.14825-0.1797-0.22462-0.09319-0.12248-0.18131-0.24939-0.26122-0.38102l-15.301-18.598c-0.0034-3e-3 -0.0083-8e-3 -0.01165-0.0117-0.26275-0.23631-0.49667-0.50294-0.69549-0.79526-0.06399-0.0873-0.12404-0.17609-0.18136-0.26789l-15.397-18.717c-0.30561-0.28014-0.57078-0.60301-0.787-0.95671zm129.44 68.354-17.021 14.013c1.3784 1.7184 2.7591 3.4128 4.1396 5.1113l13.647-11.234c1.8842-1.553 2.1542-4.3379 0.60397-6.2244zm-70.01 31.743-0.76204 0.62728c-1.887 1.5533-2.1572 4.3422-0.60398 6.2294l11.248 13.675c0.06586 0.0811 0.13651 0.15687 0.20798 0.23294 1.5991 1.6834 4.2267 1.8463 6.0198 0.37104l13.549-11.156c130.83 158.19 265.91 228.82 265.91 228.82 0.95154 0.49672 2.0501 0.62973 3.0931 0.37603l22.094-5.3759c3.955-0.96601 4.6175-6.3083 1.0183-8.2111 0 0-0.50833-0.27716-0.73543-0.39933-0.0951 0.0296-0.18359 0.0673-0.28286 0.0915l-22.094 5.3759c-1.043 0.2537-2.1416 0.12069-3.0931-0.37604 0 0-135.08-70.63-265.91-228.82l-13.549 11.156c-1.7931 1.4752-4.4207 1.314-6.0198-0.36938-0.07147-0.0761-0.14212-0.15349-0.20798-0.23461z" color="#000000" color-rendering="auto" dominant-baseline="auto" image-rendering="auto" opacity=".3" shape-rendering="auto" solid-color="#000000" style="font-feature-settings:normal;font-variant-alternates:normal;font-variant-caps:normal;font-variant-ligatures:normal;font-variant-numeric:normal;font-variant-position:normal;isolation:auto;mix-blend-mode:normal;shape-padding:0;text-decoration-color:#000000;text-decoration-line:none;text-decoration-style:solid;text-indent:0;text-orientation:mixed;text-transform:none;white-space:normal"/><path d="m307.62 197.91-15.925 1.1334c-35.867 2.5471-40.948 3.2893-37.274 5.4603 3.0776 1.8184 2.2987 2.5912-7.7414 7.6594-29.46 14.871-44.75 45.822-39.475 79.902 4.3824 25.341 28.556 52.15 57.745 64.781-6.4197 3.7934-12.838 7.5888-19.257 11.382 14.906-0.99599 33.899-2.7085 50.428-8.7821 3.037 9.7407 6.0748 19.484 9.1118 29.224 12.512-4.7054 21.51-7.9187 33.056-12.79 1.2662-1.9504-15.453-24.546-19.222-29.303 21.663-21.663 29.716-33.477 29.251-64.433-0.35572-28.658-20.556-65.541-56.05-75.89 5.1173-2.7805 10.235-5.5632 15.353-8.3438zm101.22 3.6782c-1.8908-0.01-56 19.299-57.636 20.567 9.0792 37.323 31.388 63.203 19.509 108.2-2.0206 10.839-5.3245 15.565-18.856 24.301 11.753 0.96621 13.519-2.2144 10.372 13.029-1.0218 3.692-0.76496 3.9681 2.1973 2.3524 26.116-15.644 56.037-23.11 96.76-2.11 1.5966 0 4.135-7.5325 7.7111-22.875 6.3549-27.265 8.8376-24.841-25.454-24.876-11.378 4e-3 -27.204 1.1227-42.326 6.4761 8.924-38.768 21.014-73.249 10.848-119.3-0.54643-3.1628-1.9516-5.756-3.124-5.7615zm-337.98 0.0125c-4.4933 0.5675-12.662 20.519-17.343 24.279-12.635 14.634-11.016 35.391 3.5481 45.484 30.751 20.142 87.28-0.64324 93.961 40.706-0.53728 30.011-83.712 27.711-104.39 30.775 20.772 51.237 134.92 23.444 158.52-10.573 0.61003-0.98705-1.0462-4.0442-3.68-6.7933-3.4469-3.5978-4.4578-6.0392-3.6087-8.7144 0.64879-2.0442 0.25247-8.189-0.88213-13.654-2.9163-14.048-12.825-23.796-29.387-28.911-10.216-3.1554-16.263-1.4601-38.6-3.4929l-27.499-2.502c-3.2863-3.8205-5.1509-3.7927-7.0927-8.3134 0-0.9398 7.966-1.6716 18.208-1.6716 22.892-0.12261 68.782-11.631 85.212-37.076-27.668 0.31878-52.92 13.437-84.842 2.4432 10.116-4.0485 22.532-6.5072 33.639-9.634 1.2421-8.7004-71.042 1.9882-75.762-12.352zm205.28 16.962c14.6 19.882 22.881 30.932 26.564 58.235 1.0686 16.191-1.2378 29.567-7.3814 42.82-4.234 9.1332-4.3095 9.189-10.128 7.5204-7.3489-2.0172-15.382-1.5785-23.01-1.6823 7.0902 5.6044 12.499 9.5543 18.701 15.608 0.17569 5.5028-5.5009 8.8146-10.047 1.7571-12.393-16.508-18.886-37.682-18.928-61.721 0.19492-19.493 8.523-44.442 24.229-62.537z" fill="url(#a)" stroke="#fff" stroke-width="27.373"/><g stroke-width="1.7694"><path d="m307.62 197.91-15.925 1.1334c-35.867 2.5471-40.948 3.2893-37.274 5.4603 3.0776 1.8185 2.2987 2.5912-7.7414 7.6594-29.46 14.871-44.75 45.822-39.475 79.902 4.3824 25.341 28.556 52.15 57.745 64.781-6.4197 3.7934-12.838 7.5888-19.257 11.382 14.906-0.99599 33.899-2.7085 50.428-8.7822 3.037 9.7408 6.0748 19.484 9.1118 29.224 12.512-4.7054 21.51-7.9187 33.056-12.79 1.2662-1.9504-15.453-24.546-19.222-29.303 21.663-21.663 29.716-33.476 29.251-64.433-0.35572-28.658-20.556-65.541-56.05-75.89 5.1173-2.7805 10.235-5.5632 15.353-8.3437zm101.22 3.6782c-1.8908-0.01-56 19.299-57.636 20.567 9.0792 37.323 31.388 63.203 19.509 108.2-2.0206 10.839-5.3245 15.565-18.856 24.301 11.753 0.96622 13.519-2.2144 10.372 13.029-1.0218 3.692-0.76495 3.9681 2.1973 2.3524 26.116-15.644 56.037-23.11 96.76-2.11 1.5966 0 4.135-7.5325 7.7111-22.875 6.3549-27.265 8.8376-24.841-25.454-24.876-11.378 4e-3 -27.204 1.1227-42.326 6.4761 8.924-38.768 21.014-73.249 10.848-119.3-0.54642-3.1628-1.9516-5.756-3.124-5.7615zm-337.98 0.0125c-4.4933 0.56751-12.662 20.519-17.343 24.279-12.635 14.634-11.016 35.391 3.5481 45.484 30.751 20.142 87.28-0.64324 93.961 40.706-0.53728 30.011-83.712 27.711-104.39 30.775 20.772 51.237 134.92 23.444 158.52-10.573 0.61003-0.98705-1.0462-4.0442-3.68-6.7933-3.4469-3.5978-4.4578-6.0392-3.6087-8.7144 0.6488-2.0442 0.25248-8.189-0.88213-13.654-2.9163-14.048-12.825-23.796-29.387-28.911-10.216-3.1554-16.263-1.4601-38.6-3.4929l-27.499-2.5021c-3.2863-3.8205-5.1509-3.7927-7.0927-8.3134 0-0.9398 7.966-1.6716 18.208-1.6716 22.892-0.12262 68.782-11.631 85.212-37.076-27.668 0.31878-52.92 13.437-84.842 2.4432 10.116-4.0485 22.532-6.5072 33.639-9.634 1.2421-8.7004-71.042 1.9882-75.762-12.352zm205.28 16.962c14.6 19.882 22.881 30.932 26.564 58.235 1.0686 16.191-1.2378 29.567-7.3814 42.82-4.234 9.1332-4.3095 9.189-10.128 7.5204-7.3489-2.0172-15.382-1.5785-23.01-1.6823 7.0901 5.6044 12.499 9.5543 18.701 15.608 0.17569 5.5028-5.5009 8.8146-10.047 1.7571-12.393-16.508-18.886-37.682-18.928-61.721 0.19492-19.493 8.523-44.442 24.229-62.537z" fill="#2b62c0"/><path d="m307.62 197.91-15.923 1.1334c-35.867 2.5471-40.948 3.2893-37.274 5.4603 3.0776 1.8185 2.2969 2.5912-7.7432 7.6594-26.957 13.608-42.038 40.68-40.366 71.292 1.4871-26.799 16.122-49.932 40.366-62.17 10.04-5.0682 10.821-5.841 7.7432-7.6594-3.6743-2.171 1.4067-2.9133 37.274-5.4603l5.1823-0.36888c-1.5103-0.55883-3.0397-1.0854-4.6103-1.5433 5.1173-2.7805 10.234-5.5632 15.351-8.3437zm101.22 3.6764c-1.8908-0.01-55.999 19.301-57.635 20.569 0.67475 2.7738 1.428 5.4771 2.2294 8.137 10.279-4.1521 53.712-19.59 55.405-19.582 1.1723 5e-3 2.5794 2.5987 3.1258 5.7615 2.3822 10.79 3.5289 20.94 3.7941 30.664 0.35439-12.473-0.657-25.577-3.7941-39.787-0.54643-3.1628-1.9534-5.7578-3.1258-5.7633zm-337.98 0.0143c-4.4934 0.56751-12.66 20.519-17.342 24.279-6.8724 7.9601-9.5184 17.729-8.1673 26.61 0.90269-6.1002 3.5978-12.193 8.1673-17.486 4.6814-3.7603 12.848-23.712 17.342-24.279 3.058 9.2899 34.406 8.0854 55.815 8.4435 6.6228-1.8061 13.503-3.4014 19.949-5.2162 1.2421-8.7004-71.043 1.9882-75.764-12.352zm231.31 8.3936c-3.3009 1.7944-6.6019 3.59-9.9031 5.3837 34.709 10.12 54.78 45.607 55.984 73.971 0.0785-2.2887 0.1039-4.6767 0.066-7.205-0.32117-25.874-16.823-58.447-46.147-72.15zm-104.34 11.149c-22.595 0.26033-43.582 9.0491-67.903 6.2783-5.927 1.548-11.737 3.2076-16.939 5.2892 28.752 9.902 52.094 0.24553 76.664-2.0031 3.1742-2.9403 5.9536-6.1197 8.178-9.5645zm-96.773 46.578c-4.0532 0.30373-6.6472 0.76324-6.6472 1.2938 1.9418 4.5207 3.8065 4.4929 7.0927 8.3134l27.499 2.502c22.337 2.0328 28.384 0.33751 38.6 3.4929 16.561 5.1153 26.469 14.863 29.385 28.911 0.33639 1.6204 0.59776 3.2908 0.79659 4.9061 0.0317-0.12557 0.0471-0.24953 0.0873-0.37601 0.6488-2.0442 0.2507-8.189-0.88391-13.654-2.9163-14.048-12.824-23.796-29.385-28.911-10.216-3.1554-16.263-1.4601-38.6-3.4929l-27.499-2.5021c-0.15644-0.18187-0.29535-0.3176-0.44552-0.48294zm150.99 18.785c-0.0755 1.2579-0.11969 2.4991-0.13188 3.7174 0.0414 24.039 6.5368 45.213 18.929 61.721 4.5465 7.0574 10.221 3.7457 10.046-1.7571-1.2588-1.2285-2.4821-2.3564-3.696-3.443-1.8975 0.37085-4.2416-0.652-6.3496-3.9242-0.8038-1.0708-1.5805-2.1642-2.3345-3.2737-1.9992-1.5727-4.0581-3.1793-6.3193-4.9667 1.0603 0.0145 2.1401 0.0109 3.2131 0.0125-8.0401-13.735-12.579-30.027-13.357-48.086zm50.809 2.1724c-0.50884 11.122-2.9526 21.066-7.5293 30.939-4.234 9.1332-4.3077 9.189-10.126 7.5204-7.3489-2.0172-15.382-1.5785-23.01-1.6823 4.318 3.4132 8.0096 6.2144 11.639 9.249 3.8707 0.15625 7.7061 0.55144 11.372 1.5576 5.8181 1.6686 5.8918 1.6128 10.126-7.5204 5.7911-12.492 8.1701-25.098 7.5293-40.063zm71.139 21.055c-0.32434 6.4543-1.3396 13.278-3.2773 20.617-2.0206 10.839-5.3245 15.565-18.856 24.301 5.7803 0.4752 9.14-0.0493 10.693 1.1049 4.9426-4.701 6.8397-9.1808 8.1638-16.283 2.8757-10.891 3.7356-20.655 3.2773-29.74zm-223.88 7.2495c-9.1013 24.843-83.999 22.976-103.48 25.862 1.2792 3.1554 2.9153 6.0078 4.8598 8.5808 26.401-2.3576 99.033-2.1881 99.535-30.231-0.23992-1.485-0.551-2.8816-0.916-4.2111zm304.53 3.1472c-3.2015 0.01-6.9122 0.0454-11.199 0.041-10.788 4e-3 -25.572 1.0161-39.965 5.6831-0.79874 3.2832-1.5914 6.579-2.3595 9.9156 15.122-5.3534 30.946-6.4716 42.325-6.4761 18.348 0.019 26.162-0.66104 28.494 2.8745 2.4043-11.39 0.0643-12.09-17.295-12.038zm-256.52 0.75918c0.11581 2.219 0.048 4.0557-0.25129 4.9988-0.84908 2.6752 0.16185 5.1166 3.6087 8.7144 0.34488 0.35999 0.66989 0.72366 0.97837 1.0889 0.99604-1.1312 1.9048-2.2716 2.7016-3.4198 0.61003-0.98705-1.0462-4.0442-3.68-6.7933-1.6767-1.7501-2.7673-3.226-3.3574-4.5889zm124.86 30.848c-1.2516 1.287-2.5545 2.6062-3.9117 3.9634 2.4949 3.1497 10.646 14.097 15.517 21.717 1.2127-0.49842 2.4389-1.0038 3.705-1.538 0.99794-1.5373-9.1094-15.797-15.31-24.142zm-66.481 10.103c-3.6015 2.129-7.2027 4.2586-10.805 6.387 5.5979-0.37406 11.772-0.8507 18.176-1.6199 0.36065-0.21313 0.72105-0.42665 1.0817-0.63977-2.8713-1.2425-5.6922-2.6253-8.4525-4.1273zm106.26 3.2149c-0.15604 0.80827-0.33072 1.6807-0.5257 2.625-0.88171 3.1858-0.80203 3.8176 1.137 2.8959 0.42338-3.0513 0.27829-4.6745-0.61126-5.5209z" fill="#fff" opacity=".1"/><path d="m307.62 197.91-10.741 0.76451c1.8058 0.66818 3.5744 1.3944 5.2928 2.1973 1.8159-0.98714 3.6318-1.9751 5.4478-2.9618zm-31.481 11.53c-15.706 18.095-24.034 43.044-24.229 62.537 3e-3 1.821 0.0549 3.6195 0.13188 5.4069 1.1331-18.869 9.3728-41.856 24.097-58.82 14.6 19.882 22.881 30.932 26.564 58.235 0.0613 0.92905 0.1089 1.8459 0.14791 2.7569 0.17421-3.808 0.12463-7.7518-0.14791-11.881-3.6826-27.304-11.964-38.353-26.564-58.235zm-149.46 0.60591c-4.7879 1.3057-9.4452 2.7191-13.69 4.4178 5.8527 2.0156 11.479 3.213 16.939 3.8351 5.6-1.4626 11.304-2.8257 16.7-4.3447 0.43742-3.064-8.3108-3.7134-19.949-3.9081zm71.152 11.099c-2.747 0.0317-5.4697 0.19231-8.178 0.44017-20.272 18.778-57.243 27.406-77.036 27.512-10.242 0-18.206 0.73179-18.206 1.6716 1.8493 4.3055 3.643 4.5227 6.6472 7.8305 3.1265-0.2343 7.0988-0.37781 11.559-0.37781 22.892-0.12261 68.783-11.631 85.214-37.076zm155.6 0.0249c-1.2029 0.48593-2.058 0.85444-2.2294 0.98727 6.8815 28.289 21.351 50.009 22.786 78.455 1.5163-30.176-12.333-52.149-20.556-79.442zm62.325 16.844c-0.79407 27.947-8.4714 52.705-14.642 79.51 0.78454-0.27773 1.5719-0.53586 2.3595-0.79124 6.3072-25.925 13.051-50.516 12.282-78.718zm-370.41 5.3534c-1.5933 10.767 2.4186 21.556 11.715 27.998 29.646 19.418 83.246 0.80512 93.045 36.495 0.56235-1.535 0.88473-3.1668 0.916-4.9132-6.6805-41.35-63.21-20.565-93.961-40.706-6.6423-4.6031-10.583-11.427-11.715-18.874zm160.96 30.966c-0.31998 5.7662-0.0429 11.697 0.89105 17.732 3.9512 22.848 23.992 46.886 49.291 60.653 2.8179-1.6658 5.6359-3.3316 8.4542-4.997-29.189-12.631-53.363-39.44-57.745-64.781-0.44817-2.8954-0.73583-5.7652-0.89105-8.6075zm141.94 5.8934c-0.8826 25.734-9.2936 37.335-29.187 57.228 0.79827 1.0078 2.2452 2.9181 3.9117 5.1609 18.726-19.255 25.777-31.454 25.341-60.472-9e-3 -0.63398-0.0387-1.2759-0.066-1.9175zm-150.47 27.792c-0.31332 1.2386-0.22715 2.4431 0.3386 3.7495-0.0607-1.165-0.17619-2.43-0.3386-3.7495zm274.15 15.028c-0.6996 3.3142-1.7851 7.502-3.0385 12.879-3.576 15.342-6.1163 22.873-7.7129 22.873-40.723-21-70.643-13.534-96.759 2.11-0.40622 0.22156-0.7522 0.39885-1.0604 0.54532-0.22662 1.6335-0.60454 3.6479-1.137 6.2266-1.0218 3.692-0.76496 3.9681 2.1973 2.3524 26.116-15.644 56.035-23.11 96.759-2.11 1.5966 0 4.1368-7.5307 7.7129-22.873 2.9546-12.676 5.0649-18.931 3.0385-22.003zm-206.54 2.4236c0.98752 1.6869 2.0134 3.3462 3.1062 4.9542 2.9972 2.3578 5.8241 4.6378 8.6841 7.1978 2.195-0.429 3.7903-2.7299 3.696-5.6813-2.4251-2.3668-4.7306-4.4102-7.0606-6.3585-2.8111-0.11346-5.6293-0.10831-8.4257-0.11226zm-62.942 1.0996c-26.695 30.319-122.4 53.53-150.96 15.734-1.8522 0.16539-3.5038 0.34263-4.8598 0.54353 20.772 51.237 134.92 23.444 158.52-10.573 0.53023-0.85792-0.65388-3.2803-2.7016-5.7045zm160.09 20.065c-2.6003 2.4732-6.0276 5.006-10.693 8.0176 6.0506 0.49742 9.4484-0.0976 10.897 1.2813 1.1241-5.8221 1.2037-8.2518-0.20493-9.2989zm-66.429 3.6871c-10.321 3.7926-21.604 5.885-32.252 7.164-6.0588 3.5805-12.116 7.1621-18.176 10.742 14.906-0.99599 33.899-2.7085 50.428-8.7821 3.037 9.7407 6.0766 19.484 9.1136 29.224 12.512-4.7054 21.508-7.917 33.054-12.788 0.42787-0.65911-1.2189-3.6973-3.705-7.5864-9.8472 4.0472-18.209 7.0609-29.349 11.25-3.037-9.7407-6.0766-19.484-9.1136-29.224z" opacity=".5"/></g></g></svg>
