<svg width="512" height="512" version="1.1" viewBox="0 0 384 384" xmlns="http://www.w3.org/2000/svg"><defs><clipPath><rect width="384" height="384"/></clipPath><clipPath><rect width="384" height="384"/></clipPath><clipPath><rect width="384" height="384"/></clipPath><clipPath><rect width="384" height="384"/></clipPath><clipPath><rect width="384" height="384"/></clipPath></defs><g><path d="m360 192.01c0-92.781-75.215-168-167.99-168-92.781 0-168 75.215-168 168 0 92.777 75.215 167.99 168 167.99 92.777 0 167.99-75.215 167.99-167.99z" fill="#2b62c0"/><path d="m324 199.51v-8e-3c0-72.898-59.098-131.99-131.99-131.99h-8e-3c-72.898 0-131.99 59.094-131.99 131.99v8e-3c0 72.894 59.094 131.99 131.99 131.99h8e-3c72.894 0 131.99-59.098 131.99-131.99z" fill="#0a0a0a" opacity=".3"/><path d="m324 192.01v-0.00781c0-72.898-59.098-131.99-131.99-131.99h-0.00781c-72.898 0-131.99 59.094-131.99 131.99v8e-3c0 72.894 59.094 131.99 131.99 131.99h8e-3c72.894 0 131.99-59.098 131.99-131.99z" fill="#fff"/><path d="m192 100.51-26.719 32.062c-26.566 10.594-45.273 36.586-45.273 66.934 0 39.762 32.234 71.996 71.996 71.996 39.762 0 71.996-32.234 71.996-71.996 0-30.352-18.703-56.344-45.277-66.934l-26.723-32.066z" fill="#0b0b0b" opacity=".3"/></g><path d="m192 93.008-26.719 32.062c-26.566 10.594-45.273 36.586-45.273 66.934 0 39.762 32.234 71.996 71.996 71.996s71.996-32.234 71.996-71.996c0-30.352-18.703-56.344-45.277-66.934l-26.723-32.066z" fill="#e6e6e6"/><g stroke-width="1.3333"><path transform="scale(.75)" d="m32.078 251.01c-0.036438 1.663-0.0625 3.3283-0.0625 5 0 123.7 100.29 223.99 223.99 223.99 123.7 1e-5 223.99-100.29 223.99-223.99 0-1.6717-0.02606-3.337-0.0625-5-2.66 121.39-101.9 218.99-223.93 218.99-122.04 0-221.27-97.597-223.93-218.99z" opacity=".3"/><path transform="scale(.75)" d="m256.01 32.016c-123.71 0-223.99 100.29-223.99 223.99 0 1.6717 0.026062 3.3371 0.0625 5 2.66-121.4 101.9-218.99 223.93-218.99 122.03 0 221.27 97.596 223.93 218.99 0.03644-1.6629 0.0625-3.3283 0.0625-5 0-123.71-100.29-223.99-223.99-223.99z" fill="#fff" opacity=".2"/><path transform="scale(.75)" d="m255.99 124.01v0.00391l-35.625 42.75c-35.422 14.125-60.363 48.783-60.363 89.246 0 2.0418 0.07165 4.066 0.19726 6.0762 2.3-37.896 26.487-69.892 60.166-83.322l35.625-42.75v-0.00391l35.631 42.754c33.687 13.424 57.871 45.416 60.174 83.312 0.12521-2.0069 0.19531-4.0279 0.19531-6.0664 0-40.469-24.937-75.126-60.369-89.246l-35.631-42.754z" fill="#fff" opacity=".3"/><path transform="scale(.75)" d="m256 80.01c-97.198 0-175.99 78.792-175.99 175.99v0.00977c0 2.0069 0.046625 4.0035 0.11328 5.9941 3.1625-94.42 80.687-169.99 175.88-169.99h0.00977c95.185 0 172.72 75.574 175.88 169.99 0.06666-1.9907 0.11133-3.9873 0.11133-5.9941v-0.00977c0-97.198-78.798-175.99-175.99-175.99h-0.00977z" opacity=".1"/></g></svg>
