<svg width="512" height="512" version="1.1" viewBox="0 0 384 384" xmlns="http://www.w3.org/2000/svg"><defs><clipPath><path d="m111 119h177v23h-177z"/></clipPath><clipPath><path d="m177 130h45v89h-45z"/></clipPath><clipPath><path d="m111 207h177v89h-177z"/></clipPath><clipPath id="d"><rect width="384" height="384"/></clipPath><g clip-path="url(#d)"></g></defs><g transform="translate(-.00047375 .004665)"><path d="m74.6 23.25c-7.5586 0-14.678 7.1191-14.678 14.678v308.14c0 7.1192 7.5586 14.678 14.678 14.678h234.8c7.1191 0 14.678-7.5586 14.678-14.678v-227.42l-95.405-95.405z" fill="#2656a8"/><path d="m59.923 338.57v7.5c0 7.1192 7.5586 14.678 14.678 14.678h234.8c7.1191 0 14.678-7.5586 14.678-14.678v-7.5c0 7.1192-7.5586 14.678-14.678 14.678h-234.8c-7.1191 0-14.678-7.5586-14.678-14.678z" opacity=".3"/><path d="m276.33 70.906-43.002 43.002 90.75 93.548 2.4e-4 -88.808z" opacity=".3" stroke-width=".75"/><path d="m228.67 23.243 95.405 95.405h-80.728c-7.1191 0-14.678-7.5586-14.678-14.678z" fill="#367bf0"/></g><path d="m222.09 165.31c-4.1562 3.9258-13.762 12.172-13.762 12.172l22.516 22.684s9.7461-10.016 14.148-14.172c1.0938-1.0312 0.95312-3.3477-0.14062-4.3789-3.4141-3.2226-9.0781-8.4531-9.0781-8.4531s-5.3281-5.0703-8.6133-8.168c-1.1953-1.1289-3.8711-0.8125-5.0703 0.31642zm-23.656 20.273-60.184 56.695 0.51953 22.422 23.492-0.13281 59.527-56.172z" fill="#160606" fill-rule="evenodd" opacity=".3"/><path d="m228.67 23.247-154.07 8e-3c-7.5586 0-14.678 7.1188-14.678 14.678v7.5c0-7.5589 7.1192-14.678 14.678-14.678l154.07-8e-3z" fill="#fff" opacity=".1"/><path d="m222.09 157.81c-4.1562 3.9258-13.762 12.172-13.762 12.172l22.516 22.684s9.7461-10.016 14.148-14.172c1.0938-1.0312 0.95313-3.3477-0.14062-4.3789-3.4141-3.2226-9.0781-8.4531-9.0781-8.4531s-5.3281-5.0703-8.6133-8.168c-1.1953-1.1289-3.8711-0.8125-5.0703 0.31641zm-23.656 20.273-60.184 56.695 0.51953 22.422 23.492-0.13281 59.527-56.172z" fill="#fff" fill-rule="evenodd"/></svg>
