<svg width="512" height="512" version="1.1" viewBox="0 0 384 384" xmlns="http://www.w3.org/2000/svg"><defs><linearGradient id="a" x1="2.8" x2="34.077" y1="41.329" y2="17.329" gradientTransform="matrix(7.8814 0 0 7.8814 3.5593 3.3559)" gradientUnits="userSpaceOnUse"><stop stop-color="#d31818" offset="0"/><stop stop-color="#fc3434" offset="1"/></linearGradient><clipPath><rect width="384" height="384"/></clipPath></defs><path d="m192.71 11.238c100.12 0 181.27 81.152 181.27 181.27 0 100.12-81.156 181.27-181.27 181.27-100.12 0-181.27-81.156-181.27-181.27 0-100.12 81.152-181.27 181.27-181.27z" fill="url(#a)"/><path d="m98.609 175.38c-4.0039-30.848 17.266-69.945 50.953-69.945 98.176 0 11.355 118.61 19.426 127.05 7.8828 7.8789 21.949-4.9258 31.344-19.238 8.0391-12.531 14.621-25.828 29.375-18.594 16.441 8.0937 16.535 23.645 24.66 40.551 8.125 16.875 16.41 26.133 24.66 32.414 28.199 30.699-23.367 36.328-38.789 11.145-16.039-22.5-8.1602-38.355-38.637-3.418-48.305 60.309-95.523-34.98-102.93-99.969" opacity=".3"/><path d="m98.609 167.88c-4.0039-30.848 17.266-69.945 50.953-69.945 98.176 0 11.355 118.61 19.426 127.05 7.8828 7.8789 21.949-4.9258 31.344-19.238 8.0391-12.531 14.621-25.828 29.375-18.594 16.441 8.0938 16.535 23.645 24.66 40.551 8.125 16.875 16.41 26.133 24.66 32.414 28.199 30.699-23.367 36.328-38.789 11.145-16.039-22.5-8.1602-38.355-38.637-3.418-48.305 60.309-95.523-34.98-102.93-99.969" fill="#fff"/><path transform="scale(.75)" d="m256.95 14.984c-133.49 0-241.69 108.2-241.69 241.69 0 1.6718 0.028723 3.3363 0.0625 5 2.6634-131.18 109.81-236.69 241.63-236.69 131.82 0 238.97 105.51 241.63 236.69 0.03378-1.6637 0.06445-3.3282 0.06445-5 0-133.49-108.21-241.69-241.7-241.69z" fill="#fff" opacity=".3" stroke-width="1.3333"/><path transform="scale(.75)" d="m15.318 251.68c-0.033777 1.6637-0.0625 3.3282-0.0625 5 0 133.49 108.2 241.7 241.69 241.7s241.7-108.21 241.7-241.7c0-1.6718-0.03067-3.3363-0.06445-5-2.6635 131.18-109.82 236.7-241.63 236.7-131.82 0-238.97-105.52-241.63-236.7z" opacity=".3" stroke-width="1.3333"/></svg>
