<svg xmlns="http://www.w3.org/2000/svg" xmlns:xlink="http://www.w3.org/1999/xlink" width="384pt" height="384pt" version="1.1" viewBox="0 0 384 384">
 <defs>
  <filter id="alpha" width="100%" height="100%" x="0%" y="0%" filterUnits="objectBoundingBox">
   <feColorMatrix in="SourceGraphic" type="matrix" values="0 0 0 0 1 0 0 0 0 1 0 0 0 0 1 0 0 0 1 0"/>
  </filter>
  <mask id="mask0">
   <g filter="url(#alpha)">
    <rect width="384" height="384" x="0" y="0" style="fill:rgb(0%,0%,0%);fill-opacity:0.2"/>
   </g>
  </mask>
  <clipPath id="clip1">
   <rect width="384" height="384" x="0" y="0"/>
  </clipPath>
  <g id="surface5" clip-path="url(#clip1)">
   <path style="fill:rgb(0%,0%,0%)" d="M 142.980469 54.398438 L 144.316406 54.433594 C 144.316406 54.433594 121.132812 52.757812 96.339844 61.710938 C 83.941406 66.1875 70.371094 73.617188 59.625 86.449219 C 48.878906 99.28125 42 117.441406 42 138.28125 C 42 159.121094 48.878906 177.269531 59.625 190.101562 C 70.371094 202.933594 83.941406 210.375 96.339844 214.851562 C 121.132812 223.804688 144.316406 222.117188 144.316406 222.117188 L 142.980469 222.152344 L 245.636719 222.152344 C 246.109375 222.15625 246.582031 222.144531 247.054688 222.117188 C 247.054688 222.117188 260.890625 221.707031 273.210938 226.441406 C 285.53125 231.175781 294 234.980469 294 258.035156 C 294 281.089844 285.53125 284.894531 273.210938 289.628906 C 260.890625 294.363281 247.054688 293.953125 247.054688 293.953125 C 246.582031 293.921875 246.109375 293.90625 245.636719 293.90625 L 96 293.90625 C 87.34375 293.785156 79.292969 298.332031 74.929688 305.808594 C 70.566406 313.285156 70.566406 322.53125 74.929688 330.003906 C 79.292969 337.480469 87.34375 342.027344 96 341.90625 L 245.636719 341.90625 L 244.21875 341.871094 C 244.21875 341.871094 266.566406 343.597656 290.425781 334.429688 C 314.285156 325.261719 342 299.136719 342 258.035156 C 342 216.933594 314.285156 190.796875 290.425781 181.628906 C 266.566406 172.460938 244.21875 174.199219 244.21875 174.199219 L 245.636719 174.152344 L 142.980469 174.152344 C 142.539062 174.152344 142.097656 174.164062 141.65625 174.1875 C 141.65625 174.1875 126.339844 174.648438 112.640625 169.699219 C 105.789062 167.226562 100.125 163.699219 96.433594 159.292969 C 92.742188 154.886719 90 149.519531 90 138.28125 C 90 127.042969 92.742188 121.664062 96.433594 117.257812 C 100.125 112.851562 105.789062 109.324219 112.640625 106.851562 C 126.339844 101.90625 141.65625 102.363281 141.65625 102.363281 C 142.097656 102.386719 142.539062 102.398438 142.980469 102.398438 L 288 102.398438 C 296.65625 102.519531 304.707031 97.972656 309.070312 90.496094 C 313.433594 83.023438 313.433594 73.777344 309.070312 66.300781 C 304.707031 58.824219 296.65625 54.277344 288 54.398438 Z M 142.980469 54.398438"/>
  </g>
  <mask id="mask1">
   <g filter="url(#alpha)">
    <rect width="384" height="384" x="0" y="0" style="fill:rgb(0%,0%,0%);fill-opacity:0.2"/>
   </g>
  </mask>
  <clipPath id="clip2">
   <rect width="384" height="384" x="0" y="0"/>
  </clipPath>
  <g id="surface8" clip-path="url(#clip2)">
   <path style="fill-rule:evenodd;fill:rgb(0%,0%,0%)" d="M 197.648438 17.667969 C 184.402344 17.859375 173.820312 28.75 174 41.996094 L 174 353.996094 C 173.878906 362.648438 178.425781 370.699219 185.902344 375.0625 C 193.375 379.425781 202.625 379.425781 210.097656 375.0625 C 217.574219 370.699219 222.121094 362.648438 222 353.996094 L 222 41.996094 C 222.089844 35.511719 219.550781 29.269531 214.964844 24.683594 C 210.378906 20.101562 204.132812 17.570312 197.648438 17.667969 Z M 197.648438 17.667969"/>
  </g>
  <mask id="mask2">
   <g filter="url(#alpha)">
    <rect width="384" height="384" x="0" y="0" style="fill:rgb(0%,0%,0%);fill-opacity:0.2"/>
   </g>
  </mask>
  <clipPath id="clip3">
   <rect width="384" height="384" x="0" y="0"/>
  </clipPath>
  <g id="surface11" clip-path="url(#clip3)">
   <path style="fill-rule:evenodd;fill:rgb(100%,100%,100%)" d="M 197.636719 11.660156 C 184.390625 11.859375 173.8125 22.753906 174 36 L 174 42 C 173.8125 28.753906 184.390625 17.859375 197.636719 17.660156 C 204.125 17.5625 210.375 20.09375 214.964844 24.679688 C 219.554688 29.265625 222.09375 35.511719 222 42 L 222 36 C 222.09375 29.511719 219.554688 23.265625 214.964844 18.679688 C 210.375 14.09375 204.125 11.5625 197.636719 11.660156 Z M 197.636719 11.660156"/>
  </g>
  <mask id="mask3">
   <g filter="url(#alpha)">
    <rect width="384" height="384" x="0" y="0" style="fill:rgb(0%,0%,0%);fill-opacity:0.2"/>
   </g>
  </mask>
  <clipPath id="clip4">
   <rect width="384" height="384" x="0" y="0"/>
  </clipPath>
  <g id="surface14" clip-path="url(#clip4)">
   <path style="fill:rgb(100%,100%,100%)" d="M 140.308594 48.316406 C 132.625 48.265625 114.933594 48.996094 96.339844 55.710938 C 83.941406 60.1875 70.371094 67.617188 59.625 80.449219 C 48.878906 93.28125 42 111.441406 42 132.28125 C 42 133.296875 42.097656 134.277344 42.128906 135.28125 C 42.761719 115.714844 49.40625 98.65625 59.625 86.449219 C 70.371094 73.617188 83.941406 66.1875 96.339844 61.710938 C 119.265625 53.433594 139.996094 54.230469 143.109375 54.398438 L 288 54.398438 C 300.191406 54.234375 310.570312 63.234375 312.128906 75.328125 C 312.972656 68.449219 310.804688 61.542969 306.183594 56.382812 C 301.558594 51.222656 294.929688 48.308594 288 48.398438 L 143.109375 48.398438 C 142.519531 48.367188 142.097656 48.328125 140.308594 48.316406 Z M 90.199219 135.28125 C 90.144531 136.304688 90 137.144531 90 138.28125 C 90 149.519531 92.742188 154.886719 96.433594 159.292969 C 100.125 163.699219 105.789062 167.226562 112.640625 169.699219 C 126.339844 174.644531 141.65625 174.1875 141.65625 174.1875 C 142.097656 174.164062 142.539062 174.152344 142.980469 174.152344 L 245.625 174.152344 C 249.1875 173.960938 268.753906 173.300781 290.425781 181.628906 C 313.691406 190.566406 340.546875 215.683594 341.871094 255.035156 C 341.90625 254.03125 342 253.058594 342 252.035156 C 342 210.933594 314.285156 184.796875 290.425781 175.628906 C 268.753906 167.300781 249.1875 167.960938 245.625 168.152344 L 142.980469 168.152344 C 142.539062 168.152344 142.097656 168.164062 141.65625 168.1875 C 141.65625 168.1875 126.339844 168.644531 112.640625 163.699219 C 105.789062 161.226562 100.125 157.699219 96.433594 153.292969 C 93.117188 149.332031 90.683594 144.359375 90.199219 135.28125 Z M 293.847656 255.035156 C 293.082031 275.257812 284.9375 279.125 273.210938 283.628906 C 260.890625 288.363281 247.054688 287.953125 247.054688 287.953125 C 246.582031 287.921875 246.109375 287.90625 245.636719 287.90625 L 96 287.90625 C 89.042969 287.8125 82.386719 290.742188 77.757812 295.9375 C 73.128906 301.128906 70.980469 308.078125 71.871094 314.976562 C 73.367188 302.828125 83.761719 293.75 96 293.90625 L 245.636719 293.90625 C 246.109375 293.90625 246.582031 293.921875 247.054688 293.953125 C 247.054688 293.953125 260.890625 294.363281 273.210938 289.628906 C 285.53125 284.894531 294 281.089844 294 258.035156 C 294 256.925781 293.886719 256.058594 293.847656 255.035156 Z M 293.847656 255.035156"/>
  </g>
 </defs>
 <g>
  <use mask="url(#mask0)" xlink:href="#surface5"/>
  <use mask="url(#mask1)" xlink:href="#surface8"/>
  <path style="fill:none;stroke-width:8;stroke-linecap:round;stroke-linejoin:round;stroke:rgb(100%,78.431373%,19.215686%)" d="M 16 51.985026 L 40.938802 51.985026 C 40.938802 51.985026 53 52.697917 53 42.005859 C 53 31.313151 40.938802 32.026042 40.938802 32.026042 L 23.830729 32.026042 C 23.830729 32.026042 11 32.738932 11 22.046224 C 11 11.353516 23.830729 12.066406 23.830729 12.066406 L 48 12.066406" transform="matrix(6,0,0,6,0,0)"/>
  <path style="fill:none;stroke-width:8;stroke-linecap:round;stroke-linejoin:round;stroke:rgb(100%,78.431373%,19.215686%)" d="M 33 6 L 33 58" transform="matrix(6,0,0,6,0,0)"/>
  <use mask="url(#mask2)" xlink:href="#surface11"/>
  <use mask="url(#mask3)" xlink:href="#surface14"/>
 </g>
</svg>
