<svg xmlns="http://www.w3.org/2000/svg" xmlns:xlink="http://www.w3.org/1999/xlink" width="384pt" height="384pt" version="1.1" viewBox="0 0 384 384">
 <defs>
  <filter id="alpha" width="100%" height="100%" x="0%" y="0%" filterUnits="objectBoundingBox">
   <feColorMatrix in="SourceGraphic" type="matrix" values="0 0 0 0 1 0 0 0 0 1 0 0 0 0 1 0 0 0 1 0"/>
  </filter>
  <mask id="mask0">
   <g filter="url(#alpha)">
    <rect width="384" height="384" x="0" y="0" style="fill:rgb(0%,0%,0%);fill-opacity:0.2"/>
   </g>
  </mask>
  <clipPath id="clip1">
   <rect width="384" height="384" x="0" y="0"/>
  </clipPath>
  <g id="surface5" clip-path="url(#clip1)">
   <path style="fill:rgb(0%,0%,0%)" d="M 106.078125 41.304688 C 99.695312 44.925781 94.390625 50.296875 90.746094 56.828125 L 23.335938 177.761719 C 16.246094 190.476562 16.21875 206.132812 23.269531 218.824219 L 90.292969 339.53125 C 97.339844 352.222656 110.390625 360.023438 124.523438 360 L 258.957031 359.769531 C 273.09375 359.742188 286.167969 351.894531 293.253906 339.179688 L 360.664062 218.242188 C 367.753906 205.523438 367.78125 189.871094 360.730469 177.179688 L 293.707031 56.472656 C 286.660156 43.777344 273.609375 35.976562 259.472656 36 L 125.042969 36.234375 C 118.414062 36.25 111.890625 37.996094 106.070312 41.304688 Z M 106.078125 41.304688"/>
  </g>
  <mask id="mask1">
   <g filter="url(#alpha)">
    <rect width="384" height="384" x="0" y="0" style="fill:rgb(0%,0%,0%);fill-opacity:0.2"/>
   </g>
  </mask>
  <clipPath id="clip2">
   <rect width="384" height="384" x="0" y="0"/>
  </clipPath>
  <g id="surface8" clip-path="url(#clip2)">
   <path style="fill:rgb(0%,0%,0%)" d="M 112.105469 32.566406 C 110.023438 33.304688 108.003906 34.222656 106.066406 35.3125 C 99.6875 38.933594 94.386719 44.304688 90.742188 50.832031 L 23.339844 171.765625 C 16.257812 184.480469 16.230469 200.128906 23.277344 212.816406 L 90.289062 333.535156 C 97.335938 346.222656 110.382812 354.023438 124.515625 354 L 258.949219 353.765625 C 269.011719 353.738281 278.699219 349.730469 286.039062 342.558594 Z M 112.105469 32.566406"/>
  </g>
  <mask id="mask2">
   <g filter="url(#alpha)">
    <rect width="384" height="384" x="0" y="0" style="fill:rgb(0%,0%,0%);fill-opacity:0.2"/>
   </g>
  </mask>
  <clipPath id="clip3">
   <rect width="384" height="384" x="0" y="0"/>
  </clipPath>
  <g id="surface11" clip-path="url(#clip3)">
   <path style="fill:rgb(0%,0%,0%)" d="M 274.484375 33.113281 L 100.855469 342.558594 C 100.855469 342.558594 99.746094 344.324219 99.496094 344.707031 C 106.542969 350.710938 115.382812 353.996094 124.515625 354 L 258.949219 353.765625 C 273.085938 353.746094 286.164062 345.902344 293.257812 333.183594 L 360.660156 212.25 C 367.75 199.53125 367.773438 183.875 360.726562 171.183594 L 293.710938 50.464844 C 289.332031 42.632812 282.570312 36.527344 274.484375 33.113281 Z M 274.484375 33.113281"/>
  </g>
  <mask id="mask3">
   <g filter="url(#alpha)">
    <rect width="384" height="384" x="0" y="0" style="fill:rgb(0%,0%,0%);fill-opacity:0.2"/>
   </g>
  </mask>
  <clipPath id="clip4">
   <rect width="384" height="384" x="0" y="0"/>
  </clipPath>
  <g id="surface14" clip-path="url(#clip4)">
   <path style="fill:rgb(0%,0%,0%)" d="M 18.445312 198 C 19.125 203.214844 20.761719 208.246094 23.273438 212.8125 L 90.28125 333.539062 C 97.332031 346.230469 110.386719 354.03125 124.523438 354 L 258.960938 353.765625 C 273.089844 353.738281 286.160156 345.894531 293.25 333.1875 L 360.65625 212.25 C 363.089844 207.84375 364.71875 203.015625 365.460938 198 Z M 18.445312 198"/>
  </g>
  <mask id="mask4">
   <g filter="url(#alpha)">
    <rect width="384" height="384" x="0" y="0" style="fill:rgb(0%,0%,0%);fill-opacity:0.2"/>
   </g>
  </mask>
  <clipPath id="clip5">
   <rect width="384" height="384" x="0" y="0"/>
  </clipPath>
  <g id="surface17" clip-path="url(#clip5)">
   <path style="fill:rgb(0%,0%,0%)" d="M 192 120 C 117.75 120 60 180.667969 60 199.421875 C 60 224 117.75 276 192 276 C 266.25 276 324 215.332031 324 199.421875 C 324 180.667969 266.25 120 192 120 Z M 192 120"/>
  </g>
  <mask id="mask5">
   <g filter="url(#alpha)">
    <rect width="384" height="384" x="0" y="0" style="fill:rgb(0%,0%,0%);fill-opacity:0.2"/>
   </g>
  </mask>
  <clipPath id="clip6">
   <rect width="384" height="384" x="0" y="0"/>
  </clipPath>
  <g id="surface20" clip-path="url(#clip6)">
   <path style="fill:rgb(100%,100%,100%)" d="M 259.476562 30 L 125.039062 30.234375 C 118.410156 30.25 111.886719 31.996094 106.066406 35.308594 C 99.691406 38.929688 94.390625 44.296875 90.75 50.824219 L 23.332031 171.761719 C 19.296875 179 17.484375 187.335938 18.128906 195.65625 C 18.515625 189.359375 20.296875 183.238281 23.332031 177.761719 L 90.75 56.824219 C 94.390625 50.296875 99.691406 44.929688 106.066406 41.308594 C 111.886719 37.996094 118.410156 36.25 125.039062 36.234375 L 259.476562 36 C 273.613281 35.976562 286.660156 43.78125 293.707031 56.472656 L 360.726562 177.175781 C 363.644531 182.429688 365.402344 188.292969 365.871094 194.34375 C 366.398438 186.253906 364.609375 178.195312 360.726562 171.175781 L 293.707031 50.472656 C 286.660156 37.78125 273.613281 29.976562 259.476562 30 Z M 259.476562 30"/>
  </g>
 </defs>
 <g>
  <use mask="url(#mask0)" xlink:href="#surface5"/>
  <path style="fill:rgb(96.470588%,27.843137%,27.843137%)" d="M 106.078125 35.304688 C 99.695312 38.925781 94.390625 44.296875 90.746094 50.828125 L 23.335938 171.761719 C 16.246094 184.476562 16.21875 200.132812 23.269531 212.824219 L 90.292969 333.53125 C 97.339844 346.222656 110.390625 354.023438 124.523438 354 L 258.957031 353.769531 C 273.09375 353.742188 286.167969 345.894531 293.253906 333.179688 L 360.664062 212.242188 C 367.753906 199.523438 367.78125 183.871094 360.730469 171.179688 L 293.707031 50.472656 C 286.660156 37.777344 273.609375 29.976562 259.472656 30 L 125.042969 30.234375 C 118.414062 30.25 111.890625 31.996094 106.070312 35.304688 Z M 106.078125 35.304688"/>
  <use mask="url(#mask1)" xlink:href="#surface8"/>
  <use mask="url(#mask2)" xlink:href="#surface11"/>
  <use mask="url(#mask3)" xlink:href="#surface14"/>
  <use mask="url(#mask4)" xlink:href="#surface17"/>
  <path style="fill:rgb(100%,100%,100%)" d="M 192 114 C 117.75 114 60 174.667969 60 193.421875 C 60 218 117.75 270 192 270 C 266.25 270 324 209.332031 324 193.421875 C 324 174.667969 266.25 114 192 114 Z M 192 114"/>
  <path style="fill:rgb(21.176471%,48.235294%,94.117647%)" d="M 258 192 C 258 228.449219 228.449219 258 192 258 C 155.550781 258 126 228.449219 126 192 C 126 155.550781 155.550781 126 192 126 C 228.449219 126 258 155.550781 258 192 Z M 258 192"/>
  <path style="fill:rgb(29.803922%,29.803922%,29.803922%)" d="M 228 192 C 228 211.882812 211.882812 228 192 228 C 172.117188 228 156 211.882812 156 192 C 156 172.117188 172.117188 156 192 156 C 211.882812 156 228 172.117188 228 192 Z M 228 192"/>
  <use mask="url(#mask5)" xlink:href="#surface20"/>
 </g>
</svg>
