<svg xmlns="http://www.w3.org/2000/svg" xmlns:xlink="http://www.w3.org/1999/xlink" width="384pt" height="384pt" version="1.1" viewBox="0 0 384 384">
 <defs>
  <filter id="alpha" width="100%" height="100%" x="0%" y="0%" filterUnits="objectBoundingBox">
   <feColorMatrix in="SourceGraphic" type="matrix" values="0 0 0 0 1 0 0 0 0 1 0 0 0 0 1 0 0 0 1 0"/>
  </filter>
  <mask id="mask0">
   <g filter="url(#alpha)">
    <rect width="384" height="384" x="0" y="0" style="fill:rgb(0%,0%,0%);fill-opacity:0.2"/>
   </g>
  </mask>
  <clipPath id="clip1">
   <rect width="384" height="384" x="0" y="0"/>
  </clipPath>
  <g id="surface5" clip-path="url(#clip1)">
   <path style="fill:rgb(100%,100%,100%)" d="M 159.023438 27.578125 C 153.351562 29 148.128906 31.765625 143.820312 35.632812 C 143.761719 35.675781 143.707031 35.71875 143.648438 35.761719 C 143.644531 35.761719 143.640625 35.765625 143.636719 35.765625 C 143.636719 35.769531 143.632812 35.773438 143.628906 35.777344 C 142.773438 36.554688 141.953125 37.375 141.179688 38.230469 C 141.175781 38.238281 141.167969 38.242188 141.160156 38.25 C 140.386719 39.113281 139.65625 40.011719 138.972656 40.945312 C 138.964844 40.953125 138.957031 40.957031 138.953125 40.964844 C 138.273438 41.894531 137.640625 42.855469 137.054688 43.847656 C 136.460938 44.851562 135.921875 45.882812 135.433594 46.941406 C 134.953125 47.988281 134.527344 49.058594 134.15625 50.144531 C 134.15625 50.152344 134.152344 50.15625 134.148438 50.160156 C 133.78125 51.246094 133.46875 52.351562 133.214844 53.46875 C 133.210938 53.472656 133.210938 53.476562 133.207031 53.480469 C 133.144531 53.742188 133.085938 54.007812 133.03125 54.269531 C 133.03125 54.273438 133.03125 54.277344 133.03125 54.28125 L 117.949219 127.984375 L 117.941406 127.988281 L 47.074219 157.6875 C 44.898438 158.605469 42.820312 159.730469 40.875 161.046875 C 39.90625 161.699219 38.972656 162.402344 38.078125 163.144531 C 38.074219 163.148438 38.070312 163.152344 38.070312 163.160156 C 37.171875 163.902344 36.3125 164.683594 35.496094 165.511719 C 35.492188 165.515625 35.492188 165.519531 35.488281 165.523438 C 34.671875 166.351562 33.902344 167.21875 33.175781 168.121094 C 33.171875 168.125 33.167969 168.132812 33.167969 168.136719 C 32.441406 169.035156 31.757812 169.972656 31.128906 170.9375 C 31.125 170.945312 31.121094 170.949219 31.121094 170.953125 C 30.492188 171.925781 29.914062 172.925781 29.386719 173.953125 C 29.382812 173.957031 29.382812 173.960938 29.378906 173.96875 C 28.855469 174.992188 28.382812 176.042969 27.964844 177.113281 C 27.960938 177.117188 27.960938 177.121094 27.957031 177.128906 C 27.539062 178.195312 27.175781 179.285156 26.867188 180.390625 C 26.863281 180.394531 26.859375 180.402344 26.859375 180.40625 C 26.726562 180.941406 26.605469 181.476562 26.5 182.019531 C 26.355469 182.601562 26.226562 183.183594 26.109375 183.773438 C 26.109375 183.777344 26.113281 183.78125 26.113281 183.785156 C 25.132812 189.597656 25.691406 195.554688 27.742188 201.097656 C 27.324219 198.75 27.160156 196.367188 27.246094 193.988281 C 27.246094 193.660156 27.253906 193.335938 27.261719 193.011719 C 27.261719 193.007812 27.261719 193.003906 27.261719 193 C 27.335938 191.855469 27.472656 190.710938 27.667969 189.578125 C 27.664062 189.574219 27.664062 189.570312 27.664062 189.570312 C 27.777344 188.980469 27.910156 188.394531 28.054688 187.8125 C 28.160156 187.273438 28.277344 186.734375 28.410156 186.203125 C 28.414062 186.195312 28.417969 186.191406 28.417969 186.1875 C 28.726562 185.082031 29.089844 183.992188 29.511719 182.921875 C 29.511719 182.917969 29.515625 182.914062 29.519531 182.90625 C 29.9375 181.835938 30.40625 180.789062 30.933594 179.761719 C 30.933594 179.757812 30.9375 179.753906 30.941406 179.75 C 31.46875 178.726562 32.046875 177.726562 32.675781 176.761719 C 32.679688 176.753906 32.679688 176.75 32.683594 176.746094 C 33.3125 175.777344 33.992188 174.835938 34.71875 173.933594 C 34.722656 173.925781 34.726562 173.921875 34.726562 173.917969 C 35.453125 173.015625 36.226562 172.148438 37.039062 171.320312 C 37.042969 171.316406 37.046875 171.308594 37.050781 171.304688 C 37.867188 170.480469 38.726562 169.695312 39.621094 168.953125 C 39.625 168.949219 39.628906 168.945312 39.628906 168.941406 C 40.527344 168.195312 41.460938 167.496094 42.429688 166.84375 C 44.375 165.523438 46.449219 164.398438 48.625 163.484375 L 119.492188 133.785156 L 119.503906 133.78125 L 134.585938 60.078125 C 134.585938 60.074219 134.582031 60.070312 134.582031 60.066406 C 134.632812 59.828125 134.6875 59.589844 134.746094 59.355469 C 134.75 59.332031 134.757812 59.3125 134.761719 59.289062 C 134.765625 59.28125 134.765625 59.273438 134.769531 59.261719 C 134.863281 58.910156 134.964844 58.5625 135.070312 58.210938 C 135.253906 57.453125 135.464844 56.699219 135.703125 55.957031 C 135.703125 55.949219 135.707031 55.945312 135.710938 55.941406 C 136.082031 54.851562 136.507812 53.785156 136.988281 52.734375 C 137.472656 51.679688 138.015625 50.648438 138.609375 49.644531 C 139.191406 48.652344 139.824219 47.691406 140.503906 46.757812 C 140.511719 46.753906 140.519531 46.746094 140.523438 46.742188 C 141.210938 45.8125 141.941406 44.914062 142.714844 44.054688 C 142.722656 44.050781 142.730469 44.042969 142.734375 44.039062 C 143.507812 43.175781 144.324219 42.355469 145.183594 41.574219 C 145.183594 41.570312 145.1875 41.566406 145.191406 41.558594 C 145.195312 41.558594 145.199219 41.558594 145.203125 41.558594 C 145.257812 41.511719 145.316406 41.46875 145.375 41.425781 C 149.679688 37.5625 154.902344 34.792969 160.578125 33.375 C 160.585938 33.371094 160.589844 33.371094 160.597656 33.367188 C 161.746094 33.085938 162.910156 32.859375 164.082031 32.6875 C 164.085938 32.6875 164.089844 32.6875 164.09375 32.6875 C 165.261719 32.511719 166.433594 32.394531 167.613281 32.335938 C 168.785156 32.28125 169.960938 32.28125 171.132812 32.339844 C 171.140625 32.339844 171.152344 32.34375 171.160156 32.34375 C 172.332031 32.402344 173.5 32.511719 174.660156 32.679688 C 178.183594 33.195312 181.609375 34.226562 184.820312 35.734375 C 185.875 36.234375 186.90625 36.785156 187.90625 37.382812 C 190.945312 39.195312 193.683594 41.441406 196.035156 44.046875 L 246.914062 100.539062 L 323.558594 91.734375 C 340.058594 89.851562 355.6875 99.371094 361.167969 114.644531 C 358.101562 96.410156 340.84375 83.757812 322.003906 85.925781 L 245.351562 94.746094 L 194.472656 38.242188 C 192.121094 35.640625 189.382812 33.394531 186.347656 31.585938 C 185.347656 30.988281 184.316406 30.4375 183.257812 29.941406 C 183.25 29.9375 183.242188 29.9375 183.230469 29.933594 C 182.171875 29.4375 181.089844 28.988281 179.984375 28.597656 C 177.753906 27.804688 175.449219 27.230469 173.097656 26.886719 C 172.8125 26.855469 172.523438 26.828125 172.238281 26.800781 C 171.355469 26.683594 170.464844 26.597656 169.574219 26.546875 C 168.402344 26.488281 167.226562 26.488281 166.054688 26.542969 C 163.6875 26.65625 161.335938 27 159.039062 27.574219 C 159.03125 27.574219 159.023438 27.578125 159.015625 27.578125 Z M 111.539062 261.492188 L 118.132812 331.101562 C 118.421875 333.949219 119.070312 336.753906 120.066406 339.449219 C 119.910156 338.601562 119.78125 337.75 119.6875 336.894531 L 112.605469 262.070312 Z M 319.414062 207.175781 L 318.753906 208.277344 L 351.042969 276.53125 C 351.472656 277.480469 351.859375 278.441406 352.203125 279.421875 C 351.695312 276.425781 350.78125 273.503906 349.488281 270.738281 Z M 319.414062 207.175781"/>
  </g>
  <mask id="mask1">
   <g filter="url(#alpha)">
    <rect width="384" height="384" x="0" y="0" style="fill:rgb(0%,0%,0%);fill-opacity:0.2"/>
   </g>
  </mask>
  <clipPath id="clip2">
   <rect width="384" height="384" x="0" y="0"/>
  </clipPath>
  <g id="surface8" clip-path="url(#clip2)">
   <path style="fill:rgb(0%,0%,0%)" d="M 27.746094 201.109375 C 29.558594 211.34375 36 220.242188 45.292969 225.34375 L 89.8125 249.628906 L 111.539062 261.496094 L 111.050781 256.273438 L 88.257812 243.832031 L 43.742188 219.546875 C 36.304688 215.472656 30.628906 208.929688 27.746094 201.109375 Z M 361.167969 114.640625 C 361.734375 118.042969 361.777344 121.507812 361.289062 124.921875 C 361.289062 124.925781 361.292969 124.929688 361.292969 124.933594 C 361.132812 126.070312 360.917969 127.195312 360.644531 128.308594 C 360.523438 128.734375 360.394531 129.15625 360.257812 129.578125 C 360.074219 130.265625 359.867188 130.949219 359.640625 131.625 C 359.25 132.714844 358.804688 133.785156 358.304688 134.832031 C 357.808594 135.875 357.257812 136.894531 356.65625 137.882812 L 317.199219 202.480469 L 319.417969 207.175781 L 358.199219 143.683594 L 358.210938 143.679688 C 358.8125 142.691406 359.359375 141.671875 359.855469 140.628906 C 359.855469 140.625 359.855469 140.621094 359.855469 140.617188 C 360.355469 139.578125 360.804688 138.515625 361.195312 137.433594 C 361.195312 137.429688 361.195312 137.425781 361.191406 137.421875 C 361.417969 136.746094 361.625 136.0625 361.808594 135.375 C 361.945312 134.953125 362.074219 134.53125 362.195312 134.105469 C 362.46875 132.992188 362.6875 131.863281 362.84375 130.730469 C 362.84375 130.726562 362.84375 130.722656 362.84375 130.71875 C 363.597656 125.304688 363.023438 119.796875 361.167969 114.644531 Z M 234.21875 302.320312 L 177.515625 353.316406 C 169.339844 360.664062 158.097656 363.847656 147.148438 361.914062 C 147.144531 361.917969 147.140625 361.917969 147.136719 361.917969 C 142.472656 361.09375 138.027344 359.371094 134.058594 356.84375 C 131.078125 354.953125 128.410156 352.632812 126.136719 349.964844 C 125.382812 349.082031 124.675781 348.164062 124.015625 347.210938 C 124.015625 347.207031 124.015625 347.203125 124.011719 347.199219 C 123.355469 346.242188 122.746094 345.257812 122.1875 344.242188 C 121.632812 343.230469 121.125 342.191406 120.675781 341.128906 C 120.675781 341.125 120.671875 341.121094 120.671875 341.117188 C 120.457031 340.566406 120.253906 340.007812 120.066406 339.449219 C 120.496094 342.007812 121.222656 344.511719 122.226562 346.914062 C 122.226562 346.917969 122.226562 346.921875 122.230469 346.925781 C 122.679688 347.984375 123.183594 349.023438 123.742188 350.035156 C 124.300781 351.050781 124.90625 352.039062 125.566406 352.992188 C 126.226562 353.949219 126.933594 354.875 127.691406 355.761719 C 130.71875 359.320312 134.449219 362.253906 138.664062 364.382812 C 139.710938 364.910156 140.789062 365.390625 141.886719 365.8125 C 142.980469 366.238281 144.097656 366.613281 145.230469 366.929688 C 145.234375 366.929688 145.238281 366.929688 145.242188 366.925781 C 146.375 367.246094 147.527344 367.507812 148.691406 367.714844 C 148.695312 367.710938 148.699219 367.710938 148.703125 367.710938 C 159.648438 369.640625 170.890625 366.457031 179.070312 359.113281 L 235.769531 308.105469 L 311.015625 324.679688 L 311.027344 324.675781 C 312.175781 324.933594 313.339844 325.128906 314.511719 325.273438 C 314.515625 325.269531 314.519531 325.269531 314.523438 325.269531 C 315.691406 325.40625 316.867188 325.488281 318.046875 325.515625 C 318.050781 325.511719 318.054688 325.511719 318.058594 325.511719 C 320.417969 325.5625 322.78125 325.386719 325.109375 324.980469 C 325.113281 324.980469 325.117188 324.976562 325.121094 324.976562 C 326.285156 324.773438 327.4375 324.511719 328.574219 324.195312 C 329.710938 323.878906 330.832031 323.507812 331.929688 323.082031 C 334.125 322.226562 336.230469 321.164062 338.210938 319.90625 C 351.917969 311.171875 357.703125 294.433594 352.207031 279.40625 C 353.945312 289.324219 351.160156 299.492188 344.574219 307.246094 C 344.570312 307.246094 344.566406 307.246094 344.5625 307.246094 C 341.535156 310.796875 337.808594 313.722656 333.605469 315.847656 C 332.554688 316.378906 331.476562 316.859375 330.375 317.285156 C 329.277344 317.710938 328.15625 318.082031 327.023438 318.402344 C 325.882812 318.71875 324.730469 318.976562 323.566406 319.179688 C 323.5625 319.183594 323.558594 319.183594 323.554688 319.183594 C 322.398438 319.386719 321.230469 319.535156 320.058594 319.625 C 320.050781 319.625 320.042969 319.628906 320.035156 319.628906 C 317.679688 319.808594 315.3125 319.753906 312.96875 319.472656 C 312.964844 319.472656 312.960938 319.476562 312.957031 319.476562 C 311.785156 319.335938 310.625 319.136719 309.472656 318.882812 L 309.460938 318.882812 L 283.765625 313.226562 Z M 234.21875 302.320312"/>
  </g>
 </defs>
 <g>
  <path style="fill:rgb(21.176471%,48.235294%,94.117647%)" d="M 159.046875 27.570312 C 145.824219 30.855469 135.710938 41.242188 133.039062 54.277344 L 117.953125 127.984375 L 47.074219 157.6875 C 34.6875 162.886719 26.398438 174.480469 25.695312 187.601562 C 24.988281 200.722656 31.988281 213.097656 43.753906 219.527344 L 111.054688 256.269531 L 118.132812 331.101562 C 119.371094 344.191406 128.132812 355.464844 140.734375 360.179688 C 153.335938 364.894531 167.59375 362.234375 177.511719 353.316406 L 234.214844 302.316406 L 309.472656 318.878906 C 322.640625 321.773438 336.355469 317.136719 344.847656 306.917969 C 353.339844 296.695312 355.136719 282.667969 349.488281 270.726562 L 317.207031 202.472656 L 356.65625 137.875 C 363.542969 126.578125 363.25 112.453125 355.902344 101.433594 C 348.554688 90.414062 335.425781 84.410156 322.023438 85.941406 L 245.363281 94.742188 L 194.484375 38.242188 C 185.675781 28.476562 171.980469 24.351562 159.046875 27.574219 Z M 159.046875 27.570312"/>
  <path style="fill:rgb(71.764706%,76.470588%,80.392157%)" d="M 166.054688 26.546875 C 163.683594 26.660156 161.328125 27.003906 159.023438 27.574219 C 145.8125 30.867188 135.707031 41.246094 133.03125 54.269531 L 117.941406 128.003906 L 47.070312 157.699219 C 34.675781 162.898438 26.386719 174.492188 25.679688 187.617188 C 24.972656 200.738281 31.976562 213.117188 43.742188 219.546875 L 111.050781 256.265625 L 118.128906 331.101562 C 119.371094 344.1875 128.132812 355.453125 140.726562 360.167969 C 153.324219 364.878906 167.574219 362.222656 177.492188 353.3125 L 234.214844 302.316406 L 309.460938 318.886719 C 322.628906 321.777344 336.335938 317.136719 344.828125 306.917969 C 353.316406 296.699219 355.117188 282.671875 349.464844 270.734375 L 317.199219 202.484375 L 356.640625 137.894531 C 363.542969 126.59375 363.253906 112.457031 355.902344 101.429688 C 348.550781 90.402344 335.40625 84.394531 322 85.9375 L 245.34375 94.746094 L 194.457031 38.238281 C 187.316406 30.328125 176.855469 26.019531 166.054688 26.542969 Z M 167.746094 62.355469 L 167.796875 62.402344 C 167.796875 62.40625 167.734375 62.472656 167.746094 62.472656 C 167.855469 62.480469 167.953125 62.582031 167.746094 62.355469 Z M 168.046875 62.683594 L 218.601562 118.839844 C 226.394531 127.492188 237.894531 131.839844 249.464844 130.511719 L 324.207031 121.90625 L 286.46875 183.710938 C 280.140625 194.066406 279.457031 206.90625 284.644531 217.875 L 315.652344 283.382812 L 241.933594 267.171875 C 230.59375 264.671875 218.746094 267.792969 210.113281 275.558594 L 153.828125 326.203125 L 146.878906 252.890625 C 145.753906 240.984375 138.796875 230.414062 128.300781 224.679688 L 64.035156 189.589844 L 131.84375 161.1875 C 142.820312 156.59375 150.820312 146.875 153.214844 135.21875 L 168.046875 62.679688 Z M 168.046875 62.683594"/>
  <use mask="url(#mask0)" xlink:href="#surface5"/>
  <use mask="url(#mask1)" xlink:href="#surface8"/>
 </g>
</svg>
