<svg xmlns="http://www.w3.org/2000/svg" width="384pt" height="384pt" version="1.1" viewBox="0 0 384 384"> <path d="m 169.45312,190.5 -33.6875,64 H 190.5 v -64 z m 0,0"/> <path d="m 41,311.49999 h 79.99999 L 192,176 264.49999,311.49999 H 344.5 L 231.99999,112.00001 H 152 Z"/> <path style="fill:rgb(20.000%,21.176%,26.274%)" d="m 32,304 h 80 l 80,-152 80,152 h 80 L 232,88 h -80 z m 0,0"/> <path d="m 192,164 43.59546,-69.752733 h -87.19092 z m 0,0"/> <path style="fill:rgb(21.176%,48.235%,94.117%)" d="m 192,147.5 40,-64 h -80 z m 0,0"/> <path style="fill:rgb(100.000%,78.039%,18.823%)" d="m 316,240 36,64 h -80 z m 0,0"/> <path style="fill:rgb(99.215%,28.627%,28.627%)" d="m 68,240 44,64 H 32 Z m 0,0"/> <path style="fill:rgb(99.215%,28.627%,28.627%)" d="M 68.000005,240 112,304 H 32.000005 Z m 0,0"/> <path d="M 46.041016 399.33398 L 42.666016 405.33398 L 149.33398 405.33398 L 145.20898 399.33398 L 46.041016 399.33398 z" transform="scale(0.75)" style="opacity:0.3"/> <path d="M 366.79102 399.33398 L 362.66602 405.33398 L 469.33398 405.33398 L 465.95898 399.33398 L 366.79102 399.33398 z" transform="scale(0.75)" style="fill:rgb(0%,0%,0%);opacity:0.3"/> </svg>
