<svg xmlns="http://www.w3.org/2000/svg" xmlns:xlink="http://www.w3.org/1999/xlink" width="384pt" height="384pt" version="1.1" viewBox="0 0 384 384">
 <defs>
  <filter id="alpha" width="100%" height="100%" x="0%" y="0%" filterUnits="objectBoundingBox">
   <feColorMatrix in="SourceGraphic" type="matrix" values="0 0 0 0 1 0 0 0 0 1 0 0 0 0 1 0 0 0 1 0"/>
  </filter>
  <mask id="mask0">
   <g filter="url(#alpha)">
    <rect width="384" height="384" x="0" y="0" style="fill:rgb(0%,0%,0%);fill-opacity:0.2"/>
   </g>
  </mask>
  <clipPath id="clip1">
   <rect width="384" height="384" x="0" y="0"/>
  </clipPath>
  <g id="surface5" clip-path="url(#clip1)">
   <path style="fill:rgb(0%,0%,0%)" d="M 276.609375 59.230469 C 274.339844 59.394531 272.332031 60.519531 270.550781 62.664062 C 268.539062 65.082031 267.523438 68.351562 267.820312 71.253906 C 268.257812 75.535156 269.523438 79.070312 274.6875 89.335938 C 277.527344 94.976562 278.457031 97.234375 279.433594 101.757812 C 280.816406 108.140625 281.363281 113.738281 281.355469 121.152344 C 281.34375 127.976562 280.929688 132.949219 279.84375 139.433594 C 278.890625 145.125 277.257812 151.96875 276.914062 151.855469 C 276.390625 151.679688 275.769531 146.367188 275.296875 138.625 C 274.742188 129.503906 274.277344 125.847656 273.480469 122.253906 C 271.363281 112.6875 266.644531 108.648438 258.832031 109.832031 C 256.640625 110.160156 253.101562 111.234375 252.773438 111.648438 C 252.632812 111.820312 253.417969 114.605469 255.597656 120.847656 C 257.3125 125.746094 258.726562 129.839844 258.726562 129.929688 C 258.726562 130.238281 257.484375 130.664062 257.214844 130.445312 C 257.078125 130.328125 255.835938 128.566406 254.484375 126.601562 C 251.628906 122.453125 250.183594 120.4375 248.226562 118.117188 C 242.96875 111.871094 237.277344 108.890625 231.363281 109.234375 C 229.207031 109.359375 225.953125 110.066406 225.398438 110.546875 C 225.015625 110.875 225.105469 111.429688 232.464844 138.214844 L 240.046875 165.589844 L 238.324219 182.359375 C 237.394531 191.605469 236.503906 199.378906 236.414062 199.632812 C 236.253906 200.078125 236.222656 200.136719 233.179688 200.136719 C 231.46875 200.136719 228 200.007812 225.503906 199.832031 C 219.984375 199.433594 213.097656 199.386719 210.75 199.726562 C 208.367188 200.070312 204.90625 200.933594 201.667969 202.046875 C 191.554688 205.515625 182.695312 211.648438 175.300781 220.433594 C 168.484375 228.527344 162.703125 238.835938 157.019531 253.058594 C 155.3125 257.324219 151.632812 267.558594 150.761719 270.332031 C 148.609375 277.1875 147.417969 284.464844 147.222656 292.351562 C 147.050781 299.371094 147.582031 305.140625 149.039062 311.03125 C 150.75 317.9375 153.296875 323.289062 156.820312 327.800781 C 157.664062 328.878906 158.574219 329.835938 159.550781 330.835938 C 159.585938 330.871094 159.609375 330.894531 159.644531 330.929688 C 159.675781 330.960938 159.71875 331 159.75 331.035156 C 159.769531 331.050781 159.730469 331.105469 159.75 331.128906 C 164.285156 335.671875 169.210938 338.328125 175.5 339.613281 C 179.992188 340.527344 187.828125 340.6875 187.828125 339.824219 C 187.828125 339.679688 186.464844 335.617188 184.792969 330.835938 C 183.121094 326.050781 181.769531 322.0625 181.769531 321.941406 C 181.769531 321.726562 182.601562 321.238281 182.976562 321.238281 C 183.074219 321.238281 184.128906 322.695312 185.296875 324.472656 C 189.996094 331.617188 193.621094 335.707031 197.730469 338.511719 C 200.171875 340.175781 203.367188 341.449219 205.910156 341.839844 C 207.480469 342.078125 211.230469 342.058594 212.777344 341.734375 C 214.6875 341.332031 216.585938 340.703125 216.820312 340.421875 L 204.691406 320.523438 C 212.640625 326.710938 223.074219 332.699219 230.449219 334.773438 C 239.683594 337.363281 248.394531 336.097656 255 331.128906 C 257.089844 329.554688 259.246094 327.429688 259.136719 327.097656 C 259.085938 326.941406 251.410156 323.679688 242.0625 319.820312 C 232.714844 315.957031 225.042969 312.683594 225 312.554688 C 224.875 312.175781 232.242188 312.601562 240.246094 313.457031 C 242.808594 313.726562 246.976562 314.1875 249.539062 314.464844 C 257.777344 315.34375 259.628906 315.472656 265.300781 315.472656 C 271.320312 315.46875 273.957031 315.226562 278.53125 314.265625 C 285.65625 312.761719 293.285156 309.167969 299.53125 304.46875 C 302.074219 302.550781 303.324219 301.378906 303.175781 301.140625 C 303.09375 301.007812 293.074219 301.042969 273.679688 301.140625 C 253.710938 301.238281 244.628906 301.171875 244.289062 301.035156 C 244.234375 301.023438 244.121094 301.046875 244.089844 301.035156 C 243.960938 300.824219 246.089844 295 246.410156 294.671875 C 246.503906 294.574219 247.25 294.816406 248.027344 295.28125 C 261.476562 303.269531 290.441406 301.210938 311.449219 290.734375 C 317.476562 287.726562 321.453125 284.890625 325.394531 280.9375 C 330.105469 276.207031 332.882812 271.039062 333.269531 266.089844 C 333.382812 264.628906 333.328125 264.578125 332.964844 264.578125 C 332.515625 264.578125 325.183594 266.578125 321.257812 267.800781 C 319.808594 268.25 316.09375 269.4375 312.972656 270.425781 C 292.597656 276.871094 284.140625 278.609375 273.070312 278.816406 C 266.742188 278.933594 261.074219 278.550781 261.257812 278.007812 C 261.464844 277.390625 270.070312 274.433594 275.90625 272.957031 C 280.886719 271.695312 283.503906 271.160156 295.089844 268.820312 C 312.21875 265.359375 318.433594 263.75 326.003906 260.734375 C 341.972656 254.371094 351.019531 244.003906 353.871094 228.917969 C 354.613281 224.992188 355.0625 218.113281 354.585938 218.113281 C 354.488281 218.113281 346.289062 222.734375 336.304688 228.308594 C 326.316406 233.878906 318.039062 238.390625 317.917969 238.316406 C 317.640625 238.144531 316.46875 235.519531 316.605469 235.386719 C 316.660156 235.328125 317.941406 234.625 319.535156 233.769531 C 327.195312 229.644531 333.011719 225.308594 339.328125 219.015625 C 351.136719 207.25 358.042969 193.667969 359.730469 179.125 C 360.183594 175.207031 360.039062 168.0625 359.425781 164.476562 C 358.699219 160.226562 357.019531 153.945312 356.507812 153.777344 C 356.390625 153.738281 349.246094 164.027344 340.746094 176.59375 C 322.84375 203.050781 321.902344 204.414062 321.761719 204.273438 C 321.441406 203.949219 325.703125 196.40625 332.871094 184.480469 C 335.972656 179.316406 339.308594 173.726562 340.242188 172.058594 C 342.539062 167.945312 345.769531 161.125 347.003906 157.914062 C 351.34375 146.632812 351.953125 137.054688 348.925781 127.914062 C 348.046875 125.257812 345.933594 120.933594 344.285156 118.421875 C 342.648438 115.925781 340.191406 112.78125 339.9375 112.867188 C 339.824219 112.902344 334.914062 124.496094 329.027344 138.625 L 318.328125 164.277344 L 303.480469 189.625 C 288.632812 215.007812 287.976562 216.238281 287.824219 216.085938 C 287.699219 215.960938 289.058594 212.160156 290.449219 208.714844 C 293.933594 200.09375 297.507812 193.230469 307.3125 176.394531 C 313.574219 165.640625 316.394531 160.609375 318.925781 155.59375 C 326.816406 139.960938 330.621094 127.339844 331.558594 113.570312 C 331.75 110.769531 331.75 109.4375 331.558594 107.617188 C 330.566406 98.105469 327.210938 86.257812 323.671875 79.632812 C 321.617188 75.78125 318.957031 72.710938 316.605469 71.558594 C 315.542969 71.035156 315.191406 70.949219 313.476562 70.949219 C 311.710938 70.949219 311.394531 71.015625 310.042969 71.652344 C 306.746094 73.195312 305.796875 75.625 305.800781 81.859375 C 305.800781 85.199219 306.058594 87.808594 307.113281 95.289062 L 307.816406 100.539062 L 307.722656 106.503906 C 307.609375 112.414062 307.523438 114.320312 306.914062 119.839844 C 305.574219 131.972656 302.273438 145.921875 297.410156 160.738281 C 295.574219 166.324219 292.871094 174.105469 292.570312 174.578125 C 291.867188 175.671875 293.605469 167.652344 297.117188 153.261719 C 302.878906 129.65625 304.25 121.234375 304.488281 109.328125 C 304.652344 101.085938 304.097656 95.398438 302.566406 88.726562 C 301.648438 84.726562 301.289062 83.675781 299.941406 80.945312 C 296.164062 73.28125 289.566406 65.171875 284.179688 61.65625 C 281.402344 59.839844 278.878906 59.0625 276.609375 59.230469 Z M 203.789062 123.671875 C 201.832031 123.695312 199.742188 123.863281 198.539062 124.070312 C 190.960938 125.355469 184.917969 128.152344 181.769531 131.957031 C 179.304688 134.933594 178.609375 138.65625 179.847656 142.257812 C 180.011719 142.734375 180.125 143.183594 180.046875 143.265625 C 179.96875 143.34375 172.546875 144.136719 163.59375 145.082031 C 156.285156 145.847656 152.273438 146.402344 150.152344 146.699219 C 149.867188 146.738281 148.464844 146.871094 148.335938 146.898438 C 148.25 146.914062 147.136719 146.992188 147.128906 147.003906 C 147.109375 147.019531 147.21875 147.328125 147.222656 147.414062 C 147.230469 147.53125 147.199219 147.589844 147.222656 147.613281 C 147.304688 148.277344 147.628906 149.710938 148.441406 152.558594 C 149.882812 157.59375 150.175781 158.617188 149.953125 158.617188 C 149.90625 158.617188 149.152344 158.085938 148.335938 157.503906 C 144.96875 155.085938 141.921875 153.929688 138.644531 153.777344 C 135.027344 153.605469 132.734375 154.585938 130.160156 157.105469 C 130.105469 157.15625 130.003906 157.152344 129.949219 157.210938 C 128.65625 158.503906 128.171875 159.101562 127.324219 160.84375 C 126.089844 163.378906 125.476562 165.632812 125.308594 168.625 C 125.113281 172.113281 125.878906 176.53125 127.125 179.429688 L 127.535156 180.4375 L 129.246094 180.4375 C 133.714844 180.4375 137.234375 174.710938 140.964844 172.960938 C 143.566406 172.316406 148.34375 172.320312 151.570312 172.960938 C 163.195312 175.265625 171.90625 183.15625 171.46875 191.042969 C 171.351562 193.144531 170.601562 194.523438 168.738281 196.398438 C 167.183594 197.957031 165.160156 199.332031 161.671875 201.238281 C 160.445312 201.90625 158.40625 203.066406 157.125 203.769531 C 155.84375 204.46875 154.011719 205.578125 153.082031 206.195312 C 151.238281 207.414062 148.945312 209.445312 148.945312 209.933594 C 148.945312 210.351562 150.089844 210.332031 155.003906 209.828125 C 157.113281 209.609375 158.847656 209.277344 160.664062 209.019531 C 169.476562 207.757812 175.355469 206.058594 179.953125 203.066406 C 184.324219 200.21875 187.601562 195.691406 188.835938 190.9375 C 189.035156 190.164062 189.21875 189.625 189.339844 189.625 C 189.460938 189.625 190.261719 190.039062 191.0625 190.539062 C 196.25 193.765625 200.519531 194.925781 204.09375 194.171875 C 207.289062 193.492188 210.363281 191.570312 216.011719 186.695312 C 217.511719 185.402344 218.8125 184.269531 218.941406 184.269531 C 219.070312 184.269531 220.246094 186.847656 221.566406 189.929688 C 222.886719 193.007812 224.125 195.6875 224.296875 195.894531 C 224.601562 196.253906 224.835938 196.285156 229.640625 195.484375 C 232.371094 195.027344 234.6875 194.472656 234.796875 194.371094 C 235.078125 194.105469 234.027344 190.570312 233.074219 188.3125 C 231.539062 184.667969 228.886719 181.382812 225.703125 179.324219 C 223.792969 178.085938 220.933594 176.75 216.316406 174.988281 C 211.292969 173.066406 208.683594 171.820312 206.308594 170.230469 C 203.953125 168.652344 201.683594 166.5625 201.972656 166.292969 C 202.085938 166.1875 202.898438 165.898438 203.789062 165.589844 C 210.886719 163.125 215.75 158.449219 218.941406 150.941406 C 220.253906 147.847656 221.316406 143.898438 223.078125 136.09375 C 223.878906 132.550781 224.917969 128.554688 225.304688 127.210938 C 225.691406 125.863281 225.960938 124.632812 225.902344 124.480469 C 225.894531 124.460938 225.675781 124.570312 225.609375 124.585938 C 224.902344 124.738281 220.859375 126.59375 210.960938 131.546875 C 202.816406 135.617188 196.023438 138.964844 195.914062 138.929688 C 195.804688 138.890625 198.402344 136.523438 201.667969 133.667969 C 204.933594 130.808594 207.886719 128.253906 208.136719 128.019531 C 208.296875 127.867188 208.269531 127.714844 208.335938 127.515625 C 208.4375 127.214844 208.535156 126.808594 208.535156 125.898438 C 208.535156 124.210938 208.472656 124.097656 207.925781 123.871094 C 207.484375 123.683594 205.746094 123.644531 203.789062 123.671875 Z M 168.644531 185.992188 C 160.28125 187.027344 152.023438 189.015625 144.070312 191.804688 C 135.828125 194.820312 127.601562 198.796875 121.511719 205.28125 C 121.0625 206.042969 118.753906 207.757812 119.648438 208.175781 C 128.605469 205.753906 141.183594 202.25 149.683594 199.84375 C 151.988281 199.1875 153.730469 198.6875 155.742188 198.121094 C 159.421875 197.117188 163.085938 196.054688 166.746094 194.980469 L 169.347656 194.171875 C 170.167969 193.207031 169.695312 190.324219 169.816406 188.652344 C 169.566406 187.765625 170.320312 185.441406 168.644531 185.992188 Z M 64.910156 187.808594 C 64.722656 187.617188 60.832031 188.113281 59.25 188.511719 C 54.753906 189.636719 52.050781 192.332031 50.460938 197.207031 C 50.175781 198.078125 49.957031 198.90625 49.957031 199.117188 C 49.957031 199.589844 50.117188 199.601562 51.878906 199.117188 C 55.542969 198.101562 58.425781 196.394531 60.761719 193.972656 C 62.671875 191.988281 65.273438 188.171875 64.910156 187.808594 Z M 80.847656 189.402344 C 80.570312 189.355469 80.0625 189.367188 79.148438 189.421875 C 76.738281 189.574219 73.625 190.3125 71.671875 191.238281 C 66.09375 193.890625 62.8125 198.695312 61.265625 206.285156 C 60.359375 210.730469 60.21875 213.171875 60.164062 224.976562 C 60.132812 231.136719 60.035156 236.207031 59.953125 236.285156 C 59.875 236.367188 59.585938 236.171875 59.25 235.785156 C 57.992188 234.324219 56.367188 231.726562 54.09375 227.207031 C 53.257812 225.539062 52.585938 224.429688 51.878906 223.164062 C 51.496094 222.476562 50.964844 221.238281 50.765625 220.9375 C 49.53125 219.066406 47.257812 216.71875 45.714844 215.6875 C 44.394531 214.800781 42.410156 214.070312 41.074219 214.070312 C 37.214844 214.070312 33.8125 217.605469 32.789062 222.660156 C 31.804688 227.511719 33.714844 231.527344 37.734375 233.054688 C 38.390625 233.300781 39.410156 233.425781 41.367188 233.464844 C 42.859375 233.492188 44.21875 233.570312 44.296875 233.664062 C 44.375 233.753906 44.707031 234.585938 45.011719 235.480469 C 45.90625 238.085938 48.074219 242.363281 51.375 247.902344 C 54.863281 253.75 57.089844 258.011719 58.042969 260.628906 C 59.0625 263.433594 63.847656 281.9375 64.5 285.578125 C 65.066406 288.742188 65.222656 291.640625 64.910156 293.160156 C 64.773438 293.828125 64.144531 295.730469 63.492188 297.296875 C 61.683594 301.636719 61.550781 303.265625 62.789062 306.695312 C 65.25 313.511719 69.582031 318.140625 75.820312 320.734375 C 77.398438 321.386719 77.65625 321.429688 78.035156 320.535156 C 78.882812 318.527344 79.980469 314.15625 80.355469 311.136719 C 80.96875 306.1875 80.527344 302.667969 77.941406 291.238281 C 76.746094 285.949219 75.796875 279.519531 76.21875 279.519531 C 76.316406 279.519531 77.105469 280.054688 77.941406 280.738281 C 78.777344 281.417969 81.53125 283.621094 84.09375 285.578125 C 90.78125 290.675781 91.613281 291.371094 99.246094 298.914062 C 102.132812 301.761719 104.222656 303.683594 106.019531 305.277344 C 109.59375 308.4375 111.730469 309.804688 114.703125 310.832031 C 116.304688 311.382812 116.964844 311.53125 118.335938 311.535156 C 121.683594 311.535156 123.210938 310.144531 123.386719 306.894531 C 123.511719 304.597656 122.808594 301.960938 120.960938 298.210938 C 119.152344 294.542969 117.707031 292.617188 114.902344 289.925781 C 111.640625 286.792969 108.617188 284.578125 98.847656 278.3125 C 90.53125 272.976562 86.816406 270.230469 83.589844 266.992188 C 79.335938 262.722656 77.535156 259.183594 77.332031 254.570312 C 77.164062 250.769531 78.109375 248.351562 80.566406 245.886719 C 83.082031 243.355469 85.859375 241.957031 93.996094 239.125 C 102.59375 236.128906 105.800781 234.246094 107.226562 231.34375 C 107.722656 230.332031 107.730469 230 107.730469 228.308594 C 107.730469 226.675781 107.738281 226.253906 107.332031 225.484375 C 105.457031 221.910156 99.820312 219.765625 90.667969 219.226562 L 88.335938 219.121094 L 80.566406 226.902344 C 76.292969 231.167969 72.742188 234.535156 72.679688 234.472656 C 72.613281 234.40625 74.484375 224.441406 76.828125 212.253906 C 79.171875 200.0625 81.164062 189.933594 81.164062 189.730469 C 81.164062 189.554688 81.125 189.445312 80.847656 189.402344 Z M 95.613281 203.664062 L 95.71875 204.378906 C 95.847656 205.738281 96.550781 208.957031 97.125 210.53125 C 98.9375 215.496094 102.078125 218.546875 107.226562 220.234375 C 108.449219 220.632812 109.015625 220.664062 109.148438 220.433594 C 109.339844 220.101562 108.84375 215.371094 108.445312 213.671875 C 107.261719 208.628906 104.226562 205.582031 99.046875 204.273438 C 98.035156 204.015625 96.867188 203.808594 96.421875 203.769531 Z M 25.3125 224.675781 C 25.101562 224.757812 25.050781 224.957031 24.914062 225.285156 C 24.546875 226.167969 24 229.535156 24 230.839844 C 24 234.269531 25.566406 237.109375 28.546875 239.125 C 29.699219 239.902344 29.867188 239.910156 29.859375 239.417969 C 29.847656 238.535156 28.25 225.058594 28.136719 224.875 C 28.066406 224.757812 27.402344 224.675781 26.625 224.675781 C 25.921875 224.675781 25.523438 224.589844 25.3125 224.675781 Z M 133.382812 269.21875 C 133.035156 269.21875 131.222656 271.074219 130.359375 272.347656 C 127.976562 275.855469 126.117188 281.082031 125.003906 287.5 C 124.609375 289.777344 124.613281 290.839844 124.605469 295.785156 C 124.597656 302.03125 124.738281 303.449219 125.917969 307 C 127.21875 310.910156 129.378906 313.507812 131.976562 314.464844 C 132.394531 314.617188 133.128906 314.761719 133.6875 314.769531 C 136.949219 314.800781 139.96875 311.1875 141.363281 305.6875 C 142.550781 301.007812 141.671875 297.070312 137.332031 287.910156 C 134.554688 282.042969 133.816406 279.726562 133.382812 276.191406 C 133.171875 274.476562 133.167969 272.773438 133.488281 270.226562 C 133.578125 269.511719 133.53125 269.21875 133.382812 269.21875 Z M 51.773438 307.703125 C 51.5 307.703125 51.515625 308.273438 51.972656 310.527344 C 52.71875 314.195312 54.050781 316.40625 56.519531 317.699219 C 58.035156 318.492188 58.992188 318.726562 61.265625 319.117188 C 62.101562 319.257812 62.902344 319.410156 62.988281 319.421875 C 63.582031 319.5 63.101562 317.113281 62.074219 314.96875 C 61.125 312.984375 58.859375 310.820312 56.519531 309.625 C 54.816406 308.75 52.175781 307.703125 51.773438 307.703125 Z M 51.773438 307.703125"/>
  </g>
  <mask id="mask1">
   <g filter="url(#alpha)">
    <rect width="384" height="384" x="0" y="0" style="fill:rgb(0%,0%,0%);fill-opacity:0.101961"/>
   </g>
  </mask>
  <clipPath id="clip2">
   <rect width="384" height="384" x="0" y="0"/>
  </clipPath>
  <g id="surface8" clip-path="url(#clip2)">
   <path style="fill:rgb(100%,100%,100%)" d="M 276.609375 53.226562 C 274.339844 53.390625 272.332031 54.515625 270.550781 56.660156 C 268.539062 59.082031 267.523438 62.351562 267.820312 65.25 C 267.894531 65.984375 268.042969 66.710938 268.183594 67.441406 C 268.621094 65.722656 269.394531 64.050781 270.550781 62.660156 C 272.332031 60.515625 274.339844 59.390625 276.609375 59.226562 C 278.878906 59.0625 281.402344 59.839844 284.179688 61.652344 C 289.566406 65.171875 296.164062 73.28125 299.941406 80.941406 C 301.289062 83.675781 301.648438 84.722656 302.566406 88.722656 C 303.714844 93.722656 304.316406 98.175781 304.476562 103.558594 C 304.476562 103.476562 304.488281 103.40625 304.488281 103.324219 C 304.652344 95.085938 304.097656 89.394531 302.566406 82.722656 C 301.648438 78.722656 301.289062 77.675781 299.941406 74.941406 C 298.054688 71.109375 295.460938 67.164062 292.664062 63.738281 C 289.871094 60.3125 286.875 57.410156 284.179688 55.652344 C 281.402344 53.839844 278.878906 53.0625 276.609375 53.226562 Z M 313.476562 64.945312 C 311.710938 64.945312 311.394531 65.015625 310.042969 65.648438 C 306.746094 67.191406 305.796875 69.621094 305.800781 75.855469 C 305.800781 76.824219 305.898438 77.871094 305.953125 78.855469 C 306.28125 74.863281 307.363281 72.902344 310.042969 71.648438 C 311.394531 71.015625 311.710938 70.945312 313.476562 70.945312 C 315.191406 70.945312 315.539062 71.03125 316.605469 71.554688 C 318.957031 72.710938 321.617188 75.777344 323.671875 79.628906 C 327.207031 86.246094 330.5625 98.066406 331.558594 107.566406 C 331.75 104.765625 331.75 103.4375 331.558594 101.613281 C 330.566406 92.105469 327.210938 80.253906 323.671875 73.628906 C 321.617188 69.777344 318.957031 66.710938 316.605469 65.554688 C 315.539062 65.03125 315.191406 64.945312 313.476562 64.945312 Z M 307.734375 99.902344 L 307.722656 100.5 C 307.609375 106.410156 307.523438 108.320312 306.914062 113.835938 C 305.574219 125.96875 302.273438 139.921875 297.410156 154.734375 C 296.675781 156.96875 296.277344 157.9375 295.476562 160.265625 C 293.328125 169.363281 292.015625 175.4375 292.570312 174.574219 C 292.871094 174.105469 295.574219 166.324219 297.410156 160.734375 C 302.273438 145.921875 305.574219 131.96875 306.914062 119.835938 C 307.523438 114.320312 307.609375 112.410156 307.722656 106.5 L 307.816406 100.535156 Z M 231.363281 103.230469 C 229.207031 103.355469 225.953125 104.066406 225.398438 104.542969 C 225.191406 104.71875 225.386719 105.863281 226.5 110.179688 C 227.730469 109.765625 229.703125 109.328125 231.363281 109.230469 C 237.277344 108.886719 242.96875 111.867188 248.226562 118.113281 C 250.183594 120.433594 251.628906 122.449219 254.484375 126.597656 C 255.835938 128.5625 257.078125 130.328125 257.214844 130.441406 C 257.484375 130.664062 258.726562 130.234375 258.726562 129.925781 C 258.726562 129.863281 257.519531 126.417969 256.476562 123.410156 C 255.996094 122.753906 255.472656 122.035156 254.484375 120.597656 C 251.628906 116.449219 250.183594 114.433594 248.226562 112.113281 C 242.96875 105.867188 237.277344 102.886719 231.363281 103.230469 Z M 261.621094 103.628906 C 260.742188 103.613281 259.808594 103.679688 258.832031 103.828125 C 256.640625 104.160156 253.101562 105.234375 252.773438 105.644531 C 252.675781 105.769531 253.265625 107.75 254.238281 110.730469 C 254.257812 110.789062 254.242188 110.777344 254.261719 110.835938 C 254.28125 110.894531 254.3125 110.964844 254.332031 111.023438 C 255.636719 110.558594 257.371094 110.050781 258.832031 109.828125 C 266.644531 108.644531 271.363281 112.6875 273.480469 122.25 C 274.277344 125.84375 274.742188 129.5 275.296875 138.621094 C 275.769531 146.367188 276.390625 151.675781 276.914062 151.851562 C 277.257812 151.964844 278.890625 145.121094 279.84375 139.429688 C 280.929688 132.945312 281.34375 127.976562 281.355469 121.148438 C 281.355469 120.113281 281.257812 119.304688 281.238281 118.335938 C 281.238281 118.410156 281.230469 118.484375 281.226562 118.558594 C 281.160156 121 281.046875 123.488281 280.828125 125.753906 C 280.824219 125.777344 280.832031 125.800781 280.828125 125.824219 C 280.589844 128.273438 280.300781 130.695312 279.84375 133.429688 C 278.890625 139.121094 277.257812 145.964844 276.914062 145.851562 C 276.390625 145.675781 275.769531 140.367188 275.296875 132.621094 C 274.742188 123.5 274.277344 119.84375 273.480469 116.25 C 273.230469 115.121094 272.9375 114.085938 272.613281 113.109375 C 272.507812 112.792969 272.386719 112.519531 272.273438 112.21875 C 272.039062 111.59375 271.792969 110.980469 271.523438 110.425781 C 271.371094 110.109375 271.207031 109.828125 271.042969 109.535156 C 270.78125 109.066406 270.511719 108.609375 270.222656 108.199219 C 270.027344 107.921875 269.820312 107.664062 269.613281 107.414062 C 269.300781 107.039062 268.972656 106.691406 268.628906 106.371094 C 268.417969 106.175781 268.207031 105.984375 267.984375 105.808594 C 267.613281 105.515625 267.21875 105.269531 266.8125 105.035156 C 266.578125 104.898438 266.34375 104.753906 266.097656 104.636719 C 265.660156 104.433594 265.1875 104.273438 264.714844 104.132812 C 264.695312 104.125 264.675781 104.117188 264.65625 104.109375 C 264.53125 104.070312 264.40625 104.042969 264.28125 104.003906 C 264.179688 103.972656 264.082031 103.933594 263.976562 103.910156 C 263.96875 103.910156 263.960938 103.898438 263.953125 103.898438 C 263.210938 103.738281 262.445312 103.644531 261.621094 103.628906 Z M 339.9375 106.863281 C 339.824219 106.902344 334.914062 118.496094 329.027344 132.621094 L 318.328125 158.273438 L 303.480469 183.621094 C 300.289062 189.074219 299.765625 189.96875 297.75 193.417969 C 297.746094 193.425781 297.742188 193.433594 297.738281 193.441406 C 294.683594 199.175781 292.386719 203.914062 290.449219 208.710938 C 289.058594 212.15625 287.699219 215.957031 287.824219 216.082031 C 287.976562 216.234375 288.632812 215.007812 303.480469 189.621094 L 318.328125 164.273438 L 329.027344 138.621094 C 334.914062 124.496094 339.824219 112.902344 339.9375 112.863281 C 340.191406 112.777344 342.648438 115.925781 344.285156 118.417969 C 345.933594 120.933594 348.046875 125.253906 348.925781 127.910156 C 349.882812 130.796875 350.433594 133.734375 350.660156 136.746094 C 350.75 135.609375 350.78125 134.492188 350.777344 133.382812 C 350.777344 133.203125 350.78125 133.019531 350.777344 132.84375 C 350.761719 131.875 350.679688 130.921875 350.589844 129.972656 C 350.566406 129.75 350.558594 129.527344 350.542969 129.304688 C 350.539062 129.285156 350.535156 129.265625 350.53125 129.246094 C 350.527344 129.1875 350.527344 129.128906 350.519531 129.070312 C 350.410156 128.160156 350.238281 127.261719 350.0625 126.363281 C 350.007812 126.085938 349.984375 125.796875 349.921875 125.519531 C 349.917969 125.5 349.914062 125.480469 349.910156 125.460938 C 349.644531 124.269531 349.316406 123.085938 348.925781 121.910156 C 348.046875 119.253906 345.933594 114.933594 344.285156 112.417969 C 342.648438 109.925781 340.191406 106.777344 339.9375 106.863281 Z M 203.789062 117.667969 C 201.832031 117.691406 199.742188 117.863281 198.539062 118.066406 C 190.960938 119.351562 184.917969 122.148438 181.769531 125.953125 C 181.167969 126.683594 180.683594 127.457031 180.292969 128.261719 C 180.007812 128.851562 179.851562 129.46875 179.683594 130.089844 C 179.632812 130.285156 179.523438 130.464844 179.484375 130.664062 C 179.429688 130.9375 179.457031 131.21875 179.425781 131.496094 C 179.382812 131.9375 179.316406 132.375 179.320312 132.820312 C 179.320312 132.949219 179.300781 133.078125 179.308594 133.207031 C 179.34375 133.996094 179.488281 134.785156 179.707031 135.574219 C 179.71875 135.621094 179.71875 135.667969 179.730469 135.714844 C 179.742188 135.75 179.742188 135.785156 179.753906 135.820312 C 180.164062 134.457031 180.789062 133.136719 181.769531 131.953125 C 184.917969 128.148438 190.960938 125.351562 198.539062 124.066406 C 199.742188 123.863281 201.832031 123.691406 203.789062 123.667969 C 204.886719 123.65625 205.34375 123.742188 206.109375 123.785156 L 206.121094 123.785156 C 206.652344 123.320312 208.058594 122.089844 208.136719 122.015625 C 208.296875 121.863281 208.269531 121.710938 208.335938 121.511719 C 208.4375 121.210938 208.535156 120.808594 208.535156 119.894531 C 208.535156 118.210938 208.472656 118.09375 207.925781 117.867188 C 207.484375 117.683594 205.746094 117.644531 203.789062 117.667969 Z M 225.902344 118.476562 C 225.894531 118.460938 225.675781 118.566406 225.609375 118.582031 C 224.902344 118.734375 220.859375 120.59375 210.960938 125.542969 C 209.589844 126.226562 209.699219 126.152344 208.429688 126.785156 C 208.394531 127 208.382812 127.378906 208.335938 127.511719 C 208.269531 127.710938 208.296875 127.863281 208.136719 128.015625 C 207.886719 128.25 204.933594 130.808594 201.667969 133.664062 C 198.402344 136.519531 195.804688 138.890625 195.914062 138.925781 C 196.023438 138.960938 202.816406 135.617188 210.960938 131.542969 C 219.214844 127.417969 222.75 125.777344 224.320312 125.144531 C 224.671875 123.777344 225.132812 121.804688 225.304688 121.207031 C 225.691406 119.859375 225.960938 118.628906 225.902344 118.476562 Z M 179.390625 137.332031 C 178.761719 137.460938 172.1875 138.175781 163.59375 139.078125 C 156.285156 139.847656 152.273438 140.398438 150.152344 140.695312 C 149.867188 140.734375 148.464844 140.871094 148.335938 140.894531 C 148.25 140.910156 147.136719 140.992188 147.128906 141 C 147.109375 141.019531 147.21875 141.328125 147.222656 141.410156 C 147.230469 141.527344 147.199219 141.589844 147.222656 141.609375 C 147.304688 142.277344 147.628906 143.707031 148.441406 146.554688 C 148.488281 146.71875 148.492188 146.71875 148.535156 146.871094 C 148.871094 146.832031 149.898438 146.730469 150.152344 146.695312 C 152.273438 146.398438 156.285156 145.847656 163.59375 145.078125 C 172.546875 144.136719 179.96875 143.339844 180.046875 143.261719 C 180.125 143.183594 180.011719 142.730469 179.847656 142.253906 C 179.28125 140.609375 179.164062 138.945312 179.390625 137.332031 Z M 138.644531 147.773438 C 135.027344 147.605469 132.734375 148.582031 130.160156 151.101562 C 130.105469 151.15625 130.003906 151.152344 129.949219 151.207031 C 128.65625 152.5 128.171875 153.097656 127.324219 154.839844 C 126.089844 157.375 125.476562 159.632812 125.308594 162.621094 C 125.230469 163.992188 125.339844 165.507812 125.53125 167.015625 C 125.535156 167.039062 125.527344 167.0625 125.53125 167.085938 C 125.808594 164.855469 126.324219 162.894531 127.324219 160.839844 C 128.171875 159.097656 128.65625 158.5 129.949219 157.207031 C 130.003906 157.152344 130.105469 157.15625 130.160156 157.101562 C 132.734375 154.582031 135.027344 153.605469 138.644531 153.773438 C 141.921875 153.925781 144.96875 155.082031 148.335938 157.5 C 149.152344 158.085938 149.90625 158.613281 149.953125 158.613281 C 150.175781 158.613281 149.882812 157.589844 148.441406 152.554688 C 148.25 151.878906 148.289062 151.90625 148.148438 151.382812 C 147.324219 150.800781 146.515625 150.296875 145.722656 149.859375 C 144.945312 149.433594 144.179688 149.074219 143.414062 148.78125 C 143.398438 148.773438 143.382812 148.765625 143.367188 148.757812 C 143.105469 148.660156 142.84375 148.609375 142.582031 148.523438 C 142.324219 148.441406 142.066406 148.378906 141.808594 148.300781 C 141.546875 148.222656 141.285156 148.132812 141.023438 148.078125 C 140.238281 147.914062 139.449219 147.8125 138.644531 147.773438 Z M 356.507812 147.773438 C 356.398438 147.738281 349.507812 157.703125 341.671875 169.253906 C 341.191406 170.183594 340.675781 171.277344 340.242188 172.054688 C 339.308594 173.726562 335.972656 179.3125 332.871094 184.476562 C 325.703125 196.402344 321.441406 203.949219 321.761719 204.269531 C 321.902344 204.410156 322.84375 203.046875 340.746094 176.589844 C 349.246094 164.023438 356.390625 153.734375 356.507812 153.773438 C 357.019531 153.945312 358.699219 160.222656 359.425781 164.472656 C 359.65625 165.816406 359.746094 167.882812 359.835938 169.863281 C 359.90625 168.070312 359.917969 166.125 359.871094 164.261719 C 359.785156 162.113281 359.671875 159.914062 359.425781 158.472656 C 358.699219 154.222656 357.019531 147.945312 356.507812 147.773438 Z M 239.601562 163.957031 L 238.324219 176.355469 C 237.394531 185.601562 236.503906 193.378906 236.414062 193.628906 C 236.300781 193.945312 235.855469 194.042969 234.761719 194.085938 L 234.75 194.085938 C 234.296875 194.105469 234.066406 194.132812 233.179688 194.132812 C 231.46875 194.132812 228 194.007812 225.503906 193.828125 C 224.796875 193.777344 224.050781 193.785156 223.3125 193.746094 C 221.164062 193.632812 218.949219 193.515625 216.9375 193.5 C 216.578125 193.496094 216.460938 193.535156 216.117188 193.535156 C 213.875 193.539062 211.765625 193.574219 210.75 193.722656 C 208.367188 194.066406 204.90625 194.933594 201.667969 196.042969 C 199.1875 196.894531 196.8125 197.964844 194.484375 199.136719 C 194.074219 199.351562 193.664062 199.5625 193.253906 199.78125 C 191.566406 200.683594 189.921875 201.671875 188.320312 202.746094 C 187.820312 203.070312 187.320312 203.394531 186.832031 203.742188 C 184.863281 205.152344 182.941406 206.65625 181.113281 208.335938 C 179.085938 210.199219 177.148438 212.234375 175.300781 214.429688 C 168.484375 222.523438 162.703125 232.832031 157.019531 247.054688 C 155.3125 251.324219 151.632812 261.554688 150.761719 264.328125 C 148.609375 271.183594 147.417969 278.464844 147.222656 286.347656 C 147.175781 288.238281 147.199219 290.027344 147.257812 291.761719 C 147.496094 284.109375 148.664062 277.011719 150.761719 270.328125 C 151.632812 267.554688 155.3125 257.324219 157.019531 253.054688 C 162.703125 238.832031 168.484375 228.523438 175.300781 220.429688 C 182.695312 211.648438 191.554688 205.511719 201.667969 202.042969 C 204.90625 200.933594 208.367188 200.066406 210.75 199.722656 C 213.097656 199.382812 219.984375 199.433594 225.503906 199.828125 C 228 200.007812 231.46875 200.132812 233.179688 200.132812 C 236.222656 200.132812 236.253906 200.074219 236.414062 199.628906 C 236.503906 199.378906 237.394531 191.601562 238.324219 182.355469 L 240.046875 165.585938 Z M 206.496094 164.332031 C 205.601562 164.757812 204.765625 165.246094 203.789062 165.585938 C 202.898438 165.894531 202.085938 166.183594 201.972656 166.289062 C 201.683594 166.558594 203.953125 168.648438 206.308594 170.226562 C 208.683594 171.820312 211.292969 173.0625 216.316406 174.984375 C 220.933594 176.75 223.792969 178.085938 225.703125 179.320312 C 228.886719 181.382812 231.539062 184.667969 233.074219 188.308594 C 233.125 188.425781 233.164062 188.582031 233.214844 188.707031 C 233.613281 188.605469 234.761719 188.398438 234.796875 188.367188 C 235.078125 188.101562 234.027344 184.570312 233.074219 182.308594 C 231.539062 178.667969 228.886719 175.382812 225.703125 173.320312 C 223.792969 172.085938 220.933594 170.75 216.316406 168.984375 C 213.855469 168.042969 212.003906 167.269531 210.445312 166.535156 C 208.894531 165.800781 207.660156 165.101562 206.496094 164.332031 Z M 168.644531 179.988281 C 167.90625 180.078125 167.175781 180.222656 166.441406 180.328125 C 162.664062 180.875 158.914062 181.605469 155.203125 182.507812 C 155.105469 182.53125 155.007812 182.554688 154.910156 182.578125 C 151.246094 183.480469 147.628906 184.554688 144.070312 185.800781 C 135.828125 188.816406 127.601562 192.792969 121.511719 199.277344 C 121.0625 200.042969 118.753906 201.753906 119.648438 202.171875 C 122.128906 201.5 125.09375 200.652344 127.96875 199.863281 C 132.898438 196.429688 138.453125 193.855469 144.070312 191.800781 C 152.023438 189.011719 160.28125 187.027344 168.644531 185.988281 C 169.480469 185.714844 169.71875 186.160156 169.769531 186.785156 C 169.769531 186.777344 169.769531 186.769531 169.769531 186.761719 C 169.839844 186.109375 169.851562 185.417969 169.828125 184.664062 C 169.804688 183.953125 169.777344 183.207031 169.816406 182.648438 C 169.566406 181.765625 170.320312 179.441406 168.644531 179.988281 Z M 64.910156 181.804688 C 64.722656 181.617188 60.832031 182.113281 59.25 182.507812 C 54.753906 183.632812 52.050781 186.328125 50.460938 191.203125 C 50.175781 192.078125 49.957031 192.90625 49.957031 193.113281 C 49.957031 193.585938 50.117188 193.601562 51.878906 193.113281 C 52.175781 193.03125 52.433594 192.910156 52.722656 192.820312 C 54.308594 190.667969 56.382812 189.226562 59.25 188.507812 C 59.515625 188.441406 60.007812 188.378906 60.375 188.308594 C 60.496094 188.1875 60.640625 188.09375 60.761719 187.96875 C 62.671875 185.988281 65.273438 182.167969 64.910156 181.804688 Z M 80.847656 183.398438 C 80.570312 183.351562 80.0625 183.363281 79.148438 183.421875 C 76.738281 183.570312 73.625 184.308594 71.671875 185.238281 C 66.09375 187.886719 62.8125 192.691406 61.265625 200.285156 C 60.359375 204.726562 60.21875 207.167969 60.164062 218.976562 C 60.132812 225.136719 60.035156 230.207031 59.953125 230.285156 C 59.875 230.363281 59.585938 230.171875 59.25 229.78125 C 57.992188 228.320312 56.367188 225.722656 54.09375 221.203125 C 53.257812 219.539062 52.585938 218.429688 51.878906 217.160156 C 51.496094 216.476562 50.964844 215.234375 50.765625 214.933594 C 49.53125 213.0625 47.257812 210.714844 45.714844 209.683594 C 44.394531 208.800781 42.410156 208.066406 41.074219 208.066406 C 37.214844 208.066406 33.8125 211.605469 32.789062 216.65625 C 32.589844 217.648438 32.578125 218.574219 32.613281 219.480469 C 32.675781 220.316406 32.828125 221.117188 33.058594 221.871094 C 34.273438 217.273438 37.433594 214.066406 41.074219 214.066406 C 42.410156 214.066406 44.394531 214.800781 45.714844 215.683594 C 47.257812 216.714844 49.53125 219.0625 50.765625 220.933594 C 50.964844 221.234375 51.496094 222.476562 51.878906 223.160156 C 52.585938 224.429688 53.257812 225.539062 54.09375 227.203125 C 56.367188 231.722656 57.992188 234.320312 59.25 235.78125 C 59.585938 236.171875 59.875 236.363281 59.953125 236.285156 C 60.035156 236.207031 60.132812 231.136719 60.164062 224.976562 C 60.21875 213.167969 60.359375 210.726562 61.265625 206.285156 C 62.8125 198.691406 66.09375 193.886719 71.671875 191.238281 C 73.625 190.308594 76.738281 189.570312 79.148438 189.421875 C 79.648438 189.390625 79.789062 189.414062 80.074219 189.410156 C 80.300781 188.222656 81.164062 183.777344 81.164062 183.726562 C 81.164062 183.550781 81.125 183.445312 80.847656 183.398438 Z M 170.941406 187.335938 C 170.9375 187.34375 170.933594 187.351562 170.929688 187.359375 C 170.699219 187.902344 170.230469 188.460938 169.816406 189 L 169.816406 189.011719 C 169.46875 189.464844 169.234375 189.894531 168.738281 190.394531 C 167.183594 191.957031 165.160156 193.332031 161.671875 195.234375 C 160.492188 195.878906 158.585938 196.964844 157.300781 197.671875 C 157.25 197.699219 157.175781 197.738281 157.125 197.765625 C 155.84375 198.46875 154.011719 199.574219 153.082031 200.191406 C 151.238281 201.414062 148.945312 203.445312 148.945312 203.929688 C 148.945312 204.347656 150.089844 204.328125 155.003906 203.824219 C 156.011719 203.722656 156.824219 203.574219 157.710938 203.4375 C 158.972656 202.738281 160.605469 201.816406 161.671875 201.234375 C 165.160156 199.332031 167.183594 197.957031 168.738281 196.394531 C 170.601562 194.523438 171.351562 193.140625 171.46875 191.039062 C 171.539062 189.792969 171.304688 188.558594 170.941406 187.335938 Z M 95.613281 197.660156 L 95.71875 198.375 C 95.828125 199.566406 96.394531 202.058594 96.914062 203.742188 C 96.925781 203.78125 96.925781 203.832031 96.9375 203.871094 L 96.949219 203.871094 C 97.507812 203.953125 98.238281 204.066406 99.046875 204.269531 C 104.226562 205.582031 107.261719 208.625 108.445312 213.667969 C 108.492188 213.863281 108.527344 214.289062 108.574219 214.558594 C 108.578125 214.558594 108.59375 214.570312 108.597656 214.570312 C 108.894531 214.59375 109.082031 214.542969 109.148438 214.429688 C 109.339844 214.097656 108.84375 209.371094 108.445312 207.667969 C 107.261719 202.625 104.226562 199.582031 99.046875 198.269531 C 98.035156 198.015625 96.867188 197.804688 96.421875 197.765625 Z M 354.585938 212.109375 C 354.488281 212.109375 346.289062 216.730469 336.304688 222.304688 C 335.667969 222.660156 335.753906 222.59375 335.132812 222.9375 C 335.125 222.941406 335.117188 222.945312 335.109375 222.949219 C 330.296875 227.210938 325.46875 230.570312 319.535156 233.765625 C 317.941406 234.625 316.660156 235.328125 316.605469 235.382812 C 316.46875 235.519531 317.640625 238.140625 317.917969 238.3125 C 318.039062 238.386719 326.316406 233.878906 336.304688 228.304688 C 346.203125 222.78125 354.183594 218.269531 354.421875 218.191406 C 354.425781 218.132812 354.441406 218.085938 354.445312 218.027344 C 354.738281 214.953125 354.890625 212.109375 354.585938 212.109375 Z M 88.335938 213.117188 L 84 217.464844 L 80.566406 220.898438 C 77.03125 224.429688 75.019531 226.289062 74.039062 227.15625 L 74.039062 227.167969 C 73.691406 229.066406 72.660156 234.449219 72.679688 234.46875 C 72.742188 234.53125 76.292969 231.167969 80.566406 226.898438 L 88.335938 219.117188 L 90.667969 219.222656 C 99.683594 219.753906 105.269531 221.851562 107.226562 225.328125 C 107.472656 224.828125 107.59375 224.492188 107.660156 224.074219 C 107.722656 223.652344 107.730469 223.152344 107.730469 222.304688 C 107.730469 221.304688 107.691406 220.773438 107.601562 220.324219 C 107.457031 220.28125 107.394531 220.285156 107.226562 220.230469 C 107.324219 219.929688 107.269531 219.703125 107.296875 219.433594 L 107.296875 219.421875 C 107.285156 219.398438 107.261719 219.375 107.25 219.351562 C 106.964844 218.84375 106.601562 218.367188 106.148438 217.921875 C 106.113281 217.886719 106.066406 217.851562 106.03125 217.816406 C 105.601562 217.410156 105.082031 217.042969 104.519531 216.691406 C 104.238281 216.507812 103.875 216.359375 103.558594 216.1875 C 102.355469 215.570312 100.976562 215.019531 99.339844 214.582031 C 99.316406 214.574219 99.292969 214.566406 99.269531 214.558594 C 99.257812 214.554688 99.246094 214.546875 99.234375 214.546875 C 99.222656 214.542969 99.210938 214.550781 99.199219 214.546875 C 98.089844 214.253906 96.894531 214 95.613281 213.785156 C 94.070312 213.550781 92.492188 213.332031 90.667969 213.222656 Z M 25.3125 218.671875 C 25.101562 218.753906 25.050781 218.953125 24.914062 219.28125 C 24.546875 220.164062 24 223.53125 24 224.835938 C 24 225.792969 24.15625 226.695312 24.398438 227.554688 C 24.566406 226.609375 24.757812 225.664062 24.914062 225.28125 C 25.050781 224.953125 25.101562 224.753906 25.3125 224.671875 C 25.523438 224.589844 25.921875 224.671875 26.625 224.671875 C 27.402344 224.671875 28.066406 224.757812 28.136719 224.871094 C 28.203125 224.980469 28.6875 229.417969 29.15625 233.472656 C 29.167969 233.480469 29.167969 233.480469 29.179688 233.484375 C 29.402344 233.605469 29.574219 233.675781 29.683594 233.671875 C 29.800781 233.667969 29.863281 233.589844 29.859375 233.414062 C 29.847656 232.535156 28.25 219.054688 28.136719 218.871094 C 28.066406 218.757812 27.402344 218.671875 26.625 218.671875 C 25.921875 218.671875 25.523438 218.589844 25.3125 218.671875 Z M 77.671875 250.945312 C 77.417969 252.03125 77.269531 253.1875 77.332031 254.566406 C 77.535156 259.179688 79.335938 262.71875 83.589844 266.988281 C 86.816406 270.226562 90.53125 272.972656 98.847656 278.308594 C 108.617188 284.574219 111.640625 286.789062 114.902344 289.921875 C 117.707031 292.613281 119.152344 294.539062 120.960938 298.207031 C 121.886719 300.082031 122.527344 301.679688 122.917969 303.09375 C 123.167969 302.480469 123.339844 301.761719 123.386719 300.890625 C 123.511719 298.597656 122.808594 295.957031 120.960938 292.207031 C 119.152344 288.539062 117.707031 286.613281 114.902344 283.921875 C 111.640625 280.789062 108.617188 278.574219 98.847656 272.308594 C 90.53125 266.972656 86.816406 264.226562 83.589844 260.988281 C 82.65625 260.050781 81.875 259.144531 81.175781 258.257812 C 80.78125 257.761719 80.460938 257.269531 80.132812 256.78125 C 79.890625 256.414062 79.636719 256.035156 79.429688 255.667969 C 79.070312 255.042969 78.773438 254.394531 78.515625 253.757812 C 78.441406 253.570312 78.371094 253.382812 78.304688 253.195312 C 78.042969 252.464844 77.816406 251.710938 77.671875 250.945312 Z M 332.964844 258.574219 C 332.75 258.574219 329.59375 259.503906 327.339844 260.121094 L 327.328125 260.121094 C 327.320312 260.125 327.3125 260.128906 327.304688 260.132812 C 324.878906 260.796875 323.285156 261.167969 321.257812 261.796875 C 319.808594 262.246094 316.09375 263.433594 312.972656 264.421875 C 310.902344 265.078125 309.421875 265.488281 307.582031 266.050781 C 307.546875 266.058594 307.523438 266.066406 307.488281 266.074219 C 307.4375 266.089844 307.386719 266.105469 307.335938 266.121094 C 297.289062 269.179688 290.117188 270.960938 284.003906 271.851562 C 282.023438 272.140625 279.980469 272.371094 278.0625 272.507812 C 278.023438 272.511719 277.984375 272.515625 277.945312 272.519531 C 277.457031 272.640625 276.433594 272.820312 275.90625 272.953125 C 270.070312 274.429688 261.464844 277.386719 261.257812 278.003906 C 261.074219 278.550781 266.742188 278.929688 273.070312 278.8125 C 284.140625 278.605469 292.597656 276.867188 312.972656 270.421875 C 316.09375 269.433594 319.808594 268.246094 321.257812 267.796875 C 324.902344 266.664062 330.835938 265.0625 332.121094 264.808594 L 332.132812 264.808594 C 332.136719 264.792969 332.140625 264.777344 332.144531 264.761719 C 332.367188 264.15625 332.550781 263.550781 332.71875 262.945312 C 332.964844 261.988281 333.195312 261.03125 333.269531 260.085938 C 333.382812 258.625 333.328125 258.574219 332.964844 258.574219 Z M 133.382812 263.214844 C 133.035156 263.214844 131.222656 265.070312 130.359375 266.34375 C 127.976562 269.855469 126.117188 275.078125 125.003906 281.496094 C 124.609375 283.773438 124.613281 284.839844 124.605469 289.78125 C 124.605469 290.515625 124.648438 290.726562 124.652344 291.339844 C 124.695312 289.898438 124.78125 288.789062 125.003906 287.496094 C 126.117188 281.078125 127.976562 275.855469 130.359375 272.34375 C 131.207031 271.09375 132.945312 269.3125 133.335938 269.25 C 133.226562 267.820312 133.226562 266.324219 133.488281 264.222656 C 133.578125 263.507812 133.53125 263.214844 133.382812 263.214844 Z M 133.464844 270.5625 C 133.191406 272.902344 133.183594 274.5625 133.382812 276.1875 C 133.816406 279.726562 134.554688 282.042969 137.332031 287.90625 C 139.628906 292.753906 140.902344 296.105469 141.46875 298.910156 C 141.691406 297.820312 141.800781 296.75 141.773438 295.628906 C 141.746094 294.507812 141.585938 293.332031 141.269531 292.019531 C 140.953125 290.707031 140.476562 289.261719 139.828125 287.601562 C 139.179688 285.941406 138.355469 284.070312 137.332031 281.90625 C 135.980469 279.050781 135.152344 277.078125 134.566406 275.355469 C 133.996094 273.671875 133.683594 272.207031 133.464844 270.5625 Z M 76.21875 279.515625 C 75.796875 279.515625 76.746094 285.945312 77.941406 291.234375 C 79.375 297.566406 80.101562 301.402344 80.402344 304.464844 C 80.40625 304.433594 80.398438 304.402344 80.402344 304.371094 C 80.515625 303.28125 80.589844 302.230469 80.578125 301.125 C 80.574219 300.847656 80.53125 300.519531 80.519531 300.234375 C 80.484375 299.3125 80.433594 298.382812 80.296875 297.292969 C 80.292969 297.269531 80.289062 297.234375 80.285156 297.210938 C 80.277344 297.160156 80.246094 297.050781 80.238281 297 C 79.863281 294.152344 79.152344 290.589844 77.941406 285.234375 C 77.546875 283.488281 77.269531 281.777344 76.96875 280.054688 C 76.714844 279.882812 76.261719 279.515625 76.21875 279.515625 Z M 64.746094 287.636719 C 64.53125 288.460938 64.066406 289.910156 63.492188 291.292969 C 63.070312 292.300781 62.746094 293.164062 62.507812 293.941406 C 62.347656 294.464844 62.273438 294.910156 62.191406 295.371094 C 62.152344 295.589844 62.085938 295.828125 62.0625 296.039062 C 62.003906 296.617188 62.023438 297.175781 62.085938 297.738281 C 62.09375 297.792969 62.089844 297.847656 62.097656 297.902344 C 62.175781 298.492188 62.316406 299.105469 62.519531 299.765625 C 62.527344 299.792969 62.535156 299.820312 62.542969 299.847656 C 62.785156 299.089844 63.082031 298.273438 63.492188 297.292969 C 64.144531 295.730469 64.773438 293.824219 64.910156 293.15625 C 65.148438 291.992188 65.03125 289.917969 64.746094 287.636719 Z M 246.269531 295.042969 C 245.777344 295.929688 243.96875 300.835938 244.089844 301.03125 C 244.121094 301.046875 244.234375 301.023438 244.289062 301.03125 C 244.628906 301.167969 253.710938 301.238281 273.679688 301.136719 C 288.066406 301.0625 291.71875 301.097656 295.558594 301.136719 C 296.917969 300.285156 298.269531 299.414062 299.53125 298.464844 C 302.074219 296.550781 303.324219 295.378906 303.175781 295.136719 C 303.09375 295.003906 293.074219 295.039062 273.679688 295.136719 C 259.46875 295.207031 256.71875 295.128906 252.761719 295.066406 C 251.75 295.050781 247.808594 295.066406 247.40625 295.042969 C 247.320312 295.039062 246.328125 295.046875 246.269531 295.042969 Z M 51.773438 301.699219 C 51.5 301.699219 51.515625 302.273438 51.972656 304.523438 C 52.128906 305.285156 52.316406 305.96875 52.535156 306.597656 C 52.753906 307.21875 53 307.785156 53.273438 308.308594 C 54.300781 308.679688 55.355469 309.023438 56.519531 309.621094 C 58.085938 310.425781 59.585938 311.671875 60.714844 312.996094 C 60.925781 313.035156 61.03125 313.074219 61.265625 313.113281 C 62.101562 313.253906 62.902344 313.40625 62.988281 313.417969 C 63.582031 313.496094 63.101562 311.109375 62.074219 308.964844 C 61.125 306.980469 58.859375 304.820312 56.519531 303.621094 C 54.816406 302.75 52.175781 301.699219 51.773438 301.699219 Z M 229.570312 312.539062 C 226.742188 312.371094 224.9375 312.363281 225 312.550781 C 225.042969 312.683594 232.714844 315.953125 242.0625 319.816406 C 249.042969 322.699219 252.175781 324.082031 254.8125 325.253906 C 254.875 325.207031 254.9375 325.171875 255 325.125 C 257.089844 323.550781 259.246094 321.425781 259.136719 321.09375 C 259.085938 320.941406 251.410156 317.679688 242.0625 313.816406 C 241.773438 313.695312 241.820312 313.710938 241.535156 313.59375 C 241.125 313.550781 240.601562 313.492188 240.246094 313.453125 C 236.246094 313.027344 232.398438 312.707031 229.570312 312.539062 Z M 204.691406 320.519531 L 213.796875 335.460938 L 213.808594 335.460938 C 213.832031 335.453125 213.832031 335.445312 213.855469 335.4375 C 215.308594 335.066406 216.632812 334.640625 216.820312 334.417969 L 211.171875 325.148438 C 208.914062 323.65625 206.71875 322.097656 204.691406 320.519531 Z M 182.976562 321.234375 C 182.601562 321.234375 181.769531 321.726562 181.769531 321.9375 C 181.769531 322.058594 183.121094 326.046875 184.792969 330.832031 C 185.4375 332.679688 185.472656 332.855469 185.964844 334.300781 C 185.976562 334.300781 186 334.289062 186.011719 334.289062 C 187.058594 334.203125 187.828125 334.070312 187.828125 333.820312 C 187.828125 333.675781 186.464844 329.617188 184.792969 324.832031 C 184.414062 323.742188 184.4375 323.777344 184.101562 322.804688 C 183.699219 322.246094 183.023438 321.234375 182.976562 321.234375 Z M 182.976562 321.234375"/>
  </g>
 </defs>
 <g>
  <use mask="url(#mask0)" xlink:href="#surface5"/>
  <path style="fill:rgb(29.803922%,29.803922%,29.803922%)" d="M 203.789062 117.667969 C 201.832031 117.691406 199.738281 117.867188 198.535156 118.070312 C 190.957031 119.359375 184.917969 122.148438 181.769531 125.949219 C 179.304688 128.929688 178.609375 132.652344 179.851562 136.253906 C 180.011719 136.730469 180.132812 137.183594 180.050781 137.261719 C 179.972656 137.34375 172.539062 138.140625 163.589844 139.082031 C 156.28125 139.851562 152.277344 140.398438 150.15625 140.695312 C 149.867188 140.738281 148.464844 140.875 148.335938 140.898438 C 148.253906 140.914062 147.132812 140.992188 147.125 141 C 147.105469 141.019531 147.222656 141.320312 147.226562 141.40625 C 147.230469 141.523438 147.203125 141.585938 147.226562 141.605469 C 147.308594 142.273438 147.625 143.707031 148.4375 146.554688 C 149.878906 151.589844 150.175781 152.617188 149.953125 152.617188 C 149.902344 152.617188 149.152344 152.089844 148.335938 151.503906 C 144.96875 149.089844 141.917969 147.921875 138.640625 147.769531 C 135.019531 147.597656 132.730469 148.582031 130.15625 151.101562 C 130.101562 151.15625 130.007812 151.144531 129.953125 151.203125 C 128.660156 152.496094 128.175781 153.097656 127.328125 154.839844 C 126.09375 157.375 125.476562 159.625 125.308594 162.617188 C 125.109375 166.109375 125.878906 170.527344 127.125 173.421875 L 127.53125 174.433594 L 129.246094 174.433594 C 133.71875 174.433594 137.234375 168.710938 140.964844 166.957031 C 143.5625 166.316406 148.34375 166.320312 151.570312 166.957031 C 163.191406 169.265625 171.90625 177.15625 171.464844 185.039062 C 171.347656 187.140625 170.601562 188.519531 168.738281 190.390625 C 167.1875 191.953125 165.15625 193.335938 161.667969 195.238281 C 160.445312 195.910156 158.40625 197.0625 157.125 197.765625 C 155.84375 198.46875 154.015625 199.574219 153.082031 200.1875 C 151.238281 201.410156 148.941406 203.441406 148.941406 203.925781 C 148.941406 204.34375 150.085938 204.328125 155.003906 203.824219 C 157.109375 203.609375 158.84375 203.277344 160.660156 203.015625 C 169.472656 201.757812 175.355469 200.050781 179.949219 197.058594 C 184.320312 194.210938 187.605469 189.691406 188.839844 184.9375 C 189.039062 184.164062 189.222656 183.625 189.34375 183.625 C 189.464844 183.625 190.261719 184.035156 191.0625 184.535156 C 196.25 187.761719 200.515625 188.925781 204.089844 188.167969 C 207.285156 187.492188 210.359375 185.570312 216.007812 180.695312 C 217.507812 179.402344 218.808594 178.269531 218.9375 178.269531 C 219.070312 178.269531 220.246094 180.847656 221.566406 183.925781 C 222.882812 187.007812 224.121094 189.679688 224.292969 189.886719 C 224.59375 190.25 224.839844 190.285156 229.644531 189.484375 C 232.375 189.027344 234.6875 188.476562 234.796875 188.371094 C 235.078125 188.105469 234.03125 184.570312 233.078125 182.3125 C 231.542969 178.667969 228.890625 175.382812 225.707031 173.320312 C 223.796875 172.085938 220.929688 170.742188 216.3125 168.980469 C 211.285156 167.058594 208.691406 165.824219 206.3125 164.230469 C 203.957031 162.652344 201.679688 160.5625 201.96875 160.292969 C 202.082031 160.1875 202.898438 159.894531 203.789062 159.585938 C 210.886719 157.121094 215.75 152.449219 218.9375 144.941406 C 220.25 141.847656 221.316406 137.898438 223.078125 130.09375 C 223.878906 126.550781 224.914062 122.550781 225.300781 121.203125 C 225.6875 119.855469 225.96875 118.628906 225.90625 118.476562 C 225.902344 118.460938 225.671875 118.5625 225.605469 118.578125 C 224.898438 118.730469 220.859375 120.597656 210.960938 125.546875 C 202.8125 129.621094 196.015625 132.957031 195.910156 132.921875 C 195.800781 132.886719 198.402344 130.523438 201.667969 127.667969 C 204.933594 124.8125 207.878906 122.25 208.132812 122.011719 C 208.292969 121.859375 208.265625 121.707031 208.332031 121.507812 C 208.433594 121.207031 208.535156 120.804688 208.535156 119.890625 C 208.535156 118.207031 208.476562 118.097656 207.929688 117.871094 C 207.488281 117.6875 205.742188 117.644531 203.789062 117.667969 Z M 203.789062 117.667969"/>
  <path style="fill:rgb(55.686275%,26.666667%,67.843137%)" d="M 276.613281 53.226562 C 274.34375 53.390625 272.335938 54.515625 270.554688 56.660156 C 268.542969 59.082031 267.527344 62.347656 267.824219 65.25 C 268.261719 69.53125 269.527344 73.066406 274.691406 83.332031 C 277.53125 88.972656 278.457031 91.230469 279.4375 95.753906 C 280.820312 102.136719 281.367188 107.734375 281.359375 115.148438 C 281.347656 121.972656 280.933594 126.945312 279.847656 133.429688 C 278.894531 139.121094 277.261719 145.964844 276.917969 145.851562 C 276.394531 145.675781 275.769531 140.367188 275.300781 132.621094 C 274.746094 123.5 274.28125 119.84375 273.484375 116.25 C 271.363281 106.6875 266.648438 102.644531 258.835938 103.828125 C 256.644531 104.160156 253.105469 105.234375 252.777344 105.644531 C 252.636719 105.820312 253.421875 108.605469 255.601562 114.84375 C 257.3125 119.746094 258.730469 123.835938 258.730469 123.925781 C 258.730469 124.234375 257.484375 124.664062 257.21875 124.441406 C 257.082031 124.328125 255.839844 122.5625 254.488281 120.597656 C 251.632812 116.449219 250.183594 114.433594 248.230469 112.113281 C 242.96875 105.867188 237.28125 102.886719 231.367188 103.230469 C 229.207031 103.355469 225.957031 104.0625 225.402344 104.542969 C 225.015625 104.871094 225.105469 105.425781 232.46875 132.210938 L 240.050781 159.585938 L 238.328125 176.355469 C 237.398438 185.601562 236.507812 193.378906 236.417969 193.628906 C 236.257812 194.074219 236.222656 194.132812 233.183594 194.132812 C 231.472656 194.132812 228.003906 194.007812 225.507812 193.828125 C 219.988281 193.433594 213.097656 193.382812 210.753906 193.722656 C 208.367188 194.066406 204.910156 194.933594 201.671875 196.042969 C 191.554688 199.511719 182.699219 205.648438 175.304688 214.429688 C 168.484375 222.523438 162.707031 232.835938 157.019531 247.054688 C 155.316406 251.324219 151.632812 261.558594 150.761719 264.328125 C 148.613281 271.1875 147.417969 278.464844 147.222656 286.347656 C 147.050781 293.371094 147.582031 299.140625 149.039062 305.027344 C 150.75 311.933594 153.300781 317.289062 156.820312 321.796875 C 157.664062 322.878906 158.578125 323.835938 159.550781 324.832031 C 159.585938 324.871094 159.613281 324.894531 159.644531 324.925781 C 159.675781 324.960938 159.722656 325 159.75 325.03125 C 159.769531 325.050781 159.734375 325.105469 159.75 325.125 C 164.285156 329.671875 169.214844 332.328125 175.503906 333.609375 C 179.996094 334.527344 187.832031 334.6875 187.832031 333.824219 C 187.832031 333.679688 186.464844 329.617188 184.796875 324.832031 C 183.125 320.050781 181.773438 316.0625 181.773438 315.9375 C 181.769531 315.726562 182.605469 315.234375 182.980469 315.234375 C 183.078125 315.234375 184.132812 316.695312 185.300781 318.46875 C 190 325.613281 193.625 329.707031 197.734375 332.507812 C 200.171875 334.175781 203.371094 335.449219 205.914062 335.839844 C 207.484375 336.078125 211.234375 336.058594 212.78125 335.734375 C 214.691406 335.332031 216.589844 334.703125 216.824219 334.421875 L 204.695312 314.519531 C 212.644531 320.710938 223.078125 326.699219 230.453125 328.769531 C 239.6875 331.363281 248.398438 330.097656 255.003906 325.125 C 257.09375 323.554688 259.25 321.429688 259.140625 321.09375 C 259.089844 320.941406 251.410156 317.679688 242.066406 313.816406 C 232.71875 309.957031 225.046875 306.683594 225.003906 306.550781 C 224.878906 306.175781 232.246094 306.601562 240.25 307.453125 C 242.8125 307.726562 246.980469 308.1875 249.542969 308.460938 C 257.78125 309.34375 259.632812 309.472656 265.304688 309.46875 C 271.324219 309.46875 273.960938 309.226562 278.535156 308.261719 C 285.660156 306.761719 293.285156 303.167969 299.535156 298.464844 C 302.078125 296.550781 303.328125 295.378906 303.179688 295.136719 C 303.097656 295.003906 293.078125 295.039062 273.683594 295.136719 C 253.714844 295.238281 244.628906 295.171875 244.292969 295.03125 C 244.238281 295.023438 244.125 295.046875 244.09375 295.03125 C 243.964844 294.824219 246.089844 289 246.414062 288.667969 C 246.503906 288.574219 247.253906 288.816406 248.03125 289.277344 C 261.480469 297.269531 290.441406 295.207031 311.453125 284.730469 C 317.480469 281.726562 321.457031 278.890625 325.398438 274.933594 C 330.109375 270.203125 332.890625 265.035156 333.273438 260.085938 C 333.386719 258.628906 333.335938 258.574219 332.96875 258.574219 C 332.519531 258.574219 325.1875 260.578125 321.261719 261.796875 C 319.8125 262.246094 316.097656 263.4375 312.976562 264.421875 C 292.601562 270.871094 284.140625 272.605469 273.074219 272.8125 C 266.746094 272.933594 261.078125 272.550781 261.261719 272.003906 C 261.464844 271.386719 270.074219 268.433594 275.910156 266.953125 C 280.890625 265.691406 283.507812 265.15625 295.09375 262.816406 C 312.222656 259.359375 318.4375 257.746094 326.007812 254.730469 C 341.976562 248.371094 351.023438 238.003906 353.875 222.914062 C 354.617188 218.988281 355.066406 212.109375 354.589844 212.109375 C 354.492188 212.109375 346.292969 216.730469 336.308594 222.304688 C 326.320312 227.878906 318.042969 232.386719 317.921875 232.3125 C 317.644531 232.140625 316.472656 229.519531 316.609375 229.382812 C 316.664062 229.328125 317.945312 228.625 319.539062 227.765625 C 327.199219 223.644531 333.015625 219.308594 339.332031 213.011719 C 351.140625 201.246094 358.050781 187.667969 359.734375 173.121094 C 360.1875 169.207031 360.042969 162.058594 359.429688 158.472656 C 358.707031 154.222656 357.023438 147.945312 356.511719 147.773438 C 356.394531 147.734375 349.25 158.023438 340.75 170.589844 C 322.847656 197.046875 321.90625 198.410156 321.765625 198.269531 C 321.445312 197.949219 325.707031 190.402344 332.875 178.476562 C 335.976562 173.3125 339.3125 167.726562 340.246094 166.054688 C 342.542969 161.941406 345.773438 155.121094 347.007812 151.910156 C 351.347656 140.628906 351.957031 131.050781 348.929688 121.910156 C 348.050781 119.253906 345.941406 114.929688 344.289062 112.417969 C 342.652344 109.925781 340.195312 106.777344 339.941406 106.863281 C 339.828125 106.898438 334.917969 118.496094 329.03125 132.621094 L 318.332031 158.273438 L 303.484375 183.621094 C 288.636719 209.007812 287.980469 210.238281 287.828125 210.082031 C 287.703125 209.957031 289.058594 206.15625 290.453125 202.710938 C 293.9375 194.09375 297.507812 187.226562 307.316406 170.390625 C 313.578125 159.636719 316.398438 154.605469 318.929688 149.589844 C 326.820312 133.960938 330.625 121.339844 331.5625 107.566406 C 331.753906 104.765625 331.753906 103.433594 331.5625 101.613281 C 330.570312 92.101562 327.214844 80.253906 323.675781 73.628906 C 321.621094 69.777344 318.960938 66.707031 316.609375 65.554688 C 315.542969 65.03125 315.195312 64.945312 313.480469 64.945312 C 311.714844 64.945312 311.398438 65.015625 310.046875 65.648438 C 306.75 67.191406 305.800781 69.621094 305.804688 75.855469 C 305.804688 79.195312 306.0625 81.808594 307.117188 89.285156 L 307.820312 94.535156 L 307.726562 100.5 C 307.613281 106.410156 307.527344 108.316406 306.917969 113.835938 C 305.574219 125.96875 302.277344 139.917969 297.414062 154.734375 C 295.578125 160.324219 292.875 168.105469 292.574219 168.574219 C 291.871094 169.671875 293.609375 161.652344 297.121094 147.257812 C 302.882812 123.652344 304.253906 115.230469 304.492188 103.324219 C 304.65625 95.082031 304.101562 89.394531 302.570312 82.722656 C 301.652344 78.722656 301.292969 77.671875 299.945312 74.941406 C 296.167969 67.277344 289.570312 59.167969 284.183594 55.652344 C 281.40625 53.835938 278.878906 53.058594 276.613281 53.226562 Z M 276.613281 53.226562"/>
  <path style="fill:rgb(96.470588%,27.843137%,27.843137%)" d="M 168.640625 179.988281 C 160.277344 181.027344 152.019531 183.011719 144.066406 185.800781 C 135.824219 188.816406 127.597656 192.792969 121.507812 199.277344 C 121.058594 200.042969 118.75 201.753906 119.644531 202.171875 C 128.601562 199.75 141.179688 196.25 149.679688 193.839844 C 151.984375 193.1875 153.726562 192.6875 155.738281 192.117188 C 159.417969 191.117188 163.085938 190.054688 166.742188 188.976562 L 169.34375 188.167969 C 170.164062 187.207031 169.695312 184.320312 169.8125 182.648438 C 169.5625 181.761719 170.316406 179.4375 168.640625 179.988281 Z M 168.640625 179.988281"/>
  <path style="fill:rgb(64.705882%,64.705882%,64.705882%)" d="M 64.90625 181.804688 C 64.71875 181.617188 60.832031 182.117188 59.25 182.511719 C 54.757812 183.636719 52.054688 186.324219 50.464844 191.199219 C 50.175781 192.074219 49.957031 192.910156 49.957031 193.117188 C 49.957031 193.59375 50.117188 193.605469 51.878906 193.117188 C 55.542969 192.101562 58.429688 190.390625 60.765625 187.96875 C 62.675781 185.984375 65.273438 182.171875 64.90625 181.804688 Z M 64.90625 181.804688"/>
  <path style="fill:rgb(29.803922%,29.803922%,29.803922%)" d="M 79.148438 183.421875 C 76.738281 183.570312 73.628906 184.3125 71.675781 185.238281 C 66.09375 187.890625 62.816406 192.699219 61.269531 200.289062 C 60.367188 204.734375 60.210938 207.167969 60.160156 218.976562 C 60.128906 225.136719 60.039062 230.210938 59.957031 230.289062 C 59.878906 230.367188 59.585938 230.171875 59.25 229.78125 C 57.992188 228.324219 56.375 225.71875 54.097656 221.199219 C 53.261719 219.53125 52.585938 218.425781 51.878906 217.15625 C 51.496094 216.472656 50.964844 215.238281 50.765625 214.933594 C 49.53125 213.066406 47.257812 210.714844 45.714844 209.683594 C 44.394531 208.800781 42.40625 208.066406 41.070312 208.066406 C 37.210938 208.066406 33.8125 211.601562 32.789062 216.652344 C 31.804688 221.507812 33.71875 225.53125 37.738281 227.054688 C 38.394531 227.304688 39.414062 227.421875 41.371094 227.460938 C 42.863281 227.488281 44.222656 227.570312 44.300781 227.660156 C 44.378906 227.75 44.703125 228.589844 45.007812 229.480469 C 45.902344 232.085938 48.070312 236.367188 51.371094 241.902344 C 54.859375 247.753906 57.085938 252.011719 58.039062 254.628906 C 59.058594 257.4375 63.851562 275.9375 64.503906 279.578125 C 65.070312 282.746094 65.21875 285.636719 64.90625 287.152344 C 64.769531 287.820312 64.144531 289.730469 63.492188 291.292969 C 61.683594 295.636719 61.546875 297.261719 62.785156 300.6875 C 65.246094 307.503906 69.578125 312.136719 75.816406 314.726562 C 77.394531 315.382812 77.65625 315.421875 78.039062 314.527344 C 78.886719 312.519531 79.984375 308.15625 80.359375 305.132812 C 80.976562 300.183594 80.523438 296.664062 77.9375 285.234375 C 76.738281 279.945312 75.796875 273.519531 76.21875 273.519531 C 76.316406 273.519531 77.101562 274.046875 77.9375 274.730469 C 78.769531 275.414062 81.535156 277.625 84.097656 279.578125 C 90.785156 284.679688 91.613281 285.367188 99.25 292.910156 C 102.132812 295.761719 104.21875 297.683594 106.015625 299.273438 C 109.589844 302.4375 111.726562 303.804688 114.703125 304.828125 C 116.304688 305.382812 116.964844 305.535156 118.339844 305.535156 C 121.6875 305.539062 123.210938 304.140625 123.386719 300.890625 C 123.511719 298.59375 122.8125 295.953125 120.964844 292.203125 C 119.15625 288.535156 117.707031 286.613281 114.902344 283.921875 C 111.640625 280.789062 108.613281 278.574219 98.84375 272.304688 C 90.527344 266.96875 86.820312 264.230469 83.59375 260.992188 C 79.339844 256.726562 77.535156 253.183594 77.332031 248.570312 C 77.160156 244.773438 78.105469 242.347656 80.5625 239.882812 C 83.078125 237.355469 85.859375 235.949219 93.996094 233.117188 C 102.59375 230.125 105.800781 228.242188 107.226562 225.339844 C 107.722656 224.328125 107.734375 224.003906 107.734375 222.308594 C 107.730469 220.679688 107.734375 220.253906 107.328125 219.480469 C 105.457031 215.910156 99.816406 213.757812 90.664062 213.21875 L 88.339844 213.117188 L 80.5625 220.894531 C 76.289062 225.164062 72.75 228.535156 72.683594 228.46875 C 72.621094 228.40625 74.480469 218.4375 76.824219 206.25 C 79.167969 194.058594 81.167969 183.929688 81.167969 183.726562 C 81.167969 183.378906 80.980469 183.308594 79.148438 183.421875 Z M 79.148438 183.421875"/>
  <path style="fill:rgb(64.705882%,64.705882%,64.705882%)" d="M 95.613281 197.664062 L 95.714844 198.371094 C 95.839844 199.734375 96.554688 202.957031 97.128906 204.53125 C 98.9375 209.5 102.078125 212.542969 107.226562 214.226562 C 108.449219 214.628906 109.011719 214.664062 109.148438 214.429688 C 109.339844 214.097656 108.839844 209.363281 108.441406 207.664062 C 107.257812 202.621094 104.226562 199.582031 99.046875 198.269531 C 98.035156 198.015625 96.867188 197.804688 96.421875 197.765625 Z M 95.613281 197.664062"/>
  <path style="fill:rgb(64.705882%,64.705882%,64.705882%)" d="M 25.3125 218.671875 C 25.101562 218.753906 25.042969 218.953125 24.910156 219.277344 C 24.542969 220.164062 24 223.53125 24 224.832031 C 24 228.265625 25.566406 231.101562 28.546875 233.117188 C 29.699219 233.894531 29.863281 233.914062 29.859375 233.417969 C 29.847656 232.539062 28.253906 219.058594 28.140625 218.875 C 28.070312 218.761719 27.40625 218.671875 26.625 218.671875 C 25.921875 218.671875 25.527344 218.589844 25.3125 218.671875 Z M 25.3125 218.671875"/>
  <path style="fill:rgb(64.705882%,64.705882%,64.705882%)" d="M 133.386719 263.214844 C 133.039062 263.214844 131.222656 265.074219 130.359375 266.347656 C 127.976562 269.855469 126.117188 275.082031 125.003906 281.496094 C 124.609375 283.773438 124.605469 284.835938 124.601562 289.78125 C 124.59375 296.027344 124.730469 297.441406 125.914062 300.992188 C 127.214844 304.902344 129.375 307.511719 131.972656 308.464844 C 132.390625 308.617188 133.132812 308.761719 133.691406 308.769531 C 136.953125 308.800781 139.972656 305.179688 141.367188 299.679688 C 142.554688 295 141.667969 291.066406 137.328125 281.902344 C 134.550781 276.035156 133.824219 273.722656 133.386719 270.183594 C 133.175781 268.472656 133.171875 266.777344 133.488281 264.226562 C 133.578125 263.511719 133.535156 263.214844 133.386719 263.214844 Z M 133.386719 263.214844"/>
  <path style="fill:rgb(64.705882%,64.705882%,64.705882%)" d="M 51.777344 301.699219 C 51.503906 301.699219 51.519531 302.277344 51.976562 304.527344 C 52.726562 308.195312 54.054688 310.40625 56.523438 311.699219 C 58.039062 312.492188 58.996094 312.722656 61.269531 313.113281 C 62.105469 313.253906 62.902344 313.402344 62.988281 313.414062 C 63.582031 313.492188 63.105469 311.117188 62.078125 308.96875 C 61.128906 306.988281 58.863281 304.816406 56.523438 303.617188 C 54.820312 302.746094 52.179688 301.699219 51.777344 301.699219 Z M 51.777344 301.699219"/>
  <path style="fill:rgb(96.470588%,27.843137%,27.843137%)" d="M 160.144531 151.84375 C 160.144531 151.84375 164.640625 148.707031 168.707031 148.871094 C 173.441406 149.066406 176.566406 153.242188 176.566406 153.242188 C 166.085938 159.703125 160.144531 151.84375 160.144531 151.84375 Z M 160.144531 151.84375"/>
  <use mask="url(#mask1)" xlink:href="#surface8"/>
  <path style="fill:rgb(5.882353%,63.137255%,37.254902%)" d="M 169.828125 184.664062 C 169.851562 185.417969 169.839844 186.109375 169.769531 186.761719 C 169.839844 186.105469 169.851562 185.417969 169.828125 184.664062 Z M 169.828125 184.664062"/>
  <path style="fill:rgb(5.882353%,63.137255%,37.254902%)" d="M 166.441406 180.328125 C 162.664062 180.875 158.910156 181.59375 155.203125 182.507812 C 158.914062 181.605469 162.664062 180.875 166.441406 180.328125 Z M 166.441406 180.328125"/>
  <path style="fill:rgb(5.882353%,63.137255%,37.254902%)" d="M 154.886719 182.589844 C 151.234375 183.5 147.621094 184.554688 144.070312 185.800781 C 147.621094 184.554688 151.234375 183.492188 154.886719 182.589844 Z M 154.886719 182.589844"/>
  <path style="fill:rgb(5.882353%,63.137255%,37.254902%)" d="M 121.511719 199.277344 C 121.175781 199.851562 119.789062 200.949219 119.496094 201.644531 C 119.796875 200.949219 121.175781 199.847656 121.511719 199.277344 Z M 121.511719 199.277344"/>
 </g>
</svg>
