<svg xmlns="http://www.w3.org/2000/svg" xmlns:xlink="http://www.w3.org/1999/xlink" width="384pt" height="384pt" version="1.1" viewBox="0 0 384 384">
 <defs>
  <filter id="alpha" width="100%" height="100%" x="0%" y="0%" filterUnits="objectBoundingBox">
   <feColorMatrix in="SourceGraphic" type="matrix" values="0 0 0 0 1 0 0 0 0 1 0 0 0 0 1 0 0 0 1 0"/>
  </filter>
  <mask id="mask0">
   <g filter="url(#alpha)">
    <rect width="384" height="384" x="0" y="0" style="fill:rgb(0%,0%,0%);fill-opacity:0.301961"/>
   </g>
  </mask>
  <clipPath id="clip1">
   <rect width="384" height="384" x="0" y="0"/>
  </clipPath>
  <g id="surface5" clip-path="url(#clip1)">
   <path style="fill:rgb(21.176471%,48.235294%,94.117647%)" d="M 198.597656 144.46875 L 198.597656 135.171875 L 139.246094 135.171875 L 139.246094 144.46875 Z M 198.597656 252.796875 L 198.597656 243.5 L 139.246094 243.5 L 139.246094 252.796875 Z M 198.597656 252.796875"/>
  </g>
  <mask id="mask1">
   <g filter="url(#alpha)">
    <rect width="384" height="384" x="0" y="0" style="fill:rgb(0%,0%,0%);fill-opacity:0.301961"/>
   </g>
  </mask>
  <clipPath id="clip2">
   <rect width="384" height="384" x="0" y="0"/>
  </clipPath>
  <g id="surface8" clip-path="url(#clip2)">
   <path style="fill:rgb(91.764706%,91.764706%,91.764706%)" d="M 301.097656 155.492188 L 298.476562 148.839844 L 255.230469 165.863281 L 257.847656 172.515625 Z M 301.097656 155.492188"/>
  </g>
  <mask id="mask2">
   <g filter="url(#alpha)">
    <rect width="384" height="384" x="0" y="0" style="fill:rgb(0%,0%,0%);fill-opacity:0.301961"/>
   </g>
  </mask>
  <clipPath id="clip3">
   <rect width="384" height="384" x="0" y="0"/>
  </clipPath>
  <g id="surface11" clip-path="url(#clip3)">
   <path style="fill:rgb(91.764706%,91.764706%,91.764706%)" d="M 314.269531 218.929688 C 309.886719 217.023438 305.457031 216.941406 301 218.695312 C 296.542969 220.449219 293.355469 223.53125 291.449219 227.910156 C 289.542969 232.292969 289.460938 236.722656 291.214844 241.183594 C 292.96875 245.640625 296.050781 248.828125 300.429688 250.734375 C 304.8125 252.640625 309.242188 252.71875 313.699219 250.964844 C 318.160156 249.210938 321.347656 246.132812 323.253906 241.75 C 325.160156 237.367188 325.238281 232.9375 323.484375 228.480469 C 321.730469 224.023438 318.652344 220.835938 314.269531 218.929688 Z M 314.269531 218.929688"/>
  </g>
 </defs>
 <g>
  <path style="fill:rgb(1.960784%,11.372549%,13.72549%)" d="M 351.632812 135.726562 C 351.527344 135.457031 351.417969 135.136719 351.3125 134.816406 C 349.003906 128.289062 346.253906 121.925781 343.035156 115.632812 C 341.675781 112.988281 340.191406 110.289062 338.636719 107.625 C 331.378906 95.289062 322.261719 83.597656 311.339844 72.675781 C 285.4375 46.773438 255.300781 31.042969 220.960938 25.519531 C 220.851562 25.503906 220.746094 25.484375 220.65625 25.464844 C 214.84375 24.535156 208.929688 23.894531 202.761719 23.554688 C 199.292969 23.355469 195.664062 23.25 192 23.25 C 188.65625 23.25 185.351562 23.339844 182.023438 23.519531 C 139.710938 25.699219 103.261719 42.089844 72.675781 72.675781 C 52.476562 92.878906 38.480469 115.632812 30.6875 140.855469 C 25.730469 156.875 23.25 173.921875 23.25 192 C 23.25 214.148438 26.984375 234.757812 34.316406 253.566406 C 35.28125 256.050781 36.265625 258.390625 37.300781 260.714844 C 38.410156 263.199219 39.589844 265.632812 40.714844 267.867188 L 40.707031 267.867188 L 343.304688 267.867188 C 344.484375 265.523438 345.625 263.148438 346.71875 260.714844 C 347.773438 258.355469 348.753906 255.976562 349.703125 253.566406 C 349.703125 253.546875 349.703125 253.511719 349.71875 253.492188 C 351.132812 249.828125 352.417969 246.109375 353.5625 242.355469 C 354.351562 239.746094 355.082031 237.101562 355.761719 234.382812 C 358.570312 222.996094 360.214844 211.054688 360.644531 198.613281 C 360.714844 196.449219 360.75 194.234375 360.75 192 C 360.75 191.769531 360.75 191.515625 360.75 191.285156 C 360.75 191.160156 360.75 191.050781 360.75 190.925781 C 360.679688 176.394531 358.980469 162.503906 355.636719 149.097656 C 355.246094 147.542969 354.796875 145.878906 354.332031 144.234375 C 353.527344 141.429688 352.632812 138.585938 351.632812 135.726562 Z M 190.925781 360.75 C 191.355469 360.75 191.679688 360.75 192 360.75 C 195.683594 360.75 199.328125 360.644531 202.761719 360.464844 C 203.65625 360.410156 204.460938 360.355469 205.246094 360.304688 C 212.46875 359.785156 219.511719 358.855469 226.234375 357.550781 C 229.074219 356.996094 231.882812 356.371094 234.597656 355.707031 C 245.484375 352.972656 255.890625 349.167969 265.792969 344.339844 C 270.367188 342.085938 274.855469 339.621094 279.234375 336.9375 C 280.324219 336.261719 281.398438 335.582031 282.472656 334.882812 C 287.707031 331.488281 292.714844 327.824219 297.574219 323.835938 C 302.3125 319.9375 306.890625 315.792969 311.339844 311.339844 C 315.578125 307.105469 319.546875 302.742188 323.246094 298.292969 C 324.515625 296.753906 325.75 295.214844 326.980469 293.609375 L 57.042969 293.609375 L 57.054688 293.609375 C 61.84375 299.828125 67.011719 305.675781 72.675781 311.339844 C 82.832031 321.496094 93.644531 330.09375 104.78125 336.921875 C 105.980469 337.636719 107.015625 338.261719 108.054688 338.871094 C 115.113281 343 122.230469 346.46875 129.558594 349.34375 C 131.863281 350.273438 134.0625 351.078125 136.28125 351.828125 C 142.070312 353.8125 147.988281 355.457031 153.800781 356.746094 C 163.078125 358.746094 172.40625 360 182.023438 360.5 C 182.078125 360.5 182.113281 360.5 182.167969 360.5 C 185.207031 360.660156 188.101562 360.75 190.925781 360.75 Z M 190.925781 360.75"/>
  <path style="fill:rgb(69.803922%,53.333333%,37.254902%)" d="M 341.03125 272.15625 C 341.800781 270.742188 342.550781 269.3125 343.304688 267.867188 L 91.894531 267.867188 L 117.636719 293.609375 L 326.980469 293.609375 C 330.898438 288.546875 334.488281 283.292969 337.742188 277.875 C 338.886719 275.964844 339.996094 274.035156 341.03125 272.15625 Z M 341.03125 272.15625"/>
  <path style="fill:rgb(80.392157%,61.176471%,42.745098%)" d="M 40.714844 267.867188 C 41.5 269.402344 42.234375 270.796875 42.984375 272.15625 C 44.09375 274.175781 45.167969 276.035156 46.273438 277.875 C 49.5625 283.328125 53.175781 288.621094 57.054688 293.609375 L 57.042969 293.609375 L 117.636719 293.609375 L 91.894531 267.867188 L 40.707031 267.867188"/>
  <path style="fill:rgb(0%,0%,0%);fill-opacity:0.2" d="M 190.925781 360.75 C 191.285156 360.75 191.640625 360.75 192 360.75 C 195.683594 360.75 199.328125 360.644531 202.761719 360.464844 C 203.65625 360.410156 204.460938 360.355469 205.246094 360.304688 C 212.46875 359.785156 219.511719 358.855469 226.234375 357.550781 C 229.074219 356.996094 231.882812 356.371094 234.597656 355.707031 C 245.484375 352.972656 255.890625 349.167969 265.792969 344.339844 C 270.367188 342.085938 274.855469 339.621094 279.234375 336.9375 C 280.324219 336.261719 281.398438 335.582031 282.472656 334.882812 C 287.707031 331.488281 292.714844 327.824219 297.574219 323.835938 C 302.3125 319.9375 306.890625 315.792969 311.339844 311.339844 C 315.578125 307.105469 319.546875 302.742188 323.246094 298.292969 C 324.515625 296.753906 325.75 295.214844 326.980469 293.609375 L 57.042969 293.609375 L 57.054688 293.609375 C 61.523438 299.417969 66.332031 304.886719 71.425781 310.089844 C 71.925781 310.589844 72.300781 310.964844 72.675781 311.339844 C 82.832031 321.496094 93.644531 330.09375 104.78125 336.921875 C 105.980469 337.636719 107.015625 338.261719 108.054688 338.871094 C 115.113281 343 122.230469 346.46875 129.558594 349.34375 C 131.863281 350.273438 134.0625 351.078125 136.28125 351.828125 C 142.070312 353.8125 147.988281 355.457031 153.800781 356.746094 C 163.078125 358.746094 172.40625 360 182.023438 360.5 C 182.078125 360.5 182.113281 360.5 182.167969 360.5 C 185.207031 360.660156 188.101562 360.75 190.925781 360.75 Z M 349.71875 253.492188 C 351.132812 249.828125 352.417969 246.109375 353.5625 242.355469 C 354.351562 239.746094 355.082031 237.101562 355.761719 234.382812 C 357.691406 226.589844 359.070312 218.511719 359.910156 210.109375 C 359.980469 209.160156 360.070312 208.160156 360.160156 207.140625 C 360.179688 207.035156 360.179688 206.925781 360.195312 206.820312 L 360.1875 206.808594 L 294.609375 141.230469 L 286.027344 154.101562 L 233.113281 101.191406 L 226.679688 115.847656 L 215.238281 104.40625 L 207.695312 134.796875 L 200.1875 127.289062 L 167.445312 123.472656 L 171.871094 127.894531 L 163.398438 123 L 167.445312 123.472656 L 134.082031 90.105469 L 83.449219 267.867188 L 343.304688 267.867188 C 344.484375 265.523438 345.625 263.148438 346.71875 260.714844 C 347.773438 258.355469 348.753906 255.976562 349.703125 253.566406 C 349.703125 253.546875 349.703125 253.511719 349.71875 253.492188 Z M 349.71875 253.492188"/>
  <path style="fill:rgb(49.411765%,50.588235%,59.215686%)" d="M 167.445312 123.472656 L 163.398438 123 L 171.871094 127.894531 Z M 167.445312 123.472656"/>
  <path style="fill:rgb(41.568627%,30.196078%,21.960784%)" d="M 135.492188 94.773438 C 135.492188 90.003906 133.109375 87.621094 128.34375 87.621094 L 81.667969 87.621094 C 76.894531 87.621094 74.519531 90 74.519531 94.773438 L 74.519531 260.699219 C 74.519531 265.46875 76.894531 267.847656 81.667969 267.847656 L 128.34375 267.847656 C 133.117188 267.847656 135.492188 265.46875 135.492188 260.699219 Z M 135.492188 94.773438"/>
  <path style="fill:rgb(66.666667%,51.372549%,33.72549%)" d="M 118.941406 124.554688 C 117.546875 123.160156 115.867188 122.460938 113.882812 122.460938 L 107.445312 122.460938 C 105.460938 122.460938 103.78125 123.160156 102.386719 124.554688 C 100.992188 125.949219 100.296875 127.628906 100.296875 129.613281 L 100.296875 136.046875 C 100.296875 138.03125 100.992188 139.710938 102.386719 141.105469 C 103.78125 142.5 105.460938 143.199219 107.445312 143.199219 L 113.882812 143.199219 C 115.867188 143.199219 117.546875 142.5 118.941406 141.105469 C 120.335938 139.710938 121.03125 138.03125 121.03125 136.046875 L 121.03125 129.613281 C 121.03125 127.628906 120.335938 125.949219 118.941406 124.554688 Z M 118.941406 166.027344 C 117.546875 164.632812 115.867188 163.933594 113.882812 163.933594 L 107.445312 163.933594 C 105.460938 163.933594 103.78125 164.632812 102.386719 166.027344 C 100.992188 167.421875 100.296875 169.101562 100.296875 171.085938 L 100.296875 177.519531 C 100.296875 179.503906 100.992188 181.183594 102.386719 182.578125 C 103.78125 183.972656 105.460938 184.671875 107.445312 184.671875 L 113.882812 184.671875 C 115.867188 184.671875 117.546875 183.972656 118.941406 182.578125 C 120.335938 181.183594 121.03125 179.503906 121.03125 177.519531 L 121.03125 171.085938 C 121.03125 169.101562 120.335938 167.421875 118.941406 166.027344 Z M 121.03125 212.558594 C 121.03125 210.574219 120.335938 208.894531 118.941406 207.5 C 117.546875 206.105469 115.867188 205.40625 113.882812 205.40625 L 107.445312 205.40625 C 105.460938 205.40625 103.78125 206.105469 102.386719 207.5 C 100.992188 208.894531 100.296875 210.574219 100.296875 212.558594 L 100.296875 218.992188 C 100.296875 220.976562 100.992188 222.65625 102.386719 224.050781 C 103.78125 225.445312 105.460938 226.144531 107.445312 226.144531 L 113.882812 226.144531 C 115.867188 226.144531 117.546875 225.445312 118.941406 224.050781 C 120.335938 222.65625 121.03125 220.976562 121.03125 218.992188 Z M 121.03125 254.03125 C 121.03125 252.046875 120.335938 250.367188 118.941406 248.972656 C 117.546875 247.578125 115.867188 246.878906 113.882812 246.878906 L 107.445312 246.878906 C 105.460938 246.878906 103.78125 247.578125 102.386719 248.972656 C 100.992188 250.367188 100.296875 252.046875 100.296875 254.03125 L 100.296875 260.464844 C 100.296875 262.449219 100.992188 264.128906 102.386719 265.523438 C 103.78125 266.917969 105.460938 267.617188 107.445312 267.617188 L 113.882812 267.617188 C 115.867188 267.617188 117.546875 266.917969 118.941406 265.523438 C 120.335938 264.128906 121.03125 262.449219 121.03125 260.464844 Z M 121.03125 254.03125"/>
  <path style="fill:rgb(100%,100%,100%)" d="M 198.417969 127.628906 C 198.417969 122.855469 196.039062 120.476562 191.265625 120.476562 L 146.21875 120.476562 C 141.453125 120.476562 139.070312 122.863281 139.070312 127.628906 L 139.070312 260.699219 C 139.070312 265.46875 141.445312 267.847656 146.21875 267.847656 L 191.265625 267.847656 C 196.039062 267.847656 198.417969 265.46875 198.417969 260.699219 Z M 198.417969 127.628906"/>
  <use mask="url(#mask0)" xlink:href="#surface5"/>
  <path style="fill:rgb(21.176471%,48.235294%,94.117647%)" d="M 290.601562 138.050781 C 289.476562 137.992188 288.222656 138.234375 286.835938 138.78125 L 256.894531 150.570312 C 252.453125 152.316406 251.109375 155.398438 252.859375 159.839844 L 255.207031 165.808594 L 255.179688 165.816406 L 257.800781 172.472656 L 301.046875 155.449219 L 298.449219 148.847656 L 298.476562 148.839844 L 296.105469 142.816406 C 294.90625 139.765625 293.074219 138.175781 290.601562 138.050781 Z M 301.097656 155.492188 L 257.847656 172.515625 L 291.644531 258.378906 C 293.394531 262.820312 296.476562 264.160156 300.917969 262.414062 L 330.859375 250.628906 C 335.300781 248.882812 336.640625 245.796875 334.894531 241.355469 Z M 319.234375 222.132812 C 321.074219 223.839844 322.492188 225.957031 323.484375 228.480469 C 325.238281 232.9375 325.15625 237.367188 323.25 241.75 C 321.34375 246.132812 318.160156 249.210938 313.699219 250.964844 C 309.242188 252.71875 304.8125 252.640625 300.429688 250.734375 C 298.765625 250.007812 297.292969 249.097656 296.003906 248.003906 C 297.28125 249.078125 298.738281 249.972656 300.382812 250.6875 C 304.761719 252.59375 309.195312 252.675781 313.652344 250.921875 C 318.109375 249.167969 321.296875 246.085938 323.203125 241.707031 C 325.109375 237.324219 325.191406 232.894531 323.4375 228.4375 C 322.449219 225.933594 321.050781 223.832031 319.234375 222.132812 Z M 319.234375 222.132812"/>
  <use mask="url(#mask1)" xlink:href="#surface8"/>
  <use mask="url(#mask2)" xlink:href="#surface11"/>
  <path style="fill:rgb(72.941176%,9.019608%,30.588235%)" d="M 211.582031 99.621094 C 210.023438 98.414062 208.269531 97.933594 206.300781 98.183594 L 204.882812 98.363281 C 202.917969 98.609375 201.335938 99.515625 200.125 101.074219 C 198.917969 102.632812 198.4375 104.386719 198.6875 106.355469 L 214.695312 232.675781 L 230.300781 230.699219 L 214.292969 104.375 C 214.042969 102.410156 213.140625 100.828125 211.582031 99.621094 Z M 211.582031 99.621094"/>
  <path style="fill:rgb(43.137255%,5.098039%,18.039216%)" d="M 227.703125 267.082031 C 229.671875 266.832031 231.253906 265.929688 232.460938 264.371094 C 233.667969 262.8125 234.148438 261.058594 233.898438 259.089844 L 230.300781 230.699219 L 214.695312 232.675781 L 218.292969 261.066406 C 218.542969 263.035156 219.445312 264.617188 221.003906 265.824219 C 222.5625 267.03125 224.316406 267.511719 226.285156 267.261719 Z M 227.703125 267.082031"/>
  <path style="fill:rgb(72.941176%,9.019608%,30.588235%)" d="M 231.777344 100.226562 C 230.101562 99.183594 228.308594 98.886719 226.375 99.339844 L 224.984375 99.664062 C 223.054688 100.113281 221.574219 101.175781 220.53125 102.847656 C 219.492188 104.523438 219.195312 106.320312 219.644531 108.25 L 248.574219 232.253906 L 263.894531 228.679688 L 234.964844 104.675781 C 234.511719 102.746094 233.453125 101.265625 231.777344 100.226562 Z M 231.777344 100.226562"/>
  <path style="fill:rgb(43.137255%,5.098039%,18.039216%)" d="M 265.058594 265.136719 C 266.988281 264.6875 268.46875 263.625 269.507812 261.953125 C 270.550781 260.277344 270.847656 258.480469 270.398438 256.550781 L 263.894531 228.679688 L 248.574219 232.253906 L 255.078125 260.125 C 255.527344 262.054688 256.589844 263.535156 258.261719 264.574219 C 259.9375 265.617188 261.734375 265.914062 263.664062 265.460938 Z M 265.058594 265.136719"/>
 </g>
</svg>
