<svg width="512" height="512" version="1.1" viewBox="0 0 384 384" xmlns="http://www.w3.org/2000/svg"><defs><clipPath><rect width="384" height="384"/></clipPath><clipPath><rect width="384" height="384"/></clipPath><clipPath><rect width="384" height="384"/></clipPath></defs><path d="m361.5 305.89v-229.02c0-9.9858-8.0946-18.08-18.08-18.08h-301.34c-9.9858 0-18.08 8.0946-18.08 18.08v229.02c0 9.9858 8.0946 18.08 18.08 18.08h301.34c9.9858 0 18.08-8.0946 18.08-18.08z" fill="#4b4b4b"/><rect x="48.107" y="82.902" width="289.29" height="216.96" opacity=".3" style="paint-order:markers stroke fill"/><g transform="matrix(.52955 0 0 .52955 90.326 90.326)"><path d="m341.54 113.75c-236.36 188.83-118.18 94.414 0 0zm0 0-136.62 0.0547 46.328 130.71-67.754 116.02c2.8164 0.13672 5.6562 0.21094 8.5078 0.21094 93.199 0 168.75-75.551 168.75-168.75 0-28.242-6.9492-54.855-19.211-78.246z" fill="#ffc62f"/><path d="m192 23.25c-60.668 0-113.85 32.023-143.59 80.082l68.039 111.46 75.555-102.04c4.1094 0.0352 8.2109 0.38672 12.262 1.0547l137.28-0.0547c-28.207-53.797-84.582-90.504-149.54-90.504zm-143.61 80.113c-40.926 195.76-20.461 97.879 0 0z" fill="#d31818"/><path d="m48.406 103.33c-15.945 25.766-25.156 56.141-25.156 88.668 0 90.344 70.996 164.11 160.24 168.54l67.754-116.02c-15.02 16.973-36.582 26.703-59.246 26.73l-75.555-56.451z" fill="#0ba05d"/><g fill-opacity=".95296"><path d="m341.55 113.71-111.48 35.843-28.72-35.761z" opacity=".3"/><path d="m183.49 360.55 25.32-114.33 45.367-6.7455z" opacity=".3"/><path d="m48.277 103.34 88.685 76.472-15.556 43.148z" opacity=".3"/></g><path d="m271.25 192c0 43.766-35.48 79.246-79.246 79.246-43.766 0-79.246-35.48-79.246-79.246 0-43.766 35.48-79.246 79.246-79.246 43.766 0 79.246 35.48 79.246 79.246z" fill="#fff"/><path d="m257.39 192c0 36.113-29.277 65.391-65.391 65.391s-65.391-29.277-65.391-65.391 29.277-65.391 65.391-65.391 65.391 29.277 65.391 65.391z" fill="#357aef"/></g><path transform="scale(.75)" d="m32 397.86v10c0 13.314 10.793 24.107 24.107 24.107h401.79c13.314 0 24.107-10.793 24.107-24.107v-10c0 13.314-10.793 24.107-24.107 24.107h-401.79c-13.314 0-24.107-10.793-24.107-24.107z" fill="#f6f6f6" opacity=".3" stroke-width="1.3333"/><path transform="scale(.75)" d="m56.107 78.393c-13.314 0-24.107 10.793-24.107 24.107v10c0-13.314 10.793-24.107 24.107-24.107h401.79c13.314 0 24.107 10.793 24.107 24.107v-10c0-13.314-10.793-24.107-24.107-24.107h-401.79z" fill="#090000" opacity=".3" stroke-width="1.3333"/></svg>
