<svg xmlns="http://www.w3.org/2000/svg" xmlns:xlink="http://www.w3.org/1999/xlink" width="384pt" height="384pt" version="1.1" viewBox="0 0 384 384">
 <defs>
  <filter id="alpha" width="100%" height="100%" x="0%" y="0%" filterUnits="objectBoundingBox">
   <feColorMatrix in="SourceGraphic" type="matrix" values="0 0 0 0 1 0 0 0 0 1 0 0 0 0 1 0 0 0 1 0"/>
  </filter>
  <mask id="mask0">
   <g filter="url(#alpha)">
    <rect width="384" height="384" x="0" y="0" style="fill:rgb(0%,0%,0%);fill-opacity:0.2"/>
   </g>
  </mask>
  <clipPath id="clip1">
   <rect width="384" height="384" x="0" y="0"/>
  </clipPath>
  <g id="surface5" clip-path="url(#clip1)">
   <path style="fill:rgb(0%,0%,0%)" d="M 24.304688 192.003906 C 24.234375 194.007812 24 195.972656 24 198.003906 C 24 291.074219 98.925781 366 191.996094 366 C 285.066406 366 359.996094 291.074219 359.996094 198.003906 C 359.996094 195.976562 359.761719 194.011719 359.691406 192.003906 C 356.523438 282.253906 283.035156 354 191.992188 354 C 100.949219 354 27.464844 282.253906 24.296875 192.003906 Z M 24.304688 192.003906"/>
  </g>
  <mask id="mask1">
   <g filter="url(#alpha)">
    <rect width="384" height="384" x="0" y="0" style="fill:rgb(0%,0%,0%);fill-opacity:0.2"/>
   </g>
  </mask>
  <clipPath id="clip2">
   <rect width="384" height="384" x="0" y="0"/>
  </clipPath>
  <g id="surface8" clip-path="url(#clip2)">
   <path style="fill:rgb(0%,0%,0%)" d="M 263.433594 162.960938 L 262.800781 164.015625 C 264.351562 170.839844 265.152344 177.808594 265.191406 184.804688 C 265.160156 189.917969 264.722656 195.019531 263.878906 200.0625 C 278.308594 205.105469 287.976562 218.714844 287.996094 234 C 287.996094 253.878906 271.878906 269.996094 252 269.996094 C 243.089844 269.976562 234.503906 266.652344 227.90625 260.671875 C 218.0625 268.320312 206.820312 273.980469 194.8125 277.335938 L 194.71875 277.476562 C 208.308594 295.414062 229.5 305.964844 252.003906 306 C 291.769531 306 324.003906 273.761719 324.003906 234 C 323.980469 198.667969 298.324219 168.574219 263.441406 162.960938 Z M 263.433594 162.960938"/>
   <path style="fill:rgb(0%,0%,0%)" d="M 120.191406 163.082031 C 85.5 168.847656 60.050781 198.832031 60 234 C 60 273.765625 92.234375 306 132 306 C 154.484375 305.980469 175.671875 295.457031 189.273438 277.546875 C 177.070312 274.339844 165.621094 268.757812 155.578125 261.121094 C 149.042969 266.824219 140.671875 269.976562 132 270 C 112.117188 270 96 253.882812 96 234 C 96 219.167969 105.101562 205.851562 118.921875 200.460938 C 118.054688 195.285156 117.617188 190.046875 117.609375 184.800781 C 117.640625 177.488281 118.503906 170.199219 120.191406 163.082031 Z M 120.191406 163.082031"/>
   <path style="fill:rgb(0%,0%,0%)" d="M 191.996094 66.003906 C 152.234375 66.003906 120 98.238281 120 138.003906 C 120.035156 146 121.40625 153.9375 124.054688 161.484375 C 133.195312 152.308594 144.101562 145.078125 156.117188 140.226562 C 156.050781 139.484375 156.011719 138.742188 155.996094 137.996094 C 155.996094 118.113281 172.113281 101.996094 191.996094 101.996094 C 211.878906 101.996094 227.996094 118.113281 227.996094 137.996094 C 227.980469 138.746094 227.941406 139.496094 227.878906 140.246094 C 239.894531 145.078125 250.808594 152.292969 259.960938 161.457031 C 262.597656 153.914062 263.960938 145.988281 263.992188 137.996094 C 263.992188 98.234375 231.757812 66 191.996094 66 Z M 191.996094 66.003906"/>
   <path style="fill:rgb(0%,0%,0%)" d="M 215.996094 138.003906 C 215.996094 151.257812 205.253906 162.003906 191.996094 162.003906 C 178.742188 162.003906 167.996094 151.257812 167.996094 138.003906 C 167.996094 124.746094 178.742188 114.003906 191.996094 114.003906 C 205.253906 114.003906 215.996094 124.746094 215.996094 138.003906 Z M 215.996094 138.003906"/>
   <path style="fill:rgb(0%,0%,0%)" d="M 156 234 C 156 247.253906 145.253906 258 132 258 C 118.742188 258 108 247.253906 108 234 C 108 220.746094 118.742188 210 132 210 C 145.253906 210 156 220.746094 156 234 Z M 156 234"/>
   <path style="fill:rgb(0%,0%,0%)" d="M 275.996094 234 C 275.996094 247.253906 265.25 258 251.996094 258 C 238.742188 258 227.996094 247.253906 227.996094 234 C 227.996094 220.746094 238.742188 210 251.996094 210 C 265.25 210 275.996094 220.746094 275.996094 234 Z M 275.996094 234"/>
  </g>
  <mask id="mask2">
   <g filter="url(#alpha)">
    <rect width="384" height="384" x="0" y="0" style="fill:rgb(0%,0%,0%);fill-opacity:0.101961"/>
   </g>
  </mask>
  <clipPath id="clip3">
   <rect width="384" height="384" x="0" y="0"/>
  </clipPath>
  <g id="surface11" clip-path="url(#clip3)">
   <path style="fill:rgb(100%,100%,100%)" d="M 192 24 C 98.929688 24 24 98.929688 24 192 C 24 192.679688 24.066406 193.34375 24.105469 194.015625 C 26.214844 102.804688 100.265625 30 192 30 C 283.734375 30 357.785156 102.804688 359.894531 194.015625 C 359.933594 193.34375 360 192.679688 360 192 C 360 98.929688 285.070312 24 192 24 Z M 192 24"/>
  </g>
 </defs>
 <g>
  <use mask="url(#mask0)" xlink:href="#surface5"/>
  <path style="fill:rgb(30.980392%,30.980392%,30.980392%)" d="M 360 192.003906 C 360 99.222656 284.785156 24.007812 192.003906 24.007812 C 99.222656 24.007812 24.007812 99.222656 24.007812 192.003906 C 24.007812 284.785156 99.222656 360 192.003906 360 C 284.785156 360 360 284.785156 360 192.003906 Z M 360 192.003906"/>
  <use mask="url(#mask1)" xlink:href="#surface8"/>
  <use mask="url(#mask2)" xlink:href="#surface11"/>
  <path style="fill:rgb(24.705882%,67.45098%,82.352941%)" d="M 263.433594 156.960938 L 262.796875 158.015625 C 264.351562 164.835938 265.15625 171.804688 265.195312 178.800781 C 265.164062 183.914062 264.722656 189.019531 263.875 194.0625 C 278.304688 199.109375 287.976562 212.714844 287.996094 228 C 287.996094 247.882812 271.878906 264 251.996094 264 C 243.085938 263.980469 234.503906 260.65625 227.902344 254.675781 C 218.054688 262.324219 206.8125 267.980469 194.804688 271.332031 L 194.722656 271.476562 C 208.308594 289.410156 229.496094 299.960938 251.996094 300 C 291.761719 300 323.996094 267.761719 323.996094 228 C 323.972656 192.667969 298.316406 162.574219 263.433594 156.960938 Z M 263.433594 156.960938"/>
  <path style="fill:rgb(88.235294%,38.431373%,38.431373%)" d="M 120.191406 157.082031 C 85.5 162.847656 60.050781 192.832031 60 228 C 60 267.761719 92.234375 300 132 300 C 154.484375 299.980469 175.671875 289.453125 189.273438 271.546875 C 177.070312 268.339844 165.621094 262.757812 155.578125 255.121094 C 149.042969 260.824219 140.671875 263.976562 132 264 C 112.117188 264 96 247.882812 96 228 C 96 213.164062 105.101562 199.847656 118.921875 194.460938 C 118.054688 189.285156 117.617188 184.046875 117.609375 178.800781 C 117.640625 171.484375 118.503906 164.199219 120.191406 157.082031 Z M 120.191406 157.082031"/>
  <path style="fill:rgb(41.176471%,85.882353%,24.313725%)" d="M 191.996094 60.003906 C 152.234375 60.003906 120 92.238281 120 132 C 120.035156 140 121.40625 147.9375 124.054688 155.484375 C 133.199219 146.308594 144.105469 139.082031 156.117188 134.234375 C 156.054688 133.492188 156.015625 132.746094 156 132 C 156 112.117188 172.117188 96 191.996094 96 C 211.878906 96 227.996094 112.117188 227.996094 132 C 227.980469 132.753906 227.941406 133.507812 227.878906 134.257812 C 239.894531 139.089844 250.808594 146.300781 259.964844 155.460938 C 262.601562 147.917969 263.964844 139.992188 263.996094 132 C 263.996094 92.238281 231.761719 60.003906 191.996094 60.003906 Z M 191.996094 60.003906"/>
  <path style="fill:rgb(64.705882%,91.372549%,54.901961%)" d="M 216 132 C 216 145.253906 205.253906 156 192 156 C 178.746094 156 168 145.253906 168 132 C 168 118.746094 178.746094 108 192 108 C 205.253906 108 216 118.746094 216 132 Z M 216 132"/>
  <path style="fill:rgb(92.156863%,58.431373%,58.431373%)" d="M 156 228 C 156 241.253906 145.253906 252 132 252 C 118.746094 252 108 241.253906 108 228 C 108 214.746094 118.746094 204 132 204 C 145.253906 204 156 214.746094 156 228 Z M 156 228"/>
  <path style="fill:rgb(54.901961%,80.392157%,89.411765%)" d="M 275.992188 228 C 275.992188 241.253906 265.25 252 251.992188 252 C 238.738281 252 227.992188 241.253906 227.992188 228 C 227.992188 214.746094 238.738281 204 251.992188 204 C 265.25 204 275.992188 214.746094 275.992188 228 Z M 275.992188 228"/>
 </g>
</svg>
