<svg xmlns="http://www.w3.org/2000/svg" xmlns:xlink="http://www.w3.org/1999/xlink" width="384pt" height="384pt" version="1.1" viewBox="0 0 384 384">
 <defs>
  <filter id="alpha" width="100%" height="100%" x="0%" y="0%" filterUnits="objectBoundingBox">
   <feColorMatrix in="SourceGraphic" type="matrix" values="0 0 0 0 1 0 0 0 0 1 0 0 0 0 1 0 0 0 1 0"/>
  </filter>
  <mask id="mask0">
   <g filter="url(#alpha)">
    <rect width="384" height="384" x="0" y="0" style="fill:rgb(0%,0%,0%);fill-opacity:0.2"/>
   </g>
  </mask>
  <clipPath id="clip1">
   <rect width="384" height="384" x="0" y="0"/>
  </clipPath>
  <g id="surface5" clip-path="url(#clip1)">
   <path style="fill:rgb(100%,100%,100%)" d="M 175.488281 180.785156 L 175.488281 180.796875 L 155.003906 204.445312 L 139.21875 220.019531 L 121.640625 231.960938 L 100.5 243.234375 L 76.011719 252.457031 L 60.667969 256.082031 L 60 258.097656 L 60.65625 262.105469 L 60.671875 262.082031 L 76.007812 258.460938 L 100.5 249.238281 L 121.640625 237.964844 L 139.21875 226.023438 L 155.003906 210.449219 L 175.492188 186.800781 L 175.492188 186.789062 L 176.253906 187.28125 L 176.652344 188.429688 L 178.65625 191.371094 L 192.445312 199.703125 L 209.800781 210.53125 C 230.742188 223.453125 242.910156 240.34375 265.5 246.824219 L 293.640625 250.117188 L 295.140625 250.117188 L 297.332031 244.117188 L 293.632812 244.117188 L 265.5 240.824219 C 242.910156 234.335938 230.738281 217.449219 209.800781 204.53125 L 192.445312 193.699219 L 178.648438 185.371094 L 176.644531 182.425781 L 176.25 181.28125 Z M 132.082031 327.882812 L 123.328125 327.964844 L 116.519531 332.699219 L 116.285156 335.417969 L 118.59375 337.257812 Z M 169.476562 347.242188 C 169.476562 347.242188 167.429688 349.78125 164.027344 352.480469 C 162.820312 355.417969 161.847656 358.28125 162.023438 359.996094 L 163.394531 359.996094 C 165.542969 354.199219 169.476562 347.234375 169.476562 347.234375 Z M 313.816406 24.023438 C 309.851562 24.324219 305.398438 26.953125 301.792969 32.785156 L 301.804688 32.785156 L 285.4375 64.027344 L 271.292969 95.902344 L 253.980469 130.660156 L 242.019531 159.253906 L 228.730469 153.59375 L 209.582031 145.238281 L 204.894531 145.238281 L 200.898438 146.375 L 194.453125 154.941406 L 175.761719 179.949219 L 176.652344 182.433594 L 177.472656 183.652344 L 194.453125 160.941406 L 200.898438 152.363281 L 204.894531 151.238281 L 209.582031 151.238281 L 228.730469 159.59375 L 242.019531 165.253906 L 253.984375 136.660156 L 271.292969 101.902344 L 285.4375 70.027344 L 301.808594 38.785156 L 301.796875 38.785156 C 309.605469 26.140625 321.398438 28.546875 323.636719 37.070312 C 325.332031 29.121094 320.226562 23.527344 313.824219 24.015625 Z M 273.585938 173.050781 L 272.214844 176.507812 L 271.429688 177.785156 L 272.097656 178.078125 L 277.945312 181.886719 L 287.507812 186.046875 L 303.984375 193.710938 L 305.988281 197.496094 L 306.105469 196.746094 L 306.433594 192.339844 L 303.984375 187.710938 L 287.507812 180.046875 L 277.945312 175.886719 Z M 273.585938 173.050781"/>
  </g>
  <mask id="mask1">
   <g filter="url(#alpha)">
    <rect width="384" height="384" x="0" y="0" style="fill:rgb(0%,0%,0%);fill-opacity:0.2"/>
   </g>
  </mask>
  <clipPath id="clip2">
   <rect width="384" height="384" x="0" y="0"/>
  </clipPath>
  <g id="surface8" clip-path="url(#clip2)">
   <path style="fill:rgb(0%,0%,0%)" d="M 295.132812 250.117188 L 293.527344 254.5 L 285.746094 274.105469 L 275.503906 298.222656 L 269.058594 310.398438 L 260.375 323.6875 L 249.253906 337 C 238.671875 348.199219 226.859375 358.652344 208.988281 359.078125 L 192.054688 358.867188 L 195.171875 353.910156 L 185.832031 358.65625 L 177.59375 359.992188 L 163.394531 359.992188 C 162.511719 362.367188 161.882812 364.574219 162.027344 365.996094 L 177.601562 365.996094 L 185.835938 364.648438 L 195.175781 359.902344 L 192.058594 364.859375 L 208.992188 365.070312 C 226.863281 364.644531 238.675781 354.191406 249.257812 342.992188 L 260.378906 329.679688 L 269.0625 316.390625 L 275.507812 304.214844 L 285.75 280.097656 L 293.53125 260.492188 L 297.328125 250.109375 Z M 60.652344 262.105469 L 60 264.097656 L 60.890625 269.511719 L 64.453125 278.535156 L 72.011719 293.417969 L 79.359375 304.445312 L 93.597656 319.550781 L 100.042969 326.078125 L 105.832031 328.128906 L 123.328125 327.964844 L 132.082031 321.882812 L 105.832031 322.128906 L 100.042969 320.078125 L 93.597656 313.550781 L 79.359375 298.445312 L 72.011719 287.417969 L 64.453125 272.535156 L 60.890625 263.511719 Z M 118.589844 337.253906 L 116.515625 338.695312 L 116.28125 341.414062 L 125.632812 348.84375 L 138.3125 356.285156 C 148.617188 362.101562 158.269531 357.042969 164.023438 352.476562 C 166.242188 347.046875 169.472656 341.238281 169.472656 341.238281 C 169.472656 341.238281 154.707031 359.542969 138.3125 350.285156 L 125.636719 342.851562 Z M 323.628906 37.078125 C 323.574219 37.335938 323.558594 37.578125 323.488281 37.839844 L 317.546875 55.75 L 310.316406 74.230469 L 301.808594 94.96875 L 290.792969 124.28125 L 281.992188 145.96875 L 272.21875 170.507812 L 271.433594 171.785156 L 272.101562 172.078125 L 273.589844 173.050781 L 281.992188 151.96875 L 290.792969 130.289062 L 301.808594 100.96875 L 310.316406 80.226562 L 317.546875 61.746094 L 323.488281 43.839844 C 324.15625 41.332031 324.144531 39.046875 323.628906 37.078125 Z M 177.476562 183.660156 L 175.765625 185.957031 L 176.65625 188.441406 L 178.648438 191.382812 L 192.441406 199.714844 L 209.796875 210.53125 C 230.734375 223.453125 242.902344 240.34375 265.496094 246.824219 L 293.628906 250.125 L 298.351562 250.125 L 298.667969 248.882812 L 302.757812 223.371094 L 306.109375 202.746094 L 306.4375 198.339844 L 305.992188 197.496094 L 302.757812 217.359375 L 298.667969 242.871094 L 298.351562 244.125 L 293.628906 244.125 L 265.492188 240.820312 C 242.898438 234.335938 230.730469 217.449219 209.792969 204.527344 L 192.4375 193.710938 L 178.644531 185.378906 Z M 177.476562 183.660156"/>
  </g>
 </defs>
 <g>
  <path style="fill:rgb(100%,78.431373%,19.215686%)" d="M 175.488281 180.792969 L 155.007812 204.449219 L 139.21875 220.019531 L 121.636719 231.964844 L 100.496094 243.234375 L 76.003906 252.453125 L 60.664062 256.078125 L 60.003906 258.09375 L 60.890625 263.507812 L 64.453125 272.53125 L 72.007812 287.414062 L 79.355469 298.4375 L 93.601562 313.546875 L 100.046875 320.078125 L 105.832031 322.128906 L 132.078125 321.882812 L 116.515625 332.695312 L 116.289062 335.417969 L 125.632812 342.851562 L 138.316406 350.28125 C 154.710938 359.539062 169.480469 341.242188 169.480469 341.242188 C 169.480469 341.242188 161.53125 355.113281 162.019531 359.996094 L 177.601562 359.996094 L 185.832031 358.648438 L 195.179688 353.90625 L 192.054688 358.863281 L 208.988281 359.074219 C 226.859375 358.648438 238.671875 348.191406 249.257812 336.992188 L 260.375 323.6875 L 269.058594 310.398438 L 275.503906 298.226562 L 285.753906 274.109375 L 293.535156 254.5 L 297.320312 244.117188 L 293.632812 244.117188 L 265.496094 240.820312 C 242.90625 234.335938 230.730469 217.449219 209.792969 204.527344 L 192.4375 193.699219 L 178.648438 185.367188 L 176.648438 182.429688 L 176.246094 181.28125 L 175.488281 180.789062 Z M 175.488281 180.792969"/>
  <path style="fill:rgb(83.137255%,10.196078%,10.196078%)" d="M 301.800781 32.792969 L 285.4375 64.035156 L 271.289062 95.90625 L 253.976562 130.667969 L 242.015625 159.261719 L 228.722656 153.601562 L 209.578125 145.242188 L 204.894531 145.242188 L 200.898438 146.375 L 194.453125 154.949219 L 175.761719 179.953125 L 176.644531 182.4375 L 178.640625 185.375 L 192.433594 193.710938 L 209.792969 204.527344 C 230.730469 217.449219 242.898438 234.335938 265.492188 240.816406 L 293.621094 244.128906 L 298.351562 244.128906 L 298.664062 242.875 L 302.753906 217.367188 L 306.105469 196.746094 L 306.4375 192.335938 L 303.988281 187.710938 L 287.507812 180.050781 L 277.949219 175.882812 L 272.101562 172.078125 L 271.433594 171.789062 L 272.21875 170.511719 L 281.992188 145.964844 L 290.792969 124.285156 L 301.800781 94.96875 L 310.316406 74.226562 L 317.542969 55.75 L 323.484375 37.84375 C 327.035156 24.46875 311.410156 17.234375 301.800781 32.789062 Z M 301.800781 32.792969"/>
  <use mask="url(#mask0)" xlink:href="#surface5"/>
  <use mask="url(#mask1)" xlink:href="#surface8"/>
 </g>
</svg>
