<svg xmlns="http://www.w3.org/2000/svg" width="384pt" height="384pt" version="1.1" viewBox="0 0 384 384">
 <g>
  <path style="fill-rule:evenodd;fill:rgb(21.176471%,48.235294%,94.117647%);fill-opacity:0.996078" d="M 204.820312 23.25 C 246.359375 59.113281 256.746094 95.460938 256.746094 152.582031 L 273.785156 108.441406 C 291.722656 126.078125 303.949219 149.449219 307.539062 175.621094 C 308.859375 195.75 305.570312 213.570312 300.378906 229.148438 C 321.570312 215.65625 348.332031 200.238281 359.789062 175.621094 C 352.140625 94.171875 286.671875 29.476562 204.820312 23.25 Z M 175.621094 24.210938 C 94.171875 31.859375 29.476562 97.324219 23.25 179.179688 C 59.113281 137.636719 95.460938 127.253906 152.578125 127.253906 L 108.441406 110.214844 C 126.078125 92.277344 149.449219 80.050781 175.621094 76.464844 C 195.75 75.144531 213.570312 78.429688 229.148438 83.621094 C 215.65625 62.429688 200.238281 35.667969 175.621094 24.210938 Z M 83.621094 154.851562 C 62.433594 168.34375 35.667969 183.761719 24.210938 208.378906 C 31.859375 289.828125 97.328125 354.523438 179.179688 360.75 C 137.640625 324.886719 127.253906 288.539062 127.253906 231.417969 L 110.214844 275.558594 C 92.277344 257.921875 80.050781 234.550781 76.464844 208.378906 C 75.144531 188.25 78.429688 170.429688 83.621094 154.851562 Z M 360.75 204.820312 C 324.886719 246.359375 288.539062 256.746094 231.421875 256.746094 L 275.558594 273.785156 C 257.921875 291.722656 234.550781 303.949219 208.378906 307.539062 C 188.25 308.859375 170.429688 305.570312 154.851562 300.378906 C 168.34375 321.570312 183.761719 348.332031 208.378906 359.789062 C 289.828125 352.140625 354.523438 286.671875 360.75 204.820312 Z M 360.75 204.820312"/>
 </g>
</svg>
