<svg xmlns="http://www.w3.org/2000/svg" width="384pt" height="384pt" version="1.1" viewBox="0 0 384 384">
 <g transform="matrix(1.6363637,0,0,1.6363637,-455.83014,383.37773)">
  <g>
   <path style="fill:#f7faf8" d="m 367.31201,-114.76196 -15.82001,21.285109 -6.04037,27.037846 18.98402,44.583682 30.77712,-51.774598 29.33894,49.473505 16.39529,-20.422203 4.88982,-33.365852 -10.35492,-26.750209 -18.69638,-19.55929 -24.16148,-15.82002 z"/>
   <path style="fill:#54bd8e" d="m 351.80783,-216.34924 c -24.48262,0 -41.89699,13.79888 -48.27145,37.88983 -1.90593,7.20305 -0.87451,15.184 1.23041,22.62102 4.14574,14.64761 11.17099,26.71302 24.34105,33.63509 7.51761,3.95119 12.31445,5.79082 21.01497,6.29032 4.22813,0.24274 9.29449,-0.70146 9.29449,-0.57422 10.38059,-1.63069 25.88347,-14.51986 31.50033,-19.12684 27.52049,8.12729 17.08572,14.14664 40.75108,21.56646 0,-0.18648 6.06044,-3.25928 8.87219,-3.25928 29.27676,0 49.67741,-20.061 49.6668,-49.52119 -0.003,-9.44018 -0.74131,-15.0394 -4.86876,-23.37641 -9.1418,-18.46548 -24.47849,-27.26342 -45.03534,-27.26342 -15.51516,0 -27.7379,7.03271 -38.62491,19.02701 l -5.85084,4.8381 -7.99449,-7.11733 c -11.17067,-11.42608 -20.86234,-15.62914 -36.02553,-15.62914 z m 0.43902,38.59492 c 5.99733,-3.3e-4 10.85922,4.86155 10.85889,10.85888 -4.8e-4,5.99676 -4.86213,10.85775 -10.85889,10.85742 -5.99619,-4.8e-4 -10.85694,-4.86123 -10.85742,-10.85742 -3.3e-4,-5.99676 4.86066,-10.8584 10.85742,-10.85888 z m 87.54931,0.0718 c 5.99733,-3.3e-4 10.85922,4.86155 10.85889,10.85888 -4.7e-4,5.99677 -4.86212,10.85776 -10.85889,10.85743 -5.99619,-4.8e-4 -10.85695,-4.86124 -10.85742,-10.85743 -3.3e-4,-5.99676 4.86066,-10.8584 10.85742,-10.85888 z"/>
   <path style="fill:#131614" d="m 353.20486,-219.13323 c -19.9978,-0.34482 -39.1312,10.9479 -48.00733,29.43018 -16.53842,34.43711 7.81137,74.19943 45.90234,74.95752 3.59925,0.0716 6.75688,0.34377 7.01661,0.60351 0.25973,0.25973 -1.55031,3.49502 -4.02246,7.19092 -17.13403,25.615651 -14.62993,57.447058 6.61962,84.120118 3.28782,4.126961 6.31041,7.50293 6.71631,7.50293 0.40593,0 2.56374,-3.639511 4.79444,-8.087403 3.96667,-7.90932 12.98392,-24.556008 19.37695,-35.772948 1.76274,-3.092841 3.71133,-5.623536 4.33008,-5.623536 0.61876,0 2.56587,2.530695 4.32861,5.623536 6.39303,11.21694 15.4103,27.863629 19.37696,35.772948 2.23071,4.447892 4.38852,8.087403 4.79443,8.087403 1.4161,0 12.41267,-14.672845 15.62549,-20.849121 12.81062,-24.627112 12.00928,-49.396955 -2.28955,-70.773927 -2.47214,-3.6959 -4.28426,-6.92913 -4.02832,-7.18506 0.25594,-0.25594 3.58086,-0.55203 7.39014,-0.65771 8.4795,-0.23522 14.09183,-1.64463 21.92724,-5.50781 38.42034,-18.94284 38.3946,-74.0144 -0.0425,-93.28272 -2.86492,-1.43616 -7.40127,-3.20488 -10.08252,-3.93164 -5.97692,-1.62006 -18.89295,-1.83791 -24.75,-0.41748 -9.97816,2.41988 -23.31191,10.76821 -28.875,18.0791 -1.23749,1.6263 -2.75625,2.95988 -3.375,2.96338 -0.61874,0.004 -2.30624,-1.50585 -3.75,-3.3545 -5.70478,-7.30465 -18.21875,-15.15837 -27.83789,-17.47119 -3.70292,-0.89031 -7.43538,-1.35264 -11.13867,-1.4165 z m 86.64697,8.15332 c 16.39441,0.0839 32.57155,9.18167 40.08985,25.77686 2.78571,6.14894 3.86568,11.21036 3.89648,18.2666 0.0538,12.31504 -4.00835,22.10931 -12.83057,30.94189 -8.21453,8.22415 -17.10711,12.37234 -28.26562,13.18213 -19.24971,1.39698 -38.55947,-11.35286 -44.57666,-29.43457 -0.8841,-2.65668 -1.88865,-4.83105 -2.23389,-4.83105 -0.34524,0 -1.35127,2.17437 -2.23535,4.83105 -4.19145,12.59531 -14.6403,22.70427 -28.49854,27.57276 -6.22659,2.18744 -17.01796,2.48917 -23.73779,0.66357 -8.60193,-2.33692 -14.26201,-5.62954 -20.60596,-11.98242 -8.853,-8.8655 -12.92337,-18.7306 -12.85546,-31.16016 0.0554,-10.15305 2.84053,-18.32709 9.06884,-26.61621 13.25742,-17.64396 38.82294,-22.4715 57.86426,-10.92627 8.3338,5.053 16.26342,15.00164 19.06934,23.92237 0.7258,2.30754 1.59494,4.19531 1.93066,4.19531 0.33572,0 1.20339,-1.88777 1.9292,-4.19531 1.79187,-5.69684 5.93802,-12.3503 10.73877,-17.23389 8.71645,-8.86687 20.03521,-13.03009 31.25244,-12.97266 z m -87.60498,24.88477 a 19.199747,19.199747 0 0 0 -19.19971,19.1997 19.199747,19.199747 0 0 0 19.19971,19.19971 19.199747,19.199747 0 0 0 19.19971,-19.19971 19.199747,19.199747 0 0 0 -19.19971,-19.1997 z m 87.54931,0.0718 a 19.199747,19.199747 0 0 0 -19.1997,19.1997 19.199747,19.199747 0 0 0 19.1997,19.19971 19.199747,19.199747 0 0 0 19.19971,-19.19971 19.199747,19.199747 0 0 0 -19.19971,-19.1997 z m -87.54931,8.26904 a 10.858284,10.858284 0 0 1 10.85889,10.85888 10.858284,10.858284 0 0 1 -10.85889,10.85742 10.858284,10.858284 0 0 1 -10.85742,-10.85742 10.858284,10.858284 0 0 1 10.85742,-10.85888 z m 87.54931,0.0718 a 10.858284,10.858284 0 0 1 10.85889,10.85888 10.858284,10.858284 0 0 1 -10.85889,10.85743 10.858284,10.858284 0 0 1 -10.85742,-10.85743 10.858284,10.858284 0 0 1 10.85742,-10.85888 z m -46.83691,43.7417 4.73584,2.64843 c 16.35447,9.14594 30.47869,22.95127 37.19824,36.357425 8.77677,17.5105 6.99611,39.850453 -4.68603,58.794433 -1.71703,2.784369 -3.52016,5.0625 -4.00781,5.0625 -0.48765,0 -3.0639,-4.134381 -5.72462,-9.1875 -6.25858,-11.88615 -19.14954,-34.365362 -33.22411,-57.9375 -6.15744,-10.312498 -11.29787,-19.136168 -11.42285,-19.608398 -0.12504,-0.47222 3.6786,-4.29514 8.45214,-8.49463 z m -24.37061,23.50048 c 0.0587,-0.005 0.11299,-0.002 0.16407,0.007 1.63166,0.31423 22.06728,34.376418 21.51123,35.854978 -0.23272,0.61875 -4.40826,8.212498 -9.27978,16.875 -4.87152,8.6625 -10.08697,18.19687 -11.58985,21.1875 -1.50287,2.99062 -3.16723,5.4375 -3.69873,5.4375 -1.64565,0 -8.08145,-11.607231 -10.70361,-19.303711 -5.69897,-16.727348 -4.82333,-31.347659 2.7539,-45.946289 3.61889,-6.972258 9.02258,-13.968018 10.84277,-14.112308 z"/>
  </g>
 </g>
</svg>
