<svg xmlns="http://www.w3.org/2000/svg" xmlns:xlink="http://www.w3.org/1999/xlink" width="384pt" height="384pt" version="1.1" viewBox="0 0 384 384">
 <defs>
  <filter id="alpha" width="100%" height="100%" x="0%" y="0%" filterUnits="objectBoundingBox">
   <feColorMatrix in="SourceGraphic" type="matrix" values="0 0 0 0 1 0 0 0 0 1 0 0 0 0 1 0 0 0 1 0"/>
  </filter>
  <mask id="mask0">
   <g filter="url(#alpha)">
    <rect width="384" height="384" x="0" y="0" style="fill:rgb(0%,0%,0%);fill-opacity:0.2"/>
   </g>
  </mask>
  <clipPath id="clip1">
   <rect width="384" height="384" x="0" y="0"/>
  </clipPath>
  <g id="surface5" clip-path="url(#clip1)">
   <path style="fill:rgb(0%,0%,0%)" d="M 24.304688 192 C 24.234375 194.003906 24 195.972656 24 198 C 24 291.070312 98.929688 366 192 366 C 285.070312 366 360 291.070312 360 198 C 360 195.972656 359.765625 194.007812 359.695312 192 C 356.527344 282.253906 283.039062 354 191.996094 354 C 100.949219 354 27.464844 282.253906 24.296875 192 Z M 24.304688 192"/>
  </g>
  <mask id="mask1">
   <g filter="url(#alpha)">
    <rect width="384" height="384" x="0" y="0" style="fill:rgb(0%,0%,0%);fill-opacity:0.2"/>
   </g>
  </mask>
  <clipPath id="clip2">
   <rect width="384" height="384" x="0" y="0"/>
  </clipPath>
  <g id="surface8" clip-path="url(#clip2)">
   <path style="fill:rgb(0%,0%,0%)" d="M 210.847656 113.957031 C 174.5 113.957031 144.472656 143.652344 144.472656 179.957031 C 144.472656 193.757812 149.144531 206.453125 156.472656 217.082031 L 112.222656 261.332031 C 107.484375 266 107.410156 273.617188 112.0625 278.371094 C 116.710938 283.125 124.332031 283.21875 129.097656 278.582031 L 173.347656 234.332031 C 183.996094 241.664062 197.023438 245.957031 210.847656 245.957031 C 247.195312 245.957031 276.847656 216.261719 276.847656 179.957031 C 276.847656 143.652344 247.195312 113.957031 210.847656 113.957031 Z M 210.847656 137.957031 C 234.214844 137.957031 252.847656 156.617188 252.847656 179.957031 C 252.847656 203.300781 234.214844 221.957031 210.847656 221.957031 C 187.476562 221.957031 168.847656 203.300781 168.847656 179.957031 C 168.847656 156.617188 187.476562 137.957031 210.847656 137.957031 Z M 210.847656 137.957031"/>
  </g>
  <mask id="mask2">
   <g filter="url(#alpha)">
    <rect width="384" height="384" x="0" y="0" style="fill:rgb(0%,0%,0%);fill-opacity:0.101961"/>
   </g>
  </mask>
  <clipPath id="clip3">
   <rect width="384" height="384" x="0" y="0"/>
  </clipPath>
  <g id="surface11" clip-path="url(#clip3)">
   <path style="fill:rgb(100%,100%,100%)" d="M 192 24 C 98.929688 24 24 98.929688 24 192 C 24 192.679688 24.066406 193.34375 24.105469 194.015625 C 26.214844 102.804688 100.265625 30 192 30 L 192.011719 30 C 283.746094 30 357.796875 102.804688 359.90625 194.015625 C 359.945312 193.34375 360.011719 192.679688 360.011719 192 C 360.011719 98.929688 285.082031 24 192.011719 24 Z M 192 24"/>
  </g>
 </defs>
 <g>
  <use mask="url(#mask0)" xlink:href="#surface5"/>
  <path style="fill:rgb(29.803922%,29.803922%,29.803922%)" d="M 360 192 C 360 99.214844 284.785156 24 192 24 C 99.214844 24 24 99.214844 24 192 C 24 284.785156 99.214844 360 192 360 C 284.785156 360 360 284.785156 360 192 Z M 360 192"/>
  <use mask="url(#mask1)" xlink:href="#surface8"/>
  <use mask="url(#mask2)" xlink:href="#surface11"/>
  <path style="fill:rgb(100%,100%,100%)" d="M 210.847656 107.933594 C 174.5 107.933594 144.472656 137.628906 144.472656 173.933594 C 144.472656 187.734375 149.144531 200.425781 156.472656 211.058594 L 112.222656 255.308594 C 107.484375 259.972656 107.410156 267.59375 112.0625 272.347656 C 116.710938 277.101562 124.332031 277.195312 129.097656 272.558594 L 173.347656 228.308594 C 183.996094 235.640625 197.023438 239.933594 210.847656 239.933594 C 247.195312 239.933594 276.847656 210.238281 276.847656 173.933594 C 276.847656 137.628906 247.195312 107.933594 210.847656 107.933594 Z M 210.847656 131.933594 C 234.214844 131.933594 252.847656 150.589844 252.847656 173.933594 C 252.847656 197.273438 234.214844 215.933594 210.847656 215.933594 C 187.476562 215.933594 168.847656 197.273438 168.847656 173.933594 C 168.847656 150.589844 187.476562 131.933594 210.847656 131.933594 Z M 210.847656 131.933594"/>
 </g>
</svg>
