<svg xmlns="http://www.w3.org/2000/svg" xmlns:xlink="http://www.w3.org/1999/xlink" width="384pt" height="384pt" version="1.1" viewBox="0 0 384 384">
 <defs>
  <filter id="alpha" width="100%" height="100%" x="0%" y="0%" filterUnits="objectBoundingBox">
   <feColorMatrix in="SourceGraphic" type="matrix" values="0 0 0 0 1 0 0 0 0 1 0 0 0 0 1 0 0 0 1 0"/>
  </filter>
  <mask id="mask0">
   <g filter="url(#alpha)">
    <rect width="384" height="384" x="0" y="0" style="fill:rgb(0%,0%,0%);fill-opacity:0.2"/>
   </g>
  </mask>
  <clipPath id="clip1">
   <rect width="384" height="384" x="0" y="0"/>
  </clipPath>
  <g id="surface5" clip-path="url(#clip1)">
   <path style="fill-rule:evenodd;fill:rgb(0%,0%,0%)" d="M 191.972656 40.007812 C 177.726562 74.925781 169.132812 97.769531 153.273438 131.648438 C 162.996094 141.953125 174.933594 153.953125 194.320312 167.507812 C 173.480469 158.933594 159.261719 150.328125 148.640625 141.394531 C 128.339844 183.742188 96.539062 244.066406 32 360 C 82.726562 330.722656 118.042969 312.671875 154.691406 305.785156 C 153.117188 299.019531 152.222656 291.699219 152.285156 284.0625 L 152.339844 282.4375 C 153.144531 249.945312 174.40625 224.042969 194.074219 224 C 213.742188 223.957031 232.867188 256.085938 232.0625 288.574219 C 231.910156 294.691406 231.222656 300.570312 230.015625 306.027344 C 266.265625 313.113281 301.960938 331.117188 352 360 C 342.132812 341.839844 333.328125 325.46875 324.917969 309.875 C 311.667969 299.609375 297.851562 286.25 269.667969 271.789062 C 289.039062 276.820312 302.910156 282.625 313.722656 289.117188 C 228.21875 129.949219 221.296875 108.800781 191.96875 40 Z M 191.972656 40.007812"/>
  </g>
  <mask id="mask1">
   <g filter="url(#alpha)">
    <rect width="384" height="384" x="0" y="0" style="fill:rgb(0%,0%,0%);fill-opacity:0.2"/>
   </g>
  </mask>
  <clipPath id="clip2">
   <rect width="384" height="384" x="0" y="0"/>
  </clipPath>
  <g id="surface8" clip-path="url(#clip2)">
   <path style="fill-rule:evenodd;fill:rgb(100%,100%,100%)" d="M 191.96875 32.015625 C 177.722656 66.933594 169.125 89.761719 153.265625 123.640625 C 154.035156 124.457031 154.933594 125.351562 155.734375 126.1875 C 169.933594 95.382812 178.542969 72.925781 191.96875 40.015625 C 220.519531 106.996094 228.417969 129.808594 307.71875 277.84375 C 309.773438 278.921875 311.859375 279.992188 313.71875 281.109375 C 228.21875 121.953125 221.289062 100.804688 191.96875 32.015625 Z M 148.640625 133.390625 C 128.34375 175.738281 96.539062 236.066406 32 352 C 34.292969 350.675781 36.175781 349.683594 38.40625 348.40625 C 98.179688 240.800781 129.105469 182.148438 148.640625 141.390625 C 159.265625 150.324219 173.472656 158.941406 194.3125 167.515625 C 184.078125 160.359375 176.007812 153.660156 169.15625 147.390625 C 161.039062 142.789062 154.28125 138.132812 148.640625 133.390625 Z M 269.671875 271.78125 C 297.855469 286.246094 311.675781 299.609375 324.921875 309.875 C 331.40625 321.902344 338.550781 335.117188 345.8125 348.53125 C 347.964844 349.761719 349.792969 350.726562 352 352 C 342.132812 333.839844 333.332031 317.46875 324.921875 301.875 C 317.402344 296.046875 309.363281 289.160156 298.953125 281.703125 C 290.761719 278.144531 281.300781 274.800781 269.671875 271.78125 Z M 152.5 280.046875 C 152.457031 280.84375 152.363281 281.628906 152.34375 282.4375 L 152.28125 284.0625 C 152.242188 288.90625 152.699219 293.550781 153.359375 298.078125 C 153.800781 297.992188 154.242188 297.863281 154.6875 297.78125 C 153.394531 292.21875 152.722656 286.222656 152.5 280.046875 Z M 231.953125 282.140625 C 231.730469 287.683594 231.117188 293.050781 230.015625 298.03125 C 230.449219 298.117188 230.878906 298.242188 231.3125 298.328125 C 231.710938 295.160156 231.980469 291.917969 232.0625 288.578125 C 232.117188 286.425781 232.070312 284.28125 231.953125 282.140625 Z M 231.953125 282.140625"/>
  </g>
 </defs>
 <g>
  <use mask="url(#mask0)" xlink:href="#surface5"/>
  <path style="fill-rule:evenodd;fill:#357af0" d="M 191.972656 32.007812 C 177.726562 66.925781 169.132812 89.769531 153.273438 123.648438 C 162.996094 133.953125 174.933594 145.953125 194.320312 159.507812 C 173.480469 150.933594 159.261719 142.328125 148.640625 133.394531 C 128.339844 175.742188 96.539062 236.066406 32 352 C 82.726562 322.722656 118.042969 304.671875 154.691406 297.785156 C 153.117188 291.019531 152.222656 283.699219 152.285156 276.0625 L 152.339844 274.4375 C 153.144531 241.945312 174.40625 216.042969 194.074219 216 C 213.742188 215.957031 232.867188 248.085938 232.0625 280.574219 C 231.910156 286.691406 231.222656 292.570312 230.015625 298.027344 C 266.265625 305.113281 301.960938 323.117188 352 352 C 342.132812 333.839844 333.328125 317.46875 324.917969 301.875 C 311.667969 291.609375 297.851562 278.25 269.667969 263.789062 C 289.039062 268.820312 302.910156 274.625 313.722656 281.117188 C 228.21875 121.949219 221.296875 100.800781 191.96875 32 Z M 191.972656 32.007812"/>
  <use mask="url(#mask1)" xlink:href="#surface8"/>
 </g>
</svg>
