<svg xmlns="http://www.w3.org/2000/svg" width="384pt" height="384pt" version="1.1" viewBox="0 0 384 384">
 <defs>
  <linearGradient id="linear0" x1="399.994" x2="399.994" y1="545.139" y2="518.139" gradientTransform="matrix(13.714326,0,0,13.714326,-5301.726792,-7101.178359)" gradientUnits="userSpaceOnUse">
   <stop offset="0" style="stop-color:rgb(0%,41.568627%,72.54902%)"/>
   <stop offset="1" style="stop-color:rgb(21.176471%,48.235294%,94.117647%)"/>
  </linearGradient>
 </defs>
 <g>
  <path style="fill:url(#linear0)" d="M 383.835938 192.074219 C 383.835938 298.113281 297.875 384.074219 191.835938 384.074219 C 85.796875 384.074219 -0.164062 298.113281 -0.164062 192.074219 C -0.164062 86.035156 85.796875 0.0742188 191.835938 0.0742188 C 297.875 0.0742188 383.835938 86.035156 383.835938 192.074219 Z M 383.835938 192.074219"/>
  <path style="fill:rgb(100%,100%,100%);fill-opacity:0.85098" d="M 172.917969 162.191406 L 172.90625 162.191406 C 164.664062 162.191406 157.953125 155.488281 157.945312 147.253906 C 157.933594 138.988281 164.644531 132.277344 172.894531 132.269531 C 181.148438 132.269531 187.859375 138.972656 187.871094 147.207031 C 187.871094 155.472656 181.167969 162.183594 172.917969 162.191406 Z M 172.917969 162.191406"/>
  <path style="fill:rgb(100%,100%,100%);fill-opacity:0.85098" d="M 213.332031 151.210938 C 205.636719 151.210938 199.375 144.953125 199.367188 137.265625 C 199.355469 129.554688 205.617188 123.289062 213.320312 123.28125 C 221.027344 123.28125 227.289062 129.539062 227.296875 137.226562 C 227.296875 144.9375 221.046875 151.203125 213.34375 151.210938 Z M 213.332031 151.210938"/>
  <path style="fill:rgb(100%,100%,100%);fill-opacity:0.85098" d="M 201.832031 111.335938 C 201.832031 118.222656 196.25 123.804688 189.363281 123.804688 C 182.476562 123.804688 176.894531 118.222656 176.894531 111.335938 C 176.894531 104.449219 182.476562 98.867188 189.363281 98.867188 C 196.25 98.867188 201.832031 104.449219 201.832031 111.335938 Z M 201.832031 111.335938"/>
  <path style="fill:rgb(100%,100%,100%);fill-opacity:0.85098" d="M 220.789062 90.390625 C 220.789062 96.726562 215.652344 101.863281 209.316406 101.863281 C 202.980469 101.863281 197.84375 96.726562 197.84375 90.390625 C 197.84375 84.054688 202.980469 78.917969 209.316406 78.917969 C 215.652344 78.917969 220.789062 84.054688 220.789062 90.390625 Z M 220.789062 90.390625"/>
  <path style="fill:rgb(100%,100%,100%);fill-opacity:0.85098" d="M 194.382812 69.941406 C 194.382812 75.449219 189.914062 79.914062 184.40625 79.914062 C 178.898438 79.914062 174.433594 75.449219 174.433594 69.941406 C 174.433594 64.429688 178.898438 59.964844 184.40625 59.964844 C 189.914062 59.964844 194.382812 64.429688 194.382812 69.941406 Z M 194.382812 69.941406"/>
  <path style="fill:rgb(100%,100%,100%);fill-opacity:0.85098" d="M 131.230469 175.667969 C 118.324219 192.402344 107.851562 211.214844 107.851562 234.015625 C 107.851562 283.425781 145.347656 324.179688 191.839844 324.179688 C 238.328125 324.179688 275.828125 283.429688 275.828125 234.015625 C 275.828125 211.210938 265.34375 192.992188 251.707031 175.667969 C 246.59375 170.304688 239.210938 171.101562 233.835938 174.535156 C 218.109375 182.671875 209.621094 185.921875 191.839844 185.84375 C 174.644531 185.765625 165.609375 182.960938 149.882812 174.386719 C 144.507812 171.101562 136.339844 170.304688 131.226562 175.667969 Z M 142.433594 189.550781 C 158.734375 198.5625 173.273438 203.136719 191.839844 203.136719 C 210.421875 203.136719 224.933594 198.5625 241.246094 189.550781 C 250.144531 202.097656 258.535156 217.660156 258.535156 234.015625 C 258.535156 274.527344 228.675781 306.886719 191.839844 306.886719 C 155 306.886719 125.144531 274.527344 125.144531 234.015625 C 125.144531 217.679688 133.515625 202.109375 142.433594 189.550781 Z M 142.433594 189.550781"/>
 </g>
</svg>
