<svg xmlns="http://www.w3.org/2000/svg" xmlns:xlink="http://www.w3.org/1999/xlink" width="384pt" height="384pt" version="1.1" viewBox="0 0 384 384">
 <defs>
  <filter id="alpha" width="100%" height="100%" x="0%" y="0%" filterUnits="objectBoundingBox">
   <feColorMatrix in="SourceGraphic" type="matrix" values="0 0 0 0 1 0 0 0 0 1 0 0 0 0 1 0 0 0 1 0"/>
  </filter>
  <mask id="mask0">
   <g filter="url(#alpha)">
    <rect width="384" height="384" x="0" y="0" style="fill:rgb(0%,0%,0%);fill-opacity:0.2"/>
   </g>
  </mask>
  <clipPath id="clip1">
   <rect width="384" height="384" x="0" y="0"/>
  </clipPath>
  <g id="surface5" clip-path="url(#clip1)">
   <path style="fill:rgb(0%,0%,0%)" d="M 24 337.199219 L 24 349.199219 C 24 358.5 31.496094 366 40.804688 366 L 343.199219 366 C 352.5 366 360 358.5 360 349.199219 L 360 337.199219 C 360 346.5 352.5 354 343.199219 354 L 40.804688 354 C 31.503906 354 24.003906 346.5 24.003906 337.199219 Z M 24 337.199219"/>
  </g>
  <mask id="mask1">
   <g filter="url(#alpha)">
    <rect width="384" height="384" x="0" y="0" style="fill:rgb(0%,0%,0%);fill-opacity:0.2"/>
   </g>
  </mask>
  <clipPath id="clip2">
   <rect width="384" height="384" x="0" y="0"/>
  </clipPath>
  <g id="surface8" clip-path="url(#clip2)">
   <path style="fill:rgb(100%,100%,100%)" d="M 40.804688 24 C 31.496094 24 24 31.496094 24 40.804688 L 24 46.816406 C 24 37.507812 31.496094 30.011719 40.804688 30.011719 L 343.195312 30.011719 C 352.496094 30.011719 360 37.507812 360 46.816406 L 360 40.804688 C 360 31.496094 352.496094 24 343.195312 24 Z M 40.804688 24"/>
  </g>
 </defs>
 <g>
  <use mask="url(#mask0)" xlink:href="#surface5"/>
  <path style="fill:rgb(83.137255%,10.196078%,10.196078%)" d="M 24 192 L 24 343.195312 C 24 352.503906 31.496094 360 40.804688 360 L 343.195312 360 C 352.503906 360 360 352.503906 360 343.195312 L 360 192 Z M 24 192"/>
  <path style="fill:rgb(5.882353%,63.137255%,37.254902%)" d="M 359.996094 192.003906 L 359.996094 40.804688 C 359.996094 31.496094 352.507812 24.003906 343.195312 24.003906 L 40.800781 24.003906 C 31.492188 24.003906 24 31.496094 24 40.804688 L 24 192.003906 Z M 359.996094 192.003906"/>
  <path style="fill:rgb(100%,100%,100%)" d="M 191.996094 36.003906 L 215.996094 78.003906 L 263.996094 84.570312 L 227.996094 120.003906 L 236.496094 168.003906 L 191.996094 144.003906 L 147.5 168.003906 L 155.996094 120.003906 L 120 84.570312 L 167.996094 78.003906 Z M 191.996094 36.003906"/>
  <path style="fill:rgb(0%,0%,0%)" d="M 167.996094 204.003906 L 215.996094 204.003906 L 197.996094 276 L 215.996094 348 L 167.996094 348 L 185.996094 276 Z M 167.996094 204.003906"/>
  <path style="fill:rgb(0%,0%,0%)" d="M 263.996094 252 L 263.996094 300 L 191.996094 282 L 120 300 L 120 252 L 191.996094 270 Z M 263.996094 252"/>
  <use mask="url(#mask1)" xlink:href="#surface8"/>
 </g>
</svg>
