<svg xmlns="http://www.w3.org/2000/svg" xmlns:xlink="http://www.w3.org/1999/xlink" width="384pt" height="384pt" version="1.1" viewBox="0 0 384 384">
 <defs>
  <filter id="alpha" width="100%" height="100%" x="0%" y="0%" filterUnits="objectBoundingBox">
   <feColorMatrix in="SourceGraphic" type="matrix" values="0 0 0 0 1 0 0 0 0 1 0 0 0 0 1 0 0 0 1 0"/>
  </filter>
  <mask id="mask0">
   <g filter="url(#alpha)">
    <rect width="384" height="384" x="0" y="0" style="fill:rgb(0%,0%,0%);fill-opacity:0.2"/>
   </g>
  </mask>
  <clipPath id="clip1">
   <rect width="384" height="384" x="0" y="0"/>
  </clipPath>
  <g id="surface5" clip-path="url(#clip1)">
   <path style="fill:rgb(0%,0%,0%)" d="M 285.003906 227.722656 C 293.535156 287.332031 250.929688 369.734375 236.8125 365.597656 C 232.015625 371.21875 143.667969 317.039062 133.386719 258.472656 C 132.425781 253.007812 107.890625 214.746094 119.132812 226.695312 C 135.125 243.6875 102.609375 193.109375 109.851562 177.539062 C 120.527344 154.582031 179.796875 151.21875 207.550781 151.21875 C 232.882812 151.21875 262.578125 139.710938 275.296875 154.1875 C 285.96875 166.332031 281.3125 201.921875 285.003906 227.722656 Z M 285.003906 227.722656"/>
  </g>
  <mask id="mask1">
   <g filter="url(#alpha)">
    <rect width="384" height="384" x="0" y="0" style="fill:rgb(0%,0%,0%);fill-opacity:0.2"/>
   </g>
  </mask>
  <clipPath id="clip2">
   <rect width="384" height="384" x="0" y="0"/>
  </clipPath>
  <g id="surface8" clip-path="url(#clip2)">
   <path style="fill:rgb(0%,0%,0%)" d="M 87.707031 238.082031 C 81.980469 234.175781 77.304688 230.667969 77.316406 230.289062 C 77.328125 229.902344 80.296875 227.175781 83.914062 224.214844 C 90.179688 219.089844 91.023438 214.582031 91.007812 211.03125 C 91 209.117188 67.769531 177.039062 53.273438 158.917969 C 47.660156 151.90625 42.671875 145.058594 42.183594 143.695312 C 41.632812 142.15625 42.335938 139.867188 44.042969 137.640625 C 49.773438 130.160156 59.46875 118.242188 64.820312 107.996094 C 70.128906 97.832031 76.5 89.484375 77.59375 91.257812 C 79.179688 93.824219 80.773438 92.21875 93.382812 75.351562 C 106.058594 58.398438 116.441406 42.554688 118.980469 42.554688 C 121.847656 42.554688 120.660156 45.40625 115.210938 51.605469 C 105.476562 61.992188 102.449219 76.335938 102.433594 85.714844 C 101.574219 103.40625 115.972656 116.152344 131.644531 123.355469 C 151.703125 128.085938 170.386719 125.96875 173.90625 109.210938 C 176.835938 95.277344 166.984375 86.730469 155.578125 83.300781 C 152.792969 84.570312 144.714844 93.109375 142.144531 101.242188 C 141.246094 104.085938 138.667969 103.03125 138.667969 99.828125 C 138.667969 93.160156 146.1875 76.15625 150.179688 68.902344 C 155.777344 58.722656 161.890625 58.226562 166.910156 59.234375 C 169.710938 59.796875 171.839844 58.046875 174.382812 56.027344 L 177.941406 53.222656 C 190.335938 62.339844 204.226562 69.035156 217.453125 76.738281 C 232.292969 87.289062 246.589844 93.246094 246.746094 94.753906 C 246.835938 95.640625 246.777344 95.6875 246.609375 102.160156 C 246.320312 113.390625 246.441406 113.933594 249.179688 113.933594 C 254.75 113.933594 260.347656 110.820312 267.773438 101.855469 C 280.777344 86.15625 282.460938 86.011719 282.460938 72.835938 C 283.398438 62.75 270.105469 41.144531 261.773438 49.242188 C 258.28125 52.742188 254.230469 65.058594 255.492188 68.347656 C 256.339844 70.570312 261.679688 72.097656 264.628906 70.960938 C 267.722656 69.773438 267.222656 72.226562 263.726562 75.40625 C 259.148438 79.574219 254.152344 80.289062 250.472656 77.308594 C 245.929688 73.625 244.703125 58.976562 248.15625 49.578125 C 251.429688 40.65625 263.132812 31.171875 265.585938 30.230469 C 268.351562 29.164062 271.457031 31.382812 282.519531 45.917969 C 300.332031 72.722656 319.769531 96.722656 337.148438 122.324219 C 339.3125 125.488281 341.414062 130.128906 341.820312 132.628906 C 342.496094 136.796875 341.683594 138.179688 332.171875 149.074219 C 316.511719 167.015625 305.96875 181.566406 305.96875 185.246094 C 305.96875 189.210938 314.078125 192.421875 321.183594 193.515625 C 326.332031 194.304688 329.722656 196.0625 329.722656 197.941406 C 321.273438 209.464844 287.933594 256.542969 283.921875 253.335938 C 283.527344 252.699219 282.871094 245.128906 282.464844 236.515625 C 279.386719 213.175781 278.273438 181.402344 275.550781 158.628906 C 274.734375 154.1875 274.609375 154.113281 269.183594 154.867188 C 255.878906 156.71875 239.503906 157.75 226.417969 159.925781 C 215.855469 161.6875 206.609375 169.0625 202.304688 166.757812 C 197.894531 164.394531 174.664062 160.203125 160.875 158.476562 C 120.175781 153.378906 126.855469 154.242188 126.855469 159.246094 L 135.769531 250.617188 C 135.769531 250.617188 140.046875 270 136.472656 270 C 117.0625 262.597656 102.820312 248.488281 87.707031 238.066406 Z M 87.707031 238.082031"/>
  </g>
  <mask id="mask2">
   <g filter="url(#alpha)">
    <rect width="384" height="384" x="0" y="0" style="fill:rgb(0%,0%,0%);fill-opacity:0.101961"/>
   </g>
  </mask>
  <clipPath id="clip3">
   <rect width="384" height="384" x="0" y="0"/>
  </clipPath>
  <g id="surface11" clip-path="url(#clip3)">
   <path style="fill:rgb(100%,100%,100%)" d="M 266.660156 24 C 266.289062 24.011719 265.925781 24.101562 265.582031 24.234375 C 263.125 25.175781 251.433594 34.65625 248.15625 43.582031 C 246.460938 48.199219 245.902344 54.078125 246.304688 59.308594 C 246.519531 55.886719 247.089844 52.484375 248.15625 49.582031 C 251.433594 40.65625 263.125 31.175781 265.582031 30.234375 C 268.347656 29.167969 271.453125 31.378906 282.515625 45.914062 C 300.328125 72.714844 319.769531 96.71875 337.148438 122.320312 C 338.941406 124.945312 340.636719 128.515625 341.414062 131.109375 C 342.085938 129.542969 342.09375 128.300781 341.824219 126.632812 C 341.417969 124.128906 339.3125 119.488281 337.148438 116.320312 C 319.769531 90.71875 300.328125 66.714844 282.515625 39.914062 C 272.835938 27.195312 269.257812 23.90625 266.660156 24 Z M 118.980469 36.550781 C 116.441406 36.550781 106.0625 52.398438 93.386719 69.351562 C 80.777344 86.21875 79.175781 87.820312 77.589844 85.253906 C 76.496094 83.480469 70.125 91.835938 64.816406 102 C 59.464844 112.246094 49.769531 124.15625 44.039062 131.636719 C 42.332031 133.863281 41.636719 136.15625 42.1875 137.695312 C 42.25 137.867188 42.90625 138.742188 43.101562 139.078125 C 43.371094 138.601562 43.671875 138.117188 44.039062 137.636719 C 49.769531 130.15625 59.464844 118.246094 64.816406 108 C 70.125 97.835938 76.496094 89.480469 77.589844 91.253906 C 79.175781 93.820312 80.777344 92.21875 93.386719 75.351562 C 99.800781 66.773438 105.601562 58.519531 110.121094 52.417969 C 111.582031 50.042969 113.21875 47.730469 115.207031 45.609375 C 120.65625 39.410156 121.847656 36.550781 118.980469 36.550781 Z M 177.9375 47.226562 L 174.386719 50.027344 C 171.84375 52.046875 169.710938 53.800781 166.910156 53.238281 C 161.890625 52.234375 155.773438 52.726562 150.175781 62.90625 C 146.1875 70.160156 138.667969 87.164062 138.667969 93.832031 C 138.667969 94.753906 138.902344 95.429688 139.230469 95.953125 C 140.988281 88.015625 146.808594 75.027344 150.175781 68.90625 C 155.773438 58.726562 161.890625 58.234375 166.910156 59.238281 C 169.710938 59.800781 171.84375 58.046875 174.386719 56.027344 L 177.9375 53.226562 C 190.332031 62.34375 204.226562 69.03125 217.453125 76.734375 C 232 87.078125 245.9375 92.992188 246.632812 94.640625 C 246.730469 91.355469 246.824219 89.464844 246.75 88.757812 C 246.59375 87.25 232.292969 81.289062 217.453125 70.734375 C 204.226562 63.03125 190.332031 56.34375 177.9375 47.226562 Z M 255.84375 62.882812 C 255.347656 65.207031 255.085938 67.289062 255.492188 68.34375 C 256.0625 69.832031 258.65625 70.929688 261.1875 71.203125 C 262.039062 70.675781 262.898438 70.167969 263.730469 69.410156 C 267.226562 66.230469 267.726562 63.769531 264.632812 64.957031 C 261.933594 65.996094 257.273438 64.792969 255.84375 62.882812 Z M 282.363281 71.273438 C 281.855469 80.296875 279.132812 82.148438 267.773438 95.859375 C 260.347656 104.824219 254.746094 107.929688 249.175781 107.929688 C 247.328125 107.929688 246.730469 107.40625 246.585938 103.816406 C 246.371094 113.117188 246.605469 113.929688 249.175781 113.929688 C 254.746094 113.929688 260.347656 110.824219 267.773438 101.859375 C 280.777344 86.160156 282.457031 86.007812 282.457031 72.832031 C 282.5 72.367188 282.378906 71.78125 282.363281 71.273438 Z M 102.515625 83.625 C 102.484375 84.328125 102.433594 85.054688 102.433594 85.710938 C 101.574219 103.402344 115.976562 116.148438 131.648438 123.351562 C 151.707031 128.082031 170.382812 125.964844 173.90625 109.207031 C 174.5 106.386719 174.457031 103.84375 174.09375 101.460938 C 174.011719 102.050781 174.035156 102.59375 173.90625 103.207031 C 170.382812 119.964844 151.707031 122.082031 131.648438 117.351562 C 117.160156 110.691406 103.777344 99.289062 102.515625 83.625 Z M 127.125 174.609375 C 125.921875 175.1875 126.855469 176.480469 126.855469 178.441406 L 135.773438 250.617188 C 135.773438 250.617188 137.105469 256.796875 137.648438 262.183594 C 138.570312 257.476562 135.773438 244.617188 135.773438 244.617188 Z M 307.207031 181.863281 C 306.46875 183.320312 305.964844 184.542969 305.964844 185.25 C 305.964844 189.214844 314.082031 192.417969 321.1875 193.511719 C 323.71875 193.902344 325.804688 194.527344 327.292969 195.28125 C 327.964844 194.355469 329.214844 192.628906 329.71875 191.941406 C 329.71875 190.066406 326.335938 188.304688 321.1875 187.511719 C 315.738281 186.671875 309.722656 184.578125 307.207031 181.863281 Z M 90.269531 209.554688 C 89.460938 212.167969 87.78125 215.054688 83.917969 218.214844 C 80.296875 221.175781 77.332031 223.902344 77.320312 224.285156 C 77.316406 224.480469 78.617188 225.554688 80.625 227.050781 C 81.640625 226.15625 82.636719 225.261719 83.917969 224.214844 C 90.183594 219.089844 91.023438 214.582031 91.007812 211.03125 C 91.007812 210.859375 90.621094 210.183594 90.269531 209.554688 Z M 90.269531 209.554688"/>
  </g>
 </defs>
 <g>
  <use mask="url(#mask0)" xlink:href="#surface5"/>
  <path style="fill:rgb(71.764706%,76.470588%,80.392157%)" d="M 285.003906 221.722656 C 293.535156 281.332031 250.929688 363.734375 236.8125 359.597656 C 232.015625 365.21875 143.667969 311.039062 133.386719 252.472656 C 132.425781 247.007812 107.890625 208.746094 119.132812 220.695312 C 135.125 237.6875 102.609375 187.109375 109.851562 171.539062 C 120.527344 148.582031 179.796875 145.21875 207.550781 145.21875 C 232.882812 145.21875 262.578125 133.710938 275.296875 148.1875 C 285.96875 160.332031 281.3125 195.921875 285.003906 221.722656 Z M 285.003906 221.722656"/>
  <path style="fill:rgb(29.803922%,29.803922%,29.803922%)" d="M 210 310.390625 C 210 308.730469 213.601562 306.65625 224.832031 301.878906 C 230.003906 299.683594 231.777344 299.476562 232.972656 300.921875 C 233.816406 301.929688 234.222656 303.109375 233.878906 303.527344 C 233.292969 304.222656 211.964844 312 210.613281 312 C 210.277344 312 210 311.28125 210 310.386719 Z M 210 310.390625"/>
  <path style="fill:rgb(29.803922%,29.803922%,29.803922%)" d="M 215.574219 290.261719 C 209.472656 287.652344 207.773438 283.738281 213.550781 285.605469 C 222.832031 288.605469 223.140625 288.105469 222.441406 271.269531 C 222.003906 260.753906 222.457031 255.890625 223.78125 256.941406 C 224.878906 257.828125 226.121094 266.234375 226.535156 275.648438 C 227.363281 294.441406 226.875 295.09375 215.574219 290.261719 Z M 215.574219 290.261719"/>
  <use mask="url(#mask1)" xlink:href="#surface8"/>
  <path style="fill:rgb(29.803922%,29.803922%,29.803922%)" d="M 87.707031 232.082031 C 81.980469 228.175781 77.304688 224.667969 77.316406 224.289062 C 77.328125 223.902344 80.296875 221.175781 83.914062 218.214844 C 90.179688 213.089844 91.023438 208.582031 91.007812 205.03125 C 91 203.117188 67.769531 171.039062 53.273438 152.917969 C 47.660156 145.90625 42.671875 139.058594 42.183594 137.695312 C 41.632812 136.15625 42.335938 133.867188 44.042969 131.640625 C 49.773438 124.160156 59.46875 112.242188 64.820312 101.996094 C 70.128906 91.832031 76.5 83.484375 77.59375 85.257812 C 79.179688 87.824219 80.773438 86.21875 93.382812 69.351562 C 106.058594 52.398438 116.441406 36.554688 118.980469 36.554688 C 121.847656 36.554688 120.660156 39.40625 115.210938 45.605469 C 105.476562 55.992188 102.449219 70.335938 102.433594 79.714844 C 101.574219 97.40625 115.972656 110.152344 131.644531 117.355469 C 151.703125 122.085938 170.386719 119.96875 173.90625 103.210938 C 176.835938 89.277344 166.984375 80.730469 155.578125 77.300781 C 152.792969 78.570312 144.714844 87.109375 142.144531 95.242188 C 141.246094 98.085938 138.667969 97.03125 138.667969 93.828125 C 138.667969 87.160156 146.1875 70.15625 150.179688 62.902344 C 155.777344 52.722656 161.890625 52.226562 166.910156 53.234375 C 169.710938 53.796875 171.839844 52.046875 174.382812 50.027344 L 177.941406 47.222656 C 190.335938 56.339844 204.226562 63.035156 217.453125 70.738281 C 232.292969 81.289062 246.589844 87.246094 246.746094 88.753906 C 246.835938 89.640625 246.777344 89.6875 246.609375 96.160156 C 246.320312 107.390625 246.441406 107.933594 249.179688 107.933594 C 254.75 107.933594 260.347656 104.820312 267.773438 95.855469 C 280.777344 80.15625 282.460938 80.011719 282.460938 66.835938 C 283.398438 56.75 270.105469 35.144531 261.773438 43.242188 C 258.28125 46.742188 254.230469 59.058594 255.492188 62.347656 C 256.339844 64.570312 261.679688 66.097656 264.628906 64.960938 C 267.722656 63.773438 267.222656 66.226562 263.726562 69.40625 C 259.148438 73.574219 254.152344 74.289062 250.472656 71.308594 C 245.929688 67.625 244.703125 52.976562 248.15625 43.578125 C 251.429688 34.65625 263.132812 25.175781 265.585938 24.230469 C 268.351562 23.164062 271.457031 25.382812 282.519531 39.917969 C 300.332031 66.722656 319.769531 90.722656 337.148438 116.324219 C 339.3125 119.488281 341.414062 124.128906 341.820312 126.628906 C 342.496094 130.796875 341.683594 132.179688 332.171875 143.074219 C 316.511719 161.015625 305.96875 175.566406 305.96875 179.246094 C 305.96875 183.210938 314.078125 186.421875 321.183594 187.515625 C 326.332031 188.304688 329.722656 190.0625 329.722656 191.941406 C 321.273438 203.464844 287.933594 250.542969 283.921875 247.335938 C 283.527344 246.699219 282.871094 239.128906 282.464844 230.515625 C 279.386719 207.175781 278.273438 194.597656 275.550781 171.824219 C 274.734375 167.382812 274.609375 167.308594 269.183594 168.0625 C 255.878906 169.914062 239.503906 170.945312 226.417969 173.121094 C 215.855469 174.878906 206.609375 182.257812 202.304688 179.953125 C 197.894531 177.589844 174.664062 173.398438 160.875 171.671875 C 120.175781 166.574219 126.855469 167.4375 126.855469 172.441406 L 135.769531 244.617188 C 135.769531 244.617188 140.046875 264 136.472656 264 C 117.0625 256.597656 102.820312 242.488281 87.707031 232.066406 Z M 87.707031 232.082031"/>
  <path style="fill:rgb(29.803922%,29.803922%,29.803922%)" d="M 198 252 C 198 258.625 192.628906 264 186 264 C 179.371094 264 174 258.625 174 252 C 174 245.371094 179.371094 240 186 240 C 192.628906 240 198 245.371094 198 252 Z M 198 252"/>
  <path style="fill:rgb(29.803922%,29.803922%,29.803922%)" d="M 153.300781 228.007812 C 152.4375 228.007812 151.890625 228.128906 151.703125 228.210938 C 151.050781 228.632812 150.402344 231.105469 150.257812 233.710938 L 150 238.445312 L 166.550781 239.246094 C 175.871094 240.039062 186.222656 240.253906 194.980469 239.65625 C 198.058594 239.65625 198.410156 239.414062 197.671875 237.847656 C 195.710938 233.652344 192.589844 231.222656 188.867188 231.007812 C 186.828125 230.886719 177.902344 230.035156 169.03125 229.117188 C 161.414062 228.324219 155.898438 227.941406 153.300781 228 Z M 153.300781 228.007812"/>
  <path style="fill:rgb(29.803922%,29.803922%,29.803922%)" d="M 224.878906 216 C 223.703125 216 222.984375 216.121094 222.8125 216.253906 C 222.171875 216.839844 221.847656 219.699219 222.070312 222.597656 C 222.441406 227.382812 222.773438 227.847656 225.730469 227.648438 C 233.972656 228.066406 242.285156 227.996094 250.671875 227.996094 C 257.253906 227.730469 265.363281 223.550781 270 221.289062 C 270 220.617188 269.382812 220.070312 268.613281 220.070312 C 267.84375 220.070312 257.480469 218.964844 245.59375 217.625 C 236.070312 216.546875 228.40625 215.960938 224.878906 216.003906 Z M 224.878906 216"/>
  <path style="fill:rgb(29.803922%,29.803922%,29.803922%)" d="M 246 240 C 246 246.625 240.628906 252 234 252 C 227.371094 252 222 246.625 222 240 C 222 233.371094 227.371094 228 234 228 C 240.628906 228 246 233.371094 246 240 Z M 246 240"/>
  <use mask="url(#mask2)" xlink:href="#surface11"/>
 </g>
</svg>
