<svg width="512" height="512" version="1.1" viewBox="0 0 384 384" xmlns="http://www.w3.org/2000/svg" xmlns:xlink="http://www.w3.org/1999/xlink"><defs><filter id="alpha" x="0%" y="0%" width="100%" height="100%"><feColorMatrix in="SourceGraphic" values="0 0 0 0 1 0 0 0 0 1 0 0 0 0 1 0 0 0 1 0"/></filter><mask id="b"><g filter="url(#alpha)"><rect width="384" height="384" fill-opacity=".2"/></g></mask><clipPath id="c"><rect width="384" height="384"/></clipPath></defs><path d="m192 24c-92.785 0-168 75.215-168 168s75.215 168 168 168 168-75.215 168-168-75.215-168-168-168z" fill="#ffc72e"/><path d="m170.51 24.718c-21.848 2.7695-42.316 9.7344-60.68 20.016l11.926 2.9844 7.7109 5.3984v4.625l13.121 8.4961-3.082 12.355-6.9375-5.3984-4.6406 5.3945-5.4023 3.0859-3.082-9.2695 1.5352-5.3945-1.5352-3.8555-7.7266-6.957h-3.0859l3.0859 7.7266v6.9375c-3.0391-0.84375-6.1602-1.1445-9.2695-1.5391l8.4961 6.1836 0.77344 3.8555 10.039 8.4961 10.023-2.3125v-6.1836l4.6406 3.082-2.3125 5.4141h7.7109l3.8711 6.9375 4.625 5.4141 9.2695 1.543-5.4141 5.3945-1.543 5.4141h6.957l8.4805 4.6289v13.895h-3.8555l-3.8555 3.8516-8.4961-3.8516-3.0859-8.5-6.1836-3.8555-0.76953-3.082-10.023-2.3125-5.4141 6.168-6.168 3.082 3.8555 6.957-5.3984-1.543-3.0977-6.957 6.9531-7.707h-3.082l-6.1875 5.3945-1.543 7.7305-5.3945 6.9336-1.543-10.02-3.1016-1.5586c-3.2695 3.4609-5.7266 7.6836-8.4805 11.582l-10.809 0.76953-5.4141 3.8711 2.3281 3.8555 6.168 5.3945h8.4961l11.582-3.8516 5.3984 0.76953 4.625 4.625 12.352-12.352 8.5-2.3125 12.352 1.543 11.582 3.0977c6.3047 7.2969 12.551 14.801 18.52 22.375l6.957 17.766-3.1016 3.0859 6.1836 9.2656-6.9531 16.207c-5.625 6.4883-11.367 12.797-16.98 19.293l-8.4961-6.9414-3.0859 3.8555-9.2656-5.3945-3.0859 3.082h-8.4805l-5.4141 6.168 3.0859 10.812-6.168 6.9531 0.76953 12.352-5.3984 9.2539 3.8555 7.7266c0.32812 5.6172 0.77344 11.359 0.77344 16.977-2.7109 7.6133-5.9414 14.723-8.5 22.395l-1.5391 12.352v6.168h-4.6289l-7.7266-4.625h-7.3633c27.508 19.66 61.148 31.348 97.688 31.348 27.438 0 53.223-6.6562 76.051-18.227l0.375-0.76953-5.4141-5.3984-1.5391-5.4141-8.4805-2.3125-6.1875-16.977 1.543-3.8555-3.8555-6.957-10.039-2.3125-4.625-11.582 0.76953-15.434-7.7266-10.812-0.76953-10.809c10.535-5.332 20.434-10.719 30.891-16.207l5.3945-10.812 9.2695-2.3125 5.3984-13.895 12.352 1.543 11.582-8.4805 11.578 10.793v1.543c3.4961-1.0312 7.6992-1.1328 10.812-3.082l2.3125-7.7109v-7.7266l7.7109 0.76952c-0.64453-5.1875-1.668-11.016-2.3125-16.207h4.6406l4.625 6.168 4.6289 2.3125 6.1836-3.8516 0.76953-7.7109-0.76953-9.2695-10.039-6.9531h-7.7109l-1.5586-4.6289-9.25 2.3164-6.957 8.4961-1.543-14.664-12.352-10.039-3.8555-11.582-9.2695-3.8555-5.3945-6.957-11.582-2.3125-5.4141-9.2656h16.996l-10.812-4.6289h-7.7266l-10.023-3.8516-1.5586 10.02-4.625-6.9375 5.3984-3.8555-1.543-3.8711 3.8711-3.8555 4.625-0.76953-1.5391-4.625 3.8555-6.957 7.7266 3.0859-1.543-6.168 9.25-5.4141 6.957 13.121-0.77344 3.8711 6.9414 3.0859 4.6406 10.039 1.543-9.2695 12.352-4.625 2.3125-6.957-16.207-9.2656-6.9531-6.9414-0.77344-8.4961 0.41016-0.24609c-1.7617-1.1719-3.6602-2.2109-5.4922-3.3281l2.7852 6.6914h-7.7266l-2.3125-6.1836-6.9375 5.3945h-6.1836v-6.168l6.9531-3.0977 6.168 3.8711-0.76953-1.543c-3.0977-2.2422-6.082-4.8008-9.2383-6.957l-7.7266 2.332c-4.8008 3.3242-9.0938 6.6992-13.895 10.023l-7.7266-6.9414 8.4961-3.082 3.0859-7.7266 6.0195-0.67188c-3.25-1.2031-6.4922-2.4258-9.8281-3.4297l-15.484 11.059v6.9375l6.168 6.957-8.4805 16.977-6.1836-3.082-6.9414-11.582c-10.367-3.2695-20.336-7.0625-30.129-11.582l0.77345 4.625-4.6289 3.1016-8.4961-6.1875 3.8711-4.625 6.168 3.0859 0.77345-0.77344-7.5859-20.684zm-77.23 30.711c-2.625 1.9062-5.2891 3.7539-7.793 5.8047l3.0664 3.4609 8.5-9.2656zm63.977 8.4961h4.6406v4.6289l-3.082 3.8516v6.957l1.5391 10.039-7.7227-1.543-6.168-5.4102 5.3945-5.3984c1.6914-4.6016 3.2773-8.7109 5.3984-13.125zm11.582 10.039 4.6406 1.543-0.76953 9.2539-6.957-3.8555zm-120.42 78.734-6.957 7.7148-7.7109-0.76563c-2.7148 2.5117-5.4102 4.6719-7.9414 7.1836-1.1562 7.9883-1.7852 16.156-1.7852 24.477 0 55.156 26.441 103.77 67.258 134.36l-10.453-12.406 1.5586-5.3984-9.2656-7.7266 6.9375-6.9492-7.7109-6.168-7.7227-4.6289-3.0859-3.875 2.3125-8.4805v-21.617l-6.168-13.129-6.9531-7.7266-8.5-20.062v-5.4141c3.9766 0.51173 7.6953 1.2773 11.582 1.5586l-7.7109-8.4961-10.809-7.7266-6.1836-6.9375v-6.957c1.3242-2.5547 2.5391-5.9375 3.8711-8.4805l5.3984 6.9375 3.8555-5.3984 6.1836-4.6406v-9.2539zm30.102 3.8555-6.9414 8.4805-9.2656 19.309-5.3984 6.168 3.082 6.9531-5.3945 6.168c2.2539 0.14844 4.6211 0 6.9375 0 4.2109-9.0273 7.6055-18.344 10.812-27.789l5.3945-6.168 3.1016-11.578zm281.34 30.344c-0.30858 0.53907-1.1172 2.0859-1.1172 2.0859l-13.121 7.7266-13.895 3.8516-5.4141 7.7266-9.2539 6.9414-4.6406-1.543-3.8555 2.3125v0.77345l4.625 14.664 3.8711 5.4141-0.76953 3.082 3.0859 11.582-11.582 20.848-11.582 10.797-5.3984 6.9531 0.77344 16.207-3.875 8.4961 2.8398 12.469c42.055-30.473 69.422-79.844 69.422-135.97 0-1.4805-0.0742-2.9453-0.11328-4.4141z" fill="#fff" opacity=".3"/><use width="100%" height="100%" mask="url(#b)" xlink:href="#a"/><path d="m210.34 75.847 5.6631 33.035-24 23.395 33.168 4.8208 14.832 30.054 14.833-30.054 33.167-4.8208-24-23.395 5.6646-33.035-29.665 15.598zm-114 28.821 5.6631 33.035-24 23.395 33.168 4.8164 14.832 30.054 14.833-30.054 33.167-4.8164-24-23.395 5.6646-33.035-29.665 15.598zm144 84 5.6631 33.035-24 23.395 33.168 4.8164 14.832 30.054 14.833-30.054 33.167-4.8164-24-23.395 5.6646-33.035-29.665 15.598zm-132 36 5.6631 33.035-24 23.395 33.168 4.8164 14.832 30.054 14.833-30.054 33.167-4.8164-24-23.395 5.6646-33.035-29.665 15.598z" opacity=".3"/><g fill="#fff"><path d="m126 188.47-14.832-30.055-33.168-4.8164 24-23.395-5.6641-33.035 29.664 15.598 29.664-15.598-5.6641 33.035 24 23.395-33.168 4.8164z"/><path d="m240 159.65-14.832-30.055-33.168-4.8203 24-23.395-5.6641-33.035 29.664 15.598 29.664-15.598-5.6641 33.035 24 23.395-33.168 4.8203z"/><path d="m138 308.47-14.832-30.055-33.168-4.8164 24-23.395-5.6641-33.035 29.664 15.598 29.664-15.598-5.6641 33.035 24 23.395-33.168 4.8164z"/><path d="m270 272.47-14.832-30.055-33.168-4.8164 24-23.395-5.6641-33.035 29.664 15.598 29.664-15.598-5.6641 33.035 24 23.395-33.168 4.8164z"/></g><path transform="scale(.75)" d="m32.062 251c-0.036438 1.6631-0.0625 3.3282-0.0625 5 0 123.71 100.29 224 224 224s224-100.29 224-224c0-1.6718-0.02606-3.3369-0.0625-5-2.66 121.4-101.9 219-223.94 219s-221.28-97.597-223.94-219z" opacity=".3" stroke-width="1.3333"/><path transform="scale(.75)" d="m256 32c-123.71 0-224 100.29-224 224 0 1.6718 0.026062 3.3369 0.0625 5 2.66-121.4 101.9-219 223.94-219s221.28 97.597 223.94 219c0.03644-1.6631 0.0625-3.3282 0.0625-5 0-123.71-100.29-224-224-224z" fill="#fff" opacity=".3" stroke-width="1.3333"/></svg>
