<svg xmlns="http://www.w3.org/2000/svg" xmlns:xlink="http://www.w3.org/1999/xlink" width="384pt" height="384pt" version="1.1" viewBox="0 0 384 384"> <defs> <filter id="alpha" width="100%" height="100%" x="0%" y="0%" filterUnits="objectBoundingBox"> <feColorMatrix in="SourceGraphic" type="matrix" values="0 0 0 0 1 0 0 0 0 1 0 0 0 0 1 0 0 0 1 0"/> </filter> <mask id="mask0"> <g filter="url(#alpha)"> <rect width="384" height="384" x="0" y="0" style="fill:rgb(0%,0%,0%);fill-opacity:0.2"/> </g> </mask> <clipPath id="clip1"> <rect width="384" height="384" x="0" y="0"/> </clipPath> <g id="surface5" clip-path="url(#clip1)"> <path style="fill:rgb(0%,0%,0%)" d="M 24.304688 192.003906 C 24.234375 194.007812 24 195.972656 24 198.003906 C 24 291.074219 98.925781 366 191.996094 366 C 285.066406 366 359.996094 291.074219 359.996094 198.003906 C 359.996094 195.976562 359.761719 194.011719 359.691406 192.003906 C 356.523438 282.253906 283.035156 354 191.992188 354 C 100.949219 354 27.464844 282.253906 24.296875 192.003906 Z M 24.304688 192.003906"/> </g> <mask id="mask1"> <g filter="url(#alpha)"> <rect width="384" height="384" x="0" y="0" style="fill:rgb(0%,0%,0%);fill-opacity:0.2"/> </g> </mask> <clipPath id="clip2"> <rect width="384" height="384" x="0" y="0"/> </clipPath> <g id="surface8" clip-path="url(#clip2)"> <path style="fill-rule:evenodd;fill:rgb(0%,0%,0%)" d="M 311.984375 161.617188 C 289.496094 66.550781 203.121094 67.347656 150.96875 92.164062 C 96.085938 119.90625 56.34375 190.996094 78.019531 250.527344 C 111.523438 340.332031 234.847656 338.988281 276.582031 255.472656 C 288.964844 224.847656 298.0625 203.105469 263.996094 174.003906 L 263.996094 210.003906 L 251.996094 186.003906 C 251.996094 186.003906 241.34375 211.179688 230.03125 222.660156 C 214.285156 238.632812 191.992188 234 191.992188 234 C 196.199219 249.910156 227.988281 258 227.988281 258 C 145.460938 297.0625 143.046875 231.78125 143.992188 216.003906 C 146.699219 170.589844 183.210938 135.347656 231.308594 137.875 C 246.644531 139.050781 275.984375 150.007812 275.984375 150.007812 C 264.945312 124.746094 249.226562 118.734375 239.984375 114.007812 C 276.207031 102.03125 295.539062 139.839844 311.984375 161.613281 Z M 311.984375 161.617188"/> </g> <mask id="mask2"> <g filter="url(#alpha)"> <rect width="384" height="384" x="0" y="0" style="fill:rgb(0%,0%,0%);fill-opacity:0.2"/> </g> </mask> <clipPath id="clip3"> <rect width="384" height="384" x="0" y="0"/> </clipPath> <g id="surface11" clip-path="url(#clip3)"> <path style="fill:rgb(100.000%,100.000%,100.000%)" d="M 192 24 C 98.929688 24 24 98.929688 24 192 C 24 192.679688 24.066406 193.34375 24.105469 194.015625 C 26.214844 102.804688 100.265625 30 192 30 C 283.734375 30 357.785156 102.804688 359.894531 194.015625 C 359.933594 193.34375 360 192.679688 360 192 C 360 98.929688 285.070312 24 192 24 Z M 192 24"/> </g> </defs> <g> <use mask="url(#mask0)" xlink:href="#surface5"/> <path style="fill:rgb(99.215%,49.019%,0%)" d="M 360 192.003906 C 360 99.222656 284.785156 24.007812 192.003906 24.007812 C 99.222656 24.007812 24.007812 99.222656 24.007812 192.003906 C 24.007812 284.785156 99.222656 360 192.003906 360 C 284.785156 360 360 284.785156 360 192.003906 Z M 360 192.003906"/> <use mask="url(#mask1)" xlink:href="#surface8"/> <path style="fill-rule:evenodd;fill:rgb(100.000%,100.000%,100.000%)" d="M 311.984375 155.617188 C 289.496094 60.550781 203.121094 61.347656 150.96875 86.164062 C 96.085938 113.902344 56.34375 184.996094 78.019531 244.527344 C 111.523438 334.332031 234.847656 332.988281 276.582031 249.472656 C 288.964844 218.847656 298.0625 197.105469 263.996094 168.003906 L 263.996094 204.003906 L 251.996094 180.003906 C 251.996094 180.003906 241.34375 205.179688 230.03125 216.664062 C 214.285156 232.632812 191.992188 228.003906 191.992188 228.003906 C 196.199219 243.910156 227.988281 252 227.988281 252 C 145.460938 291.0625 143.046875 225.78125 143.992188 210.003906 C 146.699219 164.589844 183.210938 129.347656 231.308594 131.875 C 246.644531 133.050781 275.984375 144.007812 275.984375 144.007812 C 264.945312 118.746094 249.226562 112.734375 239.984375 108.007812 C 276.207031 96.03125 295.539062 133.84375 311.984375 155.613281 Z M 311.984375 155.617188"/> <use mask="url(#mask2)" xlink:href="#surface11"/> </g> </svg>
