<svg xmlns="http://www.w3.org/2000/svg" xmlns:xlink="http://www.w3.org/1999/xlink" width="384pt" height="384pt" version="1.1" viewBox="0 0 384 384"> <defs> <filter id="alpha" width="100%" height="100%" x="0%" y="0%" filterUnits="objectBoundingBox"> <feColorMatrix in="SourceGraphic" type="matrix" values="0 0 0 0 1 0 0 0 0 1 0 0 0 0 1 0 0 0 1 0"/> </filter> <mask id="mask0"> <g filter="url(#alpha)"> <rect width="384" height="384" x="0" y="0" style="fill:rgb(0%,0%,0%);fill-opacity:0.2"/> </g> </mask> <clipPath id="clip1"> <rect width="384" height="384" x="0" y="0"/> </clipPath> <g id="surface5" clip-path="url(#clip1)"> <path style="fill:rgb(0%,0%,0%)" d="M 24 336 L 24 348 C 24 357.972656 32.027344 366 42 366 L 342 366 C 351.972656 366 360 357.972656 360 348 L 360 336 C 360 345.972656 351.972656 354 342 354 L 42 354 C 32.027344 354 24 345.972656 24 336 Z M 24 336"/> </g> <mask id="mask1"> <g filter="url(#alpha)"> <rect width="384" height="384" x="0" y="0" style="fill:rgb(0%,0%,0%);fill-opacity:0.101961"/> </g> </mask> <clipPath id="clip2"> <rect width="384" height="384" x="0" y="0"/> </clipPath> <g id="surface8" clip-path="url(#clip2)"> <path style="fill:rgb(100.000%,100.000%,100.000%)" d="M 42 24 C 32.027344 24 24 32.027344 24 42 L 24 48 C 24 38.027344 32.027344 30 42 30 L 342 30 C 351.972656 30 360 38.027344 360 48 L 360 42 C 360 32.027344 351.972656 24 342 24 Z M 42 24"/> </g> <mask id="mask2"> <g filter="url(#alpha)"> <rect width="384" height="384" x="0" y="0" style="fill:rgb(0%,0%,0%);fill-opacity:0.2"/> </g> </mask> <clipPath id="clip3"> <rect width="384" height="384" x="0" y="0"/> </clipPath> <g id="surface11" clip-path="url(#clip3)"> <path style="fill:rgb(0%,0%,0%)" d="M 186 90 C 156.636719 90 120 123.433594 120 168.394531 C 120 215.269531 148.246094 258 187.402344 258 C 206.734375 258 215.113281 250.714844 228 234 C 221.6875 255.925781 211.09375 269.867188 194.113281 273.9375 C 180.71875 277.152344 165.671875 269.785156 156 258 L 120 258 C 131.160156 288.421875 159.164062 306 192.867188 306 C 217.652344 306 237.238281 296.410156 250.125 278.320312 C 259.785156 264.339844 263.996094 245.691406 263.996094 216.640625 L 263.996094 93.570312 L 227.996094 93.570312 L 227.996094 112.765625 C 227.996094 112.761719 215.363281 90.003906 185.996094 90.003906 Z M 191.320312 126 C 213.113281 126 228.003906 145.703125 228.003906 174.5625 C 228.003906 203.136719 213.554688 222 191.765625 222 C 169.984375 222 156.003906 203.425781 156.003906 174.5625 C 156.003906 145.414062 169.996094 126 191.320312 126 Z M 191.320312 126"/> </g> </defs> <g> <use mask="url(#mask0)" xlink:href="#surface5"/> <path style="fill:rgb(21.176%,48.235%,94.117%)" d="M 360 342 L 360 42 C 360 32.058594 351.941406 24 342 24 L 42 24 C 32.058594 24 24 32.058594 24 42 L 24 342 C 24 351.941406 32.058594 360 42 360 L 342 360 C 351.941406 360 360 351.941406 360 342 Z M 360 342"/> <use mask="url(#mask1)" xlink:href="#surface8"/> <use mask="url(#mask2)" xlink:href="#surface11"/> <path style="fill:rgb(100.000%,100.000%,100.000%)" d="M 186 84 C 156.636719 84 120 117.4375 120 162.394531 C 120 209.269531 148.246094 252 187.402344 252 C 206.734375 252 215.113281 244.714844 228 228 C 221.6875 249.925781 211.09375 263.867188 194.113281 267.9375 C 180.71875 271.152344 165.671875 263.785156 156 252 L 120 252 C 131.160156 282.421875 159.164062 300 192.867188 300 C 217.652344 300 237.238281 290.410156 250.125 272.320312 C 259.785156 258.339844 263.996094 239.691406 263.996094 210.640625 L 263.996094 90 L 227.996094 90 L 227.996094 106.765625 C 227.996094 106.761719 215.363281 84.003906 185.996094 84.003906 Z M 191.320312 120 C 213.113281 120 228.003906 139.703125 228.003906 168.5625 C 228.003906 197.136719 213.554688 216 191.765625 216 C 169.984375 216 156.003906 197.425781 156.003906 168.5625 C 156.003906 139.414062 169.996094 120 191.320312 120 Z M 191.320312 120"/> </g> </svg>
