<svg xmlns="http://www.w3.org/2000/svg" xmlns:xlink="http://www.w3.org/1999/xlink" width="384pt" height="384pt" version="1.1" viewBox="0 0 384 384">
 <defs>
  <filter id="alpha" width="100%" height="100%" x="0%" y="0%" filterUnits="objectBoundingBox">
   <feColorMatrix in="SourceGraphic" type="matrix" values="0 0 0 0 1 0 0 0 0 1 0 0 0 0 1 0 0 0 1 0"/>
  </filter>
  <mask id="mask0">
   <g filter="url(#alpha)">
    <rect width="384" height="384" x="0" y="0" style="fill:rgb(0%,0%,0%);fill-opacity:0.2"/>
   </g>
  </mask>
  <clipPath id="clip1">
   <rect width="384" height="384" x="0" y="0"/>
  </clipPath>
  <g id="surface5" clip-path="url(#clip1)">
   <path style="fill:rgb(0%,0%,0%)" d="M 141.46875 218.339844 L 33.140625 252.144531 C 30.875 252.734375 28.75 252.371094 26.789062 251.089844 C 24.933594 249.707031 24.003906 247.957031 24 245.785156 L 24 257.785156 C 24.003906 259.957031 24.933594 261.707031 26.789062 263.089844 C 28.75 264.371094 30.875 264.734375 33.140625 264.144531 L 141.46875 230.339844 L 155.949219 298.429688 L 158.265625 297.398438 Z M 242.53125 218.339844 L 225.394531 297.398438 L 227.757812 298.453125 L 242.53125 230.339844 L 350.878906 264.144531 C 353.144531 264.734375 355.269531 264.371094 357.238281 263.089844 C 359.085938 261.707031 359.996094 259.957031 359.996094 257.785156 L 359.996094 245.785156 C 359.996094 247.957031 359.085938 249.707031 357.238281 251.089844 C 355.269531 252.371094 353.144531 252.734375 350.878906 252.144531 Z M 114.121094 330.097656 C 113.480469 331.09375 113.039062 332.148438 113.039062 333.324219 L 116.296875 360 L 192 348 L 267.707031 360 L 270.960938 333.324219 C 270.960938 332.148438 270.515625 331.09375 269.878906 330.097656 L 267.695312 348 L 191.988281 336 L 116.289062 348 L 114.109375 330.097656 Z M 114.121094 330.097656"/>
  </g>
  <mask id="mask1">
   <g filter="url(#alpha)">
    <rect width="384" height="384" x="0" y="0" style="fill:rgb(0%,0%,0%);fill-opacity:0.2"/>
   </g>
  </mask>
  <clipPath id="clip2">
   <rect width="384" height="384" x="0" y="0"/>
  </clipPath>
  <g id="surface8" clip-path="url(#clip2)">
   <path style="fill:rgb(100%,100%,100%)" d="M 191.835938 42 C 190.90625 42 190.035156 42.1875 189.128906 42.269531 C 188.03125 42.367188 186.914062 42.398438 185.847656 42.597656 C 185.554688 42.65625 185.28125 42.777344 184.992188 42.84375 C 157.5625 48.765625 143.269531 88.078125 144 126.621094 C 144.785156 90.085938 158.984375 54.449219 184.992188 48.832031 C 185.28125 48.765625 185.554688 48.644531 185.847656 48.585938 C 186.914062 48.386719 188.03125 48.355469 189.128906 48.257812 C 190.035156 48.175781 190.90625 47.988281 191.835938 47.988281 L 191.835938 48 C 191.890625 48 191.945312 48.011719 192 48.011719 C 192.0625 48.011719 192.113281 48 192.175781 48 C 193.105469 48 193.976562 48.175781 194.882812 48.257812 C 195.980469 48.355469 197.097656 48.386719 198.164062 48.585938 C 198.457031 48.644531 198.71875 48.765625 199.007812 48.832031 C 225 54.445312 239.261719 90.050781 240.070312 126.5625 C 240.78125 88.039062 226.421875 48.765625 199.007812 42.84375 C 198.71875 42.777344 198.457031 42.65625 198.164062 42.597656 C 197.097656 42.398438 195.980469 42.367188 194.882812 42.269531 C 193.976562 42.1875 193.105469 42.011719 192.175781 42.011719 C 192.113281 42.011719 192.0625 42.023438 192 42.023438 C 191.945312 42.023438 191.890625 42.011719 191.835938 42.011719 Z M 143.976562 131.742188 C 143.929688 132.414062 143.882812 133.09375 143.882812 133.734375 L 27.410156 208.394531 C 25.246094 209.476562 24.101562 211.351562 24 214.007812 L 24 219.996094 C 24.101562 217.339844 25.246094 215.464844 27.410156 214.382812 L 143.882812 139.722656 C 143.882812 138.585938 144.03125 137.34375 144.058594 136.183594 C 143.996094 134.703125 143.996094 133.226562 143.976562 131.742188 Z M 240.070312 132.246094 C 240.046875 133.5625 240.058594 134.882812 240 136.195312 C 240.027344 137.355469 240.128906 138.597656 240.128906 139.734375 L 356.601562 214.394531 C 358.765625 215.476562 359.898438 217.351562 360 220.007812 L 360 214.019531 C 359.898438 211.363281 358.765625 209.488281 356.601562 208.40625 L 240.128906 133.746094 C 240.128906 133.265625 240.089844 132.75 240.070312 132.246094 Z M 157.101562 303.925781 L 115.207031 322.605469 C 113.761719 323.984375 113.050781 325.566406 113.050781 327.339844 L 113.519531 331.148438 C 113.875 330.238281 114.386719 329.375 115.207031 328.59375 L 158.261719 309.398438 Z M 226.582031 303.949219 L 225.398438 309.410156 L 268.792969 328.605469 C 269.613281 329.386719 270.136719 330.25 270.492188 331.160156 L 270.960938 327.351562 C 270.960938 325.578125 270.234375 323.996094 268.792969 322.617188 Z M 226.582031 303.949219"/>
  </g>
 </defs>
 <g>
  <use mask="url(#mask0)" xlink:href="#surface5"/>
  <path style="fill:rgb(29.803922%,29.803922%,29.803922%)" d="M 204 42 C 204 48.628906 198.628906 54 192 54 C 185.371094 54 180 48.628906 180 42 C 180 35.371094 185.371094 30 192 30 C 198.628906 30 204 35.371094 204 42 Z M 204 42"/>
  <path style="fill:rgb(99.215686%,49.411765%,0%)" d="M 191.832031 42.003906 C 190.902344 42.003906 190.03125 42.1875 189.125 42.265625 C 188.03125 42.363281 186.914062 42.394531 185.847656 42.59375 C 185.554688 42.652344 185.285156 42.777344 184.996094 42.84375 C 156.71875 48.949219 142.347656 90.542969 144.0625 130.195312 C 144.035156 131.355469 143.882812 132.601562 143.882812 133.738281 L 27.414062 208.394531 C 25.25 209.476562 24.105469 211.355469 24.003906 214.011719 L 24.003906 251.789062 C 24.007812 253.953125 24.933594 255.71875 26.789062 257.09375 C 28.75 258.375 30.867188 258.71875 33.132812 258.132812 L 141.484375 224.335938 L 158.265625 303.40625 L 115.210938 322.609375 C 113.769531 323.988281 113.046875 325.5625 113.046875 327.335938 L 116.308594 354.011719 L 192 342.011719 L 267.695312 354.011719 L 270.957031 327.347656 C 270.957031 325.574219 270.238281 324 268.792969 322.621094 L 225.394531 303.417969 L 242.519531 224.347656 L 350.886719 258.144531 C 353.15625 258.734375 355.269531 258.386719 357.230469 257.105469 C 359.085938 255.730469 359.996094 253.964844 360 251.800781 L 360 214.023438 C 359.898438 211.367188 358.773438 209.488281 356.605469 208.40625 L 240.125 133.742188 C 240.125 132.605469 240.03125 131.363281 240.003906 130.203125 C 241.722656 90.546875 227.289062 48.953125 199.011719 42.847656 C 198.722656 42.78125 198.453125 42.660156 198.160156 42.601562 C 197.09375 42.398438 195.976562 42.367188 194.882812 42.269531 C 193.976562 42.191406 193.105469 42.007812 192.175781 42.007812 C 192.113281 42.007812 192.058594 42.023438 191.996094 42.023438 C 191.941406 42.023438 191.890625 42.007812 191.832031 42.007812 Z M 191.832031 42.003906"/>
  <path style="fill:rgb(99.215686%,49.411765%,0%)" d="M 108 156.738281 L 84 172.125 L 84 242.261719 L 108 234.773438 Z M 276 156.738281 L 276 234.785156 L 300 242.273438 L 300 172.125 Z M 72 179.8125 L 48 195.199219 L 48 253.488281 L 72 246 Z M 312 179.8125 L 312 246.011719 L 336 253.5 L 336 195.199219 Z M 312 179.8125"/>
  <use mask="url(#mask1)" xlink:href="#surface8"/>
  <path style="fill:rgb(13.333333%,21.176471%,33.72549%)" d="M 139.5 42 L 244.5 42 C 248.640625 42 252 44.6875 252 48 C 252 51.3125 248.640625 54 244.5 54 L 139.5 54 C 135.359375 54 132 51.3125 132 48 C 132 44.6875 135.359375 42 139.5 42 Z M 139.5 42"/>
  <path style="fill:rgb(13.333333%,21.176471%,33.72549%)" d="M 240 177.996094 C 240 208.933594 218.507812 234 192 234 C 165.492188 234 144 208.933594 144 177.996094 C 144 147.074219 165.492188 138 192 138 C 218.507812 138 240 147.074219 240 178 Z M 240 177.996094"/>
 </g>
</svg>
