<svg xmlns="http://www.w3.org/2000/svg" xmlns:xlink="http://www.w3.org/1999/xlink" width="384pt" height="384pt" version="1.1" viewBox="0 0 384 384">
 <defs>
  <filter id="alpha" width="100%" height="100%" x="0%" y="0%" filterUnits="objectBoundingBox">
   <feColorMatrix in="SourceGraphic" type="matrix" values="0 0 0 0 1 0 0 0 0 1 0 0 0 0 1 0 0 0 1 0"/>
  </filter>
  <mask id="mask0">
   <g filter="url(#alpha)">
    <rect width="384" height="384" x="0" y="0" style="fill:rgb(0%,0%,0%);fill-opacity:0.2"/>
   </g>
  </mask>
  <clipPath id="clip1">
   <rect width="384" height="384" x="0" y="0"/>
  </clipPath>
  <g id="surface5" clip-path="url(#clip1)">
   <path style="fill:rgb(0%,0%,0%)" d="M 24 337.199219 L 24 349.199219 C 24 358.5 31.496094 366 40.804688 366 L 343.203125 366 C 352.503906 366 360.003906 358.5 360.003906 349.199219 L 360.003906 337.199219 C 360.003906 346.5 352.503906 354 343.203125 354 L 40.804688 354 C 31.503906 354 24.003906 346.5 24.003906 337.199219 Z M 24 337.199219"/>
  </g>
  <mask id="mask1">
   <g filter="url(#alpha)">
    <rect width="384" height="384" x="0" y="0" style="fill:rgb(0%,0%,0%);fill-opacity:0.2"/>
   </g>
  </mask>
  <clipPath id="clip2">
   <rect width="384" height="384" x="0" y="0"/>
  </clipPath>
  <g id="surface8" clip-path="url(#clip2)">
   <path style="fill:rgb(100%,100%,100%)" d="M 40.804688 24 C 31.496094 24 24 31.496094 24 40.804688 L 24 46.804688 C 24 37.496094 31.496094 30 40.804688 30 L 343.207031 30 C 352.507812 30 360 37.496094 360 46.804688 L 360 40.804688 C 360 31.496094 352.507812 24 343.207031 24 Z M 40.804688 24"/>
  </g>
  <mask id="mask2">
   <g filter="url(#alpha)">
    <rect width="384" height="384" x="0" y="0" style="fill:rgb(0%,0%,0%);fill-opacity:0.2"/>
   </g>
  </mask>
  <clipPath id="clip3">
   <rect width="384" height="384" x="0" y="0"/>
  </clipPath>
  <g id="surface11" clip-path="url(#clip3)">
   <path style="fill-rule:evenodd;fill:rgb(0%,0%,0%)" d="M 383.746094 275.089844 C 381.046875 326.011719 338.996094 365.9375 288 366 C 237.664062 366 195.875 327.117188 192.253906 276.910156 C 192.121094 278.605469 192.039062 280.300781 192 282 C 192 335.019531 234.980469 378 288 378 C 341.019531 378 384 335.019531 384 282 C 384 279.695312 383.914062 277.386719 383.746094 275.089844 Z M 383.746094 275.089844"/>
  </g>
 </defs>
 <g>
  <use mask="url(#mask0)" xlink:href="#surface5"/>
  <path style="fill:rgb(71.764706%,76.470588%,80.392157%)" d="M 360 343.199219 L 360 40.800781 C 360 31.523438 352.476562 24 343.199219 24 L 40.800781 24 C 31.523438 24 24 31.523438 24 40.800781 L 24 343.199219 C 24 352.476562 31.523438 360 40.800781 360 L 343.199219 360 C 352.476562 360 360 352.476562 360 343.199219 Z M 360 343.199219"/>
  <use mask="url(#mask1)" xlink:href="#surface8"/>
  <path style="fill:rgb(29.803922%,29.803922%,29.803922%)" d="M 108.121094 84 C 100.015625 83.855469 99.945312 95.65625 108.050781 95.601562 L 148.851562 95.828125 L 168.117188 114.609375 L 168.117188 186.117188 C 168.003906 193.960938 180.234375 193.960938 180.117188 186.117188 L 180.117188 171.730469 C 180.125 171.59375 180.125 171.457031 180.117188 171.324219 L 180.117188 112.210938 C 180.113281 110.675781 179.476562 109.210938 178.355469 108.128906 L 155.625 85.96875 C 154.511719 84.878906 152.992188 84.257812 151.402344 84.246094 L 108.117188 84 Z M 245.902344 84.160156 C 242.589844 84.210938 239.945312 86.847656 239.996094 90.050781 L 239.996094 186.117188 C 239.882812 193.960938 252.113281 193.960938 251.996094 186.117188 L 251.996094 171.730469 C 252.003906 171.59375 252.003906 171.460938 251.996094 171.324219 L 251.996094 90.046875 C 252.050781 86.773438 249.289062 84.105469 245.902344 84.15625 Z M 174.019531 84.183594 C 168.632812 84.164062 165.949219 90.484375 169.800781 94.128906 L 192 114.609375 L 192 171.324219 C 191.988281 171.519531 191.988281 171.714844 192 171.910156 L 192 186.117188 C 191.886719 193.960938 204.113281 193.960938 204 186.117188 L 204 112.210938 C 204.003906 110.679688 203.382812 109.210938 202.273438 108.121094 L 178.332031 85.960938 C 177.207031 84.824219 175.652344 84.179688 174.023438 84.171875 Z M 198.019531 84.183594 C 192.632812 84.164062 189.949219 90.484375 193.800781 94.128906 L 215.976562 114.609375 L 215.976562 186.117188 C 215.859375 193.960938 228.089844 193.960938 227.976562 186.117188 L 227.976562 171.730469 C 227.980469 171.59375 227.980469 171.457031 227.976562 171.324219 L 227.976562 112.210938 C 227.976562 110.683594 227.355469 109.214844 226.246094 108.128906 L 202.308594 85.96875 C 201.1875 84.839844 199.644531 84.191406 198.023438 84.179688 Z M 198.019531 84.183594"/>
  <path style="fill:rgb(29.803922%,29.803922%,29.803922%)" d="M 162.636719 228.003906 C 159.332031 228.0625 156.691406 231.039062 156.730469 234.660156 L 156.730469 250.980469 C 156.726562 251.132812 156.726562 251.289062 156.730469 251.441406 L 156.730469 273.878906 L 145.058594 286.753906 L 102.097656 286.753906 C 99.933594 286.71875 97.921875 287.964844 96.828125 290.015625 C 95.738281 292.066406 95.738281 294.597656 96.828125 296.648438 C 97.921875 298.699219 99.933594 299.945312 102.097656 299.910156 L 147.566406 299.910156 C 149.164062 299.917969 150.699219 299.222656 151.832031 297.984375 L 166.972656 281.203125 C 168.097656 279.972656 168.730469 278.300781 168.734375 276.558594 L 168.734375 234.640625 C 168.753906 232.863281 168.117188 231.15625 166.96875 229.902344 C 165.824219 228.648438 164.261719 227.957031 162.640625 227.984375 Z M 197.910156 228.003906 C 194.605469 228.0625 191.964844 231.039062 192.007812 234.664062 L 192.007812 293.335938 C 191.976562 295.707031 193.113281 297.914062 194.980469 299.109375 C 196.851562 300.304688 199.160156 300.304688 201.03125 299.109375 C 202.898438 297.914062 204.035156 295.707031 204.007812 293.335938 L 204.007812 251.90625 C 204.011719 251.753906 204.011719 251.597656 204.007812 251.445312 L 204.007812 234.664062 C 204.023438 232.886719 203.386719 231.179688 202.242188 229.925781 C 201.09375 228.671875 199.53125 227.980469 197.914062 228.007812 Z M 221.933594 228.003906 C 218.621094 228.046875 215.964844 231.03125 216.007812 234.664062 L 216.007812 251.445312 C 215.996094 251.667969 215.996094 251.890625 216.007812 252.113281 L 216.007812 276.578125 C 216.011719 278.316406 216.644531 279.976562 217.765625 281.203125 L 232.902344 297.984375 C 234.035156 299.226562 235.570312 299.921875 237.167969 299.914062 L 282.640625 299.914062 C 284.804688 299.945312 286.816406 298.699219 287.90625 296.652344 C 288.996094 294.601562 288.996094 292.066406 287.90625 290.019531 C 286.816406 287.96875 284.804688 286.722656 282.640625 286.753906 L 239.679688 286.753906 L 228.015625 273.886719 L 228.015625 234.675781 C 228.03125 232.90625 227.398438 231.199219 226.257812 229.945312 C 225.113281 228.695312 223.558594 228 221.945312 228.019531 Z M 245.980469 228.003906 C 242.675781 228.0625 240.035156 231.039062 240.074219 234.660156 L 240.074219 250.390625 C 239.917969 251.535156 240.039062 252.703125 240.425781 253.78125 C 240.464844 253.886719 240.503906 253.988281 240.542969 254.089844 C 240.953125 255.148438 241.605469 256.066406 242.441406 256.761719 L 256.972656 272.824219 C 258.101562 274.074219 259.636719 274.777344 261.238281 274.777344 L 276.378906 274.777344 C 278.542969 274.8125 280.554688 273.5625 281.644531 271.515625 C 282.738281 269.464844 282.738281 266.929688 281.644531 264.882812 C 280.554688 262.832031 278.542969 261.585938 276.378906 261.621094 L 263.722656 261.621094 L 252.074219 248.71875 L 252.074219 234.660156 C 252.09375 232.882812 251.457031 231.175781 250.308594 229.921875 C 249.160156 228.667969 247.601562 227.976562 245.980469 228.003906 Z M 245.980469 228.003906"/>
  <path style="fill:rgb(29.803922%,29.803922%,29.803922%)" d="M 90.265625 108 C 86.804688 108 84 110.617188 84 113.84375 L 84 270.15625 C 84 273.382812 86.804688 276 90.265625 276 L 129.832031 276 C 131.503906 276 133.109375 275.375 134.285156 274.265625 L 142.191406 266.824219 C 143.351562 265.730469 144.003906 264.257812 144.003906 262.71875 L 144.003906 128.726562 C 144.003906 127.191406 143.351562 125.714844 142.191406 124.625 L 126.363281 109.738281 C 125.195312 108.632812 123.601562 108.011719 121.9375 108.003906 L 90.269531 108.003906 Z M 90.265625 108"/>
  <path style="fill:none;stroke-width:2;stroke-linecap:round;stroke-linejoin:round;stroke:rgb(29.803922%,29.803922%,29.803922%)" d="M 27.583984 26.440104 L 42.626302 26.440104 C 44.053385 26.440104 45.210286 27.597005 45.210286 29.024089 L 45.210286 40.417969 C 45.210286 41.845052 44.053385 43.001953 42.626302 43.001953 L 27.583984 43.001953 C 26.156901 43.001953 25 41.845052 25 40.417969 L 25 29.024089 C 25 27.597005 26.156901 26.440104 27.583984 26.440104 Z M 27.583984 26.440104" transform="matrix(6,0,0,6,0,0)"/>
  <use mask="url(#mask2)" xlink:href="#surface11"/>
  <path style="fill-rule:evenodd;fill:rgb(83.137255%,10.196078%,10.196078%)" d="M 384 276 C 384 329.019531 341.019531 372 288 372 C 234.980469 372 192 329.019531 192 276 C 192 222.980469 234.980469 180 288 180 C 341.019531 180 384 222.980469 384 276 Z M 384 276"/>
  <path style="fill-rule:evenodd;fill:rgb(100%,100%,100%)" d="M 288 240 L 288 240.011719 C 276.367188 240.121094 264.664062 242.667969 254.53125 248.179688 C 250.492188 250.703125 245.644531 253.964844 241.992188 257.25 C 236.246094 262.652344 231.324219 268.949219 228 276.011719 C 237.113281 295.308594 257.140625 309.453125 279.175781 311.542969 C 293.632812 313.113281 308.761719 310.710938 321.46875 303.84375 C 325.507812 301.320312 330.355469 298.058594 334.007812 294.773438 C 339.753906 289.359375 344.675781 283.0625 348 276.011719 C 338.890625 256.71875 318.855469 242.578125 296.824219 240.492188 C 293.894531 240.15625 290.941406 240 288 240 Z M 288.023438 252 C 300.863281 251.714844 312.230469 263.207031 311.988281 275.976562 C 312.398438 290.089844 298.339844 302.273438 284.4375 299.636719 C 270.398438 297.988281 260.53125 282.230469 265.148438 268.886719 C 268.101562 259.070312 277.746094 251.898438 288.035156 252.011719 Z M 288 264 C 284.8125 264 281.757812 265.265625 279.507812 267.519531 C 277.257812 269.773438 275.996094 272.828125 276 276.011719 C 276.003906 282.632812 281.375 288 288 288 C 294.625 288 299.996094 282.632812 300 276.011719 C 299.992188 269.394531 294.621094 264.035156 288 264.035156 Z M 288 264"/>
 </g>
</svg>
