<svg xmlns="http://www.w3.org/2000/svg" xmlns:xlink="http://www.w3.org/1999/xlink" width="384pt" height="384pt" version="1.1" viewBox="0 0 384 384"> <defs> <filter id="alpha" width="100%" height="100%" x="0%" y="0%" filterUnits="objectBoundingBox"> <feColorMatrix in="SourceGraphic" type="matrix" values="0 0 0 0 1 0 0 0 0 1 0 0 0 0 1 0 0 0 1 0"/> </filter> <mask id="mask0"> <g filter="url(#alpha)"> <rect width="384" height="384" x="0" y="0" style="fill:rgb(0%,0%,0%);fill-opacity:0.501961"/> </g> </mask> <clipPath id="clip1"> <rect width="384" height="384" x="0" y="0"/> </clipPath> <g id="surface5" clip-path="url(#clip1)"> <path style="fill:rgb(0%,0%,0%)" d="M 64.699219 351.246094 C 48.621094 345.511719 37.542969 330.535156 37.515625 314.5 C 37.5 304.003906 41.429688 295.269531 50.050781 286.648438 L 58.210938 278.488281 L 58.125 198.207031 L 58.042969 117.921875 L 52.398438 113.78125 C 35.238281 101.195312 32.902344 74.25 47.582031 58.261719 C 63.695312 40.714844 91.300781 40.933594 106.175781 58.730469 L 111.242188 64.785156 L 192.722656 64.703125 L 274.203125 64.617188 L 278.382812 58.835938 C 290.800781 41.667969 317.378906 39.539062 333.894531 54.386719 C 343.46875 62.996094 347.109375 71.820312 346.398438 84.6875 C 345.730469 96.738281 342.640625 103.46875 333.933594 111.851562 L 327.339844 118.199219 L 327.339844 279.121094 L 333.933594 285.472656 C 342.640625 293.851562 345.730469 300.585938 346.398438 312.632812 C 347.109375 325.5 343.46875 334.324219 333.894531 342.933594 C 317.640625 357.546875 291.996094 355.773438 278.605469 339.109375 L 274.429688 333.914062 L 111.714844 333.914062 L 103.5625 341.460938 C 91.785156 352.367188 77.75 355.902344 64.699219 351.246094 Z M 264.195312 285.289062 L 254.214844 275.304688 L 241.914062 275.28125 C 230.265625 275.261719 229.335938 275.035156 224.304688 271.011719 C 221.386719 268.671875 217.496094 264.480469 215.660156 261.695312 L 212.324219 256.628906 L 192.199219 256.636719 L 172.074219 256.648438 L 168.917969 262.171875 C 164.210938 270.414062 156.335938 275.03125 145.847656 275.699219 C 137.21875 276.25 137.171875 276.277344 127.757812 285.761719 L 118.320312 295.269531 L 274.179688 295.269531 Z M 112.117188 275.179688 L 121.238281 266.125 L 117.914062 259.652344 C 111.632812 247.421875 115.660156 232.492188 127.667969 223.507812 L 134.117188 218.679688 L 134.117188 179.375 L 128.746094 175.980469 C 117.453125 168.851562 111.898438 154.019531 116.242188 142.589844 C 117.609375 138.996094 117.101562 138.191406 107.273438 128.363281 L 96.855469 117.945312 L 96.855469 199.429688 C 96.855469 281.578125 97.003906 284.230469 101.582031 284.230469 C 102.359375 284.230469 107.101562 280.15625 112.117188 275.179688 Z M 288.695312 203.1875 L 288.695312 124.902344 L 279.722656 133.792969 C 270.851562 142.585938 270.753906 142.769531 270.722656 150.316406 C 270.671875 162.765625 263.492188 174.160156 253.234375 178.058594 C 250.113281 179.246094 250.050781 179.65625 250.050781 199.28125 L 250.050781 219.292969 L 253.847656 221.273438 C 258.640625 223.777344 264.265625 229.800781 267.144531 235.511719 C 269.496094 240.171875 270.003906 252.5625 268.039062 257.316406 C 267.097656 259.589844 268.75 261.960938 277.417969 270.773438 C 283.207031 276.65625 288.109375 281.46875 288.316406 281.46875 C 288.523438 281.46875 288.695312 246.242188 288.695312 203.1875 Z M 215.644531 232.789062 C 216.835938 230.339844 220.71875 226.160156 224.269531 223.507812 L 230.730469 218.679688 L 230.675781 198.664062 L 230.625 178.648438 L 225.238281 174.925781 C 222.277344 172.878906 218.417969 168.691406 216.664062 165.621094 L 213.476562 160.039062 L 193.152344 160.027344 L 172.824219 160.015625 L 170.472656 163.8125 C 166.84375 169.660156 161.421875 175.242188 157.234375 177.425781 L 153.441406 179.410156 L 153.441406 199.339844 C 153.441406 218.609375 153.542969 219.320312 156.546875 220.863281 C 161.113281 223.210938 167.207031 229.175781 169.472656 233.507812 L 171.453125 237.304688 L 213.476562 237.242188 Z M 218.464844 134.652344 C 225.019531 123.84375 242.578125 119.234375 254.871094 125.097656 L 259.78125 127.4375 L 269.296875 117.996094 C 285.042969 102.375 290.59375 103.429688 192.820312 103.429688 L 110.035156 103.429688 L 120.175781 113.640625 L 130.316406 123.847656 L 140.914062 123.121094 C 149.308594 122.546875 152.496094 122.898438 156.269531 124.804688 C 162.386719 127.902344 166.992188 132.117188 169.480469 136.898438 L 171.453125 140.695312 L 193.15625 140.652344 L 214.855469 140.609375 Z M 218.464844 134.652344"/> </g> </defs> <g> <use mask="url(#mask0)" xlink:href="#surface5"/> <path style="fill:rgb(100.000%,100.000%,100.000%)" d="M 64.699219 330.019531 C 48.621094 324.28125 37.542969 309.304688 37.515625 293.269531 C 37.5 282.773438 41.429688 274.039062 50.050781 265.417969 L 58.210938 257.261719 L 58.125 176.976562 L 58.042969 96.695312 L 52.398438 92.554688 C 35.238281 79.96875 32.902344 53.023438 47.582031 37.03125 C 63.695312 19.484375 91.300781 19.707031 106.175781 37.5 L 111.242188 43.558594 L 192.722656 43.472656 L 274.203125 43.390625 L 278.382812 37.609375 C 290.800781 20.4375 317.378906 18.308594 333.894531 33.160156 C 343.46875 41.769531 347.109375 50.59375 346.398438 63.460938 C 345.730469 75.507812 342.640625 82.242188 333.933594 90.621094 L 327.339844 96.972656 L 327.339844 257.894531 L 333.933594 264.242188 C 342.640625 272.625 345.730469 279.355469 346.398438 291.40625 C 347.109375 304.273438 343.46875 313.097656 333.894531 321.707031 C 317.640625 336.320312 291.996094 334.542969 278.605469 317.878906 L 274.429688 312.6875 L 111.714844 312.6875 L 103.5625 320.234375 C 91.785156 331.136719 77.75 334.671875 64.699219 330.019531 Z M 264.195312 264.058594 L 254.214844 254.078125 L 241.914062 254.054688 C 230.265625 254.03125 229.335938 253.804688 224.304688 249.78125 C 221.386719 247.445312 217.496094 243.253906 215.660156 240.464844 L 212.324219 235.398438 L 172.074219 235.421875 L 168.917969 240.941406 C 164.210938 249.1875 156.335938 253.804688 145.847656 254.472656 C 137.21875 255.019531 137.171875 255.046875 127.757812 264.535156 L 118.320312 274.042969 L 274.179688 274.042969 Z M 112.117188 253.949219 L 121.238281 244.898438 L 117.914062 238.421875 C 111.632812 226.191406 115.660156 211.261719 127.667969 202.277344 L 134.117188 197.449219 L 134.117188 158.144531 L 128.746094 154.753906 C 117.453125 147.625 111.898438 132.789062 116.242188 121.359375 C 117.609375 117.769531 117.101562 116.964844 107.273438 107.136719 L 96.855469 96.714844 L 96.855469 178.203125 C 96.855469 260.347656 97.003906 263 101.582031 263 C 102.359375 263 107.101562 258.929688 112.117188 253.949219 Z M 288.695312 181.957031 L 288.695312 103.675781 L 279.722656 112.566406 C 270.851562 121.359375 270.753906 121.542969 270.722656 129.085938 C 270.671875 141.539062 263.492188 152.933594 253.234375 156.832031 C 250.113281 158.019531 250.050781 158.425781 250.050781 178.054688 L 250.050781 198.0625 L 253.847656 200.046875 C 258.640625 202.550781 264.265625 208.570312 267.144531 214.28125 C 269.496094 218.941406 270.003906 231.335938 268.039062 236.089844 C 267.097656 238.363281 268.75 240.734375 277.417969 249.546875 C 283.207031 255.429688 288.109375 260.242188 288.316406 260.242188 C 288.523438 260.242188 288.695312 225.015625 288.695312 181.957031 Z M 215.644531 211.558594 C 216.835938 209.109375 220.71875 204.933594 224.269531 202.277344 L 230.730469 197.449219 L 230.675781 177.433594 L 230.625 157.421875 L 225.238281 153.695312 C 222.277344 151.648438 218.417969 147.460938 216.664062 144.390625 L 213.476562 138.808594 L 193.152344 138.800781 L 172.824219 138.789062 L 170.472656 142.585938 C 166.84375 148.433594 161.421875 154.011719 157.234375 156.199219 L 153.441406 158.179688 L 153.441406 178.109375 C 153.441406 197.382812 153.542969 198.089844 156.546875 199.636719 C 161.113281 201.984375 167.207031 207.945312 169.472656 212.28125 L 171.453125 216.078125 L 213.476562 216.015625 Z M 218.464844 113.425781 C 225.019531 102.617188 242.578125 98.003906 254.871094 103.867188 L 259.78125 106.210938 L 269.296875 96.769531 C 285.042969 81.144531 290.59375 82.203125 192.820312 82.203125 L 110.035156 82.203125 L 120.175781 92.410156 L 130.316406 102.621094 L 140.914062 101.894531 C 149.308594 101.320312 152.496094 101.667969 156.269531 103.578125 C 162.386719 106.671875 166.992188 110.890625 169.480469 115.671875 L 171.453125 119.464844 L 193.15625 119.421875 L 214.855469 119.378906 Z M 218.464844 113.425781"/> </g> </svg>
