<svg xmlns="http://www.w3.org/2000/svg" width="384pt" height="384pt" version="1.1" viewBox="0 0 384 384"> <path style="fill:rgb(9.803%,9.803%,9.803%);opacity:0.3" d="m 51.368411,30.750001 -14.0625,14.062498 -14.06397,14.06397 V 340.0708 L 37.305911,354.1333 192.00073,199.5 346.63842,44.812499 332.57592,30.750001 Z M 346.69556,44.812499 192.05786,199.5 l 154.6377,154.6333 14.0625,-14.0625 V 58.876469 Z M 192.00073,199.55713 37.305911,354.18603 51.368411,368.25 H 332.57592 l 14.0625,-14.06397 z"/> <g transform="matrix(1.0417169,0,0,1.0417169,-0.97805573,-0.97805677)"> <g> <path d="m 50.25,23.257812 -13.5,13.5 L 185.25,185.25 333.69531,36.757812 l -13.5,-13.5 m -269.94531,0" style="fill:rgb(21.176%,48.235%,94.117%)"/> <path d="m 320.19531,347.24219 13.5,-13.5 -148.44531,-148.4375 -148.5,148.4375 13.5,13.5 m 269.94531,0" style="fill:rgb(54.901%,25.882%,67.058%)"/> <path d="m 23.25,320.19141 13.5,13.5 L 185.25,185.25 36.75,36.757812 l -13.5,13.5 m 0,269.933598" style="fill:rgb(83.137%,9.803%,9.803%)"/> <path d="m 347.25,50.257812 -13.5,-13.5 L 185.30469,185.25 333.75,333.69141 l 13.5,-13.5 m 0,-269.933598" style="fill:rgb(12.549%,65.882%,68.627%)"/> </g> </g> <path style="fill:rgb(100.000%,100.000%,100.000%);opacity:0.3" d="M 68.490234 31 L 49.738281 49.751953 L 30.988281 68.501953 L 30.988281 443.42773 L 30.990234 443.42969 L 30.990234 78.501953 L 49.740234 59.751953 L 68.492188 41 L 443.43164 41 L 457.18555 54.753906 L 462.18555 49.751953 L 443.43359 31 L 68.490234 31 z M 462.26172 49.751953 L 457.22266 54.791016 L 462.18359 59.751953 L 261.03711 260.96289 L 261.07422 261 L 462.25977 59.751953 L 481.00977 78.501953 L 481.00977 443.42969 L 481.01172 443.42773 L 481.01172 68.501953 L 462.26172 49.751953 z M 260.96289 261.03711 L 256 266 L 54.705078 467.2168 L 54.740234 467.25195 L 256 266.07617 L 457.18359 467.25 L 457.25781 467.17773 L 256.07422 266 L 261 261.07422 L 260.96289 261.03711 z" transform="scale(0.75)"/> </svg>
