<svg xmlns="http://www.w3.org/2000/svg" width="384pt" height="384pt" version="1.1" viewBox="0 0 384 384"> <defs> <linearGradient id="linear2" x1="69.087" x2="69.087" y1="60.327" y2="36.596" gradientTransform="translate(-6.101694,-0.813559)" gradientUnits="userSpaceOnUse"> <stop offset="0" style="stop-color:rgb(83.137%,9.803%,9.803%)"/> <stop offset="1" style="stop-color:rgb(83.137%,9.803%,9.803%)"/> </linearGradient> </defs> <path style="opacity:0.3" d="m 244.51171,35.675632 c -1.69479,-0.10204 -3.42411,-0.0293 -5.16797,0.23633 L 98.095685,57.427592 c -13.95089,2.12498 -23.33339,15.68685 -21.16602,29.91601 L 115.541,340.82798 c 2.16737,14.22915 15.16239,24.38476 29.11328,22.25976 l 141.24805,-21.51562 c 13.9509,-2.125 23.33549,-15.68786 21.16797,-29.91797 L 268.46092,58.169772 c -1.89658,-12.45134 -12.08575,-21.77983 -23.94921,-22.49414 z"/> <path d="M 98.850934,54.891154 240.09995,33.376262 c 11.14249,-1.697211 21.61939,6.383342 23.39655,18.050646 l 38.61048,253.484552 c 1.77715,11.66729 -5.81881,22.50069 -16.9613,24.1979 L 143.89667,350.62424 C 132.7542,352.32146 122.28065,344.24039 120.5035,332.5731 L 81.893019,79.088546 C 80.115868,67.421243 87.708465,56.588361 98.850934,54.891154 Z m 0,0" style="fill:rgb(100.000%,100.000%,100.000%);stroke:rgb(83.137%,9.803%,9.803%);stroke-width:10.04136276"/> <path style="opacity:0.3" d="m 126.25391,42.400327 c -14.10238,-0.51555 -25.84918,11.05967 -26.375004,25.44336 l -9.36719,256.236333 c -0.52582,14.38366 10.344894,26.78525 24.447264,27.30078 l 142.78321,5.21875 c 14.10238,0.51553 25.85305,-11.05678 26.3789,-25.44141 l 9.36719,-256.238283 c 0.52587,-14.38465 -10.34879,-26.78329 -24.45117,-27.29883 z"/> <path d="m 126.07115,39.917886 142.7828,5.219716 c 11.26348,0.411759 20.04857,10.305347 19.61741,22.099344 l -9.36727,256.237084 c -0.43115,11.79399 -9.91517,21.01972 -21.17865,20.60796 L 115.14262,338.86227 C 103.87917,338.45051 95.097479,328.55704 95.528632,316.76305 L 104.8959,60.525971 c 0.43115,-11.793996 9.91179,-21.019844 21.17525,-20.608085 z m 0,0" style="fill:rgb(100.000%,100.000%,100.000%);stroke:rgb(83.137%,9.803%,9.803%);stroke-width:10.04136276"/> <path style="opacity:0.3" d="m 157.89837,30.878941 c -11.87101,-0.600131 -23.02556,7.547901 -26.28516,19.71289 L 65.249928,298.2637 c -3.72526,13.90284 4.10292,28.41725 17.73633,32.07032 l 138.005862,36.98046 c 13.6334,3.65307 27.66927,-5.00535 31.39453,-18.9082 L 318.74993,100.73441 C 322.47518,86.831565 314.64897,72.317158 301.01556,68.664097 L 163.00774,31.685581 c -1.70417,-0.456633 -3.41351,-0.720908 -5.10937,-0.80664 z"/> <g transform="matrix(0.84150265,0.22547996,-0.22547996,0.84150265,33.922999,-24.103024)"> <path style="fill:rgb(100.000%,100.000%,100.000%);stroke:rgb(83.137%,9.803%,9.803%);stroke-width:2.88493991" d="M 34.680398,4.779883 H 76.67997 c 3.314229,0 6.000225,2.686158 6.000225,6.000138 v 71.999747 c 0,3.313979 -2.685996,6.000138 -6.000225,6.000138 H 34.680398 c -3.314229,0 -6.000225,-2.686159 -6.000225,-6.000138 V 10.780021 c 0,-3.31398 2.685996,-6.000138 6.000225,-6.000138 z m 0,0" transform="matrix(3.904802,0,0,4.087797,22.048677,1.413936)"/> <path style="fill:url(#linear2);stroke:rgb(83.137%,9.803%,9.803%);stroke-width:2.88493991" d="m 50.898411,35.186699 c -3.314229,0 -6.000225,2.686158 -6.000225,6.000138 0,0.206407 0.003,0.40708 0.02401,0.608709 0.517192,8.887926 11.976441,17.39075 11.976441,17.39075 0,0 11.444243,-8.857347 11.97644,-17.39075 0.02001,-0.201629 0.02301,-0.402302 0.02301,-0.608709 0,-3.31398 -2.685996,-6.000138 -6.000225,-6.000138 -3.313228,0 -5.999224,2.686158 -5.999224,6.000138 0,-3.31398 -2.686997,-6.000138 -6.000225,-6.000138 z m 0,0" transform="matrix(3.904802,0,0,4.087797,22.048677,1.413936)"/> <path style="fill:rgb(83.137%,9.803%,9.803%)" d="m 162.44531,70.007812 v 1.28125 h -10.13672 v -1.28125 l 3.49219,-0.652343 10.50391,-30.765625 h 4.36718 l 10.91797,30.765625 3.91016,0.652343 v 1.28125 h -13.03516 v -1.28125 l 4.13672,-0.652343 -3.05469,-9.359375 h -12.13671 l -3.10157,9.359375 4.13672,0.652343 m 4.94141,-27.9375 -5.28906,15.746094 h 10.73437 l -5.44531,-15.746094"/> <path style="fill:rgb(83.137%,9.803%,9.803%)" d="m 162.07031,79.464844 c -4.3125,0 -7.80859,3.660156 -7.80859,8.175781 0,0.285156 0.004,0.554687 0.0312,0.832031 0.67187,12.109374 15.58594,23.695314 15.58594,23.695314 0,0 14.89843,-12.07031 15.58984,-23.695314 0.0273,-0.277344 0.0312,-0.546875 0.0312,-0.832031 0,-4.515625 -3.49609,-8.175781 -7.80859,-8.175781 -4.3125,0 -7.8086,3.660156 -7.8086,8.175781 0,-4.515625 -3.49609,-8.175781 -7.8125,-8.175781 z m 0,0"/> <path style="fill:rgb(74.901%,9.019%,9.019%)" d="m 301.60547,315.26953 v -1.28125 h -10.13672 v 1.28125 l 3.49609,0.65625 10.50391,30.76563 h 4.36719 l 10.91797,-30.76563 3.90625,-0.65625 v -1.28125 h -13.03125 v 1.28125 l 4.13671,0.65625 -3.05859,9.35938 h -12.13672 l -3.10156,-9.35938 4.13672,-0.65625 m 4.9414,27.9375 -5.28515,-15.74609 h 10.73437 l -5.44922,15.74609"/> <path style="fill:rgb(74.901%,9.019%,9.019%)" d="m 301.23047,305.8125 c -4.3125,0 -7.8086,-3.66016 -7.8086,-8.17578 0,-0.28125 0.004,-0.55469 0.0312,-0.82813 0.67188,-12.11328 15.58985,-23.69922 15.58985,-23.69922 0,0 14.89453,12.07032 15.58594,23.69922 0.0273,0.27344 0.0312,0.54688 0.0312,0.82813 0,4.51562 -3.4961,8.17578 -7.8086,8.17578 -4.3125,0 -7.8125,-3.66016 -7.8125,-8.17578 0,4.51562 -3.49609,8.17578 -7.80859,8.17578 z m 0,0"/> </g> </svg>
