<svg width="512" height="512" version="1.1" viewBox="0 0 384 384" xmlns="http://www.w3.org/2000/svg"><path d="m151.57 98.123c-43.149 0.0043-79.33 30.025-79.33 68.396-4e-5 0.0137-4e-5 0.0273 0 0.041 0.01415 2.4974 0.23228 4.9851 0.56055 7.4609-31.979 3.2934-57.049 30.428-57.049 63.256 0 35.041 28.558 63.6 63.596 63.6h225.31c35.038 0 63.596-28.559 63.596-63.6 0-33.339-25.871-60.754-58.562-63.34 0.50846-3.0577 0.78028-6.1562 0.78907-9.2656 1e-5 -7e-3 1e-5 -0.013 0-0.0195 0-31.678-25.83-57.513-57.512-57.518h-0.0137c-15.009 0.0261-29.252 5.9801-39.877 16.271-15.065-16.032-37.589-25.268-61.506-25.283h-4e-3z" color="#000000" color-rendering="auto" dominant-baseline="auto" fill-rule="evenodd" image-rendering="auto" opacity=".3" shape-rendering="auto" solid-color="#000000" style="font-feature-settings:normal;font-variant-alternates:normal;font-variant-caps:normal;font-variant-ligatures:normal;font-variant-numeric:normal;font-variant-position:normal;isolation:auto;mix-blend-mode:normal;shape-padding:0;text-decoration-color:#000000;text-decoration-line:none;text-decoration-style:solid;text-indent:0;text-orientation:mixed;text-transform:none;white-space:normal"/><path transform="scale(.75)" d="m202.09 130.27c-53.203 5e-3 -96.333 36.604-96.333 81.755 0.0365 6.4479 0.96875 12.87 2.7812 19.13-0.91146-0.0625-1.8281-0.10938-2.7448-0.14063-41.615 0-75.354 33.74-75.354 75.354 0 41.62 33.74 75.359 75.354 75.359h300.42c41.615 0 75.354-33.74 75.354-75.359 0-41.615-33.74-75.354-75.354-75.354-1.7812 0-3.5573 0.0677-5.3333 0.19271 2.401-6.974 3.6354-14.297 3.6562-21.672 0-37.135-30.104-67.245-67.245-67.25-20.984 0.0365-40.755 9.8646-53.448 26.578-17.568-23.979-48.474-38.573-81.75-38.594z" fill="#7fc5eb" fill-rule="evenodd" stroke="#4aaee6" stroke-linejoin="round" stroke-width="18.879"/></svg>
