<svg xmlns="http://www.w3.org/2000/svg" xmlns:xlink="http://www.w3.org/1999/xlink" width="384pt" height="384pt" version="1.1" viewBox="0 0 384 384">
 <defs>
  <filter id="alpha" width="100%" height="100%" x="0%" y="0%" filterUnits="objectBoundingBox">
   <feColorMatrix in="SourceGraphic" type="matrix" values="0 0 0 0 1 0 0 0 0 1 0 0 0 0 1 0 0 0 1 0"/>
  </filter>
  <mask id="mask0">
   <g filter="url(#alpha)">
    <rect width="384" height="384" x="0" y="0" style="fill:rgb(0%,0%,0%);fill-opacity:0.2"/>
   </g>
  </mask>
  <clipPath id="clip1">
   <rect width="384" height="384" x="0" y="0"/>
  </clipPath>
  <g id="surface5" clip-path="url(#clip1)">
   <path style="fill:rgb(0%,0%,0%)" d="M 365.5 243.71875 L 304 336 L 84.875 336 L 80 344 L 304 344 L 368 248 Z M 365.5 243.71875"/>
  </g>
  <mask id="mask1">
   <g filter="url(#alpha)">
    <rect width="384" height="384" x="0" y="0" style="fill:rgb(0%,0%,0%);fill-opacity:0.2"/>
   </g>
  </mask>
  <clipPath id="clip2">
   <rect width="384" height="384" x="0" y="0"/>
  </clipPath>
  <g id="surface8" clip-path="url(#clip2)">
   <path style="fill:rgb(0%,0%,0%)" d="M 128 56 L 240.46875 240 L 245.34375 240 L 132.875 56 Z M 128 56"/>
  </g>
  <mask id="mask2">
   <g filter="url(#alpha)">
    <rect width="384" height="384" x="0" y="0" style="fill:rgb(0%,0%,0%);fill-opacity:0.2"/>
   </g>
  </mask>
  <clipPath id="clip3">
   <rect width="384" height="384" x="0" y="0"/>
  </clipPath>
  <g id="surface11" clip-path="url(#clip3)">
   <path style="fill:rgb(0%,0%,0%)" d="M 189.5625 156.71875 L 80 336 L 18.5 243.71875 L 16 248 L 80 344 L 192 160.71875 Z M 189.5625 156.71875"/>
  </g>
  <mask id="mask3">
   <g filter="url(#alpha)">
    <rect width="384" height="384" x="0" y="0" style="fill:rgb(0%,0%,0%);fill-opacity:0.2"/>
   </g>
  </mask>
  <clipPath id="clip4">
   <rect width="384" height="384" x="0" y="0"/>
  </clipPath>
  <g id="surface14" clip-path="url(#clip4)">
   <path style="fill:rgb(100%,100%,100%)" d="M 128 48 L 16 240 L 18.5 243.71875 L 128 56 L 256 56 L 365.5 243.71875 L 368 240 L 256 48 Z M 143.53125 240 L 138.65625 248 L 245.34375 248 L 240.46875 240 Z M 143.53125 240"/>
  </g>
 </defs>
 <g>
  <path style="fill:rgb(30.588235%,55.294118%,80%)" d="M 138.65625 240 L 80 336 L 304 336 L 368 240 Z M 138.65625 240"/>
  <path style="fill:rgb(98.823529%,76.470588%,27.058824%)" d="M 128 48 L 245.34375 240 L 368 240 L 256 48 Z M 128 48"/>
  <path style="fill:rgb(42.352941%,74.901961%,28.235294%)" d="M 128 48 L 16 240 L 80 336 L 192 152.71875 Z M 128 48"/>
  <use mask="url(#mask0)" xlink:href="#surface5"/>
  <path style="fill:rgb(98.823529%,76.470588%,27.058824%)" d="M 128 48 L 245.34375 240 L 368 240 L 256 48 Z M 128 48"/>
  <use mask="url(#mask1)" xlink:href="#surface8"/>
  <use mask="url(#mask2)" xlink:href="#surface11"/>
  <use mask="url(#mask3)" xlink:href="#surface14"/>
 </g>
</svg>
