<svg xmlns="http://www.w3.org/2000/svg" xmlns:xlink="http://www.w3.org/1999/xlink" width="384pt" height="384pt" version="1.1" viewBox="0 0 384 384"> <defs> <filter id="alpha" width="100%" height="100%" x="0%" y="0%" filterUnits="objectBoundingBox"> <feColorMatrix in="SourceGraphic" type="matrix" values="0 0 0 0 1 0 0 0 0 1 0 0 0 0 1 0 0 0 1 0"/> </filter> <mask id="mask0"> <g filter="url(#alpha)"> <rect width="384" height="384" x="0" y="0" style="fill:rgb(0%,0%,0%);fill-opacity:0.301961"/> </g> </mask> <clipPath id="clip1"> <rect width="384" height="384" x="0" y="0"/> </clipPath> <g id="surface5" clip-path="url(#clip1)"> <path style="fill:rgb(0%,0%,0%)" d="M 372.75 59.792969 L 336.320312 96.222656 L 336.320312 260.152344 C 336.320312 270.242188 328.195312 278.367188 318.105469 278.367188 L 135.960938 278.367188 C 125.871094 278.367188 117.746094 270.242188 117.746094 260.152344 L 117.746094 78.007812 C 117.746094 67.914062 125.871094 59.792969 135.960938 59.792969 Z M 372.75 59.792969"/> </g> <mask id="mask1"> <g filter="url(#alpha)"> <rect width="384" height="384" x="0" y="0" style="fill:rgb(0%,0%,0%);fill-opacity:0.301961"/> </g> </mask> <clipPath id="clip2"> <rect width="384" height="384" x="0" y="0"/> </clipPath> <g id="surface8" clip-path="url(#clip2)"> <path style="fill:rgb(100.000%,100.000%,100.000%)" d="M 368.25 55.292969 L 363.695312 59.847656 L 131.460938 59.847656 C 121.371094 59.847656 113.246094 67.96875 113.246094 78.058594 L 113.246094 73.507812 C 113.246094 63.414062 121.371094 55.292969 131.460938 55.292969 Z M 368.25 55.292969"/> </g> <mask id="mask2"> <g filter="url(#alpha)"> <rect width="384" height="384" x="0" y="0" style="fill:rgb(0%,0%,0%);fill-opacity:0.301961"/> </g> </mask> <clipPath id="clip3"> <rect width="384" height="384" x="0" y="0"/> </clipPath> <g id="surface11" clip-path="url(#clip3)"> <path style="fill:rgb(0%,0%,0%)" d="M 368.25 55.292969 L 331.820312 91.722656 L 331.820312 82.613281 L 359.144531 55.292969 Z M 331.820312 246.542969 L 331.820312 255.652344 C 331.820312 265.742188 323.695312 273.867188 313.605469 273.867188 L 131.460938 273.867188 C 121.371094 273.867188 113.246094 265.742188 113.246094 255.652344 L 113.246094 246.542969 C 113.246094 256.636719 121.371094 264.757812 131.460938 264.757812 L 313.605469 264.757812 C 323.695312 264.757812 331.820312 256.636719 331.820312 246.542969 Z M 331.820312 246.542969"/> </g> <mask id="mask3"> <g filter="url(#alpha)"> <rect width="384" height="384" x="0" y="0" style="fill:rgb(0%,0%,0%);fill-opacity:0.301961"/> </g> </mask> <clipPath id="clip4"> <rect width="384" height="384" x="0" y="0"/> </clipPath> <g id="surface14" clip-path="url(#clip4)"> <path style="fill:rgb(0%,0%,0%)" d="M 20.25 114.632812 L 56.679688 151.0625 L 56.679688 314.992188 C 56.679688 325.085938 64.804688 333.207031 74.894531 333.207031 L 257.039062 333.207031 C 267.128906 333.207031 275.253906 325.085938 275.253906 314.992188 L 275.253906 132.847656 C 275.253906 122.757812 267.128906 114.632812 257.039062 114.632812 Z M 20.25 114.632812"/> </g> <mask id="mask4"> <g filter="url(#alpha)"> <rect width="384" height="384" x="0" y="0" style="fill:rgb(0%,0%,0%);fill-opacity:0.301961"/> </g> </mask> <clipPath id="clip5"> <rect width="384" height="384" x="0" y="0"/> </clipPath> <g id="surface17" clip-path="url(#clip5)"> <path style="fill:rgb(100.000%,100.000%,100.000%)" d="M 15.75 110.132812 L 20.304688 114.6875 L 252.539062 114.6875 C 262.628906 114.6875 270.753906 122.8125 270.753906 132.902344 L 270.753906 128.347656 C 270.753906 118.257812 262.628906 110.132812 252.539062 110.132812 Z M 15.75 110.132812"/> </g> <mask id="mask5"> <g filter="url(#alpha)"> <rect width="384" height="384" x="0" y="0" style="fill:rgb(0%,0%,0%);fill-opacity:0.301961"/> </g> </mask> <clipPath id="clip6"> <rect width="384" height="384" x="0" y="0"/> </clipPath> <g id="surface20" clip-path="url(#clip6)"> <path style="fill:rgb(0%,0%,0%)" d="M 15.75 110.132812 L 52.179688 146.5625 L 52.179688 137.457031 L 24.855469 110.132812 Z M 52.179688 301.386719 L 52.179688 310.492188 C 52.179688 320.585938 60.304688 328.707031 70.394531 328.707031 L 252.539062 328.707031 C 262.628906 328.707031 270.753906 320.585938 270.753906 310.492188 L 270.753906 301.386719 C 270.753906 311.476562 262.628906 319.601562 252.539062 319.601562 L 70.394531 319.601562 C 60.304688 319.601562 52.179688 311.476562 52.179688 301.386719 Z M 52.179688 301.386719"/> </g> <mask id="mask6"> <g filter="url(#alpha)"> <rect width="384" height="384" x="0" y="0" style="fill:rgb(0%,0%,0%);fill-opacity:0.301961"/> </g> </mask> <clipPath id="clip7"> <rect width="384" height="384" x="0" y="0"/> </clipPath> <g id="surface23" clip-path="url(#clip7)"> <path style="fill:rgb(0%,0%,0%)" d="M 124.707031 143.714844 C 120.851562 143.714844 117.289062 145.769531 115.351562 149.101562 L 77.855469 213.992188 C 76.503906 216.328125 76.078125 219.085938 76.65625 221.726562 C 76.894531 220.640625 77.300781 219.601562 77.855469 218.640625 L 115.351562 153.753906 C 117.289062 150.417969 120.851562 148.367188 124.707031 148.367188 L 199.632812 148.367188 C 203.480469 148.375 207.035156 150.425781 208.964844 153.753906 L 246.480469 218.640625 C 247.039062 219.617188 247.445312 220.667969 247.679688 221.765625 C 248.273438 219.117188 247.84375 216.339844 246.480469 213.992188 L 208.964844 149.101562 C 207.035156 145.773438 203.480469 143.722656 199.632812 143.714844 Z M 128.460938 174.25 L 126.761719 177.199219 L 162.160156 212.597656 L 197.535156 177.222656 L 195.839844 174.261719 L 162.160156 207.945312 Z M 101.042969 221.703125 L 99.703125 224.027344 L 118.371094 256.386719 L 150.683594 224.070312 L 148.359375 221.746094 L 118.371094 251.734375 Z M 175.949219 221.746094 L 173.621094 224.070312 L 205.957031 256.386719 L 224.539062 224.070312 L 223.203125 221.746094 L 205.957031 251.734375 Z M 128.460938 269.242188 L 126.761719 270.941406 L 130.914062 278.144531 L 193.402344 278.144531 L 197.554688 270.941406 L 195.855469 269.242188 L 193.402344 273.496094 L 130.914062 273.496094 Z M 128.460938 269.242188"/> </g> </defs> <g> <use mask="url(#mask0)" xlink:href="#surface5"/> <path style="fill:rgb(100.000%,78.039%,18.823%)" d="M 368.25 55.292969 L 331.820312 91.722656 L 331.820312 255.652344 C 331.820312 265.742188 323.695312 273.867188 313.605469 273.867188 L 131.460938 273.867188 C 121.371094 273.867188 113.246094 265.742188 113.246094 255.652344 L 113.246094 73.507812 C 113.246094 63.414062 121.371094 55.292969 131.460938 55.292969 Z M 368.25 55.292969"/> <use mask="url(#mask1)" xlink:href="#surface8"/> <use mask="url(#mask2)" xlink:href="#surface11"/> <use mask="url(#mask3)" xlink:href="#surface14"/> <path style="fill:rgb(99.215%,49.019%,0%)" d="M 15.75 110.132812 L 52.179688 146.5625 L 52.179688 310.492188 C 52.179688 320.585938 60.304688 328.707031 70.394531 328.707031 L 252.539062 328.707031 C 262.628906 328.707031 270.753906 320.585938 270.753906 310.492188 L 270.753906 128.347656 C 270.753906 118.257812 262.628906 110.132812 252.539062 110.132812 Z M 15.75 110.132812"/> <use mask="url(#mask4)" xlink:href="#surface17"/> <use mask="url(#mask5)" xlink:href="#surface20"/> <path style="fill:rgb(100.000%,100.000%,100.000%)" d="M 124.707031 143.714844 C 120.851562 143.714844 117.285156 145.769531 115.351562 149.101562 L 77.855469 213.992188 C 75.90625 217.347656 75.90625 221.492188 77.855469 224.847656 L 115.351562 289.738281 C 117.285156 293.074219 120.851562 295.125 124.707031 295.125 L 199.632812 295.125 C 203.480469 295.117188 207.035156 293.066406 208.964844 289.738281 L 246.480469 224.847656 C 248.429688 221.492188 248.429688 217.347656 246.480469 213.992188 L 208.964844 149.101562 C 207.035156 145.773438 203.480469 143.722656 199.632812 143.714844 Z M 130.914062 165.347656 L 193.402344 165.347656 L 197.535156 172.570312 L 162.160156 207.945312 L 126.761719 172.550781 Z M 118.347656 187.085938 L 150.683594 219.421875 L 118.367188 251.734375 L 99.703125 219.378906 Z M 205.957031 187.085938 L 224.539062 219.421875 L 205.957031 251.734375 L 173.621094 219.421875 Z M 162.160156 230.882812 L 197.554688 266.292969 L 193.402344 273.496094 L 130.914062 273.496094 L 126.761719 266.292969 Z M 162.160156 230.882812"/> <use mask="url(#mask6)" xlink:href="#surface23"/> </g> </svg>
