<svg xmlns="http://www.w3.org/2000/svg" xmlns:xlink="http://www.w3.org/1999/xlink" width="384pt" height="384pt" version="1.1" viewBox="0 0 384 384">
 <defs>
  <filter id="alpha" width="100%" height="100%" x="0%" y="0%" filterUnits="objectBoundingBox">
   <feColorMatrix in="SourceGraphic" type="matrix" values="0 0 0 0 1 0 0 0 0 1 0 0 0 0 1 0 0 0 1 0"/>
  </filter>
  <mask id="mask0">
   <g filter="url(#alpha)">
    <rect width="384" height="384" x="0" y="0" style="fill:rgb(0%,0%,0%);fill-opacity:0.2"/>
   </g>
  </mask>
  <clipPath id="clip1">
   <rect width="384" height="384" x="0" y="0"/>
  </clipPath>
  <g id="surface5" clip-path="url(#clip1)">
   <path style="fill:rgb(0%,0%,0%)" d="M 24.304688 192.003906 C 24.234375 194.007812 24 195.972656 24 198.003906 C 24 291.074219 98.925781 366 191.996094 366 C 285.066406 366 359.996094 291.074219 359.996094 198.003906 C 359.996094 195.976562 359.761719 194.011719 359.691406 192.003906 C 356.523438 282.253906 283.035156 354 191.992188 354 C 100.949219 354 27.464844 282.253906 24.296875 192.003906 Z M 24.304688 192.003906"/>
  </g>
  <mask id="mask1">
   <g filter="url(#alpha)">
    <rect width="384" height="384" x="0" y="0" style="fill:rgb(0%,0%,0%);fill-opacity:0.2"/>
   </g>
  </mask>
  <clipPath id="clip2">
   <rect width="384" height="384" x="0" y="0"/>
  </clipPath>
  <g id="surface8" clip-path="url(#clip2)">
   <path style="fill:rgb(0%,0%,0%)" d="M 191.996094 78.003906 C 125.722656 78.003906 72 131.730469 72 198.003906 C 72 264.277344 125.722656 318 191.996094 318 C 258.269531 318 311.996094 264.277344 311.996094 198.003906 C 311.996094 131.730469 258.269531 78.003906 191.996094 78.003906 Z M 151.636719 126.003906 C 152.890625 126.03125 154.113281 126.394531 155.199219 127.058594 L 260.199219 191.042969 C 262.550781 192.460938 264.003906 195.121094 264.003906 198.003906 C 264.003906 200.882812 262.550781 203.542969 260.199219 204.964844 L 155.199219 268.945312 C 152.878906 270.355469 150.027344 270.339844 147.71875 268.90625 C 145.410156 267.472656 143.992188 264.835938 143.992188 261.988281 L 143.992188 134.019531 C 143.988281 131.867188 144.796875 129.804688 146.234375 128.296875 C 147.671875 126.789062 149.621094 125.964844 151.636719 126.003906 Z M 151.636719 126.003906"/>
  </g>
  <mask id="mask2">
   <g filter="url(#alpha)">
    <rect width="384" height="384" x="0" y="0" style="fill:rgb(0%,0%,0%);fill-opacity:0.101961"/>
   </g>
  </mask>
  <clipPath id="clip3">
   <rect width="384" height="384" x="0" y="0"/>
  </clipPath>
  <g id="surface11" clip-path="url(#clip3)">
   <path style="fill:rgb(100%,100%,100%)" d="M 192 24 C 98.929688 24 24 98.929688 24 192 C 24 192.679688 24.066406 193.34375 24.105469 194.015625 C 26.214844 102.804688 100.265625 30 192 30 C 283.734375 30 357.785156 102.804688 359.894531 194.015625 C 359.933594 193.34375 360 192.679688 360 192 C 360 98.929688 285.070312 24 192 24 Z M 192 24"/>
  </g>
 </defs>
 <g>
  <use mask="url(#mask0)" xlink:href="#surface5"/>
  <path style="fill:rgb(29.803922%,29.803922%,29.803922%)" d="M 360 192.003906 C 360 99.222656 284.785156 24.007812 192.003906 24.007812 C 99.222656 24.007812 24.007812 99.222656 24.007812 192.003906 C 24.007812 284.785156 99.222656 360 192.003906 360 C 284.785156 360 360 284.785156 360 192.003906 Z M 360 192.003906"/>
  <use mask="url(#mask1)" xlink:href="#surface8"/>
  <path style="fill:rgb(100%,100%,100%)" d="M 191.996094 72.003906 C 125.722656 72.003906 72 125.730469 72 192.003906 C 72 258.277344 125.722656 312 191.996094 312 C 258.269531 312 311.996094 258.277344 311.996094 192.003906 C 311.996094 125.730469 258.269531 72.003906 191.996094 72.003906 Z M 151.640625 120.003906 C 152.894531 120.03125 154.121094 120.394531 155.207031 121.058594 L 260.203125 185.042969 C 262.554688 186.464844 264.007812 189.121094 264.007812 192.003906 C 264.007812 194.882812 262.554688 197.542969 260.203125 198.960938 L 155.207031 262.945312 C 152.882812 264.355469 150.035156 264.339844 147.726562 262.90625 C 145.414062 261.472656 143.996094 258.835938 144 255.984375 L 144 128.019531 C 143.992188 125.867188 144.800781 123.804688 146.242188 122.296875 C 147.679688 120.789062 149.625 119.960938 151.640625 120.003906 Z M 151.640625 120.003906"/>
  <use mask="url(#mask2)" xlink:href="#surface11"/>
 </g>
</svg>
