<svg xmlns="http://www.w3.org/2000/svg" xmlns:xlink="http://www.w3.org/1999/xlink" width="384pt" height="384pt" version="1.1" viewBox="0 0 384 384">
 <defs>
  <filter id="alpha" width="100%" height="100%" x="0%" y="0%" filterUnits="objectBoundingBox">
   <feColorMatrix in="SourceGraphic" type="matrix" values="0 0 0 0 1 0 0 0 0 1 0 0 0 0 1 0 0 0 1 0"/>
  </filter>
  <mask id="mask0">
   <g filter="url(#alpha)">
    <rect width="384" height="384" x="0" y="0" style="fill:rgb(0%,0%,0%);fill-opacity:0.2"/>
   </g>
  </mask>
  <clipPath id="clip1">
   <rect width="384" height="384" x="0" y="0"/>
  </clipPath>
  <g id="surface5" clip-path="url(#clip1)">
   <path style="fill:rgb(0%,0%,0%)" d="M 192.195312 36.03125 C 180.96875 35.546875 170.386719 40.816406 164.769531 49.683594 L 25.054688 270.191406 C 19.621094 291.527344 35.773438 307.398438 59.933594 319.035156 C 105.253906 340.863281 178.742188 347.800781 190.777344 347.984375 C 210.617188 348.40625 270.746094 339.3125 313.675781 322.253906 C 346.332031 309.28125 369.035156 291.699219 356.496094 270.191406 L 216.78125 49.683594 C 211.667969 41.617188 202.40625 36.472656 192.195312 36.03125 Z M 192.195312 36.03125"/>
  </g>
  <mask id="mask1">
   <g filter="url(#alpha)">
    <rect width="384" height="384" x="0" y="0" style="fill:rgb(0%,0%,0%);fill-opacity:0.2"/>
   </g>
  </mask>
  <clipPath id="clip2">
   <rect width="384" height="384" x="0" y="0"/>
  </clipPath>
  <g id="surface8" clip-path="url(#clip2)">
   <path style="fill:rgb(0%,0%,0%)" d="M 192.5625 36.046875 C 181.402344 35.664062 170.898438 40.894531 165.304688 49.6875 L 144.445312 82.5 C 144.300781 84.046875 144 85.550781 144 87.140625 L 144 325.898438 C 144 351.480469 171.511719 360 192 360 C 212.488281 360 240 351.480469 240 325.898438 L 240 87.140625 C 240 86.34375 239.898438 85.578125 239.859375 84.796875 L 217.523438 49.6875 C 212.945312 42.488281 204.984375 37.816406 196.054688 36.539062 C 194.882812 36.386719 193.761719 36.101562 192.5625 36.046875 Z M 192.5625 36.046875"/>
  </g>
  <mask id="mask2">
   <g filter="url(#alpha)">
    <rect width="384" height="384" x="0" y="0" style="fill:rgb(0%,0%,0%);fill-opacity:0.2"/>
   </g>
  </mask>
  <clipPath id="clip3">
   <rect width="384" height="384" x="0" y="0"/>
  </clipPath>
  <g id="surface11" clip-path="url(#clip3)">
   <path style="fill:rgb(0%,0%,0%)" d="M 90 144 C 99.941406 144 108 155.417969 108 169.5 L 108 322.5 C 108 336.582031 99.941406 348 90 348 C 80.058594 348 72 336.582031 72 322.5 L 72 169.5 C 72 155.417969 80.058594 144 90 144 Z M 90 144"/>
  </g>
  <mask id="mask3">
   <g filter="url(#alpha)">
    <rect width="384" height="384" x="0" y="0" style="fill:rgb(0%,0%,0%);fill-opacity:0.101961"/>
   </g>
  </mask>
  <clipPath id="clip4">
   <rect width="384" height="384" x="0" y="0"/>
  </clipPath>
  <g id="surface14" clip-path="url(#clip4)">
   <path style="fill:rgb(100.000%,100.000%,100.000%)" d="M 192.199219 30.035156 C 180.972656 29.550781 170.382812 34.820312 164.765625 43.6875 L 25.054688 264.1875 C 24.046875 268.140625 23.785156 271.910156 24.175781 275.496094 C 24.335938 273.761719 24.59375 272 25.054688 270.1875 L 164.765625 49.6875 C 170.382812 40.820312 180.972656 35.550781 192.199219 36.035156 C 202.410156 36.476562 211.675781 41.621094 216.785156 49.6875 L 356.496094 270.1875 C 358.300781 273.28125 359.296875 276.292969 359.71875 279.222656 C 360.488281 274.453125 359.558594 269.4375 356.496094 264.1875 L 216.785156 43.6875 C 211.675781 35.621094 202.410156 30.476562 192.199219 30.035156 Z M 192.199219 30.035156"/>
  </g>
  <mask id="mask4">
   <g filter="url(#alpha)">
    <rect width="384" height="384" x="0" y="0" style="fill:rgb(0%,0%,0%);fill-opacity:0.2"/>
   </g>
  </mask>
  <clipPath id="clip5">
   <rect width="384" height="384" x="0" y="0"/>
  </clipPath>
  <g id="surface17" clip-path="url(#clip5)">
   <path style="fill:rgb(0%,0%,0%)" d="M 234 250.996094 C 234 223.933594 215.195312 201.996094 192 201.996094 C 168.804688 201.996094 150 223.933594 150 250.996094 C 150 278.0625 168.804688 300 192 300 C 215.195312 300 234 278.0625 234 250.996094 Z M 234 250.996094"/>
  </g>
  <mask id="mask5">
   <g filter="url(#alpha)">
    <rect width="384" height="384" x="0" y="0" style="fill:rgb(0%,0%,0%);fill-opacity:0.2"/>
   </g>
  </mask>
  <clipPath id="clip6">
   <rect width="384" height="384" x="0" y="0"/>
  </clipPath>
  <g id="surface20" clip-path="url(#clip6)">
   <path style="fill:rgb(0%,0%,0%)" d="M 294 144 C 303.941406 144 312 155.417969 312 169.5 L 312 322.5 C 312 336.582031 303.941406 348 294 348 C 284.058594 348 276 336.582031 276 322.5 L 276 169.5 C 276 155.417969 284.058594 144 294 144 Z M 294 144"/>
  </g>
  <mask id="mask6">
   <g filter="url(#alpha)">
    <rect width="384" height="384" x="0" y="0" style="fill:rgb(0%,0%,0%);fill-opacity:0.2"/>
   </g>
  </mask>
  <clipPath id="clip7">
   <rect width="384" height="384" x="0" y="0"/>
  </clipPath>
  <g id="surface23" clip-path="url(#clip7)">
   <path style="fill:rgb(100.000%,100.000%,100.000%)" d="M 192 195.996094 C 168.800781 195.996094 149.996094 217.9375 150 245.003906 C 150 246.15625 150.035156 247.308594 150.105469 248.460938 C 151.261719 222.441406 169.667969 202.027344 192 201.996094 C 214.039062 201.996094 232.328125 221.867188 233.894531 247.511719 C 233.949219 246.675781 233.984375 245.839844 234 245.003906 C 234.003906 217.9375 215.199219 195.996094 192 195.996094 Z M 192 195.996094"/>
  </g>
  <mask id="mask7">
   <g filter="url(#alpha)">
    <rect width="384" height="384" x="0" y="0" style="fill:rgb(0%,0%,0%);fill-opacity:0.2"/>
   </g>
  </mask>
  <clipPath id="clip8">
   <rect width="384" height="384" x="0" y="0"/>
  </clipPath>
  <g id="surface26" clip-path="url(#clip8)">
   <path style="fill:rgb(100.000%,100.000%,100.000%)" d="M 90 138 C 80.027344 138 72 149.371094 72 163.5 L 72 169.5 C 72 155.371094 80.027344 144 90 144 C 99.972656 144 108 155.371094 108 169.5 L 108 163.5 C 108 149.371094 99.972656 138 90 138 Z M 90 138"/>
  </g>
  <mask id="mask8">
   <g filter="url(#alpha)">
    <rect width="384" height="384" x="0" y="0" style="fill:rgb(0%,0%,0%);fill-opacity:0.2"/>
   </g>
  </mask>
  <clipPath id="clip9">
   <rect width="384" height="384" x="0" y="0"/>
  </clipPath>
  <g id="surface29" clip-path="url(#clip9)">
   <path style="fill:rgb(100.000%,100.000%,100.000%)" d="M 294 138 C 284.027344 138 276 149.371094 276 163.5 L 276 169.5 C 276 155.371094 284.027344 144 294 144 C 303.972656 144 312 155.371094 312 169.5 L 312 163.5 C 312 149.371094 303.972656 138 294 138 Z M 294 138"/>
  </g>
 </defs>
 <g>
  <use mask="url(#mask0)" xlink:href="#surface5"/>
  <path style="fill:#37393f" d="M 192.195312 30.03125 C 180.96875 29.546875 170.386719 34.816406 164.769531 43.683594 L 25.054688 264.191406 C 19.621094 285.527344 35.773438 301.398438 59.933594 313.035156 C 105.253906 334.863281 178.742188 341.800781 190.777344 341.984375 C 210.617188 342.40625 270.746094 333.3125 313.675781 316.253906 C 346.332031 303.28125 369.035156 285.699219 356.496094 264.191406 L 216.78125 43.683594 C 211.667969 35.617188 202.40625 30.472656 192.195312 30.03125 Z M 192.195312 30.03125"/>
  <use mask="url(#mask1)" xlink:href="#surface8"/>
  <path style="fill:rgb(37.647%,38.823%,43.137%)" d="M 192.1875 30.023438 C 180.960938 29.539062 170.382812 34.820312 164.765625 43.6875 L 144 76.453125 L 144 319.898438 C 144 345.480469 171.511719 354 192 354 C 212.488281 354 240 345.480469 240 319.898438 L 240 80.34375 L 216.773438 43.6875 C 211.664062 35.621094 202.398438 30.464844 192.1875 30.023438 Z M 192.1875 30.023438"/>
  <use mask="url(#mask2)" xlink:href="#surface11"/>
  <use mask="url(#mask3)" xlink:href="#surface14"/>
  <path style="fill:rgb(70.196%,70.196%,70.196%)" d="M 90 138 C 99.941406 138 108 149.417969 108 163.5 L 108 316.5 C 108 330.582031 99.941406 342 90 342 C 80.058594 342 72 330.582031 72 316.5 L 72 163.5 C 72 149.417969 80.058594 138 90 138 Z M 90 138"/>
  <use mask="url(#mask4)" xlink:href="#surface17"/>
  <path style="fill:rgb(44.705%,63.529%,95.686%)" d="M 234 244.996094 C 234 217.933594 215.195312 195.996094 192 195.996094 C 168.804688 195.996094 150 217.933594 150 244.996094 C 150 272.0625 168.804688 294 192 294 C 215.195312 294 234 272.0625 234 244.996094 Z M 234 244.996094"/>
  <use mask="url(#mask5)" xlink:href="#surface20"/>
  <path style="fill:rgb(70.196%,70.196%,70.196%)" d="M 294 138 C 303.941406 138 312 149.417969 312 163.5 L 312 316.5 C 312 330.582031 303.941406 342 294 342 C 284.058594 342 276 330.582031 276 316.5 L 276 163.5 C 276 149.417969 284.058594 138 294 138 Z M 294 138"/>
  <use mask="url(#mask6)" xlink:href="#surface23"/>
  <use mask="url(#mask7)" xlink:href="#surface26"/>
  <use mask="url(#mask8)" xlink:href="#surface29"/>
 </g>
</svg>
