<svg xmlns="http://www.w3.org/2000/svg" xmlns:xlink="http://www.w3.org/1999/xlink" width="384pt" height="384pt" version="1.1" viewBox="0 0 384 384">
 <defs>
  <filter id="alpha" width="100%" height="100%" x="0%" y="0%" filterUnits="objectBoundingBox">
   <feColorMatrix in="SourceGraphic" type="matrix" values="0 0 0 0 1 0 0 0 0 1 0 0 0 0 1 0 0 0 1 0"/>
  </filter>
  <mask id="mask0">
   <g filter="url(#alpha)">
    <rect width="384" height="384" x="0" y="0" style="fill:rgb(0%,0%,0%);fill-opacity:0.2"/>
   </g>
  </mask>
  <clipPath id="clip1">
   <rect width="384" height="384" x="0" y="0"/>
  </clipPath>
  <g id="surface5" clip-path="url(#clip1)">
   <path style="fill:rgb(0%,0%,0%)" d="M 36 314.386719 L 36 326.386719 C 36 335.039062 42.960938 342 51.609375 342 L 332.410156 342 C 341.050781 342 348 335.039062 348 326.386719 L 348 314.386719 C 348 323.039062 341.050781 330 332.410156 330 L 51.609375 330 C 42.960938 330 36 323.039062 36 314.386719 Z M 36 314.386719"/>
  </g>
  <mask id="mask1">
   <g filter="url(#alpha)">
    <rect width="384" height="384" x="0" y="0" style="fill:rgb(0%,0%,0%);fill-opacity:0.101961"/>
   </g>
  </mask>
  <clipPath id="clip2">
   <rect width="384" height="384" x="0" y="0"/>
  </clipPath>
  <g id="surface8" clip-path="url(#clip2)">
   <path style="fill:rgb(100%,100%,100%)" d="M 51.609375 48 C 42.960938 48 36 54.414062 36 62.390625 L 36 68.390625 C 36 60.414062 42.960938 54 51.609375 54 L 332.390625 54 C 341.042969 54 348 60.414062 348 68.390625 L 348 62.390625 C 348 54.414062 341.042969 48 332.390625 48 Z M 51.609375 48"/>
  </g>
 </defs>
 <g>
  <use mask="url(#mask0)" xlink:href="#surface5"/>
  <path style="fill:rgb(71.764706%,76.470588%,80.392157%)" d="M 36 84 L 36 320.398438 C 36 329.050781 42.953125 336 51.601562 336 L 332.414062 336 C 341.054688 336 348 329.050781 348 320.398438 L 348 84 Z M 36 84"/>
  <path style="fill:rgb(29.803922%,29.803922%,29.803922%)" d="M 51.601562 48 C 42.953125 48 36 54.417969 36 62.394531 L 36 84 L 348 84 L 348 62.394531 C 348 54.417969 341.054688 48 332.402344 48 Z M 51.601562 48"/>
  <path style="fill:rgb(29.803922%,29.803922%,29.803922%)" d="M 128.964844 143.242188 L 128.964844 152.445312 L 141.195312 153.378906 L 143.175781 156.175781 L 123.488281 261.015625 L 120.460938 263.929688 L 108.003906 264.851562 L 108.003906 274.40625 L 162.523438 274.40625 L 162.523438 264.855469 L 150.410156 264.039062 L 148.3125 261.007812 L 156.351562 217.089844 L 168.699219 217.089844 L 186.40625 254.367188 C 193.640625 269.230469 198.71875 275.605469 214.363281 275.804688 C 218.859375 275.863281 220.671875 276.191406 232.804688 275.804688 C 274.660156 240.859375 296.023438 214.222656 299.402344 202.179688 C 301.445312 194.886719 298.199219 190.414062 291.246094 190.414062 C 287.851562 190.414062 283.96875 191.839844 279.597656 194.726562 L 276.453125 219.769531 C 267.886719 230.964844 256.464844 243.160156 242.554688 255.882812 L 251.757812 207.769531 C 253.664062 197.933594 254.296875 192.683594 247.910156 190.644531 L 219.371094 196.9375 L 217.859375 202.296875 L 231.019531 204.394531 C 231.9375 207.785156 230.921875 215.160156 228.921875 226.527344 L 222.515625 261.824219 C 222.414062 262.1875 222.351562 262.585938 222.285156 262.988281 C 218.128906 260.753906 215.511719 256.78125 212.5 250.757812 L 187.453125 200.667969 L 233.234375 154.304688 L 248.84375 152.789062 L 248.84375 143.234375 L 199.917969 143.234375 L 199.921875 152.789062 L 212.03125 153.71875 L 213.199219 156.867188 L 164.15625 207.421875 L 158.332031 207.421875 L 168 156.167969 L 170.5625 153.371094 L 183.492188 152.441406 L 183.492188 143.238281 Z M 128.964844 143.242188"/>
  <use mask="url(#mask1)" xlink:href="#surface8"/>
 </g>
</svg>
