<svg xmlns="http://www.w3.org/2000/svg" xmlns:xlink="http://www.w3.org/1999/xlink" width="384pt" height="384pt" version="1.1" viewBox="0 0 384 384">
 <defs>
  <filter id="alpha" width="100%" height="100%" x="0%" y="0%" filterUnits="objectBoundingBox">
   <feColorMatrix in="SourceGraphic" type="matrix" values="0 0 0 0 1 0 0 0 0 1 0 0 0 0 1 0 0 0 1 0"/>
  </filter>
  <mask id="mask0">
   <g filter="url(#alpha)">
    <rect width="384" height="384" x="0" y="0" style="fill:rgb(0%,0%,0%);fill-opacity:0.301961"/>
   </g>
  </mask>
  <clipPath id="clip1">
   <rect width="384" height="384" x="0" y="0"/>
  </clipPath>
  <g id="surface5" clip-path="url(#clip1)">
   <path style="fill:rgb(83.137255%,10.196078%,10.196078%)" d="M 202.671875 125.675781 C 202.488281 125.675781 180.925781 129.449219 154.753906 134.0625 C 128.585938 138.675781 106.8125 142.535156 106.371094 142.636719 L 105.566406 142.820312 L 105.566406 268.109375 L 106.191406 268.351562 C 106.535156 268.484375 128.257812 272.394531 154.464844 277.035156 C 180.671875 281.679688 202.273438 285.449219 202.46875 285.410156 L 202.828125 285.339844 L 202.917969 205.507812 L 203.007812 125.679688 Z M 222.992188 148.523438 C 218.773438 148.523438 213.753906 148.625 211.839844 148.753906 L 208.359375 148.984375 L 208.359375 177.734375 L 210.410156 177.960938 C 211.539062 178.082031 212.785156 178.234375 213.175781 178.292969 C 213.570312 178.355469 217.101562 178.425781 221.027344 178.453125 L 228.167969 178.5 L 233.878906 178.140625 C 237.019531 177.941406 240.953125 177.609375 242.625 177.398438 C 244.292969 177.191406 247.585938 176.703125 249.941406 176.3125 C 252.296875 175.925781 256.078125 175.144531 258.34375 174.578125 C 260.609375 174.015625 263.5 173.164062 264.769531 172.683594 C 266.035156 172.207031 268.171875 171.28125 269.511719 170.625 L 271.953125 169.433594 L 273.539062 168.035156 L 275.125 166.640625 L 276.171875 164.617188 L 276.171875 161.832031 L 275.136719 160.402344 L 274.101562 158.96875 L 271.835938 157.488281 L 269.570312 156.003906 L 266.828125 154.945312 C 265.320312 154.359375 262.429688 153.410156 260.402344 152.828125 C 258.378906 152.25 255.035156 151.453125 252.972656 151.0625 C 250.914062 150.671875 247.296875 150.101562 244.941406 149.800781 C 242.585938 149.5 238.410156 149.089844 235.664062 148.890625 L 230.667969 148.523438 Z M 276.984375 168.507812 C 276.9375 168.507812 275.875 169.53125 274.625 170.785156 L 272.347656 173.0625 L 268.699219 174.886719 L 265.046875 176.714844 L 261.0625 177.957031 C 258.871094 178.636719 255.472656 179.515625 253.507812 179.90625 C 251.546875 180.296875 248.171875 180.785156 246.011719 180.988281 L 242.085938 181.363281 L 230.132812 181.726562 C 223.554688 181.925781 216.007812 182.125 213.355469 182.167969 L 208.535156 182.25 L 208.441406 192.953125 C 208.390625 198.839844 208.429688 203.867188 208.527344 204.125 L 208.707031 204.597656 L 214.332031 204.386719 C 217.425781 204.273438 224.835938 204.019531 230.800781 203.824219 C 236.765625 203.628906 243.269531 203.304688 245.253906 203.105469 C 247.242188 202.90625 250.074219 202.519531 251.546875 202.242188 C 253.019531 201.96875 255.339844 201.480469 256.707031 201.160156 C 258.070312 200.84375 260.71875 200.09375 262.59375 199.496094 L 266 198.414062 L 269.332031 196.828125 L 272.660156 195.238281 L 274.558594 193.382812 L 276.460938 191.527344 L 276.679688 185.640625 C 276.800781 182.402344 276.9375 177.222656 276.984375 174.128906 C 277.027344 171.035156 277.027344 168.507812 276.984375 168.507812 Z M 149.894531 178.09375 L 155.375 178.207031 L 160.855469 178.324219 L 161.253906 178.722656 L 161.652344 179.125 L 165.859375 194.425781 C 168.175781 202.84375 171.558594 215.058594 173.378906 221.570312 L 176.691406 233.410156 L 176.476562 233.972656 L 176.257812 234.539062 L 172.054688 234.515625 L 167.847656 234.492188 L 166.230469 233.84375 L 165.855469 232.851562 C 165.648438 232.304688 165.019531 230.175781 164.464844 228.113281 C 163.90625 226.050781 163.269531 223.679688 163.046875 222.839844 L 162.640625 221.316406 L 155.078125 221.414062 L 147.511719 221.507812 L 146.714844 225.078125 C 146.273438 227.042969 145.746094 229.546875 145.535156 230.644531 L 145.15625 232.644531 L 140.097656 232.859375 C 137.316406 232.980469 134.972656 233.011719 134.890625 232.929688 C 134.808594 232.84375 134.902344 232.171875 135.097656 231.429688 C 135.296875 230.683594 137.738281 221.804688 140.523438 211.695312 C 143.308594 201.585938 146.386719 190.421875 147.363281 186.890625 C 148.339844 183.355469 149.308594 179.929688 149.519531 179.28125 Z M 154.890625 191.277344 L 154.277344 193.367188 C 153.941406 194.515625 152.808594 198.820312 151.761719 202.933594 L 149.855469 210.410156 L 150.238281 210.875 L 150.625 211.335938 L 160.175781 211.335938 L 160.183594 211.070312 C 160.1875 210.921875 159.117188 206.546875 157.804688 201.34375 C 156.492188 196.140625 155.300781 191.75 155.15625 191.582031 Z M 276.914062 194.917969 C 276.832031 194.917969 275.707031 195.941406 274.410156 197.191406 L 272.054688 199.46875 L 269.386719 200.8125 L 266.714844 202.160156 L 263.15625 203.363281 L 259.59375 204.5625 L 254.410156 205.625 L 249.226562 206.683594 L 244.675781 207.214844 C 242.175781 207.507812 237.199219 207.933594 233.621094 208.160156 L 227.117188 208.570312 L 218.140625 208.417969 L 209.167969 208.261719 L 208.945312 212.386719 C 208.820312 214.65625 208.699219 219.449219 208.671875 223.042969 L 208.625 229.570312 L 208.855469 229.800781 C 208.984375 229.925781 209.765625 230.140625 210.597656 230.277344 C 211.425781 230.410156 214.035156 230.539062 216.390625 230.5625 C 218.746094 230.585938 224.285156 230.441406 228.703125 230.246094 C 233.121094 230.050781 239.625 229.644531 243.160156 229.347656 L 249.582031 228.800781 L 253.6875 227.894531 C 255.945312 227.394531 259.15625 226.597656 260.824219 226.121094 C 262.496094 225.644531 265.347656 224.679688 267.164062 223.980469 L 270.46875 222.703125 L 272.515625 221.332031 C 273.644531 220.574219 275.019531 219.484375 275.574219 218.90625 L 276.578125 217.851562 L 276.820312 206.382812 C 276.957031 200.078125 276.996094 194.917969 276.914062 194.917969 Z M 276.96875 220.617188 C 276.917969 220.617188 275.824219 221.730469 274.542969 223.089844 L 272.210938 225.5625 L 269.105469 227.148438 L 266 228.738281 L 263.144531 229.65625 C 261.574219 230.164062 258.925781 230.894531 257.257812 231.28125 C 255.589844 231.671875 252.535156 232.25 250.476562 232.574219 C 248.414062 232.894531 244.398438 233.394531 241.554688 233.6875 L 236.378906 234.214844 L 222.367188 234.425781 L 208.359375 234.640625 L 208.359375 255.976562 L 208.871094 256.171875 C 209.148438 256.277344 211.117188 256.492188 213.242188 256.644531 C 215.367188 256.796875 219.109375 256.945312 221.566406 256.972656 L 226.027344 257.023438 L 233.164062 256.488281 C 237.089844 256.195312 242.773438 255.625 245.796875 255.226562 C 248.816406 254.828125 253.234375 254.089844 255.609375 253.589844 C 257.988281 253.089844 261.460938 252.191406 263.324219 251.597656 L 266.714844 250.511719 L 269.546875 249.089844 L 272.378906 247.671875 L 274.453125 245.59375 L 276.53125 243.515625 L 276.574219 241.792969 C 276.601562 240.84375 276.71875 235.695312 276.84375 230.34375 C 276.964844 224.996094 277.023438 220.617188 276.96875 220.617188 Z M 276.96875 220.617188"/>
  </g>
 </defs>
 <g>
  <path style="fill:rgb(83.137255%,10.196078%,10.196078%)" d="M 84.6875 24.011719 L 82.007812 24.71875 L 79.332031 25.421875 L 76.121094 26.996094 L 72.90625 28.566406 L 69.976562 30.914062 L 67.046875 33.257812 L 64.703125 36.1875 L 62.355469 39.121094 L 59.214844 45.542969 L 58.421875 48.222656 L 57.628906 50.898438 L 57.105469 71.242188 L 57.238281 157.082031 C 57.25 164.335938 57.25 168.859375 57.257812 176.398438 L 57.109375 175.820312 L 57.109375 178.316406 L 57.261719 177.734375 C 57.261719 179.554688 57.261719 180.566406 57.265625 182.390625 L 57.164062 180.460938 L 57.164062 190.097656 L 57.269531 188.042969 C 57.320312 225.082031 57.375 266.242188 57.375 282.753906 L 57.382812 321.609375 L 57.289062 261.003906 L 57.191406 199.378906 L 57.21875 265.226562 L 57.246094 327.5625 L 57.082031 327.152344 L 57.054688 327.835938 L 57.023438 328.523438 L 57.246094 328.300781 L 57.246094 331.078125 L 57.410156 331.726562 C 57.398438 331.746094 57.382812 331.765625 57.382812 331.792969 C 57.382812 331.851562 57.417969 331.898438 57.464844 331.929688 L 57.789062 333.222656 C 57.800781 333.277344 57.828125 333.367188 57.84375 333.429688 C 57.785156 333.457031 57.738281 333.507812 57.738281 333.578125 C 57.738281 333.675781 57.820312 333.753906 57.917969 333.753906 C 57.917969 333.753906 57.929688 333.742188 57.929688 333.742188 C 58.136719 334.527344 58.378906 335.386719 58.640625 336.257812 C 58.636719 336.257812 58.636719 336.253906 58.632812 336.253906 C 58.535156 336.253906 58.453125 336.335938 58.453125 336.433594 C 58.453125 336.53125 58.535156 336.609375 58.632812 336.609375 C 58.671875 336.609375 58.703125 336.59375 58.734375 336.570312 C 58.828125 336.882812 58.933594 337.246094 59.015625 337.503906 L 59.308594 338.414062 C 59.230469 338.433594 59.167969 338.492188 59.167969 338.574219 C 59.167969 338.671875 59.246094 338.753906 59.34375 338.753906 C 59.371094 338.753906 59.386719 338.734375 59.410156 338.726562 L 59.703125 339.644531 L 59.71875 338.40625 L 60.058594 340.714844 L 61.417969 343.125 L 62.773438 345.539062 L 64.921875 348.207031 L 67.066406 350.875 L 72.769531 355.4375 L 75.285156 356.734375 L 77.800781 358.027344 L 306.082031 358.027344 L 308.597656 356.734375 L 311.109375 355.4375 L 313.929688 353.183594 L 316.746094 350.929688 L 318.71875 348.5 C 319.804688 347.164062 321.117188 345.390625 321.632812 344.558594 L 322.574219 343.050781 L 322.574219 321.621094 C 322.574219 333.207031 322.636719 342.679688 322.714844 342.679688 C 322.773438 342.679688 323.207031 341.703125 323.714844 340.492188 C 323.746094 340.515625 323.78125 340.539062 323.820312 340.539062 C 323.917969 340.539062 324 340.457031 324 340.359375 C 324 340.269531 323.929688 340.203125 323.84375 340.1875 C 323.964844 339.898438 324.058594 339.695312 324.1875 339.378906 L 324.453125 338.71875 C 324.480469 338.734375 324.503906 338.753906 324.535156 338.753906 C 324.632812 338.753906 324.714844 338.671875 324.714844 338.574219 C 324.714844 338.492188 324.652344 338.433594 324.574219 338.414062 L 325.519531 336.074219 L 325.332031 317.761719 C 325.230469 307.6875 325.0625 299.363281 324.960938 299.265625 L 324.820312 299.121094 L 325.070312 299.003906 L 325.054688 224.917969 L 325.039062 150.835938 L 262.035156 87.480469 L 199.03125 24.128906 Z M 323.300781 299.847656 L 322.574219 300.222656 L 322.574219 300.195312 Z M 57.382812 322.597656 L 57.390625 322.636719 L 57.382812 322.632812 Z M 78.261719 358.054688 L 79.199219 358.453125 C 79.175781 358.484375 79.15625 358.519531 79.15625 358.5625 C 79.15625 358.660156 79.234375 358.738281 79.332031 358.738281 C 79.425781 358.738281 79.5 358.664062 79.507812 358.574219 C 79.917969 358.738281 80.578125 358.957031 81.332031 359.191406 C 81.316406 359.21875 81.296875 359.242188 81.296875 359.277344 C 81.296875 359.375 81.375 359.453125 81.476562 359.453125 C 81.566406 359.453125 81.640625 359.378906 81.648438 359.289062 C 81.992188 359.394531 82.332031 359.503906 82.660156 359.59375 L 84.914062 360.21875 L 85.945312 360.320312 C 85.945312 360.332031 85.933594 360.335938 85.933594 360.347656 C 85.933594 360.445312 86.015625 360.523438 86.113281 360.523438 C 86.210938 360.523438 86.285156 360.449219 86.289062 360.355469 L 87.835938 360.503906 L 89.679688 360.6875 L 89.328125 360.828125 L 90.695312 360.882812 L 90.585938 360.773438 L 90.753906 360.792969 L 193.90625 360.734375 L 293.746094 360.679688 L 293.542969 360.882812 L 294.496094 360.882812 L 294.292969 360.679688 L 297.054688 360.679688 L 297.742188 360.511719 C 297.75 360.515625 297.757812 360.523438 297.769531 360.523438 C 297.808594 360.523438 297.84375 360.503906 297.875 360.480469 L 299.6875 360.042969 C 301.136719 359.691406 303.066406 359.101562 303.972656 358.734375 L 304.375 358.570312 C 304.378906 358.664062 304.453125 358.738281 304.546875 358.738281 C 304.648438 358.738281 304.726562 358.660156 304.726562 358.5625 C 304.726562 358.515625 304.707031 358.480469 304.679688 358.445312 L 305.621094 358.066406 L 191.941406 358.058594 Z M 78.261719 358.054688"/>
  <use mask="url(#mask0)" xlink:href="#surface5"/>
  <path style="fill:rgb(100%,100%,100%)" d="M 202.671875 118.175781 C 202.488281 118.175781 180.925781 121.949219 154.753906 126.5625 C 128.585938 131.175781 106.8125 135.035156 106.371094 135.136719 L 105.566406 135.324219 L 105.566406 260.609375 L 106.191406 260.851562 C 106.535156 260.984375 128.257812 264.894531 154.464844 269.535156 C 180.671875 274.179688 202.273438 277.949219 202.46875 277.910156 L 202.828125 277.839844 L 202.917969 198.007812 L 203.007812 118.179688 Z M 222.992188 141.023438 C 218.773438 141.023438 213.753906 141.125 211.839844 141.253906 L 208.359375 141.484375 L 208.359375 170.234375 L 210.410156 170.460938 C 211.539062 170.582031 212.785156 170.734375 213.175781 170.792969 C 213.570312 170.855469 217.101562 170.925781 221.027344 170.953125 L 228.167969 171 L 233.878906 170.640625 C 237.019531 170.441406 240.953125 170.109375 242.625 169.898438 C 244.292969 169.691406 247.585938 169.203125 249.941406 168.816406 C 252.296875 168.425781 256.078125 167.644531 258.34375 167.082031 C 260.609375 166.515625 263.5 165.664062 264.765625 165.183594 C 266.035156 164.707031 268.171875 163.78125 269.511719 163.125 L 271.953125 161.933594 L 273.539062 160.535156 L 275.125 159.140625 L 276.171875 157.117188 L 276.171875 154.332031 L 274.101562 151.472656 L 269.570312 148.503906 L 266.828125 147.445312 C 265.320312 146.859375 262.429688 145.910156 260.402344 145.328125 C 258.378906 144.75 255.035156 143.953125 252.972656 143.5625 C 250.914062 143.171875 247.296875 142.601562 244.941406 142.300781 C 242.585938 142 238.410156 141.589844 235.664062 141.390625 L 230.667969 141.023438 Z M 276.984375 161.007812 C 276.9375 161.007812 275.875 162.03125 274.625 163.285156 L 272.347656 165.5625 L 268.699219 167.386719 L 265.046875 169.214844 L 261.0625 170.457031 C 258.871094 171.136719 255.472656 172.015625 253.507812 172.40625 C 251.546875 172.796875 248.171875 173.285156 246.011719 173.488281 L 242.085938 173.863281 L 230.132812 174.226562 C 223.554688 174.425781 216.007812 174.625 213.355469 174.667969 L 208.535156 174.75 L 208.441406 185.453125 C 208.390625 191.339844 208.429688 196.367188 208.527344 196.625 L 208.707031 197.097656 L 214.332031 196.886719 C 217.425781 196.773438 224.835938 196.519531 230.800781 196.324219 C 236.765625 196.128906 243.269531 195.804688 245.253906 195.605469 C 247.242188 195.40625 250.074219 195.019531 251.546875 194.742188 C 253.019531 194.46875 255.339844 193.980469 256.703125 193.660156 C 258.070312 193.34375 260.71875 192.59375 262.59375 191.996094 L 266 190.914062 L 269.332031 189.328125 L 272.660156 187.738281 L 274.558594 185.882812 L 276.460938 184.027344 L 276.679688 178.140625 C 276.800781 174.902344 276.9375 169.722656 276.984375 166.628906 C 277.027344 163.535156 277.027344 161.007812 276.984375 161.007812 Z M 276.914062 187.417969 C 276.832031 187.417969 275.707031 188.441406 274.410156 189.691406 L 272.054688 191.96875 L 269.386719 193.3125 L 266.714844 194.660156 L 263.15625 195.863281 L 259.59375 197.0625 L 254.410156 198.125 L 249.226562 199.183594 L 244.675781 199.714844 C 242.175781 200.007812 237.199219 200.433594 233.621094 200.660156 L 227.117188 201.070312 L 218.140625 200.917969 L 209.167969 200.761719 L 208.945312 204.886719 C 208.820312 207.15625 208.699219 211.949219 208.671875 215.542969 L 208.625 222.070312 L 208.855469 222.300781 C 208.984375 222.425781 209.765625 222.640625 210.597656 222.777344 C 211.425781 222.910156 214.035156 223.039062 216.390625 223.0625 C 218.746094 223.085938 224.285156 222.941406 228.703125 222.746094 C 233.121094 222.550781 239.625 222.144531 243.160156 221.847656 L 249.582031 221.300781 L 253.6875 220.394531 C 255.945312 219.894531 259.15625 219.097656 260.824219 218.621094 C 262.496094 218.144531 265.347656 217.179688 267.164062 216.480469 L 270.46875 215.203125 L 272.515625 213.832031 C 273.644531 213.074219 275.019531 211.984375 275.574219 211.40625 L 276.578125 210.351562 L 276.820312 198.886719 C 276.957031 192.578125 276.996094 187.417969 276.914062 187.417969 Z M 276.96875 213.117188 C 276.917969 213.117188 275.824219 214.230469 274.542969 215.589844 L 272.210938 218.0625 L 269.105469 219.648438 L 266 221.238281 L 263.144531 222.160156 C 261.574219 222.664062 258.925781 223.394531 257.257812 223.78125 C 255.589844 224.171875 252.535156 224.75 250.476562 225.074219 C 248.414062 225.394531 244.398438 225.894531 241.554688 226.1875 L 236.378906 226.714844 L 222.367188 226.925781 L 208.359375 227.140625 L 208.359375 248.476562 L 208.871094 248.671875 C 209.148438 248.777344 211.117188 248.992188 213.242188 249.144531 C 215.367188 249.296875 219.109375 249.445312 221.566406 249.472656 L 226.027344 249.523438 L 233.164062 248.988281 C 237.089844 248.695312 242.773438 248.125 245.796875 247.726562 C 248.816406 247.328125 253.234375 246.589844 255.609375 246.089844 C 257.988281 245.589844 261.460938 244.691406 263.324219 244.097656 L 266.714844 243.011719 L 269.546875 241.589844 L 272.378906 240.171875 L 274.453125 238.09375 L 276.53125 236.015625 L 276.574219 234.292969 C 276.601562 233.34375 276.71875 228.195312 276.84375 222.84375 C 276.964844 217.496094 277.023438 213.117188 276.96875 213.117188 Z M 276.96875 213.117188"/>
  <path style="fill:rgb(83.137255%,10.196078%,10.196078%)" d="M 325.335938 268.007812 L 325.207031 270.046875 L 325.207031 261.480469 L 325.335938 263.726562 C 325.40625 264.960938 325.40625 266.886719 325.335938 268.007812 Z M 291.777344 117.464844 C 291.71875 117.464844 290.796875 116.539062 289.722656 115.410156 L 287.773438 113.359375 L 289.824219 115.308594 C 290.953125 116.382812 291.878906 117.304688 291.878906 117.363281 C 291.878906 117.417969 291.832031 117.464844 291.777344 117.464844 Z M 323.464844 105.328125 C 323.367188 105.328125 323.285156 105.246094 323.285156 105.148438 C 323.285156 105.050781 323.367188 104.972656 323.464844 104.972656 C 323.5625 104.972656 323.644531 105.050781 323.644531 105.148438 C 323.644531 105.246094 323.5625 105.328125 323.464844 105.328125 Z M 326.320312 104.972656 C 326.222656 104.972656 326.140625 104.890625 326.140625 104.792969 C 326.140625 104.695312 326.222656 104.613281 326.320312 104.613281 C 326.417969 104.613281 326.5 104.695312 326.5 104.792969 C 326.5 104.890625 326.417969 104.972656 326.320312 104.972656 Z M 322.113281 104.613281 C 322.058594 104.613281 321.136719 103.691406 320.0625 102.5625 L 318.109375 100.511719 L 320.164062 102.460938 C 321.292969 103.535156 322.214844 104.457031 322.214844 104.511719 C 322.214844 104.570312 322.171875 104.613281 322.113281 104.613281 Z M 298.480469 80.699219 C 298.382812 80.699219 298.300781 80.621094 298.300781 80.523438 C 298.300781 80.425781 298.382812 80.34375 298.480469 80.34375 C 298.578125 80.34375 298.660156 80.425781 298.660156 80.523438 C 298.660156 80.621094 298.578125 80.699219 298.480469 80.699219 Z M 297.847656 79.988281 C 297.792969 79.988281 296.628906 78.824219 295.257812 77.398438 L 292.769531 74.8125 L 295.359375 77.300781 C 296.78125 78.667969 297.945312 79.832031 297.945312 79.886719 C 297.945312 79.941406 297.902344 79.988281 297.847656 79.988281 Z M 229.996094 55.359375 C 229.921875 55.359375 229.640625 55.078125 229.371094 54.734375 L 228.882812 54.109375 L 229.507812 54.601562 C 229.851562 54.871094 230.128906 55.152344 230.128906 55.226562 C 230.128906 55.300781 230.070312 55.359375 229.996094 55.359375 Z M 326.738281 54.527344 L 326.5 54.765625 L 326.5 53.8125 L 326.976562 54.289062 Z M 272.585938 54.289062 C 272.488281 54.289062 271.210938 53.085938 269.75 51.613281 C 268.285156 50.140625 267.171875 48.933594 267.269531 48.933594 C 267.367188 48.933594 268.644531 50.140625 270.105469 51.613281 C 271.566406 53.085938 272.683594 54.289062 272.585938 54.289062 Z M 228.25 53.574219 C 228.195312 53.574219 226.632812 52.007812 224.769531 50.09375 L 221.386719 46.613281 L 224.867188 50 C 226.78125 51.859375 228.347656 53.425781 228.347656 53.480469 C 228.347656 53.53125 228.304688 53.574219 228.25 53.574219 Z M 326.320312 51.789062 C 326.222656 51.789062 326.140625 51.710938 326.140625 51.613281 C 326.140625 51.515625 326.222656 51.433594 326.320312 51.433594 C 326.417969 51.433594 326.5 51.515625 326.5 51.613281 C 326.5 51.710938 326.417969 51.789062 326.320312 51.789062 Z M 325.964844 50.003906 C 325.867188 50.003906 325.785156 49.925781 325.785156 49.828125 C 325.785156 49.730469 325.867188 49.648438 325.964844 49.648438 C 326.0625 49.648438 326.140625 49.730469 326.140625 49.828125 C 326.140625 49.925781 326.0625 50.003906 325.964844 50.003906 Z M 325.605469 48.578125 C 325.507812 48.578125 325.429688 48.496094 325.429688 48.398438 C 325.429688 48.300781 325.507812 48.222656 325.605469 48.222656 C 325.703125 48.222656 325.785156 48.300781 325.785156 48.398438 C 325.785156 48.496094 325.703125 48.578125 325.605469 48.578125 Z M 325.25 47.507812 C 325.152344 47.507812 325.070312 47.425781 325.070312 47.328125 C 325.070312 47.230469 325.152344 47.152344 325.25 47.152344 C 325.347656 47.152344 325.429688 47.230469 325.429688 47.328125 C 325.429688 47.425781 325.347656 47.507812 325.25 47.507812 Z M 324.894531 46.4375 C 324.792969 46.4375 324.714844 46.355469 324.714844 46.257812 C 324.714844 46.160156 324.792969 46.078125 324.894531 46.078125 C 324.992188 46.078125 325.070312 46.160156 325.070312 46.257812 C 325.070312 46.355469 324.992188 46.4375 324.894531 46.4375 Z M 324.535156 45.367188 C 324.4375 45.367188 324.355469 45.285156 324.355469 45.1875 C 324.355469 45.089844 324.4375 45.007812 324.535156 45.007812 C 324.632812 45.007812 324.714844 45.089844 324.714844 45.1875 C 324.714844 45.285156 324.632812 45.367188 324.535156 45.367188 Z M 323.820312 43.582031 C 323.722656 43.582031 323.644531 43.5 323.644531 43.402344 C 323.644531 43.304688 323.722656 43.222656 323.820312 43.222656 C 323.921875 43.222656 324 43.304688 324 43.402344 C 324 43.5 323.921875 43.582031 323.820312 43.582031 Z M 323.464844 42.867188 C 323.367188 42.867188 323.285156 42.785156 323.285156 42.6875 C 323.285156 42.589844 323.367188 42.511719 323.464844 42.511719 C 323.5625 42.511719 323.644531 42.589844 323.644531 42.6875 C 323.644531 42.785156 323.5625 42.867188 323.464844 42.867188 Z M 323.109375 42.152344 C 323.011719 42.152344 322.929688 42.074219 322.929688 41.976562 C 322.929688 41.875 323.011719 41.796875 323.109375 41.796875 C 323.207031 41.796875 323.285156 41.875 323.285156 41.976562 C 323.285156 42.074219 323.207031 42.152344 323.109375 42.152344 Z M 322.75 41.441406 C 322.652344 41.441406 322.574219 41.359375 322.574219 41.261719 C 322.574219 41.164062 322.652344 41.082031 322.75 41.082031 C 322.847656 41.082031 322.929688 41.164062 322.929688 41.261719 C 322.929688 41.359375 322.847656 41.441406 322.75 41.441406 Z M 321.679688 39.65625 C 321.582031 39.65625 321.503906 39.574219 321.503906 39.476562 C 321.503906 39.378906 321.582031 39.296875 321.679688 39.296875 C 321.777344 39.296875 321.859375 39.378906 321.859375 39.476562 C 321.859375 39.574219 321.777344 39.65625 321.679688 39.65625 Z M 320.964844 38.585938 C 320.867188 38.585938 320.789062 38.503906 320.789062 38.40625 C 320.789062 38.308594 320.867188 38.226562 320.964844 38.226562 C 321.066406 38.226562 321.144531 38.308594 321.144531 38.40625 C 321.144531 38.503906 321.066406 38.585938 320.964844 38.585938 Z M 320.253906 37.511719 C 320.15625 37.511719 320.074219 37.433594 320.074219 37.335938 C 320.074219 37.238281 320.15625 37.15625 320.253906 37.15625 C 320.351562 37.15625 320.429688 37.238281 320.429688 37.335938 C 320.429688 37.433594 320.351562 37.511719 320.253906 37.511719 Z M 319.203125 36.085938 C 319.117188 36.085938 318.929688 35.902344 318.792969 35.675781 L 318.535156 35.261719 L 318.949219 35.515625 C 319.175781 35.65625 319.359375 35.84375 319.359375 35.929688 C 319.359375 36.015625 319.289062 36.085938 319.203125 36.085938 Z M 314.5625 31.445312 C 314.476562 31.445312 314.292969 31.261719 314.152344 31.035156 L 313.894531 30.621094 L 314.308594 30.875 C 314.535156 31.015625 314.71875 31.203125 314.71875 31.289062 C 314.71875 31.375 314.648438 31.445312 314.5625 31.445312 Z M 312.757812 30.019531 C 312.660156 30.019531 312.578125 29.9375 312.578125 29.839844 C 312.578125 29.742188 312.660156 29.660156 312.757812 29.660156 C 312.855469 29.660156 312.9375 29.742188 312.9375 29.839844 C 312.9375 29.9375 312.855469 30.019531 312.757812 30.019531 Z M 311.6875 29.304688 C 311.589844 29.304688 311.507812 29.222656 311.507812 29.125 C 311.507812 29.027344 311.589844 28.949219 311.6875 28.949219 C 311.785156 28.949219 311.863281 29.027344 311.863281 29.125 C 311.863281 29.222656 311.785156 29.304688 311.6875 29.304688 Z M 310.617188 28.589844 C 310.519531 28.589844 310.4375 28.511719 310.4375 28.414062 C 310.4375 28.3125 310.519531 28.234375 310.617188 28.234375 C 310.714844 28.234375 310.792969 28.3125 310.792969 28.414062 C 310.792969 28.511719 310.714844 28.589844 310.617188 28.589844 Z M 246.015625 27.519531 C 245.914062 27.519531 245.835938 27.441406 245.835938 27.339844 C 245.835938 27.242188 245.914062 27.164062 246.015625 27.164062 C 246.113281 27.164062 246.191406 27.242188 246.191406 27.339844 C 246.191406 27.441406 246.113281 27.519531 246.015625 27.519531 Z M 308.832031 27.519531 C 308.734375 27.519531 308.652344 27.441406 308.652344 27.339844 C 308.652344 27.242188 308.734375 27.164062 308.832031 27.164062 C 308.929688 27.164062 309.011719 27.242188 309.011719 27.339844 C 309.011719 27.441406 308.929688 27.519531 308.832031 27.519531 Z M 308.117188 27.164062 C 308.019531 27.164062 307.9375 27.082031 307.9375 26.984375 C 307.9375 26.886719 308.019531 26.804688 308.117188 26.804688 C 308.214844 26.804688 308.296875 26.886719 308.296875 26.984375 C 308.296875 27.082031 308.214844 27.164062 308.117188 27.164062 Z M 307.402344 26.804688 C 307.304688 26.804688 307.226562 26.726562 307.226562 26.628906 C 307.226562 26.53125 307.304688 26.449219 307.402344 26.449219 C 307.5 26.449219 307.582031 26.53125 307.582031 26.628906 C 307.582031 26.726562 307.5 26.804688 307.402344 26.804688 Z M 306.691406 26.449219 C 306.589844 26.449219 306.511719 26.367188 306.511719 26.269531 C 306.511719 26.171875 306.589844 26.09375 306.691406 26.09375 C 306.789062 26.09375 306.867188 26.171875 306.867188 26.269531 C 306.867188 26.367188 306.789062 26.449219 306.691406 26.449219 Z M 304.90625 25.734375 C 304.808594 25.734375 304.726562 25.65625 304.726562 25.558594 C 304.726562 25.457031 304.808594 25.378906 304.90625 25.378906 C 305.003906 25.378906 305.082031 25.457031 305.082031 25.558594 C 305.082031 25.65625 305.003906 25.734375 304.90625 25.734375 Z M 303.835938 25.378906 C 303.738281 25.378906 303.65625 25.296875 303.65625 25.199219 C 303.65625 25.101562 303.738281 25.019531 303.835938 25.019531 C 303.933594 25.019531 304.011719 25.101562 304.011719 25.199219 C 304.011719 25.296875 303.933594 25.378906 303.835938 25.378906 Z M 302.765625 25.019531 C 302.664062 25.019531 302.585938 24.941406 302.585938 24.84375 C 302.585938 24.746094 302.664062 24.664062 302.765625 24.664062 C 302.863281 24.664062 302.941406 24.746094 302.941406 24.84375 C 302.941406 24.941406 302.863281 25.019531 302.765625 25.019531 Z M 301.691406 24.664062 C 301.59375 24.664062 301.515625 24.585938 301.515625 24.484375 C 301.515625 24.386719 301.59375 24.308594 301.691406 24.308594 C 301.792969 24.308594 301.871094 24.386719 301.871094 24.484375 C 301.871094 24.585938 301.792969 24.664062 301.691406 24.664062 Z M 300.265625 24.308594 C 300.167969 24.308594 300.085938 24.226562 300.085938 24.128906 C 300.085938 24.03125 300.167969 23.949219 300.265625 23.949219 C 300.363281 23.949219 300.445312 24.03125 300.445312 24.128906 C 300.445312 24.226562 300.363281 24.308594 300.265625 24.308594 Z M 245.300781 23.949219 C 245.203125 23.949219 245.121094 23.871094 245.121094 23.773438 C 245.121094 23.675781 245.203125 23.59375 245.300781 23.59375 C 245.398438 23.59375 245.476562 23.675781 245.476562 23.773438 C 245.476562 23.871094 245.398438 23.949219 245.300781 23.949219 Z M 298.480469 23.949219 C 298.382812 23.949219 298.300781 23.871094 298.300781 23.773438 C 298.300781 23.675781 298.382812 23.59375 298.480469 23.59375 C 298.578125 23.59375 298.660156 23.675781 298.660156 23.773438 C 298.660156 23.871094 298.578125 23.949219 298.480469 23.949219 Z M 295.804688 23.59375 L 295.328125 23.59375 L 295.804688 23.117188 L 296.28125 23.59375 Z M 295.804688 23.59375"/>
  <path style="fill:rgb(83.137255%,10.196078%,10.196078%)" d="M 325.308594 309.011719 L 325.070312 309.246094 L 325.070312 308.296875 L 325.546875 308.773438 Z M 325.339844 298.332031 L 325.238281 307.878906 L 325.238281 269.6875 L 325.339844 279.238281 C 325.394531 284.488281 325.394531 293.082031 325.339844 298.332031 Z M 287.855469 113.539062 C 287.804688 113.539062 285.996094 111.730469 283.839844 109.523438 L 279.921875 105.507812 L 283.9375 109.425781 C 286.144531 111.582031 287.953125 113.390625 287.953125 113.441406 C 287.953125 113.496094 287.910156 113.539062 287.855469 113.539062 Z M 323.820312 105.328125 C 323.722656 105.328125 323.644531 105.246094 323.644531 105.148438 C 323.644531 105.050781 323.722656 104.972656 323.820312 104.972656 C 323.921875 104.972656 324 105.050781 324 105.148438 C 324 105.246094 323.921875 105.328125 323.820312 105.328125 Z M 325.25 105.328125 C 325.152344 105.328125 325.070312 105.246094 325.070312 105.148438 C 325.070312 105.050781 325.152344 104.972656 325.25 104.972656 C 325.347656 104.972656 325.429688 105.050781 325.429688 105.148438 C 325.429688 105.246094 325.347656 105.328125 325.25 105.328125 Z M 305.34375 87.480469 C 305.292969 87.480469 303.726562 85.917969 301.863281 84.003906 L 298.480469 80.523438 L 301.960938 83.90625 C 303.875 85.765625 305.441406 87.332031 305.441406 87.386719 C 305.441406 87.4375 305.398438 87.480469 305.34375 87.480469 Z M 298.125 80.34375 C 298.027344 80.34375 297.945312 80.261719 297.945312 80.164062 C 297.945312 80.066406 298.027344 79.988281 298.125 79.988281 C 298.222656 79.988281 298.300781 80.066406 298.300781 80.164062 C 298.300781 80.261719 298.222656 80.34375 298.125 80.34375 Z M 57.261719 72.582031 L 57.082031 73.027344 L 57.082031 71.242188 L 57.441406 72.132812 Z M 57.292969 67.207031 L 57.175781 70.886719 L 57.175781 56.609375 L 57.289062 60.070312 C 57.355469 61.972656 57.355469 65.183594 57.292969 67.207031 Z M 279.648438 61.425781 C 279.59375 61.425781 277.949219 59.78125 275.988281 57.769531 L 272.425781 54.109375 L 276.085938 57.671875 C 278.097656 59.632812 279.742188 61.277344 279.742188 61.332031 C 279.742188 61.382812 279.699219 61.425781 279.648438 61.425781 Z M 326.714844 55.621094 L 326.5 55.835938 L 326.554688 54.46875 L 326.742188 54.9375 L 326.929688 55.402344 Z M 326.320312 52.148438 C 326.222656 52.148438 326.140625 52.066406 326.140625 51.96875 C 326.140625 51.871094 326.222656 51.789062 326.320312 51.789062 C 326.417969 51.789062 326.5 51.871094 326.5 51.96875 C 326.5 52.066406 326.417969 52.148438 326.320312 52.148438 Z M 325.964844 50.363281 C 325.867188 50.363281 325.785156 50.28125 325.785156 50.183594 C 325.785156 50.085938 325.867188 50.003906 325.964844 50.003906 C 326.0625 50.003906 326.140625 50.085938 326.140625 50.183594 C 326.140625 50.28125 326.0625 50.363281 325.964844 50.363281 Z M 325.605469 48.933594 C 325.507812 48.933594 325.429688 48.855469 325.429688 48.757812 C 325.429688 48.660156 325.507812 48.578125 325.605469 48.578125 C 325.703125 48.578125 325.785156 48.660156 325.785156 48.757812 C 325.785156 48.855469 325.703125 48.933594 325.605469 48.933594 Z M 221.429688 46.792969 C 221.355469 46.792969 221.074219 46.511719 220.804688 46.167969 L 220.316406 45.542969 L 220.941406 46.035156 C 221.285156 46.304688 221.566406 46.585938 221.566406 46.660156 C 221.566406 46.734375 221.503906 46.792969 221.429688 46.792969 Z M 219.980469 45.367188 C 219.894531 45.367188 219.707031 45.179688 219.566406 44.953125 L 219.3125 44.542969 L 219.726562 44.796875 C 219.953125 44.9375 220.136719 45.121094 220.136719 45.207031 C 220.136719 45.296875 220.066406 45.367188 219.980469 45.367188 Z M 324.179688 44.652344 C 324.082031 44.652344 324 44.570312 324 44.472656 C 324 44.375 324.082031 44.296875 324.179688 44.296875 C 324.277344 44.296875 324.355469 44.375 324.355469 44.472656 C 324.355469 44.570312 324.277344 44.652344 324.179688 44.652344 Z M 218.550781 43.9375 C 218.464844 43.9375 218.28125 43.753906 218.140625 43.527344 L 217.886719 43.113281 L 218.296875 43.367188 C 218.523438 43.507812 218.710938 43.695312 218.710938 43.78125 C 218.710938 43.867188 218.636719 43.9375 218.550781 43.9375 Z M 322.039062 40.367188 C 321.9375 40.367188 321.859375 40.289062 321.859375 40.191406 C 321.859375 40.09375 321.9375 40.011719 322.039062 40.011719 C 322.136719 40.011719 322.214844 40.09375 322.214844 40.191406 C 322.214844 40.289062 322.136719 40.367188 322.039062 40.367188 Z M 319.894531 37.15625 C 319.796875 37.15625 319.71875 37.078125 319.71875 36.976562 C 319.71875 36.878906 319.796875 36.800781 319.894531 36.800781 C 319.992188 36.800781 320.074219 36.878906 320.074219 36.976562 C 320.074219 37.078125 319.992188 37.15625 319.894531 37.15625 Z M 318.46875 35.371094 C 318.371094 35.371094 318.289062 35.292969 318.289062 35.195312 C 318.289062 35.09375 318.371094 35.015625 318.46875 35.015625 C 318.566406 35.015625 318.648438 35.09375 318.648438 35.195312 C 318.648438 35.292969 318.566406 35.371094 318.46875 35.371094 Z M 253.59375 35.015625 C 253.539062 35.015625 251.8125 33.289062 249.753906 31.179688 L 246.015625 27.339844 L 249.851562 31.082031 C 251.960938 33.140625 253.6875 34.867188 253.6875 34.917969 C 253.6875 34.972656 253.644531 35.015625 253.59375 35.015625 Z M 314.898438 31.804688 C 314.800781 31.804688 314.71875 31.722656 314.71875 31.625 C 314.71875 31.527344 314.800781 31.445312 314.898438 31.445312 C 314.996094 31.445312 315.078125 31.527344 315.078125 31.625 C 315.078125 31.722656 314.996094 31.804688 314.898438 31.804688 Z M 313.113281 30.375 C 313.015625 30.375 312.9375 30.296875 312.9375 30.195312 C 312.9375 30.097656 313.015625 30.019531 313.113281 30.019531 C 313.210938 30.019531 313.292969 30.097656 313.292969 30.195312 C 313.292969 30.296875 313.210938 30.375 313.113281 30.375 Z M 309.902344 28.234375 C 309.804688 28.234375 309.722656 28.152344 309.722656 28.054688 C 309.722656 27.957031 309.804688 27.875 309.902344 27.875 C 310 27.875 310.082031 27.957031 310.082031 28.054688 C 310.082031 28.152344 310 28.234375 309.902344 28.234375 Z M 245.300781 26.09375 C 245.203125 26.09375 245.121094 26.011719 245.121094 25.914062 C 245.121094 25.816406 245.203125 25.734375 245.300781 25.734375 C 245.398438 25.734375 245.476562 25.816406 245.476562 25.914062 C 245.476562 26.011719 245.398438 26.09375 245.300781 26.09375 Z M 305.617188 26.09375 C 305.519531 26.09375 305.441406 26.011719 305.441406 25.914062 C 305.441406 25.816406 305.519531 25.734375 305.617188 25.734375 C 305.71875 25.734375 305.796875 25.816406 305.796875 25.914062 C 305.796875 26.011719 305.71875 26.09375 305.617188 26.09375 Z M 301.335938 24.664062 C 301.238281 24.664062 301.15625 24.585938 301.15625 24.484375 C 301.15625 24.386719 301.238281 24.308594 301.335938 24.308594 C 301.433594 24.308594 301.515625 24.386719 301.515625 24.484375 C 301.515625 24.585938 301.433594 24.664062 301.335938 24.664062 Z M 299.910156 24.308594 C 299.808594 24.308594 299.730469 24.226562 299.730469 24.128906 C 299.730469 24.03125 299.808594 23.949219 299.910156 23.949219 C 300.007812 23.949219 300.085938 24.03125 300.085938 24.128906 C 300.085938 24.226562 300.007812 24.308594 299.910156 24.308594 Z M 298.125 23.949219 C 298.027344 23.949219 297.945312 23.871094 297.945312 23.773438 C 297.945312 23.675781 298.027344 23.59375 298.125 23.59375 C 298.222656 23.59375 298.300781 23.675781 298.300781 23.773438 C 298.300781 23.871094 298.222656 23.949219 298.125 23.949219 Z M 294.882812 23.566406 L 294.199219 23.539062 L 294.667969 23.351562 L 295.132812 23.164062 L 295.351562 23.378906 L 295.566406 23.59375 Z M 294.882812 23.566406"/>
  <path style="fill:rgb(63.921569%,12.156863%,12.156863%)" d="M 324.394531 105.28125 C 324.277344 105.253906 323.832031 105.164062 323.40625 105.078125 L 322.628906 104.929688 L 284.15625 65.902344 L 245.679688 26.878906 L 245.367188 25.933594 L 245.050781 24.992188 L 245.503906 23.195312 L 297.410156 23.445312 L 300.980469 24.414062 L 304.546875 25.382812 L 307.761719 26.976562 L 310.972656 28.570312 L 313.917969 30.902344 L 316.859375 33.230469 L 319.191406 36.175781 L 321.519531 39.121094 L 323.117188 42.332031 L 324.710938 45.542969 L 326.648438 52.683594 L 326.773438 78.605469 L 326.898438 104.53125 L 325.753906 104.929688 C 325.121094 105.148438 324.511719 105.304688 324.394531 105.28125 Z M 324.394531 105.28125"/>
 </g>
</svg>
