<svg xmlns="http://www.w3.org/2000/svg" xmlns:xlink="http://www.w3.org/1999/xlink" width="512" height="512" version="1.1" viewBox="0 0 384 384"> <defs> <filter id="alpha" width="100%" height="100%" x="0%" y="0%" filterUnits="objectBoundingBox"> <feColorMatrix in="SourceGraphic" type="matrix" values="0 0 0 0 1 0 0 0 0 1 0 0 0 0 1 0 0 0 1 0"/> </filter> <mask id="mask0"> <g filter="url(#alpha)"> <rect width="384" height="384" x="0" y="0" style="fill:rgb(0%,0%,0%);fill-opacity:0.2"/> </g> </mask> <clipPath id="clip1"> <rect width="384" height="384" x="0" y="0"/> </clipPath> <g id="surface5" clip-path="url(#clip1)"> <path style="fill:rgb(0%,0%,0%)" d="M 96 308.257812 L 96 320.257812 C 96 328.980469 103.144531 336 112.007812 336 L 271.992188 336 C 280.859375 336 288 328.980469 288 320.257812 L 288 308.257812 C 288 316.980469 280.859375 324 271.992188 324 L 112.007812 324 C 103.144531 324 96 316.980469 96 308.257812 Z M 96 308.257812"/> </g> <mask id="mask1"> <g filter="url(#alpha)"> <rect width="384" height="384" x="0" y="0" style="fill:rgb(0%,0%,0%);fill-opacity:0.2"/> </g> </mask> <clipPath id="clip2"> <rect width="384" height="384" x="0" y="0"/> </clipPath> <g id="surface8" clip-path="url(#clip2)"> <path style="fill:rgb(0%,0%,0%)" d="M 36 273 L 36 285 C 36 293.304688 42.96875 300 51.609375 300 L 332.386719 300 C 341.027344 300 348 293.304688 348 285 L 348 273 C 348 281.304688 341.027344 288 332.386719 288 L 51.609375 288 C 42.964844 288 36 281.304688 36 273 Z M 36 273"/> </g> <mask id="mask2"> <g filter="url(#alpha)"> <rect width="384" height="384" x="0" y="0" style="fill:rgb(0%,0%,0%);fill-opacity:0.2"/> </g> </mask> <clipPath id="clip3"> <rect width="384" height="384" x="0" y="0"/> </clipPath> <g id="surface11" clip-path="url(#clip3)"> <path style="fill:rgb(100.000%,100.000%,100.000%)" d="M 51.609375 54 C 42.96875 54 36 60.691406 36 69 L 36 75 C 36 66.691406 42.96875 60 51.609375 60 L 332.390625 60 C 341.03125 60 348 66.691406 348 75 L 348 69 C 348 60.691406 341.03125 54 332.390625 54 Z M 51.609375 54"/> </g> <mask id="mask3"> <g filter="url(#alpha)"> <rect width="384" height="384" x="0" y="0" style="fill:rgb(0%,0%,0%);fill-opacity:0.2"/> </g> </mask> <clipPath id="clip4"> <rect width="384" height="384" x="0" y="0"/> </clipPath> <g id="surface14" clip-path="url(#clip4)"> <path style="fill:rgb(0%,0%,0%)" d="M 258 96 C 234.804688 96 216 114.804688 216 138 C 216 161.195312 234.804688 180 258 180 C 281.195312 180 300 161.195312 300 138 C 300 114.804688 281.195312 96 258 96 Z M 174 120 C 164.058594 120 156 128.058594 156 138 C 156 147.941406 164.058594 156 174 156 C 183.941406 156 192 147.941406 192 138 C 192 128.058594 183.941406 120 174 120 Z M 114 156 C 97.433594 156 84 169.429688 84 186 C 84 202.570312 97.433594 216 114 216 C 130.570312 216 144 202.570312 144 186 C 144 169.429688 130.570312 156 114 156 Z M 281.648438 209.648438 C 275.023438 209.648438 269.648438 215.019531 269.648438 221.648438 C 269.648438 228.277344 275.023438 233.648438 281.648438 233.648438 C 288.277344 233.648438 293.648438 228.277344 293.648438 221.648438 C 293.648438 215.019531 288.277344 209.648438 281.648438 209.648438 Z M 216 216 C 202.746094 216 192 226.746094 192 240 C 192 253.253906 202.746094 264 216 264 C 229.257812 264 240 253.253906 240 240 C 240 226.746094 229.257812 216 216 216 Z M 216 216"/> </g> <mask id="mask4"> <g filter="url(#alpha)"> <rect width="384" height="384" x="0" y="0" style="fill:rgb(0%,0%,0%);fill-opacity:0.2"/> </g> </mask> <clipPath id="clip5"> <rect width="384" height="384" x="0" y="0"/> </clipPath> <g id="surface17" clip-path="url(#clip5)"> <path style="fill:rgb(0%,0%,0%)" d="M 383.746094 275.089844 C 381.046875 326.011719 338.996094 365.9375 288 366 C 237.664062 366 195.875 327.117188 192.253906 276.910156 C 192.121094 278.605469 192.039062 280.300781 192 282 C 192 335.019531 234.980469 378 288 378 C 341.019531 378 384 335.019531 384 282 C 383.996094 279.691406 383.910156 277.386719 383.742188 275.085938 Z M 383.746094 275.089844"/> </g> </defs> <g> <use mask="url(#mask0)" xlink:href="#surface5"/> <path style="fill:rgb(70.196%,70.196%,70.196%)" d="M 288 314.242188 L 288 93.757812 C 288 85.054688 280.839844 78 272.003906 78 L 111.996094 78 C 103.160156 78 96 85.054688 96 93.757812 L 96 314.242188 C 96 322.945312 103.160156 330 111.996094 330 L 272.003906 330 C 280.839844 330 288 322.945312 288 314.242188 Z M 288 314.242188"/> <use mask="url(#mask1)" xlink:href="#surface8"/> <path style="fill:rgb(70.196%,70.196%,70.196%)" d="M 348 279 L 348 69 C 348 60.714844 341.015625 54 332.398438 54 L 51.601562 54 C 42.984375 54 36 60.714844 36 69 L 36 279 C 36 287.285156 42.984375 294 51.601562 294 L 332.398438 294 C 341.015625 294 348 287.285156 348 279 Z M 348 279"/> <use mask="url(#mask2)" xlink:href="#surface11"/> <path style="fill:rgb(23.137%,54.509%,72.156%)" d="M 324 270 L 324 78 L 60 78 L 60 270 Z M 324 270"/> <use mask="url(#mask3)" xlink:href="#surface14"/> <path style="fill:rgb(100.000%,100.000%,100.000%)" d="M 300 132 C 300 155.195312 281.195312 174 258 174 C 234.804688 174 216 155.195312 216 132 C 216 108.804688 234.804688 90 258 90 C 281.195312 90 300 108.804688 300 132 Z M 300 132"/> <path style="fill:rgb(90.196%,90.196%,90.196%)" d="M 144 180 C 144 196.570312 130.570312 210 114 210 C 97.429688 210 84 196.570312 84 180 C 84 163.429688 97.429688 150 114 150 C 130.570312 150 144 163.429688 144 180 Z M 144 180"/> <path style="fill:rgb(80.000%,80.000%,80.000%)" d="M 240 234 C 240 247.253906 229.253906 258 216 258 C 202.746094 258 192 247.253906 192 234 C 192 220.746094 202.746094 210 216 210 C 229.253906 210 240 220.746094 240 234 Z M 240 234"/> <path style="fill:rgb(90.196%,90.196%,90.196%)" d="M 192 132 C 192 141.941406 183.941406 150 174 150 C 164.058594 150 156 141.941406 156 132 C 156 122.058594 164.058594 114 174 114 C 183.941406 114 192 122.058594 192 132 Z M 192 132"/> <path style="fill:rgb(90.196%,90.196%,90.196%)" d="M 293.644531 215.644531 C 293.644531 222.273438 288.273438 227.644531 281.644531 227.644531 C 275.019531 227.644531 269.644531 222.273438 269.644531 215.644531 C 269.644531 209.019531 275.019531 203.644531 281.644531 203.644531 C 288.273438 203.644531 293.644531 209.019531 293.644531 215.644531 Z M 293.644531 215.644531"/> <use mask="url(#mask4)" xlink:href="#surface17"/> <path style="fill-rule:evenodd;fill:rgb(54.901%,25.882%,67.058%)" d="M 384 276 C 384 329.019531 341.019531 372 288 372 C 234.980469 372 192 329.019531 192 276 C 192 222.980469 234.980469 180 288 180 C 341.019531 180 384 222.980469 384 276 Z M 384 276"/> <path style="fill:rgb(100.000%,100.000%,100.000%)" d="M 276 228 L 274.941406 240.644531 C 270.933594 242.128906 267.207031 244.285156 263.917969 247.019531 L 252.429688 241.609375 L 240.429688 262.394531 L 250.859375 269.636719 C 250.488281 271.738281 250.296875 273.867188 250.285156 276 C 250.285156 278.140625 250.46875 280.277344 250.832031 282.386719 L 240.425781 289.605469 L 252.425781 310.390625 L 263.890625 304.996094 C 267.1875 307.71875 270.925781 309.859375 274.941406 311.328125 L 276 324 L 300 324 L 301.058594 311.355469 C 305.066406 309.871094 308.792969 307.714844 312.078125 304.980469 L 323.570312 310.390625 L 335.570312 289.605469 L 325.136719 282.359375 C 325.507812 280.261719 325.703125 278.132812 325.714844 276 C 325.710938 273.859375 325.527344 271.722656 325.164062 269.609375 L 335.570312 262.390625 L 323.570312 241.605469 L 312.105469 247.003906 C 308.808594 244.28125 305.070312 242.136719 301.054688 240.667969 L 300 227.996094 L 276 227.996094 Z M 288 262.285156 C 295.574219 262.285156 301.714844 268.425781 301.714844 276.003906 C 301.714844 283.578125 295.574219 289.71875 288 289.71875 C 280.425781 289.71875 274.285156 283.578125 274.285156 276.003906 C 274.285156 268.425781 280.425781 262.285156 288 262.285156 Z M 288 262.285156"/> </g> </svg>
