<svg xmlns="http://www.w3.org/2000/svg" xmlns:xlink="http://www.w3.org/1999/xlink" width="384pt" height="384pt" version="1.1" viewBox="0 0 384 384">
 <defs>
  <filter id="alpha" width="100%" height="100%" x="0%" y="0%" filterUnits="objectBoundingBox">
   <feColorMatrix in="SourceGraphic" type="matrix" values="0 0 0 0 1 0 0 0 0 1 0 0 0 0 1 0 0 0 1 0"/>
  </filter>
  <mask id="mask0">
   <g filter="url(#alpha)">
    <rect width="384" height="384" x="0" y="0" style="fill:rgb(0%,0%,0%);fill-opacity:0.2"/>
   </g>
  </mask>
  <clipPath id="clip1">
   <rect width="384" height="384" x="0" y="0"/>
  </clipPath>
  <g id="surface5" clip-path="url(#clip1)">
   <path style="fill:rgb(0%,0%,0%)" d="M 24 337.199219 L 24 349.199219 C 24 358.5 31.496094 366 40.804688 366 L 343.199219 366 C 352.5 366 360 358.5 360 349.199219 L 360 337.199219 C 360 346.5 352.5 354 343.199219 354 L 40.804688 354 C 31.503906 354 24.003906 346.5 24.003906 337.199219 Z M 24 337.199219"/>
  </g>
  <mask id="mask1">
   <g filter="url(#alpha)">
    <rect width="384" height="384" x="0" y="0" style="fill:rgb(0%,0%,0%);fill-opacity:0.2"/>
   </g>
  </mask>
  <clipPath id="clip2">
   <rect width="384" height="384" x="0" y="0"/>
  </clipPath>
  <g id="surface8" clip-path="url(#clip2)">
   <path style="fill:rgb(100%,100%,100%)" d="M 40.804688 24 C 31.496094 24 24 31.496094 24 40.804688 L 24 46.816406 C 24 37.507812 31.496094 30.011719 40.804688 30.011719 L 343.195312 30.011719 C 352.496094 30.011719 360 37.507812 360 46.816406 L 360 40.804688 C 360 31.496094 352.496094 24 343.195312 24 Z M 40.804688 24"/>
  </g>
  <mask id="mask2">
   <g filter="url(#alpha)">
    <rect width="384" height="384" x="0" y="0" style="fill:rgb(0%,0%,0%);fill-opacity:0.2"/>
   </g>
  </mask>
  <clipPath id="clip3">
   <rect width="384" height="384" x="0" y="0"/>
  </clipPath>
  <g id="surface11" clip-path="url(#clip3)">
   <path style="fill:rgb(0%,0%,0%)" d="M 191.996094 102.003906 C 172.117188 102.003906 156 118.121094 156 138.003906 C 156 140.777344 156.527344 143.28125 157.125 145.878906 L 118.5 169.878906 C 112.34375 164.945312 104.507812 162.003906 96 162.003906 C 76.117188 162.003906 60 178.125 60 198.003906 C 60 217.886719 76.117188 234.003906 96 234.003906 C 104.507812 234.003906 112.335938 231.066406 118.5 226.128906 L 157.125 250.128906 C 156.523438 252.722656 155.996094 255.230469 155.996094 258 C 155.996094 277.882812 172.113281 294 191.996094 294 C 211.875 294 227.996094 277.882812 227.996094 258 C 227.996094 238.121094 211.875 222 191.996094 222 C 183.484375 222 175.65625 224.941406 169.496094 229.875 L 130.871094 205.878906 C 131.46875 203.285156 131.996094 200.777344 131.996094 198.003906 C 131.996094 195.234375 131.46875 192.726562 130.871094 190.132812 L 169.496094 166.132812 C 175.652344 171.066406 183.488281 174.003906 191.996094 174.003906 C 211.875 174.003906 227.996094 157.886719 227.996094 138.007812 C 227.996094 118.125 211.875 102.007812 191.996094 102.007812 Z M 275.996094 102.003906 C 256.113281 102.003906 239.996094 118.121094 239.996094 138.003906 C 239.996094 157.886719 256.113281 174.003906 275.996094 174.003906 C 295.878906 174.003906 311.996094 157.886719 311.996094 138.003906 C 311.996094 118.121094 295.878906 102.003906 275.996094 102.003906 Z M 275.996094 222 C 256.113281 222 239.996094 238.121094 239.996094 258 C 239.996094 277.882812 256.113281 294 275.996094 294 C 295.878906 294 311.996094 277.882812 311.996094 258 C 311.996094 238.121094 295.878906 222 275.996094 222 Z M 275.996094 222"/>
  </g>
  <clipPath id="clip4">
   <rect width="384" height="384" x="0" y="0"/>
  </clipPath>
  <g id="surface14" clip-path="url(#clip4)">
   <path style="fill:rgb(100%,100%,100%)" d="M 191.996094 96.003906 C 172.117188 96.003906 156 112.121094 156 132.003906 C 156 134.777344 156.527344 137.285156 157.125 139.878906 L 118.5 163.878906 C 112.34375 158.945312 104.507812 156.007812 96 156.007812 C 76.117188 156.007812 60 172.125 60 192.003906 C 60 211.886719 76.117188 228.003906 96 228.003906 C 104.507812 228.003906 112.335938 225.066406 118.5 220.128906 L 157.125 244.128906 C 156.523438 246.722656 155.996094 249.230469 155.996094 252.003906 C 155.996094 271.882812 172.113281 288 191.996094 288 C 211.875 288 227.996094 271.882812 227.996094 252.003906 C 227.996094 232.121094 211.875 216.003906 191.996094 216.003906 C 183.484375 216.003906 175.65625 218.941406 169.496094 223.878906 L 130.871094 199.878906 C 131.46875 197.285156 131.996094 194.777344 131.996094 192.003906 C 131.996094 189.234375 131.46875 186.726562 130.871094 184.132812 L 169.496094 160.132812 C 175.652344 165.066406 183.488281 168.007812 191.996094 168.007812 C 211.875 168.007812 227.996094 151.886719 227.996094 132.007812 C 227.996094 112.125 211.875 96.007812 191.996094 96.007812 Z M 275.996094 96.003906 C 256.113281 96.003906 239.996094 112.121094 239.996094 132.003906 C 239.996094 151.886719 256.113281 168.003906 275.996094 168.003906 C 295.878906 168.003906 311.996094 151.886719 311.996094 132.003906 C 311.996094 112.121094 295.878906 96.003906 275.996094 96.003906 Z M 275.996094 216.003906 C 256.113281 216.003906 239.996094 232.121094 239.996094 252.003906 C 239.996094 271.882812 256.113281 288 275.996094 288 C 295.878906 288 311.996094 271.882812 311.996094 252.003906 C 311.996094 232.121094 295.878906 216.003906 275.996094 216.003906 Z M 275.996094 216.003906"/>
  </g>
 </defs>
 <g>
  <use mask="url(#mask0)" xlink:href="#surface5"/>
  <path style="fill:rgb(99.215686%,49.411765%,0%)" d="M 360 343.199219 L 360 40.804688 C 360 31.527344 352.476562 24.007812 343.199219 24.007812 L 40.804688 24.007812 C 31.527344 24.007812 24.007812 31.527344 24.007812 40.804688 L 24.007812 343.199219 C 24.007812 352.476562 31.527344 360 40.804688 360 L 343.199219 360 C 352.476562 360 360 352.476562 360 343.199219 Z M 360 343.199219"/>
  <use mask="url(#mask1)" xlink:href="#surface8"/>
  <use mask="url(#mask2)" xlink:href="#surface11"/>
  <use xlink:href="#surface14"/>
 </g>
</svg>
