<svg xmlns="http://www.w3.org/2000/svg" xmlns:xlink="http://www.w3.org/1999/xlink" width="384pt" height="384pt" version="1.1" viewBox="0 0 384 384">
 <defs>
  <filter id="alpha" width="100%" height="100%" x="0%" y="0%" filterUnits="objectBoundingBox">
   <feColorMatrix in="SourceGraphic" type="matrix" values="0 0 0 0 1 0 0 0 0 1 0 0 0 0 1 0 0 0 1 0"/>
  </filter>
  <mask id="mask0">
   <g filter="url(#alpha)">
    <rect width="384" height="384" x="0" y="0" style="fill:rgb(0%,0%,0%);fill-opacity:0.2"/>
   </g>
  </mask>
  <clipPath id="clip1">
   <rect width="384" height="384" x="0" y="0"/>
  </clipPath>
  <g id="surface5" clip-path="url(#clip1)">
   <path style="fill:rgb(0%,0%,0%)" d="M 24.304688 192.003906 C 24.234375 194.007812 24 195.972656 24 198.003906 C 24 291.074219 98.925781 366 191.996094 366 C 285.066406 366 359.996094 291.074219 359.996094 198.003906 C 359.996094 195.976562 359.761719 194.011719 359.691406 192.003906 C 356.523438 282.253906 283.035156 354 191.992188 354 C 100.949219 354 27.464844 282.253906 24.296875 192.003906 Z M 24.304688 192.003906"/>
  </g>
  <mask id="mask1">
   <g filter="url(#alpha)">
    <rect width="384" height="384" x="0" y="0" style="fill:rgb(0%,0%,0%);fill-opacity:0.2"/>
   </g>
  </mask>
  <clipPath id="clip2">
   <rect width="384" height="384" x="0" y="0"/>
  </clipPath>
  <g id="surface8" clip-path="url(#clip2)">
   <path style="fill:rgb(0%,0%,0%)" d="M 191.996094 78.003906 C 125.722656 78.003906 72 131.730469 72 198.003906 C 72 264.277344 125.722656 318 191.996094 318 C 258.269531 318 311.996094 264.277344 311.996094 198.003906 C 311.996094 131.730469 258.269531 78.003906 191.996094 78.003906 Z M 191.996094 114.003906 C 205.292969 114.003906 215.996094 123.644531 215.996094 135.613281 L 215.996094 236.390625 C 215.996094 248.355469 205.292969 258.003906 191.996094 258.003906 C 178.703125 258.003906 167.996094 248.355469 167.996094 236.390625 L 167.996094 135.613281 C 167.996094 123.648438 178.703125 114 191.996094 114 Z M 120 162.003906 C 133.292969 162.003906 144 172.707031 144 186.003906 L 144 234 C 144 247.296875 133.292969 258 120 258 C 106.703125 258 96 247.296875 96 234 L 96 186.003906 C 96 172.707031 106.703125 162.003906 120 162.003906 Z M 263.996094 162.003906 C 277.292969 162.003906 287.996094 172.707031 287.996094 186.003906 L 287.996094 234 C 287.996094 247.296875 277.292969 258 263.996094 258 C 250.699219 258 239.996094 247.296875 239.996094 234 L 239.996094 186.003906 C 239.996094 172.707031 250.699219 162.003906 263.996094 162.003906 Z M 263.996094 162.003906"/>
  </g>
  <mask id="mask2">
   <g filter="url(#alpha)">
    <rect width="384" height="384" x="0" y="0" style="fill:rgb(0%,0%,0%);fill-opacity:0.2"/>
   </g>
  </mask>
  <clipPath id="clip3">
   <rect width="384" height="384" x="0" y="0"/>
  </clipPath>
  <g id="surface11" clip-path="url(#clip3)">
   <path style="fill:rgb(100%,100%,100%)" d="M 192 24 C 98.929688 24 24 98.929688 24 192 C 24 192.679688 24.066406 193.34375 24.105469 194.015625 C 26.214844 102.804688 100.265625 30 192 30 C 283.734375 30 357.785156 102.804688 359.894531 194.015625 C 359.933594 193.34375 360 192.679688 360 192 C 360 98.929688 285.070312 24 192 24 Z M 192 24"/>
  </g>
 </defs>
 <g>
  <use mask="url(#mask0)" xlink:href="#surface5"/>
  <path style="fill:rgb(16.078431%,50.196078%,72.54902%)" d="M 360 192.003906 C 360 99.222656 284.785156 24.007812 192.003906 24.007812 C 99.222656 24.007812 24.007812 99.222656 24.007812 192.003906 C 24.007812 284.785156 99.222656 360 192.003906 360 C 284.785156 360 360 284.785156 360 192.003906 Z M 360 192.003906"/>
  <use mask="url(#mask1)" xlink:href="#surface8"/>
  <path style="fill:rgb(100%,100%,100%)" d="M 191.996094 72.003906 C 125.722656 72.003906 72 125.730469 72 192.003906 C 72 258.277344 125.722656 312 191.996094 312 C 258.269531 312 311.996094 258.277344 311.996094 192.003906 C 311.996094 125.730469 258.269531 72.003906 191.996094 72.003906 Z M 191.996094 108.003906 C 205.292969 108.003906 215.996094 117.648438 215.996094 129.617188 L 215.996094 230.390625 C 215.996094 242.355469 205.292969 252 191.996094 252 C 178.703125 252 167.996094 242.355469 167.996094 230.390625 L 167.996094 129.617188 C 167.996094 117.648438 178.703125 108.003906 191.996094 108.003906 Z M 120 156.003906 C 133.292969 156.003906 144 166.707031 144 180.003906 L 144 228.003906 C 144 241.296875 133.292969 252 120 252 C 106.703125 252 96 241.296875 96 228.003906 L 96 180.003906 C 96 166.707031 106.703125 156.003906 120 156.003906 Z M 263.996094 156.003906 C 277.292969 156.003906 287.996094 166.707031 287.996094 180.003906 L 287.996094 228.003906 C 287.996094 241.296875 277.292969 252 263.996094 252 C 250.699219 252 239.996094 241.296875 239.996094 228.003906 L 239.996094 180.003906 C 239.996094 166.707031 250.699219 156.003906 263.996094 156.003906 Z M 263.996094 156.003906"/>
  <use mask="url(#mask2)" xlink:href="#surface11"/>
 </g>
</svg>
