<svg xmlns="http://www.w3.org/2000/svg" xmlns:xlink="http://www.w3.org/1999/xlink" width="384pt" height="384pt" version="1.1" viewBox="0 0 384 384"> <defs> <filter id="alpha" width="100%" height="100%" x="0%" y="0%" filterUnits="objectBoundingBox"> <feColorMatrix in="SourceGraphic" type="matrix" values="0 0 0 0 1 0 0 0 0 1 0 0 0 0 1 0 0 0 1 0"/> </filter> <mask id="mask0"> <g filter="url(#alpha)"> <rect width="384" height="384" x="0" y="0" style="fill:rgb(0%,0%,0%);fill-opacity:0.301961"/> </g> </mask> <clipPath id="clip1"> <rect width="384" height="384" x="0" y="0"/> </clipPath> <g id="surface5" clip-path="url(#clip1)"> <path style="fill:rgb(0%,0%,0%)" d="M 269.953125 267.707031 C 273.613281 267.707031 276.742188 267.171875 279.335938 266.09375 C 281.929688 264.933594 284.066406 263.363281 285.746094 261.359375 C 287.5 259.363281 288.871094 256.976562 289.863281 254.207031 C 290.855469 251.433594 291.542969 248.433594 291.921875 245.199219 L 292.953125 238.160156 L 305.082031 238.160156 L 303.9375 289.410156 L 178.519531 289.410156 L 178.519531 281.789062 L 227.269531 206.652344 L 183.671875 127.46875 L 183.671875 120.660156 L 293.640625 120.660156 L 294.785156 161.980469 L 282.539062 161.980469 L 281.394531 151.824219 C 281.089844 149.207031 280.519531 146.746094 279.679688 144.4375 C 278.839844 142.128906 277.582031 140.125 275.902344 138.433594 C 274.300781 136.671875 272.242188 135.28125 269.722656 134.28125 C 267.28125 133.1875 264.308594 132.667969 260.796875 132.667969 L 212.050781 132.667969 L 246.722656 195.574219 L 246.722656 199.152344 L 202.207031 267.714844 L 269.953125 267.714844"/> </g> <mask id="mask1"> <g filter="url(#alpha)"> <rect width="384" height="384" x="0" y="0" style="fill:rgb(0%,0%,0%);fill-opacity:0.301961"/> </g> </mask> <clipPath id="clip2"> <rect width="384" height="384" x="0" y="0"/> </clipPath> <g id="surface8" clip-path="url(#clip2)"> <path style="fill:rgb(0%,0%,0%)" d="M 84.65625 235.558594 C 84.65625 240.035156 85.308594 243.652344 86.621094 246.40625 C 87.929688 249.09375 89.898438 251.332031 92.519531 253.121094 C 95.140625 254.84375 98.417969 256.289062 102.347656 257.460938 C 106.28125 258.5625 110.902344 259.734375 116.214844 260.972656 C 121.316406 262.144531 125.664062 263.484375 129.25 265 C 132.90625 266.515625 135.871094 268.304688 138.148438 270.371094 C 140.425781 272.4375 142.082031 274.8125 143.113281 277.5 C 144.21875 280.1875 144.769531 283.285156 144.769531 286.796875 C 144.769531 290.515625 143.976562 294.234375 142.390625 297.953125 C 140.804688 301.671875 138.285156 305.148438 134.835938 308.386719 C 131.386719 311.691406 126.972656 314.617188 121.59375 317.167969 C 116.214844 319.785156 109.761719 321.78125 102.246094 323.160156 L 102.246094 311.898438 C 105.210938 311.070312 107.660156 310.109375 109.589844 309.007812 C 111.589844 307.902344 113.179688 306.664062 114.351562 305.289062 C 115.523438 303.976562 116.351562 302.53125 116.832031 300.949219 C 117.386719 299.433594 117.660156 297.816406 117.660156 296.09375 C 117.660156 293.960938 117.316406 292.132812 116.625 290.621094 C 116.007812 289.171875 114.902344 287.898438 113.316406 286.796875 C 111.730469 285.761719 109.625 284.832031 107.003906 284.007812 C 104.453125 283.25 101.246094 282.457031 97.382812 281.632812 C 89.242188 279.980469 82.308594 278.015625 76.585938 275.742188 C 70.859375 273.472656 66.167969 270.683594 62.511719 267.375 C 58.855469 264.070312 56.164062 260.179688 54.441406 255.703125 C 52.785156 251.226562 51.957031 245.992188 51.957031 240 C 51.957031 234.425781 52.992188 229.15625 55.0625 224.195312 C 57.132812 219.238281 60.027344 214.65625 63.753906 210.457031 C 67.546875 206.1875 72.101562 202.332031 77.410156 198.886719 C 82.722656 195.445312 88.65625 192.449219 95.207031 189.902344 L 95.207031 188.5625 C 89.828125 187.941406 84.929688 186.910156 80.515625 185.460938 C 76.171875 184.015625 72.445312 182.226562 69.339844 180.089844 C 66.304688 177.957031 63.960938 175.578125 62.304688 172.960938 C 60.648438 170.277344 59.820312 167.382812 59.820312 164.285156 C 59.820312 161.804688 60.441406 159.292969 61.683594 156.742188 C 62.996094 154.195312 64.859375 151.714844 67.273438 149.308594 C 69.6875 146.828125 72.617188 144.453125 76.066406 142.179688 C 79.585938 139.90625 83.550781 137.804688 87.964844 135.878906 C 81.828125 134.839844 75.929688 133.191406 70.273438 130.917969 C 64.683594 128.578125 59.855469 125.855469 55.785156 122.757812 L 63.648438 112.222656 C 65.652344 113.601562 68.132812 115.011719 71.101562 116.457031 C 74.136719 117.902344 77.378906 119.28125 80.828125 120.589844 C 84.34375 121.832031 87.929688 122.964844 91.585938 123.996094 C 95.3125 124.964844 98.863281 125.6875 102.246094 126.167969 C 103.691406 125.269531 105.382812 124.34375 107.316406 123.378906 C 109.316406 122.34375 111.488281 121.414062 113.832031 120.589844 C 116.179688 119.761719 118.628906 119.074219 121.179688 118.523438 C 123.800781 117.96875 126.457031 117.695312 129.148438 117.695312 C 131.699219 117.695312 133.835938 117.929688 135.5625 118.410156 C 137.285156 118.824219 138.664062 119.40625 139.699219 120.167969 C 140.734375 120.925781 141.460938 121.820312 141.875 122.855469 C 142.289062 123.890625 142.496094 124.988281 142.496094 126.160156 C 142.496094 130.496094 140.183594 133.90625 135.5625 136.386719 C 130.941406 138.863281 123.558594 140.105469 113.417969 140.105469 C 111.832031 140.105469 110.175781 140.105469 108.453125 139.964844 C 106.796875 139.964844 105.003906 139.800781 103.074219 139.660156 C 101.140625 141.109375 99.347656 142.691406 97.691406 144.414062 C 96.035156 146.066406 94.585938 147.890625 93.347656 149.890625 C 92.171875 151.816406 91.242188 153.917969 90.550781 156.191406 C 89.863281 158.394531 89.519531 160.804688 89.519531 163.421875 C 89.519531 165.761719 90 167.863281 90.964844 169.722656 C 91.933594 171.582031 93.207031 173.269531 94.792969 174.785156 C 96.382812 176.230469 98.210938 177.503906 100.277344 178.605469 C 102.347656 179.644531 104.488281 180.5 106.695312 181.1875 C 107.933594 180.566406 109.453125 179.945312 111.246094 179.328125 C 113.109375 178.640625 115.074219 178.058594 117.144531 177.574219 C 119.214844 177.019531 121.351562 176.605469 123.558594 176.332031 C 125.765625 175.984375 127.90625 175.820312 129.976562 175.820312 C 133.628906 175.820312 136.355469 176.578125 138.148438 178.089844 C 140.011719 179.605469 140.941406 181.535156 140.941406 183.875 C 140.941406 185.320312 140.632812 186.769531 140.011719 188.214844 C 139.460938 189.59375 138.527344 190.867188 137.21875 192.035156 C 135.90625 193.140625 134.183594 194.035156 132.042969 194.722656 C 129.972656 195.414062 127.457031 195.757812 124.492188 195.757812 C 122.835938 195.757812 121.144531 195.757812 119.421875 195.621094 C 117.695312 195.480469 116.039062 195.371094 114.453125 195.300781 C 112.9375 195.164062 111.558594 195.027344 110.316406 194.886719 C 109.144531 194.75 108.210938 194.613281 107.523438 194.472656 C 104.625 195.714844 101.796875 197.675781 99.039062 200.363281 C 96.277344 202.976562 93.828125 206.148438 91.691406 209.867188 C 89.550781 213.515625 87.828125 217.542969 86.515625 221.953125 C 85.277344 226.359375 84.65625 230.871094 84.65625 235.484375"/> </g> <mask id="mask2"> <g filter="url(#alpha)"> <rect width="384" height="384" x="0" y="0" style="fill:rgb(0%,0%,0%);fill-opacity:0.301961"/> </g> </mask> <clipPath id="clip3"> <rect width="384" height="384" x="0" y="0"/> </clipPath> <g id="surface11" clip-path="url(#clip3)"> <path style="fill:rgb(0%,0%,0%);fill-opacity:0.996078" d="M 215.03125 141.871094 C 223.738281 143.542969 232.527344 144.382812 241.398438 144.382812 C 250.441406 144.382812 259.816406 143.546875 269.523438 141.871094 L 271.28125 151.664062 C 265.089844 153.171875 260.484375 154.675781 257.472656 156.183594 C 254.457031 157.691406 253.117188 160.535156 253.453125 164.722656 L 260.988281 287.015625 C 261.15625 291.03125 262.660156 293.878906 265.507812 295.554688 C 268.1875 296.894531 272.539062 298.398438 278.566406 300.074219 L 276.808594 309.867188 C 266.261719 308.359375 255.796875 307.605469 245.417969 307.605469 C 235.039062 307.605469 223.234375 308.359375 210.011719 309.867188 L 208.253906 299.570312 C 220.304688 297.058594 227.171875 294.382812 228.84375 291.535156 C 229.515625 290.699219 229.765625 289.191406 229.597656 287.015625 L 223.570312 179.285156 L 222.0625 178.03125 C 220.222656 186.402344 218.464844 192.597656 216.789062 196.613281 L 186.90625 271.949219 C 184.0625 278.980469 180.964844 288.523438 177.617188 300.574219 L 176.109375 306.101562 L 152.253906 312.125 C 147.566406 296.222656 143.464844 283.917969 139.949219 275.210938 L 109.816406 197.871094 L 105.042969 181.296875 L 103.285156 182.550781 L 96.003906 287.015625 C 95.835938 289.191406 96.003906 290.78125 96.507812 291.785156 C 97.175781 292.621094 98.265625 293.460938 99.769531 294.296875 C 102.617188 295.804688 107.386719 297.3125 114.085938 298.816406 L 117.347656 299.566406 L 115.339844 309.863281 C 104.457031 308.359375 94.914062 307.605469 86.710938 307.605469 C 78.675781 307.605469 69.386719 308.355469 58.839844 309.863281 L 56.828125 300.070312 C 63.023438 298.730469 67.542969 297.308594 70.390625 295.800781 C 73.402344 294.292969 74.992188 291.617188 75.160156 287.765625 L 84.453125 163.964844 C 84.621094 160.28125 83.28125 157.6875 80.433594 156.179688 C 77.757812 154.84375 73.65625 153.585938 68.128906 152.414062 L 65.367188 151.664062 L 67.125 141.867188 C 76.332031 143.542969 85.960938 144.378906 96.003906 144.378906 C 106.214844 144.378906 116.007812 143.546875 125.382812 141.867188 C 127.394531 149.570312 129.066406 155.347656 130.40625 159.195312 L 166.566406 256.878906 L 169.832031 268.683594 L 171.589844 269.179688 C 171.925781 263.65625 172.679688 259.640625 173.851562 257.128906 L 209.757812 160.699219 L 215.03125 141.863281"/> </g> <mask id="mask3"> <g filter="url(#alpha)"> <rect width="384" height="384" x="0" y="0" style="fill:rgb(0%,0%,0%);fill-opacity:0.301961"/> </g> </mask> <clipPath id="clip4"> <rect width="384" height="384" x="0" y="0"/> </clipPath> <g id="surface14" clip-path="url(#clip4)"> <path style="fill:rgb(100.000%,100.000%,100.000%)" d="M 170.082031 44.722656 C 76.59375 44.722656 1.332031 119.984375 1.332031 213.472656 C 1.332031 214.726562 1.355469 215.976562 1.382812 217.222656 C 3.363281 125.480469 77.847656 52.222656 170.082031 52.222656 C 262.316406 52.222656 336.804688 125.480469 338.785156 217.222656 C 338.8125 215.976562 338.832031 214.726562 338.832031 213.472656 C 338.832031 119.984375 263.570312 44.722656 170.082031 44.722656 Z M 170.082031 44.722656"/> </g> <mask id="mask4"> <g filter="url(#alpha)"> <rect width="384" height="384" x="0" y="0" style="fill:rgb(0%,0%,0%);fill-opacity:0.301961"/> </g> </mask> <clipPath id="clip5"> <rect width="384" height="384" x="0" y="0"/> </clipPath> <g id="surface17" clip-path="url(#clip5)"> <path style="fill:rgb(0%,0%,0%)" d="M 1.382812 209.722656 C 1.355469 210.96875 1.332031 212.21875 1.332031 213.472656 C 1.332031 306.960938 76.59375 382.222656 170.082031 382.222656 C 263.570312 382.222656 338.832031 306.960938 338.832031 213.472656 C 338.832031 212.21875 338.8125 210.96875 338.785156 209.722656 C 336.804688 301.464844 262.316406 374.722656 170.082031 374.722656 C 77.847656 374.722656 3.363281 301.464844 1.382812 209.722656 Z M 1.382812 209.722656"/> </g> </defs> <g> <path style="fill:rgb(21.176%,48.235%,94.117%)" d="M 170.085938 44.722656 C 263.28125 44.722656 338.835938 120.273438 338.835938 213.472656 C 338.835938 306.667969 263.28125 382.222656 170.085938 382.222656 C 76.886719 382.222656 1.335938 306.667969 1.335938 213.472656 C 1.335938 120.273438 76.886719 44.722656 170.085938 44.722656 Z M 170.085938 44.722656"/> <use mask="url(#mask0)" xlink:href="#surface5"/> <use mask="url(#mask1)" xlink:href="#surface8"/> <use mask="url(#mask2)" xlink:href="#surface11"/> <path style="fill:rgb(99.215%,28.627%,28.627%);fill-opacity:0.996078" d="M 215.03125 134.371094 C 223.738281 136.042969 232.527344 136.882812 241.398438 136.882812 C 250.441406 136.882812 259.816406 136.046875 269.523438 134.371094 L 271.28125 144.164062 C 265.089844 145.671875 260.484375 147.175781 257.472656 148.683594 C 254.457031 150.191406 253.117188 153.035156 253.453125 157.222656 L 260.988281 279.515625 C 261.15625 283.53125 262.660156 286.378906 265.507812 288.054688 C 268.1875 289.394531 272.539062 290.898438 278.566406 292.574219 L 276.808594 302.367188 C 266.261719 300.859375 255.796875 300.105469 245.417969 300.105469 C 235.039062 300.105469 223.234375 300.859375 210.011719 302.367188 L 208.253906 292.070312 C 220.304688 289.558594 227.171875 286.882812 228.84375 284.035156 C 229.515625 283.199219 229.765625 281.691406 229.597656 279.515625 L 223.570312 171.785156 L 222.0625 170.53125 C 220.222656 178.902344 218.464844 185.097656 216.789062 189.113281 L 186.90625 264.449219 C 184.0625 271.480469 180.964844 281.023438 177.617188 293.074219 L 176.109375 298.601562 L 152.253906 304.625 C 147.566406 288.722656 143.464844 276.417969 139.949219 267.710938 L 109.816406 190.371094 L 105.042969 173.796875 L 103.285156 175.050781 L 96.003906 279.515625 C 95.835938 281.691406 96.003906 283.28125 96.507812 284.285156 C 97.175781 285.121094 98.265625 285.960938 99.769531 286.796875 C 102.617188 288.304688 107.386719 289.8125 114.085938 291.316406 L 117.347656 292.066406 L 115.339844 302.363281 C 104.457031 300.859375 94.914062 300.105469 86.710938 300.105469 C 78.675781 300.105469 69.386719 300.855469 58.839844 302.363281 L 56.828125 292.570312 C 63.023438 291.230469 67.542969 289.808594 70.390625 288.300781 C 73.402344 286.792969 74.992188 284.117188 75.160156 280.265625 L 84.453125 156.464844 C 84.621094 152.78125 83.28125 150.1875 80.433594 148.679688 C 77.757812 147.34375 73.65625 146.085938 68.128906 144.914062 L 65.367188 144.164062 L 67.125 134.367188 C 76.332031 136.042969 85.960938 136.878906 96.003906 136.878906 C 106.214844 136.878906 116.007812 136.046875 125.382812 134.367188 C 127.394531 142.070312 129.066406 147.847656 130.40625 151.695312 L 166.566406 249.378906 L 169.832031 261.183594 L 171.589844 261.679688 C 171.925781 256.15625 172.679688 252.140625 173.851562 249.628906 L 209.757812 153.199219 L 215.03125 134.363281"/> <use mask="url(#mask3)" xlink:href="#surface14"/> <use mask="url(#mask4)" xlink:href="#surface17"/> </g> </svg>
