<svg xmlns="http://www.w3.org/2000/svg" xmlns:xlink="http://www.w3.org/1999/xlink" width="384pt" height="384pt" version="1.1" viewBox="0 0 384 384"> <defs> <filter id="alpha" width="100%" height="100%" x="0%" y="0%" filterUnits="objectBoundingBox"> <feColorMatrix in="SourceGraphic" type="matrix" values="0 0 0 0 1 0 0 0 0 1 0 0 0 0 1 0 0 0 1 0"/> </filter> <mask id="mask0"> <g filter="url(#alpha)"> <rect width="384" height="384" x="0" y="0" style="fill:rgb(0%,0%,0%);fill-opacity:0.2"/> </g> </mask> <clipPath id="clip1"> <rect width="384" height="384" x="0" y="0"/> </clipPath> <g id="surface5" clip-path="url(#clip1)"> <path style="fill:rgb(0%,0%,0%)" d="M 167.671875 30 C 88.890625 30 24 94.976562 24 173.859375 C 24 252.742188 88.890625 317.71875 167.671875 317.71875 C 182.6875 317.722656 197.421875 315.152344 211.5625 310.601562 L 246.332031 345.398438 C 258.910156 358.515625 278.925781 366.847656 296.890625 365.929688 C 314.851562 365.015625 329.589844 357.164062 340.382812 346.355469 C 351.175781 335.550781 359.015625 320.792969 359.929688 302.804688 C 360.847656 284.820312 352.523438 264.777344 339.421875 252.183594 L 340.125 252.863281 L 304.464844 217.128906 C 308.871094 203.207031 311.320312 188.695312 311.339844 173.929688 L 311.339844 173.859375 C 311.339844 94.976562 246.449219 30 167.667969 30 Z M 167.671875 30"/> </g> <mask id="mask1"> <g filter="url(#alpha)"> <rect width="384" height="384" x="0" y="0" style="fill:rgb(0%,0%,0%);fill-opacity:0.2"/> </g> </mask> <clipPath id="clip2"> <rect width="384" height="384" x="0" y="0"/> </clipPath> <g id="surface8" clip-path="url(#clip2)"> <path style="fill:rgb(0%,0%,0%)" d="M 208.101562 239.109375 L 281.457031 312.464844 C 298.421875 330.136719 324.582031 303.976562 306.910156 287.011719 L 232.441406 212.542969 C 204 222 216 222 208.101562 239.109375 Z M 208.101562 239.109375"/> </g> <mask id="mask2"> <g filter="url(#alpha)"> <rect width="384" height="384" x="0" y="0" style="fill:rgb(0%,0%,0%);fill-opacity:0.101961"/> </g> </mask> <clipPath id="clip3"> <rect width="384" height="384" x="0" y="0"/> </clipPath> <g id="surface11" clip-path="url(#clip3)"> <path style="fill:rgb(100.000%,100.000%,100.000%)" d="M 232.441406 206.542969 C 204 216 216 216 208.101562 233.109375 L 209.742188 234.75 C 213.929688 222.03125 206.730469 221.09375 232.441406 212.542969 L 306.914062 287.015625 C 310.089844 290.0625 311.792969 293.40625 312.445312 296.742188 C 313.382812 291.582031 312.023438 285.921875 306.914062 281.015625 Z M 232.441406 206.542969"/> </g> <mask id="mask3"> <g filter="url(#alpha)"> <rect width="384" height="384" x="0" y="0" style="fill:rgb(0%,0%,0%);fill-opacity:0.2"/> </g> </mask> <clipPath id="clip4"> <rect width="384" height="384" x="0" y="0"/> </clipPath> <g id="surface14" clip-path="url(#clip4)"> <path style="fill:rgb(0%,0%,0%)" d="M 168 78 C 114.980469 78 72 120.980469 72 174 C 72 227.019531 114.980469 270 168 270 C 221.019531 270 264 227.019531 264 174 C 264 120.980469 221.019531 78 168 78 Z M 168 78"/> </g> <mask id="mask4"> <g filter="url(#alpha)"> <rect width="384" height="384" x="0" y="0" style="fill:rgb(0%,0%,0%);fill-opacity:0.101961"/> </g> </mask> <clipPath id="clip5"> <rect width="384" height="384" x="0" y="0"/> </clipPath> <g id="surface17" clip-path="url(#clip5)"> <path style="fill:rgb(100.000%,100.000%,100.000%)" d="M 168 72 C 114.980469 72 72 114.980469 72 168 C 72.03125 168.835938 72.074219 169.671875 72.128906 170.507812 C 74.007812 118.90625 116.363281 78.035156 168 78 C 219.988281 78.050781 262.488281 119.476562 263.871094 171.445312 C 263.933594 170.296875 263.976562 169.148438 264 168 C 264 114.980469 221.019531 72 168 72 Z M 168 72"/> </g> <mask id="mask5"> <g filter="url(#alpha)"> <rect width="384" height="384" x="0" y="0" style="fill:rgb(0%,0%,0%);fill-opacity:0.101961"/> </g> </mask> <clipPath id="clip6"> <rect width="384" height="384" x="0" y="0"/> </clipPath> <g id="surface20" clip-path="url(#clip6)"> <path style="fill:rgb(100.000%,100.000%,100.000%)" d="M 167.671875 24 C 88.890625 24 24 88.976562 24 167.859375 C 24 168.863281 24.0625 169.859375 24.082031 170.859375 C 25.707031 93.339844 89.898438 30 167.671875 30 C 245.210938 30 309.25 92.957031 311.25 170.15625 C 311.261719 169.410156 311.34375 168.675781 311.34375 167.929688 L 311.34375 167.859375 C 311.34375 88.976562 246.453125 24 167.671875 24 Z M 305.765625 212.4375 C 305.324219 214 304.953125 215.578125 304.464844 217.125 L 340.125 252.867188 L 339.421875 252.1875 C 351.234375 263.546875 359.101562 280.941406 359.871094 297.445312 C 359.882812 297.226562 359.917969 297.019531 359.929688 296.800781 C 360.84375 278.816406 352.523438 258.78125 339.421875 246.1875 L 340.125 246.867188 Z M 305.765625 212.4375"/> </g> <mask id="mask6"> <g filter="url(#alpha)"> <rect width="384" height="384" x="0" y="0" style="fill:rgb(0%,0%,0%);fill-opacity:0.2"/> </g> </mask> <clipPath id="clip7"> <rect width="384" height="384" x="0" y="0"/> </clipPath> <g id="surface23" clip-path="url(#clip7)"> <path style="fill:rgb(0%,0%,0%)" d="M 120 131.144531 L 120 216.855469 C 120 234 132 234 132 234 C 132 234 143.992188 234 143.992188 216.855469 L 143.992188 198 L 192 198 L 192 216.855469 C 192 234 204 234 204 234 C 204 234 216 234 216 216.855469 L 216 131.144531 C 216 131.144531 216 114 200 114 L 136 114 C 120 114 120 131.144531 120 131.144531 Z M 143.992188 138 L 192 138 L 192 174 L 143.992188 174 Z M 143.992188 138"/> </g> </defs> <g> <use mask="url(#mask0)" xlink:href="#surface5"/> <path style="fill:rgb(29.803%,29.803%,29.803%)" d="M 167.671875 24 C 88.890625 24 24 88.976562 24 167.859375 C 24 246.742188 88.890625 311.71875 167.671875 311.71875 C 182.6875 311.722656 197.421875 309.152344 211.5625 304.601562 L 246.332031 339.398438 C 258.910156 352.515625 278.925781 360.847656 296.890625 359.929688 C 314.851562 359.015625 329.589844 351.164062 340.382812 340.355469 C 351.175781 329.550781 359.015625 314.792969 359.929688 296.804688 C 360.847656 278.820312 352.523438 258.777344 339.421875 246.183594 L 340.125 246.863281 L 304.464844 211.128906 C 308.871094 197.207031 311.320312 182.695312 311.339844 167.929688 L 311.339844 167.859375 C 311.339844 88.976562 246.449219 24 167.667969 24 Z M 167.671875 24"/> <use mask="url(#mask1)" xlink:href="#surface8"/> <path style="fill:rgb(66.666%,47.843%,31.372%)" d="M 208.101562 233.109375 L 281.457031 306.464844 C 298.421875 324.136719 324.582031 297.976562 306.910156 281.011719 L 232.441406 206.542969 C 204 216 216 216 208.101562 233.109375 Z M 208.101562 233.109375"/> <use mask="url(#mask2)" xlink:href="#surface11"/> <use mask="url(#mask3)" xlink:href="#surface14"/> <path style="fill:rgb(44.705%,63.529%,95.686%)" d="M 168 72 C 114.980469 72 72 114.980469 72 168 C 72 221.019531 114.980469 264 168 264 C 221.019531 264 264 221.019531 264 168 C 264 114.980469 221.019531 72 168 72 Z M 168 72"/> <use mask="url(#mask4)" xlink:href="#surface17"/> <use mask="url(#mask5)" xlink:href="#surface20"/> <use mask="url(#mask6)" xlink:href="#surface23"/> <path style="fill:rgb(100.000%,100.000%,100.000%)" d="M 120 125.144531 L 120 210.855469 C 120 228 132 228 132 228 C 132 228 143.992188 228 143.992188 210.855469 L 143.992188 192 L 192 192 L 192 210.855469 C 192 228 204 228 204 228 C 204 228 216 228 216 210.855469 L 216 125.144531 C 216 125.144531 216 108 200 108 L 136 108 C 120 108 120 125.144531 120 125.144531 Z M 143.992188 132 L 192 132 L 192 168 L 143.992188 168 Z M 143.992188 132"/> </g> </svg>
