<svg xmlns="http://www.w3.org/2000/svg" width="384pt" height="384pt" version="1.1" viewBox="0 0 384 384">
 <path d="m 191.99728,62.420082 c -43.04247,0.0382 -86.00842,10.57575 -118.793869,31.40849 C 1.1110905,139.61856 -3.8548495,218.85061 62.379031,267.51563 c 6.08791,4.38585 11.62122,8.47845 12.31607,9.02668 l -18.32109,32.58146 37.71313,27.45615 97.910139,-162.92644 97.9165,162.92644 37.71954,-27.45615 -18.33384,-32.58146 c 0.70758,-0.54823 6.22815,-4.64083 12.32242,-9.02668 66.22751,-48.66502 61.27433,-127.9162 -10.83074,-173.687058 -32.78545,-20.83274 -75.74504,-31.37026 -118.79388,-31.40849 z m -9.90639,19.5833 L 93.966031,238.66979 C -3.9440995,160.33658 103.75768,82.003382 182.09089,82.003382 Z m 19.69803,0 c 78.33321,0 186.04137,78.333198 88.12486,156.666408 z m -9.79164,137.083098 -39.16661,58.70527 39.16661,58.78817 39.1666,-58.78817 z m 0,0" style="opacity:0.3"/>
 <path d="M 191.99728,54.920079 C 148.95482,54.958266 105.98886,65.495828 73.203403,86.328577 1.1110886,132.11856 -3.8548604,211.35061 62.379023,260.01564 c 6.08791,4.38584 11.62122,8.47844 12.31607,9.02668 l -18.32109,32.58145 37.71314,27.45615 97.910137,-162.92644 97.91651,162.92644 37.71953,-27.45615 -18.33384,-32.58145 c 0.70759,-0.54824 6.22816,-4.64084 12.32243,-9.02668 C 387.84942,211.35061 382.89624,132.09944 310.79117,86.328577 278.00572,65.495828 235.04613,54.958315 191.99728,54.920079 Z M 182.09089,74.50338 93.966023,231.16979 C -3.9441064,152.83659 103.75768,74.50338 182.09089,74.50338 Z m 19.69804,0 c 78.33321,0 186.04137,78.33321 88.12486,156.66641 z m -9.79165,137.08311 -39.1666,58.70527 39.1666,58.78816 39.1666,-58.78816 z m 0,0" style="fill:#1c4a9b"/>
</svg>
