<svg xmlns="http://www.w3.org/2000/svg" xmlns:xlink="http://www.w3.org/1999/xlink" width="384pt" height="384pt" version="1.1" viewBox="0 0 384 384">
 <defs>
  <filter id="alpha" width="100%" height="100%" x="0%" y="0%" filterUnits="objectBoundingBox">
   <feColorMatrix in="SourceGraphic" type="matrix" values="0 0 0 0 1 0 0 0 0 1 0 0 0 0 1 0 0 0 1 0"/>
  </filter>
  <mask id="mask0">
   <g filter="url(#alpha)">
    <rect width="384" height="384" x="0" y="0" style="fill:rgb(0%,0%,0%);fill-opacity:0.101961"/>
   </g>
  </mask>
  <clipPath id="clip1">
   <rect width="384" height="384" x="0" y="0"/>
  </clipPath>
  <g id="surface5" clip-path="url(#clip1)">
   <path style="fill:rgb(100%,100%,100%)" d="M 192 60 C 98.929688 60 24 142.5 24 192 C 24 192.664062 24.128906 193.375 24.1875 194.0625 C 27.945312 144.253906 101.347656 66 192 66 C 282.652344 66 356.054688 144.253906 359.8125 194.0625 C 359.871094 193.375 360 192.664062 360 192 C 360 142.5 285.070312 60 192 60 Z M 192 60"/>
  </g>
  <mask id="mask1">
   <g filter="url(#alpha)">
    <rect width="384" height="384" x="0" y="0" style="fill:rgb(0%,0%,0%);fill-opacity:0.2"/>
   </g>
  </mask>
  <clipPath id="clip2">
   <rect width="384" height="384" x="0" y="0"/>
  </clipPath>
  <g id="surface8" clip-path="url(#clip2)">
   <path style="fill:rgb(0%,0%,0%)" d="M 178.621094 78.003906 C 172.726562 78.003906 168 84.578125 168 92.746094 L 168 105.121094 C 159.332031 107.375 151.023438 110.828125 143.316406 115.386719 L 134.53125 106.597656 C 128.761719 100.824219 120.769531 99.53125 116.601562 103.691406 L 97.6875 122.609375 C 93.527344 126.769531 94.816406 134.761719 100.59375 140.539062 L 109.382812 149.328125 C 104.851562 157.039062 101.417969 165.347656 99.1875 174.011719 L 86.742188 174.011719 C 78.574219 174.011719 72 178.742188 72 184.628906 L 72 211.394531 C 72 217.273438 78.574219 222.003906 86.742188 222.003906 L 99.117188 222.003906 C 101.371094 230.667969 104.828125 238.972656 109.382812 246.679688 L 100.59375 255.46875 C 94.816406 261.246094 93.527344 269.238281 97.6875 273.398438 L 116.601562 292.3125 C 120.761719 296.476562 128.753906 295.183594 134.53125 289.40625 L 143.320312 280.617188 C 151.03125 285.148438 159.339844 288.578125 168.003906 290.808594 L 168.003906 303.253906 C 168.003906 311.425781 172.730469 318 178.625 318 L 205.390625 318 C 211.269531 318 215.996094 311.425781 215.996094 303.253906 L 215.996094 290.878906 C 224.664062 288.625 232.96875 285.167969 240.675781 280.613281 L 249.464844 289.402344 C 255.242188 295.175781 263.234375 296.46875 267.394531 292.308594 L 286.308594 273.394531 C 290.46875 269.230469 289.179688 261.238281 283.402344 255.464844 L 274.617188 246.679688 C 279.148438 238.964844 282.578125 230.65625 284.808594 221.996094 L 297.253906 221.996094 C 305.425781 221.996094 312 217.269531 312 211.375 L 312 184.609375 C 312 178.730469 305.425781 174 297.253906 174 L 284.878906 174 C 282.625 165.335938 279.167969 157.03125 274.613281 149.324219 L 283.402344 140.535156 C 289.175781 134.757812 290.46875 126.765625 286.308594 122.605469 L 267.394531 103.6875 C 263.230469 99.527344 255.238281 100.816406 249.46875 106.59375 L 240.683594 115.378906 C 232.96875 110.847656 224.664062 107.417969 216 105.1875 L 216 92.742188 C 216 84.574219 211.273438 78 205.378906 78 L 178.613281 78 Z M 192 150.003906 C 218.507812 150.003906 240 171.496094 240 198.003906 C 240 224.515625 218.507812 246.003906 192 246.003906 C 165.492188 246.003906 144 224.515625 144 198.003906 C 144 171.496094 165.492188 150.003906 192 150.003906 Z M 192 150.003906"/>
  </g>
  <mask id="mask2">
   <g filter="url(#alpha)">
    <rect width="384" height="384" x="0" y="0" style="fill:rgb(0%,0%,0%);fill-opacity:0.2"/>
   </g>
  </mask>
  <clipPath id="clip3">
   <rect width="384" height="384" x="0" y="0"/>
  </clipPath>
  <g id="surface11" clip-path="url(#clip3)">
   <path style="fill:rgb(0%,0%,0%)" d="M 24.539062 198 C 24.316406 200.015625 24 202.066406 24 204 C 24 205.285156 24.085938 206.609375 24.1875 207.9375 C 24.296875 206.628906 24.394531 205.324219 24.539062 204 C 30.058594 253.871094 102.550781 330 192 330 C 281.449219 330 353.941406 253.871094 359.460938 204 C 359.609375 205.324219 359.703125 206.628906 359.8125 207.9375 C 359.914062 206.609375 360 205.285156 360 204 C 360 202.074219 359.683594 200.019531 359.460938 198 C 353.941406 247.871094 281.449219 324 192 324 C 102.550781 324 30.058594 247.871094 24.539062 198 Z M 24.539062 198"/>
  </g>
 </defs>
 <g>
  <path style="fill:rgb(29.803922%,29.803922%,29.803922%)" d="M 192 60 C 98.929688 60 24 142.5 24 192 C 24 241.5 98.929688 324 192 324 C 285.070312 324 360 241.5 360 192 C 360 142.5 285.070312 60 192 60 Z M 192 60"/>
  <use mask="url(#mask0)" xlink:href="#surface5"/>
  <use mask="url(#mask1)" xlink:href="#surface8"/>
  <path style="fill:rgb(5.882353%,63.137255%,37.254902%)" d="M 178.621094 72.007812 C 172.726562 72.007812 168 78.582031 168 86.75 L 168 99.125 C 159.332031 101.378906 151.023438 104.832031 143.316406 109.390625 L 134.53125 100.601562 C 128.761719 94.824219 120.769531 93.535156 116.601562 97.695312 L 97.6875 116.609375 C 93.527344 120.769531 94.816406 128.761719 100.59375 134.539062 L 109.382812 143.328125 C 104.851562 151.039062 101.417969 159.347656 99.1875 168.011719 L 86.742188 168.011719 C 78.574219 168.011719 72 172.742188 72 178.628906 L 72 205.394531 C 72 211.273438 78.574219 216.003906 86.742188 216.003906 L 99.117188 216.003906 C 101.371094 224.667969 104.828125 232.972656 109.382812 240.679688 L 100.59375 249.46875 C 94.816406 255.246094 93.527344 263.238281 97.6875 267.398438 L 116.601562 286.3125 C 120.761719 290.476562 128.753906 289.183594 134.53125 283.40625 L 143.320312 274.617188 C 151.03125 279.148438 159.339844 282.578125 168.003906 284.808594 L 168.003906 297.253906 C 168.003906 305.425781 172.730469 312 178.625 312 L 205.390625 312 C 211.269531 312 215.996094 305.425781 215.996094 297.253906 L 215.996094 284.878906 C 224.664062 282.625 232.96875 279.167969 240.675781 274.613281 L 249.464844 283.402344 C 255.242188 289.175781 263.234375 290.46875 267.394531 286.308594 L 286.308594 267.394531 C 290.46875 263.230469 289.179688 255.238281 283.402344 249.464844 L 274.617188 240.679688 C 279.148438 232.964844 282.578125 224.65625 284.808594 215.996094 L 297.253906 215.996094 C 305.425781 215.996094 312 211.269531 312 205.375 L 312 178.609375 C 312 172.730469 305.425781 168 297.253906 168 L 284.878906 168 C 282.625 159.335938 279.167969 151.03125 274.613281 143.324219 L 283.402344 134.535156 C 289.175781 128.757812 290.46875 120.765625 286.308594 116.605469 L 267.394531 97.6875 C 263.230469 93.527344 255.238281 94.820312 249.46875 100.59375 L 240.683594 109.382812 C 232.972656 104.851562 224.664062 101.421875 216 99.1875 L 216 86.742188 C 216 78.578125 211.273438 72 205.378906 72 L 178.613281 72 Z M 192 144.007812 C 218.507812 144.007812 240 165.496094 240 192.007812 C 240 218.515625 218.507812 240.007812 192 240.007812 C 165.492188 240.007812 144 218.515625 144 192.007812 C 144 165.496094 165.492188 144.007812 192 144.007812 Z M 192 144.007812"/>
  <use mask="url(#mask2)" xlink:href="#surface11"/>
 </g>
</svg>
