<svg xmlns="http://www.w3.org/2000/svg" width="384pt" height="384pt" version="1.1" viewBox="0 0 384 384">
 <g>
  <path style="fill:rgb(60.784314%,34.901961%,71.372549%)" d="M 285.007812 144.707031 C 285.007812 88.355469 222.671875 42.605469 145.699219 42.605469 C 68.648438 42.605469 6.296875 88.355469 6.296875 144.707031 C 6.296875 179.40625 30.058594 209.902344 66.15625 228.378906 L 31.550781 294.160156 L 106.601562 242.269531 C 119.078125 244.949219 132.0625 246.855469 145.699219 246.855469 C 222.6875 246.855469 285.007812 201.125 285.007812 144.707031 Z M 101.917969 155.789062 L 72.488281 155.789062 L 72.488281 126.339844 L 101.917969 126.339844 Z M 191.226562 126.339844 L 220.65625 126.339844 L 220.65625 155.789062 L 191.226562 155.789062 Z M 131.859375 126.339844 L 161.273438 126.339844 L 161.273438 155.789062 L 131.859375 155.789062 Z M 131.859375 126.339844"/>
  <path style="fill:rgb(26.666667%,8.627451%,31.372549%)" d="M 376.203125 208.949219 C 376.203125 171.914062 347.679688 139.785156 305.851562 123.625 C 307.914062 131.230469 309.027344 139.121094 309.027344 147.246094 C 309.027344 214.042969 235.210938 268.238281 144 268.238281 C 142.875 268.238281 141.828125 268 140.714844 268 C 164.765625 290.714844 202.304688 305.382812 244.578125 305.382812 C 257.46875 305.382812 269.707031 303.589844 281.484375 301.082031 L 352.410156 350.054688 L 319.695312 287.96875 C 353.789062 270.492188 376.203125 241.699219 376.203125 208.949219 Z M 376.203125 208.949219"/>
  <path style="fill:rgb(100%,100%,100%)" d="M 72.558594 141.417969 L 72.558594 127.097656 L 101.195312 127.097656 L 101.195312 155.734375 L 72.558594 155.734375 Z M 72.558594 141.417969"/>
  <path style="fill:rgb(100%,100%,100%)" d="M 131.953125 141.417969 L 131.953125 127.097656 L 160.589844 127.097656 L 160.589844 155.734375 L 131.953125 155.734375 Z M 131.953125 141.417969"/>
  <path style="fill:rgb(100%,100%,100%)" d="M 191.351562 141.417969 L 191.351562 127.097656 L 219.988281 127.097656 L 219.988281 155.734375 L 191.351562 155.734375 Z M 191.351562 141.417969"/>
 </g>
</svg>
