<svg width="512" height="512" version="1.1" viewBox="0 0 384 384" xmlns="http://www.w3.org/2000/svg"><defs><linearGradient id="a" x1="32" x2="352" y1="176" y2="176" gradientTransform="matrix(.8308 0 0 .8308 -3.3355 64.987)" gradientUnits="userSpaceOnUse"><stop stop-color="#fc4848" stop-opacity=".99608" offset="0"/><stop stop-color="#b7164b" stop-opacity=".99608" offset="1"/></linearGradient></defs><path d="m108.19 33.22c-7.3636 0-13.293 5.9292-13.293 13.293v199.39h265.85v-199.39c0-7.3636-5.9292-13.293-13.293-13.293z" fill="#4aaee6" stroke-width=".8308"/><path d="m108.19 272.49c-7.3636 0-13.293-5.9292-13.293-13.293v-13.293h265.85v13.293c0 7.3636-5.9292 13.293-13.293 13.293z" fill="#0f2b5c" stroke-width=".8308"/><path transform="scale(.75)" d="m126.53 335.59v10c0 9.8181 7.9065 17.725 17.725 17.725h319.03c9.8181 0 17.723-7.9065 17.723-17.725v-10c0 9.8181-7.9046 17.725-17.723 17.725h-319.03c-9.8181 0-17.725-7.9065-17.725-17.725z" opacity=".3" stroke-width="1.1077"/><path d="m36.543 104.87c-7.3636 0-13.293 5.9292-13.293 13.293v199.39h265.85v-199.39c0-7.3636-5.9292-13.293-13.293-13.293z" fill="url(#a)" stroke-width=".8308"/><path d="m36.543 344.13c-7.3636 0-13.293-5.9292-13.293-13.293v-13.293h265.85v13.293c0 7.3636-5.9292 13.293-13.293 13.293z" fill="#0f2b5c" stroke-width=".8308"/><g stroke-width="1.1077"><path transform="scale(.75)" d="m48.723 139.82c-9.8181 0-17.723 7.9046-17.723 17.723v10c0-9.8181 7.9046-17.723 17.723-17.723h319.03c9.8181 0 17.725 7.9046 17.725 17.723v-10c0-9.8181-7.9065-17.723-17.725-17.723h-319.03z" fill="#fff" fill-opacity=".99608" opacity=".3"/><path transform="scale(.75)" d="m144.25 44.293c-9.8181 0-17.725 7.9046-17.725 17.723v10c0-9.8181 7.9065-17.723 17.725-17.723h319.03c9.8181 0 17.723 7.9046 17.723 17.723v-10c0-9.8181-7.9046-17.723-17.723-17.723h-319.03z" fill="#fff" opacity=".3"/><path transform="scale(.75)" d="m31 431.12v10c0 9.8181 7.9046 17.725 17.723 17.725h319.03c9.8181 0 17.725-7.9065 17.725-17.725v-10c0 9.8181-7.9065 17.725-17.725 17.725h-319.03c-9.8181 0-17.723-7.9065-17.723-17.725z" opacity=".3"/></g></svg>
