<svg xmlns="http://www.w3.org/2000/svg" xmlns:xlink="http://www.w3.org/1999/xlink" width="384pt" height="384pt" version="1.1" viewBox="0 0 384 384">
 <defs>
  <filter id="alpha" width="100%" height="100%" x="0%" y="0%" filterUnits="objectBoundingBox">
   <feColorMatrix in="SourceGraphic" type="matrix" values="0 0 0 0 1 0 0 0 0 1 0 0 0 0 1 0 0 0 1 0"/>
  </filter>
  <mask id="mask0">
   <g filter="url(#alpha)">
    <rect width="384" height="384" x="0" y="0" style="fill:rgb(0%,0%,0%);fill-opacity:0.2"/>
   </g>
  </mask>
  <clipPath id="clip1">
   <rect width="384" height="384" x="0" y="0"/>
  </clipPath>
  <g id="surface5" clip-path="url(#clip1)">
   <path style="fill:rgb(0%,0%,0%)" d="M 24.003906 319.332031 L 24.003906 331.332031 C 24.003906 340.570312 31.5 348 40.808594 348 L 343.199219 348 C 352.5 348 360 340.570312 360 331.332031 L 360 319.332031 C 360 328.574219 352.5 336 343.199219 336 L 40.808594 336 C 31.503906 336 24.007812 328.574219 24.007812 319.332031 Z M 24.003906 319.332031"/>
  </g>
  <mask id="mask1">
   <g filter="url(#alpha)">
    <rect width="384" height="384" x="0" y="0" style="fill:rgb(0%,0%,0%);fill-opacity:0.2"/>
   </g>
  </mask>
  <clipPath id="clip2">
   <rect width="384" height="384" x="0" y="0"/>
  </clipPath>
  <g id="surface8" clip-path="url(#clip2)">
   <path style="fill:rgb(0%,0%,0%)" d="M 40.808594 42.007812 C 31.5 42.007812 24.003906 49.4375 24.003906 58.671875 L 24.003906 325.335938 C 24.003906 334.570312 31.5 342 40.808594 342 L 108 342 L 108 42.03125 L 40.808594 42.03125 Z M 40.808594 42.007812"/>
  </g>
  <mask id="mask2">
   <g filter="url(#alpha)">
    <rect width="384" height="384" x="0" y="0" style="fill:rgb(0%,0%,0%);fill-opacity:0.101961"/>
   </g>
  </mask>
  <clipPath id="clip3">
   <rect width="384" height="384" x="0" y="0"/>
  </clipPath>
  <g id="surface11" clip-path="url(#clip3)">
   <path style="fill:rgb(100%,100%,100%)" d="M 40.804688 42.011719 C 31.496094 42.011719 24 49.441406 24 58.675781 L 24 64.664062 C 24 55.429688 31.496094 48 40.804688 48 L 343.195312 48 C 352.496094 48 360 55.429688 360 64.664062 L 360 58.675781 C 360 49.441406 352.496094 42.011719 343.195312 42.011719 Z M 40.804688 42.011719"/>
  </g>
  <mask id="mask3">
   <g filter="url(#alpha)">
    <rect width="384" height="384" x="0" y="0" style="fill:rgb(0%,0%,0%);fill-opacity:0.2"/>
   </g>
  </mask>
  <clipPath id="clip4">
   <rect width="384" height="384" x="0" y="0"/>
  </clipPath>
  <g id="surface14" clip-path="url(#clip4)">
   <path style="fill:rgb(0%,0%,0%)" d="M 52.5 216 L 79.5 216 C 81.984375 216 84 218.015625 84 220.5 L 84 247.5 C 84 249.984375 81.984375 252 79.5 252 L 52.5 252 C 50.015625 252 48 249.984375 48 247.5 L 48 220.5 C 48 218.015625 50.015625 216 52.5 216 Z M 52.5 216"/>
  </g>
  <mask id="mask4">
   <g filter="url(#alpha)">
    <rect width="384" height="384" x="0" y="0" style="fill:rgb(0%,0%,0%);fill-opacity:0.2"/>
   </g>
  </mask>
  <clipPath id="clip5">
   <rect width="384" height="384" x="0" y="0"/>
  </clipPath>
  <g id="surface17" clip-path="url(#clip5)">
   <path style="fill:rgb(0%,0%,0%)" d="M 52.5 72 L 79.5 72 C 81.984375 72 84 74.015625 84 76.5 L 84 103.5 C 84 105.984375 81.984375 108 79.5 108 L 52.5 108 C 50.015625 108 48 105.984375 48 103.5 L 48 76.5 C 48 74.015625 50.015625 72 52.5 72 Z M 52.5 72"/>
  </g>
  <mask id="mask5">
   <g filter="url(#alpha)">
    <rect width="384" height="384" x="0" y="0" style="fill:rgb(0%,0%,0%);fill-opacity:0.2"/>
   </g>
  </mask>
  <clipPath id="clip6">
   <rect width="384" height="384" x="0" y="0"/>
  </clipPath>
  <g id="surface20" clip-path="url(#clip6)">
   <path style="fill:rgb(0%,0%,0%)" d="M 52.5 120 L 79.5 120 C 81.984375 120 84 122.015625 84 124.5 L 84 151.5 C 84 153.984375 81.984375 156 79.5 156 L 52.5 156 C 50.015625 156 48 153.984375 48 151.5 L 48 124.5 C 48 122.015625 50.015625 120 52.5 120 Z M 52.5 120"/>
  </g>
  <mask id="mask6">
   <g filter="url(#alpha)">
    <rect width="384" height="384" x="0" y="0" style="fill:rgb(0%,0%,0%);fill-opacity:0.2"/>
   </g>
  </mask>
  <clipPath id="clip7">
   <rect width="384" height="384" x="0" y="0"/>
  </clipPath>
  <g id="surface23" clip-path="url(#clip7)">
   <path style="fill:rgb(0%,0%,0%)" d="M 52.5 168 L 79.5 168 C 81.984375 168 84 170.015625 84 172.5 L 84 199.5 C 84 201.984375 81.984375 204 79.5 204 L 52.5 204 C 50.015625 204 48 201.984375 48 199.5 L 48 172.5 C 48 170.015625 50.015625 168 52.5 168 Z M 52.5 168"/>
  </g>
 </defs>
 <g>
  <use mask="url(#mask0)" xlink:href="#surface5"/>
  <path style="fill:rgb(55.686275%,26.666667%,67.843137%)" d="M 40.808594 42.007812 C 31.5 42.007812 24.003906 49.4375 24.003906 58.671875 L 24.003906 325.335938 C 24.003906 334.570312 31.5 342 40.808594 342 L 343.191406 342 C 352.496094 342 359.996094 334.570312 359.996094 325.335938 L 359.996094 58.695312 C 359.996094 49.460938 352.492188 42.03125 343.191406 42.03125 L 40.808594 42.03125 Z M 40.808594 42.007812"/>
  <use mask="url(#mask1)" xlink:href="#surface8"/>
  <use mask="url(#mask2)" xlink:href="#surface11"/>
  <use mask="url(#mask3)" xlink:href="#surface14"/>
  <use mask="url(#mask4)" xlink:href="#surface17"/>
  <path style="fill:rgb(100%,100%,100%)" d="M 52.5 66 L 79.5 66 C 81.984375 66 84 68.015625 84 70.5 L 84 97.5 C 84 99.984375 81.984375 102 79.5 102 L 52.5 102 C 50.015625 102 48 99.984375 48 97.5 L 48 70.5 C 48 68.015625 50.015625 66 52.5 66 Z M 52.5 66"/>
  <use mask="url(#mask5)" xlink:href="#surface20"/>
  <path style="fill:rgb(100%,100%,100%)" d="M 52.5 114 L 79.5 114 C 81.984375 114 84 116.015625 84 118.5 L 84 145.5 C 84 147.984375 81.984375 150 79.5 150 L 52.5 150 C 50.015625 150 48 147.984375 48 145.5 L 48 118.5 C 48 116.015625 50.015625 114 52.5 114 Z M 52.5 114"/>
  <use mask="url(#mask6)" xlink:href="#surface23"/>
  <path style="fill:rgb(100%,100%,100%)" d="M 52.5 162 L 79.5 162 C 81.984375 162 84 164.015625 84 166.5 L 84 193.5 C 84 195.984375 81.984375 198 79.5 198 L 52.5 198 C 50.015625 198 48 195.984375 48 193.5 L 48 166.5 C 48 164.015625 50.015625 162 52.5 162 Z M 52.5 162"/>
  <path style="fill:rgb(100%,100%,100%)" d="M 52.5 210 L 79.5 210 C 81.984375 210 84 212.015625 84 214.5 L 84 241.5 C 84 243.984375 81.984375 246 79.5 246 L 52.5 246 C 50.015625 246 48 243.984375 48 241.5 L 48 214.5 C 48 212.015625 50.015625 210 52.5 210 Z M 52.5 210"/>
 </g>
</svg>
