<svg xmlns="http://www.w3.org/2000/svg" xmlns:xlink="http://www.w3.org/1999/xlink" width="384pt" height="384pt" version="1.1" viewBox="0 0 384 384">
 <defs>
  <filter id="alpha" width="100%" height="100%" x="0%" y="0%" filterUnits="objectBoundingBox">
   <feColorMatrix in="SourceGraphic" type="matrix" values="0 0 0 0 1 0 0 0 0 1 0 0 0 0 1 0 0 0 1 0"/>
  </filter>
  <mask id="mask0">
   <g filter="url(#alpha)">
    <rect width="384" height="384" x="0" y="0" style="fill:rgb(0%,0%,0%);fill-opacity:0.2"/>
   </g>
  </mask>
  <clipPath id="clip1">
   <rect width="384" height="384" x="0" y="0"/>
  </clipPath>
  <g id="surface5" clip-path="url(#clip1)">
   <path style="fill:rgb(0%,0%,0%)" d="M 192 24 C 95.605469 24 18 101.605469 18 198 C 18 294.394531 95.605469 372 192 372 C 288.394531 372 366 294.394531 366 198 C 366 101.605469 288.394531 24 192 24 Z M 192 24"/>
  </g>
  <mask id="mask1">
   <g filter="url(#alpha)">
    <rect width="384" height="384" x="0" y="0" style="fill:rgb(0%,0%,0%);fill-opacity:0.101961"/>
   </g>
  </mask>
  <clipPath id="clip2">
   <rect width="384" height="384" x="0" y="0"/>
  </clipPath>
  <g id="surface8" clip-path="url(#clip2)">
   <path style="fill:rgb(0%,0%,0%)" d="M 281.09375 287.089844 C 231.886719 336.296875 152.105469 336.296875 102.902344 287.089844 C 53.695312 237.886719 53.695312 158.105469 102.902344 108.898438 C 152.105469 59.695312 231.886719 59.695312 281.09375 108.898438 C 330.296875 158.105469 330.296875 237.886719 281.09375 287.089844 Z M 281.09375 287.089844"/>
  </g>
  <mask id="mask2">
   <g filter="url(#alpha)">
    <rect width="384" height="384" x="0" y="0" style="fill:rgb(0%,0%,0%);fill-opacity:0.2"/>
   </g>
  </mask>
  <clipPath id="clip3">
   <rect width="384" height="384" x="0" y="0"/>
  </clipPath>
  <g id="surface11" clip-path="url(#clip3)">
   <path style="fill:rgb(0%,0%,0%)" d="M 268.367188 121.632812 C 258.378906 111.644531 246.9375 104.101562 234.757812 98.828125 L 187.757812 202.242188 L 291.171875 155.242188 C 285.898438 143.0625 278.355469 131.621094 268.367188 121.632812 Z M 268.367188 121.632812"/>
  </g>
  <mask id="mask3">
   <g filter="url(#alpha)">
    <rect width="384" height="384" x="0" y="0" style="fill:rgb(0%,0%,0%);fill-opacity:0.2"/>
   </g>
  </mask>
  <clipPath id="clip4">
   <rect width="384" height="384" x="0" y="0"/>
  </clipPath>
  <g id="surface14" clip-path="url(#clip4)">
   <path style="fill:rgb(0%,0%,0%)" d="M 210 102 C 210 111.941406 201.941406 120 192 120 C 182.058594 120 174 111.941406 174 102 C 174 92.058594 182.058594 84 192 84 C 201.941406 84 210 92.058594 210 102 Z M 210 102"/>
  </g>
  <mask id="mask4">
   <g filter="url(#alpha)">
    <rect width="384" height="384" x="0" y="0" style="fill:rgb(0%,0%,0%);fill-opacity:0.2"/>
   </g>
  </mask>
  <clipPath id="clip5">
   <rect width="384" height="384" x="0" y="0"/>
  </clipPath>
  <g id="surface17" clip-path="url(#clip5)">
   <path style="fill:rgb(0%,0%,0%)" d="M 210 294 C 210 303.941406 201.941406 312 192 312 C 182.058594 312 174 303.941406 174 294 C 174 284.058594 182.058594 276 192 276 C 201.941406 276 210 284.058594 210 294 Z M 210 294"/>
  </g>
  <mask id="mask5">
   <g filter="url(#alpha)">
    <rect width="384" height="384" x="0" y="0" style="fill:rgb(0%,0%,0%);fill-opacity:0.2"/>
   </g>
  </mask>
  <clipPath id="clip6">
   <rect width="384" height="384" x="0" y="0"/>
  </clipPath>
  <g id="surface20" clip-path="url(#clip6)">
   <path style="fill:rgb(0%,0%,0%)" d="M 288 216 C 278.058594 216 270 207.941406 270 198 C 270 188.058594 278.058594 180 288 180 C 297.941406 180 306 188.058594 306 198 C 306 207.941406 297.941406 216 288 216 Z M 288 216"/>
  </g>
  <mask id="mask6">
   <g filter="url(#alpha)">
    <rect width="384" height="384" x="0" y="0" style="fill:rgb(0%,0%,0%);fill-opacity:0.2"/>
   </g>
  </mask>
  <clipPath id="clip7">
   <rect width="384" height="384" x="0" y="0"/>
  </clipPath>
  <g id="surface23" clip-path="url(#clip7)">
   <path style="fill:rgb(0%,0%,0%)" d="M 96 216 C 86.058594 216 78 207.941406 78 198 C 78 188.058594 86.058594 180 96 180 C 105.941406 180 114 188.058594 114 198 C 114 207.941406 105.941406 216 96 216 Z M 96 216"/>
  </g>
  <mask id="mask7">
   <g filter="url(#alpha)">
    <rect width="384" height="384" x="0" y="0" style="fill:rgb(0%,0%,0%);fill-opacity:0.2"/>
   </g>
  </mask>
  <clipPath id="clip8">
   <rect width="384" height="384" x="0" y="0"/>
  </clipPath>
  <g id="surface26" clip-path="url(#clip8)">
   <path style="fill:rgb(100%,100%,100%)" d="M 192 18 C 95.605469 18 18 95.605469 18 192 C 18 192.664062 18.070312 193.3125 18.105469 193.96875 C 20.242188 99.457031 96.957031 24 192 24 C 287.042969 24 363.757812 99.457031 365.894531 193.96875 C 365.929688 193.3125 366 192.664062 366 192 C 366 95.605469 288.394531 18 192 18 Z M 192 18"/>
  </g>
 </defs>
 <g>
  <use mask="url(#mask0)" xlink:href="#surface5"/>
  <path style="fill:rgb(71.764706%,76.470588%,80.392157%)" d="M 192 18 C 95.605469 18 18 95.605469 18 192 C 18 288.394531 95.605469 366 192 366 C 288.394531 366 366 288.394531 366 192 C 366 95.605469 288.394531 18 192 18 Z M 192 18"/>
  <use mask="url(#mask1)" xlink:href="#surface8"/>
  <path style="fill:rgb(29.803922%,29.803922%,29.803922%)" d="M 281.09375 281.09375 C 231.886719 330.296875 152.105469 330.296875 102.902344 281.09375 C 53.695312 231.886719 53.695312 152.105469 102.902344 102.902344 C 152.105469 53.695312 231.886719 53.695312 281.09375 102.902344 C 330.296875 152.105469 330.296875 231.886719 281.09375 281.09375 Z M 281.09375 281.09375"/>
  <use mask="url(#mask2)" xlink:href="#surface11"/>
  <path style="fill:rgb(24.313725%,80.392157%,96.470588%)" d="M 268.367188 115.632812 C 258.378906 105.644531 246.9375 98.101562 234.757812 92.828125 L 187.757812 196.242188 L 291.171875 149.242188 C 285.898438 137.0625 278.355469 125.621094 268.367188 115.632812 Z M 268.367188 115.632812"/>
  <use mask="url(#mask3)" xlink:href="#surface14"/>
  <path style="fill:rgb(97.647059%,87.058824%,41.176471%)" d="M 210 96 C 210 105.941406 201.941406 114 192 114 C 182.058594 114 174 105.941406 174 96 C 174 86.058594 182.058594 78 192 78 C 201.941406 78 210 86.058594 210 96 Z M 210 96"/>
  <use mask="url(#mask4)" xlink:href="#surface17"/>
  <path style="fill:rgb(97.647059%,87.058824%,41.176471%)" d="M 210 288 C 210 297.941406 201.941406 306 192 306 C 182.058594 306 174 297.941406 174 288 C 174 278.058594 182.058594 270 192 270 C 201.941406 270 210 278.058594 210 288 Z M 210 288"/>
  <use mask="url(#mask5)" xlink:href="#surface20"/>
  <path style="fill:rgb(97.647059%,87.058824%,41.176471%)" d="M 288 210 C 278.058594 210 270 201.941406 270 192 C 270 182.058594 278.058594 174 288 174 C 297.941406 174 306 182.058594 306 192 C 306 201.941406 297.941406 210 288 210 Z M 288 210"/>
  <use mask="url(#mask6)" xlink:href="#surface23"/>
  <path style="fill:rgb(97.647059%,87.058824%,41.176471%)" d="M 96 210 C 86.058594 210 78 201.941406 78 192 C 78 182.058594 86.058594 174 96 174 C 105.941406 174 114 182.058594 114 192 C 114 201.941406 105.941406 210 96 210 Z M 96 210"/>
  <use mask="url(#mask7)" xlink:href="#surface26"/>
 </g>
</svg>
