<svg width="512" height="512" version="1.1" viewBox="0 0 384 384" xmlns="http://www.w3.org/2000/svg"><defs><clipPath><rect width="384" height="384"/></clipPath><clipPath><rect width="384" height="384"/></clipPath><clipPath><rect width="384" height="384"/></clipPath></defs><g fill-rule="evenodd"><g transform="matrix(.20956 0 0 .20956 23.302 23.302)" fill="none"><g id="Group"><path id="Shape" d="m338.11 1017.5c0 93.115-76.066 169.18-169.18 169.18-93.115 0-169.18-76.066-169.18-169.18 0-93.115 76.066-169.18 169.18-169.18h169.18z" fill="#b8174a"/><path d="m423.36 1017.5c0-93.115 76.066-169.18 169.18-169.18 93.115 0 169.18 76.066 169.18 169.18v423.61c0 93.115-76.066 169.18-169.18 169.18-93.115 0-169.18-76.066-169.18-169.18z" fill="#b8174a"/><path d="m592.54 338.11c-93.115 0-169.18-76.066-169.18-169.18 0-93.115 76.066-169.18 169.18-169.18 93.115 0 169.18 76.066 169.18 169.18v169.18z" fill="#4aaee6"/><path d="m592.54 423.36c93.115 0 169.18 76.066 169.18 169.18 0 93.115-76.066 169.18-169.18 169.18h-423.61c-93.115 0-169.18-76.066-169.18-169.18 0-93.115 76.066-169.18 169.18-169.18z" fill="#4aaee6"/><path d="m1271.9 592.54c0-93.115 76.066-169.18 169.18-169.18 93.115 0 169.18 76.066 169.18 169.18 0 93.115-76.066 169.18-169.18 169.18h-169.18z" fill="#17a185"/><path d="m1186.6 592.54c0 93.115-76.066 169.18-169.18 169.18-93.115 0-169.18-76.066-169.18-169.18v-423.61c0-93.115 76.066-169.18 169.18-169.18 93.115 0 169.18 76.066 169.18 169.18z" fill="#17a185"/><path d="m1017.5 1271.9c93.115 0 169.18 76.066 169.18 169.18 0 93.115-76.066 169.18-169.18 169.18-93.115 0-169.18-76.066-169.18-169.18v-169.18z" fill="#ffc72e"/><path d="m1017.5 1186.6c-93.115 0-169.18-76.066-169.18-169.18 0-93.115 76.066-169.18 169.18-169.18h423.61c93.115 0 169.18 76.066 169.18 169.18 0 93.115-76.066 169.18-169.18 169.18z" fill="#ffc72e"/></g></g><path transform="scale(.75)" d="m196.63 31c-26.018 0-47.271 21.254-47.271 47.271 0 1.6887 0.09301 3.3559 0.26758 5 2.5149-23.686 22.675-42.271 47.004-42.271 26.018 0 47.271 21.254 47.271 47.271v-10c0-26.018-21.254-47.271-47.271-47.271zm118.73 0c-26.018 0-47.273 21.254-47.273 47.271v10c0-26.018 21.256-47.271 47.273-47.271s47.271 21.254 47.271 47.271v-10c0-26.018-21.254-47.271-47.271-47.271zm-237.09 118.36c-26.018 0-47.271 21.254-47.271 47.271 0 1.6887 0.093013 3.3559 0.26758 5 2.5149-23.686 22.675-42.271 47.004-42.271h118.36c24.329 0 44.489 18.586 47.004 42.271 0.17457-1.6441 0.26758-3.3113 0.26758-5 0-26.018-21.254-47.271-47.271-47.271h-118.36zm355.46 0c-26.018 0-47.273 21.254-47.273 47.271v10c0-26.018 21.256-47.271 47.273-47.271 24.329 0 44.489 18.586 47.004 42.271 0.17457-1.6441 0.26758-3.3113 0.26758-5 0-26.018-21.254-47.271-47.271-47.271zm-355.46 118.73c-26.018 0-47.271 21.256-47.271 47.273 0 1.6887 0.093013 3.3559 0.26758 5 2.5149-23.686 22.675-42.273 47.004-42.273h47.271v-10h-47.271zm118.36 0c-26.018 0-47.271 21.256-47.271 47.273v10c0-26.018 21.254-47.273 47.271-47.273s47.271 21.256 47.271 47.273v-10c0-26.018-21.254-47.273-47.271-47.273zm118.73 0c-26.018 0-47.273 21.256-47.273 47.273 0 1.6887 0.09299 3.3559 0.26758 5 2.5152-23.686 22.677-42.273 47.006-42.273h118.36c24.329 0 44.489 18.587 47.004 42.273 0.17457-1.6441 0.26758-3.3113 0.26758-5 0-26.018-21.254-47.273-47.271-47.273h-118.36zm-47.273 118.36v10h47.273c24.329 0 44.489 18.587 47.004 42.273 0.17457-1.6441 0.26758-3.3113 0.26758-5 0-26.018-21.254-47.273-47.271-47.273h-47.273z" fill="#fff" opacity=".3"/><path transform="scale(.75)" d="m149.63 73.271c-0.17457 1.6441-0.26758 3.3113-0.26758 5 0 26.018 21.254 47.271 47.271 47.271h47.271v-10h-47.271c-24.329 0-44.489-18.586-47.004-42.271zm118.46 113.36v10c0 26.018 21.256 47.271 47.273 47.271s47.271-21.254 47.271-47.271v-10c0 26.018-21.254 47.271-47.271 47.271s-47.273-21.254-47.273-47.271zm-236.82 5c-0.17456 1.6441-0.26758 3.3113-0.26758 5 0 26.018 21.254 47.271 47.271 47.271h118.36c26.018 0 47.271-21.254 47.271-47.271 0-1.6887-0.09301-3.3559-0.26758-5-2.5149 23.686-22.675 42.271-47.004 42.271h-118.36c-24.329 0-44.489-18.586-47.004-42.271zm449.46 0c-2.5149 23.686-22.675 42.271-47.004 42.271h-47.273v10h47.273c26.018 0 47.271-21.254 47.271-47.271 0-1.6887-0.09301-3.3559-0.26758-5zm-355.19 113.73c0 26.018-21.254 47.271-47.271 47.271-24.329 0-44.489-18.586-47.004-42.271-0.17456 1.6441-0.26758 3.3113-0.26758 5 0 26.018 21.254 47.271 47.271 47.271 26.018 0 47.271-21.254 47.271-47.271v-10zm142.82 5c-0.17459 1.6441-0.26758 3.3113-0.26758 5 0 26.018 21.256 47.271 47.273 47.271h118.36c26.018 0 47.271-21.254 47.271-47.271 0-1.6887-0.09301-3.3559-0.26758-5-2.5149 23.686-22.675 42.271-47.004 42.271h-118.36c-24.329 0-44.491-18.586-47.006-42.271zm-119 113.36v10c0 26.018 21.254 47.271 47.271 47.271s47.271-21.254 47.271-47.271v-10c0 26.018-21.254 47.271-47.271 47.271s-47.271-21.254-47.271-47.271zm118.73 0v10c0 26.018 21.256 47.271 47.273 47.271s47.271-21.254 47.271-47.271c0-1.6887-0.09301-3.3559-0.26758-5-2.5149 23.686-22.675 42.271-47.004 42.271-26.018 0-47.273-21.254-47.273-47.271z" fill="#21040d" opacity=".3"/></g></svg>
