<svg xmlns="http://www.w3.org/2000/svg" xmlns:xlink="http://www.w3.org/1999/xlink" width="384pt" height="384pt" version="1.1" viewBox="0 0 384 384">
 <defs>
  <filter id="alpha" width="100%" height="100%" x="0%" y="0%" filterUnits="objectBoundingBox">
   <feColorMatrix in="SourceGraphic" type="matrix" values="0 0 0 0 1 0 0 0 0 1 0 0 0 0 1 0 0 0 1 0"/>
  </filter>
  <mask id="mask0">
   <g filter="url(#alpha)">
    <rect width="384" height="384" x="0" y="0" style="fill:rgb(0%,0%,0%);fill-opacity:0.2"/>
   </g>
  </mask>
  <clipPath id="clip1">
   <rect width="384" height="384" x="0" y="0"/>
  </clipPath>
  <g id="surface5" clip-path="url(#clip1)">
   <path style="fill:rgb(0%,0%,0%)" d="M 24 219.613281 L 24 231.613281 C 24 306.070312 83.933594 366 158.386719 366 L 225.605469 366 C 300.066406 366 359.996094 306.070312 359.996094 231.613281 L 359.996094 219.613281 C 359.996094 294.070312 300.066406 354 225.605469 354 L 158.386719 354 C 83.933594 354 24 294.070312 24 219.613281 Z M 24 219.613281"/>
  </g>
  <mask id="mask1">
   <g filter="url(#alpha)">
    <rect width="384" height="384" x="0" y="0" style="fill:rgb(0%,0%,0%);fill-opacity:0.2"/>
   </g>
  </mask>
  <clipPath id="clip2">
   <rect width="384" height="384" x="0" y="0"/>
  </clipPath>
  <g id="surface8" clip-path="url(#clip2)">
   <path style="fill:rgb(100%,100%,100%)" d="M 158.390625 24 C 83.933594 24 24 83.933594 24 158.390625 L 24 164.390625 C 24 89.933594 83.933594 30 158.390625 30 L 225.609375 30 C 300.070312 30 360 89.933594 360 164.390625 L 360 158.390625 C 360 83.933594 300.070312 24 225.609375 24 Z M 158.390625 24"/>
  </g>
  <mask id="mask2">
   <g filter="url(#alpha)">
    <rect width="384" height="384" x="0" y="0" style="fill:rgb(0%,0%,0%);fill-opacity:0.2"/>
   </g>
  </mask>
  <clipPath id="clip3">
   <rect width="384" height="384" x="0" y="0"/>
  </clipPath>
  <g id="surface11" clip-path="url(#clip3)">
   <path style="fill:rgb(0%,0%,0%)" d="M 192.046875 30 L 192.140625 149.835938 L 192.304688 281.667969 L 227.71875 281.667969 L 227.8125 247.003906 C 227.878906 219.554688 227.964844 212.363281 228.28125 212.480469 C 228.5 212.566406 235.34375 223.070312 242.367188 235.824219 C 249.390625 248.574219 256.054688 260.445312 257.132812 262.214844 C 259.367188 265.875 263.75 270.933594 266.601562 273.113281 C 272.570312 277.671875 278.792969 280.015625 288.398438 281.316406 C 293.542969 282.011719 310.925781 282.261719 311.460938 281.644531 C 311.695312 281.375 311.777344 275.105469 311.71875 261.769531 L 311.625 240.117188 L 305.203125 239.882812 C 294 240 288.742188 237.070312 282.46875 228.863281 C 281.484375 227.269531 276.511719 218.3125 271.429688 208.964844 C 262.46875 192.480469 262.207031 191.929688 262.6875 191.082031 C 262.960938 190.601562 274.128906 172.621094 287.507812 151.121094 C 300.890625 129.625 311.933594 114.539062 312.027344 114.257812 C 312.167969 113.832031 308.746094 114 290.488281 114 L 268.738281 114 L 249.164062 142.472656 C 238.390625 159.773438 228.464844 173.988281 228.257812 174.066406 C 227.90625 174.203125 227.902344 73.921875 228.09375 30.164062 C 226.929688 30.15625 226.753906 30.019531 225.601562 30.019531 L 192.035156 30.019531 Z M 111.117188 114 C 106.632812 114.039062 102.253906 114.257812 100.148438 114.65625 C 82.855469 117.945312 71.207031 127.238281 64.582031 142.128906 C 62.484375 146.84375 61.199219 151.414062 60.386719 156.964844 C 59.84375 160.660156 59.800781 162.253906 59.941406 168.261719 C 60.058594 173.164062 60.265625 176.269531 60.691406 178.667969 C 63.59375 195.050781 71.304688 205.433594 85.757812 210.847656 C 90.421875 212.59375 93.335938 213.261719 105.820312 215.347656 C 112.757812 216.503906 118.046875 217.542969 119.15625 217.996094 C 123.929688 219.945312 126.15625 223.476562 126.5625 229.667969 C 127.0625 237.289062 123.355469 242.503906 115.875 244.667969 C 112.875 245.535156 107.386719 246.019531 103.523438 245.769531 C 90.832031 244.929688 82.546875 241.808594 75.375 235.125 L 74.53125 234.320312 L 63.679688 247.027344 C 57.699219 254.011719 52.804688 260.023438 52.804688 260.363281 C 52.804688 261.21875 57.820312 266.253906 61.664062 269.269531 C 71.367188 276.886719 81.664062 280.480469 97.992188 281.902344 C 101.421875 282.203125 114.066406 281.761719 117 281.246094 C 138.964844 277.398438 155.328125 264.257812 160.292969 244.707031 C 162.601562 235.621094 162.550781 221.886719 160.175781 211.707031 C 158.4375 204.230469 156.167969 199.550781 151.765625 194.355469 C 147.15625 188.945312 141.996094 186.136719 135.046875 183.410156 C 130.355469 181.574219 123.421875 180.699219 110.90625 178.660156 C 97.5625 176.464844 95.976562 175.910156 92.929688 172.585938 C 89.480469 168.820312 88.886719 163.804688 91.195312 158.308594 C 92.832031 154.433594 96.164062 152.226562 100.96875 150.6875 C 103.480469 149.886719 116.511719 149.808594 120.515625 150.546875 C 125.894531 151.539062 130.941406 153.394531 134.53125 156.789062 C 135.574219 157.777344 136.609375 158.59375 136.828125 158.59375 C 137.421875 158.59375 158.226562 134.148438 158.226562 133.445312 C 158.226562 132.636719 154.207031 128.652344 150.304688 125.59375 C 142.78125 119.695312 133.828125 116.082031 122.679688 114.460938 C 120.183594 114.097656 115.605469 113.953125 111.121094 113.992188 Z M 111.117188 114"/>
  </g>
 </defs>
 <g>
  <use mask="url(#mask0)" xlink:href="#surface5"/>
  <path style="fill:rgb(96.470588%,27.843137%,27.843137%)" d="M 158.398438 24 L 225.601562 24 C 299.828125 24 360 84.171875 360 158.398438 L 360 225.601562 C 360 299.828125 299.828125 360 225.601562 360 L 158.398438 360 C 84.171875 360 24 299.828125 24 225.601562 L 24 158.398438 C 24 84.171875 84.171875 24 158.398438 24 Z M 158.398438 24"/>
  <use mask="url(#mask1)" xlink:href="#surface8"/>
  <use mask="url(#mask2)" xlink:href="#surface11"/>
  <path style="fill:rgb(100%,100%,100%)" d="M 192.046875 24 L 192.140625 143.835938 L 192.304688 275.667969 L 227.71875 275.667969 L 227.8125 241.003906 C 227.878906 213.554688 227.964844 206.363281 228.28125 206.480469 C 228.5 206.5625 235.34375 217.070312 242.367188 229.824219 C 249.390625 242.574219 256.054688 254.441406 257.132812 256.214844 C 259.367188 259.875 263.75 264.933594 266.601562 267.113281 C 272.570312 271.671875 278.792969 274.015625 288.398438 275.316406 C 293.542969 276.011719 310.925781 276.257812 311.460938 275.644531 C 311.695312 275.375 311.777344 269.105469 311.71875 255.769531 L 311.625 234.117188 L 305.203125 233.882812 C 294 234 288.742188 231.066406 282.46875 222.863281 C 281.484375 221.269531 276.511719 212.3125 271.429688 202.964844 C 262.46875 186.480469 262.207031 185.929688 262.6875 185.082031 C 262.960938 184.601562 274.128906 166.621094 287.507812 145.121094 C 300.890625 123.621094 311.933594 108.539062 312.027344 108.257812 C 312.167969 107.828125 308.746094 108 290.488281 108 L 268.738281 108 L 249.164062 136.472656 C 238.390625 153.773438 228.464844 167.988281 228.257812 168.066406 C 227.90625 168.203125 227.902344 67.921875 228.09375 24.164062 C 226.929688 24.15625 226.753906 24.019531 225.601562 24.019531 L 192.035156 24.019531 Z M 111.117188 108 C 106.632812 108.039062 102.253906 108.257812 100.148438 108.65625 C 82.855469 111.941406 71.207031 121.234375 64.582031 136.128906 C 62.484375 140.84375 61.199219 145.410156 60.386719 150.964844 C 59.84375 154.660156 59.800781 156.253906 59.941406 162.261719 C 60.058594 167.164062 60.265625 170.269531 60.691406 172.667969 C 63.59375 189.050781 71.304688 199.429688 85.757812 204.847656 C 90.421875 206.59375 93.335938 207.261719 105.820312 209.347656 C 112.757812 210.503906 118.046875 211.539062 119.15625 211.996094 C 123.929688 213.945312 126.15625 217.476562 126.5625 223.667969 C 127.0625 231.285156 123.355469 236.5 115.875 238.667969 C 112.875 239.535156 107.386719 240.019531 103.523438 239.769531 C 90.832031 238.929688 82.546875 235.808594 75.375 229.125 L 74.53125 228.320312 L 63.679688 241.027344 C 57.699219 248.011719 52.804688 254.023438 52.804688 254.363281 C 52.804688 255.21875 57.820312 260.25 61.664062 263.269531 C 71.367188 270.886719 81.664062 274.480469 97.992188 275.902344 C 101.421875 276.203125 114.066406 275.757812 117 275.246094 C 138.964844 271.398438 155.328125 258.257812 160.292969 238.707031 C 162.601562 229.621094 162.550781 215.886719 160.175781 205.707031 C 158.4375 198.230469 156.167969 193.550781 151.765625 188.355469 C 147.15625 182.941406 141.996094 180.136719 135.046875 177.410156 C 130.355469 175.574219 123.421875 174.699219 110.90625 172.660156 C 97.5625 170.464844 95.976562 169.910156 92.929688 166.585938 C 89.480469 162.820312 88.886719 157.804688 91.195312 152.308594 C 92.832031 148.429688 96.164062 146.222656 100.96875 144.6875 C 103.480469 143.886719 116.511719 143.808594 120.515625 144.546875 C 125.894531 145.539062 130.941406 147.394531 134.53125 150.789062 C 135.574219 151.777344 136.609375 152.59375 136.828125 152.59375 C 137.421875 152.59375 158.226562 128.144531 158.226562 127.445312 C 158.226562 126.632812 154.207031 122.652344 150.304688 119.59375 C 142.78125 113.695312 133.828125 110.082031 122.679688 108.460938 C 120.183594 108.097656 115.605469 107.953125 111.121094 107.992188 Z M 111.117188 108"/>
 </g>
</svg>
