<svg xmlns="http://www.w3.org/2000/svg" xmlns:xlink="http://www.w3.org/1999/xlink" width="384pt" height="384pt" version="1.1" viewBox="0 0 384 384"> <defs> <filter id="alpha" width="100%" height="100%" x="0%" y="0%" filterUnits="objectBoundingBox"> <feColorMatrix in="SourceGraphic" type="matrix" values="0 0 0 0 1 0 0 0 0 1 0 0 0 0 1 0 0 0 1 0"/> </filter> <mask id="mask0"> <g filter="url(#alpha)"> <rect width="384" height="384" x="0" y="0" style="fill:rgb(0%,0%,0%);fill-opacity:0.2"/> </g> </mask> <clipPath id="clip1"> <rect width="384" height="384" x="0" y="0"/> </clipPath> <g id="surface5" clip-path="url(#clip1)"> <path style="fill:rgb(0%,0%,0%)" d="M 24.304688 192.003906 C 24.234375 194.007812 24 195.972656 24 198.003906 C 24 291.074219 98.925781 366 191.996094 366 C 285.066406 366 359.996094 291.074219 359.996094 198.003906 C 359.996094 195.972656 359.753906 194.007812 359.695312 192.003906 C 356.527344 282.253906 283.039062 354 191.996094 354 C 100.953125 354 27.46875 282.253906 24.300781 192.003906 Z M 24.304688 192.003906"/> </g> <mask id="mask1"> <g filter="url(#alpha)"> <rect width="384" height="384" x="0" y="0" style="fill:rgb(0%,0%,0%);fill-opacity:0.2"/> </g> </mask> <clipPath id="clip2"> <rect width="384" height="384" x="0" y="0"/> </clipPath> <g id="surface8" clip-path="url(#clip2)"> <path style="fill:rgb(100.000%,100.000%,100.000%)" d="M 191.996094 78.003906 C 125.519531 78.003906 72 131.523438 72 198.003906 C 72 264.480469 125.519531 318 191.996094 318 C 258.476562 318 311.996094 264.480469 311.996094 198.003906 C 311.996094 131.523438 258.476562 78.003906 191.996094 78.003906 Z M 191.996094 114.003906 C 238.390625 114.003906 275.996094 151.609375 275.996094 198.003906 C 275.996094 244.394531 238.390625 282 191.996094 282 C 145.605469 282 108 244.394531 108 198.003906 C 108 151.609375 145.605469 114.003906 191.996094 114.003906 Z M 191.996094 114.003906"/> </g> <mask id="mask2"> <g filter="url(#alpha)"> <rect width="384" height="384" x="0" y="0" style="fill:rgb(0%,0%,0%);fill-opacity:0.2"/> </g> </mask> <clipPath id="clip3"> <rect width="384" height="384" x="0" y="0"/> </clipPath> <g id="surface11" clip-path="url(#clip3)"> <path style="fill:rgb(100.000%,100.000%,100.000%)" d="M 192 24 C 98.929688 24 24 98.929688 24 192 C 24 192.679688 24.066406 193.34375 24.105469 194.015625 C 26.214844 102.804688 100.265625 30 192 30 C 283.734375 30 357.785156 102.804688 359.894531 194.015625 C 359.933594 193.34375 360 192.679688 360 192 C 360 98.929688 285.070312 24 192 24 Z M 192 24"/> </g> </defs> <g> <use mask="url(#mask0)" xlink:href="#surface5"/> <path style="fill:rgb(40.784%,29.803%,20.784%)" d="M 360 192.003906 C 360 99.222656 284.785156 24.007812 192.003906 24.007812 C 99.222656 24.007812 24.007812 99.222656 24.007812 192.003906 C 24.007812 284.785156 99.222656 360 192.003906 360 C 284.785156 360 360 284.785156 360 192.003906 Z M 360 192.003906"/> <use mask="url(#mask1)" xlink:href="#surface8"/> <path style="fill:rgb(97.254%,87.058%,40.784%)" d="M 191.996094 72.003906 C 125.519531 72.003906 72 125.523438 72 192.003906 C 72 258.480469 125.519531 312 191.996094 312 C 258.476562 312 311.996094 258.480469 311.996094 192.003906 L 275.996094 192.003906 C 275.996094 238.394531 238.390625 276 191.996094 276 C 145.605469 276 108 238.394531 108 192.003906 C 108 145.609375 145.605469 108.003906 191.996094 108.003906 Z M 191.996094 72.003906"/> <use mask="url(#mask2)" xlink:href="#surface11"/> <path style="fill:rgb(99.215%,49.019%,0%)" d="M 191.996094 72.003906 L 191.996094 108.003906 C 238.390625 108.003906 275.996094 145.609375 275.996094 192.003906 L 311.996094 192.003906 C 311.996094 125.523438 258.476562 72.003906 191.996094 72.003906 Z M 191.996094 72.003906"/> </g> </svg>
