<svg xmlns="http://www.w3.org/2000/svg" xmlns:xlink="http://www.w3.org/1999/xlink" width="512" height="512" version="1.1" viewBox="0 0 384 384"> <defs> <filter id="alpha" width="100%" height="100%" x="0%" y="0%" filterUnits="objectBoundingBox"> <feColorMatrix in="SourceGraphic" type="matrix" values="0 0 0 0 1 0 0 0 0 1 0 0 0 0 1 0 0 0 1 0"/> </filter> <mask id="mask0"> <g filter="url(#alpha)"> <rect width="384" height="384" x="0" y="0" style="fill:rgb(0%,0%,0%);fill-opacity:0.2"/> </g> </mask> <clipPath id="clip1"> <rect width="384" height="384" x="0" y="0"/> </clipPath> <g id="surface5" clip-path="url(#clip1)"> <path style="fill:rgb(0%,0%,0%)" d="M 24 337.199219 L 24 349.199219 C 24 358.5 31.496094 366 40.804688 366 L 343.199219 366 C 352.5 366 360 358.5 360 349.199219 L 360 337.199219 C 360 346.5 352.5 354 343.199219 354 L 40.804688 354 C 31.503906 354 24.003906 346.5 24.003906 337.199219 Z M 24 337.199219"/> </g> <mask id="mask1"> <g filter="url(#alpha)"> <rect width="384" height="384" x="0" y="0" style="fill:rgb(0%,0%,0%);fill-opacity:0.2"/> </g> </mask> <clipPath id="clip2"> <rect width="384" height="384" x="0" y="0"/> </clipPath> <g id="surface8" clip-path="url(#clip2)"> <path style="fill:rgb(0%,0%,0%)" d="M 204.417969 126.003906 C 179.269531 126.035156 156.292969 139.777344 145.144531 161.464844 C 140.441406 159.105469 135.234375 157.867188 129.933594 157.855469 C 111.652344 157.855469 96.816406 172.117188 96.816406 189.707031 C 96.828125 190.816406 96.894531 191.929688 97.027344 193.035156 C 82.40625 198.699219 72 213.085938 72 230.183594 C 72 252.242188 89.226562 270 110.625 270 L 265.097656 270 C 268.546875 270 271.835938 269.390625 275.011719 268.523438 C 296.460938 264.585938 311.980469 246.550781 311.996094 225.539062 C 311.976562 202.640625 293.613281 183.617188 269.878906 181.902344 C 269.878906 181.898438 270.019531 181.761719 270.019531 181.761719 C 265.855469 149.925781 237.761719 126.035156 204.414062 125.996094 Z M 191.996094 162.003906 L 239.996094 210.003906 L 203.996094 210.003906 L 203.996094 258 L 179.996094 258 L 179.996094 210.003906 L 144 210.003906 L 167.996094 186.003906 Z M 191.996094 162.003906"/> </g> <mask id="mask2"> <g filter="url(#alpha)"> <rect width="384" height="384" x="0" y="0" style="fill:rgb(0%,0%,0%);fill-opacity:0.2"/> </g> </mask> <clipPath id="clip3"> <rect width="384" height="384" x="0" y="0"/> </clipPath> <g id="surface11" clip-path="url(#clip3)"> <path style="fill:rgb(100.000%,100.000%,100.000%)" d="M 40.804688 24 C 31.496094 24 24 31.496094 24 40.804688 L 24 46.804688 C 24 37.496094 31.496094 30 40.804688 30 L 343.195312 30 C 352.496094 30 360 37.496094 360 46.804688 L 360 40.804688 C 360 31.496094 352.496094 24 343.195312 24 Z M 40.804688 24"/> </g> </defs> <g> <use mask="url(#mask0)" xlink:href="#surface5"/> <path style="fill:rgb(99.215%,28.627%,28.627%)" d="M 360 343.199219 L 360 40.804688 C 360 31.527344 352.476562 24.007812 343.199219 24.007812 L 40.804688 24.007812 C 31.527344 24.007812 24.007812 31.527344 24.007812 40.804688 L 24.007812 343.199219 C 24.007812 352.476562 31.527344 360 40.804688 360 L 343.199219 360 C 352.476562 360 360 352.476562 360 343.199219 Z M 360 343.199219"/> <use mask="url(#mask1)" xlink:href="#surface8"/> <path style="fill:rgb(100.000%,100.000%,100.000%)" d="M 204.417969 120 C 179.265625 120.039062 156.296875 133.777344 145.148438 155.460938 C 140.445312 153.109375 135.238281 151.859375 129.933594 151.847656 C 111.652344 151.847656 96.820312 166.117188 96.820312 183.707031 C 96.828125 184.8125 96.898438 185.929688 97.03125 187.03125 C 82.40625 192.695312 72 207.082031 72 224.183594 C 72 246.238281 89.230469 264 110.625 264 L 265.097656 264 C 268.542969 264 271.828125 263.386719 275.011719 262.523438 C 296.453125 258.585938 311.980469 240.550781 311.992188 219.539062 C 311.980469 196.632812 293.609375 177.613281 269.875 175.894531 L 270.019531 175.753906 C 265.855469 143.929688 237.761719 120.039062 204.414062 120 Z M 191.996094 156 L 239.996094 204 L 203.996094 204 L 203.996094 252 L 179.996094 252 L 179.996094 204 L 144 204 L 167.996094 180 Z M 191.996094 156"/> <use mask="url(#mask2)" xlink:href="#surface11"/> </g> </svg>
