<svg xmlns="http://www.w3.org/2000/svg" xmlns:xlink="http://www.w3.org/1999/xlink" width="384pt" height="384pt" version="1.1" viewBox="0 0 384 384"> <defs> <filter id="alpha" width="100%" height="100%" x="0%" y="0%" filterUnits="objectBoundingBox"> <feColorMatrix in="SourceGraphic" type="matrix" values="0 0 0 0 1 0 0 0 0 1 0 0 0 0 1 0 0 0 1 0"/> </filter> <mask id="mask0"> <g filter="url(#alpha)"> <rect width="384" height="384" x="0" y="0" style="fill:rgb(0%,0%,0%);fill-opacity:0.2"/> </g> </mask> <clipPath id="clip1"> <rect width="384" height="384" x="0" y="0"/> </clipPath> <g id="surface5" clip-path="url(#clip1)"> <path style="fill:rgb(0%,0%,0%)" d="M 360 349.199219 L 360 46.800781 C 360 37.523438 352.476562 30 343.199219 30 L 40.800781 30 C 31.523438 30 24 37.523438 24 46.800781 L 24 349.199219 C 24 358.476562 31.523438 366 40.800781 366 L 343.199219 366 C 352.476562 366 360 358.476562 360 349.199219 Z M 360 349.199219"/> </g> <mask id="mask1"> <g filter="url(#alpha)"> <rect width="384" height="384" x="0" y="0" style="fill:rgb(0%,0%,0%);fill-opacity:0.2"/> </g> </mask> <clipPath id="clip2"> <rect width="384" height="384" x="0" y="0"/> </clipPath> <g id="surface8" clip-path="url(#clip2)"> <path style="fill:rgb(0%,0%,0%)" d="M 252.46875 71.988281 C 246.390625 71.941406 240.257812 74.136719 235.6875 78.316406 C 227.597656 85.710938 225.640625 98.261719 231.046875 107.964844 C 234.085938 113.417969 241.839844 118.730469 248.203125 119.707031 C 262.703125 121.929688 276 110.578125 276 95.964844 C 276 86.886719 269.992188 77.609375 261.75 73.957031 C 258.816406 72.65625 255.652344 72.015625 252.46875 71.988281 Z M 299.859375 119.847656 C 296.328125 119.921875 293.011719 121.550781 290.789062 124.300781 L 269.203125 150.222656 L 242.484375 123.503906 C 240.234375 121.253906 237.183594 119.988281 234 119.988281 L 175.195312 119.988281 C 171.714844 119.988281 168.402344 121.503906 166.125 124.136719 L 134.929688 160.136719 C 123.820312 172.269531 142.652344 188.574219 153.070312 175.839844 L 180.679688 143.988281 L 193.898438 143.988281 L 154.570312 192.667969 L 133.59375 215.988281 L 78 215.988281 C 53.65625 215.644531 53.65625 252.332031 78 251.988281 L 141.609375 251.988281 C 146.703125 251.984375 151.558594 249.820312 154.96875 246.035156 L 176.367188 222.269531 L 202.453125 241.816406 L 186.234375 303.035156 C 182.292969 326.726562 217.832031 332.632812 221.765625 308.941406 L 239.765625 236.941406 C 240.863281 230.3125 238.179688 223.625 232.804688 219.597656 L 207.304688 200.472656 L 242.25 157.207031 L 261.515625 176.472656 C 266.503906 181.457031 274.691406 181.085938 279.210938 175.675781 L 309.210938 139.675781 C 315.988281 131.804688 310.242188 119.625 299.859375 119.847656 Z M 299.859375 119.847656"/> </g> <mask id="mask2"> <g filter="url(#alpha)"> <rect width="384" height="384" x="0" y="0" style="fill:rgb(0%,0%,0%);fill-opacity:0.2"/> </g> </mask> <clipPath id="clip3"> <rect width="384" height="384" x="0" y="0"/> </clipPath> <g id="surface11" clip-path="url(#clip3)"> <path style="fill:rgb(100.000%,100.000%,100.000%)" d="M 40.804688 24 C 31.496094 24 24 31.496094 24 40.804688 L 24 46.804688 C 24 37.496094 31.496094 30 40.804688 30 L 343.195312 30 C 352.503906 30 360 37.496094 360 46.804688 L 360 40.804688 C 360 31.496094 352.503906 24 343.195312 24 Z M 40.804688 24"/> </g> </defs> <g> <use mask="url(#mask0)" xlink:href="#surface5"/> <path style="fill:rgb(23.137%,54.509%,72.156%)" d="M 360 343.199219 L 360 40.800781 C 360 31.523438 352.476562 24 343.199219 24 L 40.800781 24 C 31.523438 24 24 31.523438 24 40.800781 L 24 343.199219 C 24 352.476562 31.523438 360 40.800781 360 L 343.199219 360 C 352.476562 360 360 352.476562 360 343.199219 Z M 360 343.199219"/> <use mask="url(#mask1)" xlink:href="#surface8"/> <path style="fill:rgb(100.000%,100.000%,100.000%)" d="M 252.460938 65.875 C 246.382812 65.828125 240.265625 68.015625 235.695312 72.191406 C 227.601562 79.589844 225.628906 92.15625 231.035156 101.855469 C 234.074219 107.308594 241.84375 112.621094 248.207031 113.59375 C 262.707031 115.816406 276 104.460938 276 89.847656 C 276 80.769531 269.996094 71.5 261.753906 67.847656 C 258.820312 66.546875 255.648438 65.902344 252.460938 65.875 Z M 252.460938 65.875"/> <path style="fill:none;stroke-width:4;stroke-linecap:round;stroke-linejoin:round;stroke:rgb(100.000%,100.000%,100.000%)" d="M 24 26.000242 L 29.19987 20.000242 L 39 20.000242 L 45 26.000242 L 50 20.000242" transform="matrix(6,0,0,6,0,5.873549)"/> <path style="fill:none;stroke-width:6;stroke-linecap:round;stroke-linejoin:round;stroke:rgb(100.000%,100.000%,100.000%)" d="M 13 37.000242 L 23.60026 37.000242 L 29 31.000242 L 37 37.000242 L 34 49.000242" transform="matrix(6,0,0,6,0,5.873549)"/> <path style="fill:rgb(100.000%,100.000%,100.000%)" d="M 152.371094 189.257812 L 212.433594 114.917969 L 249.039062 142.679688 L 188.972656 217.023438 Z M 152.371094 189.257812"/> <use mask="url(#mask2)" xlink:href="#surface11"/> </g> </svg>
