<svg xmlns="http://www.w3.org/2000/svg" xmlns:xlink="http://www.w3.org/1999/xlink" width="384pt" height="384pt" version="1.1" viewBox="0 0 384 384"> <defs> <filter id="alpha" width="100%" height="100%" x="0%" y="0%" filterUnits="objectBoundingBox"> <feColorMatrix in="SourceGraphic" type="matrix" values="0 0 0 0 1 0 0 0 0 1 0 0 0 0 1 0 0 0 1 0"/> </filter> <mask id="mask0"> <g filter="url(#alpha)"> <rect width="384" height="384" x="0" y="0" style="fill:rgb(0%,0%,0%);fill-opacity:0.2"/> </g> </mask> <clipPath id="clip1"> <rect width="384" height="384" x="0" y="0"/> </clipPath> <g id="surface5" clip-path="url(#clip1)"> <path style="fill:rgb(0%,0%,0%)" d="M 24.007812 267 L 24.007812 279 C 24.007812 289.34375 32.332031 299.605469 42.664062 300 L 198 300 L 240 348 L 282 300 L 341.335938 300 C 351.679688 300 359.996094 289.34375 359.996094 279 L 359.996094 267 C 359.996094 277.34375 351.679688 288 341.335938 288 L 282 288 L 240 336 L 198 288 L 42.664062 288 C 32.324219 287.605469 24 277.34375 24 267 Z M 24.007812 267"/> </g> <mask id="mask1"> <g filter="url(#alpha)"> <rect width="384" height="384" x="0" y="0" style="fill:rgb(0%,0%,0%);fill-opacity:0.2"/> </g> </mask> <clipPath id="clip2"> <rect width="384" height="384" x="0" y="0"/> </clipPath> <g id="surface8" clip-path="url(#clip2)"> <path style="fill:rgb(0%,0%,0%)" d="M 120 108 L 120 120 L 264 120 L 264 108 Z M 120 144 L 120 156 L 264 156 L 264 144 Z M 120 180 L 120 192 L 264 192 L 264 180 Z M 120 216 L 120 228 L 216 228 L 216 216 Z M 120 216"/> </g> <mask id="mask2"> <g filter="url(#alpha)"> <rect width="384" height="384" x="0" y="0" style="fill:rgb(0%,0%,0%);fill-opacity:0.101961"/> </g> </mask> <clipPath id="clip3"> <rect width="384" height="384" x="0" y="0"/> </clipPath> <g id="surface11" clip-path="url(#clip3)"> <path style="fill:rgb(100.000%,100.000%,100.000%)" d="M 42.667969 42.011719 C 32.328125 42.011719 24.011719 52.671875 24.011719 63.011719 L 24.011719 69.011719 C 24.011719 58.671875 32.328125 48.011719 42.667969 48.011719 L 341.332031 48.011719 C 351.675781 48.011719 360 58.671875 360 69.011719 L 360 63.011719 C 360 52.671875 351.675781 42.011719 341.332031 42.011719 Z M 42.667969 42.011719"/> </g> </defs> <g> <use mask="url(#mask0)" xlink:href="#surface5"/> <path style="fill:rgb(29.803%,29.803%,29.803%)" d="M 42.675781 42.007812 C 32.332031 42.007812 24.007812 52.664062 24.007812 63.007812 L 24.007812 273 C 24.007812 283.34375 32.339844 293.605469 42.675781 294 L 198 294 L 239.996094 342 L 281.996094 294 L 341.328125 294 C 351.671875 294 360 283.34375 360 273 L 360 63.007812 C 360 52.664062 351.671875 42.007812 341.328125 42.007812 Z M 42.675781 42.007812"/> <use mask="url(#mask1)" xlink:href="#surface8"/> <path style="fill:rgb(100.000%,78.039%,18.823%)" d="M 120 102 L 120 114 L 264 114 L 264 102 Z M 120 138 L 120 150 L 264 150 L 264 138 Z M 120 174 L 120 186 L 264 186 L 264 174 Z M 120 210 L 120 222 L 216 222 L 216 210 Z M 120 210"/> <use mask="url(#mask2)" xlink:href="#surface11"/> </g> </svg>
