<svg width="512" height="512" version="1.1" viewBox="0 0 384 384" xmlns="http://www.w3.org/2000/svg"><path d="m341.32 37.504c10.344 0 18.668 10.656 18.668 21v209.99c0 10.344-8.332 20.605-18.668 21h-155.32l-41.996 48-42-48h-59.332c-10.344 0-18.672-10.656-18.672-21v-209.99c0-10.344 8.3281-21 18.672-21z" fill="#1ea6ae"/><path transform="scale(.75)" d="m32 347.99v10c0 13.792 11.105 28 24.896 28h79.109l56 64 55.994-64h207.1c13.781-0.52604 24.891-14.208 24.891-28v-10c0 13.792-11.109 27.474-24.891 28h-207.1l-55.994 64-56-64h-79.109c-13.792 0-24.896-14.208-24.896-28z" opacity=".3" stroke-width="1.3333"/><path d="m384 294c0 49.706-40.294 90-90 90s-90-40.294-90-90 40.294-90 90-90 90 40.294 90 90z" fill-rule="evenodd" opacity=".3" stroke-width=".9375"/><path d="m95.593 80.869v16.881h192.81v-16.881zm0 46.144v16.881h192.81v-16.881zm0 46.144v16.881h192.81v-16.881zm0 46.144v16.881h128.54v-16.881z" fill="#fff"/><g stroke-width=".9375"><path d="m384 286.5c0 49.706-40.294 90-90 90s-90-40.294-90-90 40.294-90 90-90 90 40.294 90 90z" fill="#8b41aa" fill-rule="evenodd"/><path d="m249 318.95v20.047h20.047l50.629-50.629-20.043-20.047zm88.411-48.252c2.1203-2.1204 2.1203-5.4602 0-7.5805l-12.528-12.528c-2.1203-2.1203-5.4638-2.1203-7.5842 0l-10.474 10.539 20.047 20.047z" opacity=".3"/><path d="m249 311.45v20.047h20.047l50.629-50.629-20.043-20.047zm88.411-48.252c2.1203-2.1204 2.1203-5.4602 0-7.5805l-12.528-12.528c-2.1203-2.1203-5.4638-2.1203-7.5842 0l-10.474 10.539 20.047 20.047z" fill="#fff"/></g><path transform="scale(.75)" d="m56.896 50.006c-13.792 0-24.896 14.208-24.896 28v10c0-13.792 11.105-28 24.896-28h398.2c13.792 0 24.891 14.208 24.891 28v-10c0-13.792-11.099-28-24.891-28h-398.2z" fill="#fff" opacity=".3" stroke-width="1.3333"/></svg>
