<svg width="512" height="512" version="1.1" viewBox="0 0 384 384" xmlns="http://www.w3.org/2000/svg"><defs><clipPath><rect width="384" height="384"/></clipPath><clipPath><rect width="384" height="384"/></clipPath><clipPath><rect width="384" height="384"/></clipPath></defs><path d="m192 24c-92.785 0-168 75.215-168 168 0 92.785 75.215 168 168 168 92.785 0 168-75.215 168-168 0-92.785-75.215-168-168-168z" fill="#4aaee6"/><path d="m138.2 115.5c-0.27912-4e-3 -0.55933 4.9e-4 -0.84083 0.0117-4.043 0.16406-7.6992 1.8364-9.7266 4.4458l-42.023 54.171c-2.1406 2.7578-2.1406 6.1558 0 8.9136 2.1367 2.7578 6.0898 4.4575 10.371 4.4575h24.023v78.672c0 9.5703 7.7573 17.328 17.328 17.328h1.3447c9.5703 0 17.328-7.7573 17.328-17.328v-78.672h24.023c4.2812 0 8.2344-1.6997 10.371-4.4575 2.1406-2.7578 2.1406-6.1558 0-8.9136l-42.023-54.171c-2.1167-2.7246-5.9881-4.4061-10.175-4.4575zm107.13 0c-9.5703 0-17.328 7.7573-17.328 17.328v78.672h-24.023c-4.2812 0-8.2344 1.6997-10.371 4.4575-2.1406 2.7578-2.1406 6.1558 0 8.9136l42.023 54.171c2.0273 2.6094 5.6836 4.2817 9.7266 4.4458 4.5039 0.17969 8.7578-1.5396 11.016-4.4458l42.023-54.171c2.1406-2.7578 2.1406-6.1558 0-8.9136-2.1367-2.7578-6.0899-4.4575-10.371-4.4575h-24.023v-78.672c0-9.5703-7.7573-17.328-17.328-17.328z" opacity=".3"/><path d="m138.2 108c-0.27911-3e-3 -0.55933 4.9e-4 -0.84083 0.0117-4.043 0.16406-7.6992 1.8364-9.7266 4.4458l-42.023 54.171c-2.1406 2.7578-2.1406 6.1558 0 8.9136 2.1367 2.7578 6.0898 4.4575 10.371 4.4575h24.023v78.672c0 9.5703 7.7573 17.328 17.328 17.328h1.3447c9.5703 0 17.328-7.7573 17.328-17.328v-78.672h24.023c4.2812 0 8.2344-1.6997 10.371-4.4575 2.1406-2.7578 2.1406-6.1558 0-8.9136l-42.023-54.171c-2.1167-2.7246-5.9881-4.4061-10.175-4.4575zm107.13 0c-9.5703 0-17.328 7.7573-17.328 17.328v78.672h-24.023c-4.2812 0-8.2344 1.6997-10.371 4.4575-2.1406 2.7578-2.1406 6.1558 0 8.9136l42.023 54.171c2.0273 2.6094 5.6836 4.2818 9.7266 4.4458 4.5039 0.17968 8.7578-1.5396 11.016-4.4458l42.023-54.171c2.1406-2.7578 2.1406-6.1558 0-8.9136-2.1367-2.7578-6.0899-4.4575-10.371-4.4575h-24.023v-78.672c0-9.5703-7.7573-17.328-17.328-17.328z" fill="#fff"/><path transform="scale(.75)" d="m32.062 251c-0.036438 1.6631-0.0625 3.3282-0.0625 5 0 123.71 100.29 224 224 224 123.71 0 224-100.29 224-224 0-1.6718-0.02606-3.3369-0.0625-5-2.66 121.4-101.9 219-223.94 219-122.04 0-221.28-97.597-223.94-219z" opacity=".3" stroke-width="1.3333"/><path transform="scale(.75)" d="m256 32c-123.71 0-224 100.29-224 224 0 1.6718 0.026062 3.3369 0.0625 5 2.66-121.4 101.9-219 223.94-219 122.04 0 221.28 97.597 223.94 219 0.03644-1.6631 0.0625-3.3282 0.0625-5 0-123.71-100.29-224-224-224z" fill="#fff" opacity=".3" stroke-width="1.3333"/></svg>
