<svg xmlns="http://www.w3.org/2000/svg" xmlns:xlink="http://www.w3.org/1999/xlink" width="384pt" height="384pt" version="1.1" viewBox="0 0 384 384">
 <defs>
  <filter id="alpha" width="100%" height="100%" x="0%" y="0%" filterUnits="objectBoundingBox">
   <feColorMatrix in="SourceGraphic" type="matrix" values="0 0 0 0 1 0 0 0 0 1 0 0 0 0 1 0 0 0 1 0"/>
  </filter>
  <mask id="mask0">
   <g filter="url(#alpha)">
    <rect width="384" height="384" x="0" y="0" style="fill:rgb(0%,0%,0%);fill-opacity:0.2"/>
   </g>
  </mask>
  <clipPath id="clip1">
   <rect width="384" height="384" x="0" y="0"/>
  </clipPath>
  <g id="surface5" clip-path="url(#clip1)">
   <path style="fill:rgb(0%,0%,0%)" d="M 60.136719 30 C 72.144531 46.613281 78.28125 64.242188 60.136719 90 C 58.230469 112.519531 66.117188 125.613281 93.066406 125.132812 C 99.441406 124.703125 109.566406 123.441406 114.886719 118.429688 C 123.316406 108.101562 120.046875 102.695312 116.574219 101.976562 C 112.960938 100.90625 104.222656 106.316406 112.613281 110.320312 C 114.378906 117.546875 94.226562 116.800781 90.511719 110.71875 C 76.515625 85.664062 113.742188 67.652344 156.136719 84 C 164.824219 152.378906 174.679688 239.511719 164.035156 320.90625 C 157.066406 337.070312 149.605469 346.773438 132.136719 354 L 132.136719 366 C 156.136719 354 216.136719 354 252.136719 354 L 252.136719 342 C 236.613281 339.203125 224.292969 324.789062 222.464844 310.289062 C 216.433594 229.609375 212.023438 170.511719 228.136719 90 L 287.761719 90 C 295.195312 90.167969 298.246094 96.339844 300.136719 114 L 324.136719 114 C 315.761719 94.003906 312.136719 78 312.136719 54 C 222.5 67.855469 157.070312 55.542969 60.136719 30 Z M 60.136719 30"/>
  </g>
  <mask id="mask1">
   <g filter="url(#alpha)">
    <rect width="384" height="384" x="0" y="0" style="fill:rgb(0%,0%,0%);fill-opacity:0.2"/>
   </g>
  </mask>
  <clipPath id="clip2">
   <rect width="384" height="384" x="0" y="0"/>
  </clipPath>
  <g id="surface8" clip-path="url(#clip2)">
   <path style="fill:rgb(100%,100%,100%)" d="M 60.140625 24 C 61.847656 26.363281 63.386719 28.757812 64.804688 31.183594 C 159.105469 55.863281 224 67.625 312.140625 54 C 312.140625 75.546875 315.09375 90.667969 321.75 108 L 324.140625 108 C 315.769531 88.003906 312.140625 72 312.140625 48 C 222.507812 61.855469 157.074219 49.542969 60.140625 24 Z M 71.414062 56.25 C 70.808594 64.488281 67.488281 73.570312 60.140625 84 C 59.859375 87.328125 59.859375 90.378906 60.035156 93.28125 C 60.082031 92.175781 60.042969 91.15625 60.140625 90 C 69.3125 76.980469 72.273438 66.035156 71.414062 56.25 Z M 115.019531 95.859375 C 111.386719 96.199219 106.4375 100.050781 111.164062 103.382812 C 112.832031 102.207031 115.109375 101.542969 116.578125 101.976562 C 117.765625 102.222656 118.886719 103.054688 119.566406 104.402344 C 121.210938 99.292969 118.992188 96.476562 116.578125 95.976562 C 116.125 95.84375 115.585938 95.804688 115.019531 95.859375 Z M 87.867188 97.125 C 87.054688 101.261719 87.796875 105.851562 90.515625 110.71875 C 94.234375 116.800781 114.386719 117.546875 112.617188 110.320312 C 111.335938 109.710938 110.554688 109.070312 109.992188 108.421875 C 104.703125 110.722656 93.238281 109.171875 90.515625 104.71875 C 89.046875 102.089844 88.261719 99.566406 87.867188 97.125 Z M 217.054688 198 C 216.78125 233.617188 219.394531 269.148438 222.46875 310.289062 C 224.296875 324.789062 236.621094 339.203125 252.140625 342 L 252.140625 336 C 236.621094 333.203125 224.296875 318.789062 222.46875 304.289062 C 219.566406 265.453125 217.097656 231.632812 217.054688 198 Z M 168.632812 240.785156 C 168.542969 265.570312 167.230469 290.492188 164.039062 314.90625 C 157.070312 331.070312 149.609375 340.773438 132.140625 348 L 132.140625 354 C 149.609375 346.773438 157.070312 337.070312 164.039062 320.90625 C 167.492188 294.519531 168.753906 267.542969 168.632812 240.785156 Z M 168.632812 240.785156"/>
  </g>
 </defs>
 <g>
  <use mask="url(#mask0)" xlink:href="#surface5"/>
  <path style="fill:rgb(100%,78.431373%,19.215686%)" d="M 60.136719 24 C 72.144531 40.613281 78.28125 58.242188 60.136719 84 C 58.230469 106.519531 66.117188 119.613281 93.066406 119.132812 C 99.441406 118.703125 109.566406 117.441406 114.886719 112.429688 C 123.316406 102.101562 120.046875 96.695312 116.574219 95.976562 C 112.960938 94.90625 104.222656 100.316406 112.613281 104.320312 C 114.378906 111.546875 94.226562 110.800781 90.511719 104.71875 C 76.515625 79.664062 113.742188 61.652344 156.136719 78 C 164.824219 146.378906 174.679688 233.511719 164.035156 314.90625 C 157.066406 331.070312 149.605469 340.773438 132.136719 348 L 132.136719 360 C 156.136719 348 216.136719 348 252.136719 348 L 252.136719 336 C 236.613281 333.203125 224.292969 318.789062 222.464844 304.289062 C 216.433594 223.609375 212.023438 164.511719 228.136719 84 L 287.761719 84 C 295.195312 84.167969 298.246094 90.339844 300.136719 108 L 324.136719 108 C 315.761719 88.003906 312.136719 72 312.136719 48 C 222.5 61.855469 157.070312 49.542969 60.136719 24 Z M 60.136719 24"/>
  <use mask="url(#mask1)" xlink:href="#surface8"/>
 </g>
</svg>
