<svg xmlns="http://www.w3.org/2000/svg" width="384pt" height="384pt" version="1.1" viewBox="0 0 384 384">
 <g transform="matrix(0.84211458,0,0,0.84211458,30.314474,30.313998)">
  <path d="M 376.49103,148.03175 334.94256,-10.169634 179.86537,32.498041 156.91108,74.06024 110.31582,73.723777 -3.1854241,190.24623 110.32271,306.74808 h 0.006 l 46.56091,-0.35704 22.98863,41.56218 155.06335,42.65396 41.55532,-158.20139 -21.09352,-42.16641" style="fill:#ffffff"/>
  <path style="fill:#ffffff" d="M 269.9797,73.458243 170.09663,99.825431 97.922959,183.41982 H 212.63107 Z m 27.9631,16.566221 -57.35948,101.992876 57.35948,101.9647 27.26272,-101.9647 z M 97.927299,217.17026 l 72.180181,67.02166 99.88307,26.36285 -57.35948,-93.38451 z"/>
  <path d="M 237.5826,186.01736 294.94278,84.023738 322.20622,186.01736 294.94278,287.98203 Z m -27.95153,25.15292 57.36018,93.38376 -99.88305,-26.3614 -72.180161,-67.02236 z M 266.97969,67.457521 209.63107,177.41909 H 94.922259 L 171.59664,99.824709 Z M 348.86253,150.4737 318.37397,23.25001 187.78121,59.181094 168.45108,94.181206 129.21253,93.897868 33.631491,192.02312 124.71832,284.13103 h 0.006 l 39.20962,-0.30069 19.35908,35.00014 130.58116,35.91951 34.99434,-133.22366 -17.76316,-35.50897" style="opacity:0.3"/>
  <path d="M 240.5826,192.01735 297.94279,90.023738 325.20624,192.01735 297.94279,293.98203 Z m -27.95153,25.15291 57.3602,93.38378 -99.88307,-26.3614 -72.180181,-67.02238 z M 269.9797,73.457521 212.63107,183.41909 H 97.922249 L 170.09664,99.824709 Z M 351.86255,156.47368 316.87398,23.25 186.28123,59.181079 166.95108,94.181206 127.71253,93.897868 32.131481,192.02312 127.71832,290.13104 h 0.006 L 166.93394,289.83036 186.293,324.83048 316.87412,360.75 351.86845,227.52632 334.1053,192.01735"/>
 </g>
</svg>
