<svg width="512" height="512" version="1.1" viewBox="0 0 384 384" xmlns="http://www.w3.org/2000/svg"><path d="m192 30.75c93.199 0 168.75 75.551 168.75 168.75s-75.551 168.75-168.75 168.75-168.75-75.551-168.75-168.75 75.551-168.75 168.75-168.75z" opacity=".3"/><path d="m192 23.25c93.199 0 168.75 75.551 168.75 168.75s-75.551 168.75-168.75 168.75-168.75-75.551-168.75-168.75 75.551-168.75 168.75-168.75z" fill="#fff"/><path d="m192 42c82.844 0 150 67.156 150 150s-67.156 150-150 150-150-67.156-150-150 67.156-150 150-150z" fill="#1ea6ae"/><path d="m192 105.75c-51.938 0-93.75 41.812-93.75 93.75s41.813 93.75 93.75 93.75 93.75-41.812 93.75-93.75-41.812-93.75-93.75-93.75zm0 18.75c41.551 0 75 33.449 75 75s-33.449 75-75 75-75-33.449-75-75 33.449-75 75-75zm0 31.25-43.75 43.75h25v43.75h37.5v-43.75h25z" opacity=".3"/><path d="m192 98.25c-51.938 0-93.75 41.812-93.75 93.75s41.812 93.75 93.75 93.75 93.75-41.812 93.75-93.75-41.812-93.75-93.75-93.75zm0 18.75c41.551 0 75 33.449 75 75s-33.449 75-75 75-75-33.449-75-75 33.449-75 75-75zm0 31.25-43.75 43.75h25v43.75h37.5v-43.75h25z" fill="#0f2b5c"/><path transform="scale(.75)" d="m256 31c-124.27 0-225 100.73-225 225 0 1.6719 0.028171 3.3368 0.064453 5 2.6604-121.96 102.34-220 224.94-220 122.59 0 222.28 98.045 224.94 220 0.03628-1.6632 0.06445-3.3281 0.06445-5 0-124.27-100.73-225-225-225z" opacity=".1" stroke-width="1.3333"/></svg>
