<svg width="512" height="512" version="1.1" viewBox="0 0 384 384" xmlns="http://www.w3.org/2000/svg"><rect transform="rotate(45)" x="148.44" y="-123.87" width="246.19" height="247.75" rx="14.233" ry="14.233" fill="#0aa15c"/><path d="m360.24 187.7c-0.63177 2.3084-1.8479 4.4934-3.668 6.3135l-155.06 155.06c-5.5755 5.5755-14.553 5.5755-20.128 0l-153.95-153.95c-1.8205-1.8205-3.0363-4.006-3.668-6.3149-1.3034 4.7629-0.08737 10.06 3.668 13.815l153.95 153.95c5.5755 5.5755 14.553 5.5755 20.128 0l155.06-155.06c3.755-3.755 4.9709-9.0508 3.668-13.813z" opacity=".3" stroke-width=".75"/><path d="m192.55 23.25c-3.6382 1e-6 -7.2772 1.3944-10.065 4.1821l-155.06 155.06c-3.7551 3.7551-4.9709 9.0508-3.668 13.813 0.63175-2.3086 1.8478-4.4933 3.668-6.3135l155.06-155.06c5.5755-5.5755 14.553-5.5755 20.128 0l153.95 153.95c1.8205 1.8205 3.0363 4.006 3.668 6.3149 1.3035-4.763 0.0874-10.06-3.668-13.815l-153.95-153.95c-2.7878-2.7878-6.4253-4.1821-10.063-4.1821z" fill="#fff" opacity=".3" stroke-width=".75"/><path d="m49.737 84.465v252.08h32.589l273.2-252.08v-21.527h-123.68v21.527h24.921v17.903l-131.08 118.43v-136.33h23.716v-21.527h-123.63v21.527z" opacity=".3"/><path d="m49.737 76.965v252.08h32.589l273.2-252.08v-21.527h-123.68v21.527h24.921v17.903l-131.08 118.43v-136.33h23.716v-21.527h-123.63v21.527z" fill="#fff" opacity=".2" stroke="#000" stroke-width="7.5"/><path d="m49.737 76.965v252.08h32.589l273.2-252.08v-21.527h-123.68v21.527h24.921v17.903l-131.08 118.43v-136.33h23.716v-21.527h-123.63v21.527z" fill="#fff"/></svg>
