<svg xmlns="http://www.w3.org/2000/svg" xmlns:xlink="http://www.w3.org/1999/xlink" width="384pt" height="384pt" version="1.1" viewBox="0 0 384 384">
 <defs>
  <filter id="alpha" width="100%" height="100%" x="0%" y="0%" filterUnits="objectBoundingBox">
   <feColorMatrix in="SourceGraphic" type="matrix" values="0 0 0 0 1 0 0 0 0 1 0 0 0 0 1 0 0 0 1 0"/>
  </filter>
  <mask id="mask0">
   <g filter="url(#alpha)">
    <rect width="384" height="384" x="0" y="0" style="fill:rgb(0%,0%,0%);fill-opacity:0.101961"/>
   </g>
  </mask>
  <clipPath id="clip1">
   <rect width="384" height="384" x="0" y="0"/>
  </clipPath>
  <g id="surface5" clip-path="url(#clip1)">
   <path style="fill:rgb(100%,100%,100%)" d="M 42 24 C 32.027344 24 24 32.027344 24 42 L 24 48 C 24 38.027344 32.027344 30 42 30 L 342 30 C 351.972656 30 360 38.027344 360 48 L 360 42 C 360 32.027344 351.972656 24 342 24 Z M 42 24"/>
  </g>
  <mask id="mask1">
   <g filter="url(#alpha)">
    <rect width="384" height="384" x="0" y="0" style="fill:rgb(0%,0%,0%);fill-opacity:0.2"/>
   </g>
  </mask>
  <clipPath id="clip2">
   <rect width="384" height="384" x="0" y="0"/>
  </clipPath>
  <g id="surface8" clip-path="url(#clip2)">
   <path style="fill:rgb(0%,0%,0%)" d="M 24 342 L 24 348 C 24 357.972656 32.027344 366 42 366 L 342 366 C 351.972656 366 360 357.972656 360 348 L 360 342 C 360 351.972656 351.972656 360 342 360 L 42 360 C 32.027344 360 24 351.972656 24 342 Z M 24 342"/>
  </g>
  <mask id="mask2">
   <g filter="url(#alpha)">
    <rect width="384" height="384" x="0" y="0" style="fill:rgb(0%,0%,0%);fill-opacity:0.2"/>
   </g>
  </mask>
  <clipPath id="clip3">
   <rect width="384" height="384" x="0" y="0"/>
  </clipPath>
  <g id="surface11" clip-path="url(#clip3)">
   <path style="fill-rule:evenodd;fill:rgb(0%,0%,0%)" d="M 189.167969 281.34375 L 204.949219 281.34375 C 204.949219 281.34375 209.714844 280.800781 212.148438 278.085938 C 214.390625 275.589844 214.316406 270.90625 214.316406 270.90625 C 214.316406 270.90625 214.007812 248.972656 223.835938 245.746094 C 233.523438 242.5625 245.964844 266.941406 259.148438 276.316406 C 269.117188 283.410156 276.695312 281.855469 276.695312 281.855469 L 311.949219 281.347656 C 311.949219 281.347656 330.390625 280.167969 321.648438 265.144531 C 320.929688 263.917969 316.554688 254.035156 295.433594 233.730469 C 273.316406 212.488281 276.28125 215.917969 302.910156 179.15625 C 319.132812 156.769531 325.613281 143.101562 323.585938 137.246094 C 321.652344 131.667969 309.726562 133.140625 309.726562 133.140625 L 270.03125 133.398438 C 270.03125 133.398438 267.085938 132.980469 264.902344 134.332031 C 262.769531 135.65625 261.402344 138.746094 261.402344 138.746094 C 261.402344 138.746094 255.117188 156.070312 246.738281 170.804688 C 229.0625 201.894531 221.992188 203.539062 219.105469 201.609375 C 212.382812 197.109375 214.0625 183.535156 214.0625 173.886719 C 214.0625 143.757812 218.472656 131.195312 205.46875 127.941406 C 201.15625 126.863281 197.976562 126.152344 186.941406 126.035156 C 172.777344 125.886719 160.792969 126.078125 154.003906 129.523438 C 149.488281 131.816406 146.003906 136.917969 148.125 137.210938 C 150.75 137.574219 156.691406 138.875 159.839844 143.3125 C 163.910156 149.046875 163.765625 161.917969 163.765625 161.917969 C 163.765625 161.917969 166.105469 197.386719 158.308594 201.792969 C 152.957031 204.8125 145.617188 198.644531 129.859375 170.4375 C 121.785156 155.992188 115.6875 140.019531 115.6875 140.019531 C 115.6875 140.019531 114.515625 137.035156 112.417969 135.4375 C 109.882812 133.5 106.328125 132.886719 106.328125 132.886719 L 68.605469 133.140625 C 68.605469 133.140625 62.945312 133.304688 60.863281 135.855469 C 59.011719 138.128906 60.714844 142.816406 60.714844 142.816406 C 60.714844 142.816406 90.246094 214.386719 123.6875 250.453125 C 154.351562 283.523438 189.167969 281.351562 189.167969 281.351562"/>
  </g>
 </defs>
 <g>
  <path style="fill:rgb(16.078431%,50.196078%,72.54902%)" d="M 360 342 L 360 42 C 360 32.058594 351.941406 24 342 24 L 42 24 C 32.058594 24 24 32.058594 24 42 L 24 342 C 24 351.941406 32.058594 360 42 360 L 342 360 C 351.941406 360 360 351.941406 360 342 Z M 360 342"/>
  <use mask="url(#mask0)" xlink:href="#surface5"/>
  <use mask="url(#mask1)" xlink:href="#surface8"/>
  <use mask="url(#mask2)" xlink:href="#surface11"/>
  <path style="fill-rule:evenodd;fill:rgb(100%,100%,100%)" d="M 189.167969 275.34375 L 204.949219 275.34375 C 204.949219 275.34375 209.714844 274.800781 212.148438 272.085938 C 214.390625 269.589844 214.316406 264.90625 214.316406 264.90625 C 214.316406 264.90625 214.007812 242.972656 223.835938 239.746094 C 233.523438 236.5625 245.964844 260.941406 259.148438 270.316406 C 269.117188 277.410156 276.695312 275.855469 276.695312 275.855469 L 311.949219 275.347656 C 311.949219 275.347656 330.390625 274.167969 321.648438 259.144531 C 320.929688 257.917969 316.554688 248.035156 295.433594 227.730469 C 273.316406 206.488281 276.28125 209.917969 302.910156 173.15625 C 319.132812 150.769531 325.613281 137.101562 323.585938 131.246094 C 321.652344 125.667969 309.726562 127.140625 309.726562 127.140625 L 270.03125 127.398438 C 270.03125 127.398438 267.085938 126.980469 264.902344 128.332031 C 262.769531 129.65625 261.402344 132.746094 261.402344 132.746094 C 261.402344 132.746094 255.117188 150.070312 246.738281 164.804688 C 229.0625 195.894531 221.992188 197.539062 219.105469 195.609375 C 212.382812 191.109375 214.0625 177.535156 214.0625 167.886719 C 214.0625 137.757812 218.472656 125.195312 205.46875 121.941406 C 201.15625 120.863281 197.976562 120.152344 186.941406 120.035156 C 172.777344 119.886719 160.792969 120.078125 154.003906 123.523438 C 149.488281 125.816406 146.003906 130.917969 148.125 131.210938 C 150.75 131.574219 156.691406 132.875 159.839844 137.3125 C 163.910156 143.046875 163.765625 155.917969 163.765625 155.917969 C 163.765625 155.917969 166.105469 191.386719 158.308594 195.792969 C 152.957031 198.8125 145.617188 192.644531 129.859375 164.4375 C 121.785156 149.992188 115.6875 134.019531 115.6875 134.019531 C 115.6875 134.019531 114.515625 131.035156 112.417969 129.4375 C 109.882812 127.5 106.328125 126.886719 106.328125 126.886719 L 68.605469 127.140625 C 68.605469 127.140625 62.945312 127.304688 60.863281 129.855469 C 59.011719 132.128906 60.714844 136.816406 60.714844 136.816406 C 60.714844 136.816406 90.246094 208.386719 123.6875 244.453125 C 154.351562 277.523438 189.167969 275.351562 189.167969 275.351562"/>
 </g>
</svg>
