<svg width="512" height="512" version="1.1" viewBox="0 0 384 384" xmlns="http://www.w3.org/2000/svg"><defs><clipPath id="f"><path d="m111 119h177v23h-177z"/></clipPath><clipPath id="e"><path d="m177 130h45v89h-45z"/></clipPath><clipPath id="d"><path d="m111 207h177v89h-177z"/></clipPath><clipPath id="g"><rect width="384" height="384"/></clipPath><g clip-path="url(#g)"></g><linearGradient id="c" x1="458.39" x2="239.82" y1="825.23" y2="861.92" gradientTransform="matrix(1.2631 0 0 1.2631 -185.39 -861.66)" gradientUnits="userSpaceOnUse"><stop stop-color="#8c42ab" offset="0"/><stop stop-color="#316fd8" offset=".34511"/><stop stop-color="#6ebeeb" offset="1"/></linearGradient><linearGradient id="b" x1="363.3" x2="267.61" y1="717.47" y2="769.95" gradientTransform="matrix(1.2631 0 0 1.2631 -185.39 -861.66)" gradientUnits="userSpaceOnUse"><stop stop-color="#8c42ab" offset="0"/><stop stop-color="#316fd8" offset=".23116"/><stop stop-color="#6ebeeb" offset="1"/></linearGradient><linearGradient id="a" x1="108.18" x2="549.57" y1="799.16" y2="967.2" gradientTransform="matrix(1.6841 0 0 1.6841 -247.18 -1148.9)" gradientUnits="userSpaceOnUse"><stop stop-color="#8c42ab" offset="0"/><stop stop-color="#316fd8" offset=".32741"/><stop stop-color="#6ebeeb" offset="1"/></linearGradient></defs><g fill="#4aaee6" stroke-width="1.2232"><path transform="scale(.75)" d="m1246.6 788.43c0.3123 0.85264 0.636 1.7002 1.0136 2.5254 0.3122 0.68228-0.1461-1.5861-0.6269-2.1621-0.1117-0.13381-0.2454-0.25107-0.3867-0.36328z"/><path transform="scale(.75)" d="m1230.1 790.41c0.3726 0.68617 0.8073 1.3194 1.1836 1.4277-0.5293-0.63543-0.8155-0.98418-1.1836-1.4277z"/><path transform="scale(.75)" d="m1233.4 794.93c0.1829 0.32882 0.3872 0.7066 0.5117 0.90234 0.423 0.2726 1.618 1.1812 1.2696 0.81836-0.7427-0.77346-1.2971-1.2892-1.7813-1.7207z"/><path transform="scale(.75)" d="m1272.6 797.54c0.6562 0.90702 1.3269 1.8027 2.0859 2.623 0.496 0.5361-0.5212-1.4127-1.0371-1.9297-0.2171-0.21762-0.6152-0.45753-1.0488-0.69336z"/><path transform="scale(.75)" d="m1277.3 800.51c0.5636 0.61086 1.0693 1.1862 1.5 1.6348 0.3291-0.41802-0.5562-1.0716-1.5-1.6348z"/><path transform="scale(.75)" d="m1332.8 812.02c-0.01-6e-5 -0.037 0.0208-0.084 0.0684-0.8105 0.81495-1.3636 1.4222-1.8262 1.9512 0.3957-0.21473 0.7658-0.42076 0.9981-0.57227 0.2411-0.40244 0.9837-1.4468 0.9121-1.4473z"/><path transform="scale(.75)" d="m1327.2 816.13c-0.4225 0.41535-0.8101 0.87656-1.209 1.3223 0.9884-0.53697 1.8754-1.1376 1.209-1.3223z"/></g><g stroke-width=".85073"><path d="m162.34 54.847c-0.34457 0.03132-0.56397 0.11911-0.62809 0.27518-0.0863 0.21706 0.39601 1.6888 1.0846 3.2425 2.7504 6.5605 4.8884 20.575 3.0612 29.624l29.844 4.0569c-2.2833-11.516-9.8805-28.178-19.304-33.189-2.8208-1.4974-8.4585-3.1578-11.444-3.7387-1.1187-0.21625-2.0392-0.32252-2.6135-0.2703z" fill="#1e96da"/><path d="m162.83 54.837c-0.18454-0.0057-0.35044-0.0019-0.49401 0.01108-0.34457 0.03136-0.5631 0.11961-0.62723 0.27568-0.0863 0.21706 0.39568 1.6879 1.0842 3.2416 0.49653 1.1844 0.97112 2.6176 1.408 4.2148 0.25037 0.03931 0.4706 0.06309 0.7475 0.11657 2.9859 0.58084 8.6246 2.2419 11.445 3.7393 7.4238 3.9476 13.702 15.121 17.153 25.318l2.15 0.29234c-2.2833-11.516-9.8798-28.178-19.303-33.189-2.8208-1.4974-8.4596-3.1585-11.445-3.7393-0.83902-0.16219-1.5649-0.26324-2.1185-0.28123zm3.5709 28.934c-0.10844 1.4825-0.28095 2.9069-0.54581 4.2185l0.67902 0.09284c9e-3 -1.414-0.0405-2.8603-0.13321-4.311z" fill="#082739" opacity=".3"/><path d="m166.92 227.05c-5.7717 17.163-5.6326 73.155 17.522 89.519 26.377 18.64 56.285 24.595 87.022 17.338 3.8216-0.90217 15.103-4.9098 19.397-6.8946 11.976-5.5389 24.133-14.156 34.022-24.114 32.241-32.465 48.124-82.262 42.118-131.98-0.29791-2.4512-1.5371-9.0169-2.7742-14.645-2.8271-16.299-11.874-30.515-20.011-40.517-8.8548-12.374-12.664-24.307-16.837-39.144-0.0887-0.95926-0.31382-1.9095-0.48477-2.0998-13.958 10.334-23.733 29.05-28.74 45.1-3.1402 11.989-4.3631 23.613-2.338 32.875 5.9586 23.386 26.659 35.08 31.734 56.296 4.9903 22.646-1.6158 48.13-11.751 68.047-2.0397 4.0062-2.569 4.7876-2.9472 4.5273-0.12634-0.0883-5e-3 -1.6085 0.25341-3.3897 3.9998-27.717-4.526-56.757-23.632-72.982-2.67-2.2663-12.739-9.1854-14.059-9.6646 1.2418 3.1084 2.2384 6.3462 2.9806 9.6713 6.5621 29.779-5.4314 67.56-33.317 68.097-26.28 0.50582-38.047-39.141-41.902-57.368-4.6727-30.44-21.95-33.657-30.332-37.428-6.9948-3.1478-17.083-2.6138-21.612-1.056-2.824 0.97132-5.6612 5.5615-4.8603 12.475 0.80086 6.9133 26.322 20.173 20.55 37.336z" fill="url(#c)"/><path d="m326.89 74.516c-13.958 10.334-23.732 29.049-28.74 45.099-2.6402 10.08-3.9161 19.896-3.0547 28.273 0.47146-5.4003 1.5365-11.109 3.0547-16.905 5.0074-16.05 14.781-34.765 28.74-45.099 0.17089 0.19041 0.39634 1.1408 0.48476 2.1 4.1724 14.837 7.9822 26.769 16.837 39.143 8.1371 10.002 17.183 24.219 20.01 40.518 1.2371 5.6282 2.4774 12.193 2.7753 14.645 0.60828 5.0346 0.98027 10.069 1.1453 15.087 0.28675-8.7561-0.0762-17.605-1.1453-26.455-0.29791-2.4512-1.5382-9.0164-2.7753-14.645-2.8271-16.299-11.873-30.516-20.01-40.518-8.8548-12.374-12.665-24.306-16.837-39.143-0.0887-0.95926-0.3138-1.9097-0.48476-2.1zm-165.78 101.49c-3.9626-0.0654-7.6175 0.45708-9.882 1.236-2.824 0.97128-5.6614 5.5609-4.8605 12.474 0.0926 0.79963 0.52779 1.6894 1.1952 2.655 0.9577-1.9885 2.3106-3.2956 3.6653-3.7615 4.529-1.5578 14.618-2.0914 21.612 1.0564 8.3815 3.7719 25.66 6.9884 30.333 37.428 3.8552 18.227 15.622 57.874 41.902 57.368 24.591-0.47328 36.815-29.908 34.862-57.279-1.662 23.575-13.665 45.503-34.862 45.912-26.28 0.50586-38.047-39.141-41.902-57.368-4.6727-30.44-21.951-33.656-30.333-37.428-3.4974-1.5739-7.7678-2.2271-11.73-2.2924zm114.3 19.32c1.2418 3.1084 2.2386 6.3479 2.9807 9.673 0.2899 1.3155 0.52979 2.6498 0.74749 3.9927 3.5737 2.3597 8.5448 5.8525 10.33 7.3676 14.724 12.504 23.158 32.62 24.425 53.875 1.5348-25.257-7.0914-50.523-24.425-65.242-2.67-2.2664-12.738-9.1864-14.058-9.6656z" fill="#fff" opacity=".2"/><path d="m295.1 136.52c-0.50365 5.7689-0.32996 11.186 0.71604 15.969 5.9586 23.386 26.659 35.081 31.733 56.297 0.77101 3.4989 1.2645 7.0651 1.5116 10.668 0.48274-7.452 0.0641-14.885-1.5116-22.036-5.0746-21.216-25.775-32.911-31.733-56.297-0.32246-1.4747-0.55291-3.0151-0.71604-4.6015zm73.047 49.488c-1.3242 40.435-16.762 78.834-43.264 105.52-9.8887 9.9584-22.046 18.577-34.022 24.116-4.294 1.9848-15.576 5.9917-19.398 6.8939-30.737 7.2571-60.645 1.302-87.022-17.338-14.244-10.067-19.771-35.126-20.576-56.922-0.90985 23.634 3.7616 56.407 20.576 68.29 26.377 18.64 56.285 24.596 87.022 17.338 3.8216-0.90213 15.104-4.911 19.398-6.8958 11.976-5.5388 24.133-14.155 34.022-24.114 28.976-29.178 44.728-72.355 43.264-116.89z" opacity=".2"/></g><path d="m182.16 46.237c-0.17295-0.0051-0.3167 0.0088-0.42742 0.04017-0.0558 0.01629-0.10206 0.03777-0.14061 0.06442-0.0378 0.02602-0.0685 0.05684-0.0888 0.09334v0.0013c-4.3116 14.011-11.656 23.67-19.505 30.711-7.8325 1.058-15.434 4.4275-23.572 6.9996-7.7591 1.4771-15.462 0.98244-22.721-1.2943-3.4296-1.0752-3.454-1.0756-3.4266-0.12878 3.6637 21.776 13.121 50.002 34.616 55.786 1.5898 0.42778 3.0653 0.85334 4.4609 1.275 0.14664 0.0437 0.28083 0.0865 0.42555 0.1304 1.3177 0.40272 2.5731 0.80337 3.743 1.1977 17.266 3.0816 18.523 6.143 30.498 17.526 0 0-3.8666-4.2574-14.619-4.5445 28.314 9.3938 29.805 56.508 26.201 74.307-2.6785 13.23-10.598 24.831-22.334 32.108-19.267 9.9694-39.884 11.478-55.984 4.097-0.57945-0.2654-1.1519-0.54177-1.717-0.8291-1.6604-0.85506-3.2559-1.8038-4.781-2.8429-0.0801-0.0544-0.16091-0.10787-0.24052-0.16262-1.498-1.031-2.9256-2.1484-4.2777-3.3485-0.0653-0.0577-0.12931-0.11709-0.19428-0.17548-1.3698-1.2275-2.6597-2.539-3.8651-3.9296l-9e-3 -0.0101c-1.2133-1.4066-2.339-2.8922-3.3729-4.4512-0.026-0.0388-0.0537-0.0767-0.0796-0.11582-1.0076-1.5318-1.9257-3.1323-2.7513-4.7957-0.04345-0.0872-0.08854-0.17326-0.13136-0.26079-0.80448-1.642-1.5182-3.3428-2.1389-5.0967-0.04156-0.11746-0.08134-0.23614-0.12214-0.35409-0.61298-1.7689-1.131-3.589-1.5523-5.4541-0.01528-0.0676-0.02754-0.13666-0.04257-0.2045-0.42388-1.9089-0.74619-3.8624-0.96582-5.8533-0.0025-0.0165-0.0063-0.033-0.0076-0.0503-0.21384-1.9963-0.32437-4.0276-0.33118-6.0867-3.79e-4 -0.0839-0.0013-0.16725-0.0013-0.25115 2.65e-4 -2.0274 0.10092-4.0791 0.30159-6.148 0.01011-0.10825 0.02223-0.21686 0.03335-0.32525 0.20932-2.0791 0.51928-4.1727 0.92881-6.2735 0.01667-0.0851 0.03663-0.17078 0.05368-0.25593 0.29285-1.4779 0.63471-2.9582 1.025-4.4383-2.7142 1.9274-8.7226 7.0089-10.95 8.8992-19.106 16.226-15.599 38.461-11.599 66.179 0.25848 1.7813 0.37984 3.3008 0.25348 3.3887-0.37826 0.26044-0.90775-0.52051-2.9474-4.5269-10.135-19.917-16.741-45.402-11.751-68.048 5.0746-21.216 25.775-32.91 31.733-56.296 2.0252-9.2617 0.80148-20.886-2.3387-32.874-5.0074-16.05-14.781-34.765-28.74-45.099-0.17096 0.19034-0.39609 1.14-0.48476 2.0992-3.9003 13.87-7.486 25.203-15.17 36.73-2.751 3.3961-5.34 6.9192-7.7487 10.559-2.6978 3.9554-5.2957 8.3198-7.5489 13.006-8.5155 16.96-13.082 35.967-11.784 56.37-0.1904 22.319 3.987 43.477 11.601 62.373 1.89e-4 4.9e-4 -2.02e-4 0 0 0 19.458 48.288 61.363 81.794 110.2 82.11 67.944 0.43842 123.57-63.537 124.25-142.89 9e-3 -1.0643 6e-3 -2.1257-8e-3 -3.1858-3e-5 0 5e-5 -9e-3 0-0.0101-0.0135-1.0558-0.0386-2.1104-0.074-3.1618-0.025-0.74206-0.0624-1.4818-0.098-2.2216-0.015-0.31248-0.0237-0.62643-0.0407-0.93848-5.7e-4 -0.0101-9.5e-4 -0.0215-3e-3 -0.0322-0.057-1.04-0.12365-2.0767-0.20166-3.1118-9.5e-4 -0.014-3e-3 -0.028-4e-3 -0.0421-0.0779-1.0312-0.16596-2.0599-0.26458-3.086-3e-3 -0.0182-4e-3 -0.0355-6e-3 -0.0528-0.0987-1.0221-0.20678-2.0419-0.32564-3.0586-3e-3 -0.0215-5e-3 -0.0428-8e-3 -0.0643-0.0393-0.33472-0.0861-0.66721-0.12767-1.0014-0.087-0.702-0.17347-1.4048-0.27014-2.104-0.13879-1.0042-0.2876-2.0056-0.44591-3.0039-9.4e-4 -9e-3 -1e-3 -0.0173-4e-3 -0.0255-0.0956-0.60236-0.20264-1.2012-0.30528-1.8014-0.0702-0.4103-0.13379-0.82233-0.20722-1.2316-3e-3 -0.0131-5e-3 -0.0272-8e-3 -0.0404-0.11039-0.61455-0.23194-1.2247-0.3497-1.8368-0.0745-0.38681-0.14287-0.77486-0.22018-1.1607-3e-3 -0.0114-5e-3 -0.0239-8e-3 -0.0355-0.17219-0.85827-0.35383-1.7128-0.54026-2.5661-0.0303-0.13871-0.0582-0.27835-0.0888-0.41689-8.2e-4 0-9.5e-4 -9e-3 -3e-3 -0.0114-0.14897-0.67257-0.31036-1.3414-0.4681-2.0107-0.0765-0.32467-0.14716-0.65155-0.22574-0.97556-5e-3 -0.0182-9e-3 -0.0362-0.013-0.0544-0.0986-0.40602-0.20529-0.80899-0.30713-1.2138-0.15172-0.60309-0.30191-1.2076-0.4607-1.8079-3e-3 -0.0101-5e-3 -0.0206-8e-3 -0.0306-0.0577-0.21809-0.12075-0.43421-0.17947-0.65196-0.20478-0.76003-0.41121-1.5193-0.62722-2.2747-4e-3 -0.0114-6e-3 -0.0239-9e-3 -0.0355-0.0741-0.25913-0.15395-0.5158-0.22943-0.77436-0.20486-0.70175-0.40906-1.4033-0.62352-2.1008-0.14082-0.45811-0.28988-0.9121-0.43481-1.3684-0.15342-0.48301-0.30271-0.9679-0.46071-1.4488-3.8609-13.482-12.211-30.961-37.883-51.536-0.0126-0.0101-0.0261-0.02046-0.0388-0.03057-0.81573-0.65415-1.6488-1.311-2.4996-1.9704-1.0262-0.61083-2.0845-1.3023-2.335-1.5648-0.25341-0.26338-0.55967-1.9281-0.69754-3.6865-0.9122-11.707-6.4965-29.153-15.264-35.247-0.65623-0.45539-1.4861-0.94148-2.4071-1.4295-0.61638-0.32662-1.2788-0.64987-1.952-0.96912-0.17255-0.08185-0.33826-0.16084-0.5125-0.24148-0.35343-0.16356-0.69385-0.31011-1.0491-0.46685-0.65523-0.28926-1.2834-0.55564-1.9113-0.80975-0.35291-0.14284-0.70071-0.2874-1.0343-0.41533-0.13202-0.05065-0.25487-0.09688-0.38301-0.14489-0.60792-0.22777-1.1863-0.43654-1.6763-0.59403-1.0854-0.34748-1.9862-0.56163-2.5626-0.57792z" fill="url(#b)" stroke-width=".85073"/><path d="m147.32 90.708c39.15-10.876 23.531 3.5366 23.531 3.5366-5.3765-2.0892-10.757-3.861-23.531-3.5366z" fill="#f0f5fd" opacity=".3"/><path d="m112.69 82.033c-0.43139-0.0162-0.43002 0.22041-0.4163 0.69383 3.6637 21.776 13.121 50.003 34.616 55.786 1.5899 0.42781 3.0653 0.85315 4.4609 1.2748 0.14665 0.0445 0.28084 0.0872 0.42556 0.1313 1.3177 0.4027 2.5731 0.80285 3.743 1.1971 17.154 3.0616 18.528 6.1214 30.288 17.324-0.91742-0.84084-5.0522-4.0926-14.41-4.3425 19.769 6.5587 26.454 31.499 27.467 52.017 1.1096-21.417-3.8274-55.542-27.467-63.385 9.3574 0.24991 13.492 3.5017 14.41 4.3425-11.76-11.202-13.134-14.262-30.288-17.324-1.1699-0.39427-2.4253-0.79442-3.743-1.1971-0.14472-0.0445-0.27891-0.0872-0.42556-0.1313-1.3956-0.42165-2.871-0.84699-4.4609-1.2748-17.955-4.8309-27.492-25.316-32.288-44.626-0.92242-0.28205-1.5993-0.47492-1.9113-0.48661z" opacity=".1" stroke-width=".85073"/><path d="m147.32 89.059c39.15-10.876 23.531 3.5366 23.531 3.5366-5.3765-2.0892-10.757-3.861-23.531-3.5366z" fill="#153873"/><g stroke-width="1.1343"><path transform="scale(.75)" d="m232 61.916c45.953 23.376-11.315 84.87 22.812 129.7 28.592 36.723 44.343 70.855 14.504 115.06-21.007 31.122-54.422 50.322-85.568 52.215-9.5231-0.59714-18.67-2.9378-26.994-7.1914-27.509-14.106-39.336-46.081-30.029-81.18-2.967 2.1069-8.3839 6.6382-12.057 9.7363 0.50488-3.2101 1.1878-6.4598 2.0566-9.7363-3.619 2.5699-11.63 9.3468-14.6 11.867-19.672 16.705-21.344 38.207-18.639 64.145-7.5192-21.805-10.969-45.997-6.0859-68.154 6.7662-28.288 34.366-43.882 42.311-75.062 2.7002-12.349 1.0678-27.847-3.1191-43.832-6.6765-21.4-19.707-46.354-38.318-60.133-0.22795 0.25378-0.52826 1.5198-0.64648 2.7988-0.4073 1.4484-0.81182 2.8414-1.2168 4.25-2.5806-2.5748-5.2928-4.9433-8.1367-7.0488-0.22793 0.25379-0.52826 1.5198-0.64648 2.7988-5.2004 18.493-9.9812 33.606-20.227 48.975-3.668 4.5281-7.1204 9.2252-10.332 14.078-3.597 5.2739-7.0601 11.092-10.064 17.34-11.354 22.613-17.444 47.957-15.713 75.16-0.9026 105.81 71.806 192.06 162.4 192.65 1.9167 0.0124 3.8232-0.0279 5.7246-0.0918 1.4202 0.0516 2.8461 0.0826 4.2754 0.0918 90.592 0.58454 164.76-84.716 165.67-190.53 0.18655-22.696-3.4472-44.702-10.203-65.266-5.3139-18.556-17.006-42.79-53.896-71.381-1.3682-0.81444-2.7793-1.736-3.1133-2.0859-0.33784-0.35117-0.74588-2.5715-0.92969-4.916-1.2163-15.609-8.6611-38.871-20.352-46.996-3.4999-2.4288-10.706-5.5204-14.568-6.7617-1.4472-0.4633-2.258-0.62405-3.416-0.77148-5.1403-0.65447-7.7164-0.85739-10.877 0.26758z" fill="url(#a)"/><path transform="scale(.75)" d="m285.18 265.2c-1.0005 13.014-5.8758 26.68-15.863 41.477-21.007 31.122-54.422 50.322-85.568 52.215-9.5231-0.59715-18.67-2.9378-26.994-7.1914-19.855-10.181-31.536-29.673-33.002-52.928-1.6452 27.599 10.36 51.317 33.002 62.928 8.3237 4.2536 17.471 6.5943 26.994 7.1914 31.147-1.8924 64.561-21.093 85.568-52.215 12.578-18.634 17.033-35.474 15.863-51.477z" fill="#fff" opacity=".2"/><path transform="scale(.75)" d="m236.7 61.115c-1.6816 0.008084-3.115 0.2383-4.6953 0.80078 12.798 6.5104 17.585 15.98 18.574 27.221 0.70991-10.363-0.46418-19.691-6.1523-27.23-0.50801-0.10997-0.98576-0.18662-1.5449-0.25781-2.5702-0.32723-4.5-0.54129-6.1816-0.5332zm6.7559 88.387c-0.76634 14.55 1.4087 29.041 11.361 42.115 16.54 21.243 28.761 41.624 30.367 63.586 1.9886-25.868-11.345-49.155-30.367-73.586-7.6667-10.071-10.713-20.983-11.361-32.115zm-122.58 35.289c-0.19482 2.9716-0.56616 5.8287-1.1562 8.5273-7.9448 31.181-35.544 46.775-42.311 75.062-1.9073 8.6555-2.5279 17.622-2.1465 26.635 0.25692-5.624 0.94684-11.191 2.1465-16.635 6.7662-28.288 34.366-43.882 42.311-75.062 1.2262-5.608 1.5506-11.87 1.1562-18.527zm-109.77 58.799c-0.16297 4.6462-0.11376 9.3502 0.18945 14.115-0.9026 105.81 71.806 192.06 162.4 192.65 1.9167 0.012 3.8232-0.02793 5.7246-0.09179 1.4202 0.0516 2.8461 0.08273 4.2754 0.09179 90.592 0.58454 164.76-84.716 165.67-190.53 0.01825-2.2211-0.01019-4.4334-0.06445-6.6406-2.427 104.25-75.972 187.74-165.6 187.17-1.4293-0.00906-2.8552-0.04019-4.2754-0.09179-1.9014 0.06386-3.8079 0.10379-5.7246 0.09179-90.592-0.585-163.3-86.836-162.4-192.65-0.087677-1.3778-0.14157-2.7471-0.18945-4.1152zm115.62 26.934c-0.66261 0.47052-1.4796 1.0943-2.3398 1.7637-0.75905 5.6485-0.9683 11.168-0.63282 16.488 0.35367-5.9329 1.326-12.042 2.9727-18.252zm-44.117 54.145c-0.13792 2.9597-0.14322 5.9938-0.03711 9.0996 0.30137 0.92467 0.59995 1.851 0.91602 2.7676-0.42446-4.0699-0.72263-8.0171-0.87891-11.867z" fill="#2f1639" opacity=".3"/></g><path transform="scale(.75)" d="m68.273 99.352c-0.22793 0.25379-0.52827 1.5179-0.64648 2.7969-5.2004 18.493-9.9808 33.608-20.227 48.977-3.668 4.5281-7.1204 9.2253-10.332 14.078-3.597 5.2739-7.0606 11.092-10.064 17.34-10.779 21.468-16.8 45.399-15.902 71.043 0.76751-21.879 6.5372-42.391 15.902-61.043 3.0039-6.248 6.4675-12.066 10.064-17.34 3.2116-4.8528 6.664-9.55 10.332-14.078 10.246-15.369 15.026-30.484 20.227-48.977 0.11822-1.279 0.41855-2.5431 0.64648-2.7969 2.8439 2.1055 5.5561 4.4721 8.1367 7.0469 0.40498-1.4086 0.8095-2.8016 1.2168-4.25 0.11822-1.279 0.41853-2.5431 0.64648-2.7969 18.611 13.779 31.642 38.733 38.318 60.133 2.2854 8.7255 3.8014 17.3 4.2754 25.303 0.69632-10.626-1.0037-22.812-4.2754-35.303-6.6765-21.4-19.707-46.354-38.318-60.133-0.22795 0.25377-0.52826 1.5179-0.64648 2.7969-0.40729 1.4484-0.81181 2.8414-1.2168 4.25-2.5806-2.5748-5.2928-4.9414-8.1367-7.0469zm48.451 171.17c-3.619 2.5699-11.63 9.347-14.6 11.867-16.585 14.084-20.357 31.591-19.518 52.277 0.7633-16.381 5.6742-30.522 19.518-42.277 2.97-2.5202 10.981-9.2973 14.6-11.867-0.8688 3.2765-1.5518 6.5262-2.0566 9.7363 2.8528-2.4062 6.725-5.6447 9.7168-7.9727 0.51983-3.8682 1.2873-7.7942 2.3398-11.764-2.967 2.1069-8.3835 6.6382-12.057 9.7363 0.50488-3.2101 1.1878-6.4598 2.0566-9.7363zm-41.473 34.482c-0.79089 17.27 2.5613 35.078 8.2344 51.529-0.45753-4.3872-0.77485-8.6359-0.91602-12.768-4.0686-12.483-6.7653-25.669-7.3184-38.762z" opacity=".1"/></svg>
