<svg xmlns="http://www.w3.org/2000/svg" xmlns:xlink="http://www.w3.org/1999/xlink" width="384pt" height="384pt" version="1.1" viewBox="0 0 384 384">
 <defs>
  <filter id="alpha" width="100%" height="100%" x="0%" y="0%" filterUnits="objectBoundingBox">
   <feColorMatrix in="SourceGraphic" type="matrix" values="0 0 0 0 1 0 0 0 0 1 0 0 0 0 1 0 0 0 1 0"/>
  </filter>
  <mask id="mask0">
   <g filter="url(#alpha)">
    <rect width="384" height="384" x="0" y="0" style="fill:rgb(0%,0%,0%);fill-opacity:0.4"/>
   </g>
  </mask>
  <clipPath id="clip1">
   <rect width="384" height="384" x="0" y="0"/>
  </clipPath>
  <g id="surface5" clip-path="url(#clip1)">
   <path style="fill:rgb(0%,0%,0%)" d="M 96 192 L 288 192 L 288 216 L 96 216 Z M 96 192"/>
   <path style="fill:rgb(0%,0%,0%)" d="M 120 240 L 264 240 L 264 264 L 120 264 Z M 120 240"/>
   <path style="fill:rgb(0%,0%,0%)" d="M 144 288 L 240 288 L 240 312 L 144 312 Z M 144 288"/>
  </g>
  <mask id="mask1">
   <g filter="url(#alpha)">
    <rect width="384" height="384" x="0" y="0" style="fill:rgb(0%,0%,0%);fill-opacity:0.2"/>
   </g>
  </mask>
  <clipPath id="clip2">
   <rect width="384" height="384" x="0" y="0"/>
  </clipPath>
  <g id="surface8" clip-path="url(#clip2)">
   <path style="fill:rgb(0%,0%,0%)" d="M 24 331.007812 L 24 337.007812 C 24 346.429688 31.496094 354 40.804688 354 L 343.195312 354 C 352.496094 354 360 346.429688 360 337.007812 L 360 331.007812 C 360 340.429688 352.496094 348 343.195312 348 L 40.804688 348 C 31.496094 348 24 340.429688 24 331.007812 Z M 24 331.007812"/>
  </g>
  <mask id="mask2">
   <g filter="url(#alpha)">
    <rect width="384" height="384" x="0" y="0" style="fill:rgb(0%,0%,0%);fill-opacity:0.2"/>
   </g>
  </mask>
  <clipPath id="clip3">
   <rect width="384" height="384" x="0" y="0"/>
  </clipPath>
  <g id="surface11" clip-path="url(#clip3)">
   <path style="fill:rgb(100%,100%,100%)" d="M 72 36 L 72 42 L 312 42 L 312 36 Z M 72 36"/>
  </g>
  <mask id="mask3">
   <g filter="url(#alpha)">
    <rect width="384" height="384" x="0" y="0" style="fill:rgb(0%,0%,0%);fill-opacity:0.501961"/>
   </g>
  </mask>
  <clipPath id="clip4">
   <rect width="384" height="384" x="0" y="0"/>
  </clipPath>
  <g id="surface14" clip-path="url(#clip4)">
   <path style="fill:rgb(0%,0%,0%)" d="M 96 60 L 156 60 L 156 96 L 96 96 Z M 96 60"/>
  </g>
  <mask id="mask4">
   <g filter="url(#alpha)">
    <rect width="384" height="384" x="0" y="0" style="fill:rgb(0%,0%,0%);fill-opacity:0.501961"/>
   </g>
  </mask>
  <clipPath id="clip5">
   <rect width="384" height="384" x="0" y="0"/>
  </clipPath>
  <g id="surface17" clip-path="url(#clip5)">
   <path style="fill:rgb(0%,0%,0%)" d="M 228 60 L 288 60 L 288 96 L 228 96 Z M 228 60"/>
  </g>
  <mask id="mask5">
   <g filter="url(#alpha)">
    <rect width="384" height="384" x="0" y="0" style="fill:rgb(0%,0%,0%);fill-opacity:0.2"/>
   </g>
  </mask>
  <clipPath id="clip6">
   <rect width="384" height="384" x="0" y="0"/>
  </clipPath>
  <g id="surface20" clip-path="url(#clip6)">
   <path style="fill:rgb(0%,0%,0%)" d="M 192.152344 279 C 192.085938 279.996094 192.035156 280.992188 192 281.988281 C 192 335.015625 234.980469 378 288 378 C 341.019531 378 384 335.015625 384 281.988281 C 383.980469 281.003906 383.945312 280.019531 383.894531 279.035156 C 382.25 330.828125 339.8125 371.96875 288 372 C 236.195312 371.941406 193.777344 330.785156 192.152344 279 Z M 192.152344 279"/>
  </g>
 </defs>
 <g>
  <path style="fill:rgb(71.764706%,71.764706%,71.764706%)" d="M 72 36 L 312 36 L 312 156 L 72 156 Z M 72 36"/>
  <path style="fill:rgb(35.686275%,35.686275%,35.686275%)" d="M 40.800781 144 L 343.199219 144 C 352.476562 144 360 151.613281 360 161.003906 L 360 330.996094 C 360 340.386719 352.476562 348 343.199219 348 L 40.800781 348 C 31.523438 348 24 340.386719 24 330.996094 L 24 161.003906 C 24 151.613281 31.523438 144 40.800781 144 Z M 40.800781 144"/>
  <use mask="url(#mask0)" xlink:href="#surface5"/>
  <use mask="url(#mask1)" xlink:href="#surface8"/>
  <use mask="url(#mask2)" xlink:href="#surface11"/>
  <use mask="url(#mask3)" xlink:href="#surface14"/>
  <use mask="url(#mask4)" xlink:href="#surface17"/>
  <path style="fill:rgb(28.235294%,68.235294%,100%)" d="M 384 276 C 384 329.019531 341.019531 372 288 372 C 234.980469 372 192 329.019531 192 276 C 192 222.980469 234.980469 180 288 180 C 341.019531 180 384 222.980469 384 276 Z M 384 276"/>
  <use mask="url(#mask5)" xlink:href="#surface20"/>
  <path style="fill:rgb(100%,100%,100%)" d="M 243 228 L 279 228 C 280.660156 228 282 229.339844 282 231 L 282 267 C 282 268.660156 280.660156 270 279 270 L 243 270 C 241.339844 270 240 268.660156 240 267 L 240 231 C 240 229.339844 241.339844 228 243 228 Z M 243 228"/>
  <path style="fill:rgb(100%,100%,100%)" d="M 297 228 L 332.996094 228 C 334.660156 228 336 229.339844 336 231 L 336 267 C 336 268.660156 334.660156 270 333 270 L 297.003906 270 C 295.339844 270 294 268.660156 294 267 L 294 231 C 294 229.339844 295.339844 228 297 228 Z M 297 228"/>
  <path style="fill:rgb(100%,100%,100%)" d="M 243 282 L 279 282 C 280.660156 282 282 283.339844 282 285 L 282 321 C 282 322.660156 280.660156 324 279 324 L 243 324 C 241.339844 324 240 322.660156 240 321 L 240 285 C 240 283.339844 241.339844 282 243 282 Z M 243 282"/>
  <path style="fill:rgb(100%,100%,100%)" d="M 297 282 L 332.996094 282 C 334.660156 282 336 283.339844 336 285 L 336 321 C 336 322.660156 334.660156 324 333 324 L 297.003906 324 C 295.339844 324 294 322.660156 294 321 L 294 285 C 294 283.339844 295.339844 282 297 282 Z M 297 282"/>
 </g>
</svg>
