<svg xmlns="http://www.w3.org/2000/svg" width="512" height="512" version="1.1" viewBox="0 0 512 512">
 <rect stroke-miterlimit="2.013" style="fill:#ffffff;fill-rule:evenodd;stroke:#000000;stroke-width:30.20000076;stroke-linecap:square;stroke-miterlimit:2.01260185;opacity:0.3" width="123.629" height="289.284" x="194.32" y="41" rx="61.814" ry="78.312"/>
 <rect stroke-miterlimit="2.013" style="fill:#ffffff;fill-rule:evenodd;stroke:#000000;stroke-width:30.2;stroke-linecap:square;stroke-miterlimit:2.01260185" width="98.903pt" height="231.428pt" x="194.32" y="31" rx="49.452pt" ry="62.649pt"/>
 <path style="fill:#223656;fill-rule:evenodd;stroke:#4c4c4c;stroke-width:0;stroke-linecap:square;stroke-linejoin:bevel" d="M 163.05664 257.16797 L 124.30078 257.33789 C 127.73069 337.57792 180.62135 382.5582 238.14844 390.40039 L 238.14844 442.02734 C 212.86208 446.28167 188.64037 459.13792 170.21875 480.42773 L 342.62305 481 C 325.1881 459.78244 302.08811 446.96302 277.67383 442.37109 L 277.67383 389.95312 C 332.81576 381.11211 382.79735 337.49354 387.69922 257.39844 L 348.33008 257.16797 C 341.70893 382.35051 170.43247 383.25573 163.05664 257.16797 z"/>
 <path style="fill-rule:evenodd;stroke:#ff5c5c;stroke-width:0;stroke-linecap:square;stroke-linejoin:bevel" d="M 125.00586 257.33398 L 124.30078 257.33789 C 127.73069 337.57792 180.62135 382.55819 238.14844 390.40039 L 238.14844 380.40039 C 183.05681 372.89021 132.22425 331.31464 125.00586 257.33398 z M 386.82812 257.39258 C 378.53963 331.12757 330.47588 371.48727 277.67383 379.95312 L 277.67383 389.95312 C 332.81576 381.11212 382.79735 337.49354 387.69922 257.39844 L 386.82812 257.39258 z M 179.92969 470.46094 C 176.54644 473.54898 173.29968 476.86712 170.21875 480.42773 L 342.62305 481 C 339.67715 477.41498 336.56673 474.07508 333.31836 470.96875 L 179.92969 470.46094 z"/>
</svg>
