<svg xmlns="http://www.w3.org/2000/svg" xmlns:xlink="http://www.w3.org/1999/xlink" width="384pt" height="384pt" version="1.1" viewBox="0 0 384 384"> <defs> <filter id="alpha" width="100%" height="100%" x="0%" y="0%" filterUnits="objectBoundingBox"> <feColorMatrix in="SourceGraphic" type="matrix" values="0 0 0 0 1 0 0 0 0 1 0 0 0 0 1 0 0 0 1 0"/> </filter> <mask id="mask0"> <g filter="url(#alpha)"> <rect width="384" height="384" x="0" y="0" style="fill:rgb(0%,0%,0%);fill-opacity:0.501961"/> </g> </mask> <clipPath id="clip1"> <rect width="384" height="384" x="0" y="0"/> </clipPath> <g id="surface5" clip-path="url(#clip1)"> <path style="fill:rgb(10.588%,24.705%,48.627%)" d="M 198.976562 23.25 C 195.558594 23.246094 191.449219 23.8125 187.179688 24.890625 C 163.335938 30.910156 137.675781 53.949219 110.730469 93.527344 C 72.476562 149.714844 36.28125 236.445312 26.023438 296.5 C 24.453125 305.6875 23.558594 313.898438 23.324219 321.140625 C 23.324219 321.121094 23.320312 321.101562 23.320312 321.082031 C 23.316406 321.164062 23.320312 321.242188 23.316406 321.324219 C 23.304688 321.699219 23.300781 322.0625 23.292969 322.429688 C 23.277344 323.191406 23.261719 323.949219 23.261719 324.6875 C 23.261719 325.105469 23.265625 325.515625 23.269531 325.925781 C 23.277344 326.601562 23.289062 327.269531 23.308594 327.921875 C 23.3125 328.140625 23.3125 328.367188 23.320312 328.582031 C 23.320312 328.535156 23.324219 328.488281 23.324219 328.445312 C 23.773438 341.046875 26.671875 350 32.027344 355.105469 C 35.390625 358.316406 39.257812 360.019531 44.15625 360.449219 C 53.390625 361.257812 67.746094 360.40625 80.90625 358.265625 C 113.585938 352.953125 150.566406 338.707031 189.480469 316.441406 C 218.042969 300.101562 247.558594 278.96875 263.957031 263.117188 C 269.402344 257.855469 272.304688 254.347656 273.914062 251.09375 C 273.914062 251.089844 273.917969 251.082031 273.921875 251.078125 C 274.902344 249.082031 275.050781 248.449219 274.910156 246.773438 C 274.882812 246.464844 274.84375 246.167969 274.785156 245.878906 C 274.734375 245.613281 274.664062 245.355469 274.589844 245.105469 C 274.585938 245.09375 274.585938 245.082031 274.582031 245.070312 C 274.582031 245.070312 274.578125 245.070312 274.578125 245.066406 C 274.496094 244.804688 274.398438 244.550781 274.289062 244.304688 C 274.179688 244.0625 274.054688 243.832031 273.921875 243.609375 C 273.917969 243.605469 273.914062 243.601562 273.914062 243.59375 C 273.28125 242.566406 272.378906 241.742188 271.207031 241.175781 C 270.078125 240.628906 269.492188 240.457031 267.734375 240.472656 C 267.148438 240.480469 266.433594 240.503906 265.527344 240.542969 C 262.027344 240.699219 260.816406 240.9375 256.121094 242.410156 C 241.21875 247.082031 229.8125 251.46875 191.097656 267.40625 C 172.867188 274.914062 150.199219 284.003906 141.703125 287.222656 C 121.78125 294.761719 103.269531 300.929688 95.617188 302.578125 C 91.542969 303.453125 85.46875 304.148438 84.515625 303.84375 C 83.472656 303.515625 82.746094 301.855469 82.414062 299.324219 C 82.410156 299.367188 82.40625 299.410156 82.402344 299.449219 C 81.796875 305.921875 82.65625 310.753906 84.515625 311.34375 C 85.46875 311.648438 91.542969 310.953125 95.617188 310.078125 C 103.269531 308.429688 121.78125 302.261719 141.703125 294.722656 C 150.199219 291.503906 172.867188 282.414062 191.097656 274.90625 C 229.8125 258.96875 241.21875 254.582031 256.121094 249.910156 C 260.816406 248.4375 262.027344 248.199219 265.527344 248.042969 C 268.722656 247.90625 269.527344 247.9375 270.699219 248.441406 C 269.050781 250.484375 266.878906 252.792969 263.957031 255.617188 C 247.558594 271.46875 218.042969 292.601562 189.480469 308.941406 C 150.566406 331.207031 113.585938 345.453125 80.90625 350.765625 C 67.746094 352.90625 53.390625 353.757812 44.15625 352.949219 C 39.257812 352.519531 35.390625 350.816406 32.027344 347.605469 C 27.191406 342.996094 24.359375 335.257812 23.523438 324.527344 C 23.917969 318.328125 24.742188 311.492188 26.023438 304 C 36.28125 243.945312 72.476562 157.214844 110.730469 101.027344 C 137.675781 61.449219 163.335938 38.410156 187.179688 32.390625 C 192.871094 30.953125 198.28125 30.429688 202.144531 30.941406 C 220.875 33.4375 240.21875 50.085938 261.410156 81.953125 C 285.171875 117.679688 310.71875 172.867188 333.519531 237.71875 C 346.503906 274.652344 356.4375 309.453125 359.691406 328.992188 C 358.949219 330.53125 357.816406 331.628906 356.238281 332.335938 C 355.113281 332.839844 353.871094 333.246094 353.476562 333.238281 C 351.917969 333.214844 348.683594 332.515625 347.652344 331.984375 C 345.089844 330.660156 340.96875 324.96875 335.515625 315.226562 C 332.359375 309.582031 319.265625 283.414062 313.679688 271.574219 C 294.648438 231.25 275.460938 192.742188 263.027344 169.910156 C 237.285156 122.640625 216.765625 95.152344 201.871094 87.988281 C 199.460938 86.828125 197.070312 86.261719 194.601562 86.332031 C 188.28125 86.507812 181.414062 90.832031 172.21875 100.019531 C 158.671875 113.558594 144.550781 133.695312 128.917969 161.75 C 123.566406 171.355469 112.230469 194.1875 107.574219 204.738281 C 93.1875 237.339844 84.121094 266.050781 82.402344 284.449219 C 82.136719 287.300781 82.152344 289.832031 82.414062 291.824219 C 84.164062 273.425781 93.21875 244.773438 107.574219 212.238281 C 112.230469 201.6875 123.566406 178.855469 128.917969 169.25 C 144.550781 141.195312 158.671875 121.058594 172.21875 107.519531 C 185.011719 94.734375 193.304688 91.367188 201.871094 95.488281 C 216.765625 102.652344 237.285156 130.140625 263.027344 177.410156 C 275.460938 200.242188 294.648438 238.75 313.679688 279.074219 C 319.265625 290.914062 332.359375 317.082031 335.515625 322.726562 C 340.96875 332.46875 345.089844 338.160156 347.652344 339.484375 C 348.683594 340.015625 351.917969 340.714844 353.476562 340.738281 C 353.871094 340.746094 355.113281 340.339844 356.238281 339.835938 C 358.519531 338.8125 359.894531 337 360.457031 334.167969 C 360.457031 334.160156 360.457031 334.152344 360.460938 334.144531 C 360.5 333.9375 360.535156 333.730469 360.566406 333.515625 C 360.570312 333.472656 360.578125 333.433594 360.582031 333.390625 C 360.613281 333.175781 360.640625 332.957031 360.660156 332.730469 C 360.664062 332.710938 360.664062 332.691406 360.667969 332.675781 C 360.710938 332.171875 360.742188 331.640625 360.746094 331.082031 C 360.746094 331.082031 360.746094 331.078125 360.746094 331.074219 C 360.746094 331.074219 360.746094 331.070312 360.746094 331.070312 C 360.753906 330.542969 360.734375 329.988281 360.707031 329.410156 C 360.699219 329.296875 360.695312 329.1875 360.6875 329.074219 C 360.652344 328.496094 360.605469 327.90625 360.535156 327.277344 C 360.515625 327.089844 360.476562 326.863281 360.457031 326.671875 C 358.320312 308.585938 347.734375 270.648438 333.519531 230.21875 C 310.71875 165.367188 285.171875 110.179688 261.410156 74.453125 C 240.21875 42.585938 220.875 25.9375 202.144531 23.441406 C 201.175781 23.316406 200.113281 23.25 198.976562 23.25 Z M 198.976562 23.25"/> </g> </defs> <g> <path style="fill:rgb(9.803%,63.137%,52.941%)" d="M 44.160156 360.449219 C 39.257812 360.019531 35.390625 358.316406 32.027344 355.105469 C 22.90625 346.40625 20.878906 326.617188 26.023438 296.5 C 36.28125 236.445312 72.480469 149.714844 110.730469 93.527344 C 137.675781 53.949219 163.335938 30.910156 187.179688 24.890625 C 192.871094 23.453125 198.28125 22.929688 202.144531 23.441406 C 220.875 25.9375 240.21875 42.585938 261.410156 74.453125 C 285.171875 110.179688 310.71875 165.367188 333.519531 230.21875 C 347.886719 271.082031 358.558594 309.425781 360.535156 327.277344 C 361.316406 334.324219 360.007812 338.144531 356.238281 339.835938 C 355.113281 340.339844 353.871094 340.746094 353.476562 340.742188 C 351.917969 340.714844 348.683594 340.015625 347.652344 339.484375 C 345.089844 338.160156 340.96875 332.464844 335.515625 322.726562 C 332.359375 317.082031 319.265625 290.914062 313.679688 279.078125 C 294.644531 238.75 275.460938 200.242188 263.027344 177.410156 C 237.285156 130.140625 216.765625 102.65625 201.871094 95.488281 C 193.304688 91.371094 185.011719 94.734375 172.21875 107.519531 C 158.671875 121.058594 144.550781 141.195312 128.917969 169.25 C 123.566406 178.859375 112.230469 201.6875 107.574219 212.238281 C 93.1875 244.839844 84.121094 273.550781 82.402344 291.949219 C 81.796875 298.421875 82.65625 303.253906 84.515625 303.84375 C 85.46875 304.148438 91.542969 303.453125 95.617188 302.578125 C 103.269531 300.929688 121.78125 294.761719 141.703125 287.222656 C 150.199219 284.003906 172.867188 274.914062 191.097656 267.40625 C 229.8125 251.46875 241.21875 247.082031 256.121094 242.410156 C 260.816406 240.9375 262.027344 240.699219 265.527344 240.546875 C 269.160156 240.386719 269.699219 240.445312 271.207031 241.175781 C 273.410156 242.242188 274.695312 244.1875 274.910156 246.773438 C 275.046875 248.449219 274.902344 249.082031 273.921875 251.078125 C 272.316406 254.335938 269.414062 257.847656 263.960938 263.117188 C 247.558594 278.964844 218.042969 300.101562 189.480469 316.441406 C 150.566406 338.707031 113.585938 352.949219 80.90625 358.265625 C 67.746094 360.40625 53.390625 361.257812 44.160156 360.449219 Z M 44.160156 360.449219"/> <use mask="url(#mask0)" xlink:href="#surface5"/> </g> </svg>
