<svg xmlns="http://www.w3.org/2000/svg" xmlns:xlink="http://www.w3.org/1999/xlink" width="384pt" height="384pt" version="1.1" viewBox="0 0 384 384">
 <defs>
  <filter id="alpha" width="100%" height="100%" x="0%" y="0%" filterUnits="objectBoundingBox">
   <feColorMatrix in="SourceGraphic" type="matrix" values="0 0 0 0 1 0 0 0 0 1 0 0 0 0 1 0 0 0 1 0"/>
  </filter>
  <mask id="mask0">
   <g filter="url(#alpha)">
    <rect width="384" height="384" x="0" y="0" style="fill:rgb(0%,0%,0%);fill-opacity:0.2"/>
   </g>
  </mask>
  <clipPath id="clip1">
   <rect width="384" height="384" x="0" y="0"/>
  </clipPath>
  <g id="surface5" clip-path="url(#clip1)">
   <path style="fill:rgb(0%,0%,0%)" d="M 192 30 C 98.929688 30 24 104.929688 24 198 C 24 291.070312 98.929688 366 192 366 C 285.070312 366 360 291.070312 360 198 C 360 104.929688 285.070312 30 192 30 Z M 192 126 C 231.765625 126 264 158.234375 264 198 C 264 237.765625 231.765625 270 192 270 C 152.234375 270 120 237.765625 120 198 C 120 158.234375 152.234375 126 192 126 Z M 192 126"/>
  </g>
  <mask id="mask1">
   <g filter="url(#alpha)">
    <rect width="384" height="384" x="0" y="0" style="fill:rgb(0%,0%,0%);fill-opacity:0.2"/>
   </g>
  </mask>
  <clipPath id="clip2">
   <rect width="384" height="384" x="0" y="0"/>
  </clipPath>
  <g id="surface8" clip-path="url(#clip2)">
   <path style="fill:rgb(100%,100%,100%)" d="M 192 24 C 98.929688 24 24 98.929688 24 192 C 24 192.679688 24.066406 193.34375 24.105469 194.015625 C 26.214844 102.804688 100.265625 30 192 30 C 283.726562 30 357.785156 102.792969 359.90625 193.992188 C 359.945312 193.328125 360 192.671875 360 192 C 360 98.929688 285.070312 24 192 24 Z M 120.304688 197.976562 C 120.117188 199.980469 120.015625 201.988281 120 204 C 120.03125 205 120.082031 206 120.152344 207 C 120.183594 205.992188 120.234375 204.984375 120.304688 203.976562 C 123.410156 241.273438 154.574219 269.972656 192 270 C 229.410156 269.972656 260.566406 241.300781 263.695312 204.023438 C 263.78125 205.207031 263.839844 206.390625 263.871094 207.574219 C 263.945312 206.382812 263.988281 205.191406 264 204 C 263.980469 202.003906 263.878906 200.011719 263.695312 198.023438 C 260.566406 235.300781 229.410156 263.972656 192 264 C 154.574219 263.972656 123.410156 235.273438 120.304688 197.976562 Z M 120.304688 197.976562"/>
  </g>
  <mask id="mask2">
   <g filter="url(#alpha)">
    <rect width="384" height="384" x="0" y="0" style="fill:rgb(0%,0%,0%);fill-opacity:0.2"/>
   </g>
  </mask>
  <clipPath id="clip3">
   <rect width="384" height="384" x="0" y="0"/>
  </clipPath>
  <g id="surface11" clip-path="url(#clip3)">
   <path style="fill:rgb(0%,0%,0%)" d="M 383.746094 275.089844 C 381.046875 326.011719 338.996094 365.9375 288 366 C 237.664062 366 195.875 327.117188 192.253906 276.910156 C 192.121094 278.605469 192.039062 280.300781 192 282 C 192 335.019531 234.980469 378 288 378 C 341.019531 378 384 335.019531 384 282 C 383.996094 279.691406 383.910156 277.386719 383.742188 275.085938 Z M 383.746094 275.089844"/>
  </g>
 </defs>
 <g>
  <use mask="url(#mask0)" xlink:href="#surface5"/>
  <path style="fill:rgb(64.705882%,64.705882%,64.705882%)" d="M 192 102 C 142.292969 102 102 142.292969 102 192 C 102 241.707031 142.292969 282 192 282 C 241.707031 282 282 241.707031 282 192 C 282 142.292969 241.707031 102 192 102 Z M 192 156 C 211.882812 156 228 172.117188 228 192 C 228 211.882812 211.882812 228 192 228 C 172.117188 228 156 211.882812 156 192 C 156 172.117188 172.117188 156 192 156 Z M 192 156"/>
  <path style="fill:rgb(71.764706%,76.470588%,80.392157%)" d="M 192 24 C 98.929688 24 24 98.929688 24 192 C 24 285.070312 98.929688 360 192 360 C 285.070312 360 360 285.070312 360 192 C 360 98.929688 285.070312 24 192 24 Z M 192 120 C 231.765625 120 264 152.234375 264 192 C 264 231.765625 231.765625 264 192 264 C 152.234375 264 120 231.765625 120 192 C 120 152.234375 152.234375 120 192 120 Z M 192 120"/>
  <use mask="url(#mask1)" xlink:href="#surface8"/>
  <use mask="url(#mask2)" xlink:href="#surface11"/>
  <path style="fill:rgb(55.686275%,26.666667%,67.843137%)" d="M 384 276 C 384 329.019531 341.019531 372 288 372 C 234.980469 372 192 329.019531 192 276 C 192 222.980469 234.980469 180 288 180 C 341.019531 180 384 222.980469 384 276 Z M 384 276"/>
  <path style="fill:rgb(100%,100%,100%)" d="M 240 280.007812 C 240 306.519531 261.492188 328.007812 288 328.007812 C 314.242188 328.007812 335.523438 306.941406 335.953125 280.804688 C 335.984375 280.539062 336 280.273438 336 280.007812 C 336 275.589844 332.417969 272.007812 328 272.007812 C 323.582031 272.007812 320 275.589844 320 280.007812 C 320 297.679688 305.675781 312.007812 288 312.007812 C 270.328125 312.007812 256 297.679688 256 280.007812 C 256 262.335938 270.328125 248.007812 288 248.007812 L 288 264.007812 L 320 240.007812 L 288.003906 216 L 288.003906 232 C 261.496094 232 240.003906 253.492188 240.003906 280 Z M 240 280.007812"/>
 </g>
</svg>
