<svg width="512" height="512" version="1.1" viewBox="0 0 384 384" xmlns="http://www.w3.org/2000/svg"><defs><clipPath><rect width="384" height="384"/></clipPath></defs><path d="m59.23 23.25h265.54c19.871 0 35.98 16.109 35.98 35.98v265.54c0 19.871-16.109 35.98-35.98 35.98h-265.54c-19.871 0-35.98-16.109-35.98-35.98v-265.54c0-19.871 16.109-35.98 35.98-35.98z" fill="#d41717" fill-rule="evenodd"/><path d="m144.56 68.145c-12.84-0.22266-23.922 12.547-21.207 25.305 1.8281 19.496 14.398 35.32 24.207 51.418 1.1055 5.9961-2.0586 11.832-2.2695 17.781-6.3945 34.945-16.152 69.699-31.164 101.76-18.578 8.5508-39.613 16.996-50.477 35.426-6.8945 12.789 2.8164 30.047 17.066 31.395 13.223 1.8086 23.035-9.5195 30.266-19.016 7.5469-10.211 12.512-22.371 18.789-33.344 38-15.305 77.98-26 118.79-30.062 16.5 11.812 33.98 25.742 55.141 26.586 12.301-0.18359 22.25-12.121 20.902-24.25-0.78906-11.039-10.598-18.781-20.762-20.852-16.387-4.9375-33.941-2.2344-50.609-2.1133-32.082-25.633-61.695-55.125-85.023-88.871 1.7344-20.516 5.2109-43.207-5.4727-61.871-4.0586-5.8867-10.934-9.9219-18.176-9.2891m0.60937 18.633c3.6133 0.69531 3.8516 6.0781 4.8633 8.9531 0.95312 5.8633 0.84765 11.848 0.78125 17.77-4.3047-8.0391-9.8906-16.441-8.8945-25.969 1.1328-0.04687 2.1367-0.62109 3.25-0.75m19.906 80.004c19.117 23.773 40.355 45.668 63.531 65.512-30.559 4.6602-60.922 12.469-89.996 23 11.152-29.145 19.641-59.254 25.234-89.984 0.41015 0.48828 0.8164 0.98046 1.2266 1.4726m119.26 79.918c7.414 0.71484 15.969 0.28516 21.906 5.3945 0.5547 4.6094-5.0859 5.2812-8.0898 3.6133-6.2656-2.0938-12.465-4.7226-17.785-8.7305 1.3242-0.082 2.6445-0.2539 3.9766-0.27734m-185.25 48.492c-3.5234 6.5586-8.6562 12.738-14.008 17.383-1.7812 2.8828-6.668-2.4492-4.418-4.6992 4.6406-7.2695 12.75-11.121 19.926-15.461-0.5039 0.92579-1 1.8516-1.5039 2.7812" opacity=".3"/><path d="m144.56 60.645c-12.84-0.22266-23.922 12.547-21.207 25.305 1.8281 19.496 14.398 35.32 24.207 51.418 1.1055 5.9961-2.0586 11.832-2.2695 17.781-6.3945 34.945-16.152 69.699-31.164 101.76-18.578 8.5508-39.613 16.996-50.477 35.426-6.8945 12.789 2.8164 30.047 17.066 31.395 13.223 1.8086 23.035-9.5195 30.266-19.016 7.5469-10.211 12.512-22.371 18.789-33.344 38-15.305 77.98-26 118.79-30.062 16.5 11.812 33.98 25.742 55.141 26.586 12.301-0.18359 22.25-12.121 20.902-24.25-0.78906-11.039-10.598-18.781-20.762-20.852-16.387-4.9375-33.941-2.2344-50.609-2.1133-32.082-25.633-61.695-55.125-85.023-88.871 1.7344-20.516 5.2109-43.207-5.4727-61.871-4.0586-5.8867-10.934-9.9219-18.176-9.2891m0.60937 18.633c3.6133 0.69531 3.8516 6.0781 4.8633 8.9531 0.95312 5.8633 0.84765 11.848 0.78125 17.77-4.3047-8.0391-9.8906-16.441-8.8945-25.969 1.1328-0.04687 2.1367-0.62109 3.25-0.75m19.906 80.004c19.117 23.773 40.355 45.668 63.531 65.512-30.559 4.6602-60.922 12.469-89.996 23 11.152-29.145 19.641-59.254 25.234-89.984 0.41015 0.48828 0.8164 0.98046 1.2266 1.4726m119.26 79.918c7.4141 0.71484 15.969 0.28516 21.906 5.3945 0.55469 4.6094-5.0859 5.2812-8.0898 3.6133-6.2656-2.0938-12.465-4.7226-17.785-8.7305 1.3242-0.082 2.6445-0.2539 3.9766-0.27734m-185.25 48.492c-3.5234 6.5586-8.6562 12.738-14.008 17.383-1.7812 2.8828-6.668-2.4492-4.418-4.6992 4.6406-7.2695 12.75-11.121 19.926-15.461-0.5039 0.92579-1 1.8516-1.5039 2.7812" fill="#fff"/><path transform="scale(.75)" d="m78.975 31c-26.495 0-47.975 21.48-47.975 47.975v10c0-26.495 21.48-47.975 47.975-47.975h354.05c26.495 0 47.975 21.48 47.975 47.975v-10c0-26.495-21.48-47.975-47.975-47.975z" fill="#fff" fill-rule="evenodd" opacity=".3"/><path transform="scale(.75)" d="m31 423.03v10c0 26.495 21.48 47.975 47.975 47.975h354.05c26.495 0 47.975-21.48 47.975-47.975v-10c0 26.495-21.48 47.975-47.975 47.975h-354.05c-26.495 0-47.975-21.48-47.975-47.975z" fill-rule="evenodd" opacity=".3"/></svg>
