<svg width="512" height="512" version="1.1" viewBox="0 0 384 384" xmlns="http://www.w3.org/2000/svg"><g stroke-width="1.0817"><path d="m360.75 306.68c0-168.75-118.12-286.87-286.87-286.87-25.315 0-50.626 25.315-50.626 50.626v236.24c0 25.315 25.31 50.626 50.626 50.626h236.24c25.31 0 50.626-25.31 50.626-50.626z" opacity=".3"/><path d="m360.75 298.57c0-168.75-118.12-286.87-286.87-286.87-25.315 0-50.626 25.315-50.626 50.626v236.24c0 25.315 25.31 50.626 50.626 50.626h236.24c25.31 0 50.626-25.31 50.626-50.626z" fill="#ffc72e"/><path d="m62.193 104.18c0 13.708 5.8269 19.471 19.471 19.471 96.781 0 175.24 78.454 175.24 175.24 0 12.11 6.6087 19.471 19.471 19.471 13.238 0 19.471-7.7368 19.471-19.471 0-118.29-95.89-214.18-214.18-214.18-12.947 0-19.471 6.3002-19.471 19.471zm0 77.884c0 13.336 5.4551 19.471 19.471 19.471 53.765 0 97.351 43.586 97.351 97.351 0 11.464 6.5834 19.471 19.471 19.471 12.579 0 19.471-6.9847 19.471-19.471 0-75.273-61.02-136.3-136.3-136.3-12.575 0-19.471 5.5565-19.471 19.471zm38.942 58.409c-21.508 0-38.942 17.434-38.942 38.942 0 21.512 17.434 38.942 38.942 38.942 21.508 0 38.942-17.43 38.942-38.942 0-21.508-17.434-38.942-38.942-38.942z" opacity=".3"/><path d="m62.193 96.071c0 13.708 5.8269 19.471 19.471 19.471 96.781 0 175.24 78.454 175.24 175.24 0 12.11 6.6087 19.471 19.471 19.471 13.238 0 19.471-7.7368 19.471-19.471 0-118.29-95.89-214.18-214.18-214.18-12.947 0-19.471 6.3002-19.471 19.471zm0 77.884c0 13.336 5.4551 19.471 19.471 19.471 53.765 0 97.351 43.586 97.351 97.351 0 11.464 6.5833 19.471 19.471 19.471 12.579 0 19.471-6.9847 19.471-19.471 0-75.273-61.02-136.3-136.3-136.3-12.575 0-19.471 5.5565-19.471 19.471zm38.942 58.409c-21.508 0-38.942 17.434-38.942 38.942 0 21.512 17.434 38.942 38.942 38.942 21.508 0 38.942-17.43 38.942-38.942 0-21.508-17.434-38.942-38.942-38.942z" fill="#fff"/></g><path d="m73.876 11.701c-25.315 0-50.625 25.314-50.625 50.625v8.1129c0-25.311 25.311-50.625 50.625-50.625 166.6 0 283.85 115.13 286.81 280.45 0.025-0.56517 0.0523-1.13 0.0523-1.6955l0.01 0.01c-5e-4 -168.75-118.12-286.87-286.87-286.87z" fill="#fff" opacity=".3" stroke-width="1.0817"/></svg>
