<svg xmlns="http://www.w3.org/2000/svg" xmlns:xlink="http://www.w3.org/1999/xlink" width="384pt" height="384pt" version="1.1" viewBox="0 0 384 384">
 <defs>
  <filter id="alpha" width="100%" height="100%" x="0%" y="0%" filterUnits="objectBoundingBox">
   <feColorMatrix in="SourceGraphic" type="matrix" values="0 0 0 0 1 0 0 0 0 1 0 0 0 0 1 0 0 0 1 0"/>
  </filter>
  <mask id="mask0">
   <g filter="url(#alpha)">
    <rect width="384" height="384" x="0" y="0" style="fill:rgb(0%,0%,0%);fill-opacity:0.2"/>
   </g>
  </mask>
  <clipPath id="clip1">
   <rect width="384" height="384" x="0" y="0"/>
  </clipPath>
  <g id="surface5" clip-path="url(#clip1)">
   <path style="fill:rgb(0%,0%,0%)" d="M 342.679688 33.59375 C 342.09375 35.539062 341.273438 37.367188 340.3125 39.054688 C 336.433594 45.898438 306.214844 104.0625 309.539062 109.765625 C 309.953125 110.46875 310.6875 111.054688 311.648438 111.546875 C 318.183594 93.128906 337.269531 56.429688 340.3125 51.054688 C 343.070312 46.191406 344.554688 40.152344 342.679688 33.59375 Z M 371.414062 128.609375 C 370.390625 131.132812 367.589844 133.371094 360.140625 134.84375 C 345.734375 137.695312 304.566406 165.074219 290.160156 187.882812 C 275.75 210.691406 271.863281 296.792969 270.753906 307.058594 C 269.054688 323.222656 272.433594 353.648438 263.253906 356.296875 C 240.113281 362.972656 178.800781 378.75 120.757812 345.984375 C 64.820312 314.410156 47.644531 286.988281 43.484375 272.394531 C 42.707031 274 42.191406 275.566406 42.171875 277.058594 C 42.03125 287.871094 53.613281 320.085938 120.753906 357.984375 C 178.800781 390.75 240.113281 374.96875 263.253906 368.296875 C 272.433594 365.648438 269.050781 335.222656 270.75 319.054688 C 271.859375 308.792969 275.75 222.6875 290.15625 199.878906 C 304.566406 177.074219 345.730469 149.695312 360.140625 146.84375 C 374.546875 143.992188 371.789062 138.285156 371.789062 133.15625 C 371.789062 131.929688 371.660156 130.332031 371.414062 128.609375 Z M 16.847656 195.328125 C 15.894531 195.820312 12.945312 197.164062 12.464844 197.460938 C 7.707031 200.398438 40.753906 235.933594 54.464844 246.726562 C 59 242.105469 62.566406 238.480469 59.527344 237.960938 C 54.574219 237.113281 27.90625 210.371094 16.847656 195.328125 Z M 16.847656 195.328125"/>
  </g>
  <mask id="mask1">
   <g filter="url(#alpha)">
    <rect width="384" height="384" x="0" y="0" style="fill:rgb(0%,0%,0%);fill-opacity:0.2"/>
   </g>
  </mask>
  <clipPath id="clip2">
   <rect width="384" height="384" x="0" y="0"/>
  </clipPath>
  <g id="surface8" clip-path="url(#clip2)">
   <path style="fill:rgb(0%,0%,0%)" d="M 203.710938 126.332031 C 203.710938 126.332031 185.484375 123.625 174.96875 133.769531 C 164.453125 143.917969 155.335938 166.238281 156.039062 173.003906 C 156.738281 179.769531 177.773438 150.003906 186.886719 147.976562 C 196 145.945312 205.816406 131.0625 203.710938 126.332031 Z M 203.710938 126.332031"/>
  </g>
  <mask id="mask2">
   <g filter="url(#alpha)">
    <rect width="384" height="384" x="0" y="0" style="fill:rgb(0%,0%,0%);fill-opacity:0.2"/>
   </g>
  </mask>
  <clipPath id="clip3">
   <rect width="384" height="384" x="0" y="0"/>
  </clipPath>
  <g id="surface11" clip-path="url(#clip3)">
   <path style="fill:rgb(100%,100%,100%)" d="M 323.683594 0 C 314.539062 0 296.804688 21.679688 290.15625 25.101562 C 283.496094 28.523438 230.859375 67.289062 225.878906 74.132812 C 220.886719 80.976562 214.234375 83.832031 207.035156 83.261719 C 199.824219 82.691406 177.066406 82.449219 169.300781 87.011719 C 161.550781 91.574219 126.128906 128.882812 117.257812 133.441406 C 108.390625 138.003906 96.832031 140.335938 91.289062 140.90625 C 85.75 141.476562 67.390625 162.519531 62.402344 166.511719 C 57.414062 170.503906 18.011719 188.054688 12.46875 191.472656 C 11.515625 192.0625 12.167969 194.03125 13.804688 196.792969 C 21.382812 192.5625 57.59375 176.363281 62.402344 172.511719 C 67.390625 168.519531 85.75 147.476562 91.289062 146.90625 C 96.832031 146.335938 108.390625 144.003906 117.257812 139.441406 C 126.128906 134.882812 161.550781 97.585938 169.300781 93.023438 C 177.066406 88.460938 199.824219 88.691406 207.035156 89.261719 C 214.234375 89.832031 220.886719 86.976562 225.878906 80.132812 C 230.859375 73.289062 283.496094 34.523438 290.15625 31.101562 C 296.804688 27.679688 314.539062 6.011719 323.683594 6.011719 C 326.457031 6.011719 331.4375 15.710938 338.636719 25.40625 C 341.46875 29.210938 342.886719 32.917969 343.382812 36.445312 C 344.171875 31.261719 343.132812 25.445312 338.636719 19.40625 C 331.4375 9.710938 326.457031 0.0117188 323.683594 0.0117188 Z M 363.75 108.796875 C 358.1875 109.632812 346.046875 117.621094 341.683594 118.617188 C 336.890625 119.714844 314.75 121.316406 310.078125 116.378906 C 309.390625 118.960938 309.085938 120.96875 309.550781 121.769531 C 312.878906 127.472656 336.695312 125.757812 341.683594 124.617188 C 346.671875 123.476562 361.804688 113.203125 365.683594 114.914062 C 369.5625 116.625 371.789062 128.027344 371.789062 133.160156 C 371.789062 133.226562 371.800781 133.292969 371.800781 133.359375 C 372.1875 131.347656 371.789062 129.210938 371.789062 127.160156 C 371.789062 122.027344 369.5625 110.625 365.683594 108.914062 C 365.199219 108.699219 364.542969 108.675781 363.75 108.796875 Z M 57.84375 249.199219 C 52.714844 254.824219 42.257812 263.84375 42.164062 271.054688 C 42.152344 272.085938 42.289062 273.367188 42.527344 274.769531 C 45.453125 264.207031 65.738281 251.011719 59.542969 249.949219 C 59.125 249.878906 58.550781 249.617188 57.84375 249.199219 Z M 57.84375 249.199219"/>
  </g>
 </defs>
 <g>
  <use mask="url(#mask0)" xlink:href="#surface5"/>
  <path style="fill:rgb(0%,0%,0%)" d="M 213.144531 120.277344 C 213.144531 120.277344 191.191406 116.890625 178.523438 129.59375 C 165.855469 142.292969 154.875 170.234375 155.722656 178.699219 C 156.566406 187.167969 181.898438 149.914062 192.878906 147.375 C 203.855469 144.832031 215.679688 126.203125 213.144531 120.277344 Z M 213.144531 120.277344"/>
  <path style="fill:rgb(37.647059%,54.117647%,70.980392%)" d="M 323.683594 0.00390625 C 314.542969 0.00390625 296.804688 21.675781 290.15625 25.097656 C 283.5 28.515625 230.855469 67.292969 225.875 74.136719 C 220.882812 80.976562 214.234375 83.828125 207.035156 83.257812 C 199.824219 82.691406 177.0625 82.453125 169.296875 87.015625 C 161.546875 91.578125 126.132812 128.882812 117.261719 133.441406 C 108.398438 138.003906 96.828125 140.339844 91.289062 140.910156 C 85.746094 141.480469 67.390625 162.519531 62.402344 166.511719 C 57.417969 170.503906 18.007812 188.054688 12.46875 191.472656 C 6.925781 194.894531 52.894531 242.8125 59.542969 243.953125 C 66.191406 245.09375 42.3125 260.214844 42.167969 271.058594 C 42.027344 281.871094 53.601562 314.078125 120.746094 351.980469 C 178.792969 384.75 240.109375 368.96875 263.253906 362.296875 C 272.433594 359.648438 269.058594 329.226562 270.757812 313.0625 C 271.867188 302.796875 275.746094 216.691406 290.152344 193.882812 C 304.558594 171.078125 345.738281 143.695312 360.148438 140.84375 C 374.554688 137.996094 371.785156 132.292969 371.785156 127.160156 C 371.785156 122.03125 369.566406 110.625 365.6875 108.914062 C 361.808594 107.203125 346.675781 117.476562 341.6875 118.617188 C 336.699219 119.757812 312.871094 121.46875 309.546875 115.765625 C 306.222656 110.066406 336.425781 51.902344 340.300781 45.0625 C 344.175781 38.21875 345.84375 29.09375 338.632812 19.402344 C 331.433594 9.707031 326.453125 0.0117188 323.679688 0.0117188 Z M 323.683594 0.00390625"/>
  <use mask="url(#mask1)" xlink:href="#surface8"/>
  <path style="fill:rgb(100%,100%,100%)" d="M 203.710938 120.324219 C 203.710938 120.324219 185.484375 117.621094 174.96875 127.765625 C 164.453125 137.914062 155.335938 160.234375 156.039062 167 C 156.738281 173.761719 177.773438 144 186.886719 141.972656 C 196 139.941406 205.816406 125.058594 203.710938 120.324219 Z M 203.710938 120.324219"/>
  <use mask="url(#mask2)" xlink:href="#surface11"/>
 </g>
</svg>
