<svg xmlns="http://www.w3.org/2000/svg" xmlns:xlink="http://www.w3.org/1999/xlink" width="384pt" height="384pt" version="1.1" viewBox="0 0 384 384"> <defs> <filter id="alpha" width="100%" height="100%" x="0%" y="0%" filterUnits="objectBoundingBox"> <feColorMatrix in="SourceGraphic" type="matrix" values="0 0 0 0 1 0 0 0 0 1 0 0 0 0 1 0 0 0 1 0"/> </filter> <mask id="mask0"> <g filter="url(#alpha)"> <rect width="384" height="384" x="0" y="0" style="fill:rgb(0%,0%,0%);fill-opacity:0.2"/> </g> </mask> <clipPath id="clip1"> <rect width="384" height="384" x="0" y="0"/> </clipPath> <g id="surface5" clip-path="url(#clip1)"> <path style="fill:rgb(0%,0%,0%)" d="M 24 337.199219 L 24 349.199219 C 24 358.5 31.496094 366 40.804688 366 L 343.199219 366 C 352.5 366 360 358.5 360 349.199219 L 360 337.199219 C 360 346.5 352.5 354 343.199219 354 L 40.804688 354 C 31.503906 354 24.003906 346.5 24.003906 337.199219 Z M 24 337.199219"/> </g> <mask id="mask1"> <g filter="url(#alpha)"> <rect width="384" height="384" x="0" y="0" style="fill:rgb(0%,0%,0%);fill-opacity:0.2"/> </g> </mask> <clipPath id="clip2"> <rect width="384" height="384" x="0" y="0"/> </clipPath> <g id="surface8" clip-path="url(#clip2)"> <path style="fill:rgb(0%,0%,0%)" d="M 76.675781 150 C 67.433594 150 60 156.992188 60 165.667969 L 60 206.34375 C 60 215.019531 67.433594 222 76.675781 222 L 115.324219 222 C 124.566406 222 132 215.019531 132 206.34375 L 132 165.667969 C 132 156.992188 124.566406 150 115.324219 150 Z M 184.675781 150 C 175.433594 150 168 156.992188 168 165.667969 L 168 206.34375 C 168 215.019531 175.433594 222 184.675781 222 L 223.3125 222 C 232.554688 222 240 215.019531 240 206.34375 L 240 165.667969 C 240 156.992188 232.554688 150 223.3125 150 Z M 76.675781 258 C 67.433594 258 60 264.980469 60 273.65625 L 60 314.34375 C 60 323.019531 67.433594 330 76.675781 330 L 115.324219 330 C 124.566406 330 132 323.019531 132 314.34375 L 132 273.65625 C 132 264.980469 124.566406 258 115.324219 258 Z M 184.675781 258 C 175.433594 258 168 264.980469 168 273.65625 L 168 314.34375 C 168 323.019531 175.433594 330 184.675781 330 L 223.3125 330 C 232.554688 330 240 323.019531 240 314.34375 L 240 273.65625 C 240 264.980469 232.554688 258 223.3125 258 Z M 184.675781 258"/> </g> <mask id="mask2"> <g filter="url(#alpha)"> <rect width="384" height="384" x="0" y="0" style="fill:rgb(0%,0%,0%);fill-opacity:0.101961"/> </g> </mask> <clipPath id="clip3"> <rect width="384" height="384" x="0" y="0"/> </clipPath> <g id="surface11" clip-path="url(#clip3)"> <path style="fill:rgb(100.000%,100.000%,100.000%)" d="M 40.804688 24 C 31.496094 24 24 31.496094 24 40.804688 L 24 46.816406 C 24 37.507812 31.496094 30.011719 40.804688 30.011719 L 343.195312 30.011719 C 352.496094 30.011719 360 37.507812 360 46.816406 L 360 40.804688 C 360 31.496094 352.496094 24 343.195312 24 Z M 40.804688 24"/> </g> </defs> <g> <use mask="url(#mask0)" xlink:href="#surface5"/> <path style="fill:rgb(29.803%,29.803%,29.803%)" d="M 360 343.199219 L 360 40.804688 C 360 31.527344 352.476562 24.007812 343.199219 24.007812 L 40.804688 24.007812 C 31.527344 24.007812 24.007812 31.527344 24.007812 40.804688 L 24.007812 343.199219 C 24.007812 352.476562 31.527344 360 40.804688 360 L 343.199219 360 C 352.476562 360 360 352.476562 360 343.199219 Z M 360 343.199219"/> <use mask="url(#mask1)" xlink:href="#surface8"/> <use mask="url(#mask2)" xlink:href="#surface11"/> <path style="fill:rgb(99.215%,28.627%,28.627%)" d="M 76.679688 252 L 115.320312 252 C 124.53125 252 132 259.011719 132 267.660156 L 132 308.339844 C 132 316.988281 124.53125 324 115.320312 324 L 76.679688 324 C 67.46875 324 60 316.988281 60 308.339844 L 60 267.660156 C 60 259.011719 67.46875 252 76.679688 252 Z M 76.679688 252"/> <path style="fill:rgb(99.215%,28.627%,28.627%)" d="M 76.679688 144.003906 L 115.320312 144.003906 C 124.53125 144.003906 132 151.015625 132 159.664062 L 132 200.34375 C 132 208.992188 124.53125 216.003906 115.320312 216.003906 L 76.679688 216.003906 C 67.46875 216.003906 60 208.992188 60 200.34375 L 60 159.664062 C 60 151.015625 67.46875 144.003906 76.679688 144.003906 Z M 76.679688 144.003906"/> <path style="fill:rgb(99.215%,28.627%,28.627%)" d="M 184.675781 252 L 223.316406 252 C 232.527344 252 239.996094 259.011719 239.996094 267.660156 L 239.996094 308.339844 C 239.996094 316.988281 232.527344 324 223.316406 324 L 184.675781 324 C 175.464844 324 167.996094 316.988281 167.996094 308.339844 L 167.996094 267.660156 C 167.996094 259.011719 175.464844 252 184.675781 252 Z M 184.675781 252"/> <path style="fill:rgb(99.215%,28.627%,28.627%)" d="M 184.675781 144.003906 L 223.316406 144.003906 C 232.527344 144.003906 239.996094 151.015625 239.996094 159.664062 L 239.996094 200.34375 C 239.996094 208.992188 232.527344 216.003906 223.316406 216.003906 L 184.675781 216.003906 C 175.464844 216.003906 167.996094 208.992188 167.996094 200.34375 L 167.996094 159.664062 C 167.996094 151.015625 175.464844 144.003906 184.675781 144.003906 Z M 184.675781 144.003906"/> </g> </svg>
