<svg width="512" height="512" version="1.1" viewBox="0 0 384 384" xmlns="http://www.w3.org/2000/svg"><defs><clipPath id="c"><rect width="384" height="384"/></clipPath></defs><path d="m40.801 24c-11.305 0-20.551 9.0442-20.551 20.102v295.8c0 11.058 9.2461 20.102 20.551 20.102h302.4c11.305 0 20.551-9.0442 20.551-20.102v-295.8c0-11.058-9.2461-20.102-20.551-20.102zm0 7.3362h302.4c7.25 0 13.051 5.6742 13.051 12.766v295.8c0 7.0917-5.8008 12.766-13.051 12.766h-302.4c-7.25 0-13.051-5.6742-13.051-12.766v-295.8c0-7.0917 5.8008-12.766 13.051-12.766z" color="#000000" color-rendering="auto" dominant-baseline="auto" image-rendering="auto" opacity=".2" shape-rendering="auto" solid-color="#000000" style="font-feature-settings:normal;font-variant-alternates:normal;font-variant-caps:normal;font-variant-ligatures:normal;font-variant-numeric:normal;font-variant-position:normal;isolation:auto;mix-blend-mode:normal;shape-padding:0;text-decoration-color:#000000;text-decoration-line:none;text-decoration-style:solid;text-indent:0;text-orientation:mixed;text-transform:none;white-space:normal"/><path d="m360 343.2v-302.4c0-9.2773-7.5234-16.801-16.801-16.801h-302.4c-9.2773 0-16.801 7.5234-16.801 16.801v302.4c0 9.2773 7.5234 16.801 16.801 16.801h302.4c9.2773 0 16.801-7.5234 16.801-16.801z" fill="#fff"/><path d="m156 91.5-10.667 48h-46.657l-8.0156 36h46.673l-10.667 48h-46.67l-7.9922 36h46.663l-10.667 48h36l10.667-48h48l-10.667 48h36l10.667-48h46.947l7.9922-36h-46.939l10.667-48h46.937l7.7344-34.758v-1.2422h-46.671l10.667-48h-36l-10.667 48h-48l10.667-48zm17.334 84h48l-10.667 48h-48z" opacity=".3"/><g fill="#272a34"><path d="m156 84-10.667 48h-46.657l-8.0156 36h46.673l-10.667 48h-46.67l-7.9922 36h46.663l-10.667 48h36l10.667-48h48l-10.667 48h36l10.667-48h46.947l7.9922-36h-46.939l10.667-48h46.937l7.7344-34.758v-1.2422h-46.671l10.667-48h-36l-10.667 48h-48l10.667-48zm17.333 84h48l-10.667 48h-48z"/></g><path transform="scale(.75)" d="m32 447.6v10c0 12.37 10.031 22.4 22.4 22.4h403.2c12.37 0 22.4-10.031 22.4-22.4v-10c0 12.37-10.031 22.4-22.4 22.4h-403.2c-12.37 0-22.4-10.031-22.4-22.4z" opacity=".3"/><path transform="scale(.75)" d="m54.4 32c-12.37 0-22.4 10.031-22.4 22.4v10c0-12.37 10.031-22.4 22.4-22.4h403.2c12.37 0 22.4 10.031 22.4 22.4v-10c0-12.37-10.031-22.4-22.4-22.4h-403.2z" opacity=".1"/></svg>
