<svg xmlns="http://www.w3.org/2000/svg" xmlns:xlink="http://www.w3.org/1999/xlink" width="384pt" height="384pt" version="1.1" viewBox="0 0 384 384"> <defs> <filter id="alpha" width="100%" height="100%" x="0%" y="0%" filterUnits="objectBoundingBox"> <feColorMatrix in="SourceGraphic" type="matrix" values="0 0 0 0 1 0 0 0 0 1 0 0 0 0 1 0 0 0 1 0"/> </filter> <mask id="mask0"> <g filter="url(#alpha)"> <rect width="384" height="384" x="0" y="0" style="fill:rgb(0%,0%,0%);fill-opacity:0.301961"/> </g> </mask> <clipPath id="clip1"> <rect width="384" height="384" x="0" y="0"/> </clipPath> <g id="surface5" clip-path="url(#clip1)"> <path style="fill:rgb(0%,0%,0%)" d="M 197.726562 193.816406 L 79.441406 316.90625 C 110.96875 347.996094 153.449219 365.449219 197.726562 365.503906 Z M 197.726562 193.816406"/> </g> <mask id="mask1"> <g filter="url(#alpha)"> <rect width="384" height="384" x="0" y="0" style="fill:rgb(0%,0%,0%);fill-opacity:0.2"/> </g> </mask> <clipPath id="clip2"> <rect width="384" height="384" x="0" y="0"/> </clipPath> <g id="surface8" clip-path="url(#clip2)"> <path style="fill:rgb(0%,0%,0%)" d="M 197.726562 28.003906 L 197.726562 203.003906 L 316.074219 316.96875 C 348.300781 285.265625 366.457031 241.957031 366.476562 196.753906 C 366.476562 103.554688 290.925781 28.003906 197.726562 28.003906 Z M 197.726562 28.003906"/> </g> </defs> <g> <path style="fill:rgb(99.215%,28.627%,28.627%)" d="M 299.476562 192.253906 C 299.476562 250.933594 251.90625 298.503906 193.226562 298.503906 C 134.546875 298.503906 86.976562 250.933594 86.976562 192.253906 C 86.976562 133.574219 134.546875 86.003906 193.226562 86.003906 C 251.90625 86.003906 299.476562 133.574219 299.476562 192.253906 Z M 299.476562 192.253906"/> <path style="fill:rgb(29.019%,68.235%,90.196%)" d="M 193.226562 198.503906 L 193.226562 342.253906 C 232.425781 342.242188 270.066406 326.890625 298.085938 299.480469 Z M 193.226562 198.503906"/> <use mask="url(#mask0)" xlink:href="#surface5"/> <use mask="url(#mask1)" xlink:href="#surface8"/> <path style="fill:rgb(10.980%,58.431%,60.784%)" d="M 193.226562 23.503906 L 193.226562 198.503906 L 311.574219 312.46875 C 343.800781 280.765625 361.957031 237.457031 361.976562 192.253906 C 361.976562 99.054688 286.425781 23.503906 193.226562 23.503906 Z M 193.226562 23.503906"/> <path style="fill:rgb(54.901%,25.882%,67.058%)" d="M 193.226562 198.503906 L 74.941406 312.40625 C 106.46875 343.496094 148.949219 360.949219 193.226562 361.003906 Z M 193.226562 198.503906"/> <path style="fill:rgb(97.254%,87.058%,40.784%)" d="M 43.449219 198.503906 C 45.070312 236.632812 61.164062 272.714844 88.457031 299.394531 L 193.226562 198.503906 Z M 43.449219 198.503906"/> </g> </svg>
