<svg xmlns="http://www.w3.org/2000/svg" xmlns:xlink="http://www.w3.org/1999/xlink" width="384pt" height="384pt" version="1.1" viewBox="0 0 384 384">
 <defs>
  <filter id="alpha" width="100%" height="100%" x="0%" y="0%" filterUnits="objectBoundingBox">
   <feColorMatrix in="SourceGraphic" type="matrix" values="0 0 0 0 1 0 0 0 0 1 0 0 0 0 1 0 0 0 1 0"/>
  </filter>
  <mask id="mask0">
   <g filter="url(#alpha)">
    <rect width="384" height="384" x="0" y="0" style="fill:rgb(0%,0%,0%);fill-opacity:0.2"/>
   </g>
  </mask>
  <clipPath id="clip1">
   <rect width="384" height="384" x="0" y="0"/>
  </clipPath>
  <g id="surface5" clip-path="url(#clip1)">
   <path style="fill:rgb(0%,0%,0%)" d="M 360 198 C 360 290.785156 284.785156 366 192 366 C 99.214844 366 24 290.785156 24 198 C 24 105.214844 99.214844 30 192 30 C 284.785156 30 360 105.214844 360 198 Z M 360 198"/>
  </g>
  <mask id="mask1">
   <g filter="url(#alpha)">
    <rect width="384" height="384" x="0" y="0" style="fill:rgb(0%,0%,0%);fill-opacity:0.2"/>
   </g>
  </mask>
  <clipPath id="clip2">
   <rect width="384" height="384" x="0" y="0"/>
  </clipPath>
  <g id="surface8" clip-path="url(#clip2)">
   <path style="fill:rgb(100%,100%,100%)" d="M 192 24 C 99.214844 24 24 99.214844 24 192 C 24.027344 192.984375 24.0625 193.96875 24.105469 194.953125 C 25.765625 103.402344 100.433594 30.042969 192 30 C 283.546875 30.066406 358.1875 103.421875 359.847656 194.953125 C 359.90625 193.96875 359.957031 192.984375 360 192 C 360 99.214844 284.785156 24 192 24 Z M 192 24"/>
  </g>
  <mask id="mask2">
   <g filter="url(#alpha)">
    <rect width="384" height="384" x="0" y="0" style="fill:rgb(0%,0%,0%);fill-opacity:0.2"/>
   </g>
  </mask>
  <clipPath id="clip3">
   <rect width="384" height="384" x="0" y="0"/>
  </clipPath>
  <g id="surface11" clip-path="url(#clip3)">
   <path style="fill:rgb(0%,0%,0%)" d="M 264 132 L 84 189.609375 L 150.632812 217.3125 L 174 222 L 179.015625 245.976562 L 206.390625 312 Z M 143.179688 240.164062 C 143.179688 239.847656 141.074219 240.027344 139.289062 240.492188 C 132.460938 242.273438 122.550781 249.597656 117.234375 256.804688 C 111.207031 264.976562 107.984375 274.5625 108 284.320312 C 108.003906 287.050781 108.132812 287.511719 108.9375 287.859375 C 109.847656 288.253906 117.570312 287.769531 120.703125 287.132812 C 129.730469 285.289062 137.410156 281.082031 144.28125 274.195312 C 148.601562 269.867188 151.148438 266.292969 153.65625 261.070312 C 155.296875 257.648438 156.429688 253.484375 155.859375 252.914062 C 155.746094 252.804688 154.832031 253.335938 153.84375 254.109375 C 146.390625 258.882812 140.445312 262.339844 132 264 C 134.191406 255.695312 136.523438 249.359375 140.882812 243.398438 C 142.144531 241.699219 143.179688 240.25 143.179688 240.164062 Z M 143.179688 240.164062"/>
  </g>
 </defs>
 <g>
  <use mask="url(#mask0)" xlink:href="#surface5"/>
  <path style="fill:rgb(10.588235%,63.921569%,53.72549%)" d="M 360 192 C 360 284.785156 284.785156 360 192 360 C 99.214844 360 24 284.785156 24 192 C 24 99.214844 99.214844 24 192 24 C 284.785156 24 360 99.214844 360 192 Z M 360 192"/>
  <use mask="url(#mask1)" xlink:href="#surface8"/>
  <use mask="url(#mask2)" xlink:href="#surface11"/>
  <path style="fill:rgb(100%,100%,100%)" d="M 264 120 L 84 177.597656 L 150.632812 205.3125 L 174 210 L 179.015625 233.964844 L 206.402344 300 Z M 141.902344 228.035156 C 141.152344 228.097656 140.183594 228.261719 139.289062 228.492188 C 132.460938 230.273438 122.539062 237.609375 117.222656 244.816406 C 111.195312 252.988281 107.984375 262.5625 108 272.320312 C 108.003906 275.050781 108.121094 275.511719 108.925781 275.859375 C 109.835938 276.253906 117.558594 275.78125 120.691406 275.144531 C 129.71875 273.300781 137.410156 269.070312 144.28125 262.183594 C 148.601562 257.855469 151.160156 254.28125 153.667969 249.058594 C 155.308594 245.636719 156.417969 241.484375 155.847656 240.914062 C 155.734375 240.804688 154.832031 241.335938 153.84375 242.109375 C 146.390625 246.882812 140.445312 250.339844 132 252 C 134.191406 243.695312 136.523438 237.371094 140.882812 231.410156 C 142.144531 229.710938 143.179688 228.25 143.179688 228.164062 C 143.179688 228.003906 142.652344 227.972656 141.902344 228.035156 Z M 141.902344 228.035156"/>
  <path style="fill:rgb(90.196078%,90.196078%,90.196078%)" d="M 84 177.601562 L 150.628906 205.308594 L 174 210 L 264 120 Z M 84 177.601562"/>
 </g>
</svg>
