<svg xmlns="http://www.w3.org/2000/svg" xmlns:xlink="http://www.w3.org/1999/xlink" width="384pt" height="384pt" version="1.1" viewBox="0 0 384 384">
 <defs>
  <clipPath id="clip1">
   <rect width="384" height="384" x="0" y="0"/>
  </clipPath>
  <g id="surface5" clip-path="url(#clip1)">
   <path style="fill:rgb(0%,0%,0%)" d="M 244.128906 178.058594 C 248.125 204.722656 229.648438 233.886719 211.828125 255.671875 C 211.203125 245.039062 210.539062 237.703125 204.9375 227.527344 C 203.679688 246.84375 188.886719 262.589844 184.882812 281.945312 C 179.457031 308.15625 199.96875 337.027344 224.988281 346.222656 C 230.652344 348.304688 243.234375 350.984375 248.539062 352.132812 C 238.089844 344.148438 221.796875 329.84375 219.339844 316.722656 C 218.46875 313.757812 218.027344 310.707031 218.019531 307.640625 C 218.019531 287.972656 235.5625 272.03125 257.207031 272.03125 C 278.847656 272.03125 296.390625 287.972656 296.390625 307.640625 C 296.386719 309.90625 296.144531 312.167969 295.664062 314.394531 C 294.792969 327.375 276.238281 343.40625 265.160156 352.132812 L 269.417969 352.132812 C 272.375 351.058594 277.902344 349.746094 285.300781 345.53125 C 376.730469 293.410156 306.878906 218.433594 294.890625 209.710938 C 298.886719 218.433594 299.644531 233.199219 291.574219 240.363281 C 277.910156 188.65625 244.132812 178.058594 244.132812 178.058594 Z M 244.128906 178.058594"/>
  </g>
  <mask id="mask0-1">
   <g style="filter:url(#alpha-7)">
    <rect width="384" height="384" x="0" y="0" style="fill-opacity:0.30196102"/>
   </g>
  </mask>
  <filter id="alpha-7" width="1" height="1" x="0" y="0" filterUnits="objectBoundingBox">
   <feColorMatrix in="SourceGraphic" type="matrix" values="0 0 0 0 1 0 0 0 0 1 0 0 0 0 1 0 0 0 1 0"/>
  </filter>
 </defs>
 <g transform="translate(16.314445,-8.7877201e-6)">
  <path style="fill:#e6e6e6;stroke:#cccccc;stroke-width:0.25" d="M 24.000155,4.000185 C 12.95452,4.000185 3.999848,12.954365 3.999848,24 c 0,11.045635 8.954672,19.999815 20.000307,19.999815 11.045144,0 19.999815,-8.95418 19.999815,-19.999815 0,-11.045635 -8.954671,-19.999815 -19.999815,-19.999815 z m 0,14.54532 c 3.01258,0 5.454495,2.441915 5.454495,5.454495 0,3.01258 -2.441915,5.454495 -5.454495,5.454495 -3.013071,0 -5.454495,-2.441915 -5.454495,-5.454495 0,-3.01258 2.441424,-5.454495 5.454495,-5.454495 z m 0,0" transform="matrix(7.947144,0,0,7.947144,-15.045183,1.26855)"/>
  <path style="fill:#ffffff;stroke:#e6e6e6;stroke-width:0.44277301" d="m 24.000155,15.461162 c -4.716219,0 -8.53933,3.822619 -8.53933,8.538838 0,4.716219 3.823111,8.538838 8.53933,8.538838 4.715728,0 8.538839,-3.822619 8.538839,-8.538838 0,-4.716219 -3.823111,-8.538838 -8.538839,-8.538838 z m 0,4.007434 c 2.502373,0 4.531404,2.029031 4.531404,4.531404 0,2.502373 -2.029031,4.531404 -4.531404,4.531404 -2.502373,0 -4.531895,-2.029031 -4.531895,-4.531404 0,-2.502373 2.029522,-4.531404 4.531895,-4.531404 z m 0,0" transform="matrix(7.947144,0,0,7.947144,-15.045183,1.26855)"/>
  <use width="100%" height="100%" x="0" y="0" mask="url(#mask0-1)" xlink:href="#surface5"/>
  <path style="fill:#e32e2e" d="m 239.62891,173.55859 c 3.99609,26.66407 -14.48047,55.82813 -32.30079,77.61719 -0.625,-10.63672 -1.28906,-17.97266 -6.89062,-28.14844 -1.25781,19.31641 -16.05078,35.0625 -20.05469,54.41797 -5.42578,26.21094 15.08594,55.08203 40.10547,64.27735 5.66406,2.08203 18.24609,4.76171 23.55078,5.91015 -10.44922,-7.98437 -26.74219,-22.28906 -29.19922,-35.41015 -0.87109,-2.96485 -1.3125,-6.01563 -1.32031,-9.08204 0,-19.66796 17.54297,-35.60937 39.1875,-35.60937 21.64063,0 39.18359,15.94141 39.18359,35.60937 -0.004,2.26563 -0.24609,4.52735 -0.72656,6.75391 -0.87109,12.98047 -19.42578,29.01172 -30.5039,37.73828 h 4.25781 c 2.95703,-1.07422 8.48437,-2.38672 15.88281,-6.60156 91.42969,-52.12109 21.57813,-127.09766 9.58984,-135.82031 3.9961,8.72265 4.75391,23.48828 -3.3164,30.65234 -13.66406,-51.70703 -47.44531,-62.30469 -47.44531,-62.30469 z m 0,0"/>
 </g>
</svg>
