<svg xmlns="http://www.w3.org/2000/svg" xmlns:xlink="http://www.w3.org/1999/xlink" width="384pt" height="384pt" version="1.1" viewBox="0 0 384 384">
 <defs>
  <filter id="alpha" width="100%" height="100%" x="0%" y="0%" filterUnits="objectBoundingBox">
   <feColorMatrix in="SourceGraphic" type="matrix" values="0 0 0 0 1 0 0 0 0 1 0 0 0 0 1 0 0 0 1 0"/>
  </filter>
  <mask id="mask0">
   <g filter="url(#alpha)">
    <rect width="384" height="384" x="0" y="0" style="fill:rgb(0%,0%,0%);fill-opacity:0.2"/>
   </g>
  </mask>
  <clipPath id="clip1">
   <rect width="384" height="384" x="0" y="0"/>
  </clipPath>
  <g id="surface5" clip-path="url(#clip1)">
   <path style="fill:rgb(0%,0%,0%)" d="M 360 186 C 360 93.214844 284.785156 18 192 18 C 99.214844 18 24 93.214844 24 186 C 24 278.785156 99.214844 354 192 354 C 284.785156 354 360 278.785156 360 186 Z M 360 186"/>
  </g>
  <mask id="mask1">
   <g filter="url(#alpha)">
    <rect width="384" height="384" x="0" y="0" style="fill:rgb(0%,0%,0%);fill-opacity:0.2"/>
   </g>
  </mask>
  <clipPath id="clip2">
   <rect width="384" height="384" x="0" y="0"/>
  </clipPath>
  <g id="surface8" clip-path="url(#clip2)">
   <path style="fill:rgb(0%,0%,0%)" d="M 192 66 C 191.617188 66.003906 191.234375 66.027344 190.851562 66.070312 C 125.253906 66.699219 72 120.257812 72 186 C 72 252.132812 125.867188 306 192 306 C 257.726562 306 311.277344 252.773438 311.929688 187.195312 C 311.972656 186.796875 311.996094 186.398438 312 186 C 312 179.371094 306.628906 174 300 174 C 293.371094 174 288 179.371094 288 186 C 288 239.160156 245.160156 282 192 282 C 138.839844 282 96 239.160156 96 186 C 96 132.839844 138.839844 90 192 90 C 198.628906 90 204 84.628906 204 78 C 204 71.371094 198.628906 66 192 66 Z M 192 114 C 191.617188 113.996094 191.234375 114.011719 190.851562 114.046875 C 151.757812 114.671875 120 146.765625 120 186 C 120 225.621094 152.378906 258 192 258 C 231.21875 258 263.277344 226.265625 263.929688 187.195312 C 263.972656 186.796875 263.996094 186.398438 264 186 C 264 179.371094 258.628906 174 252 174 C 245.371094 174 240 179.371094 240 186 C 240 212.652344 218.652344 234 192 234 C 165.347656 234 144 212.652344 144 186 C 144 159.347656 165.347656 138 192 138 C 198.628906 138 204 132.628906 204 126 C 204 119.371094 198.628906 114 192 114 Z M 192 162 C 178.746094 162 168 172.746094 168 186 C 168 199.253906 178.746094 210 192 210 C 205.253906 210 216 199.253906 216 186 C 216 172.746094 205.253906 162 192 162 Z M 192 162"/>
  </g>
  <mask id="mask2">
   <g filter="url(#alpha)">
    <rect width="384" height="384" x="0" y="0" style="fill:rgb(0%,0%,0%);fill-opacity:0.101961"/>
   </g>
  </mask>
  <clipPath id="clip3">
   <rect width="384" height="384" x="0" y="0"/>
  </clipPath>
  <g id="surface11" clip-path="url(#clip3)">
   <path style="fill:rgb(100%,100%,100%)" d="M 192 12 C 98.929688 12 24 86.929688 24 180 C 24 180.679688 24.066406 181.34375 24.105469 182.015625 C 26.214844 90.804688 100.265625 18 192 18 C 283.734375 18 357.785156 90.804688 359.894531 182.015625 C 359.933594 181.34375 360 180.679688 360 180 C 360 86.929688 285.070312 12 192 12 Z M 192 12"/>
  </g>
 </defs>
 <g>
  <use mask="url(#mask0)" xlink:href="#surface5"/>
  <path style="fill:rgb(29.803922%,29.803922%,29.803922%)" d="M 360 180 C 360 87.214844 284.785156 12 192 12 C 99.214844 12 24 87.214844 24 180 C 24 272.785156 99.214844 348 192 348 C 284.785156 348 360 272.785156 360 180 Z M 360 180"/>
  <use mask="url(#mask1)" xlink:href="#surface8"/>
  <path style="fill:rgb(100%,100%,100%)" d="M 192 60 C 191.617188 60.003906 191.234375 60.027344 190.851562 60.070312 C 125.253906 60.699219 72 114.257812 72 180 C 72 246.132812 125.867188 300 192 300 C 257.726562 300 311.277344 246.773438 311.929688 181.195312 C 311.972656 180.796875 311.996094 180.398438 312 180 C 312 173.371094 306.628906 168 300 168 C 293.371094 168 288 173.371094 288 180 C 288 233.160156 245.160156 276 192 276 C 138.839844 276 96 233.160156 96 180 C 96 126.839844 138.839844 84 192 84 C 198.628906 84 204 78.628906 204 72 C 204 65.371094 198.628906 60 192 60 Z M 192 108 C 191.617188 107.996094 191.234375 108.011719 190.851562 108.046875 C 151.757812 108.671875 120 140.765625 120 180 C 120 219.621094 152.378906 252 192 252 C 231.21875 252 263.277344 220.265625 263.929688 181.195312 C 263.972656 180.796875 263.996094 180.398438 264 180 C 264 173.371094 258.628906 168 252 168 C 245.371094 168 240 173.371094 240 180 C 240 206.652344 218.652344 228 192 228 C 165.347656 228 144 206.652344 144 180 C 144 153.347656 165.347656 132 192 132 C 198.628906 132 204 126.628906 204 120 C 204 113.371094 198.628906 108 192 108 Z M 192 156 C 178.746094 156 168 166.746094 168 180 C 168 193.253906 178.746094 204 192 204 C 205.253906 204 216 193.253906 216 180 C 216 166.746094 205.253906 156 192 156 Z M 192 156"/>
  <use mask="url(#mask2)" xlink:href="#surface11"/>
 </g>
</svg>
