<svg xmlns="http://www.w3.org/2000/svg" xmlns:xlink="http://www.w3.org/1999/xlink" width="384pt" height="384pt" version="1.1" viewBox="0 0 384 384"> <defs> <linearGradient id="linearGradient1007"> <stop style="stop-color:rgb(21.176%,48.235%,94.117%)" offset="0"/> <stop style="stop-color:rgb(29.019%,68.235%,90.196%)" offset="1"/> </linearGradient> <filter id="alpha" width="100%" height="100%" x="0%" y="0%" filterUnits="objectBoundingBox"> <feColorMatrix in="SourceGraphic" type="matrix" values="0 0 0 0 1 0 0 0 0 1 0 0 0 0 1 0 0 0 1 0"/> </filter> <mask id="mask0"> <g filter="url(#alpha)"> <rect width="384" height="384" x="0" y="0" style="fill:rgb(0%,0%,0%);fill-opacity:0.2"/> </g> </mask> <clipPath id="clip1"> <rect width="384" height="384" x="0" y="0"/> </clipPath> <g id="surface5" clip-path="url(#clip1)"> <path style="fill:rgb(0%,0%,0%)" d="M 24.304688 192.003906 C 24.234375 194.007812 24 195.972656 24 198.003906 C 24 291.074219 98.925781 366 191.996094 366 C 285.066406 366 359.996094 291.074219 359.996094 198.003906 C 359.996094 195.972656 359.753906 194.007812 359.695312 192.003906 C 356.527344 282.253906 283.039062 354 191.996094 354 C 100.953125 354 27.46875 282.253906 24.300781 192.003906 Z M 24.304688 192.003906"/> </g> <mask id="mask2"> <g filter="url(#alpha)"> <rect width="384" height="384" x="0" y="0" style="fill:rgb(0%,0%,0%);fill-opacity:0.2"/> </g> </mask> <clipPath id="clip3"> <rect width="384" height="384" x="0" y="0"/> </clipPath> <g id="surface11" clip-path="url(#clip3)"> <path style="fill:rgb(0%,0%,0%)" d="M 174.835938 78.007812 C 170.097656 78.007812 168.058594 82.132812 168 87.242188 L 168 234.003906 L 132 234.003906 L 191.996094 318 L 251.996094 234.003906 L 216 234.003906 L 216 87.242188 C 216 82.125 213.875 78.003906 209.132812 78.003906 L 174.835938 78.003906 Z M 174.835938 78.007812"/> </g> <mask id="mask3"> <g filter="url(#alpha)"> <rect width="384" height="384" x="0" y="0" style="fill:rgb(0%,0%,0%);fill-opacity:0.2"/> </g> </mask> <clipPath id="clip4"> <rect width="384" height="384" x="0" y="0"/> </clipPath> <g id="surface14" clip-path="url(#clip4)"> <path style="fill:rgb(100.000%,100.000%,100.000%)" d="M 192 24 C 98.929688 24 24 98.929688 24 192 C 24 192.679688 24.066406 193.34375 24.105469 194.015625 C 26.214844 102.804688 100.265625 30 192 30 C 283.734375 30 357.785156 102.804688 359.894531 194.015625 C 359.933594 193.34375 360 192.679688 360 192 C 360 98.929688 285.070312 24 192 24 Z M 192 24"/> </g> <linearGradient id="linearGradient1009" x1="79.729" x2="312.407" y1="248.949" y2="13.017" gradientUnits="userSpaceOnUse" xlink:href="#linearGradient1007"/> </defs> <use width="100%" height="100%" x="0" y="0" mask="url(#mask0)" xlink:href="#surface5"/> <path d="M 360,192.00391 C 360,99.222656 284.78516,24.007812 192.00391,24.007812 99.222656,24.007812 24.007812,99.222656 24.007812,192.00391 24.007812,284.78516 99.222656,360 192.00391,360 284.78516,360 360,284.78516 360,192.00391 Z m 0,0" style="fill:url(#linearGradient1009)"/> <use width="100%" height="100%" x="0" y="0" mask="url(#mask2)" transform="matrix(1.2440758,0,0,0.84565838,-46.862066,30.096616)" xlink:href="#surface11"/> <path d="m 170.64709,90.987323 c -5.89478,0 -8.43154,3.48834 -8.50443,7.809126 V 222.90673 h -44.78673 l 74.63968,71.03199 74.64455,-71.03199 H 221.85829 V 98.796449 c 0,-4.330695 -2.64365,-7.81243 -8.5433,-7.81243 h -42.6679 z m 0,0" style="fill:rgb(100.000%,100.000%,100.000%)"/> <use width="100%" height="100%" x="0" y="0" mask="url(#mask3)" xlink:href="#surface14"/> </svg>
