<svg xmlns="http://www.w3.org/2000/svg" xmlns:xlink="http://www.w3.org/1999/xlink" width="384pt" height="384pt" version="1.1" viewBox="0 0 384 384"> <defs> <filter id="alpha" width="100%" height="100%" x="0%" y="0%" filterUnits="objectBoundingBox"> <feColorMatrix in="SourceGraphic" type="matrix" values="0 0 0 0 1 0 0 0 0 1 0 0 0 0 1 0 0 0 1 0"/> </filter> <mask id="mask0"> <g filter="url(#alpha)"> <rect width="384" height="384" x="0" y="0" style="fill:rgb(0%,0%,0%);fill-opacity:0.2"/> </g> </mask> <clipPath id="clip1"> <rect width="384" height="384" x="0" y="0"/> </clipPath> <g id="surface5" clip-path="url(#clip1)"> <path style="fill:rgb(0%,0%,0%)" d="M 191.996094 18 C 182.566406 18 173.128906 21.515625 166.082031 28.5625 L 22.5625 172.097656 C 8.464844 186.195312 8.484375 209.785156 22.582031 223.882812 L 166.101562 367.417969 C 180.199219 381.515625 203.8125 381.535156 217.90625 367.4375 L 361.425781 223.902344 C 375.523438 209.804688 375.523438 186.195312 361.425781 172.097656 L 217.90625 28.5625 C 210.859375 21.515625 201.421875 18 191.996094 18 Z M 191.996094 18"/> </g> <mask id="mask1"> <g filter="url(#alpha)"> <rect width="384" height="384" x="0" y="0" style="fill:rgb(0%,0%,0%);fill-opacity:0.2"/> </g> </mask> <clipPath id="clip2"> <rect width="384" height="384" x="0" y="0"/> </clipPath> <g id="surface8" clip-path="url(#clip2)"> <path style="fill:rgb(0%,0%,0%)" d="M 192 47.996094 C 188.542969 47.996094 185.082031 49.292969 182.496094 51.875 L 129.867188 104.503906 C 124.699219 109.671875 124.710938 118.320312 129.878906 123.488281 L 182.507812 176.117188 C 187.675781 181.285156 196.335938 181.296875 201.503906 176.128906 L 254.121094 123.488281 C 259.289062 118.320312 259.289062 109.671875 254.121094 104.503906 L 201.503906 51.875 C 198.917969 49.292969 195.457031 47.996094 192 47.996094 Z M 114 131.996094 C 110.546875 132 107.09375 133.289062 104.507812 135.875 L 51.878906 188.503906 C 46.710938 193.671875 46.699219 202.332031 51.867188 207.5 L 104.496094 260.117188 C 109.664062 265.285156 118.324219 265.285156 123.492188 260.117188 L 176.121094 207.5 C 178.707031 204.917969 180 201.453125 180 197.996094 C 180 194.539062 178.707031 191.078125 176.121094 188.492188 L 123.492188 135.875 C 120.90625 133.292969 117.453125 131.996094 114 131.996094 Z M 270 131.996094 C 266.546875 132 263.09375 133.289062 260.507812 135.875 L 207.878906 188.503906 C 202.710938 193.671875 202.699219 202.332031 207.867188 207.5 L 260.496094 260.117188 C 265.664062 265.285156 274.324219 265.285156 279.492188 260.117188 L 332.121094 207.5 C 334.707031 204.917969 336 201.453125 336 197.996094 C 336 194.539062 334.707031 191.078125 332.121094 188.492188 L 279.492188 135.875 C 276.90625 133.292969 273.453125 131.996094 270 131.996094 Z M 192 215.996094 C 188.542969 215.996094 185.082031 217.292969 182.496094 219.875 L 129.867188 272.503906 C 124.699219 277.671875 124.710938 286.320312 129.878906 291.488281 L 182.507812 344.117188 C 187.675781 349.285156 196.335938 349.296875 201.503906 344.128906 L 254.121094 291.488281 C 259.289062 286.320312 259.289062 277.671875 254.121094 272.503906 L 201.503906 219.875 C 198.917969 217.292969 195.457031 215.996094 192 215.996094 Z M 192 215.996094"/> </g> <mask id="mask2"> <g filter="url(#alpha)"> <rect width="384" height="384" x="0" y="0" style="fill:rgb(0%,0%,0%);fill-opacity:0.101961"/> </g> </mask> <clipPath id="clip3"> <rect width="384" height="384" x="0" y="0"/> </clipPath> <g id="surface11" clip-path="url(#clip3)"> <path style="fill:rgb(100.000%,100.000%,100.000%)" d="M 192 42 C 188.542969 42 185.082031 43.292969 182.496094 45.878906 L 129.867188 98.507812 C 126.535156 101.839844 125.394531 106.617188 126.363281 110.976562 C 126.898438 108.59375 128.042969 106.332031 129.867188 104.507812 L 182.496094 51.878906 C 185.082031 49.292969 188.542969 48 192 48 C 195.457031 48 198.917969 49.292969 201.503906 51.878906 L 254.121094 104.507812 C 255.949219 106.335938 257.101562 108.609375 257.636719 111 C 258.613281 106.632812 257.460938 101.847656 254.121094 98.507812 L 201.503906 45.878906 C 198.917969 43.292969 195.457031 42 192 42 Z M 114 126 C 110.546875 126 107.09375 127.292969 104.507812 129.878906 L 51.878906 182.507812 C 48.535156 185.851562 47.386719 190.648438 48.363281 195.023438 C 48.898438 192.621094 50.042969 190.34375 51.878906 188.507812 L 104.507812 135.878906 C 107.09375 133.292969 110.546875 132 114 132 C 117.453125 132 120.90625 133.292969 123.492188 135.878906 L 176.121094 188.496094 C 177.949219 190.324219 179.101562 192.601562 179.636719 195 C 179.859375 194.011719 180 193.011719 180 192 C 180 188.542969 178.707031 185.082031 176.121094 182.496094 L 123.492188 129.878906 C 120.90625 127.292969 117.453125 126 114 126 Z M 270 126 C 266.546875 126 263.09375 127.292969 260.507812 129.878906 L 207.878906 182.507812 C 204.535156 185.851562 203.386719 190.648438 204.363281 195.023438 C 204.898438 192.621094 206.042969 190.34375 207.878906 188.507812 L 260.507812 135.878906 C 263.09375 133.292969 266.546875 132 270 132 C 273.453125 132 276.90625 133.292969 279.492188 135.878906 L 332.121094 188.496094 C 333.949219 190.324219 335.101562 192.601562 335.636719 195 C 335.859375 194.011719 336 193.011719 336 192 C 336 188.542969 334.707031 185.082031 332.121094 182.496094 L 279.492188 129.878906 C 276.90625 127.292969 273.453125 126 270 126 Z M 192 210 C 188.542969 210 185.082031 211.292969 182.496094 213.878906 L 129.867188 266.507812 C 126.535156 269.839844 125.394531 274.617188 126.363281 278.976562 C 126.898438 276.59375 128.042969 274.332031 129.867188 272.507812 L 182.496094 219.878906 C 185.082031 217.292969 188.542969 216 192 216 C 195.457031 216 198.917969 217.292969 201.503906 219.878906 L 254.121094 272.507812 C 255.949219 274.335938 257.101562 276.609375 257.636719 279 C 258.613281 274.632812 257.460938 269.847656 254.121094 266.507812 L 201.503906 213.878906 C 198.917969 211.292969 195.457031 210 192 210 Z M 192 210"/> </g> <mask id="mask3"> <g filter="url(#alpha)"> <rect width="384" height="384" x="0" y="0" style="fill:rgb(0%,0%,0%);fill-opacity:0.101961"/> </g> </mask> <clipPath id="clip4"> <rect width="384" height="384" x="0" y="0"/> </clipPath> <g id="surface14" clip-path="url(#clip4)"> <path style="fill:rgb(100.000%,100.000%,100.000%)" d="M 192 12 C 182.570312 12 173.125 15.511719 166.078125 22.558594 L 22.558594 166.101562 C 14.761719 173.898438 11.304688 184.59375 12.140625 194.988281 C 12.804688 186.59375 16.257812 178.402344 22.558594 172.101562 L 166.078125 28.558594 C 173.125 21.511719 182.570312 18 192 18 C 201.429688 18 210.863281 21.511719 217.910156 28.558594 L 361.429688 172.101562 C 367.730469 178.402344 371.191406 186.597656 371.859375 195 C 372.6875 184.601562 369.226562 173.898438 361.429688 166.101562 L 217.910156 22.558594 C 210.863281 15.511719 201.429688 12 192 12 Z M 192 12"/> </g> </defs> <g> <use mask="url(#mask0)" xlink:href="#surface5"/> <path style="fill:rgb(40.784%,29.803%,20.784%)" d="M 191.996094 12 C 182.566406 12 173.128906 15.515625 166.082031 22.5625 L 22.5625 166.097656 C 8.464844 180.195312 8.484375 203.785156 22.582031 217.882812 L 166.101562 361.417969 C 180.199219 375.515625 203.8125 375.535156 217.90625 361.4375 L 361.425781 217.902344 C 375.523438 203.804688 375.523438 180.195312 361.425781 166.097656 L 217.90625 22.5625 C 210.859375 15.515625 201.421875 12 191.996094 12 Z M 191.996094 12"/> <use mask="url(#mask1)" xlink:href="#surface8"/> <path style="fill:rgb(29.019%,68.235%,90.196%)" d="M 191.996094 42 C 188.539062 42 185.082031 43.289062 182.496094 45.875 L 129.871094 98.503906 C 124.703125 103.671875 124.710938 112.320312 129.878906 117.488281 L 182.503906 170.121094 C 187.671875 175.289062 196.332031 175.296875 201.5 170.128906 L 254.125 117.496094 C 259.292969 112.328125 259.292969 103.671875 254.125 98.503906 L 201.5 45.875 C 198.914062 43.289062 195.457031 42 191.996094 42 Z M 191.996094 42"/> <path style="fill:rgb(29.803%,29.803%,29.803%)" d="M 191.996094 210 C 188.539062 210 185.082031 211.289062 182.496094 213.875 L 129.871094 266.503906 C 124.703125 271.671875 124.710938 280.320312 129.878906 285.488281 L 182.503906 338.121094 C 187.671875 343.289062 196.332031 343.296875 201.5 338.128906 L 254.125 285.496094 C 259.292969 280.328125 259.292969 271.671875 254.125 266.503906 L 201.5 213.875 C 198.914062 211.289062 195.457031 210 192 210 Z M 191.996094 210"/> <path style="fill:rgb(100.000%,78.039%,18.823%)" d="M 336 191.996094 C 336 188.539062 334.710938 185.082031 332.125 182.496094 L 279.496094 129.875 C 274.328125 124.703125 265.679688 124.710938 260.507812 129.882812 L 207.878906 182.503906 C 202.710938 187.671875 202.703125 196.332031 207.871094 201.5 L 260.5 254.125 C 265.671875 259.292969 274.328125 259.292969 279.496094 254.125 L 332.125 201.5 C 334.710938 198.914062 336 195.457031 336 191.996094 Z M 336 191.996094"/> <path style="fill:rgb(70.196%,70.196%,70.196%)" d="M 180 191.996094 C 180 188.539062 178.710938 185.082031 176.125 182.496094 L 123.496094 129.875 C 118.328125 124.703125 109.679688 124.710938 104.507812 129.882812 L 51.878906 182.503906 C 46.710938 187.671875 46.703125 196.332031 51.871094 201.5 L 104.5 254.125 C 109.671875 259.292969 118.328125 259.292969 123.496094 254.125 L 176.125 201.5 C 178.710938 198.914062 180 195.457031 180 191.996094 Z M 180 191.996094"/> <use mask="url(#mask2)" xlink:href="#surface11"/> <use mask="url(#mask3)" xlink:href="#surface14"/> </g> </svg>
