<svg xmlns="http://www.w3.org/2000/svg" xmlns:xlink="http://www.w3.org/1999/xlink" width="384pt" height="384pt" version="1.1" viewBox="0 0 384 384"> <defs> <filter id="alpha" width="100%" height="100%" x="0%" y="0%" filterUnits="objectBoundingBox"> <feColorMatrix in="SourceGraphic" type="matrix" values="0 0 0 0 1 0 0 0 0 1 0 0 0 0 1 0 0 0 1 0"/> </filter> <mask id="mask0"> <g filter="url(#alpha)"> <rect style="fill:rgb(0%,0%,0%);fill-opacity:0.321569" width="384" height="384" x="0" y="0"/> </g> </mask> <clipPath id="clip1"> <rect width="384" height="384" x="0" y="0"/> </clipPath> <g id="surface5" clip-path="url(#clip1)"> <path d="M 360 198 C 360 290.78125 284.785156 366 192 366 C 99.214844 366 24 290.78125 24 198 C 24 105.214844 99.214844 30 192 30 C 284.785156 30 360 105.214844 360 198 Z M 360 198" style="fill:rgb(0%,0%,0%)"/> </g> <mask id="mask2"> <g filter="url(#alpha)"> <rect style="fill:rgb(0%,0%,0%);fill-opacity:0.2" width="384" height="384" x="0" y="0"/> </g> </mask> <clipPath id="clip3"> <rect width="384" height="384" x="0" y="0"/> </clipPath> <g id="surface11" clip-path="url(#clip3)"> <path d="M 276 204 C 276 260.332031 230.332031 306 174 306 C 117.667969 306 72 260.332031 72 204 C 72 147.664062 117.667969 102 174 102 C 230.332031 102 276 147.664062 276 204 Z M 276 204" style="fill:rgb(0%,0%,0%)"/> </g> </defs> <g transform="translate(-0.75000257,-2.9832616)"> <use width="100%" height="100%" x="0" y="0" mask="url(#mask0)" transform="matrix(1.0044643,0,0,1.0044643,-0.10714286,-0.13392857)" xlink:href="#surface5"/> <path d="m 361.5,191.21652 c 0,24.29155 -5.13219,47.38246 -14.37247,68.25256 -26.21024,59.19669 -92.59513,74.37744 -161.50295,74.37744 -93.195451,0 -147.377666,-45.47554 -147.377666,-138.671 0,-15.18076 -12.241909,-33.85359 -8.483016,-47.84546 C 49.080218,75.408848 114.73138,22.466518 192.75,22.466518 c 93.19938,0 168.75,75.550624 168.75,168.750002 z m 0,0" style="fill:rgb(43.921%,20.784%,53.725%)"/> <use width="100%" height="100%" x="0" y="0" mask="url(#mask2)" transform="matrix(1.0044643,0,0,1.0044643,-0.10714286,-1.640625)" xlink:href="#surface11"/> <path d="m 277.125,197.2433 c 0,56.58352 -45.87184,102.45536 -102.45536,102.45536 -56.58351,0 -102.455354,-45.87184 -102.455354,-102.45536 0,-56.58744 45.871844,-102.455354 102.455354,-102.455354 56.58352,0 102.45536,45.867914 102.45536,102.455354 z m 0,0" style="fill:rgb(99.607%,44.313%,44.313%)"/> <path d="m 113.74261,251.48438 52.75792,71.77996 c 0,0 27.49721,-1.44 59.0672,10.87646 25.87281,-7.42362 62.69662,-1.51062 81.87954,-19.35163 1.0123,-0.94169 2.21688,-2.00501 3.27235,-2.96631 17.33485,-17.03666 30.78919,-37.62033 39.43307,-60.33848 z m 0,0" style="fill:rgb(77.647%,27.058%,43.921%)"/> <path style="opacity:0.3;fill:rgb(100.000%,100.000%,100.000%)" d="m 174.66964,94.787946 c -56.58352,0 -102.455354,45.867914 -102.455354,102.455354 0,1.26182 0.03128,2.51597 0.07651,3.76674 1.983181,-54.841 47.057154,-98.68861 102.378844,-98.68861 55.32169,0 100.39567,43.84761 102.37885,98.68861 0.0452,-1.25077 0.0765,-2.50492 0.0765,-3.76674 0,-56.58744 -45.87185,-102.455354 -102.45536,-102.455354 z"/> <path d="m 35.00595,135.57862 c -5.277361,16.52658 -7.972935,33.76727 -7.992553,51.11782 0,93.19937 75.550623,168.74999 168.749983,168.74999 43.36461,0 85.05773,-16.74238 116.42762,-46.68405 -19.18292,-1.00054 -33.13163,-1.53024 -69.55914,-1.53024 -17.1426,0 -62.4102,11.52388 -79.28206,-20.61898 C 150.22506,261.16412 126.39258,240.79624 106.84084,235.70723 90.231867,231.42256 85.668617,215.35898 84.330638,196.07406 82.721926,175.71404 66.379764,175.18433 55.934905,162.0596 47.777556,151.4107 43.065206,139.87506 35.00595,135.57862 Z m 0,0"/> <path d="M 31.992553,140.0987 C 26.715193,156.62528 24.019618,173.86596 24,191.21652 c 0,93.19938 75.550625,168.75 168.75,168.75 43.3646,0 85.05772,-16.74238 116.42762,-46.68405 -19.18292,-1.00054 -33.13164,-1.53024 -69.55916,-1.53024 -17.1426,0 -62.41019,11.52388 -79.28205,-20.61898 C 147.21167,265.68421 123.37919,245.31633 103.82745,240.22731 87.218471,235.94264 82.655221,219.87907 81.317243,200.59414 79.708531,180.23412 63.366368,179.70441 52.921509,166.57968 44.76416,155.93078 40.05181,144.39514 31.992553,140.0987 Z m 0,0" style="fill:rgb(20.000%,20.000%,20.000%)"/> <path style="opacity:0.3;fill:rgb(100.000%,100.000%,100.000%)" d="m 192.75,22.466518 c -78.01862,0 -143.670273,52.941854 -162.986592,124.863052 -0.825539,3.07294 -0.87792,6.37179 -0.459071,9.80971 0.113677,-0.77022 0.258947,-1.5313 0.459071,-2.27623 C 49.079728,82.941855 114.73137,30 192.75,30 c 91.90154,0 166.63769,73.46271 168.70145,164.86849 0.0258,-1.21488 0.0485,-2.4309 0.0485,-3.65197 0,-93.199369 -75.55062,-168.750002 -168.75,-168.750002 z"/> </g> </svg>
