<svg xmlns="http://www.w3.org/2000/svg" width="384pt" height="384pt" version="1.1" viewBox="0 0 384 384"> <path d="m 172.30804,32.807375 c 16.3859,4.00452 18.50506,2.1183 34.47803,6.86719 6.81015,2.73904 10.46995,5.7123 14.01416,8.92969 a 154.98304,154.98304 0 0 0 -26.11231,-2.38184 154.98304,154.98304 0 0 0 -154.983383,154.983395 154.98304,154.98304 0 0 0 5.33349,40.05175 c -0.28536,0.7214 -0.53334,1.42576 -0.71338,2.11524 0.33041,0.12396 0.74811,-0.0299 1.19532,-0.20508 a 154.98304,154.98304 0 0 0 3.59912,10.83105 c -0.54172,0.64932 -1.29907,-0.0104 -1.67725,0.78223 1.18369,0.58281 4.30228,4.54107 6.19483,12.12891 -1.36268,1.78874 -3.66815,-4.62119 -5.54004,-4.88085 1.20434,6.02989 3.26798,10.62871 3.35742,15.2622 5.46427,9.74011 1.9338,-1.30542 6.35889,4.17626 5.82209,15.47575 -4.81741,3.59494 -5.54004,10.62306 -8.80886,-10.88838 -13.83172,-27.78324 -16.14405,-34.771 1.76178,8.52837 4.60369,16.79192 8.08594,24.78369 -2.68396,-0.96367 4.31484,17.5411 -3.48926,5.28516 8.36152,26.12177 35.64132,50.52954 60.739743,61.98339 -3.069353,-2.39463 -6.950693,-5.40675 -5.560543,-5.8799 12.497583,6.34145 10.296073,6.83834 12.092293,9.52149 10.17149,3.5256 10.83193,-0.29499 17.56933,-0.0117 19.17266,8.68419 22.86742,7.76112 40.50586,13.19091 l -0.8042,-3.20214 c 12.69717,3.61217 14.79499,-1.36117 28.51757,-0.004 0.83265,0.54816 -4.39748,2.01358 -8.70557,2.54444 6.0741,-0.68514 9.00054,-0.18528 11.86524,0.19775 9.31432,-6.59244 17.72816,-12.81892 23.94726,-16.93506 -0.52644,0.0576 -1.04947,0.11588 -1.60546,0.16993 -2.13966,-1.193 3.1905,-1.94587 6.4746,-3.20069 0.66784,-0.37715 1.2991,-0.71748 1.86475,-0.98877 -0.42146,0.36629 -1.08651,0.69141 -1.86475,0.98877 -1.40999,0.79627 -3.05142,1.8277 -4.86914,3.03076 21.23079,-2.32383 18.94239,-7.50506 32.7627,-11.96777 0.14783,-0.67626 0.3057,-1.35233 0.46436,-2.02881 -3.32481,0.86493 -6.23282,1.71925 -0.40577,-1.66845 0.29583,-0.0801 0.57272,-0.13499 0.85987,-0.20361 5.00708,-20.08242 14.74975,-39.91103 28.66552,-52.13965 -8.11536,12.0521 6.05088,-1.75852 6.24024,1.08692 5.93394,-6.38616 12.3719,-12.29529 19.48535,-17.31885 -5.4812,4.91247 -18.96069,16.27125 -25.4209,28.69776 6.73118,-2.14656 0.0927,12.35417 11.95166,0.83202 3.25624,-6.24717 -5.45534,1.40322 1.28907,-7.49853 4.21156,-1.93388 7.60146,-5.66475 12.64746,-9.17871 0.51012,1.81965 -4.44455,6.49561 -2.26026,7.02979 6.19903,-4.76749 8.58148,-9.20694 8.64258,-10.52491 1.40567,0.0478 -0.21784,2.4744 4.56006,0.51123 10.59384,-5.41488 4.73487,-6.32168 4.65087,-7.9292 2.30509,-0.36196 5.02572,-0.15931 7.95557,-0.16113 4.95888,-10.08838 10.15504,-17.31207 10.97901,-24.1582 1.46664,-20.42889 8.75397,-57.68728 -1.35938,-69.14649 l 0.98584,-9.55224 c -1.38667,-2.71404 -2.43869,-5.47372 -4.15869,-8.02734 l 2.24561,-0.18017 c -10.64001,-32.87615 -11.42616,-0.60833 -25.4795,-34.7549 2.04,0.67371 4.09308,1.41177 7.06641,5.33205 0.35333,-2.98998 -4.32621,-11.97984 -9.88623,-18.99903 l 2.35254,-2.63086 c -3.09333,-5.511485 -5.94583,-6.723235 -8.09912,-8.635255 1.72301,0.92041 2.68861,1.10908 3.08788,0.76172 -25.71174,-29.40239 -60.69538,-51.52697 -97.19822,-59.96044 -10.98359,-3.36404 -27.31438,-3.24385 -41.209,-3.57276 z" style="opacity:0.3"/> <path d="m 172.30804,25.307368 c 16.3859,4.00452 18.50506,2.118294 34.47803,6.867188 6.81015,2.739043 10.46995,5.712303 14.01416,8.929687 A 154.98304,154.98304 0 0 0 194.68792,38.722408 154.98304,154.98304 0 0 0 39.704528,193.7058 a 154.98304,154.98304 0 0 0 5.333496,40.05175 c -0.285361,0.7214 -0.533348,1.42576 -0.713379,2.11525 0.330408,0.12396 0.748105,-0.0299 1.195312,-0.20508 a 154.98304,154.98304 0 0 0 3.599121,10.83104 c -0.54172,0.64933 -1.299071,-0.0104 -1.677246,0.78223 1.18369,0.58281 4.302275,4.54107 6.194825,12.12891 -1.362671,1.78874 -3.66815,-4.62119 -5.54004,-4.88085 1.204341,6.02989 3.267982,10.62871 3.357422,15.2622 5.46427,9.74011 1.933797,-1.30542 6.358887,4.17626 5.8221,15.47575 -4.817409,3.59494 -5.540039,10.62306 -8.80886,-10.88838 -13.831713,-27.78324 -16.144043,-34.771 1.76178,8.52837 4.603688,16.79192 8.085938,24.78369 -2.683961,-0.96367 4.314842,17.5411 -3.489258,5.28516 8.361519,26.12178 35.641313,50.52955 60.739736,61.9834 -3.069347,-2.39463 -6.950687,-5.40674 -5.560539,-5.87989 12.497579,6.34144 10.296069,6.83833 12.092289,9.52149 10.17149,3.5256 10.83193,-0.29499 17.56933,-0.0117 19.17267,8.68419 22.86742,7.76112 40.50586,13.19091 l -0.8042,-3.20214 c 12.69717,3.61217 14.795,-1.36117 28.51758,-0.004 0.83265,0.54816 -4.39748,2.01358 -8.70557,2.54444 6.07409,-0.68514 9.00054,-0.18528 11.86524,0.19775 9.31432,-6.59244 17.72816,-12.81892 23.94726,-16.93506 -0.52644,0.0576 -1.04947,0.11588 -1.60546,0.16993 -2.13966,-1.193 3.1905,-1.94587 6.4746,-3.20069 0.66784,-0.37715 1.2991,-0.71748 1.86475,-0.98877 -0.42146,0.36629 -1.08651,0.69141 -1.86475,0.98877 -1.40999,0.79627 -3.05142,1.8277 -4.86914,3.03076 21.23078,-2.32383 18.94238,-7.50507 32.7627,-11.96777 0.14783,-0.67626 0.3057,-1.35233 0.46436,-2.02881 -3.32481,0.86493 -6.23282,1.71925 -0.40577,-1.66846 0.29583,-0.0801 0.57272,-0.13498 0.85987,-0.20361 5.00708,-20.08241 14.74975,-39.91103 28.66552,-52.13965 -8.11536,12.05209 6.05088,-1.75852 6.24024,1.08692 5.93394,-6.38616 12.3719,-12.2953 19.48535,-17.31885 -5.4812,4.91246 -18.96069,16.27124 -25.4209,28.69775 6.73118,-2.14655 0.0927,12.35418 11.95166,0.83203 3.25624,-6.24718 -5.45534,1.40321 1.28907,-7.49853 4.21156,-1.93388 7.60146,-5.66475 12.64746,-9.17871 0.51012,1.81965 -4.44455,6.49561 -2.26026,7.02979 6.19903,-4.7675 8.58148,-9.20694 8.64258,-10.52491 1.40567,0.0478 -0.21784,2.47439 4.56006,0.51123 10.59384,-5.41489 4.73487,-6.32168 4.65087,-7.9292 2.30509,-0.36196 5.02572,-0.15932 7.95557,-0.16113 4.95888,-10.08838 10.15504,-17.31208 10.97901,-24.1582 1.46664,-20.42889 8.75397,-57.68729 -1.35938,-69.14649 l 0.98584,-9.55224 c -1.38667,-2.71404 -2.43869,-5.47373 -4.15869,-8.02735 l 2.24561,-0.18017 c -10.64001,-32.87615 -11.42616,-0.60833 -25.4795,-34.75489 2.04,0.67371 4.09308,1.41176 7.06641,5.33204 0.35333,-2.98997 -4.32621,-11.97983 -9.88623,-18.999022 l 2.35254,-2.630865 c -3.09333,-5.51148 -5.94583,-6.723232 -8.09912,-8.635252 1.72301,0.920407 2.68861,1.109078 3.08788,0.761722 -25.71174,-29.402394 -60.69538,-51.526974 -97.19823,-59.960451 -10.98358,-3.36404 -27.31437,-3.243849 -41.20899,-3.572754 z" style="fill:rgb(100.000%,100.000%,100.000%)"/> <path style="opacity:0.3" d="m 173.09766,208.79298 c -1.42969,-1.56642 -2.25782,-3.44922 -3.20704,-5.33204 0.90235,3.29687 2.75,6.13281 4.46485,9.01953 l -1.25781,-3.68359 m 0.004,0.008 c -1.42187,-1.57032 -2.25781,-3.45312 -3.20312,-5.32812 0.89843,3.29687 2.74609,6.13281 4.46093,9.01952 l -1.25781,-3.6914 m 87.98046,-28.71875 c 0.22656,6.15234 -1.76172,9.14061 -3.5625,14.42967 l -3.23437,1.63672 c -2.64453,5.23047 0.26172,3.32033 -1.63281,7.48047 -4.13281,3.73439 -12.52344,11.68361 -15.21093,12.41016 -1.96485,-0.043 1.32812,-2.35546 1.75781,-3.26172 -5.52735,3.86328 -4.4336,5.79687 -12.89063,8.14844 l -0.24219,-0.5625 c -20.84374,9.98047 -49.80078,-9.79688 -49.41796,-36.77734 -0.22266,1.71094 -0.63282,1.28125 -1.09375,1.96875 -1.07813,-13.8789 6.30078,-27.82422 18.73828,-33.52343 12.17187,-6.125 26.43359,-3.61719 35.14453,4.65625 -4.78516,-6.37891 -14.31642,-13.14454 -25.60156,-12.51954 -11.0625,0.1836 -21.41407,7.33594 -24.86719,15.10547 -5.66406,3.62891 -6.32422,13.9961 -8.79297,15.89453 -3.32422,24.85156 6.25,35.58593 22.44531,48.21874 2.54297,1.7461 0.71485,2.01564 1.05469,3.34375 -5.37891,-2.56249 -10.30078,-6.43359 -14.35547,-11.17186 2.15235,3.20311 4.47266,6.31249 7.47266,8.75781 -5.07813,-1.74609 -11.85547,-12.51173 -13.82813,-12.94923 8.74219,15.9375 35.47266,27.94923 49.47657,21.98439 -6.48048,0.24609 -14.70705,0.13671 -21.98438,-2.60157 -3.06641,-1.60157 -7.21484,-4.91406 -6.47266,-5.53125 19.10547,7.25781 38.83985,5.49219 55.36719,-7.98828 4.20702,-3.33594 8.80077,-9.00782 10.1289,-9.08594 -2,3.06251 0.34375,1.47266 -1.19141,4.17578 4.18361,-6.87891 -1.82422,-2.80077 4.32813,-11.87891 l 2.26953,3.1836 c -0.84766,-5.71485 6.96875,-12.64453 6.17579,-21.67579 1.79296,-2.75781 1.99608,2.97657 0.0977,9.32814 2.63672,-7.04688 0.69531,-8.17969 1.37109,-13.99609 0.73047,1.95312 1.69922,4.02733 2.19141,6.09375 -1.72266,-6.81251 1.75781,-11.46485 2.625,-15.42579 -0.85546,-0.38282 -2.65624,3.00781 -3.07032,-5.03126 0.0625,-3.49608 0.95703,-1.83202 1.30079,-2.6914 -0.67188,-0.39453 -2.4414,-3.07421 -3.51563,-8.21093 0.77345,-1.21094 2.08203,3.1289 3.14453,3.30469 -0.68358,-4.08204 -1.85547,-7.19532 -1.90625,-10.33204 -3.10156,-6.59374 -1.09765,0.88282 -3.60937,-2.82812 -3.30468,-10.47656 2.73438,-2.43359 3.14454,-7.19141 4.99999,7.3711 7.85155,18.8086 9.16405,23.53906 -1,-5.77343 -2.61328,-11.36718 -4.58983,-16.77735 1.52343,0.65236 -2.44923,-11.87498 1.98045,-3.57811 -4.74609,-17.68359 -20.23046,-34.20704 -34.47655,-41.960941 1.74219,1.621091 3.94531,3.660151 3.15625,3.980471 -7.09375,-4.292972 -5.84376,-4.628909 -6.86328,-6.445314 -5.77344,-2.386719 -6.14844,0.199219 -9.97266,0.0078 C 220.3517,87.85955 218.25405,88.48455 208.24233,84.808769 l 0.45703,2.167968 c -7.20703,-2.445312 -8.39844,0.921876 -16.1875,0.0039 -0.47266,-0.371094 2.49609,-1.363281 4.9414,-1.722657 -6.96875,0.9375 -6.64453,-1.402343 -13.46484,0.257813 1.67969,-1.199219 3.46094,-1.996094 5.25,-3.015625 -5.67969,0.351562 -13.57031,3.367188 -11.13672,0.621094 -9.26953,4.210937 -25.73437,10.121094 -34.97656,18.941408 l -0.28906,-1.97656 c -4.23438,5.17187 -18.46485,15.44531 -19.59766,22.15234 l -1.13281,0.26563 c -2.19922,3.79687 -3.62891,8.09765 -5.375,12.0039 -2.87891,4.9961 -4.22266,1.92578 -3.8125,2.70703 -5.66797,11.69531 -8.48828,21.51952 -10.91797,29.58202 1.73047,2.63282 0.043,15.8672 0.69531,26.46094 -2.84375,52.3125 36.07422,103.10156 78.61719,114.82421 6.23437,2.27734 15.50391,2.19531 23.39062,2.41797 -9.30078,-2.71094 -10.5039,-1.43359 -19.57031,-4.64844 -6.53906,-3.13672 -7.96875,-6.71484 -12.60156,-10.80859 l 1.83203,3.29687 c -9.08203,-3.26953 -5.28125,-4.04687 -12.67187,-6.42968 l 1.95703,-2.59766 c -2.92969,-0.22656 -7.78516,-5.04688 -9.11328,-7.72266 l -3.22266,0.12891 c -3.87109,-4.85547 -5.93359,-8.35938 -5.78125,-11.07813 l -1.04297,1.89063 c -1.17578,-2.0625 -14.23828,-18.22655 -7.46094,-14.46483 -1.26172,-1.16406 -2.93359,-1.90235 -4.74609,-5.25782 l 1.37891,-1.60156 c -3.25782,-4.27344 -6,-9.74609 -5.79297,-11.56641 1.74218,2.38672 2.94531,2.83594 4.14062,3.2461 -8.23437,-20.78905 -8.69531,-1.14453 -14.92968,-21.16015 l 1.3164,-0.10938 c -1.00781,-1.55469 -1.625,-3.23438 -2.4375,-4.88672 l 0.57813,-5.81641 c -5.92578,-6.97656 -1.65625,-29.66014 -0.79688,-42.09765 0.58594,-5.0586 4.94531,-10.44921 8.25,-18.89453 l -2.01562,-0.35156 c 3.85937,-6.84375 22.02343,-27.5 30.4414,-26.4375 4.07422,-5.21093 -0.8125,-0.0195 -1.60937,-1.32812 8.95312,-9.42969 11.76953,-6.66406 17.8125,-8.36328 6.51172,-3.9336 -5.59375,1.53906 -2.50391,-1.5 11.26563,-2.92578 7.98047,-6.65625 22.67578,-8.14063 1.55078,0.89844 -3.59765,1.38672 -4.88672,2.55078 9.38282,-4.67578 29.69922,-3.60937 42.89844,2.58985 15.30469,7.28906 32.51171,28.8125 33.19531,49.0664 l 0.76953,0.21094 c -0.38672,8.05077 1.21093,17.36328 -1.56641,25.91406 l 1.8789,-4.05078"/> <path style="fill:rgb(99.215%,28.627%,28.627%)" d="m 171.48787,205.33985 c -1.55144,-1.69981 -2.4501,-3.74296 -3.48016,-5.78612 0.9792,3.57764 2.9842,6.6551 4.84508,9.78766 l -1.36492,-3.99731 m 0.004,0.009 c -1.54295,-1.70405 -2.45009,-3.7472 -3.4759,-5.78188 0.97495,3.57765 2.97995,6.65509 4.84083,9.78765 l -1.36493,-4.00577 m 95.47307,-31.1645 c 0.24586,6.67629 -1.91175,9.91906 -3.86589,15.65855 l -3.50981,1.7761 c -2.86976,5.67591 0.284,3.60309 -1.77188,8.11753 -4.48476,4.0524 -13.58994,12.67859 -16.50632,13.46703 -2.13218,-0.0466 1.44123,-2.55607 1.90751,-3.53949 -5.99807,4.19228 -4.81118,6.29054 -13.98843,8.84238 l -0.2628,-0.61041 c -22.61885,10.83043 -54.04192,-10.6312 -53.6265,-39.90938 -0.24162,1.85664 -0.68671,1.39036 -1.1869,2.13641 -1.16994,-15.06085 6.83737,-30.19379 20.33407,-36.37835 13.20845,-6.64662 28.68473,-3.92524 38.13751,5.05278 -5.19267,-6.92215 -15.53563,-14.26395 -27.78184,-13.58573 -12.0046,0.19923 -23.23774,7.96068 -26.98493,16.39188 -6.14642,3.93796 -6.86281,15.18804 -9.54179,17.24815 -3.60733,26.96798 6.78226,38.6165 24.35679,52.32515 2.75953,1.89481 0.77573,2.18729 1.14451,3.62851 -5.83699,-2.78073 -11.17801,-6.98148 -15.57801,-12.12329 2.33565,3.4759 4.85356,6.85008 8.10905,9.50365 -5.5106,-1.8948 -12.86511,-13.57725 -15.00577,-14.052 9.4867,17.29477 38.49359,30.32942 53.6901,23.85661 -7.03236,0.26704 -15.95952,0.14836 -23.85662,-2.82311 -3.32754,-1.73797 -7.82926,-5.33257 -7.02388,-6.00231 20.73253,7.8759 42.14753,5.95991 60.08237,-8.66859 4.56531,-3.62002 9.55027,-9.77493 10.99151,-9.85971 -2.17032,3.32332 0.37303,1.59807 -1.29287,4.5314 4.53989,-7.46473 -1.97957,-3.0393 4.69672,-12.89054 l 2.46281,3.45472 c -0.91985,-6.20153 7.56222,-13.72138 6.70172,-23.52174 1.94566,-2.99267 2.16608,3.23006 0.10602,10.12253 2.86126,-7.64701 0.75453,-8.87629 1.48786,-15.18803 0.79267,2.11946 1.84392,4.37032 2.37803,6.61271 -1.86936,-7.39267 1.90751,-12.44122 2.84855,-16.73948 -0.92832,-0.41541 -2.88246,3.26397 -3.33179,-5.45972 0.0678,-3.79382 1.03853,-1.98805 1.41156,-2.92061 -0.72909,-0.42813 -2.64932,-3.33602 -3.81503,-8.9102 0.83932,-1.31406 2.25934,3.39538 3.41233,3.58613 -0.74181,-4.42967 -2.01349,-7.80808 -2.06859,-11.21193 -3.36569,-7.15528 -1.19114,0.95799 -3.91675,-3.06898 -3.58612,-11.36877 2.96724,-2.64084 3.41233,-7.80383 5.42581,7.99882 8.52021,20.41036 9.94448,25.54369 -1.08516,-6.26512 -2.83583,-12.33525 -4.98072,-18.20615 1.65317,0.70792 -2.6578,-12.88628 2.14912,-3.88284 -5.15027,-19.18955 -21.95332,-37.120165 -37.41265,-45.53441 1.89056,1.759149 4.2813,3.971863 3.42504,4.319453 -7.69786,-4.658567 -6.34141,-5.023113 -7.44777,-6.994208 -6.26512,-2.589976 -6.67205,0.216185 -10.82195,0.0084 -11.80961,-6.379566 -14.0859,-5.70134 -24.95024,-9.690157 l 0.49595,2.352596 c -7.8208,-2.65356 -9.11367,1.000385 -17.56606,0.0043 -0.51291,-0.402697 2.70866,-1.47938 5.36222,-1.869362 -7.56223,1.01734 -7.21039,-1.521769 -14.61153,0.279769 1.82273,-1.301347 3.75568,-2.166085 5.6971,-3.272441 -6.16338,0.381501 -14.72599,3.653944 -12.08515,0.673987 -10.05894,4.569549 -27.92596,10.983027 -37.95524,20.554495 l -0.31368,-2.14489 c -4.59498,5.612319 -20.03735,16.760658 -21.26663,24.038878 l -1.22928,0.28825 c -2.38651,4.12022 -3.93796,8.78726 -5.83275,13.02618 -3.12408,5.42158 -4.58227,2.08978 -4.13718,2.93756 -6.15066,12.69132 -9.211158,23.35218 -11.847766,32.1013 1.877842,2.85703 0.04666,17.21847 0.754525,28.71441 -3.085928,56.76754 39.146381,111.8819 85.312391,124.60289 6.76531,2.47128 16.82426,2.38227 25.38262,2.62389 -10.09286,-2.94181 -11.39844,-1.55569 -21.23696,-5.04431 -7.09594,-3.40386 -8.64739,-7.2867 -13.67474,-11.72908 l 1.98805,3.57764 c -9.85548,-3.54797 -5.73101,-4.39151 -13.75104,-6.97725 l 2.1237,-2.81887 c -3.17919,-0.24586 -8.44816,-5.47669 -9.88938,-8.38034 l -3.49711,0.13988 c -4.20076,-5.26897 -6.43891,-9.07128 -6.27359,-12.02156 l -1.13179,2.05164 c -1.27592,-2.23815 -15.45085,-19.77877 -8.09634,-15.6967 -1.36917,-1.2632 -3.18341,-2.06435 -5.15027,-5.70559 l 1.49634,-1.73795 c -3.53526,-4.63737 -6.51098,-10.57609 -6.28631,-12.55143 1.89054,2.58998 3.19614,3.07746 4.49324,3.52255 -8.93562,-22.5595 -9.43581,-1.24201 -16.20112,-22.96221 l 1.42851,-0.11868 c -1.09364,-1.68709 -1.76339,-3.50982 -2.64508,-5.30288 l 0.62736,-6.31175 c -6.43043,-7.5707 -1.7973,-32.18607 -0.86474,-45.68277 0.63584,-5.4894 5.36646,-11.3391 8.95258,-20.50364 l -2.18727,-0.3815 c 4.18804,-7.42658 23.89898,-29.84196 33.03385,-28.68897 4.42119,-5.65471 -0.8817,-0.0212 -1.74643,-1.44122 9.71559,-10.23275 12.77185,-7.23159 19.32945,-9.07552 7.06628,-4.268591 -6.07012,1.67013 -2.71714,-1.62774 12.22503,-3.174946 8.6601,-7.22311 24.60689,-8.833901 1.68285,0.97495 -3.90403,1.504814 -5.30288,2.768008 10.18188,-5.073978 32.22847,-3.916753 46.55176,2.810406 16.60807,7.909807 35.28048,31.266227 36.02228,53.244997 l 0.83507,0.2289 c -0.41964,8.7364 1.31406,18.84198 -1.69979,28.12096 l 2.0389,-4.39576"/> </svg>
