<svg width="512" height="512" version="1.1" viewBox="0 0 384 384" xmlns="http://www.w3.org/2000/svg"><path d="m206.47 114.49 10.38 8.4735h79.087v-8.4735z" opacity=".3" stroke-width="1.1298"/><g stroke-width="1.1298"><path d="m15.751 51.621v271.15c0 18.077 18.077 18.077 18.077 18.077h334.42zm72.307 152.36 79.086 64.558h-79.086z" opacity=".3"/><path d="m368.25 332.38v-271.15s0-18.077-18.077-18.077h-334.42zm-72.307-152.36-79.086-64.558h79.086z" fill="#2861bf"/><path d="m15.751 43.147v271.15c0 18.077 18.077 18.077 18.077 18.077h334.42zm72.307 152.36 79.086 64.558h-79.086z" fill="#357af0"/></g><path d="m15.75 43.148 352.5 289.23v-8.4735l-342.17-280.75z" fill="#fdfdfd" opacity=".3" stroke-width="1.1298"/><path d="m26.079 43.148 10.328 8.4735h313.77c18.077 0 18.076 18.076 18.076 18.076v-8.4735s8.4e-4 -18.076-18.076-18.076z" fill="#fff" opacity=".3" stroke-width="1.1298"/><path d="m206.47 115.46 89.47 73.556v-8.4735l-79.09-65.083z" fill="#ffefef" opacity=".3" stroke-width="1.1298"/><path d="m88.058 260.07v8.4735h89.463l-10.38-8.4735z" fill="#ffefef" opacity=".3" stroke-width="1.1298"/></svg>
