<svg xmlns="http://www.w3.org/2000/svg" xmlns:xlink="http://www.w3.org/1999/xlink" width="384pt" height="384pt" version="1.1" viewBox="0 0 384 384">
 <defs>
  <filter id="alpha" width="100%" height="100%" x="0%" y="0%" filterUnits="objectBoundingBox">
   <feColorMatrix in="SourceGraphic" type="matrix" values="0 0 0 0 1 0 0 0 0 1 0 0 0 0 1 0 0 0 1 0"/>
  </filter>
  <mask id="mask0">
   <g filter="url(#alpha)">
    <rect width="384" height="384" x="0" y="0" style="fill:rgb(0%,0%,0%);fill-opacity:0.2"/>
   </g>
  </mask>
  <clipPath id="clip1">
   <rect width="384" height="384" x="0" y="0"/>
  </clipPath>
  <g id="surface5" clip-path="url(#clip1)">
   <path style="fill:rgb(0%,0%,0%)" d="M 24.304688 192.003906 C 24.234375 194.007812 24 195.972656 24 198.003906 C 24 291.074219 98.925781 366 191.996094 366 C 285.066406 366 359.996094 291.074219 359.996094 198.003906 C 359.996094 195.976562 359.761719 194.011719 359.691406 192.003906 C 356.523438 282.253906 283.035156 354 191.992188 354 C 100.949219 354 27.464844 282.253906 24.296875 192.003906 Z M 24.304688 192.003906"/>
  </g>
  <mask id="mask1">
   <g filter="url(#alpha)">
    <rect width="384" height="384" x="0" y="0" style="fill:rgb(0%,0%,0%);fill-opacity:0.2"/>
   </g>
  </mask>
  <clipPath id="clip2">
   <rect width="384" height="384" x="0" y="0"/>
  </clipPath>
  <g id="surface8" clip-path="url(#clip2)">
   <path style="fill:rgb(0%,0%,0%)" d="M 145.460938 114.003906 C 141.921875 113.921875 138.492188 115.21875 135.960938 117.601562 C 133.425781 119.980469 131.996094 123.246094 132 126.652344 L 132 257.355469 C 132 261.871094 134.507812 266.042969 138.574219 268.300781 C 142.644531 270.5625 147.65625 270.5625 151.722656 268.304688 L 210.574219 235.636719 L 269.425781 202.949219 C 273.492188 200.691406 275.996094 196.515625 275.996094 192 C 275.996094 187.484375 273.492188 183.308594 269.425781 181.050781 L 210.566406 148.375 L 151.71875 115.710938 C 149.8125 114.648438 147.65625 114.066406 145.453125 114.015625 Z M 145.460938 114.003906"/>
  </g>
  <mask id="mask2">
   <g filter="url(#alpha)">
    <rect width="384" height="384" x="0" y="0" style="fill:rgb(0%,0%,0%);fill-opacity:0.2"/>
   </g>
  </mask>
  <clipPath id="clip3">
   <rect width="384" height="384" x="0" y="0"/>
  </clipPath>
  <g id="surface11" clip-path="url(#clip3)">
   <path style="fill:rgb(100%,100%,100%)" d="M 192 24 C 98.929688 24 24 98.929688 24 192 C 24 192.679688 24.066406 193.34375 24.105469 194.015625 C 26.214844 102.804688 100.265625 30 192 30 C 283.734375 30 357.785156 102.804688 359.894531 194.015625 C 359.933594 193.34375 360 192.679688 360 192 C 360 98.929688 285.070312 24 192 24 Z M 192 24"/>
  </g>
 </defs>
 <g>
  <use mask="url(#mask0)" xlink:href="#surface5"/>
  <path style="fill:rgb(10.588235%,63.921569%,53.72549%)" d="M 360 192.003906 C 360 99.222656 284.785156 24.007812 192.003906 24.007812 C 99.222656 24.007812 24.007812 99.222656 24.007812 192.003906 C 24.007812 284.785156 99.222656 360 192.003906 360 C 284.785156 360 360 284.785156 360 192.003906 Z M 360 192.003906"/>
  <use mask="url(#mask1)" xlink:href="#surface8"/>
  <path style="fill:rgb(100%,100%,100%)" d="M 145.460938 108.007812 C 141.921875 107.925781 138.496094 109.222656 135.960938 111.601562 C 133.425781 113.984375 132 117.246094 132 120.652344 L 132 251.355469 C 132 255.871094 134.507812 260.042969 138.574219 262.300781 C 142.644531 264.5625 147.65625 264.5625 151.722656 262.304688 L 210.574219 229.636719 L 269.425781 196.949219 C 273.492188 194.691406 275.996094 190.515625 275.996094 186 C 275.996094 181.484375 273.492188 177.308594 269.425781 175.050781 L 210.566406 142.375 L 151.71875 109.707031 C 149.8125 108.644531 147.65625 108.0625 145.453125 108.011719 Z M 145.460938 108.007812"/>
  <use mask="url(#mask2)" xlink:href="#surface11"/>
 </g>
</svg>
