<svg xmlns="http://www.w3.org/2000/svg" xmlns:xlink="http://www.w3.org/1999/xlink" width="384pt" height="384pt" version="1.1" viewBox="0 0 384 384">
 <defs>
  <filter id="alpha" width="100%" height="100%" x="0%" y="0%" filterUnits="objectBoundingBox">
   <feColorMatrix in="SourceGraphic" type="matrix" values="0 0 0 0 1 0 0 0 0 1 0 0 0 0 1 0 0 0 1 0"/>
  </filter>
  <mask id="mask0">
   <g filter="url(#alpha)">
    <rect style="fill:rgb(0%,0%,0%);fill-opacity:0.2" width="384" height="384" x="0" y="0"/>
   </g>
  </mask>
  <clipPath id="clip1">
   <rect width="384" height="384" x="0" y="0"/>
  </clipPath>
  <g id="surface5" clip-path="url(#clip1)">
   <path d="M 48.304688 127.148438 C 48.113281 129.585938 48 131.949219 48 134.015625 C 48 134.015625 48.058594 139.722656 49.5 151.03125 C 50.722656 159.808594 60.359375 220.679688 69.5625 239.109375 C 73.132812 246.316406 75.503906 249.292969 82.5 252.46875 C 102.660156 257.15625 173.546875 280.734375 181.242188 264.492188 C 187.542969 248.003906 190.6875 220.789062 191.996094 210 C 191.996094 217.285156 193.117188 246.726562 212.996094 253.640625 C 220.875 256.355469 237.125 258.777344 253.683594 260.648438 C 267.574219 262.191406 274.789062 267.574219 275.785156 298.148438 C 275.820312 296.503906 276 295.507812 276 293.578125 C 276 256.054688 268.679688 250.304688 253.691406 248.648438 C 237.132812 246.777344 220.871094 244.351562 213 241.640625 C 193.117188 234.730469 192 205.28125 192 197.996094 C 190.691406 208.785156 187.546875 236 181.25 252.488281 C 173.542969 268.726562 102.660156 245.15625 82.5 240.464844 C 75.503906 237.285156 73.132812 234.308594 69.5625 227.109375 C 60.359375 208.675781 50.722656 147.800781 49.5 139.027344 C 48.828125 133.757812 48.507812 129.96875 48.304688 127.148438 Z M 335.914062 200.042969 C 335.867188 208.03125 335.710938 215.296875 335.234375 220.410156 C 330.742188 268.0625 323.25 296.425781 320.1875 305.722656 C 304.644531 352.738281 291.347656 354 253.71875 354 C 208.558594 354 193.933594 346.246094 192.324219 315.347656 C 192.226562 317.421875 192 319.199219 192 321.539062 C 192 357.601562 205.703125 366 253.71875 366 C 291.359375 366 304.652344 364.742188 320.1875 317.71875 C 323.253906 308.417969 330.746094 280.058594 335.234375 232.40625 C 335.945312 224.808594 336.113281 213.308594 335.914062 200.035156 Z M 240.007812 294.003906 C 223.066406 294.003906 216.007812 294.003906 216.007812 306.003906 C 216.007812 308.285156 216.488281 310.015625 217.226562 311.511719 C 219.855469 306.0625 226.980469 306.003906 240 306.003906 L 240 294.003906 Z M 240.007812 294.003906" style="fill:rgb(0%,0%,0%)"/>
  </g>
  <mask id="mask1">
   <g filter="url(#alpha)">
    <rect style="fill:rgb(0%,0%,0%);fill-opacity:0.2" width="384" height="384" x="0" y="0"/>
   </g>
  </mask>
  <clipPath id="clip2">
   <rect width="384" height="384" x="0" y="0"/>
  </clipPath>
  <g id="surface8" clip-path="url(#clip2)">
   <path d="M 288.003906 198 L 252.003906 198 C 252.003906 184.746094 260.0625 174 270.003906 174 C 279.945312 174 288.003906 184.746094 288.003906 198 Z M 288.003906 198" style="fill:rgb(0%,0%,0%)"/>
  </g>
  <mask id="mask2">
   <g filter="url(#alpha)">
    <rect style="fill:rgb(0%,0%,0%);fill-opacity:0.2" width="384" height="384" x="0" y="0"/>
   </g>
  </mask>
  <clipPath id="clip3">
   <rect width="384" height="384" x="0" y="0"/>
  </clipPath>
  <g id="surface11" clip-path="url(#clip3)">
   <path d="M 169.101562 24.046875 C 157.929688 23.808594 148.230469 24.804688 144.257812 25.898438 C 138.019531 27.5625 128.632812 31.113281 124.804688 36.515625 C 122.199219 40.140625 120 44.78125 120 51.234375 C 120.019531 53.347656 120 55.242188 120 57.222656 C 120 50.769531 122.199219 46.128906 124.804688 42.503906 C 128.632812 37.101562 138.019531 33.550781 144.257812 31.886719 C 148.230469 30.792969 157.929688 29.796875 169.101562 30.035156 C 180.285156 30.273438 192.960938 31.757812 202.921875 35.636719 C 210.398438 38.617188 216 45.589844 216 53.988281 C 227.605469 53.625 249.261719 55.878906 265.617188 57.785156 C 285.875 60.121094 302.039062 62.949219 310.007812 65.777344 C 317.4375 68.394531 325.546875 74.96875 328.101562 88.394531 L 328.101562 88.417969 C 331.535156 106.347656 335.535156 164.761719 335.847656 204.1875 C 335.859375 204.769531 335.898438 205.464844 335.90625 206.039062 C 336.121094 167.003906 331.761719 101.550781 328.101562 82.429688 L 328.101562 82.40625 C 325.546875 68.980469 317.4375 62.40625 310.007812 59.789062 C 302.039062 56.960938 285.875 54.132812 265.617188 51.796875 C 249.261719 49.890625 227.605469 47.636719 216 48 C 216 39.601562 210.398438 32.628906 202.921875 29.648438 C 192.960938 25.769531 180.285156 24.285156 169.101562 24.046875 Z M 120 85.78125 C 120 92.636719 117.632812 95.839844 110.578125 96 L 78.257812 96 C 71.347656 96 66.097656 95.84375 62.109375 97.617188 C 58.078125 99.441406 55.207031 101.789062 53.0625 104.671875 C 48.714844 110.332031 48 120.898438 48 128.015625 C 48 128.015625 48.089844 129.480469 48.117188 130.03125 C 48.386719 123.351562 49.453125 115.359375 53.0625 110.660156 C 55.207031 107.777344 58.078125 105.429688 62.109375 103.605469 C 66.097656 101.832031 71.347656 101.988281 78.257812 101.988281 L 110.578125 101.988281 C 117.632812 101.828125 120 98.625 120 91.769531 C 120.003906 89.796875 119.992188 87.734375 120 85.78125 Z M 240 276 C 206.125 276 192 276.011719 192 315.550781 C 192 316.199219 192.074219 316.71875 192.105469 317.308594 C 193.144531 282.105469 207.410156 282 240 282 Z M 275.789062 304.160156 C 275.429688 321.859375 272.4375 324 249 324 C 230.28125 324 220.363281 323.878906 217.230469 317.507812 C 216.4375 319.152344 216 321.226562 216 324 C 216 324.957031 216.175781 325.71875 216.304688 326.53125 C 216.511719 325.386719 216.8125 324.375 217.230469 323.507812 C 220.363281 329.878906 230.28125 330 249 330 C 272.4375 330 275.429688 327.847656 275.789062 310.148438 C 275.851562 311.929688 275.898438 313.746094 275.941406 315.609375 C 275.960938 314.28125 276 313.097656 276 311.589844 C 276 308.828125 275.875 306.585938 275.789062 304.160156 Z M 275.789062 304.160156" style="fill:rgb(100%,100%,100%)"/>
  </g>
 </defs>
 <g>
  <use mask="url(#mask0)" xlink:href="#surface5"/>
  <path d="M 169.105469 24.03125 C 157.933594 23.792969 148.238281 24.792969 144.265625 25.886719 C 138.011719 27.550781 128.628906 31.097656 124.800781 36.5 C 122.195312 40.125 120 44.78125 120 51.234375 C 120.097656 63.414062 119.847656 73.492188 120 85.773438 C 120 92.628906 117.628906 95.84375 110.574219 96.003906 L 78.257812 96.003906 C 71.347656 96.003906 66.101562 95.851562 62.113281 97.625 C 58.082031 99.449219 55.207031 101.796875 53.0625 104.679688 C 48.714844 110.339844 48 120.898438 48 128.015625 C 48 128.015625 48.046875 133.71875 49.488281 145.023438 C 50.714844 153.800781 60.371094 214.667969 69.574219 233.097656 C 73.144531 240.304688 75.511719 243.289062 82.507812 246.460938 C 102.671875 251.152344 173.546875 274.726562 181.246094 258.488281 C 187.550781 241.992188 190.6875 214.785156 192 203.996094 C 192 211.277344 193.125 240.734375 213.007812 247.648438 C 220.882812 250.359375 237.128906 252.761719 253.691406 254.636719 C 268.679688 256.304688 276 262.050781 276 299.578125 C 276 322.390625 274.605469 323.996094 249 323.996094 C 225.875 323.996094 216 323.996094 216 311.996094 C 216 299.996094 223.058594 299.996094 240 299.996094 L 240 275.996094 C 206.117188 275.996094 191.996094 275.996094 191.996094 315.535156 C 191.996094 351.597656 205.71875 360 253.722656 360 C 291.363281 360 304.644531 358.738281 320.179688 311.714844 C 323.246094 302.417969 330.746094 274.058594 335.234375 226.40625 C 338.054688 196.320312 332.507812 105.46875 328.105469 82.4375 L 328.105469 82.40625 C 325.550781 68.980469 317.4375 62.417969 310.007812 59.800781 C 302.039062 56.972656 285.875 54.128906 265.621094 51.792969 C 249.253906 49.886719 227.605469 47.632812 216 48 C 216 39.597656 210.40625 32.625 202.929688 29.644531 C 192.972656 25.765625 180.289062 24.273438 169.101562 24.03125 Z M 169.105469 24.03125" style="fill:#0ca15e"/>
  <use mask="url(#mask1)" xlink:href="#surface8"/>
  <path d="M 288.003906 192 L 252.003906 192 C 252.003906 178.742188 260.0625 168 270.003906 168 C 279.945312 168 288.003906 178.742188 288.003906 192 Z M 288.003906 192" style="fill:rgb(100%,100%,100%)"/>
  <use mask="url(#mask2)" xlink:href="#surface11"/>
 </g>
</svg>
