<svg xmlns="http://www.w3.org/2000/svg" xmlns:xlink="http://www.w3.org/1999/xlink" width="384pt" height="384pt" version="1.1" viewBox="0 0 384 384"> <defs> <filter id="alpha" width="100%" height="100%" x="0%" y="0%" filterUnits="objectBoundingBox"> <feColorMatrix in="SourceGraphic" type="matrix" values="0 0 0 0 1 0 0 0 0 1 0 0 0 0 1 0 0 0 1 0"/> </filter> <mask id="mask0"> <g filter="url(#alpha)"> <rect width="384" height="384" x="0" y="0" style="fill:rgb(0%,0%,0%);fill-opacity:0.2"/> </g> </mask> <clipPath id="clip1"> <rect width="384" height="384" x="0" y="0"/> </clipPath> <g id="surface5" clip-path="url(#clip1)"> <path style="fill:rgb(0%,0%,0%)" d="M 296.554688 48.023438 C 296.46875 48.023438 296.398438 48.09375 296.296875 48.1875 C 292.910156 52.28125 287.660156 73.023438 285.84375 78 C 285.664062 77.753906 285.503906 77.558594 285.328125 77.320312 C 302.15625 103.492188 312 134.574219 312 168 C 312 245.226562 259.835938 310.121094 188.859375 329.765625 C 176.613281 333.746094 163.585938 336 150 336 C 148.878906 336 147.785156 335.886719 146.671875 335.859375 C 145.773438 335.875 144.902344 336 144 336 C 123.945312 336 64.605469 256.109375 25.433594 210.234375 C 25.632812 214.59375 25.933594 218.921875 26.441406 223.195312 C 26.488281 223.601562 26.507812 224.007812 26.558594 224.414062 C 26.898438 227.109375 27.308594 229.777344 27.777344 232.429688 C 27.792969 232.515625 27.808594 232.601562 27.824219 232.6875 C 28.71875 237.738281 28.613281 242.726562 29.929688 247.617188 C 29.960938 247.730469 29.96875 247.855469 30 247.96875 C 30.132812 248.457031 30.238281 248.957031 30.375 249.445312 C 30.394531 249.507812 30.425781 249.570312 30.445312 249.632812 C 50.347656 320.214844 115.050781 372 192 372 C 284.785156 372 360 296.785156 360 204 C 360 145.199219 333.664062 114.980469 307.59375 73.710938 C 307.59375 73.6875 307.609375 73.664062 307.523438 73.640625 C 303.679688 67.894531 300.347656 56.785156 297.65625 50.53125 C 297.234375 49.152344 296.734375 48.023438 296.554688 48.023438 Z M 296.554688 48.023438"/> </g> <mask id="mask1"> <g filter="url(#alpha)"> <rect width="384" height="384" x="0" y="0" style="fill:rgb(0%,0%,0%);fill-opacity:0.101961"/> </g> </mask> <clipPath id="clip2"> <rect width="384" height="384" x="0" y="0"/> </clipPath> <g id="surface8" clip-path="url(#clip2)"> <path style="fill:rgb(100.000%,100.000%,100.000%)" d="M 192 30 C 141.371094 30 96.117188 52.171875 65.367188 87.375 C 65.304688 89.363281 65.382812 91.359375 65.390625 93.351562 C 96.140625 58.164062 141.382812 36 192 36 C 215.234375 36 237.339844 40.667969 257.425781 49.125 C 262.503906 51.261719 264.210938 62.046875 269.015625 64.652344 C 276.277344 114.460938 290.292969 181.710938 291.164062 238.898438 C 291.25 180.457031 276.535156 110.238281 269.015625 58.664062 C 264.210938 56.058594 262.503906 45.261719 257.425781 43.125 C 237.339844 34.667969 215.234375 30 192 30 Z M 192 30"/> </g> <mask id="mask2"> <g filter="url(#alpha)"> <rect width="384" height="384" x="0" y="0" style="fill:rgb(0%,0%,0%);fill-opacity:0.2"/> </g> </mask> <clipPath id="clip3"> <rect width="384" height="384" x="0" y="0"/> </clipPath> <g id="surface11" clip-path="url(#clip3)"> <path style="fill:rgb(0%,0%,0%)" d="M 251.039062 24 L 249.023438 26.484375 C 248.679688 26.910156 248.34375 27.347656 247.992188 27.796875 C 240.21875 38.109375 238.199219 49.761719 233.554688 62.273438 C 231.785156 67.074219 229.910156 74.320312 228.867188 80.34375 C 227.820312 86.382812 227.730469 95.007812 228.703125 100.289062 C 231.277344 114.277344 234.777344 127.457031 243.421875 138.609375 C 245.855469 141.257812 248.144531 143.976562 250.570312 146.695312 C 252.671875 149.050781 254.816406 151.386719 256.757812 153.703125 C 261.808594 159.734375 266.160156 165.519531 268.382812 170.320312 C 273.964844 182.394531 276.328125 193.128906 276.328125 206.484375 C 276.328125 210.511719 276.109375 214.65625 275.765625 217.125 C 275.722656 217.320312 275.644531 217.496094 275.601562 217.6875 L 275.601562 217.710938 C 275.371094 221.488281 274.925781 225.199219 274.371094 228.878906 C 274.925781 225.199219 275.371094 221.488281 275.601562 217.710938 C 266.984375 256.988281 239.085938 287.789062 199.96875 288 C 175.078125 288.09375 141.597656 277.195312 137.085938 251.484375 C 149.074219 253.308594 158.054688 252.671875 166.617188 252.609375 C 174.53125 252.554688 184.492188 250.84375 193.710938 245.953125 C 207.449219 238.617188 214.257812 239.660156 218.015625 240.09375 C 223.554688 240.734375 224.234375 240.738281 225.445312 239.976562 C 228.015625 238.363281 228.757812 237.722656 227.273438 234.65625 C 225.398438 230.785156 218.816406 225.378906 213.304688 223.171875 C 208.6875 221.324219 206.179688 220.855469 200.648438 220.851562 C 195.015625 220.847656 190.230469 222.320312 180.070312 225.398438 C 169.929688 228.472656 161.925781 228.925781 155.671875 227.179688 C 129.660156 220.953125 111.625 196.648438 124.289062 179.765625 C 131.90625 179.414062 149.796875 188.144531 154.617188 191.4375 C 159.230469 186.902344 151.605469 176.320312 150 169.945312 C 150 161.988281 166.214844 159.769531 172.875 156.773438 C 177.261719 154.804688 181.53125 152.785156 182.367188 152.296875 C 184.183594 151.230469 187.691406 147.839844 189.117188 145.757812 C 191.292969 142.578125 192.714844 136.675781 191.835938 134.554688 C 190.730469 131.886719 183.320312 130.222656 165.351562 128.625 C 158.570312 128.023438 153.925781 122.53125 150.351562 116.226562 C 144.089844 101.746094 162.664062 80.773438 170.601562 73.476562 C 157.976562 66.585938 138.113281 85.871094 130.59375 92.929688 C 128.183594 95.3125 128.917969 95.273438 121.617188 93.351562 C 121.128906 93.222656 120.632812 93.121094 120.117188 93 C 119.933594 92.957031 119.738281 92.898438 119.554688 92.859375 C 119.21875 92.785156 118.867188 92.71875 118.523438 92.648438 C 118.28125 92.597656 118.027344 92.554688 117.773438 92.507812 C 117.488281 92.457031 117.21875 92.394531 116.929688 92.34375 C 116.628906 92.292969 116.320312 92.230469 116.015625 92.179688 C 115.796875 92.144531 115.578125 92.121094 115.359375 92.085938 C 113.425781 91.78125 111.417969 91.523438 109.382812 91.335938 C 107.15625 91.132812 104.929688 90.988281 102.773438 90.9375 C 102.125 90.921875 101.480469 90.9375 100.851562 90.9375 C 100.171875 90.9375 99.507812 90.921875 98.859375 90.9375 C 98.734375 90.941406 98.609375 90.953125 98.484375 90.960938 C 97.9375 90.976562 97.390625 91.007812 96.867188 91.03125 C 96.78125 91.035156 96.722656 91.046875 96.65625 91.054688 C 96.078125 91.089844 95.53125 91.121094 94.992188 91.171875 C 94.90625 91.175781 94.894531 91.1875 94.851562 91.195312 C 94.296875 91.246094 93.785156 91.3125 93.28125 91.382812 L 93.257812 91.382812 C 93.03125 91.417969 92.796875 91.4375 92.578125 91.476562 C 90.171875 91.46875 87.96875 92.15625 86.085938 93.023438 C 79.765625 82.351562 78.222656 58.6875 73.3125 48 C 61.824219 54.019531 53.960938 88.402344 52.007812 98.484375 C 51.261719 102.496094 50.394531 110.285156 50.390625 113.039062 C 50.390625 113.4375 50.289062 113.597656 50.273438 113.882812 C 33.675781 139.929688 24 170.824219 24 204 C 24 219.765625 26.3125 234.976562 30.375 249.445312 C 46.199219 297.460938 90.070312 332.648438 142.617188 335.695312 C 142.625 335.695312 142.632812 335.695312 142.640625 335.695312 C 143.082031 335.765625 143.59375 336 144 336 C 144.875 336 145.71875 335.878906 146.589844 335.859375 C 146.601562 335.859375 146.613281 335.859375 146.625 335.859375 C 147.753906 335.890625 148.863281 336 150 336 C 155.535156 336 160.945312 335.519531 166.289062 334.828125 C 168 334.605469 169.710938 334.367188 171.398438 334.078125 C 174.207031 333.597656 176.964844 332.996094 179.707031 332.332031 C 182.914062 331.554688 186.082031 330.679688 189.1875 329.660156 C 259.992188 309.90625 312 245.105469 312 168 C 312 134.574219 302.15625 103.492188 285.328125 77.320312 C 272.40625 59.535156 259.976562 46.308594 251.53125 26.460938 Z M 273.773438 232.230469 C 273.320312 234.777344 272.808594 237.300781 272.203125 239.789062 C 272.804688 237.300781 273.320312 234.773438 273.773438 232.230469 Z M 271.230469 243.585938 C 270.570312 245.972656 269.820312 248.316406 269.027344 250.640625 C 269.820312 248.316406 270.574219 245.972656 271.230469 243.585938 Z M 267.832031 254.167969 C 266.792969 256.941406 265.648438 259.660156 264.421875 262.335938 C 265.644531 259.65625 266.792969 256.945312 267.832031 254.167969 Z M 262.394531 266.496094 C 261.289062 268.695312 260.15625 270.875 258.925781 273 C 260.152344 270.875 261.289062 268.695312 262.394531 266.496094 Z M 256.242188 277.335938 C 255.289062 278.835938 254.324219 280.320312 253.3125 281.777344 C 254.324219 280.320312 255.292969 278.835938 256.242188 277.335938 Z M 250.148438 286.148438 C 249.175781 287.429688 248.15625 288.667969 247.136719 289.910156 C 248.15625 288.667969 249.175781 287.429688 250.148438 286.148438 Z M 243.222656 294.539062 C 242.828125 294.972656 242.402344 295.375 242.003906 295.804688 C 242.402344 295.375 242.828125 294.972656 243.222656 294.539062 Z M 53.273438 298.523438 C 58.300781 305.90625 63.878906 312.863281 69.984375 319.335938 C 63.882812 312.867188 58.296875 305.898438 53.273438 298.523438 Z M 230.800781 306.445312 C 230.34375 306.828125 229.914062 307.242188 229.453125 307.617188 C 229.914062 307.238281 230.34375 306.828125 230.800781 306.445312 Z M 223.464844 312.152344 C 222.800781 312.632812 222.136719 313.113281 221.460938 313.582031 C 222.136719 313.113281 222.800781 312.632812 223.464844 312.152344 Z M 214.78125 317.90625 C 214.457031 318.101562 214.132812 318.289062 213.808594 318.480469 C 214.132812 318.289062 214.460938 318.101562 214.78125 317.90625 Z M 214.78125 317.90625"/> </g> <mask id="mask3"> <g filter="url(#alpha)"> <rect width="384" height="384" x="0" y="0" style="fill:rgb(0%,0%,0%);fill-opacity:0.2"/> </g> </mask> <clipPath id="clip4"> <rect width="384" height="384" x="0" y="0"/> </clipPath> <g id="surface14" clip-path="url(#clip4)"> <path style="fill:rgb(100.000%,100.000%,100.000%)" d="M 296.554688 42.023438 C 296.46875 42.023438 296.398438 42.09375 296.296875 42.1875 C 292.910156 46.28125 287.660156 67.023438 285.84375 72 C 285.664062 71.753906 285.503906 71.558594 285.328125 71.320312 C 285.921875 72.242188 286.4375 73.21875 287.015625 74.15625 C 289.285156 66.78125 293.335938 51.765625 296.296875 48.1875 C 296.398438 48.09375 296.46875 48.023438 296.554688 48.023438 C 296.734375 48.023438 297.234375 49.152344 297.65625 50.53125 C 300.347656 56.785156 303.679688 67.894531 307.523438 73.640625 C 307.609375 73.664062 307.59375 73.6875 307.59375 73.710938 C 333.230469 114.296875 359.0625 144.253906 359.917969 201.152344 C 359.9375 200.101562 360 199.058594 360 198 C 360 139.199219 333.664062 108.980469 307.59375 67.710938 C 307.59375 67.6875 307.609375 67.664062 307.523438 67.640625 C 303.679688 61.894531 300.347656 50.785156 297.65625 44.53125 C 297.234375 43.152344 296.734375 42.023438 296.554688 42.023438 Z M 296.554688 42.023438"/> </g> <mask id="mask4"> <g filter="url(#alpha)"> <rect width="384" height="384" x="0" y="0" style="fill:rgb(0%,0%,0%);fill-opacity:0.2"/> </g> </mask> <clipPath id="clip5"> <rect width="384" height="384" x="0" y="0"/> </clipPath> <g id="surface17" clip-path="url(#clip5)"> <path style="fill:rgb(100.000%,100.000%,100.000%)" d="M 73.3125 42 C 61.824219 48.019531 53.960938 82.402344 52.007812 92.484375 C 51.261719 96.496094 50.394531 104.285156 50.390625 107.039062 C 50.390625 107.4375 50.289062 107.597656 50.273438 107.882812 C 33.675781 133.929688 24 164.824219 24 198 C 24 199.007812 24.085938 199.996094 24.105469 201 C 24.671875 168.96875 34.179688 139.140625 50.273438 113.882812 C 50.289062 113.597656 50.390625 113.4375 50.390625 113.039062 C 50.394531 110.285156 51.261719 102.496094 52.007812 98.484375 C 53.960938 88.402344 61.824219 54.019531 73.3125 48 C 78.222656 58.6875 79.765625 82.351562 86.085938 93.023438 C 87.96875 92.15625 90.171875 91.46875 92.578125 91.476562 C 92.796875 91.4375 93.03125 91.417969 93.257812 91.382812 L 93.28125 91.382812 C 93.785156 91.3125 94.296875 91.246094 94.851562 91.195312 C 94.894531 91.1875 94.90625 91.175781 94.992188 91.171875 C 95.53125 91.121094 96.078125 91.089844 96.65625 91.054688 C 96.722656 91.046875 96.78125 91.035156 96.867188 91.03125 C 97.390625 91.007812 97.9375 90.976562 98.484375 90.960938 C 98.609375 90.953125 98.734375 90.941406 98.859375 90.9375 C 99.507812 90.921875 100.171875 90.9375 100.851562 90.9375 C 101.480469 90.9375 102.125 90.921875 102.773438 90.9375 C 104.929688 90.988281 107.15625 91.132812 109.382812 91.335938 C 111.417969 91.523438 113.425781 91.78125 115.359375 92.085938 C 115.578125 92.121094 115.796875 92.144531 116.015625 92.179688 C 116.320312 92.230469 116.628906 92.292969 116.929688 92.34375 C 117.21875 92.394531 117.488281 92.457031 117.773438 92.507812 C 118.027344 92.554688 118.28125 92.597656 118.523438 92.648438 C 118.867188 92.71875 119.21875 92.785156 119.554688 92.859375 C 119.738281 92.898438 119.933594 92.957031 120.117188 93 C 120.632812 93.121094 121.128906 93.222656 121.617188 93.351562 C 128.917969 95.273438 128.183594 95.3125 130.59375 92.929688 C 137.253906 86.675781 153.585938 70.867188 166.007812 72.117188 C 167.703125 70.300781 169.316406 68.660156 170.601562 67.476562 C 157.976562 60.585938 138.113281 79.871094 130.59375 86.929688 C 128.183594 89.3125 128.917969 89.273438 121.617188 87.351562 C 121.128906 87.222656 120.632812 87.121094 120.117188 87 C 119.933594 86.957031 119.738281 86.898438 119.554688 86.859375 C 119.21875 86.785156 118.867188 86.71875 118.523438 86.648438 C 118.28125 86.597656 118.027344 86.554688 117.773438 86.507812 C 117.488281 86.457031 117.21875 86.394531 116.929688 86.34375 C 116.628906 86.292969 116.320312 86.230469 116.015625 86.179688 C 115.796875 86.144531 115.578125 86.121094 115.359375 86.085938 C 113.425781 85.78125 111.417969 85.523438 109.382812 85.335938 C 107.15625 85.132812 104.929688 84.988281 102.773438 84.9375 C 102.125 84.921875 101.480469 84.9375 100.851562 84.9375 C 100.171875 84.9375 99.507812 84.921875 98.859375 84.9375 C 98.734375 84.941406 98.609375 84.953125 98.484375 84.960938 C 97.9375 84.976562 97.390625 85.007812 96.867188 85.03125 C 96.78125 85.035156 96.722656 85.046875 96.65625 85.054688 C 96.078125 85.089844 95.53125 85.121094 94.992188 85.171875 C 94.90625 85.175781 94.894531 85.1875 94.851562 85.195312 C 94.296875 85.246094 93.785156 85.3125 93.28125 85.382812 L 93.257812 85.382812 C 93.03125 85.417969 92.796875 85.4375 92.578125 85.476562 C 90.171875 85.46875 87.96875 86.15625 86.085938 87.023438 C 79.765625 76.351562 78.222656 52.6875 73.3125 42 Z M 149.367188 106.675781 C 148.871094 110.015625 149.066406 113.257812 150.351562 116.226562 C 153.925781 122.53125 158.570312 128.023438 165.351562 128.625 C 182.28125 130.128906 189.769531 131.703125 191.507812 134.109375 C 192.097656 131.839844 192.300781 129.671875 191.835938 128.554688 C 190.730469 125.886719 183.320312 124.222656 165.351562 122.625 C 158.570312 122.023438 153.925781 116.53125 150.351562 110.226562 C 149.859375 109.085938 149.570312 107.890625 149.367188 106.675781 Z M 250.570312 140.695312 C 252.671875 143.050781 254.816406 145.386719 256.757812 147.703125 C 254.8125 145.316406 252.769531 142.960938 250.570312 140.695312 Z M 250.570312 146.695312 C 252.769531 148.960938 254.8125 151.316406 256.757812 153.703125 C 254.816406 151.386719 252.671875 149.050781 250.570312 146.695312 Z M 151.078125 166.792969 C 150.449219 167.742188 150 168.765625 150 169.945312 C 150.980469 173.839844 154.1875 179.296875 155.496094 183.996094 C 157.457031 179.679688 153.308594 172.46875 151.078125 166.792969 Z M 120.421875 189.023438 C 118.128906 204.488281 134.136719 222.027344 155.671875 227.179688 C 161.925781 228.925781 169.929688 228.472656 180.070312 225.398438 C 190.230469 222.320312 195.015625 220.847656 200.648438 220.851562 C 206.179688 220.855469 208.6875 221.324219 213.304688 223.171875 C 218.242188 225.148438 223.859375 229.648438 226.359375 233.355469 C 228.097656 232.15625 228.542969 231.28125 227.273438 228.65625 C 225.398438 224.785156 218.816406 219.378906 213.304688 217.171875 C 208.6875 215.324219 206.179688 214.855469 200.648438 214.851562 C 195.015625 214.847656 190.230469 216.320312 180.070312 219.398438 C 169.929688 222.472656 161.925781 222.925781 155.671875 221.179688 C 136.890625 216.683594 122.335938 202.769531 120.421875 189.023438 Z M 275.601562 211.6875 C 266.992188 250.972656 239.09375 281.789062 199.96875 282 C 177.195312 282.085938 147.300781 272.929688 138.914062 251.683594 C 138.285156 251.597656 137.730469 251.582031 137.085938 251.484375 C 141.597656 277.195312 175.078125 288.09375 199.96875 288 C 237.554688 287.796875 264.726562 259.328125 274.441406 222.257812 C 274.949219 218.769531 275.386719 215.261719 275.601562 211.6875 Z M 275.601562 211.6875"/> </g> <mask id="mask5"> <g filter="url(#alpha)"> <rect width="384" height="384" x="0" y="0" style="fill:rgb(0%,0%,0%);fill-opacity:0.2"/> </g> </mask> <clipPath id="clip6"> <rect width="384" height="384" x="0" y="0"/> </clipPath> <g id="surface20" clip-path="url(#clip6)"> <path style="fill:rgb(100.000%,100.000%,100.000%)" d="M 251.039062 18 L 249.023438 20.484375 C 248.679688 20.910156 248.34375 21.347656 247.992188 21.796875 C 240.21875 32.109375 238.199219 43.761719 233.554688 56.273438 C 231.785156 61.074219 229.910156 68.320312 228.867188 74.34375 C 228.164062 78.410156 227.933594 83.59375 228.128906 88.195312 C 228.242188 85.425781 228.460938 82.683594 228.867188 80.34375 C 229.910156 74.320312 231.785156 67.074219 233.554688 62.273438 C 238.199219 49.761719 240.21875 38.109375 247.992188 27.796875 C 248.34375 27.347656 248.679688 26.910156 249.023438 26.484375 L 251.039062 24 L 251.53125 26.460938 C 259.976562 46.308594 272.40625 59.535156 285.328125 77.320312 C 301.785156 102.914062 311.496094 133.222656 311.917969 165.808594 C 311.945312 164.539062 312 163.273438 312 162 C 312 128.574219 302.15625 97.492188 285.328125 71.320312 C 272.40625 53.535156 259.976562 40.308594 251.53125 20.460938 Z M 251.039062 18"/> </g> </defs> <g> <use mask="url(#mask0)" xlink:href="#surface5"/> <path style="fill:rgb(23.137%,41.568%,72.549%)" d="M 269.027344 58.660156 C 263.550781 55.6875 261.121094 44.601562 255.289062 42.242188 C 235.773438 34.34375 214.414062 30 192 30 C 141.371094 30 96.113281 52.171875 65.359375 87.375 C 61.34375 218.246094 208.652344 362.148438 272.140625 316.03125 C 308.152344 289.875 281.308594 142.898438 269.027344 58.660156 Z M 269.027344 58.660156"/> <use mask="url(#mask1)" xlink:href="#surface8"/> <path style="fill:rgb(99.607%,64.313%,29.803%)" d="M 296.554688 42.023438 C 296.46875 42.023438 296.398438 42.09375 296.296875 42.1875 C 292.910156 46.28125 287.0625 67.023438 285.246094 72 C 285.066406 71.753906 284.90625 71.558594 284.730469 71.320312 C 301.558594 97.492188 310.800781 128.574219 310.800781 162 C 310.800781 239.226562 259.835938 301.71875 188.859375 321.363281 C 176.613281 325.34375 163.585938 327.597656 150 327.597656 C 148.878906 327.597656 147.785156 327.484375 146.671875 327.457031 C 145.773438 327.472656 144.902344 327.597656 144 327.597656 C 123.945312 327.597656 64.605469 250.109375 25.433594 204.234375 C 25.632812 208.59375 25.933594 212.921875 26.441406 217.195312 C 26.488281 217.601562 26.507812 218.007812 26.558594 218.414062 C 26.898438 221.109375 27.308594 223.777344 27.777344 226.429688 C 27.792969 226.515625 27.808594 226.601562 27.824219 226.6875 C 28.71875 231.738281 28.613281 236.726562 29.929688 241.617188 C 29.960938 241.730469 29.96875 241.855469 30 241.96875 C 30.132812 242.457031 30.238281 242.957031 30.375 243.445312 C 30.394531 243.507812 30.425781 243.570312 30.445312 243.632812 C 50.347656 314.214844 115.050781 366 192 366 C 284.785156 366 360 290.785156 360 198 C 360 139.199219 333.664062 108.980469 307.59375 67.710938 C 307.59375 67.6875 307.609375 67.664062 307.523438 67.640625 C 303.679688 61.894531 300.347656 50.785156 297.65625 44.53125 C 297.234375 43.152344 296.734375 42.023438 296.554688 42.023438 Z M 296.554688 42.023438"/> <use mask="url(#mask2)" xlink:href="#surface11"/> <path style="fill:rgb(99.215%,36.470%,36.470%)" d="M 73.3125 42 C 61.824219 48.019531 53.960938 82.402344 52.007812 92.484375 C 51.261719 96.496094 50.394531 104.285156 50.390625 107.039062 C 50.390625 107.4375 50.289062 107.597656 50.273438 107.882812 C 33.675781 133.929688 24 164.824219 24 198 C 24 213.765625 26.3125 228.976562 30.375 243.445312 C 46.9375 293.699219 94.199219 330 150 330 C 216.992188 330 271.609375 277.679688 275.601562 211.6875 C 266.992188 250.972656 239.09375 281.789062 199.96875 282 C 175.078125 282.09375 141.597656 271.195312 137.085938 245.484375 C 149.074219 247.308594 158.054688 246.671875 166.617188 246.609375 C 174.53125 246.554688 184.492188 244.84375 193.710938 239.953125 C 207.449219 232.617188 214.257812 233.660156 218.015625 234.09375 C 223.554688 234.734375 224.234375 234.738281 225.445312 233.976562 C 228.015625 232.363281 228.757812 231.722656 227.273438 228.65625 C 225.398438 224.785156 218.816406 219.378906 213.304688 217.171875 C 208.6875 215.324219 206.179688 214.855469 200.648438 214.851562 C 195.015625 214.847656 190.230469 216.320312 180.070312 219.398438 C 169.929688 222.472656 161.925781 222.925781 155.671875 221.179688 C 129.660156 214.953125 111.625 190.648438 124.289062 173.765625 C 131.90625 173.414062 149.796875 182.144531 154.617188 185.4375 C 159.230469 180.902344 151.605469 170.320312 150 163.945312 C 150 155.988281 166.214844 153.769531 172.875 150.773438 C 177.261719 148.804688 181.53125 146.785156 182.367188 146.296875 C 184.183594 145.230469 187.691406 141.839844 189.117188 139.757812 C 191.292969 136.578125 192.714844 130.675781 191.835938 128.554688 C 190.730469 125.886719 183.320312 124.222656 165.351562 122.625 C 158.570312 122.019531 153.925781 116.53125 150.351562 110.226562 C 144.089844 95.746094 162.664062 74.773438 170.601562 67.476562 C 157.976562 60.585938 138.113281 79.871094 130.59375 86.929688 C 128.183594 89.3125 128.917969 89.269531 121.617188 87.351562 C 121.128906 87.222656 120.632812 87.117188 120.117188 87 C 119.933594 86.957031 119.738281 86.898438 119.554688 86.859375 C 119.21875 86.785156 118.867188 86.71875 118.523438 86.648438 C 118.28125 86.597656 118.027344 86.554688 117.773438 86.507812 C 117.488281 86.457031 117.21875 86.394531 116.929688 86.34375 C 116.628906 86.292969 116.320312 86.230469 116.015625 86.179688 C 115.796875 86.144531 115.578125 86.121094 115.359375 86.085938 C 113.425781 85.78125 111.417969 85.523438 109.382812 85.335938 C 107.15625 85.128906 104.929688 84.988281 102.773438 84.9375 C 102.125 84.921875 101.480469 84.9375 100.851562 84.9375 C 100.171875 84.9375 99.507812 84.917969 98.859375 84.9375 C 98.734375 84.941406 98.609375 84.953125 98.484375 84.960938 C 97.9375 84.976562 97.390625 85.003906 96.867188 85.03125 C 96.78125 85.035156 96.722656 85.046875 96.65625 85.054688 C 96.078125 85.085938 95.53125 85.117188 94.992188 85.171875 C 94.90625 85.175781 94.894531 85.1875 94.851562 85.195312 C 94.296875 85.246094 93.785156 85.3125 93.28125 85.382812 L 93.257812 85.382812 C 93.03125 85.414062 92.796875 85.4375 92.578125 85.476562 C 90.171875 85.46875 87.96875 86.15625 86.085938 87.023438 C 79.765625 76.351562 78.222656 52.6875 73.3125 42 Z M 250.570312 140.695312 C 252.671875 143.050781 254.816406 145.386719 256.757812 147.703125 C 254.8125 145.316406 252.769531 142.960938 250.570312 140.695312 Z M 250.570312 140.695312"/> <path style="fill:rgb(97.647%,89.803%,52.549%)" d="M 251.039062 18 L 249.023438 20.484375 C 248.679688 20.910156 248.34375 21.347656 247.992188 21.796875 C 240.21875 32.109375 238.199219 43.761719 233.554688 56.273438 C 231.785156 61.074219 229.910156 68.320312 228.867188 74.34375 C 227.820312 80.382812 227.730469 89.007812 228.703125 94.289062 C 231.277344 108.277344 234.777344 121.457031 243.421875 132.609375 C 245.855469 135.257812 248.144531 137.976562 250.570312 140.695312 C 252.671875 143.050781 254.816406 145.386719 256.757812 147.703125 C 261.808594 153.734375 266.160156 159.519531 268.382812 164.320312 C 273.964844 176.394531 276.328125 187.128906 276.328125 200.484375 C 276.328125 204.511719 276.109375 208.65625 275.765625 211.125 C 275.722656 211.320312 275.644531 211.492188 275.601562 211.6875 L 275.601562 211.710938 C 272.410156 264.3125 237.007812 308.121094 188.859375 323.765625 C 259.835938 304.121094 312 239.226562 312 162 C 312 128.574219 302.15625 97.492188 285.328125 71.320312 C 272.40625 53.535156 259.976562 40.308594 251.53125 20.460938 Z M 251.039062 18"/> <use mask="url(#mask3)" xlink:href="#surface14"/> <use mask="url(#mask4)" xlink:href="#surface17"/> <use mask="url(#mask5)" xlink:href="#surface20"/> </g> </svg>
