<svg xmlns="http://www.w3.org/2000/svg" xmlns:xlink="http://www.w3.org/1999/xlink" width="384pt" height="384pt" version="1.1" viewBox="0 0 384 384"> <defs> <filter id="alpha" width="100%" height="100%" x="0%" y="0%" filterUnits="objectBoundingBox"> <feColorMatrix in="SourceGraphic" type="matrix" values="0 0 0 0 1 0 0 0 0 1 0 0 0 0 1 0 0 0 1 0"/> </filter> <mask id="mask0"> <g filter="url(#alpha)"> <rect width="384" height="384" x="0" y="0" style="fill:rgb(0%,0%,0%);fill-opacity:0.2"/> </g> </mask> <clipPath id="clip1"> <rect width="384" height="384" x="0" y="0"/> </clipPath> <g id="surface5" clip-path="url(#clip1)"> <path style="fill:rgb(0%,0%,0%)" d="M 24.304688 192.003906 C 24.234375 194.007812 24 195.972656 24 198.003906 C 24 291.074219 98.925781 366 191.996094 366 C 285.066406 366 359.996094 291.074219 359.996094 198.003906 C 359.996094 195.972656 359.753906 194.007812 359.695312 192.003906 C 356.527344 282.253906 283.039062 354 191.996094 354 C 100.953125 354 27.46875 282.253906 24.300781 192.003906 Z M 24.304688 192.003906"/> </g> <mask id="mask1"> <g filter="url(#alpha)"> <rect width="384" height="384" x="0" y="0" style="fill:rgb(0%,0%,0%);fill-opacity:0.2"/> </g> </mask> <clipPath id="clip2"> <rect width="384" height="384" x="0" y="0"/> </clipPath> <g id="surface8" clip-path="url(#clip2)"> <path style="fill:rgb(0%,0%,0%)" d="M 192 30.179688 C 170.183594 30.179688 148.921875 34.324219 128.785156 42.484375 C 107.949219 50.933594 89.253906 63.339844 73.21875 79.371094 C 57.179688 95.410156 44.757812 114.128906 36.304688 134.960938 C 28.917969 153.1875 25.015625 172.363281 24.304688 192.003906 C 26.480469 255.808594 63.804688 310.25 117.703125 336.78125 C 116.355469 336.0625 114.980469 335.414062 113.648438 334.644531 L 177.21875 345.960938 C 177.695312 346.273438 178.1875 346.570312 178.71875 346.835938 C 184.152344 349.609375 189.746094 351.949219 195.445312 354 C 284.941406 352.199219 356.652344 281.175781 359.703125 192.003906 C 358.980469 172.363281 355.082031 153.1875 347.703125 134.960938 C 339.242188 114.128906 326.832031 95.402344 310.800781 79.371094 C 294.769531 63.339844 276.074219 50.933594 255.21875 42.484375 C 235.082031 34.324219 213.816406 30.179688 192 30.179688 Z M 141.960938 49.023438 C 141.839844 49.203125 141.722656 49.386719 141.613281 49.585938 C 141.804688 49.726562 141.902344 49.855469 142.007812 49.890625 C 153.324219 53.796875 163.621094 59.558594 173.316406 66.386719 L 154.332031 123.570312 C 154.238281 123.609375 154.152344 123.632812 154.058594 123.667969 C 150.167969 125.277344 146.207031 126.703125 142.378906 128.441406 C 126.625 135.605469 111.25 143.539062 96.773438 153.054688 L 59.296875 130.890625 C 59.351562 129.714844 59.554688 128.550781 59.953125 127.484375 C 62.46875 120.789062 64.957031 114.042969 67.804688 107.472656 C 69.996094 102.414062 72.484375 97.507812 75.210938 92.730469 C 76.992188 90.761719 78.839844 88.820312 80.742188 86.917969 C 98.539062 69.128906 119.570312 56.492188 141.960938 49.023438 Z M 251.535156 52.511719 C 270.363281 60.179688 288 71.667969 303.253906 86.917969 C 317.136719 100.800781 327.867188 116.636719 335.460938 133.554688 C 326.066406 127.085938 316.023438 121.773438 305.460938 117.425781 C 303.816406 116.753906 302.136719 116.167969 300.421875 115.578125 L 250.921875 59.777344 C 251.269531 57.371094 251.460938 54.945312 251.535156 52.511719 Z M 231.242188 64.980469 C 234.648438 64.941406 238.09375 65.019531 241.550781 65.261719 L 291.816406 121.925781 C 290.089844 127.398438 288.398438 132.894531 286.382812 138.246094 C 282.828125 147.644531 279.039062 156.941406 275.257812 166.253906 L 202.226562 173.753906 C 201.347656 172.601562 200.449219 171.460938 199.5 170.382812 C 190.886719 160.613281 182.195312 150.90625 173.53125 141.175781 C 173.617188 141.078125 173.6875 141.007812 173.761719 140.921875 C 170.269531 137.429688 166.789062 133.9375 163.285156 130.433594 L 183.613281 69.25 C 185.015625 68.875 186.433594 68.558594 187.847656 68.402344 C 198.902344 67.28125 209.964844 66.019531 221.042969 65.378906 C 224.4375 65.191406 227.820312 65.023438 231.242188 64.980469 Z M 53.230469 139.675781 L 91.15625 162.101562 L 91.15625 163.0625 C 91.058594 183.449219 93.125 203.703125 97.25 223.648438 C 97.261719 223.746094 97.277344 223.78125 97.296875 223.863281 L 67.878906 269.953125 C 67.242188 269.628906 66.625 269.292969 66.007812 268.910156 C 57.914062 263.824219 50.4375 257.957031 43.832031 251.066406 C 33.75 222.6875 32.042969 191.992188 38.726562 162.835938 C 41.867188 156.628906 45.460938 150.679688 49.507812 144.96875 C 50.753906 143.214844 51.894531 141.378906 53.230469 139.675781 Z M 276.167969 176.875 C 285.347656 190.335938 294.039062 204.078125 301.597656 218.535156 C 302.988281 221.199219 304.382812 223.898438 305.761719 226.625 L 269.460938 294.3125 C 269.257812 294.363281 269.066406 294.398438 268.847656 294.421875 C 249.242188 298.09375 229.453125 300.050781 209.507812 300.144531 L 173.292969 237.519531 C 178.933594 227.054688 184.511719 216.554688 190.058594 206.042969 C 193.8125 198.917969 197.519531 191.730469 201.21875 184.554688 Z M 348.792969 210.125 C 346.082031 246.339844 330.902344 281.785156 303.253906 309.421875 C 297.289062 315.398438 290.953125 320.796875 284.316406 325.597656 C 283.226562 316.800781 281.328125 308.183594 278.652344 299.773438 L 316.226562 229.671875 C 326.570312 224.957031 336.53125 219.628906 345.792969 213.003906 C 347.007812 212.152344 348.015625 211.179688 348.792969 210.125 Z M 104.292969 232.71875 C 104.941406 232.875 105.652344 233.066406 106.472656 233.285156 C 124.84375 238.203125 143.5625 241.695312 162.390625 244.429688 C 163.496094 244.585938 164.421875 244.730469 165.210938 244.816406 L 200.410156 305.675781 C 194.300781 314.269531 188.121094 322.824219 181.796875 331.273438 C 180.753906 332.675781 179.636719 334.03125 178.472656 335.375 L 103.472656 321.984375 C 94.695312 311.328125 86.816406 300.074219 80.035156 288.027344 C 78.308594 284.964844 76.363281 281.964844 74.902344 278.773438 Z M 104.292969 232.71875"/> </g> <mask id="mask2"> <g filter="url(#alpha)"> <rect width="384" height="384" x="0" y="0" style="fill:rgb(0%,0%,0%);fill-opacity:0.2"/> </g> </mask> <clipPath id="clip3"> <rect width="384" height="384" x="0" y="0"/> </clipPath> <g id="surface11" clip-path="url(#clip3)"> <path style="fill:rgb(100.000%,100.000%,100.000%)" d="M 192 24 C 98.929688 24 24 98.929688 24 192 C 24 192.679688 24.066406 193.34375 24.105469 194.015625 C 26.214844 102.804688 100.265625 30 192 30 C 283.734375 30 357.785156 102.804688 359.894531 194.015625 C 359.933594 193.34375 360 192.679688 360 192 C 360 98.929688 285.070312 24 192 24 Z M 192 24"/> </g> </defs> <g> <use mask="url(#mask0)" xlink:href="#surface5"/> <path style="fill:rgb(100.000%,100.000%,100.000%)" d="M 354 192 C 354 102.53125 281.46875 30 192 30 C 102.53125 30 30 102.53125 30 192 C 30 281.46875 102.53125 354 192 354 C 281.46875 354 354 281.46875 354 192 Z M 354 192"/> <use mask="url(#mask1)" xlink:href="#surface8"/> <path style="fill:rgb(9.803%,9.803%,9.803%)" d="M 128.785156 36.296875 C 107.945312 44.746094 89.246094 57.171875 73.207031 73.203125 C 57.167969 89.238281 44.757812 107.941406 36.304688 128.78125 C 28.140625 148.910156 24 170.183594 24 192.003906 C 24 213.820312 28.140625 235.09375 36.304688 255.214844 C 44.757812 276.054688 57.171875 294.761719 73.207031 310.792969 C 89.246094 326.835938 107.941406 339.25 128.785156 347.699219 C 148.917969 355.871094 170.1875 359.996094 192.007812 359.996094 C 213.828125 359.996094 235.089844 355.855469 255.222656 347.699219 C 276.058594 339.25 294.769531 326.835938 310.800781 310.792969 C 326.839844 294.761719 339.253906 276.066406 347.707031 255.214844 C 355.867188 235.09375 360 213.820312 360 192.003906 C 360 170.183594 355.863281 148.910156 347.707031 128.78125 C 339.253906 107.941406 326.832031 89.234375 310.800781 73.203125 C 294.769531 57.171875 276.078125 44.746094 255.222656 36.296875 C 235.089844 28.140625 213.828125 24.003906 192.007812 24.003906 C 170.1875 24.003906 148.917969 28.140625 128.785156 36.296875 Z M 65.988281 262.726562 C 57.898438 257.648438 50.441406 251.796875 43.839844 244.910156 C 33.753906 216.53125 32.046875 185.8125 38.726562 156.648438 C 41.871094 150.453125 45.445312 144.5 49.488281 138.796875 C 50.738281 137.039062 51.894531 135.207031 53.230469 133.496094 L 91.144531 155.929688 L 91.144531 156.882812 C 91.046875 177.273438 93.117188 197.515625 97.238281 217.464844 C 97.253906 217.558594 97.265625 217.609375 97.285156 217.691406 L 67.882812 263.796875 C 67.242188 263.46875 66.605469 263.117188 65.988281 262.726562 Z M 178.714844 340.664062 C 185.257812 344.003906 191.984375 346.820312 198.894531 349.113281 C 169.53125 350.390625 139.875 343.511719 113.65625 328.46875 L 177.210938 339.792969 C 177.699219 340.101562 178.195312 340.398438 178.714844 340.664062 Z M 178.480469 329.191406 L 103.484375 315.824219 C 94.707031 305.171875 86.816406 293.898438 80.03125 281.851562 C 78.304688 278.785156 76.378906 275.808594 74.917969 272.613281 L 104.292969 226.554688 C 104.941406 226.71875 105.664062 226.890625 106.488281 227.109375 C 124.863281 232.023438 143.5625 235.519531 162.394531 238.261719 C 163.496094 238.414062 164.414062 238.546875 165.199219 238.632812 L 200.410156 299.511719 C 194.300781 308.101562 188.121094 316.644531 181.804688 325.09375 C 180.757812 326.5 179.644531 327.851562 178.480469 329.191406 Z M 303.261719 303.257812 C 297.289062 309.234375 290.953125 314.617188 284.316406 319.417969 C 283.21875 310.625 281.320312 302.007812 278.640625 293.59375 L 316.210938 223.503906 C 326.558594 218.792969 336.539062 213.449219 345.804688 206.824219 C 347.019531 205.964844 348.027344 205.003906 348.804688 203.953125 C 346.085938 240.171875 330.902344 275.621094 303.261719 303.257812 Z M 301.59375 212.363281 C 302.992188 215.027344 304.371094 217.71875 305.753906 220.449219 L 269.464844 288.140625 C 269.257812 288.1875 269.058594 288.234375 268.847656 288.261719 C 249.234375 291.925781 229.460938 293.875 209.519531 293.96875 L 173.304688 231.351562 C 178.941406 220.886719 184.527344 210.378906 190.066406 199.871094 C 193.828125 192.738281 197.523438 185.558594 201.214844 178.386719 L 276.160156 170.691406 C 285.339844 184.152344 294.035156 197.90625 301.59375 212.363281 Z M 286.390625 132.070312 C 282.832031 141.464844 279.023438 150.757812 275.242188 160.070312 L 202.230469 167.570312 C 201.355469 166.417969 200.453125 165.285156 199.5 164.203125 C 190.878906 154.441406 182.199219 144.738281 173.539062 135.003906 C 173.617188 134.90625 173.695312 134.832031 173.773438 134.746094 C 170.277344 131.253906 166.773438 127.761719 163.277344 124.261719 L 183.601562 63.066406 C 185.003906 62.695312 186.417969 62.382812 187.84375 62.230469 C 198.890625 61.105469 209.957031 59.835938 221.03125 59.195312 C 227.816406 58.8125 234.636719 58.59375 241.535156 59.082031 L 291.824219 115.765625 C 290.09375 121.234375 288.402344 126.71875 286.390625 132.070312 Z M 303.261719 80.742188 C 317.132812 94.625 327.875 110.464844 335.472656 127.386719 C 326.074219 120.917969 316.027344 115.597656 305.464844 111.261719 C 303.820312 110.585938 302.136719 109.984375 300.421875 109.394531 L 250.921875 53.605469 C 251.265625 51.195312 251.449219 48.78125 251.523438 46.347656 C 270.351562 54.011719 288.003906 65.488281 303.261719 80.742188 Z M 141.617188 43.417969 C 141.8125 43.5625 141.90625 43.683594 142.019531 43.714844 C 153.332031 47.625 163.625 53.382812 173.328125 60.210938 L 154.339844 117.394531 C 154.242188 117.421875 154.148438 117.453125 154.058594 117.492188 C 150.171875 119.097656 146.210938 120.539062 142.386719 122.28125 C 126.621094 129.445312 111.253906 137.378906 96.78125 146.890625 L 59.308594 124.722656 C 59.363281 123.550781 59.5625 122.363281 59.960938 121.304688 C 62.480469 114.601562 64.953125 107.859375 67.800781 101.289062 C 69.992188 96.230469 72.488281 91.339844 75.214844 86.5625 C 76.996094 84.59375 78.84375 82.644531 80.75 80.742188 C 98.542969 62.949219 119.574219 50.316406 141.96875 42.847656 C 141.851562 43.027344 141.730469 43.21875 141.617188 43.417969 Z M 141.617188 43.417969"/> <use mask="url(#mask2)" xlink:href="#surface11"/> </g> </svg>
