<svg xmlns="http://www.w3.org/2000/svg" width="384pt" height="384pt" version="1.1" viewBox="0 0 384 384">
 <g>
  <path style="fill-rule:evenodd;fill:rgb(0%,0%,0%)" d="M 63.75 36.757812 L 333.75 36.757812 L 360.75 63.753906 L 360.75 333.742188 L 333.75 360.742188 L 63.75 360.742188 L 36.75 333.742188 L 36.75 63.753906 Z M 63.75 36.757812"/>
  <path style="fill:rgb(21.176471%,48.235294%,94.117647%)" d="M 50.25 23.257812 L 36.75 36.757812 L 185.25 185.25 L 333.695312 36.757812 L 320.195312 23.257812 M 50.25 23.257812"/>
  <path style="fill:rgb(55.686275%,26.666667%,67.843137%)" d="M 320.195312 347.242188 L 333.695312 333.742188 L 185.25 185.304688 L 36.75 333.742188 L 50.25 347.242188 M 320.195312 347.242188"/>
  <path style="fill:rgb(83.137255%,10.196078%,10.196078%)" d="M 23.25 320.191406 L 36.75 333.691406 L 185.25 185.25 L 36.75 36.757812 L 23.25 50.257812 M 23.25 320.191406"/>
  <path style="fill:rgb(10.196078%,73.72549%,61.176471%)" d="M 347.25 50.257812 L 333.75 36.757812 L 185.304688 185.25 L 333.75 333.691406 L 347.25 320.191406 M 347.25 50.257812"/>
 </g>
</svg>
