<svg xmlns="http://www.w3.org/2000/svg" xmlns:xlink="http://www.w3.org/1999/xlink" width="384pt" height="384pt" version="1.1" viewBox="0 0 384 384"> <defs> <filter id="alpha" width="100%" height="100%" x="0%" y="0%" filterUnits="objectBoundingBox"> <feColorMatrix in="SourceGraphic" type="matrix" values="0 0 0 0 1 0 0 0 0 1 0 0 0 0 1 0 0 0 1 0"/> </filter> <mask id="mask0"> <g filter="url(#alpha)"> <rect width="384" height="384" x="0" y="0" style="fill:rgb(0%,0%,0%);fill-opacity:0.101961"/> </g> </mask> <clipPath id="clip1"> <rect width="384" height="384" x="0" y="0"/> </clipPath> <g id="surface5" clip-path="url(#clip1)"> <path style="fill:rgb(100.000%,100.000%,100.000%)" d="M 40.804688 24 C 31.496094 24 24 31.496094 24 40.800781 L 24 46.800781 C 24 37.496094 31.496094 30 40.804688 30 L 343.195312 30 C 352.496094 30 360 37.496094 360 46.800781 L 360 40.800781 C 360 31.496094 352.496094 24 343.195312 24 Z M 40.804688 24"/> </g> <mask id="mask1"> <g filter="url(#alpha)"> <rect width="384" height="384" x="0" y="0" style="fill:rgb(0%,0%,0%);fill-opacity:0.2"/> </g> </mask> <clipPath id="clip2"> <rect width="384" height="384" x="0" y="0"/> </clipPath> <g id="surface8" clip-path="url(#clip2)"> <path style="fill:rgb(0%,0%,0%)" d="M 24 343.199219 L 24 349.199219 C 24 358.496094 31.503906 366 40.804688 366 L 343.195312 366 C 352.496094 366 360 358.496094 360 349.199219 L 360 343.199219 C 360 352.496094 352.496094 360 343.195312 360 L 40.804688 360 C 31.503906 360 24 352.496094 24 343.199219 Z M 24 343.199219"/> </g> <mask id="mask2"> <g filter="url(#alpha)"> <rect width="384" height="384" x="0" y="0" style="fill:rgb(0%,0%,0%);fill-opacity:0.2"/> </g> </mask> <clipPath id="clip3"> <rect width="384" height="384" x="0" y="0"/> </clipPath> <g id="surface11" clip-path="url(#clip3)"> <path style="fill:rgb(0%,0%,0%)" d="M 69 66 L 123 66 C 127.96875 66 132 70.03125 132 75 L 132 129 C 132 133.96875 127.96875 138 123 138 L 69 138 C 64.027344 138 60 133.96875 60 129 L 60 75 C 60 70.03125 64.027344 66 69 66 Z M 69 66"/> <path style="fill:rgb(0%,0%,0%)" d="M 164.996094 66 L 218.996094 66 C 223.96875 66 227.996094 70.03125 227.996094 75 L 227.996094 129 C 227.996094 133.96875 223.96875 138 218.996094 138 L 164.996094 138 C 160.027344 138 156 133.96875 156 129 L 156 75 C 156 70.03125 160.027344 66 164.996094 66 Z M 164.996094 66"/> <path style="fill:rgb(0%,0%,0%)" d="M 69 162 L 123 162 C 127.96875 162 132 166.03125 132 171 L 132 225 C 132 229.96875 127.96875 234 123 234 L 69 234 C 64.027344 234 60 229.96875 60 225 L 60 171 C 60 166.03125 64.027344 162 69 162 Z M 69 162"/> <path style="fill:rgb(0%,0%,0%)" d="M 164.996094 162 L 218.996094 162 C 223.96875 162 227.996094 166.03125 227.996094 171 L 227.996094 225 C 227.996094 229.96875 223.96875 234 218.996094 234 L 164.996094 234 C 160.027344 234 156 229.96875 156 225 L 156 171 C 156 166.03125 160.027344 162 164.996094 162 Z M 164.996094 162"/> <path style="fill:rgb(0%,0%,0%)" d="M 69 258 L 123 258 C 127.96875 258 132 262.03125 132 267 L 132 321 C 132 325.96875 127.96875 330 123 330 L 69 330 C 64.027344 330 60 325.96875 60 321 L 60 267 C 60 262.03125 64.027344 258 69 258 Z M 69 258"/> </g> </defs> <g> <path style="fill:rgb(29.803%,29.803%,29.803%)" d="M 360 343.199219 L 360 40.800781 C 360 31.523438 352.476562 24 343.199219 24 L 40.800781 24 C 31.523438 24 24 31.523438 24 40.800781 L 24 343.199219 C 24 352.476562 31.523438 360 40.800781 360 L 343.199219 360 C 352.476562 360 360 352.476562 360 343.199219 Z M 360 343.199219"/> <use mask="url(#mask0)" xlink:href="#surface5"/> <use mask="url(#mask1)" xlink:href="#surface8"/> <use mask="url(#mask2)" xlink:href="#surface11"/> <path style="fill:rgb(70.196%,70.196%,70.196%)" d="M 69 60 L 123 60 C 127.96875 60 132 64.03125 132 69 L 132 123 C 132 127.972656 127.96875 132 123 132 L 69 132 C 64.027344 132 60 127.972656 60 123 L 60 69 C 60 64.03125 64.027344 60 69 60 Z M 69 60"/> <path style="fill:rgb(70.196%,70.196%,70.196%)" d="M 164.996094 60 L 218.996094 60 C 223.96875 60 227.996094 64.03125 227.996094 69 L 227.996094 123 C 227.996094 127.972656 223.96875 132 218.996094 132 L 164.996094 132 C 160.027344 132 156 127.972656 156 123 L 156 69 C 156 64.03125 160.027344 60 164.996094 60 Z M 164.996094 60"/> <path style="fill:rgb(70.196%,70.196%,70.196%)" d="M 69 156 L 123 156 C 127.96875 156 132 160.03125 132 165 L 132 219 C 132 223.972656 127.96875 228 123 228 L 69 228 C 64.027344 228 60 223.972656 60 219 L 60 165 C 60 160.03125 64.027344 156 69 156 Z M 69 156"/> <path style="fill:rgb(70.196%,70.196%,70.196%)" d="M 164.996094 156 L 218.996094 156 C 223.96875 156 227.996094 160.03125 227.996094 165 L 227.996094 219 C 227.996094 223.972656 223.96875 228 218.996094 228 L 164.996094 228 C 160.027344 228 156 223.972656 156 219 L 156 165 C 156 160.03125 160.027344 156 164.996094 156 Z M 164.996094 156"/> <path style="fill:rgb(70.196%,70.196%,70.196%)" d="M 69 252 L 123 252 C 127.96875 252 132 256.03125 132 261 L 132 315 C 132 319.972656 127.96875 324 123 324 L 69 324 C 64.027344 324 60 319.972656 60 315 L 60 261 C 60 256.03125 64.027344 252 69 252 Z M 69 252"/> </g> </svg>
