<svg xmlns="http://www.w3.org/2000/svg" xmlns:xlink="http://www.w3.org/1999/xlink" width="384pt" height="384pt" version="1.1" viewBox="0 0 384 384"> <defs> <filter id="alpha" width="100%" height="100%" x="0%" y="0%" filterUnits="objectBoundingBox"> <feColorMatrix in="SourceGraphic" type="matrix" values="0 0 0 0 1 0 0 0 0 1 0 0 0 0 1 0 0 0 1 0"/> </filter> <mask id="mask0"> <g filter="url(#alpha)"> <rect width="384" height="384" x="0" y="0" style="fill:rgb(0%,0%,0%);fill-opacity:0.2"/> </g> </mask> <clipPath id="clip1"> <rect width="384" height="384" x="0" y="0"/> </clipPath> <g id="surface5" clip-path="url(#clip1)"> <path style="fill:rgb(0%,0%,0%)" d="M 192 40 L 192 120 L 112 120 L 32 200 L 112 200 L 112 280 L 192 360 L 192 280 L 272 280 L 352 200 L 272 200 L 272 120 Z M 192 40"/> </g> <mask id="mask1"> <g filter="url(#alpha)"> <rect width="384" height="384" x="0" y="0" style="fill:rgb(0%,0%,0%);fill-opacity:0.2"/> </g> </mask> <clipPath id="clip2"> <rect width="384" height="384" x="0" y="0"/> </clipPath> <g id="surface8" clip-path="url(#clip2)"> <path style="fill:rgb(100.000%,100.000%,100.000%)" d="M 192 192 L 192 200 L 344 200 L 352 192 Z M 192 192"/> </g> <mask id="mask2"> <g filter="url(#alpha)"> <rect width="384" height="384" x="0" y="0" style="fill:rgb(0%,0%,0%);fill-opacity:0.2"/> </g> </mask> <clipPath id="clip3"> <rect width="384" height="384" x="0" y="0"/> </clipPath> <g id="surface11" clip-path="url(#clip3)"> <path style="fill:rgb(100.000%,100.000%,100.000%)" d="M 192 32 L 192 40 L 272 120 L 272 112 Z M 112 112 L 32 192 L 40 192 L 112 120 L 192 120 L 192 112 Z M 112 112"/> </g> <mask id="mask3"> <g filter="url(#alpha)"> <rect width="384" height="384" x="0" y="0" style="fill:rgb(0%,0%,0%);fill-opacity:0.2"/> </g> </mask> <clipPath id="clip4"> <rect width="384" height="384" x="0" y="0"/> </clipPath> <g id="surface14" clip-path="url(#clip4)"> <path style="fill:rgb(0%,0%,0%)" d="M 192 152 L 176 184 L 144 200 L 176 216 L 192 248 L 208 216 L 240 200 L 208 184 Z M 192 152"/> </g> </defs> <g> <use mask="url(#mask0)" xlink:href="#surface5"/> <path style="fill:rgb(100.000%,78.039%,18.823%)" d="M 112 112 L 32 192 L 192 192 L 192 112"/> <path style="fill:rgb(99.215%,28.627%,28.627%)" d="M 272 112 L 192 32 L 192 192 L 272 192"/> <path style="fill:rgb(4.705%,63.137%,36.862%)" d="M 112 272 L 192 352 L 192 192 L 112 192"/> <path style="fill:rgb(21.176%,48.235%,94.117%)" d="M 272 272 L 352 192 L 192 192 L 192 272"/> <use mask="url(#mask1)" xlink:href="#surface8"/> <path style="fill:rgb(54.901%,25.882%,67.058%)" d="M 272 112 L 192 192 L 272 192 Z M 272 112"/> <path style="fill:rgb(4.705%,63.137%,36.862%)" d="M 112 192 L 112 272 L 192 192 Z M 112 192"/> <path style="fill:rgb(16.862%,38.431%,75.294%)" d="M 192 192 L 192 272 L 272 272 Z M 192 192"/> <path style="fill:rgb(99.215%,49.019%,0%)" d="M 112 112 L 192 192 L 192 112 Z M 112 112"/> <use mask="url(#mask2)" xlink:href="#surface11"/> <use mask="url(#mask3)" xlink:href="#surface14"/> <path style="fill:rgb(100.000%,100.000%,100.000%)" d="M 192 144 L 176 176 L 144 192 L 176 208 L 192 240 L 208 208 L 240 192 L 208 176 Z M 192 144"/> <path style="fill:rgb(90.196%,90.196%,90.196%)" d="M 144 192 L 176 208 L 192 240 L 192 192 Z M 144 192"/> <path style="fill:rgb(90.196%,90.196%,90.196%)" d="M 240 192 L 208 208 L 192 240 L 192 192 Z M 240 192"/> </g> </svg>
