<svg xmlns="http://www.w3.org/2000/svg" xmlns:xlink="http://www.w3.org/1999/xlink" width="384pt" height="384pt" version="1.1" viewBox="0 0 384 384"> <defs> <filter id="alpha" width="100%" height="100%" x="0%" y="0%" filterUnits="objectBoundingBox"> <feColorMatrix in="SourceGraphic" type="matrix" values="0 0 0 0 1 0 0 0 0 1 0 0 0 0 1 0 0 0 1 0"/> </filter> <mask id="mask0"> <g filter="url(#alpha)"> <rect width="384" height="384" x="0" y="0" style="fill:rgb(0%,0%,0%);fill-opacity:0.2"/> </g> </mask> <clipPath id="clip1"> <rect width="384" height="384" x="0" y="0"/> </clipPath> <g id="surface5" clip-path="url(#clip1)"> <path style="fill:rgb(0%,0%,0%)" d="M 24 102 L 24 349.195312 C 24 358.503906 31.496094 366 40.804688 366 L 343.195312 366 C 352.503906 366 360 358.503906 360 349.195312 L 360 102 Z M 24 102"/> </g> <mask id="mask1"> <g filter="url(#alpha)"> <rect width="384" height="384" x="0" y="0" style="fill:rgb(0%,0%,0%);fill-opacity:0.2"/> </g> </mask> <clipPath id="clip2"> <rect width="384" height="384" x="0" y="0"/> </clipPath> <g id="surface8" clip-path="url(#clip2)"> <path style="fill:rgb(0%,0%,0%)" d="M 360 102 L 360 46.800781 C 360 37.492188 352.507812 30 343.199219 30 L 40.800781 30 C 31.492188 30 24 37.492188 24 46.800781 L 24 102 Z M 360 102"/> </g> <mask id="mask3"> <g filter="url(#alpha)"> <rect width="384" height="384" x="0" y="0" style="fill:rgb(0%,0%,0%);fill-opacity:0.2"/> </g> </mask> <clipPath id="clip4"> <rect width="384" height="384" x="0" y="0"/> </clipPath> <g id="surface14" clip-path="url(#clip4)"> <path style="fill:rgb(100.000%,100.000%,100.000%)" d="M 40.804688 24 C 31.496094 24 24 31.496094 24 40.804688 L 24 46.804688 C 24 37.496094 31.496094 30 40.804688 30 L 343.195312 30 C 352.503906 30 360 37.496094 360 46.804688 L 360 40.804688 C 360 31.496094 352.503906 24 343.195312 24 Z M 40.804688 24"/> </g> </defs> <g> <use mask="url(#mask0)" xlink:href="#surface5"/> <path style="fill:rgb(21.176%,48.235%,94.117%)" d="M 24 96 L 24 343.195312 C 24 352.503906 31.496094 360 40.804688 360 L 343.195312 360 C 352.503906 360 360 352.503906 360 343.195312 L 360 96 Z M 24 96"/> <use mask="url(#mask1)" xlink:href="#surface8"/> <path style="fill:rgb(100.000%,100.000%,100.000%)" d="M 360 96 L 360 40.800781 C 360 31.492188 352.507812 24 343.199219 24 L 40.800781 24 C 31.492188 24 24 31.492188 24 40.800781 L 24 96 Z M 360 96"/> <use mask="url(#mask3)" xlink:href="#surface14"/> </g> <g transform="translate(-8.135595,-435.8644)"> <path d="m 122.09263,689.09097 c 0,21.56249 17.38281,38.83202 39.08594,38.83202 21.36719,0 38.91797,-17.26952 38.91797,-38.83202 0,-15.32812 -9.32813,-28.97656 -22.8086,-34.95312 8.56641,-4.97266 14.5,-13.64844 14.5,-24.59766 0,-16.59375 -13.73437,-29.73437 -30.4375,-29.73437 -16.70312,0 -30.35547,13.14062 -30.35547,29.73437 h 7.54688 c 0,-12.21484 10.08984,-22.23828 22.80859,-22.23828 12.71485,0 22.80469,10.02344 22.80469,22.23828 0,12.63672 -10.51172,20.97266 -22.80469,20.97266 v 7.58203 c 17.21094,0 31.28516,14.0664 31.28516,30.99609 0,17.1836 -14.07422,31.33594 -31.28516,31.33594 -17.29687,0 -31.28906,-14.15234 -31.28906,-31.33594 z m 0,0" style="fill:rgb(90.196%,90.196%,90.196%)"/> <path d="m 252.54575,726.65738 h 7.63281 V 600.90347 l -25.51952,15.07422 3.8125,6.65625 13.73827,-8.17187 z m 0,0" style="fill:rgb(90.196%,90.196%,90.196%)"/> </g> </svg>
