<svg xmlns="http://www.w3.org/2000/svg" width="384pt" height="384pt" version="1.1" viewBox="0 0 384 384"> <g> <path style="fill-rule:evenodd;fill:rgb(4.705%,63.137%,36.862%);stroke-width:19.392349;stroke-linejoin:round;stroke:rgb(100.000%,100.000%,100.000%)" d="M 50.65625 -368.828125 L 461.354167 -368.828125 C 472.375 -368.828125 481.307292 -359.895833 481.307292 -348.875 L 481.307292 -35.119792 C 481.307292 -24.098958 472.375 -15.161458 461.354167 -15.161458 L 50.65625 -15.161458 C 39.635417 -15.161458 30.697917 -24.098958 30.697917 -35.119792 L 30.697917 -348.875 C 30.697917 -359.895833 39.635417 -368.828125 50.65625 -368.828125 Z M 50.65625 -368.828125" transform="matrix(0.75,0,0,0.75,0,336)"/> <path style="fill:rgb(100.000%,100.000%,100.000%)" d="M 82.597656 172.589844 L 78.808594 172.589844 L 78.769531 161.1875 C 76.121094 161.136719 73.46875 160.832031 70.816406 160.277344 C 68.164062 159.699219 65.5 158.839844 62.824219 157.703125 L 62.824219 150.886719 C 65.402344 152.5 68 153.726562 70.628906 154.558594 C 73.277344 155.367188 76.003906 155.785156 78.808594 155.808594 L 78.808594 138.539062 C 73.226562 137.628906 69.164062 136.089844 66.613281 133.917969 C 64.085938 131.746094 62.824219 128.765625 62.824219 124.976562 C 62.824219 120.863281 64.199219 117.617188 66.953125 115.246094 C 69.707031 112.871094 73.65625 111.507812 78.808594 111.152344 L 78.808594 102.253906 L 82.597656 102.253906 L 82.597656 111.039062 C 84.945312 111.140625 87.21875 111.394531 89.414062 111.796875 C 91.609375 112.175781 93.757812 112.707031 95.851562 113.386719 L 95.851562 120.015625 C 93.757812 118.957031 91.597656 118.136719 89.375 117.554688 C 87.179688 116.972656 84.917969 116.632812 82.597656 116.53125 L 82.597656 132.703125 C 88.328125 133.589844 92.542969 135.167969 95.246094 137.4375 C 97.949219 139.710938 99.300781 142.816406 99.300781 146.757812 C 99.300781 151.023438 97.859375 154.394531 94.980469 156.871094 C 92.128906 159.320312 88 160.734375 82.597656 161.113281 Z M 78.808594 132.023438 L 78.808594 116.496094 C 75.878906 116.824219 73.644531 117.65625 72.105469 118.992188 C 70.5625 120.332031 69.792969 122.113281 69.792969 124.335938 C 69.792969 126.507812 70.5 128.199219 71.914062 129.410156 C 73.355469 130.621094 75.652344 131.492188 78.808594 132.023438 Z M 82.597656 139.296875 L 82.597656 155.695312 C 85.804688 155.265625 88.214844 154.355469 89.832031 152.96875 C 91.472656 151.578125 92.292969 149.75 92.292969 147.476562 C 92.292969 145.253906 91.507812 143.488281 89.945312 142.175781 C 88.402344 140.859375 85.953125 139.902344 82.597656 139.296875 Z M 82.597656 139.296875"/> <path style="fill:rgb(100.000%,100.000%,100.000%)" d="M 145.316406 174.066406 L 145.316406 179.480469 L 105.019531 179.480469 L 105.019531 174.066406 Z M 145.316406 174.066406"/> </g> </svg>
