<svg xmlns="http://www.w3.org/2000/svg" xmlns:xlink="http://www.w3.org/1999/xlink" width="384pt" height="384pt" version="1.1" viewBox="0 0 384 384">
 <defs>
  <filter id="alpha" width="100%" height="100%" x="0%" y="0%" filterUnits="objectBoundingBox">
   <feColorMatrix in="SourceGraphic" type="matrix" values="0 0 0 0 1 0 0 0 0 1 0 0 0 0 1 0 0 0 1 0"/>
  </filter>
  <mask id="mask0">
   <g filter="url(#alpha)">
    <rect width="384" height="384" x="0" y="0" style="fill:rgb(0%,0%,0%);fill-opacity:0.2"/>
   </g>
  </mask>
  <clipPath id="clip1">
   <rect width="384" height="384" x="0" y="0"/>
  </clipPath>
  <g id="surface5" clip-path="url(#clip1)">
   <path style="fill:rgb(0%,0%,0%)" d="M 24 336 L 24 348 C 24 357.972656 32.027344 366 42 366 L 342 366 C 351.972656 366 360 357.972656 360 348 L 360 336 C 360 345.972656 351.972656 354 342 354 L 42 354 C 32.027344 354 24 345.972656 24 336 Z M 24 336"/>
  </g>
  <mask id="mask1">
   <g filter="url(#alpha)">
    <rect width="384" height="384" x="0" y="0" style="fill:rgb(0%,0%,0%);fill-opacity:0.101961"/>
   </g>
  </mask>
  <clipPath id="clip2">
   <rect width="384" height="384" x="0" y="0"/>
  </clipPath>
  <g id="surface8" clip-path="url(#clip2)">
   <path style="fill:rgb(100%,100%,100%)" d="M 42 24 C 32.027344 24 24 32.027344 24 42 L 24 48 C 24 38.027344 32.027344 30 42 30 L 342 30 C 351.972656 30 360 38.027344 360 48 L 360 42 C 360 32.027344 351.972656 24 342 24 Z M 42 24"/>
  </g>
 </defs>
 <g>
  <use mask="url(#mask0)" xlink:href="#surface5"/>
  <path style="fill:rgb(71.764706%,76.470588%,80.392157%)" d="M 360 342 L 360 42 C 360 32.058594 351.941406 24 342 24 L 42 24 C 32.058594 24 24 32.058594 24 42 L 24 342 C 24 351.941406 32.058594 360 42 360 L 342 360 C 351.941406 360 360 351.941406 360 342 Z M 360 342"/>
  <use mask="url(#mask1)" xlink:href="#surface8"/>
  <path style="fill:rgb(29.803922%,29.803922%,29.803922%)" d="M 96 234 C 96 243.941406 87.941406 252 78 252 C 68.058594 252 60 243.941406 60 234 C 60 224.058594 68.058594 216 78 216 C 87.941406 216 96 224.058594 96 234 Z M 96 234"/>
  <path style="fill:rgb(29.803922%,29.803922%,29.803922%)" d="M 204 234 C 204 243.941406 195.941406 252 186 252 C 176.058594 252 168 243.941406 168 234 C 168 224.058594 176.058594 216 186 216 C 195.941406 216 204 224.058594 204 234 Z M 204 234"/>
  <path style="fill:rgb(29.803922%,29.803922%,29.803922%)" d="M 204 162 C 204 171.941406 195.941406 180 186 180 C 176.058594 180 168 171.941406 168 162 C 168 152.058594 176.058594 144 186 144 C 195.941406 144 204 152.058594 204 162 Z M 204 162"/>
  <path style="fill:rgb(29.803922%,29.803922%,29.803922%)" d="M 324 162 C 324 171.941406 315.941406 180 306 180 C 296.058594 180 288 171.941406 288 162 C 288 152.058594 296.058594 144 306 144 C 315.941406 144 324 152.058594 324 162 Z M 324 162"/>
  <path style="fill:rgb(29.803922%,29.803922%,29.803922%)" d="M 180 156 L 180 228 L 72 228 L 72 240 L 192 240 L 192 168 L 312 168 L 312 156 Z M 180 156"/>
 </g>
</svg>
