<svg xmlns="http://www.w3.org/2000/svg" xmlns:xlink="http://www.w3.org/1999/xlink" width="512" height="512" version="1.1" viewBox="0 0 384 384"> <defs> <filter id="alpha" width="100%" height="100%" x="0%" y="0%" filterUnits="objectBoundingBox"> <feColorMatrix in="SourceGraphic" type="matrix" values="0 0 0 0 1 0 0 0 0 1 0 0 0 0 1 0 0 0 1 0"/> </filter> <mask id="mask0"> <g filter="url(#alpha)"> <rect width="384" height="384" x="0" y="0" style="fill:rgb(0%,0%,0%);fill-opacity:0.2"/> </g> </mask> <clipPath id="clip1"> <rect width="384" height="384" x="0" y="0"/> </clipPath> <g id="surface5" clip-path="url(#clip1)"> <path style="fill:rgb(0%,0%,0%)" d="M 24.304688 192.003906 C 24.234375 194.007812 24 195.976562 24 198.003906 C 24 291.074219 98.925781 366 191.996094 366 C 285.066406 366 359.992188 291.074219 359.992188 198.003906 C 359.992188 195.980469 359.757812 194.011719 359.6875 192.003906 C 356.519531 282.253906 283.03125 354 191.992188 354 C 100.945312 354 27.464844 282.253906 24.296875 192.003906 Z M 24.304688 192.003906"/> </g> <mask id="mask1"> <g filter="url(#alpha)"> <rect width="384" height="384" x="0" y="0" style="fill:rgb(0%,0%,0%);fill-opacity:0.101961"/> </g> </mask> <clipPath id="clip2"> <rect width="384" height="384" x="0" y="0"/> </clipPath> <g id="surface8" clip-path="url(#clip2)"> <path style="fill:rgb(100.000%,100.000%,100.000%)" d="M 192 24.011719 C 98.929688 24.011719 24 98.929688 24 192 C 24 192.679688 24.066406 193.34375 24.105469 194.015625 C 26.214844 102.808594 100.265625 30 192 30 C 283.734375 30 357.785156 102.808594 359.894531 194.015625 C 359.933594 193.34375 360 192.679688 360 192 C 360 98.929688 285.070312 24.011719 192 24.011719 Z M 192 24.011719"/> </g> </defs> <g> <use mask="url(#mask0)" xlink:href="#surface5"/> <path style="fill:rgb(74.117%,59.215%,46.666%)" d="M 360 192.007812 C 360 99.226562 284.785156 24.011719 192.007812 24.011719 C 99.226562 24.011719 24.011719 99.226562 24.011719 192.007812 C 24.011719 284.785156 99.226562 360 192.007812 360 C 284.785156 360 360 284.785156 360 192.007812 Z M 360 192.007812"/> <use mask="url(#mask1)" xlink:href="#surface8"/> <path style="fill:rgb(29.803%,29.803%,29.803%)" d="M 155.996094 132.007812 C 155.996094 145.261719 145.25 156.007812 131.996094 156.007812 C 118.742188 156.007812 108 145.261719 108 132.007812 C 108 118.753906 118.742188 108.011719 131.996094 108.011719 C 145.25 108.011719 155.996094 118.753906 155.996094 132.007812 Z M 155.996094 132.007812"/> <path style="fill:rgb(29.803%,29.803%,29.803%)" d="M 275.992188 132.007812 C 275.992188 145.261719 265.25 156.007812 251.996094 156.007812 C 238.742188 156.007812 227.996094 145.261719 227.996094 132.007812 C 227.996094 118.753906 238.742188 108.011719 251.996094 108.011719 C 265.25 108.011719 275.992188 118.753906 275.992188 132.007812 Z M 275.992188 132.007812"/> <path style="fill:rgb(29.803%,29.803%,29.803%)" d="M 128.082031 231.679688 C 141.269531 259.085938 165.628906 275.976562 192 276.003906 C 218.351562 275.953125 242.683594 259.066406 255.859375 231.679688 L 246.886719 231.679688 C 232.910156 250.425781 212.960938 261.167969 192 261.230469 C 171.03125 261.179688 151.066406 250.4375 137.085938 231.679688 Z M 128.082031 231.679688"/> <path style="fill:rgb(29.803%,29.803%,29.803%)" d="M 191.996094 168.003906 C 165.484375 168.003906 143.996094 184.125 143.996094 204.003906 C 143.996094 223.886719 165.484375 240.003906 191.996094 240.003906 C 218.503906 240.003906 239.992188 223.886719 239.992188 204.003906 C 239.992188 184.125 218.503906 168.003906 191.996094 168.003906 Z M 167.996094 192.003906 C 174.625 192.003906 179.996094 197.378906 179.996094 204.003906 C 179.996094 210.632812 174.625 216.003906 167.996094 216.003906 C 161.367188 216.003906 155.996094 210.632812 155.996094 204.003906 C 155.996094 197.378906 161.367188 192.003906 167.996094 192.003906 Z M 215.996094 192.003906 C 222.621094 192.003906 227.996094 197.378906 227.996094 204.003906 C 227.996094 210.632812 222.621094 216.003906 215.996094 216.003906 C 209.367188 216.003906 203.996094 210.632812 203.996094 204.003906 C 203.996094 197.378906 209.367188 192.003906 215.996094 192.003906 Z M 215.996094 192.003906"/> </g> </svg>
