<svg xmlns="http://www.w3.org/2000/svg" width="384pt" height="384pt" version="1.1" viewBox="0 0 384 384"> <g> <path style="fill-rule:evenodd;fill:rgb(79.215%,16.470%,16.470%)" d="M 371.859375 190.601562 C 371.859375 289.8125 291.433594 370.242188 192.21875 370.242188 C 93.011719 370.242188 12.582031 289.816406 12.582031 190.601562 C 12.582031 91.394531 93.007812 10.964844 192.21875 10.964844 C 291.429688 10.964844 371.859375 91.390625 371.859375 190.601562"/> <path style="fill:rgb(100.000%,100.000%,100.000%)" d="M 159.136719 77.777344 C 158.105469 77.777344 117.585938 101.8125 116.015625 103.367188 C 115.175781 104.199219 115.359375 104.835938 117.296875 108.027344 C 138.703125 143.277344 152.957031 167.617188 152.46875 168.046875 C 152.132812 168.347656 139.234375 168.199219 123.8125 167.71875 C 108.394531 167.242188 92.210938 166.808594 87.851562 166.777344 L 79.925781 166.777344 L 79.539062 192.519531 C 79.300781 207.644531 79.390625 218.515625 79.753906 218.894531 C 80.339844 219.515625 125.328125 218.5 143.816406 217.449219 C 150.1875 217.09375 151.554688 217.195312 151.871094 218.035156 C 152.089844 218.617188 149.199219 224.15625 145.160156 230.90625 C 141.257812 237.425781 132.910156 251.378906 126.613281 261.898438 C 120.316406 272.425781 115.308594 281.410156 115.480469 281.863281 C 115.925781 283.039062 157.003906 307.121094 158.644531 307.167969 C 159.910156 307.167969 169.273438 290.207031 190.652344 249.074219 C 192.253906 245.992188 194.019531 243.46875 194.5625 243.46875 C 195.171875 243.46875 201.46875 254.765625 210.78125 272.539062 C 230.03125 309.273438 229.5 308.261719 229.863281 308.261719 C 230.035156 308.261719 234.550781 305.621094 239.90625 302.417969 C 245.261719 299.214844 255.089844 293.363281 261.765625 289.394531 C 268.441406 285.425781 273.902344 281.882812 273.902344 281.535156 C 273.902344 281.183594 267.542969 270.273438 259.757812 257.28125 C 251.972656 244.289062 243.535156 230.195312 240.996094 225.957031 C 238.402344 221.628906 236.625 217.980469 236.957031 217.640625 C 237.289062 217.296875 253.054688 217.492188 273.003906 218.074219 C 292.5 218.660156 308.714844 218.90625 309.03125 218.597656 C 309.804688 217.859375 310.265625 166.898438 309.503906 166.414062 C 309.175781 166.207031 294.332031 166.511719 276.53125 167.097656 C 237.847656 168.351562 236.980469 168.363281 236.980469 167.425781 C 236.980469 167.023438 243.195312 156.386719 250.78125 143.785156 C 273.433594 106.167969 274.5625 104.230469 274.246094 103.707031 C 274.078125 103.421875 270.164062 101.003906 265.546875 98.300781 C 260.933594 95.59375 251.257812 89.867188 244.03125 85.582031 C 236.804688 81.300781 230.605469 77.8125 230.25 77.8125 C 229.671875 77.8125 215.882812 103.289062 200.996094 131.902344 C 197.472656 138.667969 195.28125 142.171875 194.628906 142.058594 C 194.082031 141.960938 186.082031 127.476562 176.851562 109.859375 C 167.292969 91.613281 159.671875 77.816406 159.136719 77.8125 Z M 159.136719 77.777344"/> </g> </svg>
