<svg xmlns="http://www.w3.org/2000/svg" xmlns:xlink="http://www.w3.org/1999/xlink" width="384pt" height="384pt" version="1.1" viewBox="0 0 384 384">
 <defs>
  <filter id="alpha" width="100%" height="100%" x="0%" y="0%" filterUnits="objectBoundingBox">
   <feColorMatrix in="SourceGraphic" type="matrix" values="0 0 0 0 1 0 0 0 0 1 0 0 0 0 1 0 0 0 1 0"/>
  </filter>
  <mask id="mask0">
   <g filter="url(#alpha)">
    <rect width="384" height="384" x="0" y="0" style="fill:rgb(0%,0%,0%);fill-opacity:0.2"/>
   </g>
  </mask>
  <clipPath id="clip1">
   <rect width="384" height="384" x="0" y="0"/>
  </clipPath>
  <g id="surface5" clip-path="url(#clip1)">
   <path style="fill:rgb(0%,0%,0%)" d="M 360 198 C 360 290.78125 284.785156 366 192 366 C 99.214844 366 24 290.78125 24 198 C 24 105.214844 99.214844 30 192 30 C 284.785156 30 360 105.214844 360 198 Z M 360 198"/>
  </g>
  <mask id="mask1">
   <g filter="url(#alpha)">
    <rect width="384" height="384" x="0" y="0" style="fill:rgb(0%,0%,0%);fill-opacity:0.2"/>
   </g>
  </mask>
  <clipPath id="clip2">
   <rect width="384" height="384" x="0" y="0"/>
  </clipPath>
  <g id="surface8" clip-path="url(#clip2)">
   <path style="fill:rgb(0%,0%,0%)" d="M 279.140625 72.023438 C 269.070312 72.023438 259.410156 74.671875 250.148438 79.992188 C 241.085938 85.109375 232.515625 92.578125 224.460938 102.398438 C 216.605469 112.015625 209.460938 123.878906 203.015625 138 C 196.570312 151.914062 191.054688 167.675781 186.421875 185.273438 C 183.199219 197.757812 179.964844 208.296875 176.742188 216.890625 C 173.519531 225.484375 170.203125 232.628906 166.78125 238.359375 C 159.332031 235.496094 151.976562 226.863281 144.726562 225.023438 C 137.679688 222.976562 130.425781 221.953125 122.976562 221.953125 C 117.136719 221.953125 111.800781 222.878906 106.96875 224.71875 C 102.335938 226.558594 98.320312 228.808594 94.898438 231.46875 C 91.476562 234.128906 88.757812 236.976562 86.742188 240.046875 C 84.929688 243.136719 84 252.316406 84 254.976562 C 84 259.273438 86.019531 262.847656 90.046875 265.710938 C 94.074219 268.578125 100.132812 270 108.1875 270 C 129.535156 270 147.558594 264.382812 162.257812 253.125 C 171.519531 257.222656 180.972656 261.089844 190.640625 264.773438 C 200.507812 268.253906 211.382812 270 223.265625 270 C 236.757812 270 247.53125 267.152344 255.585938 261.421875 C 263.640625 255.488281 268.261719 247.910156 273.09375 236.859375 C 273.296875 235.625 273.03125 234.804688 272.226562 234.398438 C 271.621094 233.785156 270.898438 233.785156 270.09375 234.398438 C 266.671875 241.355469 264.148438 245.761719 258.914062 249.445312 C 253.679688 253.125 246.015625 254.976562 235.945312 254.976562 C 223.863281 254.976562 212.804688 253.628906 202.734375 250.96875 C 192.867188 248.105469 183.390625 244.929688 174.328125 241.453125 C 186.8125 226.515625 196.601562 205.335938 203.648438 177.914062 C 207.878906 160.722656 211.996094 146.410156 216.023438 134.953125 C 220.050781 123.496094 224.375 114.402344 229.007812 107.648438 C 233.640625 100.691406 238.6875 96.761719 244.125 94.101562 C 249.761719 91.234375 256.394531 89.835938 264.046875 89.835938 C 269.683594 89.835938 274.296875 90.867188 277.921875 92.90625 C 281.746094 94.746094 284.570312 97.195312 286.382812 100.265625 C 288.195312 103.335938 289.226562 105.820312 289.429688 109.5 C 289.632812 113.183594 289.113281 120.441406 287.90625 124.125 C 287.703125 125.15625 287.992188 125.875 288.796875 126.28125 C 289.804688 126.699219 290.734375 126.605469 291.539062 125.980469 C 293.554688 122.503906 295.445312 114.496094 297.257812 109.175781 C 299.070312 103.644531 300 98.804688 300 94.710938 C 300 88.367188 298.0625 83.070312 294.234375 78.773438 C 290.40625 74.269531 285.382812 72.023438 279.140625 72.023438 Z M 109.6875 232.101562 C 118.347656 232.101562 126.503906 233.304688 134.15625 235.757812 C 141.808594 238.214844 149.371094 247.414062 156.820312 250.6875 C 152.1875 255.191406 146.933594 258.238281 141.09375 259.875 C 135.457031 261.304688 129.03125 262.03125 121.78125 262.03125 C 113.523438 262.03125 107.054688 260.707031 102.421875 258.046875 C 97.992188 255.386719 95.789062 245.710938 95.789062 241.617188 C 95.789062 235.277344 100.425781 232.101562 109.6875 232.101562 Z M 138 282 C 128.058594 282 120 290.058594 120 300 C 120 309.941406 128.058594 318 138 318 C 147.941406 318 156 309.941406 156 300 C 156 290.058594 147.941406 282 138 282 Z M 234 282 C 224.058594 282 216 290.058594 216 300 C 216 309.941406 224.058594 318 234 318 C 243.941406 318 252 309.941406 252 300 C 252 290.058594 243.941406 282 234 282 Z M 186 306 C 176.058594 306 168 314.058594 168 324 C 168 333.941406 176.058594 342 186 342 C 195.941406 342 204 333.941406 204 324 C 204 314.058594 195.941406 306 186 306 Z M 186 306"/>
  </g>
  <mask id="mask2">
   <g filter="url(#alpha)">
    <rect width="384" height="384" x="0" y="0" style="fill:rgb(0%,0%,0%);fill-opacity:0.2"/>
   </g>
  </mask>
  <clipPath id="clip3">
   <rect width="384" height="384" x="0" y="0"/>
  </clipPath>
  <g id="surface11" clip-path="url(#clip3)">
   <path style="fill:rgb(100%,100%,100%)" d="M 192 24 C 99.214844 24 24 99.214844 24 192 C 24.027344 192.984375 24.0625 193.96875 24.105469 194.953125 C 25.765625 103.402344 100.433594 30.042969 192 30 C 283.546875 30.066406 358.1875 103.421875 359.847656 194.953125 C 359.90625 193.96875 359.957031 192.984375 360 192 C 360 99.214844 284.785156 24 192 24 Z M 192 24"/>
  </g>
 </defs>
 <g>
  <use mask="url(#mask0)" xlink:href="#surface5"/>
  <path style="fill:rgb(82.352941%,63.921569%,36.078431%)" d="M 360 192 C 360 284.78125 284.785156 360 192 360 C 99.214844 360 24 284.78125 24 192 C 24 99.214844 99.214844 24 192 24 C 284.785156 24 360 99.214844 360 192 Z M 360 192"/>
  <use mask="url(#mask1)" xlink:href="#surface8"/>
  <path style="fill:rgb(100%,100%,100%)" d="M 279.140625 66.023438 C 269.070312 66.023438 259.410156 68.671875 250.148438 73.992188 C 241.085938 79.109375 232.515625 86.578125 224.460938 96.398438 C 216.605469 106.015625 209.460938 117.878906 203.015625 132 C 196.570312 145.914062 191.054688 161.675781 186.421875 179.273438 C 183.199219 191.757812 179.964844 202.296875 176.742188 210.890625 C 173.519531 219.484375 170.203125 226.628906 166.78125 232.359375 C 159.332031 229.496094 151.976562 220.863281 144.726562 219.023438 C 137.679688 216.976562 130.425781 215.953125 122.976562 215.953125 C 117.136719 215.953125 111.800781 216.878906 106.96875 218.71875 C 102.335938 220.558594 98.320312 222.808594 94.898438 225.46875 C 91.476562 228.128906 88.757812 230.976562 86.742188 234.046875 C 84.929688 237.136719 84 246.316406 84 248.976562 C 84 253.273438 86.019531 256.847656 90.046875 259.710938 C 94.074219 262.578125 100.132812 264 108.1875 264 C 129.535156 264 147.558594 258.382812 162.257812 247.125 C 171.519531 251.222656 180.972656 255.089844 190.640625 258.773438 C 200.507812 262.253906 211.382812 264 223.265625 264 C 236.757812 264 247.53125 261.152344 255.585938 255.421875 C 263.640625 249.488281 268.261719 241.910156 273.09375 230.859375 C 273.296875 229.625 273.03125 228.804688 272.226562 228.398438 C 271.621094 227.785156 270.898438 227.785156 270.09375 228.398438 C 266.671875 235.355469 264.148438 239.761719 258.914062 243.445312 C 253.679688 247.125 246.015625 248.976562 235.945312 248.976562 C 223.863281 248.976562 212.804688 247.628906 202.734375 244.96875 C 192.867188 242.105469 183.390625 238.929688 174.328125 235.453125 C 186.8125 220.515625 196.601562 199.335938 203.648438 171.914062 C 207.878906 154.722656 211.996094 140.410156 216.023438 128.953125 C 220.050781 117.496094 224.375 108.402344 229.007812 101.648438 C 233.640625 94.691406 238.6875 90.761719 244.125 88.101562 C 249.761719 85.234375 256.394531 83.835938 264.046875 83.835938 C 269.683594 83.835938 274.296875 84.867188 277.921875 86.90625 C 281.746094 88.746094 284.570312 91.195312 286.382812 94.265625 C 288.195312 97.335938 289.226562 99.820312 289.429688 103.5 C 289.632812 107.183594 289.113281 114.441406 287.90625 118.125 C 287.703125 119.15625 287.992188 119.875 288.796875 120.28125 C 289.804688 120.699219 290.734375 120.605469 291.539062 119.980469 C 293.554688 116.503906 295.445312 108.496094 297.257812 103.175781 C 299.070312 97.644531 300 92.804688 300 88.710938 C 300 82.367188 298.0625 77.070312 294.234375 72.773438 C 290.40625 68.269531 285.382812 66.023438 279.140625 66.023438 Z M 109.6875 226.101562 C 118.347656 226.101562 126.503906 227.304688 134.15625 229.757812 C 141.808594 232.214844 149.371094 241.414062 156.820312 244.6875 C 152.1875 249.191406 146.933594 252.238281 141.09375 253.875 C 135.457031 255.304688 129.03125 256.03125 121.78125 256.03125 C 113.523438 256.03125 107.054688 254.707031 102.421875 252.046875 C 97.992188 249.386719 95.789062 239.710938 95.789062 235.617188 C 95.789062 229.277344 100.425781 226.101562 109.6875 226.101562 Z M 138 276 C 128.058594 276 120 284.058594 120 294 C 120 303.941406 128.058594 312 138 312 C 147.941406 312 156 303.941406 156 294 C 156 284.058594 147.941406 276 138 276 Z M 234 276 C 224.058594 276 216 284.058594 216 294 C 216 303.941406 224.058594 312 234 312 C 243.941406 312 252 303.941406 252 294 C 252 284.058594 243.941406 276 234 276 Z M 186 300 C 176.058594 300 168 308.058594 168 318 C 168 327.941406 176.058594 336 186 336 C 195.941406 336 204 327.941406 204 318 C 204 308.058594 195.941406 300 186 300 Z M 186 300"/>
  <use mask="url(#mask2)" xlink:href="#surface11"/>
 </g>
</svg>
