<svg width="512" height="512" version="1.1" viewBox="0 0 384 384" xmlns="http://www.w3.org/2000/svg"><defs><linearGradient id="a" x1="235.09" x2="720.48" y1="289.08" y2="-306.19" gradientTransform="matrix(.75 0 0 .75 -.000383 -5e-5)" gradientUnits="userSpaceOnUse"><stop stop-color="#f7dd67" offset="0"/><stop stop-color="#ffc62f" offset="1"/></linearGradient><clipPath><rect width="384" height="384"/></clipPath></defs><path d="m245.64 30.664-0.20703 0.95313v8e-3l-0.0156 0.0625c-0.0898 0.41015-0.082 0.82812 0.0312 1.2695 0.0352 0.21875 0.082 0.42578 0.14454 0.59766 0.0195 0.0469 0.0898 0.14843 0.1875 0.27343 0.0117 0.0234 0.0195 0.043 0.0312 0.0664 0.33984 0.65235 5.8516 6.4648 12.246 12.91 6.3945 6.4492 17.441 17.625 24.555 24.836 7.1094 7.2109 18.484 18.746 25.273 25.629 6.7891 6.8867 12.688 12.973 13.102 13.531 0.0859 0.11719 0.1914 0.23047 0.30078 0.33985 0.33594 0.35156 0.68358 0.59765 1.1055 0.77733 0.20312 0.0977 0.41015 0.1797 0.61718 0.23048 1.2148 0.32422 2.0977 0.42969 2.7656 0.32422 0.0703-8e-3 0.14063-0.0195 0.20313-0.0352 0.10157-0.0234 0.19922-0.0508 0.28907-0.0859 0.0273-8e-3 0.0469-0.0312 0.0703-0.0547 0.0195-0.0117 0.043-0.0195 0.0625-0.0312 0.15625-0.0977 0.25-1.1406 0.30469-3.8047 8e-3 -0.33985 0.0156-0.76563 0.0195-1.168 4e-3 -0.15625 8e-3 -0.29687 8e-3 -0.46484 0.0547-3.6016 0.0664-9.4375 0.0625-19.328-4e-3 -14.586-0.14453-25.613-0.34375-27.012-0.0664-0.46093-0.14062-0.91406-0.22266-1.3672-0.0937-0.70313-0.20703-1.2383-0.35156-1.832-0.0508-0.21093-0.125-0.46093-0.1875-0.69921-0.34765-1.3945-0.76953-2.7461-1.2617-4.0547-0.0859-0.23438-0.17578-0.49219-0.2539-0.69531-0.25391-0.66016-0.56641-1.3438-0.92188-2.0391-3.2968-6.8282-8.7734-12.215-16.141-15.762-3-1.4414-4.9844-2.2656-8.8672-2.7383-0.4375-0.0547-0.89844-0.10547-1.418-0.15234h-0.0273c-0.0664-8e-3 -0.14453-0.0117-0.21094-0.0195-0.37109-0.0312-0.76172-0.0586-1.1836-0.0859-4.9531-0.33984-12.539-0.37109-25.949-0.375h-23.816z" opacity=".3"/><path d="m81.476 360.27c-2.4726-0.66407-7.4961-3.0586-10.152-4.8438-5.2031-3.4922-10.277-9.9766-12.734-16.273l-1.207-3.0898-0.09375-143.05-0.08984-143.05 0.88672-2.8633c2.8164-9.1016 9.1836-16.453 17.828-20.586 6.0742-2.9023 0.32032-2.668 65.426-2.6602l57.914 4e-3 25.613 25.75c14.086 14.164 37.781 37.977 52.656 52.914 14.875 14.941 27.043 27.246 27.043 27.344 0 0.0977 4.625 4.7969 10.277 10.449l10.277 10.27 0.0781 41.352c0.0391 22.742 0.0781 65.008 0.082 93.922l0.0117 52.574-1.5703 3.2578c-1.9844 4.1367-3.168 5.8398-6.332 9.1562-4.1172 4.3086-8.3516 6.9375-14.488 8.9922l-2.9844 1.0039-108.29-0.0312c-94.418-0.0274-108.53-0.0937-110.15-0.53125z" fill="url(#a)"/><path d="m245.64 23.164-0.20703 0.95313v8e-3l-0.0156 0.0625c-0.0898 0.41015-0.082 0.82812 0.0312 1.2695 0.0352 0.21875 0.082 0.42578 0.14454 0.59766 0.0195 0.0469 0.0898 0.14843 0.1875 0.27343 0.0117 0.0234 0.0195 0.043 0.0312 0.0664 0.33984 0.65235 5.8516 6.4648 12.246 12.91 6.3945 6.4492 17.441 17.625 24.555 24.836 7.1094 7.2109 18.484 18.746 25.273 25.629 6.7891 6.8867 12.688 12.973 13.102 13.531 0.0859 0.11719 0.1914 0.23047 0.30078 0.33985 0.33594 0.35156 0.68359 0.59765 1.1055 0.77734 0.20312 0.0977 0.41015 0.17969 0.61718 0.23047 1.2148 0.32422 2.0977 0.42969 2.7656 0.32422 0.0703-8e-3 0.14062-0.0195 0.20312-0.0352 0.10157-0.0234 0.19922-0.0508 0.28907-0.0859 0.0273-8e-3 0.0469-0.0312 0.0703-0.0547 0.0195-0.0117 0.043-0.0195 0.0625-0.0312 0.15625-0.0977 0.25-1.1406 0.30469-3.8047 8e-3 -0.33985 0.0156-0.76563 0.0195-1.168 4e-3 -0.15625 8e-3 -0.29687 8e-3 -0.46484 0.0547-3.6016 0.0664-9.4375 0.0625-19.328-4e-3 -14.586-0.14453-25.613-0.34375-27.012-0.0664-0.46093-0.14062-0.91406-0.22266-1.3672-0.0937-0.70313-0.20703-1.2383-0.35156-1.832-0.0508-0.21093-0.125-0.46093-0.1875-0.69921-0.34765-1.3945-0.76953-2.7461-1.2617-4.0547-0.0859-0.23438-0.17578-0.49219-0.2539-0.69531-0.25391-0.66016-0.56641-1.3438-0.92188-2.0391-3.2969-6.8281-8.7734-12.215-16.141-15.762-3-1.4414-4.9844-2.2656-8.8672-2.7383-0.4375-0.0547-0.89844-0.10547-1.418-0.15234h-0.0273c-0.0664-8e-3 -0.14453-0.0117-0.21094-0.0195-0.37109-0.0312-0.76172-0.0586-1.1836-0.0859-4.9531-0.33984-12.539-0.37109-25.949-0.375h-23.816z" fill="#ffc72e"/><path d="m91.535 58.383c-0.3086 0-0.61719 0.0117-0.92578 0.0352h-0.35157l-0.0352 0.0469c-6.6172 0.6836-11.652 6.3477-11.66 13.113 8e-3 0.53516 0.043 1.0742 0.11328 1.6055l-0.0703 0.0898 0.0781 127.29 0.0742 125.86c-0.0625 0.51171-0.0937 1.0274-0.0977 1.5391 4e-3 6.8398 5.1445 12.543 11.844 13.137l0.0117 8e-3 0.16016 4e-3c0.32031 0.0274 0.63672 0.043 0.95703 0.0469 0.32812 0 0.65234-0.0156 0.97656-0.0391l98.953 0.43359 97.586 0.0273c0.54687 0.0742 1.0976 0.11329 1.6484 0.11719 6.5977-4e-3 12.141-5.0391 12.883-11.707l0.19921-0.16406-4e-3 -51.254c-8e-3 -24.293-0.0391-59.809-0.0742-78.922l-0.0625-34.746-8.6367-8.6289c-4.75-4.75-8.6367-8.6992-8.6367-8.7813 0-0.082-10.227-10.422-22.723-22.977-12.5-12.555-32.41-32.563-44.246-44.461l-21.519-21.637h-105.77c-0.22266-0.0195-0.44922-0.0312-0.67188-0.0352z" fill="#020202" opacity=".3"/><path d="m91.535 50.883c-0.3086 0-0.61719 0.0117-0.92578 0.0352h-0.35157l-0.0352 0.0469c-6.6172 0.6836-11.652 6.3477-11.66 13.113 8e-3 0.53516 0.043 1.0742 0.11328 1.6055l-0.0703 0.0898 0.0781 127.29 0.0742 125.86c-0.0625 0.51172-0.0937 1.0274-0.0977 1.5391 4e-3 6.8398 5.1445 12.543 11.844 13.137l0.0117 8e-3 0.16016 4e-3c0.32031 0.0274 0.63672 0.043 0.95703 0.0469 0.32812 0 0.65234-0.0156 0.97656-0.0391l98.953 0.43359 97.586 0.0273c0.54687 0.0742 1.0976 0.11329 1.6484 0.11719 6.5977-4e-3 12.141-5.0391 12.883-11.707l0.19922-0.16406-4e-3 -51.254c-8e-3 -24.293-0.0391-59.809-0.0742-78.922l-0.0625-34.746-8.6367-8.6289c-4.75-4.75-8.6367-8.6992-8.6367-8.7812 0-0.082-10.227-10.422-22.723-22.977-12.5-12.555-32.41-32.563-44.246-44.461l-21.519-21.637h-105.77c-0.22266-0.0195-0.44922-0.0312-0.67188-0.0352z" fill="#fff"/><path d="m202.68 145.72c-0.50782 0-5.2378 0.77051-10.507 1.708-5.2734 0.9414-16.426 2.8828-24.785 4.3242-8.3594 1.4375-15.853 2.7891-16.649 3-0.79687 0.21485-8.1836 1.5186-16.418 2.8975-8.2344 1.3828-15.425 2.6606-15.976 2.8403-0.55078 0.1797-3.5396 0.7339-6.6372 1.2378l-5.6367 0.91113v63.012c0 34.656 0.0396 63.011 0.0864 63.015 0.0469 4e-3 3.0347 0.54296 6.6401 1.1953 3.6094 0.65234 13.372 2.3789 21.696 3.832 8.3242 1.4531 15.437 2.7392 15.804 2.8564 0.3711 0.11328 7.7149 1.4248 16.312 2.9092 8.6016 1.4883 20.179 3.5088 25.73 4.4971 5.5508 0.98437 10.356 1.8037 10.68 1.8193 0.55859 0.0351 0.59034-3.9873 0.59034-80.007v-80.048zm5.707 16.638-0.27685 5.7114h66.335v113.91h-66.335l0.28857 7.1572 68.011-0.1963 1.8633-0.83936c2.2852-1.0352 3.2588-2.7739 3.6885-6.5903 0.15624-1.414 0.2412-27.554 0.19042-58.097-0.0937-55.176-0.0972-55.535-0.82763-56.953-0.91016-1.7774-1.6372-2.4414-3.6724-3.3633-1.5703-0.71486-2.187-0.72608-35.433-0.73389zm28.997 14.981c-11.738 0-21.254 9.5156-21.258 21.258 0 11.738 9.5195 21.258 21.258 21.258 11.742 0 21.261-9.5195 21.261-21.258 0-11.742-9.5186-21.258-21.261-21.258zm0 45.168-24.168 24.171h48.34zm-24.422 29.522v22.43h48.851v-22.43z" fill-rule="evenodd" opacity=".3"/><path d="m202.68 138.22c-0.50781 0-5.2378 0.7705-10.507 1.708-5.2734 0.94141-16.426 2.8828-24.785 4.3242-8.3594 1.4375-15.853 2.7891-16.649 3-0.79688 0.21485-8.1836 1.5186-16.418 2.8975-8.2344 1.3828-15.425 2.6606-15.976 2.8403-0.55079 0.17969-3.5396 0.7339-6.6372 1.2378l-5.6367 0.91113v63.012c0 34.656 0.0396 63.011 0.0864 63.015 0.0469 4e-3 3.0347 0.54296 6.6401 1.1953 3.6094 0.65234 13.372 2.3789 21.696 3.832 8.3242 1.4531 15.437 2.7392 15.804 2.8564 0.3711 0.11328 7.7148 1.4248 16.312 2.9092 8.6016 1.4883 20.179 3.5088 25.73 4.4971 5.5508 0.98438 10.356 1.8037 10.68 1.8193 0.55859 0.0351 0.59033-3.9873 0.59033-80.007v-80.048zm5.707 16.638-0.27686 5.7114h66.335v113.91h-66.335l0.28857 7.1572 68.011-0.1962 1.8633-0.83936c2.2852-1.0352 3.2588-2.7739 3.6885-6.5903 0.15625-1.414 0.24121-27.554 0.19043-58.097-0.0937-55.176-0.0972-55.535-0.82763-56.953-0.91016-1.7774-1.6372-2.4414-3.6724-3.3633-1.5703-0.71485-2.187-0.72607-35.433-0.73388zm28.997 14.981c-11.738 0-21.254 9.5156-21.258 21.258 0 11.738 9.5195 21.258 21.258 21.258 11.742 0 21.261-9.5195 21.261-21.258 0-11.742-9.5186-21.258-21.261-21.258zm0 45.168-24.168 24.171h48.34zm-24.422 29.522v22.43h48.851v-22.43z" fill="#f8de66" fill-rule="evenodd"/></svg>
