<svg width="512" height="512" version="1.1" viewBox="0 0 384 384" xmlns="http://www.w3.org/2000/svg"><defs><linearGradient id="a" x1="235.09" x2="720.48" y1="289.08" y2="-306.19" gradientTransform="matrix(.75 0 0 .75 -.000383 0)" gradientUnits="userSpaceOnUse"><stop stop-color="#d31818" offset="0"/><stop stop-color="#941111" offset="1"/></linearGradient><clipPath><rect width="384" height="384"/></clipPath></defs><path d="m245.64 30.664-0.20703 0.95313v0.0078l-0.0156 0.0625c-0.0898 0.41016-0.082 0.82812 0.0312 1.2695 0.0352 0.21875 0.082 0.42578 0.14454 0.59766 0.0195 0.04687 0.0898 0.14844 0.1875 0.27344 0.0117 0.02344 0.0195 0.04297 0.0312 0.06641 0.33984 0.65234 5.8516 6.4648 12.246 12.91 6.3945 6.4492 17.441 17.625 24.555 24.836 7.1094 7.2109 18.484 18.746 25.273 25.629 6.7891 6.8867 12.688 12.973 13.102 13.531 0.0859 0.11718 0.1914 0.23046 0.30078 0.33984 0.33594 0.35157 0.68359 0.59766 1.1055 0.77735 0.20312 0.0977 0.41015 0.17968 0.61718 0.23047 1.2148 0.32421 2.0977 0.42969 2.7656 0.32421 0.0703-8e-3 0.14062-0.0195 0.20312-0.0352 0.10157-0.0234 0.19922-0.0508 0.28907-0.0859 0.0273-8e-3 0.0469-0.0312 0.0703-0.0547 0.0195-0.0117 0.043-0.0195 0.0625-0.0312 0.15626-0.0977 0.25001-1.1406 0.3047-3.8047 8e-3 -0.33984 0.0156-0.76563 0.0195-1.168 4e-3 -0.15625 8e-3 -0.29688 8e-3 -0.46485 0.0547-3.6016 0.0664-9.4375 0.0625-19.328-4e-3 -14.586-0.14453-25.613-0.34376-27.012-0.0664-0.46094-0.14061-0.91406-0.22266-1.3672-0.0937-0.70312-0.20703-1.2383-0.35155-1.832-0.0508-0.21094-0.125-0.46094-0.1875-0.69922-0.34766-1.3945-0.76953-2.7461-1.2617-4.0547-0.0859-0.23438-0.17577-0.49219-0.25389-0.69531-0.2539-0.66015-0.56639-1.3437-0.92186-2.0391-3.2968-6.8282-8.7734-12.215-16.141-15.762-3-1.4414-4.9844-2.2656-8.8672-2.7383-0.4375-0.05469-0.89844-0.10547-1.418-0.15234h-0.0273c-0.0664-0.0078-0.14453-0.01172-0.21094-0.01953-0.37109-0.03125-0.76172-0.05859-1.1836-0.08594-4.9531-0.33984-12.539-0.37109-25.949-0.375h-23.816z" fill="#040000" opacity=".3"/><path d="m81.476 360.27c-2.4727-0.66407-7.4961-3.0586-10.152-4.8438-5.2031-3.4922-10.277-9.9766-12.734-16.273l-1.207-3.0898-0.09375-143.05-0.08984-143.05 0.88672-2.8633c2.8164-9.1016 9.1836-16.453 17.828-20.586 6.0742-2.9023 0.32031-2.668 65.426-2.6602l57.914 0.0039 25.613 25.75c14.086 14.164 37.781 37.977 52.656 52.914 14.875 14.941 27.043 27.246 27.043 27.344 0 0.0977 4.625 4.7969 10.277 10.449l10.277 10.27 0.0781 41.352c0.0391 22.742 0.0781 65.008 0.082 93.922l0.0117 52.574-1.5703 3.2578c-1.9844 4.1367-3.168 5.8398-6.332 9.1562-4.1172 4.3086-8.3516 6.9375-14.488 8.9922l-2.9844 1.0039-108.29-0.0312c-94.418-0.0274-108.53-0.0937-110.15-0.53125z" fill="url(#a)"/><path d="m245.64 23.164-0.20703 0.95313v0.0078l-0.0156 0.0625c-0.0898 0.41016-0.082 0.82812 0.0312 1.2695 0.0352 0.21875 0.082 0.42578 0.14454 0.59766 0.0195 0.04687 0.0898 0.14844 0.1875 0.27344 0.0117 0.02344 0.0195 0.04297 0.0312 0.06641 0.33984 0.65234 5.8516 6.4648 12.246 12.91 6.3945 6.4492 17.441 17.625 24.555 24.836 7.1094 7.2109 18.484 18.746 25.273 25.629 6.7891 6.8867 12.688 12.973 13.102 13.531 0.0859 0.11719 0.1914 0.23047 0.30078 0.33985 0.33594 0.35156 0.68359 0.59765 1.1055 0.77734 0.20312 0.0977 0.41015 0.17969 0.61718 0.23047 1.2148 0.32422 2.0977 0.42969 2.7656 0.32422 0.0703-8e-3 0.14062-0.0195 0.20312-0.0352 0.10157-0.0234 0.19922-0.0508 0.28907-0.0859 0.0273-8e-3 0.0469-0.0312 0.0703-0.0547 0.0195-0.0117 0.043-0.0195 0.0625-0.0312 0.15625-0.0977 0.25-1.1406 0.30469-3.8047 8e-3 -0.33985 0.0156-0.76563 0.0195-1.168 4e-3 -0.15625 8e-3 -0.29688 8e-3 -0.46484 0.0547-3.6016 0.0664-9.4375 0.0625-19.328-4e-3 -14.586-0.14453-25.613-0.34375-27.012-0.0664-0.46094-0.14062-0.91406-0.22266-1.3672-0.0937-0.70312-0.20703-1.2383-0.35156-1.832-0.0508-0.21094-0.125-0.46094-0.1875-0.69922-0.34765-1.3945-0.76953-2.7461-1.2617-4.0547-0.0859-0.23438-0.17578-0.49219-0.2539-0.69531-0.25391-0.66016-0.56641-1.3438-0.92188-2.0391-3.2969-6.8281-8.7734-12.215-16.141-15.762-3-1.4414-4.9844-2.2656-8.8672-2.7383-0.4375-0.05469-0.89844-0.10547-1.418-0.15234h-0.0273c-0.0664-0.0078-0.14453-0.01172-0.21094-0.01953-0.37109-0.03125-0.76172-0.05859-1.1836-0.08594-4.9531-0.33984-12.539-0.37109-25.949-0.375h-23.816z" fill="#941111"/><path d="m91.535 58.383c-0.30859 0-0.61719 0.0117-0.92578 0.0352h-0.35156l-0.03516 0.0469c-6.6172 0.6836-11.652 6.3477-11.66 13.113 0.0078 0.53515 0.04297 1.0742 0.11328 1.6055l-0.07031 0.0898 0.07813 127.29 0.07422 125.86c-0.0625 0.51171-0.09375 1.0274-0.09766 1.5391 0.0039 6.8398 5.1445 12.543 11.844 13.137l0.01172 8e-3 0.16016 4e-3c0.32031 0.0274 0.63672 0.043 0.95703 0.0469 0.32813 0 0.65234-0.0156 0.97656-0.0391l98.953 0.43359 97.586 0.0273c0.54687 0.0742 1.0976 0.11329 1.6484 0.11719 6.5977-4e-3 12.141-5.0391 12.883-11.707l0.19923-0.16406-4e-3 -51.254c-8e-3 -24.293-0.0391-59.809-0.0742-78.922l-0.0625-34.746-8.6367-8.6289c-4.75-4.75-8.6367-8.6992-8.6367-8.7812 0-0.082-10.227-10.422-22.723-22.977-12.5-12.555-32.41-32.563-44.246-44.461l-21.519-21.637h-105.77c-0.22266-0.0195-0.44922-0.0312-0.67188-0.0352z" opacity=".3"/><path d="m91.535 50.883c-0.30859 0-0.61719 0.01172-0.92578 0.03516h-0.35156l-0.03516 0.04687c-6.6172 0.6836-11.652 6.3477-11.66 13.113 0.0078 0.53516 0.04297 1.0742 0.11328 1.6055l-0.07031 0.08984 0.07813 127.29 0.07422 125.86c-0.0625 0.51172-0.09375 1.0274-0.09766 1.5391 0.0039 6.8398 5.1445 12.543 11.844 13.137l0.01172 8e-3 0.16016 4e-3c0.32031 0.0274 0.63672 0.043 0.95703 0.0469 0.32813 0 0.65234-0.0156 0.97656-0.0391l98.953 0.43359 97.586 0.0273c0.54687 0.0742 1.0976 0.11329 1.6484 0.11719 6.5977-4e-3 12.141-5.0391 12.883-11.707l0.19922-0.16406-4e-3 -51.254c-8e-3 -24.293-0.0391-59.809-0.0742-78.922l-0.0625-34.746-8.6367-8.6289c-4.75-4.75-8.6367-8.6992-8.6367-8.7812 0-0.082-10.227-10.422-22.723-22.977-12.5-12.555-32.41-32.563-44.246-44.461l-21.519-21.637h-105.77c-0.22266-0.01953-0.44922-0.03125-0.67188-0.03516z" fill="#fff"/><path d="m202.93 142.68-0.0806 72.328-0.0908 82.833-0.35889 0.0703c-0.1953 0.0391-21.797-3.7314-48.004-8.376-26.207-4.6406-47.929-8.5508-48.272-8.6836l-0.62549-0.2417v7.5l0.62549 0.2417c0.34374 0.13281 22.065 4.043 48.272 8.6836 26.207 4.6445 47.809 8.415 48.004 8.376l0.35889-0.0703 0.0908-82.833 0.0893-79.828zm73.575 116.11-0.0424 1.7227-2.0786 2.0771-2.0742 2.0786-2.8316 1.418-2.8315 1.4224-3.3911 1.0854c-1.8633 0.59376-5.3364 1.4922-7.7153 1.9922-2.375 0.50001-6.792 1.2378-9.8115 1.6362-3.0234 0.39846-8.707 0.96971-12.633 1.2627l-7.1367 0.53467-4.4619-0.0513c-2.457-0.0274-6.1982-0.17578-8.3232-0.32812-2.125-0.15234-4.0938-0.36621-4.3711-0.47168l-0.51269-0.19629v7.5l0.51269 0.19629c0.27735 0.10547 2.2461 0.31934 4.3711 0.47168s5.8662 0.30076 8.3232 0.32812l4.4619 0.0513 7.1367-0.53467c3.9258-0.29298 9.6094-0.86423 12.633-1.2627 3.0195-0.39843 7.4365-1.1362 9.8115-1.6362 2.3789-0.50001 5.852-1.3984 7.7153-1.9922l3.3911-1.0854 2.8315-1.4224 2.8316-1.418 2.0742-2.0786 2.0786-2.0771 0.0424-1.7227c0.0273-0.94923 0.14454-6.0977 0.26953-11.449 0.22389-17.556-0.0143-5.2558-0.26953 3.9492z" opacity=".3"/><path d="m222.92 165.52c-4.2188 0-9.2383 0.10155-11.152 0.23047l-3.4805 0.23045v28.75l2.0508 0.22657c1.1289 0.12109 2.375 0.27343 2.7656 0.33203 0.39453 0.0625 3.9258 0.13281 7.8516 0.16015l7.1406 0.0469 5.7109-0.35937c3.1406-0.19922 7.0742-0.53126 8.7461-0.74219 1.668-0.20703 4.9609-0.69532 7.3164-1.082 2.3555-0.39063 6.1367-1.1719 8.4023-1.7344 2.2656-0.5664 5.1562-1.418 6.4219-1.8984 1.2695-0.47657 3.4062-1.4024 4.7461-2.0586l2.4414-1.1914 1.5859-1.3984 1.5859-1.3945 1.0469-2.0234v-2.7852l-2.0703-2.8594-4.5312-2.9688-2.7422-1.0586c-1.5078-0.58594-4.3984-1.5352-6.4258-2.1172-2.0234-0.57812-5.3672-1.375-7.4297-1.7656-2.0586-0.39063-5.6758-0.96094-8.0312-1.2617-2.3555-0.30078-6.5312-0.71094-9.2774-0.91016l-4.9961-0.36718zm53.992 19.984c-0.0469 0-1.1094 1.0234-2.3594 2.2774l-2.2773 2.2773-3.6484 1.8242-3.6524 1.8281-3.9844 1.2422c-2.1914 0.67969-5.5898 1.5586-7.5547 1.9492-1.9609 0.39062-5.3359 0.87891-7.4961 1.082l-3.9258 0.375-11.953 0.36328c-6.5781 0.19922-14.125 0.39844-16.777 0.44141l-4.8203 0.082-0.0937 10.703c-0.0508 5.8867-0.0117 10.914 0.0859 11.172l0.1797 0.47265 5.625-0.21093c3.0937-0.11328 10.504-0.3672 16.469-0.5625 5.9648-0.19532 12.469-0.51954 14.453-0.71876 1.9883-0.19921 4.8203-0.58594 6.293-0.86328 1.4727-0.27343 3.793-0.76171 5.1562-1.082 1.3672-0.31641 4.0156-1.0664 5.8906-1.6641l3.4062-1.082 3.332-1.5859 3.3281-1.5898 1.8984-1.8555 1.9024-1.8555 0.21875-5.8867c0.12109-3.2383 0.25781-8.418 0.30468-11.512 0.043-3.0938 0.043-5.6211 0-5.6211zm-0.0703 26.41c-0.082 0-1.207 1.0234-2.5039 2.2734l-2.3555 2.2773-2.668 1.3438-2.6719 1.3477-3.5586 1.2031-3.5625 1.1992-5.1836 1.0625-5.1836 1.0586-4.5508 0.53125c-2.5 0.29297-7.4766 0.71875-11.055 0.94532l-6.5039 0.41015-8.9766-0.15234-8.9726-0.15625-0.22266 4.125c-0.125 2.2695-0.24609 7.0625-0.27344 10.656l-0.0469 6.5273 0.23046 0.23047c0.12891 0.125 0.91016 0.33984 1.7422 0.47655 0.82813 0.13283 3.4375 0.26173 5.793 0.28517 2.3555 0.0234 7.8945-0.12109 12.312-0.31641 4.418-0.19531 10.922-0.60156 14.457-0.89843l6.4219-0.54688 4.1055-0.90625c2.2578-0.5 5.4688-1.2969 7.1367-1.7734 1.6719-0.47656 4.5234-1.4414 6.3398-2.1406l3.3047-1.2774 2.0469-1.3711c1.1289-0.75781 2.5039-1.8477 3.0586-2.4258l1.0039-1.0547 0.24219-11.465c0.13671-6.3086 0.17578-11.469 0.0937-11.469zm0.0547 25.699c-0.0508 0-1.1445 1.1133-2.4258 2.4726l-2.332 2.4727-3.1055 1.5859-3.1055 1.5898-2.8555 0.92189c-1.5703 0.5039-4.2188 1.2344-5.8867 1.6211-1.668 0.39062-4.7226 0.96875-6.7812 1.293-2.0625 0.32031-6.0781 0.82031-8.9219 1.1133l-5.1758 0.52734-14.012 0.21094-14.008 0.21484v21.336l0.51172 0.19531c0.27735 0.10547 2.2461 0.32031 4.3711 0.47265s5.8672 0.30078 8.3242 0.32814l4.4609 0.0508 7.1367-0.53515c3.9258-0.29298 9.6094-0.86328 12.633-1.2617 3.0195-0.39844 7.4375-1.1367 9.8125-1.6367 2.3789-0.5 5.8516-1.3984 7.7148-1.9922l3.3906-1.0859 2.832-1.4219 2.832-1.418 2.0742-2.0781 2.0781-2.0781 0.043-1.7227c0.0273-0.94922 0.14453-6.0976 0.26952-11.449 0.1211-5.3477 0.1797-9.7266 0.12501-9.7266z" fill="#d31818"/><path d="m202.68 138.22c-0.50782 0-5.2383 0.76953-10.508 1.707-5.2734 0.94141-16.426 2.8828-24.785 4.3242-8.3594 1.4375-15.852 2.7891-16.648 3-0.79688 0.21485-8.1836 1.5195-16.418 2.8984-8.2344 1.3828-15.426 2.6602-15.977 2.8398s-3.5391 0.73438-6.6367 1.2383l-5.6367 0.91016v63.012c0 34.656 0.0391 63.012 0.0859 63.016 0.0469 4e-3 3.0352 0.54297 6.6406 1.1953 3.6094 0.65234 13.371 2.3789 21.695 3.832 8.3242 1.4531 15.438 2.7383 15.805 2.8555 0.3711 0.11328 7.7148 1.4258 16.312 2.9102 8.6016 1.4883 20.18 3.5078 25.73 4.4961 5.5508 0.98437 10.355 1.8047 10.68 1.8203 0.55859 0.0351 0.58984-3.9883 0.58984-80.008v-80.047z" fill="#d31818" fill-rule="evenodd"/></svg>
