<svg xmlns="http://www.w3.org/2000/svg" width="384pt" height="384pt" version="1.1" viewBox="0 0 384 384"> <g transform="translate(-5.0000001e-6,-3.7498)"> <path style="fill:rgb(100.000%,100.000%,100.000%)" d="m 74.59986,23.25 c -7.55859,0 -14.67773,7.11913 -14.67773,14.67773 v 308.14453 c 0,7.11915 7.55859,14.67774 14.67773,14.67774 h 234.79981 c 7.11913,0 14.67774,-7.55859 14.67774,-14.67774 v -227.417 L 228.67213,23.25 Z m 0,0"/> <path d="m 368.44141,94.628906 -57.33594,57.335934 120.99774,124.73261 3.1e-4,-118.40643 z" transform="scale(0.75)" style="fill:rgb(80.000%,80.000%,80.000%)"/> <path style="fill:rgb(100.000%,100.000%,100.000%)" d="m 228.67213,23.25 95.40528,95.40526 h -80.72755 c -7.11914,0 -14.67773,-7.55858 -14.67773,-14.67772 z m 0,0"/> <path style="opacity:0.3" d="m 59.922605,346.07186 v 7.5 c 0,7.11915 7.55859,14.67774 14.677732,14.67774 H 309.40014 c 7.11913,0 14.67774,-7.55859 14.67774,-14.67774 v -7.5 c 0,7.11915 -7.55861,14.67774 -14.67774,14.67774 H 74.600337 c -7.119142,0 -14.677732,-7.55858 -14.677732,-14.67774 z"/> </g> <g> <path style="fill:rgb(23.137%,54.509%,72.156%);fill-rule:evenodd" d="M 118.10938,255 84,176.00781 l 28.29688,-13.08203 21.98046,53.02344 26.57813,-13.53516 11.96094,25.51563 z m 0,0"/> <path style="fill:rgb(99.215%,28.627%,28.627%);fill-rule:evenodd" d="m 217.71875,150.05078 30.00391,5.75781 6.44531,19.44922 13.17578,-15.02344 32.85937,6.92969 -29.51171,32.86719 16.66015,48.96875 -35.37109,-3.43359 -6.29297,-26.54688 -15.98047,21.84375 -27.50781,-8.58594 27.65625,-39.125 z m 0,0"/> <path style="fill:rgb(100.000%,78.039%,18.823%);fill-rule:evenodd" d="m 141.80859,178.48437 34.32813,4.66016 10.1914,21.30078 12.84375,-18.41797 34.55079,4.4375 -31.67188,45.26563 -7.75,43.26953 -32.11719,-5.10156 5.53907,-38.83203 z m 0,0"/> </g> </svg>
