<svg width="512" height="512" version="1.1" viewBox="0 0 384 384" xmlns="http://www.w3.org/2000/svg" xmlns:xlink="http://www.w3.org/1999/xlink"><defs><filter id="alpha" x="0%" y="0%" width="100%" height="100%"><feColorMatrix in="SourceGraphic" values="0 0 0 0 1 0 0 0 0 1 0 0 0 0 1 0 0 0 1 0"/></filter><mask id="n"><g filter="url(#alpha)"><rect width="384" height="384" fill-opacity=".2"/></g></mask><clipPath id="x"><rect width="384" height="384"/></clipPath><g id="a" clip-path="url(#x)"><path d="m77.711 78h12.578c6.4688 0 11.711 5.2422 11.711 11.711v222.58c0 6.4688-5.2422 11.711-11.711 11.711h-12.578c-6.4688 0-11.711-5.2422-11.711-11.711v-222.58c0-6.4688 5.2422-11.711 11.711-11.711z"/></g><mask id="m"><g filter="url(#alpha)"><rect width="384" height="384" fill-opacity=".2"/></g></mask><clipPath id="v"><rect width="384" height="384"/></clipPath><g id="g" clip-path="url(#v)"><path d="m113.71 78h12.578c6.4688 0 11.711 5.2422 11.711 11.711v222.58c0 6.4688-5.2422 11.711-11.711 11.711h-12.578c-6.4688 0-11.711-5.2422-11.711-11.711v-222.58c0-6.4688 5.2422-11.711 11.711-11.711z"/></g><mask id="l"><g filter="url(#alpha)"><rect width="384" height="384" fill-opacity=".2"/></g></mask><clipPath id="u"><rect width="384" height="384"/></clipPath><g id="f" clip-path="url(#u)"><path d="m149.71 78h12.578c6.4688 0 11.711 5.2422 11.711 11.711v222.58c0 6.4688-5.2422 11.711-11.711 11.711h-12.578c-6.4688 0-11.711-5.2422-11.711-11.711v-222.58c0-6.4688 5.2422-11.711 11.711-11.711z"/></g><mask id="k"><g filter="url(#alpha)"><rect width="384" height="384" fill-opacity=".2"/></g></mask><clipPath id="s"><rect width="384" height="384"/></clipPath><g id="e" clip-path="url(#s)"><path d="m185.71 78h12.578c6.4688 0 11.711 5.2422 11.711 11.711v222.58c0 6.4688-5.2422 11.711-11.711 11.711h-12.578c-6.4688 0-11.711-5.2422-11.711-11.711v-222.58c0-6.4688 5.2422-11.711 11.711-11.711z"/></g><mask id="j"><g filter="url(#alpha)"><rect width="384" height="384" fill-opacity=".2"/></g></mask><clipPath id="r"><rect width="384" height="384"/></clipPath><g id="d" clip-path="url(#r)"><path d="m221.71 78h12.578c6.4688 0 11.711 5.2422 11.711 11.711v222.58c0 6.4688-5.2422 11.711-11.711 11.711h-12.578c-6.4688 0-11.711-5.2422-11.711-11.711v-222.58c0-6.4688 5.2422-11.711 11.711-11.711z"/></g><mask id="i"><g filter="url(#alpha)"><rect width="384" height="384" fill-opacity=".2"/></g></mask><clipPath id="p"><rect width="384" height="384"/></clipPath><g id="c" clip-path="url(#p)"><path d="m257.71 78h12.578c6.4688 0 11.711 5.2422 11.711 11.711v222.58c0 6.4688-5.2422 11.711-11.711 11.711h-12.578c-6.4688 0-11.711-5.2422-11.711-11.711v-222.58c0-6.4688 5.2422-11.711 11.711-11.711z"/></g><clipPath id="o"><rect width="384" height="384"/></clipPath><clipPath id="y"><rect width="384" height="384"/></clipPath></defs><path d="m342 327.5v-256c0-8.8594-6.6875-15.996-15-15.996h-270c-8.3086 0-15 7.1367-15 16v256c0 8.8633 6.6914 15.996 15 15.996h270c8.3125 0 15-7.1328 15-15.996z" fill="#090202" opacity=".3"/><path d="m342 320v-256c0-8.8594-6.6875-15.996-15-15.996h-270c-8.3086 0-15 7.1367-15 16v256c0 8.8633 6.6914 15.996 15 15.996h270c8.3125 0 15-7.1328 15-15.996z" fill="#191919"/><g><path d="m257.71 72h12.578c6.4688 0 11.711 5.2422 11.711 11.711v222.58c0 6.4688-5.2422 11.711-11.711 11.711h-12.578c-6.4688 0-11.711-5.2422-11.711-11.711v-222.58c0-6.4688 5.2422-11.711 11.711-11.711z" fill="#3a69b8"/><path d="m293.71 72h12.578c6.4688 0 11.711 5.2422 11.711 11.711v222.58c0 6.4688-5.2422 11.711-11.711 11.711h-12.578c-6.4688 0-11.711-5.2422-11.711-11.711v-222.58c0-6.4688 5.2422-11.711 11.711-11.711z" fill="#9654b2"/><path d="m221.71 72h12.578c6.4688 0 11.711 5.2422 11.711 11.711v222.58c0 6.4688-5.2422 11.711-11.711 11.711h-12.578c-6.4688 0-11.711-5.2422-11.711-11.711v-222.58c0-6.4688 5.2422-11.711 11.711-11.711z" fill="#46b39e"/><path d="m185.71 72h12.578c6.4688 0 11.711 5.2422 11.711 11.711v222.58c0 6.4688-5.2422 11.711-11.711 11.711h-12.578c-6.4688 0-11.711-5.2422-11.711-11.711v-222.58c0-6.4688 5.2422-11.711 11.711-11.711z" fill="#23a96d"/><path d="m149.71 72h12.578c6.4688 0 11.711 5.2422 11.711 11.711v222.58c0 6.4688-5.2422 11.711-11.711 11.711h-12.578c-6.4688 0-11.711-5.2422-11.711-11.711v-222.58c0-6.4688 5.2422-11.711 11.711-11.711z" fill="#ffd158"/><path d="m113.71 72h12.578c6.4688 0 11.711 5.2422 11.711 11.711v222.58c0 6.4688-5.2422 11.711-11.711 11.711h-12.578c-6.4688 0-11.711-5.2422-11.711-11.711v-222.58c0-6.4688 5.2422-11.711 11.711-11.711z" fill="#fc9633"/><path d="m77.711 72h12.578c6.4688 0 11.711 5.2422 11.711 11.711v222.58c0 6.4688-5.2422 11.711-11.711 11.711h-12.578c-6.4688 0-11.711-5.2422-11.711-11.711v-222.58c0-6.4688 5.2422-11.711 11.711-11.711z" fill="#e05d5d"/></g><path d="m95.957 60.004c-3.2891 0-5.9531 3.8242-5.9531 8.5781v132.84c0 4.75 2.6641 8.5781 5.9531 8.5781h12.117c3.2891 0 5.9297-3.8281 5.9297-8.5781v-132.84c0-4.7539-2.6406-8.5781-5.9297-8.5781zm35.973 0c-3.2852 0-5.9258 3.8242-5.9258 8.5781v132.84c0 4.75 2.6406 8.5781 5.9258 8.5781h12.141c3.2891 0 5.9297-3.8281 5.9297-8.5781v-132.84c0-4.7539-2.6406-8.5781-5.9297-8.5781zm72 0c-3.2891 0-5.9258 3.8242-5.9258 8.5781v132.84c0 4.75 2.6367 8.5781 5.9258 8.5781h12.141c3.2891 0 5.9297-3.8281 5.9297-8.5781v-132.84c0-4.7539-2.6406-8.5781-5.9297-8.5781zm36 0c-3.2891 0-5.9297 3.8242-5.9297 8.5781v132.84c0 4.75 2.6406 8.5781 5.9297 8.5781h12.141c3.2891 0 5.9258-3.8281 5.9258-8.5781v-132.84c0-4.7539-2.6367-8.5781-5.9258-8.5781zm36 0c-3.2891 0-5.9297 3.8242-5.9297 8.5781v132.84c0 4.75 2.6406 8.5781 5.9297 8.5781h12.141c3.2852 0 5.9258-3.8281 5.9258-8.5781v-132.84c0-4.7539-2.6406-8.5781-5.9258-8.5781z"/><path transform="scale(.75)" d="m127.94 80.006c-4.3854 0-7.9375 5.099-7.9375 11.438v10c0-6.3385 3.5521-11.438 7.9375-11.438h16.156c4.3854 0 7.9062 5.099 7.9062 11.438v-10c0-6.3385-3.5208-11.438-7.9062-11.438h-16.156zm47.963 0c-4.3802 0-7.9004 5.099-7.9004 11.438v10c0-6.3385 3.5202-11.438 7.9004-11.438h16.188c4.3854 0 7.9062 5.099 7.9062 11.438v-10c0-6.3385-3.5208-11.438-7.9062-11.438h-16.188zm96 0c-4.3854 0-7.9004 5.099-7.9004 11.438v10c0-6.3385 3.515-11.438 7.9004-11.438h16.188c4.3854 0 7.9062 5.099 7.9062 11.438v-10c0-6.3385-3.5208-11.438-7.9062-11.438h-16.188zm48 0c-4.3854 0-7.9062 5.099-7.9062 11.438v10c0-6.3385 3.5208-11.438 7.9062-11.438h16.188c4.3854 0 7.9004 5.099 7.9004 11.438v-10c0-6.3385-3.515-11.438-7.9004-11.438h-16.188zm48 0c-4.3854 0-7.9062 5.099-7.9062 11.438v10c0-6.3385 3.5208-11.438 7.9062-11.438h16.188c4.3802 0 7.9004 5.099 7.9004 11.438v-10c0-6.3385-3.5202-11.438-7.9004-11.438h-16.188z" fill="#fff" opacity=".2" stroke-width="1.3333"/><path d="m95.957 67.504c-3.2891 0-5.9531 3.8242-5.9531 8.5781v132.84c0 4.75 2.6641 8.5781 5.9531 8.5781h12.117c3.2891 0 5.9297-3.8281 5.9297-8.5781v-132.84c0-4.7539-2.6406-8.5781-5.9297-8.5781zm35.973 0c-3.2852 0-5.9258 3.8242-5.9258 8.5781v132.84c0 4.75 2.6406 8.5781 5.9258 8.5781h12.141c3.2891 0 5.9297-3.8281 5.9297-8.5781v-132.84c-1e-5 -4.7539-2.6406-8.5781-5.9297-8.5781zm72 0c-3.2891 0-5.9258 3.8242-5.9258 8.5781v132.84c0 4.75 2.6367 8.5781 5.9258 8.5781h12.141c3.2891 0 5.9297-3.8281 5.9297-8.5781v-132.84c0-4.7539-2.6406-8.5781-5.9297-8.5781zm36 0c-3.2891 0-5.9297 3.8242-5.9297 8.5781v132.84c0 4.75 2.6406 8.5781 5.9297 8.5781h12.141c3.2891 0 5.9258-3.8281 5.9258-8.5781v-132.84c0-4.7539-2.6367-8.5781-5.9258-8.5781zm36 0c-3.2891 0-5.9297 3.8242-5.9297 8.5781v132.84c0 4.75 2.6406 8.5781 5.9297 8.5781h12.141c3.2852 0 5.9258-3.8281 5.9258-8.5781v-132.84c0-4.7539-2.6406-8.5781-5.9258-8.5781z" opacity=".3"/><path transform="scale(.75)" d="m76 64c-11.078 0-20 9.5163-20 21.334v10c0-11.818 8.9219-21.334 20-21.334h360c11.083 0 20 9.5156 20 21.328v-10c0-11.812-8.9167-21.328-20-21.328h-360z" fill="#fff" opacity=".1" stroke-width="1.3333"/><path transform="scale(.75)" d="m88 388.39v20c0 8.625 6.9902 15.613 15.615 15.613h16.771c8.625 0 15.613-6.9883 15.613-15.613 0 8.625 6.9902 15.613 15.615 15.613h16.771c8.625 0 15.613-6.9883 15.613-15.613 0 8.625 6.9902 15.613 15.615 15.613h16.771c8.625 0 15.613-6.9883 15.613-15.613 0 8.625 6.9902 15.613 15.615 15.613h16.771c8.625 0 15.613-6.9883 15.613-15.613 0 8.625 6.9902 15.613 15.615 15.613h16.771c8.625 0 15.613-6.9883 15.613-15.613 0 8.625 6.9902 15.613 15.615 15.613h16.771c8.625 0 15.613-6.9883 15.613-15.613 0 8.625 6.9902 15.613 15.615 15.613h16.771c8.625 0 15.613-6.9883 15.613-15.613v-20c0 8.625-6.9883 15.613-15.613 15.613h-16.771c-8.625 0-15.615-6.9883-15.615-15.613 0 8.625-6.9883 15.613-15.613 15.613h-16.771c-8.625 0-15.615-6.9883-15.615-15.613 0 8.625-6.9883 15.613-15.613 15.613h-16.771c-8.625 0-15.615-6.9883-15.615-15.613 0 8.625-6.9883 15.613-15.613 15.613h-16.771c-8.625 0-15.615-6.9883-15.615-15.613 0 8.625-6.9883 15.613-15.613 15.613h-16.771c-8.625 0-15.615-6.9883-15.615-15.613 0 8.625-6.9883 15.613-15.613 15.613h-16.771c-8.625 0-15.615-6.9883-15.615-15.613 0 8.625-6.9883 15.613-15.613 15.613h-16.771c-8.625 0-15.615-6.9883-15.615-15.613z" opacity=".3" stroke-width="1.3333"/></svg>
