<svg xmlns="http://www.w3.org/2000/svg" xmlns:xlink="http://www.w3.org/1999/xlink" width="384pt" height="384pt" version="1.1" viewBox="0 0 384 384">
 <defs>
  <filter id="alpha" width="100%" height="100%" x="0%" y="0%" filterUnits="objectBoundingBox">
   <feColorMatrix in="SourceGraphic" type="matrix" values="0 0 0 0 1 0 0 0 0 1 0 0 0 0 1 0 0 0 1 0"/>
  </filter>
  <mask id="mask0">
   <g filter="url(#alpha)">
    <rect width="384" height="384" x="0" y="0" style="fill:rgb(0%,0%,0%);fill-opacity:0.2"/>
   </g>
  </mask>
  <clipPath id="clip1">
   <rect width="384" height="384" x="0" y="0"/>
  </clipPath>
  <g id="surface5" clip-path="url(#clip1)">
   <path style="fill:rgb(0%,0%,0%)" d="M 192 30 C 99.214844 30 24 105.214844 24 198 C 24 290.785156 99.214844 366 192 366 C 284.785156 366 360 290.785156 360 198 C 360 105.214844 284.785156 30 192 30 Z M 192 30"/>
  </g>
  <mask id="mask1">
   <g filter="url(#alpha)">
    <rect width="384" height="384" x="0" y="0" style="fill:rgb(0%,0%,0%);fill-opacity:0.2"/>
   </g>
  </mask>
  <clipPath id="clip2">
   <rect width="384" height="384" x="0" y="0"/>
  </clipPath>
  <g id="surface8" clip-path="url(#clip2)">
   <path style="fill:rgb(0%,0%,0%)" d="M 199.335938 84 C 195.027344 84 190.597656 84.183594 186.039062 84.566406 C 145.726562 87.949219 116.816406 108.324219 93.464844 132.472656 C 76.988281 149.519531 64.746094 173.425781 61.300781 197.378906 C 56.304688 232.132812 65.695312 263.15625 89.410156 285.515625 C 109.519531 304.476562 141.328125 311.175781 174.710938 311.917969 C 198.128906 312.4375 220.109375 310.511719 239.796875 305.980469 C 249.636719 303.710938 259.273438 300.8125 265.476562 297.09375 C 271.679688 293.378906 275.878906 288.585938 276.011719 282.71875 L 276.015625 282.695312 L 276.015625 282.671875 C 276.015625 273.117188 270.492188 265.269531 262.472656 258.882812 C 239.25 242.496094 220.234375 233.050781 194.472656 220.035156 C 187.375 216.675781 180.960938 212.265625 180.015625 205.242188 C 178.800781 196.253906 192.503906 193.527344 199.183594 192.792969 C 208.496094 191.953125 216.339844 192.320312 225.816406 193.269531 C 235.292969 194.21875 245.890625 202.699219 249.136719 203.96875 L 249.386719 204.066406 L 249.65625 204.109375 C 250.304688 204.195312 251.261719 203.832031 251.683594 203.367188 C 252.105469 202.894531 252.183594 202.527344 252.242188 202.273438 C 252.355469 201.765625 252.320312 201.53125 252.296875 201.277344 C 252.257812 200.761719 252.160156 200.277344 252.023438 199.660156 C 251.746094 198.433594 251.289062 196.785156 250.675781 194.796875 C 248.535156 182.480469 241.242188 164.800781 236.152344 154.222656 C 234.945312 152.0625 233.738281 150.179688 232.5 148.683594 C 231.261719 147.191406 230.039062 145.980469 228.242188 145.511719 C 225.878906 144.875 222.46875 144.707031 217.894531 144.765625 C 213.308594 144.828125 206.835938 145.164062 200.527344 145.78125 C 187.90625 147.023438 174.304688 149.375 159.847656 152.839844 C 145.394531 156.304688 131.761719 160.84375 122.230469 166.6875 C 117.464844 169.613281 112.492188 172.863281 110.238281 176.691406 C 107.984375 180.515625 107.4375 189.816406 109.167969 194.273438 L 109.167969 194.277344 C 112.859375 203.957031 123.398438 211.226562 134.917969 217.46875 C 159 230.570312 180.265625 238.925781 203.007812 252.960938 C 211.382812 257.515625 216.988281 264.273438 215.734375 271.125 C 214.410156 278.328125 205.75 281.933594 198.265625 284.410156 C 184.8125 288.867188 171.246094 288.398438 159.3125 287.988281 C 131.660156 286.800781 105.796875 280.988281 86.808594 259.496094 C 75.007812 246.140625 73.402344 232.410156 72.121094 212.746094 C 70.863281 193.480469 78.378906 171.992188 89.171875 156 C 113.164062 120.449219 144.40625 99.867188 185.808594 94.375 C 234.664062 88.132812 268.046875 105.65625 289.410156 124.53125 C 300.09375 133.972656 307.734375 145.394531 312.671875 152.703125 C 315.140625 156.355469 316.933594 159.390625 318.101562 161.453125 C 318.683594 162.484375 319.105469 163.273438 319.390625 163.796875 C 319.53125 164.058594 319.632812 164.242188 319.742188 164.429688 C 319.796875 164.523438 319.710938 164.507812 320.125 164.9375 C 320.230469 165.042969 320.890625 165.460938 320.894531 165.460938 C 320.898438 165.460938 323.6875 164.523438 323.6875 164.523438 C 323.6875 164.519531 324.007812 163.472656 324 163.28125 C 323.992188 163.09375 323.976562 163.003906 323.960938 162.929688 C 323.839844 162.304688 323.78125 162.332031 323.675781 162.078125 C 323.570312 161.824219 323.429688 161.519531 323.253906 161.148438 C 322.902344 160.410156 322.398438 159.417969 321.734375 158.195312 C 320.402344 155.753906 318.429688 152.40625 315.769531 148.476562 C 310.453125 140.613281 302.402344 128.777344 291.308594 118.878906 C 271.890625 101.554688 243.0625 85.164062 203.605469 84.070312 C 202.195312 84.03125 200.773438 84.007812 199.335938 84.007812 Z M 199.335938 84"/>
  </g>
  <mask id="mask2">
   <g filter="url(#alpha)">
    <rect width="384" height="384" x="0" y="0" style="fill:rgb(0%,0%,0%);fill-opacity:0.101961"/>
   </g>
  </mask>
  <clipPath id="clip3">
   <rect width="384" height="384" x="0" y="0"/>
  </clipPath>
  <g id="surface11" clip-path="url(#clip3)">
   <path style="fill:rgb(100%,100%,100%)" d="M 192 24 C 99.214844 24 24 99.214844 24 192 C 24.035156 192.8125 24.078125 193.625 24.128906 194.4375 C 26.066406 103.097656 100.640625 30.050781 192 30 C 283.753906 30.058594 358.488281 103.726562 359.871094 195.46875 C 359.925781 194.3125 359.96875 193.15625 360 192 C 360 99.214844 284.785156 24 192 24 Z M 192 24"/>
  </g>
 </defs>
 <g>
  <use mask="url(#mask0)" xlink:href="#surface5"/>
  <path style="fill:rgb(13.333333%,21.176471%,33.72549%)" d="M 192 24 C 99.214844 24 24 99.214844 24 192 C 24 284.785156 99.214844 360 192 360 C 284.785156 360 360 284.785156 360 192 C 360 99.214844 284.785156 24 192 24 Z M 192 24"/>
  <use mask="url(#mask1)" xlink:href="#surface8"/>
  <path style="fill:rgb(55.686275%,26.666667%,67.843137%)" d="M 199.335938 78 C 195.027344 78 190.597656 78.183594 186.039062 78.566406 C 145.726562 81.949219 116.816406 102.324219 93.464844 126.472656 C 76.988281 143.519531 64.746094 167.425781 61.300781 191.378906 C 56.304688 226.132812 65.695312 257.15625 89.410156 279.515625 C 109.519531 298.476562 141.328125 305.175781 174.710938 305.917969 C 198.128906 306.4375 220.109375 304.511719 239.796875 299.980469 C 249.636719 297.710938 259.273438 294.8125 265.476562 291.09375 C 271.679688 287.375 275.878906 282.585938 276.011719 276.71875 L 276.015625 276.695312 L 276.015625 276.671875 C 276.015625 267.117188 270.492188 259.269531 262.472656 252.882812 C 239.25 236.496094 220.234375 227.050781 194.472656 214.035156 C 187.375 210.675781 180.960938 206.265625 180.015625 199.242188 C 178.800781 190.253906 192.503906 187.527344 199.183594 186.792969 C 208.496094 185.953125 216.339844 186.320312 225.816406 187.269531 C 235.292969 188.21875 245.890625 196.699219 249.136719 197.96875 L 249.386719 198.066406 L 249.65625 198.109375 C 250.304688 198.195312 251.261719 197.832031 251.683594 197.367188 C 252.105469 196.894531 252.183594 196.527344 252.242188 196.273438 C 252.355469 195.765625 252.320312 195.53125 252.296875 195.277344 C 252.257812 194.761719 252.160156 194.277344 252.023438 193.660156 C 251.746094 192.433594 251.289062 190.785156 250.675781 188.796875 C 248.535156 176.480469 241.242188 158.800781 236.152344 148.222656 C 234.945312 146.0625 233.738281 144.179688 232.5 142.683594 C 231.261719 141.191406 230.039062 139.980469 228.242188 139.511719 C 225.878906 138.875 222.46875 138.707031 217.894531 138.765625 C 213.308594 138.828125 206.835938 139.164062 200.527344 139.78125 C 187.90625 141.023438 174.304688 143.375 159.847656 146.839844 C 145.394531 150.304688 131.761719 154.84375 122.230469 160.6875 C 117.464844 163.613281 112.492188 166.863281 110.238281 170.691406 C 107.984375 174.515625 107.4375 183.816406 109.167969 188.273438 L 109.167969 188.277344 C 112.859375 197.957031 123.398438 205.226562 134.917969 211.46875 C 159 224.570312 180.265625 232.925781 203.007812 246.960938 C 211.382812 251.515625 216.988281 258.273438 215.734375 265.125 C 214.410156 272.328125 205.75 275.933594 198.265625 278.410156 C 184.8125 282.867188 171.246094 282.398438 159.3125 281.988281 C 131.660156 280.800781 105.796875 274.988281 86.808594 253.496094 C 75.007812 240.140625 73.402344 226.410156 72.121094 206.746094 C 70.863281 187.480469 78.378906 165.992188 89.171875 150 C 113.164062 114.449219 144.40625 93.867188 185.808594 88.375 C 234.664062 82.132812 268.046875 99.65625 289.410156 118.53125 C 300.09375 127.972656 307.734375 139.394531 312.671875 146.703125 C 315.140625 150.355469 316.933594 153.390625 318.101562 155.453125 C 318.683594 156.484375 319.105469 157.273438 319.390625 157.796875 C 319.53125 158.058594 319.632812 158.242188 319.742188 158.429688 C 319.796875 158.523438 319.710938 158.507812 320.125 158.9375 C 320.230469 159.042969 320.890625 159.460938 320.894531 159.460938 C 320.898438 159.460938 323.6875 158.523438 323.6875 158.523438 C 323.6875 158.519531 324.007812 157.472656 324 157.28125 C 323.992188 157.09375 323.976562 157.003906 323.960938 156.929688 C 323.839844 156.304688 323.78125 156.332031 323.675781 156.078125 C 323.570312 155.824219 323.429688 155.519531 323.253906 155.148438 C 322.902344 154.410156 322.398438 153.417969 321.734375 152.195312 C 320.402344 149.753906 318.429688 146.40625 315.769531 142.476562 C 310.453125 134.613281 302.402344 122.777344 291.308594 112.878906 C 271.890625 95.554688 243.0625 79.164062 203.605469 78.070312 C 202.195312 78.03125 200.773438 78.007812 199.335938 78.007812 Z M 199.335938 78"/>
  <use mask="url(#mask2)" xlink:href="#surface11"/>
 </g>
</svg>
