<svg width="512" height="512" version="1.1" viewBox="0 0 384 384" xmlns="http://www.w3.org/2000/svg"><defs><clipPath><rect width="384" height="384"/></clipPath><clipPath><rect width="384" height="384"/></clipPath><clipPath><rect width="384" height="384"/></clipPath><clipPath><rect width="384" height="384"/></clipPath></defs><path d="m76.5 24c-9.1406 0-16.5 7.4922-16.5 16.801v302.4c0 9.3086 7.3594 16.801 16.5 16.801h231c9.1445 0 16.5-7.4883 16.5-16.801v-302.4c0-9.3086-7.3555-16.801-16.5-16.801z" fill="#2359b0"/><path d="m216.23 115.5c-35.43 0-65.719 22.043-77.938 53.047-0.65235 1.5781-1.2227 3.1953-1.7774 4.8164-0.10937 0.33594-0.23437 0.66406-0.33984 1.0039-2.6562 8.1172-4.1758 16.738-4.1758 25.73 0 46.004 37.566 83.402 83.773 83.402 35.098 0 65.172-21.605 77.625-52.145 4e-3 -8e-3 0.0117-0.0156 0.0117-0.0234 0.89843-2.1016 1.6523-4.2695 2.375-6.457 2.7031-8.1836 4.2188-16.902 4.2188-25.977 3e-5 -45.992-37.578-83.398-83.773-83.398zm-6.0274 13.02v28.07c-8-0.28125-15.648-1.125-22.719-2.457 1.0625-2.4766 2.1758-4.8594 3.3906-7.0352 5.5938-10.031 12.355-16.285 19.328-18.578zm11.965 0.46484c0.6289 0.10157 1.2695 0.17579 1.8906 0.28907 6.3047 2.7461 12.359 8.7031 17.449 17.824 1.1914 2.1328 2.2852 4.4726 3.3281 6.8984-7.0352 1.3633-14.68 2.25-22.668 2.5703zm-37.5 5.7461c-1.5 2.0859-2.9453 4.2461-4.25 6.582-1.7383 3.1172-3.293 6.4883-4.7227 10.008-3.5039-1.0234-6.7422-2.1797-9.7695-3.4336 5.4609-5.3359 11.793-9.7695 18.746-13.156zm64.34 1.793c3.2695 1.3047 5.7734 2.5195 8.2852 3.7422 3.1875 2.2188 6.1953 4.6758 8.9726 7.3672-2.9883 1.2656-6.2031 2.4375-9.6758 3.4766-1.4062-3.4375-2.9219-6.7461-4.625-9.7969-0.92968-1.6641-1.9336-3.2422-2.957-4.793zm25.078 20.102c7.6328 10.348 12.531 22.789 13.648 36.355h-22.531c-0.4375-10.895-2.082-21.199-4.7305-30.562 4.7773-1.457 9.2656-3.1328 13.367-5.0391 0.11328-0.25782 0.17578-0.50391 0.2461-0.75391zm-116.29 0.78906c4.293 1.9922 9.0273 3.7148 14.055 5.2148-2.6172 9.3086-4.2344 19.539-4.6719 30.352h-22.449c1.0859-13.219 5.7617-25.375 13.066-35.562zm91.062 7.9453c2.3789 8.3438 3.9219 17.684 4.3672 27.621h-31.059v-24.5c9.4024-0.34375 18.387-1.4024 26.691-3.1211zm-65.383 0.17579c8.3242 1.6719 17.32 2.6719 26.723 2.9688v24.477h-31.047c0.44531-9.8711 1.9688-19.145 4.3242-27.445zm-38.75 39.355h22.449c0.44922 11.109 2.1406 21.617 4.8828 31.133-4.9141 1.457-9.5274 3.1406-13.754 5.0625-7.582-10.312-12.457-22.699-13.578-36.195zm34.426 0h31.051v25.316c-9.3242 0.29297-18.25 1.2734-26.516 2.9219-2.4805-8.5-4.0742-18.059-4.5352-28.238zm43.016 0h31.059c-0.46094 10.246-2.0742 19.871-4.582 28.41-8.2461-1.6914-17.156-2.7305-26.477-3.0703zm43.035 0h22.527c-1.1328 13.656-6.1094 26.172-13.844 36.555-0.0234-0.0391-0.0234-0.082-0.0469-0.1172-4.1641-1.9336-8.7226-3.625-13.582-5.0976 2.7812-9.5664 4.4922-20.148 4.9453-31.34zm-55.004 37.23v27.223c-6.9688-2.3008-13.73-8.5312-19.328-18.559-1.0859-1.9492-2.0898-4.0703-3.0586-6.2695 6.9766-1.2969 14.512-2.1172 22.387-2.3945zm11.969 0.0234c7.8711 0.3125 15.398 1.168 22.352 2.5-0.95312 2.1523-1.9453 4.2266-3.0156 6.1445-5.5977 10.027-12.363 16.258-19.34 18.555v-27.199zm-46.16 5.1523c1.3516 3.2422 2.793 6.3789 4.4062 9.2734 1.2695 2.2734 2.6602 4.3945 4.1133 6.4336-6.6055-3.2383-12.629-7.4297-17.891-12.437 2.9336-1.1797 6.0156-2.3008 9.3711-3.2696zm80.281 0.21095c3.3203 0.98438 6.3789 2.1094 9.2656 3.3008-5.2266 4.9258-11.191 9.0508-17.727 12.238 1.4609-2.0547 2.8594-4.1875 4.1367-6.4804 1.582-2.8281 3-5.8946 4.3242-9.0625z" fill-rule="evenodd" opacity=".3"/><path d="m216.23 108c-35.43 0-65.719 22.043-77.938 53.047-0.65235 1.5781-1.2227 3.1953-1.7774 4.8164-0.10937 0.33594-0.23437 0.66406-0.33984 1.0039-2.6562 8.1172-4.1758 16.738-4.1758 25.73 0 46.004 37.566 83.402 83.773 83.402 35.098 0 65.172-21.605 77.625-52.145 4e-3 -8e-3 0.0117-0.0156 0.0117-0.0234 0.89843-2.1016 1.6523-4.2695 2.375-6.457 2.7031-8.1836 4.2188-16.902 4.2188-25.977 2e-5 -45.992-37.578-83.398-83.773-83.398zm-6.0274 13.02v28.07c-8-0.28125-15.648-1.125-22.719-2.457 1.0625-2.4766 2.1758-4.8594 3.3906-7.0352 5.5938-10.031 12.355-16.285 19.328-18.578zm11.965 0.46484c0.6289 0.10157 1.2695 0.17579 1.8906 0.28907 6.3047 2.7461 12.359 8.7031 17.449 17.824 1.1914 2.1328 2.2852 4.4726 3.3281 6.8984-7.0352 1.3633-14.68 2.25-22.668 2.5703zm-37.5 5.7461c-1.5 2.0859-2.9453 4.2461-4.25 6.582-1.7383 3.1172-3.293 6.4883-4.7227 10.008-3.5039-1.0234-6.7422-2.1797-9.7695-3.4336 5.4609-5.3359 11.793-9.7695 18.746-13.156zm64.34 1.793c3.2695 1.3047 5.7734 2.5195 8.2852 3.7422 3.1875 2.2188 6.1953 4.6758 8.9726 7.3672-2.9883 1.2656-6.2031 2.4375-9.6758 3.4766-1.4062-3.4375-2.9219-6.7461-4.625-9.7969-0.92968-1.6641-1.9336-3.2422-2.957-4.793zm25.078 20.102c7.6328 10.348 12.531 22.789 13.648 36.355h-22.531c-0.4375-10.895-2.082-21.199-4.7305-30.562 4.7773-1.457 9.2656-3.1328 13.367-5.0391 0.11328-0.25782 0.17578-0.50391 0.2461-0.75391zm-116.29 0.78906c4.293 1.9922 9.0273 3.7148 14.055 5.2148-2.6172 9.3086-4.2344 19.539-4.6719 30.352h-22.449c1.0859-13.219 5.7617-25.375 13.066-35.562zm91.062 7.9453c2.3789 8.3438 3.9219 17.684 4.3672 27.621h-31.059v-24.5c9.4024-0.34375 18.387-1.4024 26.691-3.1211zm-65.383 0.17579c8.3242 1.6719 17.32 2.6719 26.723 2.9688v24.477h-31.047c0.44531-9.8711 1.9688-19.145 4.3242-27.445zm-38.75 39.355h22.449c0.44922 11.109 2.1406 21.617 4.8828 31.133-4.9141 1.457-9.5274 3.1406-13.754 5.0625-7.582-10.312-12.457-22.699-13.578-36.195zm34.426 0h31.051v25.316c-9.3242 0.29297-18.25 1.2734-26.516 2.9219-2.4805-8.5-4.0742-18.059-4.5352-28.238zm43.016 0h31.059c-0.46094 10.246-2.0742 19.871-4.582 28.41-8.2461-1.6914-17.156-2.7305-26.477-3.0703zm43.035 0h22.527c-1.1328 13.656-6.1094 26.172-13.844 36.555-0.0234-0.0391-0.0234-0.082-0.0469-0.11719-4.1641-1.9336-8.7227-3.625-13.582-5.0976 2.7812-9.5664 4.4922-20.148 4.9453-31.34zm-55.004 37.23v27.223c-6.9688-2.3008-13.73-8.5312-19.328-18.559-1.0859-1.9492-2.0898-4.0703-3.0586-6.2695 6.9766-1.2969 14.512-2.1172 22.387-2.3945zm11.969 0.0234c7.8711 0.3125 15.398 1.168 22.352 2.5-0.95312 2.1523-1.9453 4.2266-3.0156 6.1445-5.5977 10.027-12.363 16.258-19.34 18.555v-27.199zm-46.16 5.1523c1.3516 3.2422 2.793 6.3789 4.4062 9.2734 1.2695 2.2734 2.6602 4.3945 4.1133 6.4336-6.6055-3.2383-12.629-7.4297-17.891-12.438 2.9336-1.1797 6.0156-2.3008 9.3711-3.2695zm80.281 0.21094c3.3203 0.98438 6.3789 2.1094 9.2656 3.3008-5.2266 4.9258-11.191 9.0508-17.727 12.238 1.4609-2.0547 2.8594-4.1875 4.1367-6.4805 1.582-2.8281 3-5.8945 4.3242-9.0625z" fill="#fff" fill-rule="evenodd"/><g stroke-width="1.3333"><path transform="scale(.75)" d="m102 32c-12.187 0-22 9.9889-22 22.4v403.2c0 12.411 9.8125 22.4 22 22.4h42.135v-448h-42.135z" fill="#0f0f0f" opacity=".3"/><path transform="scale(.75)" d="m102 32c-12.187 0-22 9.9889-22 22.4v10c0-12.411 9.8125-22.4 22-22.4h308c12.193 0 22 9.9889 22 22.4v-10c0-12.411-9.8073-22.4-22-22.4h-308z" fill="#fff" opacity=".3"/><path transform="scale(.75)" d="m80 447.6v10c0 12.411 9.8125 22.4 22 22.4h308c12.193 0 22-9.9837 22-22.4v-10c0 12.417-9.8073 22.4-22 22.4h-308c-12.187 0-22-9.9889-22-22.4z" opacity=".3"/></g></svg>
