<svg width="512" height="512" version="1.1" viewBox="0 0 384 384" xmlns="http://www.w3.org/2000/svg"><defs><linearGradient id="b" x1="166.47" x2="283.56" y1="270.99" y2="370.27" gradientTransform="matrix(.75386 0 0 .69542 -.94953 9.8514)" gradientUnits="userSpaceOnUse"><stop stop-color="#e5e5e5" offset="0"/><stop stop-color="#fff" offset="1"/></linearGradient><clipPath id="c"><rect width="384" height="384"/></clipPath><linearGradient id="a" x1="166.47" x2="283.56" y1="270.99" y2="370.27" gradientTransform="matrix(.75386 0 0 .69542 -.94892 9.8515)" gradientUnits="userSpaceOnUse"><stop stop-color="#e5e5e5" offset="0"/><stop stop-color="#fff" offset="1"/></linearGradient></defs><path d="m26.635 92.539c-1.9961 0.61328-3.5659 2.1635-4.2144 4.144v230.05c0.09751 0.2994 0.21632 0.58927 0.35449 0.86722 0.02265 0.0454 0.05396 0.0855 0.07764 0.13035 0.12193 0.2313 0.25028 0.459 0.39844 0.67238 0.17614 0.25365 0.37013 0.49275 0.58008 0.71775 0.21004 0.22515 0.43642 0.43552 0.67676 0.62842 0.48046 0.38573 1.018 0.7017 1.5981 0.9375 0.56404 0.2292 1.167 0.38415 1.7988 0.44535h327.87c1.4072-0.13635 2.6777-0.72442 3.6709-1.6157 9e-3 -8e-3 0.0179-0.0143 0.0264-0.022 1e-3 -9.7e-4 2e-3 -2e-3 3e-3 -3e-3 0.14277-0.12968 0.27958-0.26535 0.41016-0.40725 0.0881-0.0958 0.16971-0.19778 0.25195-0.2988 0.0434-0.0532 0.0902-0.10365 0.13184-0.15825 2e-3 -2e-3 4e-3 -5e-3 6e-3 -7e-3 0.11345-0.14932 0.22052-0.30375 0.3208-0.4629 3e-3 -5e-3 7e-3 -0.0107 0.0103-0.0161 0.10054-0.16065 0.19346-0.32528 0.27979-0.49515 2e-4 -3.8e-4 -2e-4 -1e-3 0-1e-3 0.0545-0.10732 0.1023-0.21892 0.15088-0.32962 0.0306-0.0696 0.0656-0.1371 0.0937-0.20798 2e-3 -4e-3 3e-3 -8e-3 4e-3 -0.0117 0.0711-0.18015 0.13406-0.36457 0.18897-0.5523 9.8e-4 -3e-3 2e-3 -7e-3 3e-3 -0.0102 0.055-0.18937 0.1014-0.38242 0.13916-0.57862 3.7e-4 -2e-3 1e-3 -4e-3 1e-3 -6e-3 0.0377-0.19695 0.067-0.39765 0.0864-0.6006 1.4e-4 -1e-3 -1.4e-4 -3e-3 0-4e-3 0.0194-0.20445 0.0293-0.41137 0.0293-0.62107v-226.03c0-2.9062-1.9067-5.3482-4.5396-6.1568z" fill="url(#a)" opacity=".2" stroke="#000" stroke-width="7.5"/><path d="m135.34 52.867h112.96v12.512h-112.96z" fill="#b3b3b3"/><path d="m135.31 52.883-14.867 11.906v27.75h-93.805c-1.9961 0.61328-3.5664 2.1641-4.2148 4.1445v230.05c0.77734 2.3867 2.9023 4.1484 5.4844 4.3984h327.87c3.2656-0.31641 5.8086-3.0547 5.8086-6.4102v-226.03c0-2.9062-1.9062-5.3477-4.5391-6.1562h-93.402v-27.023l-15.34-12.633 0.0391 39.656h-113.12z" fill="url(#b)"/><path d="m22.42 252.01v74.727c0.78516 2.4023 2.9336 4.1719 5.543 4.3984h327.75c3.2969-0.28907 5.8672-3.0352 5.8672-6.4102v-72.715z" fill="#fff"/><path d="m361.58 317.22c0 3.375-2.5698 6.1211-5.8667 6.4102h-327.75c-2.6094-0.22659-4.7578-1.9966-5.543-4.3989v7.5c0.78516 2.4023 2.9336 4.1723 5.543 4.3989h327.75c3.2969-0.28908 5.8667-3.0352 5.8667-6.4102z" fill="#010101" opacity=".3"/><path d="m378.53 324.8c-17.007 46.664-68.6 70.725-115.27 53.757-46.675-16.962-70.779-68.537-53.854-115.23 16.925-46.689 68.478-70.834 115.18-53.949 46.703 16.889 70.894 68.422 54.046 115.14" fill="#0d0202" fill-rule="evenodd" opacity=".3" stroke-width="1.0449"/><path d="m378.53 317.3c-17.007 46.664-68.6 70.725-115.27 53.757-46.675-16.962-70.779-68.537-53.854-115.23 16.925-46.689 68.478-70.834 115.18-53.949 46.703 16.889 70.894 68.422 54.046 115.14" fill="#e32e2e" fill-rule="evenodd" stroke-width="1.0449"/><g transform="translate(6.6699 3.7344)" clip-path="url(#c)"><path d="m15.75 102.66c0-3.375 2.5703-6.1211 5.8672-6.4102h327.75c2.6055 0.23047 4.7578 1.9961 5.543 4.3984v-7.5c-0.78516-2.4023-2.9375-4.168-5.543-4.3984h-327.75c-3.2969 0.28906-5.8672 3.0352-5.8672 6.4102z" fill="#fff"/></g><path d="m324.21 239.51c-3.414 0.0784-6.7068 1.8709-8.5421 5.0568-2.7939 4.8359-1.1368 11.041 3.7026 13.817 4.8395 2.8152 11.033 1.1546 13.827-3.6813 2.7939-4.8466 1.1226-11.047-3.7169-13.817-1.208-0.89091-2.4981-1.176-3.8024-1.3079v4e-3c-0.4918-0.0606-0.98-0.0819-1.4682-0.0713zm-25.548 10.787v0.0963c-6.999 0-13.61 1.6571-19.482 4.565l7.0311 12.598c3.7845-1.6606 8.0004-2.7547 12.451-2.7547 15.442 0 28.113 11.849 29.443 26.927l14.419-0.17106c-0.70916-11.147-5.5878-21.179-13.071-28.53-3.8488 1.3471-8.2819 1.1082-12.124-1.0798-3.8488-2.2415-6.2649-5.9976-6.9278-10.028-3.7419-1.2152-7.6689-1.6214-11.739-1.6214zm-24.383 7.3982c-8.8556 5.9157-15.445 14.939-18.178 25.537 3.1966 2.6442 5.2243 6.5964 5.2243 11.026 0 4.4368-2.0277 8.3924-5.2243 11.033 2.7333 10.598 9.3228 19.618 18.178 25.537l7.3875-12.359c-7.6012-5.3811-12.569-14.204-12.569-24.211 0-9.996 4.9677-18.82 12.569-24.204zm-27.165 26.428c-5.5878 0-10.11 4.5437-10.11 10.135 0 5.602 4.5222 10.135 10.11 10.135 5.5878 0 10.128-4.533 10.128-10.135 0-5.5914-4.5401-10.135-10.128-10.135zm80.991 12.748v0.0748c-1.3292 15.071-14.002 26.905-29.443 26.905-4.451 0-8.6668-0.9693-12.451-2.7476l-7.0311 12.594c5.8729 2.9293 12.484 4.5615 19.482 4.5615 4.0697 0 7.9968-0.45971 11.738-1.5752 0.65928-4.0769 3.079-7.8401 6.9278-10.028 3.838-2.3734 8.289-2.5658 12.138-1.1083 7.4801-7.366 12.348-17.373 13.057-28.509zm-3.4639 31.941c-0.48823-0.0213-0.97643-0.0109-1.4682 0.0357-1.3008 0.1283-2.5907 0.79115-3.8025 1.3043-4.8394 2.7761-6.4966 8.9732-3.7026 13.817 2.7975 4.8786 8.9876 6.5001 13.827 3.6813 4.8394-2.7761 6.4965-8.9732 3.7026-13.819-1.8353-3.1717-5.1388-4.8751-8.5563-5.0176z" fill="#010101" opacity=".3" stroke-width=".9123"/><path d="m324.21 232.01c-3.414 0.0784-6.7068 1.8709-8.5421 5.0568-2.7939 4.8359-1.1368 11.041 3.7026 13.817 4.8395 2.8152 11.033 1.1546 13.827-3.6813 2.7939-4.8466 1.1226-11.047-3.7169-13.817-1.208-0.89091-2.4981-1.176-3.8024-1.3079v4e-3c-0.4918-0.0606-0.97999-0.0819-1.4682-0.0713zm-25.548 10.787v0.0963c-6.999 0-13.61 1.6571-19.482 4.565l7.0311 12.598c3.7846-1.6606 8.0004-2.7547 12.451-2.7547 15.442 0 28.113 11.849 29.443 26.927l14.419-0.17106c-0.70917-11.147-5.5878-21.179-13.071-28.53-3.8488 1.3471-8.2819 1.1082-12.124-1.0798-3.8488-2.2415-6.2649-5.9976-6.9278-10.028-3.7419-1.2152-7.6689-1.6214-11.739-1.6214zm-24.383 7.3982c-8.8556 5.9157-15.445 14.939-18.178 25.537 3.1966 2.6442 5.2244 6.5964 5.2244 11.026 0 4.4368-2.0277 8.3924-5.2244 11.033 2.7333 10.598 9.3228 19.618 18.178 25.537l7.3875-12.359c-7.6012-5.3811-12.569-14.204-12.569-24.211 0-9.996 4.9677-18.82 12.569-24.204zm-27.165 26.428c-5.5878 0-10.11 4.5437-10.11 10.135 0 5.602 4.5222 10.135 10.11 10.135 5.5878 0 10.128-4.533 10.128-10.135 0-5.5914-4.5401-10.135-10.128-10.135zm80.991 12.748v0.0748c-1.3292 15.071-14.002 26.905-29.443 26.905-4.451 0-8.6668-0.96931-12.451-2.7476l-7.0311 12.594c5.8729 2.9293 12.484 4.5615 19.482 4.5615 4.0697 0 7.9968-0.45971 11.738-1.5752 0.65928-4.0769 3.079-7.8401 6.9278-10.028 3.838-2.3734 8.289-2.5658 12.138-1.1083 7.4801-7.366 12.348-17.373 13.057-28.509zm-3.4639 31.941c-0.48823-0.0213-0.97643-0.0109-1.4682 0.0357-1.3008 0.1283-2.5907 0.79115-3.8025 1.3043-4.8394 2.7761-6.4966 8.9732-3.7026 13.817 2.7975 4.8786 8.9876 6.5001 13.827 3.6813 4.8394-2.7761 6.4965-8.9732 3.7026-13.819-1.8353-3.1717-5.1388-4.8751-8.5563-5.0176z" fill="#fff" stroke-width=".9123"/></svg>
