<svg xmlns="http://www.w3.org/2000/svg" xmlns:xlink="http://www.w3.org/1999/xlink" width="384pt" height="384pt" version="1.1" viewBox="0 0 384 384">
 <defs>
  <filter id="alpha" width="100%" height="100%" x="0%" y="0%" filterUnits="objectBoundingBox">
   <feColorMatrix in="SourceGraphic" type="matrix" values="0 0 0 0 1 0 0 0 0 1 0 0 0 0 1 0 0 0 1 0"/>
  </filter>
  <mask id="mask0">
   <g filter="url(#alpha)">
    <rect width="384" height="384" x="0" y="0" style="fill:rgb(0%,0%,0%);fill-opacity:0.2"/>
   </g>
  </mask>
  <clipPath id="clip1">
   <rect width="384" height="384" x="0" y="0"/>
  </clipPath>
  <g id="surface5" clip-path="url(#clip1)">
   <path style="fill:rgb(0%,0%,0%)" d="M 12.304688 192 C 12.238281 194.015625 12 195.972656 12 198 C 12 297.71875 92.28125 378 192 378 C 291.71875 378 372 297.71875 372 198 C 372 195.972656 371.761719 194.015625 371.699219 192 C 368.519531 288.886719 289.691406 366 192 366 C 94.308594 366 15.480469 288.886719 12.300781 192 Z M 12.304688 192"/>
  </g>
  <mask id="mask1">
   <g filter="url(#alpha)">
    <rect width="384" height="384" x="0" y="0" style="fill:rgb(0%,0%,0%);fill-opacity:0.2"/>
   </g>
  </mask>
  <clipPath id="clip2">
   <rect width="384" height="384" x="0" y="0"/>
  </clipPath>
  <g id="surface8" clip-path="url(#clip2)">
   <path style="fill:rgb(100%,100%,100%)" d="M 192 12 C 92.378906 12.007812 12.175781 92.285156 12.175781 192 C 12.175781 193.101562 12.21875 194.191406 12.246094 195.28125 C 13.695312 96.835938 93.292969 18.007812 192 18 L 192.011719 18 C 290.664062 18.007812 370.226562 96.742188 371.765625 195.105469 C 371.796875 194.074219 371.835938 193.042969 371.835938 192 C 371.835938 92.285156 291.636719 12.007812 192.011719 12 Z M 156.480469 196.5 C 156.292969 197.988281 156.035156 199.460938 156.035156 201 C 156.035156 202.316406 156.109375 203.609375 156.246094 204.890625 C 156.339844 204.097656 156.378906 203.292969 156.480469 202.5 C 158.714844 220.234375 173.675781 234 192 234 C 210.324219 234 225.273438 220.234375 227.507812 202.5 C 227.605469 203.285156 227.660156 204.082031 227.753906 204.867188 C 227.890625 203.59375 227.964844 202.308594 227.964844 201 C 227.964844 199.460938 227.695312 197.988281 227.507812 196.5 C 225.273438 214.234375 210.324219 228 192 228 C 173.675781 228 158.714844 214.234375 156.480469 196.5 Z M 156.480469 196.5"/>
  </g>
  <mask id="mask2">
   <g filter="url(#alpha)">
    <rect width="384" height="384" x="0" y="0" style="fill:rgb(0%,0%,0%);fill-opacity:0.2"/>
   </g>
  </mask>
  <clipPath id="clip3">
   <rect width="384" height="384" x="0" y="0"/>
  </clipPath>
  <g id="surface11" clip-path="url(#clip3)">
   <path style="fill:rgb(0%,0%,0%)" d="M 240.421875 315.671875 C 239.382812 327.929688 241.207031 339.503906 247.570312 349.539062 C 271.570312 387.386719 353.171875 387.578125 376.890625 349.539062 C 382.871094 339.953125 384.671875 329.058594 383.664062 317.523438 C 382.898438 324.617188 380.75 331.355469 376.890625 337.539062 C 353.167969 375.578125 271.570312 375.386719 247.570312 337.539062 C 243.328125 330.855469 241.175781 323.457031 240.421875 315.671875 Z M 240.421875 315.671875"/>
  </g>
 </defs>
 <g>
  <use mask="url(#mask0)" xlink:href="#surface5"/>
  <path style="fill:rgb(64.705882%,64.705882%,64.705882%)" d="M 192 102 C 142.292969 102 102 142.292969 102 192 C 102 241.707031 142.292969 282 192 282 C 241.707031 282 282 241.707031 282 192 C 282 142.292969 241.707031 102 192 102 Z M 192 156 C 211.882812 156 228 172.117188 228 192 C 228 211.882812 211.882812 228 192 228 C 172.117188 228 156 211.882812 156 192 C 156 172.117188 172.117188 156 192 156 Z M 192 156"/>
  <path style="fill:rgb(71.764706%,76.470588%,80.392157%)" d="M 192 12 C 92.28125 12 12 92.28125 12 192 C 12 291.71875 92.28125 372 192 372 C 291.71875 372 372 291.71875 372 192 C 372 92.28125 291.71875 12 192 12 Z M 192 120 C 231.765625 120 264 152.234375 264 192 C 264 231.765625 231.765625 264 192 264 C 152.234375 264 120 231.765625 120 192 C 120 152.234375 152.234375 120 192 120 Z M 192 120"/>
  <use mask="url(#mask1)" xlink:href="#surface8"/>
  <use mask="url(#mask2)" xlink:href="#surface11"/>
  <path style="fill:rgb(100%,78.431373%,19.215686%)" d="M 310.824219 180 C 289.390625 210.007812 216.5625 294.625 247.582031 343.546875 C 271.585938 381.394531 353.175781 381.589844 376.894531 343.546875 C 407.769531 294.058594 329.074219 210 310.835938 180 Z M 310.824219 180"/>
 </g>
</svg>
