<svg xmlns="http://www.w3.org/2000/svg" xmlns:xlink="http://www.w3.org/1999/xlink" width="384pt" height="384pt" version="1.1" viewBox="0 0 384 384"> <defs> <filter id="alpha" width="100%" height="100%" x="0%" y="0%" filterUnits="objectBoundingBox"> <feColorMatrix in="SourceGraphic" type="matrix" values="0 0 0 0 1 0 0 0 0 1 0 0 0 0 1 0 0 0 1 0"/> </filter> <mask id="mask0"> <g filter="url(#alpha)"> <rect width="384" height="384" x="0" y="0" style="fill:rgb(0%,0%,0%);fill-opacity:0.2"/> </g> </mask> <clipPath id="clip1"> <rect width="384" height="384" x="0" y="0"/> </clipPath> <g id="surface5" clip-path="url(#clip1)"> <path style="fill:rgb(100.000%,100.000%,100.000%)" d="M 145.945312 103.976562 C 136.835938 103.976562 134.617188 104.328125 134.03125 105.855469 C 133.503906 107.234375 133.285156 114.859375 133.351562 121.910156 C 133.398438 116.417969 133.617188 111.4375 134.03125 110.355469 C 134.617188 108.828125 136.835938 108.476562 145.945312 108.476562 C 160.230469 108.476562 164.789062 110.222656 167.527344 116.75 C 169.417969 121.246094 169.8125 121.515625 174.578125 121.527344 L 179.625 121.539062 L 179.625 117.039062 L 176.335938 117.03125 C 175.28125 118.941406 174.378906 120.351562 174.179688 120.351562 C 174 120.351562 173.128906 118.933594 172.039062 116.933594 C 169.597656 116.6875 169.003906 115.761719 167.527344 112.25 C 164.789062 105.722656 160.230469 103.976562 145.945312 103.976562 Z M 167.707031 103.976562 L 169.988281 108.476562 L 173.667969 108.476562 C 175.488281 108.476562 177.101562 108.640625 178.199219 108.890625 C 179.03125 107.105469 179.625 105.582031 179.625 105.128906 C 179.625 104.496094 176.941406 103.976562 173.667969 103.976562 Z M 180.8125 103.976562 L 180.8125 108.476562 L 193.953125 108.476562 C 201.179688 108.476562 208.125 109.03125 209.390625 109.707031 C 210.972656 110.554688 211.6875 110.554688 211.6875 109.707031 C 211.6875 108.917969 217.457031 108.476562 227.71875 108.476562 L 243.75 108.476562 L 243.75 103.976562 L 227.71875 103.976562 C 217.457031 103.976562 211.6875 104.417969 211.6875 105.207031 C 211.6875 106.054688 210.972656 106.054688 209.390625 105.207031 C 208.125 104.53125 201.179688 103.976562 193.953125 103.976562 Z M 195.753906 116.914062 C 194.210938 116.976562 193.875 117.566406 193.875 119.164062 C 193.875 121.300781 194.472656 121.632812 197.734375 121.316406 C 200.207031 121.078125 201.59375 120.308594 201.59375 119.164062 C 201.59375 118.023438 200.207031 117.25 197.734375 117.011719 C 196.917969 116.933594 196.269531 116.894531 195.753906 116.914062 Z M 122.75 119.414062 C 122.027344 119.414062 121.4375 119.949219 121.4375 120.601562 C 121.4375 121.253906 121.035156 121.703125 120.546875 121.597656 C 120.054688 121.492188 118.050781 122.113281 116.09375 122.976562 C 114.132812 123.839844 111.863281 124.4375 111.046875 124.304688 C 110.230469 124.171875 109.5625 124.59375 109.5625 125.246094 C 109.5625 125.898438 107.695312 126.78125 105.417969 127.210938 C 102.933594 127.675781 101.582031 128.492188 102.046875 129.246094 C 102.535156 130.03125 102.085938 130.222656 100.863281 129.753906 C 99.515625 129.238281 98.320312 130.007812 97.03125 132.222656 C 96.003906 133.996094 95.445312 134.511719 95.792969 133.367188 C 96.140625 132.226562 95.90625 131.289062 95.273438 131.289062 C 94.640625 131.289062 94.125 131.511719 94.125 131.785156 C 94.125 132.058594 93.820312 133.082031 93.445312 134.058594 C 93.113281 134.917969 93.40625 135.664062 94.191406 136.125 C 94.347656 135.929688 94.773438 135.789062 95.273438 135.789062 C 95.632812 135.789062 95.859375 136.097656 95.925781 136.570312 C 96.246094 136.59375 96.664062 136.613281 97.09375 136.628906 C 98.355469 134.492188 99.539062 133.746094 100.863281 134.253906 C 102.085938 134.722656 102.535156 134.53125 102.046875 133.746094 C 101.582031 132.992188 102.933594 132.175781 105.417969 131.710938 C 107.695312 131.28125 109.5625 130.398438 109.5625 129.746094 C 109.5625 129.09375 110.230469 128.671875 111.046875 128.804688 C 111.863281 128.9375 114.132812 128.339844 116.09375 127.476562 C 118.050781 126.613281 120.054688 125.992188 120.546875 126.097656 C 121.035156 126.203125 121.4375 125.753906 121.4375 125.101562 C 121.4375 124.449219 122.027344 123.914062 122.75 123.914062 C 123.472656 123.914062 123.777344 124.671875 123.421875 125.597656 C 123.066406 126.523438 123.542969 127.574219 124.480469 127.933594 C 125.386719 128.28125 125.925781 129.652344 126.113281 131.976562 C 126.164062 131.28125 126.1875 130.449219 126.1875 129.375 C 126.1875 125.875 125.609375 123.867188 124.480469 123.433594 C 123.542969 123.074219 123.066406 122.023438 123.421875 121.097656 C 123.777344 120.171875 123.472656 119.414062 122.75 119.414062 Z M 156.484375 121.988281 C 155.324219 124.496094 152.582031 126.539062 149.871094 126.539062 C 146.890625 126.539062 146.453125 126.449219 146.386719 122.269531 C 146.378906 122.917969 146.375 123.648438 146.375 124.507812 C 146.375 130.945312 146.425781 131.039062 149.871094 131.039062 C 153.4375 131.039062 157.0625 127.511719 157.0625 124.042969 C 157.0625 123.351562 156.847656 122.65625 156.484375 121.988281 Z M 212.984375 122.652344 C 212.234375 124.242188 212 125.84375 212.738281 126.765625 C 213.566406 127.792969 214.699219 132.09375 215.285156 135.511719 C 215.375 135.476562 215.453125 135.4375 215.492188 135.402344 C 216.273438 134.617188 214.347656 125.164062 212.984375 122.652344 Z M 258.417969 122.660156 C 257.664062 122.652344 256.871094 122.761719 256.21875 123 C 254.910156 123.46875 251.839844 123.632812 249.390625 123.363281 L 244.9375 122.871094 L 244.9375 127.371094 L 249.390625 127.863281 C 251.839844 128.132812 254.910156 127.96875 256.21875 127.5 C 257.523438 127.027344 259.394531 127.054688 260.375 127.554688 C 262.253906 128.515625 271.234375 132.585938 272.25 132.9375 C 272.488281 133.019531 273.617188 133.386719 274.628906 133.71875 C 274.824219 133.707031 276.007812 133.65625 276.109375 133.648438 C 279.089844 133.460938 278.671875 130.539062 275.515625 129.511719 C 274.046875 129.03125 272.574219 128.546875 272.25 128.4375 C 271.234375 128.085938 262.253906 124.015625 260.375 123.054688 C 259.882812 122.804688 259.171875 122.671875 258.417969 122.660156 Z M 298.304688 123.914062 C 297.613281 123.914062 297.378906 124.449219 297.78125 125.101562 C 298.183594 125.753906 298.75 126.289062 299.039062 126.289062 C 299.324219 126.289062 299.5625 125.753906 299.5625 125.101562 C 299.5625 124.449219 298.996094 123.914062 298.304688 123.914062 Z M 280.425781 131.972656 C 279.792969 132 279.375 132.21875 279.375 132.589844 C 279.375 133.179688 280.441406 133.664062 281.75 133.664062 C 283.054688 133.664062 284.125 133.460938 284.125 133.210938 C 284.125 132.960938 283.054688 132.476562 281.75 132.132812 C 281.257812 132.003906 280.804688 131.953125 280.425781 131.972656 Z M 91.226562 132.476562 C 90.9375 132.476562 90.371094 133.011719 89.96875 133.664062 C 89.5625 134.320312 89.800781 134.851562 90.492188 134.851562 C 91.183594 134.851562 91.75 134.320312 91.75 133.664062 C 91.75 133.011719 91.515625 132.476562 91.226562 132.476562 Z M 352.652344 142.894531 L 346.863281 143.453125 C 343.679688 143.757812 340.75 144.332031 340.355469 144.722656 C 339.988281 145.09375 339.773438 150.289062 339.84375 156.46875 C 339.898438 152.472656 340.082031 149.496094 340.355469 149.222656 C 340.75 148.832031 343.679688 148.257812 346.863281 147.953125 L 352.652344 147.394531 L 353.433594 165.636719 C 353.863281 175.671875 354.546875 189.113281 354.949219 195.511719 L 355.402344 202.609375 L 355.6875 202.636719 L 354.949219 191.011719 C 354.546875 184.613281 353.863281 171.171875 353.433594 161.136719 Z M 333.101562 144.945312 L 319.003906 145.375 C 311.25 145.609375 304.671875 146.023438 304.386719 146.289062 C 304.101562 146.558594 303.566406 155.179688 303.199219 165.453125 L 302.53125 184.132812 L 300.976562 172.257812 C 300.121094 165.726562 298.886719 157.171875 298.230469 153.25 L 297.042969 146.117188 L 290.285156 146.71875 L 283.53125 147.320312 L 282.808594 162.757812 C 282.410156 171.25 281.949219 178.464844 281.777344 178.789062 C 281.609375 179.117188 280.527344 172.277344 279.371094 163.589844 C 278.21875 154.902344 277.078125 147.605469 276.839844 147.378906 C 276.601562 147.148438 273.410156 147.308594 269.753906 147.734375 L 263.105469 148.507812 L 263.847656 152.921875 L 269.753906 152.234375 C 273.410156 151.808594 276.601562 151.648438 276.839844 151.878906 C 277.078125 152.105469 278.21875 159.402344 279.371094 168.089844 C 280.527344 176.777344 281.609375 183.617188 281.777344 183.289062 C 281.949219 182.964844 282.410156 175.75 282.808594 167.257812 L 283.53125 151.820312 L 290.285156 151.21875 L 297.042969 150.617188 L 298.230469 157.75 C 298.886719 161.671875 300.121094 170.226562 300.976562 176.757812 L 302.53125 188.632812 L 303.199219 169.953125 C 303.566406 159.679688 304.101562 151.058594 304.386719 150.789062 C 304.671875 150.523438 311.25 150.109375 319.003906 149.875 L 333.101562 149.445312 L 335.957031 161.253906 C 337.527344 167.746094 339.09375 173.339844 339.4375 173.683594 C 339.753906 174.003906 339.925781 169.507812 339.863281 163.550781 C 339.816406 167.054688 339.667969 169.414062 339.4375 169.183594 C 339.09375 168.839844 337.527344 163.246094 335.957031 156.753906 Z M 247.0625 148.507812 C 238.398438 148.507812 235.210938 148.976562 232.710938 150.613281 C 229.625 152.636719 229.5 153.128906 229.5 163.082031 C 229.5 163.316406 229.515625 163.742188 229.519531 164 C 229.59375 157.496094 230.054688 156.855469 232.710938 155.113281 C 235.210938 153.476562 238.398438 153.007812 247.0625 153.007812 C 262.222656 153.007812 262.195312 152.96875 263.226562 175.214844 C 263.660156 184.554688 264.324219 195 264.707031 198.429688 L 264.898438 200.164062 L 265.398438 200.164062 L 264.707031 193.929688 C 264.324219 190.5 263.660156 180.054688 263.226562 170.714844 C 262.195312 148.46875 262.222656 148.507812 247.0625 148.507812 Z M 43.679688 149.101562 C 34.40625 149.101562 33.183594 149.375 30.539062 152.015625 C 27.910156 154.648438 27.625 155.902344 27.625 164.882812 C 27.625 165.390625 27.636719 165.847656 27.640625 166.339844 C 27.734375 160.066406 28.238281 158.816406 30.539062 156.515625 C 33.183594 153.875 34.40625 153.601562 43.679688 153.601562 C 53.414062 153.601562 58.035156 154.746094 59.964844 157.640625 C 60.414062 158.3125 60.785156 162.546875 60.835938 167.246094 C 60.851562 166.222656 60.859375 165.082031 60.855469 163.648438 C 60.847656 158.585938 60.445312 153.859375 59.964844 153.140625 C 58.035156 150.246094 53.414062 149.101562 43.679688 149.101562 Z M 65.625 149.101562 L 65.625 153.601562 L 81.0625 153.601562 L 81.0625 149.101562 Z M 84.625 149.101562 L 84.625 153.601562 L 91.75 153.601562 C 98.332031 153.601562 98.878906 153.804688 98.917969 156.273438 C 98.9375 157.484375 98.941406 169.027344 98.941406 180.9375 C 98.945312 166.625 98.941406 153.191406 98.917969 151.773438 C 98.878906 149.304688 98.332031 149.101562 91.75 149.101562 Z M 137.738281 149.101562 L 138.375 153.601562 L 145.027344 153.601562 C 150.019531 153.601562 152.335938 154.070312 152.390625 155.085938 C 152.4375 155.902344 153.128906 164.585938 153.933594 174.382812 L 155.398438 192.195312 L 156.914062 174.382812 C 157.746094 164.585938 158.636719 155.902344 158.894531 155.085938 C 159.191406 154.136719 161.699219 153.601562 165.835938 153.601562 C 173.445312 153.601562 173.125 152.90625 174.386719 172.304688 C 174.824219 179 175.566406 184.476562 176.039062 184.476562 C 176.9375 184.476562 178.417969 168.882812 178.429688 159.242188 L 178.4375 153.601562 L 185.363281 153.601562 C 189.175781 153.601562 192.621094 153.933594 193.027344 154.339844 C 193.433594 154.746094 199.535156 154.988281 206.585938 154.878906 C 215.753906 154.734375 220.027344 155.136719 221.59375 156.28125 C 224.722656 158.578125 225.632812 165.273438 226.546875 192.789062 C 226.722656 198.09375 226.859375 202.367188 226.910156 205.859375 C 226.976562 201.761719 226.808594 196.164062 226.546875 188.289062 C 225.632812 160.773438 224.722656 154.078125 221.59375 151.78125 C 220.027344 150.636719 215.753906 150.234375 206.585938 150.378906 C 199.535156 150.488281 193.433594 150.246094 193.027344 149.839844 C 192.621094 149.433594 189.175781 149.101562 185.363281 149.101562 L 178.4375 149.101562 L 178.429688 154.742188 C 178.417969 164.382812 176.9375 179.976562 176.039062 179.976562 C 175.566406 179.976562 174.824219 174.5 174.386719 167.804688 C 173.125 148.40625 173.445312 149.101562 165.835938 149.101562 C 161.699219 149.101562 159.191406 149.636719 158.894531 150.585938 C 158.636719 151.402344 157.746094 160.085938 156.914062 169.882812 L 155.398438 187.695312 L 153.933594 169.882812 C 153.128906 160.085938 152.4375 151.402344 152.390625 150.585938 C 152.335938 149.570312 150.019531 149.101562 145.027344 149.101562 Z M 114.78125 149.128906 C 109.707031 149.128906 108.824219 149.730469 106.648438 151.90625 C 104.132812 154.421875 103.625 156.042969 103.625 161.515625 C 103.625 162.5 103.636719 163.296875 103.660156 164.011719 C 103.800781 160.101562 104.472656 158.582031 106.648438 156.40625 C 109.546875 153.507812 110.152344 153.398438 121.453125 153.789062 C 136.246094 154.300781 137.425781 152.703125 137.476562 175.542969 C 137.515625 148.324219 137.097656 149.828125 121.453125 149.289062 C 118.628906 149.191406 116.472656 149.125 114.78125 149.128906 Z M 43.195312 167.582031 C 43.101562 168.503906 43.105469 169.824219 43.179688 171.609375 C 43.253906 170.484375 43.269531 169.152344 43.203125 167.730469 C 43.199219 167.675781 43.199219 167.636719 43.195312 167.582031 Z M 122.625 167.773438 L 122.625 171.414062 L 125.890625 171.238281 L 129.15625 171.058594 L 125.890625 170.566406 C 123.625 170.222656 122.625 169.367188 122.625 167.773438 Z M 103.691406 169.433594 L 103.480469 169.472656 L 103.554688 173.957031 L 106.222656 173.449219 L 108.96875 172.925781 L 106.296875 172.761719 C 104.445312 172.652344 103.867188 172.253906 103.691406 169.433594 Z M 245.167969 169.714844 C 245.101562 173.425781 245.210938 179.027344 245.5 186.554688 C 246.296875 207.371094 247.589844 214.921875 249.269531 208.503906 C 249.894531 206.109375 250.699219 205.851562 257.542969 205.851562 L 265.113281 205.851562 C 265.117188 205.71875 265.125 205.585938 265.125 205.453125 L 265.125 204.664062 L 249.992188 204.664062 L 249.832031 202.632812 C 249.582031 202.984375 249.417969 203.433594 249.269531 204.003906 C 247.589844 210.421875 246.296875 202.871094 245.5 182.054688 C 245.308594 177.085938 245.203125 173.023438 245.167969 169.714844 Z M 207.085938 170.53125 C 206.996094 173.160156 207.128906 177.464844 207.445312 184.773438 C 207.871094 194.734375 208.511719 204.886719 208.871094 207.335938 C 209.484375 211.546875 211.015625 213.207031 211.882812 210.605469 C 212 210.253906 211.996094 208.429688 211.910156 205.925781 C 211.898438 205.980469 211.894531 206.074219 211.882812 206.105469 C 211.015625 208.707031 209.484375 207.046875 208.871094 202.835938 C 208.511719 200.386719 207.871094 190.234375 207.445312 180.273438 C 207.269531 176.175781 207.144531 173.003906 207.085938 170.53125 Z M 114.3125 171.566406 C 113.773438 171.566406 113.234375 171.652344 112.828125 171.816406 C 112.011719 172.144531 112.679688 172.414062 114.3125 172.414062 C 115.945312 172.414062 116.613281 172.144531 115.796875 171.816406 C 115.386719 171.652344 114.851562 171.566406 114.3125 171.566406 Z M 84.625 172.886719 C 84.574219 172.9375 84.535156 172.988281 84.503906 173.039062 C 83.761719 174.230469 82.976562 174.3125 81.394531 173.359375 C 81.304688 173.304688 81.175781 173.257812 81.0625 173.210938 L 81.0625 174.667969 L 76.609375 175.402344 C 74.160156 175.808594 70.6875 176.144531 68.890625 176.152344 L 66.179688 176.160156 L 65.894531 195.710938 L 65.574219 217.976562 L 65.636719 217.976562 L 65.894531 200.210938 L 66.21875 177.945312 L 72.75 177.265625 C 76.5625 176.871094 80.160156 177.117188 81.394531 177.859375 C 82.976562 178.8125 83.761719 178.730469 84.503906 177.539062 C 85.046875 176.660156 88.371094 175.480469 91.886719 174.917969 L 98.28125 173.890625 L 84.625 174.804688 Z M 45.058594 176.191406 C 44.488281 176.1875 43.863281 176.210938 43.167969 176.257812 C 43.039062 177.984375 42.765625 179.167969 42.398438 179.261719 C 40.066406 179.839844 32.578125 180.285156 29.558594 180.136719 C 30.105469 180.703125 30.988281 181.402344 32.15625 182.21875 C 33.753906 181.882812 35.78125 181.550781 38.015625 181.285156 C 46.535156 180.265625 47.617188 180.390625 52.605469 182.976562 C 55.566406 184.511719 58.628906 186.789062 59.414062 188.042969 C 60.285156 189.441406 60.882812 195.714844 60.960938 204.28125 C 60.96875 205.035156 60.972656 205.617188 60.976562 206.292969 C 60.992188 204.515625 60.988281 202.449219 60.960938 199.78125 C 60.882812 191.214844 60.285156 184.941406 59.414062 183.542969 C 58.628906 182.289062 55.566406 180.011719 52.605469 178.476562 C 52.273438 178.304688 52 178.171875 51.703125 178.023438 C 51.496094 178.054688 51.273438 178.082031 51.078125 178.113281 L 46.625 178.851562 L 46.625 176.277344 C 46.136719 176.222656 45.625 176.191406 45.058594 176.191406 Z M 119.066406 185.789062 C 119.0625 186.566406 119.0625 187.207031 119.0625 188.039062 C 119.0625 207.304688 119.320312 210.601562 120.84375 210.601562 C 122.355469 210.601562 122.625 207.632812 122.625 191.007812 L 122.625 186.507812 C 122.625 203.132812 122.355469 206.101562 120.84375 206.101562 C 119.386719 206.101562 119.089844 202.921875 119.066406 185.789062 Z M 334.0625 189.820312 L 334.328125 197.839844 L 334.441406 201.355469 L 334.59375 201.355469 L 334.328125 193.339844 L 334.230469 190.371094 Z M 28.21875 190.070312 L 27.875 201.066406 C 27.773438 204.410156 27.730469 206.691406 27.796875 208.429688 C 27.820312 207.550781 27.84375 206.636719 27.875 205.566406 L 28.21875 194.570312 L 42.46875 194.570312 L 43.0625 202.605469 C 43.835938 213.097656 45.929688 213.496094 46.378906 203.234375 L 46.730469 195.273438 L 46.535156 195.164062 L 46.378906 198.734375 C 45.929688 208.996094 43.835938 208.597656 43.0625 198.105469 L 42.683594 193.007812 L 40.441406 191.753906 C 39.382812 191.160156 38.410156 190.601562 37.5 190.070312 Z M 265.03125 201.351562 L 265.125 202.195312 L 265.125 201.351562 Z M 313.789062 202.539062 L 313.476562 205.851562 L 295.636719 205.851562 L 295.714844 207.039062 L 313.378906 207.039062 C 313.382812 207.023438 313.382812 207.007812 313.386719 206.992188 L 314.121094 202.539062 Z M 272.371094 202.863281 C 272.367188 203.558594 272.53125 204.628906 272.8125 206.097656 C 273.132812 205.855469 273.628906 205.796875 274.328125 205.769531 C 276.085938 205.699219 276.039062 205.542969 274.03125 204.765625 C 273.402344 204.523438 272.890625 204.03125 272.371094 202.863281 Z M 355.472656 203.726562 L 355.6875 207.136719 L 347.515625 206.332031 C 344.351562 206.019531 341.589844 205.691406 340.121094 205.464844 L 340.574219 207.585938 C 340.625 207.832031 340.664062 208.003906 340.714844 208.226562 L 356.554688 208.226562 C 356.554688 208.054688 356.558594 207.914062 356.558594 207.722656 L 356.558594 203.726562 Z M 279.277344 204.8125 C 278.863281 204.792969 278.394531 204.871094 277.964844 205.042969 C 277.015625 205.421875 277.296875 205.703125 278.679688 205.757812 C 279.933594 205.8125 280.632812 205.53125 280.238281 205.136719 C 280.042969 204.9375 279.6875 204.828125 279.277344 204.8125 Z M 334.5625 204.914062 L 334.59375 205.855469 L 327.925781 205.855469 L 322.148438 205.851562 C 322.128906 206.433594 322.125 207.082031 322.125 207.882812 L 322.125 212.382812 C 322.125 207.144531 322.199219 207.039062 325.984375 207.054688 C 333.6875 207.089844 335.183594 208.074219 335.183594 213.117188 L 335.183594 208.617188 C 335.183594 206.996094 335.027344 205.796875 334.5625 204.914062 Z M 368.167969 224.554688 C 367.753906 224.816406 360.308594 225.390625 351.457031 225.835938 C 337.707031 226.523438 335.179688 226.945312 335.148438 228.550781 C 335.117188 230.222656 334.925781 230.207031 333.566406 228.414062 C 332.167969 226.574219 330.519531 226.488281 316.089844 227.484375 C 307.324219 228.085938 300.019531 228.597656 299.859375 228.621094 C 299.695312 228.644531 299.5625 229.929688 299.5625 231.472656 C 299.5625 233.75 298.273438 234.84375 292.734375 237.277344 C 280.917969 242.46875 248.578125 255.976562 247.960938 255.976562 C 247.636719 255.976562 243.75 257.636719 239.324219 259.664062 C 234.902344 261.695312 227.539062 264.855469 222.96875 266.691406 C 218.394531 268.527344 211.449219 271.507812 207.53125 273.3125 C 203.613281 275.117188 200.136719 276.652344 199.8125 276.726562 C 199.484375 276.800781 197.347656 277.476562 195.0625 278.234375 C 191.128906 279.535156 187.726562 279.667969 182.507812 278.71875 C 179.0625 278.089844 140.109375 261.878906 138.0625 260.21875 C 137.082031 259.421875 131.203125 256.730469 125 254.230469 C 118.792969 251.730469 113 249.125 112.121094 248.4375 C 110.941406 247.511719 110.222656 247.714844 109.386719 249.207031 C 108.765625 250.316406 107.152344 251.226562 105.800781 251.226562 C 103.824219 251.226562 103.457031 250.648438 103.914062 248.269531 C 104.503906 245.183594 104.21875 244.996094 88.484375 238.089844 C 85.605469 236.828125 84.625 235.640625 84.625 233.421875 C 84.628906 230.597656 84.304688 230.457031 78.390625 230.636719 C 74.960938 230.738281 71.621094 230.9375 70.96875 231.074219 C 70.3125 231.210938 57.621094 231.257812 42.765625 231.179688 L 15.957031 231.042969 L 15.75 235.539062 L 42.765625 235.679688 C 57.621094 235.757812 70.3125 235.710938 70.96875 235.574219 C 71.621094 235.4375 74.960938 235.238281 78.390625 235.136719 C 84.304688 234.957031 84.628906 235.097656 84.625 237.921875 C 84.625 240.140625 85.605469 241.328125 88.484375 242.589844 C 104.21875 249.496094 104.503906 249.683594 103.914062 252.769531 C 103.457031 255.148438 103.824219 255.726562 105.800781 255.726562 C 107.152344 255.726562 108.765625 254.816406 109.386719 253.707031 C 110.222656 252.214844 110.941406 252.011719 112.121094 252.9375 C 113 253.625 118.792969 256.230469 125 258.730469 C 131.203125 261.230469 137.082031 263.921875 138.0625 264.71875 C 140.109375 266.378906 179.0625 282.589844 182.507812 283.21875 C 187.726562 284.167969 191.128906 284.035156 195.0625 282.734375 C 197.347656 281.976562 199.484375 281.300781 199.8125 281.226562 C 200.136719 281.152344 203.613281 279.617188 207.53125 277.8125 C 211.449219 276.007812 218.394531 273.027344 222.96875 271.191406 C 227.515625 269.367188 234.816406 266.230469 239.246094 264.199219 C 239.113281 263.285156 239.378906 262.246094 239.949219 261.675781 C 241.222656 260.402344 243.359375 260.859375 244.097656 262.035156 C 246.207031 261.117188 247.765625 260.476562 247.960938 260.476562 C 248.578125 260.476562 280.917969 246.96875 292.734375 241.777344 C 298.273438 239.34375 299.5625 238.25 299.5625 235.972656 C 299.5625 234.429688 299.695312 233.144531 299.859375 233.121094 C 300.019531 233.097656 307.324219 232.585938 316.089844 231.984375 C 330.519531 230.988281 332.167969 231.074219 333.566406 232.914062 C 334.925781 234.707031 335.117188 234.722656 335.148438 233.050781 C 335.179688 231.445312 337.707031 231.023438 351.457031 230.335938 C 360.40625 229.886719 367.941406 229.304688 368.203125 229.042969 C 368.273438 228.972656 368.242188 227.125 368.167969 224.554688 Z M 223.597656 228.664062 L 225.46875 232.585938 C 225.566406 232.785156 225.664062 232.976562 225.765625 233.164062 L 228.6875 233.164062 C 233.496094 233.164062 233.910156 233.441406 236.226562 238.210938 L 236.507812 238.792969 L 238.675781 238.757812 L 236.226562 233.710938 C 233.910156 228.941406 233.496094 228.664062 228.6875 228.664062 Z M 242.699219 228.664062 C 239.964844 228.664062 239.242188 229.101562 239.757812 230.445312 C 240.132812 231.425781 241.105469 232.226562 241.914062 232.226562 C 242.242188 232.226562 242.707031 232.589844 243.21875 233.179688 C 245.226562 233.253906 246.113281 233.746094 245.792969 234.648438 C 245.519531 235.414062 246.175781 237.792969 247.261719 240.082031 C 248.554688 241.957031 249.6875 242.628906 249.6875 241.085938 C 249.6875 240.734375 248.691406 238.460938 247.476562 236.039062 C 246.261719 233.617188 245.503906 230.964844 245.792969 230.148438 C 246.140625 229.171875 245.085938 228.664062 242.699219 228.664062 Z M 257.375 228.664062 C 254.410156 228.664062 254.398438 228.707031 256.261719 232.3125 C 256.425781 232.632812 256.578125 232.910156 256.726562 233.171875 C 256.933594 233.167969 257.128906 233.164062 257.375 233.164062 C 258.96875 233.164062 260.269531 233.628906 260.355469 234.210938 C 261.28125 233.699219 262.503906 233.523438 263.328125 233.839844 C 264.316406 234.21875 265.125 234.046875 265.125 233.457031 C 265.125 232.871094 264.054688 232.050781 262.75 231.632812 C 261.441406 231.21875 260.375 230.382812 260.375 229.773438 C 260.375 229.164062 259.023438 228.664062 257.375 228.664062 Z M 278.664062 228.890625 C 278.324219 228.808594 278.1875 229.175781 278.1875 230.011719 C 278.1875 232.371094 279.785156 233.96875 280.375 232.199219 C 280.625 231.445312 280.234375 230.238281 279.507812 229.511719 C 279.144531 229.148438 278.867188 228.9375 278.664062 228.890625 Z M 274.96875 229.191406 C 274.46875 229.300781 274.535156 230.609375 275.34375 232.722656 C 276.089844 234.664062 278.1875 235.339844 278.1875 233.640625 C 278.1875 233.113281 277.402344 231.644531 276.441406 230.375 C 275.773438 229.492188 275.269531 229.128906 274.96875 229.191406 Z M 221.167969 229.257812 L 206.628906 230.140625 C 189.949219 231.15625 190.121094 231.152344 169.464844 230.339844 L 153.960938 229.726562 L 151.828125 238.773438 C 150.65625 243.75 149.886719 248.007812 150.113281 248.234375 C 150.15625 248.277344 150.417969 248.441406 150.679688 248.605469 C 150.980469 247.054688 151.359375 245.265625 151.828125 243.273438 L 153.960938 234.226562 L 169.464844 234.839844 C 190.121094 235.652344 189.949219 235.65625 206.628906 234.640625 L 221.167969 233.757812 L 222.285156 236.972656 C 223.859375 236.953125 223.746094 236.671875 222.363281 232.703125 Z M 271.960938 229.355469 C 271.832031 229.371094 271.691406 229.410156 271.535156 229.46875 C 270.621094 229.820312 269.875 230.648438 269.875 231.3125 C 269.875 232.007812 269.121094 231.890625 268.09375 231.039062 C 266.632812 229.828125 266.3125 229.910156 266.3125 231.488281 C 266.3125 232.632812 267.289062 233.414062 268.722656 233.414062 C 269.5625 233.414062 270.425781 233.734375 271.042969 234.21875 C 271.199219 234.121094 271.363281 234.035156 271.535156 233.96875 C 272.359375 233.652344 272.804688 233.957031 272.988281 235.082031 C 273.023438 234.492188 273.054688 233.84375 273.082031 232.902344 C 273.15625 230.253906 272.863281 229.25 271.960938 229.355469 Z M 131.472656 229.851562 C 123.996094 229.851562 117.875 230.257812 117.875 230.75 C 117.875 231.117188 120.304688 232.671875 123.496094 234.527344 C 125.746094 234.417969 128.492188 234.351562 131.472656 234.351562 L 143.707031 234.351562 L 145.074219 229.851562 Z M 147.390625 232.246094 C 145.8125 232.207031 145.191406 236.148438 146.589844 237.125 C 146.816406 236.882812 147.085938 236.738281 147.390625 236.746094 C 148.25 236.765625 149.03125 237.140625 149.609375 237.695312 C 149.910156 237.390625 150.171875 236.890625 150.445312 236.179688 C 151.121094 234.417969 149.476562 232.292969 147.390625 232.246094 Z M 103.441406 232.289062 C 102.117188 232.246094 101.25 232.660156 101.25 233.542969 C 101.25 234.265625 101.957031 234.585938 102.820312 234.253906 C 103.683594 233.921875 105.023438 234.667969 105.796875 235.910156 C 106.570312 237.148438 107.738281 238.164062 108.386719 238.164062 C 109.023438 238.164062 114.300781 240.386719 120.191406 243.128906 C 121.847656 243.777344 123.5625 244.4375 125.296875 245.09375 C 133.300781 248.128906 136.804688 249.617188 138.269531 250.945312 C 139.414062 250.996094 139.25 250.070312 139.246094 248.554688 C 139.246094 247.953125 139.117188 247.433594 138.71875 246.914062 C 136.539062 246.042969 132.449219 243.976562 128.449219 241.804688 C 127.464844 241.425781 126.46875 241.039062 125.296875 240.59375 C 117.621094 237.6875 110.007812 234.617188 108.375 233.773438 C 106.550781 232.832031 104.769531 232.332031 103.441406 232.289062 Z M 107.710938 235.003906 C 107.902344 234.984375 108.128906 235.046875 108.375 235.195312 C 109.027344 235.601562 109.5625 236.164062 109.5625 236.453125 C 109.5625 236.742188 109.027344 236.976562 108.375 236.976562 C 107.71875 236.976562 107.1875 236.410156 107.1875 235.71875 C 107.1875 235.289062 107.394531 235.035156 107.710938 235.003906 Z M 326.945312 236.726562 C 326.253906 236.726562 325.6875 237.261719 325.6875 237.914062 C 325.6875 238.570312 325.921875 239.101562 326.210938 239.101562 C 326.5 239.101562 327.0625 238.570312 327.46875 237.914062 C 327.871094 237.261719 327.636719 236.726562 326.945312 236.726562 Z M 181.351562 239.847656 C 181.378906 240.070312 181.621094 240.308594 182.082031 240.589844 C 182.953125 241.128906 184.105469 241.296875 184.644531 240.964844 C 184.792969 240.875 185.074219 240.816406 185.433594 240.789062 C 185.25 240.453125 184.808594 240.195312 184.078125 240.105469 C 183.070312 239.976562 182.179688 239.902344 181.351562 239.847656 Z M 145.855469 240.195312 C 145.132812 240.398438 144.421875 240.9375 143.925781 241.871094 C 142.953125 243.683594 143.042969 244.488281 144.449219 245.613281 C 145.644531 244.257812 147.398438 244.308594 148.242188 245.507812 C 148.546875 244.851562 148.71875 243.929688 148.730469 242.746094 C 148.730469 242.679688 148.722656 242.625 148.71875 242.5625 C 148.199219 242.546875 147.542969 242.238281 146.628906 241.660156 C 146.195312 241.386719 145.949219 240.832031 145.855469 240.195312 Z M 309.570312 240.339844 C 307.808594 240.667969 307.214844 242.796875 308.667969 244.246094 C 310.011719 245.59375 312.335938 245.125 313.007812 243.375 C 313.664062 241.664062 313.121094 240.695312 311.367188 240.398438 C 310.789062 240.582031 310.152344 240.566406 309.570312 240.339844 Z M 220.800781 241.71875 C 219.542969 242.476562 220.039062 245.09375 222.308594 249.640625 C 222.308594 249.640625 222.308594 249.640625 222.308594 249.644531 C 227.980469 257.5625 228.570312 256.601562 223.582031 247.558594 C 222.292969 245.214844 221.371094 243.277344 220.800781 241.71875 Z M 304.957031 241.9375 C 304.703125 241.925781 304.441406 241.992188 304.210938 242.132812 C 303.589844 242.515625 303.398438 243.335938 303.78125 243.953125 C 304.164062 244.570312 304.980469 244.765625 305.601562 244.382812 C 306.21875 244 306.410156 243.183594 306.027344 242.5625 C 305.789062 242.175781 305.382812 241.957031 304.957031 241.9375 Z M 173.652344 244.445312 C 173.34375 244.460938 172.960938 244.550781 172.5 244.695312 C 172.226562 244.78125 171.972656 244.835938 171.730469 244.871094 C 171.664062 245.152344 171.667969 245.445312 171.78125 245.742188 C 172.136719 246.660156 171.90625 247.414062 171.273438 247.414062 C 170.640625 247.414062 170.125 247.984375 170.125 248.683594 C 170.125 249.410156 171.136719 249.628906 172.5 249.195312 C 172.914062 249.0625 173.253906 248.988281 173.546875 248.960938 C 173.597656 248.894531 173.660156 248.851562 173.746094 248.851562 C 174.367188 248.851562 174.875 247.746094 174.875 246.398438 C 174.875 244.960938 174.578125 244.390625 173.652344 244.445312 Z M 76.015625 245.058594 C 74.21875 245.046875 72.75 245.574219 72.75 246.226562 C 72.75 247.730469 75.175781 247.730469 77.5 246.226562 C 78.886719 245.328125 78.558594 245.070312 76.015625 245.058594 Z M 142.425781 247.671875 C 141.824219 247.707031 141.914062 249.128906 142.484375 252.183594 C 142.773438 252.203125 143.210938 252.5 143.792969 253.023438 C 144.03125 252.859375 144.285156 252.667969 144.558594 252.441406 C 145.332031 251.800781 145.703125 251.371094 145.691406 250.914062 C 145.40625 250.785156 145.105469 250.613281 144.789062 250.378906 C 143.667969 249.5625 143.207031 248.941406 143.292969 248.089844 C 142.917969 247.804688 142.632812 247.660156 142.425781 247.671875 Z M 202.546875 248.363281 C 202.488281 248.394531 202.433594 248.414062 202.378906 248.449219 C 201.085938 249.273438 201.253906 250.386719 203.269531 254.332031 C 204.242188 256.238281 204.910156 257.882812 205.292969 259.308594 C 206.183594 257.257812 205.507812 254.226562 203.269531 249.832031 C 202.988281 249.289062 202.753906 248.808594 202.546875 248.363281 Z M 192.09375 248.855469 C 191.871094 249.042969 191.65625 249.253906 191.464844 249.484375 C 190.453125 250.703125 190.421875 251.226562 191.355469 251.226562 C 192.085938 251.226562 192.6875 250.605469 192.6875 249.84375 C 192.6875 249.746094 192.691406 249.660156 192.703125 249.582031 C 192.34375 249.425781 192.132812 249.183594 192.09375 248.855469 Z M 188.964844 249.445312 L 187.378906 254.519531 C 186.511719 257.300781 186.085938 261.683594 186.425781 264.285156 C 186.589844 262.414062 186.921875 260.492188 187.378906 259.019531 L 188.964844 253.945312 L 189.027344 261.652344 C 189.042969 260.894531 189.050781 260.105469 189.042969 259.242188 Z M 193.917969 249.785156 C 194.238281 250.300781 194.46875 250.988281 194.46875 251.523438 C 194.46875 251.828125 194.59375 252.144531 194.796875 252.433594 C 195.265625 252.257812 195.699219 251.832031 195.902344 251.273438 C 196.226562 250.394531 195.457031 249.789062 194.011719 249.789062 C 193.976562 249.789062 193.949219 249.785156 193.917969 249.785156 Z M 182.484375 250.039062 C 180.414062 250.039062 180.285156 251.972656 182.296875 252.910156 C 183.484375 253.464844 183.484375 253.742188 182.296875 254.296875 C 182.160156 254.359375 182.03125 254.464844 181.914062 254.601562 C 182.085938 254.5625 182.273438 254.539062 182.484375 254.539062 C 183.660156 254.539062 184.273438 256.417969 184.5625 260.917969 C 184.621094 261.824219 184.660156 262.742188 184.691406 263.628906 C 184.777344 261.988281 184.734375 259.140625 184.5625 256.417969 C 184.273438 251.917969 183.660156 250.039062 182.484375 250.039062 Z M 178.851562 251.003906 C 178.644531 250.949219 178.382812 251.113281 178.058594 251.4375 C 177.054688 252.449219 176.714844 254.957031 176.941406 259.683594 C 177.082031 257.765625 177.441406 256.558594 178.058594 255.9375 C 179.171875 254.824219 179.527344 255.632812 179.605469 260.554688 C 179.617188 259.992188 179.625 259.410156 179.625 258.792969 C 179.625 253.257812 179.472656 251.160156 178.851562 251.003906 Z M 150.171875 251.535156 C 149.476562 251.550781 149.070312 251.871094 148.6875 252.472656 C 147.59375 254.199219 147.296875 254.820312 149.535156 256.160156 C 150.472656 255.753906 152.039062 256.308594 155.785156 258.058594 C 158.5625 259.363281 161.046875 260.832031 162.941406 262.210938 C 164.394531 262.636719 165.4375 262.769531 166.003906 262.558594 C 165.582031 262.007812 165.789062 261.796875 166.554688 261.722656 C 166.539062 261.285156 166.246094 260.742188 165.714844 260.125 L 165.363281 261.527344 L 157.945312 257.339844 C 153.867188 255.035156 150.34375 252.964844 150.113281 252.734375 C 150.046875 252.667969 150.085938 252.195312 150.171875 251.535156 Z M 192.25 252.757812 C 192 252.773438 191.761719 252.84375 191.550781 252.976562 C 191.3125 253.125 191.101562 253.769531 190.917969 254.738281 C 191.046875 254.523438 191.222656 254.273438 191.464844 253.984375 C 191.871094 253.496094 192.382812 253.085938 192.871094 252.816406 C 192.660156 252.769531 192.449219 252.742188 192.25 252.757812 Z M 174.34375 252.972656 C 174.167969 253.210938 173.964844 253.351562 173.746094 253.351562 C 173.125 253.351562 173.394531 255.203125 174.339844 257.46875 C 175.050781 259.164062 175.660156 261.71875 175.925781 263.894531 C 176.019531 263.304688 176.0625 262.511719 176.0625 261.410156 C 176.0625 259.035156 175.289062 255.238281 174.34375 252.972656 Z M 193.078125 253.589844 C 192.84375 253.601562 192.6875 253.867188 192.6875 254.34375 C 192.6875 255.105469 192.085938 255.726562 191.355469 255.726562 C 191.066406 255.726562 190.882812 255.671875 190.78125 255.566406 C 190.5 257.503906 190.324219 260.316406 190.332031 263.46875 C 190.332031 264.351562 190.339844 265.148438 190.355469 265.882812 C 190.460938 261.359375 190.941406 257.855469 191.550781 257.476562 C 193.253906 256.425781 196.496094 259.3125 195.761719 261.226562 C 195.433594 262.082031 195.820312 263.464844 196.625 264.300781 C 197.042969 264.734375 197.394531 265.304688 197.628906 265.871094 C 197.734375 264.589844 197.84375 263.371094 197.910156 262.804688 C 198.007812 261.988281 197.429688 260.636719 196.625 259.800781 C 196.078125 259.234375 195.730469 258.417969 195.660156 257.683594 C 194.984375 257.339844 194.46875 256.644531 194.46875 256.023438 C 194.46875 255.316406 194.066406 254.335938 193.578125 253.847656 C 193.394531 253.664062 193.222656 253.582031 193.078125 253.589844 Z M 169.347656 255.070312 C 168.867188 255.007812 168.234375 255.332031 167.640625 255.914062 C 167.734375 255.984375 167.828125 256.050781 167.945312 256.125 C 169.121094 256.867188 168.914062 257.144531 167.15625 257.191406 C 166.964844 257.195312 166.816406 257.207031 166.667969 257.21875 C 166.484375 257.546875 166.324219 257.90625 166.199219 258.285156 C 166.453125 258.566406 166.808594 258.90625 167.320312 259.347656 C 167.515625 259.207031 167.816406 259.0625 168.242188 258.898438 C 169.277344 258.5 170.125 257.375 170.125 256.394531 C 170.125 255.535156 169.808594 255.128906 169.347656 255.070312 Z M 286.898438 256.300781 C 286.617188 256.285156 286.273438 256.34375 285.90625 256.484375 C 284.925781 256.859375 284.125 257.378906 284.125 257.636719 C 284.125 257.890625 284.925781 258.101562 285.90625 258.101562 C 286.886719 258.101562 287.6875 257.585938 287.6875 256.953125 C 287.6875 256.558594 287.375 256.324219 286.898438 256.300781 Z M 181.136719 256.488281 C 180.738281 258.230469 180.652344 260.664062 180.863281 262.722656 C 181.0625 260.773438 181.53125 259.152344 182.296875 258.796875 C 183.484375 258.242188 183.484375 257.964844 182.296875 257.410156 C 181.753906 257.15625 181.371094 256.832031 181.136719 256.488281 Z M 201.601562 257.292969 C 199.976562 259.3125 198.382812 263.101562 199.199219 263.101562 C 199.378906 263.101562 200.183594 262.792969 201.140625 262.398438 C 201.339844 262.109375 201.542969 261.835938 201.75 261.597656 C 203.035156 260.089844 203.015625 259.347656 201.601562 257.292969 Z M 297.144531 264.175781 C 296.265625 264.152344 295.78125 265.101562 296.554688 266.355469 C 296.992188 267.0625 297.894531 267.304688 298.558594 266.894531 C 299.371094 266.394531 299.351562 265.730469 298.496094 264.875 C 298.019531 264.398438 297.542969 264.1875 297.144531 264.175781 Z M 167.925781 264.363281 C 168.238281 265.144531 168.925781 265.710938 169.640625 265.890625 C 169.308594 265.554688 168.878906 265.164062 168.34375 264.714844 C 168.1875 264.585938 168.070312 264.484375 167.925781 264.363281 Z M 242.652344 265.523438 C 241.886719 266.007812 241.03125 266.144531 240.359375 265.847656 C 240.214844 265.941406 240.078125 266.046875 239.949219 266.175781 C 239.253906 266.871094 239.003906 268.269531 239.390625 269.285156 C 240.203125 271.398438 243.242188 270.628906 244.230469 268.058594 C 244.695312 266.847656 243.816406 265.847656 242.652344 265.523438 Z M 242.652344 265.523438"/> </g> </defs> <g> <path style="fill-rule:evenodd;fill:rgb(83.137%,9.803%,9.803%)" d="M 84.339844 137.953125 L 90.441406 239.507812 L 186.332031 281.136719 L 293.121094 236.894531 L 293.992188 138.824219 L 255.417969 122.914062 L 125.3125 119.644531 Z M 84.339844 137.953125"/> <path style="fill:rgb(100.000%,78.039%,18.823%)" d="M 21.796875 145.144531 L 359.15625 145.144531 L 359.15625 225.5625 L 21.796875 225.5625 Z M 21.796875 145.144531"/> <path style="fill:rgb(100.000%,100.000%,100.000%)" d="M 128.78125 105.492188 L 244.808594 105.492188 L 244.808594 147.859375 L 128.78125 147.859375 Z M 128.78125 105.492188"/> <path style="fill:rgb(0%,0%,0%)" d="M 182.507812 283.214844 C 179.058594 282.589844 140.109375 266.378906 138.0625 264.71875 C 137.082031 263.921875 131.203125 261.230469 125 258.730469 C 118.792969 256.234375 113 253.625 112.117188 252.9375 C 110.9375 252.011719 110.222656 252.214844 109.386719 253.707031 C 108.765625 254.816406 107.152344 255.726562 105.800781 255.726562 C 103.828125 255.726562 103.457031 255.148438 103.914062 252.769531 C 104.503906 249.683594 104.214844 249.496094 88.484375 242.589844 C 85.605469 241.328125 84.625 240.140625 84.625 237.921875 C 84.625 235.097656 84.304688 234.957031 78.390625 235.136719 C 74.960938 235.238281 71.621094 235.4375 70.96875 235.574219 C 70.316406 235.710938 57.625 235.757812 42.765625 235.679688 L 15.75 235.539062 L 16.226562 225.148438 C 16.488281 219.433594 16.753906 198.058594 16.820312 177.648438 L 16.9375 140.539062 L 29.007812 140.539062 C 35.648438 140.539062 40.75 140.210938 40.347656 139.804688 C 39.191406 138.648438 42.382812 136.050781 45.539062 135.574219 C 47.390625 135.292969 49.347656 136.113281 51.0625 137.886719 C 52.527344 139.398438 55.332031 140.746094 57.296875 140.882812 C 59.261719 141.019531 60.871094 141.535156 60.871094 142.023438 C 60.875 143.351562 65.367188 143.101562 66.21875 141.726562 C 66.621094 141.074219 69.816406 140.539062 73.320312 140.539062 C 79.378906 140.539062 79.722656 140.375 80.441406 137.09375 C 80.972656 134.671875 82.328125 133.195312 84.988281 132.132812 C 89.054688 130.511719 97.089844 126.988281 108.078125 122.007812 C 111.832031 120.308594 116.910156 118.113281 119.359375 117.128906 L 123.8125 115.34375 L 123.8125 100.164062 L 255.625 100.164062 L 255.625 109.070312 C 255.625 114.527344 256.109375 117.976562 256.875 117.976562 C 257.566406 117.976562 260.417969 119.019531 263.210938 120.292969 C 266.007812 121.566406 269.449219 122.304688 270.863281 121.933594 C 272.703125 121.457031 273.4375 121.800781 273.4375 123.140625 C 273.4375 125.625 277.15625 127.523438 280.371094 126.683594 C 282.074219 126.238281 282.941406 126.558594 282.949219 127.636719 C 282.96875 129.660156 295.503906 135.640625 297.34375 134.503906 C 298.085938 134.046875 300.625 134.480469 302.988281 135.46875 C 307.351562 137.296875 316.105469 137.21875 351.347656 135.042969 L 363.355469 134.300781 L 364.105469 144.84375 C 365.628906 166.289062 368.660156 228.585938 368.203125 229.042969 C 367.941406 229.304688 360.40625 229.886719 351.457031 230.335938 C 337.707031 231.023438 335.179688 231.445312 335.148438 233.046875 C 335.117188 234.722656 334.929688 234.707031 333.566406 232.914062 C 332.171875 231.074219 330.519531 230.988281 316.089844 231.980469 C 307.324219 232.585938 300.023438 233.101562 299.859375 233.121094 C 299.695312 233.144531 299.5625 234.429688 299.5625 235.972656 C 299.5625 238.25 298.273438 239.34375 292.734375 241.777344 C 280.921875 246.96875 248.578125 260.476562 247.960938 260.476562 C 247.636719 260.476562 243.75 262.136719 239.324219 264.167969 C 234.902344 266.195312 227.539062 269.355469 222.96875 271.191406 C 218.394531 273.027344 211.449219 276.007812 207.53125 277.8125 C 203.613281 279.617188 200.136719 281.152344 199.8125 281.226562 C 199.484375 281.300781 197.347656 281.976562 195.0625 282.734375 C 191.128906 284.035156 187.726562 284.164062 182.507812 283.214844 Z M 192.667969 271.460938 C 192.691406 267.773438 194.617188 268.109375 196.054688 272.054688 L 197.25 275.320312 L 197.492188 272.054688 C 197.625 270.257812 197.8125 268.121094 197.910156 267.304688 C 198.007812 266.488281 197.429688 265.136719 196.625 264.300781 C 195.820312 263.46875 195.429688 262.082031 195.757812 261.226562 C 196.496094 259.3125 193.253906 256.421875 191.550781 257.476562 C 190.851562 257.910156 190.320312 262.472656 190.328125 267.96875 C 190.34375 274.6875 190.703125 277.144531 191.5 275.914062 C 192.132812 274.933594 192.660156 272.929688 192.667969 271.460938 Z M 179.625 263.292969 C 179.625 255.914062 179.355469 254.640625 178.0625 255.9375 C 176.964844 257.039062 176.652344 259.894531 177.011719 265.507812 C 177.695312 276.183594 179.625 274.546875 179.625 263.292969 Z M 189.042969 263.742188 L 188.964844 253.945312 L 187.378906 259.023438 C 186.507812 261.8125 186.082031 266.222656 186.429688 268.820312 C 187.53125 277.027344 189.128906 273.929688 189.042969 263.742188 Z M 174.078125 269.46875 C 175.707031 270.09375 176.0625 269.457031 176.0625 265.910156 C 176.0625 263.53125 175.289062 259.734375 174.339844 257.46875 C 173.394531 255.207031 173.128906 253.351562 173.746094 253.351562 C 174.367188 253.351562 174.875 252.246094 174.875 250.898438 C 174.875 248.984375 174.351562 248.609375 172.5 249.195312 C 171.136719 249.628906 170.125 249.410156 170.125 248.683594 C 170.125 247.984375 170.640625 247.414062 171.273438 247.414062 C 171.90625 247.414062 172.136719 246.660156 171.78125 245.742188 C 171.394531 244.734375 172.121094 243.753906 173.601562 243.285156 C 174.953125 242.855469 176.0625 241.855469 176.0625 241.058594 C 176.0625 239.792969 178.886719 239.457031 184.078125 240.105469 C 186.453125 240.402344 185.789062 242.433594 183.03125 243.308594 C 181.113281 243.917969 180.882812 244.347656 182.082031 245.089844 C 182.953125 245.628906 184.105469 245.800781 184.644531 245.46875 C 185.179688 245.136719 187.246094 245.222656 189.238281 245.660156 C 191.679688 246.195312 192.644531 246.996094 192.214844 248.121094 C 191.792969 249.21875 192.40625 249.789062 194.011719 249.789062 C 195.457031 249.789062 196.226562 250.390625 195.902344 251.273438 C 195.601562 252.089844 194.808594 252.640625 194.136719 252.5 C 193.464844 252.355469 192.261719 253.023438 191.46875 253.984375 C 190.453125 255.207031 190.417969 255.726562 191.355469 255.726562 C 192.085938 255.726562 192.6875 255.105469 192.6875 254.34375 C 192.6875 253.578125 193.085938 253.355469 193.578125 253.847656 C 194.066406 254.335938 194.46875 255.316406 194.46875 256.023438 C 194.46875 256.730469 195.136719 257.535156 195.953125 257.804688 C 196.894531 258.121094 197.175781 257.613281 196.714844 256.421875 C 195.609375 253.53125 199.367188 254.101562 201.5 257.144531 C 203.027344 259.320312 203.066406 260.054688 201.75 261.597656 C 200.074219 263.558594 198.359375 267.601562 199.199219 267.601562 C 199.472656 267.601562 201.0625 266.980469 202.722656 266.222656 C 206.488281 264.511719 206.648438 260.960938 203.269531 254.332031 C 201.253906 250.386719 201.085938 249.273438 202.378906 248.449219 C 203.425781 247.773438 204.636719 248.234375 205.9375 249.796875 C 208.035156 252.3125 210.5 252.953125 210.5 250.976562 C 210.5 250.324219 211.300781 249.789062 212.28125 249.789062 C 213.261719 249.789062 214.0625 249.253906 214.0625 248.601562 C 214.0625 245.457031 217.972656 248.085938 222.308594 254.140625 C 227.980469 262.0625 228.570312 261.101562 223.582031 252.058594 C 219.667969 244.953125 219.074219 241.476562 221.78125 241.476562 C 223.894531 241.476562 223.882812 241.566406 222.363281 237.203125 L 221.167969 233.757812 L 206.628906 234.640625 C 189.949219 235.65625 190.121094 235.652344 169.464844 234.839844 L 153.964844 234.226562 L 151.828125 243.273438 C 150.65625 248.25 149.882812 252.507812 150.113281 252.734375 C 150.34375 252.964844 153.867188 255.035156 157.945312 257.339844 L 165.363281 261.53125 L 166.070312 258.714844 C 166.875 255.503906 170.125 253.644531 170.125 256.394531 C 170.125 257.375 169.277344 258.5 168.242188 258.898438 C 166.730469 259.480469 166.671875 259.816406 167.945312 260.625 C 169.121094 261.367188 168.914062 261.644531 167.15625 261.6875 C 165.078125 261.742188 165.230469 262.125 168.34375 264.714844 C 170.300781 266.34375 170.96875 267.335938 169.828125 266.921875 C 168.425781 266.40625 167.75 266.75 167.75 267.96875 C 167.75 270.042969 170.375 271.328125 171.40625 269.757812 C 171.785156 269.183594 172.988281 269.050781 174.078125 269.46875 Z M 184.582031 269.230469 C 184.796875 268.167969 184.785156 264.425781 184.5625 260.917969 C 184.273438 256.417969 183.660156 254.539062 182.484375 254.539062 C 180.414062 254.539062 180.285156 256.472656 182.296875 257.410156 C 183.484375 257.964844 183.484375 258.242188 182.296875 258.796875 C 180.101562 259.820312 180.296875 271.164062 182.503906 271.164062 C 183.4375 271.164062 184.371094 270.292969 184.582031 269.230469 Z M 166.5625 266.261719 C 166.5625 264.5 161.804688 260.878906 155.785156 258.058594 C 150.675781 255.667969 149.617188 255.503906 148.6875 256.972656 C 147.03125 259.589844 147.070312 259.628906 155.238281 263.546875 C 162.8125 267.175781 166.5625 268.078125 166.5625 266.261719 Z M 144.644531 253.828125 C 141.742188 250.925781 141.449219 251.558594 142.722656 257.949219 C 142.773438 258.195312 143.597656 257.742188 144.558594 256.941406 C 146.058594 255.699219 146.070312 255.253906 144.644531 253.828125 Z M 139.25 253.054688 C 139.25 250.738281 137.40625 249.683594 125.296875 245.09375 C 117.621094 242.1875 110.007812 239.117188 108.375 238.273438 C 104.726562 236.390625 101.25 236.277344 101.25 238.042969 C 101.25 238.765625 101.957031 239.085938 102.820312 238.753906 C 103.683594 238.421875 105.023438 239.167969 105.796875 240.410156 C 106.574219 241.648438 107.738281 242.664062 108.386719 242.664062 C 109.039062 242.664062 114.511719 244.972656 120.550781 247.796875 C 140.375 257.058594 139.25 256.742188 139.25 253.054688 Z M 107.1875 240.21875 C 107.1875 239.527344 107.722656 239.292969 108.375 239.695312 C 109.027344 240.101562 109.5625 240.664062 109.5625 240.953125 C 109.5625 241.242188 109.027344 241.476562 108.375 241.476562 C 107.722656 241.476562 107.1875 240.910156 107.1875 240.21875 Z M 148.730469 247.246094 C 148.757812 244.210938 145.40625 243.601562 143.921875 246.367188 C 142.875 248.324219 143.042969 249.105469 144.789062 250.378906 C 147.15625 252.109375 148.695312 250.886719 148.730469 247.246094 Z M 141.636719 246.523438 C 141.644531 246.035156 142.421875 243.09375 143.359375 239.992188 L 145.074219 234.351562 L 131.472656 234.351562 C 123.992188 234.351562 117.875 234.757812 117.875 235.25 C 117.875 236.324219 138.019531 247.28125 140.140625 247.359375 C 140.957031 247.390625 141.628906 247.015625 141.636719 246.523438 Z M 249.6875 245.585938 C 249.6875 245.234375 248.691406 242.960938 247.476562 240.539062 C 246.261719 238.117188 245.503906 235.464844 245.792969 234.648438 C 246.140625 233.671875 245.085938 233.164062 242.699219 233.164062 C 239.964844 233.164062 239.242188 233.601562 239.757812 234.945312 C 240.132812 235.925781 241.105469 236.726562 241.914062 236.726562 C 242.726562 236.726562 244.351562 238.863281 245.53125 241.476562 C 247.339844 245.496094 249.6875 247.8125 249.6875 245.585938 Z M 236.226562 238.210938 C 233.910156 233.441406 233.496094 233.164062 228.6875 233.164062 L 223.601562 233.164062 L 225.46875 237.085938 C 227.515625 241.378906 230.777344 243.386719 235.570312 243.308594 L 238.675781 243.257812 Z M 150.445312 240.683594 C 151.121094 238.917969 149.476562 236.796875 147.390625 236.746094 C 145.796875 236.707031 145.171875 240.738281 146.628906 241.660156 C 148.867188 243.078125 149.59375 242.890625 150.445312 240.683594 Z M 273.082031 237.40625 C 273.167969 234.375 272.769531 233.496094 271.535156 233.96875 C 270.621094 234.320312 269.875 235.148438 269.875 235.8125 C 269.875 236.507812 269.121094 236.390625 268.09375 235.539062 C 266.632812 234.328125 266.3125 234.410156 266.3125 235.988281 C 266.3125 237.132812 267.289062 237.914062 268.722656 237.914062 C 270.050781 237.914062 271.445312 238.714844 271.820312 239.695312 C 272.796875 242.246094 272.953125 241.96875 273.082031 237.40625 Z M 263.328125 238.339844 C 264.316406 238.71875 265.125 238.546875 265.125 237.957031 C 265.125 237.367188 264.054688 236.546875 262.75 236.132812 C 261.441406 235.71875 260.375 234.882812 260.375 234.273438 C 260.375 233.664062 259.023438 233.164062 257.375 233.164062 C 254.410156 233.164062 254.398438 233.207031 256.261719 236.8125 C 257.789062 239.769531 258.46875 240.191406 259.839844 239.054688 C 260.769531 238.28125 262.339844 237.960938 263.328125 238.339844 Z M 278.1875 238.140625 C 278.1875 237.613281 277.402344 236.144531 276.441406 234.875 C 274.664062 232.523438 274.046875 233.839844 275.34375 237.222656 C 276.089844 239.164062 278.1875 239.839844 278.1875 238.140625 Z M 279.507812 234.011719 C 278.539062 233.042969 278.1875 233.175781 278.1875 234.511719 C 278.1875 236.871094 279.78125 238.46875 280.375 236.699219 C 280.625 235.945312 280.234375 234.738281 279.507812 234.011719 Z M 219.375 222.515625 C 227.347656 220.664062 227.457031 220.21875 226.546875 192.789062 C 225.632812 165.273438 224.726562 158.578125 221.59375 156.28125 C 220.027344 155.132812 215.753906 154.734375 206.585938 154.878906 C 199.535156 154.988281 193.433594 154.746094 193.027344 154.339844 C 192.621094 153.933594 189.171875 153.601562 185.363281 153.601562 L 178.4375 153.601562 L 178.429688 159.242188 C 178.417969 168.882812 176.9375 184.476562 176.039062 184.476562 C 175.566406 184.476562 174.824219 179 174.386719 172.304688 C 173.125 152.90625 173.445312 153.601562 165.835938 153.601562 C 161.699219 153.601562 159.191406 154.136719 158.894531 155.085938 C 158.636719 155.902344 157.746094 164.585938 156.914062 174.382812 L 155.398438 192.195312 L 153.933594 174.382812 C 153.128906 164.585938 152.4375 155.902344 152.390625 155.085938 C 152.335938 154.070312 150.019531 153.601562 145.023438 153.601562 L 137.738281 153.601562 L 138.539062 159.242188 C 140.46875 172.855469 146.375 219.210938 146.375 220.765625 C 146.375 222.089844 148.222656 222.476562 154.574219 222.476562 L 162.777344 222.476562 L 163.632812 210.898438 C 164.105469 204.53125 164.855469 196.917969 165.304688 193.976562 C 166.015625 189.28125 166.222656 190.074219 166.984375 200.507812 C 167.464844 207.039062 168.160156 214.65625 168.53125 217.429688 L 169.207031 222.476562 L 185.0625 222.476562 L 187.699219 200.804688 C 189.148438 188.886719 190.386719 177.53125 190.453125 175.570312 C 190.757812 166.460938 192.472656 182.910156 193.273438 202.585938 L 194.128906 223.664062 L 204.390625 223.636719 C 210.035156 223.621094 216.777344 223.117188 219.371094 222.515625 Z M 208.871094 207.335938 C 208.511719 204.886719 207.871094 194.734375 207.445312 184.773438 C 206.75 168.582031 206.871094 166.664062 208.582031 166.664062 C 210.191406 166.664062 210.515625 168.332031 210.609375 177.054688 C 210.671875 182.769531 211.074219 192.390625 211.5 198.433594 C 211.929688 204.476562 212.101562 209.953125 211.882812 210.605469 C 211.015625 213.207031 209.484375 211.546875 208.871094 207.335938 Z M 58.476562 220.359375 C 60.917969 218.382812 61.082031 217.316406 60.960938 204.28125 C 60.882812 195.714844 60.285156 189.441406 59.414062 188.042969 C 58.628906 186.789062 55.566406 184.507812 52.605469 182.976562 C 47.617188 180.390625 46.535156 180.265625 38.015625 181.285156 C 32.953125 181.890625 28.8125 182.832031 28.8125 183.375 C 28.8125 184.644531 32.527344 187.320312 40.441406 191.753906 L 46.730469 195.273438 L 46.378906 203.234375 C 45.929688 213.496094 43.835938 213.097656 43.0625 202.605469 L 42.46875 194.570312 L 28.21875 194.570312 L 27.875 205.566406 C 27.554688 215.921875 27.707031 216.730469 30.496094 219.519531 C 33.230469 222.253906 34.300781 222.476562 44.65625 222.476562 C 53.636719 222.476562 56.378906 222.058594 58.476562 220.359375 Z M 81.0625 206.445312 C 81.0625 192.988281 81.347656 190.414062 82.84375 190.414062 C 84.339844 190.414062 84.625 192.988281 84.625 206.445312 L 84.625 222.476562 L 98.875 222.476562 L 98.898438 216.835938 C 98.945312 206.28125 98.960938 158.957031 98.917969 156.273438 C 98.878906 153.804688 98.332031 153.601562 91.75 153.601562 L 84.625 153.601562 L 84.625 174.804688 L 98.28125 173.890625 L 91.886719 174.917969 C 88.371094 175.480469 85.046875 176.660156 84.5 177.539062 C 83.757812 178.730469 82.976562 178.8125 81.394531 177.859375 C 80.160156 177.117188 76.5625 176.867188 72.75 177.265625 L 66.21875 177.945312 L 65.570312 222.476562 L 81.0625 222.476562 Z M 135.207031 219.976562 C 137.300781 217.660156 137.46875 215.320312 137.46875 187.957031 C 137.46875 152.097656 138.539062 154.378906 121.453125 153.789062 C 110.15625 153.398438 109.550781 153.507812 106.648438 156.40625 C 104.136719 158.921875 103.625 160.542969 103.625 166.015625 C 103.625 172.007812 103.867188 172.617188 106.296875 172.765625 L 108.96875 172.925781 L 106.222656 173.449219 L 103.480469 173.972656 L 103.847656 195.957031 C 104.308594 223.246094 103.796875 222.476562 121.382812 222.476562 C 131.628906 222.476562 133.199219 222.191406 135.207031 219.976562 Z M 119.0625 188.039062 C 119.0625 168.777344 119.320312 165.476562 120.84375 165.476562 C 121.824219 165.476562 122.625 166.511719 122.625 167.773438 C 122.625 169.367188 123.625 170.222656 125.890625 170.5625 L 129.15625 171.058594 L 125.890625 171.238281 L 122.625 171.414062 L 122.625 191.007812 C 122.625 207.632812 122.355469 210.601562 120.84375 210.601562 C 119.320312 210.601562 119.0625 207.304688 119.0625 188.039062 Z M 112.828125 171.816406 C 113.644531 171.488281 114.980469 171.488281 115.796875 171.816406 C 116.613281 172.144531 115.945312 172.414062 114.3125 172.414062 C 112.679688 172.414062 112.011719 172.144531 112.828125 171.816406 Z M 260.511719 220.753906 C 263.09375 219.699219 265.125 214.949219 265.125 209.953125 L 265.125 205.851562 L 257.542969 205.851562 C 250.699219 205.851562 249.894531 206.109375 249.269531 208.503906 C 247.59375 214.917969 246.296875 207.371094 245.5 186.554688 C 244.933594 171.726562 245.050781 164.289062 245.851562 164.289062 C 247.703125 164.289062 248.136719 166.460938 248.34375 176.757812 C 248.445312 181.984375 248.859375 190.398438 249.261719 195.460938 L 249.992188 204.664062 L 265.398438 204.664062 L 264.707031 198.429688 C 264.324219 195 263.660156 184.554688 263.226562 175.214844 C 262.195312 152.96875 262.222656 153.007812 247.0625 153.007812 C 238.398438 153.007812 235.207031 153.476562 232.710938 155.113281 C 229.625 157.136719 229.5 157.628906 229.5 167.582031 C 229.5 173.28125 230.058594 186.761719 230.742188 197.539062 C 231.941406 216.542969 232.074219 217.21875 235.136719 219.957031 C 238.082031 222.585938 238.984375 222.738281 248.445312 222.160156 C 254.027344 221.816406 259.457031 221.1875 260.511719 220.753906 Z M 291.25 202.289062 C 291.835938 185.304688 292.261719 185.007812 294.226562 200.210938 L 294.957031 205.851562 L 313.476562 205.851562 L 314.792969 191.898438 C 315.519531 184.226562 316.488281 172.335938 316.953125 165.476562 C 318.105469 148.410156 319.316406 154.753906 320.414062 183.578125 L 321.261719 205.851562 L 327.929688 205.855469 L 334.59375 205.855469 L 334.328125 197.839844 L 334.0625 189.820312 L 336.351562 197.386719 C 337.613281 201.550781 338.800781 205.085938 338.992188 205.242188 C 339.183594 205.398438 343.019531 205.890625 347.515625 206.332031 L 355.6875 207.136719 L 354.949219 195.511719 C 354.546875 189.117188 353.863281 175.671875 353.433594 165.640625 L 352.652344 147.394531 L 346.863281 147.953125 C 343.675781 148.257812 340.75 148.832031 340.355469 149.222656 C 339.964844 149.617188 339.734375 155.421875 339.851562 162.125 C 339.96875 168.828125 339.78125 174.027344 339.4375 173.683594 C 339.09375 173.339844 337.527344 167.746094 335.957031 161.253906 L 333.101562 149.445312 L 319.003906 149.875 C 311.25 150.109375 304.671875 150.523438 304.386719 150.789062 C 304.101562 151.058594 303.566406 159.679688 303.199219 169.953125 L 302.53125 188.632812 L 300.976562 176.757812 C 300.121094 170.226562 298.886719 161.671875 298.230469 157.75 L 297.042969 150.617188 L 290.285156 151.21875 L 283.53125 151.820312 L 282.808594 167.257812 C 282.414062 175.75 281.949219 182.960938 281.777344 183.289062 C 281.609375 183.617188 280.527344 176.777344 279.371094 168.089844 C 278.21875 159.402344 277.078125 152.105469 276.839844 151.878906 C 276.601562 151.648438 273.414062 151.808594 269.753906 152.234375 L 263.101562 153.007812 L 267.378906 178.425781 C 271.101562 200.558594 271.960938 203.964844 274.03125 204.765625 C 276.039062 205.542969 276.082031 205.699219 274.328125 205.769531 C 271.882812 205.867188 271.847656 206.242188 273.546875 214.15625 L 274.84375 220.207031 L 282.75 219.855469 L 290.65625 219.507812 Z M 277.964844 205.042969 C 278.820312 204.699219 279.84375 204.742188 280.238281 205.136719 C 280.632812 205.53125 279.933594 205.808594 278.679688 205.757812 C 277.296875 205.703125 277.015625 205.421875 277.964844 205.042969 Z M 312.636719 217.429688 C 312.644531 216.613281 312.980469 213.941406 313.386719 211.492188 L 314.121094 207.039062 L 295.40625 207.039062 L 296.226562 218.914062 L 304.425781 218.914062 C 310.1875 218.914062 312.628906 218.472656 312.636719 217.429688 Z M 335.1875 213.117188 C 335.1875 208.074219 333.6875 207.089844 325.984375 207.054688 C 322.199219 207.039062 322.125 207.144531 322.125 212.382812 L 322.125 217.726562 L 335.1875 217.726562 Z M 351.050781 216.972656 C 356.363281 216.242188 356.5625 216.074219 356.5625 212.222656 L 356.5625 208.226562 L 339.746094 208.226562 L 340.574219 212.085938 C 341.933594 218.421875 341.605469 218.265625 351.050781 216.972656 Z M 42.398438 179.261719 C 43.011719 179.109375 43.375 175.945312 43.203125 172.230469 C 42.949219 166.75 43.242188 165.476562 44.757812 165.476562 C 46.234375 165.476562 46.625 166.875 46.625 172.164062 L 46.625 178.851562 L 51.078125 178.113281 C 53.527344 177.710938 56.734375 177.371094 58.203125 177.367188 C 60.742188 177.351562 60.875 176.902344 60.855469 168.148438 C 60.847656 163.085938 60.445312 158.359375 59.964844 157.640625 C 58.035156 154.746094 53.414062 153.601562 43.679688 153.601562 C 34.40625 153.601562 33.183594 153.875 30.539062 156.515625 C 27.90625 159.148438 27.625 160.402344 27.625 169.382812 C 27.625 174.855469 27.902344 179.609375 28.238281 179.945312 C 28.785156 180.496094 39.535156 179.972656 42.398438 179.261719 Z M 76.609375 175.402344 L 81.0625 174.667969 L 81.0625 153.601562 L 65.625 153.601562 L 65.625 176.164062 L 68.890625 176.152344 C 70.6875 176.144531 74.160156 175.808594 76.609375 175.402344 Z M 122.921875 139.78125 C 125.902344 139.21875 126.1875 138.703125 126.1875 133.878906 C 126.1875 130.375 125.609375 128.371094 124.480469 127.9375 C 123.542969 127.574219 123.066406 126.523438 123.417969 125.597656 C 123.773438 124.671875 123.472656 123.914062 122.75 123.914062 C 122.027344 123.914062 121.4375 124.449219 121.4375 125.101562 C 121.4375 125.753906 121.035156 126.203125 120.546875 126.097656 C 120.054688 125.992188 118.050781 126.613281 116.09375 127.476562 C 114.132812 128.339844 111.863281 128.9375 111.046875 128.804688 C 110.230469 128.671875 109.5625 129.09375 109.5625 129.746094 C 109.5625 130.398438 107.695312 131.28125 105.414062 131.710938 C 102.933594 132.175781 101.582031 132.992188 102.046875 133.746094 C 102.53125 134.53125 102.085938 134.722656 100.867188 134.253906 C 99.515625 133.738281 98.320312 134.507812 97.03125 136.722656 C 96.003906 138.496094 95.445312 139.011719 95.792969 137.867188 C 96.140625 136.726562 95.90625 135.789062 95.273438 135.789062 C 94.640625 135.789062 94.125 136.011719 94.125 136.285156 C 94.125 136.558594 93.816406 137.582031 93.441406 138.558594 C 93.023438 139.648438 93.597656 140.566406 94.925781 140.9375 C 97.316406 141.605469 117.757812 140.761719 122.921875 139.78125 Z M 162.652344 137.429688 C 164.476562 136.074219 166.628906 133.683594 167.433594 132.113281 C 168.816406 129.421875 168.902344 129.546875 168.917969 134.304688 C 168.933594 138.738281 169.261719 139.355469 171.609375 139.367188 C 173.078125 139.378906 175.484375 139.707031 176.953125 140.101562 C 179.5625 140.800781 179.625 140.59375 179.625 131.179688 L 179.625 121.539062 L 174.578125 121.527344 C 169.8125 121.515625 169.417969 121.246094 167.527344 116.75 C 164.785156 110.222656 160.230469 108.476562 145.945312 108.476562 C 136.835938 108.476562 134.617188 108.828125 134.03125 110.355469 C 133.066406 112.871094 133.109375 136.253906 134.082031 138.789062 C 134.75 140.535156 136.4375 140.738281 147.09375 140.34375 C 157.164062 139.96875 159.925781 139.453125 162.652344 137.429688 Z M 146.375 124.507812 C 146.375 118.121094 146.449219 117.976562 149.753906 117.976562 C 153.289062 117.976562 157.0625 121.105469 157.0625 124.042969 C 157.0625 127.511719 153.4375 131.039062 149.871094 131.039062 C 146.425781 131.039062 146.375 130.945312 146.375 124.507812 Z M 193.875 135.121094 C 193.875 129.722656 193.886719 129.703125 197.734375 130.074219 C 201.222656 130.410156 201.695312 130.929688 202.652344 135.492188 L 203.710938 140.539062 L 209.28125 140.539062 C 212.347656 140.539062 215.140625 140.253906 215.492188 139.902344 C 216.324219 139.070312 214.097656 128.460938 212.738281 126.765625 C 210.90625 124.476562 215.023438 117.976562 218.304688 117.976562 C 221.152344 117.976562 221.1875 118.109375 221.1875 129.257812 L 221.1875 140.539062 L 234.25 140.539062 L 234.25 117.976562 L 239 117.976562 C 243.75 117.976562 243.75 117.976562 243.75 113.226562 L 243.75 108.476562 L 227.71875 108.476562 C 217.457031 108.476562 211.6875 108.921875 211.6875 109.707031 C 211.6875 110.554688 210.972656 110.554688 209.390625 109.707031 C 208.125 109.03125 201.179688 108.476562 193.953125 108.476562 L 180.8125 108.476562 L 180.8125 123.71875 C 180.8125 132.097656 181.167969 139.3125 181.601562 139.75 C 182.039062 140.183594 184.976562 140.539062 188.132812 140.539062 L 193.875 140.539062 Z M 193.875 119.164062 C 193.875 117.03125 194.472656 116.695312 197.734375 117.011719 C 200.207031 117.25 201.59375 118.023438 201.59375 119.164062 C 201.59375 120.304688 200.207031 121.078125 197.734375 121.320312 C 194.472656 121.632812 193.875 121.300781 193.875 119.164062 Z M 91.75 138.164062 C 91.75 137.511719 91.511719 136.976562 91.226562 136.976562 C 90.9375 136.976562 90.371094 137.511719 89.96875 138.164062 C 89.5625 138.816406 89.800781 139.351562 90.492188 139.351562 C 91.183594 139.351562 91.75 138.816406 91.75 138.164062 Z M 276.109375 138.148438 C 279.089844 137.960938 278.671875 135.039062 275.515625 134.011719 C 274.046875 133.53125 272.574219 133.046875 272.25 132.9375 C 271.234375 132.585938 262.253906 128.515625 260.375 127.554688 C 259.394531 127.054688 257.523438 127.027344 256.21875 127.5 C 254.910156 127.96875 251.839844 128.132812 249.390625 127.863281 L 244.9375 127.371094 L 244.9375 139.554688 L 259.484375 138.917969 C 267.484375 138.570312 274.964844 138.222656 276.109375 138.148438 Z M 284.125 137.710938 C 284.125 137.460938 283.054688 136.976562 281.75 136.632812 C 280.441406 136.292969 279.375 136.496094 279.375 137.089844 C 279.375 137.679688 280.441406 138.164062 281.75 138.164062 C 283.054688 138.164062 284.125 137.960938 284.125 137.710938 Z M 177.128906 115.566406 C 178.5 112.933594 179.625 110.261719 179.625 109.628906 C 179.625 108.996094 176.941406 108.476562 173.667969 108.476562 L 167.707031 108.476562 L 170.71875 114.414062 C 172.371094 117.679688 173.929688 120.351562 174.179688 120.351562 C 174.429688 120.351562 175.757812 118.199219 177.128906 115.566406 Z M 239.390625 269.285156 C 239 268.269531 239.253906 266.875 239.949219 266.175781 C 241.6875 264.441406 245.050781 265.917969 244.230469 268.058594 C 243.246094 270.628906 240.203125 271.398438 239.390625 269.285156 Z M 296.554688 266.355469 C 295.425781 264.53125 296.972656 263.351562 298.496094 264.875 C 299.351562 265.726562 299.371094 266.394531 298.558594 266.894531 C 297.894531 267.304688 296.992188 267.0625 296.554688 266.355469 Z M 284.125 257.636719 C 284.125 257.378906 284.925781 256.859375 285.90625 256.484375 C 286.882812 256.109375 287.6875 256.320312 287.6875 256.953125 C 287.6875 257.585938 286.882812 258.101562 285.90625 258.101562 C 284.925781 258.101562 284.125 257.890625 284.125 257.636719 Z M 72.75 246.226562 C 72.75 245.574219 74.21875 245.046875 76.015625 245.058594 C 78.558594 245.070312 78.886719 245.332031 77.5 246.226562 C 75.175781 247.730469 72.75 247.730469 72.75 246.226562 Z M 303.78125 243.953125 C 303.398438 243.335938 303.589844 242.515625 304.210938 242.132812 C 304.828125 241.75 305.648438 241.945312 306.03125 242.5625 C 306.414062 243.183594 306.21875 244 305.601562 244.382812 C 304.980469 244.765625 304.164062 244.574219 303.78125 243.953125 Z M 308.664062 244.25 C 307.089844 242.671875 307.921875 240.289062 310.050781 240.289062 C 312.851562 240.289062 313.808594 241.289062 313.007812 243.375 C 312.335938 245.125 310.007812 245.59375 308.664062 244.25 Z M 325.6875 237.914062 C 325.6875 237.261719 326.253906 236.726562 326.945312 236.726562 C 327.636719 236.726562 327.871094 237.261719 327.46875 237.914062 C 327.0625 238.566406 326.496094 239.101562 326.210938 239.101562 C 325.921875 239.101562 325.6875 238.566406 325.6875 237.914062 Z M 297.78125 125.101562 C 297.375 124.449219 297.613281 123.914062 298.304688 123.914062 C 298.996094 123.914062 299.5625 124.449219 299.5625 125.101562 C 299.5625 125.753906 299.324219 126.289062 299.039062 126.289062 C 298.75 126.289062 298.183594 125.753906 297.78125 125.101562 Z M 278.1875 123.914062 C 278.1875 123.261719 278.722656 122.726562 279.375 122.726562 C 280.027344 122.726562 280.5625 123.261719 280.5625 123.914062 C 280.5625 124.566406 280.027344 125.101562 279.375 125.101562 C 278.722656 125.101562 278.1875 124.566406 278.1875 123.914062 Z M 278.1875 123.914062"/> <use mask="url(#mask0)" xlink:href="#surface5"/> </g> </svg>
