<svg xmlns="http://www.w3.org/2000/svg" xmlns:xlink="http://www.w3.org/1999/xlink" width="384pt" height="384pt" version="1.1" viewBox="0 0 384 384">
 <defs>
  <radialGradient id="radial0" cx="193.858" cy="788.56" r="89.25" fx="193.858" fy="788.56" gradientTransform="matrix(1.883309,0.00621602,-0.0139043,5.700816,-147.418958,-4250.86986)" gradientUnits="userSpaceOnUse">
   <stop offset="0" style="stop-color:rgb(55.686275%,26.666667%,67.843137%)"/>
   <stop offset="1" style="stop-color:rgb(21.176471%,48.235294%,94.117647%)"/>
  </radialGradient>
  <filter id="alpha" width="100%" height="100%" x="0%" y="0%" filterUnits="objectBoundingBox">
   <feColorMatrix in="SourceGraphic" type="matrix" values="0 0 0 0 1 0 0 0 0 1 0 0 0 0 1 0 0 0 1 0"/>
  </filter>
  <mask id="mask0">
   <g filter="url(#alpha)">
    <rect width="384" height="384" x="0" y="0" style="fill:rgb(0%,0%,0%);fill-opacity:0.243137"/>
   </g>
  </mask>
  <clipPath id="clip1">
   <rect width="384" height="384" x="0" y="0"/>
  </clipPath>
  <g id="surface5" clip-path="url(#clip1)">
   <path style="fill:rgb(100%,100%,100%);stroke-width:1.721149;stroke:rgb(53.72549%,24.313725%,0%)" d="M 255.682292 718.216347 C 255.583333 718.231972 255.484375 718.247597 255.385417 718.263222 L 255.385417 718.284055 C 183.307292 736.195513 119.09375 790.971555 119.0625 866.461138 C 119.083333 941.95593 179.895833 1003.351763 255.385417 1004.101763 L 255.385417 1004.117388 C 255.484375 1004.133013 255.583333 1004.14343 255.682292 1004.148638 C 255.776042 1004.14343 255.864583 1004.133013 255.953125 1004.122597 C 256.21875 1004.133013 256.484375 1004.14343 256.755208 1004.148638 C 257.046875 1004.14343 257.34375 1004.133013 257.635417 1004.117388 L 257.635417 1003.945513 C 282.614583 1000.856972 302.322917 940.231972 302.338542 866.461138 C 302.307292 792.721555 282.598958 721.591347 257.635417 718.508013 L 257.635417 718.263222 C 256.958333 718.221555 256.317708 718.23718 255.682292 718.216347 Z M 255.682292 718.216347" transform="matrix(0.75,0,0,0.75,0,-405.271635)"/>
  </g>
  <mask id="mask1">
   <g filter="url(#alpha)">
    <rect width="384" height="384" x="0" y="0" style="fill:rgb(0%,0%,0%);fill-opacity:0.243137"/>
   </g>
  </mask>
  <clipPath id="clip2">
   <rect width="384" height="384" x="0" y="0"/>
  </clipPath>
  <g id="surface8" clip-path="url(#clip2)">
   <path style="fill:rgb(100%,100%,100%);stroke-width:1.721149;stroke:rgb(53.72549%,24.313725%,0%)" d="M 255.682292 738.065305 C 255.583333 738.08093 255.484375 738.096555 255.385417 738.11218 L 255.385417 738.133013 C 189.901042 749.377805 136.307292 800.476763 136.270833 866.461138 C 136.296875 932.450722 189.401042 986.14343 255.385417 986.888222 L 255.385417 986.909055 C 255.484375 986.919472 255.583333 986.929888 255.682292 986.940305 C 255.776042 986.929888 255.864583 986.919472 255.953125 986.909055 C 256.21875 986.919472 256.484375 986.929888 256.755208 986.940305 C 257.046875 986.929888 257.34375 986.919472 257.635417 986.909055 L 257.635417 986.731972 C 279.390625 983.659055 296.494792 930.731972 296.505208 866.461138 C 296.479167 802.221555 279.380208 741.429888 257.635417 738.356972 L 257.635417 738.11218 C 257.34375 738.096555 257.046875 738.08093 256.755208 738.065305 C 256.484375 738.08093 256.21875 738.091347 255.953125 738.106972 C 255.864583 738.091347 255.776042 738.08093 255.682292 738.065305 Z M 255.682292 738.065305" transform="matrix(0.75,0,0,0.75,0,-405.271635)"/>
  </g>
  <mask id="mask2">
   <g filter="url(#alpha)">
    <rect width="384" height="384" x="0" y="0" style="fill:rgb(0%,0%,0%);fill-opacity:0.243137"/>
   </g>
  </mask>
  <clipPath id="clip3">
   <rect width="384" height="384" x="0" y="0"/>
  </clipPath>
  <g id="surface11" clip-path="url(#clip3)">
   <path style="fill:rgb(100%,100%,100%);stroke-width:1.721149;stroke:rgb(53.72549%,24.313725%,0%)" d="M 255.682292 757.914263 C 255.583333 757.929888 255.484375 757.945513 255.385417 757.961138 L 255.385417 757.981972 C 203.088542 762.565305 153.515625 809.981972 153.484375 866.461138 C 153.505208 922.945513 198.90625 968.929888 255.385417 969.679888 L 255.385417 969.695513 C 255.484375 969.70593 255.583333 969.716347 255.682292 969.726763 C 255.776042 969.721555 255.864583 969.711138 255.953125 969.700722 C 256.21875 969.711138 256.484375 969.721555 256.755208 969.726763 C 257.046875 969.716347 257.34375 969.70593 257.635417 969.695513 L 257.635417 969.523638 C 276.171875 966.466347 290.666667 921.23718 290.677083 866.461138 C 290.65625 811.711138 276.15625 761.258013 257.635417 758.20593 L 257.635417 757.961138 C 257.34375 757.945513 257.046875 757.929888 256.755208 757.914263 C 256.484375 757.92468 256.21875 757.940305 255.953125 757.95593 C 255.864583 757.940305 255.776042 757.929888 255.682292 757.914263 Z M 255.682292 757.914263" transform="matrix(0.75,0,0,0.75,0,-405.271635)"/>
  </g>
  <mask id="mask3">
   <g filter="url(#alpha)">
    <rect width="384" height="384" x="0" y="0" style="fill:rgb(0%,0%,0%);fill-opacity:0.243137"/>
   </g>
  </mask>
  <clipPath id="clip4">
   <rect width="384" height="384" x="0" y="0"/>
  </clipPath>
  <g id="surface14" clip-path="url(#clip4)">
   <path style="fill:rgb(100%,100%,100%);stroke-width:1.721149;stroke:rgb(53.72549%,24.313725%,0%)" d="M 255.682292 780.403847 C 255.583333 780.414263 255.484375 780.429888 255.385417 780.445513 L 255.385417 780.471555 C 208.416667 781.216347 170.729167 819.48718 170.697917 866.461138 C 170.71875 913.440305 208.411458 951.721555 255.385417 952.466347 L 255.385417 952.481972 C 255.484375 952.497597 255.583333 952.508013 255.682292 952.51843 C 255.776042 952.508013 255.864583 952.497597 255.953125 952.48718 C 256.21875 952.497597 256.484375 952.508013 256.755208 952.51843 C 257.046875 952.508013 257.34375 952.497597 257.635417 952.481972 L 257.635417 952.315305 C 272.947917 949.278847 284.84375 911.747597 284.84375 866.461138 C 284.828125 821.20593 272.9375 783.721555 257.635417 780.690305 L 257.635417 780.445513 C 257.34375 780.429888 257.046875 780.414263 256.755208 780.403847 C 256.484375 780.414263 256.21875 780.42468 255.953125 780.440305 C 255.864583 780.42468 255.776042 780.414263 255.682292 780.403847 Z M 255.682292 780.403847" transform="matrix(0.75,0,0,0.75,0,-405.271635)"/>
  </g>
  <mask id="mask4">
   <g filter="url(#alpha)">
    <rect width="384" height="384" x="0" y="0" style="fill:rgb(0%,0%,0%);fill-opacity:0.243137"/>
   </g>
  </mask>
  <clipPath id="clip5">
   <rect width="384" height="384" x="0" y="0"/>
  </clipPath>
  <g id="surface17" clip-path="url(#clip5)">
   <path style="fill:rgb(100%,100%,100%);stroke-width:1.721149;stroke:rgb(53.72549%,24.313725%,0%)" d="M 255.682292 797.61218 C 255.583333 797.627805 255.484375 797.638222 255.385417 797.653847 L 255.385417 797.679888 C 217.921875 798.42468 187.9375 828.992388 187.90625 866.461138 C 187.927083 903.935097 217.916667 934.513222 255.385417 935.258013 L 255.385417 935.273638 C 255.484375 935.284055 255.583333 935.294472 255.682292 935.304888 C 255.776042 935.294472 255.864583 935.289263 255.953125 935.273638 C 256.21875 935.289263 256.484375 935.294472 256.755208 935.304888 C 257.046875 935.294472 257.34375 935.284055 257.635417 935.273638 L 257.635417 935.023638 C 269.713542 932.028847 279.005208 902.231972 279.010417 866.461138 C 279.005208 830.690305 269.713542 800.898638 257.635417 797.903847 L 257.635417 797.653847 C 257.34375 797.638222 257.046875 797.627805 256.755208 797.61218 C 256.484375 797.622597 256.21875 797.638222 255.953125 797.653847 C 255.864583 797.638222 255.776042 797.622597 255.682292 797.61218 Z M 255.682292 797.61218" transform="matrix(0.75,0,0,0.75,0,-405.271635)"/>
  </g>
  <mask id="mask5">
   <g filter="url(#alpha)">
    <rect width="384" height="384" x="0" y="0" style="fill:rgb(0%,0%,0%);fill-opacity:0.243137"/>
   </g>
  </mask>
  <clipPath id="clip6">
   <rect width="384" height="384" x="0" y="0"/>
  </clipPath>
  <g id="surface20" clip-path="url(#clip6)">
   <path style="fill:rgb(100%,100%,100%);stroke-width:1.721149;stroke:rgb(53.72549%,24.313725%,0%)" d="M 255.682292 814.825722 C 255.583333 814.836138 255.484375 814.851763 255.385417 814.867388 L 255.385417 814.89343 C 227.432292 815.633013 205.145833 838.492388 205.119792 866.461138 C 205.135417 894.429888 227.421875 917.304888 255.385417 918.044472 L 255.385417 918.060097 C 255.484375 918.075722 255.583333 918.086138 255.682292 918.091347 C 255.776042 918.086138 255.864583 918.075722 255.953125 918.065305 C 256.21875 918.075722 256.484375 918.086138 256.755208 918.091347 C 257.046875 918.086138 257.34375 918.075722 257.635417 918.060097 L 257.635417 917.70593 C 266.479167 914.773638 273.166667 892.721555 273.177083 866.461138 C 273.177083 840.185097 266.484375 818.106972 257.635417 815.17468 L 257.635417 814.867388 C 257.34375 814.851763 257.046875 814.836138 256.755208 814.825722 C 256.484375 814.836138 256.21875 814.846555 255.953125 814.86218 C 255.864583 814.846555 255.776042 814.836138 255.682292 814.825722 Z M 255.682292 814.825722" transform="matrix(0.75,0,0,0.75,0,-405.271635)"/>
  </g>
  <mask id="mask6">
   <g filter="url(#alpha)">
    <rect width="384" height="384" x="0" y="0" style="fill:rgb(0%,0%,0%);fill-opacity:0.14902"/>
   </g>
  </mask>
  <clipPath id="clip7">
   <rect width="384" height="384" x="0" y="0"/>
  </clipPath>
  <g id="surface23" clip-path="url(#clip7)">
   <path style="fill:rgb(0%,0%,0%)" d="M 192.871094 122.25 L 192.871094 361.269531 C 214.703125 357.742188 231.773438 306.378906 231.78125 244.195312 C 231.769531 213.117188 224.25 146.25 199.675781 130.691406 C 197.535156 128.578125 197.25 126.75 199.988281 122.875 C 200.921875 121.550781 204 118.5 212.175781 112.875 C 213.796875 111.761719 207.429688 112.316406 205.199219 112.972656 C 201.234375 114.132812 198.421875 117.785156 194.671875 119.515625 C 192 120.75 192.96875 121.457031 192.871094 122.25 Z M 192.871094 122.25"/>
  </g>
  <mask id="mask7">
   <g filter="url(#alpha)">
    <rect width="384" height="384" x="0" y="0" style="fill:rgb(0%,0%,0%);fill-opacity:0.243137"/>
   </g>
  </mask>
  <clipPath id="clip8">
   <rect width="384" height="384" x="0" y="0"/>
  </clipPath>
  <g id="surface26" clip-path="url(#clip8)">
   <path style="fill:rgb(100%,100%,100%);stroke-width:1.721149;stroke:rgb(53.72549%,24.313725%,0%)" d="M 255.682292 832.034055 C 255.583333 832.044472 255.484375 832.060097 255.385417 832.08093 L 255.385417 832.106972 C 236.9375 832.836138 222.354167 847.997597 222.328125 866.461138 C 222.34375 884.929888 236.927083 900.096555 255.385417 900.83093 L 255.385417 900.851763 C 255.484375 900.86218 255.583333 900.872597 255.682292 900.883013 C 255.776042 900.872597 255.864583 900.867388 255.953125 900.851763 C 256.21875 900.867388 256.484375 900.872597 256.755208 900.883013 C 257.046875 900.872597 257.34375 900.86218 257.635417 900.851763 L 257.635417 900.388222 C 263.244792 897.58093 267.348958 883.242388 267.348958 866.461138 C 267.34375 849.685097 263.239583 835.367388 257.635417 832.560097 L 257.635417 832.08093 C 257.34375 832.060097 257.046875 832.044472 256.755208 832.034055 C 256.484375 832.044472 256.21875 832.060097 255.953125 832.075722 C 255.864583 832.060097 255.776042 832.044472 255.682292 832.034055 Z M 255.682292 832.034055" transform="matrix(0.75,0,0,0.75,0,-405.271635)"/>
  </g>
  <mask id="mask8">
   <g filter="url(#alpha)">
    <rect width="384" height="384" x="0" y="0" style="fill:rgb(0%,0%,0%);fill-opacity:0.243137"/>
   </g>
  </mask>
  <clipPath id="clip9">
   <rect width="384" height="384" x="0" y="0"/>
  </clipPath>
  <g id="surface29" clip-path="url(#clip9)">
   <path style="fill:rgb(100%,100%,100%);stroke-width:1.721149;stroke:rgb(53.72549%,24.313725%,0%)" d="M 255.682292 849.247597 C 255.583333 849.252805 255.484375 849.26843 255.385417 849.289263 L 255.385417 849.315305 C 246.442708 850.028847 239.546875 857.48718 239.541667 866.461138 C 239.546875 875.429888 246.442708 882.89343 255.385417 883.606972 L 255.385417 883.638222 C 255.484375 883.653847 255.583333 883.669472 255.682292 883.669472 C 255.776042 883.664263 255.864583 883.659055 255.953125 883.64343 C 256.21875 883.659055 256.484375 883.664263 256.755208 883.669472 C 257.046875 883.669472 257.34375 883.653847 257.635417 883.638222 L 257.635417 882.659055 C 259.958333 880.221555 261.515625 873.73718 261.515625 866.461138 C 261.515625 859.185097 259.958333 852.700722 257.635417 850.263222 L 257.635417 849.289263 C 257.34375 849.26843 257.046875 849.252805 256.755208 849.247597 C 256.484375 849.252805 256.21875 849.26843 255.953125 849.289263 C 255.864583 849.26843 255.776042 849.252805 255.682292 849.247597 Z M 255.682292 849.247597" transform="matrix(0.75,0,0,0.75,0,-405.271635)"/>
  </g>
  <mask id="mask9">
   <g filter="url(#alpha)">
    <rect width="384" height="384" x="0" y="0" style="fill:rgb(0%,0%,0%);fill-opacity:0.301961"/>
   </g>
  </mask>
  <clipPath id="clip10">
   <rect width="384" height="384" x="0" y="0"/>
  </clipPath>
  <g id="surface32" clip-path="url(#clip10)">
   <path style="fill-rule:evenodd;fill:rgb(100%,100%,100%)" d="M 285.832031 23.25 C 285.832031 23.25 284.914062 23.355469 283.320312 23.699219 C 272.492188 42.378906 228.707031 114.179688 198.527344 108.695312 C 197.957031 109.871094 197.386719 111.054688 196.820312 112.257812 C 231.4375 122.148438 285.832031 23.25 285.832031 23.25 Z M 196.820312 112.257812 C 197.398438 111.105469 197.882812 109.894531 198.300781 108.652344 C 197.804688 108.554688 197.308594 108.441406 196.820312 108.304688 C 186.492188 99.695312 182.765625 90.492188 182.285156 82.148438 C 181.730469 91.46875 184.832031 102.265625 196.820312 112.257812 Z M 196.820312 108.304688 C 197.800781 106.222656 198.785156 104.207031 199.777344 102.222656 C 200.171875 99.355469 200.28125 96.378906 200.183594 93.386719 C 200 98.730469 199.027344 103.886719 196.820312 108.304688 Z M 196.820312 108.304688"/>
  </g>
  <mask id="mask10">
   <g filter="url(#alpha)">
    <rect width="384" height="384" x="0" y="0" style="fill:rgb(0%,0%,0%);fill-opacity:0.2"/>
   </g>
  </mask>
  <clipPath id="clip11">
   <rect width="384" height="384" x="0" y="0"/>
  </clipPath>
  <g id="surface35" clip-path="url(#clip11)">
   <path style="fill-rule:evenodd;fill:rgb(0%,0%,0%)" d="M 285.832031 23.25 C 285.832031 23.25 238.800781 27.96875 199.777344 106.179688 C 199.46875 108.402344 198.984375 110.558594 198.300781 112.605469 C 198.378906 112.621094 198.453125 112.640625 198.527344 112.652344 C 232.519531 42.839844 273.042969 29.878906 283.320312 27.65625 C 284.929688 24.878906 285.832031 23.25 285.832031 23.25 Z M 191.875 57.863281 C 191.875 57.863281 181.378906 70.476562 182.285156 86.101562 C 183.101562 72.355469 191.875 61.820312 191.875 61.820312 C 191.875 61.820312 199.605469 79.867188 200.183594 97.34375 C 200.820312 78.75 191.875 57.863281 191.875 57.863281 Z M 191.875 57.863281"/>
  </g>
  <mask id="mask11">
   <g filter="url(#alpha)">
    <rect width="384" height="384" x="0" y="0" style="fill:rgb(0%,0%,0%);fill-opacity:0.301961"/>
   </g>
  </mask>
  <clipPath id="clip12">
   <rect width="384" height="384" x="0" y="0"/>
  </clipPath>
  <g id="surface38" clip-path="url(#clip12)">
   <path style="fill:rgb(0%,0%,0%)" d="M 195.464844 175.425781 C 195.660156 175.425781 197.296875 181.441406 199.101562 188.792969 C 202.691406 203.402344 203.746094 207.261719 204.371094 208.109375 C 204.597656 208.417969 206.152344 209.171875 207.832031 209.78125 C 213.59375 211.886719 219.960938 215.308594 223.027344 217.957031 C 230.089844 224.054688 234.527344 230.460938 237.488281 238.84375 C 238.460938 241.59375 239.324219 243.933594 239.398438 244.035156 C 239.535156 244.210938 242.066406 244.828125 263.777344 249.96875 C 268.59375 251.109375 272.34375 252.214844 272.117188 252.425781 C 271.75 252.765625 264.269531 254.636719 245.570312 259.0625 C 239.378906 260.527344 239.710938 260.234375 237.449219 266.246094 C 236.011719 270.066406 233.847656 274.441406 232.820312 275.605469 C 232.40625 276.078125 232.003906 276.464844 231.929688 276.464844 C 231.855469 276.464844 230.441406 274.59375 228.789062 272.304688 L 225.789062 268.144531 L 227.378906 263.355469 C 228.832031 258.980469 228.972656 258.027344 228.976562 252.429688 C 228.980469 245.347656 228.332031 242.609375 225.183594 236.492188 C 221.5 229.335938 213.71875 222.746094 205.730469 220.019531 C 200.914062 218.375 192.640625 218.15625 186.90625 219.523438 L 182.554688 220.5625 L 180.042969 218.40625 C 175.765625 214.738281 174.765625 213.695312 175.0625 213.21875 C 175.21875 212.964844 177.714844 211.847656 180.605469 210.734375 C 183.5 209.621094 186.21875 208.453125 186.644531 208.132812 C 187.332031 207.621094 188.652344 202.550781 194.609375 177.511719 C 194.882812 176.363281 195.265625 175.425781 195.464844 175.425781 Z M 157.808594 229.195312 L 158.992188 230.636719 C 159.644531 231.429688 161.167969 233.339844 162.375 234.882812 L 164.570312 237.691406 L 163.3125 241.8125 C 159.371094 254.742188 162.722656 267.484375 172.511719 276.785156 C 176.21875 280.304688 181.910156 283.636719 186.164062 284.777344 C 191.703125 286.257812 202.105469 286.148438 206.070312 284.5625 C 207.894531 283.832031 208.234375 283.824219 209.488281 284.496094 C 211.753906 285.699219 216.730469 290.445312 216.359375 291.046875 C 216.175781 291.347656 213.398438 292.613281 210.191406 293.859375 C 205.3125 295.757812 204.277344 296.34375 203.835938 297.453125 C 203.550781 298.183594 201.75 305.511719 199.839844 313.742188 C 197.929688 321.96875 196.226562 329.253906 196.058594 329.925781 C 195.679688 331.414062 196.15625 333.078125 191.042969 312.367188 C 188.957031 303.921875 186.941406 296.726562 186.558594 296.375 C 186.179688 296.027344 184.433594 295.230469 182.679688 294.605469 C 177.921875 292.910156 172.5 290.09375 169.191406 287.605469 C 162.808594 282.808594 156.988281 275.261719 154.460938 268.5 C 152.167969 262.371094 151.414062 260.875 150.480469 260.59375 C 149.980469 260.441406 142.632812 258.65625 134.148438 256.625 C 125.667969 254.59375 118.546875 252.746094 118.324219 252.523438 C 118.101562 252.300781 125.253906 250.367188 134.21875 248.226562 C 144.890625 245.679688 150.757812 244.058594 151.214844 243.53125 C 151.597656 243.085938 152.839844 240.285156 153.976562 237.304688 C 155.117188 234.324219 156.441406 231.28125 156.925781 230.539062 Z M 157.808594 229.195312"/>
  </g>
  <mask id="mask12">
   <g filter="url(#alpha)">
    <rect width="384" height="384" x="0" y="0" style="fill:rgb(0%,0%,0%);fill-opacity:0.301961"/>
   </g>
  </mask>
  <clipPath id="clip13">
   <rect width="384" height="384" x="0" y="0"/>
  </clipPath>
  <g id="surface41" clip-path="url(#clip13)">
   <path style="fill:rgb(0%,0%,0%);stroke-width:1.903976;stroke:rgb(0%,0%,0%)" d="M 278.572917 896.289263 L 362.067708 774.716347 L 240.630208 857.226763 M 278.9375 896.89343 L 239.427083 858.440305 L 155.932292 980.008013" transform="matrix(0.75,0,0,0.75,0,-405.271635)"/>
  </g>
  <mask id="mask13">
   <g filter="url(#alpha)">
    <rect width="384" height="384" x="0" y="0" style="fill:rgb(0%,0%,0%);fill-opacity:0.301961"/>
   </g>
  </mask>
  <clipPath id="clip14">
   <rect width="384" height="384" x="0" y="0"/>
  </clipPath>
  <g id="surface44" clip-path="url(#clip14)">
   <path style="fill:rgb(0%,0%,0%)" d="M 76.453125 240.808594 C 76.414062 242.058594 76.386719 243.3125 76.386719 244.570312 C 76.386719 308.429688 127.910156 360.246094 191.652344 360.738281 C 191.6875 360.738281 191.726562 360.746094 191.761719 360.75 C 191.832031 360.75 191.898438 360.742188 191.964844 360.742188 C 192.167969 360.742188 192.367188 360.75 192.566406 360.75 C 192.886719 360.742188 193.210938 360.726562 193.53125 360.714844 L 193.53125 360.6875 C 256.78125 359.554688 307.597656 307.960938 307.613281 244.566406 C 307.609375 243.332031 307.582031 242.109375 307.542969 240.886719 C 305.53125 302.523438 255.503906 352.078125 193.53125 353.1875 L 193.53125 353.214844 C 193.210938 353.226562 192.886719 353.242188 192.566406 353.25 C 192.367188 353.25 192.167969 353.242188 191.964844 353.242188 C 191.898438 353.242188 191.832031 353.25 191.761719 353.25 C 191.726562 353.246094 191.6875 353.238281 191.652344 353.238281 C 129.15625 352.757812 78.417969 302.9375 76.453125 240.808594 Z M 76.453125 240.808594"/>
  </g>
 </defs>
 <g>
  <path style="fill:url(#radial0)" d="M 212.574219 112.257812 L 197.726562 122.585938 L 196.441406 128.59375 C 195.09375 128.519531 193.75 128.464844 192.402344 128.4375 L 192.402344 360.707031 C 256.175781 360.175781 307.597656 308.339844 307.613281 244.566406 C 307.527344 190.65625 269.945312 145.5625 217.867188 131.621094 C 212 130.050781 211.671875 119.066406 212.574219 112.257812 Z M 212.574219 112.257812"/>
  <path style="fill:rgb(100%,78.431373%,19.215686%)" d="M 183.890625 109.023438 C 179.480469 108.808594 180.523438 125.953125 157.710938 133.558594 C 157.710938 133.558594 158.355469 133.515625 158.425781 133.507812 C 110.925781 148.089844 76.386719 192.292969 76.386719 244.574219 C 76.386719 308.429688 127.910156 360.246094 191.652344 360.738281 C 191.6875 360.738281 191.726562 360.746094 191.761719 360.75 C 191.832031 360.75 191.898438 360.742188 191.964844 360.742188 C 192.164062 360.742188 192.363281 360.75 192.566406 360.75 C 192.886719 360.738281 193.210938 360.726562 193.53125 360.714844 L 193.53125 360.628906 C 214.453125 357.894531 231.128906 306.984375 231.128906 244.574219 C 231.128906 189.101562 217.953125 142.71875 200.335938 131.167969 C 200.335938 131.167969 200.339844 131.167969 200.339844 131.167969 C 193.210938 126.457031 203.539062 118.714844 211.28125 113.550781 C 219.027344 108.386719 191.917969 114.195312 185.464844 109.675781 C 184.859375 109.253906 184.347656 109.046875 183.890625 109.023438 Z M 183.890625 109.023438"/>
  <use mask="url(#mask0)" xlink:href="#surface5"/>
  <use mask="url(#mask1)" xlink:href="#surface8"/>
  <use mask="url(#mask2)" xlink:href="#surface11"/>
  <use mask="url(#mask3)" xlink:href="#surface14"/>
  <use mask="url(#mask4)" xlink:href="#surface17"/>
  <use mask="url(#mask5)" xlink:href="#surface20"/>
  <use mask="url(#mask6)" xlink:href="#surface23"/>
  <use mask="url(#mask7)" xlink:href="#surface26"/>
  <use mask="url(#mask8)" xlink:href="#surface29"/>
  <path style="fill-rule:evenodd;fill:rgb(10.588235%,63.921569%,53.72549%)" d="M 285.832031 23.25 C 285.832031 23.25 236.382812 28.195312 196.820312 112.257812 C 231.4375 122.148438 285.832031 23.25 285.832031 23.25 Z M 196.820312 112.257812 C 206.710938 92.480469 191.875 57.863281 191.875 57.863281 C 191.875 57.863281 167.152344 87.535156 196.820312 112.257812 Z M 196.820312 112.257812"/>
  <use mask="url(#mask9)" xlink:href="#surface32"/>
  <use mask="url(#mask10)" xlink:href="#surface35"/>
  <use mask="url(#mask11)" xlink:href="#surface38"/>
  <path style="fill:rgb(100%,100%,100%);stroke-width:1.427982;stroke:rgb(100%,100%,100%)" d="M 254.619792 768.263222 C 254.880208 768.263222 257.0625 776.284055 259.46875 786.086138 C 264.255208 805.565305 265.661458 810.711138 266.494792 811.841347 C 266.796875 812.252805 268.869792 813.258013 271.109375 814.070513 C 278.791667 816.877805 287.28125 821.440305 291.369792 824.971555 C 300.786458 833.101763 306.703125 841.64343 310.651042 852.820513 C 311.947917 856.48718 313.098958 859.606972 313.197917 859.742388 C 313.380208 859.976763 316.755208 860.79968 345.703125 867.653847 C 352.125 869.17468 357.125 870.648638 356.822917 870.929888 C 356.333333 871.383013 346.359375 873.877805 321.427083 879.778847 C 313.171875 881.731972 313.614583 881.341347 310.598958 889.356972 C 308.682292 894.450722 305.796875 900.284055 304.427083 901.836138 C 303.875 902.466347 303.338542 902.981972 303.239583 902.981972 C 303.140625 902.981972 301.255208 900.48718 299.052083 897.435097 L 295.052083 891.888222 L 297.171875 885.502805 C 299.109375 879.669472 299.296875 878.398638 299.302083 870.935097 C 299.307292 861.492388 298.442708 857.841347 294.244792 849.685097 C 289.333333 840.14343 278.958333 831.356972 268.307292 827.721555 C 261.885417 825.528847 250.854167 825.23718 243.208333 827.060097 L 237.40625 828.445513 L 234.057292 825.570513 C 228.354167 820.679888 227.020833 819.289263 227.416667 818.653847 C 227.625 818.315305 230.953125 816.825722 234.807292 815.341347 C 238.666667 813.856972 242.291667 812.29968 242.859375 811.872597 C 243.776042 811.190305 245.536458 804.429888 253.479167 771.044472 C 253.84375 769.513222 254.354167 768.263222 254.619792 768.263222 Z M 204.411458 839.95593 L 205.989583 841.877805 C 206.859375 842.935097 208.890625 845.481972 210.5 847.539263 L 213.427083 851.284055 L 211.75 856.778847 C 206.494792 874.01843 210.963542 891.008013 224.015625 903.409055 C 228.958333 908.101763 236.546875 912.544472 242.21875 914.065305 C 249.604167 916.039263 263.473958 915.89343 268.760417 913.778847 C 271.192708 912.804888 271.645833 912.794472 273.317708 913.690305 C 276.338542 915.294472 282.973958 921.622597 282.479167 922.42468 C 282.234375 922.825722 278.53125 924.513222 274.255208 926.17468 C 267.75 928.70593 266.369792 929.48718 265.78125 930.966347 C 265.401042 931.940305 263 941.711138 260.453125 952.685097 C 257.90625 963.653847 255.635417 973.367388 255.411458 974.263222 C 254.90625 976.247597 255.541667 978.466347 248.723958 950.851763 C 245.942708 939.591347 243.255208 929.997597 242.744792 929.528847 C 242.239583 929.065305 239.911458 928.002805 237.572917 927.169472 C 231.229167 924.909055 224 921.153847 219.588542 917.836138 C 211.078125 911.440305 203.317708 901.377805 199.947917 892.36218 C 196.890625 884.190305 195.885417 882.195513 194.640625 881.820513 C 193.973958 881.617388 184.177083 879.23718 172.864583 876.528847 C 161.557292 873.820513 152.0625 871.356972 151.765625 871.060097 C 151.46875 870.763222 161.005208 868.185097 172.958333 865.33093 C 187.1875 861.935097 195.010417 859.773638 195.619792 859.070513 C 196.130208 858.476763 197.786458 854.742388 199.302083 850.76843 C 200.822917 846.794472 202.588542 842.73718 203.234375 841.747597 Z M 204.411458 839.95593" transform="matrix(0.75,0,0,0.75,0,-405.271635)"/>
  <use mask="url(#mask12)" xlink:href="#surface41"/>
  <path style="fill:rgb(100%,100%,100%);stroke-width:1.903976;stroke:rgb(84.313725%,84.313725%,84.313725%)" d="M 235.590652 237.580365 L 152.09586 359.148073 L 273.53336 276.637657 Z M 235.590652 237.580365" transform="matrix(0.75,0,0,0.75,-1.622676,55.87332)"/>
  <path style="fill:rgb(96.470588%,27.843137%,27.843137%);fill-opacity:0.996078;stroke-width:1.903976;stroke:rgb(87.058824%,24.313725%,24.313725%)" d="M 274.736485 275.424115 L 358.231277 153.856407 L 236.793777 236.366823 Z M 274.736485 275.424115" transform="matrix(0.75,0,0,0.75,-1.622676,55.87332)"/>
  <use mask="url(#mask13)" xlink:href="#surface44"/>
 </g>
</svg>
