<svg xmlns="http://www.w3.org/2000/svg" width="384pt" height="384pt" version="1.1" viewBox="0 0 384 384"> <g transform="translate(-35.638142,35.384278)"> <rect width="246.187" height="247.748" x="148.62" y="-174.09" rx="14.233" ry="14.233" transform="rotate(45)" style="fill:rgb(4.705%,63.137%,36.862%)"/> <path d="m 527.83203,203.08594 c -0.84236,3.07792 -2.46381,5.99115 -4.89062,8.41797 L 316.20117,418.24609 c -7.43403,7.43403 -19.40386,7.43403 -26.83789,0 L 84.09375,212.97656 c -2.427294,-2.42729 -4.048408,-5.34132 -4.890625,-8.41992 -1.73786,6.35055 -0.116486,13.41281 4.890625,18.41992 l 205.26953,205.26953 c 7.43403,7.43403 19.40386,7.43403 26.83789,0 L 522.94141,221.50391 c 5.00673,-5.00674 6.62785,-12.06779 4.89062,-18.41797 z" transform="scale(0.75)" style="opacity:0.3;fill:"/> <path d="m 304.25391,-16.179688 c -4.85091,10e-7 -9.70291,1.859157 -13.41993,5.576172 L 84.09375,196.13867 c -5.006737,5.00674 -6.627851,12.06779 -4.890625,18.41797 0.842331,-3.07808 2.463705,-5.99105 4.890625,-8.41797 L 290.83398,-0.60351562 c 7.43404,-7.43403088 19.40386,-7.43403088 26.8379,0 L 522.94141,204.66602 c 2.42729,2.42729 4.0484,5.34131 4.89062,8.41992 1.73804,-6.35066 0.11659,-13.41271 -4.89062,-18.41992 L 317.67188,-10.603516 c -3.71702,-3.717015 -8.56707,-5.576172 -13.41797,-5.576172 z" transform="scale(0.75)" style="opacity:0.3;fill:rgb(100.000%,100.000%,100.000%)"/> <path d="M 85.375492,49.080756 V 301.16302 H 117.96407 L 391.16877,49.080756 V 27.553804 H 267.48814 v 21.526952 h 24.92069 v 17.90283 L 161.32474,185.41472 V 49.080756 H 185.041 V 27.553804 H 61.413292 v 21.526952 z" style="opacity:0.3"/> <path d="M 85.375477,41.580754 V 293.66302 H 117.96406 L 391.16878,41.580754 V 20.053801 H 267.48814 v 21.526953 h 24.92069 V 59.48358 L 161.32473,177.91472 V 41.580754 H 185.041 V 20.053801 H 61.413284 v 21.526953 z" style="fill:rgb(100.000%,100.000%,100.000%)"/> </g> </svg>
