<svg xmlns="http://www.w3.org/2000/svg" xmlns:xlink="http://www.w3.org/1999/xlink" width="384pt" height="384pt" version="1.1" viewBox="0 0 384 384"> <defs> <filter id="alpha" width="100%" height="100%" x="0%" y="0%" filterUnits="objectBoundingBox"> <feColorMatrix in="SourceGraphic" type="matrix" values="0 0 0 0 1 0 0 0 0 1 0 0 0 0 1 0 0 0 1 0"/> </filter> <mask id="mask0"> <g filter="url(#alpha)"> <rect width="384" height="384" x="0" y="0" style="fill:rgb(0%,0%,0%);fill-opacity:0.101961"/> </g> </mask> <clipPath id="clip1"> <rect width="384" height="384" x="0" y="0"/> </clipPath> <g id="surface5" clip-path="url(#clip1)"> <path style="fill:rgb(100.000%,100.000%,100.000%)" d="M 42 24 C 32.027344 24 24 32.027344 24 42 L 24 48 C 24 38.027344 32.027344 30 42 30 L 342 30 C 351.972656 30 360 38.027344 360 48 L 360 42 C 360 32.027344 351.972656 24 342 24 Z M 42 24"/> </g> <mask id="mask1"> <g filter="url(#alpha)"> <rect width="384" height="384" x="0" y="0" style="fill:rgb(0%,0%,0%);fill-opacity:0.2"/> </g> </mask> <clipPath id="clip2"> <rect width="384" height="384" x="0" y="0"/> </clipPath> <g id="surface8" clip-path="url(#clip2)"> <path style="fill:rgb(0%,0%,0%)" d="M 89.144531 78 C 79.648438 78 72 85.648438 72 95.144531 L 72 169.289062 C 72 178.785156 80.503906 186 90 186 C 99.496094 186 108 178.785156 108 169.289062 L 108 136.394531 L 132 162.105469 L 132 186 L 166.289062 186 L 166.289062 180.855469 C 166.289062 176.105469 170.105469 172.289062 174.855469 172.289062 L 180 172.289062 L 180 138 L 156.105469 138 L 130.394531 114 L 163.289062 114 C 172.785156 114 180 105.496094 180 96 C 180 86.503906 172.785156 78 163.289062 78 Z M 220.710938 78 C 211.214844 78 204 86.503906 204 96 C 204 105.496094 211.214844 114 220.710938 114 L 253.605469 114 L 227.894531 138 L 204 138 L 204 172.289062 L 209.144531 172.289062 C 213.894531 172.289062 217.710938 176.105469 217.710938 180.855469 L 217.710938 186 L 252 186 L 252 162.105469 L 276 136.394531 L 276 169.289062 C 276 178.785156 284.503906 186 294 186 C 303.496094 186 312 178.785156 312 169.289062 L 312 95.144531 C 312 85.648438 304.351562 78 294.855469 78 Z M 132 210 L 132 240.855469 C 132 250.359375 139.640625 258 149.144531 258 L 180 258 L 180 223.710938 L 174.855469 223.710938 C 170.105469 223.710938 166.289062 219.894531 166.289062 215.144531 L 166.289062 210 Z M 217.710938 210 L 217.710938 215.144531 C 217.710938 219.894531 213.894531 223.710938 209.144531 223.710938 L 204 223.710938 L 204 258 L 227.894531 258 L 253.605469 282 L 220.710938 282 C 211.214844 282 204 290.503906 204 300 C 204 309.496094 211.214844 318 220.710938 318 L 294.855469 318 C 304.351562 318 312 310.351562 312 300.855469 L 312 226.710938 C 312 217.214844 303.496094 210 294 210 C 284.503906 210 276 217.214844 276 226.710938 L 276 259.605469 L 252 233.894531 L 252 210 Z M 217.710938 210"/> </g> <mask id="mask2"> <g filter="url(#alpha)"> <rect width="384" height="384" x="0" y="0" style="fill:rgb(0%,0%,0%);fill-opacity:0.2"/> </g> </mask> <clipPath id="clip3"> <rect width="384" height="384" x="0" y="0"/> </clipPath> <g id="surface11" clip-path="url(#clip3)"> <path style="fill:rgb(0%,0%,0%)" d="M 24 342 L 24 348 C 24 357.972656 32.027344 366 42 366 L 342 366 C 351.972656 366 360 357.972656 360 348 L 360 342 C 360 351.972656 351.972656 360 342 360 L 42 360 C 32.027344 360 24 351.972656 24 342 Z M 24 342"/> </g> </defs> <g> <path style="fill:rgb(29.019%,68.235%,90.196%)" d="M 360 342 L 360 42 C 360 32.058594 351.941406 24 342 24 L 42 24 C 32.058594 24 24 32.058594 24 42 L 24 342 C 24 351.941406 32.058594 360 42 360 L 342 360 C 351.941406 360 360 351.941406 360 342 Z M 360 342"/> <use mask="url(#mask0)" xlink:href="#surface5"/> <use mask="url(#mask1)" xlink:href="#surface8"/> <path style="fill:rgb(97.254%,87.058%,40.784%)" d="M 89.144531 72 C 79.648438 72 72 79.648438 72 89.144531 L 72 163.289062 C 72 172.785156 80.503906 180 90 180 C 99.496094 180 108 172.785156 108 163.289062 L 108 130.394531 L 132 156.105469 L 132 180 L 166.289062 180 L 166.289062 174.855469 C 166.289062 170.105469 170.105469 166.289062 174.855469 166.289062 L 180 166.289062 L 180 132 L 156.105469 132 L 130.394531 108 L 163.289062 108 C 172.785156 108 180 99.496094 180 90 C 180 80.503906 172.785156 72 163.289062 72 Z M 220.710938 72 C 211.214844 72 204 80.503906 204 90 C 204 99.496094 211.214844 108 220.710938 108 L 253.605469 108 L 227.894531 132 L 204 132 L 204 166.289062 L 209.144531 166.289062 C 213.894531 166.289062 217.710938 170.105469 217.710938 174.855469 L 217.710938 180 L 252 180 L 252 156.105469 L 276 130.394531 L 276 163.289062 C 276 172.785156 284.503906 180 294 180 C 303.496094 180 312 172.785156 312 163.289062 L 312 89.144531 C 312 79.648438 304.351562 72 294.855469 72 Z M 132 204 L 132 234.855469 C 132 244.359375 139.640625 252 149.144531 252 L 180 252 L 180 217.710938 L 174.855469 217.710938 C 170.105469 217.710938 166.289062 213.894531 166.289062 209.144531 L 166.289062 204 Z M 217.710938 204 L 217.710938 209.144531 C 217.710938 213.894531 213.894531 217.710938 209.144531 217.710938 L 204 217.710938 L 204 252 L 227.894531 252 L 253.605469 276 L 220.710938 276 C 211.214844 276 204 284.503906 204 294 C 204 303.496094 211.214844 312 220.710938 312 L 294.855469 312 C 304.351562 312 312 304.351562 312 294.855469 L 312 220.710938 C 312 211.214844 303.496094 204 294 204 C 284.503906 204 276 211.214844 276 220.710938 L 276 253.605469 L 252 227.894531 L 252 204 Z M 217.710938 204"/> <use mask="url(#mask2)" xlink:href="#surface11"/> </g> </svg>
