<svg xmlns="http://www.w3.org/2000/svg" xmlns:xlink="http://www.w3.org/1999/xlink" width="384pt" height="384pt" version="1.1" viewBox="0 0 384 384"> <defs> <filter id="alpha" width="100%" height="100%" x="0%" y="0%" filterUnits="objectBoundingBox"> <feColorMatrix in="SourceGraphic" type="matrix" values="0 0 0 0 1 0 0 0 0 1 0 0 0 0 1 0 0 0 1 0"/> </filter> <mask id="mask0"> <g filter="url(#alpha)"> <rect width="384" height="384" x="0" y="0" style="fill:rgb(0%,0%,0%);fill-opacity:0.101961"/> </g> </mask> <clipPath id="clip1"> <rect width="384" height="384" x="0" y="0"/> </clipPath> <g id="surface5" clip-path="url(#clip1)"> <path style="fill:rgb(100.000%,100.000%,100.000%)" d="M 192 24 C 98.929688 24 24 98.925781 24 191.996094 C 24 192.675781 24.066406 193.339844 24.105469 194.011719 C 26.214844 102.800781 100.265625 30 192 30 C 283.734375 30 357.785156 102.800781 359.894531 194.011719 C 359.933594 193.339844 360 192.675781 360 191.996094 C 360 98.925781 285.070312 24 192 24 Z M 192 24"/> </g> <mask id="mask1"> <g filter="url(#alpha)"> <rect width="384" height="384" x="0" y="0" style="fill:rgb(0%,0%,0%);fill-opacity:0.2"/> </g> </mask> <clipPath id="clip2"> <rect width="384" height="384" x="0" y="0"/> </clipPath> <g id="surface8" clip-path="url(#clip2)"> <path style="fill:rgb(0%,0%,0%)" d="M 287.992188 102.007812 C 287.992188 102.007812 259.199219 101.199219 230.425781 115.601562 C 221.628906 119.597656 212.035156 125.996094 204.039062 133.988281 C 191.113281 146.917969 171.027344 170.71875 155.210938 189.957031 L 120.089844 189.957031 L 104.097656 213.941406 L 131.21875 221.273438 C 131.296875 222.242188 131.554688 223.609375 132.304688 225.457031 L 128.089844 234.722656 C 128.089844 234.722656 126.492188 237.921875 138.484375 250.714844 C 151.277344 263.515625 155.273438 261.90625 155.273438 261.90625 L 165.214844 257.398438 C 166.699219 257.863281 167.804688 258.023438 168.523438 258.023438 L 176.0625 285.894531 L 200.046875 269.902344 L 200.046875 233.707031 C 219.421875 218.046875 243.191406 198.363281 256.015625 185.953125 C 264.011719 177.957031 270.410156 168.363281 275.199219 159.566406 C 288.78125 130.792969 287.988281 102.011719 287.988281 102.011719 Z M 232.023438 173.964844 C 223.21875 173.964844 216.03125 166.769531 216.03125 157.976562 C 216.03125 149.171875 223.21875 141.984375 232.023438 141.984375 C 240.816406 141.984375 248.015625 149.171875 248.015625 157.976562 C 248.015625 166.769531 240.808594 173.964844 232.023438 173.964844 Z M 148.074219 269.910156 C 149.671875 270.71875 150.472656 271.511719 152.070312 272.308594 C 150.472656 273.910156 148.871094 276.308594 147.265625 277.90625 C 128.867188 296.296875 96.101562 293.898438 96.101562 293.898438 C 96.101562 293.898438 93.703125 261.109375 112.09375 242.734375 C 113.691406 241.128906 116.089844 239.546875 117.691406 237.929688 C 118.488281 239.53125 119.28125 240.328125 120.089844 241.929688 C 108.097656 257.113281 109.695312 280.304688 109.695312 280.304688 C 109.695312 280.304688 132.875 281.90625 148.074219 269.910156 Z M 148.074219 269.910156"/> </g> <mask id="mask2"> <g filter="url(#alpha)"> <rect width="384" height="384" x="0" y="0" style="fill:rgb(0%,0%,0%);fill-opacity:0.2"/> </g> </mask> <clipPath id="clip3"> <rect width="384" height="384" x="0" y="0"/> </clipPath> <g id="surface11" clip-path="url(#clip3)"> <path style="fill:rgb(0%,0%,0%)" d="M 231.992188 174 C 223.1875 174 216 166.804688 216 158.007812 C 216 149.207031 223.1875 142.019531 231.992188 142.019531 C 240.785156 142.019531 247.980469 149.207031 247.980469 158.007812 C 247.980469 166.804688 240.777344 174 231.992188 174 Z M 231.992188 174"/> </g> <mask id="mask3"> <g filter="url(#alpha)"> <rect width="384" height="384" x="0" y="0" style="fill:rgb(0%,0%,0%);fill-opacity:0.2"/> </g> </mask> <clipPath id="clip4"> <rect width="384" height="384" x="0" y="0"/> </clipPath> <g id="surface14" clip-path="url(#clip4)"> <path style="fill:rgb(0%,0%,0%)" d="M 359.894531 195.984375 C 357.785156 287.195312 283.734375 360 192 360 C 100.273438 360 26.226562 287.207031 24.105469 196.007812 C 24.070312 196.671875 24 197.328125 24 198 C 24 291.070312 98.929688 366 192 366 C 285.070312 366 360 291.070312 360 198 C 360 197.320312 359.933594 196.65625 359.894531 195.984375 Z M 359.894531 195.984375"/> </g> </defs> <g> <path style="fill:rgb(29.019%,68.235%,90.196%)" d="M 360 192 C 360 99.214844 284.785156 24 192 24 C 99.214844 24 24 99.214844 24 192 C 24 284.785156 99.214844 360 192 360 C 284.785156 360 360 284.785156 360 192 Z M 360 192"/> <use mask="url(#mask0)" xlink:href="#surface5"/> <use mask="url(#mask1)" xlink:href="#surface8"/> <path style="fill:rgb(97.254%,87.058%,40.784%)" d="M 287.984375 96.003906 C 287.984375 96.003906 259.195312 95.199219 230.421875 109.597656 C 221.625 113.59375 212.03125 119.992188 204.039062 127.988281 C 191.109375 140.914062 171.027344 164.71875 155.210938 183.957031 L 120.089844 183.957031 L 104.101562 207.941406 L 131.21875 215.273438 C 131.296875 216.242188 131.554688 217.609375 132.304688 219.457031 L 128.09375 228.722656 C 128.09375 228.722656 126.492188 231.921875 138.484375 244.714844 C 151.289062 257.519531 155.285156 255.910156 155.285156 255.910156 L 165.222656 251.402344 C 166.710938 251.863281 167.8125 252.023438 168.53125 252.023438 L 176.070312 279.898438 L 200.054688 263.90625 L 200.054688 227.710938 C 219.425781 212.046875 243.195312 192.363281 256.019531 179.953125 C 264.015625 171.957031 270.410156 162.363281 275.199219 153.570312 C 288.785156 124.792969 287.992188 96.007812 287.992188 96.007812 Z M 287.984375 96.003906"/> <use mask="url(#mask2)" xlink:href="#surface11"/> <path style="fill:rgb(100.000%,100.000%,100.000%)" d="M 231.992188 168 C 223.1875 168 216 160.804688 216 152.007812 C 216 143.207031 223.1875 136.019531 231.992188 136.019531 C 240.785156 136.019531 247.980469 143.207031 247.980469 152.007812 C 247.980469 160.804688 240.777344 168 231.992188 168 Z M 231.992188 168"/> <path style="fill:rgb(97.254%,87.058%,40.784%)" d="M 148.074219 263.910156 C 149.671875 264.71875 150.472656 265.511719 152.070312 266.308594 C 150.472656 267.910156 148.871094 270.308594 147.265625 271.90625 C 128.867188 290.296875 96.101562 287.898438 96.101562 287.898438 C 96.101562 287.898438 93.703125 255.109375 112.09375 236.734375 C 113.691406 235.128906 116.089844 233.546875 117.691406 231.929688 C 118.488281 233.527344 119.28125 234.328125 120.089844 235.929688 C 108.097656 251.113281 109.695312 274.304688 109.695312 274.304688 C 109.695312 274.304688 132.875 275.902344 148.074219 263.910156 Z M 148.074219 263.910156"/> <use mask="url(#mask3)" xlink:href="#surface14"/> </g> </svg>
