<svg xmlns="http://www.w3.org/2000/svg" width="384pt" height="384pt" version="1.1" viewBox="0 0 384 384"> <g> <path style="fill:rgb(21.960%,23.529%,29.019%)" d="M 365.921875 192 C 365.921875 288.4375 287.742188 366.617188 191.304688 366.617188 C 94.863281 366.617188 16.683594 288.4375 16.683594 192 C 16.683594 95.558594 94.863281 17.378906 191.304688 17.378906 C 287.742188 17.378906 365.921875 95.558594 365.921875 192 Z M 365.921875 192"/> <path style="fill:rgb(86.666%,27.843%,27.843%)" d="M 223.824219 109.820312 L 158.78125 109.820312 L 173.292969 61.035156 L 209.316406 61.035156 Z M 223.824219 109.820312"/> <path style="fill:rgb(86.666%,27.843%,27.843%)" d="M 158.78125 274.179688 L 223.824219 274.179688 L 209.316406 322.964844 L 173.292969 322.964844 Z M 158.78125 274.179688"/> <path style="fill:rgb(86.666%,27.843%,27.843%)" d="M 273.484375 223.390625 L 273.484375 158.347656 L 322.269531 172.855469 L 322.269531 208.878906 Z M 273.484375 223.390625"/> <path style="fill:rgb(86.666%,27.843%,27.843%)" d="M 109.125 158.347656 L 109.125 223.390625 L 60.339844 208.878906 L 60.339844 172.855469 Z M 109.125 158.347656"/> <path style="fill:rgb(86.666%,27.843%,27.843%)" d="M 156.691406 110.394531 L 110.695312 156.386719 L 86.460938 111.632812 L 111.9375 86.15625 Z M 156.691406 110.394531"/> <path style="fill:rgb(86.666%,27.843%,27.843%)" d="M 226.917969 272.605469 L 272.90625 226.613281 L 297.144531 271.367188 L 271.675781 296.84375 Z M 226.917969 272.605469"/> <path style="fill:rgb(86.666%,27.843%,27.843%)" d="M 271.90625 156.386719 L 225.917969 110.390625 L 270.671875 86.160156 L 296.144531 111.632812 Z M 271.90625 156.386719"/> <path style="fill:rgb(86.666%,27.843%,27.843%)" d="M 109.695312 226.613281 L 155.691406 272.609375 L 110.9375 296.839844 L 85.464844 271.367188 Z M 109.695312 226.613281"/> <path style="fill:rgb(86.666%,27.843%,27.843%)" d="M 192.367188 239.734375 C 165.347656 239.734375 143.433594 217.824219 143.433594 190.808594 C 143.433594 163.785156 165.347656 141.875 192.367188 141.875 C 219.386719 141.875 241.292969 163.785156 241.292969 190.808594 C 241.292969 217.824219 219.386719 239.734375 192.367188 239.734375 M 191.300781 89.753906 C 134.910156 89.753906 89.183594 135.476562 89.183594 191.871094 C 89.183594 248.261719 134.910156 293.988281 191.300781 293.988281 C 247.6875 293.988281 293.417969 248.261719 293.417969 191.871094 C 293.417969 135.476562 247.6875 89.753906 191.300781 89.753906"/> </g> </svg>
