<svg width="512" height="512" version="1.1" viewBox="0 0 384 384" xmlns="http://www.w3.org/2000/svg"><g transform="translate(-.59558 -.81168)"><path d="m362.67 208.8c0.0156-11.066-1.1953-21.84-3.4102-32.266v-1.9375h-0.45312c-12.246-54.004-52.969-97.145-105.53-113.01 38.125-16.023 70.77-17.379 88.148 0 14.535 14.535 16.051 39.785 6.7344 69.953 15.586-40.445 15.746-75.016-3.25-93.996-25.324-25.324-78.266-16.52-135.96 17.395h-0.1289c-84.871 0-153.73 68.758-153.85 153.64-34.305 58-43.301 111.32-17.859 136.74 19.012 19.027 53.551 18.867 93.98 3.2812-30.164 9.3008-55.375 7.8164-69.926-6.75-17.496-17.496-15.992-50.43 0.30859-88.879 18.996 63.453 77.754 109.7 147.34 109.7 68.262 0 126.09-44.469 146.22-106h-90.523c-13.488 15.66-33.434 25.633-55.727 25.633-34.043 0-62.648-23.227-70.988-54.688h223.68c0.71484-6.1836 1.1797-12.453 1.1797-18.824zm-218.9-34.191c12.316-23.34 36.797-39.289 65.055-39.289 28.238 0 52.75 15.965 65.055 39.289z" fill="#4aaee6"/></g><path transform="scale(.75)" d="m406.05 54.332c-20.132 0.22591-43.722 6.0189-69.139 16.701 4.6291 1.3972 9.1869 2.9578 13.672 4.666 44.906-16.149 82.794-15.731 103.86 5.334 10.408 10.408 15.802 24.941 16.648 42.393 0.98017-21.923-4.311-40.055-16.648-52.393-11.586-11.586-28.26-16.927-48.393-16.701zm72.422 44.775c-0.58075 14.133-3.454 29.624-8.4453 46.057-1.2467 9.211-3.4612 18.963-6.6035 29.139 10.685-27.726 15.914-53.371 15.049-75.195zm-200.83 70.232c-37.677 0-70.318 21.265-86.74 52.385h6.0801c17.679-25.582 47.176-42.385 80.66-42.385 33.459 0 62.982 16.817 80.658 42.385h6.0801c-16.406-31.099-49.087-52.385-86.738-52.385zm205.06 102.6c-0.17675 6.9094-0.72812 13.732-1.5078 20.477h-298.24c0.90458 3.4124 2.0063 6.7437 3.2578 10h294.99c0.95312-8.2448 1.5742-16.603 1.5742-25.098 0.00254-1.7987-0.02088-3.592-0.0664-5.3789zm-401.52 54.279c-12.036 28.391-18.007 54.517-16.99 76.15 0.89902-19.499 6.7547-42.007 16.99-66.15 14.923 49.847 48.253 91.723 92.094 117.72 0.24362-0.07421 0.4844-0.14153 0.72851-0.2168-0.22446 0.08653-0.44573 0.16614-0.66992 0.25196 30.556 18.108 66.212 28.508 104.31 28.508 91.016 0 168.11-59.292 194.96-141.33h-3.5723c-29.645 76.809-104.11 131.33-191.38 131.33-92.786 0-171.13-61.661-196.46-146.27zm-51.838 73.379c-0.97773 24.907 5.1737 45.581 19.354 59.752 25.349 25.37 71.4 25.156 125.31 4.375-26.127 8.0558-49.459 10.034-67.926 5.1133-23.837 0.47324-43.65-5.7464-57.381-19.488-12.236-12.228-18.495-29.299-19.354-49.752z" opacity=".3" stroke-width="1.3333"/><path transform="scale(.75)" d="m404.48 29.52c-35.271-0.030291-79.794 15.093-126.67 42.648h-0.17188c-113.16 0-204.97 91.676-205.13 204.85-29.241 49.438-44.688 96.323-43.166 132.57 1.3613-34.677 16.546-77.565 43.166-122.57 0.15624-113.18 91.969-204.85 205.13-204.85h0.17188c76.922-45.219 147.51-56.959 181.28-23.193 12.306 12.296 18.565 29.509 19.383 50.133 1.0308-25.084-5.1357-45.897-19.383-60.133-13.19-13.19-31.998-19.436-54.607-19.455zm-53.898 56.18c-4.4908 1.615-9.0504 3.3917-13.672 5.334 70.078 21.151 124.37 78.671 140.7 150.68h0.60547v2.584c2.5931 12.206 4.1525 24.771 4.4805 37.643 0.03931-1.5368 0.0664-3.0755 0.0664-4.6211 0.0208-14.755-1.5937-29.12-4.5469-43.021v-2.584h-0.60547c-15.25-67.249-63.62-121.86-127.03-146.01zm120.51 47.727c-0.55953 12.515-3.1538 26.26-7.668 40.877 2.5057-6.5022 4.7046-12.887 6.6035-19.139 1.0348-7.646 1.3954-14.915 1.0644-21.738zm-274.11 98.299c-2.2139 3.2035-4.2525 6.5367-6.0801 10h173.48c-1.8268-3.4629-3.8652-6.7963-6.0801-10h-161.32zm-14.033 80.688c11.12 41.948 49.26 72.918 94.65 72.918 29.724 0 56.318-13.298 74.303-34.178h117.12c1.2715-3.2945 2.4682-6.626 3.5723-10h-120.7c-17.984 20.88-44.579 34.178-74.303 34.178-41.698 0-77.259-26.145-91.393-62.918h-3.2578zm-118.76 99.953c-1.01 21.906 4.2361 40.013 16.578 52.355 6.7979 6.8052 15.348 11.459 25.309 14.113 19.987-0.39679 42.803-5.5008 67.256-14.861-0.0196-0.01162-0.039-0.02354-0.05859-0.03516-39.895 12.152-73.223 10.087-92.506-9.2168-10.409-10.409-15.759-24.925-16.578-42.355z" fill="#fff" opacity=".3" stroke-width="1.3333"/></svg>
