<svg xmlns="http://www.w3.org/2000/svg" xmlns:xlink="http://www.w3.org/1999/xlink" width="384pt" height="384pt" version="1.1" viewBox="0 0 384 384">
 <defs>
  <filter id="alpha" width="100%" height="100%" x="0%" y="0%" filterUnits="objectBoundingBox">
   <feColorMatrix in="SourceGraphic" type="matrix" values="0 0 0 0 1 0 0 0 0 1 0 0 0 0 1 0 0 0 1 0"/>
  </filter>
  <mask id="mask0">
   <g filter="url(#alpha)">
    <rect width="384" height="384" x="0" y="0" style="fill:rgb(0%,0%,0%);fill-opacity:0.2"/>
   </g>
  </mask>
  <clipPath id="clip1">
   <rect width="384" height="384" x="0" y="0"/>
  </clipPath>
  <g id="surface5" clip-path="url(#clip1)">
   <path style="fill:rgb(0%,0%,0%)" d="M 24 336 L 24 348 C 24 357.972656 32.027344 366 42 366 L 342 366 C 351.972656 366 360 357.972656 360 348 L 360 336 C 360 345.972656 351.972656 354 342 354 L 42 354 C 32.027344 354 24 345.972656 24 336 Z M 24 336"/>
  </g>
  <mask id="mask1">
   <g filter="url(#alpha)">
    <rect width="384" height="384" x="0" y="0" style="fill:rgb(0%,0%,0%);fill-opacity:0.101961"/>
   </g>
  </mask>
  <clipPath id="clip2">
   <rect width="384" height="384" x="0" y="0"/>
  </clipPath>
  <g id="surface8" clip-path="url(#clip2)">
   <path style="fill:rgb(100%,100%,100%)" d="M 42 24 C 32.027344 24 24 32.027344 24 42 L 24 48 C 24 38.027344 32.027344 30 42 30 L 342 30 C 351.972656 30 360 38.027344 360 48 L 360 42 C 360 32.027344 351.972656 24 342 24 Z M 42 24"/>
  </g>
  <mask id="mask2">
   <g filter="url(#alpha)">
    <rect width="384" height="384" x="0" y="0" style="fill:rgb(0%,0%,0%);fill-opacity:0.2"/>
   </g>
  </mask>
  <clipPath id="clip3">
   <rect width="384" height="384" x="0" y="0"/>
  </clipPath>
  <g id="surface11" clip-path="url(#clip3)">
   <path style="fill:rgb(0%,0%,0%)" d="M 139.972656 126.007812 C 139.40625 126.015625 138.765625 126.058594 138.035156 126.101562 C 135.257812 126.265625 82.855469 135.425781 79.519531 136.328125 C 75.996094 137.28125 72.984375 139.296875 72.25 141.210938 C 70.996094 144.460938 74.628906 155.027344 79.421875 162.121094 C 87.667969 174.324219 99.675781 182.121094 124.921875 191.605469 C 138.789062 196.8125 141.675781 198.128906 143.492188 200.117188 C 145.882812 202.730469 143.902344 203.988281 125.585938 211.558594 C 96.960938 223.390625 91.296875 233.449219 85.8125 248.335938 C 84.195312 252.734375 83.441406 264.367188 84.582031 267.292969 C 86.066406 271.089844 86.957031 271.054688 114.617188 266.15625 C 142.398438 261.238281 136.503906 260.949219 138.820312 258.902344 C 141.683594 252.8125 142.488281 248.34375 143.8125 242.4375 C 145.480469 237 149.679688 231.324219 154.246094 228.324219 C 171.578125 216.941406 204.195312 222.617188 221.84375 240.085938 C 228.496094 246.667969 232.671875 250.054688 236.003906 260.261719 C 237.929688 266.152344 239.882812 268.710938 242.914062 269.273438 C 245.703125 269.789062 245.773438 270.980469 281.125 264.714844 C 300.789062 261.230469 308.972656 257.136719 310.128906 256.296875 C 312.617188 254.492188 312.625 250.070312 310.140625 242.761719 C 305.894531 230.207031 298.519531 219.859375 284.863281 210.203125 C 278.109375 205.425781 269.578125 200.910156 255.132812 194.457031 C 241.394531 188.316406 240 186.652344 240 184.746094 C 240 183.171875 240.246094 182.46875 251.144531 179.425781 C 275.023438 172.753906 287.9375 161.625 287.9375 144.304688 C 287.9375 136.699219 286.398438 130.566406 284.007812 128.574219 C 280.828125 125.925781 277.4375 125.84375 264.085938 128.097656 C 221.296875 135.320312 218.933594 136.808594 216.945312 139.816406 C 215.890625 141.40625 215.9375 141.78125 217.871094 149.007812 C 218.980469 153.148438 219.875 157.53125 219.867188 158.734375 C 219.855469 161.292969 218.003906 165.5625 216.261719 167.085938 C 212.003906 170.8125 202.34375 174 192.453125 174 C 180.488281 174 171.476562 169.507812 162.523438 160.609375 C 156.050781 154.175781 152.75 148.753906 148.34375 137.304688 C 144.472656 127.25 143.941406 125.9375 139.960938 126.003906 Z M 139.972656 126.007812"/>
  </g>
 </defs>
 <g>
  <use mask="url(#mask0)" xlink:href="#surface5"/>
  <path style="fill:rgb(83.137255%,10.196078%,10.196078%)" d="M 360 342 L 360 42 C 360 32.058594 351.941406 24 342 24 L 42 24 C 32.058594 24 24 32.058594 24 42 L 24 342 C 24 351.941406 32.058594 360 42 360 L 342 360 C 351.941406 360 360 351.941406 360 342 Z M 360 342"/>
  <use mask="url(#mask1)" xlink:href="#surface8"/>
  <use mask="url(#mask2)" xlink:href="#surface11"/>
  <path style="fill:rgb(100%,100%,100%)" d="M 139.972656 120.007812 C 139.40625 120.015625 138.765625 120.058594 138.035156 120.101562 C 135.257812 120.265625 82.855469 129.425781 79.519531 130.328125 C 75.996094 131.28125 72.984375 133.296875 72.25 135.210938 C 70.996094 138.460938 74.628906 149.027344 79.421875 156.121094 C 87.667969 168.324219 99.675781 176.121094 124.921875 185.605469 C 138.789062 190.8125 141.675781 192.128906 143.492188 194.117188 C 145.882812 196.730469 143.902344 197.988281 125.585938 205.558594 C 96.960938 217.390625 91.296875 227.449219 85.8125 242.335938 C 84.195312 246.734375 83.441406 258.367188 84.582031 261.292969 C 86.066406 265.089844 86.957031 265.054688 114.617188 260.15625 C 142.398438 255.238281 136.503906 254.949219 138.820312 252.902344 C 141.683594 246.8125 142.488281 242.34375 143.8125 236.4375 C 145.480469 231 149.679688 225.324219 154.246094 222.324219 C 171.578125 210.941406 204.195312 216.617188 221.84375 234.085938 C 228.496094 240.667969 232.671875 244.054688 236.003906 254.261719 C 237.929688 260.152344 239.882812 262.710938 242.914062 263.273438 C 245.703125 263.789062 245.773438 264.980469 281.125 258.714844 C 300.789062 255.230469 308.972656 251.136719 310.128906 250.296875 C 312.617188 248.492188 312.625 244.070312 310.140625 236.761719 C 305.894531 224.207031 298.519531 213.859375 284.863281 204.203125 C 278.109375 199.425781 269.578125 194.910156 255.132812 188.457031 C 241.394531 182.316406 240 180.652344 240 178.746094 C 240 177.171875 240.246094 176.46875 251.144531 173.425781 C 275.023438 166.753906 287.9375 155.625 287.9375 138.304688 C 287.9375 130.699219 286.398438 124.566406 284.007812 122.574219 C 280.828125 119.925781 277.4375 119.84375 264.085938 122.097656 C 221.296875 129.320312 218.933594 130.808594 216.945312 133.816406 C 215.890625 135.40625 215.9375 135.78125 217.871094 143.007812 C 218.980469 147.148438 219.875 151.53125 219.867188 152.734375 C 219.855469 155.292969 218.003906 159.5625 216.261719 161.085938 C 212.003906 164.8125 202.34375 168 192.453125 168 C 180.488281 168 171.476562 163.507812 162.523438 154.609375 C 156.050781 148.175781 152.75 142.753906 148.34375 131.304688 C 144.472656 121.25 143.941406 119.9375 139.960938 120.003906 Z M 139.972656 120.007812"/>
 </g>
</svg>
