<svg width="512" height="512" version="1.1" viewBox="0 0 135.47 135.47" xmlns="http://www.w3.org/2000/svg"><path d="m50.333 15.452-40.737 104.56v9.8956h30.511l6.9994-23.585h39.92l7.3415 23.585h31.501v-9.8956l-39.088-104.56zm16.258 25.223 12.427 39.922h-24.275z" fill="#951212"/><path d="m50.333 5.5562-40.737 114.46h30.511l6.9994-23.585h39.92l7.3415 23.585h31.501l-39.088-114.46zm16.258 25.223 12.427 39.922h-24.275z" fill="#d41919"/><path d="m50.333 5.5562-40.737 114.46h0.94154l39.795-111.81h36.449l38.184 111.81h0.9033l-39.088-114.46zm4.4096 65.146-6.7e-5 2.6457h24.275l1.31e-4 -2.6457z" fill="#fff" opacity=".2"/></svg>
