<svg xmlns="http://www.w3.org/2000/svg" width="512" height="512" version="1.1" viewBox="0 0 384 384">
 <g>
  <path d="m 175.72881,138.30508 c -25.62712,65.08475 -32.94915,76.0678 -32.13559,100.88136 0.81356,24.81356 0.40678,37.01695 7.72881,54.1017 7.32203,17.08474 17.49153,34.98305 26.0339,39.45762 8.54238,4.47458 35.38983,10.98305 41.8983,2.0339 6.50848,-8.94915 92.33899,-178.16949 97.22034,-192.40678 4.88136,-14.23728 17.08475,-35.38983 8.54238,-60.610167 -8.54238,-25.220341 -24.09326,-45.884679 -34.03816,-50.857594 -11.68576,-5.843425 -20.8771,-7.718679 -30.23303,-6.09156 -9.35593,1.627119 -21.9661,8.135593 -29.28813,13.423728 -7.32203,5.288137 -19.52543,18.305085 -25.62712,28.067797 -6.10169,9.762714 -30.1017,71.999996 -30.1017,71.999996 z" style="fill:#ffffff"/>
  <g transform="matrix(1.7054268,0,0,1.7054268,-26.294638,-26.29463)">
   <g transform="translate(-212.49872,-31.359937)">
    <path style="fill:#86705d" d="m 342.87014,256.85019 c -22.2028,-6.14486 -42.58173,-28.11408 -61.65633,-66.46771 -16.1291,-32.43106 -23.0152,-58.15599 -21.91758,-81.87905 0.89797,-19.40794 6.32687,-30.147022 17.74444,-35.100773 6.40556,-2.779189 15.53073,-2.411299 23.12727,0.932397 8.75971,3.855677 11.93178,8.316294 15.55831,21.878347 1.70268,6.367499 2.13598,11.657449 2.55308,31.169079 l 0.50236,23.5 1.7072,-5 c 1.87051,-5.47828 8.82605,-19.79176 12.36606,-25.44749 3.34165,-5.33884 3.6169,-10.586 0.86831,-16.55251 -1.46572,-3.18174 -2.30686,-6.879434 -2.31303,-10.168217 -0.0151,-8.042102 0.24602,-8.323591 7.78061,-8.388736 l 6.58662,-0.05695 3.72779,-4.936037 c 4.57642,-6.059742 13.16992,-13.016248 20.97048,-16.975781 5.00318,-2.539585 6.95948,-2.967679 13.38541,-2.929096 6.13906,0.03686 8.34803,0.508142 11.98765,2.557554 2.45399,1.381801 3.56944,2.228724 2.47878,1.88205 -14.09056,-4.478772 -26.42903,-1.153211 -38.51698,10.381403 -14.84886,14.169144 -24.98531,38.37601 -20.0777,47.94755 1.89596,3.69776 1.47164,4.0557 -1.27848,1.07851 l -1.947,-2.10774 -1.93448,3.85774 c -4.33189,8.63864 -11.18895,27.51898 -13.74939,37.85775 -2.30405,9.30345 -2.73069,13.15925 -2.7663,25 -0.045,14.98036 1.60277,22.9815 6.89403,33.47478 2.65371,5.26268 9.57178,14.98786 10.67748,15.01003 0.41684,0.008 -0.58299,-2.66385 -2.22186,-5.93822 -13.12131,-26.21569 -11.35598,-60.72763 4.89535,-95.70396 3.31558,-7.13586 4.27197,-8.44083 5.72769,-7.81539 2.94337,1.26458 13.14991,1.81119 13.14991,0.70424 0,-0.5549 -1.48346,-1.28958 -3.29657,-1.63264 -11.35312,-2.14809 -9.6489,-12.41365 4.70093,-28.3165 9.37349,-10.387942 9.60786,-10.842365 8.24592,-15.988553 -1.99006,-7.519611 2.86409,-9.469676 11.85777,-4.76364 4.58802,2.400729 5.23935,2.479851 12.73328,1.546808 4.34385,-0.540838 10.80956,-1.52852 14.36824,-2.194848 3.55869,-0.666327 7.68585,-0.903818 9.17149,-0.527756 2.37909,0.602227 2.70114,1.162153 2.70114,4.696242 0,2.206872 0.93637,6.810798 2.08084,10.230948 1.72403,5.152163 2.01734,8.018913 1.71063,16.718459 -0.35549,10.08284 -0.55633,10.89981 -5.05537,20.56334 -2.87884,6.18352 -4.68517,11.45556 -4.68517,13.67444 0,1.98611 1.34066,6.98792 2.97926,11.11514 6.9685,17.552 8.82642,44.66796 4.45708,65.05009 -3.29998,15.39374 -3.26658,20.49928 0.16096,24.60755 2.1641,2.59391 2.47676,3.62539 1.73514,5.72458 -1.38182,3.91139 -5.3281,6.26637 -12.60821,7.52408 -5.96367,1.03028 -7.28042,0.92621 -13.38977,-1.05829 -8.61578,-2.79865 -10.56167,-2.76287 -16.26468,0.29907 -4.32686,2.32309 -5.58928,2.49367 -17.83932,2.41058 -7.72893,-0.0524 -15.20616,-0.64936 -18.07329,-1.44287 z m 59.1107,-116.71771 c 0.85443,-0.6875 2.07646,-2.15 2.71563,-3.25 1.10513,-1.90192 1.13221,-1.88966 0.5522,0.25 -0.91213,3.3649 1.20637,2.73652 3.0775,-0.91283 2.29119,-4.4686 5.47311,-14.06633 4.8663,-14.67835 -0.27977,-0.28216 -1.73101,0.66305 -3.22498,2.10046 -3.32659,3.20065 -7.16987,4.74072 -11.83062,4.74072 h -3.53189 l 0.4732,4.96682 c 0.682,7.15852 3.27247,9.70415 6.90266,6.78318 z"/>
    <path style="fill:#493525" d="m 344.2902,256.95573 c -22.76368,-6.36671 -43.22806,-27.93011 -62.26625,-65.61018 -22.26528,-44.06711 -28.63808,-82.69621 -17.4482,-105.763322 4.60047,-9.483508 15.55489,-15.272138 25.96006,-13.71803 21.23504,3.171647 28.50578,19.453044 27.78578,62.220742 -0.16855,10.01136 -0.0257,17.88636 0.31741,17.5 0.34312,-0.38635 1.17295,-2.50246 1.84405,-4.70246 0.67112,-2.2 4.25079,-9.93594 7.95483,-17.19098 8.30791,-16.27252 8.88261,-19.02416 5.50281,-26.34724 -2.5959,-5.624564 -3.33474,-13.148665 -1.5674,-15.961784 0.66414,-1.057133 2.67382,-1.5 6.8068,-1.5 h 5.86445 l 6.62151,-7.212164 c 6.78189,-7.386841 17.25861,-15.108754 23.26107,-17.144673 5.23915,-1.777013 14.87978,-1.373345 19.4344,0.813747 l 3.96605,1.904463 -3.47029,-0.680686 c -13.91911,-2.730189 -25.62082,1.319296 -36.70849,12.703312 -14.32301,14.705817 -23.52885,38.091185 -18.67188,47.431745 1.12847,2.17019 1.12206,2.17196 -0.99759,0.27372 -1.17335,-1.05079 -2.31247,-1.72579 -2.53135,-1.5 -2.20438,2.27393 -12.08203,28.32525 -15.01623,39.6038 -3.77028,14.49234 -4.43852,33.77699 -1.56722,45.22862 2.67612,10.67323 7.81243,21.17237 13.65078,27.90363 2.5138,2.89826 4.74939,5.08919 4.96797,4.86874 0.21858,-0.22045 -0.74771,-4.62934 -2.14731,-9.79753 -3.11327,-11.49614 -4.14505,-25.22709 -2.49548,-33.20999 l 1.20124,-5.81328 2.98316,4.81328 c 6.07921,9.80868 20.73538,22.5812 27.47025,23.93971 5.98865,1.20798 6.13071,-6.53832 0.39659,-21.62644 -3.79737,-9.99199 -5.13935,-15.74187 -5.83481,-25 -0.81809,-10.89081 0.91342,-18.12476 7.54052,-31.50276 5.60525,-11.31523 5.9563,-14.09771 2.98485,-23.65815 -1.08362,-3.4865 -1.97598,-6.47221 -1.98302,-6.6349 -0.007,-0.16269 2.08653,1.32087 4.65237,3.2968 7.9452,6.11855 16.82866,9.88618 23.45173,9.94629 5.38938,0.0489 6.00551,-0.18586 8.55047,-3.25819 1.50842,-1.82099 3.68066,-6.32099 4.8272,-10 l 2.08462,-6.68909 -0.33769,7.22157 -0.33769,7.22157 2.75481,-1.97839 c 1.51515,-1.08812 3.95276,-4.33783 5.41692,-7.22158 l 2.6621,-5.24317 -0.47386,6.67794 c -0.37296,5.25619 -1.48449,8.85849 -5.22081,16.91989 -5.60374,12.09052 -5.88467,15.59684 -1.99007,24.83927 3.80048,9.01909 6.43827,23.32269 7.11155,38.5629 0.5128,11.60804 0.29833,14.26668 -2.00304,24.83 -3.01263,13.828 -3.38956,23.74526 -0.97916,25.76284 4.59291,3.84441 2.85614,9.69272 -3.65925,12.32198 -5.29371,2.13626 -15.07444,2.22242 -20.62048,0.18165 -6.07312,-2.23473 -10.31611,-1.99493 -15.9874,0.90353 -4.46734,2.28316 -5.948,2.49224 -17.07061,2.41058 -6.69843,-0.0492 -14.18678,-0.65097 -16.64077,-1.33733 z m 59.1081,-117.01011 c 0.30068,-0.79027 1.14583,-1.20498 1.8781,-0.92157 1.7266,0.66823 3.93251,-2.80109 6.42294,-10.10161 2.82043,-8.26792 2.61956,-9.24748 -1.22576,-5.97732 -4.13617,3.51752 -8.72056,5.43736 -12.98388,5.43736 h -3.38035 l 0.50482,4.75 c 0.27764,2.6125 0.90781,5.5375 1.40035,6.5 1.09921,2.14798 6.59695,2.38114 7.38378,0.31314 z m -3.48708,-46.201994 c -5.28082,-2.654071 -9.30603,-7.44577 -8.35483,-9.945769 1.42944,-3.75698 18.42186,-8.411263 23.54152,-6.448107 3.12378,1.197824 3.28801,3.827592 0.61058,9.776502 -2.29898,5.108007 -6.20389,9.256224 -8.71333,9.256224 -1.00837,0 -4.19615,-1.187483 -7.08394,-2.63885 z M 367.24783,83.50273 c -1.43745,-4.838843 -1.44804,-4.671134 0.41371,-6.548825 2.23322,-2.252343 5.06452,-1.94941 10.21114,1.092533 l 4.50712,2.663962 -3.78292,1.320896 c -2.08062,0.726492 -5.22783,2.221533 -6.99381,3.322312 l -3.21087,2.001416 z"/>
   </g>
  </g>
 </g>
 <path style="opacity:0.3" d="M 235.43164 99.609375 C 235.41138 100.11915 235.38914 100.6211 235.37695 101.17578 C 235.33202 102.12666 235.32992 103.12491 235.35352 104.14648 C 235.34952 105.0226 235.33212 105.75496 235.33398 106.72852 C 235.34798 114.20688 237.25889 122.61659 240.5918 129.85156 C 242.58526 134.17887 243.86712 138.33891 244.45312 142.39258 C 245.53437 135.19244 244.25541 127.80437 240.5918 119.85156 C 237.68083 113.53252 235.8567 106.31748 235.43164 99.609375 z M 440.29688 130.97461 L 439.84766 137.30859 C 439.80595 137.89715 439.75743 138.47098 439.70703 139.04297 C 438.91663 153.97324 437.29016 158.15012 428.58789 176.8418 C 422.04168 190.90252 417.93359 202.89199 417.93359 207.9375 C 417.93359 209.20308 418.19438 211.04364 418.62109 213.19141 C 420.04212 207.0378 423.60495 197.54475 428.58789 186.8418 C 437.29016 168.1501 438.91663 163.97324 439.70703 149.04297 C 439.75743 148.47098 439.80595 147.89715 439.84766 147.30859 L 440.92578 132.125 L 440.27344 133.41211 C 440.29086 132.54083 440.28827 131.78945 440.29688 130.97461 z M 71.144531 145.11719 C 71.080857 148.01689 71.057986 150.94608 71.121094 153.9375 C 71.622754 204.15267 87.569266 258.93836 121.19141 326.54297 C 164.56518 413.7554 210.90558 463.71078 261.39258 477.68359 C 267.87103 479.47657 284.70176 480.82504 302.1582 480.95898 C 302.2582 480.95982 302.36106 480.96484 302.46094 480.96484 C 302.47027 480.96491 302.47908 480.96479 302.48828 480.96484 C 305.6374 480.98791 308.44838 481.00156 310.97266 480.99609 C 330.99903 480.99743 334.33131 480.16689 343.05273 475.48438 C 356.0208 468.52182 360.44567 468.44083 380.03711 474.80469 C 393.92919 479.31725 396.92357 479.5537 410.48438 477.21094 C 427.03863 474.35103 436.01218 468.99567 439.1543 460.10156 C 440.33371 456.76316 440.33468 454.60897 438.54883 451.59961 C 434.94958 459.60139 426.08609 464.51558 410.48438 467.21094 C 396.92357 469.5537 393.92919 469.31725 380.03711 464.80469 C 360.44567 458.44083 356.0208 458.52182 343.05273 465.48438 C 334.33131 470.1669 330.99903 470.99709 310.97266 470.99609 C 308.44838 471.00156 305.6374 470.98791 302.48828 470.96484 C 302.47908 470.96479 302.47027 470.96491 302.46094 470.96484 C 302.36106 470.96484 302.2582 470.95982 302.1582 470.95898 C 284.70175 470.82502 267.87104 469.47655 261.39258 467.68359 C 210.90558 453.71078 164.56518 403.7554 121.19141 316.54297 C 87.831731 249.46608 71.881663 195.01167 71.144531 145.11719 z M 440.13281 330.97852 C 440.11719 332.0474 440.11459 333.11942 440.08789 334.18555 C 440.2663 344.74343 439.78959 351.84591 438.12695 361.29883 C 437.2907 368.13056 436.20543 374.777 434.84375 381.12891 C 430.4007 401.85483 428.61742 414.378 429.51758 423.08594 C 430.09522 415.23572 431.85887 405.05278 434.84375 391.12891 C 436.20543 384.777 437.2907 378.13056 438.12695 371.29883 C 439.78959 361.84591 440.2663 354.74343 440.08789 344.18555 C 440.19766 339.80189 440.20922 335.39233 440.13281 330.97852 z" transform="scale(0.75)"/>
 <path style="fill:#ffffff;opacity:0.3" d="M 353.86328 31.003906 C 352.63316 30.994573 351.41026 31.01726 350.19531 31.058594 C 338.97873 31.22698 334.29681 32.555885 324.16406 37.699219 C 306.42634 46.702805 286.88485 62.521515 276.47852 76.300781 L 269.78906 85.160156 L 267.61328 87.529297 L 253.02539 87.654297 C 237.85402 87.785497 235.65855 88.361501 235.37695 101.17578 C 235.33202 102.12666 235.32992 103.12491 235.35352 104.14648 C 235.34952 105.02259 235.33212 105.75497 235.33398 106.72852 C 235.33576 107.67526 235.37003 108.63706 235.43164 109.60938 C 235.8794 98.34228 238.51073 97.779792 253.02539 97.654297 L 267.61328 97.529297 L 269.78906 95.160156 L 276.47852 86.300781 C 286.88485 72.521515 306.42634 56.702808 324.16406 47.699219 C 334.29681 42.555888 338.97873 41.226974 350.19531 41.058594 C 351.41026 41.0171 352.63316 40.994573 353.86328 41.003906 C 354.89712 41.011733 355.93377 41.036825 356.9668 41.080078 C 369.09122 41.281202 374.0888 42.478032 381.85938 46.853516 C 382.42439 47.171672 382.80999 47.415367 383.31055 47.707031 L 387.49609 49.716797 L 386.24023 49.470703 C 388.14563 50.703223 388.89999 51.401063 388.11523 51.285156 C 395.28117 54.934448 404.59027 64.657447 413.42969 78.083984 C 418.57126 77.604646 423.16584 77.580128 425.31836 78.125 C 430.72817 79.494404 431.46094 80.766562 431.46094 88.802734 C 431.46094 93.820946 433.59095 104.28932 436.19336 112.06641 C 439.43215 121.74534 440.43408 127.97897 440.29688 140.97461 L 440.92578 132.125 L 440.27344 133.41211 C 440.56869 118.64504 439.63523 112.35222 436.19336 102.06641 C 433.59095 94.289326 431.46094 83.820934 431.46094 78.802734 C 431.46094 70.766561 430.72817 69.4944 425.31836 68.125 C 423.16584 67.58012 418.57126 67.604691 413.42969 68.083984 C 404.59027 54.657438 395.28117 44.934436 388.11523 41.285156 C 388.89999 41.401023 388.14563 40.703223 386.24023 39.470703 L 387.49609 39.716797 L 383.31055 37.707031 C 382.80999 37.415365 382.42439 37.171676 381.85938 36.853516 C 374.0888 32.478036 369.09122 31.281211 356.9668 31.080078 C 355.93377 31.036878 354.89712 31.01164 353.86328 31.003906 z M 133.56055 56.326172 C 125.62952 56.384372 118.07364 57.778144 111.70117 60.542969 C 87.760892 70.929955 75.40869 92.516416 72.027344 130.41602 C 71.250637 137.90108 70.948374 145.74978 71.121094 153.9375 C 71.12501 154.32948 71.138732 154.72464 71.144531 155.11719 C 71.255137 150.08018 71.534401 145.16638 72.027344 140.41602 C 75.408677 102.5164 87.760892 80.929961 111.70117 70.542969 C 126.2668 64.223365 147.01728 65.058873 164.29102 72.662109 C 184.20974 81.429544 191.42355 91.573327 199.66992 122.41211 C 202.28328 132.18527 203.57007 141.0813 204.42969 159.32031 C 205.38702 171.81783 205.76937 185.82521 205.64844 201.45117 L 206.61719 246.72461 L 210.5 235.35547 C 214.75336 222.8984 230.5695 190.35079 238.61914 177.49023 C 238.98402 176.90726 239.31766 176.3244 239.65039 175.74219 C 241.93975 170.51776 243.50923 166.24183 244.4375 162.51172 C 244.94837 159.19066 244.95002 155.82983 244.45312 152.39258 C 244.44717 152.43222 244.4436 152.47209 244.4375 152.51172 C 243.50923 156.24181 241.93975 160.51777 239.65039 165.74219 C 239.31766 166.3244 238.98402 166.90726 238.61914 167.49023 C 230.5695 180.35079 214.75336 212.8984 210.5 225.35547 L 206.61719 236.72461 L 205.64844 191.45117 C 205.76937 175.82521 205.38702 161.81783 204.42969 149.32031 C 203.57006 131.08128 202.28328 122.18528 199.66992 112.41211 C 191.42355 81.573336 184.20974 71.429549 164.29102 62.662109 C 154.57454 58.385294 143.75758 56.251343 133.56055 56.326172 z M 418.62109 223.19141 C 418.17529 225.12194 417.93359 226.73261 417.93359 227.9375 C 417.93359 232.45371 420.98298 243.82603 424.70898 253.21094 C 434.26091 277.26991 439.58328 309.23207 440.13281 340.97852 C 440.64331 306.04121 435.26596 269.80139 424.70898 243.21094 C 422.02712 236.45596 419.71711 228.70795 418.62109 223.19141 z M 429.51758 433.08594 C 428.64307 444.97073 430.51536 451.45818 435.20898 457.08398 C 436.68831 458.85712 437.78121 460.30609 438.54883 461.59961 C 438.76857 461.11107 438.9735 460.61333 439.1543 460.10156 C 440.84066 455.3282 440.12996 452.98229 435.20898 447.08398 C 432.02989 443.2735 430.13769 439.08477 429.51758 433.08594 z" transform="scale(0.75)"/>
</svg>
