<svg width="512" height="512" version="1.1" viewBox="0 0 135.47 135.47" xmlns="http://www.w3.org/2000/svg" xmlns:xlink="http://www.w3.org/1999/xlink"><defs><linearGradient id="b" x1="111.53" x2="23.015" y2="158.45" gradientTransform="matrix(.95745 0 0 .95745 2.5165 .34892)" gradientUnits="userSpaceOnUse"><stop stop-color="#0f2751" offset="0"/><stop stop-color="#fff" offset="1"/></linearGradient><linearGradient id="a" x1="111.53" x2="23.015" y2="158.45" gradientTransform="matrix(.95745 0 0 .95745 2.5165 5.4154)" gradientUnits="userSpaceOnUse"><stop stop-color="#0f2751" offset="0"/><stop stop-color="#808080" offset="1"/></linearGradient></defs><g stroke-width="7.2473"><path d="m41.955 126.18c-11.476-6.9972-12.363-11.142-11.707-54.707 0.54138-35.946 0.90316-39.481 4.5415-44.349 7.4626-9.9841 13.498-13.031 27.267-13.764 16.92-0.90105 27.83 4.4703 34.464 16.968 4.2915 8.0839 4.4963 10.089 3.9361 38.533-0.64864 32.925-1.3005 34.864-13.915 41.388-7.3494 3.8005-23.911 3.602-31.609-0.37904-10.614-5.4886-13.535-12.866-13.544-34.197-0.0073-27.313 5.5654-35.858 23.399-35.858 7.3536 0 10.335 1.0759 15.317 5.5279 5.671 5.067 6.251 6.6656 6.9579 19.175l0.77119 13.647h-36.865v6.8374c0 9.5607 2.5409 13.321 11.395 16.864 9.2572 3.704 17.408 2.4467 24.051-3.7099 4.72-4.3744 4.821-5.0469 4.821-32.105 0-25.123-0.36454-28.1-4.0043-32.727-11.589-14.733-37.09-14.349-44.86 0.67545-3.6917 7.1389-4.2483 70.665-0.67762 77.368 2.441 4.5832 3.4151 6.7931 15.519 7.8857 17.812 1.6078 41.694-3.0934 47.393-2.3939 1.5261 0.18727 0.52732 5.0317-0.78001 5.382-29.262 7.8408-61.399 4.2273-61.873 3.9384zm35.86-63.355c0-7.381-6.0415-13.422-13.423-13.422-3.1958 0-7.4569 1.7045-9.5875 3.835-2.1306 2.1306-3.835 6.3916-3.835 9.5875v5.7525h26.845z" fill="url(#a)"/><path d="m41.955 126.18c-11.476-6.9972-12.363-11.142-11.707-54.707 0.54138-35.946 0.90316-39.481 4.5415-44.349 7.4626-9.9841 13.498-13.031 27.267-13.764 16.92-0.90105 27.83 4.4703 34.464 16.968 4.2915 8.0839 4.4963 10.089 3.9361 38.533-0.64864 32.925-1.3005 34.864-13.915 41.388-7.3494 3.8005-23.911 3.602-31.609-0.37904-10.614-5.4886-13.535-12.866-13.544-34.197-0.0073-27.313 5.5654-35.858 23.399-35.858 7.3536 0 10.335 1.0759 15.317 5.5279 5.671 5.067 6.251 6.6656 6.9579 19.175l0.77119 13.647h-36.865v6.8374c0 9.5607 2.5409 13.321 11.395 16.864 9.2572 3.704 17.408 2.4467 24.051-3.7099 4.72-4.3744 4.821-5.0469 4.821-32.105 0-25.123-0.36454-28.1-4.0043-32.727-11.589-14.733-37.09-14.349-44.86 0.67545-3.6917 7.1389-4.2483 70.665-0.67762 77.368 2.441 4.5832 3.4151 6.7931 15.519 7.8857 17.812 1.6078 41.694-3.0934 47.393-2.3939 1.5261 0.18727 0.52732 5.0317-0.78001 5.382-29.262 7.8408-61.399 4.2273-61.873 3.9384zm35.86-63.355c0-7.381-6.0415-13.422-13.423-13.422-3.1958 0-7.4569 1.7045-9.5875 3.835-2.1306 2.1306-3.835 6.3916-3.835 9.5875v5.7525h26.845z" opacity=".3"/><path d="m41.955 121.12c-11.476-6.9972-12.363-11.141-11.707-54.707 0.54138-35.946 0.90316-39.481 4.5415-44.349 7.4626-9.9841 13.498-13.031 27.267-13.764 16.92-0.90105 27.83 4.4703 34.464 16.968 4.2915 8.0839 4.4963 10.089 3.9361 38.533-0.64864 32.925-1.3005 34.864-13.915 41.387-7.3494 3.8005-23.911 3.602-31.609-0.37903-10.614-5.4886-13.535-12.866-13.544-34.197-0.0073-27.313 5.5654-35.858 23.399-35.858 7.3536 0 10.335 1.0759 15.317 5.5279 5.671 5.067 6.251 6.6656 6.9579 19.175l0.77119 13.647h-36.865v6.8374c0 9.5607 2.5409 13.321 11.395 16.864 9.2572 3.704 17.408 2.4467 24.051-3.7099 4.72-4.3744 4.821-5.0469 4.821-32.105 0-25.123-0.36454-28.1-4.0043-32.727-11.589-14.733-37.09-14.349-44.86 0.67545-3.6917 7.1389-4.2483 70.665-0.67762 77.368 2.441 4.5832 3.4151 6.7931 15.519 7.8857 22.582 2.0384 52.803 1.3295 46.613 2.9881-29.262 7.8408-61.399 4.2273-61.873 3.9384zm35.86-63.355c0-7.381-6.0415-13.422-13.423-13.422-3.1958 0-7.4569 1.7045-9.5875 3.835-2.1306 2.1306-3.835 6.3916-3.835 9.5875v5.7525h26.845z" fill="url(#b)"/><path d="m68.124 8.2564c-1.9305-0.085047-3.952-0.070081-6.0669 0.042551-13.769 0.73328-19.804 3.7795-27.267 13.764-3.6384 4.8676-4.0002 8.4028-4.5415 44.349-0.10557 7.0125-0.17092 13.004-0.15882 18.15 0.0099-4.5542 0.07012-9.725 0.15882-15.617 0.54138-35.946 0.90318-39.481 4.5415-44.349 7.4626-9.9841 13.498-13.03 27.267-13.764 16.92-0.90105 27.83 4.4701 34.465 16.967 3.1573 5.9474 4.1025 8.6043 4.1586 20.92 0.05772-14.517-0.79562-17.119-4.1586-23.453-5.8052-10.935-14.884-16.415-28.398-17.01zm-3.3348 26.496c-17.834 0-23.407 8.5444-23.399 35.858 1.6e-4 0.42033 0.0015 0.83527 4e-3 1.2449 0.16909-26.294 5.845-34.569 23.395-34.569 7.3536 0 10.335 1.0756 15.317 5.5276 5.671 5.067 6.2512 6.6656 6.958 19.175l0.62836 11.114h0.14299l-0.7714-13.647c-0.70682-12.509-1.287-14.108-6.958-19.175-4.9827-4.4521-7.9636-5.5276-15.317-5.5276zm26.449 27.866c-0.005909 25.458-0.19774 26.19-4.8211 30.475-6.6431 6.1566-14.794 7.4138-24.052 3.7098-8.8542-3.5428-11.395-7.3027-11.395-16.863v2.5332c0 9.5607 2.541 13.321 11.395 16.864 9.2572 3.704 17.408 2.4463 24.052-3.7103 4.72-4.3744 4.8211-5.0466 4.8211-32.104 0-0.30454 1.12e-4 -0.60588 0-0.90395zm-40.268 0.89703v2.5332h26.845v-2.5332h-13.422zm-11.676 9.987c-0.04159 16.494 0.72501 32.187 2.4026 35.336 2.441 4.5832 3.4151 6.7931 15.519 7.8857 14.243 1.2856 31.524 1.4781 40.793 1.8613 1.946-0.42189 3.8896-0.88926 5.8205-1.4066 6.1899-1.6586-24.032-0.94958-46.613-2.988-12.104-1.0926-13.078-3.3025-15.519-7.8857-1.5915-2.9878-2.3631-17.263-2.4026-32.803z" fill="#fff" opacity=".1"/></g></svg>
