<svg xmlns="http://www.w3.org/2000/svg" xmlns:xlink="http://www.w3.org/1999/xlink" width="512" height="512" version="1.1" viewBox="0 0 384 384"> <defs> <filter id="alpha" width="100%" height="100%" x="0%" y="0%" filterUnits="objectBoundingBox"> <feColorMatrix in="SourceGraphic" type="matrix" values="0 0 0 0 1 0 0 0 0 1 0 0 0 0 1 0 0 0 1 0"/> </filter> <mask id="mask0"> <g filter="url(#alpha)"> <rect width="384" height="384" x="0" y="0" style="fill:rgb(0%,0%,0%);fill-opacity:0.2"/> </g> </mask> <clipPath id="clip1"> <rect width="384" height="384" x="0" y="0"/> </clipPath> <g id="surface5" clip-path="url(#clip1)"> <path style="fill:rgb(0%,0%,0%)" d="M 360 349.199219 L 360 46.800781 C 360 37.523438 352.476562 30 343.199219 30 L 40.800781 30 C 31.523438 30 24 37.523438 24 46.800781 L 24 349.199219 C 24 358.476562 31.523438 366 40.800781 366 L 343.199219 366 C 352.476562 366 360 358.476562 360 349.199219 Z M 360 349.199219"/> </g> <mask id="mask1"> <g filter="url(#alpha)"> <rect width="384" height="384" x="0" y="0" style="fill:rgb(0%,0%,0%);fill-opacity:0.2"/> </g> </mask> <clipPath id="clip2"> <rect width="384" height="384" x="0" y="0"/> </clipPath> <g id="surface8" clip-path="url(#clip2)"> <path style="fill:rgb(0%,0%,0%)" d="M 240.089844 90 C 238.890625 89.929688 236.96875 90.695312 233.457031 92.226562 C 229.289062 94.046875 219.824219 95.53125 212.410156 95.53125 C 186.171875 96.070312 165.175781 105.058594 148.167969 121.992188 C 125.078125 145.136719 117.808594 174.246094 128.339844 201.28125 C 130.769531 207.523438 132.25 213.875 131.621094 215.390625 C 130.988281 216.910156 126.550781 221.113281 121.777344 224.742188 C 111.40625 232.628906 104.234375 245.34375 102.441406 259.007812 C 101.363281 267.21875 102.105469 271.132812 106.683594 280.898438 C 116.511719 301.871094 138.800781 310.855469 162.558594 303.421875 C 176.3125 299.121094 190.070312 283.835938 201.089844 260.648438 C 210.605469 240.625 211.007812 240.140625 221.222656 236.53125 C 238.441406 230.453125 249.296875 223.742188 260.082031 212.484375 C 279.199219 192.527344 286.292969 166.671875 279.441406 141.960938 C 276.363281 130.859375 273.765625 127.03125 259.824219 112.898438 C 250.992188 103.949219 243.164062 94.882812 242.410156 92.765625 C 241.773438 90.984375 241.289062 90.074219 240.089844 90 Z M 193.683594 114 C 201.855469 114.035156 208.175781 116.5 209.902344 121.40625 C 210.46875 123.015625 208.082031 130.609375 204.582031 138.257812 C 195.574219 157.9375 192.703125 168.75 187.261719 203.460938 C 180.511719 246.511719 173.136719 265.105469 158.363281 276.28125 C 149.046875 283.328125 137.613281 283.925781 131.503906 277.710938 C 126.21875 272.335938 124.683594 265.601562 127.144531 258.539062 C 129.089844 252.949219 130.972656 252.054688 145.167969 249.960938 C 155.042969 248.507812 161.996094 241.667969 161.996094 232.710938 C 161.996094 227.078125 159.730469 223.835938 152.058594 215.71875 C 140.1875 203.167969 135.003906 191.113281 134.949219 175.898438 C 134.863281 152.109375 146.507812 131.878906 166.402344 121.242188 C 175.496094 116.382812 185.507812 113.96875 193.683594 114 Z M 224.082031 126.023438 C 226.53125 125.660156 229.640625 128.527344 234.042969 134.507812 C 251.425781 158.148438 249.644531 193.925781 230.058594 214.476562 C 221.707031 223.238281 219.746094 223.769531 213.957031 219.046875 C 210.609375 216.320312 209.96875 213.84375 209.996094 203.859375 C 210.035156 188.566406 214.585938 151.109375 218.128906 136.875 C 219.84375 129.980469 221.632812 126.390625 224.082031 126.023438 Z M 224.082031 126.023438"/> </g> <mask id="mask2"> <g filter="url(#alpha)"> <rect width="384" height="384" x="0" y="0" style="fill:rgb(0%,0%,0%);fill-opacity:0.101961"/> </g> </mask> <clipPath id="clip3"> <rect width="384" height="384" x="0" y="0"/> </clipPath> <g id="surface11" clip-path="url(#clip3)"> <path style="fill:rgb(100.000%,100.000%,100.000%)" d="M 40.804688 24 C 31.496094 24 24 31.496094 24 40.804688 L 24 46.804688 C 24 37.496094 31.496094 30 40.804688 30 L 343.195312 30 C 352.503906 30 360 37.496094 360 46.804688 L 360 40.804688 C 360 31.496094 352.503906 24 343.195312 24 Z M 40.804688 24"/> </g> </defs> <g> <use mask="url(#mask0)" xlink:href="#surface5"/> <path style="fill:rgb(23.137%,54.509%,72.156%)" d="M 360 343.199219 L 360 40.800781 C 360 31.523438 352.476562 24 343.199219 24 L 40.800781 24 C 31.523438 24 24 31.523438 24 40.800781 L 24 343.199219 C 24 352.476562 31.523438 360 40.800781 360 L 343.199219 360 C 352.476562 360 360 352.476562 360 343.199219 Z M 360 343.199219"/> <use mask="url(#mask1)" xlink:href="#surface8"/> <path style="fill:rgb(100.000%,100.000%,100.000%)" d="M 240.089844 84.003906 C 238.890625 83.929688 236.96875 84.699219 233.457031 86.230469 C 229.289062 88.046875 219.824219 89.535156 212.410156 89.535156 C 186.171875 90.070312 165.175781 99.058594 148.167969 115.996094 C 125.078125 139.140625 117.808594 168.25 128.339844 195.285156 C 130.769531 201.523438 132.25 207.875 131.621094 209.394531 C 130.988281 210.910156 126.550781 215.117188 121.777344 218.746094 C 111.40625 226.628906 104.234375 239.34375 102.441406 253.011719 C 101.363281 261.21875 102.105469 265.136719 106.683594 274.902344 C 116.511719 295.871094 138.800781 304.855469 162.558594 297.425781 C 176.3125 293.121094 190.070312 277.835938 201.089844 254.652344 C 210.605469 234.625 211.007812 234.140625 221.222656 230.535156 C 238.441406 224.453125 249.296875 217.746094 260.082031 206.488281 C 279.199219 186.527344 286.292969 160.671875 279.441406 135.964844 C 276.363281 124.863281 273.765625 121.035156 259.824219 106.902344 C 250.992188 97.949219 243.164062 88.882812 242.410156 86.769531 C 241.773438 84.984375 241.289062 84.074219 240.089844 84.003906 Z M 193.683594 108.003906 C 201.855469 108.035156 208.175781 110.503906 209.902344 115.410156 C 210.46875 117.019531 208.082031 124.609375 204.582031 132.261719 C 195.574219 151.9375 192.703125 162.75 187.261719 197.464844 C 180.511719 240.515625 173.136719 259.105469 158.363281 270.285156 C 149.046875 277.332031 137.613281 277.925781 131.503906 271.714844 C 126.21875 266.339844 124.683594 259.601562 127.144531 252.542969 C 129.089844 246.949219 130.972656 246.054688 145.167969 243.964844 C 155.042969 242.511719 161.996094 235.667969 161.996094 226.714844 C 161.996094 221.078125 159.730469 217.835938 152.058594 209.722656 C 140.1875 197.167969 135.003906 185.113281 134.949219 169.902344 C 134.863281 146.109375 146.507812 125.878906 166.402344 115.246094 C 175.496094 110.382812 185.507812 107.96875 193.683594 108.003906 Z M 224.082031 120.027344 C 226.53125 119.660156 229.640625 122.527344 234.042969 128.511719 C 251.425781 152.148438 249.644531 187.925781 230.058594 208.480469 C 221.707031 217.242188 219.746094 217.769531 213.957031 213.050781 C 210.609375 210.320312 209.96875 207.847656 209.996094 197.863281 C 210.035156 182.566406 214.585938 145.109375 218.128906 130.878906 C 219.84375 123.980469 221.632812 120.394531 224.082031 120.027344 Z M 224.082031 120.027344"/> <use mask="url(#mask2)" xlink:href="#surface11"/> </g> </svg>
