<svg xmlns="http://www.w3.org/2000/svg" width="12pt" height="12pt" version="1.1" viewBox="0 0 12 12">
 <g>
  <path style="fill:rgb(82.745098%,85.490196%,89.019608%)" d="M 3.75 0 C 2.097656 0.957031 1.074219 2.574219 0.816406 4.324219 C 1 4.238281 1.183594 4.160156 1.378906 4.097656 C 2.203125 3.832031 3.125 3.753906 4.089844 3.75 C 5.425781 3.746094 6.851562 3.917969 8.191406 4.175781 C 7.148438 1.925781 5.644531 -0.0078125 3.75 0 Z M 6.933594 0.839844 C 7.714844 1.675781 8.351562 2.738281 8.871094 3.859375 L 9.109375 4.375 C 9.832031 4.539062 10.523438 4.71875 11.128906 4.90625 C 10.683594 2.824219 9.027344 1.21875 6.933594 0.839844 Z M 4.09375 4.5 C 2.25 4.507812 0.667969 4.828125 0 6 C 0 9.3125 2.6875 12 6 12 C 9.3125 12 12 9.3125 12 6 C 10.246094 5.3125 6.871094 4.488281 4.09375 4.5 Z M 4.09375 4.5"/>
 </g>
</svg>
