<svg xmlns="http://www.w3.org/2000/svg" width="12pt" height="12pt" version="1.1" viewBox="0 0 12 12">
 <g>
  <path style="fill:rgb(82.745098%,85.490196%,89.019608%)" d="M 6 0.75 C 3.101562 0.75 0.75 3.101562 0.75 6 C 0.75 8.898438 3.101562 11.25 6 11.25 C 8.898438 11.25 11.25 8.898438 11.25 6 C 11.25 3.101562 8.898438 0.75 6 0.75 Z M 4.875 3 L 7.125 3 C 7.75 3 8.25 3.507812 8.25 4.140625 L 8.25 4.714844 C 8.25 5.347656 7.75 6 7.125 6 L 6.75 6 L 6.75 8.429688 C 6.75 8.746094 6.59375 9 6.28125 9 L 5.71875 9 C 5.40625 9 5.261719 8.746094 5.25 8.429688 L 5.25 6 L 4.875 6 C 4.25 6 3.75 5.347656 3.75 4.714844 L 3.75 4.140625 C 3.75 3.507812 4.25 3 4.875 3 Z M 4.875 3"/>
 </g>
</svg>
