<svg xmlns="http://www.w3.org/2000/svg" xmlns:xlink="http://www.w3.org/1999/xlink" width="12pt" height="12pt" version="1.1" viewBox="0 0 12 12">
 <defs>
  <filter id="alpha" width="100%" height="100%" x="0%" y="0%" filterUnits="objectBoundingBox">
   <feColorMatrix in="SourceGraphic" type="matrix" values="0 0 0 0 1 0 0 0 0 1 0 0 0 0 1 0 0 0 1 0"/>
  </filter>
  <mask id="mask0">
   <g filter="url(#alpha)">
    <rect width="12" height="12" x="0" y="0" style="fill:rgb(0%,0%,0%);fill-opacity:0.301961"/>
   </g>
  </mask>
  <clipPath id="clip1">
   <rect width="12" height="12" x="0" y="0"/>
  </clipPath>
  <g id="surface5" clip-path="url(#clip1)">
   <path style="fill:rgb(82.745098%,85.490196%,89.019608%)" d="M 1.5 1.5 C 1.5 1.5 0 1.5 0 3 L 0 9 C 0 10.5 1.5 10.5 1.5 10.5 L 9.75 10.5 C 9.75 10.5 11.25 10.5 11.25 9 L 11.25 3 C 11.25 1.5 9.75 1.5 9.75 1.5 Z M 1.6875 3 L 2.8125 3 C 2.917969 3 3 3.082031 3 3.1875 L 3 4.3125 C 3 4.417969 2.917969 4.5 2.8125 4.5 L 1.6875 4.5 C 1.582031 4.5 1.5 4.417969 1.5 4.3125 L 1.5 3.1875 C 1.5 3.082031 1.582031 3 1.6875 3 Z M 3.9375 3 L 5.0625 3 C 5.167969 3 5.25 3.082031 5.25 3.1875 L 5.25 4.3125 C 5.25 4.417969 5.167969 4.5 5.0625 4.5 L 3.9375 4.5 C 3.832031 4.5 3.75 4.417969 3.75 4.3125 L 3.75 3.1875 C 3.75 3.082031 3.832031 3 3.9375 3 Z M 6.1875 3 L 7.3125 3 C 7.414062 3 7.5 3.082031 7.5 3.1875 L 7.5 4.3125 C 7.5 4.417969 7.414062 4.5 7.3125 4.5 L 6.1875 4.5 C 6.085938 4.5 6 4.417969 6 4.3125 L 6 3.1875 C 6 3.082031 6.085938 3 6.1875 3 Z M 8.4375 3 L 9.5625 3 C 9.664062 3 9.75 3.082031 9.75 3.1875 L 9.75 4.3125 C 9.75 4.417969 9.664062 4.5 9.5625 4.5 L 8.4375 4.5 C 8.335938 4.5 8.25 4.417969 8.25 4.3125 L 8.25 3.1875 C 8.25 3.082031 8.335938 3 8.4375 3 Z M 1.6875 5.25 L 2.8125 5.25 C 2.917969 5.25 3 5.335938 3 5.4375 L 3 6.5625 C 3 6.664062 2.917969 6.75 2.8125 6.75 L 1.6875 6.75 C 1.582031 6.75 1.5 6.664062 1.5 6.5625 L 1.5 5.4375 C 1.5 5.335938 1.582031 5.25 1.6875 5.25 Z M 3.9375 5.25 L 5.0625 5.25 C 5.167969 5.25 5.25 5.335938 5.25 5.4375 L 5.25 6.5625 C 5.25 6.664062 5.167969 6.75 5.0625 6.75 L 3.9375 6.75 C 3.832031 6.75 3.75 6.664062 3.75 6.5625 L 3.75 5.4375 C 3.75 5.335938 3.832031 5.25 3.9375 5.25 Z M 6.1875 5.25 L 7.3125 5.25 C 7.417969 5.25 7.5 5.335938 7.5 5.4375 L 7.5 6.5625 C 7.5 6.664062 7.414062 6.75 7.3125 6.75 L 6.1875 6.75 C 6.085938 6.75 6 6.664062 6 6.5625 L 6 5.4375 C 6 5.335938 6.085938 5.25 6.1875 5.25 Z M 8.4375 5.25 L 9.5625 5.25 C 9.667969 5.25 9.75 5.335938 9.75 5.4375 L 9.75 6.5625 C 9.75 6.664062 9.664062 6.75 9.5625 6.75 L 8.4375 6.75 C 8.335938 6.75 8.25 6.664062 8.25 6.5625 L 8.25 5.4375 C 8.25 5.335938 8.335938 5.25 8.4375 5.25 Z M 3.1875 7.5 L 8.0625 7.5 C 8.167969 7.5 8.25 7.585938 8.25 7.6875 L 8.25 8.8125 C 8.25 8.914062 8.164062 9 8.0625 9 L 3.1875 9 C 3.082031 9 3 8.914062 3 8.8125 L 3 7.6875 C 3 7.585938 3.082031 7.5 3.1875 7.5 Z M 3.1875 7.5"/>
  </g>
 </defs>
 <g>
  <use mask="url(#mask0)" xlink:href="#surface5"/>
 </g>
</svg>
