<svg xmlns="http://www.w3.org/2000/svg" width="12pt" height="12pt" version="1.1" viewBox="0 0 12 12">
 <g>
  <path style="fill:rgb(82.745098%,85.490196%,89.019608%)" d="M 1.226562 5.375 C 1.226562 5.375 2.335938 3.5625 4.5 3.371094 L 4.5 2.714844 C 2.101562 2.933594 0 5.238281 0 5.238281 C 0 5.238281 1.199219 9.09375 4.5 9.445312 L 4.5 8.746094 C 2.078125 8.398438 1.226562 5.375 1.226562 5.375 Z M 4.5 7.355469 L 4.5 7.996094 C 2.671875 7.625 2.136719 5.46875 2.136719 5.46875 C 2.136719 5.46875 3.042969 4.363281 4.5 4.183594 L 4.5 4.886719 C 3.734375 4.785156 3.109375 5.59375 3.109375 5.59375 C 3.109375 5.59375 3.46875 6.960938 4.5 7.355469 M 4.5 1.5 L 4.5 2.714844 C 4.570312 2.707031 4.617188 2.703125 4.6875 2.699219 C 7.417969 2.597656 9.195312 5.234375 9.195312 5.234375 C 9.195312 5.234375 7.152344 8.050781 5.027344 8.050781 C 4.832031 8.050781 4.671875 8.03125 4.5 7.996094 L 4.5 8.746094 C 4.648438 8.765625 4.777344 8.777344 4.933594 8.777344 C 6.914062 8.777344 8.34375 7.632812 9.730469 6.277344 C 9.960938 6.484375 10.902344 6.992188 11.09375 7.214844 C 9.777344 8.464844 6.707031 9.472656 4.964844 9.472656 C 4.796875 9.472656 4.660156 9.460938 4.5 9.445312 L 4.5 10.5 L 12 10.5 L 12 1.5 Z M 4.5 4.183594 L 4.5 3.371094 C 4.570312 3.367188 4.617188 3.363281 4.6875 3.359375 C 6.652344 3.289062 7.9375 5.269531 7.9375 5.269531 C 7.9375 5.269531 6.546875 7.460938 5.058594 7.460938 C 4.84375 7.460938 4.675781 7.421875 4.5 7.355469 L 4.5 4.886719 C 5.265625 4.992188 5.394531 5.375 5.855469 6.242188 L 6.875 5.265625 C 6.875 5.265625 6.128906 4.160156 4.875 4.160156 C 4.738281 4.160156 4.628906 4.171875 4.5 4.183594"/>
 </g>
</svg>
