<svg xmlns="http://www.w3.org/2000/svg" xmlns:xlink="http://www.w3.org/1999/xlink" width="12pt" height="12pt" version="1.1" viewBox="0 0 12 12">
 <defs>
  <filter id="alpha" width="100%" height="100%" x="0%" y="0%" filterUnits="objectBoundingBox">
   <feColorMatrix in="SourceGraphic" type="matrix" values="0 0 0 0 1 0 0 0 0 1 0 0 0 0 1 0 0 0 1 0"/>
  </filter>
  <mask id="mask0">
   <g filter="url(#alpha)">
    <rect width="12" height="12" x="0" y="0" style="fill:rgb(0%,0%,0%);fill-opacity:0.301961"/>
   </g>
  </mask>
  <clipPath id="clip1">
   <rect width="12" height="12" x="0" y="0"/>
  </clipPath>
  <g id="surface5" clip-path="url(#clip1)">
   <path style="fill:rgb(82.745098%,85.490196%,89.019608%)" d="M 6 0.75 C 5.050781 0.75 4.234375 1.167969 3.726562 1.800781 C 3.222656 2.433594 3 3.234375 3 4.050781 L 3 7.5 L 4.5 7.5 L 4.5 4.050781 C 4.5 3.515625 4.652344 3.042969 4.898438 2.738281 C 5.140625 2.433594 5.449219 2.25 6 2.25 C 6.550781 2.25 6.859375 2.433594 7.101562 2.738281 C 7.347656 3.042969 7.5 3.515625 7.5 4.050781 L 7.5 7.5 L 9 7.5 L 9 4.050781 C 9 3.234375 8.777344 2.433594 8.273438 1.800781 C 7.765625 1.167969 6.949219 0.75 6 0.75 Z M 6 0.75"/>
  </g>
 </defs>
 <g>
  <use mask="url(#mask0)" xlink:href="#surface5"/>
  <path style="fill:rgb(82.745098%,85.490196%,89.019608%)" d="M 4.019531 4.5 C 2.574219 4.449219 1.574219 5.410156 1.503906 6.453125 C 1.46875 6.996094 1.679688 7.558594 2.210938 8.011719 L 6 11.25 L 9.789062 8.011719 C 10.320312 7.558594 10.53125 6.996094 10.496094 6.453125 C 10.425781 5.410156 9.425781 4.449219 7.980469 4.5 C 7.160156 4.53125 6.410156 4.917969 6 5.527344 C 5.589844 4.917969 4.839844 4.53125 4.019531 4.5 Z M 5.25 6 L 6.75 6 L 6.75 7.5 L 6.390625 7.5 L 7.125 9 L 4.875 9 L 5.609375 7.5 L 5.25 7.5 Z M 5.25 6"/>
 </g>
</svg>
