<svg xmlns="http://www.w3.org/2000/svg" width="12pt" height="12pt" version="1.1" viewBox="0 0 12 12">
 <g>
  <path style="fill:rgb(82.745098%,85.490196%,89.019608%)" d="M 6 0.75 C 3.101562 0.75 0.75 3.101562 0.75 6 C 0.75 8.898438 3.101562 11.25 6 11.25 C 8.898438 11.25 11.25 8.898438 11.25 6 C 11.25 3.101562 8.898438 0.75 6 0.75 Z M 6 2.25 C 8.070312 2.25 9.75 3.929688 9.75 6 C 9.75 6.808594 9.484375 7.59375 9 8.242188 L 9 4.5 L 7.5 4.5 L 7.5 9.433594 C 7.027344 9.640625 6.515625 9.75 6 9.75 C 3.929688 9.75 2.25 8.070312 2.25 6 C 2.25 3.929688 3.929688 2.25 6 2.25 Z M 7.5 6 L 3.75 3.75 L 3.75 8.25 Z M 7.5 6"/>
 </g>
</svg>
