<svg xmlns="http://www.w3.org/2000/svg" width="12pt" height="12pt" version="1.1" viewBox="0 0 12 12">
 <g>
  <path style="fill:rgb(82.745098%,85.490196%,89.019608%)" d="M 0.75 0.75 C 0 0.75 0 1.5 0 1.5 L 0 10.246094 C 0.160156 10.417969 0.410156 10.507812 0.65625 10.476562 C 0.691406 10.476562 0.714844 10.5 0.75 10.5 L 11.25 10.5 C 11.664062 10.5 12 10.164062 12 9.75 L 12 1.5 C 12 1.085938 11.664062 0.75 11.25 0.75 Z M 0.75 1.5 L 11.25 1.5 L 11.25 9 L 0.75 9 Z M 6.75 2.25 C 6.335938 2.25 6 2.585938 6 3 C 6 3.414062 6.335938 3.75 6.75 3.75 C 7.164062 3.75 7.5 3.414062 7.5 3 C 7.5 2.585938 7.164062 2.25 6.75 2.25 Z M 3.75 4.5 C 2.625 4.5 1.5 6 1.5 7.898438 L 1.5 8.25 L 10.5 8.25 C 10.5 8.25 9.75 5.25 8.625 5.25 C 7.5 5.25 7.5 6.75 6.75 6.75 C 6 6.75 4.875 4.5 3.75 4.5 Z M 3.75 4.5"/>
 </g>
</svg>
