<svg xmlns="http://www.w3.org/2000/svg" width="12pt" height="12pt" version="1.1" viewBox="0 0 12 12">
 <g>
  <path style="fill:rgb(82.745098%,85.490196%,89.019608%)" d="M 6.375 0.75 C 6.238281 0.75 6.113281 0.820312 6.046875 0.9375 C 5.976562 1.054688 5.976562 1.195312 6.046875 1.3125 C 6.113281 1.429688 6.238281 1.5 6.375 1.5 C 8.335938 1.5 9.300781 2.261719 9.851562 3.152344 C 10.402344 4.042969 10.5 5.105469 10.5 5.625 C 10.5 5.761719 10.570312 5.886719 10.6875 5.953125 C 10.804688 6.023438 10.945312 6.023438 11.0625 5.953125 C 11.179688 5.886719 11.25 5.761719 11.25 5.625 C 11.25 5.019531 11.160156 3.832031 10.492188 2.753906 C 9.824219 1.675781 8.539062 0.75 6.375 0.75 Z M 2.648438 0.753906 C 2.566406 0.746094 2.492188 0.75 2.433594 0.761719 C 2.269531 0.792969 2.0625 0.917969 1.613281 1.25 C 1.34375 1.449219 0.976562 1.804688 0.890625 1.953125 C 0.691406 2.292969 0.703125 2.585938 0.945312 3.253906 C 1.367188 4.402344 1.980469 5.511719 2.785156 6.582031 C 4.332031 8.625 6.277344 10.113281 8.710938 11.109375 C 9.023438 11.238281 9.121094 11.257812 9.367188 11.246094 C 9.660156 11.234375 9.886719 11.140625 10.199219 10.902344 C 10.550781 10.640625 11.050781 10.023438 11.179688 9.695312 C 11.300781 9.382812 11.265625 9.101562 11.085938 8.878906 C 10.984375 8.757812 10.226562 8.144531 9.871094 7.898438 C 9.605469 7.710938 9.191406 7.457031 9 7.355469 C 8.746094 7.230469 8.496094 7.207031 8.25 7.289062 C 8.058594 7.355469 7.996094 7.410156 7.714844 7.761719 C 7.566406 7.941406 7.433594 8.105469 7.417969 8.121094 C 7.398438 8.136719 7.335938 8.167969 7.28125 8.195312 C 7.054688 8.300781 6.742188 8.238281 6.234375 7.984375 C 5.835938 7.789062 5.488281 7.542969 5.089844 7.183594 C 4.753906 6.875 4.410156 6.476562 4.21875 6.164062 C 3.972656 5.761719 3.785156 5.242188 3.785156 4.953125 C 3.785156 4.828125 3.835938 4.652344 3.898438 4.5625 C 3.921875 4.527344 4.074219 4.390625 4.242188 4.257812 C 4.652344 3.929688 4.746094 3.828125 4.800781 3.632812 C 4.855469 3.449219 4.796875 3.199219 4.625 2.867188 C 4.324219 2.285156 3.40625 1.121094 3.078125 0.902344 C 3.023438 0.871094 2.929688 0.820312 2.867188 0.800781 C 2.804688 0.777344 2.726562 0.761719 2.648438 0.753906 Z M 7.125 2.25 C 6.988281 2.25 6.863281 2.320312 6.796875 2.4375 C 6.726562 2.554688 6.726562 2.695312 6.796875 2.8125 C 6.863281 2.929688 6.988281 3 7.125 3 C 7.5625 3 8.042969 3.230469 8.40625 3.59375 C 8.769531 3.957031 9 4.4375 9 4.875 C 9 5.011719 9.070312 5.136719 9.1875 5.203125 C 9.304688 5.273438 9.445312 5.273438 9.5625 5.203125 C 9.679688 5.136719 9.75 5.011719 9.75 4.875 C 9.75 4.1875 9.417969 3.542969 8.9375 3.0625 C 8.457031 2.582031 7.8125 2.25 7.125 2.25 Z M 7.125 3.707031 C 6.988281 3.707031 6.863281 3.777344 6.796875 3.894531 C 6.726562 4.011719 6.726562 4.15625 6.796875 4.273438 C 6.863281 4.386719 6.988281 4.460938 7.125 4.457031 C 7.171875 4.457031 7.277344 4.5 7.359375 4.589844 C 7.445312 4.683594 7.492188 4.808594 7.492188 4.875 C 7.492188 5.011719 7.5625 5.136719 7.679688 5.203125 C 7.796875 5.273438 7.941406 5.273438 8.058594 5.203125 C 8.171875 5.136719 8.246094 5.011719 8.242188 4.875 C 8.242188 4.566406 8.105469 4.292969 7.914062 4.085938 C 7.71875 3.875 7.453125 3.707031 7.125 3.707031 Z M 7.125 3.707031"/>
 </g>
</svg>
