<svg xmlns="http://www.w3.org/2000/svg" width="12pt" height="12pt" version="1.1" viewBox="0 0 12 12">
 <g>
  <path style="fill:rgb(82.745098%,85.490196%,89.019608%)" d="M 6 0.75 C 5.875 0.75 5.75 0.757812 5.625 0.765625 C 5.609375 0.765625 5.59375 0.765625 5.578125 0.765625 C 3.703125 0.914062 2.113281 2.042969 1.3125 3.640625 C 1.257812 3.742188 1.207031 3.847656 1.160156 3.953125 C 0.914062 4.507812 0.78125 5.097656 0.757812 5.710938 C 0.757812 5.734375 0.753906 5.753906 0.753906 5.773438 C 0.753906 5.832031 0.75 5.890625 0.75 5.949219 C 0.75 5.964844 0.75 5.984375 0.75 6 C 0.75 6.609375 0.859375 7.191406 1.050781 7.738281 C 1.125 7.980469 1.214844 8.226562 1.320312 8.476562 C 1.585938 9.097656 1.617188 9.265625 1.574219 9.785156 C 1.546875 10.148438 1.449219 10.519531 1.324219 10.726562 C 1.214844 10.914062 1.125 11.113281 1.125 11.160156 C 1.125 11.3125 2.011719 11.261719 2.792969 11.058594 C 3.710938 10.824219 3.792969 10.824219 4.542969 11.0625 C 4.886719 11.167969 5.28125 11.226562 5.722656 11.242188 C 5.742188 11.242188 5.761719 11.242188 5.777344 11.246094 C 5.839844 11.246094 5.898438 11.25 5.960938 11.25 L 6 11.25 C 6.144531 11.25 6.292969 11.242188 6.433594 11.230469 C 7.734375 11.136719 8.777344 10.660156 9.714844 9.722656 C 10.488281 8.949219 10.964844 7.996094 11.15625 7 C 11.171875 6.910156 11.1875 6.816406 11.199219 6.726562 C 11.207031 6.667969 11.214844 6.609375 11.222656 6.554688 C 11.234375 6.429688 11.238281 6.308594 11.246094 6.179688 C 11.246094 6.148438 11.246094 6.121094 11.246094 6.085938 C 11.246094 6.058594 11.25 6.03125 11.25 6 C 11.25 3.140625 8.984375 0.832031 6.144531 0.753906 C 6.121094 0.753906 6.101562 0.753906 6.078125 0.753906 C 6.050781 0.753906 6.027344 0.75 6 0.75 Z M 3 5.25 C 3.414062 5.25 3.75 5.585938 3.75 6 C 3.75 6.414062 3.414062 6.75 3 6.75 C 2.585938 6.75 2.25 6.414062 2.25 6 C 2.25 5.585938 2.585938 5.25 3 5.25 Z M 6 5.25 C 6.414062 5.25 6.75 5.585938 6.75 6 C 6.75 6.414062 6.414062 6.75 6 6.75 C 5.585938 6.75 5.25 6.414062 5.25 6 C 5.25 5.585938 5.585938 5.25 6 5.25 Z M 9 5.25 C 9.414062 5.25 9.75 5.585938 9.75 6 C 9.75 6.414062 9.414062 6.75 9 6.75 C 8.585938 6.75 8.25 6.414062 8.25 6 C 8.25 5.585938 8.585938 5.25 9 5.25 Z M 9 5.25"/>
 </g>
</svg>
