<svg xmlns="http://www.w3.org/2000/svg" width="12pt" height="12pt" version="1.1" viewBox="0 0 12 12">
 <g>
  <path style="fill:rgb(82.745098%,85.490196%,89.019608%)" d="M 6 0.539062 L 4.359375 2.25 L 2.25 2.25 L 2.25 4.359375 L 0.539062 6 L 2.25 7.664062 L 2.25 9.75 L 4.359375 9.75 L 6 11.460938 L 7.664062 9.75 L 9.75 9.75 L 9.75 7.664062 L 11.460938 6 L 9.75 4.5 L 9.75 2.25 L 7.664062 2.25 Z M 6 3 C 7.65625 3 9 4.34375 9 6 C 9 7.65625 7.65625 9 6 9 C 4.34375 9 3 7.65625 3 6 C 3 4.34375 4.34375 3 6 3 Z M 6 3.75 C 4.757812 3.75 3.75 4.757812 3.75 6 C 3.75 7.242188 4.757812 8.25 6 8.25 Z M 6 3.75"/>
 </g>
</svg>
