<svg xmlns="http://www.w3.org/2000/svg" width="12pt" height="12pt" version="1.1" viewBox="0 0 12 12">
 <g>
  <path style="fill:rgb(82.745098%,85.490196%,89.019608%)" d="M 6.082031 1.5 C 4.679688 1.5 2.609375 1.59375 1.988281 1.613281 C 1.316406 1.679688 1.066406 1.714844 0.699219 2.050781 C 0.132812 2.582031 0 3.632812 0 5.234375 L 0 6.761719 C 0 8.589844 0.226562 9.519531 0.605469 9.855469 C 1.039062 10.253906 1.324219 10.285156 1.613281 10.332031 C 1.722656 10.347656 2.515625 10.5 6.03125 10.5 C 6.453125 10.5 6.753906 10.484375 7.144531 10.476562 C 6.886719 10.027344 6.75 9.519531 6.75 9 C 6.75 7.34375 8.09375 6 9.75 6 C 10.609375 6 11.425781 6.371094 11.996094 7.015625 C 11.996094 6.929688 12 6.859375 12 6.769531 L 12 4.992188 C 12 4.042969 11.953125 2.707031 11.398438 2.144531 C 10.976562 1.765625 10.824219 1.660156 9.957031 1.613281 C 9.714844 1.601562 7.574219 1.5 6.082031 1.5 Z M 5.25 3.75 L 8.25 6 L 5.25 8.25 Z M 5.25 3.75"/>
  <path style="fill:rgb(82.745098%,85.490196%,89.019608%)" d="M 11.921875 8.417969 C 11.601562 7.21875 10.363281 6.507812 9.167969 6.828125 C 7.972656 7.148438 7.253906 8.382812 7.578125 9.582031 C 7.898438 10.78125 9.136719 11.492188 10.332031 11.171875 C 11.527344 10.851562 12.246094 9.617188 11.921875 8.417969 Z M 11.199219 8.613281 C 11.414062 9.410156 10.9375 10.234375 10.136719 10.449219 L 9.945312 9.722656 C 10.34375 9.617188 10.582031 9.207031 10.472656 8.804688 Z M 9.363281 7.550781 L 9.554688 8.277344 C 9.15625 8.382812 8.917969 8.792969 9.027344 9.195312 L 8.300781 9.386719 C 8.085938 8.589844 8.5625 7.765625 9.363281 7.550781 Z M 9.363281 7.550781"/>
 </g>
</svg>
