<svg width="36pt" height="36pt" version="1.1" viewBox="0 0 36 36" xmlns="http://www.w3.org/2000/svg"><defs><filter id="a" x="-.192" y="-.192" width="1.384" height="1.384" color-interpolation-filters="sRGB"><feGaussianBlur stdDeviation="0.67843748"/></filter><clipPath id="c"><path d="m12 12h12v15h-12z"/></clipPath><clipPath id="b"><path d="m31.617 19.875c0 7.4453-6.0977 13.473-13.613 13.473s-13.613-6.0273-13.613-13.473 6.0977-13.477 13.613-13.477 13.613 6.0312 13.613 13.477z"/></clipPath></defs><path d="m7.3477 3.9022c-0.67188 0-1.3047 0.63281-1.3047 1.3047v27.391c0 0.63281 0.67188 1.3047 1.3047 1.3047h20.871c0.63281 0 1.3047-0.67188 1.3047-1.3047v-20.215l-8.4805-8.4805z" opacity=".1"/><path d="m7.3477 3.1523c-0.67188 0-1.3047 0.63281-1.3047 1.3047v27.391c0 0.63281 0.67188 1.3047 1.3047 1.3047h20.871c0.63281 0 1.3047-0.67188 1.3047-1.3047v-20.215l-8.4805-8.4805z" fill="#ffc62f"/><path d="m20.668 3.5272 8.4805 8.4805h-7.1758c-0.63281 0-1.3047-0.67187-1.3047-1.3047z" filter="url(#a)" opacity=".2"/><path d="m21.043 3.1523 8.4805 8.4805h-7.1758c-0.63281 0-1.3047-0.67187-1.3047-1.3047z" fill="#f9e794"/><g transform="matrix(.96 0 0 .96 .72022 1.1698)" clip-path="url(#c)" fill="#fff"><g clip-path="url(#b)" fill="#fff"><path d="m18.008 12.844c-1.7148 0.0039-3.3945 0.76172-4.4258 2.1641-1.6094 2.1875-1.0234 5.1562 1.2695 6.7031v4.6094h0.78516v0.58594h4.7344v-0.58594h0.77734v-4.6094c0.49219-0.33594 0.92969-0.73828 1.2695-1.207 1.6406-2.2422 1.0039-5.2969-1.4375-6.8164-0.91406-0.56641-1.9453-0.84375-2.9766-0.84375m-0.0078 0.89062c0.83984 0 1.6875 0.22656 2.4414 0.69141 2 1.2461 2.5234 3.7305 1.1719 5.5742-0.3125 0.42188-0.70703 0.79297-1.168 1.082l-0.07813 1.1367h-4.7383l-0.06641-1.1367c-2.0078-1.2461-2.5312-3.7305-1.1719-5.5703 0.84375-1.1523 2.2148-1.7773 3.6094-1.7695m-2.3672 9.0664h4.7344v1.168h-4.7344m0 0.58594h4.7344v1.0039h-4.7344" fill="#fff"/></g></g></svg>
