<svg xmlns="http://www.w3.org/2000/svg" xmlns:xlink="http://www.w3.org/1999/xlink" width="36pt" height="36pt" version="1.1" viewBox="0 0 36 36">
 <defs>
  <filter id="alpha" width="100%" height="100%" x="0%" y="0%" filterUnits="objectBoundingBox">
   <feColorMatrix in="SourceGraphic" type="matrix" values="0 0 0 0 1 0 0 0 0 1 0 0 0 0 1 0 0 0 1 0"/>
  </filter>
  <mask id="mask0">
   <g filter="url(#alpha)">
    <rect width="36" height="36" x="0" y="0" style="fill:rgb(0%,0%,0%);fill-opacity:0.101961"/>
   </g>
  </mask>
  <clipPath id="clip1">
   <rect width="36" height="36" x="0" y="0"/>
  </clipPath>
  <g id="surface5" clip-path="url(#clip1)">
   <path style="fill:rgb(100%,100%,100%)" d="M 12 3.75 C 11.167969 3.75 10.5 4.417969 10.5 5.25 L 10.5 6 C 10.5 5.167969 11.167969 4.5 12 4.5 L 13.5 4.5 C 14.332031 4.5 15 5.167969 15 6 L 15 5.25 C 15 4.417969 14.332031 3.75 13.5 3.75 Z M 12 3.75"/>
  </g>
  <mask id="mask1">
   <g filter="url(#alpha)">
    <rect width="36" height="36" x="0" y="0" style="fill:rgb(0%,0%,0%);fill-opacity:0.101961"/>
   </g>
  </mask>
  <clipPath id="clip2">
   <rect width="36" height="36" x="0" y="0"/>
  </clipPath>
  <g id="surface8" clip-path="url(#clip2)">
   <path style="fill:rgb(100%,100%,100%)" d="M 22.5 3.75 C 21.667969 3.75 21 4.417969 21 5.25 L 21 6 C 21 5.167969 21.667969 4.5 22.5 4.5 L 24 4.5 C 24.832031 4.5 25.5 5.167969 25.5 6 L 25.5 5.25 C 25.5 4.417969 24.832031 3.75 24 3.75 Z M 22.5 3.75"/>
  </g>
  <mask id="mask2">
   <g filter="url(#alpha)">
    <rect width="36" height="36" x="0" y="0" style="fill:rgb(0%,0%,0%);fill-opacity:0.2"/>
   </g>
  </mask>
  <clipPath id="clip3">
   <rect width="36" height="36" x="0" y="0"/>
  </clipPath>
  <g id="surface11" clip-path="url(#clip3)">
   <path style="fill:rgb(0%,0%,0%)" d="M 6.75 30.75 L 6.75 31.5 C 6.75 32.332031 7.417969 33 8.25 33 L 27.75 33 C 28.582031 33 29.25 32.332031 29.25 31.5 L 29.25 30.75 C 29.25 31.582031 28.582031 32.25 27.75 32.25 L 8.25 32.25 C 7.417969 32.25 6.75 31.582031 6.75 30.75 Z M 6.75 30.75"/>
  </g>
  <mask id="mask3">
   <g filter="url(#alpha)">
    <rect width="36" height="36" x="0" y="0" style="fill:rgb(0%,0%,0%);fill-opacity:0.2"/>
   </g>
  </mask>
  <clipPath id="clip4">
   <rect width="36" height="36" x="0" y="0"/>
  </clipPath>
  <g id="surface14" clip-path="url(#clip4)">
   <path style="fill:rgb(0%,0%,0%)" d="M 18 18 L 18 22.5 L 22.5 22.5 L 18 30 L 18 25.5 L 13.5 25.5 Z M 18 18"/>
  </g>
 </defs>
 <g>
  <path style="fill:rgb(71.764706%,71.764706%,71.764706%)" d="M 12 3.75 L 13.5 3.75 C 14.328125 3.75 15 4.421875 15 5.25 L 15 14.25 C 15 15.078125 14.328125 15.75 13.5 15.75 L 12 15.75 C 11.171875 15.75 10.5 15.078125 10.5 14.25 L 10.5 5.25 C 10.5 4.421875 11.171875 3.75 12 3.75 Z M 12 3.75"/>
  <path style="fill:rgb(71.764706%,71.764706%,71.764706%)" d="M 22.5 3.75 L 24 3.75 C 24.828125 3.75 25.5 4.421875 25.5 5.25 L 25.5 14.25 C 25.5 15.078125 24.828125 15.75 24 15.75 L 22.5 15.75 C 21.671875 15.75 21 15.078125 21 14.25 L 21 5.25 C 21 4.421875 21.671875 3.75 22.5 3.75 Z M 22.5 3.75"/>
  <path style="fill:rgb(35.686275%,35.686275%,35.686275%)" d="M 8.25 14.25 L 27.75 14.25 C 28.578125 14.25 29.25 14.921875 29.25 15.75 L 29.25 30.75 C 29.25 31.578125 28.578125 32.25 27.75 32.25 L 8.25 32.25 C 7.421875 32.25 6.75 31.578125 6.75 30.75 L 6.75 15.75 C 6.75 14.921875 7.421875 14.25 8.25 14.25 Z M 8.25 14.25"/>
  <use mask="url(#mask0)" xlink:href="#surface5"/>
  <use mask="url(#mask1)" xlink:href="#surface8"/>
  <use mask="url(#mask2)" xlink:href="#surface11"/>
  <use mask="url(#mask3)" xlink:href="#surface14"/>
  <path style="fill:rgb(89.411765%,89.411765%,89.411765%)" d="M 18 17.25 L 18 21.75 L 22.5 21.75 L 18 29.25 L 18 24.75 L 13.5 24.75 Z M 18 17.25"/>
 </g>
</svg>
