<svg xmlns="http://www.w3.org/2000/svg" xmlns:xlink="http://www.w3.org/1999/xlink" width="36pt" height="36pt" version="1.1" viewBox="0 0 36 36">
 <defs>
  <filter id="alpha" width="100%" height="100%" x="0%" y="0%" filterUnits="objectBoundingBox">
   <feColorMatrix in="SourceGraphic" type="matrix" values="0 0 0 0 1 0 0 0 0 1 0 0 0 0 1 0 0 0 1 0"/>
  </filter>
  <mask id="mask0">
   <g filter="url(#alpha)">
    <rect width="36" height="36" x="0" y="0" style="fill:rgb(0%,0%,0%);fill-opacity:0.4"/>
   </g>
  </mask>
  <clipPath id="clip1">
   <rect width="36" height="36" x="0" y="0"/>
  </clipPath>
  <g id="surface5" clip-path="url(#clip1)">
   <path style="fill:rgb(100%,100%,100%)" d="M 7.5 10.5 L 28.5 10.5 L 28.5 24 L 25.136719 24 L 22.136719 27 L 13.863281 27 L 10.863281 24 L 7.5 24 Z M 7.5 10.5"/>
  </g>
  <mask id="mask1">
   <g filter="url(#alpha)">
    <rect width="36" height="36" x="0" y="0" style="fill:rgb(0%,0%,0%);fill-opacity:0.101961"/>
   </g>
  </mask>
  <clipPath id="clip2">
   <rect width="36" height="36" x="0" y="0"/>
  </clipPath>
  <g id="surface8" clip-path="url(#clip2)">
   <path style="fill:rgb(100%,100%,100%)" d="M 5.25 5.25 C 5.25 5.25 3 5.25 3 7.5 L 3 8.25 C 3 6 5.25 6 5.25 6 L 30.75 6 C 30.75 6 33 6 33 8.25 L 33 7.5 C 33 5.25 30.75 5.25 30.75 5.25 Z M 5.25 5.25"/>
  </g>
  <mask id="mask2">
   <g filter="url(#alpha)">
    <rect width="36" height="36" x="0" y="0" style="fill:rgb(0%,0%,0%);fill-opacity:0.2"/>
   </g>
  </mask>
  <clipPath id="clip3">
   <rect width="36" height="36" x="0" y="0"/>
  </clipPath>
  <g id="surface11" clip-path="url(#clip3)">
   <path style="fill:rgb(0%,0%,0%)" d="M 3 25.5 L 3 26.25 C 3 26.25 3 28.5 5.25 28.5 L 9 28.5 L 12 31.5 L 24 31.5 L 27 28.5 L 30.75 28.5 C 30.75 28.5 33 28.5 33 26.25 L 33 25.5 C 33 27.75 30.75 27.75 30.75 27.75 L 27 27.75 L 24 30.75 L 12 30.75 L 9 27.75 L 5.25 27.75 C 3 27.75 3 25.5 3 25.5 Z M 3 25.5"/>
  </g>
 </defs>
 <g>
  <path style="fill:rgb(89.411765%,89.411765%,89.411765%)" d="M 5.25 5.25 C 5.25 5.25 3 5.25 3 7.5 L 3 25.5 C 3 25.5 3 27.75 5.25 27.75 L 9 27.75 L 12 30.75 L 24 30.75 L 27 27.75 L 30.75 27.75 C 30.75 27.75 33 27.75 33 25.5 L 33 7.5 C 33 5.25 30.75 5.25 30.75 5.25 Z M 5.25 5.25"/>
  <use mask="url(#mask0)" xlink:href="#surface5"/>
  <path style="fill:rgb(36.470588%,36.470588%,36.470588%)" d="M 7.5 9.75 L 28.5 9.75 L 28.5 23.25 L 25.136719 23.25 L 22.136719 26.25 L 13.863281 26.25 L 10.863281 23.25 L 7.5 23.25 Z M 7.5 9.75"/>
  <use mask="url(#mask1)" xlink:href="#surface8"/>
  <use mask="url(#mask2)" xlink:href="#surface11"/>
 </g>
</svg>
