<svg xmlns="http://www.w3.org/2000/svg" xmlns:xlink="http://www.w3.org/1999/xlink" width="36pt" height="36pt" version="1.1" viewBox="0 0 36 36"> <defs> <filter id="alpha" width="100%" height="100%" x="0%" y="0%" filterUnits="objectBoundingBox"> <feColorMatrix in="SourceGraphic" type="matrix" values="0 0 0 0 1 0 0 0 0 1 0 0 0 0 1 0 0 0 1 0"/> </filter> <mask id="mask0"> <g filter="url(#alpha)"> <rect style="fill:rgb(0%,0%,0%);fill-opacity:0.2" width="36" height="36" x="0" y="0"/> </g> </mask> <clipPath id="clip1"> <rect width="36" height="36" x="0" y="0"/> </clipPath> <g id="surface5" clip-path="url(#clip1)"> <path d="M 17 19 L 31 32 L 24 39 L 24 12 L 31 19 L 17 32" transform="matrix(0.75,0,0,0.75,0,0)" style="fill:none;stroke-width:2;stroke-linecap:square;stroke:rgb(0%,0%,0%)"/> </g> <mask id="mask1"> <g filter="url(#alpha)"> <rect style="fill:rgb(0%,0%,0%);fill-opacity:0.101961" width="36" height="36" x="0" y="0"/> </g> </mask> <clipPath id="clip2"> <rect width="36" height="36" x="0" y="0"/> </clipPath> <g id="surface8" clip-path="url(#clip2)"> <path d="M 18 3 C 12.183594 3 7.5 7.683594 7.5 13.5 L 7.5 14.25 C 7.5 8.433594 12.183594 3.75 18 3.75 C 23.816406 3.75 28.5 8.433594 28.5 14.25 L 28.5 13.5 C 28.5 7.683594 23.816406 3 18 3 Z M 18 3" style="fill:rgb(100.000%,100.000%,100.000%)"/> </g> <mask id="mask2"> <g filter="url(#alpha)"> <rect style="fill:rgb(0%,0%,0%);fill-opacity:0.2" width="36" height="36" x="0" y="0"/> </g> </mask> <clipPath id="clip3"> <rect width="36" height="36" x="0" y="0"/> </clipPath> <g id="surface11" clip-path="url(#clip3)"> <path d="M 7.5 22.5 L 7.5 23.25 C 7.5 29.066406 12.183594 33.75 18 33.75 C 23.816406 33.75 28.5 29.066406 28.5 23.25 L 28.5 22.5 C 28.5 28.316406 23.816406 33 18 33 C 12.183594 33 7.5 28.316406 7.5 22.5 Z M 7.5 22.5" style="fill:rgb(0%,0%,0%)"/> </g> </defs> <g> <path d="M 28.5 22.5 L 28.5 13.5 C 28.5 7.699219 23.800781 3 18 3 C 12.199219 3 7.5 7.699219 7.5 13.5 L 7.5 22.5 C 7.5 28.300781 12.199219 33 18 33 C 23.800781 33 28.5 28.300781 28.5 22.5 Z M 28.5 22.5" style="fill:rgb(29.019%,68.235%,90.196%)"/> <use mask="url(#mask0)" xlink:href="#surface5"/> <path d="M 17 18 L 31 31 L 24 38 L 24 11 L 31 18 L 17 31" transform="matrix(0.75,0,0,0.75,0,0)" style="fill:none;stroke-width:2;stroke-linecap:square;stroke:rgb(100.000%,100.000%,100.000%)"/> <use mask="url(#mask1)" xlink:href="#surface8"/> <use mask="url(#mask2)" xlink:href="#surface11"/> </g> </svg>
