<svg xmlns="http://www.w3.org/2000/svg" xmlns:xlink="http://www.w3.org/1999/xlink" width="36pt" height="36pt" version="1.1" viewBox="0 0 36 36">
 <defs>
  <filter id="alpha" width="100%" height="100%" x="0%" y="0%" filterUnits="objectBoundingBox">
   <feColorMatrix in="SourceGraphic" type="matrix" values="0 0 0 0 1 0 0 0 0 1 0 0 0 0 1 0 0 0 1 0"/>
  </filter>
  <mask id="mask0">
   <g filter="url(#alpha)">
    <rect width="36" height="36" x="0" y="0" style="fill:rgb(0%,0%,0%);fill-opacity:0.501961"/>
   </g>
  </mask>
  <clipPath id="clip1">
   <rect width="36" height="36" x="0" y="0"/>
  </clipPath>
  <g id="surface5" clip-path="url(#clip1)">
   <path style="fill:rgb(0%,0%,0%)" d="M 30.375 24.75 L 30.375 9 L 5.625 9 L 5.625 24.75 Z M 30.375 24.75"/>
  </g>
  <mask id="mask1">
   <g filter="url(#alpha)">
    <rect width="36" height="36" x="0" y="0" style="fill:rgb(0%,0%,0%);fill-opacity:0.2"/>
   </g>
  </mask>
  <clipPath id="clip2">
   <rect width="36" height="36" x="0" y="0"/>
  </clipPath>
  <g id="surface8" clip-path="url(#clip2)">
   <path style="fill:rgb(100%,100%,100%)" d="M 4.839844 6.75 C 4.027344 6.75 3.375 7.378906 3.375 8.15625 L 3.375 9.28125 C 3.375 8.503906 4.027344 7.875 4.839844 7.875 L 31.160156 7.875 C 31.972656 7.875 32.625 8.503906 32.625 9.28125 L 32.625 8.15625 C 32.625 7.378906 31.972656 6.75 31.160156 6.75 Z M 4.839844 6.75"/>
  </g>
  <mask id="mask2">
   <g filter="url(#alpha)">
    <rect width="36" height="36" x="0" y="0" style="fill:rgb(0%,0%,0%);fill-opacity:0.2"/>
   </g>
  </mask>
  <clipPath id="clip3">
   <rect width="36" height="36" x="0" y="0"/>
  </clipPath>
  <g id="surface11" clip-path="url(#clip3)">
   <path style="fill:rgb(0%,0%,0%)" d="M 3.375 25.59375 L 3.375 26.71875 C 3.375 27.496094 4.027344 28.125 4.839844 28.125 L 31.160156 28.125 C 31.972656 28.125 32.625 27.496094 32.625 26.71875 L 32.625 25.59375 C 32.625 26.371094 31.972656 27 31.160156 27 L 4.839844 27 C 4.027344 27 3.375 26.371094 3.375 25.59375 Z M 3.375 25.59375"/>
  </g>
  <mask id="mask3">
   <g filter="url(#alpha)">
    <rect width="36" height="36" x="0" y="0" style="fill:rgb(0%,0%,0%);fill-opacity:0.2"/>
   </g>
  </mask>
  <clipPath id="clip4">
   <rect width="36" height="36" x="0" y="0"/>
  </clipPath>
  <g id="surface14" clip-path="url(#clip4)">
   <path style="fill:rgb(0%,0%,0%)" d="M 1.125 29.25 L 1.125 30.375 C 1.125 31 1.625 31.5 2.25 31.5 L 33.75 31.5 C 34.375 31.5 34.875 31 34.875 30.375 L 34.875 29.25 C 34.875 29.875 34.375 30.375 33.75 30.375 L 2.25 30.375 C 1.625 30.375 1.125 29.875 1.125 29.25 Z M 1.125 29.25"/>
  </g>
  <mask id="mask4">
   <g filter="url(#alpha)">
    <rect width="36" height="36" x="0" y="0" style="fill:rgb(0%,0%,0%);fill-opacity:0.2"/>
   </g>
  </mask>
  <clipPath id="clip5">
   <rect width="36" height="36" x="0" y="0"/>
  </clipPath>
  <g id="surface17" clip-path="url(#clip5)">
   <path style="fill:rgb(0%,0%,0%)" d="M 14.964844 10.464844 C 14.929688 10.457031 14.898438 10.460938 14.867188 10.480469 C 14.8125 10.519531 14.800781 10.601562 14.84375 10.660156 L 15.570312 11.699219 C 14.417969 12.226562 13.601562 13.457031 13.5 14.625 L 21.375 14.625 C 21.273438 13.457031 20.460938 12.222656 19.308594 11.699219 L 20.035156 10.660156 C 20.078125 10.601562 20.066406 10.519531 20.011719 10.480469 C 19.953125 10.441406 19.871094 10.460938 19.828125 10.523438 L 19.074219 11.597656 C 18.574219 11.40625 18.023438 11.296875 17.441406 11.296875 C 16.859375 11.296875 16.304688 11.40625 15.804688 11.597656 L 15.050781 10.523438 C 15.027344 10.492188 14.996094 10.472656 14.964844 10.464844 Z M 15.777344 12.703125 C 16.019531 12.703125 16.214844 12.894531 16.214844 13.128906 C 16.214844 13.363281 16.019531 13.558594 15.777344 13.558594 C 15.535156 13.558594 15.339844 13.367188 15.339844 13.128906 C 15.339844 12.894531 15.539062 12.703125 15.777344 12.703125 Z M 19.152344 12.703125 C 19.394531 12.703125 19.589844 12.894531 19.589844 13.128906 C 19.589844 13.363281 19.394531 13.558594 19.152344 13.558594 C 18.910156 13.558594 18.714844 13.367188 18.714844 13.128906 C 18.714844 12.894531 18.914062 12.703125 19.152344 12.703125 Z M 13.503906 15.75 L 13.503906 21.148438 C 13.503906 21.535156 13.683594 21.9375 14.066406 21.9375 L 15.75 21.9375 L 15.75 23.835938 C 15.75 24.339844 15.75 24.75 16.3125 24.75 C 16.875 24.75 16.878906 24.339844 16.878906 23.835938 L 16.878906 21.9375 L 18.003906 21.9375 L 18.003906 23.835938 C 18.003906 24.339844 17.957031 24.75 18.5625 24.75 C 19.125 24.75 19.125 24.46875 19.125 23.835938 L 19.125 21.9375 L 20.816406 21.9375 C 21.195312 21.9375 21.378906 21.53125 21.378906 21.148438 L 21.378906 15.75 Z M 11.839844 15.753906 C 11.25 15.75 11.25 16.175781 11.25 16.703125 L 11.25 19.296875 C 11.25 19.824219 11.25 20.253906 11.839844 20.253906 C 12.375 20.25 12.375 19.824219 12.375 19.296875 L 12.375 16.703125 C 12.375 16.175781 12.375 15.75 11.839844 15.753906 Z M 23.039062 15.753906 C 22.5 15.75 22.5 16.175781 22.5 16.703125 L 22.5 19.296875 C 22.5 19.824219 22.5 20.253906 23.039062 20.253906 C 23.625 20.25 23.625 19.824219 23.625 19.296875 L 23.625 16.703125 C 23.625 16.175781 23.625 15.75 23.039062 15.753906 Z M 23.039062 15.753906"/>
  </g>
 </defs>
 <g>
  <path style="fill:rgb(55.686275%,55.686275%,55.686275%)" d="M 34.875 29.25 L 34.875 28.125 C 34.875 27.503906 34.371094 27 33.75 27 L 2.25 27 C 1.628906 27 1.125 27.503906 1.125 28.125 L 1.125 29.25 C 1.125 29.871094 1.628906 30.375 2.25 30.375 L 33.75 30.375 C 34.371094 30.375 34.875 29.871094 34.875 29.25 Z M 34.875 29.25"/>
  <path style="fill:rgb(55.686275%,55.686275%,55.686275%)" d="M 32.625 25.59375 L 32.625 8.15625 C 32.625 7.378906 31.972656 6.75 31.164062 6.75 L 4.835938 6.75 C 4.027344 6.75 3.375 7.378906 3.375 8.15625 L 3.375 25.59375 C 3.375 26.371094 4.027344 27 4.835938 27 L 31.164062 27 C 31.972656 27 32.625 26.371094 32.625 25.59375 Z M 32.625 25.59375"/>
  <use mask="url(#mask0)" xlink:href="#surface5"/>
  <use mask="url(#mask1)" xlink:href="#surface8"/>
  <use mask="url(#mask2)" xlink:href="#surface11"/>
  <use mask="url(#mask3)" xlink:href="#surface14"/>
  <use mask="url(#mask4)" xlink:href="#surface17"/>
  <path style="fill:rgb(64.313725%,79.215686%,22.352941%)" d="M 14.964844 9.339844 C 14.929688 9.332031 14.898438 9.335938 14.867188 9.355469 C 14.8125 9.394531 14.800781 9.476562 14.84375 9.535156 L 15.570312 10.574219 C 14.417969 11.101562 13.601562 12.332031 13.5 13.5 L 21.375 13.5 C 21.273438 12.332031 20.460938 11.097656 19.308594 10.574219 L 20.035156 9.535156 C 20.078125 9.476562 20.066406 9.394531 20.011719 9.355469 C 19.953125 9.316406 19.871094 9.335938 19.828125 9.398438 L 19.074219 10.472656 C 18.574219 10.28125 18.023438 10.171875 17.441406 10.171875 C 16.859375 10.171875 16.304688 10.28125 15.804688 10.472656 L 15.050781 9.398438 C 15.027344 9.367188 14.996094 9.347656 14.964844 9.339844 Z M 15.777344 11.578125 C 16.019531 11.578125 16.214844 11.769531 16.214844 12.003906 C 16.214844 12.238281 16.019531 12.433594 15.777344 12.433594 C 15.535156 12.433594 15.339844 12.242188 15.339844 12.003906 C 15.339844 11.769531 15.539062 11.578125 15.777344 11.578125 Z M 19.152344 11.578125 C 19.394531 11.578125 19.589844 11.769531 19.589844 12.003906 C 19.589844 12.238281 19.394531 12.433594 19.152344 12.433594 C 18.910156 12.433594 18.714844 12.242188 18.714844 12.003906 C 18.714844 11.769531 18.914062 11.578125 19.152344 11.578125 Z M 13.503906 14.625 L 13.503906 20.019531 C 13.503906 20.410156 13.683594 20.8125 14.066406 20.8125 L 15.75 20.8125 L 15.75 22.710938 C 15.75 23.214844 15.75 23.625 16.3125 23.625 C 16.875 23.625 16.878906 23.214844 16.878906 22.710938 L 16.878906 20.8125 L 18.003906 20.8125 L 18.003906 22.710938 C 18.003906 23.214844 17.957031 23.625 18.5625 23.625 C 19.125 23.625 19.125 23.34375 19.125 22.710938 L 19.125 20.8125 L 20.816406 20.8125 C 21.195312 20.8125 21.378906 20.40625 21.378906 20.019531 L 21.378906 14.625 Z M 11.839844 14.628906 C 11.25 14.625 11.25 15.050781 11.25 15.578125 L 11.25 18.171875 C 11.25 18.699219 11.25 19.128906 11.839844 19.128906 C 12.375 19.125 12.375 18.699219 12.375 18.171875 L 12.375 15.578125 C 12.375 15.050781 12.375 14.625 11.839844 14.628906 Z M 23.039062 14.628906 C 22.5 14.625 22.5 15.050781 22.5 15.578125 L 22.5 18.171875 C 22.5 18.699219 22.5 19.128906 23.039062 19.128906 C 23.625 19.125 23.625 18.699219 23.625 18.171875 L 23.625 15.578125 C 23.625 15.050781 23.625 14.625 23.039062 14.628906 Z M 23.039062 14.628906"/>
 </g>
</svg>
