<svg width="512" height="512" version="1.1" viewBox="0 0 384 384" xmlns="http://www.w3.org/2000/svg"><defs><clipPath><rect width="384" height="384"/></clipPath><clipPath id="a"><rect x="6" y="6" width="84" height="84" rx="6" ry="6" fill="#fff"/></clipPath><filter id="b" x="-.192" y="-.192" width="1.384" height="1.384" color-interpolation-filters="sRGB"><feGaussianBlur stdDeviation="5.28"/></filter></defs><g transform="translate(-136.15 85.653)"><path d="m189.52-50.582c-14.145 0-25.796 11.49-25.796 25.448v269.32c0 13.958 11.65 25.454 25.796 25.454h277.27c14.147 0 25.793-11.496 25.793-25.454v-269.32c0-13.956-11.647-25.448-25.793-25.448zm0 16.645h277.27c5.0301 0 8.9214 3.8397 8.9214 8.8022v269.32c0 4.9631-3.8942 8.8092-8.9214 8.8092h-277.27c-5.0275 0-8.9284-3.8493-8.9284-8.8092v-269.32c0-4.9604 3.8987-8.8022 8.9284-8.8022z" color="#000000000" color-rendering="auto" dominant-baseline="auto" fill="#fff" image-rendering="auto" opacity=".2" shape-rendering="auto" solid-color="#000000000" stroke="#000" stroke-linejoin="round" stroke-width="8.6413" style="font-feature-settings:normal;font-variant-alternates:normal;font-variant-caps:normal;font-variant-ligatures:normal;font-variant-numeric:normal;font-variant-position:normal;isolation:auto;mix-blend-mode:normal;shape-padding:0;text-decoration-line:none;text-decoration-style:solid;text-indent:0;text-orientation:mixed;text-transform:none;white-space:normal"/><path d="m189.56-41.216c-14.141 0-25.789 11.621-25.789 25.737v272.34c0 14.116 11.646 25.738 25.789 25.738h277.17c14.144 0 25.788-11.625 25.788-25.738v-272.34c0-14.113-11.646-25.737-25.788-25.737z" opacity=".3" stroke-width="1.1584"/><path d="m189.56-41.477h277.17c9.585 0 17.353 7.7531 17.353 17.319v272.34c0 9.5661-7.7684 17.323-17.353 17.323h-277.17c-9.585 0-17.358-7.7576-17.358-17.323v-272.34c0-9.5661 7.773-17.319 17.358-17.319z" fill="#191919" stroke="#fff" stroke-linejoin="round" stroke-width="16.849"/><path d="m199.53-20.788c-4.6791 0-8.291 3.6131-8.291 8.2559v252.75c0 4.6425 3.6139 8.2573 8.291 8.2573h257.24c4.677 0 8.2881-3.612 8.2881-8.2573v-252.75c-1e-5 -4.6451-3.6086-8.2559-8.2881-8.2559z" fill="#272a34" stroke-width=".92221"/><path d="m256.72-20.788v47.06h-65.484v5.7334h65.484v28.663h-65.484v5.7334h65.484v40.129h-65.484v5.7319h65.484v34.397h-65.484v5.7334h65.484v28.663h-65.484v5.7334h65.484v61.69h5.1021v-61.69h25.507v61.69h5.1021v-61.69h35.71v61.69h5.1035v-61.69h30.608v61.69h5.1006v-61.69h25.509v61.69h5.1006v-61.69h65.493v-5.7334h-65.493v-28.663h65.493v-5.7334h-65.493v-34.397h65.493v-5.7319h-65.493v-40.129h65.493v-5.7334h-65.493v-28.663h65.493v-5.7334h-65.493v-47.06h-5.1006v47.06h-25.509v-47.06h-5.1006v47.06h-30.608v-47.06h-5.1035v47.06h-35.71v-47.06h-5.1021v47.06h-25.507v-47.06zm5.1021 52.793h25.507v28.663h-25.507zm30.609 0h35.71v28.663h-35.71zm40.813 0h30.608v28.663h-30.608zm35.708 0h25.507v28.663h-25.507zm-107.13 34.396h25.507v40.129h-25.507zm30.608 0h35.711v40.129h-35.711zm40.813 0h30.608v40.129h-30.608zm35.71 0h25.507v40.129h-25.507zm-107.13 45.861h25.507v34.397h-25.507zm30.608 0h35.711v34.397h-35.711zm40.813 0h30.609v34.397h-30.609zm35.711 0h25.506v34.397h-25.506zm-107.13 40.131h25.507v28.663h-25.507zm30.609 0h35.71v28.663h-35.71zm40.813 0h30.608v28.663h-30.608zm35.71 0h25.506v28.663h-25.506z" fill="#333643" stroke-width=".88982"/><rect transform="matrix(3.172 0 0 3.1685 175.89 -42.739)" x="15" y="15" width="66" height="66" rx="12" ry="12" clip-path="url(#a)" fill="#367bf0" filter="url(#b)" opacity=".1" stroke="#fff" stroke-linecap="round" stroke-width=".5"/><path d="m425.07 47.859-35.71 22.932-30.609-5.7334-25.506 22.931-25.507-5.7334-15.306 5.7334-10.203 5.7334h-15.303l-5.1021 5.7334-25.51-5.7334-10.2 5.7334-10.204 5.7334-5.102-5.7334-19.572 51.322v89.445c0 2.9556 1.4684 5.4895 3.7398 6.9448h266.35c2.2689-1.455 3.7354-3.9885 3.7354-6.9448v-186.62h-19.575z" fill-rule="evenodd" opacity=".3" stroke-width=".88982"/><path d="m425.07 54.933-35.711 22.934-30.609-5.7334-25.506 22.931-25.507-5.7349-15.306 5.7349-10.203 5.7319h-15.303l-5.1021 5.7334-25.509-5.7334-10.201 5.7334-10.204 5.7334-5.102-5.7334-19.572 51.324v82.37c0 4.6425 3.6139 8.2573 8.291 8.2573h257.24c4.677 0 8.2881-3.612 8.2881-8.2573v-179.55h-19.576z" fill="#f8de66" fill-rule="evenodd" stroke-width=".88982"/><path d="m374.06 99.672-20.407 5.7305-15.303 17.199h-35.71l-15.306 5.7334h-10.203l-20.405 34.396-5.1021-5.7334-20.405 45.863-25.51-11.465-14.473 12.201v33.661h273.82v-137.58z" fill-rule="evenodd" opacity=".1" stroke-width=".88982"/><path d="m465.06 106.75-90.996 1e-3 -20.407 5.729-15.302 17.199h-35.711l-15.306 5.7348h-10.203l-20.405 34.395-5.1021-5.7319-20.405 45.863-25.51-11.468-14.473 12.202v29.553c0 1.5082 0.38661 2.9047 1.062 4.1074h271.7c0.67477-1.2027 1.0606-2.5984 1.0606-4.1074z" fill="#17a185" fill-rule="evenodd" stroke-width=".88982"/><path d="m405.4 100.23-33.795 27.126-14.486 16.279-19.311 5.4258-19.314-5.4258h-19.311l-33.797 48.829-9.6562-5.4258-19.311 27.127h-9.6577l-4.8281 5.4258-9.6562-5.4258-14.483 12.208v13.648h260.72v-134.37h-4.8296l-9.6533 5.4258-19.314 5.4258z" fill-rule="evenodd" opacity=".1" stroke-width=".84212"/><path d="m409.77 106.53-35.71 28.663-15.306 17.2-20.405 5.7319-20.408-5.7319h-20.404l-35.71 51.595-10.204-5.7319-20.405 28.663h-10.204l-5.102 5.7319-10.203-5.7319-14.471 12.198v1.106c0 4.6425 3.6139 8.2573 8.291 8.2573h257.24c4.677 0 8.2881-3.612 8.2881-8.2573v-127.96h-4.2715l-10.201 5.7334-20.407 5.7334z" fill="#4cc7cc" fill-rule="evenodd" stroke-width=".88982"/><path d="m208.05-32.908c-13.623 0-24.848 11.213-24.848 24.821v239.93c0 13.608 11.226 24.821 24.848 24.821h240.2c13.623 0 24.848-11.213 24.848-24.821v-239.93c0-13.607-11.226-24.821-24.848-24.821zm0 16.547h240.2c4.7319 0 8.2828 3.5469 8.2828 8.2735v239.93c0 4.7267-3.5509 8.2735-8.2828 8.2735h-240.2c-4.7319 0-8.2828-3.5469-8.2828-8.2735v-239.93c0-4.7267 3.5509-8.2735 8.2828-8.2735z" color="#000000000" opacity=".15" stroke-width="4.1391" style="text-decoration-line:none;text-indent:0;text-transform:none"/><path d="m199.77-28.772c-6.883 0-12.424 5.535-12.424 12.41v256.48c0 6.8753 5.5412 12.41 12.424 12.41h256.77c6.883 0 12.424-5.535 12.424-12.41v-256.48c0-6.8753-5.5411-12.41-12.424-12.41zm0 8.015h256.77c2.56 0 4.4002 1.8381 4.4002 4.3953v256.48c0 2.5572-1.8402 4.3953-4.4002 4.3953h-256.77c-2.56 0-4.4002-1.8381-4.4002-4.3953v-256.48c0-2.5572 1.8402-4.3953 4.4002-4.3953z" color="#000000000" opacity=".3" stroke-width="4.1391"/><path d="m199.77-28.772c-6.883 0-12.424 5.535-12.424 12.41v256.48c0 6.8753 5.5412 12.41 12.424 12.41h256.77c6.883 0 12.424-5.535 12.424-12.41v-256.48c0-6.8753-5.5411-12.41-12.424-12.41zm0 4.0075h256.77c4.7216 0 8.412 3.6866 8.412 8.4026v256.48c0 4.7163-3.6907 8.4026-8.412 8.4026h-256.77c-4.7216 0-8.412-3.6865-8.412-8.4026v-256.48c0-4.7163 3.6907-8.4026 8.412-8.4026z" color="#000000000" opacity=".6" stroke-width="4.1391"/></g><g transform="matrix(.49992 0 0 .49992 198.01 210.55)"><g fill-rule="evenodd"><path d="m37.949 51.509c-12.198 0-22.246 9.9277-22.246 21.989v232.71c0 12.061 10.046 21.994 22.246 21.994h308.11c12.2 0 22.243-9.9338 22.243-21.994v-232.71c0-12.059-10.044-21.989-22.243-21.989zm0 14.383h308.11c4.3378 0 7.6936 3.3178 7.6936 7.6061v232.71c0 4.2884-3.3582 7.6119-7.6936 7.6119h-308.11c-4.3355 0-7.6994-3.3261-7.6994-7.6119v-232.71c0-4.2862 3.3621-7.6061 7.6994-7.6061z" color="#000000" color-rendering="auto" dominant-baseline="auto" fill="#fff" image-rendering="auto" opacity=".2" shape-rendering="auto" solid-color="#000000" stroke="#000" stroke-linejoin="round" stroke-width="7.4593" style="font-feature-settings:normal;font-variant-alternates:normal;font-variant-caps:normal;font-variant-ligatures:normal;font-variant-numeric:normal;font-variant-position:normal;isolation:auto;mix-blend-mode:normal;shape-padding:0;text-decoration-color:#000000;text-decoration-line:none;text-decoration-style:solid;text-indent:0;text-orientation:mixed;text-transform:none;white-space:normal"/><path d="m37.994 67.155c-12.195 0-22.24 10.041-22.24 22.238v235.32c0 12.197 10.043 22.24 22.24 22.24h308.02c12.197 0 22.238-10.045 22.238-22.24v-235.32c0-12.195-10.043-22.238-22.238-22.238z" opacity=".3"/><path transform="matrix(.75 0 0 .75 0 336)" d="m50.656-368.83h410.7c11.021 0 19.953 8.9323 19.953 19.953v313.76c0 11.021-8.9323 19.958-19.953 19.958h-410.7c-11.021 0-19.958-8.9375-19.958-19.958v-313.76c0-11.021 8.9375-19.953 19.958-19.953z" fill="#171717" stroke="#fff" stroke-linejoin="round" stroke-width="19.392"/></g><path d="m145.32 174.07v5.4141h-40.297v-5.4141z" fill="#fff"/><path d="m77.359 102.62v9.043c-4.418 0.5-7.875 1.8086-10.355 3.9453-2.75 2.375-4.1289 5.6211-4.1289 9.7344 0 3.7891 1.2656 6.7695 3.7891 8.9414 2.3125 1.9688 5.8906 3.4141 10.695 4.3438v17.48c-2.2773-0.13672-4.5039-0.52344-6.6797-1.1836-2.625-0.83593-5.2266-2.0586-7.8047-3.6758v6.8203c2.6797 1.1367 5.3438 1.9922 7.9922 2.5742 2.1641 0.45313 4.3281 0.73047 6.4922 0.84766v11.461h6.7891v-11.621c4.668-0.51953 8.3047-1.8789 10.887-4.0938 2.8789-2.4766 4.3164-5.8476 4.3164-10.113 0-3.9414-1.3516-7.0469-4.0508-9.3203-2.4609-2.0664-6.1875-3.5508-11.152-4.4688v-16.332c1.7969 0.16016 3.5586 0.46094 5.2812 0.91797 2.2188 0.58203 4.3789 1.3984 6.4727 2.4609v-6.6289c-2.0938-0.68359-4.2383-1.2109-6.4375-1.5898-1.7227-0.31641-3.4961-0.53907-5.3164-0.66797v-8.875zm0 14.469v15.004c-2.3906-0.53906-4.1914-1.3086-5.3906-2.3164-1.4141-1.2148-2.1211-2.9062-2.1211-5.0781 0-2.2188 0.76953-4 2.3086-5.3398 1.2656-1.0977 3.0039-1.8516 5.2031-2.2695zm6.7891 22.887c2.5938 0.60156 4.5469 1.457 5.8477 2.5625 1.5664 1.3125 2.3477 3.082 2.3477 5.3047 0 2.2695-0.82031 4.1016-2.4609 5.4922-1.3516 1.1602-3.2695 1.9805-5.7344 2.4727z" fill="#fff"/></g></svg>
