<svg width="512" height="512" version="1.1" viewBox="0 0 384 384" xmlns="http://www.w3.org/2000/svg" xmlns:xlink="http://www.w3.org/1999/xlink"><defs><filter id="a" x="0" y="0" width="1" height="1"><feColorMatrix in="SourceGraphic" values="0 0 0 0 1 0 0 0 0 1 0 0 0 0 1 0 0 0 1 0"/></filter><clipPath><rect width="384" height="384"/></clipPath><mask id="u"><g filter="url(#a)"><rect width="384" height="384" fill-opacity=".2"/></g></mask><clipPath id="ac"><rect width="384" height="384"/></clipPath><g id="b" clip-path="url(#ac)"><path d="m228 96v-48l60 24z"/></g><mask id="s"><g filter="url(#a)"><rect width="384" height="384" fill-opacity=".2"/></g></mask><clipPath id="ab"><rect width="384" height="384"/></clipPath><g id="k" clip-path="url(#ab)"><path d="m228 96v180s-72-41.129-72-90 72-90 72-90z"/></g><mask id="r"><g filter="url(#a)"><rect width="384" height="384" fill-opacity=".2"/></g></mask><clipPath id="aa"><rect width="384" height="384"/></clipPath><g id="j" clip-path="url(#aa)"><path d="m120 156v120s-48-27.422-48-60 48-60 48-60z"/></g><mask id="q"><g filter="url(#a)"><rect width="384" height="384" fill-opacity=".4"/></g></mask><clipPath id="z"><rect width="384" height="384"/></clipPath><g id="i" clip-path="url(#z)"><path d="m270 254s0-8 9-8 9 8 9 8v16h-18z"/></g><mask id="p"><g filter="url(#a)"><rect width="384" height="384" fill-opacity=".4"/></g></mask><clipPath id="y"><rect width="384" height="384"/></clipPath><g id="h" clip-path="url(#y)"><path d="m300 254s0-8 9-8 9 8 9 8v16h-18z"/></g><mask id="o"><g filter="url(#a)"><rect width="384" height="384" fill-opacity=".4"/></g></mask><clipPath id="x"><rect width="384" height="384"/></clipPath><g id="g" clip-path="url(#x)"><path d="m330 254s0-8 9-8 9 8 9 8v16h-18z"/></g><mask id="n"><g filter="url(#a)"><rect width="384" height="384" fill-opacity=".10196"/></g></mask><clipPath id="w"><rect width="384" height="384"/></clipPath><g id="f" clip-path="url(#w)"><path d="m271.2 234c-16.801 0-16.793 15.855-16.793 36h-230.4s1.668 2.3164 5.0742 6h225.33c0-20.145-0.007813-36 16.793-36h72c15.359 0 16.598 9.332 16.711 27.516 0.011719-0.35938 0.09375-0.76172 0.09375-1.1133 0-21.801-0.003906-32.402-16.805-32.402z" fill="#fff"/></g><mask id="m"><g filter="url(#a)"><rect width="384" height="384" fill-opacity=".10196"/></g></mask><clipPath id="v"><rect width="384" height="384"/></clipPath><g id="e" clip-path="url(#v)"><path d="m228 90s-72 41.129-72 90c0 1.0039 0.082031 2 0.14062 3 2.8398-47.539 71.859-87 71.859-87z" fill="#fff"/></g><mask id="l"><g filter="url(#a)"><rect width="384" height="384" fill-opacity=".10196"/></g></mask><clipPath id="ae"><rect width="384" height="384"/></clipPath><g id="d" clip-path="url(#ae)"><path d="m228 42v6l52.5 21 7.5-3z" fill="#fff"/></g><mask id="t"><g filter="url(#a)"><rect width="384" height="384" fill-opacity=".10196"/></g></mask><clipPath id="ad"><rect width="384" height="384"/></clipPath><g id="c" clip-path="url(#ad)"><path d="m120 150s-48 27.422-48 60c0 1.0117 0.17969 2 0.26953 3 2.7969-31.238 47.73-57 47.73-57z" fill="#fff"/></g></defs><path d="m229.77 84.991v188.84s-100.43-43.149-100.43-94.42c0-51.271 100.43-94.42 100.43-94.42z" fill="#fff" opacity=".2" stroke="#000" stroke-width="7.5"/><use transform="matrix(1.6291 0 0 1.0491 -52.102 -9.4286)" width="100%" height="100%" mask="url(#r)" stroke-width=".76491" xlink:href="#j"/><path d="m143.39 147.94v125.89s-78.198-28.768-78.198-62.946c0-34.178 78.198-62.946 78.198-62.946z" fill="#ccc"/><use transform="matrix(1.6291 0 0 1.0491 -52.102 -9.4286)" width="100%" height="100%" mask="url(#t)" stroke-width=".76491" xlink:href="#c"/><use transform="matrix(1.0491 0 0 1.0491 -9.4286 -9.4286)" width="100%" height="100%" mask="url(#u)" stroke-width=".95319" xlink:href="#b"/><path d="m257.46 273.83h-241.71s52.873 75.536 211.5 75.536c105.75 0 141-52.873 141-79.314 0-22.871 0-33.989-17.626-33.989h-75.536c-17.626 0-17.626 16.634-17.626 37.768z" fill="#815631" stroke-width=".95319"/><use transform="matrix(1.3949 0 0 1.0491 -88.272 -9.4286)" width="100%" height="100%" mask="url(#s)" stroke-width=".82664" xlink:href="#k"/><path d="m229.77 84.991v188.84s-100.43-43.149-100.43-94.42c0-51.271 100.43-94.42 100.43-94.42z" fill="#fff"/><path d="m229.77 84.991v-50.357l62.946 25.179z" fill="#b8174a" stroke-width=".95319"/><use transform="matrix(1.0491 0 0 1.0491 -9.4286 -9.4286)" width="100%" height="100%" mask="url(#q)" stroke-width=".95319" xlink:href="#i"/><use transform="matrix(1.0491 0 0 1.0491 -9.4286 -9.4286)" width="100%" height="100%" mask="url(#p)" stroke-width=".95319" xlink:href="#h"/><use transform="matrix(1.0491 0 0 1.0491 -9.4286 -9.4286)" width="100%" height="100%" mask="url(#o)" stroke-width=".95319" xlink:href="#g"/><use transform="matrix(1.0491 0 0 1.0491 -9.4286 -9.4286)" width="100%" height="100%" mask="url(#n)" stroke-width=".95319" xlink:href="#f"/><use transform="matrix(1.3949 0 0 1.0491 -88.272 -9.4286)" width="100%" height="100%" mask="url(#m)" stroke-width=".82664" xlink:href="#e"/><use transform="matrix(1.0491 0 0 1.0491 -9.4286 -9.4286)" width="100%" height="100%" mask="url(#l)" stroke-width=".95319" xlink:href="#d"/><path transform="scale(.75)" d="m490.96 351.04c-0.83338 35.554-48.219 104.78-187.96 104.78-170.4 0-249.18-65.306-273.4-90.715h-8.6035s70.498 100.71 282 100.71c141 0 188-70.5 188-105.75 0-3.2164-0.01149-6.1606-0.03906-9.0293z" fill="#b48964" stroke-width="1.2709"/></svg>
