<svg width="512" height="512" version="1.1" viewBox="0 0 384 384" xmlns="http://www.w3.org/2000/svg"><g transform="translate(.00039003 -.0031224)"><rect transform="rotate(45)" x="279.92" y="-124.6" width="116.22" height="116.22" rx="18.071" ry="18.071" fill="#0ba05c" fill-opacity=".99608" stroke-width="1.1103"/><rect transform="rotate(45)" x="146.93" y="-124.6" width="116.22" height="116.22" rx="18.071" ry="18.071" fill="#fd3535" stroke-width="1.1103"/><rect transform="rotate(45)" x="279.92" y="8.3931" width="116.22" height="116.22" rx="18.071" ry="18.071" fill="#ffc62f" stroke-width="1.1103"/><rect transform="rotate(45)" x="146.93" y="8.3931" width="116.22" height="116.22" rx="18.071" ry="18.071" fill="#357aef" stroke-width="1.1103"/><path transform="scale(.75)" d="m256 281.77c-6.1592 0-12.32 2.3625-17.039 7.082l-75.492 75.492c-5.9928 5.9928-8.1513 14.302-6.5312 21.988 0.942-4.3832 3.1159-8.5593 6.5352-11.979l75.492-75.492c4.7194-4.7194 10.878-7.0801 17.037-7.0801 6.1591 0 12.32 2.3606 17.039 7.0801l75.492 75.492c3.4152 3.4152 5.5874 7.5854 6.5312 11.963 1.6139-7.6829-0.5444-15.985-6.5332-21.973l-75.494-75.492c-4.7194-4.7196-10.878-7.082-17.037-7.082z" fill="#fff" fill-opacity=".99608" opacity=".3"/><path transform="scale(.75)" d="m381.38 156.38c-6.1591 0-12.318 2.3587-17.037 7.0781l-75.494 75.492c-5.9948 5.9948-8.1524 14.307-6.5293 21.996 0.94116-4.3858 3.116-8.5652 6.5371-11.986l75.492-75.492c4.7195-4.7194 10.88-7.0801 17.039-7.0801 6.1592 0 12.318 2.3606 17.037 7.0801l75.492 75.492c3.4114 3.4114 5.5838 7.5769 6.5293 11.949 1.6083-7.679-0.55191-15.974-6.5371-21.959l-75.494-75.492c-4.7196-4.7196-10.876-7.0781-17.035-7.0781z" fill="#fff" fill-opacity=".99608" opacity=".2"/><path transform="scale(.75)" d="m130.61 156.38c-6.1591 0-12.318 2.3587-17.037 7.0781l-75.492 75.492c-5.9913 5.9913-8.149 14.297-6.5312 21.982 0.94301-4.3801 3.1162-8.5537 6.5332-11.971l75.492-75.492c4.7194-4.7194 10.878-7.0801 17.037-7.0801 6.1591 0 12.32 2.3606 17.039 7.0801l75.492 75.492c3.4156 3.4155 5.5896 7.5868 6.5332 11.965 1.6153-7.6838-0.54544-15.988-6.5352-21.977l-75.494-75.492c-4.7194-4.7196-10.878-7.0781-17.037-7.0781z" fill="#fff" fill-opacity=".99608" opacity=".2"/><path transform="scale(.75)" d="m256 30.996c-6.1592 0-12.32 2.3605-17.039 7.0801l-75.492 75.492c-5.9943 5.9943-8.1536 14.304-6.5312 21.992 0.94139-4.3852 3.1165-8.5638 6.5371-11.984l75.492-75.492c4.7194-4.7194 10.88-7.0801 17.039-7.0801 6.1592 0 12.318 2.3606 17.037 7.0801l75.492 75.492c3.414 3.414 5.5869 7.5831 6.5312 11.959 1.6122-7.6817-0.54742-15.98-6.5352-21.967l-75.494-75.492c-4.7194-4.7195-10.878-7.0801-17.037-7.0801z" fill="#fff" fill-opacity=".99608" opacity=".2"/><path d="m118.18 92.396c-2.0257 6.2472-0.56362 13.36 4.4159 18.339l56.62 56.62c7.0792 7.0792 18.478 7.0792 25.557 0l56.62-56.62c4.9796-4.9796 6.4396-12.092 4.4138-18.339-0.85417 2.6341-2.3142 5.1183-4.4138 7.2179l-56.62 56.62c-7.079 7.0792-18.478 7.0792-25.557 0l-56.62-56.62c-2.0996-2.0996-3.5617-4.5838-4.4159-7.2179zm-94.042 94.044c-2.0251 6.2469-0.56329 13.36 4.4159 18.339l56.618 56.62c7.0792 7.0792 18.478 7.0792 25.557 0l56.62-56.62c4.9792-4.9792 6.4389-12.092 4.4137-18.339-0.85418 2.6341-2.3141 5.1184-4.4137 7.2179l-56.62 56.62c-7.079 7.0792-18.478 7.0792-25.557 0l-56.618-56.62c-2.0996-2.0995-3.5617-4.5838-4.4159-7.2179zm188.08 0c-2.0251 6.2469-0.56546 13.36 4.4137 18.339l56.62 56.62c7.0792 7.0792 18.476 7.0792 25.555 0l56.62-56.62c4.9792-4.9792 6.441-12.092 4.4159-18.339-0.85417 2.6341-2.3163 5.1184-4.4159 7.2179l-56.62 56.62c-7.079 7.0792-18.476 7.0792-25.555 0l-56.62-56.62c-2.0996-2.0995-3.5596-4.5838-4.4137-7.2179zm-94.044 94.044c-2.0251 6.2469-0.56547 13.358 4.4137 18.337l56.62 56.62c7.0792 7.0792 18.478 7.0792 25.557 0l56.62-56.62c4.9792-4.9791 6.441-12.09 4.4159-18.337-0.85418 2.634-2.3164 5.1162-4.4159 7.2158l-56.62 56.62c-7.079 7.0792-18.478 7.0792-25.557 0l-56.62-56.62c-2.0995-2.0994-3.5596-4.5819-4.4137-7.2158z" opacity=".2" stroke-width="1.1121"/></g><path d="m384 294c0 49.706-40.294 90-90 90s-90-40.294-90-90 40.294-90 90-90 90 40.294 90 90z" fill="#3c0707" opacity=".3" stroke-width=".97425"/><path d="m384 286.5c0 49.706-40.294 90-90 90s-90-40.294-90-90 40.294-90 90-90 90 40.294 90 90z" fill="#d41717" stroke-width=".97425"/><path d="m280.65 328.86c0-1.8662 0.2666-3.4454 0.80272-4.7373 0.53907-1.2891 1.2803-2.332 2.2383-3.1289 0.9492-0.79395 2.0742-1.3711 3.3662-1.7285 1.2891-0.35449 2.669-0.53613 4.1396-0.53613 1.3916 0 2.7158 0.18164 3.9639 0.53613 1.251 0.35742 2.3525 0.93458 3.3106 1.7285 0.9492 0.79688 1.7021 1.8398 2.2588 3.1289 0.55957 1.292 0.83498 2.8711 0.83498 4.7373 0 1.79-0.27539 3.3223-0.83498 4.5938-0.55664 1.2656-1.3096 2.3262-2.2588 3.1611-0.95798 0.82914-2.0596 1.4356-3.3106 1.8164-1.2481 0.375-2.5723 0.56543-3.9639 0.56543-1.4707 0-2.8506-0.19043-4.1396-0.56544-1.292-0.38085-2.417-0.9873-3.3662-1.8164-0.95798-0.83497-1.7021-1.8956-2.2383-3.1611-0.53027-1.2686-0.7998-2.8008-0.7998-4.5908m1.9688-20.385v-4.4062c0-2.0273 0.208-3.8672 0.62402-5.5137 0.41602-1.6523 1.0517-3.2168 1.9072-4.708 0.85253-1.4883 1.957-2.9414 3.3046-4.3506 1.3535-1.4121 2.9854-2.8711 4.8896-4.3828 1.67-1.3096 3.0791-2.4815 4.2305-3.5186 1.1543-1.0283 2.083-2.0537 2.8008-3.0704 0.71484-1.0108 1.2334-2.0713 1.5498-3.1816 0.31934-1.1162 0.48047-2.4111 0.48047-3.876 0-2.2646-0.77048-4.1396-2.2969-5.6044-1.5293-1.4707-3.8642-2.206-7.0049-2.206-2.7363 0-5.6894 0.57714-8.8508 1.7256-3.1523 1.1543-6.4277 2.5635-9.8025 4.2334l-6.0762-13.172c1.7021-0.99315 3.5625-1.9365 5.5694-2.8271 2.0098-0.89648 4.0957-1.6904 6.2578-2.3877 2.165-0.69141 4.3623-1.2422 6.5859-1.6377 2.2266-0.39843 4.4092-0.59765 6.5596-0.59765 4.0517 0 7.7048 0.48926 10.96 1.4619 3.2607 0.97268 6.0264 2.3906 8.2853 4.2598 2.2706 1.8662 4.0048 4.1367 5.2178 6.7969 1.2129 2.6631 1.8194 5.7012 1.8194 9.117 0 2.5019-0.28125 4.7373-0.83497 6.7061-0.55373 1.9688-1.3829 3.7969-2.4698 5.4844-1.0986 1.6904-2.4668 3.3194-4.1162 4.8867-1.6465 1.5674-3.5684 3.2285-5.751 4.9746-1.67 1.3125-3.0322 2.458-4.0869 3.4306-1.0488 0.97267-1.875 1.8984-2.4698 2.7686-0.59472 0.876-1.0019 1.7812-1.2217 2.7158-0.2168 0.92872-0.32813 2.0302-0.32813 3.3017v3.5771z" opacity=".3" stroke-width=".75"/><path d="m280.65 321.36c0-1.8662 0.2666-3.4454 0.80272-4.7373 0.53907-1.2891 1.2803-2.332 2.2383-3.1289 0.9492-0.79395 2.0742-1.3711 3.3662-1.7285 1.2891-0.35449 2.669-0.53613 4.1396-0.53613 1.3916 0 2.7158 0.18164 3.9639 0.53613 1.251 0.35742 2.3525 0.93458 3.3106 1.7285 0.9492 0.79688 1.7021 1.8398 2.2588 3.1289 0.55957 1.292 0.83498 2.8711 0.83498 4.7373 0 1.79-0.27539 3.3223-0.83498 4.5938-0.55664 1.2656-1.3096 2.3262-2.2588 3.1611-0.95798 0.82913-2.0596 1.4356-3.3106 1.8164-1.2481 0.375-2.5723 0.56543-3.9639 0.56543-1.4707 0-2.8506-0.19043-4.1396-0.56544-1.292-0.38085-2.417-0.9873-3.3662-1.8164-0.95798-0.83497-1.7021-1.8956-2.2383-3.1611-0.53027-1.2686-0.7998-2.8008-0.7998-4.5908m1.9688-20.385v-4.4062c0-2.0273 0.208-3.8672 0.62402-5.5137 0.41602-1.6523 1.0517-3.2168 1.9072-4.708 0.85253-1.4883 1.957-2.9414 3.3046-4.3506 1.3535-1.4121 2.9854-2.8711 4.8896-4.3828 1.67-1.3096 3.0791-2.4815 4.2305-3.5186 1.1543-1.0283 2.083-2.0537 2.8008-3.0704 0.71484-1.0108 1.2334-2.0713 1.5498-3.1816 0.31934-1.1162 0.48047-2.4111 0.48047-3.876 0-2.2646-0.77048-4.1396-2.2969-5.6044-1.5293-1.4707-3.8642-2.206-7.0049-2.206-2.7363 0-5.6894 0.57714-8.8508 1.7256-3.1523 1.1543-6.4277 2.5635-9.8025 4.2334l-6.0762-13.172c1.7021-0.99315 3.5625-1.9365 5.5694-2.8271 2.0098-0.89648 4.0957-1.6904 6.2578-2.3877 2.165-0.69141 4.3623-1.2422 6.5859-1.6377 2.2266-0.39843 4.4092-0.59765 6.5596-0.59765 4.0517 0 7.7048 0.48926 10.96 1.4619 3.2607 0.97268 6.0264 2.3906 8.2853 4.2598 2.2706 1.8662 4.0048 4.1367 5.2178 6.7969 1.2129 2.6631 1.8194 5.7012 1.8194 9.117 0 2.5019-0.28125 4.7373-0.83497 6.7061-0.55373 1.9688-1.3829 3.7969-2.4698 5.4844-1.0986 1.6904-2.4668 3.3194-4.1162 4.8867-1.6465 1.5674-3.5684 3.2285-5.751 4.9746-1.67 1.3125-3.0322 2.458-4.0869 3.4306-1.0488 0.97267-1.875 1.8984-2.4698 2.7686-0.59472 0.876-1.0019 1.7812-1.2217 2.7158-0.2168 0.92872-0.32813 2.0302-0.32813 3.3017v3.5771z" fill="#fff" stroke-width=".75"/></svg>
