<svg width="512" height="512" version="1.1" xmlns="http://www.w3.org/2000/svg"><g><circle cx="256" cy="256" r="225" fill="#fff" opacity=".2" stroke="#000" stroke-width="10"/><g stroke-width="8.0357"><circle cx="256" cy="256" r="225" fill="#fff"/><path d="m304.21 169.57a128.57 128.57 0 0 1 128.57 128.57 128.57 128.57 0 0 1-128.57 128.57h-32.143v-257.14zm0 32.143v192.86a96.429 96.429 0 0 0 96.429-96.429 96.429 96.429 0 0 0-96.429-96.429z" opacity=".3"/><path d="m304.21 159.57a128.57 128.57 0 0 1 128.57 128.57 128.57 128.57 0 0 1-128.57 128.57h-32.143v-257.14zm0 32.143v192.86a96.429 96.429 0 0 0 96.429-96.429 96.429 96.429 0 0 0-96.429-96.429z" fill="#d41919"/><path d="m207.79 105.29a128.57 128.57 0 0 0-128.57 128.57 128.57 128.57 0 0 0 128.57 128.57h32.143v-257.14zm0 32.143v192.86a96.429 96.429 0 0 1-96.429-96.429 96.429 96.429 0 0 1 96.429-96.429z" opacity=".3"/><path d="m207.79 95.286a128.57 128.57 0 0 0-128.57 128.57 128.57 128.57 0 0 0 128.57 128.57h32.143v-257.14zm0 32.143v192.86a96.429 96.429 0 0 1-96.429-96.429 96.429 96.429 0 0 1 96.429-96.429z" fill="#4aaee6"/><path d="m480.79 250.15a225 225 0 0 1-224.79 220.85 225 225 0 0 1-224.79-219.15 225 225 0 0 0-0.20703 4.1465 225 225 0 0 0 225 225 225 225 0 0 0 225-225 225 225 0 0 0-0.20703-5.8535z" opacity=".3"/><path d="M 256,31 A 225,225 0 0 0 31,256 225,225 0 0 0 31.207031,261.85352 225,225 0 0 1 256,41 225,225 0 0 1 480.79297,260.14648 225,225 0 0 0 481,256 225,225 0 0 0 256,31 Z" opacity=".1"/></g></g></svg>
