<svg xmlns="http://www.w3.org/2000/svg" width="384pt" height="384pt" version="1.1" viewBox="0 0 384 384"> <g> <path style="fill:rgb(90.196%,90.196%,90.196%)" d="M 177.625 360.382812 C 140.703125 357.851562 110.644531 347.769531 97.65625 333.558594 C 93.03125 328.496094 91.78125 325.789062 90.410156 317.867188 C 86.628906 296.011719 49.464844 96.070312 48.496094 92.351562 C 41.839844 66.863281 68.988281 43.78125 120.492188 31.132812 C 132.285156 28.238281 150.207031 25.371094 164.429688 24.101562 C 177.195312 22.964844 206.832031 22.964844 219.601562 24.101562 C 281.90625 29.65625 328.542969 51.132812 335.570312 77.503906 C 336.929688 82.597656 336.8125 86.488281 335.09375 93.53125 C 333.238281 101.148438 293.167969 318.34375 293.167969 320.796875 C 293.167969 321.792969 292.152344 324.636719 290.910156 327.121094 C 284.617188 339.71875 263.507812 350.882812 235 356.691406 C 219.132812 359.925781 194.277344 361.523438 177.625 360.382812 Z M 177.625 360.382812"/> <path style="fill:rgb(80.000%,80.000%,80.000%)" d="M 175.398438 128.164062 C 130.464844 125.925781 88.945312 113.480469 71.015625 96.882812 C 66.464844 92.667969 62.839844 86.660156 62.851562 83.355469 C 62.871094 77.761719 69.75 69.40625 79.394531 63.25 C 120.679688 36.898438 206.117188 29.882812 268.746094 47.699219 C 290.378906 53.851562 306.726562 62.238281 315.757812 71.8125 C 321.859375 78.285156 323.011719 82.394531 320.359375 88.238281 C 314.125 101.96875 286.367188 115.949219 251.4375 122.949219 C 237.378906 125.765625 223.996094 127.363281 207.414062 128.207031 C 192.898438 128.949219 191.058594 128.945312 175.398438 128.164062 Z M 175.398438 128.164062"/> </g> </svg>
