<svg xmlns="http://www.w3.org/2000/svg" width="24" height="24" version="1.1">
 <defs>
  <style id="current-color-scheme" type="text/css">
   .ColorScheme-Text { color:#eeeeec; } .ColorScheme-Highlight { color:#367bf0; } .ColorScheme-NeutralText { color:#ffcc44; } .ColorScheme-PositiveText { color:#3db47e; } .ColorScheme-NegativeText { color:#dd4747; }
  </style>
 </defs>
 <path style="fill:currentColor" class="ColorScheme-Text" d="M 12,4 C 10.34,4 9,5.34 9,7 v 5 c 0,1.66 1.34,3 3,3 1.66,0 3,-1.34 3,-3 V 7 C 15,5.34 13.66,4 12,4 Z m -6,7 v 1 c 0,2.97 2.16,5.43 5,5.91 V 20 h 2 v -2.09 c 2.84,-0.48 5,-2.94 5,-5.91 v -1 h -2 v 1 c 0,2.23 -1.77,4 -4,4 -2.23,0 -4,-1.77 -4,-4 v -1 z"/>
</svg>
