<svg xmlns="http://www.w3.org/2000/svg" width="12pt" height="12pt" version="1.1" viewBox="0 0 12 12">
 <g>
  <path style="fill:rgb(82.745098%,85.490196%,89.019608%)" d="M 5.269531 0.75 C 4.921875 0.746094 4.542969 0.777344 4.417969 0.808594 C 4.222656 0.863281 4.003906 0.972656 3.882812 1.140625 C 3.800781 1.253906 3.75 1.398438 3.75 1.601562 C 3.75 1.714844 3.75 1.535156 3.753906 1.773438 C 3.757812 2.015625 3.761719 2.101562 3.761719 2.101562 C 3.761719 2.3125 3.582031 2.269531 3.363281 2.269531 L 2.425781 2.269531 C 1.464844 2.269531 1.457031 3.808594 1.523438 4.535156 C 1.558594 4.804688 1.863281 6.707031 2.152344 7.289062 C 2.265625 7.511719 2.339844 7.605469 2.558594 7.707031 C 3.046875 7.910156 4.164062 8.132812 4.6875 8.199219 C 5.207031 8.265625 5.539062 8.402344 5.730469 8.003906 C 5.730469 8.003906 5.769531 7.90625 5.824219 7.757812 C 5.996094 7.257812 6.019531 6.816406 6.019531 6.496094 C 6.019531 6.460938 6.070312 6.460938 6.070312 6.496094 C 6.070312 6.722656 6.023438 7.523438 6.648438 7.738281 C 6.894531 7.824219 7.40625 7.898438 7.921875 7.957031 C 8.390625 8.011719 8.730469 8.191406 8.730469 9.363281 C 8.730469 10.078125 8.578125 10.5 7.773438 10.5 C 7.121094 10.5 6.75 10.636719 6.75 10.132812 C 6.75 9.726562 7.136719 9.769531 7.445312 9.769531 C 7.582031 9.769531 7.480469 9.671875 7.480469 9.421875 C 7.480469 9.167969 7.640625 9.027344 7.492188 9.023438 C 6.429688 8.996094 6 9.019531 6 10.3125 C 6 11.484375 6.417969 11.25 7.921875 11.25 C 9.101562 11.25 9.515625 11.210938 10.003906 9.742188 C 10.097656 9.449219 10.332031 8.5625 10.476562 7.078125 C 10.566406 6.132812 10.390625 3.296875 10.253906 2.578125 C 10.175781 2.160156 9.917969 2.027344 9.6875 1.945312 C 8.71875 1.550781 7.878906 1.511719 6.820312 1.480469 C 6.773438 1.1875 6.5625 1.019531 6.332031 0.925781 C 6.019531 0.804688 5.621094 0.757812 5.269531 0.75 Z M 8.277344 4.5 C 8.910156 4.53125 9 5.40625 9 6 C 8.734375 5.824219 8.40625 5.714844 8.046875 5.695312 C 7.855469 5.683594 7.671875 5.703125 7.5 5.742188 C 7.550781 5.175781 7.710938 4.46875 8.277344 4.5 Z M 8.277344 4.5"/>
 </g>
</svg>
