<svg xmlns="http://www.w3.org/2000/svg" width="12pt" height="12pt" version="1.1" viewBox="0 0 12 12">
 <g>
  <path style="fill:rgb(82.745098%,85.490196%,89.019608%)" d="M 6 0.75 C 3.101562 0.75 0.75 3.101562 0.75 6 L 0.75 7.019531 C 0.269531 7.566406 0 8.082031 0 8.8125 C 0 10.46875 1.34375 11.25 3 11.25 L 3.75 11.25 L 3.75 6 L 3 6 C 2.746094 6 2.496094 6.035156 2.25 6.101562 L 2.25 6 C 2.25 3.921875 3.921875 2.25 6 2.25 C 8.078125 2.25 9.75 3.921875 9.75 6 L 9.75 6.097656 C 9.503906 6.035156 9.253906 6 9 6 L 8.25 6 L 8.25 11.25 L 9 11.25 C 10.65625 11.25 12 10.46875 12 8.8125 C 12 8.082031 11.730469 7.566406 11.25 7.019531 L 11.25 6 C 11.25 3.101562 8.898438 0.75 6 0.75 Z M 6 0.75"/>
 </g>
</svg>
