<svg xmlns="http://www.w3.org/2000/svg" width="12pt" height="12pt" version="1.1" viewBox="0 0 12 12">
 <g>
  <path style="fill:rgb(32.156863%,58.039216%,88.627451%)" d="M 12 1.125 C 12 1.746094 11.496094 2.25 10.875 2.25 C 10.253906 2.25 9.75 1.746094 9.75 1.125 C 9.75 0.503906 10.253906 0 10.875 0 C 11.496094 0 12 0.503906 12 1.125 Z M 12 1.125"/>
  <path style="fill:rgb(82.745098%,85.490196%,89.019608%)" d="M 5.625 0.75 C 5.367188 0.75 5.105469 0.761719 4.941406 0.785156 C 2.953125 1.058594 1.777344 1.984375 1.542969 3.464844 C 1.515625 3.628906 1.507812 3.917969 1.503906 5.03125 L 1.5 5.90625 L 1.5 7.382812 L 1.503906 6.355469 L 1.558594 6.441406 C 1.699219 6.660156 1.898438 6.8125 2.832031 7.433594 C 4.398438 8.472656 5.042969 8.851562 5.4375 8.964844 C 5.5 8.984375 5.585938 9 5.632812 9 C 5.894531 9.003906 6.664062 8.589844 7.828125 7.820312 C 9.277344 6.863281 9.546875 6.664062 9.691406 6.445312 L 9.75 6.351562 L 9.75 5.261719 C 9.75 3.839844 9.738281 3.589844 9.667969 3.285156 C 9.546875 2.742188 9.320312 2.3125 8.960938 1.9375 C 8.382812 1.335938 7.480469 0.945312 6.308594 0.785156 C 6.144531 0.761719 5.882812 0.75 5.625 0.75 Z M 5.625 3 C 6.476562 3 7.214844 3.707031 7.457031 4.574219 C 7.5 4.726562 7.5 4.730469 7.5 5.351562 C 7.5 5.695312 7.496094 5.984375 7.488281 5.992188 C 7.484375 6 6.648438 6 5.625 6 C 4.601562 6 3.765625 6 3.761719 5.992188 C 3.753906 5.984375 3.75 5.695312 3.75 5.351562 C 3.75 4.730469 3.75 4.726562 3.792969 4.574219 C 4.035156 3.707031 4.773438 3 5.625 3 Z M 9.75 7.101562 L 9.691406 7.195312 C 9.546875 7.414062 9.277344 7.613281 7.828125 8.570312 C 6.664062 9.339844 5.894531 9.753906 5.632812 9.75 C 5.585938 9.75 5.5 9.734375 5.4375 9.714844 C 5.042969 9.601562 4.398438 9.222656 2.832031 8.183594 C 1.898438 7.5625 1.699219 7.410156 1.558594 7.191406 L 1.503906 7.105469 L 1.5 8.132812 L 1.5 10.40625 L 1.507812 10.40625 L 1.511719 10.898438 L 1.570312 11.007812 C 1.621094 11.09375 1.660156 11.128906 1.734375 11.171875 L 1.835938 11.230469 L 3.480469 11.242188 C 4.382812 11.246094 6.078125 11.25 7.242188 11.25 L 9.359375 11.25 L 9.460938 11.207031 C 9.589844 11.152344 9.628906 11.121094 9.691406 11.011719 L 9.738281 10.921875 L 9.738281 10.40625 L 9.75 10.40625 Z M 9.75 7.101562"/>
 </g>
</svg>
