<svg xmlns="http://www.w3.org/2000/svg" width="12pt" height="12pt" version="1.1" viewBox="0 0 12 12">
 <g>
  <path style="fill:rgb(82.745098%,85.490196%,89.019608%)" d="M 6 0 C 4.753906 0 3.75 1.003906 3.75 2.25 L 3.75 5.257812 C 2.808594 5.960938 2.25 7.070312 2.25 8.25 C 2.253906 10.21875 3.777344 11.851562 5.738281 11.988281 C 5.824219 11.996094 5.914062 12 6 12 C 8.070312 12 9.75 10.320312 9.75 8.25 C 9.75 7.070312 9.191406 5.960938 8.25 5.257812 L 8.25 2.25 C 8.25 1.003906 7.246094 0 6 0 Z M 6 1.5 C 6.441406 1.5 6.75 1.808594 6.75 2.25 L 6.75 6.007812 L 7.351562 6.457031 C 7.917969 6.878906 8.25 7.542969 8.25 8.25 C 8.25 9.511719 7.261719 10.5 6 10.5 C 5.960938 10.5 5.921875 10.496094 5.878906 10.492188 L 5.863281 10.492188 L 5.84375 10.488281 C 4.652344 10.40625 3.753906 9.445312 3.75 8.25 C 3.753906 7.542969 4.082031 6.878906 4.648438 6.457031 L 5.25 6.007812 L 5.25 2.25 C 5.25 1.808594 5.558594 1.5 6 1.5 Z M 6 1.5"/>
 </g>
</svg>
