<svg xmlns="http://www.w3.org/2000/svg" width="12pt" height="12pt" version="1.1" viewBox="0 0 12 12">
 <g>
  <path style="fill:rgb(82.745098%,85.490196%,89.019608%)" d="M 4.5 1.5 C 2.84375 1.5 1.5 2.84375 1.5 4.5 C 1.5 5.039062 1.648438 5.566406 1.921875 6.027344 C 0.820312 6.1875 0 7.136719 0 8.25 C 0 9.492188 1.007812 10.5 2.25 10.5 L 9.75 10.5 C 10.992188 10.5 12 9.492188 12 8.25 C 12 7.546875 11.671875 6.886719 11.109375 6.460938 C 11.203125 6.191406 11.25 5.910156 11.25 5.625 C 11.25 4.175781 10.074219 3 8.625 3 C 8.152344 3 7.683594 3.128906 7.277344 3.375 C 6.820312 2.242188 5.722656 1.5 4.5 1.5 Z M 3.75 2.25 C 4.164062 2.25 4.5 2.585938 4.5 3 C 4.5 3.414062 4.164062 3.75 3.75 3.75 C 3.335938 3.75 3 3.414062 3 3 C 3 2.585938 3.335938 2.25 3.75 2.25 Z M 6 3.75 C 7.65625 3.75 9 5.09375 9 6.75 C 9 8.40625 7.65625 9.75 6 9.75 C 4.34375 9.75 3 8.40625 3 6.75 C 3 5.09375 4.34375 3.75 6 3.75 Z M 6 5.25 C 5.171875 5.25 4.5 5.921875 4.5 6.75 C 4.5 7.578125 5.171875 8.25 6 8.25 C 6.828125 8.25 7.5 7.578125 7.5 6.75 C 7.5 5.921875 6.828125 5.25 6 5.25 Z M 6 5.25"/>
 </g>
</svg>
