<svg xmlns="http://www.w3.org/2000/svg" width="12pt" height="12pt" version="1.1" viewBox="0 0 12 12">
 <g>
  <path style="fill:rgb(82.745098%,85.490196%,89.019608%)" d="M 5.25 0 L 5.25 0.890625 C 3.460938 1.316406 2.0625 2.710938 1.636719 4.5 L 3.199219 4.5 C 3.675781 3.152344 4.945312 2.253906 6.375 2.25 C 7.800781 2.253906 9.074219 3.152344 9.550781 4.5 L 11.105469 4.5 C 10.679688 2.714844 9.285156 1.320312 7.5 0.890625 L 7.5 0 Z M 6.375 3 C 4.925781 3 3.75 4.175781 3.75 5.625 C 3.75 5.75 3.761719 5.875 3.78125 6 L 8.210938 6 C 8.035156 6.871094 7.265625 7.5 6.375 7.5 C 5.785156 7.5 5.230469 7.222656 4.875 6.75 L 4.007812 6.75 C 4.441406 7.664062 5.363281 8.25 6.375 8.25 C 7.824219 8.25 9 7.074219 9 5.625 C 9 5.5 8.988281 5.375 8.96875 5.25 L 4.539062 5.25 C 4.714844 4.378906 5.484375 3.75 6.375 3.75 C 6.964844 3.75 7.519531 4.027344 7.875 4.5 L 8.742188 4.5 C 8.308594 3.585938 7.386719 3 6.375 3 Z M 1.636719 6.75 C 2.066406 8.539062 3.460938 9.933594 5.25 10.359375 L 5.25 11.25 L 7.5 11.25 L 7.5 10.355469 C 9.289062 9.929688 10.683594 8.535156 11.113281 6.75 L 9.550781 6.75 C 9.074219 8.097656 7.804688 8.996094 6.375 9 C 4.945312 8.996094 3.675781 8.097656 3.199219 6.75 Z M 1.636719 6.75"/>
 </g>
</svg>
