<svg xmlns="http://www.w3.org/2000/svg" width="12pt" height="12pt" version="1.1" viewBox="0 0 12 12">
 <g>
  <path style="fill:rgb(82.745098%,85.490196%,89.019608%)" d="M 6 0.75 C 3.101562 0.75 0.75 3.101562 0.75 6 C 0.75 8.898438 3.101562 11.25 6 11.25 C 6.816406 11.246094 7.621094 11.054688 8.347656 10.6875 L 7.839844 10.179688 C 7.613281 9.960938 7.472656 9.625 7.488281 9.316406 C 7.503906 9.011719 7.636719 8.757812 7.824219 8.574219 C 8.007812 8.386719 8.261719 8.253906 8.566406 8.238281 C 8.875 8.222656 9.210938 8.363281 9.429688 8.589844 L 9.816406 8.976562 L 10.613281 7.382812 C 10.730469 7.136719 10.9375 6.953125 11.179688 6.847656 C 11.226562 6.566406 11.25 6.285156 11.25 6 C 11.25 3.101562 8.898438 0.75 6 0.75 Z M 4.5 3.75 L 4.5 5.25 L 7.5 5.25 L 7.5 3.75 L 9.75 6 L 7.5 8.25 L 7.5 6.75 L 4.5 6.75 L 4.5 8.25 L 2.25 6 Z M 11.609375 7.496094 C 11.472656 7.503906 11.347656 7.585938 11.289062 7.707031 L 10.023438 10.242188 L 8.890625 9.109375 C 8.742188 8.960938 8.507812 8.960938 8.359375 9.109375 C 8.210938 9.257812 8.210938 9.492188 8.359375 9.640625 L 9.859375 11.140625 C 9.945312 11.226562 10.066406 11.265625 10.183594 11.246094 C 10.304688 11.226562 10.40625 11.148438 10.460938 11.042969 L 11.960938 8.042969 C 12.023438 7.921875 12.015625 7.78125 11.941406 7.667969 C 11.871094 7.554688 11.742188 7.488281 11.609375 7.496094 Z M 11.609375 7.496094"/>
 </g>
</svg>
