<svg xmlns="http://www.w3.org/2000/svg" width="12pt" height="12pt" version="1.1" viewBox="0 0 12 12">
 <g>
  <path style="fill:rgb(82.745098%,85.490196%,89.019608%)" d="M 6.082031 1.5 C 4.679688 1.5 2.609375 1.59375 1.988281 1.613281 C 1.316406 1.679688 1.066406 1.714844 0.699219 2.050781 C 0.132812 2.582031 0 3.632812 0 5.234375 L 0 6.761719 C 0 8.589844 0.226562 9.519531 0.605469 9.855469 C 1.039062 10.253906 1.324219 10.285156 1.613281 10.332031 C 1.722656 10.347656 2.515625 10.5 6.03125 10.5 C 6.453125 10.5 6.753906 10.484375 7.144531 10.476562 C 6.886719 10.027344 6.75 9.519531 6.75 9 C 6.75 7.34375 8.09375 6 9.75 6 C 10.609375 6 11.425781 6.371094 11.996094 7.015625 C 11.996094 6.929688 12 6.859375 12 6.769531 L 12 4.992188 C 12 4.042969 11.953125 2.707031 11.398438 2.144531 C 10.976562 1.765625 10.824219 1.660156 9.957031 1.613281 C 9.714844 1.601562 7.574219 1.5 6.082031 1.5 Z M 5.25 3.75 L 8.25 6 L 5.25 8.25 Z M 5.25 3.75"/>
  <path style="fill:rgb(82.745098%,85.490196%,89.019608%)" d="M 11.699219 7.875 C 11.078125 6.800781 9.695312 6.433594 8.625 7.050781 C 7.554688 7.671875 7.179688 9.050781 7.800781 10.125 C 8.421875 11.199219 9.804688 11.566406 10.875 10.949219 C 11.945312 10.328125 12.320312 8.949219 11.699219 7.875 Z M 11.050781 8.25 C 11.464844 8.96875 11.21875 9.886719 10.5 10.300781 L 10.125 9.648438 C 10.484375 9.441406 10.605469 8.984375 10.398438 8.625 Z M 9 7.699219 L 9.375 8.351562 C 9.015625 8.558594 8.894531 9.015625 9.101562 9.375 L 8.449219 9.75 C 8.035156 9.03125 8.28125 8.113281 9 7.699219 Z M 9 7.699219"/>
 </g>
</svg>
