<?xml version="1.0" encoding="UTF-8" standalone="no"?>
<!-- Created with Inkscape (http://www.inkscape.org/) -->

<svg
   xmlns:dc="http://purl.org/dc/elements/1.1/"
   xmlns:cc="http://creativecommons.org/ns#"
   xmlns:rdf="http://www.w3.org/1999/02/22-rdf-syntax-ns#"
   xmlns:svg="http://www.w3.org/2000/svg"
   xmlns="http://www.w3.org/2000/svg"
   xmlns:sodipodi="http://sodipodi.sourceforge.net/DTD/sodipodi-0.dtd"
   xmlns:inkscape="http://www.inkscape.org/namespaces/inkscape"
   id="svg2"
   version="1.1"
   inkscape:version="0.91+devel r14080 custom"
   width="512"
   height="512"
   sodipodi:docname="ccsm.svg"
   viewBox="0 0 512 512">
  <metadata
     id="metadata8">
    <rdf:RDF>
      <cc:Work
         rdf:about="">
        <dc:format>image/svg+xml</dc:format>
        <dc:type
           rdf:resource="http://purl.org/dc/dcmitype/StillImage" />
        <dc:title />
      </cc:Work>
    </rdf:RDF>
  </metadata>
  <defs
     id="defs6" />
  <sodipodi:namedview
     pagecolor="#ffffff"
     bordercolor="#666666"
     borderopacity="1"
     objecttolerance="10"
     gridtolerance="10"
     guidetolerance="10"
     inkscape:pageopacity="0"
     inkscape:pageshadow="2"
     inkscape:window-width="960"
     inkscape:window-height="1008"
     id="namedview4"
     showgrid="false"
     inkscape:zoom="0.4609375"
     inkscape:cx="262.50847"
     inkscape:cy="240.81356"
     inkscape:window-x="0"
     inkscape:window-y="32"
     inkscape:window-maximized="0"
     inkscape:current-layer="svg2"
     inkscape:document-units="px" />
  <path
     style="fill:#2985c9;fill-opacity:1;fill-rule:evenodd;stroke:#000000;stroke-width:0;stroke-linecap:butt;stroke-linejoin:miter;stroke-miterlimit:4;stroke-dasharray:none;stroke-opacity:1"
     d="m 262.63553,31.000278 c -10.05857,-0.0033 -20.85323,0.23856 -31.78394,0.461223 -6.10127,0.124292 -12.87382,6.929326 -12.85726,13.031837 0.0438,16.182057 0.81034,51.245327 0.81034,51.245327 0,0 -18.1329,4.898605 -26.80788,8.434315 -7.75858,3.16221 -22.41799,11.36519 -22.41799,11.36518 0,0 -20.03045,-19.711555 -37.34617,-36.774691 -3.73086,-3.676435 -13.99778,-2.702526 -17.73227,0.970222 -30.56325,30.057959 -23.003634,21.671709 -35.716277,35.587649 -4.141889,4.53394 -3.408962,14.13011 1.010647,18.39378 12.55467,12.11169 36.09481,35.73833 36.09481,35.73833 0,0 -9.30918,15.30491 -12.75253,23.53704 -3.381953,8.08534 -7.664384,25.15043 -7.664384,25.15043 0,0 -33.626515,-0.66555 -50.451514,-0.39691 -6.368604,0.10168 -14.408241,5.39368 -14.432044,11.51586 -0.03786,9.72161 -0.171194,33.02262 -0.295844,46.5835 -0.124649,13.56088 7.551102,18.40508 14.593748,18.36989 20.614531,-0.10304 50.376174,0.23153 50.376174,0.23153 0,0 4.739594,17.186 8.110904,25.41502 3.30971,8.07869 11.83193,23.368 11.83193,23.368 0,0 -23.291881,22.39068 -34.39509,34.88755 -4.432687,4.98906 -5.509322,15.02803 -1.051074,19.99428 11.896284,13.25183 23.861954,24.75705 35.126434,34.60272 5.39754,4.71771 16.10984,2.24964 21.34303,-2.64973 9.17509,-8.58983 33.00406,-33.84749 33.00406,-33.84749 0,0 15.25706,8.11796 23.21917,11.44236 4.17586,1.74353 10.59032,3.96363 15.96087,5.74783 5.37056,1.7842 9.6967,3.133 9.6967,3.133 0,0 -0.007,8.06845 -0.002,18.21738 0.005,10.14893 0.0194,22.37838 0.0625,30.69611 0.0172,3.32832 1.51194,7.18111 3.8331,10.20938 2.32118,3.02828 5.46992,5.23166 8.79816,5.25904 15.84569,0.12696 33.62983,0.0863 51.19387,-0.008 2.97248,-0.011 6.08032,-2.23926 8.44167,-5.2076 2.36135,-2.96833 3.97584,-6.67646 3.96173,-9.64892 -0.0389,-8.1842 0.0136,-21.17966 0.0772,-32.12757 0.0635,-10.94789 0.13782,-19.8491 0.13782,-19.8491 0,0 4.26047,-0.94864 9.51662,-2.33 5.25613,-1.38137 11.50696,-3.19543 15.48679,-4.92462 3.76568,-1.63614 9.0575,-4.78859 13.4067,-7.53207 4.34918,-2.74349 7.75625,-5.07713 7.75625,-5.07713 0,0 6.87759,6.94423 15.11928,15.17992 8.2417,8.23568 17.84839,17.76175 23.30369,22.92516 2.40877,2.27988 5.95729,3.47822 9.73346,3.30022 3.77617,-0.17799 7.7786,-1.73251 11.09507,-4.95952 6.95829,-6.7706 12.8598,-12.47843 18.13652,-17.64039 5.27674,-5.16194 9.92906,-9.77663 14.38795,-14.35854 2.19077,-2.25121 3.441,-5.8395 3.59423,-9.42475 0.15322,-3.58525 -0.78938,-7.16821 -2.98601,-9.41372 -6.16563,-6.30282 -15.89948,-16.02179 -24.09199,-24.1655 -8.19251,-8.14371 -14.84365,-14.71318 -14.84365,-14.71318 0,0 2.3544,-3.57296 5.10468,-8.13296 2.75028,-4.55999 5.89479,-10.10682 7.4788,-14.05167 1.59711,-3.97749 3.17462,-10.20947 4.35129,-15.4482 1.17685,-5.23837 1.95339,-9.48337 1.95339,-9.48337 0,0 36.919,0.85064 53.75358,0.25542 6.25821,-0.22126 14.10557,-5.89879 14.32178,-12.15717 0.63628,-18.41754 0.66664,-33.18929 0.1856,-49.80654 -0.291,-10.05202 -7.11781,-14.17398 -17.61835,-14.08291 -13.6374,0.11826 -49.80102,0.61007 -49.80102,0.61007 0,0 -3.89567,-16.52619 -7.04145,-24.37682 -3.22672,-8.05264 -12.0414,-23.07216 -12.0414,-23.07216 0,0 24.50488,-24.46907 36.42924,-37.02093 8.12922,-8.557 3.09463,-18.96171 0.33075,-21.46614 -11.48695,-10.40867 -23.27539,-23.469645 -33.03714,-32.728434 -4.77351,-4.527577 -14.85897,-5.023924 -19.72783,-0.599037 -9.95863,9.050546 -23.94422,24.325131 -36.87025,37.169761 0,0 -15.38997,-8.93805 -23.62343,-12.23067 -7.77207,-3.10809 -24.1122,-7.015725 -24.1122,-7.015725 0,0 0.61622,-35.564779 0.004,-53.470588 -0.20905,-6.109907 -8.34622,-12.206559 -14.45226,-12.508139 -5.37673,-0.236907 -11.14586,-0.326933 -17.18101,-0.32892 z m -5.36929,148.590882 c 37.43593,-0.1176 69.43593,32.61236 74.25869,68.75524 5.46649,38.41049 -25.27324,75.64153 -62.39737,82.77202 -41.78044,8.52884 -85.52245,-26.44265 -89.10601,-68.35099 -3.08459,-41.94195 33.93426,-81.67848 75.45676,-83.14687 0.59687,-0.0185 1.1937,-0.0276 1.78793,-0.0294 z"
     id="path4148"
     inkscape:connector-curvature="0" />
  <path
     style="fill:#006ab9;fill-opacity:1;fill-rule:evenodd;stroke:#000000;stroke-width:0;stroke-linecap:butt;stroke-linejoin:miter;stroke-miterlimit:4;stroke-dasharray:none;stroke-opacity:1"
     d="m 258.23462,140.3468 c -0.74451,-0.008 -1.48933,-0.005 -2.23445,0.008 -60.91328,1.06844 -115.81832,55.94314 -115.5666,117.12116 0.33736,59.10049 52.25676,113.26766 111.61405,114.66253 54.82903,1.54266 108.81052,-39.98487 118.04177,-94.6462 9.78733,-54.9252 -25.02676,-115.23907 -79.01424,-131.33087 -10.58811,-3.48534 -21.67296,-5.70517 -32.84053,-5.81397 z m -0.9445,39.21496 c 37.43594,-0.1176 69.43777,32.6142 74.26053,68.75709 5.4665,38.41048 -25.27507,75.64152 -62.3992,82.77201 -41.78043,8.52884 -85.52062,-26.44266 -89.10418,-68.351 -3.08458,-41.94195 33.93427,-81.67847 75.45677,-83.14687 0.59687,-0.0185 1.19187,-0.0293 1.78608,-0.0312 z"
     id="path3333"
     inkscape:connector-curvature="0" />
</svg>
