<?xml version="1.0" encoding="UTF-8" standalone="no"?>
<svg
   xmlns:dc="http://purl.org/dc/elements/1.1/"
   xmlns:cc="http://creativecommons.org/ns#"
   xmlns:rdf="http://www.w3.org/1999/02/22-rdf-syntax-ns#"
   xmlns:svg="http://www.w3.org/2000/svg"
   xmlns="http://www.w3.org/2000/svg"
   xmlns:sodipodi="http://sodipodi.sourceforge.net/DTD/sodipodi-0.dtd"
   xmlns:inkscape="http://www.inkscape.org/namespaces/inkscape"
   enable-background="new 0 0 61.439 61.439"
   version="1.1"
   viewBox="0 0 512 512"
   id="svg23"
   sodipodi:docname="blkls.svg"
   inkscape:version="0.92.4 5da689c313, 2019-01-14">
  <metadata
     id="metadata29">
    <rdf:RDF>
      <cc:Work
         rdf:about="">
        <dc:format>image/svg+xml</dc:format>
        <dc:type
           rdf:resource="http://purl.org/dc/dcmitype/StillImage" />
        <dc:title></dc:title>
      </cc:Work>
    </rdf:RDF>
  </metadata>
  <defs
     id="defs27" />
  <sodipodi:namedview
     pagecolor="#ffffff"
     bordercolor="#666666"
     borderopacity="1"
     objecttolerance="10"
     gridtolerance="10"
     guidetolerance="10"
     inkscape:pageopacity="0"
     inkscape:pageshadow="2"
     inkscape:window-width="1920"
     inkscape:window-height="1052"
     id="namedview25"
     showgrid="false"
     inkscape:zoom="0.921875"
     inkscape:cx="178.75079"
     inkscape:cy="209.22527"
     inkscape:window-x="0"
     inkscape:window-y="0"
     inkscape:window-maximized="1"
     inkscape:current-layer="svg23" />
  <g
     id="Group_5_1_"
     transform="matrix(7.4111 0 0 7.4111 29.221 29.221)">
    <circle
       cx="30.6"
       cy="30.6"
       r="30.36"
       fill="#622e78"
       id="circle2" />
    <path
       transform="matrix(.13493 0 0 .13493 -3.9429 -3.9429)"
       d="m480.79 250.15a225 225 0 0 1-224.79 220.85 225 225 0 0 1-224.79-219.15 225 225 0 0 0-0.20703 4.1465 225 225 0 0 0 225 225 225 225 0 0 0 225-225 225 225 0 0 0-0.20703-5.8535z"
       opacity=".3"
       stroke-width="7.4111"
       id="path4" />
    <path
       transform="matrix(.13493 0 0 .13493 -3.9429 -3.9429)"
       d="m256 31a225 225 0 0 0-225 225 225 225 0 0 0 0.20703 5.8535 225 225 0 0 1 224.79-220.85 225 225 0 0 1 224.79 219.15 225 225 0 0 0 0.20703-4.1465 225 225 0 0 0-225-225z"
       fill="#fff"
       opacity=".2"
       stroke-width="7.4111"
       id="path6" />
    <g
       id="Ellipse_1_copy" />
  </g>
  <g
     id="Group_1_3_"
     transform="matrix(7.4111 0 0 7.4111 29.221 29.221)">
    <path
       d="m47.479 17.312c-0.922-4.35-5.991-4.044-5.991-4.044l-4.715-3.058s-0.177-3.749-5.894-3.749c-5.718 0-5.894 3.65-5.894 3.65s-2.014 1.324-4.714 3.156c-6.228 0.348-5.992 4.044-5.992 4.044s-4.648 3.064-5.599 3.649-0.982 1.17-0.982 1.17v16.782c0 0.398 0.258 0.631 0.258 0.631s21.814 15.25 22.923 15.25 23.084-14.993 23.084-15.485v-17.177c-0.214-1.101-3.855-3.012-6.484-4.819z"
       id="path10"
       fill="#fff" />
    <path
       d="m30.83 13.168c2.36 0 4.273-1.082 4.273-2.417 0-1.334-1.913-2.417-4.273-2.417-2.359 0-4.272 1.082-4.272 2.417 0 1.336 1.913 2.417 4.272 2.417zm0 8.681c-2.359 0-4.272 1.082-4.272 2.417s1.913 2.417 4.272 2.417c2.36 0 4.273-1.082 4.273-2.417 1e-3 -1.335-1.913-2.417-4.273-2.417zm4.666-0.198v-4.241c-0.734 0.937-3.396 1.578-4.616 1.578-2.727 0-4.715-1.578-4.715-1.578v4.241s2.172-1.677 4.715-1.677c2.542 1e-3 4.616 1.677 4.616 1.677zm-8.742-7.693v0.986s0.582 2.269 4.126 2.269c3.543 0 4.125-2.071 4.125-2.071v-1.283s-1.494 1.283-4.125 1.283-4.126-1.184-4.126-1.184zm11.002 0.099-0.885-0.493v1.184c0.123-0.289 0.885-0.691 0.885-0.691zm3.781 5.918c2.36 0 4.272-1.082 4.272-2.417s-1.912-2.417-4.272-2.417c-2.359 0-4.272 1.082-4.272 2.417s1.913 2.417 4.272 2.417zm-4.175 0.69v1.085s1.397 2.17 4.322 2.17 3.929-1.973 3.929-1.973v-1.282s-0.951 1.282-3.929 1.282-4.322-1.282-4.322-1.282zm-10.608 6.905v1.085s0.926 2.17 4.126 2.17c3.199 0 4.125-2.17 4.125-2.17v-1.184s-1.537 1.184-4.125 1.184-4.126-1.085-4.126-1.085zm5.501 10.258 0.098 13.021 18.859-12.626v-13.119zm-21.61 0.395 18.761 12.626v-13.12l-18.859-12.724zm5.501-17.558v1.184s0.632 2.071 4.126 2.071c3.493 0 4.125-2.17 4.125-2.17v-1.085s-1.521 1.184-4.125 1.184c-3.227 0-4.126-1.184-4.126-1.184zm4.076-0.69c2.36 0 4.273-1.082 4.273-2.417s-1.913-2.417-4.273-2.417-4.273 1.082-4.273 2.417 1.913 2.417 4.273 2.417zm4.666-5.228v-1.184l-0.884 0.592c0.613 0.272 0.884 0.592 0.884 0.592zm22.69 6.017c0 2.348-1.489 5.008-5.894 5.03-2.25 0-4.813-1.479-4.813-1.479v4.34c0 0.922-1.454 4.044-5.991 4.044-4.538 0-5.992-3.516-5.992-3.946v-4.636s-1.105 1.677-4.715 1.677c-6.118 0-5.992-5.03-5.992-5.03l-2.357 1.677 19.056 12.823 19.154-12.824s-1.208-0.766-2.456-1.676z"
       id="path12"
       clip-rule="evenodd"
       fill-rule="evenodd"
       fill="#622e78" />
  </g>
  <polygon
     transform="matrix(7.7316939,0,0,7.7316939,11.144809,10.892329)"
     style="fill:#ae7ac4;opacity:1"
     points="43.729,35.114 41.507,35.114 41.507,37.329 39.276,37.329 39.276,39.556 41.507,39.556 41.507,41.775 43.729,41.775 43.729,39.556 45.948,39.556 45.948,37.329 43.729,37.329 "
     id="polygon23" />
  <rect
     style="fill:#ae7ac4;stroke-width:7.73169374;opacity:1"
     x="145.59932"
     y="303.54486"
     width="55.907879"
     height="17.187555"
     id="rect28" />
</svg>
