<svg width="512" height="512" version="1.1" viewBox="0 0 384 384" xmlns="http://www.w3.org/2000/svg"><path d="m204.82 23.25c41.539 35.863 51.926 72.211 51.926 129.33l17.039-44.141c17.938 17.637 30.164 41.008 33.754 67.18 1.3203 20.129-1.9688 37.949-7.1602 53.527 21.191-13.492 47.953-28.91 59.41-53.527-7.6484-81.449-73.117-146.14-154.97-152.37zm-29.199 0.96094c-81.449 7.6484-146.14 73.113-152.37 154.97 35.863-41.543 72.211-51.926 129.33-51.926l-44.137-17.039c17.637-17.937 41.008-30.164 67.18-33.75 20.129-1.3203 37.949 1.9648 53.527 7.1562-13.492-21.191-28.91-47.953-53.527-59.41zm-92 130.64c-21.188 13.492-47.953 28.91-59.41 53.527 7.6484 81.449 73.117 146.14 154.97 152.37-41.539-35.863-51.926-72.211-51.926-129.33l-17.039 44.141c-17.937-17.637-30.164-41.008-33.75-67.18-1.3203-20.129 1.9648-37.949 7.1562-53.527zm277.13 49.969c-35.863 41.539-72.211 51.926-129.33 51.926l44.137 17.039c-17.637 17.938-41.008 30.164-67.18 33.754-20.129 1.3203-37.949-1.9688-53.527-7.1602 13.492 21.191 28.91 47.953 53.527 59.41 81.449-7.6484 146.14-73.117 152.37-154.97z" fill="#357af0" fill-opacity=".99608" fill-rule="evenodd"/><path transform="scale(.75)" d="m273.09 31c55.385 47.818 69.234 96.282 69.234 172.44l22.719-58.855c23.917 23.516 40.219 54.678 45.006 89.574 0.15175 2.3135 0.24197 4.5954 0.30469 6.8633 0.15335-5.4828 0.0735-11.097-0.30469-16.863-4.7864-34.896-21.089-66.059-45.006-89.574l-22.719 58.855c0-70.186-11.79-116.85-56.98-161.16-4.0529-0.53228-8.1358-0.96993-12.254-1.2832zm-29.012 60.574c-3.2588 0.03519-6.5651 0.15885-9.9199 0.37891-34.896 4.7813-66.059 21.083-89.574 45l7.4805 2.8867c22.474-20.023 50.778-33.596 82.094-37.887 26.839-1.7604 50.598 2.6192 71.369 9.541-2.5629-4.0254-5.1857-8.2087-7.8809-12.455-16.153-4.6808-33.996-7.6762-53.568-7.4648zm-65.082 68.664c-61.922 3.0184-104.73 19.174-146.84 67.359-0.47536 3.7427-0.8693 7.5107-1.1582 11.309 47.818-55.391 96.281-69.234 172.44-69.234zm-67.506 46.23c-1.1956 0.76139-2.4654 1.5607-3.6856 2.332-4.1908 15.815-6.6858 33.199-6.1602 52.176 0.55885-20.038 4.4108-38.199 9.8457-54.508zm367.3 19.578c-15.066 30.356-47.548 50.054-74.604 67.154-1.1186 4.2202-2.3532 8.3321-3.6856 12.33 28.255-17.99 63.937-38.546 79.213-71.369-0.25547-2.7205-0.57247-5.4237-0.92383-8.1152zm2.2051 47.047c-0.38563 0.44666-0.77248 0.86732-1.1582 1.3086-13.185 103.81-97.184 185.47-202 195.32-28.147-13.1-47.265-41.198-63.488-66.758-2.6731-0.77476-5.3003-1.5951-7.8809-2.4551 17.99 28.255 38.546 63.937 71.369 79.213 108.6-10.198 194.86-97.49 203.16-206.62zm-447.79 2.8594c-0.311 0.62662-0.62795 1.249-0.92383 1.8848 10.198 108.6 97.49 194.86 206.62 203.16-4.3457-3.7519-8.4062-7.5102-12.254-11.283-100.66-13.221-180.3-93.065-193.45-193.76zm299.79 65.809c-7.8333 0.38194-15.954 0.5664-24.438 0.5664l51.369 19.832c2.5696-2.2895 5.0676-4.6592 7.4805-7.1133z" fill-opacity=".99608" fill-rule="evenodd" opacity=".3"/><path transform="scale(.75)" d="m273.09 31c4.3457 3.7519 8.4062 7.5102 12.254 11.283 100.66 13.221 180.3 93.065 193.45 193.76 0.31099-0.62662 0.62795-1.249 0.92383-1.8848-10.198-108.6-97.49-194.86-206.62-203.16zm-38.932 1.2812c-108.6 10.198-194.86 97.484-203.16 206.62 0.38563-0.4467 0.77248-0.86728 1.1582-1.3086 13.185-103.81 97.184-185.47 202-195.32 28.147 13.1 47.265 41.198 63.488 66.758 2.6731 0.77462 5.3003 1.5951 7.8809 2.4551-17.99-28.255-38.546-63.937-71.369-79.213zm-82.094 117.56c-2.5696 2.2895-5.0676 4.6592-7.4805 7.1133l34.412 13.285c7.8333-0.38183 15.954-0.5664 24.438-0.5664zm-40.574 56.629c-28.25 17.99-63.937 38.546-79.213 71.369 0.25547 2.7205 0.57247 5.4237 0.92383 8.1152 15.066-30.356 47.552-50.052 74.604-67.152 1.1185-4.2208 2.353-8.3334 3.6856-12.332zm298.86 44.557c-0.56042 20.037-4.4168 38.198-9.8516 54.506 1.1954-0.76111 2.4656-1.559 3.6856-2.3301 4.1921-15.815 6.6909-33.199 6.166-52.176zm-308.71 19.951c-0.1529 5.4822-0.0735 11.096 0.30468 16.861 4.7813 34.896 21.083 66.059 45 89.574l22.719-58.855c0 70.186 11.79 116.85 56.98 161.16 4.0529 0.53228 8.1358 0.96993 12.254 1.2832-55.385-47.818-69.234-96.282-69.234-172.44l-22.719 58.855c-23.917-23.516-40.219-54.678-45-89.574-0.1517-2.3128-0.24188-4.5942-0.30468-6.8613zm379.35 2.1172c-47.818 55.385-96.281 69.234-172.44 69.234l24.438 9.4336c61.922-3.0192 104.73-19.178 146.84-67.359 0.47536-3.7425 0.8693-7.5108 1.1582-11.309zm-121.07 99.066c-22.474 20.023-50.778 33.597-82.094 37.893-26.839 1.7604-50.598-2.625-71.369-9.5469 2.5629 4.0254 5.1857 8.2087 7.8809 12.455 18.842 5.4611 39.984 8.6335 63.488 7.0918 34.896-4.7864 66.059-21.089 89.574-45.006z" fill="#fff" fill-opacity=".99608" fill-rule="evenodd" opacity=".3"/></svg>
