<svg width="512" height="512" version="1.1" viewBox="0 0 384 384" xmlns="http://www.w3.org/2000/svg"><path d="m145.17 33.401c-0.59016 0.0091-1.2212 0.0908-1.825 0.22698-2.5513 0.5947-77.988 16.207-79.163 16.52-1.8295 0.48575-4.5942 2.3833-5.4658 4.0994-1.1622 2.2744-37.412 107.8-37.707 110.49-0.12257 1.1531 0.21791 3.1097 0.572 4.2128 1.0895 3.4048 1.3665 3.5637 47.272 31.437 22.531 13.678 37.829 22.413 42.941 25.631 1.3256 0.83531 2.9871 1.2847 3.7589 1.253 3.3231-0.13167 12.348-0.86255 41.121-3.7589 23.157-2.3198 41.824-4.517 42.714-4.7848 1.7251-0.51752 3.1823-1.6888 3.8724-2.3924 0.72636-0.73543 1.7069-2.3924 1.9339-2.9599 0.23153-0.57199 7.6948-25.318 16.633-54.903 11.458-37.929 15.367-50.413 16.061-55.584 0.50391-3.8043-1.035-6.056-3.5319-8.4302-3.3548-3.1869-82.963-58.508-84.293-59.461-1.4346-1.0305-3.1324-1.6207-4.8938-1.5934z" fill="#b8174c" stroke-width="1.1622"/><path d="m122.84 47.982c0.64463-0.01816 1.1939 0.20883 2.0474 0.56746 3.768 1.5617 3.5773 8.7253-0.34047 15.381-1.9021 3.1914-6.1831 7.3634-8.7707 8.5392-3.8043 1.7523-6.9458 1.1077-8.0852-1.5934-2.7783-6.6552 4.4671-19.398 12.53-22.213 1.1985-0.3995 1.9702-0.6628 2.6194-0.68096z" fill="#fff" stroke-width="1.1622"/><path transform="scale(.75)" d="m193.56 44.539c0.76653-0.011879 1.4971 0.19234 2.2363 0.34766-0.18758 0.77894-0.19875 1.1021-0.43165 2.0039-0.9697 3.7549-2.3445 8.6262-4.2266 15.041-3.764 12.83-9.5567 31.834-18.195 60.43-13.478 44.61-24.731 81.923-25.08 82.785-0.34228 0.85572-1.8208 3.3559-2.916 4.4648-0.52029 0.53047-1.3294 1.2365-2.334 1.9082-0.46675 0.3121-0.97968 0.61471-1.5215 0.89063 3.9501 4.0201 16.665 11.736 65.691 41.504 32.188 19.541 53.937 31.964 61.346 36.619 0.25797-0.14951 0.585-0.24109 0.82031-0.39843 0.88827-0.59395 1.6044-1.2184 2.0644-1.6875 0.96848-0.98058 2.2755-3.1906 2.5781-3.9473 0.3087-0.76265 10.26-33.756 22.178-73.203 7.6387-25.286 12.762-42.091 16.09-53.436 1.6642-5.6723 2.8789-9.9805 3.7363-13.301s1.3566-5.6533 1.5879-7.377c0.16797-1.2681 0.16746-2.4069 0.01758-3.4512-0.1499-1.0442-0.44852-1.9926-0.87109-2.8828s-0.96911-1.7215-1.6191-2.5273c-0.65004-0.80589-1.404-1.5875-2.2363-2.3789-1.1183-1.0623-8.5895-6.4694-19.197-14.002-10.608-7.5325-24.351-17.191-38.01-26.756-27.317-19.13-54.297-37.888-55.184-38.523-0.9564-0.687-1.999-1.2259-3.0976-1.5898-1.0986-0.36393-2.2515-0.5514-3.4258-0.5332z" opacity=".1"/><path d="m72.15 58.573c1.7886 0 2.1654 0.14981 3.0779 1.1395 2.5831 2.7783 1.5253 9.1021-2.5059 15.149-3.3094 4.9846-7.6267 8.1624-11.163 8.2033-1.825 0-2.1246-0.0363-3.0779-1.1395-1.4073-1.5617-1.6706-3.5637-1.1395-6.6053 1.0305-6.0878 5.6519-12.639 11.05-15.721 1.2575-0.72181 2.3153-1.026 3.7589-1.026z" fill="#fff" stroke-width="1.1622"/><path d="m176.03 111.54c0.34956-0.0636 0.5947-0.0136 0.91248 0 0.63102 0.0181 1.3664 0.1089 2.5059 0.45398 3.9178 1.1394 7.5904 5.9152 8.6572 11.05 0.2633 1.2166 0.41766 3.6408 0.34048 5.4658-0.34048 7.1864-4.6986 12.266-10.137 11.731-4.3354-0.41764-7.7402-3.5954-9.9102-9.2247-1.2938-3.3094-1.253-9.261 0-12.53 1.1032-2.8509 4.172-5.9969 6.3783-6.6053 0.52207-0.13619 0.9034-0.28146 1.253-0.34048z" fill="#fff" stroke-width="1.1622"/><path d="m99.147 118.37c1.8431-9e-3 3.5863 0.73998 4.4398 2.1654 1.5616 2.6603 1.144 7.0547-1.1395 11.958-4.1811 9.0885-13.319 14.777-17.083 10.596-2.0565-2.2835-2.1654-5.7654-0.572-10.596 2.0156-5.9697 7.89-12.489 12.53-13.896 0.64011-0.19067 1.2076-0.22699 1.825-0.22699z" fill="#fff" stroke-width="1.1622"/><path d="m48.23 126.69c3.9178-0.33595 6.115 3.5818 4.7849 9.3382-2.7011 11.522-15.335 20.742-18.681 13.669-0.49483-1.1032-0.56746-2.1972-0.45397-4.4444 0.45397-7.2227 6.519-15.903 12.643-18.109 0.62648-0.22244 1.1485-0.40857 1.7069-0.45396z" fill="#fff" stroke-width="1.1622"/><path d="m98.689 169.06c5.2433-0.20883 13.946 2.2381 19.139 5.6973 6.006 3.995 5.3251 7.4043-1.598 7.4043-7.1455 0-16.851-3.4865-20.615-7.5178-2.5876-2.7783-2.2472-4.5533 1.1395-5.3523 0.59017-0.14981 1.1894-0.19975 1.9339-0.23152z" fill="#fff" stroke-width="1.1622"/><path d="m103.93 210.07c0.83077 5e-3 1.7614 0.11354 3.4139 0.34048 8.521 1.1803 18.113 6.1104 18.113 9.3427 0 1.9384-1.5889 2.4287-6.2648 2.1654-4.4489-0.23153-9.1067-1.4028-13.442-3.5319-3.0416-1.4845-6.3783-4.0994-6.7188-5.3523-0.26785-1.0668 0.83076-2.3561 2.3924-2.7374 0.9488-0.20883 1.6706-0.23152 2.5059-0.22699z" fill="#fff" stroke-width="1.1622"/><path d="m273.34 127.99c-4.576 0.5039-15.662 3.8179-50.804 14.123-38.751 11.331-48.747 14.391-50.005 15.262-0.8353 0.60831-1.5934 1.2166-1.5934 1.4799-0.47667-0.34047-0.67188-0.20429-1.48 1.026-0.53568 0.79899-1.1758 1.9748-1.3664 2.6194-0.23152 0.60833-4.8166 24.823-10.255 53.877-7.5268 40.008-9.9828 53.269-9.7922 54.449 0.1498 0.87617 0.75813 2.4287 1.253 3.5319 0.87163 1.7841 4.4943 5.0708 41.575 37.017 22.322 19.244 41.388 35.242 42.142 35.768 1.6752 1.1622 2.8827 1.7387 5.0118 1.7069 2.4742-0.0363 4.4852-0.80807 49.891-17.768 30.275-11.331 47.994-18.036 49.097-18.794 0.98512-0.64464 2.2744-2.1246 2.8464-3.0779 0.79899-1.3301 4.122-13.142 14.809-54.218 7.5268-28.977 13.27-51.072 13.551-54.331 0.14074-1.5753-0.14073-3.2141-1.0214-4.5579-0.81261-1.2348-3.2005-4.4308-44.653-34.856-23.502-17.224-43.74-31.851-44.88-32.463-0.95787-0.4812-1.5662-0.71726-2.7329-0.79444-0.43581-0.0317-0.93971-0.0726-1.5934 0z" fill="#19a187" stroke-width="1.1622"/><path d="m269 136.6c-0.79899-0.0136-1.5707 0-2.2744 0.0545-0.93972 0.0636-1.7705 0.16797-2.397 0.34048-4.0312 1.1395-6.0696 3.3367-5.5748 5.9243 0.64464 3.0779 6.0605 6.9821 11.84 8.4257 3.6908 0.95334 9.4153 0.99419 12.307 0.11804 2.5468-0.76267 4.8938-2.9962 4.8938-4.5533 0-3.6545-4.9574-7.6358-11.844-9.4608-1.8794-0.51298-4.5488-0.81714-6.9503-0.84893zm-63.106 18.05c-0.94879 0.0317-1.7205 0.21791-2.2698 0.34048-3.2368 0.72182-5.5838 2.4651-6.2648 4.5579-1.2212 3.6862 4.1629 8.5392 11.731 10.478 3.7271 0.98966 9.4108 0.98966 12.416 0.11354 2.3198-0.68096 4.6623-2.3516 5.2343-3.8724 1.4073-3.6908-4.2038-8.9205-11.731-10.818-2.0837-0.54477-6.2557-0.89886-9.1157-0.79899zm87.485 1.7069c-0.4812 0.0136-0.75813 0.0317-1.1395 0.11804-5.434 1.2166-7.6676 3.9041-6.2648 7.5178 0.91703 2.397 6.1422 5.8471 10.709 7.1773 9.3155 2.7011 18.218 0.49483 18.218-4.5624 0-2.7011-4.1221-6.6371-8.8797-8.4212-3.1369-1.1712-7.6267-1.8204-10.932-1.8295-0.55385 0-1.2303-9e-3 -1.7115 0zm-59.23 18.572c-1.0623 0.0136-2.0792 0.0636-3.0779 0.22245-1.026 0.19067-2.8419 0.83985-3.9859 1.371-5.9289 2.9281-3.9995 8.689 3.9859 12.53 3.6136 1.7478 7.1682 2.5786 11.504 2.6149 4.5624 0.0363 7.4814-0.78992 9.5697-2.7329 1.2575-1.2166 1.48-1.6298 1.48-3.0734 0-3.5773-3.4411-6.8322-9.4517-8.9977-3.3639-1.2257-6.8322-1.9793-10.024-1.9339zm87.816 1.5934c-0.86708 0.0136-1.548 0.22698-2.1609 0.34047-4.4489 0.79899-6.8323 2.574-6.8323 5.2388 0 1.8976 0.71728 3.2595 2.6194 5.0118 4.1811 3.9904 11.304 6.2239 17.882 5.8063 4.1448-0.26784 5.8471-0.79444 7.6358-2.5059 1.1758-1.1032 1.4754-1.7069 1.4754-2.8464 0-4.0676-4.8121-7.9717-12.189-10.024-2.397-0.65825-5.829-1.0668-8.4302-1.0214zm-144.31 7.8582c-1.6388 0-2.1654 0.22698-3.3049 1.253-1.7886 1.5571-2.7011 3.4456-3.1914 6.4918-0.95333 6.0424 1.4709 13.66 5.9198 18.109 4.3763 4.3763 9.1475 4.34 11.622-0.22245 3.1914-5.8925 1.4164-16.093-3.9859-22.104-2.2063-2.4333-4.4353-3.5273-7.0592-3.5273zm84.171 11.849c-2.1291 0-4.5942 0.18159-5.4658 0.44943-3.6545 1.1395-5.4658 3.0008-5.4658 5.6973 0 1.9021 0.86709 3.264 3.1914 5.3523 4.0676 3.6545 9.2519 5.3568 16.288 5.3568 4.1448 0 4.9301-0.15434 6.6007-0.91247 5.2524-2.3606 5.779-6.4146 1.253-10.482-3.9132-3.5001-9.9374-5.4976-16.402-5.4613zm87.598 20.955c-0.78537 0.0409-1.6933 0.24061-2.6239 0.56747-9.6196 3.4229-17.741 18.141-13.097 23.693 3.8769 4.6033 14.078-0.93064 19.021-10.364 4.0948-7.7856 2.1927-14.187-3.3004-13.896zm-118.47 9.7967c-0.98511 0-2.1927 0.11355-2.6149 0.34047-2.8872 1.5571-4.4035 4.5125-4.6668 9.0022-0.42219 5.8925 1.9294 12.18 5.9198 16.511 2.5513 2.742 4.4761 3.7589 7.2862 3.7589 2.7783 0 4.5216-1.1304 5.9289-3.9813 4.4852-9.1657-3.1415-25.667-11.853-25.631zm-34.393 12.648c-0.73543 0.0681-1.5889 0.31779-2.2835 0.67642-1.2893 0.68549-1.9702 1.3664-2.8419 2.9644-2.2472 4.1448-1.6388 11.912 1.3664 17.541 3.4229 6.4282 9.1793 9.5697 12.87 7.0592 2.8918-1.9385 3.9859-4.6941 3.7589-10.246-0.26785-5.8925-2.2381-10.932-6.0424-14.695-2.3062-2.338-4.626-3.5092-6.8277-3.3004zm-32.123 12.071c-0.41312-0.0227-0.72181 0.24514-1.4845 0.45851-2.9281 0.87163-4.6714 4.5034-4.6714 9.3336 0 3.7271 0.56747 6.6007 2.5059 10.482 3.2368 6.6507 8.8434 9.8375 12.648 7.2908 4.2582-2.7783 4.4898-12.407 0.57199-19.82-1.7886-3.3094-4.9346-6.4555-7.4088-7.1773-1.1213-0.34503-1.7432-0.54477-2.1609-0.56747zm146.25 10.251c-1.2984 0.0908-2.692 0.50845-3.9813 1.1349-5.7064 2.7011-10.895 9.0295-12.53 15.267-0.76267 2.7374-0.72182 4.3627 0.11343 6.2648 0.9488 2.0928 2.5332 2.9599 5.1208 2.7329 5.5884-0.45851 12.071-5.9516 15.489-13.329 2.2472-4.7939 1.9067-10.133-0.79444-11.504-0.89433-0.47213-2.12-0.66279-3.4184-0.56746zm-96.024 33.485c-0.44489 0.059-0.83076 0.32686-1.1349 0.45851-1.1395 0.45851-2.8509 2.0837-3.5319 3.7589-2.969 7.1137 1.9612 20.306 8.7707 23.688 5.1299 2.5513 9.0703-0.0227 10.137-6.4872 1.253-7.6449-3.8633-18.259-10.024-20.842-1.0532-0.43127-2.8782-0.73997-4.2174-0.57654zm56.842 11.054c-1.1667 0.0454-1.8477 0.28147-3.7589 1.253-7.5677 3.7634-14.091 14.037-12.643 20.047 0.83531 3.5001 3.718 4.7031 7.8628 3.4139 8.8615-2.7783 17.242-15.367 14.464-21.868-0.83531-2.0156-1.9294-2.6966-4.5533-2.8464-0.53567-0.0272-0.98057-0.0136-1.371 0z" fill="#fff" stroke-width="1.1622"/><path d="m145.17 33.401c-0.59016 0.0093-1.2212 0.09018-1.825 0.22642-2.5513 0.5947-77.987 16.207-79.163 16.52-1.8295 0.48575-4.5948 2.3833-5.4664 4.0994-1.1622 2.2744-37.411 107.8-37.706 110.49-0.12256 1.1531 0.21792 3.1086 0.572 4.2117 0.12896 0.40298 0.25092 0.76019 0.43411 1.1236 5.6841-17.915 35.644-105.04 36.7-107.11 0.87162-1.716 3.6369-3.6136 5.4664-4.0994 1.1758-0.31324 76.612-15.925 79.163-16.52 0.60377-0.13624 1.2348-0.21712 1.825-0.22642 1.7614-0.02723 3.4598 0.56292 4.8944 1.5934 1.3302 0.95334 80.939 56.274 84.294 59.461 1.179 1.1211 2.1324 2.2198 2.7698 3.4627 0.37393-1.5604 0.63664-2.8231 0.76097-3.7487 0.50394-3.8043-1.0339-6.056-3.5308-8.4302-3.3548-3.1869-82.964-58.508-84.294-59.461-1.4346-1.0305-3.1329-1.6207-4.8944-1.5934z" fill="#fff" opacity=".1" stroke-width=".87162"/><path d="m274.21 127.96c-0.26216-5e-3 -0.55158 3e-3 -0.87844 0.0392-4.576 0.50391-15.663 3.8179-50.804 14.123-38.751 11.331-48.747 14.39-50.004 15.262-0.83531 0.6083-1.5934 1.2178-1.5934 1.4811-0.47667-0.34047-0.67132-0.20543-1.4794 1.0248-0.53568 0.79899-1.1764 1.9754-1.367 2.62-0.23152 0.60833-4.8166 24.823-10.255 53.877-7.5268 40.008-9.9828 53.269-9.7922 54.449 0.1498 0.87616 0.75813 2.4293 1.253 3.5324 0.11115 0.22751 0.27028 0.48106 0.53456 0.81374 0.37809-3.5885 3.0545-17.987 9.7479-53.566 5.4386-29.054 10.024-53.269 10.255-53.877 0.19066-0.64463 0.83133-1.821 1.367-2.62 0.80806-1.2303 1.0027-1.3653 1.4794-1.0248 0-0.2633 0.75813-0.87277 1.5934-1.4811 1.2575-0.87163 11.253-3.9308 50.004-15.262 35.142-10.305 46.228-13.619 50.804-14.123 0.65373-0.0726 1.1576-0.0317 1.5934 0 1.1667 0.0772 1.7745 0.3138 2.7323 0.795 1.1395 0.61288 21.378 15.239 44.88 32.463 34.941 25.646 42.052 31.889 43.934 33.975 0.0987-1.5106-0.18293-3.0634-1.0248-4.3479-0.8126-1.2348-3.1999-4.4313-44.652-34.856-23.502-17.224-43.741-31.85-44.88-32.463-0.95786-0.4812-1.5656-0.71783-2.7323-0.79501-0.21791-0.0159-0.45284-0.034-0.71501-0.0392z" fill="#fff" opacity=".2" stroke-width=".87162"/><path transform="scale(.75)" d="m490.61 263.69c-1.6155 8.3244-8.6957 35.575-17.717 70.305-14.249 54.768-18.681 70.516-19.746 72.289-0.76266 1.2711-2.4814 3.246-3.7949 4.1055-1.4707 1.0107-25.096 9.9506-65.463 25.059-60.541 22.613-63.223 23.641-66.521 23.689-2.8388 0.0424-4.448-0.72579-6.6816-2.2754-1.0053-0.70133-26.427-22.033-56.189-47.691-49.441-42.595-54.271-46.977-55.434-49.355-0.39985-0.89138-0.8404-1.987-1.1816-2.9844-0.39307 2.5194-0.54947 3.8966-0.48828 4.2754 0.19973 1.1682 1.0101 3.238 1.6699 4.709 1.1622 2.3788 5.9927 6.7605 55.434 49.355 29.763 25.659 55.184 46.99 56.189 47.691 2.2336 1.5496 3.8428 2.3178 6.6816 2.2754 3.2989-0.0484 5.9804-1.0762 66.521-23.689 40.367-15.108 63.992-24.048 65.463-25.059 1.3135-0.85952 3.0323-2.8344 3.7949-4.1055 1.0653-1.7735 5.4968-17.521 19.746-72.289 10.036-38.636 17.694-68.096 18.068-72.441 0.1155-1.2928 0.01449-2.6178-0.35156-3.8633z" opacity=".3"/><path transform="scale(.75)" d="m318.7 464.91c0.56022-0.06838 0.9562-0.04952 1.9414-0.32031 1.6612-0.45661 4.1963-1.2968 8.5215-2.8418 8.6503-3.09 24.456-9 54.727-20.307 20.183-7.554 36.182-13.567 47.318-17.816 11.136-4.2498 17.409-6.7368 18.145-7.2422 0.65675-0.42976 1.4142-1.1388 2.1035-1.8984 0.68928-0.75965 1.3101-1.5715 1.6914-2.207 0.53266-0.88674 1.9077-5.2665 4.9297-16.271 3.022-11.005 7.6917-28.634 14.816-56.018 5.0179-19.318 9.4406-36.342 12.656-49.08 3.2157-12.738 5.2248-21.189 5.4121-23.361 0.09382-1.0502 0.04527-2.1215-0.17188-3.1543-0.05121-0.24357-0.21071-0.45095-0.28125-0.68945-6.3704 0.72301-21.734 5.3128-70.141 19.508-53.578 15.666-67.399 19.897-69.139 21.102-1.1549 0.84107-2.2031 1.6809-2.2031 2.0449-0.65905-0.47074-0.9276-0.28111-2.0449 1.4199-0.74064 1.1047-1.6271 2.7299-1.8906 3.6211-0.3201 0.84109-6.6585 34.32-14.178 74.49-10.407 55.316-13.803 73.652-13.539 75.283 0.15857 0.92744 0.7793 2.413 1.3262 3.7383z" opacity=".2"/><path transform="scale(.75)" d="m28.688 224.88c0.33907-0.0301 0.26688-0.01533 0.61914-0.04687 9.4517-0.84625 23.702-2.2128 45.395-4.3965 17.459-1.749 33.224-3.4535 44.793-4.7695 11.569-1.316 18.942-2.2434 19.613-2.4453 1.3006-0.39018 2.5013-1.0275 3.5059-1.6992s1.8137-1.3777 2.334-1.9082c1.0953-1.1089 2.5737-3.6091 2.916-4.4648 0.34913-0.86248 11.602-38.175 25.08-82.785 8.6386-28.596 14.431-47.6 18.195-60.43 1.882-6.4149 3.2569-11.286 4.2266-15.041 0.2329-0.90181 0.24407-1.225 0.43165-2.0039-0.73922-0.15532-1.4698-0.35954-2.2363-0.34766v-0.003906c-0.78688 0.012134-1.6285 0.12116-2.4336 0.30274-3.4017 0.79293-103.98 21.608-105.55 22.025-2.4393 0.64767-6.125 3.1787-7.2871 5.4668-1.5496 3.0325-49.884 143.73-50.277 147.32-0.15196 1.4296 0.24189 3.7206 0.67578 5.2266z" opacity=".05"/></svg>
