<svg width="512" height="512" version="1.1" viewBox="0 0 384 384" xmlns="http://www.w3.org/2000/svg" xmlns:xlink="http://www.w3.org/1999/xlink"><defs><clipPath id="c"><path d="m111 119h177v23h-177z"/></clipPath><clipPath id="b"><path d="m177 130h45v89h-45z"/></clipPath><clipPath id="a"><path d="m111 207h177v89h-177z"/></clipPath><clipPath id="d"><rect width="384" height="384"/></clipPath><g clip-path="url(#d)"></g><clipPath><rect width="384" height="384"/></clipPath><clipPath><rect width="384" height="384"/></clipPath><clipPath><rect width="384" height="384"/></clipPath><clipPath><rect width="384" height="384"/></clipPath><clipPath><rect width="384" height="384"/></clipPath><clipPath><rect width="384" height="384"/></clipPath><clipPath><rect width="384" height="384"/></clipPath><clipPath><rect width="384" height="384"/></clipPath><clipPath><rect width="384" height="384"/></clipPath><clipPath><rect width="384" height="384"/></clipPath><clipPath><rect width="384" height="384"/></clipPath><clipPath><rect width="384" height="384"/></clipPath><clipPath><rect width="384" height="384"/></clipPath><clipPath><rect width="384" height="384"/></clipPath><clipPath><rect width="384" height="384"/></clipPath><clipPath><rect width="384" height="384"/></clipPath><clipPath><rect width="384" height="384"/></clipPath><clipPath><rect width="384" height="384"/></clipPath><clipPath><rect width="384" height="384"/></clipPath><clipPath><rect width="384" height="384"/></clipPath><clipPath><rect width="384" height="384"/></clipPath><clipPath><rect width="384" height="384"/></clipPath><clipPath><rect width="384" height="384"/></clipPath><clipPath><rect width="384" height="384"/></clipPath><clipPath><rect width="384" height="384"/></clipPath><clipPath><rect width="384" height="384"/></clipPath><clipPath><rect width="384" height="384"/></clipPath><clipPath><rect width="384" height="384"/></clipPath><clipPath><rect width="384" height="384"/></clipPath><clipPath><rect width="384" height="384"/></clipPath><clipPath><rect width="384" height="384"/></clipPath><clipPath><rect width="384" height="384"/></clipPath><clipPath><rect width="384" height="384"/></clipPath><clipPath><rect width="384" height="384"/></clipPath><clipPath><rect width="384" height="384"/></clipPath><clipPath><rect width="384" height="384"/></clipPath><clipPath><rect width="384" height="384"/></clipPath><clipPath><rect width="384" height="384"/></clipPath><clipPath><rect width="384" height="384"/></clipPath><clipPath><rect width="384" height="384"/></clipPath><clipPath><rect width="384" height="384"/></clipPath><clipPath><rect width="384" height="384"/></clipPath><clipPath><rect width="384" height="384"/></clipPath><clipPath><rect width="384" height="384"/></clipPath><clipPath><rect width="384" height="384"/></clipPath><clipPath><rect width="384" height="384"/></clipPath><clipPath><rect width="384" height="384"/></clipPath><clipPath><rect width="384" height="384"/></clipPath><clipPath><rect width="384" height="384"/></clipPath><clipPath><rect width="384" height="384"/></clipPath><clipPath id="g"><path d="m111 119h177v23h-177z"/></clipPath><clipPath><path d="m368.64 199.88c0-93.234-75.602-168.75-168.75-168.75-93.152 0-168.75 75.516-168.75 168.75s75.598 168.75 168.75 168.75c93.148 0 168.75-75.516 168.75-168.75z"/></clipPath><clipPath id="f"><path d="m177 130h45v89h-45z"/></clipPath><clipPath><path d="m368.64 199.88c0-93.234-75.602-168.75-168.75-168.75-93.152 0-168.75 75.516-168.75 168.75s75.598 168.75 168.75 168.75c93.148 0 168.75-75.516 168.75-168.75z"/></clipPath><clipPath id="e"><path d="m111 207h177v89h-177z"/></clipPath><clipPath><path d="m368.64 199.88c0-93.234-75.602-168.75-168.75-168.75-93.152 0-168.75 75.516-168.75 168.75s75.598 168.75 168.75 168.75c93.148 0 168.75-75.516 168.75-168.75z"/></clipPath><clipPath id="h"><rect width="384" height="384"/></clipPath><g clip-path="url(#h)"><g clip-path="url(#g)"></g><g clip-path="url(#f)"></g><g clip-path="url(#e)"></g></g><clipPath><rect width="384" height="384"/></clipPath><clipPath><rect width="384" height="384"/></clipPath><clipPath><rect width="384" height="384"/></clipPath><clipPath><rect width="384" height="384"/></clipPath><clipPath><rect width="384" height="384"/></clipPath><clipPath><rect width="384" height="384"/></clipPath><clipPath><rect width="384" height="384"/></clipPath><clipPath><rect width="384" height="384"/></clipPath><clipPath><rect width="384" height="384"/></clipPath><clipPath><rect width="384" height="384"/></clipPath><clipPath><rect width="384" height="384"/></clipPath></defs><g fill="#fff"><path d="m192.05 24.645c-77.906 0-143.07 53.441-161.7 125.52h323.43c-18.691-72.074-83.82-125.52-161.7-125.52m-161.86 209.2c18.633 72.074 83.82 125.52 161.7 125.52 78.02 0 143.18-53.441 161.81-125.52h-323.43" opacity=".2" stroke="#000" stroke-width="7.5"/><path d="m192.05 24.645c-77.906 0-143.07 53.441-161.7 125.52h323.43c-18.691-72.074-83.82-125.52-161.7-125.52"/><path d="m30.223 233.84c18.633 72.074 83.82 125.52 161.7 125.52 78.02 0 143.18-53.441 161.81-125.52h-323.43"/><path d="m30.363 233.84"/></g><path d="m38.633 150.16h306.83v83.68h-306.83" fill="#191919" style="fill:#272a34"/><g fill="#d41717"><path d="m219.94 192c0 15.41-12.48 27.891-27.895 27.891-15.41 0-27.891-12.48-27.891-27.891s12.48-27.891 27.891-27.891c15.414 0 27.895 12.48 27.895 27.891"/><path d="m122.32 192c0 15.41-12.484 27.891-27.895 27.891-15.414 0-27.895-12.48-27.895-27.891s12.48-27.891 27.895-27.891c15.41 0 27.895 12.48 27.895 27.891"/><path d="m317.57 192c0 15.41-12.48 27.891-27.895 27.891-15.41 0-27.895-12.48-27.895-27.891s12.484-27.891 27.895-27.891c15.414 0 27.895 12.48 27.895 27.891"/></g><path d="m30.223 233.84c18.633 72.074 83.82 125.52 161.7 125.52 78.016 0 143.18-53.441 161.81-125.52h-2.1328c-21.086 68.25-84.391 118.02-159.68 118.02-75.152 0-138.48-49.766-159.57-118.02z" opacity=".1"/><path d="m192.05 24.645c-77.906 0-143.07 53.441-161.7 125.52h2.1367c21.082-68.25 84.387-118.02 159.56-118.02h0.0273c75.152 0 138.43 49.766 159.56 118.02h2.1406c-18.691-72.074-83.82-125.52-161.7-125.52z" opacity=".1"/><g fill="#fff" stroke-width="1.3333"><path transform="scale(.75)" d="m219.01 253c-0.0791 0.99083-0.13086 1.9887-0.13086 3 0 20.547 16.641 37.188 37.188 37.188 20.552 0 37.193-16.641 37.193-37.188 0-1.0113-0.05371-2.0092-0.13281-3-1.5281 19.141-17.52 34.188-37.061 34.188-19.536 0-35.529-15.047-37.057-34.188z" opacity=".2"/><path transform="scale(.75)" d="m88.834 253c-0.079103 0.99083-0.13086 1.9887-0.13086 3 0 20.547 16.641 37.188 37.193 37.188 20.547 0 37.191-16.641 37.191-37.188 0-1.0113-0.05173-2.0092-0.13086-3-1.5286 19.141-17.525 34.188-37.061 34.188-19.541 0-35.534-15.047-37.062-34.188z" opacity=".2"/><path transform="scale(.75)" d="m349.17 253c-0.07913 0.99085-0.13281 1.9887-0.13281 3 0 20.547 16.646 37.188 37.193 37.188 20.552 0 37.193-16.641 37.193-37.188 0-1.0113-0.0537-2.0092-0.13281-3-1.5281 19.141-17.52 34.188-37.061 34.188-19.536 0-35.532-15.047-37.061-34.188z" opacity=".3"/></g><g stroke-width="1.3333"><path transform="scale(.75)" d="m43.309 190.21c-1.0205 3.3032-1.9755 6.6338-2.8457 10h431.24c-0.87294-3.3661-1.8286-6.6969-2.8516-10h-425.54z" opacity=".3"/><path transform="scale(.75)" d="m40.297 311.79c0.87024 3.3662 1.8251 6.6968 2.8457 10h425.66c1.0205-3.3032 1.9755-6.6338 2.8457-10h-431.35z" opacity=".3"/><path transform="scale(.75)" d="m125.9 218.81c-20.552 0-37.193 16.641-37.193 37.188-1e-6 1.0113 0.05175 2.0092 0.13086 3 1.5282-19.141 17.522-34.188 37.062-34.188 19.536 0 35.53 15.047 37.059 34.188 0.07912-0.99085 0.13281-1.9887 0.13281-3 0-20.547-16.645-37.188-37.191-37.188zm130.17 0c-20.547 0-37.188 16.641-37.188 37.188 0 1.0113 0.05175 2.0092 0.13086 3 1.5281-19.141 17.521-34.188 37.057-34.188 19.541 0 35.532 15.047 37.061 34.188 0.07911-0.99085 0.13281-1.9887 0.13281-3 0-20.547-16.641-37.188-37.193-37.188zm130.17 0c-20.547 0-37.193 16.641-37.193 37.188 0 1.0113 0.05172 2.0092 0.13086 3 1.5286-19.141 17.527-34.188 37.062-34.188 19.541 0 35.532 15.047 37.061 34.188 0.07911-0.99085 0.13281-1.9887 0.13281-3 0-20.547-16.641-37.188-37.193-37.188z" fill="#030303" opacity=".3"/></g></svg>
