<svg version="1.1" viewBox="0 0 512 512" xmlns="http://www.w3.org/2000/svg"><defs><clipPath><rect width="384" height="384"/></clipPath></defs><g fill="#fff"><circle cx="256" cy="256" r="225" opacity=".3" stroke="#000" stroke-linecap="round" stroke-linejoin="round" stroke-width="20"/><circle cx="256" cy="256" r="225"/></g><circle cx="256" cy="256" r="138.96" fill="none" stroke="#a400a4" stroke-linecap="round" stroke-linejoin="round" stroke-width="44.661"/><path d="m386.2 228.56c-13.807 1e-3 -24.999 11.193-25 25v1.8262c1e-3 13.807 11.193 24.999 25 25h45.289c13.807-1e-3 24.999-11.193 25-25v-1.8262c-1e-3 -13.807-11.193-24.999-25-25z" color="#000000" fill="#a400a4" stroke="#fff" stroke-linecap="round" stroke-linejoin="round" stroke-width="15"/><path d="m80.508 228.56c-13.807 1e-3 -24.999 11.193-25 25v1.8262c0.0014 13.807 11.193 24.999 25 25h45.289c13.807-1e-3 24.999-11.193 25-25v-1.8262c-1e-3 -13.807-11.193-24.999-25-25z" color="#000000" fill="#a400a4" stroke="#fff" stroke-linecap="round" stroke-linejoin="round" stroke-width="15"/><path transform="rotate(-90)" d="m-124.28 230.09c-13.807 1e-3 -24.999 11.193-25 25v1.8281c1e-3 13.807 11.193 24.999 25 25h45.291c13.807-1e-3 24.999-11.193 25-25v-1.8281c-0.0014-13.807-11.193-24.999-25-25z" color="#000000" fill="#a400a4" stroke="#fff" stroke-linecap="round" stroke-linejoin="round" stroke-width="15"/><path transform="rotate(-90)" d="m-429.97 230.09c-13.807 1e-3 -24.999 11.193-25 25v1.8281c1e-3 13.807 11.193 24.999 25 25h45.289c13.807-1e-3 24.999-11.193 25-25v-1.8281c-1e-3 -13.807-11.193-24.999-25-25z" color="#000000" fill="#a400a4" stroke="#fff" stroke-linecap="round" stroke-linejoin="round" stroke-width="15"/></svg>
