<svg width="512" height="512" version="1.1" viewBox="0 0 384 384" xmlns="http://www.w3.org/2000/svg"><defs><clipPath><rect width="384" height="384"/></clipPath><clipPath><rect width="384" height="384"/></clipPath><clipPath><rect width="384" height="384"/></clipPath></defs><path d="m360 343.2v-302.39c0-9.2773-7.5234-16.797-16.801-16.797h-302.39c-9.2773 0-16.797 7.5195-16.797 16.797v302.39c0 9.2773 7.5195 16.801 16.797 16.801h302.39c9.2773 0 16.801-7.5234 16.801-16.801z" fill="#4aaee6"/><path d="m108 79.504c-19.883 0-36 16.117-36 36 0 19.883 16.117 36 36 36 19.879 0 36-16.117 36-36 0-19.883-16.121-36-36-36zm83.996 0c-19.879 0-35.996 16.117-35.996 36 0 19.883 16.117 36 35.996 36 19.883 0 36-16.117 36-36 0-19.883-16.117-36-36-36zm83.996 0.0044c-19.879 0-36 16.117-36 36 0 19.879 16.121 36 36 36 19.883 0 36-16.121 36-36 0-19.883-16.117-36-36-36zm-83.991 83.993c-19.883 0-36 16.117-36 36s16.117 36 36 36c19.883 0 36-16.117 36-36s-16.117-36-36-36zm-84 3e-3c-19.883 0-36 16.117-36 36 0 19.879 16.117 36 36 36 19.879 0 36-16.121 36-36 0-19.883-16.121-36-36-36zm168 0c-19.883 0-36 16.117-36 36 0 19.879 16.117 36 36 36 19.883 0 36-16.121 36-36 0-19.883-16.117-36-36-36zm-168 83.997c-19.883 0-36 16.117-36 36s16.117 36 36 36 36-16.117 36-36-16.117-36-36-36zm83.996 0c-19.879 0-35.996 16.121-35.996 36 0 19.883 16.117 36 35.996 36 19.883 0 36-16.117 36-36 0-19.879-16.117-36-36-36zm84 0c-19.883 0-36 16.121-36 36 0 19.883 16.117 36 36 36 19.883 0 36-16.117 36-36 0-19.879-16.117-36-36-36z" opacity=".3"/><g fill="#f8de66"><path d="m228 192c0-19.883-16.117-36-36-36s-36 16.117-36 36 16.117 36 36 36 36-16.117 36-36z"/><path d="m311.99 108.01c0-19.883-16.117-36-36-36-19.879 0-36 16.117-36 36 0 19.879 16.121 36 36 36 19.883 0 36-16.121 36-36z"/><path d="m144 276c0-19.883-16.117-36-36-36-19.883 0-36 16.117-36 36s16.117 36 36 36c19.883 0 36-16.117 36-36z"/></g><g fill="#fcfcfc"><path d="m144 192c0-19.883-16.121-36-36-36-19.883 0-36 16.117-36 36 0 19.879 16.117 36 36 36 19.879 0 36-16.121 36-36z"/><path d="m312 192c0-19.883-16.117-36-36-36-19.883 0-36 16.117-36 36 0 19.879 16.117 36 36 36 19.883 0 36-16.121 36-36z"/><path d="m228 108c0-19.883-16.117-36-36-36-19.879 0-35.996 16.117-35.996 36 0 19.883 16.117 36 35.996 36 19.883 0 36-16.117 36-36z"/><path d="m144 108c0-19.883-16.121-36-36-36-19.883 0-36 16.117-36 36 0 19.883 16.117 36 36 36 19.879 0 36-16.117 36-36z"/><path d="m228 276c0-19.879-16.117-36-36-36-19.879 0-35.996 16.121-35.996 36 0 19.883 16.117 36 35.996 36 19.883 0 36-16.117 36-36z"/><path d="m312 276c0-19.879-16.117-36-36-36-19.883 0-36 16.121-36 36 0 19.883 16.117 36 36 36 19.883 0 36-16.117 36-36z"/></g><path transform="scale(.75)" d="m32.01 447.6v10c0 12.37 10.027 22.4 22.396 22.4h403.19c12.37 0 22.4-10.031 22.4-22.4v-10c0 12.37-10.031 22.4-22.4 22.4h-403.19c-12.37 0-22.396-10.031-22.396-22.4z" fill="#02080c" opacity=".3" stroke-width="1.3333"/><path transform="scale(.75)" d="m54.406 32.01c-12.37 0-22.396 10.027-22.396 22.396v12c0-12.37 10.027-22.396 22.396-22.396h403.19c12.37 0 22.4 10.027 22.4 22.396v-12c0-12.37-10.031-22.396-22.4-22.396h-403.19z" fill="#fff" opacity=".3" stroke-width="1.3333"/></svg>
