<svg width="512" height="512" version="1.1" viewBox="0 0 135.47 135.47" xmlns="http://www.w3.org/2000/svg"><g transform="matrix(1.0444 0 0 1.0444 -3.204 -171.71)"><path d="m23.221 176.09v66.222c0 9.4651 9.3645 22.539 18.943 28.972l26.082 17.517 25.813-17.517c9.5475-6.4791 18.943-19.507 18.943-28.972v-66.222c-29.665-8.7742-59.61-8.1596-89.78 0z" fill="#265ab1"/><path d="m29.924 186.24v55.775c0 7.972 10.945 19.391 15.955 24.402v-56.446l14.748 13.274v23.597h14.212v-23.597l14.748-13.274v56.446c5.0103-5.0103 15.955-16.43 15.955-24.402v-55.775h-15.151l-22.658 21.586-22.659-21.586z" opacity=".3"/><path d="m29.924 183.6v55.775c0 7.972 10.945 19.391 15.955 24.402v-56.446l14.748 13.274v23.597h14.212v-23.597l14.748-13.274v56.446c5.0103-5.0103 15.955-16.43 15.955-24.402v-55.775h-15.151l-22.658 21.586-22.659-21.586z" fill="#fff"/><path transform="matrix(.26458 0 0 .26458 0 161.53)" d="m256.72 31.008c-56.563 0.29037-113.37 8.5802-170.38 24v10c114.03-30.84 227.21-33.163 339.33 0v-10c-56.06-16.581-112.38-24.29-168.95-24z" fill="#fff" opacity=".2"/><path transform="matrix(.26458 0 0 .26458 0 161.53)" d="m86.336 295.29v10c0 35.774 35.393 85.186 71.596 109.5l98.576 66.205 97.561-66.205c36.085-24.488 71.596-73.726 71.596-109.5v-10c0 35.774-35.511 85.012-71.596 109.5l-97.561 66.205-98.576-66.205c-36.202-24.314-71.596-73.726-71.596-109.5z" opacity=".3"/><path d="m67.923 169.74c-0.01826 1e-4 -0.03652 4.2e-4 -0.05478 5.2e-4v119.06l25.812-17.517c9.5475-6.4791 18.943-19.506 18.943-28.971v-66.222c-14.832-4.3871-29.735-6.4268-44.701-6.35z" opacity=".2"/></g></svg>
