<svg width="512" height="512" version="1.1" viewBox="0 0 384 384" xmlns="http://www.w3.org/2000/svg"><defs><clipPath><rect width="384" height="384"/></clipPath><clipPath><rect width="384" height="384"/></clipPath><clipPath><rect width="384" height="384"/></clipPath></defs><path d="m360 343.2v-302.39c0-9.2773-7.5234-16.797-16.801-16.797h-302.39c-9.2773 0-16.797 7.5195-16.797 16.797v302.39c0 9.2773 7.5195 16.801 16.797 16.801h302.39c9.2773 0 16.801-7.5234 16.801-16.801z" style="fill:#ca2828"/><path d="m60.002 103.5v120h48v-120zm72 0v192h47.996v-120h24v120h48v-120h24v120h48v-192zm-72 144v48h48v-48z" style="opacity:.3"/><path d="m60.002 96.002v120h48v-120zm72 0v192h47.996v-120h24v120h48v-120h24v120h48v-192zm-72 144v48h48v-48z" style="fill:#fff"/><path transform="scale(.75)" d="m32.006 447.59v10c0 12.37 10.025 22.4 22.395 22.4h403.19c12.37 0 22.4-10.031 22.4-22.4v-10c0 12.37-10.031 22.4-22.4 22.4h-403.19c-12.37 0-22.395-10.031-22.395-22.4z" style="fill:#0c0202;opacity:.3;stroke-width:1.3333"/><path d="m40.8 24.004c-9.2774 0-16.796 7.5186-16.796 16.796v7.5c0-9.2774 7.5186-16.796 16.796-16.796h302.4c9.2774 0 16.8 7.5185 16.8 16.796v-7.5c0-9.2773-7.5229-16.796-16.8-16.796z" style="fill:#fff;opacity:.2"/></svg>
