<?xml version="1.0" encoding="UTF-8" standalone="no"?>
<!-- Created with Inkscape (http://www.inkscape.org/) -->

<svg
   xmlns:dc="http://purl.org/dc/elements/1.1/"
   xmlns:cc="http://creativecommons.org/ns#"
   xmlns:rdf="http://www.w3.org/1999/02/22-rdf-syntax-ns#"
   xmlns:svg="http://www.w3.org/2000/svg"
   xmlns="http://www.w3.org/2000/svg"
   xmlns:sodipodi="http://sodipodi.sourceforge.net/DTD/sodipodi-0.dtd"
   xmlns:inkscape="http://www.inkscape.org/namespaces/inkscape"
   version="1.1"
   width="512"
   height="512"
   id="svg2"
   inkscape:version="0.48.5 r10040"
   sodipodi:docname="frozen-bubble.svg">
  <sodipodi:namedview
     pagecolor="#ffffff"
     bordercolor="#666666"
     borderopacity="1"
     objecttolerance="10"
     gridtolerance="10"
     guidetolerance="10"
     inkscape:pageopacity="0"
     inkscape:pageshadow="2"
     inkscape:window-width="1234"
     inkscape:window-height="641"
     id="namedview6"
     showgrid="false"
     inkscape:zoom="0.37416413"
     inkscape:cx="264.23469"
     inkscape:cy="151.62922"
     inkscape:window-x="15"
     inkscape:window-y="39"
     inkscape:window-maximized="0"
     inkscape:current-layer="svg2" />
  <metadata
     id="metadata8">
    <rdf:RDF>
      <cc:Work
         rdf:about="">
        <dc:format>image/svg+xml</dc:format>
        <dc:type
           rdf:resource="http://purl.org/dc/dcmitype/StillImage" />
        <dc:title />
      </cc:Work>
    </rdf:RDF>
  </metadata>
  <defs
     id="defs6" />
  <rect
     style="fill:#2affd5;fill-opacity:1;fill-rule:evenodd;stroke:none"
     id="rect2984"
     width="459.69131"
     height="459.69131"
     x="28.071489"
     y="25.582449"
     ry="74.586349" />
  <path
     sodipodi:type="arc"
     style="fill:#ffffff;fill-opacity:1;fill-rule:nonzero;stroke:none"
     id="path3016"
     sodipodi:cx="231.9767"
     sodipodi:cy="242.37076"
     sodipodi:rx="109.13771"
     sodipodi:ry="109.13771"
     d="m 341.11441,242.37076 a 109.13771,109.13771 0 1 1 -218.27542,0 109.13771,109.13771 0 1 1 218.27542,0 z"
     transform="matrix(1.2937313,0,0,1.2437801,-42.000143,-33.448164)" />
  <path
     style="fill:#fab221"
     d="m 251.11448,385.1363 c -2.39102,-0.63305 -6.65007,-3.30402 -9.46457,-5.93551 -8.5838,-8.02561 -47.84101,-58.48456 -49.30641,-63.37561 -1.7582,-5.86833 -0.24188,-9.89409 4.85424,-12.88779 3.91702,-2.30105 5.63076,-2.3687 59.99481,-2.3687 62.00212,0 61.48521,-0.0598 64.60283,7.4668 1.23068,2.97116 1.1665,4.31893 -0.40112,8.42372 -1.51637,3.97054 -37.96162,51.60063 -47.30254,61.81943 -5.40916,5.91752 -15.33694,8.8805 -22.97724,6.85766 z"
     id="path3010"
     inkscape:connector-curvature="0" />
  <path
     inkscape:connector-curvature="0"
     id="path2987"
     d="m 247.13224,409.29171 c -18.29215,-1.63868 -36.87362,-6.26196 -52.37707,-13.03204 -17.06038,-7.44996 -38.85643,-23.08758 -52.22019,-37.46548 -3.90246,-4.19864 -7.79676,-7.61267 -8.65401,-7.58677 -0.85724,0.0257 -3.73461,3.53078 -6.39416,7.78862 -9.41367,15.07099 -25.91371,30.55059 -39.011442,36.59879 -2.53851,1.17222 -7.303905,2.35961 -10.589777,2.63866 -5.304609,0.45048 -6.323843,0.15781 -9.092608,-2.61094 -2.882019,-2.88204 -3.074057,-3.65741 -2.534289,-10.23231 0.588231,-7.16505 2.168985,-11.67508 15.660487,-44.68086 6.642912,-16.25129 13.068239,-35.43178 16.910886,-50.48131 1.770313,-6.93335 1.743253,-7.80615 -0.572296,-18.4619 -10.227934,-47.06722 3.815539,-92.06193 39.556649,-126.73786 31.4798,-30.54163 68.75656,-45.669014 119.12571,-48.342698 50.21686,-2.665624 107.53199,24.611268 138.17203,65.757508 8.94922,12.01783 18.55351,31.81452 22.4208,46.21447 2.79867,10.42095 3.10649,13.55059 3.17766,32.30833 0.061,16.08385 -0.42103,23.28937 -2.13674,31.93842 l -2.21556,11.16879 2.66261,10.17777 c 3.58838,13.71664 11.98758,37.40367 21.20239,59.79411 11.99522,29.1464 13.42486,38.09277 6.90656,43.22006 -6.08945,4.78996 -18.08014,2.26643 -31.01752,-6.52785 -8.30955,-5.64849 -22.4954,-20.34616 -28.74591,-29.78307 -2.51696,-3.80003 -4.96935,-7.38841 -5.44977,-7.9742 -0.48043,-0.58581 -5.70507,3.609 -11.61031,9.32179 -24.73165,23.92561 -48.50419,37.35254 -78.75021,44.47871 -9.09301,2.14238 -33.27929,3.50961 -44.42392,2.51126 z m 18.62811,-8.56029 c 31.89965,-3.20108 58.52986,-15.80335 80.79346,-38.23398 31.67051,-31.90812 47.58796,-77.65365 40.72131,-117.02989 -4.41373,-25.31032 -23.47656,-52.09859 -49.42339,-69.45289 -10.12943,-6.77497 -9.27229,-6.74388 -22.24906,-0.8067 -12.19973,5.58168 -22.78678,12.8358 -34.26006,23.47465 -12.44998,11.54452 -17.78849,14.53577 -24.13176,13.52146 -6.74108,-1.07794 -10.86418,-3.59667 -20.46342,-12.50066 -11.89263,-11.03128 -22.91472,-18.71642 -35.19299,-24.5382 -14.63204,-6.93786 -14.18551,-6.88844 -21.64769,-2.39498 -34.04739,20.50227 -55.39501,55.83118 -55.15204,91.27304 0.43923,64.06932 50.11135,125.1176 110.73345,136.09416 11.03204,1.99751 15.42656,2.08374 30.27219,0.59399 z m 35.16443,-128.03196 c -7.95787,-2.48301 -12.59372,-11.56515 -9.55044,-18.71033 4.83676,-11.35598 18.08565,-14.20365 25.43679,-5.46732 9.65805,11.47796 -1.61283,28.63126 -15.88635,24.17765 z M 201.2372,270.3847 c -6.00093,-3.65878 -7.68854,-11.09782 -4.3372,-19.11868 1.25814,-3.0112 3.04459,-4.64752 6.96917,-6.38355 6.37305,-2.8191 11.01225,-1.77611 16.2041,3.64301 2.8231,2.94669 3.32224,4.40487 3.32224,9.70559 0,4.57833 -0.60227,6.90345 -2.26379,8.73941 -5.40656,5.97418 -13.43578,7.35213 -19.89452,3.41422 z"
     style="fill:#333333" />
</svg>
