<?xml version="1.0" encoding="UTF-8" standalone="no"?>
<svg
   xmlns:dc="http://purl.org/dc/elements/1.1/"
   xmlns:cc="http://creativecommons.org/ns#"
   xmlns:rdf="http://www.w3.org/1999/02/22-rdf-syntax-ns#"
   xmlns:svg="http://www.w3.org/2000/svg"
   xmlns="http://www.w3.org/2000/svg"
   xmlns:sodipodi="http://sodipodi.sourceforge.net/DTD/sodipodi-0.dtd"
   xmlns:inkscape="http://www.inkscape.org/namespaces/inkscape"
   viewBox="0 0 128 128"
   id="svg2"
   version="1.1"
   inkscape:version="0.48.5 r10040"
   width="100%"
   height="100%"
   sodipodi:docname="gmpc.svg">
  <metadata
     id="metadata61">
    <rdf:RDF>
      <cc:Work
         rdf:about="">
        <dc:format>image/svg+xml</dc:format>
        <dc:type
           rdf:resource="http://purl.org/dc/dcmitype/StillImage" />
        <dc:title />
      </cc:Work>
    </rdf:RDF>
  </metadata>
  <sodipodi:namedview
     pagecolor="#ffffff"
     bordercolor="#666666"
     borderopacity="1"
     objecttolerance="10"
     gridtolerance="10"
     guidetolerance="10"
     inkscape:pageopacity="0"
     inkscape:pageshadow="2"
     inkscape:window-width="1095"
     inkscape:window-height="607"
     id="namedview59"
     showgrid="false"
     inkscape:zoom="2.4583333"
     inkscape:cx="68.969169"
     inkscape:cy="61.308944"
     inkscape:window-x="177"
     inkscape:window-y="73"
     inkscape:window-maximized="0"
     inkscape:current-layer="svg2" />
  <defs
     id="defs4">
    <linearGradient
       id="linearGradient3764"
       x1="1"
       x2="47"
       gradientUnits="userSpaceOnUse"
       gradientTransform="matrix(0,-1,1,0,-1.5e-6,47.999998)">
      <stop
         stop-color="#e4e4e4"
         stop-opacity="1"
         id="stop7" />
      <stop
         offset="1"
         stop-color="#eee"
         stop-opacity="1"
         id="stop9" />
    </linearGradient>
    <clipPath
       id="clipPath-725264839">
      <g
         transform="translate(0,-1004.3622)"
         id="g12">
        <path
           d="m -24,13 c 0,1.105 -0.672,2 -1.5,2 -0.828,0 -1.5,-0.895 -1.5,-2 0,-1.105 0.672,-2 1.5,-2 0.828,0 1.5,0.895 1.5,2 z"
           transform="matrix(15.333333,0,0,11.5,414.99999,878.8622)"
           id="path14"
           inkscape:connector-curvature="0"
           style="fill:#1890d0" />
      </g>
    </clipPath>
    <clipPath
       id="clipPath-730514797">
      <g
         transform="translate(0,-1004.3622)"
         id="g17">
        <path
           d="m -24,13 c 0,1.105 -0.672,2 -1.5,2 -0.828,0 -1.5,-0.895 -1.5,-2 0,-1.105 0.672,-2 1.5,-2 0.828,0 1.5,0.895 1.5,2 z"
           transform="matrix(15.333333,0,0,11.5,414.99999,878.8622)"
           id="path19"
           inkscape:connector-curvature="0"
           style="fill:#1890d0" />
      </g>
    </clipPath>
  </defs>
  <g
     id="g29"
     style="stroke:#8b8b8b;stroke-width:1.22994589999999993;stroke-miterlimit:4;stroke-opacity:1;stroke-dasharray:none;fill:#4d88c2;fill-opacity:1"
     transform="matrix(2.4391315,0,0,2.4391315,6.3082998,4.9523676)">
    <path
       d="M 24,1 C 36.703,1 47,11.297 47,24 47,36.703 36.703,47 24,47 11.297,47 1,36.703 1,24 1,11.297 11.297,1 24,1 z"
       id="path31"
       style="fill:#4d88c2;fill-opacity:1;stroke:#8b8b8b;stroke-width:3.60784149000000021;stroke-miterlimit:4;stroke-opacity:1;stroke-dasharray:none"
       inkscape:connector-curvature="0" />
  </g>
  <g
     id="g33"
     transform="translate(0,80)" />
  <g
     id="g35"
     transform="matrix(2.4656683,0,0,2.4656683,6.3599709,4.5290284)">
    <g
       clip-path="url(#clipPath-725264839)"
       id="g37">
      <g
         transform="translate(1,1)"
         id="g39">
        <g
           id="g41"
           style="opacity:0.1">
          <!-- color: #eeeeee -->
          <g
             id="g43">
            <path
               d="m 36,13.977 c 0,0 -2,3.01 -5,3.01 -2.797,-0.539 -3.906,-0.082 -4,0 l 0,12.11 c -0.133,2.551 -2.223,5.109 -5.336,6.285 -3.949,1.492 -8.125,0.195 -9.332,-2.91 -1.211,-3.098 1,-6.855 4.953,-8.348 3.059,-1.152 5.867,-0.867 7.715,0.867 l 0,-12.01 c 4,-2.664 7.719,0.957 11,1 m 0,-0.004"
               id="path45"
               inkscape:connector-curvature="0"
               style="fill:#000000;fill-opacity:1;fill-rule:nonzero;stroke:none" />
          </g>
        </g>
      </g>
    </g>
  </g>
  <g
     id="g47"
     transform="matrix(2.4656683,0,0,2.4656683,6.3599709,4.5290284)"
     style="fill:#f2f2f2">
    <g
       clip-path="url(#clipPath-730514797)"
       id="g49"
       style="fill:#f2f2f2">
      <!-- color: #eeeeee -->
      <g
         id="g51"
         style="fill:#f2f2f2">
        <path
           d="m 36,13.977 c 0,0 -2,3.01 -5,3.01 -2.797,-0.539 -3.906,-0.082 -4,0 l 0,12.11 c -0.133,2.551 -2.223,5.109 -5.336,6.285 -3.949,1.492 -8.125,0.195 -9.332,-2.91 -1.211,-3.098 1,-6.855 4.953,-8.348 3.059,-1.152 5.867,-0.867 7.715,0.867 l 0,-12.01 c 4,-2.664 7.719,0.957 11,1 m 0,-0.004"
           id="path53"
           inkscape:connector-curvature="0"
           style="fill:#f2f2f2;fill-opacity:1;fill-rule:nonzero;stroke:none" />
      </g>
    </g>
  </g>
</svg>
