<?xml version="1.0" encoding="UTF-8" standalone="no"?>
<!-- Created with Inkscape (http://www.inkscape.org/) -->

<svg
   xmlns:dc="http://purl.org/dc/elements/1.1/"
   xmlns:cc="http://creativecommons.org/ns#"
   xmlns:rdf="http://www.w3.org/1999/02/22-rdf-syntax-ns#"
   xmlns:svg="http://www.w3.org/2000/svg"
   xmlns="http://www.w3.org/2000/svg"
   xmlns:xlink="http://www.w3.org/1999/xlink"
   xmlns:sodipodi="http://sodipodi.sourceforge.net/DTD/sodipodi-0.dtd"
   xmlns:inkscape="http://www.inkscape.org/namespaces/inkscape"
   version="1.0"
   width="128"
   height="128"
   id="svg2408"
   inkscape:version="0.91 r"
   sodipodi:docname="lugaru.svg">
  <sodipodi:namedview
     pagecolor="#ffffff"
     bordercolor="#666666"
     borderopacity="1"
     objecttolerance="10"
     gridtolerance="10"
     guidetolerance="10"
     inkscape:pageopacity="0"
     inkscape:pageshadow="2"
     inkscape:window-width="1034"
     inkscape:window-height="633"
     id="namedview66"
     showgrid="false"
     inkscape:zoom="2.8284271"
     inkscape:cx="86.954712"
     inkscape:cy="89.859572"
     inkscape:window-x="15"
     inkscape:window-y="39"
     inkscape:window-maximized="0"
     inkscape:current-layer="svg2408" />
  <defs
     id="defs2410">
    <linearGradient
       id="linearGradient3855">
      <stop
         id="stop3857"
         style="stop-color:#ffffff;stop-opacity:1"
         offset="0" />
      <stop
         id="stop3859"
         style="stop-color:#ffffff;stop-opacity:0"
         offset="1" />
    </linearGradient>
    <linearGradient
       x1="45.447727"
       y1="92.539597"
       x2="45.447727"
       y2="7.0165396"
       id="ButtonShadow"
       gradientUnits="userSpaceOnUse"
       gradientTransform="scale(1.0058652,0.994169)">
      <stop
         id="stop3750"
         style="stop-color:#000000;stop-opacity:1"
         offset="0" />
      <stop
         id="stop3752"
         style="stop-color:#000000;stop-opacity:0.58823532"
         offset="1" />
    </linearGradient>
    <linearGradient
       id="linearGradient3737">
      <stop
         id="stop3739"
         style="stop-color:#ffffff;stop-opacity:1"
         offset="0" />
      <stop
         id="stop3741"
         style="stop-color:#ffffff;stop-opacity:0"
         offset="1" />
    </linearGradient>
    <linearGradient
       id="linearGradient3700">
      <stop
         id="stop3702"
         style="stop-color:#734f70;stop-opacity:1"
         offset="0" />
      <stop
         id="stop3704"
         style="stop-color:#b190b0;stop-opacity:1"
         offset="1" />
    </linearGradient>
    <filter
       id="filter3174"
       style="color-interpolation-filters:sRGB">
      <feGaussianBlur
         id="feGaussianBlur3176"
         stdDeviation="1.71" />
    </filter>
    <filter
       x="-0.192"
       y="-0.192"
       width="1.3839999"
       height="1.3839999"
       id="filter3794"
       style="color-interpolation-filters:sRGB">
      <feGaussianBlur
         id="feGaussianBlur3796"
         stdDeviation="5.28" />
    </filter>
    <linearGradient
       x1="48"
       y1="20.220806"
       x2="48"
       y2="138.66119"
       id="linearGradient3613"
       xlink:href="#linearGradient3737"
       gradientUnits="userSpaceOnUse" />
    <clipPath
       id="clipPath3613">
      <rect
         width="84"
         height="84"
         rx="6"
         ry="6"
         x="6"
         y="6"
         id="rect3615"
         style="fill:#ffffff;fill-opacity:1;fill-rule:nonzero;stroke:none" />
    </clipPath>
    <linearGradient
       x1="48"
       y1="90"
       x2="48"
       y2="5.9877172"
       id="linearGradient3617"
       xlink:href="#linearGradient3700"
       gradientUnits="userSpaceOnUse" />
    <linearGradient
       x1="45.447727"
       y1="92.539597"
       x2="45.447727"
       y2="7.0165396"
       id="ButtonShadow-0"
       gradientUnits="userSpaceOnUse"
       gradientTransform="matrix(1.0058652,0,0,0.994169,100,0)">
      <stop
         id="stop3750-8"
         style="stop-color:#000000;stop-opacity:1"
         offset="0" />
      <stop
         id="stop3752-5"
         style="stop-color:#000000;stop-opacity:0.58823532"
         offset="1" />
    </linearGradient>
    <linearGradient
       x1="32.251034"
       y1="6.1317081"
       x2="32.251034"
       y2="90.238609"
       id="linearGradient3780"
       xlink:href="#ButtonShadow-0"
       gradientUnits="userSpaceOnUse"
       gradientTransform="matrix(1.0238095,0,0,1.0119048,-1.1428571,-98.071429)" />
    <linearGradient
       x1="32.251034"
       y1="6.1317081"
       x2="32.251034"
       y2="90.238609"
       id="linearGradient3772"
       xlink:href="#ButtonShadow-0"
       gradientUnits="userSpaceOnUse"
       gradientTransform="matrix(1.0238095,0,0,1.0119048,-1.1428571,-98.071429)" />
    <linearGradient
       x1="32.251034"
       y1="6.1317081"
       x2="32.251034"
       y2="90.238609"
       id="linearGradient3725"
       xlink:href="#ButtonShadow-0"
       gradientUnits="userSpaceOnUse"
       gradientTransform="matrix(1.0238095,0,0,1.0119048,-1.1428571,-98.071429)" />
    <linearGradient
       x1="32.251034"
       y1="6.1317081"
       x2="32.251034"
       y2="90.238609"
       id="linearGradient3721"
       xlink:href="#ButtonShadow-0"
       gradientUnits="userSpaceOnUse"
       gradientTransform="translate(0,-97)" />
    <linearGradient
       x1="32.251034"
       y1="6.1317081"
       x2="32.251034"
       y2="90.238609"
       id="linearGradient3026"
       xlink:href="#ButtonShadow-0"
       gradientUnits="userSpaceOnUse"
       gradientTransform="matrix(1.0238095,0,0,1.0119048,-1.1428571,-98.071429)" />
    <clipPath
       id="clipPath3976">
      <rect
         width="84"
         height="84"
         rx="6"
         ry="6"
         x="6"
         y="6"
         id="rect3978"
         style="opacity:0.5;fill:#ff00ff;fill-opacity:1;fill-rule:nonzero;stroke:none" />
    </clipPath>
    <linearGradient
       id="linearGradient3737-5">
      <stop
         id="stop3739-7"
         style="stop-color:#ffffff;stop-opacity:1"
         offset="0" />
      <stop
         id="stop3741-7"
         style="stop-color:#ffffff;stop-opacity:0"
         offset="1" />
    </linearGradient>
    <radialGradient
       cx="48"
       cy="90.171875"
       r="42"
       fx="48"
       fy="90.171875"
       id="radialGradient3619-7"
       xlink:href="#linearGradient3737-5"
       gradientUnits="userSpaceOnUse"
       gradientTransform="matrix(1.1573129,0,0,0.99590774,-7.551021,0.1971319)" />
    <linearGradient
       x1="36.357143"
       y1="6"
       x2="36.357143"
       y2="63.893143"
       id="linearGradient4004"
       xlink:href="#linearGradient3737-5"
       gradientUnits="userSpaceOnUse" />
    <radialGradient
       cx="48"
       cy="48"
       r="42"
       fx="48"
       fy="48"
       id="radialGradient4055"
       xlink:href="#linearGradient3855"
       gradientUnits="userSpaceOnUse" />
    <filter
       id="filter3174-7"
       style="color-interpolation-filters:sRGB">
      <feGaussianBlur
         stdDeviation="1.71"
         id="feGaussianBlur3176-5" />
    </filter>
    <filter
       id="filter3794-5"
       height="1.3839999"
       width="1.3839999"
       y="-0.192"
       x="-0.192"
       style="color-interpolation-filters:sRGB">
      <feGaussianBlur
         stdDeviation="5.28"
         id="feGaussianBlur3796-1" />
    </filter>
    <linearGradient
       gradientUnits="userSpaceOnUse"
       xlink:href="#linearGradient3855"
       id="linearGradient3464"
       y2="138.66119"
       x2="48"
       y1="20.220806"
       x1="48" />
    <clipPath
       id="clipPath3613-6">
      <rect
         style="fill:#ffffff;fill-opacity:1;fill-rule:nonzero;stroke:none"
         id="rect3615-3"
         y="6"
         x="6"
         ry="6"
         rx="6"
         height="84"
         width="84" />
    </clipPath>
    <linearGradient
       gradientUnits="userSpaceOnUse"
       xlink:href="#linearGradient3700"
       id="linearGradient3468"
       y2="5.9877172"
       x2="48"
       y1="90"
       x1="48" />
    <linearGradient
       gradientTransform="matrix(1.0238095,0,0,1.0119048,-1.1428571,-98.071429)"
       gradientUnits="userSpaceOnUse"
       xlink:href="#ButtonShadow-0"
       id="linearGradient3470"
       y2="90.238609"
       x2="32.251034"
       y1="6.1317081"
       x1="32.251034" />
    <linearGradient
       gradientTransform="matrix(1.0238095,0,0,1.0119048,-1.1428571,-98.071429)"
       gradientUnits="userSpaceOnUse"
       xlink:href="#ButtonShadow-0"
       id="linearGradient3472"
       y2="90.238609"
       x2="32.251034"
       y1="6.1317081"
       x1="32.251034" />
    <linearGradient
       gradientTransform="matrix(1.0238095,0,0,1.0119048,-1.1428571,-98.071429)"
       gradientUnits="userSpaceOnUse"
       xlink:href="#ButtonShadow-0"
       id="linearGradient3474"
       y2="90.238609"
       x2="32.251034"
       y1="6.1317081"
       x1="32.251034" />
    <linearGradient
       gradientTransform="translate(0,-97)"
       gradientUnits="userSpaceOnUse"
       xlink:href="#ButtonShadow-0"
       id="linearGradient3476"
       y2="90.238609"
       x2="32.251034"
       y1="6.1317081"
       x1="32.251034" />
    <linearGradient
       gradientTransform="matrix(1.0238095,0,0,1.0119048,-1.1428571,-98.071429)"
       gradientUnits="userSpaceOnUse"
       xlink:href="#ButtonShadow-0"
       id="linearGradient3478"
       y2="90.238609"
       x2="32.251034"
       y1="6.1317081"
       x1="32.251034" />
    <clipPath
       id="clipPath3976-6">
      <rect
         style="opacity:0.5;fill:#ff00ff;fill-opacity:1;fill-rule:nonzero;stroke:none"
         id="rect3978-6"
         y="6"
         x="6"
         ry="6"
         rx="6"
         height="84"
         width="84" />
    </clipPath>
    <radialGradient
       gradientTransform="matrix(1.1573129,0,0,0.99590774,-7.551021,0.1971319)"
       gradientUnits="userSpaceOnUse"
       xlink:href="#linearGradient3855"
       id="radialGradient3619-7-0"
       fy="90.171875"
       fx="48"
       r="42"
       cy="90.171875"
       cx="48" />
    <linearGradient
       gradientUnits="userSpaceOnUse"
       xlink:href="#linearGradient3855"
       id="linearGradient3483"
       y2="63.893143"
       x2="36.357143"
       y1="6"
       x1="36.357143" />
    <radialGradient
       gradientUnits="userSpaceOnUse"
       xlink:href="#linearGradient3855"
       id="radialGradient4055-7"
       fy="48"
       fx="48"
       r="42"
       cy="48"
       cx="48" />
    <linearGradient
       inkscape:collect="always"
       xlink:href="#ButtonShadow"
       id="linearGradient3527"
       gradientUnits="userSpaceOnUse"
       gradientTransform="scale(1.0058652,0.994169)"
       x1="45.447727"
       y1="92.539597"
       x2="45.447727"
       y2="7.0165396" />
  </defs>
  <metadata
     id="metadata2413">
    <rdf:RDF>
      <cc:Work
         rdf:about="">
        <dc:format>image/svg+xml</dc:format>
        <dc:type
           rdf:resource="http://purl.org/dc/dcmitype/StillImage" />
        <dc:title></dc:title>
      </cc:Work>
    </rdf:RDF>
  </metadata>
  <rect
     style="opacity:1;fill:#9b7b9a;fill-opacity:1;stroke:none;stroke-width:1.89999998;stroke-miterlimit:4;stroke-dasharray:none;stroke-dashoffset:0;stroke-opacity:1"
     id="rect3529"
     width="110.05902"
     height="113.21485"
     x="8.7894745"
     y="7.4987984"
     ry="14.546331" />
  <g
     id="layer2"
     style="display:none"
     transform="translate(0,32)">
    <rect
       width="86"
       height="85"
       rx="6"
       ry="6"
       x="5"
       y="7"
       id="rect3745"
       style="opacity:0.9;fill:url(#linearGradient3527);fill-opacity:1;fill-rule:nonzero;stroke:none;filter:url(#filter3174)" />
  </g>
  <g
     id="layer5"
     style="display:none"
     transform="translate(0,32)">
    <rect
       width="66"
       height="66"
       rx="12"
       ry="12"
       x="15"
       y="15"
       clip-path="url(#clipPath3613)"
       id="rect3171"
       style="opacity:0.1;fill:url(#linearGradient3613);fill-opacity:1;fill-rule:nonzero;stroke:#ffffff;stroke-width:0.5;stroke-linecap:round;stroke-linejoin:miter;stroke-miterlimit:4;stroke-dasharray:none;stroke-dashoffset:0;stroke-opacity:1;filter:url(#filter3794)" />
  </g>
  <g
     id="layer4"
     transform="matrix(1.4264037,0,0,1.4264037,2.433547,-7.6058736)">
    <g
       clip-path="url(#clipPath3976)"
       id="g3969">
      <path
         d="m 51.8125,10.53125 a 1.1365788,1.1365788 0 0 0 -0.09375,0.03125 1.1365788,1.1365788 0 0 0 -0.0625,0 c 0.0017,-4.68e-4 -0.189103,0.06312 -0.1875,0.0625 -2.474109,0.444372 -4.088498,2.114999 -5.15625,3.96875 -0.210377,-0.34009 -0.34344,-0.746481 -0.625,-1.03125 -1.135661,-1.148606 -2.602294,-1.812501 -4.0625,-2.0625 -1.457416,-0.249521 -3.196798,-0.105245 -4.5,1.09375 -1.363574,1.254539 -1.661631,3.313203 -1.03125,5.3125 -3.01e-4,-9.91e-4 0.0316,0.09472 0.03125,0.09375 -3.55e-4,-9.73e-4 0.06291,0.125952 0.0625,0.125 -4.08e-4,-9.52e-4 0.06296,0.09468 0.0625,0.09375 -4.6e-4,-9.28e-4 0.03176,0.125901 0.03125,0.125 1.551462,2.692818 2.315392,5.711272 2.53125,8.875 -0.98325,1.153239 -2.046332,2.541931 -2.71875,4.25 -0.823809,2.09263 -0.87106,4.828124 0.9375,6.9375 l -0.03125,0 c 0.06054,0.127829 0.184317,0.246031 0.25,0.375 -2.155904,1.450352 -3.105195,3.737217 -3.40625,5.71875 -0.337667,2.222513 -0.331537,4.277759 -0.75,5.40625 6.17e-4,-0.0016 -0.06297,0.189153 -0.0625,0.1875 a 1.1365788,1.1365788 0 0 0 0,0.03125 c -0.917765,3.595424 -1.323259,6.240657 -3.40625,8.1875 a 1.1365788,1.1365788 0 0 0 0,0.03125 c 8.3e-4,-7.83e-4 -0.09453,0.09458 -0.09375,0.09375 7.81e-4,-8.32e-4 -0.09448,0.09463 -0.09375,0.09375 7.29e-4,-8.78e-4 -0.09442,0.09467 -0.09375,0.09375 6.74e-4,-9.2e-4 -0.06312,0.12596 -0.0625,0.125 6.17e-4,-9.6e-4 -0.06306,0.09475 -0.0625,0.09375 5.58e-4,-9.95e-4 -0.063,0.126027 -0.0625,0.125 4.96e-4,-10e-4 -0.06293,0.126056 -0.0625,0.125 4.33e-4,-0.0011 -0.03162,0.12608 -0.03125,0.125 -1.126539,3.340823 -3.022832,6.594885 -5.25,8.75 -0.0099,0.0095 -0.02137,0.02175 -0.03125,0.03125 -0.04509,0.04337 -0.05814,0.05698 -0.03125,0.03125 -9.95366,6.674814 -19.7631149,13.466756 -30.15625,19.0625 0.00171,-9.06e-4 -0.1891036,0.126076 -0.1875,0.125 0.0016,-0.0011 -0.1889845,0.126235 -0.1875,0.125 0.00148,-0.0012 -0.1888498,0.157631 -0.1875,0.15625 0.00135,-0.0014 -0.1262008,0.157763 -0.125,0.15625 0.0012,-0.0015 -0.157289,0.189128 -0.15625,0.1875 0.00104,-0.0016 -0.094616,0.220476 -0.09375,0.21875 8.663e-4,-0.0017 -0.094434,0.189306 -0.09375,0.1875 6.844e-4,-0.0018 -0.062995,0.220617 -0.0625,0.21875 4.953e-4,-0.0019 -0.062801,0.220658 -0.0625,0.21875 3.009e-4,-0.0019 -0.031353,0.251929 -0.03125,0.25 1.033e-4,-0.0019 9.53e-5,0.220679 0,0.21875 -9.53e-5,-0.0019 0.031543,0.220659 0.03125,0.21875 -2.93e-4,-0.0019 0.062988,0.220619 0.0625,0.21875 -4.875e-4,-0.0019 0.063177,0.220559 0.0625,0.21875 -6.769e-4,-0.0018 0.094609,0.22048 0.09375,0.21875 -8.591e-4,-0.0017 0.094782,0.189132 0.09375,0.1875 A 1.1365788,1.1365788 0 0 0 -7.21875,90.25 c -0.068172,-0.104291 0.09013,0.274808 0.25,0.71875 0.1598701,0.443942 0.3717126,1.022443 0.6875,1.59375 0.3632962,0.657258 1.1176526,1.546554 2.375,1.71875 0.9639303,0.132012 1.7896456,-0.252669 2.4375,-0.6875 -0.1159685,0.04779 -0.083583,0.04204 0.09375,-0.03125 10.2379547,-4.231079 19.512924,-10.146031 28.53125,-16.1875 -0.224467,1.375294 -0.259176,2.730736 -0.125,3.96875 0.248002,2.288263 0.645711,4.305555 0.4375,6.0625 1.26e-4,-0.0011 -6.3e-5,0.126087 0,0.125 6.3e-5,-0.0011 -0.03125,0.126088 -0.03125,0.125 0,-0.0011 0.03131,0.126087 0.03125,0.125 -6.3e-5,-0.0011 1.26e-4,0.126081 0,0.125 0.194873,1.817486 0.895323,3.690591 2.1875,5.1875 1.129383,1.308324 2.889634,2.055408 4.8125,2.09375 a 1.1365788,1.1365788 0 0 0 0.125,0.03125 1.1365788,1.1365788 0 0 0 0.4375,0.125 c 2.661552,0.165664 6.779667,1.260102 10.4375,-0.9375 A 1.1365788,1.1365788 0 0 0 45.5,94.375 c -0.0016,0.0011 0.189001,-0.126219 0.1875,-0.125 -0.0015,0.0012 0.157617,-0.157617 0.15625,-0.15625 -0.0014,0.0014 0.157469,-0.157751 0.15625,-0.15625 -0.0011,0.0013 0.101024,-0.123541 0.125,-0.15625 0.0031,-0.0043 1.22e-4,-0.03144 0,-0.03125 0.242998,-0.348035 0.239283,-0.7282 0.375,-1.09375 0.630385,0.772516 1.324225,1.518652 2.1875,2.125 -2.95e-4,-2.26e-4 0.01676,0.02094 0.03125,0.03125 0.03727,0.02651 0.09455,0.06303 0.09375,0.0625 -0.0011,-7.32e-4 0.126158,0.06315 0.125,0.0625 -0.0012,-6.51e-4 0.157451,0.09432 0.15625,0.09375 -0.0012,-5.68e-4 0.126238,0.06298 0.125,0.0625 -0.0012,-4.82e-4 0.157519,0.03164 0.15625,0.03125 -0.0013,-3.93e-4 0.157544,0.0628 0.15625,0.0625 -0.0013,-3.02e-4 0.157562,0.03146 0.15625,0.03125 -0.0013,-2.1e-4 0.157573,1.16e-4 0.15625,0 a 1.1365788,1.1365788 0 0 0 0.03125,0 c 3.844973,0.178313 7.80905,0.100091 11.59375,-0.0625 -0.0014,6.9e-5 0.157629,-1.71e-4 0.15625,0 -0.0014,1.71e-4 0.157612,-0.03152 0.15625,-0.03125 -0.0014,2.72e-4 0.157589,-0.03162 0.15625,-0.03125 -0.0013,3.73e-4 0.157557,-0.06297 0.15625,-0.0625 0.985028,-0.34284 1.780365,-1.028285 2.21875,-1.90625 0.419117,-0.839376 0.454407,-1.704453 0.375,-2.4375 C 64.534637,89.276363 63.930841,88.000388 63,87.0625 a 1.1365788,1.1365788 0 0 0 -0.03125,-0.03125 c 8.61e-4,7.94e-4 -0.125908,-0.09449 -0.125,-0.09375 9.08e-4,7.39e-4 -0.0947,-0.06318 -0.09375,-0.0625 9.53e-4,6.81e-4 -0.125993,-0.09437 -0.125,-0.09375 4.97e-4,3.1e-4 -0.03237,-0.01373 -0.0625,-0.03125 -0.469509,-0.295353 -0.634605,-0.527293 -0.78125,-0.90625 -0.146645,-0.378957 -0.236987,-0.956283 -0.25,-1.71875 -0.02302,-1.348952 0.233445,-3.181093 0.0625,-5.09375 -0.0042,-0.04693 0.0047,-0.07796 0,-0.125 0.01411,0.140288 0.01334,0.03441 0,-0.125 9.52e-4,-0.01073 -9.09e-4,-0.02053 0,-0.03125 0.0064,-0.07502 -0.0043,-0.144232 0,-0.21875 0.404959,0.04498 0.825718,0.05559 1.25,-0.0625 0.749516,-0.208619 1.101277,-0.618383 1.46875,-0.96875 1.072017,0.171715 2.15342,0.165033 3.125,-0.28125 1.266784,-0.581881 2.142979,-1.576614 2.78125,-2.53125 1.245176,-1.862358 1.880163,-3.967761 2.34375,-4.96875 0.007,-0.01521 0.02428,-0.04782 0.03125,-0.0625 0.0081,-0.01009 0.02317,-0.02113 0.03125,-0.03125 2.361919,-2.95882 5.762146,-6.994558 4.9375,-12.125 0.05013,0.3119 0.06584,0.288146 0,-0.09375 A 1.1365788,1.1365788 0 0 0 77.25,56.8125 1.1365788,1.1365788 0 0 0 77.21875,56.78125 C 76.739976,55.298438 75.638077,54.184694 74.25,53.875 c -0.82212,-0.183423 -1.73447,-0.149875 -2.59375,0.25 -0.730366,0.339884 -1.188615,0.92564 -1.53125,1.53125 a 1.1365788,1.1365788 0 0 0 -0.21875,0.25 c -0.08428,0.136801 -0.136511,0.237552 -0.125,0.21875 -0.737105,1.203946 -1.784151,2.951515 -2.8125,4.34375 -0.07086,0.09594 -0.116074,0.127382 -0.1875,0.21875 -0.731774,-2.877384 -1.694371,-5.606803 -2.75,-8 -0.43206,-4.029085 -1.638773,-7.631344 -2.6875,-11.09375 7.3e-5,2.65e-4 0.0026,-0.02345 0,-0.03125 -0.01456,-0.0442 -0.06306,-0.157705 -0.0625,-0.15625 6.56e-4,0.0017 -0.09457,-0.220389 -0.09375,-0.21875 8.2e-4,0.0016 -0.09473,-0.189052 -0.09375,-0.1875 9.76e-4,0.0016 -0.126122,-0.157699 -0.125,-0.15625 A 1.1365788,1.1365788 0 0 0 60.9375,40.8125 c -1.228368,-1.495763 -2.718221,-2.947539 -4.34375,-4.03125 -0.0273,-0.703185 -0.01536,-1.468404 -0.1875,-2.4375 -0.204404,-1.150731 -0.873003,-2.304533 -1.875,-3.25 A 1.1365788,1.1365788 0 0 0 54.5,31.0625 1.1365788,1.1365788 0 0 0 54.3125,30.71875 c -0.161266,-0.194751 -0.16965,-0.179594 -0.15625,-0.59375 0.01233,-0.381147 0.14916,-0.991434 0.40625,-1.6875 0.524703,-1.420627 1.565664,-3.210772 1.9375,-5.25 a 1.1365788,1.1365788 0 0 0 0,-0.09375 c -1.26e-4,0.0011 6.3e-5,-0.126087 0,-0.125 -6.3e-5,0.0011 0.03125,-0.126088 0.03125,-0.125 0,0.0011 -0.03131,-0.126087 -0.03125,-0.125 3.2e-5,5.43e-4 0.0028,-0.03022 0,-0.0625 -6.59e-4,-0.01018 4.69e-4,-0.05196 0,-0.0625 -0.03739,-0.839874 0.528632,-2.790885 0.8125,-4.84375 0.144426,-1.044448 0.215558,-2.244093 -0.15625,-3.46875 -0.386735,-1.273824 -1.296373,-2.452836 -2.625,-3.21875 l 0,0.03125 c 10e-4,6.13e-4 -0.126087,-0.09429 -0.125,-0.09375 0.0011,5.43e-4 -0.12612,-0.06297 -0.125,-0.0625 -0.735751,-0.307228 -1.553786,-0.44229 -2.375,-0.40625 a 1.1365788,1.1365788 0 0 0 -0.09375,0 z"
         id="path3967"
         style="opacity:0.05;fill:#ffffff;stroke:none"
         inkscape:connector-curvature="0" />
      <path
         d="M 51.96875,11.65625 A 1.0801581,1.0801581 0 0 0 51.875,11.6875 c -2.615784,0.37292 -4.296285,2.212053 -5.1875,4.28125 -0.250552,0.581725 -0.341698,1.201404 -0.5,1.8125 -0.0033,-0.0052 -0.02785,0.0052 -0.03125,0 0.02343,-1.337201 -0.449482,-2.565001 -1.28125,-3.40625 -0.946956,-0.95775 -2.190075,-1.536431 -3.4375,-1.75 -1.247425,-0.213569 -2.563525,-0.07784 -3.53125,0.8125 -0.967725,0.890343 -1.255241,2.423482 -0.71875,4.125 a 1.0801581,1.0801581 0 0 0 0.09375,0.21875 c 1.719043,2.983682 2.533774,6.304917 2.71875,9.75 -1.035813,1.174914 -2.172038,2.637475 -2.84375,4.34375 -0.750214,1.905684 -0.819703,4.270629 0.875,6.03125 0.232276,0.490472 0.478511,0.935386 0.78125,1.21875 A 1.0801581,1.0801581 0 0 0 38.75,39.15625 c -2.55271,1.13918 -3.463266,3.407038 -3.78125,5.5 -0.317984,2.092962 -0.264479,4.178375 -0.8125,5.65625 A 1.0801581,1.0801581 0 0 0 34.125,50.40625 c -0.900652,3.528383 -1.317392,6.5056 -3.71875,8.75 a 1.0801581,1.0801581 0 0 0 -0.28125,0.4375 c -1.182467,3.506681 -3.146622,6.894566 -5.5625,9.21875 -0.01,0.0096 -0.02123,0.02166 -0.03125,0.03125 -9.999591,6.702875 -19.8786956,13.581884 -30.40625,19.25 A 1.0801581,1.0801581 0 0 0 -6.28125,89.625 c 0.233801,0.357673 0.4707079,1.41743 1,2.375 0.264646,0.478785 0.7480638,1.048991 1.53125,1.15625 0.6787789,0.09296 1.2634687,-0.197717 1.84375,-0.625 0.030366,-0.01251 0.0634,-0.01871 0.09375,-0.03125 11.0656716,-4.573153 21.116884,-11.097958 30.90625,-17.71875 -1.077701,2.193761 -1.158915,4.39455 -0.9375,6.4375 0.240393,2.21806 0.675575,4.303553 0.4375,6.3125 a 1.0801581,1.0801581 0 0 0 0,0.25 c 0.171486,1.599364 0.818636,3.266363 1.9375,4.5625 1.068006,1.237222 2.704366,2.042512 4.5625,1.84375 l 0,0.03125 c 2.850728,0.177439 6.604947,1.127052 9.78125,-0.78125 a 1.0801581,1.0801581 0 0 0 0.3125,-0.3125 c 0.912215,-1.288305 0.80026,-2.784747 0.375,-4.09375 0.837286,1.889208 2.035702,3.607024 3.8125,4.84375 a 1.0801581,1.0801581 0 0 0 0.5625,0.21875 c 3.793633,0.175932 7.702363,0.0993 11.46875,-0.0625 a 1.0801581,1.0801581 0 0 0 0.3125,-0.0625 c 0.699859,-0.243587 1.268054,-0.754055 1.5625,-1.34375 0.294446,-0.589695 0.344072,-1.232559 0.28125,-1.8125 -0.125645,-1.159881 -0.628129,-2.184975 -1.375,-2.9375 a 1.0801581,1.0801581 0 0 0 -0.21875,-0.15625 c -1.284233,-0.807871 -1.534643,-1.93027 -1.5625,-3.5625 -0.02611,-1.529646 0.240944,-3.350056 0.0625,-5.125 -0.0054,-0.05411 0.0064,-0.102211 0,-0.15625 0.0087,-0.0634 -0.0056,-0.124498 0,-0.1875 0.0494,-0.556683 0.03275,-1.099052 -0.03125,-1.65625 -0.0014,-0.01183 0.0014,-0.01942 0,-0.03125 0.68524,0.375623 1.437534,0.55765 2.09375,0.375 0.611521,-0.17021 1.03028,-0.627982 1.46875,-1.03125 1.09025,0.262868 2.112976,0.236839 2.96875,-0.15625 0.997657,-0.458261 1.742678,-1.272741 2.3125,-2.125 1.130959,-1.691528 1.729982,-3.744906 2.28125,-4.90625 0.0042,-0.0089 0.02702,-0.02244 0.03125,-0.03125 2.382672,-2.996413 5.589329,-6.798963 4.84375,-11.4375 -0.0053,-0.0327 0.0057,-0.06097 0,-0.09375 l -0.03125,0 C 76.224837,56.20552 75.166606,55.229032 74,54.96875 c -0.598108,-0.133444 -1.271311,-0.09343 -1.875,0.1875 -0.532923,0.248002 -0.945111,0.782249 -1.21875,1.375 L 70.875,56.5 c -0.03315,0.05381 -0.09023,0.161957 -0.125,0.21875 -0.730745,1.193558 -1.796424,2.977266 -2.875,4.4375 -0.564949,0.764858 -1.147732,1.404047 -1.59375,1.78125 -0.05077,0.04293 -0.01851,-0.0013 -0.0625,0.03125 -0.681989,-3.606346 -1.970488,-6.978397 -3.28125,-9.9375 -0.394731,-3.971427 -1.609923,-7.564958 -2.6875,-11.125 a 1.0801581,1.0801581 0 0 0 -0.1875,-0.375 C 58.76098,39.946411 57.14925,38.362835 55.5,37.375 c -0.05611,-0.847831 -0.03267,-1.79619 -0.21875,-2.84375 -0.196408,-1.105717 -0.782493,-2.274587 -1.875,-3.0625 L 53.4375,31.4375 c -0.322033,-0.388899 -0.424614,-0.776175 -0.40625,-1.34375 0.01836,-0.567575 0.181443,-1.284621 0.46875,-2.0625 0.574613,-1.555757 1.552288,-3.292676 1.875,-5.0625 a 1.0801581,1.0801581 0 0 0 0,-0.25 c -0.08201,-1.267123 0.544003,-3.183295 0.8125,-5.125 0.134249,-0.970852 0.176274,-1.976417 -0.125,-2.96875 -0.301274,-0.992333 -1.008936,-1.937137 -2.09375,-2.5625 A 1.0801581,1.0801581 0 0 0 53.84375,12 c -0.590974,-0.246773 -1.234687,-0.371851 -1.875,-0.34375 z m -7.6875,72.6875 c 0.254756,1.371062 0.552667,2.769161 1.09375,4.125 -0.520168,-1.24284 -1.305591,-2.319128 -2,-3.15625 0.132951,-0.199346 0.369506,-0.495581 0.6875,-0.78125 0.08711,-0.07826 0.128823,-0.115788 0.21875,-0.1875 z"
         id="path3963"
         style="opacity:0.05;fill:#ffffff;stroke:none"
         inkscape:connector-curvature="0" />
      <path
         d="m 52.03125,12.75 c -4.424481,0.630778 -5.387336,5.875652 -5.445652,9.591146 -0.347784,2.590683 -0.376657,-3.481465 -1.429348,-4.184896 0.703204,-4.858928 -8.78755,-6.754087 -6.94033,-0.895501 1.869578,3.24496 2.787826,6.842177 2.94033,10.551751 -2.139323,2.332358 -5.104876,6.475225 -2.34375,9.34375 0.445968,1.77921 3.539227,2.186432 0.363041,2.985457 -4.383321,1.956115 -2.700381,7.006532 -4.015581,10.553293 -0.880392,3.449011 -1.303886,6.704056 -4.005145,9.228755 -1.235319,3.663418 -3.281514,7.204459 -5.876867,9.687994 C 15.232729,76.342358 5.2835085,83.292627 -5.375,89.03125 c 0.8758623,1.33991 0.8408956,4.312962 3.0586302,2.488779 C 8.7664602,86.952811 18.888371,80.383421 28.78125,73.6875 c 1.705168,-0.632448 2.814794,-1.332724 1.422505,1.058721 -2.449795,4.215892 -0.01691,8.432714 -0.547505,12.910029 0.296228,2.762774 2.346413,6.021892 5.500469,5.513221 2.985022,0.185798 6.461895,0.948998 9.155781,-0.669471 1.492145,-2.10733 -0.448491,-5.046643 -1.868108,-6.721591 -1.302098,-0.638076 2.871989,-3.91236 2.584027,-2.810671 C 45.569478,86.638008 46.834163,90.796444 50,93 c 3.744737,0.173664 7.626164,0.09855 11.375,-0.0625 1.88211,-0.655072 1.089334,-3.243278 0.01591,-4.324828 -3.301551,-2.076902 -1.52363,-6.503787 -1.979419,-9.770931 0.304421,-1.676238 -1.352629,-6.660884 1.090591,-3.012065 0.999279,1.120248 2.573489,0.398583 3.31042,-0.610926 4.335786,1.502477 5.564242,-3.977003 6.808536,-6.572029 2.422851,-3.056957 5.480115,-6.717193 4.763231,-10.875143 -0.177142,-1.86163 -2.955142,-2.552746 -3.603017,-0.709078 -1.429468,2.320215 -4.573488,7.849533 -6.308479,7.28363 C 64.9393,60.43963 63.38093,56.75084 61.924821,53.463611 61.587097,49.520964 60.336616,45.916651 59.218013,42.221069 57.833072,40.53465 56.003008,38.758711 54.457978,37.980079 54.24013,35.93353 54.618228,33.27819 52.59375,32.125 c -2.011963,-2.42972 1.172677,-6.360422 1.714119,-9.329807 -0.209106,-3.230871 2.65131,-7.765489 -0.867417,-9.79393 C 52.996603,12.815925 52.511881,12.728907 52.03125,12.75 Z m 6.75,51.75 c 1.934462,0.767183 1.951261,5.92134 1.03125,5.125 0.465146,-1.689826 -0.835146,-3.431884 -1.03125,-5.125 z"
         inkscape:connector-curvature="0"
         id="path3953"
         style="opacity:0.05;fill:#ffffff;stroke:none" />
      <path
         d="m 52.0625,13.6875 c -0.837778,0.0366 -1.716366,0.457072 -2.40625,1.28125 -2.221031,2.603927 -1.942992,5.994926 -2.28125,8.71875 -0.217071,0.286483 -0.44604,0.564304 -0.5625,0.875 -0.171768,0.458248 -0.280981,0.934737 -0.40625,1.3125 -0.07972,0.240395 -0.152156,0.313361 -0.21875,0.4375 -0.488314,-0.994562 -0.691019,-2.129109 -0.8125,-3.40625 -0.136938,-1.439643 -0.258331,-3.029669 -1.125,-4.5 -0.04382,-1.967191 -1.435723,-3.387129 -2.78125,-3.875 -0.713468,-0.258694 -1.540741,-0.341628 -2.15625,0.25 -0.307755,0.295814 -0.451874,0.729772 -0.4375,1.15625 0.01437,0.426478 0.136019,0.865332 0.375,1.34375 1.451036,2.904852 2.621795,5.589939 2.5625,8.0625 -0.01797,0.747826 0.03831,1.241663 0.125,1.65625 0.06693,0.320061 0.130401,0.675337 0.1875,1.0625 -1.283651,1.498267 -2.106853,2.458164 -2.59375,3.5 -0.681319,1.457856 -0.987751,2.510309 -0.9375,3.40625 0.04057,0.723341 0.451398,1.257074 0.9375,1.625 0.177165,0.439638 0.372759,0.910556 0.8125,1.3125 0.33668,0.307742 0.918,0.4072 1.46875,0.53125 -0.08382,0.43321 -0.06303,0.946309 -0.0625,1.53125 -1.710065,0.532611 -3.138916,1.377189 -4.03125,2.625 -0.958099,1.339775 -1.272224,3.077714 -0.90625,4.96875 0.0021,0.01098 -0.0022,0.02026 0,0.03125 -0.128399,2.686302 -1.60898,4.862731 -1.84375,8.03125 -0.09504,1.282583 -0.498339,1.722162 -1.125,2.34375 -0.626661,0.621588 -1.534082,1.380595 -2.0625,2.875 -1.030888,2.91545 -2.019913,4.565265 -2.78125,5.6875 -0.380668,0.561118 -0.708554,0.9783 -0.96875,1.40625 -0.158163,0.260133 -0.195646,0.579936 -0.28125,0.875 -0.397701,0.08525 -0.82764,0.108968 -1.09375,0.375 -0.255884,0.255809 -0.35724,0.58107 -0.40625,0.90625 -1.568821,1.070068 -7.199882,4.898972 -13.625,9.09375 C 6.0673005,83.468836 -1.1515334,88.004718 -4.96875,89.875 A 0.76322967,0.76322967 0 0 0 -4.375,91.28125 C 7.456653,87.260462 26.629736,74.05715 28.25,72.9375 c 0.36867,0.06659 0.750964,0.03176 1.09375,-0.21875 0.299114,-0.21859 0.470932,-0.538827 0.59375,-0.90625 0.442809,0.118583 0.91147,0.30653 1.3125,0.25 0.356879,-0.05031 0.585921,-0.297526 0.875,-0.46875 0.03331,0.229646 0.08405,0.404825 0.1875,0.59375 -1.020273,2.023225 -1.869305,3.976265 -2.25,5.6875 -0.201262,0.904678 -0.281878,1.762927 -0.15625,2.53125 0.09784,0.598373 0.399287,1.125342 0.8125,1.5625 -0.266997,1.922712 -0.414606,3.851961 -0.15625,5.5625 0.275172,1.821871 1.029417,3.455416 2.53125,4.4375 a 0.75999659,0.75999659 0 0 0 0.375,0.125 c 2.992509,0.143156 6.903544,0.963262 9.90625,-0.0625 a 0.75999659,0.75999659 0 0 0 0.5,-0.6875 c 0.07981,-1.690847 -0.73062,-3.134916 -1.53125,-4.21875 -0.400315,-0.541917 -0.813937,-0.983545 -1.125,-1.34375 -0.311063,-0.360205 -0.504579,-0.716424 -0.46875,-0.625 l -0.03125,0 c -0.02344,0.110411 -0.0088,0.0187 0.21875,-0.25 0.42515,-0.502061 0.521977,-0.679727 0.84375,-1.09375 0.09889,-0.02639 0.228512,0.0074 0.3125,-0.03125 0.268607,-0.123731 0.491448,-0.270337 0.71875,-0.46875 0.454605,-0.396827 0.915603,-0.951275 1.375,-1.53125 0.476772,-0.60191 0.842021,-1.11135 1.28125,-1.71875 0.343981,3.933292 1.031561,8.413672 4.5625,11.875 a 0.75999659,0.75999659 0 0 0 0.53125,0.21875 c 2.740307,0 7.564151,-0.0625 10.28125,-0.0625 a 0.75999659,0.75999659 0 0 0 0.75,-0.875 c -0.232303,-1.343549 -1.009383,-2.262964 -1.71875,-2.875 -0.354684,-0.306018 -0.708962,-0.566557 -0.96875,-0.75 -0.173192,-0.122295 -0.188419,-0.137334 -0.25,-0.1875 -0.283245,-2.660157 -0.228319,-5.380607 -0.1875,-7.84375 0.03737,-2.254975 -0.0087,-4.206233 -0.375,-5.8125 a 0.75999659,0.75999659 0 0 0 0.75,-0.6875 C 58.866143,72.752087 58.804319,72.504123 58.75,72.25 a 0.75999659,0.75999659 0 0 0 0.65625,-1 c -0.208162,-0.618726 -0.539321,-1.135579 -0.8125,-1.625 A 0.75999659,0.75999659 0 0 0 59,68.71875 C 58.32587,66.394007 57.602006,64.536012 57.15625,62.0625 a 0.75999659,0.75999659 0 0 0 -0.125,-0.3125 c -0.91549,-1.333446 -1.234912,-2.409078 -1.21875,-3.5 0.01413,-0.953797 0.33443,-1.972999 0.8125,-3.09375 0.07327,0.159771 0.09115,0.162952 0.15625,0.375 0.336664,1.096634 0.584509,2.779089 0.59375,3.15625 a 0.75999659,0.75999659 0 0 0 0,0.03125 c 0.229568,3.135973 2.645259,5.756975 3.875,7.8125 0.0038,0.0064 -0.0038,0.02487 0,0.03125 0.142698,0.450496 0.125431,0.998839 0.03125,1.6875 -0.07848,0.573827 -0.139324,1.269024 -0.125,1.96875 -0.426246,0.581929 -0.618909,0.770759 -1.46875,1.5625 a 0.75999659,0.75999659 0 0 0 -0.21875,0.53125 c -0.02707,0.722163 0.313934,1.256499 0.6875,1.78125 0.373566,0.524751 0.780665,0.980328 1.28125,1.28125 a 0.75999659,0.75999659 0 0 0 0.90625,-0.09375 c 0.513776,-0.446353 0.880542,-0.740038 1.375,-1.1875 0.241713,0.187385 0.415426,0.386341 0.78125,0.5 0.316223,0.09825 0.738586,0.124265 1.125,-0.0625 0.189548,-0.09161 0.269426,-0.307689 0.40625,-0.46875 0.155475,0.01304 0.304312,0.0582 0.46875,0.03125 0.317963,-0.05211 0.681255,-0.287676 0.875,-0.5625 0.224865,-0.318967 0.276543,-0.62272 0.3125,-0.96875 0.142938,-0.03388 0.295481,-0.01227 0.40625,-0.09375 0.459286,-0.337859 0.513644,-0.770747 0.5625,-1.15625 0.07524,-0.593703 -0.0571,-1.211416 -0.1875,-1.78125 1.554916,-1.404533 3.344964,-3.644026 4.625,-5.9375 0.676197,-1.211559 1.208932,-2.423196 1.4375,-3.53125 0.228568,-1.108054 0.155401,-2.212187 -0.625,-2.96875 a 0.75999659,0.75999659 0 0 0 -1.25,0.28125 c -0.369835,1.071527 -1.786834,3.133779 -3.34375,5.0625 -1.361761,1.686961 -2.692747,3.137909 -3.65625,4.1875 -0.04445,-0.04392 -0.156961,-0.186844 -0.1875,-0.21875 -0.108901,-0.113778 -0.270454,-0.31945 -0.5625,-0.75 C 64.120641,63.402296 63.769497,61.18587 63.375,59.375 63.174746,58.455771 62.973604,57.642381 62.65625,56.9375 62.392068,56.35072 61.987427,55.850445 61.46875,55.5 61.157006,55.080338 61.040198,54.73133 61,54.25 c -0.0402,-0.48133 -0.0028,-1.080798 0,-1.78125 0.0052,-1.325537 -0.298056,-3.055402 -1.78125,-5.0625 0.318279,-1.844369 0.09175,-3.210709 -0.40625,-4.125 C 58.344371,42.421793 57.707774,41.988136 57.28125,41.75 56.94948,40.635248 56.2104,39.867987 55.375,39.5625 54.694538,39.313671 54.175859,39.371182 53.65625,39.375 53.545488,38.835059 53.425086,38.348084 53.5625,36.84375 a 0.75999659,0.75999659 0 0 0 -0.40625,-0.75 c -0.01915,-0.05281 -0.03086,-0.187341 -0.03125,-0.375 -7.73e-4,-0.375318 0.0774,-0.873253 0.0625,-1.375 -0.0076,-0.254829 -0.0508,-0.544682 -0.21875,-0.8125 C 52.800795,33.263432 52.541656,33.092339 52.28125,33 c -0.305357,-0.108279 -0.709982,-0.08078 -1.0625,-0.09375 0.0484,-1.11794 -0.02387,-2.186365 -0.3125,-3.21875 0.494588,-1.343171 0.662369,-2.436924 1.46875,-4.1875 0.962569,-2.089647 1.837669,-4.869529 1.40625,-7.6875 0.588516,-0.998653 0.786389,-1.988758 0.46875,-2.78125 -0.35223,-0.878795 -1.265108,-1.384028 -2.1875,-1.34375 z M 39.28125,56.75 c -0.03562,0.205777 -0.141836,0.432775 -0.125,0.625 0.01903,0.217275 0.07573,0.4114 0.1875,0.625 0.02987,0.05709 0.140735,0.09515 0.1875,0.15625 l -0.03125,0 c 0.0075,0.01494 -0.0045,0.01757 0,0.03125 -0.176659,0.163331 -0.550953,0.531761 -1.0625,1.09375 0.02736,-0.154234 0.129404,-0.340814 0.125,-0.46875 C 38.55038,58.460338 38.49095,58.275509 38.5,58.125 38.51197,57.926109 38.755507,57.441219 39.28125,56.75 Z M 36.875,61.71875 c -0.0161,0.07955 0.03493,0.167431 0.03125,0.25 L 35,63.53125 c 0.122744,-0.132366 0.208976,-0.274397 0.34375,-0.40625 0.468166,-0.458019 1.013713,-0.900688 1.53125,-1.40625 z m -2.8125,6.3125 c -0.0732,0.209916 -0.08281,0.543383 -0.03125,0.71875 0.02238,0.0761 0.01666,0.05586 0.03125,0.09375 -0.14364,0.08932 -0.24852,0.192766 -0.375,0.28125 0.0293,-0.273685 0.02373,-0.540016 0,-0.8125 0.08362,-0.07671 0.270388,-0.190063 0.375,-0.28125 z"
         id="path3949"
         style="opacity:0.05;fill:#ffffff;stroke:none"
         inkscape:connector-curvature="0" />
      <path
         d="m 52.104155,14.424701 c -0.592479,0.02588 -1.280131,0.355919 -1.856177,1.044099 -2.002863,2.348148 -1.756784,5.538268 -2.126868,8.391464 -1.046005,0.821228 -0.831654,4.062326 -2.358891,3.364319 -1.668307,-2.56208 -0.601884,-5.906573 -2.24288,-8.546145 0.227988,-3.523182 -5.250652,-5.051941 -3.596341,-1.740165 1.461491,2.925781 2.694673,5.715937 2.629583,8.430134 -0.03354,1.39585 0.249,1.572152 0.386703,2.900276 -1.461132,1.70992 -2.252965,2.624984 -2.706924,3.596341 -1.310621,2.804409 -0.985332,3.884269 -0.03861,4.331078 0.373574,0.929818 0.673557,1.57469 2.32022,1.701495 0.82345,0.02328 0.80469,0.389244 0.03861,0.541385 -0.121642,0.533939 -0.05927,0.908242 -0.07734,2.049528 -3.701723,0.938291 -5.69809,3.511697 -4.911133,7.115342 -0.128881,2.941057 -1.637296,5.12804 -1.856176,8.082102 -0.216542,2.92244 -2.273198,2.765524 -3.209639,5.413847 -2.105597,5.954832 -4.167759,6.89636 -4.176396,8.275453 -1.094055,0.03532 -1.432399,0.554822 -1.353462,1.16011 C 24.126318,72.474412 3.1970395,86.734001 -4.625234,90.5666 7.089788,86.585447 26.885549,72.953734 28.089874,72.120848 c 0.565205,0.287028 1.169415,0.08162 1.276121,-1.198781 2.716068,1.407622 3.937012,-1.106818 3.557671,-2.938945 0.952862,-0.921662 3.658771,-2.980953 4.292408,-3.635012 -0.293338,0.537526 -0.994935,1.849375 -1.624154,2.706923 -0.23821,0.324631 -0.439828,0.600082 -0.580056,0.812078 -0.510634,0.772003 -0.129189,0.515748 -0.115949,1.314791 -2.623915,1.446731 -2.311744,2.552632 -1.740165,3.016287 -2.171504,4.232506 -3.532031,8.213861 -1.662825,9.512903 -0.596958,4.019862 -0.537462,7.962508 2.010858,9.628915 3.082441,0.147458 6.956553,0.874242 9.628915,-0.03867 0.134102,-2.84095 -2.800364,-5.129565 -3.093628,-5.877892 -0.09726,-0.405165 -0.185023,-0.421592 0.309363,-1.005429 0.494399,-0.583837 0.496998,-0.627704 1.005429,-1.276121 1.00585,0.339466 3.416528,-3.493094 4.717781,-5.143155 0.351226,4.334603 0.584263,9.594027 4.48576,13.418608 2.728703,0 7.557607,-0.07734 10.28631,-0.07734 C 60.453582,89.083649 58.31075,88.292789 57.904767,87.743665 57.256145,82.120348 58.22356,76.287376 57.286042,73.319629 57.49824,73.167245 57.663304,72.95491 58.098119,73.010266 58.20058,71.589921 56.838308,70.99934 58.678174,71.502123 58.237469,70.192202 56.44804,68.037921 58.291471,68.94988 57.628593,66.663938 56.856288,64.733259 56.396624,62.182571 54.43274,59.3221 54.873112,57.107916 56.125932,54.371162 c 1.050831,-2.069697 1.983547,3.177739 2.010858,4.292408 0.204897,2.798961 2.54822,5.426957 3.828363,7.618057 0.436808,1.305378 -0.243481,2.815121 -0.07734,4.292407 -0.506835,0.703427 -0.758928,0.936736 -1.662824,1.778836 -0.02574,0.686782 0.954347,1.956243 1.624154,2.358891 0.737113,-0.640382 0.85644,-0.561933 1.817506,-1.546814 0.559278,0.504609 1.5851,1.341573 2.088198,0.116011 1.068948,0.223818 1.180937,-0.147756 1.237451,-1.546813 1.133208,0.855234 1.051413,-1.393994 0.696066,-2.474902 2.993802,-2.554908 7.741011,-9.646118 5.68454,-11.639772 -0.909006,2.633671 -5.82916,8.123988 -7.695397,10.131629 -0.896484,-1.018638 -0.688171,-0.574929 -1.469473,-1.740166 -1.678961,-4.740112 -1.435282,-9.154696 -3.36432,-10.054288 -1.61152,-2.169386 0.845068,-4.327872 -2.397561,-8.391464 0.781574,-3.821097 -0.980048,-4.88695 -1.701495,-5.259166 -0.287175,-2.335181 -2.862038,-2.366716 -3.751023,-2.28155 -0.08947,-0.771403 -0.382149,-1.181445 -0.193351,-3.248309 -0.721014,-0.339109 -0.326786,-1.68222 -0.348033,-2.397561 -0.02128,-0.715342 -0.456583,-0.777501 -1.972188,-0.773407 0.142864,-1.422865 0.0469,-2.785279 -0.348033,-4.021715 0.516067,-1.344618 0.671057,-2.507233 1.546814,-4.408419 0.954743,-2.072658 1.79715,-4.842177 1.314791,-7.502046 1.336979,-1.951218 0.414051,-3.305227 -0.889418,-3.248308 z M 39.768316,54.989887 c -0.09541,0.882913 0.348033,1.392133 0.348033,1.392133 -0.357883,0.596561 -0.210144,1.383358 0.07734,1.430802 0.16817,0.333791 0.07734,0.657396 0.07734,0.657396 0,0 -3.092031,2.778415 -2.590913,3.828364 l -4.756452,3.905704 c 0.23863,-3.293023 3.262675,-4.234469 4.60177,-6.496617 0.888503,-1.500943 -1.097866,-1.281583 2.24288,-4.717782 z"
         inkscape:connector-curvature="0"
         id="path3926"
         style="fill:#000000;stroke:none" />
    </g>
  </g>
</svg>
