<?xml version="1.0" encoding="UTF-8" standalone="no"?>
<!-- Created with Inkscape (http://www.inkscape.org/) -->

<svg
   xmlns:dc="http://purl.org/dc/elements/1.1/"
   xmlns:cc="http://creativecommons.org/ns#"
   xmlns:rdf="http://www.w3.org/1999/02/22-rdf-syntax-ns#"
   xmlns:svg="http://www.w3.org/2000/svg"
   xmlns="http://www.w3.org/2000/svg"
   xmlns:sodipodi="http://sodipodi.sourceforge.net/DTD/sodipodi-0.dtd"
   xmlns:inkscape="http://www.inkscape.org/namespaces/inkscape"
   id="svg2"
   version="1.1"
   inkscape:version="0.91+devel r14221 custom"
   width="512"
   height="512"
   sodipodi:docname="mintWelcome.svg"
   viewBox="0 0 512 512">
  <metadata
     id="metadata8">
    <rdf:RDF>
      <cc:Work
         rdf:about="">
        <dc:format>image/svg+xml</dc:format>
        <dc:type
           rdf:resource="http://purl.org/dc/dcmitype/StillImage" />
        <dc:title></dc:title>
      </cc:Work>
    </rdf:RDF>
  </metadata>
  <defs
     id="defs6" />
  <sodipodi:namedview
     pagecolor="#ffffff"
     bordercolor="#666666"
     borderopacity="1"
     objecttolerance="10"
     gridtolerance="10"
     guidetolerance="10"
     inkscape:pageopacity="0"
     inkscape:pageshadow="2"
     inkscape:window-width="1920"
     inkscape:window-height="1017"
     id="namedview4"
     showgrid="false"
     inkscape:zoom="0.92187502"
     inkscape:cx="255.02413"
     inkscape:cy="201.25271"
     inkscape:window-x="0"
     inkscape:window-y="32"
     inkscape:window-maximized="1"
     inkscape:current-layer="svg2"
     showguides="true"
     inkscape:guide-bbox="true"
     inkscape:document-units="px">
    <inkscape:grid
       type="xygrid"
       id="grid2985" />
  </sodipodi:namedview>
  <path
     style="fill:#ffffff;fill-opacity:1;fill-rule:nonzero;stroke:#006642;stroke-width:14.83102512;stroke-miterlimit:4;stroke-dasharray:none;stroke-opacity:1"
     d="M 201.31096,452.00074 C 150.30326,438.60791 113.28911,405.85268 97.416113,360.06037 L 93.850186,344.9382 90.953131,252.75065 c -3.14957,-100.22284 -1.363033,-100.5979 -11.297529,-108.41974 -4.014549,-3.16078 -7.070721,-3.77326 -18.891493,-3.78595 -7.756189,-0.008 -18.2076,-0.5087 -23.225377,-1.11195 l -9.12322,-1.09688 0,-40.828454 0,-40.828498 164.652548,0.788681 c 179.61484,0.860323 173.85291,0.542527 200.67919,11.065597 33.82875,13.26981 63.44923,40.945784 77.85276,72.741854 11.03222,24.35394 10.80485,21.28886 11.64079,156.93503 0.69182,112.26175 0.49807,124.24362 -2.09015,129.25321 -4.84649,9.38103 -15.28436,19.58568 -24.37788,23.83325 l -8.6888,4.05851 -117.29861,-0.0799 c -108.12442,-0.0709 -118.25096,-0.32876 -129.4744,-3.27568 l 0,0 z m 169.67339,-53.9142 c 37.32916,-3.93261 66.14374,-32.7586 71.23725,-71.26559 1.2512,-9.45927 1.64756,-35.30666 1.12019,-73.05429 -0.98024,-70.16245 -1.29524,-71.57169 -20.28859,-90.76785 -14.11255,-14.26325 -25.07861,-18.9599 -44.2685,-18.9599 -15.15158,0 -25.97388,2.9863 -37.38624,10.31646 l -8.43716,5.41917 -14.29376,-7.43298 c -14.2116,-7.39026 -14.40017,-7.43298 -32.80206,-7.43298 -15.94506,0 -19.66336,0.56922 -26.84875,4.1105 -12.35752,6.09032 -24.79928,19.1462 -31.26428,32.80759 l -5.57694,11.78481 -0.50559,53.48616 -0.50559,53.48616 20.05534,0 20.05534,0 0.007,-49.13766 c 0.005,-45.9637 0.22951,-49.50395 3.45962,-54.80666 7.83078,-12.85557 25.96223,-16.85649 36.43138,-8.03903 10.32073,8.69284 10.49703,9.75408 10.49703,63.19413 l 0,48.78922 19.80823,0 19.80825,0 0.61044,-50.31578 c 0.58141,-47.92844 0.78395,-50.54887 4.26756,-55.22563 11.23042,-15.07673 32.00322,-15.15105 42.69086,-0.15284 4.02973,5.65511 4.04926,5.9437 4.58178,67.87731 l 0.53476,62.19807 -4.79046,8.80992 c -5.38055,9.89513 -13.70422,17.20634 -26.11728,22.94067 -8.32037,3.84375 -9.06019,3.87419 -86.10321,3.54943 -86.293,-0.36294 -83.53622,-0.0165 -96.15828,-12.28161 -3.5313,-3.43276 -8.27077,-10.21862 -10.53217,-15.07969 l -4.1116,-8.8383 -0.0169,-107.15198 -0.0169,-107.15201 -13.29538,-1.12489 c -7.31246,-0.61875 -15.91435,-1.12494 -19.11535,-1.12494 l -5.81995,0 0.11988,92.62243 c 0.0664,50.94231 0.69706,103.97192 1.40236,117.84354 1.22082,24.0092 1.55737,25.73731 7.00445,35.96317 6.58976,12.37106 21.66535,28.32817 33.10994,35.04613 16.75006,9.83202 23.60273,10.53477 103.46611,10.61069 40.14221,0.0371 79.7365,-0.6421 87.98734,-1.51111 l 0,0 z"
     id="path3021"
     inkscape:connector-curvature="0"
     sodipodi:nodetypes="cscsscscccsssscsccccccssssscssssccccccscscccsssscssscscccsscsssscccc" />
  <path
     style="fill:#0fa15f;fill-opacity:1;fill-rule:nonzero;stroke:#006642;stroke-width:1.23591876;stroke-miterlimit:4;stroke-dasharray:none;stroke-opacity:1"
     d="m 232.58276,398.77318 c -28.53067,-0.65006 -36.4158,-1.88231 -47.69036,-7.45091 -8.17942,-4.03984 -13.20745,-7.79658 -21.29646,-15.91208 -10.32882,-10.36273 -18.75414,-23.0079 -21.21382,-31.83891 -2.84835,-10.22653 -3.39355,-30.31326 -3.79319,-139.75284 l -0.35137,-96.22076 1.76571,0 c 2.78252,0 28.94667,1.74441 32.44164,2.16298 l 3.14936,0.37736 0,106.7344 0,106.7344 2.74691,5.92936 c 1.5108,3.26114 4.19189,8.10503 5.95797,10.76428 3.78954,5.7059 11.61441,13.41136 15.74885,15.50839 8.01071,4.06312 23.2307,4.72026 103.02052,4.44803 68.13551,-0.23194 63.48287,0.0531 72.43502,-4.44449 12.57583,-6.31806 19.63205,-13.44984 26.85319,-27.14069 l 1.99986,-3.79155 -0.71546,-58.6544 c -0.41073,-33.68213 -0.98235,-60.42209 -1.34233,-62.80639 -0.8072,-5.34695 -2.30548,-8.21049 -6.47391,-12.37323 -10.09806,-10.08423 -25.33258,-10.13899 -36.13349,-0.12977 -4.19738,3.88968 -5.58446,6.31558 -6.49969,11.36748 -0.75687,4.1779 -1.79992,45.79211 -1.81964,72.59919 -0.007,9.94144 -0.18671,19.73614 -0.39871,21.76605 l -0.38544,3.6907 -19.37115,0 -19.37115,0 -0.26334,-46.68436 c -0.27367,-48.52526 -0.39154,-50.8199 -2.91174,-56.68368 -1.52078,-3.53852 -7.44682,-9.28735 -11.653,-11.30466 -3.93591,-1.88762 -11.85133,-2.36201 -16.55849,-0.99228 -6.98181,2.03156 -14.33695,7.84199 -16.70248,13.19467 -2.19281,4.96188 -2.43807,9.93044 -2.79811,56.68661 l -0.35253,45.7837 -19.72715,0 -19.72716,0 0.30218,-3.75278 c 0.16615,-2.06403 0.45516,-26.04415 0.64229,-53.28919 l 0.34013,-49.53645 4.39792,-9.00664 c 6.5746,-13.4643 14.56439,-23.45081 24.34493,-30.42893 4.27906,-3.05301 10.95159,-6.55869 14.69703,-7.72174 3.22304,-1.00084 31.73728,-1.51548 36.59721,-0.66055 2.54365,0.44744 7.47722,2.57096 16.87365,7.26263 7.30343,3.64666 13.48754,6.63029 13.74246,6.63029 0.25492,0 3.00551,-1.6483 6.11245,-3.66285 11.40541,-7.39545 19.4831,-10.25351 32.44928,-11.48136 12.85047,-1.21688 24.48061,0.59197 33.69673,5.241 7.6512,3.85957 17.67636,12.46613 25.17402,21.61181 11.22445,13.69167 12.19827,21.57708 12.27238,99.3731 0.033,35.8774 -0.15119,49.87212 -0.7184,54.29712 -4.94318,38.55 -32.06105,67.10001 -68.52153,72.14013 -11.71622,1.61963 -95.26435,2.46014 -140.97151,1.41813 l 0,0 z"
     id="path3031"
     inkscape:connector-curvature="0" />
</svg>
