<?xml version="1.0" encoding="UTF-8" standalone="no"?>
<!-- Created with Inkscape (http://www.inkscape.org/) -->

<svg
   xmlns:dc="http://purl.org/dc/elements/1.1/"
   xmlns:cc="http://creativecommons.org/ns#"
   xmlns:rdf="http://www.w3.org/1999/02/22-rdf-syntax-ns#"
   xmlns:svg="http://www.w3.org/2000/svg"
   xmlns="http://www.w3.org/2000/svg"
   xmlns:sodipodi="http://sodipodi.sourceforge.net/DTD/sodipodi-0.dtd"
   xmlns:inkscape="http://www.inkscape.org/namespaces/inkscape"
   id="svg2"
   version="1.1"
   inkscape:version="0.48.5 r10040"
   width="256"
   height="256"
   sodipodi:docname="office-database.svg">
  <metadata
     id="metadata8">
    <rdf:RDF>
      <cc:Work
         rdf:about="">
        <dc:format>image/svg+xml</dc:format>
        <dc:type
           rdf:resource="http://purl.org/dc/dcmitype/StillImage" />
        <dc:title />
      </cc:Work>
    </rdf:RDF>
  </metadata>
  <defs
     id="defs6" />
  <sodipodi:namedview
     pagecolor="#ffffff"
     bordercolor="#666666"
     borderopacity="1"
     objecttolerance="10"
     gridtolerance="10"
     guidetolerance="10"
     inkscape:pageopacity="0"
     inkscape:pageshadow="2"
     inkscape:window-width="1204"
     inkscape:window-height="643"
     id="namedview4"
     showgrid="false"
     inkscape:zoom="0.921875"
     inkscape:cx="128"
     inkscape:cy="128"
     inkscape:window-x="15"
     inkscape:window-y="39"
     inkscape:window-maximized="0"
     inkscape:current-layer="svg2" />
  <path
     inkscape:connector-curvature="0"
     id="path3026"
     d="m 98.330503,247.67758 c -12.79801,-1.80028 -27.09649,-5.07307 -36,-8.24006 -18.62643,-6.62544 -33.89839,-17.40627 -38.91324,-27.46976 -2.49111,-4.99901 -2.58676,-5.8493 -2.58676,-22.99461 0,-9.9562 0.3989,-17.80366 0.90498,-17.80366 0.49774,0 2.06601,1.98116 3.48506,4.40258 13.10624,22.36411 59.73618,37.22537 110.609957,35.25209 47.07663,-1.82599 84.40346,-15.99294 94.60103,-35.90467 1.33796,-2.6125 2.85469,-4.75 3.3705,-4.75 1.6998,0 2.27895,6.9085 1.82818,21.80768 -0.40322,13.32763 -0.68311,15.15693 -3.01331,19.69436 -8.13263,15.83613 -31.54715,28.08074 -66.22053,34.63002 -14.50846,2.74042 -52.85549,3.51565 -68.065867,1.37603 z m 5.499997,-48.62777 c -30.887697,-3.10303 -59.504907,-13.64149 -72.993587,-26.88032 -8.89974,-8.7349 -9.45343,-10.497 -9.81953,-31.25 -0.21055,-11.93507 0.031,-17.75 0.73745,-17.75 0.57782,0 2.17046,1.774 3.5392,3.94222 8.68758,13.76203 31.33564,25.28098 60.93677,30.99286 59.018677,11.38833 128.078177,-3.77846 143.764707,-31.57347 1.66425,-2.94889 3.40538,-5.36161 3.86918,-5.36161 1.52267,0 2.22816,8.95717 1.76985,22.47062 -0.40422,11.91868 -0.73078,13.85935 -3.17157,18.84814 -12.58668,25.72625 -71.05767,42.34562 -128.63247,36.56156 z m 3,-48.99462 c -39.626257,-3.5007 -73.347737,-18.27246 -82.781307,-36.26251 -2.52292,-4.81128 -2.70796,-6.07805 -3.03926,-20.807098 -0.43118,-19.16953 0.21132,-20.99899 4.84097,-13.7843 8.42023,13.1218 28.22305,23.206648 56.89892,28.976558 62.919917,12.66019 133.304967,-2.86829 148.481827,-32.758348 0.90762,-1.7875 2.01866,-3.25 2.46898,-3.25 1.27232,0 2.19085,26.98111 1.13862,33.446218 -4.78186,29.38089 -64.35627,50.06273 -128.00875,44.43948 z m 4.89349,-48.98782 C 70.497133,98.446152 32.896803,82.391832 24.189003,63.692292 12.257523,38.070062 48.285793,13.052762 105.71155,7.0847017 c 16.16331,-1.6798 47.49425,-0.67661 61.68482,1.9751 16.66574,3.1142203 27.73937,6.6022503 40.1625,12.6505703 18.20311,8.86237 27.27163,19.43938 27.27163,31.80809 0,29.49356 -57.53939,51.717688 -123.10651,47.548908 z"
     style="fill:#007ac3;fill-opacity:1" />
</svg>
