<?xml version="1.0" encoding="UTF-8" standalone="no"?>
<!-- Created with Inkscape (http://www.inkscape.org/) -->

<svg
   xmlns:dc="http://purl.org/dc/elements/1.1/"
   xmlns:cc="http://creativecommons.org/ns#"
   xmlns:rdf="http://www.w3.org/1999/02/22-rdf-syntax-ns#"
   xmlns:svg="http://www.w3.org/2000/svg"
   xmlns="http://www.w3.org/2000/svg"
   xmlns:sodipodi="http://sodipodi.sourceforge.net/DTD/sodipodi-0.dtd"
   xmlns:inkscape="http://www.inkscape.org/namespaces/inkscape"
   width="512"
   height="512"
   viewBox="0 0 511.99999 511.99999"
   id="svg2"
   version="1.1"
   inkscape:version="0.91 r13725"
   sodipodi:docname="steam_icon_222880.svg">
  <defs
     id="defs4" />
  <sodipodi:namedview
     id="base"
     pagecolor="#ffffff"
     bordercolor="#666666"
     borderopacity="1.0"
     inkscape:pageopacity="0.0"
     inkscape:pageshadow="2"
     inkscape:zoom="3.4414062"
     inkscape:cx="328.41596"
     inkscape:cy="319.89255"
     inkscape:document-units="px"
     inkscape:current-layer="layer1"
     showgrid="false"
     units="px"
     inkscape:window-width="3840"
     inkscape:window-height="2036"
     inkscape:window-x="0"
     inkscape:window-y="64"
     inkscape:window-maximized="1" />
  <metadata
     id="metadata7">
    <rdf:RDF>
      <cc:Work
         rdf:about="">
        <dc:format>image/svg+xml</dc:format>
        <dc:type
           rdf:resource="http://purl.org/dc/dcmitype/StillImage" />
        <dc:title></dc:title>
      </cc:Work>
    </rdf:RDF>
  </metadata>
  <g
     inkscape:label="Capa 1"
     inkscape:groupmode="layer"
     id="layer1"
     transform="translate(0,-540.3622)">
    <path
       style="fill:#000000"
       d="m 251.6537,1019.534 c -5.5165,-4.0712 -6.73278,-4.727 -12.87049,-9.3278 l -7.57406,-5.6774 -1.63339,-1.0425 -2.58273,-1.855 -4.86694,-3.60263 -4.46899,-3.22335 -4.87526,-3.63023 -4.87525,-3.4774 -4.15979,-3.12711 -8.53169,-6.36585 -33.62345,-24.69695 -35.19598,-25.90862 c -4.21671,-3.10402 -9.00483,-6.68752 -10.75909,-7.80476 -3.53547,-2.25166 -4.54628,-4.70044 -5.70191,-13.81323 -0.36836,-2.90484 -1.25267,-9.66926 -1.96512,-15.03204 -0.71245,-5.36278 -1.64535,-12.85848 -2.07312,-16.65712 -0.42776,-3.79864 -0.98516,-7.45508 -1.23865,-8.12543 -0.2535,-0.67035 -0.79232,-4.50961 -1.1974,-8.53169 -0.40508,-4.02209 -1.28667,-11.33497 -1.95907,-16.25086 -0.67242,-4.91588 -1.590531,-12.36304 -2.040251,-16.54923 -0.44973,-4.1862 -1.18664,-8.93957 -1.63759,-10.56306 -0.45094,-1.62348 -0.82076,-4.41437 -0.82181,-6.20196 -8.6e-4,-1.78759 -0.53738,-6.90661 -1.19183,-11.3756 -0.65447,-4.46898 -1.56318,-11.23339 -2.01938,-15.03203 -0.45619,-3.79864 -1.22554,-9.64895 -1.70966,-13.00069 -0.48412,-3.35173 -1.19078,-9.20204 -1.57036,-13.00068 -0.37958,-3.79864 -1.08581,-9.64894 -1.56941,-13.00068 -0.48359,-3.35174 -1.2641,-9.20204 -1.73446,-13.00068 -0.93005,-7.51126 -2.59808,-20.48238 -4.4408,-34.53307 -0.6447,-4.91588 -1.56402,-12.22876 -2.04292,-16.25085 -0.81616,-6.85459 -1.95447,-15.50862 -4.06135,-30.87662 -0.84992,-6.19948 -1.58491,-12.37267 -3.19251,-26.8139 -0.39799,-3.57519 -1.14471,-9.14275 -1.65938,-12.37236 -0.51466,-3.22961 -0.73429,-6.19798 -0.48807,-6.59638 0.24622,-0.3984 2.36712,-0.97899 4.7131,-1.29019 2.34598,-0.31121 5.7364,-0.89103 7.53426,-1.2885 7.02688,-1.55349 12.41028,-2.59097 17.082061,-3.29202 2.68138,-0.40236 8.16605,-1.31073 12.18813,-2.01857 4.02209,-0.70786 8.40982,-1.45326 9.75052,-1.65643 1.34069,-0.20318 5.17996,-0.88416 8.53169,-1.51329 3.35175,-0.62913 9.5677,-1.73372 13.81323,-2.45466 4.24554,-0.72093 9.54738,-1.64373 11.78187,-2.05067 4.24581,-0.77323 13.33968,-2.32812 26.40763,-4.51527 4.24554,-0.71056 9.36456,-1.61374 11.3756,-2.00706 7.75473,-1.51667 13.59323,-2.5242 18.28221,-3.15488 2.68139,-0.36066 6.8863,-1.05368 9.34425,-1.54004 19.35265,-3.82944 36.46071,-4.98691 49.52292,-3.35055 6.90333,0.8648 8.73158,1.15773 21.98083,3.52184 3.79863,0.67781 8.18636,1.44724 9.75051,1.70986 1.56414,0.26261 5.76905,0.99284 9.34423,1.62272 11.67084,2.05619 21.85247,3.77782 26.40765,4.46532 2.45794,0.37098 7.75977,1.27416 11.78186,2.00708 4.02209,0.73291 9.82669,1.68922 12.89912,2.1251 3.07244,0.43588 6.24779,1.14656 7.05633,1.57929 0.80856,0.43272 2.72923,0.78676 4.26818,0.78676 4.14916,0 8.68435,2.12735 8.68435,4.07362 0,1.92441 0.91912,2.02098 4.01212,0.42153 1.89398,-0.97942 3.59367,-1.04757 9.50702,-0.38119 3.96038,0.44629 8.48045,1.16376 10.04459,1.59438 1.56415,0.43062 4.09152,0.78498 5.61639,0.78747 1.52486,0.003 4.63284,0.52763 6.90661,1.16697 2.27377,0.63934 6.69363,1.57803 9.82192,2.08598 9.56342,1.55283 10.00375,1.68205 10.55865,3.09844 0.95139,2.42848 0.43093,17.22382 -0.81615,23.20144 -0.66521,3.18852 -1.20393,7.07706 -1.19716,8.64121 0.007,1.56414 -0.52907,6.31752 -1.19074,10.56306 -0.66168,4.24553 -1.60753,11.00995 -2.10189,15.03203 -0.49436,4.02208 -1.23937,9.54122 -1.65557,12.26473 -0.4162,2.72351 -1.1122,8.93946 -1.54667,13.81323 -0.43447,4.87376 -1.36561,12.33499 -2.06918,16.58053 -0.70359,4.24553 -1.81694,12.65535 -2.47413,18.68848 -0.65718,6.03313 -1.50058,13.16319 -1.87423,15.84458 -0.64162,4.60453 -1.64594,12.52649 -3.34788,26.40763 -0.41094,3.35175 -1.32436,11.2131 -2.0298,17.46967 -1.23956,10.99362 -2.27679,18.95727 -4.81531,36.9707 -0.66127,4.69243 -1.59891,11.63967 -2.08363,15.43831 -0.48473,3.79863 -1.25485,9.53664 -1.71139,12.75112 -0.45652,3.21447 -1.17543,8.88196 -1.59757,12.59441 -0.42212,3.71245 -1.32956,11.13763 -2.01653,16.50041 -0.68697,5.36278 -1.56764,12.67567 -1.95706,16.25086 -1.80759,16.59545 -3.64672,26.40763 -4.94962,26.40763 -0.32067,0 -10.22595,7.01525 -22.01174,15.58943 -11.78577,8.57419 -28.9244,20.98893 -38.08582,27.5883 -9.16141,6.59937 -17.04005,12.32685 -17.50808,12.72772 -1.47099,1.25994 -27.46857,19.99904 -30.02566,21.64254 -1.3407,0.86163 -2.84988,1.95672 -3.35374,2.43333 -0.50387,0.4767 -1.73702,1.41518 -2.74033,2.08547 -1.00331,0.6704 -2.2519,1.5845 -2.77464,2.0314 -0.52274,0.4469 -1.52358,1.1781 -2.22408,1.6251 -2.53289,1.6158 -6.0806,4.1112 -11.81829,8.3125 -3.21623,2.355 -6.0654,4.2819 -6.3315,4.2819 -0.2661,0 -0.92544,0.3724 -1.4652,0.8275 -4.03714,3.4046 -5.09145,4.0477 -6.63565,4.0477 -0.96204,0 -2.86394,-0.8227 -4.22643,-1.8282 z m 7.29336,-12.9262 c 0.97613,-0.5177 4.35396,-2.8029 7.50627,-5.0784 3.15231,-2.27544 6.30264,-4.50285 7.00073,-4.9497 0.69809,-0.44694 4.15206,-2.985 7.67548,-5.64022 3.52343,-2.65513 8.23444,-6.15791 10.46893,-7.78378 2.2345,-1.62591 7.53634,-5.50231 11.78188,-8.61422 4.24553,-3.1119 13.20381,-9.64544 19.90729,-14.51896 6.70348,-4.87353 13.83354,-10.18861 15.84459,-11.81131 2.01103,-1.62269 9.32392,-7.10885 16.25084,-12.19145 6.92693,-5.0826 13.10278,-9.74081 13.7241,-10.35158 0.62133,-0.61075 2.07222,-1.72516 3.2242,-2.47645 1.15198,-0.75129 6.09684,-4.36671 10.9886,-8.03428 9.57218,-7.1767 11.0118,-9.26877 11.06703,-16.0829 0.0145,-1.78759 0.56845,-5.80953 1.23104,-8.93766 0.66259,-3.12812 1.20471,-7.33317 1.20471,-9.34454 0,-2.01138 0.54212,-6.21642 1.20471,-9.34454 0.66258,-3.12813 1.21105,-7.29048 1.21881,-9.24967 0.008,-1.9592 0.35413,-4.88435 0.76972,-6.50034 0.72955,-2.83676 2.11832,-12.69612 3.33244,-23.65801 0.61746,-5.57487 2.00341,-16.36659 3.23493,-25.18882 1.73301,-12.41481 2.6353,-19.46913 3.22176,-25.18882 0.34367,-3.35175 1.06049,-9.20205 1.59292,-13.00069 0.53244,-3.79863 1.30158,-9.2833 1.70921,-12.18813 0.40763,-2.90484 1.15821,-8.02386 1.66798,-11.3756 0.50976,-3.35174 1.21042,-8.8364 1.55702,-12.18815 0.73162,-7.07516 2.12272,-17.15324 3.25929,-23.61264 0.43722,-2.48484 0.79495,-5.543 0.79495,-6.7959 0,-2.11167 1.25128,-11.51231 3.361,-25.25062 0.4804,-3.12829 1.18881,-8.43013 1.57424,-11.78187 0.38544,-3.35174 1.28439,-10.66462 1.99767,-16.25085 0.71329,-5.58624 1.61588,-12.89912 2.00575,-16.25086 0.38989,-3.35174 1.09769,-7.3714 1.57291,-8.9326 0.47521,-1.56119 0.86402,-4.88471 0.86402,-7.3856 0,-4.16263 -0.18891,-4.63637 -2.23449,-5.60348 -2.24853,-1.06306 -6.65631,-2.2239 -11.17246,-2.9424 -4.68638,-0.74558 -16.30144,-2.84277 -22.34493,-4.03456 -3.35173,-0.66097 -7.92229,-1.53697 -10.15678,-1.94668 -2.23449,-0.4097 -7.17069,-1.33651 -10.96932,-2.05958 -3.79864,-0.72307 -9.64894,-1.83131 -13.00069,-2.46276 -3.35173,-0.63144 -7.191,-1.36508 -8.53169,-1.63031 -7.81552,-1.54613 -15.1992,-2.91227 -19.26902,-3.56519 -2.55379,-0.40971 -4.99843,-0.96443 -5.43253,-1.23273 -0.4341,-0.26828 -3.28084,-0.84979 -6.32608,-1.29223 -3.04523,-0.44243 -8.0963,-1.3153 -11.22459,-1.93969 -15.81348,-3.1563 -19.82987,-3.93454 -23.56374,-4.5658 -2.23449,-0.37778 -6.98787,-1.26871 -10.56305,-1.97984 -11.09568,-2.20702 -16.18798,-3.08805 -17.87594,-3.09275 -1.6322,-0.004 -6.62275,0.8119 -18.68848,3.05741 -3.57519,0.66535 -8.87703,1.58826 -11.78187,2.05087 -2.90484,0.46263 -5.88603,1.02933 -6.62485,1.25932 -0.73884,0.23001 -3.29835,0.77287 -5.6878,1.20636 -2.38946,0.43349 -7.0868,1.33836 -10.43854,2.01082 -3.35174,0.67245 -8.35128,1.54519 -11.11008,1.93942 -2.7588,0.39422 -5.4378,0.97745 -5.95332,1.29606 -0.51552,0.3186 -3.19451,0.90183 -5.95331,1.29605 -2.75881,0.39423 -7.75834,1.27034 -11.11009,1.9469 -3.35173,0.67658 -8.42151,1.59934 -11.26617,2.0506 -2.84466,0.45124 -5.53213,1.04296 -5.97216,1.3149 -0.44002,0.27195 -2.86594,0.78393 -5.39094,1.13772 -2.52499,0.3538 -7.51605,1.25237 -11.09124,1.99684 -3.57519,0.74446 -8.32856,1.6325 -10.56305,1.97342 -4.70668,0.71812 -12.98617,2.25693 -18.369,3.41403 -4.19438,0.90163 -11.972901,2.19779 -18.414061,3.06839 -6.58923,0.89061 -6.99197,1.63256 -5.82628,10.73337 0.53768,4.19771 1.24877,10.55735 1.58021,14.13253 0.75233,8.11517 2.24604,21.08668 3.22806,28.03273 1.29227,9.1404 2.70096,20.49334 3.32711,26.8139 0.68027,6.86678 2.0647,18.11384 3.20057,26.00137 0.92887,6.45001 2.48403,18.87063 3.25559,26.00137 1.789031,16.53413 2.570491,22.70447 3.268711,25.80988 0.42849,1.90573 0.77908,5.07295 0.77908,7.03827 0,1.96532 0.5484,6.43921 1.21867,9.94199 0.67027,3.50277 1.22767,8.01408 1.23868,10.02513 0.011,2.01104 0.40092,5.30183 0.86649,7.31288 0.46557,2.01104 1.17492,6.94724 1.57635,10.96932 1.22841,12.30819 2.33677,21.70363 3.16319,26.81391 0.78104,4.82964 2.03712,14.21138 3.37243,25.18882 0.38052,3.12829 1.2696,10.44118 1.97571,16.25086 0.70613,5.80968 1.63303,13.67102 2.05979,17.46966 0.42676,3.79864 1.15854,7.82072 1.62618,8.93797 0.70617,1.68717 23.37496,18.66752 28.56074,22.44448 l 3.34686,2.43762 31.03036,23.08488 6.45042,5.01579 2.17645,1.45759 1.675,1.0638 c 2.17811,1.3833 46.22107,34.28131 57.13916,41.79133 5.51361,3.7925 5.55108,3.8044 7.97572,2.5186 z m -2.28792,-8.80933 c -0.2762,-0.44686 -0.99791,-0.81249 -1.60382,-0.81249 -1.55119,0 -18.41462,-12.17165 -21.14737,-14.32841 l -4.23889,-3.34547 c -5.43594,-4.2902 -9.16806,-7.38351 -9.16806,-8.82684 0,-0.74883 1.27975,-4.0508 2.8439,-7.33771 1.56414,-3.2869 4.15301,-8.80993 5.75305,-12.2734 6.23095,-13.48763 29.2491,-59.38954 32.29125,-64.39401 13.50771,-22.22067 30.52781,-46.72165 37.48418,-53.95972 2.53774,-2.64049 7.58215,-8.43092 11.20982,-12.86763 5.17463,-6.32868 8.5332,-9.46438 15.5879,-14.55356 10.5777,-7.63064 20.36166,-16.80828 21.1139,-19.80547 0.31984,-1.27434 0.0501,-3.09216 -0.67435,-4.54434 -1.07274,-2.15035 -1.07002,-2.47311 0.0244,-2.89307 0.6775,-0.25999 1.64603,-0.0585 2.15227,0.44773 1.45173,1.45174 3.07509,1.08614 4.77542,-1.07548 2.31078,-2.93769 7.19559,-10.28249 7.19559,-10.8193 0,-0.25507 0.59824,-1.12482 1.32941,-1.93276 1.23309,-1.36254 1.22714,-1.50824 -0.082,-2.01061 -0.77628,-0.29788 -1.64875,-0.20912 -1.93882,0.19726 -0.93727,1.31305 -10.12751,5.39179 -14.37204,6.37846 -6.53169,1.51835 -9.02138,0.36726 -17.70186,-8.18439 -7.58361,-7.47106 -9.04692,-8.28809 -15.58098,-8.69946 -2.23654,-0.1408 -2.45573,0.0811 -2.65696,2.69044 -0.36544,4.73804 -0.97103,6.50034 -2.23377,6.50034 -0.66181,0 -1.20332,-0.36565 -1.20332,-0.81254 0,-0.4469 -0.64333,-0.81255 -1.42963,-0.81255 -1.32734,0 -2.34946,1.16431 -4.63658,5.28153 -3.15416,5.67808 -6.43869,10.18694 -7.23001,9.92505 -0.57355,-0.18981 -1.13372,-3.86332 -1.47887,-9.69816 -0.53683,-9.07548 -2.73129,-17.95402 -5.98062,-24.19689 -0.5815,-1.11725 -1.86536,-3.80103 -2.85303,-5.96395 -1.76336,-3.8617 -6.06281,-7.82153 -10.51804,-9.68723 -1.11725,-0.46787 -3.49394,-1.50403 -5.28154,-2.30259 -1.78759,-0.79855 -4.26147,-1.69728 -5.49751,-1.99717 -2.44672,-0.59363 -5.7372,-4.15111 -4.97711,-5.38096 0.2599,-0.42054 1.5082,-0.53715 2.77399,-0.25913 4.42619,0.97215 13.86856,-4.80419 16.65205,-10.18686 1.7483,-3.38084 3.6718,-3.2187 3.10697,0.26191 -0.98838,6.09074 6.89051,13.5804 18.19488,17.29602 7.64781,2.51375 10.85407,2.4131 20.12438,-0.63172 8.10151,-2.66094 7.21603,-3.70509 -4.75252,-5.60422 -6.14506,-0.97508 -11.09206,-2.75638 -11.09206,-3.994 0,-0.95787 6.9213,-0.97313 12.59441,-0.0278 3.85633,0.64262 6.09407,0.0506 6.09407,-1.61226 0,-0.35167 -2.19709,-3.32346 -4.88243,-6.60399 -6.16383,-7.53001 -5.92834,-7.20599 -7.00837,-9.64306 -1.53161,-3.45601 -5.30041,-7.39043 -10.01955,-10.45983 l -4.49729,-2.92506 -14.60219,0.11105 c -14.11287,0.10732 -26.21713,1.1982 -32.11901,2.89467 -5.86951,1.68716 -13.24115,5.84383 -16.9614,9.56407 -3.05172,3.05174 -4.07543,4.79712 -4.94873,8.43743 -1.27272,5.30529 -0.95164,6.3698 3.90462,12.94543 4.92231,6.66507 5.41341,8.75559 4.31861,18.38343 -1.64854,14.49766 -1.34189,17.6587 3.19958,32.98089 1.12432,3.79327 2.27223,1.05111 -12.92547,30.87662 -11.71748,22.99557 -17.99963,34.82761 -24.26333,45.69848 -2.37963,4.12992 -4.32661,7.68785 -4.32661,7.90651 0,0.21865 -1.22764,2.32427 -2.72809,4.67917 -1.50045,2.3549 -4.11621,6.84114 -5.81277,9.96943 -1.69658,3.12829 -3.68616,6.60191 -4.42128,7.71916 -0.73512,1.11724 -1.73151,2.94546 -2.2142,4.06271 -0.48268,1.11724 -2.53117,4.26857 -4.5522,7.00294 -2.93326,3.96859 -4.7283,5.48493 -8.8975,7.51602 -2.8726,1.39944 -5.76075,2.54444 -6.41813,2.54444 -0.65737,0 -1.54259,0.30615 -1.96714,0.68032 -0.42456,0.37418 -3.8799,1.77679 -7.67853,3.11692 -17.47834,6.16619 -17.82421,6.15637 -14.95928,-0.42427 3.63496,-8.34937 9.79386,-17.56011 20.9999,-31.4057 16.44742,-20.32156 37.89276,-49.02634 50.08167,-67.03477 2.87358,-4.24553 5.42158,-7.90197 5.66224,-8.12542 1.14344,-1.06168 7.28159,-10.64319 7.28159,-11.36641 0,-0.45195 0.32733,-0.82174 0.72739,-0.82174 0.40005,0 1.67671,-1.81555 2.837,-4.03456 3.76575,-7.20186 0.15074,-3.68803 -8.40934,8.17398 -4.48565,6.21592 -8.15573,11.54461 -8.15573,11.84153 0,0.29692 -0.56754,1.11899 -1.2612,1.82683 -0.69365,0.70784 -5.31004,6.95447 -10.25863,13.88139 -4.9486,6.92693 -9.77431,13.58802 -10.7238,14.80242 -0.94951,1.21442 -2.7543,3.5911 -4.01065,5.28153 -19.21955,25.86014 -49.02429,59.54523 -52.68591,59.54523 -1.15672,0 -2.49398,-7.01649 -4.02639,-21.12611 -0.36401,-3.35174 -1.21518,-10.11615 -1.89146,-15.03204 -0.6763,-4.91588 -1.6081,-12.41159 -2.07068,-16.65712 -0.4626,-4.24554 -1.05405,-8.63327 -1.31436,-9.75051 -0.26031,-1.11725 -0.80822,-5.13934 -1.21759,-8.93797 -0.40936,-3.79864 -1.28999,-11.11153 -1.95693,-16.25085 -0.66695,-5.13934 -1.57442,-12.63504 -2.0166,-16.65713 -0.44218,-4.02209 -1.0138,-7.8604 -1.27027,-8.52959 -0.25646,-0.66919 -0.80813,-4.69129 -1.22591,-8.93797 -0.4178,-4.24669 -1.32,-12.109 -2.00492,-17.47178 -0.68491,-5.36278 -1.59988,-12.85848 -2.03326,-16.65712 -0.43339,-3.79864 -0.99539,-7.45507 -1.24888,-8.12542 -0.25349,-0.67035 -0.79232,-4.50962 -1.1974,-8.5317 -0.40508,-4.02209 -1.28889,-11.33497 -1.96403,-16.25085 -0.67513,-4.91589 -1.602621,-12.72725 -2.061061,-17.35858 -0.45845,-4.63132 -1.03321,-8.74365 -1.27724,-9.13849 -0.24403,-0.39484 -0.7949,-4.46693 -1.22417,-9.04907 -0.42926,-4.58214 -1.34626,-12.71889 -2.03777,-18.08168 -1.74623,-13.54217 -2.37606,-29.40144 -1.22283,-30.791 0.50029,-0.60282 2.45775,-1.31726 4.34991,-1.58766 1.89217,-0.2704 6.182641,-1.06767 9.534371,-1.77171 3.35174,-0.70404 8.39426,-1.61426 11.20562,-2.02273 2.81135,-0.40846 5.49034,-0.97677 5.95331,-1.2629 0.46298,-0.28614 3.09898,-0.84853 5.85778,-1.24977 2.75881,-0.40123 7.94117,-1.29605 11.51636,-1.98849 3.57518,-0.69243 8.51138,-1.56605 10.96932,-1.94136 2.45794,-0.37533 5.4983,-1.08698 6.75637,-1.58145 1.25806,-0.49447 3.48877,-0.89904 4.95715,-0.89904 1.46836,0 3.72982,-0.33363 5.02549,-0.7414 1.29565,-0.40777 6.01219,-1.35435 10.48117,-2.10349 4.46898,-0.74914 9.77082,-1.72482 11.78186,-2.16817 2.01105,-0.44336 5.48467,-1.10121 7.71916,-1.4619 2.2345,-0.36069 7.17069,-1.28177 10.96933,-2.04685 3.79864,-0.76507 8.84491,-1.69114 11.21394,-2.05796 2.36903,-0.3668 6.02546,-1.04369 8.12542,-1.50418 6.67551,-1.46384 18.25192,-3.2786 24.13167,-3.78296 6.40856,-0.54972 13.9732,0.40272 38.59578,4.85949 3.79863,0.68757 9.64894,1.81517 13.00067,2.50578 3.35175,0.69061 7.92229,1.54817 10.15679,1.90569 5.20516,0.83282 13.81683,2.48995 17.46967,3.36163 3.84143,0.91669 11.59578,2.3485 17.18531,3.1732 2.52499,0.37255 4.96962,0.91142 5.43252,1.19751 0.4629,0.28608 3.3332,0.88215 6.37843,1.32459 3.04524,0.44244 8.27913,1.3733 11.63087,2.06859 3.35173,0.69528 8.47075,1.60239 11.37559,2.0158 2.90485,0.4134 5.82999,0.99278 6.50034,1.28748 0.67035,0.29472 3.04704,0.80153 5.28153,1.12624 5.52688,0.80316 17.32838,3.06136 20.31357,3.88697 4.03699,1.11652 4.58756,3.24767 4.02838,15.59292 -0.27328,6.03313 -0.86297,13.1632 -1.31044,15.84459 -0.44746,2.68139 -1.10286,7.25194 -1.45642,10.15678 -0.35357,2.90484 -1.07072,8.20668 -1.59367,11.78187 -0.99068,6.77277 -1.56252,11.34576 -3.70866,29.65781 -0.70708,6.03312 -1.82396,13.94267 -2.48198,17.57675 -0.65801,3.63408 -1.19636,7.92516 -1.19636,9.53571 0,1.61056 -0.34525,4.48753 -0.76721,6.39326 -1.36925,6.18398 -3.30052,18.78247 -3.64511,23.77853 -0.49132,7.1235 -2.61098,24.7726 -4.09862,34.1268 -1.52947,9.61721 -1.59861,10.17082 -3.29789,26.40763 -0.72494,6.92693 -1.64854,13.87417 -2.05242,15.43831 -0.84627,3.27737 -2.35201,14.53397 -3.20634,23.97001 -0.77548,8.56517 -2.86627,23.31569 -6.23935,44.01879 -0.50924,3.12555 -6.67064,9.25299 -16.10138,16.01265 -7.9959,5.73119 -11.45161,8.27533 -32.13806,23.66045 -9.01334,6.70347 -17.40975,12.91943 -18.65869,13.81323 -7.83172,5.60467 -48.0218,35.25488 -50.36482,37.15654 -1.56414,1.26954 -3.28552,2.66122 -3.82528,3.09255 -0.53976,0.43141 -1.29872,0.78435 -1.68658,0.78435 -0.38786,0 -1.56396,0.91403 -2.61356,2.03134 -2.00695,2.13632 -3.6286,2.57854 -4.46898,1.21877 z m -31.28289,-231.6728 c 0,-0.89517 -0.57032,-3.52451 -1.26739,-5.84297 -0.69706,-2.31847 -1.59837,-5.49514 -2.0029,-7.05929 -0.40455,-1.56414 -0.95579,-3.6666 -1.225,-4.67212 -0.26922,-1.00552 -0.86576,-1.82822 -1.32568,-1.82822 -1.48509,0 0.8195,14.82457 2.57796,16.58303 0.44296,0.44296 0.80538,1.58542 0.80538,2.5388 0,0.9534 0.23383,1.96725 0.51961,2.25304 0.85704,0.85705 1.91802,-0.23393 1.91802,-1.97227 z m 127.06279,-5.58938 c 3.05903,-1.78759 5.88697,-3.25016 6.28431,-3.25016 0.39734,0 0.72244,-0.36565 0.72244,-0.81255 0,-0.44689 0.35074,-0.81254 0.77942,-0.81254 0.42869,0 2.43973,-1.00286 4.46899,-2.22858 4.10597,-2.4801 4.4765,-3.81495 2.42314,-8.72934 -1.45915,-3.49223 -1.00168,-4.46032 1.39917,-2.96097 1.13293,0.70752 1.95226,0.78329 2.504,0.23156 0.45104,-0.45104 1.14487,-5.81292 1.54183,-11.91529 l 0.72177,-11.09521 -2.60084,-3.79287 c -1.43046,-2.08608 -3.85178,-5.6211 -5.38071,-7.85559 -3.33281,-4.87083 -7.48186,-12.91348 -7.48186,-14.50311 0,-0.62837 -0.54846,-1.59767 -1.21881,-2.15401 -0.67035,-0.55635 -1.21882,-1.58307 -1.21882,-2.28161 0,-1.96758 -3.31822,-5.03128 -5.44926,-5.03128 -1.0537,0 -3.11128,-0.49949 -4.57239,-1.10999 -3.08577,-1.28932 -4.60412,-5.11366 -4.60412,-11.5967 0,-3.23016 -0.46225,-4.54724 -2.43664,-6.9425 -3.69595,-4.48383 -8.76755,-6.61866 -14.70356,-6.18929 -6.4963,0.46989 -8.38536,2.28731 -8.48985,8.16785 -0.0752,4.23576 -2.30482,9.42595 -6.14786,14.31158 -1.82298,2.31754 -1.90965,3.59211 -0.4409,6.48386 0.60248,1.18619 1.77886,3.6193 2.61416,5.40689 2.7789,5.94696 13.54963,20.49905 15.81924,21.37304 0.82262,0.31678 9.7227,-7.93927 9.7227,-9.01915 0,-0.44759 -1.64539,-2.81244 -3.65644,-5.25523 -2.01104,-2.4428 -3.65644,-4.76509 -3.65644,-5.16064 0,-1.18583 1.90188,-0.78256 4.03301,0.85513 1.77773,1.36612 2.2443,1.41272 4.17065,0.41656 1.19294,-0.61689 2.40161,-2.0485 2.68594,-3.18134 0.28433,-1.13285 1.07662,-2.05972 1.76064,-2.05972 1.03918,0 1.15844,0.83504 0.7253,5.07839 -0.78824,7.72206 -2.41907,10.79642 -10.02126,18.89162 -6.86837,7.31377 -13.02454,12.43685 -20.02853,16.66746 -4.34644,2.62537 -6.88949,4.67557 -6.88949,5.55429 0,1.48258 7.8612,9.48914 11.55015,11.7637 2.87099,1.77023 9.03876,1.74264 12.29449,-0.055 6.07073,-3.35193 22.47029,-18.28053 22.47029,-20.45482 0,-0.42649 -0.37587,-1.76407 -0.83528,-2.97238 -1.07477,-2.82688 -0.51418,-3.32281 1.93905,-1.7154 1.8081,1.18472 2.06595,1.17719 3.19163,-0.0931 0.67355,-0.76005 1.35379,-2.0829 1.51165,-2.93966 0.15786,-0.85677 0.74408,-1.70994 1.3027,-1.89594 0.73193,-0.2437 1.01568,0.93373 1.01568,4.21467 0,5.11491 -2.71199,10.52056 -5.92106,11.80207 -3.48497,1.39171 -24.95556,20.17422 -24.95556,21.83118 0,0.44043 1.86777,2.48006 4.15059,4.53252 3.89858,3.50515 4.42972,3.73174 8.74773,3.73174 3.89466,0 5.44704,-0.49666 10.15901,-3.25017 z m 7.81929,-45.50238 c 0,-0.4469 0.36564,-0.81255 0.81254,-0.81255 0.44691,0 0.81254,0.36565 0.81254,0.81255 0,0.44689 -0.36563,0.81254 -0.81254,0.81254 -0.4469,0 -0.81254,-0.36565 -0.81254,-0.81254 z m -52.79306,-39.28274 c 2.1474,-4.04789 1.79659,-5.82404 -1.42136,-7.19634 -3.27813,-1.39797 -5.10119,-3.12662 -5.10119,-4.83704 0,-1.80833 2.08927,-1.96358 3.77252,-0.28035 1.50323,1.50324 4.2613,1.59046 4.81321,0.15221 0.55284,-1.44069 -3.96326,-10.935 -6.74816,-14.18687 -1.71552,-2.00315 -3.5319,-2.9509 -7.71428,-4.02514 l -5.47043,-1.40507 -5.38946,2.82582 c -7.78176,4.08018 -12.26875,8.33154 -15.14219,14.34706 -2.23055,4.66961 -2.68372,5.13836 -4.99141,5.16293 -2.46362,0.0262 -4.60882,1.34687 -6.90346,4.24992 -1.85972,2.35281 0.1752,3.84848 5.23602,3.84848 3.95322,0 4.50769,-0.2354 6.40086,-2.71746 1.13999,-1.49461 2.0727,-3.08383 2.0727,-3.53161 0,-2.27751 4.37282,-9.18924 5.81373,-9.18924 0.96435,0 0.86076,3.05589 -0.11476,3.38559 -0.44077,0.14896 -1.0298,1.94098 -1.30896,3.98224 -0.7801,5.70418 0.40553,6.44539 10.30995,6.44539 7.09862,0 8.45427,0.23403 11.12634,1.92084 1.67356,1.05647 3.53928,2.51904 4.14606,3.25017 2.05131,2.47167 4.58199,1.62936 6.61427,-2.20153 z m -56.08765,186.77754 c 0,-0.33598 2.19333,-4.46484 6.26848,-11.80019 0.62068,-1.11724 2.03639,-3.49393 3.14601,-5.28152 1.10963,-1.78759 2.57521,-4.3471 3.25684,-5.6878 3.46958,-6.82426 9.9265,-15.84021 11.8552,-16.55368 2.21416,-0.81907 6.35009,-0.15039 6.35009,1.02665 0,0.52011 -1.00552,1.84978 -2.2345,2.95482 -4.0663,3.65624 -10.85052,12.42643 -23.08189,29.83874 -3.53728,5.0356 -5.56023,7.03772 -5.56023,5.50298 z m -13.00069,-34.88994 c 0,-0.6331 0.27424,-1.27298 0.60941,-1.42195 0.33518,-0.14896 1.82964,-2.64753 3.32102,-5.55237 3.02515,-5.8922 5.60864,-9.42027 6.35304,-8.67586 0.44867,0.44866 -0.73634,3.18798 -3.23303,7.47358 -4.39056,7.53648 -5.59502,9.32771 -6.27214,9.32771 -0.42806,0 -0.7783,-0.518 -0.7783,-1.15111 z"
       id="path4714"
       inkscape:connector-curvature="0"
       sodipodi:nodetypes="csccccccccccssssscsssscssssssssssssssssssssssssssssssscssssscsssscssssssssssssssssssscccccsssscccccsssssssssssscsssssssssssssssssssssssscsssscsssssscsssssssssssssssssscssssssssccccssccssssssssssssscsssccssssssssssssssscsssssssssssscsssssssssssssssssssssssssssssssssssssssssssscssssssssssssssssssssssssssssscsssssssssssssssssssssssccsccssssssssscsssssssscsssssssssscssssssssssssssssssssssssssssccsssssssssssscsssssssssssssssssssssssscscsss" />
    <path
       style="fill:#ffffff;fill-opacity:1;opacity:0.3"
       d="M 258.27344 31.001953 C 247.67565 31.069248 235.4319 32.439526 222.12695 35.072266 C 219.669 35.558626 215.46264 36.252621 212.78125 36.613281 C 208.09227 37.243961 202.25473 38.250908 194.5 39.767578 C 193.33556 39.995319 191.09467 40.39683 188.61914 40.830078 C 187.88647 41.158221 185.44259 41.685558 182.85938 42.054688 C 180.10056 42.448917 175.0998 43.325393 171.74805 44.001953 C 168.39632 44.678533 163.32708 45.601474 160.48242 46.052734 C 157.63776 46.503974 154.9498 47.095248 154.50977 47.367188 C 154.06975 47.639137 151.64414 48.150116 149.11914 48.503906 C 146.59415 48.857706 141.60253 49.757483 138.02734 50.501953 C 134.45215 51.246413 129.69933 52.133689 127.46484 52.474609 C 122.75816 53.192729 114.47853 54.731572 109.0957 55.888672 C 104.90132 56.790302 97.122801 58.086431 90.681641 58.957031 C 84.092411 59.847641 83.689779 60.590596 84.855469 69.691406 C 84.904532 70.074444 84.962141 70.608156 85.013672 71.023438 C 85.853382 69.77624 87.573129 69.377182 90.681641 68.957031 C 91.510928 68.844943 92.396645 68.712337 93.259766 68.587891 C 93.355715 67.694273 93.48941 67.067914 93.673828 66.845703 C 94.174118 66.242883 96.131277 65.528212 98.023438 65.257812 C 99.915607 64.987413 104.20491 64.190368 107.55664 63.486328 C 110.90838 62.782288 115.95231 61.871361 118.76367 61.462891 C 121.57502 61.054431 124.25383 60.487302 124.7168 60.201172 C 125.17978 59.915032 127.81542 59.352412 130.57422 58.951172 C 133.33303 58.549942 138.51465 57.655331 142.08984 56.962891 C 145.66502 56.270461 150.60261 55.396794 153.06055 55.021484 C 155.51849 54.646154 158.55834 53.933923 159.81641 53.439453 C 161.07447 52.944983 163.30506 52.541016 164.77344 52.541016 C 166.2418 52.541016 168.50316 52.206598 169.79883 51.798828 C 171.09448 51.391058 175.81032 50.444453 180.2793 49.695312 C 184.74828 48.946172 190.05146 47.970694 192.0625 47.527344 C 194.07355 47.083984 197.54676 46.427096 199.78125 46.066406 C 202.01575 45.705716 206.95136 44.784611 210.75 44.019531 C 214.54864 43.254461 219.59581 42.327757 221.96484 41.960938 C 224.33387 41.594137 227.98988 40.917521 230.08984 40.457031 C 236.76535 38.993191 248.34095 37.178188 254.2207 36.673828 C 260.62926 36.124108 268.19383 37.076433 292.81641 41.533203 C 296.61504 42.220773 302.46663 43.348453 305.81836 44.039062 C 309.17011 44.729672 313.74011 45.587792 315.97461 45.945312 C 321.17977 46.778132 329.79247 48.434961 333.44531 49.306641 C 337.28674 50.223331 345.03938 51.653816 350.62891 52.478516 C 353.1539 52.851066 355.5996 53.391644 356.0625 53.677734 C 356.5254 53.963814 359.39618 54.559513 362.44141 55.001953 C 365.48665 55.444393 370.72053 56.375023 374.07227 57.070312 C 377.424 57.765593 382.54243 58.672528 385.44727 59.085938 C 388.35212 59.499338 391.27692 60.078347 391.94727 60.373047 C 392.61762 60.667767 394.99403 61.17529 397.22852 61.5 C 402.7554 62.30316 414.55778 64.561109 417.54297 65.386719 C 419.31942 65.878035 420.42007 66.568198 421.04883 68.236328 C 424.55115 68.934721 427.73295 69.835241 429.52734 70.683594 C 430.41315 71.102386 430.93681 71.44421 431.26172 72.017578 C 431.55475 70.325294 431.76172 68.098473 431.76172 66.287109 C 431.76172 62.124479 431.57292 61.650704 429.52734 60.683594 C 427.27881 59.620534 422.87162 58.458734 418.35547 57.740234 C 413.66909 56.994654 402.05326 54.896868 396.00977 53.705078 C 395.38451 53.581777 394.80224 53.475641 394.11523 53.341797 C 390.75579 53.076368 389.3167 53.26841 387.83398 54.035156 C 384.74098 55.634606 383.82227 55.537691 383.82227 53.613281 C 383.82227 52.644255 382.69578 51.631311 381.05469 50.857422 C 378.88144 50.450069 377.02144 50.105935 374.88477 49.699219 C 374.36092 49.599505 373.68174 49.471478 373.0918 49.359375 C 372.82666 49.317577 372.58408 49.270449 372.33984 49.216797 C 368.77899 48.540549 364.5785 47.744179 361.88281 47.236328 C 358.53108 46.604888 354.69225 45.872652 353.35156 45.607422 C 350.50167 45.043633 347.8961 44.55257 345.30078 44.0625 C 342.83195 43.63832 340.52561 43.251233 339.13281 43.041016 C 334.57763 42.353516 324.39545 40.632362 312.72461 38.576172 C 309.14943 37.946292 304.945 37.215735 303.38086 36.953125 C 301.81671 36.690505 297.42754 35.921951 293.62891 35.244141 C 280.37966 32.880031 278.55177 32.587456 271.64844 31.722656 C 267.5665 31.211294 263.09061 30.971365 258.27344 31.001953 z M 72.234375 61.394531 C 71.770987 61.556787 71.407202 61.716083 71.322266 61.853516 C 71.076046 62.251916 71.295887 65.221562 71.810547 68.451172 C 72.325217 71.680782 73.070759 77.247076 73.46875 80.822266 C 75.076349 95.263496 75.812189 101.43724 76.662109 107.63672 C 78.768989 123.00472 79.906496 131.65908 80.722656 138.51367 C 81.201556 142.53576 82.120925 149.84779 82.765625 154.76367 C 84.608345 168.81436 86.276981 181.78562 87.207031 189.29688 C 87.677391 193.09551 88.457816 198.94709 88.941406 202.29883 C 89.425006 205.65057 90.130186 211.50019 90.509766 215.29883 C 90.889346 219.09747 91.595958 224.9471 92.080078 228.29883 C 92.564198 231.65057 93.334826 237.50214 93.791016 241.30078 C 94.247216 245.09942 95.156077 251.86305 95.810547 256.33203 C 96.464997 260.80102 97.001093 265.91944 97.001953 267.70703 C 97.003003 269.49462 97.373279 272.28668 97.824219 273.91016 C 98.275169 275.53365 99.011207 280.28646 99.460938 284.47266 C 99.910658 288.65885 100.82953 296.1056 101.50195 301.02148 C 102.17435 305.93737 103.05586 313.25135 103.46094 317.27344 C 103.86602 321.29552 104.4047 325.13434 104.6582 325.80469 C 104.91169 326.47504 105.46872 330.13105 105.89648 333.92969 C 106.32425 337.72833 107.2563 345.22511 107.96875 350.58789 C 108.6812 355.95067 109.56719 362.7143 109.93555 365.61914 C 111.09118 374.73193 112.10125 377.17998 115.63672 379.43164 C 117.39098 380.54888 122.17977 384.13231 126.39648 387.23633 L 161.5918 413.14648 L 195.21484 437.8418 L 203.74609 444.20898 L 207.90625 447.33594 L 212.78125 450.8125 L 217.65625 454.44336 L 222.12695 457.66602 L 226.99219 461.26953 L 229.57617 463.125 L 231.20898 464.16602 L 238.7832 469.84375 C 244.92091 474.44455 246.1378 475.10068 251.6543 479.17188 C 253.01679 480.17737 254.91882 481 255.88086 481 C 257.42506 481 258.47848 480.35772 262.51562 476.95312 C 263.05539 476.49802 263.71437 476.125 263.98047 476.125 C 264.24657 476.125 267.09627 474.19875 270.3125 471.84375 C 276.05019 467.64245 279.59797 465.14705 282.13086 463.53125 C 282.83136 463.08425 283.83273 462.35315 284.35547 461.90625 C 284.87821 461.45935 286.1256 460.54345 287.12891 459.87305 C 288.13222 459.20276 289.36527 458.26576 289.86914 457.78906 C 290.373 457.31245 291.88196 456.2171 293.22266 455.35547 C 295.77975 453.71197 321.77901 434.97283 323.25 433.71289 C 323.71803 433.31202 331.5964 427.58375 340.75781 420.98438 C 349.91923 414.38501 367.05798 401.97067 378.84375 393.39648 C 390.62954 384.8223 400.5348 377.80664 400.85547 377.80664 C 402.15837 377.80664 403.9971 367.99584 405.80469 351.40039 C 406.19411 347.8252 407.07475 340.51122 407.76172 335.14844 C 408.44869 329.78566 409.35522 322.36089 409.77734 318.64844 C 410.19948 314.93599 410.91848 309.26916 411.375 306.05469 C 411.83154 302.84021 412.60316 297.10136 413.08789 293.30273 C 413.57261 289.50409 414.50865 282.55766 415.16992 277.86523 C 417.70844 259.8518 418.74677 251.88815 419.98633 240.89453 C 420.69177 234.63796 421.60469 226.77558 422.01562 223.42383 C 423.71756 209.54269 424.72166 201.62015 425.36328 197.01562 C 425.73693 194.33424 426.5811 187.20501 427.23828 181.17188 C 427.89547 175.13874 429.0093 166.72795 429.71289 162.48242 C 430.41646 158.23688 431.34678 150.7761 431.78125 145.90234 C 432.21572 141.02857 432.91192 134.81335 433.32812 132.08984 C 433.74432 129.36633 434.49002 123.8463 434.98438 119.82422 C 435.47873 115.80214 436.42426 109.0385 437.08594 104.79297 C 437.74761 100.54743 438.28239 95.794609 438.27539 94.230469 C 438.26862 92.666319 438.80745 88.776411 439.47266 85.587891 C 440.52398 80.548605 441.04712 69.319757 440.61914 64.439453 C 440.41442 68.662449 440.0191 72.968634 439.47266 75.587891 C 438.80745 78.776411 438.26862 82.666319 438.27539 84.230469 C 438.28239 85.794609 437.74761 90.547429 437.08594 94.792969 C 436.42426 99.038499 435.47873 105.80214 434.98438 109.82422 C 434.49002 113.8463 433.74432 119.36633 433.32812 122.08984 C 432.91192 124.81335 432.21572 131.02857 431.78125 135.90234 C 431.34678 140.7761 430.41646 148.23688 429.71289 152.48242 C 429.0093 156.72795 427.89547 165.13874 427.23828 171.17188 C 426.5811 177.20501 425.73693 184.33424 425.36328 187.01562 C 424.72166 191.62015 423.71756 199.54269 422.01562 213.42383 C 421.60469 216.77558 420.69177 224.63796 419.98633 230.89453 C 418.74677 241.88815 417.70844 249.8518 415.16992 267.86523 C 414.50865 272.55766 413.57261 279.50409 413.08789 283.30273 C 412.60316 287.10136 411.83154 292.84021 411.375 296.05469 C 410.91848 299.26916 410.19948 304.93599 409.77734 308.64844 C 409.35522 312.36089 408.44869 319.78566 407.76172 325.14844 C 407.07475 330.51122 406.19411 337.8252 405.80469 341.40039 C 403.9971 357.99584 402.15837 367.80664 400.85547 367.80664 C 400.5348 367.80664 390.62954 374.8223 378.84375 383.39648 C 367.05798 391.97067 349.91923 404.38501 340.75781 410.98438 C 331.5964 417.58375 323.71803 423.31202 323.25 423.71289 C 321.77901 424.97283 295.77975 443.71197 293.22266 445.35547 C 291.88196 446.2171 290.373 447.31245 289.86914 447.78906 C 289.36527 448.26576 288.13222 449.20276 287.12891 449.87305 C 286.1256 450.54345 284.87821 451.45935 284.35547 451.90625 C 283.83273 452.35315 282.83136 453.08425 282.13086 453.53125 C 279.59797 455.14705 276.05019 457.64245 270.3125 461.84375 C 267.09627 464.19875 264.24657 466.125 263.98047 466.125 C 263.71437 466.125 263.05539 466.49802 262.51562 466.95312 C 258.47848 470.35772 257.42506 471 255.88086 471 C 254.91882 471 253.01679 470.17737 251.6543 469.17188 C 246.1378 465.10068 244.92091 464.44455 238.7832 459.84375 L 231.20898 454.16602 L 229.57617 453.125 L 226.99219 451.26953 L 222.12695 447.66602 L 217.65625 444.44336 L 212.78125 440.8125 L 207.90625 437.33594 L 203.74609 434.20898 L 195.21484 427.8418 L 161.5918 403.14648 L 126.39648 377.23633 C 122.17977 374.13231 117.39098 370.54888 115.63672 369.43164 C 112.10125 367.17998 111.09118 364.73193 109.93555 355.61914 C 109.56719 352.7143 108.6812 345.95067 107.96875 340.58789 C 107.2563 335.22511 106.32425 327.72833 105.89648 323.92969 C 105.46872 320.13105 104.91169 316.47504 104.6582 315.80469 C 104.4047 315.13434 103.86602 311.29552 103.46094 307.27344 C 103.05586 303.25135 102.17435 295.93737 101.50195 291.02148 C 100.82953 286.1056 99.910658 278.65885 99.460938 274.47266 C 99.011207 270.28646 98.275169 265.53365 97.824219 263.91016 C 97.373279 262.28668 97.003003 259.49462 97.001953 257.70703 C 97.001093 255.91944 96.464997 250.80102 95.810547 246.33203 C 95.156077 241.86305 94.247216 235.09942 93.791016 231.30078 C 93.334826 227.50214 92.564198 221.65057 92.080078 218.29883 C 91.595958 214.9471 90.889346 209.09747 90.509766 205.29883 C 90.130186 201.50019 89.425006 195.65057 88.941406 192.29883 C 88.457816 188.94709 87.677391 183.09551 87.207031 179.29688 C 86.276982 171.78562 84.608344 158.81436 82.765625 144.76367 C 82.120925 139.84779 81.201557 132.53576 80.722656 128.51367 C 79.906496 121.65908 78.76899 113.00472 76.662109 97.636719 C 75.812189 91.437239 75.07635 85.263496 73.46875 70.822266 C 73.167464 68.115779 72.6834 64.505958 72.234375 61.394531 z M 93.248047 78.679688 C 92.762916 83.452234 93.439235 96.335622 94.896484 107.63672 C 95.587994 112.99951 96.504334 121.13661 96.933594 125.71875 C 97.362864 130.30089 97.914173 134.37274 98.158203 134.76758 C 98.402233 135.16242 98.977097 139.27493 99.435547 143.90625 C 99.893987 148.53758 100.82096 156.34778 101.49609 161.26367 C 102.17123 166.17955 103.05586 173.49353 103.46094 177.51562 C 103.86602 181.5377 104.40471 185.37653 104.6582 186.04688 C 104.91169 186.71722 105.47286 190.37324 105.90625 194.17188 C 106.33963 197.97051 107.25454 205.4673 107.93945 210.83008 C 108.62437 216.19286 109.52751 224.05409 109.94531 228.30078 C 110.36309 232.54746 110.91346 236.57104 111.16992 237.24023 C 111.42639 237.90942 111.99923 241.74744 112.44141 245.76953 C 112.88359 249.79162 113.79008 257.28644 114.45703 262.42578 C 115.12397 267.5651 116.0047 274.87909 116.41406 278.67773 C 116.82343 282.47636 117.3725 286.49798 117.63281 287.61523 C 117.89312 288.73247 118.48467 293.11969 118.94727 297.36523 C 119.40985 301.61076 120.34128 309.10756 121.01758 314.02344 C 121.69386 318.93933 122.54419 325.70295 122.9082 329.05469 C 124.44061 343.16431 125.77883 350.17969 126.93555 350.17969 C 128.25228 350.17969 132.97746 345.78168 139.34766 339 C 143.08668 332.72879 148.30552 325.53202 155.84961 316.21094 C 172.29703 295.88938 193.74273 267.18421 205.93164 249.17578 C 208.80522 244.93025 211.35309 241.27423 211.59375 241.05078 C 212.73719 239.9891 218.875 230.40681 218.875 229.68359 C 218.875 229.23164 219.20346 228.86133 219.60352 228.86133 C 220.00357 228.86133 221.27916 227.04714 222.43945 224.82812 C 222.57337 224.57201 222.62878 224.43029 222.74414 224.20117 C 222.59611 223.66811 222.38175 223.1923 222.13281 222.94336 C 222.08212 222.89266 222.03001 222.79635 221.97852 222.72461 C 220.31054 224.57893 217.64403 227.9956 214.03125 233.00195 C 209.5456 239.21787 205.875 244.54683 205.875 244.84375 C 205.875 245.14067 205.30694 245.96208 204.61328 246.66992 C 203.91963 247.37776 199.30406 253.62386 194.35547 260.55078 C 189.40687 267.47771 184.58035 274.13912 183.63086 275.35352 C 182.68135 276.56794 180.87744 278.94434 179.62109 280.63477 C 160.40154 306.49491 130.59717 340.17969 126.93555 340.17969 C 125.77883 340.17969 124.44061 333.16431 122.9082 319.05469 C 122.54419 315.70295 121.69386 308.93933 121.01758 304.02344 C 120.34128 299.10756 119.40985 291.61076 118.94727 287.36523 C 118.48467 283.11969 117.89312 278.73247 117.63281 277.61523 C 117.3725 276.49798 116.82343 272.47636 116.41406 268.67773 C 116.0047 264.87909 115.12397 257.5651 114.45703 252.42578 C 113.79008 247.28644 112.88359 239.79162 112.44141 235.76953 C 111.99923 231.74744 111.42639 227.90942 111.16992 227.24023 C 110.91346 226.57104 110.36309 222.54746 109.94531 218.30078 C 109.52751 214.05409 108.62437 206.19286 107.93945 200.83008 C 107.25454 195.4673 106.33963 187.97051 105.90625 184.17188 C 105.47286 180.37324 104.91169 176.71722 104.6582 176.04688 C 104.40471 175.37653 103.86602 171.5377 103.46094 167.51562 C 103.05586 163.49353 102.17123 156.17955 101.49609 151.26367 C 100.82096 146.34778 99.893987 138.53758 99.435547 133.90625 C 98.977097 129.27493 98.402233 125.16242 98.158203 124.76758 C 97.914173 124.37274 97.362864 120.30089 96.933594 115.71875 C 96.504334 111.13661 95.587994 102.99951 94.896484 97.636719 C 94.070378 91.23019 93.503858 84.346026 93.248047 78.679688 z M 421.58008 80.710938 C 421.57571 80.809351 421.57483 80.880727 421.57031 80.980469 C 421.29703 87.013599 420.70724 94.142829 420.25977 96.824219 C 419.81231 99.505609 419.15825 104.07563 418.80469 106.98047 C 418.45112 109.88531 417.73389 115.18848 417.21094 118.76367 C 416.22026 125.53644 415.64809 130.10787 413.50195 148.41992 C 412.79487 154.45304 411.67755 162.36397 411.01953 165.99805 C 410.36152 169.63213 409.82422 173.92265 409.82422 175.5332 C 409.82422 177.14376 409.4786 180.02005 409.05664 181.92578 C 407.68739 188.10976 405.7567 200.70902 405.41211 205.70508 C 404.92079 212.82858 402.80014 230.47783 401.3125 239.83203 C 399.78303 249.44924 399.71295 250.00342 398.01367 266.24023 C 397.28873 273.16716 396.36677 280.11359 395.96289 281.67773 C 395.11662 284.9551 393.61019 296.2124 392.75586 305.64844 C 391.98038 314.21361 389.8887 328.96292 386.51562 349.66602 C 386.00639 352.79157 379.84676 358.92003 370.41602 365.67969 C 362.42012 371.41088 358.96379 373.95472 338.27734 389.33984 C 329.264 396.04331 320.86808 402.25854 319.61914 403.15234 C 311.78742 408.75701 271.59693 438.40693 269.25391 440.30859 C 267.68977 441.57813 265.96749 442.97101 265.42773 443.40234 C 264.88797 443.83375 264.13005 444.18555 263.74219 444.18555 C 263.35433 444.18555 262.17851 445.09949 261.12891 446.2168 C 259.12196 448.35312 257.49858 448.79532 256.6582 447.43555 C 256.382 446.98869 255.6606 446.62305 255.05469 446.62305 C 253.5035 446.62305 236.64095 434.45168 233.9082 432.29492 L 229.66992 428.94922 C 226.94696 426.80018 224.65205 424.95238 223.03906 423.46094 C 221.62498 426.50964 220.50195 429.4263 220.50195 430.12305 C 220.50195 430.8081 221.36348 431.87585 222.82812 433.25586 C 234.33034 441.73743 246.05453 450.34497 250.9707 453.72656 C 256.48431 457.51906 256.52263 457.53189 258.94727 456.24609 C 259.9234 455.72839 263.30081 453.44347 266.45312 451.16797 C 269.60543 448.89253 272.75504 446.66365 273.45312 446.2168 C 274.15121 445.76986 277.60549 443.23335 281.12891 440.57812 C 284.65234 437.923 289.36317 434.41884 291.59766 432.79297 C 293.83216 431.16706 299.13532 427.2916 303.38086 424.17969 C 307.62639 421.06779 316.58363 414.53368 323.28711 409.66016 C 329.99059 404.78663 337.12176 399.47231 339.13281 397.84961 C 341.14384 396.22692 348.45589 390.7408 355.38281 385.6582 C 362.30974 380.5756 368.4861 375.91741 369.10742 375.30664 C 369.72875 374.69589 371.18005 373.58137 372.33203 372.83008 C 373.46199 372.09315 378.25776 368.58474 383.05664 364.99023 C 385.06121 362.81527 386.30331 360.96912 386.51562 359.66602 C 389.8887 338.96292 391.98038 324.21361 392.75586 315.64844 C 393.61019 306.2124 395.11662 294.9551 395.96289 291.67773 C 396.36677 290.11359 397.28873 283.16716 398.01367 276.24023 C 399.71295 260.00342 399.78303 259.44924 401.3125 249.83203 C 402.80014 240.47783 404.92079 222.82858 405.41211 215.70508 C 405.7567 210.70902 407.68739 198.10976 409.05664 191.92578 C 409.4786 190.02005 409.82422 187.14376 409.82422 185.5332 C 409.82422 183.92265 410.36152 179.63213 411.01953 175.99805 C 411.67755 172.36397 412.79487 164.45304 413.50195 158.41992 C 415.64809 140.10787 416.22026 135.53644 417.21094 128.76367 C 417.73389 125.18848 418.45112 119.88531 418.80469 116.98047 C 419.15825 114.07563 419.81231 109.50561 420.25977 106.82422 C 420.70724 104.14283 421.29703 97.013599 421.57031 90.980469 C 421.78686 86.199556 421.83444 82.962423 421.58008 80.710938 z M 289.5957 93.611328 L 284.20703 96.435547 C 276.42527 100.51573 271.93789 104.76768 269.06445 110.7832 C 266.8339 115.45281 266.37996 115.92074 264.07227 115.94531 C 261.60865 115.97151 259.46456 117.29226 257.16992 120.19531 C 255.3102 122.54812 257.34348 124.04492 262.4043 124.04492 C 266.34384 124.04492 266.91162 123.80761 268.78906 121.34961 C 268.88313 121.15501 268.96343 120.99469 269.06445 120.7832 C 269.61553 119.62952 270.22657 118.541 270.9082 117.50586 C 271.21589 114.99347 275.30489 108.60547 276.69141 108.60547 C 277.29175 108.60547 277.47897 109.79005 277.29883 110.76367 C 279.26133 109.25864 281.53634 107.83586 284.20703 106.43555 L 289.5957 103.61133 L 295.06641 105.01562 C 299.24879 106.08986 301.06573 107.03787 302.78125 109.04102 C 303.71029 110.12584 304.82677 111.92174 305.88867 113.86523 C 307.35467 114.52987 309.10197 114.34016 309.5293 113.22656 C 310.08214 111.78587 305.56615 102.29289 302.78125 99.041016 C 301.06573 97.037866 299.24879 96.089865 295.06641 95.015625 L 289.5957 93.611328 z M 324.7207 107.09375 C 324.35658 107.10061 323.98819 107.1177 323.61719 107.14453 C 317.12089 107.61442 315.23144 109.43196 315.12695 115.3125 C 315.05175 119.54826 312.82156 124.73742 308.97852 129.62305 C 308.82111 129.82315 308.69413 130.0071 308.5625 130.19336 C 309.05772 131.23985 308.79355 132.62242 307.86523 134.56445 C 308.03289 135.03272 308.24684 135.53207 308.53906 136.10742 C 308.81611 136.65289 309.30944 137.70495 309.74023 138.59375 C 313.10328 134.01515 315.057 129.25274 315.12695 125.3125 C 315.23144 119.43196 317.12089 117.61442 323.61719 117.14453 C 329.5532 116.71516 334.62436 118.85015 338.32031 123.33398 C 340.2947 125.72924 340.75781 127.04523 340.75781 130.27539 C 340.75781 136.75843 342.27556 140.58373 345.36133 141.87305 C 346.82244 142.48355 348.87989 142.98242 349.93359 142.98242 C 352.06463 142.98242 355.38281 146.04609 355.38281 148.01367 C 355.38281 148.71221 355.93121 149.73857 356.60156 150.29492 C 357.27191 150.85126 357.82031 151.82085 357.82031 152.44922 C 357.82031 154.03885 361.96992 162.0823 365.30273 166.95312 C 366.83166 169.18762 369.25313 172.72251 370.68359 174.80859 L 372.68945 177.73633 L 373.2832 168.60156 L 370.68359 164.80859 C 369.25313 162.72251 366.83166 159.18762 365.30273 156.95312 C 361.96992 152.0823 357.82031 144.03885 357.82031 142.44922 C 357.82031 141.82085 357.27191 140.85126 356.60156 140.29492 C 355.93121 139.73857 355.38281 138.71221 355.38281 138.01367 C 355.38281 136.04609 352.06463 132.98242 349.93359 132.98242 C 348.87989 132.98242 346.82244 132.48355 345.36133 131.87305 C 342.27556 130.58373 340.75781 126.75843 340.75781 120.27539 C 340.75781 117.04523 340.2947 115.72924 338.32031 113.33398 C 334.85536 109.13039 330.18254 106.99092 324.7207 107.09375 z M 276.69141 118.60547 C 276.34241 118.60547 275.81966 119.0172 275.23047 119.66406 C 275.46481 120.57783 275.99311 121.20537 276.97656 121.61914 C 277.54911 120.72642 277.49783 118.60547 276.69141 118.60547 z M 302.19727 121.90625 C 301.46454 121.9607 300.94336 122.4513 300.94336 123.35547 C 300.94336 124.97914 302.6014 126.61655 305.57227 127.97461 C 306.22966 127.37338 306.86856 126.51267 307.46484 125.38867 C 307.68764 124.9687 307.86656 124.58799 308.03516 124.21484 C 306.9757 124.36029 305.61992 123.98125 304.71484 123.07617 C 303.87322 122.23456 302.92999 121.8518 302.19727 121.90625 z M 276.11719 131.10352 C 273.60851 131.14418 271.15581 131.20718 268.82031 131.30859 C 268.81572 131.31463 268.81124 131.32014 268.80664 131.32617 C 266.91347 133.80823 266.35752 134.04492 262.4043 134.04492 C 259.01057 134.04492 256.98649 133.36942 256.57617 132.2168 C 252.38922 132.68163 248.90944 133.26501 246.50195 133.95703 C 240.63244 135.64419 233.26127 139.80124 229.54102 143.52148 C 226.4893 146.57322 225.4651 148.31867 224.5918 151.95898 C 223.72847 155.55772 223.6387 157.23279 225.16016 159.97266 C 225.96669 157.57393 227.10548 155.95704 229.54102 153.52148 C 233.26127 149.80124 240.63244 145.64419 246.50195 143.95703 C 252.40383 142.26056 264.50822 141.16982 278.62109 141.0625 L 293.22266 140.95117 L 297.7207 143.87695 C 302.43984 146.94635 306.20862 150.87993 307.74023 154.33594 C 308.70687 156.51714 308.86962 156.78814 313.25977 162.15625 C 313.35098 162.17086 313.4465 162.18021 313.53711 162.19531 C 315.41347 162.50799 316.89885 162.52258 317.9375 162.26953 C 315.07324 158.27318 312.35681 154.09128 311.15234 151.51367 C 310.31704 149.72608 309.14154 147.29361 308.53906 146.10742 C 308.28896 145.61501 308.10041 145.1813 307.94141 144.76953 C 307.87322 144.61613 307.81955 144.51492 307.74023 144.33594 C 306.9689 142.59545 305.6285 140.73344 303.88672 138.92188 C 302.83685 139.1536 301.7939 138.72528 300.85156 137.58984 C 300.24478 136.85871 298.37864 135.39631 296.70508 134.33984 C 294.03301 132.65303 292.67674 132.41992 285.57812 132.41992 C 280.23793 132.41992 277.44663 132.19619 276.11719 131.10352 z M 342.03125 149.48242 C 342.00748 149.48242 341.98299 149.49193 341.95898 149.49414 C 340.98341 153.42414 339.09297 156.40517 334.93359 161.05078 C 335.9665 162.44966 336.69531 163.57727 336.69531 163.86719 C 336.69531 164.94707 327.79528 173.2035 326.97266 172.88672 C 326.5471 172.72285 325.82277 172.07834 324.9082 171.09961 C 322.3706 173.34605 319.84383 175.33949 317.24609 177.15625 C 323.91327 178.53314 323.45213 179.63119 316.78711 181.82031 C 312.56754 183.20622 309.60773 183.97676 306.91016 184.17383 C 306.20112 184.82361 305.81836 185.33617 305.81836 185.67383 C 305.81836 186.44258 307.9387 188.96495 310.48828 191.5332 C 311.18062 191.07868 311.87851 190.62155 312.70703 190.12109 C 319.71102 185.89048 325.86796 180.76689 332.73633 173.45312 C 340.33852 165.35793 341.96957 162.28261 342.75781 154.56055 C 343.19095 150.3172 343.07043 149.48242 342.03125 149.48242 z M 330.0957 152.76953 C 329.649 152.78599 329.38086 153.00844 329.38086 153.45312 C 329.38086 153.83076 330.89542 155.97282 332.78125 158.29102 C 333.8912 157.23672 334.88742 156.22333 335.61328 155.39844 C 334.971 155.39638 334.38771 155.05486 333.41406 154.30664 C 332.08211 153.28308 330.8402 152.74211 330.0957 152.76953 z M 317.26758 167.16016 C 318.6541 168.9671 319.63086 170.35352 319.63086 170.58203 C 319.63086 170.65899 319.62085 170.73234 319.61133 170.80469 C 323.41979 169.25984 322.79237 168.30334 317.26758 167.16016 z M 305.11328 171.49609 C 302.67382 171.50148 300.94336 171.74372 300.94336 172.22266 C 300.94336 172.78937 302.01389 173.46966 303.72852 174.13477 C 307.02465 174.461 310.17982 173.87783 314.98828 172.38281 C 314.53274 172.34064 314.05179 172.28108 313.53711 172.19531 C 310.70055 171.72265 307.55274 171.49071 305.11328 171.49609 z M 266.77344 172.87695 C 263.77986 174.55876 260.72463 175.52474 258.70898 175.08203 C 257.44319 174.80401 256.19545 174.92126 255.93555 175.3418 C 255.17546 176.57165 258.46539 180.12903 260.91211 180.72266 C 262.14815 181.02255 264.62257 181.9202 266.41016 182.71875 C 268.19776 183.51731 270.57416 184.55361 271.69141 185.02148 C 276.14664 186.88718 280.44562 190.84728 282.20898 194.70898 C 283.19665 196.8719 284.481 199.55462 285.0625 200.67188 C 288.31183 206.91475 290.50614 215.79366 291.04297 224.86914 C 291.38812 230.70398 291.94793 234.37855 292.52148 234.56836 C 293.3128 234.83025 296.59779 230.32066 299.75195 224.64258 C 302.03907 220.52536 303.06133 219.36133 304.38867 219.36133 C 305.17497 219.36133 305.81836 219.72693 305.81836 220.17383 C 305.81836 220.62072 306.35967 220.98633 307.02148 220.98633 C 308.28422 220.98633 308.89042 219.22437 309.25586 214.48633 C 309.45709 211.87699 309.67557 211.65412 311.91211 211.79492 C 318.44617 212.20629 319.90858 213.02308 327.49219 220.49414 C 336.17267 229.04579 338.66362 230.19804 345.19531 228.67969 C 345.24314 228.66857 345.30836 228.64666 345.35742 228.63477 C 345.19363 227.97999 345.45151 227.75632 346.13477 227.49414 C 346.73722 227.26295 347.55292 227.41042 348.08594 227.79883 C 350.02179 227.13042 352.19441 226.25516 354.17188 225.35742 C 356.65465 221.96705 360.25781 216.51275 360.25781 216.04688 C 360.25781 215.90318 360.47104 215.55158 360.76758 215.13867 C 360.52296 215.23413 360.32259 215.29883 360.22461 215.29883 C 359.79593 215.29883 359.44531 215.66444 359.44531 216.11133 C 359.44531 216.55823 359.12 216.92383 358.72266 216.92383 C 358.32532 216.92383 355.49848 218.38624 352.43945 220.17383 C 347.72748 222.92734 346.17396 223.42383 342.2793 223.42383 C 337.96129 223.42383 337.43178 223.19851 333.5332 219.69336 C 331.25038 217.6409 329.38086 215.60059 329.38086 215.16016 C 329.38086 214.92429 329.85306 214.31276 330.60938 213.48242 C 329.65861 212.60297 328.63384 211.61885 327.49219 210.49414 C 326.77129 209.78394 326.15115 209.18711 325.53125 208.5918 C 322.55876 208.97371 319.25419 208.60101 317.36719 207.4375 C 315.65308 206.3806 313.0507 204.08375 310.74219 201.78125 C 309.59726 201.8673 309.4137 202.43955 309.25586 204.48633 C 308.89042 209.22437 308.28422 210.98633 307.02148 210.98633 C 306.35967 210.98633 305.81836 210.62072 305.81836 210.17383 C 305.81836 209.72693 305.17497 209.36133 304.38867 209.36133 C 303.06133 209.36133 302.03907 210.52536 299.75195 214.64258 C 296.59779 220.32066 293.3128 224.83025 292.52148 224.56836 C 291.94793 224.37855 291.38812 220.70398 291.04297 214.86914 C 290.50614 205.79366 288.31183 196.91475 285.0625 190.67188 C 284.481 189.55462 283.19665 186.8719 282.20898 184.70898 C 280.44562 180.84728 276.14664 176.88718 271.69141 175.02148 C 270.65099 174.58579 268.50541 173.64748 266.77344 172.87695 z M 361.07031 173.85938 C 360.62341 173.85938 360.25781 174.22497 360.25781 174.67188 C 360.25781 175.11877 360.62341 175.48438 361.07031 175.48438 C 361.51722 175.48438 361.88281 175.11877 361.88281 174.67188 C 361.88281 174.22497 361.51722 173.85938 361.07031 173.85938 z M 359.49609 177.28906 C 359.41829 177.27378 359.33368 177.28204 359.24219 177.3125 C 359.21205 177.32253 359.18257 177.35337 359.15234 177.36719 C 358.67622 178.6201 358.06859 179.76798 357.36914 180.73047 C 357.09658 181.25785 356.76123 181.77211 356.42773 182.14844 C 355.76661 182.89449 355.39996 183.19283 354.84766 183.08203 C 354.67872 183.17383 354.51003 183.25938 354.33789 183.32812 C 353.81541 183.53678 352.85431 184.17078 351.65625 185.04492 C 351.92085 185.87137 352.13281 186.63158 352.13281 186.92773 C 352.13281 189.00068 337.24805 202.64417 330.59766 206.81836 C 331.35031 207.64071 332.38952 208.66509 333.5332 209.69336 C 333.70652 209.84919 333.84132 209.96429 334.00195 210.10742 C 340.49964 203.93648 351.87199 194.31287 354.33789 193.32812 C 357.54696 192.04662 360.25781 186.64225 360.25781 181.52734 C 360.25781 178.65652 360.04074 177.39603 359.49609 177.28906 z M 232.86328 182.81055 C 232.84447 182.98041 232.83628 183.11236 232.81641 183.28711 C 231.95874 190.82962 231.63644 195.307 232.1582 200.02148 C 232.31491 198.02216 232.52209 195.8754 232.81641 193.28711 C 233.3764 188.36242 233.51393 185.41206 232.86328 182.81055 z M 219.55469 196.36133 C 218.63974 196.36133 219.16722 201.98317 220.11523 206.71484 C 220.42159 207.04576 220.71475 207.56904 220.88086 208.18945 C 221.15007 209.19497 221.70092 211.29719 222.10547 212.86133 C 222.10985 212.87828 222.1205 212.91431 222.125 212.93164 C 222.12767 212.93437 222.13015 212.94069 222.13281 212.94336 C 222.57577 213.38632 222.93945 214.52904 222.93945 215.48242 C 222.93945 215.65629 222.9543 215.8308 222.96875 216.00391 C 223.13546 216.59249 223.30169 217.14546 223.47656 217.74805 C 224.33058 218.57412 225.37695 217.4906 225.37695 215.76367 C 225.37695 214.8685 224.80644 212.23838 224.10938 209.91992 C 223.41232 207.60145 222.51 204.42548 222.10547 202.86133 C 221.70092 201.29719 221.15007 199.19497 220.88086 198.18945 C 220.61164 197.18393 220.01461 196.36133 219.55469 196.36133 z M 366.83398 200.69922 C 366.36394 200.71833 366.21634 201.1516 366.34961 201.95117 C 366.82512 201.59025 367.23807 201.23553 367.53516 200.875 C 367.26198 200.76588 367.01618 200.69181 366.83398 200.69922 z M 235.11719 223.16016 C 233.42488 226.93341 229.99323 233.59663 223.08984 247.14453 C 211.37236 270.1401 205.08987 281.97288 198.82617 292.84375 C 196.44654 296.97367 194.5 300.53134 194.5 300.75 C 194.5 300.96865 193.27193 303.07283 191.77148 305.42773 C 190.27103 307.78263 187.65554 312.27015 185.95898 315.39844 C 184.2624 318.52673 182.27223 321.99994 181.53711 323.11719 C 180.80199 324.23443 179.80691 326.06244 179.32422 327.17969 C 178.84154 328.29693 176.79251 331.44922 174.77148 334.18359 C 171.83822 338.15218 170.04225 339.66813 165.87305 341.69922 C 163.00045 343.09866 160.11246 344.24414 159.45508 344.24414 C 158.79771 344.24414 157.91283 344.54966 157.48828 344.92383 C 157.06372 345.29801 153.60918 346.70089 149.81055 348.04102 C 143.99353 350.0932 140.1052 351.44577 137.57031 352.11523 C 136.54322 354.00741 135.62353 355.83953 134.84961 357.61719 C 131.98468 364.19783 132.33221 364.20721 149.81055 358.04102 C 153.60918 356.70089 157.06372 355.29801 157.48828 354.92383 C 157.91283 354.54966 158.79771 354.24414 159.45508 354.24414 C 160.11246 354.24414 163.00045 353.09866 165.87305 351.69922 C 170.04225 349.66813 171.83822 348.15218 174.77148 344.18359 C 176.79251 341.44922 178.84154 338.29693 179.32422 337.17969 C 179.80691 336.06244 180.80199 334.23443 181.53711 333.11719 C 182.27223 331.99994 184.2624 328.52673 185.95898 325.39844 C 187.65554 322.27015 190.27103 317.78263 191.77148 315.42773 C 193.27193 313.07283 194.5 310.96865 194.5 310.75 C 194.5 310.53134 196.44654 306.97367 198.82617 302.84375 C 205.08987 291.97288 211.37236 280.1401 223.08984 257.14453 C 238.28754 227.31902 237.13995 230.06085 236.01562 226.26758 C 235.67774 225.1276 235.40913 224.17517 235.11719 223.16016 z M 248.5 271.53711 C 247.59172 271.33292 245.14272 274.7788 242.30664 280.30273 C 240.81526 283.20757 239.32151 285.70651 238.98633 285.85547 C 238.65116 286.00444 238.37695 286.64424 238.37695 287.27734 C 238.37695 287.91045 238.72624 288.42773 239.1543 288.42773 C 239.83142 288.42773 241.03717 286.63609 245.42773 279.09961 C 247.92442 274.81401 249.10883 272.07561 248.66016 271.62695 C 248.61363 271.58043 248.56055 271.55072 248.5 271.53711 z M 277.83008 282.49219 C 277.13097 282.52629 276.45784 282.63898 275.9043 282.84375 C 273.9756 283.55722 267.51841 292.57222 264.04883 299.39648 C 263.3672 300.73718 261.9026 303.29639 260.79297 305.08398 C 259.68335 306.87157 258.26716 309.24995 257.64648 310.36719 C 253.57133 317.70254 251.37695 321.83004 251.37695 322.16602 C 251.37695 323.70076 253.40022 321.69966 256.9375 316.66406 C 269.16887 299.25175 275.95323 290.48046 280.01953 286.82422 C 281.24851 285.71918 282.25391 284.38925 282.25391 283.86914 C 282.25391 282.98636 279.92741 282.38988 277.83008 282.49219 z "
       transform="translate(0,540.3622)"
       id="path4714-8" />
  </g>
</svg>
