<?xml version="1.0" encoding="UTF-8" standalone="no"?>
<!-- Created with Inkscape (http://www.inkscape.org/) -->

<svg
   xmlns:dc="http://purl.org/dc/elements/1.1/"
   xmlns:cc="http://creativecommons.org/ns#"
   xmlns:rdf="http://www.w3.org/1999/02/22-rdf-syntax-ns#"
   xmlns:svg="http://www.w3.org/2000/svg"
   xmlns="http://www.w3.org/2000/svg"
   xmlns:sodipodi="http://sodipodi.sourceforge.net/DTD/sodipodi-0.dtd"
   xmlns:inkscape="http://www.inkscape.org/namespaces/inkscape"
   id="svg2"
   version="1.1"
   inkscape:version="0.91+devel r14080 custom"
   width="512"
   height="512"
   sodipodi:docname="system-software-install.svg"
   viewBox="0 0 512 512">
  <metadata
     id="metadata8">
    <rdf:RDF>
      <cc:Work
         rdf:about="">
        <dc:format>image/svg+xml</dc:format>
        <dc:type
           rdf:resource="http://purl.org/dc/dcmitype/StillImage" />
        <dc:title />
      </cc:Work>
    </rdf:RDF>
  </metadata>
  <defs
     id="defs6">
    <inkscape:perspective
       sodipodi:type="inkscape:persp3d"
       inkscape:vp_x="0 : 256 : 1"
       inkscape:vp_y="0 : 1000 : 0"
       inkscape:vp_z="512 : 256 : 1"
       inkscape:persp3d-origin="256 : 170.66667 : 1"
       id="perspective4141" />
  </defs>
  <sodipodi:namedview
     pagecolor="#ffffff"
     bordercolor="#666666"
     borderopacity="1"
     objecttolerance="10"
     gridtolerance="10"
     guidetolerance="10"
     inkscape:pageopacity="0"
     inkscape:pageshadow="2"
     inkscape:window-width="1920"
     inkscape:window-height="1008"
     id="namedview4"
     showgrid="false"
     inkscape:zoom="0.75390625"
     inkscape:cx="37.803109"
     inkscape:cy="256"
     inkscape:window-x="0"
     inkscape:window-y="32"
     inkscape:window-maximized="1"
     inkscape:current-layer="svg2"
     showguides="false"
     inkscape:guide-bbox="true"
     inkscape:document-units="px" />
  <rect
     style="fill:#cd9c6d;fill-opacity:1;fill-rule:evenodd;stroke:none;stroke-width:3.99781251"
     id="rect2985"
     width="450"
     height="449.9866"
     x="31"
     y="31.013393"
     ry="50.526115" />
  <path
     inkscape:connector-curvature="0"
     id="path2984"
     d="m 235.2142,346.83172 c -19.04509,-3.05506 -40.44973,-14.27312 -54.34571,-28.48227 -20.76688,-21.23489 -31.51264,-52.41236 -28.13141,-81.61987 5.50044,-47.51348 41.1053,-83.78609 87.623,-89.26628 29.89054,-3.52138 60.38906,7.27713 81.43877,28.83469 21.02674,21.53398 31.78138,52.58165 28.38285,81.93856 -4.52616,39.09756 -28.78548,70.27258 -65.30403,83.92039 -15.51778,5.7994 -32.61842,7.40906 -49.66347,4.67478 z m 38.81756,-22.99886 c 26.61044,-8.94285 48.16013,-32.61595 55.08327,-60.51096 1.83335,-7.38696 1.84148,-24.25912 0.0155,-31.7948 -6.71295,-27.70133 -28.33939,-51.34936 -55.41769,-60.59805 -9.20427,-3.14377 -11.36901,-3.48037 -22.25088,-3.46 -10.20728,0.0201 -13.42009,0.46632 -20.96461,2.91825 -19.99681,6.49896 -35.17488,18.63871 -46.66654,37.32494 -11.1979,18.20853 -14.41832,38.09031 -9.38,57.90881 7.68157,30.21586 35.72126,56.23263 66.27107,61.48992 9.37976,1.61417 22.63373,0.30992 33.31006,-3.27811 z M 235.64925,284.9825 c -8.31064,-9.16333 -19.75004,-21.71248 -25.42087,-27.88704 -14.00616,-15.2503 -16.94441,-19.06211 -15.19652,-19.71458 0.7688,-0.28697 8.70922,-0.64587 17.64539,-0.79749 l 16.24757,-0.2757 0.52411,-21.77848 0.52412,-21.77845 10.74436,-0.5312 c 5.90939,-0.2922 15.57932,-0.2922 21.48872,0 l 10.74436,0.5312 0.52412,21.77845 0.52411,21.77848 16.24758,0.2757 c 8.93616,0.15174 16.87659,0.51048 17.64539,0.79749 1.74788,0.65247 -1.19037,4.46428 -15.19654,19.71458 -5.67081,6.17456 -17.11021,18.72371 -25.42087,27.88704 -8.31065,9.16337 -15.42628,16.66061 -15.81251,16.66061 -0.38622,0 -7.50186,-7.49724 -15.81252,-16.66061 z"
     style="fill:#6a4d38;stroke-width:3.99781251;fill-opacity:1" />
  <rect
     style="fill:#e3c4a9;fill-opacity:1;fill-rule:evenodd;stroke:none;stroke-width:3.99781251"
     id="rect3755"
     width="76.717323"
     height="42.641739"
     x="213.29677"
     y="438.30731"
     ry="2.1420975" />
  <rect
     style="fill:#e3c4a9;fill-opacity:1;fill-rule:evenodd;stroke:none;stroke-width:3.99781251"
     id="rect3755-4"
     width="76.717323"
     height="42.641739"
     x="214.16275"
     y="31.000004"
     ry="2.1420975" />
  <path
     style="opacity:0.3;fill:#ffffff;fill-opacity:1;fill-rule:evenodd;stroke:none;stroke-width:3.99781251"
     d="M 81.525391,31.013672 C 53.533923,31.013672 31,53.547595 31,81.539062 l 0,19.999998 C 31,73.547595 43.533923,61.013672 71.525391,61.013672 l 368.949219,0 C 468.46608,61.013672 481,73.547595 481,101.53906 l 0,-19.999998 c 0,-27.991467 -22.53392,-50.52539 -50.52539,-50.52539 z"
     id="rect2985-4"
     inkscape:connector-curvature="0"
     sodipodi:nodetypes="sscsscsss" />
  <path
     style="fill:#000000;fill-opacity:1;fill-rule:evenodd;stroke:none;stroke-width:3.99781251;opacity:0.3"
     d="M 31 420.47461 L 31 430.47461 C 31 458.46608 53.533923 481 81.525391 481 L 430.47461 481 C 458.46608 481 481 458.46608 481 430.47461 L 481 420.47461 C 481 448.46608 458.46608 471 430.47461 471 L 81.525391 471 C 53.533923 471 31 448.46608 31 420.47461 z "
     id="rect2985-8" />
</svg>
