<?xml version="1.0" encoding="UTF-8" standalone="no"?>
<!-- Created with Inkscape (http://www.inkscape.org/) -->

<svg
   xmlns:dc="http://purl.org/dc/elements/1.1/"
   xmlns:cc="http://creativecommons.org/ns#"
   xmlns:rdf="http://www.w3.org/1999/02/22-rdf-syntax-ns#"
   xmlns:svg="http://www.w3.org/2000/svg"
   xmlns="http://www.w3.org/2000/svg"
   xmlns:sodipodi="http://sodipodi.sourceforge.net/DTD/sodipodi-0.dtd"
   xmlns:inkscape="http://www.inkscape.org/namespaces/inkscape"
   version="1.1"
   width="100%"
   height="100%"
   viewBox="0 0 512 512"
   id="svg2"
   inkscape:version="0.91 r"
   sodipodi:docname="vala.svg">
  <sodipodi:namedview
     pagecolor="#ffffff"
     bordercolor="#666666"
     borderopacity="1"
     objecttolerance="10"
     gridtolerance="10"
     guidetolerance="10"
     inkscape:pageopacity="0"
     inkscape:pageshadow="2"
     inkscape:window-width="640"
     inkscape:window-height="480"
     id="namedview77"
     showgrid="false"
     inkscape:zoom="0.4609375"
     inkscape:cx="256"
     inkscape:cy="256"
     inkscape:window-x="15"
     inkscape:window-y="39"
     inkscape:window-maximized="0"
     inkscape:current-layer="svg2" />
  <metadata
     id="metadata70">
    <rdf:RDF>
      <cc:Work
         rdf:about="">
        <dc:format>image/svg+xml</dc:format>
        <dc:type
           rdf:resource="http://purl.org/dc/dcmitype/StillImage" />
        <dc:title />
      </cc:Work>
    </rdf:RDF>
  </metadata>
  <defs
     id="defs68">
    <clipPath
       id="clipPath6614">
      <path
         d="m 471.9456,253.05189 c 0,120.89699 -98.00565,218.90724 -218.90724,218.90724 -120.89698,0 -218.90723,-98.00566 -218.90723,-218.90724 0,-120.89698 98.00565,-218.907232 218.90723,-218.907232 120.89699,0 218.90724,98.005652 218.90724,218.907232"
         inkscape:connector-curvature="0"
         id="path6616"
         style="fill:#714c93;fill-opacity:1;fill-rule:evenodd" />
    </clipPath>
  </defs>
  <text
     x="729.64001"
     y="231.35997"
     id="text20"
     style="font-size:129.22999573px;line-height:125%;letter-spacing:0;word-spacing:0;font-family:Gentium Book Basic">
    <tspan
       x="729.64001"
       y="231.35997"
       id="tspan22" />
  </text>
  <text
     x="378.90805"
     y="579.25812"
     transform="scale(4.0128205,0.24920128)"
     id="text24"
     style="font-size:46.95375824px;text-anchor:middle;font-family:Arial" />
  <text
     x="1310.91"
     y="151.35997"
     id="text26"
     style="font-size:129.22999573px;line-height:125%;letter-spacing:0;word-spacing:0;font-family:Gentium Book Basic">
    <tspan
       x="1310.91"
       y="151.35997"
       id="tspan28" />
  </text>
  <text
     x="523.75732"
     y="258.21997"
     transform="scale(4.0128205,0.24920128)"
     id="text30"
     style="font-size:46.95375824px;text-anchor:middle;font-family:Arial" />
  <text
     x="239.33"
     y="-29.900009"
     id="text32"
     style="font-size:129.22999573px;line-height:125%;letter-spacing:0;word-spacing:0;font-family:Gentium Book Basic">
    <tspan
       x="239.33"
       y="-29.900009"
       id="tspan34" />
  </text>
  <text
     x="256.71869"
     y="-469.1264"
     transform="scale(4.0128205,0.24920128)"
     id="text36"
     style="font-size:46.95375824px;text-anchor:middle;font-family:Arial" />
  <text
     x="1337.38"
     y="-246.37001"
     id="text38"
     style="font-size:129.22999573px;line-height:125%;letter-spacing:0;word-spacing:0;font-family:Gentium Book Basic">
    <tspan
       x="1337.38"
       y="-246.37001"
       id="tspan40" />
  </text>
  <text
     x="530.3573"
     y="-1337.802"
     transform="scale(4.0128205,0.24920128)"
     id="text42"
     style="font-size:46.95375824px;text-anchor:middle;font-family:Arial" />
  <text
     x="1918.65"
     y="-326.37"
     id="text44"
     style="font-size:129.22999573px;line-height:125%;letter-spacing:0;word-spacing:0;font-family:Gentium Book Basic">
    <tspan
       x="1918.65"
       y="-326.37"
       id="tspan46" />
  </text>
  <text
     x="675.20654"
     y="-1658.8303"
     transform="scale(4.0128205,0.24920128)"
     id="text48"
     style="font-size:46.95375824px;text-anchor:middle;font-family:Arial" />
  <text
     x="1529.53"
     y="-798.77002"
     id="text50"
     style="font-size:129.22999573px;line-height:125%;letter-spacing:0;word-spacing:0;font-family:Gentium Book Basic">
    <tspan
       x="1529.53"
       y="-798.77002"
       id="tspan52" />
  </text>
  <text
     x="578.237"
     y="-3554.4807"
     transform="scale(4.0128205,0.24920128)"
     id="text54"
     style="font-size:46.95375824px;text-anchor:middle;font-family:Arial" />
  <text
     x="2110.79"
     y="-878.78003"
     id="text56"
     style="font-size:129.22999573px;line-height:125%;letter-spacing:0;word-spacing:0;font-family:Gentium Book Basic">
    <tspan
       x="2110.79"
       y="-878.78003"
       id="tspan58" />
  </text>
  <text
     x="723.0863"
     y="-3875.519"
     transform="scale(4.0128205,0.24920128)"
     id="text60"
     style="font-size:46.95375824px;text-anchor:middle;font-family:Arial" />
  <text
     x="277.98999"
     y="535.94006"
     id="text62"
     style="font-size:208.33000183px;line-height:125%;letter-spacing:0;word-spacing:0;font-family:Gentium Book Basic">
    <tspan
       x="277.98999"
       y="535.94006"
       id="tspan64" />
  </text>
  <g
     transform="matrix(3.7137797,0.77536577,-0.77536577,3.7137797,710.38532,-3693.5259)"
     id="g854"
     style="fill:#6a6f72;fill-opacity:1" />
  <rect
     style="fill:#9bd21f;fill-opacity:1"
     id="rect3054"
     width="448.80737"
     height="444.74579"
     x="32.00309"
     y="36.711861"
     ry="48.350021" />
  <path
     d="m 383.25991,107.79029 c -28.40974,0 -42.83051,9.81089 -54.14596,23.40928 -11.31543,13.59847 -18.1004,31.73297 -25.8742,47.3031 -5.22069,10.45682 -16.86591,49.32629 -27.58676,86.00895 -5.36062,18.34142 -10.73931,36.56991 -15.75822,51.76289 -5.019,15.19295 -8.82933,26.52169 -14.62976,35.23518 -9.57131,14.37766 -24.94276,22.46076 -40.40295,22.46076 -5.4488,0 -10.86341,-1.01671 -16.04032,-2.9463 18.34784,25.52929 60.71486,66.96789 110.18644,-2.03834 34.30842,-47.85554 45.76951,-150.93559 69.98476,-189.73659 30.79319,-49.34059 46.2633,-37.67052 49.93457,-33.53984 0.69043,-4.0391 1.08875,-8.24981 0.90697,-12.2697 -0.3389,-7.45101 -2.24197,-13.11256 -6.6499,-17.33511 -4.40831,-4.22264 -12.68035,-8.31428 -29.92448,-8.31428 z m -231.33484,43.50899 c 7.31293,8.29341 13.19075,18.78946 16.72529,31.1788 7.90005,27.68978 9.42411,62.10191 11.20406,92.40637 0.89046,15.15219 1.78636,29.22474 3.2444,40.28023 1.45805,11.05529 4.27081,19.26004 5.09815,20.50328 4.69981,7.05989 10.71892,9.72699 16.66509,9.72699 5.94617,0 11.98536,-2.6671 16.68518,-9.72699 1.23539,-1.85588 5.71855,-12.18522 10.1762,-25.20544 -7.52628,-3.15962 -18.43466,-20.818 -26.86138,-88.32977 -4.86384,-38.96736 -33.31241,-60.47297 -52.93699,-70.83347 z m -44.99753,6.92198 c -3.63476,0.0291 -6.66096,1.03524 -9.088212,2.72441 -3.23605,2.25206 -6.04872,5.87322 -7.31478,13.4804 l -0.80597,-0.12143 c 0.51562,20.77013 14.226752,34.50856 14.226752,34.50856 0,0 -0.003,-14.28582 14.26697,-21.43162 7.69717,-3.85423 17.29006,2.41112 24.52394,8.98023 -0.48552,-2.07155 -1.00494,-4.11699 -1.55165,-6.03386 -5.804,-20.34355 -19.65846,-30.10471 -30.40807,-31.80445 -1.34355,-0.21266 -2.63729,-0.31268 -3.84888,-0.30297 z"
     inkscape:connector-curvature="0"
     id="path4098"
     style="fill:#ffffff;fill-opacity:1" />
</svg>
