<svg xmlns="http://www.w3.org/2000/svg" xmlns:xlink="http://www.w3.org/1999/xlink" width="384pt" height="384pt" version="1.1" viewBox="0 0 384 384">
 <defs>
  <filter id="alpha" width="100%" height="100%" x="0%" y="0%" filterUnits="objectBoundingBox">
   <feColorMatrix in="SourceGraphic" type="matrix" values="0 0 0 0 1 0 0 0 0 1 0 0 0 0 1 0 0 0 1 0"/>
  </filter>
  <mask id="mask0">
   <g filter="url(#alpha)">
    <rect width="384" height="384" x="0" y="0" style="fill:rgb(0%,0%,0%);fill-opacity:0.2"/>
   </g>
  </mask>
  <clipPath id="clip1">
   <rect width="384" height="384" x="0" y="0"/>
  </clipPath>
  <g id="surface5" clip-path="url(#clip1)">
   <path style="fill:rgb(0%,0%,0%)" d="M 24.257812 190.96875 C 24.121094 193.308594 24.035156 195.65625 24 198 C 24 290.785156 99.214844 366 192 366 C 284.785156 366 360 290.785156 360 198 C 359.941406 196.34375 359.855469 194.6875 359.746094 193.03125 C 355.980469 282.960938 282.007812 353.945312 192 354 C 101.226562 353.898438 26.949219 281.703125 24.265625 190.96875 Z M 24.257812 190.96875"/>
  </g>
  <mask id="mask1">
   <g filter="url(#alpha)">
    <rect width="384" height="384" x="0" y="0" style="fill:rgb(0%,0%,0%);fill-opacity:0.2"/>
   </g>
  </mask>
  <clipPath id="clip2">
   <rect width="384" height="384" x="0" y="0"/>
  </clipPath>
  <g id="surface8" clip-path="url(#clip2)">
   <path style="fill:rgb(100%,100%,100%)" d="M 191.988281 24 C 99.210938 24.007812 24 99.222656 24 192 C 24.035156 192.8125 24.078125 193.625 24.128906 194.4375 C 26.066406 103.101562 100.632812 30.054688 191.988281 30 L 192 30 C 283.765625 30.066406 358.503906 103.757812 359.859375 195.515625 C 359.914062 194.34375 359.957031 193.171875 359.988281 192 C 359.988281 99.222656 284.777344 24.007812 192 24 Z M 191.988281 24"/>
  </g>
  <mask id="mask2">
   <g filter="url(#alpha)">
    <rect width="384" height="384" x="0" y="0" style="fill:rgb(0%,0%,0%);fill-opacity:0.2"/>
   </g>
  </mask>
  <clipPath id="clip3">
   <rect width="384" height="384" x="0" y="0"/>
  </clipPath>
  <g id="surface11" clip-path="url(#clip3)">
   <path style="fill:rgb(0%,0%,0%)" d="M 204 66.605469 L 204 185.996094 L 323.34375 185.996094 C 317.535156 122.640625 267.359375 72.441406 204.003906 66.605469 Z M 180 66.652344 C 116.640625 72.464844 66.441406 122.644531 60.609375 186 L 180 186 Z M 60.65625 210.007812 C 66.46875 273.363281 116.644531 323.558594 180 329.394531 L 180 210.003906 L 60.65625 210.003906 Z M 203.996094 210.007812 L 203.996094 329.347656 C 267.355469 323.539062 317.550781 273.363281 323.386719 210.007812 Z M 203.996094 210.007812"/>
  </g>
 </defs>
 <g>
  <use mask="url(#mask0)" xlink:href="#surface5"/>
  <path style="fill:rgb(78.431373%,53.72549%,21.568627%)" d="M 192 24 C 99.214844 24 24 99.214844 24 192 C 24 284.785156 99.214844 360 192 360 C 284.785156 360 360 284.785156 360 192 C 360 99.214844 284.785156 24 192 24 Z M 192 24"/>
  <use mask="url(#mask1)" xlink:href="#surface8"/>
  <use mask="url(#mask2)" xlink:href="#surface11"/>
  <path style="fill:rgb(86.666667%,76.862745%,31.372549%)" d="M 204 60.609375 L 204 180 L 323.339844 180 C 317.53125 116.644531 267.355469 66.445312 204 60.609375 Z M 180 60.65625 C 116.640625 66.464844 66.445312 116.644531 60.609375 180 L 180 180 Z M 60.65625 203.996094 C 66.46875 267.351562 116.644531 317.550781 180 323.382812 L 180 203.996094 Z M 203.996094 203.996094 L 203.996094 323.335938 C 267.351562 317.527344 317.546875 267.351562 323.382812 203.996094 Z M 203.996094 203.996094"/>
 </g>
</svg>
