<svg xmlns="http://www.w3.org/2000/svg" width="384pt" height="384pt" version="1.1" viewBox="0 0 384 384"> <g> <path style="fill:rgb(4.705%,63.137%,36.862%);fill-opacity:0.99607801" d="m 219.12891,74.5 c -35.71875,0 -67.58204,21.039062 -81.88282,53.78516 -24.52734,3.13671 -45.328121,18.79687 -55.007809,41.73437 C 45.378906,171.54687 15.75,202.52344 15.75,239.76953 15.75,278.21875 46.652344,309.5 84.929688,309.5 H 299.07031 c 38.28125,0 69.17969,-31.28125 69.17969,-69.73047 0,-35.10937 -25.35547,-64.28516 -59.65234,-69.01562 0.15625,-2.11329 0.24609,-4.26954 0.24609,-6.3711 C 308.84375,114.75 268.51953,74.5 219.12891,74.5 Z"/> <path style="fill:rgb(28.627%,20.784%,14.509%);fill-opacity:0.313725" d="M 308.695312 161.460938 C 308.65625 162.328125 308.664062 163.195312 308.597656 164.050781 C 308.675781 164.058594 308.75 164.09375 308.828125 164.101562 C 308.824219 163.210938 308.726562 162.34375 308.695312 161.460938 Z M 368.085938 236.226562 C 366.425781 273.195312 336.285156 302.777344 299.074219 302.777344 L 84.925781 302.777344 C 47.769531 302.777344 17.648438 273.273438 15.914062 236.375 C 15.855469 237.503906 15.75 238.625 15.75 239.765625 C 15.75 278.21875 46.648438 309.5 84.925781 309.5 L 299.074219 309.5 C 337.351562 309.5 368.25 278.21875 368.25 239.765625 C 368.25 238.574219 368.144531 237.40625 368.085938 236.226562 Z M 368.085938 236.226562"/> </g> <path style="fill:rgb(100.000%,100.000%,100.000%);paint-order:markers stroke fill" d="M 237.24414 225.24023 L 236.88086 264.00977 L 236.51562 302.79102 L 218.22461 303.15625 C 206.35481 303.39584 199.93164 303.79168 199.93164 304.28125 C 199.93164 305.75001 266.48894 379.2142 267.66602 379.05273 C 268.30142 378.95897 283.89062 362.14519 302.3125 341.68164 C 321.77603 320.06707 335.53125 304.20898 335.15625 303.83398 C 334.79686 303.47981 326.45248 303.09957 316.60352 302.99023 L 298.70312 302.79102 L 298.33789 264.00977 L 297.97461 225.24023 L 237.24414 225.24023 z" transform="scale(0.75)"/> </svg>
