<svg xmlns="http://www.w3.org/2000/svg" xmlns:xlink="http://www.w3.org/1999/xlink" width="384pt" height="384pt" version="1.1" viewBox="0 0 384 384">
 <defs>
  <filter id="alpha" width="100%" height="100%" x="0%" y="0%" filterUnits="objectBoundingBox">
   <feColorMatrix in="SourceGraphic" type="matrix" values="0 0 0 0 1 0 0 0 0 1 0 0 0 0 1 0 0 0 1 0"/>
  </filter>
  <mask id="mask0">
   <g filter="url(#alpha)">
    <rect style="fill:rgb(0%,0%,0%);fill-opacity:0.2" width="384" height="384" x="0" y="0"/>
   </g>
  </mask>
  <clipPath id="clip1">
   <rect width="384" height="384" x="0" y="0"/>
  </clipPath>
  <g id="surface5" clip-path="url(#clip1)">
   <path d="M 342.679688 33.59375 C 342.09375 35.539062 341.273438 37.367188 340.3125 39.054688 C 336.433594 45.898438 306.214844 104.0625 309.539062 109.765625 C 309.953125 110.46875 310.6875 111.054688 311.648438 111.546875 C 318.183594 93.128906 337.269531 56.429688 340.3125 51.054688 C 343.070312 46.191406 344.554688 40.152344 342.679688 33.59375 Z M 371.414062 128.609375 C 370.390625 131.132812 367.589844 133.371094 360.140625 134.84375 C 345.734375 137.695312 304.566406 165.074219 290.160156 187.882812 C 275.75 210.691406 271.863281 296.792969 270.753906 307.058594 C 269.054688 323.222656 272.433594 353.648438 263.253906 356.296875 C 240.113281 362.972656 178.800781 378.75 120.757812 345.984375 C 64.820312 314.410156 47.644531 286.988281 43.484375 272.394531 C 42.707031 274 42.191406 275.566406 42.171875 277.058594 C 42.03125 287.871094 53.613281 320.085938 120.753906 357.984375 C 178.800781 390.75 240.113281 374.96875 263.253906 368.296875 C 272.433594 365.648438 269.050781 335.222656 270.75 319.054688 C 271.859375 308.792969 275.75 222.6875 290.15625 199.878906 C 304.566406 177.074219 345.730469 149.695312 360.140625 146.84375 C 374.546875 143.992188 371.789062 138.285156 371.789062 133.15625 C 371.789062 131.929688 371.660156 130.332031 371.414062 128.609375 Z M 16.847656 195.328125 C 15.894531 195.820312 12.945312 197.164062 12.464844 197.460938 C 7.707031 200.398438 40.753906 235.933594 54.464844 246.726562 C 59 242.105469 62.566406 238.480469 59.527344 237.960938 C 54.574219 237.113281 27.90625 210.371094 16.847656 195.328125 Z M 16.847656 195.328125" style="fill:rgb(0%,0%,0%)"/>
  </g>
  <mask id="mask1">
   <g filter="url(#alpha)">
    <rect style="fill:rgb(0%,0%,0%);fill-opacity:0.2" width="384" height="384" x="0" y="0"/>
   </g>
  </mask>
  <clipPath id="clip2">
   <rect width="384" height="384" x="0" y="0"/>
  </clipPath>
  <g id="surface8" clip-path="url(#clip2)">
   <path d="M 203.710938 126.332031 C 203.710938 126.332031 185.484375 123.625 174.96875 133.769531 C 164.453125 143.917969 155.335938 166.238281 156.039062 173.003906 C 156.738281 179.769531 177.773438 150.003906 186.886719 147.976562 C 196 145.945312 205.816406 131.0625 203.710938 126.332031 Z M 203.710938 126.332031" style="fill:rgb(0%,0%,0%)"/>
  </g>
 </defs>
 <g>
  <use mask="url(#mask0)" xlink:href="#surface5"/>
  <path d="M 213.144531 120.277344 C 213.144531 120.277344 191.191406 116.890625 178.523438 129.59375 C 165.855469 142.292969 154.875 170.234375 155.722656 178.699219 C 156.566406 187.167969 181.898438 149.914062 192.878906 147.375 C 203.855469 144.832031 215.679688 126.203125 213.144531 120.277344 Z M 213.144531 120.277344" style="fill:rgb(0%,0%,0%)"/>
  <path d="M 323.683594 0.00390625 C 314.542969 0.00390625 296.804688 21.675781 290.15625 25.097656 C 283.5 28.515625 230.855469 67.292969 225.875 74.136719 C 220.882812 80.976562 214.234375 83.828125 207.035156 83.257812 C 199.824219 82.691406 177.0625 82.453125 169.296875 87.015625 C 161.546875 91.578125 126.132812 128.882812 117.261719 133.441406 C 108.398438 138.003906 96.828125 140.339844 91.289062 140.910156 C 85.746094 141.480469 67.390625 162.519531 62.402344 166.511719 C 57.417969 170.503906 18.007812 188.054688 12.46875 191.472656 C 6.925781 194.894531 52.894531 242.8125 59.542969 243.953125 C 66.191406 245.09375 42.3125 260.214844 42.167969 271.058594 C 42.027344 281.871094 53.601562 314.078125 120.746094 351.980469 C 178.792969 384.75 240.109375 368.96875 263.253906 362.296875 C 272.433594 359.648438 269.058594 329.226562 270.757812 313.0625 C 271.867188 302.796875 275.746094 216.691406 290.152344 193.882812 C 304.558594 171.078125 345.738281 143.695312 360.148438 140.84375 C 374.554688 137.996094 371.785156 132.292969 371.785156 127.160156 C 371.785156 122.03125 369.566406 110.625 365.6875 108.914062 C 361.808594 107.203125 346.675781 117.476562 341.6875 118.617188 C 336.699219 119.757812 312.871094 121.46875 309.546875 115.765625 C 306.222656 110.066406 336.425781 51.902344 340.300781 45.0625 C 344.175781 38.21875 345.84375 29.09375 338.632812 19.402344 C 331.433594 9.707031 326.453125 0.0117188 323.679688 0.0117188 Z M 323.683594 0.00390625" style="fill:rgb(13.333333%,21.176471%,33.72549%)"/>
  <use mask="url(#mask1)" xlink:href="#surface8"/>
  <path d="M 203.710938 120.324219 C 203.710938 120.324219 185.484375 117.621094 174.96875 127.765625 C 164.453125 137.914062 155.335938 160.234375 156.039062 167 C 156.738281 173.761719 177.773438 144 186.886719 141.972656 C 196 139.941406 205.816406 125.058594 203.710938 120.324219 Z M 203.710938 120.324219" style="fill:rgb(100%,100%,100%)"/>
 </g>
 <path d="M 431.57812 0.005859375 C 419.39063 0.005859375 395.73959 28.900397 386.875 33.462891 C 378 38.020184 307.80666 89.724609 301.16602 98.849609 C 294.50978 107.96941 285.64581 111.77019 276.04688 111.00977 C 266.43229 110.25457 236.08269 109.93815 225.72852 116.02148 C 215.39518 122.10482 168.17773 171.84374 156.34961 177.92188 C 144.5319 184.00521 129.10418 187.12043 121.71875 187.88086 C 114.32814 188.64127 89.854165 216.6927 83.203125 222.01562 C 76.557285 227.33854 24.010413 250.73958 16.625 255.29688 C 15.184045 256.18643 16.378566 259.34953 19.261719 263.84766 C 32.112253 257.12044 77.082335 236.91802 83.203125 232.01562 C 89.854166 226.6927 114.32813 198.64127 121.71875 197.88086 C 129.10417 197.12043 144.5319 194.00521 156.34961 187.92188 C 168.17773 181.84374 215.39518 132.10482 225.72852 126.02148 C 236.08269 119.93815 266.43229 120.25457 276.04688 121.00977 C 285.64581 121.77019 294.50978 117.9694 301.16602 108.84961 C 307.80666 99.724609 378 48.020184 386.875 43.462891 C 395.73959 38.900397 419.39063 10.005859 431.57812 10.005859 L 431.57227 10.015625 C 435.27019 10.015625 441.91081 22.942061 451.50977 35.869141 C 454.97279 40.523401 456.88244 45.076266 457.68945 49.427734 C 458.98615 42.306328 457.74525 34.249563 451.50977 25.869141 C 441.91081 12.942061 435.27019 0.015625 431.57227 0.015625 L 431.57812 0.005859375 z M 486.44531 144.9707 C 479.94274 144.60149 461.81933 156.73046 455.58398 158.15625 C 449.32852 159.58662 420.8574 161.68684 413.80469 155.60547 C 412.48988 159.9791 412.00425 163.1118 412.72852 164.35352 C 417.16082 171.95768 448.93294 169.67708 455.58398 168.15625 C 462.23502 166.63541 482.4121 152.93751 487.58398 155.21875 C 492.4464 157.3635 495.3513 170.93111 495.68164 178.23047 C 496.34856 175.42665 495.71289 172.42075 495.71289 169.54688 C 495.71289 162.70833 492.75586 147.5 487.58398 145.21875 C 487.26074 145.07617 486.87882 144.99532 486.44531 144.9707 z M 76.013672 333.55664 C 68.834214 341.1054 56.345085 352.37309 56.224609 361.41211 C 56.202543 363.10883 56.408098 365.21318 56.914062 367.66602 C 61.48666 353.70061 87.511901 336.6648 79.390625 335.27148 C 78.631813 335.1413 77.464832 334.52451 76.013672 333.55664 z" transform="scale(0.75)" style="fill:#ffffff;opacity:0.3"/>
</svg>
