<svg xmlns="http://www.w3.org/2000/svg" xmlns:xlink="http://www.w3.org/1999/xlink" width="384pt" height="384pt" version="1.1" viewBox="0 0 384 384">
 <defs>
  <linearGradient id="linearGradient1115">
   <stop offset="0" style="stop-color:#4aaee6"/>
   <stop offset="1" style="stop-color:#357af0"/>
  </linearGradient>
  <filter id="alpha" width="100%" height="100%" x="0%" y="0%" filterUnits="objectBoundingBox">
   <feColorMatrix in="SourceGraphic" type="matrix" values="0 0 0 0 1 0 0 0 0 1 0 0 0 0 1 0 0 0 1 0"/>
  </filter>
  <mask id="mask0">
   <g filter="url(#alpha)">
    <rect style="fill:rgb(0%,0%,0%);fill-opacity:0.2" width="384" height="384" x="0" y="0"/>
   </g>
  </mask>
  <clipPath id="clip1">
   <rect width="384" height="384" x="0" y="0"/>
  </clipPath>
  <g id="surface5" clip-path="url(#clip1)">
   <path d="M 162.492188 24.035156 C 148.984375 24.257812 135.382812 27.195312 125.398438 32.144531 C 115.5 37.050781 106.660156 46.570312 98.320312 61.3125 C 96.179688 65.09375 93.683594 68.675781 92.765625 69.28125 C 91.847656 69.886719 88.480469 70.734375 85.300781 71.164062 C 74.230469 70.792969 62.089844 68.40625 50.332031 66.023438 C 50.332031 66.023438 42.835938 64.074219 42 72.175781 C 42.035156 73.542969 42.257812 74.832031 42.46875 76.128906 C 44.28125 70.511719 50.332031 72.023438 50.332031 72.023438 C 62.089844 74.40625 74.230469 76.792969 85.300781 77.164062 C 88.480469 76.734375 91.847656 75.886719 92.765625 75.28125 C 93.683594 74.675781 96.179688 71.082031 98.320312 67.300781 C 106.660156 52.5625 115.5 43.050781 125.398438 38.144531 C 136.8125 32.488281 152.953125 29.460938 168.269531 30.105469 C 186.683594 30.882812 202.324219 37.25 215.101562 49.171875 C 223.878906 57.367188 229.691406 59.421875 238.042969 57.269531 C 240.324219 56.679688 241.21875 56.523438 242.101562 56.414062 C 243.292969 54.761719 244.054688 53.050781 244.054688 51.597656 C 244.054688 49.753906 243.917969 49.753906 238.042969 51.269531 C 229.691406 53.421875 223.878906 51.367188 215.101562 43.171875 C 202.324219 31.25 186.683594 24.882812 168.269531 24.105469 C 166.355469 24.023438 164.425781 24.003906 162.492188 24.035156 Z M 240.421875 64.363281 C 240.011719 64.765625 239.621094 65.179688 239.152344 65.554688 L 236.425781 67.757812 L 237.28125 68.261719 C 237.535156 68.21875 237.742188 68.160156 238.007812 68.125 C 241.84375 67.570312 242.554688 66.144531 240.421875 64.363281 Z M 232.207031 76.007812 C 231.75 76.34375 231.421875 76.691406 231.421875 77.027344 C 231.421875 77.425781 231.964844 80.863281 232.625 84.664062 C 233.207031 88.019531 233.417969 92.59375 233.460938 97.375 C 233.699219 90.4375 233.453125 83.425781 232.625 78.664062 C 232.398438 77.347656 232.390625 77.128906 232.207031 76.007812 Z M 61.710938 110.203125 C 56.683594 113.503906 53.808594 118.414062 47.917969 123.011719 C 47 124.738281 47.488281 126.378906 49.089844 127.933594 C 55.503906 122.476562 58.386719 116.765625 66 114.011719 C 64.535156 112.765625 63.148438 111.472656 61.710938 110.203125 Z M 318 156.023438 C 312.816406 156.023438 309.492188 159.210938 303.910156 166.722656 C 297.390625 175.511719 288.660156 182.152344 282.5625 185.261719 C 273.007812 190.132812 265.679688 189.265625 248.410156 181.21875 C 230.136719 172.699219 217.457031 169.636719 199.253906 168.023438 C 197.964844 167.910156 196.476562 167.957031 195.011719 167.941406 C 191.035156 170.644531 186.671875 173.585938 186 174.011719 C 186.847656 174.011719 194.28125 173.578125 199.253906 174.023438 C 217.457031 175.636719 230.136719 178.699219 248.410156 187.21875 C 265.679688 195.265625 273.007812 196.132812 282.5625 191.261719 C 288.660156 188.152344 297.390625 181.511719 303.910156 172.722656 C 309.492188 165.210938 312.816406 162.023438 318 162.023438 C 323.074219 162.023438 326.71875 165.371094 330.5625 171.234375 C 336.007812 179.539062 338.976562 185.464844 341.089844 199.933594 C 341.6875 204.066406 341.902344 210.574219 341.914062 217.378906 C 342.109375 208.402344 341.867188 199.308594 341.089844 193.933594 C 338.976562 179.464844 336.007812 173.539062 330.5625 165.234375 C 326.71875 159.371094 323.074219 156.023438 318 156.023438 Z M 102 159.394531 C 101.746094 164.632812 100.625 169.453125 97.375 175.757812 C 93.625 183.03125 89.53125 188.8125 81.433594 197.71875 C 66.851562 213.773438 56.492188 230.839844 51.9375 246.316406 C 50.289062 251.914062 49.652344 258.234375 49.898438 264.886719 C 50.121094 260.4375 50.792969 256.207031 51.9375 252.316406 C 56.492188 236.839844 66.851562 219.773438 81.433594 203.71875 C 89.53125 194.8125 93.625 189.03125 97.375 181.757812 C 101.808594 173.152344 102.34375 167.308594 102 159.394531 Z M 102 159.394531" style="fill:rgb(100%,100%,100%)"/>
  </g>
  <mask id="mask1">
   <g filter="url(#alpha)">
    <rect style="fill:rgb(0%,0%,0%);fill-opacity:0.2" width="384" height="384" x="0" y="0"/>
   </g>
  </mask>
  <clipPath id="clip2">
   <rect width="384" height="384" x="0" y="0"/>
  </clipPath>
  <g id="surface8" clip-path="url(#clip2)">
   <path d="M 243.257812 56.179688 C 243.085938 56.167969 242.339844 56.390625 242.085938 56.425781 C 241.289062 57.519531 240.335938 58.601562 239.15625 59.554688 L 236.425781 61.757812 L 239.179688 63.398438 C 239.753906 63.738281 240.042969 64.039062 240.421875 64.359375 C 242.632812 62.171875 244.054688 59.640625 244.054688 57.597656 C 244.054688 56.675781 244.027344 56.222656 243.257812 56.179688 Z M 237.269531 68.261719 C 233.90625 68.851562 231.421875 69.984375 231.421875 71.027344 C 231.421875 71.285156 231.863281 73.90625 232.207031 76.007812 C 233.273438 75.222656 235.375 74.5 238.007812 74.121094 C 242.523438 73.46875 242.976562 71.652344 239.179688 69.398438 Z M 42.46875 76.121094 C 42.269531 76.738281 42.082031 77.375 42 78.171875 C 42.355469 91.4375 51.480469 101.167969 61.710938 110.199219 C 62.980469 109.367188 64.363281 108.597656 66 108.011719 C 55.199219 98.800781 44.613281 89.164062 42.46875 76.121094 Z M 233.460938 97.367188 C 233.230469 104.035156 232.546875 110.617188 231.46875 114.992188 C 228.058594 128.828125 222.886719 138.574219 214.066406 147.828125 C 207.199219 154.066406 187.808594 166.871094 185.996094 168.011719 C 186.628906 168.011719 190.847656 167.875 195.03125 167.929688 C 201.765625 163.347656 209.753906 157.75 214.0625 153.832031 C 222.882812 144.582031 228.058594 134.835938 231.464844 120.996094 C 232.878906 115.277344 233.53125 105.898438 233.457031 97.371094 Z M 49.089844 127.941406 C 48.675781 128.296875 48.371094 128.65625 47.917969 129.007812 C 46.5 131.683594 48.132812 134.183594 52.722656 136.402344 C 58.644531 139.257812 64.714844 140.027344 77.113281 139.4375 C 89.808594 138.828125 91.5 140.707031 95.605469 144.101562 C 99.933594 147.703125 101.632812 151.101562 102 158.996094 C 102.007812 159.136719 101.996094 159.257812 102 159.394531 C 102.101562 157.359375 102.109375 155.261719 102 152.984375 C 101.632812 145.089844 99.933594 141.703125 95.605469 138.101562 C 91.5 134.707031 89.808594 132.816406 77.113281 133.425781 C 64.714844 134.015625 58.644531 133.257812 52.722656 130.402344 C 51.101562 129.617188 49.96875 128.796875 49.089844 127.941406 Z M 341.914062 217.378906 C 341.738281 225.679688 341.195312 233.886719 340.296875 238.835938 C 329.125 300.433594 289.816406 341.898438 229.800781 355.402344 C 213.605469 359.046875 207.082031 359.703125 184.640625 359.9375 C 172.996094 360.0625 162.121094 360.023438 160.484375 359.855469 L 160.484375 359.84375 C 122.832031 355.992188 96.59375 345.222656 77.210938 325.652344 C 69.382812 317.742188 64.066406 310.472656 59.648438 301.628906 C 53.800781 289.9375 50.460938 277.332031 49.898438 265.722656 C 49.402344 278.890625 52.773438 293.882812 59.648438 307.628906 C 64.066406 316.472656 69.382812 323.746094 77.214844 331.652344 C 96.59375 351.222656 122.828125 362.007812 160.488281 365.859375 C 162.121094 366.027344 172.996094 366.0625 184.640625 365.941406 C 207.085938 365.707031 213.605469 365.050781 229.804688 361.40625 C 289.816406 347.90625 329.128906 306.4375 340.300781 244.839844 C 341.421875 238.65625 341.941406 227.59375 341.917969 217.382812 Z M 341.914062 217.378906" style="fill:rgb(0%,0%,0%)"/>
  </g>
  <linearGradient id="linearGradient1117" x1="157.831" x2="318.915" y1="292.881" y2="209.898" gradientUnits="userSpaceOnUse" xlink:href="#linearGradient1115"/>
 </defs>
 <g>
  <path d="M 160.488281 359.855469 C 122.824219 356.003906 96.601562 345.226562 77.21875 325.65625 C 69.382812 317.746094 64.066406 310.476562 59.648438 301.632812 C 50.289062 282.925781 47.359375 261.882812 51.9375 246.316406 C 56.492188 230.839844 66.851562 213.773438 81.433594 197.71875 C 89.53125 188.816406 93.628906 183.03125 97.375 175.761719 C 101.890625 167 102.378906 161.132812 102 152.996094 C 101.628906 145.101562 99.9375 141.707031 95.605469 138.105469 C 91.503906 134.710938 89.808594 132.824219 77.109375 133.4375 C 64.714844 134.027344 58.636719 133.269531 52.714844 130.414062 C 48.125 128.195312 46.496094 125.6875 47.917969 123.011719 C 55.300781 117.253906 57.886719 110.957031 66 108.023438 C 54.128906 97.898438 42.40625 87.304688 42 72.179688 C 42.835938 64.078125 50.332031 66.027344 50.332031 66.027344 C 62.085938 68.410156 74.234375 70.804688 85.304688 71.175781 C 88.488281 70.746094 91.84375 69.898438 92.761719 69.289062 C 93.679688 68.683594 96.183594 65.09375 98.324219 61.3125 C 106.667969 46.574219 115.503906 37.054688 125.40625 32.148438 C 136.8125 26.496094 152.953125 23.46875 168.269531 24.117188 C 186.6875 24.890625 202.328125 31.261719 215.101562 43.183594 C 223.882812 51.375 229.695312 53.425781 238.046875 51.273438 C 243.921875 49.757812 244.054688 49.765625 244.054688 51.609375 C 244.054688 54.03125 242.121094 57.167969 239.15625 59.5625 L 236.421875 61.769531 L 239.175781 63.40625 C 242.972656 65.660156 242.523438 67.472656 238.007812 68.121094 C 234.246094 68.664062 231.425781 69.910156 231.425781 71.035156 C 231.425781 71.429688 231.964844 74.867188 232.625 78.671875 C 234.246094 88.003906 233.667969 106.085938 231.46875 115.007812 C 228.058594 128.84375 222.886719 138.589844 214.066406 147.839844 C 207.203125 154.082031 187.8125 166.882812 186 168.023438 C 186.851562 168.023438 194.277344 167.589844 199.25 168.027344 C 217.453125 169.640625 230.128906 172.710938 248.410156 181.226562 C 265.675781 189.273438 273.011719 190.140625 282.566406 185.265625 C 288.664062 182.15625 297.390625 175.523438 303.914062 166.730469 C 309.492188 159.21875 312.816406 156.027344 318 156.027344 C 323.078125 156.027344 326.722656 159.375 330.566406 165.238281 C 336.007812 173.542969 338.972656 179.472656 341.085938 193.9375 C 342.59375 204.277344 342.171875 228.542969 340.300781 238.851562 C 329.125 300.445312 289.816406 341.910156 229.804688 355.417969 C 213.609375 359.0625 207.082031 359.71875 184.636719 359.953125 C 172.992188 360.074219 162.128906 360.035156 160.496094 359.867188 Z M 160.488281 359.855469" style="fill:url(#linearGradient1117)"/>
  <use mask="url(#mask0)" xlink:href="#surface5"/>
  <use mask="url(#mask1)" xlink:href="#surface8"/>
 </g>
</svg>
