<svg xmlns="http://www.w3.org/2000/svg" xmlns:xlink="http://www.w3.org/1999/xlink" width="384pt" height="384pt" version="1.1" viewBox="0 0 384 384">
 <defs>
  <filter id="alpha" width="100%" height="100%" x="0%" y="0%" filterUnits="objectBoundingBox">
   <feColorMatrix in="SourceGraphic" type="matrix" values="0 0 0 0 1 0 0 0 0 1 0 0 0 0 1 0 0 0 1 0"/>
  </filter>
  <filter id="alpha-3" width="100%" height="100%" x="0%" y="0%" filterUnits="objectBoundingBox">
   <feColorMatrix in="SourceGraphic" type="matrix" values="0 0 0 0 1 0 0 0 0 1 0 0 0 0 1 0 0 0 1 0"/>
  </filter>
  <mask id="mask0-6">
   <g filter="url(#alpha)" style="filter:url(#alpha-3)">
    <rect width="384" height="384" x="0" y="0" style="fill:rgb(0%,0%,0%);fill-opacity:0.2"/>
   </g>
  </mask>
  <clipPath id="clip1-7">
   <rect width="384" height="384" x="0" y="0"/>
  </clipPath>
  <g id="surface5-5" clip-path="url(#clip1-7)">
   <path style="fill:rgb(0%,0%,0%)" d="M 192 29.996094 C 176.3125 30.222656 165.117188 39.667969 159.867188 55.308594 L 160.078125 54.605469 L 135.421875 125.996094 L 52.3125 125.996094 C 52.132812 125.992188 51.953125 125.992188 51.773438 125.996094 C 41.847656 126.320312 32.90625 132.148438 26.601562 139.824219 C 12.964844 155.480469 15.847656 183.722656 33.164062 195.394531 L 98.507812 243.136719 L 73.148438 321.933594 C 73.121094 322.023438 73.105469 322.105469 73.078125 322.191406 C 69.203125 334.921875 72.847656 348.027344 82.59375 356.996094 C 82.664062 357.0625 82.734375 357.144531 82.804688 357.207031 C 94.515625 367.621094 110.992188 368.945312 124.21875 360.324219 C 124.46875 360.164062 124.703125 359.984375 124.945312 359.808594 L 192 311.996094 L 259.054688 359.808594 C 259.296875 359.984375 259.53125 360.164062 259.78125 360.324219 C 273.007812 368.945312 289.484375 367.621094 301.195312 357.207031 C 301.269531 357.144531 301.335938 357.0625 301.40625 356.996094 C 311.152344 348.027344 314.796875 334.921875 310.921875 322.191406 C 310.894531 322.105469 310.878906 322.023438 310.851562 321.933594 L 285.492188 243.136719 L 350.835938 195.394531 C 368.152344 183.722656 371.035156 155.480469 357.398438 139.824219 C 351.09375 132.148438 342.152344 126.320312 332.226562 125.996094 C 332.046875 125.992188 331.867188 125.992188 331.6875 125.996094 L 248.578125 125.996094 L 223.921875 54.605469 L 224.132812 55.308594 C 218.882812 39.667969 207.6875 30.222656 192 29.996094 Z M 192 29.996094"/>
  </g>
  <mask id="mask1-3">
   <g filter="url(#alpha)" style="filter:url(#alpha-3)">
    <rect width="384" height="384" x="0" y="0" style="fill:rgb(0%,0%,0%);fill-opacity:0.2"/>
   </g>
  </mask>
  <clipPath id="clip2-5">
   <rect width="384" height="384" x="0" y="0"/>
  </clipPath>
  <g id="surface8-6" clip-path="url(#clip2-5)">
   <path style="fill:rgb(100%,100%,100%)" d="M 192 24 C 176.3125 24.222656 165.117188 33.671875 159.867188 49.3125 L 160.078125 48.609375 L 135.421875 120 L 52.3125 120 C 52.132812 119.996094 51.953125 119.996094 51.773438 120 C 41.847656 120.320312 32.90625 126.152344 26.601562 133.828125 C 20.226562 141.148438 17.507812 151.207031 18.140625 161.050781 C 18.742188 153.230469 21.519531 145.660156 26.601562 139.828125 C 32.90625 132.152344 41.847656 126.320312 51.773438 126 C 51.953125 125.996094 52.132812 125.996094 52.3125 126 L 135.421875 126 L 160.078125 54.609375 L 159.867188 55.3125 C 165.117188 39.671875 176.3125 30.222656 192 30 C 207.6875 30.222656 218.882812 39.671875 224.132812 55.3125 L 223.921875 54.609375 L 248.578125 126 L 331.6875 126 C 331.867188 125.996094 332.046875 125.996094 332.226562 126 C 342.152344 126.320312 351.09375 132.152344 357.398438 139.828125 C 362.480469 145.660156 365.257812 153.230469 365.859375 161.050781 C 366.492188 151.207031 363.773438 141.148438 357.398438 133.828125 C 351.09375 126.152344 342.152344 120.320312 332.226562 120 C 332.046875 119.996094 331.867188 119.996094 331.6875 120 L 248.578125 120 L 223.921875 48.609375 L 224.132812 49.3125 C 218.882812 33.671875 207.6875 24.222656 192 24 Z M 96.949219 242.003906 L 73.148438 315.9375 C 73.121094 316.023438 73.105469 316.109375 73.078125 316.195312 C 71.726562 320.632812 71.339844 325.101562 71.753906 329.4375 C 71.957031 327.027344 72.34375 324.609375 73.078125 322.195312 C 73.105469 322.109375 73.121094 322.023438 73.148438 321.9375 L 98.507812 243.140625 Z M 287.050781 242.003906 L 285.492188 243.140625 L 310.851562 321.9375 C 310.878906 322.023438 310.894531 322.109375 310.921875 322.195312 C 311.65625 324.609375 312.042969 327.027344 312.246094 329.4375 C 312.660156 325.101562 312.273438 320.632812 310.921875 316.195312 C 310.894531 316.109375 310.878906 316.023438 310.851562 315.9375 Z M 287.050781 242.003906"/>
  </g>
 </defs>
 <g style="stroke:#877d7d;stroke-width:24.05877417" transform="matrix(0.88105646,-0.31361884,0.31361884,0.88105646,-30.132391,66.790805)">
  <use style="stroke:#877d7d;stroke-width:24.05877417" width="100%" height="100%" x="0" y="0" mask="url(#mask0-6)" xlink:href="#surface5-5"/>
  <path d="m 351.45703,453.2207 c -20.91667,0.29688 -35.83203,12.89453 -42.83203,33.75391 l 0.25977,-0.94141 -32.85938,95.1875 H 165.20312 c -0.24479,-0.005 -0.47526,-0.005 -0.71484,0 -13.23437,0.42708 -25.16601,8.19727 -33.57226,18.43164 -18.1823,20.875 -14.32878,58.5254 8.75976,74.08789 l 87.13086,63.6836 -33.8125,105.04101 c -0.0364,0.11459 -0.0729,0.23508 -0.10937,0.34961 -5.16667,16.97396 -0.3073,34.45833 12.6875,46.42188 0.0937,0.0885 0.20898,0.17643 0.30273,0.25976 15.61979,13.88542 37.56185,15.65104 55.19727,4.15625 0.33333,-0.21354 0.66731,-0.44336 0.99023,-0.67773 l 89.39453,-63.75391 89.39649,63.75391 c 0.32292,0.23437 0.65559,0.46419 0.99414,0.67773 17.63541,11.49479 39.57877,9.72917 55.19336,-4.15625 0.0937,-0.0833 0.20898,-0.17123 0.30273,-0.25976 12.9948,-11.96355 17.85417,-29.44792 12.6875,-46.42188 -0.0365,-0.11453 -0.0678,-0.23502 -0.10937,-0.34961 l -33.8125,-105.04101 87.1289,-63.6836 c 23.08853,-15.56249 26.94401,-53.21289 8.76172,-74.08789 -8.40625,-10.23437 -20.33985,-18.00456 -33.57422,-18.43164 -0.23959,-0.005 -0.4681,-0.005 -0.71289,0 H 426.89453 l -32.86328,-95.1875 0.25977,0.94141 c -7,-20.85938 -21.91732,-33.45703 -42.83399,-33.75391 z" transform="matrix(0.75,0,0,0.75,-71.593206,-315.91486)" style="fill:#357af0;stroke:#ffffff;stroke-width:32.07836556"/>
  <use style="stroke:#fcecec;stroke-width:24.05877417" width="100%" height="100%" x="0" y="0" mask="url(#mask1-3)" transform="translate(-1.6136027,4.5331305)" xlink:href="#surface8-6"/>
 </g>
</svg>
