<svg xmlns="http://www.w3.org/2000/svg" xmlns:xlink="http://www.w3.org/1999/xlink" width="384pt" height="384pt" version="1.1" viewBox="0 0 384 384">
 <defs>
  <filter id="alpha" width="100%" height="100%" x="0%" y="0%" filterUnits="objectBoundingBox">
   <feColorMatrix in="SourceGraphic" type="matrix" values="0 0 0 0 1 0 0 0 0 1 0 0 0 0 1 0 0 0 1 0"/>
  </filter>
  <mask id="mask0">
   <g filter="url(#alpha)">
    <rect width="384" height="384" x="0" y="0" style="fill:rgb(0%,0%,0%);fill-opacity:0.2"/>
   </g>
  </mask>
  <clipPath id="clip1">
   <rect width="384" height="384" x="0" y="0"/>
  </clipPath>
  <g id="surface5" clip-path="url(#clip1)">
   <path style="fill:rgb(0%,0%,0%)" d="M 24.304688 186.003906 C 24.234375 188.007812 24 189.976562 24 192.003906 C 24 285.074219 98.925781 360 191.996094 360 C 285.066406 360 359.992188 285.074219 359.992188 192.003906 C 359.992188 189.980469 359.757812 188.011719 359.6875 186.003906 C 356.519531 276.253906 283.03125 348 191.992188 348 C 100.945312 348 27.464844 276.253906 24.296875 186.003906 Z M 24.304688 186.003906"/>
  </g>
  <mask id="mask1">
   <g filter="url(#alpha)">
    <rect width="384" height="384" x="0" y="0" style="fill:rgb(0%,0%,0%);fill-opacity:0.101961"/>
   </g>
  </mask>
  <clipPath id="clip2">
   <rect width="384" height="384" x="0" y="0"/>
  </clipPath>
  <g id="surface8" clip-path="url(#clip2)">
   <path style="fill:rgb(100%,100%,100%)" d="M 192 18.011719 C 98.929688 18.011719 24 92.929688 24 186 C 24 186.679688 24.066406 187.34375 24.105469 188.015625 C 26.214844 96.808594 100.265625 24 192 24 C 283.734375 24 357.785156 96.808594 359.894531 188.015625 C 359.933594 187.34375 360 186.679688 360 186 C 360 92.929688 285.070312 18.011719 192 18.011719 Z M 192 18.011719"/>
  </g>
  <mask id="mask2">
   <g filter="url(#alpha)">
    <rect width="384" height="384" x="0" y="0" style="fill:rgb(0%,0%,0%);fill-opacity:0.101961"/>
   </g>
  </mask>
  <clipPath id="clip3">
   <rect width="384" height="384" x="0" y="0"/>
  </clipPath>
  <g id="surface11" clip-path="url(#clip3)">
   <path style="fill:rgb(0%,0%,0%)" d="M 215.527344 84.007812 C 276.003906 84.007812 275.992188 156.003906 275.992188 179.042969 C 267.351562 170.402344 215.996094 109.921875 215.996094 156.003906 C 215.996094 187.957031 216.179688 220.171875 215.996094 252.003906 C 215.992188 252.726562 216 253.460938 215.996094 254.183594 C 215.984375 254.441406 215.914062 254.675781 215.902344 254.933594 C 215.75 257.105469 215.453125 259.269531 215.011719 261.402344 C 214.78125 262.566406 214.550781 263.714844 214.238281 264.847656 C 214.167969 265.101562 214.054688 265.339844 213.980469 265.597656 C 213.527344 267.152344 212.992188 268.6875 212.386719 270.191406 C 211.921875 271.3125 211.453125 272.417969 210.910156 273.496094 C 209.988281 275.300781 208.957031 277.046875 207.816406 278.722656 C 207.316406 279.457031 206.808594 280.171875 206.269531 280.878906 C 204.886719 282.71875 203.375 284.457031 201.746094 286.078125 C 201.316406 286.5 200.875 286.894531 200.433594 287.296875 C 198.566406 289.023438 196.570312 290.601562 194.457031 292.007812 C 194.195312 292.179688 193.925781 292.335938 193.660156 292.5 C 191.300781 294.003906 188.8125 295.296875 186.230469 296.367188 C 186.144531 296.402344 186.058594 296.425781 185.972656 296.460938 C 183.183594 297.597656 180.296875 298.46875 177.347656 299.0625 C 174.273438 299.675781 171.144531 300 168 300 C 164.953125 299.984375 161.917969 299.675781 158.929688 299.085938 C 158.5 299.003906 158.089844 298.898438 157.664062 298.804688 C 154.941406 298.210938 152.273438 297.378906 149.695312 296.320312 C 149.539062 296.253906 149.382812 296.199219 149.226562 296.132812 C 131.515625 288.609375 120.007812 271.234375 119.996094 252 C 119.996094 225.488281 141.484375 204 167.992188 204 C 172.042969 204.015625 176.074219 204.542969 179.992188 205.570312 L 179.992188 101.277344 C 179.992188 83.996094 198.242188 84.003906 215.523438 84.003906 Z M 215.527344 84.007812"/>
  </g>
 </defs>
 <g>
  <use mask="url(#mask0)" xlink:href="#surface5"/>
  <path style="fill:rgb(71.764706%,76.470588%,80.392157%)" d="M 360 186.007812 C 360 93.226562 284.785156 18.011719 192.007812 18.011719 C 99.226562 18.011719 24.011719 93.226562 24.011719 186.007812 C 24.011719 278.785156 99.226562 354 192.007812 354 C 284.785156 354 360 278.785156 360 186.007812 Z M 360 186.007812"/>
  <use mask="url(#mask1)" xlink:href="#surface8"/>
  <use mask="url(#mask2)" xlink:href="#surface11"/>
  <path style="fill:rgb(21.176471%,48.235294%,94.117647%)" d="M 215.527344 78.007812 C 276.003906 78.007812 275.992188 150.007812 275.992188 173.046875 C 267.351562 164.40625 215.996094 103.921875 215.996094 150.007812 C 215.996094 181.957031 216.179688 214.171875 215.996094 246.003906 C 215.992188 246.726562 216 247.460938 215.996094 248.183594 C 215.984375 248.441406 215.914062 248.675781 215.902344 248.933594 C 215.75 251.105469 215.453125 253.269531 215.011719 255.402344 C 214.78125 256.566406 214.550781 257.714844 214.238281 258.847656 C 214.167969 259.105469 214.054688 259.339844 213.980469 259.597656 C 213.527344 261.152344 212.992188 262.6875 212.386719 264.191406 C 211.921875 265.3125 211.453125 266.417969 210.910156 267.496094 C 209.988281 269.300781 208.957031 271.046875 207.816406 272.722656 C 207.316406 273.457031 206.808594 274.171875 206.269531 274.878906 C 204.886719 276.71875 203.375 278.457031 201.746094 280.082031 C 201.316406 280.5 200.875 280.894531 200.433594 281.300781 C 198.566406 283.023438 196.570312 284.601562 194.457031 286.011719 C 194.195312 286.183594 193.925781 286.335938 193.660156 286.503906 C 191.300781 288.003906 188.8125 289.300781 186.230469 290.371094 C 186.144531 290.402344 186.058594 290.429688 185.972656 290.464844 C 183.183594 291.597656 180.296875 292.46875 177.347656 293.066406 C 174.273438 293.675781 171.144531 294 168 294 C 164.953125 293.984375 161.917969 293.679688 158.929688 293.085938 C 158.5 293.003906 158.089844 292.898438 157.664062 292.804688 C 154.941406 292.210938 152.273438 291.378906 149.695312 290.320312 C 149.539062 290.257812 149.382812 290.199219 149.226562 290.132812 C 131.515625 282.609375 120.007812 265.234375 119.996094 246 C 119.996094 219.488281 141.484375 198 167.992188 198 C 172.042969 198.015625 176.074219 198.542969 179.992188 199.570312 L 179.992188 95.277344 C 179.992188 77.996094 198.242188 78.003906 215.523438 78.003906 Z M 215.527344 78.007812"/>
 </g>
</svg>
