<svg width="512" height="512" version="1.1" viewBox="0 0 384 384" xmlns="http://www.w3.org/2000/svg"><defs><clipPath><rect width="384" height="384"/></clipPath></defs><path d="m34.363 315.29v17.184c0 15.66 10.281 28.27 23.055 28.27h269.16c12.77 0 23.051-12.609 23.051-28.27v-17.184z" fill="#941111"/><path d="m57.414 23.246h269.16c12.73 0 23.051 10.32 23.051 23.055v269.16c0 12.734-10.32 23.055-23.051 23.055h-269.16c-12.73 0-23.055-10.32-23.055-23.055v-269.16c0-12.734 10.324-23.055 23.055-23.055z" fill="#d31818"/><path d="m80.801 54.312h222.38c8.4883 0 15.371 6.8828 15.371 15.371v222.38c0 8.4922-6.8828 15.375-15.371 15.375h-222.38c-8.4922 0-15.375-6.8828-15.375-15.375v-222.38c0-8.4883 6.8828-15.371 15.375-15.371z" fill="#fff"/><path d="m116.06 120.56v151.87h67.496v-33.75h-33.75v-84.371h33.75v-33.75zm84.371 0v33.75h33.75v84.371h-33.75v33.75h67.5v-151.87z" fill="#72757f"/><path d="m116.06 104.06v151.87h67.496v-33.75h-33.75v-84.371h33.75v-33.75zm84.371 0v33.75h33.75v84.371h-33.75v33.75h67.5v-151.87z" fill="#333542"/><path transform="scale(.75)" d="m76.553 30.994c-16.974 0-30.74 13.761-30.74 30.74v10c0-16.979 13.766-30.74 30.74-30.74h358.88c16.974 0 30.734 13.761 30.734 30.74v-10c0-16.979-13.76-30.74-30.734-30.74h-358.88z" fill="#fff" opacity=".3" stroke-width="1.3333"/></svg>
