<svg xmlns="http://www.w3.org/2000/svg" width="384pt" height="384pt" version="1.1" viewBox="0 0 384 384">
 <path d="M 26.345888,147.37768 C 24.586149,193.14746 41.39485,246.38961 91.501213,296.07914 217.83292,421.35689 366.78307,336.85154 357.27385,274.55017 348.32121,334.71996 209.95791,401.71082 91.501213,284.23702 45.652092,238.77513 27.720758,190.34088 26.342335,147.37768 Z" style="opacity:0.2"/>
 <path d="M 143.51953 31 C 62.471616 31.096166 -42.827127 223.44402 121.99609 386.87695 C 288.06535 551.53735 483.52227 444.37237 476.88672 361.71484 A 592.72278 592.72278 0 0 1 144.19141 31.013672 C 143.96722 31.010982 143.7441 30.999734 143.51953 31 z" transform="scale(0.75)" style="fill:#fd7d00"/>
 <path d="M 142.84766,31.121094 C 103.9559,74.479021 82.404618,130.64766 82.3125,188.89258 c -7.73e-4,130.80475 106.03705,236.84345 236.8418,236.84375 58.27867,-0.10407 114.47301,-21.69171 157.83203,-60.63281 -0.0157,-1.14356 -0.0831,-2.28102 -0.17383,-3.41602 h -0.002 C 358.24419,264.1677 229.11091,151.82777 144.24609,31.138672 c -0.46602,-0.0061 -0.93086,-0.02405 -1.39843,-0.01758 z" transform="scale(0.75)" style="fill:#ffc730"/>
 <path d="m 105.95776,23.288637 v 0.01155 C 68.079564,24.977046 24.042267,81.487348 26.345559,153.30031 c 0.01095,-0.28421 0.04547,-0.56056 0.05785,-0.84423 C 26.979614,83.91266 69.285946,30.844826 105.95776,29.221388 v -0.01155 c 11.20975,-0.496184 21.89544,3.813593 30.64676,13.958734 21.2566,24.577125 35.65784,72.231308 86.37763,122.517678 48.07899,47.67636 94.02805,62.53141 118.95571,83.25512 9.89992,8.22104 14.80884,17.95847 15.63563,28.19502 0.85354,-12.37917 -3.84311,-24.32352 -15.63563,-34.11621 C 317.0102,222.29646 271.06114,207.44141 222.98215,159.76505 172.26236,109.47868 157.86112,61.824497 136.60452,37.247372 127.8532,27.10223 117.16751,22.792452 105.95776,23.288637 Z" style="opacity:0.2;fill:#ffffff"/>
 <path d="M 142.84961 31.128906 C 103.95958 74.483346 82.408329 130.64751 82.3125 188.88867 C 82.3097 319.69707 188.35174 425.73915 319.16016 425.73633 C 377.43478 425.63019 433.6239 404.04324 476.98047 365.10547 L 450.98242 355.05078 C 413.47401 384.88603 367.33614 401.95447 319.16016 402.05078 C 201.17162 402.05078 106.0214 306.91605 105.99609 188.93359 L 105.99609 188.9043 L 105.99609 188.88867 C 106.08341 140.54206 123.22718 94.215546 153.25781 56.632812 L 142.84961 31.128906 z" transform="scale(0.75)" style="fill:#ffffff"/>
 <path d="m 183.74019,279.02423 c -4.24226,-2.5227 -7.69373,-6.22638 -8.41607,-9.03103 -0.55423,-2.15196 -0.3978,-2.91376 1.45619,-7.09179 3.33472,-7.51487 35.82091,-75.38199 36.65381,-76.57366 0.65027,-0.93045 1.33452,-0.92738 4.82416,0.0218 2.23648,0.60823 5.18188,1.23872 6.54526,1.40109 1.89921,0.22616 2.57708,0.53215 2.89873,1.30839 0.23091,0.55729 2.57926,20.47955 5.21858,44.27167 3.53018,31.82285 4.61146,43.92463 4.09034,45.77853 -1.9747,7.02447 -14.19416,9.98966 -30.45236,7.38956 -6.74726,-1.07907 -18.58401,-4.95627 -22.81864,-7.47445 z m -40.21495,-19.8255 c -7.40195,-4.09714 -18.51239,-14.48521 -25.16606,-23.52977 -3.89228,-5.29094 -7.5992,-13.45206 -7.88355,-17.35653 -0.26972,-3.70281 1.01313,-7.01313 3.32139,-8.57073 2.30443,-1.55503 85.33574,-36.8181 86.05141,-36.54572 0.30626,0.11657 2.55769,2.31494 5.00316,4.88529 l 4.44633,4.67334 -1.15195,1.89099 c -0.63359,1.04003 -6.09383,10.58276 -12.13387,21.20607 -14.32596,25.19667 -30.44639,52.56128 -32.12102,54.52572 -3.74668,4.39517 -11.06084,3.97187 -20.36584,-1.17866 z m 107.24138,18.40752 c -1.72133,-1.71579 -2.25048,-3.46581 -4.66892,-15.44138 -4.05492,-20.07915 -12.96078,-72.54341 -12.50335,-73.65708 0.21855,-0.53211 1.80599,-1.28349 3.52767,-1.6697 1.72168,-0.38623 4.02935,-1.11498 5.12817,-1.61944 1.09881,-0.50448 2.22061,-0.83245 2.49291,-0.7288 0.58446,0.22245 60.68102,58.00667 63.28407,60.84907 2.81399,3.07278 3.01495,5.65771 0.79842,10.27082 -1.50922,3.14103 -2.66357,4.57697 -6.18589,7.69474 -11.90734,10.53976 -31.97751,18.5019 -44.04057,17.47155 -4.43841,-0.37909 -5.43905,-0.78406 -7.83251,-3.16978 z m -147.05474,-81.6638 c -5.912214,-4.9405 -10.162588,-15.25902 -11.154368,-27.07933 -0.725386,-8.64521 -0.09592,-13.29749 2.582816,-19.0893 1.754347,-3.79309 2.46045,-4.73681 4.640313,-6.20193 1.580579,-1.06232 3.684509,-1.79433 5.461209,-1.90007 1.58955,-0.0946 9.56581,0.79118 17.72502,1.96843 22.41554,3.23422 71.87621,11.71502 72.07565,12.35849 0.0466,0.15048 0.34934,1.96738 0.67265,4.0376 0.3233,2.07026 0.8726,4.69874 1.22068,5.84114 l 0.63287,2.07709 -8.15006,3.20256 c -23.1204,9.08508 -71.01601,26.24141 -76.26994,27.32006 -3.64332,0.748 -6.3919,0.0105 -9.43684,-2.53474 z m 113.93529,-21.83652 c -6.29483,-3.32968 -10.98232,-11.01034 -10.85218,-17.78191 0.0698,-3.63564 1.02934,-7.1588 1.84725,-6.78295 0.23201,0.10664 6.23243,5.82766 13.3342,12.71339 7.96211,7.71994 12.84529,12.87248 12.73752,13.44017 -0.24162,1.2725 -6.86376,1.69903 -10.96641,0.70634 -1.78569,-0.43207 -4.53086,-1.46483 -6.10037,-2.29507 z M 103.64244,128.17959 c -1.76997,-1.33254 -3.52232,-4.77309 -3.819542,-7.49927 -0.33963,-3.11526 -0.0021,-5.42915 1.562082,-10.70771 5.13092,-17.315364 22.1515,-35.983978 30.06226,-32.973105 1.89938,0.722913 66.1535,61.220435 66.96998,63.054615 0.47142,1.05895 -2.51332,10.25443 -3.37671,10.40315 -2.23694,0.38528 -57.86004,-12.11478 -74.05621,-16.64249 -15.00031,-4.19341 -15.75069,-4.43725 -17.34186,-5.63519 z" style="fill:#fd7d00"/>
</svg>
