<svg xmlns="http://www.w3.org/2000/svg" xmlns:xlink="http://www.w3.org/1999/xlink" width="384pt" height="384pt" version="1.1" viewBox="0 0 384 384">
 <defs>
  <filter id="alpha" width="100%" height="100%" x="0%" y="0%" filterUnits="objectBoundingBox">
   <feColorMatrix in="SourceGraphic" type="matrix" values="0 0 0 0 1 0 0 0 0 1 0 0 0 0 1 0 0 0 1 0"/>
  </filter>
  <mask id="mask0">
   <g filter="url(#alpha)">
    <rect width="384" height="384" x="0" y="0" style="fill:rgb(0%,0%,0%);fill-opacity:0.2"/>
   </g>
  </mask>
  <clipPath id="clip1">
   <rect width="384" height="384" x="0" y="0"/>
  </clipPath>
  <g id="surface5" clip-path="url(#clip1)">
   <path style="fill:rgb(0%,0%,0%)" d="M 30.804688 140.914062 L 29.515625 143.140625 C 27.625 146.492188 28.449219 151.132812 31.367188 153.640625 L 57.992188 177.007812 C 58.261719 173.324219 58.644531 169.683594 59.1875 166.0625 L 31.367188 141.640625 C 31.132812 141.425781 31.011719 141.136719 30.804688 140.910156 Z M 353.191406 140.914062 C 352.984375 141.144531 352.867188 141.441406 352.628906 141.640625 L 324.8125 166.066406 C 325.351562 169.6875 325.734375 173.328125 326.007812 177.011719 L 352.628906 153.640625 C 355.550781 151.132812 356.375 146.492188 354.480469 143.140625 L 353.199219 140.910156 Z M 57.875 192.011719 C 57.777344 194.003906 57.617188 195.980469 57.617188 198.011719 C 57.617188 201.054688 57.773438 204.042969 57.992188 207.011719 L 59.1875 205.957031 C 58.5 201.359375 58.109375 196.71875 57.875 192.011719 Z M 326.121094 192.011719 C 325.886719 196.714844 325.496094 201.359375 324.808594 205.957031 L 326.003906 207.011719 C 326.222656 204.042969 326.378906 201.054688 326.378906 198.011719 C 326.378906 195.980469 326.222656 194.003906 326.121094 192.011719 Z M 30.804688 243.105469 C 28.4375 245.710938 27.777344 249.792969 29.515625 252.875 L 63.125 311.140625 C 65.074219 314.445312 69.457031 316.070312 73.085938 314.820312 L 108.003906 303 C 118.496094 311.398438 130.460938 318.25 143.183594 323.226562 L 150.257812 359.179688 C 150.976562 362.945312 154.558594 365.949219 158.390625 366 L 225.609375 366 C 229.441406 365.953125 233.023438 362.945312 233.742188 359.179688 L 240.816406 323.226562 C 253.527344 318.246094 265.488281 311.394531 275.976562 302.996094 L 310.898438 314.808594 C 314.523438 316.058594 318.910156 314.433594 320.855469 311.128906 L 354.464844 252.863281 C 356.207031 249.78125 355.542969 245.691406 353.175781 243.089844 L 320.855469 299.128906 C 318.910156 302.433594 314.523438 304.058594 310.898438 302.808594 L 275.964844 290.988281 C 265.472656 299.386719 253.511719 306.214844 240.789062 311.191406 L 233.710938 347.164062 C 233.003906 350.921875 229.414062 353.933594 225.585938 353.980469 L 158.371094 353.980469 C 154.539062 353.929688 150.957031 350.925781 150.238281 347.160156 L 143.171875 311.1875 C 130.441406 306.207031 118.480469 299.378906 107.988281 290.976562 L 73.070312 302.785156 C 69.441406 304.046875 65.058594 302.414062 63.109375 299.113281 L 30.789062 243.074219 Z M 30.804688 243.105469"/>
  </g>
  <mask id="mask1">
   <g filter="url(#alpha)">
    <rect width="384" height="384" x="0" y="0" style="fill:rgb(0%,0%,0%);fill-opacity:0.2"/>
   </g>
  </mask>
  <clipPath id="clip2">
   <rect width="384" height="384" x="0" y="0"/>
  </clipPath>
  <g id="surface8" clip-path="url(#clip2)">
   <path style="fill:rgb(0%,0%,0%)" d="M 192 126 C 231.765625 126 264 158.234375 264 198 C 264 237.765625 231.765625 270 192 270 C 152.234375 270 120 237.765625 120 198 C 120 158.234375 152.234375 126 192 126 Z M 192 126"/>
  </g>
  <mask id="mask2">
   <g filter="url(#alpha)">
    <rect width="384" height="384" x="0" y="0" style="fill:rgb(0%,0%,0%);fill-opacity:0.2"/>
   </g>
  </mask>
  <clipPath id="clip3">
   <rect width="384" height="384" x="0" y="0"/>
  </clipPath>
  <g id="surface11" clip-path="url(#clip3)">
   <path style="fill:rgb(100%,100%,100%)" d="M 157.511719 24 C 153.949219 24.386719 151.039062 27.226562 150.386719 30.75 L 143.261719 66.75 C 130.539062 71.726562 118.503906 78.601562 108.011719 87 L 73.136719 75.375 C 69.507812 74.125 64.960938 75.445312 63.011719 78.75 L 30.761719 135 C 30.988281 135.257812 31.25 135.523438 31.511719 135.75 L 33 137.085938 L 63.011719 84.75 C 64.960938 81.445312 69.507812 80.125 73.136719 81.375 L 108.011719 93 C 118.503906 84.601562 130.539062 77.726562 143.261719 72.75 L 150.386719 36.75 C 151.039062 33.226562 153.949219 30.386719 157.511719 30 C 157.773438 29.992188 158 29.992188 158.261719 30 L 225.761719 30 C 229.59375 30.050781 232.917969 32.984375 233.636719 36.75 L 240.761719 72.75 C 253.484375 77.726562 265.519531 84.601562 276.011719 93 L 310.886719 81.375 C 314.511719 80.125 319.0625 81.445312 321.011719 84.75 L 351.023438 137.085938 L 352.511719 135.75 C 352.773438 135.523438 353.035156 135.257812 353.261719 135 L 321.011719 78.75 C 319.0625 75.445312 314.511719 74.125 310.886719 75.375 L 276.011719 87 C 265.519531 78.601562 253.484375 71.726562 240.761719 66.75 L 233.636719 30.75 C 232.917969 26.984375 229.59375 24.050781 225.761719 24 L 158.261719 24 C 158 23.992188 157.773438 23.992188 157.511719 24 Z M 28.875 139.875 C 28.671875 140.984375 28.640625 141.765625 28.875 142.875 C 28.703125 141.929688 28.734375 140.820312 28.875 139.875 Z M 355.136719 139.875 C 355.277344 140.820312 355.308594 141.929688 355.136719 142.875 C 355.371094 141.765625 355.339844 140.984375 355.136719 139.875 Z M 58.136719 213 L 31.511719 236.25 C 31.25 236.476562 30.992188 236.742188 30.761719 237 L 33.011719 240.9375 L 58.136719 219 C 58.269531 220.824219 58.511719 222.589844 58.6875 224.367188 L 59.261719 223.875 C 58.71875 220.238281 58.40625 216.695312 58.136719 213 Z M 325.875 213 C 325.605469 216.695312 325.292969 220.238281 324.75 223.875 L 325.324219 224.367188 C 325.5 222.589844 325.742188 220.824219 325.875 219 L 351 240.9375 L 353.25 237 C 353.019531 236.742188 352.761719 236.476562 352.5 236.25 Z M 325.875 213"/>
  </g>
  <mask id="mask3">
   <g filter="url(#alpha)">
    <rect width="384" height="384" x="0" y="0" style="fill:rgb(0%,0%,0%);fill-opacity:0.2"/>
   </g>
  </mask>
  <clipPath id="clip4">
   <rect width="384" height="384" x="0" y="0"/>
  </clipPath>
  <g id="surface14" clip-path="url(#clip4)">
   <path style="fill-rule:evenodd;fill:rgb(0%,0%,0%)" d="M 383.746094 281.089844 C 381.046875 332.011719 338.996094 371.9375 288 372 C 237.664062 372 195.875 333.117188 192.253906 282.910156 C 192.121094 284.605469 192.039062 286.300781 192 288 C 192 341.019531 234.980469 384 288 384 C 341.019531 384 384 341.019531 384 288 C 383.996094 285.691406 383.910156 283.386719 383.742188 281.085938 Z M 383.746094 281.089844"/>
  </g>
 </defs>
 <g>
  <use mask="url(#mask0)" xlink:href="#surface5"/>
  <path style="fill:rgb(16.078431%,50.196078%,72.54902%)" d="M 157.613281 24.015625 C 154.050781 24.402344 150.914062 27.316406 150.261719 30.839844 L 143.175781 66.800781 C 130.453125 71.777344 118.496094 78.613281 108 87.011719 L 73.09375 75.199219 C 69.46875 73.949219 65.070312 75.570312 63.121094 78.875 L 29.523438 137.148438 C 27.628906 140.5 28.441406 145.136719 31.359375 147.648438 L 59.183594 172.058594 C 58.203125 178.605469 57.609375 185.191406 57.609375 192.007812 C 57.609375 198.828125 58.203125 205.410156 59.183594 211.957031 L 31.359375 236.371094 C 28.441406 238.878906 27.628906 243.515625 29.523438 246.867188 L 63.121094 305.140625 C 65.070312 308.445312 69.46875 310.066406 73.09375 308.816406 L 108.003906 297.003906 C 118.496094 305.402344 130.457031 312.242188 143.179688 317.21875 L 150.265625 353.175781 C 150.984375 356.941406 154.570312 359.949219 158.402344 360.003906 L 225.597656 360.003906 C 229.429688 359.953125 233.015625 356.941406 233.734375 353.175781 L 240.824219 317.21875 C 253.546875 312.242188 265.503906 305.40625 275.996094 297.003906 L 310.90625 308.816406 C 314.53125 310.066406 318.933594 308.445312 320.878906 305.140625 L 354.480469 246.867188 C 356.371094 243.515625 355.5625 238.878906 352.640625 236.371094 L 324.820312 211.957031 C 325.796875 205.410156 326.394531 198.828125 326.394531 192.007812 C 326.394531 185.1875 325.796875 178.605469 324.820312 172.058594 L 352.640625 147.648438 C 355.558594 145.136719 356.371094 140.5 354.480469 137.148438 L 320.878906 78.875 C 318.933594 75.570312 314.53125 73.949219 310.90625 75.199219 L 275.996094 87.011719 C 265.496094 78.605469 253.542969 71.769531 240.824219 66.792969 L 233.738281 30.832031 C 233.019531 27.070312 229.433594 24.058594 225.601562 24.007812 L 158.40625 24.007812 C 158.140625 24.003906 157.878906 24.003906 157.617188 24.007812 Z M 157.613281 24.015625"/>
  <use mask="url(#mask1)" xlink:href="#surface8"/>
  <path style="fill:rgb(100%,100%,100%)" d="M 192.007812 120.003906 C 231.773438 120.003906 264.007812 152.238281 264.007812 192.003906 C 264.007812 231.765625 231.773438 264 192.007812 264 C 152.242188 264 120.007812 231.765625 120.007812 192.003906 C 120.007812 152.238281 152.242188 120.003906 192.007812 120.003906 Z M 192.007812 120.003906"/>
  <use mask="url(#mask2)" xlink:href="#surface11"/>
  <use mask="url(#mask3)" xlink:href="#surface14"/>
  <path style="fill-rule:evenodd;fill:rgb(10.588235%,63.921569%,53.72549%)" d="M 384 282 C 384 335.019531 341.019531 378 288 378 C 234.980469 378 192 335.019531 192 282 C 192 228.980469 234.980469 186 288 186 C 341.019531 186 384 228.980469 384 282 Z M 384 282"/>
  <path style="fill:rgb(100%,100%,100%)" d="M 240 308.617188 L 240 330 L 261.382812 330 L 315.386719 275.996094 L 294.003906 254.613281 Z M 334.304688 257.148438 C 336.566406 254.886719 336.566406 251.320312 334.304688 249.058594 L 320.9375 235.695312 C 318.675781 233.433594 315.113281 233.433594 312.851562 235.695312 L 301.679688 246.9375 L 323.0625 268.324219 Z M 334.304688 257.148438"/>
 </g>
</svg>
