<svg xmlns="http://www.w3.org/2000/svg" xmlns:xlink="http://www.w3.org/1999/xlink" width="384pt" height="384pt" version="1.1" viewBox="0 0 384 384">
 <defs>
  <filter id="alpha" width="100%" height="100%" x="0%" y="0%" filterUnits="objectBoundingBox">
   <feColorMatrix in="SourceGraphic" type="matrix" values="0 0 0 0 1 0 0 0 0 1 0 0 0 0 1 0 0 0 1 0"/>
  </filter>
  <mask id="mask0">
   <g filter="url(#alpha)">
    <rect width="384" height="384" x="0" y="0" style="fill:rgb(0%,0%,0%);fill-opacity:0.2"/>
   </g>
  </mask>
  <clipPath id="clip1">
   <rect width="384" height="384" x="0" y="0"/>
  </clipPath>
  <g id="surface5" clip-path="url(#clip1)">
   <path style="fill:rgb(0%,0%,0%)" d="M 35.859375 166.222656 C 34.609375 198.660156 43.589844 222.933594 61.921875 240.539062 C 62.203125 243.480469 62.625 246.433594 62.929688 249.371094 C 62.992188 248.929688 63.097656 248.484375 63.140625 248.039062 C 63.152344 247.847656 63.199219 247.667969 63.210938 247.476562 C 63.738281 241.164062 62.527344 234.851562 61.921875 228.539062 C 45.921875 213.179688 37.066406 192.71875 35.863281 166.222656 Z M 348.296875 169.777344 C 347.121094 193.367188 338.363281 212.242188 322.175781 226.894531 C 321.625 234.527344 319.777344 242.148438 321.046875 249.765625 C 321.429688 246.144531 321.910156 242.519531 322.175781 238.894531 C 341.027344 221.84375 349.90625 199.101562 348.296875 169.773438 Z M 296.363281 284.605469 C 296.039062 287.410156 296.21875 290.988281 297.585938 296.4375 C 297.863281 297.550781 298.269531 298.558594 298.667969 299.554688 C 301.117188 302.734375 303.875 306.132812 307.5 310.007812 C 328.5 332.410156 360 310.007812 360 298.800781 C 360 295.5 358.96875 294.179688 357.144531 293.339844 C 349.175781 304.429688 324.875 316.535156 307.5 298.007812 C 302.746094 292.945312 299.207031 288.515625 296.363281 284.605469 Z M 87.664062 284.628906 C 86.265625 286.558594 84.695312 288.574219 82.859375 290.785156 C 81.007812 293.039062 78.914062 295.441406 76.507812 298.007812 C 75.195312 299.410156 73.839844 300.625 72.453125 301.691406 C 69.6875 303.816406 66.808594 305.292969 63.875 306.238281 C 48.859375 311.074219 32.925781 301.894531 26.777344 293.316406 C 24.960938 294.167969 24.011719 295.511719 24.011719 298.800781 C 24.011719 307.90625 44.816406 324.382812 63.875 318.238281 C 66.808594 317.292969 69.6875 315.816406 72.453125 313.691406 C 73.839844 312.625 75.195312 311.410156 76.507812 310.007812 C 78.914062 307.441406 81.007812 305.039062 82.859375 302.785156 C 83.820312 301.632812 84.542969 300.625 85.367188 299.554688 C 85.765625 298.558594 86.144531 297.550781 86.421875 296.4375 C 87.789062 291 87.984375 287.4375 87.664062 284.628906 Z M 192.003906 298.007812 C 192.003906 331.605469 160.507812 354 129.003906 354 C 124.636719 354 121.925781 353.472656 120.054688 352.644531 C 115.648438 361.117188 114.445312 366 129.003906 366 C 160.503906 366 192.003906 343.605469 192.003906 310.007812 C 192.003906 343.605469 223.503906 366 255.003906 366 C 269.5625 366 268.375 361.117188 263.980469 352.644531 C 262.109375 353.472656 259.386719 354 255.003906 354 C 223.507812 354 192.003906 331.609375 192.003906 298.007812 Z M 126.199219 328.5 C 108.558594 343.957031 76.671875 343.523438 66.003906 331.621094 C 65.789062 331.378906 65.78125 331.222656 65.582031 330.984375 C 61.851562 334.1875 60.59375 337.570312 66.003906 343.621094 C 75.117188 353.785156 99.667969 355.488281 117.636719 346.152344 C 118.996094 341.820312 122.933594 335.878906 126.195312 328.5 Z M 257.835938 328.5 C 261.101562 335.878906 265.011719 341.820312 266.371094 346.152344 C 284.34375 355.488281 308.898438 353.785156 318.003906 343.621094 C 323.429688 337.558594 322.179688 334.164062 318.425781 330.960938 C 318.222656 331.199219 318.234375 331.367188 318.003906 331.621094 C 307.335938 343.523438 275.476562 343.957031 257.835938 328.5 Z M 257.835938 328.5"/>
  </g>
  <mask id="mask1">
   <g filter="url(#alpha)">
    <rect width="384" height="384" x="0" y="0" style="fill:rgb(0%,0%,0%);fill-opacity:0.2"/>
   </g>
  </mask>
  <clipPath id="clip2">
   <rect width="384" height="384" x="0" y="0"/>
  </clipPath>
  <g id="surface8" clip-path="url(#clip2)">
   <path style="fill:rgb(0%,0%,0%)" d="M 156 132 C 156 115.429688 145.253906 102 132 102 C 118.746094 102 108 115.429688 108 132 C 108 148.570312 118.746094 162 132 162 C 145.253906 162 156 148.570312 156 132 Z M 156 132"/>
  </g>
  <mask id="mask2">
   <g filter="url(#alpha)">
    <rect width="384" height="384" x="0" y="0" style="fill:rgb(0%,0%,0%);fill-opacity:0.2"/>
   </g>
  </mask>
  <clipPath id="clip3">
   <rect width="384" height="384" x="0" y="0"/>
  </clipPath>
  <g id="surface11" clip-path="url(#clip3)">
   <path style="fill:rgb(0%,0%,0%)" d="M 276 132 C 276 115.429688 265.253906 102 252 102 C 238.746094 102 228 115.429688 228 132 C 228 148.570312 238.746094 162 252 162 C 265.253906 162 276 148.570312 276 132 Z M 276 132"/>
  </g>
  <mask id="mask3">
   <g filter="url(#alpha)">
    <rect width="384" height="384" x="0" y="0" style="fill:rgb(0%,0%,0%);fill-opacity:0.2"/>
   </g>
  </mask>
  <clipPath id="clip4">
   <rect width="384" height="384" x="0" y="0"/>
  </clipPath>
  <g id="surface14" clip-path="url(#clip4)">
   <path style="fill:rgb(100%,100%,100%)" d="M 191.273438 24 C 126.90625 24 54.019531 77.554688 38.179688 136.828125 C 36.207031 148.632812 35.390625 159.496094 35.636719 169.523438 C 35.785156 161.183594 36.59375 152.320312 38.179688 142.828125 C 54.019531 83.554688 126.90625 30.011719 191.277344 30.011719 L 191.277344 30 C 255.644531 30 322.011719 79.296875 344.371094 142.828125 C 346.96875 153.9375 348.335938 164.25 348.554688 173.839844 C 348.894531 162.59375 347.515625 150.289062 344.371094 136.828125 C 322.011719 73.296875 255.644531 24 191.277344 24 Z M 320.707031 252.679688 C 320.160156 260.59375 321.085938 268.5 328.5 276.40625 C 346.757812 295.882812 357.066406 289.972656 359.449219 295.453125 C 359.777344 294.527344 360 293.632812 360 292.804688 C 360 281.605469 349.5 292.8125 328.5 270.40625 C 322.960938 264.503906 321.097656 258.589844 320.707031 252.679688 Z M 63.210938 253.242188 C 63.203125 253.320312 63.214844 253.398438 63.210938 253.476562 C 63.199219 253.660156 63.160156 253.84375 63.148438 254.027344 C 63.03125 255.214844 62.851562 256.402344 62.578125 257.59375 C 62.460938 258.070312 62.273438 258.570312 62.128906 259.054688 C 61.867188 259.957031 61.609375 260.863281 61.230469 261.761719 C 60.910156 262.511719 60.449219 263.261719 60.046875 264.011719 C 59.671875 264.714844 59.359375 265.410156 58.898438 266.113281 C 57.953125 267.539062 56.855469 268.972656 55.511719 270.40625 C 50.261719 276.011719 45.667969 279.503906 41.730469 281.777344 C 29.917969 288.601562 24.011719 284.40625 24.011719 292.804688 C 24.011719 293.65625 24.25 294.589844 24.597656 295.546875 C 26.285156 291.613281 31.953125 293.425781 41.730469 287.777344 C 45.667969 285.503906 50.261719 282.011719 55.511719 276.40625 C 56.855469 274.972656 57.953125 273.539062 58.898438 272.113281 C 59.359375 271.410156 59.671875 270.714844 60.046875 270.011719 C 60.449219 269.261719 60.910156 268.511719 61.230469 267.761719 C 61.609375 266.863281 61.867188 265.957031 62.128906 265.054688 C 62.273438 264.570312 62.460938 264.070312 62.578125 263.59375 C 62.851562 262.402344 63.03125 261.226562 63.148438 260.039062 C 63.160156 259.855469 63.199219 259.660156 63.210938 259.476562 C 63.382812 257.398438 63.328125 255.316406 63.210938 253.242188 Z M 296.359375 296.605469 C 296.035156 299.417969 296.21875 302.992188 297.589844 308.4375 C 301.441406 323.777344 316.945312 327.335938 320.777344 333.574219 C 326.238281 322.410156 302.488281 321.9375 297.589844 302.425781 C 297.035156 300.246094 296.800781 298.554688 296.59375 296.902344 C 296.519531 296.808594 296.425781 296.695312 296.359375 296.605469 Z M 87.640625 296.628906 C 87.574219 296.71875 87.484375 296.824219 87.421875 296.914062 C 87.210938 298.566406 86.957031 300.253906 86.410156 302.425781 C 81.511719 321.949219 57.742188 322.410156 63.222656 333.589844 C 67.039062 327.34375 82.558594 323.789062 86.410156 308.4375 C 87.78125 303 87.964844 299.4375 87.640625 296.628906 Z M 126.1875 340.5 C 124.699219 341.808594 123.066406 342.964844 121.390625 344.050781 C 118.121094 350.164062 115.734375 354.75 117.925781 357.371094 C 119.484375 353.113281 123.121094 347.460938 126.1875 340.5 Z M 257.824219 340.5 C 260.890625 347.460938 264.527344 353.113281 266.089844 357.371094 C 268.273438 354.742188 265.894531 350.160156 262.625 344.050781 C 260.953125 342.964844 259.320312 341.8125 257.824219 340.5 Z M 257.824219 340.5"/>
  </g>
 </defs>
 <g>
  <use mask="url(#mask0)" xlink:href="#surface5"/>
  <path style="fill:rgb(100%,78.431373%,19.215686%)" d="M 191.28125 24.003906 C 126.910156 24.003906 54.023438 77.554688 38.183594 136.828125 C 30.730469 181.445312 39.410156 212.925781 61.929688 234.542969 C 62.535156 240.855469 63.738281 247.167969 63.210938 253.476562 C 63.199219 253.664062 63.160156 253.847656 63.148438 254.035156 C 63.03125 255.222656 62.851562 256.410156 62.574219 257.59375 C 62.457031 258.082031 62.277344 258.570312 62.132812 259.054688 C 61.867188 259.957031 61.609375 260.859375 61.230469 261.761719 C 60.914062 262.511719 60.453125 263.257812 60.050781 264.011719 C 59.671875 264.710938 59.363281 265.410156 58.902344 266.109375 C 57.953125 267.542969 56.847656 268.976562 55.503906 270.410156 C 50.253906 276.007812 45.660156 279.503906 41.722656 281.777344 C 29.910156 288.601562 24.003906 284.402344 24.003906 292.804688 C 24.003906 301.902344 44.792969 318.390625 63.855469 312.242188 C 66.789062 311.296875 69.683594 309.828125 72.453125 307.699219 C 73.835938 306.636719 75.191406 305.410156 76.503906 304.007812 C 78.910156 301.441406 81 299.042969 82.851562 296.789062 C 84.6875 294.582031 86.242188 292.550781 87.644531 290.621094 C 87.964844 293.433594 87.78125 296.996094 86.414062 302.433594 C 80.976562 324.070312 52.242188 322.25 66.003906 337.605469 C 76.667969 349.507812 108.546875 349.96875 126.175781 334.507812 C 119.148438 350.445312 108.464844 360 129 360 C 160.5 360 192 337.605469 192 304.007812 C 192 337.605469 223.5 360 255 360 C 275.535156 360 264.851562 350.445312 257.820312 334.507812 C 275.457031 349.96875 307.332031 349.507812 317.996094 337.605469 C 331.757812 322.25 303.023438 324.070312 297.585938 302.433594 C 296.21875 296.988281 296.03125 293.421875 296.355469 290.605469 C 299.199219 294.523438 302.746094 298.941406 307.496094 304.007812 C 328.507812 326.414062 360.007812 304.007812 360.007812 292.804688 C 360.007812 281.605469 349.507812 292.8125 328.507812 270.414062 C 316.789062 257.910156 321.269531 245.410156 322.175781 232.90625 C 346.472656 210.9375 354.402344 179.6875 344.378906 136.835938 C 322.015625 73.300781 255.648438 24.011719 191.289062 24.011719 Z M 191.28125 24.003906"/>
  <use mask="url(#mask1)" xlink:href="#surface8"/>
  <path style="fill:rgb(100%,100%,100%)" d="M 156 126.007812 C 156 109.4375 145.253906 96.007812 132 96.007812 C 118.746094 96.007812 108 109.4375 108 126.007812 C 108 142.574219 118.746094 156.007812 132 156.007812 C 145.253906 156.007812 156 142.574219 156 126.007812 Z M 156 126.007812"/>
  <use mask="url(#mask2)" xlink:href="#surface11"/>
  <path style="fill:rgb(29.803922%,29.803922%,29.803922%)" d="M 156 126.007812 C 156 116.066406 150.628906 108.007812 144 108.007812 C 137.371094 108.007812 132 116.066406 132 126.007812 C 132 135.945312 137.371094 144.007812 144 144.007812 C 150.628906 144.007812 156 135.945312 156 126.007812 Z M 156 126.007812"/>
  <path style="fill:rgb(29.803922%,29.803922%,29.803922%)" d="M 276 124.804688 C 276 115.527344 270.359375 108.007812 263.398438 108.007812 C 256.441406 108.007812 250.800781 115.527344 250.800781 124.804688 C 250.800781 134.085938 256.441406 141.605469 263.398438 141.605469 C 270.359375 141.605469 276 134.085938 276 124.804688 Z M 276 124.804688"/>
  <path style="fill:rgb(100%,100%,100%)" d="M 276 126.007812 C 276 109.4375 265.253906 96.007812 252 96.007812 C 238.746094 96.007812 228 109.4375 228 126.007812 C 228 142.574219 238.746094 156.007812 252 156.007812 C 265.253906 156.007812 276 142.574219 276 126.007812 Z M 276 126.007812"/>
  <path style="fill:rgb(29.803922%,29.803922%,29.803922%)" d="M 276 126.007812 C 276 116.066406 270.628906 108.007812 264 108.007812 C 257.371094 108.007812 252 116.066406 252 126.007812 C 252 135.945312 257.371094 144.007812 264 144.007812 C 270.628906 144.007812 276 135.945312 276 126.007812 Z M 276 126.007812"/>
  <use mask="url(#mask3)" xlink:href="#surface14"/>
 </g>
</svg>
