<svg xmlns="http://www.w3.org/2000/svg" xmlns:xlink="http://www.w3.org/1999/xlink" width="384pt" height="384pt" version="1.1" viewBox="0 0 384 384">
 <defs>
  <filter id="alpha" width="100%" height="100%" x="0%" y="0%" filterUnits="objectBoundingBox">
   <feColorMatrix in="SourceGraphic" type="matrix" values="0 0 0 0 1 0 0 0 0 1 0 0 0 0 1 0 0 0 1 0"/>
  </filter>
  <mask id="mask0">
   <g filter="url(#alpha)">
    <rect width="384" height="384" x="0" y="0" style="fill:rgb(0%,0%,0%);fill-opacity:0.2"/>
   </g>
  </mask>
  <clipPath id="clip1">
   <rect width="384" height="384" x="0" y="0"/>
  </clipPath>
  <g id="surface5" clip-path="url(#clip1)">
   <path style="fill:rgb(0%,0%,0%)" d="M 24.304688 192.003906 C 24.234375 194.007812 24 195.976562 24 198.003906 C 24 291.074219 98.925781 366 191.996094 366 C 285.066406 366 359.992188 291.074219 359.992188 198.003906 C 359.992188 195.980469 359.757812 194.011719 359.6875 192.003906 C 356.519531 282.253906 283.03125 354 191.992188 354 C 100.945312 354 27.464844 282.253906 24.296875 192.003906 Z M 24.304688 192.003906"/>
  </g>
  <mask id="mask1">
   <g filter="url(#alpha)">
    <rect width="384" height="384" x="0" y="0" style="fill:rgb(0%,0%,0%);fill-opacity:0.2"/>
   </g>
  </mask>
  <clipPath id="clip2">
   <rect width="384" height="384" x="0" y="0"/>
  </clipPath>
  <g id="surface8" clip-path="url(#clip2)">
   <path style="fill:rgb(0%,0%,0%)" d="M 227.996094 102.007812 C 208.113281 102.007812 191.996094 118.125 191.996094 138.007812 C 191.996094 140.78125 192.527344 143.285156 193.121094 145.882812 L 154.496094 169.878906 C 148.375 164.839844 140.574219 161.960938 132.054688 161.960938 C 112.175781 161.960938 96.058594 178.078125 96.058594 197.960938 C 96.058594 217.839844 112.175781 233.957031 132.054688 233.957031 C 140.5625 233.957031 148.394531 231.019531 154.554688 226.082031 L 193.179688 250.082031 C 192.460938 252.722656 191.980469 255.242188 191.980469 258.003906 C 191.980469 277.882812 208.097656 294 227.980469 294 C 247.859375 294 263.976562 277.882812 263.976562 258.003906 C 263.976562 238.121094 247.859375 222.003906 227.980469 222.003906 C 219.46875 222.003906 211.640625 224.945312 205.480469 229.878906 L 166.855469 205.878906 C 167.449219 203.285156 167.980469 200.78125 167.980469 198.003906 C 167.980469 195.230469 167.449219 192.726562 166.855469 190.128906 L 205.480469 166.128906 C 211.71875 171.050781 219.519531 173.929688 228.039062 173.929688 C 247.917969 173.929688 264.039062 157.8125 264.039062 137.929688 C 264.039062 118.050781 247.917969 101.933594 228.039062 101.933594 Z M 227.996094 102.007812"/>
  </g>
  <clipPath id="clip3">
   <rect width="384" height="384" x="0" y="0"/>
  </clipPath>
  <g id="surface11" clip-path="url(#clip3)">
   <path style="fill:rgb(100%,100%,100%)" d="M 227.996094 96.007812 C 208.113281 96.007812 191.996094 112.125 191.996094 132.007812 C 191.996094 134.78125 192.527344 137.285156 193.121094 139.882812 L 154.496094 163.882812 C 148.335938 158.945312 140.503906 156.007812 131.996094 156.007812 C 112.113281 156.007812 95.996094 172.125 95.996094 192.003906 C 95.996094 211.886719 112.113281 228.003906 131.996094 228.003906 C 140.503906 228.003906 148.332031 225.066406 154.496094 220.128906 L 193.121094 244.128906 C 192.527344 246.722656 191.996094 249.226562 191.996094 252.003906 C 191.996094 271.882812 208.113281 288.003906 227.996094 288.003906 C 247.875 288.003906 263.992188 271.882812 263.992188 252.003906 C 263.992188 232.121094 247.875 216.003906 227.996094 216.003906 C 219.484375 216.003906 211.65625 218.945312 205.496094 223.878906 L 166.871094 199.878906 C 167.464844 197.285156 167.996094 194.78125 167.996094 192.003906 C 167.996094 189.230469 167.464844 186.726562 166.871094 184.128906 L 205.496094 160.132812 C 211.65625 165.066406 219.484375 168.007812 227.996094 168.007812 C 247.875 168.007812 263.992188 151.886719 263.992188 132.007812 C 263.992188 112.125 247.875 96.007812 227.996094 96.007812 Z M 227.996094 96.007812"/>
  </g>
  <mask id="mask2">
   <g filter="url(#alpha)">
    <rect width="384" height="384" x="0" y="0" style="fill:rgb(0%,0%,0%);fill-opacity:0.101961"/>
   </g>
  </mask>
  <clipPath id="clip4">
   <rect width="384" height="384" x="0" y="0"/>
  </clipPath>
  <g id="surface14" clip-path="url(#clip4)">
   <path style="fill:rgb(100%,100%,100%)" d="M 192 24.011719 C 98.929688 24.011719 24 98.929688 24 192 C 24 192.679688 24.066406 193.34375 24.105469 194.015625 C 26.214844 102.808594 100.265625 30 192 30 C 283.734375 30 357.785156 102.808594 359.894531 194.015625 C 359.933594 193.34375 360 192.679688 360 192 C 360 98.929688 285.070312 24.011719 192 24.011719 Z M 192 24.011719"/>
  </g>
 </defs>
 <g>
  <use mask="url(#mask0)" xlink:href="#surface5"/>
  <path style="fill:rgb(83.529412%,18.823529%,40.784314%)" d="M 360 192.007812 C 360 99.226562 284.785156 24.011719 192.007812 24.011719 C 99.226562 24.011719 24.011719 99.226562 24.011719 192.007812 C 24.011719 284.785156 99.226562 360 192.007812 360 C 284.785156 360 360 284.785156 360 192.007812 Z M 360 192.007812"/>
  <use mask="url(#mask1)" xlink:href="#surface8"/>
  <use xlink:href="#surface11"/>
  <use mask="url(#mask2)" xlink:href="#surface14"/>
 </g>
</svg>
