<svg width="512" height="512" version="1.1" viewBox="0 0 384 384" xmlns="http://www.w3.org/2000/svg"><g stroke-width="1.148"><path d="m54.248 299.37h275.51v41.327h-275.51z" opacity=".3"/><path d="m104.8 30.75c-12.744 0-23.004 10.264-23.004 23.004v174.4c0 12.744 10.26 23.004 23.004 23.004h174.4c12.744 0 23.009-10.26 23.009-23.004v-174.4c0-12.744-10.265-23.004-23.009-23.004zm32.098 55.103h110.21v110.21h-110.21z" opacity=".3"/><path d="m109.35 320.04c0 22.825-18.502 41.327-41.327 41.327s-41.327-18.502-41.327-41.327 18.502-41.327 41.327-41.327 41.327 18.502 41.327 41.327z" opacity=".3"/><path d="m233.33 320.04c0 22.825-18.502 41.327-41.327 41.327s-41.327-18.502-41.327-41.327 18.502-41.327 41.327-41.327 41.327 18.502 41.327 41.327z" opacity=".3"/><path d="m357.3 320.04c0 22.825-18.502 41.327-41.327 41.327-22.82 0-41.327-18.502-41.327-41.327s18.507-41.327 41.327-41.327c22.825 0 41.327 18.502 41.327 41.327z" opacity=".3"/><path transform="scale(.75)" d="m139.73 31c-16.992 0-30.672 13.687-30.672 30.672v232.53c0 16.992 13.68 30.672 30.672 30.672h232.54c16.992 0 30.678-13.68 30.678-30.672v-232.53c0-16.992-13.686-30.672-30.678-30.672h-232.54zm42.799 73.471h146.95v146.95h-146.95v-146.95zm45.922 220.41v64.279h-156.12v55.102h367.35v-55.102h-156.12v-64.279h-55.104z" fill="#333542" stroke-width="1.5307"/><g fill="#21b8c2"><path d="m109.35 312.54c0 22.825-18.502 41.327-41.327 41.327s-41.327-18.502-41.327-41.327 18.502-41.327 41.327-41.327 41.327 18.502 41.327 41.327z"/><path d="m233.33 312.54c0 22.825-18.502 41.327-41.327 41.327s-41.327-18.502-41.327-41.327 18.502-41.327 41.327-41.327 41.327 18.502 41.327 41.327z"/><path d="m357.3 312.54c0 22.825-18.502 41.327-41.327 41.327-22.82 0-41.327-18.502-41.327-41.327s18.507-41.327 41.327-41.327c22.825 0 41.327 18.502 41.327 41.327z"/></g></g></svg>
