<?xml version="1.0" encoding="UTF-8" standalone="no"?>
<!-- Created with Inkscape (http://www.inkscape.org/) -->

<svg
   xmlns:dc="http://purl.org/dc/elements/1.1/"
   xmlns:cc="http://creativecommons.org/ns#"
   xmlns:rdf="http://www.w3.org/1999/02/22-rdf-syntax-ns#"
   xmlns:svg="http://www.w3.org/2000/svg"
   xmlns="http://www.w3.org/2000/svg"
   xmlns:sodipodi="http://sodipodi.sourceforge.net/DTD/sodipodi-0.dtd"
   xmlns:inkscape="http://www.inkscape.org/namespaces/inkscape"
   version="1.0"
   width="128"
   height="128"
   id="svg2408"
   inkscape:version="0.91 r"
   sodipodi:docname="gmusicbrowser.svg">
  <sodipodi:namedview
     pagecolor="#ffffff"
     bordercolor="#666666"
     borderopacity="1"
     objecttolerance="10"
     gridtolerance="10"
     guidetolerance="10"
     inkscape:pageopacity="0"
     inkscape:pageshadow="2"
     inkscape:window-width="1275"
     inkscape:window-height="716"
     id="namedview128"
     showgrid="false"
     inkscape:zoom="2.828427"
     inkscape:cx="89.537502"
     inkscape:cy="46.339595"
     inkscape:window-x="23"
     inkscape:window-y="24"
     inkscape:window-maximized="0"
     inkscape:current-layer="svg2408"
     showguides="true"
     inkscape:guide-bbox="true" />
  <defs
     id="defs2410">
    <linearGradient
       x1="45.447727"
       y1="92.539597"
       x2="45.447727"
       y2="7.0165396"
       id="ButtonShadow"
       gradientUnits="userSpaceOnUse"
       gradientTransform="scale(1.0058652,0.994169)">
      <stop
         id="stop3750"
         style="stop-color:#000000;stop-opacity:1"
         offset="0" />
      <stop
         id="stop3752"
         style="stop-color:#000000;stop-opacity:0.58823532"
         offset="1" />
    </linearGradient>
    <filter
       color-interpolation-filters="sRGB"
       id="filter3174">
      <feGaussianBlur
         id="feGaussianBlur3176"
         stdDeviation="1.71" />
    </filter>
    <mask
       maskUnits="userSpaceOnUse"
       x="122.963"
       y="97.149"
       width="576.609"
       height="587.491"
       id="XMLID_23_">
      <g
         id="g31"
         style="filter:url(#Adobe_OpacityMaskFilter)">
        <radialGradient
           id="XMLID_24_"
           cx="88.977501"
           cy="-20.899401"
           r="673.11609"
           fx="88.977501"
           fy="-20.899401"
           gradientUnits="userSpaceOnUse">
          <stop
             offset="0.309"
             style="stop-color: rgb(255, 255, 255);"
             id="stop34" />
          <stop
             offset="1"
             style="stop-color: rgb(0, 0, 0);"
             id="stop36" />
        </radialGradient>
        <ellipse
           cx="295.89499"
           cy="286.172"
           rx="512.93402"
           ry="349.10599"
           id="ellipse38"
           style="fill:url(#XMLID_24_) #000000"
           sodipodi:cx="295.89499"
           sodipodi:cy="286.172"
           sodipodi:rx="512.93402"
           sodipodi:ry="349.10599" />
      </g>
    </mask>
    <mask
       maskUnits="userSpaceOnUse"
       x="243.061"
       y="279.317"
       width="252.506"
       height="187.183"
       id="XMLID_13_">
      <g
         id="g193"
         style="filter:url(#Adobe_OpacityMaskFilter_4_)">
        <linearGradient
           id="XMLID_14_"
           gradientUnits="userSpaceOnUse"
           x1="340.0488"
           y1="266.93359"
           x2="372.38071"
           y2="417.81519">
          <stop
             offset="0"
             style="stop-color: rgb(255, 255, 255);"
             id="stop196" />
          <stop
             offset="0.0867"
             style="stop-color: rgb(248, 248, 248);"
             id="stop198" />
          <stop
             offset="0.2156"
             style="stop-color: rgb(228, 228, 228);"
             id="stop200" />
          <stop
             offset="0.3708"
             style="stop-color: rgb(194, 194, 194);"
             id="stop202" />
          <stop
             offset="0.5465"
             style="stop-color: rgb(148, 148, 148);"
             id="stop204" />
          <stop
             offset="0.7394"
             style="stop-color: rgb(89, 89, 89);"
             id="stop206" />
          <stop
             offset="0.9438"
             style="stop-color: rgb(21, 21, 21);"
             id="stop208" />
          <stop
             offset="0.9944"
             style="stop-color: rgb(0, 0, 0);"
             id="stop210" />
        </linearGradient>
        <ellipse
           cx="363.052"
           cy="374.28201"
           rx="215.32401"
           ry="183.32201"
           id="ellipse212"
           style="fill:url(#XMLID_14_) #000000"
           sodipodi:cx="363.052"
           sodipodi:cy="374.28201"
           sodipodi:rx="215.32401"
           sodipodi:ry="183.32201" />
      </g>
    </mask>
    <mask
       maskUnits="userSpaceOnUse"
       x="191.541"
       y="217.631"
       width="447.197"
       height="527.73"
       id="XMLID_10_">
      <g
         id="g159">
        <radialGradient
           id="XMLID_11_"
           cx="657.2124"
           cy="155.23289"
           r="606.95343"
           fx="657.2124"
           fy="155.23289"
           gradientTransform="matrix(0.931,0,0,0.9299,28.7459,21.6629)"
           gradientUnits="userSpaceOnUse">
          <stop
             offset="0"
             style="stop-color: rgb(201, 201, 200);"
             id="stop162" />
          <stop
             offset="0.0881"
             style="stop-color: rgb(196, 196, 196);"
             id="stop164" />
          <stop
             offset="0.2192"
             style="stop-color: rgb(184, 184, 183);"
             id="stop166" />
          <stop
             offset="0.3769"
             style="stop-color: rgb(161, 160, 160);"
             id="stop168" />
          <stop
             offset="0.5556"
             style="stop-color: rgb(127, 127, 126);"
             id="stop170" />
          <stop
             offset="0.7517"
             style="stop-color: rgb(79, 79, 78);"
             id="stop172" />
          <stop
             offset="0.9595"
             style="stop-color: rgb(18, 18, 18);"
             id="stop174" />
          <stop
             offset="1"
             style="stop-color: rgb(0, 0, 0);"
             id="stop176" />
        </radialGradient>
        <circle
           cx="408.427"
           cy="444.22601"
           r="302.95401"
           id="circle178"
           style="fill:url(#XMLID_11_) #000000"
           sodipodi:cx="408.427"
           sodipodi:cy="444.22601"
           sodipodi:rx="302.95401"
           sodipodi:ry="302.95401" />
      </g>
    </mask>
    <mask
       maskUnits="userSpaceOnUse"
       x="101.57"
       y="425.034"
       width="156.907"
       height="127.553"
       id="XMLID_2_">
      <g
         id="g86">
        <linearGradient
           id="XMLID_3_"
           gradientUnits="userSpaceOnUse"
           x1="206.09081"
           y1="397.62061"
           x2="186.92191"
           y2="563.47321">
          <stop
             offset="0"
             style="stop-color: rgb(255, 255, 255);"
             id="stop89" />
          <stop
             offset="0.1111"
             style="stop-color: rgb(203, 203, 203);"
             id="stop91" />
          <stop
             offset="0.2396"
             style="stop-color: rgb(150, 150, 150);"
             id="stop93" />
          <stop
             offset="0.3698"
             style="stop-color: rgb(104, 104, 104);"
             id="stop95" />
          <stop
             offset="0.4991"
             style="stop-color: rgb(66, 66, 66);"
             id="stop97" />
          <stop
             offset="0.6273"
             style="stop-color: rgb(37, 37, 37);"
             id="stop99" />
          <stop
             offset="0.7542"
             style="stop-color: rgb(17, 17, 17);"
             id="stop101" />
          <stop
             offset="0.8792"
             style="stop-color: rgb(4, 4, 4);"
             id="stop103" />
          <stop
             offset="1"
             style="stop-color: rgb(0, 0, 0);"
             id="stop105" />
        </linearGradient>
        <ellipse
           cx="194.76401"
           cy="495.62299"
           rx="160.94"
           ry="123.604"
           id="ellipse107"
           style="fill:url(#XMLID_3_) #000000"
           sodipodi:cx="194.76401"
           sodipodi:cy="495.62299"
           sodipodi:rx="160.94"
           sodipodi:ry="123.604" />
      </g>
    </mask>
    <mask
       maskUnits="userSpaceOnUse"
       x="155.705"
       y="461.543"
       width="93.126"
       height="44.813"
       id="XMLID_26_">
      <g
         id="g69">
        <linearGradient
           id="XMLID_1_"
           gradientUnits="userSpaceOnUse"
           x1="211.7222"
           y1="562.85791"
           x2="200.0733"
           y2="466.75449">
          <stop
             offset="0"
             style="stop-color: rgb(255, 255, 255);"
             id="stop72" />
          <stop
             offset="1"
             style="stop-color: rgb(0, 0, 0);"
             id="stop74" />
        </linearGradient>
        <ellipse
           cx="203.617"
           cy="495.98801"
           rx="80.542"
           ry="59.682999"
           id="ellipse76"
           style="fill:url(#XMLID_1_) #000000"
           sodipodi:cx="203.617"
           sodipodi:cy="495.98801"
           sodipodi:rx="80.542"
           sodipodi:ry="59.682999" />
      </g>
    </mask>
    <linearGradient
       id="linearGradient3382">
      <stop
         id="stop3384"
         offset="0"
         style="stop-color:#b5b5b5;stop-opacity:1" />
      <stop
         id="stop3386"
         offset="1"
         style="stop-color:#dbdbdb;stop-opacity:1" />
    </linearGradient>
    <linearGradient
       id="linearGradient3992-5">
      <stop
         id="stop3994-3"
         offset="0"
         style="stop-color:#b5b5b5;stop-opacity:1" />
      <stop
         id="stop3996-0"
         offset="1"
         style="stop-color:#dbdbdb;stop-opacity:1" />
    </linearGradient>
    <linearGradient
       id="linearGradient3992">
      <stop
         id="stop3994"
         offset="0"
         style="stop-color:#b5b5b5;stop-opacity:1" />
      <stop
         id="stop3996"
         offset="1"
         style="stop-color:#dbdbdb;stop-opacity:1" />
    </linearGradient>
  </defs>
  <metadata
     id="metadata2413">
    <rdf:RDF>
      <cc:Work
         rdf:about="">
        <dc:format>image/svg+xml</dc:format>
        <dc:type
           rdf:resource="http://purl.org/dc/dcmitype/StillImage" />
        <dc:title />
      </cc:Work>
    </rdf:RDF>
  </metadata>
  <g
     id="layer2"
     style="display:none"
     transform="translate(0,32)">
    <path
       d="M 11,7 C 7.676,7 5,9.676 5,13 l 0,33.6875 c 2.2377507,0.124029 4.660506,0.235683 5.875,0.4375 0.66093,0.10983 -0.08406,0.240848 -1.125,0.34375 C 8.7090622,47.571654 7.3545491,47.665119 6.84375,47.75 6.2216014,47.853382 5.6264179,47.903999 5,48 l 0,1.0625 c 0.3803657,0.03607 0.7183843,0.03125 0.9375,0.03125 0.80883,10e-7 1.1599727,0.215701 1.3125,0.5625 0.1525272,0.346797 0.09375,0.839723 0.09375,1.40625 0,0.424828 -0.9420178,0.663014 -1.15625,1.375 C 6.110939,52.691968 5.5510552,52.945524 5,53.1875 l 0,2.21875 c 0.7355867,0.02497 1.4332639,0.05671 1.84375,0.3125 C 7.1254716,55.894306 6.0687957,56.124098 5,56.3125 l 0,7.5625 c 1.1379643,0.180337 3.3100715,0.925679 3.96875,1.0625 1.090152,0.226446 1.224723,0.33476 0.875,0.4375 -0.3497231,0.102744 -1.173581,0.175172 -2,0.3125 C 6.8656638,65.850029 5.90816,66.141998 5,66.34375 L 5,86 c 0,3.324 2.676,6 6,6 l 13,0 c 0.0954,-0.438237 0.150955,-0.931178 0.25,-1.4375 0.140364,-0.717512 0.25498,-1.34159 0.375,-1.59375 0.03001,-0.06304 0.05815,-0.114053 0.09375,-0.125 0.106804,-0.03285 0.238198,0.191956 0.46875,0.78125 0.304338,0.777871 0.540174,1.646782 0.6875,2.375 l 0.75,0 c 0.276152,-0.493694 0.578538,-1.138496 0.8125,-1.4375 0.09907,-0.126629 0.275237,0.131501 0.53125,0.375 0.256014,0.2435 0.588904,0.486378 0.9375,0.375 0.648614,-0.207227 1.602807,-0.726227 2.03125,-1 0.139883,-0.08938 0.300164,-0.157976 0.40625,-0.1875 0.106087,-0.02952 0.174331,-0.01774 0.25,0 0.151339,0.03548 0.232196,0.144559 0.34375,0.28125 0.223098,0.27338 0.466785,0.656251 1.0625,0.65625 0.478344,0 0.657185,-0.0325 0.78125,0.0625 0.124065,0.095 0.197087,0.314551 0.40625,0.875 l 8.875,0 c -0.04778,-0.593879 1.040547,-2.151517 1.21875,-3.0625 0.19092,-0.975995 0.214078,-1.242419 0.28125,-1.0625 0.06717,0.179919 0.192504,0.793906 0.46875,1.5 0.110448,0.282298 0.213887,0.358235 0.3125,0.28125 0.09861,-0.07699 0.168895,-0.293948 0.25,-0.5625 0.162213,-0.537107 0.285649,-1.296709 0.34375,-1.59375 0.131129,-0.670335 0.128655,-1.786501 0.125,-2.28125 -9.11e-4,-0.123687 -0.0059,-0.217815 0,-0.25 0.01779,-0.09656 0.08067,0.312079 0.28125,1.59375 0.163819,1.046767 0.54767,2.687946 0.71875,3.5625 0.169798,0.867992 0.298106,1.322124 0.40625,1.875 l 28.21875,0 c 0.03877,-0.494956 0.03519,-1.098589 0.0625,-1.5 0.02049,-0.301057 0.06649,-0.487005 0.15625,-0.46875 0.02992,0.0061 0.05077,0.03882 0.09375,0.09375 0.233449,0.298339 0.630596,1.164908 0.96875,1.875 L 85,92 c 3.324,0 6,-2.676 6,-6 l 0,-7.21875 c -0.16942,0.0045 -0.290112,-4e-6 -0.5,0 -1.330307,0 -2.638456,-4e-6 -3.96875,0 -1.226564,0 -2.05394,-9.64e-4 -2.25,-0.0625 -0.19606,-0.06154 0.232972,-0.183183 1.46875,-0.5 C 86.405034,78.050819 89.092469,77.290673 91,76.875 L 91,38.46875 C 90.34725,38.202412 89.792969,37.980093 89.25,37.5625 89.107486,37.452886 88.801155,37.170028 88.28125,37 87.761349,36.829972 87.007124,36.743855 86,36.9375 c -1.533473,0.294852 -1.685602,0.283469 -1.25,0.15625 0.4356,-0.127221 1.468635,-0.381012 2.25,-0.53125 1.152717,-0.221645 2.722214,-1.204246 4,-1.84375 l 0,-4.5625 c -0.69831,-0.257978 -1.422206,-0.558272 -1.75,-1.0625 -0.209707,-0.322576 -0.321618,-0.513018 -0.3125,-0.625 0.0091,-0.111981 0.13299,-0.149124 0.25,-0.1875 0.117011,-0.03837 0.261032,-0.05449 0.375,-0.15625 0.11397,-0.101759 0.187497,-0.291619 0.1875,-0.59375 0,-0.32292 0.08246,-0.887065 0.0625,-1.40625 -0.01,-0.259593 -0.03562,-0.49724 -0.125,-0.6875 -0.08939,-0.19026 -0.219089,-0.333004 -0.4375,-0.375 -0.574572,-0.110478 -0.848143,-0.233682 -0.90625,-0.34375 -0.05811,-0.110067 0.07208,-0.18937 0.28125,-0.28125 0.418339,-0.18376 1.132532,-0.339398 1.125,-0.34375 -0.668701,-0.385725 -5.247169,-0.921226 -5,-0.96875 0.332574,-0.06395 0.667437,-0.123553 1,-0.1875 1.047644,-0.201439 2.43278,-0.309227 3.75,-0.5625 0.573261,-0.110227 0.911769,-0.250569 1.125,-0.4375 0.213229,-0.18693 0.294201,-0.423258 0.375,-0.625 L 91,13 C 91,9.676 88.324,7 85,7 L 33.625,7 C 33.72158,8.3975706 33.82658,9.959362 33.53125,9.1875 33.320827,8.6375466 33.210422,8.0499534 33,7.5 32.946762,7.3608606 32.903941,7.1705291 32.84375,7 L 30.8125,7 C 30.571803,7.4923127 30.362863,7.9708281 30.03125,8.1875 29.524321,8.5187294 29.245447,8.6821159 29,8.59375 28.754552,8.5053839 28.523162,8.1669814 28.15625,7.6875 27.992502,7.4735174 27.721718,7.2560338 27.40625,7 l -6.8125,0 -1.3125,5.5625 L 17.53125,7 17.3125,7 15.5625,15.9375 14.15625,7 11,7 z"
       inkscape:connector-curvature="0"
       id="rect3745"
       style="opacity:0.9;fill:url(#ButtonShadow);fill-opacity:1;fill-rule:nonzero;stroke:none;filter:url(#filter3174)" />
  </g>
  <path
     sodipodi:type="arc"
     style="fill:#005c94;fill-opacity:0;fill-rule:nonzero;stroke:#d45500;stroke-width:8.42870425999999995;stroke-linecap:round;stroke-linejoin:miter;stroke-miterlimit:4;stroke-opacity:1;stroke-dasharray:none"
     id="path3858"
     sodipodi:cx="68.412582"
     sodipodi:cy="67.89592"
     sodipodi:rx="65.230598"
     sodipodi:ry="63.286057"
     d="m 133.64318,67.89592 a 65.230598,63.286057 0 1 1 -130.4611961,0 65.230598,63.286057 0 1 1 130.4611961,0 z"
     transform="matrix(0.8764533,0,0,0.9033834,4.1608906,2.1890751)" />
  <g
     id="g3054"
     transform="matrix(0.57684241,0,0,0.57684241,23.010688,23.618729)"
     style="fill:#d45500">
    <path
       id="path3056"
       d="m 140.901,29.936 c -0.343,-0.431 -0.692,-0.944 -1.16,-1.171 -2.174,-1.056 -4.37,-2.076 -6.601,-3.004 -1.046,-0.435 -1.836,-0.989 -2.141,-2.12 -0.066,-0.245 -0.185,-0.511 -0.361,-0.686 -1.101,-1.092 -1.111,-1.09 0.198,-1.925 0.171,-0.109 0.384,-0.153 0.424,-0.168 -0.101,-0.534 -0.156,-0.956 -0.27,-1.362 -0.055,-0.197 -0.185,-0.412 -0.345,-0.534 -0.787,-0.593 -1.721,-1.045 -2.36,-1.763 -0.629,-0.707 -1.271,-0.672 -2.036,-0.6 -0.256,0.024 -0.616,0.032 -0.771,-0.116 -0.9,-0.87 -2.14,-0.446 -3.194,-0.814 -0.919,-0.321 -2.188,0.366 -3.303,0.6 -0.155,0.032 -0.343,0.072 -0.477,0.016 -1.911,-0.805 -3.524,-0.314 -4.826,1.191 -0.064,0.333 -0.153,0.712 -0.391,0.897 -0.906,0.702 -1.925,1.27 -2.776,2.028 -0.594,0.529 -1.221,1.228 -1.399,1.957 -0.179,0.734 -0.532,0.986 -1.108,1.169 -0.62,0.196 -1.191,0.387 -1.213,1.214 -0.006,0.206 -0.383,0.38 -0.462,0.612 -0.167,0.489 -0.269,1.004 -0.361,1.514 -0.051,0.283 0.062,0.626 -0.059,0.859 -0.431,0.837 -0.953,1.627 -1.397,2.457 -0.389,0.725 -1.098,1.551 -0.979,2.207 0.144,0.792 -0.053,1.566 0.13,2.288 0.307,1.216 -0.292,2.071 -0.853,3 -0.458,0.757 -0.914,1.534 -1.226,2.356 -0.275,0.727 -0.84,1.428 -0.396,2.336 0.111,0.227 -0.168,0.662 -0.304,0.986 -0.125,0.298 -0.396,0.564 -0.432,0.864 -0.172,1.434 -0.255,2.879 -0.429,4.313 -0.218,1.799 -0.701,3.486 -2.191,4.709 -1.551,1.273 -3.161,1.273 -4.521,-0.183 -1.034,-1.107 -1.993,-2.302 -2.858,-3.546 -2.436,-3.502 -4.809,-7.049 -7.199,-10.583 -0.106,-0.156 -0.218,-0.37 -0.197,-0.54 0.142,-1.12 -0.538,-1.838 -1.299,-2.402 -0.808,-0.599 -0.963,-1.168 -0.215,-2.008 -0.652,-0.313 -1.258,-0.51 -1.75,-0.865 -0.544,-0.393 -1.151,-0.848 -1.432,-1.423 -0.493,-1.007 -0.439,-2.272 -1.463,-3.041 -0.072,-0.054 -0.007,-0.265 -0.056,-0.383 -0.208,-0.501 -0.422,-1 -0.659,-1.488 -0.155,-0.32 -0.49,-0.611 -0.507,-0.928 -0.058,-1.106 -0.057,-2.22 0.008,-3.325 0.043,-0.728 0.245,-1.446 0.348,-2.173 0.027,-0.186 -0.015,-0.402 -0.087,-0.579 -0.308,-0.758 -0.693,-1.489 -0.941,-2.264 -0.138,-0.434 -0.062,-0.937 -0.083,-1.409 0.209,-0.983 -1.918,-0.791 -0.937,-2.357 -0.254,-0.2 -0.55,-0.372 -0.761,-0.617 -0.226,-0.262 -0.595,-0.69 -0.514,-0.876 0.435,-0.992 -0.24,-1.118 -0.89,-1.347 C 71.056,10.64 70.309,10.324 69.555,10.028 69.585,9.94 69.614,9.852 69.644,9.765 68.47,9.925 67.283,10.381 66.161,9.558 66.012,9.449 65.752,9.351 65.602,9.407 64.408,9.847 63.433,9.294 62.488,8.885 62.04,9.217 61.585,9.432 61.105,9.537 c -1.075,0.237 -2.161,0.42 -3.243,0.626 -0.032,0.006 -0.066,0.02 -0.091,0.041 -0.452,0.394 -0.903,0.789 -1.385,1.212 0.604,1.167 0.288,1.078 -0.746,1.362 -0.313,0.086 -0.613,0.289 -0.868,0.499 -0.221,0.182 -0.402,0.433 -0.548,0.684 -0.52,0.895 -1.019,1.802 -1.517,2.709 -0.017,0.031 0.052,0.119 0.093,0.17 0.701,0.868 0.328,1.764 0.188,2.714 -0.123,0.838 0.002,1.768 0.25,2.588 0.181,0.599 0.738,1.084 1.237,1.771 0.433,-0.061 1.053,0.029 0.985,0.999 -0.03,0.428 -0.028,0.866 -0.121,1.281 -0.333,1.48 -0.685,2.957 -1.072,4.424 -0.053,0.201 -0.312,0.408 -0.523,0.497 -1.307,0.549 -3.59,-0.656 -3.84,-2.216 -0.297,-1.85 -0.276,-3.75 -0.454,-5.622 -0.056,-0.586 -0.327,-1.149 -0.463,-1.731 -0.064,-0.276 -0.167,-0.73 -0.038,-0.832 0.639,-0.507 0.142,-0.892 -0.093,-1.259 -0.542,-0.843 -0.513,-0.951 0.602,-1.263 -0.488,-0.714 -0.959,-1.403 -1.437,-2.102 0.274,-0.235 0.463,-0.396 0.753,-0.643 -0.717,-0.587 -1.413,-1.092 -2.022,-1.685 -0.271,-0.264 -0.368,-0.707 -0.544,-1.068 -0.456,-0.971 -1.944,-0.678 -2.33,-1.942 -0.031,-0.1 -0.291,-0.194 -0.437,-0.185 -0.554,0.036 -1.117,0.068 -1.655,0.192 -0.818,0.188 -1.554,0.448 -2.46,0.096 -1.296,-0.503 -2.685,-0.782 -4.048,-1.094 -0.768,-0.176 -1.428,0.028 -1.83,0.817 -0.103,0.201 -0.397,0.388 -0.629,0.426 -1.33,0.216 -1.784,1.285 -2.309,2.164 0.259,0.444 0.469,0.805 0.786,1.35 -2.141,0.162 -3.623,0.999 -4.35,2.453 0.217,0.52 0.585,1.007 0.47,1.191 -0.882,1.41 -0.533,2.851 -0.286,4.301 0.928,0.089 0.789,0.179 1.305,0.981 0.495,0.769 0.299,2.084 1.917,2.234 -0.597,2.002 -1.089,3.927 -1.753,5.791 -0.567,1.591 -1.472,3.068 -1.973,4.674 -0.517,1.659 -1.39,3.023 -2.538,4.271 -1.323,1.438 -2.743,2.807 -3.911,4.364 -2.448,3.264 -4.357,6.834 -5.508,10.779 -0.302,1.035 -0.516,2.144 -1.052,3.053 -2.535,4.294 -4.598,8.729 -5.422,13.722 -0.373,2.257 -0.203,4.308 0.83,6.283 0.595,1.137 0.601,2.18 -0.013,3.273 -0.257,0.457 -0.794,1.075 -0.659,1.379 0.624,1.409 -0.587,2.291 -0.8,3.436 -0.101,0.542 -0.218,1.081 -0.303,1.496 0.884,-0.442 1.713,-0.838 2.523,-1.271 0.392,-0.209 0.89,-0.401 1.099,-0.746 1.663,-2.752 2.18,-4.359 -0.016,-7.189 -0.786,-1.014 -1.111,-2.107 -1.178,-3.362 -0.106,-2.015 0.287,-3.947 0.914,-5.827 0.413,-1.239 1.001,-2.423 1.562,-3.608 0.1,-0.211 0.451,-0.303 0.686,-0.45 0.084,0.232 0.227,0.46 0.241,0.696 0.086,1.42 0.118,2.843 0.22,4.262 0.054,0.75 0.17,1.501 0.329,2.236 0.581,2.697 1.226,5.385 0.505,8.13 1.727,0.785 -0.098,1.717 0.216,2.536 1.064,0.22 1.082,0.282 0.603,1.257 -0.536,1.09 -1.109,2.17 -1.531,3.304 -0.293,0.787 -0.758,1.672 0.09,2.474 0.092,0.087 0.098,0.385 0.022,0.514 -1.117,1.898 1.206,3.182 0.872,4.933 -0.003,0.018 0.041,0.053 0.069,0.068 0.951,0.528 0.662,1.654 1.165,2.427 0.543,0.833 1.061,1.771 0.698,2.888 -0.042,0.127 0.269,0.352 0.383,0.55 0.207,0.362 0.458,0.719 0.57,1.113 0.693,2.429 0.696,4.805 -0.58,7.087 -0.366,0.656 -0.614,1.377 -0.929,2.062 -0.662,1.441 -0.634,2.859 0.129,4.252 0.443,0.808 0.939,1.588 1.342,2.415 0.22,0.454 0.431,0.984 0.412,1.471 -0.118,2.967 0.468,5.855 1.113,8.702 0.495,2.182 0.528,4.266 -0.022,6.398 -0.425,1.647 0.057,2.584 1.734,2.904 3.115,0.594 6.257,1.302 9.356,-0.053 0.173,-1.781 -0.004,-2.197 -1.431,-3.055 -2.385,-1.435 -4.357,-3.278 -5.304,-5.935 -0.633,-1.775 -1.074,-3.639 -1.395,-5.498 -0.233,-1.355 -0.397,-2.824 -0.119,-4.143 0.566,-2.684 0.768,-5.291 0.01,-7.964 -0.186,-0.655 -0.023,-1.431 0.068,-2.139 0.179,-1.392 1.271,-2.14 2.145,-3.09 1.266,-1.378 2.305,-2.964 3.466,-4.442 0.155,-0.198 0.492,-0.426 0.68,-0.379 0.205,0.051 0.448,0.391 0.479,0.63 0.177,1.407 0.417,2.822 0.406,4.233 -0.014,1.879 -0.246,3.756 -0.368,5.635 -0.163,2.509 0.391,4.917 1.209,7.252 0.816,2.327 1.365,4.649 1.218,7.151 -0.133,2.257 10e-4,4.529 -0.047,6.793 -0.017,0.796 0.364,1.385 0.97,1.59 2.828,0.957 5.638,2.272 8.736,1.053 0.506,-0.199 1.003,-0.544 1.518,-0.57 0.905,-0.046 0.952,-0.578 0.689,-1.125 -0.208,-0.434 -0.64,-0.878 -1.08,-1.065 -3.102,-1.313 -5.195,-3.681 -6.555,-6.618 -0.727,-1.571 -0.94,-3.395 -1.281,-5.125 -0.455,-2.308 -0.472,-4.579 0.235,-6.906 0.394,-1.295 0.523,-2.908 0.109,-4.159 -0.73,-2.205 -0.567,-4.139 0.691,-5.973 0.801,-1.168 1.826,-2.181 2.724,-3.285 1.582,-1.945 3.228,-3.875 3.798,-6.397 0.262,-1.157 0.743,-2.117 1.655,-2.833 1.228,-0.964 1.958,-2.17 2.209,-3.724 0.169,-1.048 0.399,-1.109 1.364,-0.674 0.518,-0.513 1.068,-0.999 1.545,-1.548 0.511,-0.588 0.919,-0.758 1.505,-0.057 0.982,1.176 2.227,1.84 3.827,1.713 0.233,-0.019 0.633,0.167 0.706,0.356 0.306,0.788 0.912,0.828 1.608,0.841 0.685,0.013 1.572,-0.126 2.013,0.237 1.152,0.948 2.536,0.823 3.812,1.099 0.755,0.163 0.85,0.479 0.785,1.062 -0.031,0.283 -0.121,0.56 -0.166,0.762 0.789,0.121 1.229,0.376 0.991,1.225 -0.194,0.691 -0.417,1.384 -0.501,2.092 -0.049,0.415 0.12,0.868 0.242,1.288 0.112,0.384 0.307,0.742 0.441,1.12 0.333,0.941 0.613,1.903 0.993,2.823 0.239,0.578 0.497,1.351 0.969,1.582 0.687,0.337 0.774,0.767 0.855,1.376 0.054,0.404 0.17,1.055 0.411,1.135 0.876,0.291 0.95,1.109 1.367,1.698 0.259,0.365 0.494,0.864 0.858,1.014 0.619,0.255 0.726,0.631 0.759,1.216 0.077,1.347 0.079,2.725 0.38,4.028 1.096,4.744 1.126,9.473 0.219,14.246 -0.374,1.967 -0.664,3.965 -0.773,5.961 -0.074,1.348 -0.209,2.6 -0.864,3.808 -0.379,0.7 -0.354,1.462 0.386,2.038 1.828,1.424 3.735,2.621 6.205,2.348 1.321,-0.146 2.653,-0.224 3.961,-0.448 0.48,-0.082 0.962,-0.429 1.339,-0.77 0.475,-0.43 0.45,-0.926 -0.134,-1.32 -0.519,-0.35 -1.051,-0.69 -1.53,-1.089 -0.933,-0.777 -1.858,-1.568 -2.743,-2.4 -1.361,-1.28 -1.598,-2.981 -1.624,-4.724 -0.038,-2.597 0.114,-5.207 -0.094,-7.788 -0.16,-1.979 0.253,-3.686 1.273,-5.322 0.417,-0.668 0.861,-1.334 1.163,-2.055 0.763,-1.823 1.332,-3.718 1.005,-5.718 -0.264,-1.611 0.697,-2.957 0.798,-4.478 0.012,-0.191 0.235,-0.391 0.399,-0.546 0.903,-0.853 1.829,-1.682 2.723,-2.544 0.35,-0.338 0.64,-0.738 0.957,-1.111 0.25,0.466 0.525,0.92 0.746,1.4 1.094,2.369 1.552,4.862 1.61,7.47 0.034,1.501 0.275,3.005 0.528,4.491 0.252,1.484 0.858,2.937 0.919,4.419 0.204,4.912 0.275,9.832 0.297,14.749 0.006,1.26 -0.39,2.518 -0.54,3.784 -0.067,0.563 -0.599,1.206 0.187,1.701 1.121,0.707 2.258,1.346 3.649,1.29 1.821,-0.073 3.641,-0.171 5.463,-0.187 1.087,-0.009 2.176,0.105 3.261,0.19 0.804,0.063 0.918,-0.383 0.74,-0.994 -0.089,-0.305 -0.245,-0.66 -0.485,-0.838 -0.941,-0.696 -1.873,-1.438 -2.911,-1.959 -1.234,-0.619 -2.356,-1.352 -2.663,-2.718 -0.347,-1.541 -1.306,-2.612 -2.218,-3.785 -0.449,-0.578 -0.791,-1.394 -0.82,-2.117 -0.098,-2.494 -0.052,-4.995 -0.029,-7.493 0.006,-0.659 0.023,-1.347 0.208,-1.97 0.896,-3.02 1.146,-6.125 1.412,-9.241 0.165,-1.935 0.501,-3.883 2.315,-5.119 0.159,-0.109 0.388,-0.287 0.388,-0.433 0.004,-1.578 1.315,-2.072 2.273,-2.895 0.44,-0.378 0.803,-0.968 0.959,-1.529 0.359,-1.285 0.436,-2.659 0.882,-3.905 0.351,-0.982 1.017,-1.879 1.67,-2.714 0.335,-0.428 1.008,-0.576 1.42,-0.965 0.467,-0.441 0.781,-0.211 1.076,0.109 0.186,0.201 0.259,0.506 0.39,0.778 1.069,-0.775 2.392,0.503 3.368,-0.545 0.025,-0.027 0.218,0.128 0.342,0.163 0.156,0.045 0.39,0.137 0.472,0.068 1.129,-0.95 2.235,-1.928 3.352,-2.892 0.312,-0.27 0.659,-0.501 0.96,-0.781 0.505,-0.471 1.107,-0.897 1.441,-1.474 0.283,-0.489 0.459,-0.859 1.084,-0.974 0.291,-0.053 0.543,-0.476 0.751,-0.775 0.183,-0.262 0.24,-0.611 0.42,-0.875 1.467,-2.148 3.428,-3.879 4.656,-6.284 0.76,-1.49 1.343,-2.959 1.694,-4.539 0.145,-0.651 0.259,-1.125 0.896,-1.134 0.147,-0.692 0.126,-1.39 0.433,-1.885 0.972,-1.57 0.855,-3.528 1.899,-5.06 0.156,-0.228 0.144,-0.572 0.202,-0.864 0.302,-1.514 0.984,-2.995 0.407,-4.588 -0.01,-0.029 -0.011,-0.076 0.005,-0.098 0.873,-1.148 0.402,-2.363 0.191,-3.57 -0.09,-0.516 -0.177,-1.039 -0.194,-1.561 -0.031,-0.923 -0.008,-1.848 -0.009,-2.773 -10e-4,-0.896 -0.525,-1.683 0.123,-2.724 0.545,-0.876 0.321,-2.215 0.502,-3.338 0.138,-0.855 0.354,-1.7 0.591,-2.534 0.057,-0.201 0.329,-0.342 0.501,-0.51 0.143,0.19 0.287,0.38 0.339,0.449 0.187,-0.377 0.403,-0.813 0.619,-1.249 0.228,0.224 0.455,0.448 0.673,0.662 1.039,-0.371 1.372,-1.288 1.658,-2.262 0.127,-0.432 0.288,-0.89 0.566,-1.228 0.174,-0.212 0.594,-0.223 1.099,-0.388 1.121,-2.219 1.121,-2.221 3.65,-1.982 0.194,0.018 0.387,0.133 0.576,0.121 1.105,-0.071 2.476,0.21 3.248,-0.342 1.134,-0.81 1.858,-2.207 2.708,-3.389 0.13,-0.181 0.105,-0.619 -0.027,-0.82 -0.536,-0.812 -1.124,-1.6 -1.734,-2.367 z"
       inkscape:connector-curvature="0"
       style="fill:#d45500" />
  </g>
  <g
     id="g3856"
     transform="matrix(0.99999362,-0.00357074,0.00357074,0.99999362,0.92675539,-0.05531292)">
    <rect
       transform="matrix(0.93267969,-0.36070568,0.36070568,0.93267969,0,0)"
       ry="1.875"
       y="60.704613"
       x="67.093674"
       height="6.21875"
       width="3.75"
       id="rect3854"
       style="fill:#ac9393;fill-rule:evenodd;stroke:none" />
    <path
       transform="matrix(1.5701754,0,0,1.5701754,-46.825498,-21.345052)"
       d="m 90.156113,38.904545 a 3.3587573,3.1819806 0 0 1 -3.358757,3.18198 3.3587573,3.1819806 0 0 1 -3.358758,-3.18198 3.3587573,3.1819806 0 0 1 3.358758,-3.181981 3.3587573,3.1819806 0 0 1 3.358757,3.181981 z"
       sodipodi:ry="3.1819806"
       sodipodi:rx="3.3587573"
       sodipodi:cy="38.904545"
       sodipodi:cx="86.797356"
       id="path3066-5"
       style="fill:#916f6f;fill-opacity:1;fill-rule:evenodd;stroke:none"
       sodipodi:type="arc" />
    <path
       transform="matrix(0.85645933,0,0,0.85645933,15.128012,6.3279977)"
       d="m 90.156113,38.904545 a 3.3587573,3.1819806 0 0 1 -3.358757,3.18198 3.3587573,3.1819806 0 0 1 -3.358758,-3.18198 3.3587573,3.1819806 0 0 1 3.358758,-3.181981 3.3587573,3.1819806 0 0 1 3.358757,3.181981 z"
       sodipodi:ry="3.1819806"
       sodipodi:rx="3.3587573"
       sodipodi:cy="38.904545"
       sodipodi:cx="86.797356"
       id="path3066"
       style="fill:#cccccc;fill-opacity:1;fill-rule:evenodd;stroke:none"
       sodipodi:type="arc" />
  </g>
  <g
     id="g6"
     transform="matrix(0.00795751,-0.00362603,0.00362603,0.00795751,87.737744,38.383767)">
    <path
       id="path8"
       style="fill:none;stroke:#3078a9;stroke-width:8.66329956;stroke-miterlimit:2.61310005"
       d="m 112.422,380.608 c 23.165,49.447 82.831,87.39 134.347,24.313 46.731,53.534 99.621,32.188 125.877,-7.365 14.136,-21.302 -37.518,19.456 -33.618,-62.232 0.073,-1.632 55.579,-14.42 55.512,-16.066 -1.274,-32.077 -14.121,-65.95 -41.643,-97.216 -36.75,-41.751 -118.749,-65.244 -182.827,-25.403 -54.062,33.609 -70.541,78.375 -69.584,124.459 0.224,10.86 -32.956,38.505 -31.055,49.386 1.563,8.973 38.894,1.367 42.991,10.124 l 0,0 z"
       inkscape:connector-curvature="0" />
    <polygon
       id="polygon10"
       style="fill:#3078a9;fill-rule:evenodd"
       points="218.814,348.264 218.808,309.73 190.266,309.715 190.266,309.715 190.261,407.201 218.829,407.189 218.814,370.29 234.746,370.29 280.267,407.195 321.318,407.189 260.052,360.062 316.305,309.73 277.683,309.736 234.693,348.264 " />
    <path
       id="path12"
       style="fill:#3078a9;fill-rule:evenodd"
       d="m 326.316,333.05 c 1.77,-10.688 13.723,-22.931 26.871,-22.931 0,0 19.418,-0.41 34.907,-0.41 15.486,0 34.963,0.346 34.963,0.346 27.598,1.037 27.48,20.613 27.48,31.828 l -27.735,-0.012 c 0,-3.586 -1.849,-10.184 -13.834,-10.184 l -36.357,0 c -11.968,0 -18.19,4.896 -18.19,16.547 l -0.009,20.537 c 0,11.842 6.179,16.418 18.208,16.418 l 35.42,-0.018 c 10.729,0 15.442,-6.237 15.442,-14.927 l -38.071,-0.009 0,-16.459 65.921,-0.009 c 0.39,6.146 -0.457,33.149 -0.457,33.149 0,10.503 -12.545,19.986 -31.62,19.986 0,0 -23.376,0.305 -40.075,0.305 -16.699,0 -25.995,-0.987 -25.995,-0.987 -16.122,0 -25.099,-12.091 -26.851,-23.815 0,0 -1.38,-6.727 -1.38,-24.759 0,-18.033 1.362,-24.596 1.362,-24.596 l 0,0 z"
       inkscape:connector-curvature="0" />
    <path
       id="path14"
       style="fill:none;stroke:#3078a9;stroke-width:8.66329956;stroke-miterlimit:2.61310005"
       d="M 70.768,108.211 C 0.775,122.444 -6.1,175.043 14.521,217.747 34.909,259.952 99.946,307.779 178.887,291.388 233.633,280.024 294.766,220.226 292.267,145.343 289.657,67.29 229.501,19.143 170.14,6.724 125.766,-2.56 35.774,21.575 70.768,108.211 m 348.141,-1.447 C 446.999,30.856 380.75,-1.324 330.426,5.139 c -66.873,8.59 -123.864,54.926 -131.757,132.938 -5.578,55.11 33.545,130.875 106.395,151.107 75.935,21.094 141.076,-19.307 170.947,-71.596 22.33,-39.09 10.987,-102.568 -57.102,-110.824 l 0,0 z"
       inkscape:connector-curvature="0" />
    <path
       id="path16"
       style="fill:#3078a9;fill-rule:evenodd"
       d="m 81.563,370.199 21.111,-35.452 20.752,35.44 -41.863,0.012 0,0 0,0 z m 39.73,-60.469 -37.255,-0.015 -54.836,97.494 31.771,0 9.586,-17.259 64.233,0 9.678,17.259 31.526,0.009 -54.703,-97.488 0,0 z"
       inkscape:connector-curvature="0" />
    <path
       id="path18"
       style="fill:#3078a9"
       d="m 445.132,303.22 c 0,-2.906 1.192,-5.54 3.12,-7.447 1.925,-1.907 4.585,-3.085 7.521,-3.085 2.936,0 5.599,1.178 7.523,3.085 1.928,1.907 3.12,4.538 3.12,7.447 0,2.909 -1.189,5.543 -3.117,7.45 -1.925,1.907 -4.588,3.088 -7.526,3.088 -2.936,0 -5.596,-1.181 -7.523,-3.088 -1.925,-1.907 -3.118,-4.541 -3.118,-7.45 l 0,0 z m 4.459,-6.114 c -1.576,1.564 -2.552,3.724 -2.552,6.114 0,2.388 0.976,4.55 2.558,6.117 1.582,1.564 3.765,2.531 6.176,2.531 2.414,0 4.597,-0.967 6.179,-2.534 1.582,-1.564 2.561,-3.727 2.561,-6.114 0,-2.394 -0.979,-4.55 -2.555,-6.114 -1.582,-1.564 -3.768,-2.531 -6.185,-2.531 -2.411,0 -4.6,0.967 -6.182,2.531 l 0,0 z"
       inkscape:connector-curvature="0" />
    <path
       id="path20"
       style="fill:#3078a9;fill-rule:evenodd"
       d="m 454.059,302.508 1.482,0 c 0.557,0 1.16,0.053 1.646,-0.231 0.439,-0.267 0.68,-0.797 0.68,-1.298 0,-0.454 -0.275,-0.935 -0.662,-1.166 -0.454,-0.287 -1.228,-0.217 -1.734,-0.217 l -1.412,0 0,2.912 0,0 0,0 z m 0,6.484 -2.692,0 0,-11.432 4.863,0 c 1.028,0 2.071,0.015 2.962,0.583 0.94,0.615 1.465,1.734 1.465,2.848 0,1.301 -0.756,2.505 -2.004,2.953 l 2.136,5.048 -2.994,0 -1.77,-4.518 -1.966,0 0,4.518 0,0 z"
       inkscape:connector-curvature="0" />
  </g>
</svg>
