<svg xmlns="http://www.w3.org/2000/svg" xmlns:xlink="http://www.w3.org/1999/xlink" width="384pt" height="384pt" version="1.1" viewBox="0 0 384 384"> <defs> <filter id="alpha" width="100%" height="100%" x="0%" y="0%" filterUnits="objectBoundingBox"> <feColorMatrix in="SourceGraphic" type="matrix" values="0 0 0 0 1 0 0 0 0 1 0 0 0 0 1 0 0 0 1 0"/> </filter> <mask id="mask0"> <g filter="url(#alpha)"> <rect width="384" height="384" x="0" y="0" style="fill:rgb(0%,0%,0%);fill-opacity:0.2"/> </g> </mask> <clipPath id="clip1"> <rect width="384" height="384" x="0" y="0"/> </clipPath> <g id="surface5" clip-path="url(#clip1)"> <path style="fill:rgb(0%,0%,0%)" d="M 192 54 C 102.253906 54 30 125.953125 30 215.332031 C 30 266.972656 54.332031 312.515625 92.015625 342 L 291.984375 342 C 329.667969 312.515625 354 266.972656 354 215.332031 C 354 125.953125 281.746094 54 192 54 Z M 192 54"/> </g> <mask id="mask1"> <g filter="url(#alpha)"> <rect width="384" height="384" x="0" y="0" style="fill:rgb(0%,0%,0%);fill-opacity:0.2"/> </g> </mask> <clipPath id="clip2"> <rect width="384" height="384" x="0" y="0"/> </clipPath> <g id="surface8" clip-path="url(#clip2)"> <path style="fill:rgb(0%,0%,0%)" d="M 192 138.003906 C 147.214844 138.003906 107.917969 161.398438 85.574219 196.605469 C 82.316406 200.867188 79.441406 205.3125 77.355469 210.074219 C 74.074219 217.554688 71.636719 225.300781 69.792969 233.664062 C 68.5625 238.628906 67.523438 243.664062 66.90625 248.839844 C 66.851562 249.300781 66.992188 249.398438 67.214844 249.332031 C 66.980469 251.328125 66.679688 253.21875 66.496094 255.304688 C 65.902344 262 65.847656 264.738281 66.296875 264.738281 L 138 180 L 125.375 250.8125 C 125.484375 250.921875 127.859375 249.949219 130.660156 248.664062 C 147.847656 240.746094 163.335938 237.226562 182.273438 234.96875 C 188.804688 234.1875 211.457031 234.089844 218.265625 234.804688 C 232.058594 236.25 244.648438 239.414062 260.136719 243.675781 C 266.996094 245.5625 270.363281 246.011719 275.984375 245.808594 C 281.609375 245.605469 284.921875 244.851562 289.074219 242.855469 C 299.441406 237.871094 304.878906 221.640625 303.367188 209.960938 C 303.222656 208.859375 302.933594 207.8125 302.710938 206.742188 C 303.152344 205.644531 302.726562 203.789062 300.96875 200.722656 C 299.246094 196.136719 296.703125 191.542969 292.867188 186.351562 C 266.894531 157.808594 232.96875 137.449219 192 138.003906 Z M 192 138.003906"/> </g> <mask id="mask2"> <g filter="url(#alpha)"> <rect width="384" height="384" x="0" y="0" style="fill:rgb(0%,0%,0%);fill-opacity:0.2"/> </g> </mask> <clipPath id="clip3"> <rect width="384" height="384" x="0" y="0"/> </clipPath> <g id="surface11" clip-path="url(#clip3)"> <path style="fill:rgb(0%,0%,0%)" d="M 166.050781 66.003906 C 165.496094 66.003906 161.878906 72.117188 158.4375 78.867188 C 153.398438 88.75 151 96.355469 150.175781 105.132812 C 149.972656 107.300781 150.003906 109.425781 150.140625 111.519531 C 150.054688 112.464844 150.007812 113.410156 150 114.359375 C 150 134.046875 166.117188 150.003906 186 150.003906 C 205.882812 150.003906 222 134.046875 222 114.359375 C 222 113.453125 221.964844 112.546875 221.894531 111.644531 C 221.925781 110.738281 222.011719 109.832031 221.964844 108.945312 C 221.328125 96.738281 214.203125 88.371094 203.4375 82.863281 C 197.738281 79.949219 189.019531 78.578125 183.328125 78.570312 C 176.230469 78.554688 170.835938 72.441406 167.367188 67.449219 C 166.8125 66.652344 166.214844 66.003906 166.050781 66.003906 Z M 166.050781 66.003906"/> </g> <mask id="mask3"> <g filter="url(#alpha)"> <rect width="384" height="384" x="0" y="0" style="fill:rgb(0%,0%,0%);fill-opacity:0.2"/> </g> </mask> <clipPath id="clip4"> <rect width="384" height="384" x="0" y="0"/> </clipPath> <g id="surface14" clip-path="url(#clip4)"> <path style="fill:rgb(100.000%,100.000%,100.000%)" d="M 192 48 C 102.253906 48 30 119.941406 30 209.320312 C 30 209.929688 30.066406 210.523438 30.105469 211.125 C 32.332031 123.707031 103.664062 54 192 54 C 280.335938 54 351.667969 123.707031 353.894531 211.125 C 353.933594 210.523438 354 209.929688 354 209.320312 C 354 119.941406 281.746094 48 192 48 Z M 192 48"/> </g> </defs> <g> <use mask="url(#mask0)" xlink:href="#surface5"/> <path style="fill:rgb(23.137%,54.509%,72.156%)" d="M 192 48 C 102.253906 48 30 119.953125 30 209.332031 C 30 260.972656 54.332031 306.515625 92.015625 336 L 291.984375 336 C 329.667969 306.515625 354 260.972656 354 209.332031 C 354 119.953125 281.746094 48 192 48 Z M 192 48"/> <path style="fill:rgb(90.196%,90.196%,90.196%)" d="M 192 132 C 122.410156 132 66 188.410156 66 258 C 66.101562 286.339844 75.753906 313.820312 93.398438 336 L 290.625 336 C 308.261719 313.816406 317.90625 286.339844 318 258 C 318 188.410156 261.589844 132 192 132 Z M 192 132"/> <use mask="url(#mask1)" xlink:href="#surface8"/> <path style="fill:rgb(100.000%,78.039%,18.823%)" d="M 192 132.003906 C 147.214844 132.003906 107.917969 155.398438 85.574219 190.605469 C 82.316406 194.867188 79.441406 199.3125 77.355469 204.074219 C 74.074219 211.554688 71.636719 219.300781 69.792969 227.664062 C 68.5625 232.628906 67.523438 237.664062 66.90625 242.839844 C 66.851562 243.300781 66.992188 243.398438 67.214844 243.332031 C 66.980469 245.328125 66.679688 247.21875 66.496094 249.304688 C 65.902344 256 65.847656 258.738281 66.296875 258.738281 L 138 174 L 125.375 244.8125 C 125.484375 244.921875 127.859375 243.949219 130.660156 242.664062 C 147.847656 234.746094 163.335938 231.226562 182.273438 228.96875 C 188.804688 228.1875 211.457031 228.089844 218.265625 228.804688 C 232.058594 230.25 244.648438 233.414062 260.136719 237.675781 C 266.996094 239.5625 270.363281 240.011719 275.984375 239.808594 C 281.609375 239.605469 284.921875 238.851562 289.074219 236.855469 C 299.441406 231.871094 304.878906 215.640625 303.367188 203.960938 C 303.222656 202.859375 302.933594 201.8125 302.710938 200.742188 C 303.152344 199.644531 302.726562 197.789062 300.96875 194.722656 C 299.246094 190.136719 296.703125 185.542969 292.867188 180.351562 C 266.894531 151.808594 232.96875 131.449219 192 132.003906 Z M 192 132.003906"/> <path style="fill:rgb(6.666%,17.647%,36.078%)" d="M 156 270 C 156 279.941406 147.941406 288 138 288 C 128.058594 288 120 279.941406 120 270 C 120 260.058594 128.058594 252 138 252 C 147.941406 252 156 260.058594 156 270 Z M 156 270"/> <path style="fill:rgb(6.666%,17.647%,36.078%)" d="M 270 270 C 270 279.941406 261.941406 288 252 288 C 242.058594 288 234 279.941406 234 270 C 234 260.058594 242.058594 252 252 252 C 261.941406 252 270 260.058594 270 270 Z M 270 270"/> <use mask="url(#mask2)" xlink:href="#surface11"/> <path style="fill:rgb(100.000%,78.039%,18.823%)" d="M 166.050781 60 C 165.496094 60 161.878906 66.113281 158.4375 72.863281 C 153.398438 82.746094 151 90.347656 150.175781 99.128906 C 149.972656 101.296875 150.003906 103.421875 150.140625 105.515625 C 150.054688 106.460938 150.007812 107.40625 150 108.351562 C 150 128.039062 166.117188 144 186 144 C 205.882812 144 222 128.039062 222 108.351562 C 222 107.445312 221.964844 106.542969 221.894531 105.636719 C 221.925781 104.734375 222.011719 103.828125 221.964844 102.941406 C 221.328125 90.734375 214.203125 82.367188 203.4375 76.859375 C 197.738281 73.945312 189.019531 72.574219 183.328125 72.5625 C 176.230469 72.550781 170.835938 66.4375 167.367188 61.445312 C 166.8125 60.644531 166.214844 60 166.050781 60 Z M 166.050781 60"/> <use mask="url(#mask3)" xlink:href="#surface14"/> </g> </svg>
