<svg xmlns="http://www.w3.org/2000/svg" xmlns:xlink="http://www.w3.org/1999/xlink" width="384pt" height="384pt" version="1.1" viewBox="0 0 384 384"> <defs> <filter id="alpha" width="100%" height="100%" x="0%" y="0%" filterUnits="objectBoundingBox"> <feColorMatrix in="SourceGraphic" type="matrix" values="0 0 0 0 1 0 0 0 0 1 0 0 0 0 1 0 0 0 1 0"/> </filter> <mask id="mask0"> <g filter="url(#alpha)"> <rect style="fill:rgb(0%,0%,0%);fill-opacity:0.2" width="384" height="384" x="0" y="0"/> </g> </mask> <clipPath id="clip1"> <rect width="384" height="384" x="0" y="0"/> </clipPath> <g id="surface5" clip-path="url(#clip1)"> <path d="M 24 312 L 24 324 C 24 333.972656 32.027344 342 42 342 L 342 342 C 351.972656 342 360 333.972656 360 324 L 360 312 C 360 321.972656 351.972656 330 342 330 L 42 330 C 32.027344 330 24 321.972656 24 312 Z M 24 312" style="fill:rgb(0%,0%,0%)"/> </g> <mask id="mask1"> <g filter="url(#alpha)"> <rect style="fill:rgb(0%,0%,0%);fill-opacity:0.101961" width="384" height="384" x="0" y="0"/> </g> </mask> <clipPath id="clip2"> <rect width="384" height="384" x="0" y="0"/> </clipPath> <g id="surface8" clip-path="url(#clip2)"> <path d="M 42 48 C 32.027344 48 24 56.027344 24 66 L 24 72 C 24 62.027344 32.027344 54 42 54 L 342 54 C 351.972656 54 360 62.027344 360 72 L 360 66 C 360 56.027344 351.972656 48 342 48 Z M 42 48" style="fill:rgb(100.000%,100.000%,100.000%)"/> </g> <mask id="mask2"> <g filter="url(#alpha)"> <rect style="fill:rgb(0%,0%,0%);fill-opacity:0.2" width="384" height="384" x="0" y="0"/> </g> </mask> <clipPath id="clip3"> <rect width="384" height="384" x="0" y="0"/> </clipPath> <g id="surface11" clip-path="url(#clip3)"> <path d="M 264 114 C 290.507812 114 312 135.492188 312 162 C 312 188.507812 290.507812 210 264 210 C 237.492188 210 216 188.507812 216 162 C 216 135.492188 237.492188 114 264 114 Z M 264 114" style="fill-rule:evenodd;fill:rgb(0%,0%,0%)"/> </g> <mask id="mask3"> <g filter="url(#alpha)"> <rect style="fill:rgb(0%,0%,0%);fill-opacity:0.101961" width="384" height="384" x="0" y="0"/> </g> </mask> <clipPath id="clip4"> <rect width="384" height="384" x="0" y="0"/> </clipPath> <g id="surface14" clip-path="url(#clip4)"> <path d="M 42 336 C 32.027344 336 24 327.972656 24 318 L 24 306 C 24 315.972656 32.027344 324 42 324 L 342 324 C 351.972656 324 360 315.972656 360 306 L 360 318 C 360 327.972656 351.972656 336 342 336 Z M 42 336" style="fill:rgb(0%,0%,0%)"/> </g> </defs> <g> <use mask="url(#mask0)" xlink:href="#surface5"/> <path d="M 56 64 C 42.703125 64 32 74.703125 32 88 L 32 128 L 32 352 L 480 352 L 480 128 L 480 88 C 480 74.703125 469.29687 64 456 64 L 56 64 z M 473.50586 424 C 469.45898 428.04687 463.71419 430.47852 457.50586 430.49414 L 56 432 L 456 432 C 463.04167 432 469.12044 428.80208 473.50586 424 z" transform="scale(0.75)" style="fill:rgb(100.000%,100.000%,100.000%)"/> <use mask="url(#mask1)" xlink:href="#surface8"/> <use mask="url(#mask2)" xlink:href="#surface11"/> <path d="M 264 108 C 290.507812 108 312 129.492188 312 156 C 312 182.507812 290.507812 204 264 204 C 237.492188 204 216 182.507812 216 156 C 216 129.492188 237.492188 108 264 108 Z M 264 108" style="fill-rule:evenodd;fill:rgb(100.000%,78.039%,18.823%)"/> <path d="M 24 264 L 24 288 L 360 288 L 360 264 Z M 24 264" style="fill:rgb(29.019%,68.235%,90.196%)"/> <path d="M 24 264 L 24 254.398438 C 24 254.398438 48.230469 238.402344 55.042969 237.003906 C 61.855469 235.609375 69.898438 236.746094 78.167969 238.304688 C 86.433594 239.859375 98.777344 241.964844 102.628906 242.09375 C 106.484375 242.230469 113.453125 241.757812 121.554688 241.269531 C 129.652344 240.789062 143.066406 240.347656 147.25 240.394531 C 151.433594 240.394531 161.875 240.972656 173.007812 241.652344 C 184.136719 242.332031 199.429688 243.472656 202.898438 243.789062 C 206.367188 244.109375 210.445312 244.691406 215.074219 245.332031 C 219.699219 245.964844 227.710938 246.921875 230.546875 247.1875 C 233.378906 247.445312 239.949219 248.347656 247.574219 249.050781 C 255.195312 249.75 267.398438 249.992188 270.921875 249.730469 C 274.445312 249.472656 281.828125 246.863281 290.058594 244.457031 C 298.289062 242.054688 307.363281 239.851562 314.265625 240.398438 C 321.15625 240.949219 359.988281 254.402344 359.988281 254.402344 L 359.988281 264 Z M 24 264" style="fill:rgb(29.803%,29.803%,29.803%)"/> <use mask="url(#mask3)" xlink:href="#surface14"/> <path d="M 42 336 C 32.027344 336 24 327.972656 24 318 L 24 288 L 360 288 L 360 318 C 360 327.972656 351.972656 336 342 336 Z M 42 336" style="fill:rgb(29.803%,29.803%,29.803%)"/> </g> </svg>
