<svg xmlns="http://www.w3.org/2000/svg" xmlns:xlink="http://www.w3.org/1999/xlink" width="384pt" height="384pt" version="1.1" viewBox="0 0 384 384"> <defs> <filter id="alpha" width="100%" height="100%" x="0%" y="0%" filterUnits="objectBoundingBox"> <feColorMatrix in="SourceGraphic" type="matrix" values="0 0 0 0 1 0 0 0 0 1 0 0 0 0 1 0 0 0 1 0"/> </filter> <mask id="mask0"> <g filter="url(#alpha)"> <rect width="384" height="384" x="0" y="0" style="fill:rgb(0%,0%,0%);fill-opacity:0.2"/> </g> </mask> <clipPath id="clip1"> <rect width="384" height="384" x="0" y="0"/> </clipPath> <g id="surface5" clip-path="url(#clip1)"> <path style="fill:rgb(0%,0%,0%)" d="M 149.105469 34.25 C 141.488281 35.988281 134.074219 38.238281 126.914062 41.089844 C 111.257812 56.394531 101.46875 78.035156 101.46875 102.058594 C 101.46875 103.742188 101.671875 105.375 101.796875 107.027344 C 103.945312 80.257812 118.21875 57.050781 138.957031 43.316406 C 142.042969 39.988281 145.4375 36.960938 149.109375 34.25 Z M 120.351562 99.507812 C 120.207031 101.539062 120.050781 103.5625 120.050781 105.667969 C 120.050781 152.039062 159.4375 178.253906 197.167969 189.652344 C 232.714844 200.390625 278.953125 233.179688 282.265625 277.050781 C 282.457031 274.738281 282.601562 272.398438 282.601562 270.023438 C 282.601562 223.640625 234.046875 188.800781 197.167969 177.65625 C 161.070312 166.75 123.527344 142.226562 120.351562 99.507812 Z M 24.351562 191.96875 C 24.285156 193.996094 24.070312 195.988281 24.070312 198.039062 C 24.070312 290.789062 95.128906 366 182.757812 366 C 202.640625 366 220.839844 360.253906 234.960938 349.828125 C 226.71875 351.710938 218.296875 353.078125 209.632812 353.558594 C 222.601562 352.191406 234.660156 347.679688 245.109375 340.757812 C 256.902344 328.015625 264.015625 310.898438 264.015625 290.40625 C 264.015625 288.414062 263.859375 286.496094 263.71875 284.574219 C 260.609375 327.332031 225.601562 354.003906 182.757812 354.003906 C 97.019531 354.003906 27.324219 281.960938 24.347656 191.96875 Z M 359.722656 192.113281 C 357.371094 261.371094 315.488281 319.785156 257.160156 342.988281 C 244.476562 355.382812 227.96875 363.636719 209.636719 365.554688 C 293.378906 360.949219 360 287.824219 360 198.039062 C 360 196.035156 359.785156 194.089844 359.722656 192.113281 Z M 359.722656 192.113281"/> </g> <mask id="mask1"> <g filter="url(#alpha)"> <rect width="384" height="384" x="0" y="0" style="fill:rgb(0%,0%,0%);fill-opacity:0.2"/> </g> </mask> <clipPath id="clip2"> <rect width="384" height="384" x="0" y="0"/> </clipPath> <g id="surface8" clip-path="url(#clip2)"> <path style="fill:rgb(0%,0%,0%)" d="M 168.035156 114.046875 C 168.035156 94.167969 184.152344 78.054688 204.03125 78.054688 C 223.910156 78.054688 240.023438 94.167969 240.023438 114.046875 C 240.023438 133.925781 223.910156 150.042969 204.03125 150.042969 C 184.152344 150.042969 168.035156 133.925781 168.035156 114.046875 Z M 168.035156 114.046875"/> </g> <mask id="mask2"> <g filter="url(#alpha)"> <rect width="384" height="384" x="0" y="0" style="fill:rgb(0%,0%,0%);fill-opacity:0.2"/> </g> </mask> <clipPath id="clip3"> <rect width="384" height="384" x="0" y="0"/> </clipPath> <g id="surface11" clip-path="url(#clip3)"> <path style="fill:rgb(0%,0%,0%)" d="M 216.03125 282.007812 C 216.03125 301.886719 199.914062 318 180.035156 318 C 160.15625 318 144.042969 301.886719 144.042969 282.007812 C 144.042969 262.128906 160.15625 246.011719 180.035156 246.011719 C 199.914062 246.011719 216.03125 262.128906 216.03125 282.007812 Z M 216.03125 282.007812"/> </g> <mask id="mask3"> <g filter="url(#alpha)"> <rect width="384" height="384" x="0" y="0" style="fill:rgb(0%,0%,0%);fill-opacity:0.2"/> </g> </mask> <clipPath id="clip4"> <rect width="384" height="384" x="0" y="0"/> </clipPath> <g id="surface14" clip-path="url(#clip4)"> <path style="fill:rgb(100.000%,100.000%,100.000%)" d="M 201.269531 24.082031 C 156.375 24.082031 120 53.289062 120 99.667969 C 120 100.652344 120.117188 101.574219 120.152344 102.539062 C 121.769531 58.003906 157.40625 30.082031 201.269531 30.082031 C 287.949219 30.082031 358.359375 103.675781 359.871094 195.046875 C 359.886719 194.042969 359.941406 193.054688 359.941406 192.046875 C 359.941406 99.292969 288.898438 24.082031 201.269531 24.082031 Z M 282.375 279.46875 C 280.613281 324.238281 245.03125 360 201.269531 360 C 215.601562 360 229.476562 357.957031 242.683594 354.1875 C 266.519531 339.546875 282.539062 312.753906 282.539062 282.023438 C 282.539062 281.160156 282.410156 280.324219 282.375 279.46875 Z M 282.375 279.46875"/> </g> <mask id="mask4"> <g filter="url(#alpha)"> <rect width="384" height="384" x="0" y="0" style="fill:rgb(0%,0%,0%);fill-opacity:0.2"/> </g> </mask> <clipPath id="clip5"> <rect width="384" height="384" x="0" y="0"/> </clipPath> <g id="surface17" clip-path="url(#clip5)"> <path style="fill:rgb(100.000%,100.000%,100.000%)" d="M 182.671875 24.082031 C 95.046875 24.082031 24 99.292969 24 192.046875 C 24 193.054688 24.054688 194.042969 24.070312 195.046875 C 25.332031 118.78125 74.601562 54.929688 141.269531 35.894531 C 153.40625 28.441406 167.53125 24.085938 182.671875 24.082031 Z M 101.578125 110.660156 C 101.535156 111.796875 101.414062 112.910156 101.414062 114.058594 C 101.414062 160.441406 149.941406 195.292969 186.820312 206.4375 C 223.746094 217.59375 262.183594 242.984375 263.800781 287.542969 C 263.839844 286.496094 263.953125 285.492188 263.953125 284.425781 C 263.953125 238.046875 224.546875 211.832031 186.820312 200.4375 C 150.640625 189.503906 103.367188 155.726562 101.578125 110.660156 Z M 101.578125 110.660156"/> </g> </defs> <g> <use mask="url(#mask0)" xlink:href="#surface5"/> <path style="fill:rgb(99.215%,28.627%,28.627%)" d="M 201.269531 360.003906 C 288.898438 360.003906 359.945312 284.792969 359.945312 192.042969 C 359.945312 99.285156 288.898438 24.078125 201.269531 24.078125 C 156.378906 24.078125 120 53.285156 120 99.664062 C 120 146.039062 159.398438 172.246094 197.125 183.644531 C 234.011719 194.785156 282.542969 229.644531 282.542969 276.023438 C 282.542969 322.398438 246.160156 360.003906 201.269531 360.003906 Z M 201.269531 360.003906"/> <use mask="url(#mask1)" xlink:href="#surface8"/> <path style="fill:rgb(100.000%,100.000%,100.000%)" d="M 168.035156 108.058594 C 168.035156 88.179688 184.152344 72.066406 204.03125 72.066406 C 223.910156 72.066406 240.023438 88.179688 240.023438 108.058594 C 240.023438 127.9375 223.910156 144.054688 204.03125 144.054688 C 184.152344 144.054688 168.035156 127.9375 168.035156 108.058594 Z M 168.035156 108.058594"/> <path style="fill:rgb(54.901%,25.882%,67.058%)" d="M 182.675781 24.078125 C 95.050781 24.078125 24 99.285156 24 192.042969 C 24 284.796875 95.046875 360.003906 182.675781 360.003906 C 227.5625 360.003906 263.949219 330.796875 263.949219 284.421875 C 263.949219 238.042969 224.546875 211.835938 186.820312 200.4375 C 149.941406 189.292969 101.410156 154.441406 101.410156 108.058594 C 101.410156 61.683594 137.796875 24.078125 182.683594 24.078125 Z M 182.675781 24.078125"/> <use mask="url(#mask2)" xlink:href="#surface11"/> <path style="fill:rgb(100.000%,100.000%,100.000%)" d="M 216.03125 276.023438 C 216.03125 295.902344 199.914062 312.019531 180.035156 312.019531 C 160.15625 312.019531 144.042969 295.902344 144.042969 276.023438 C 144.042969 256.144531 160.15625 240.03125 180.035156 240.03125 C 199.914062 240.03125 216.03125 256.144531 216.03125 276.023438 Z M 216.03125 276.023438"/> <use mask="url(#mask3)" xlink:href="#surface14"/> <use mask="url(#mask4)" xlink:href="#surface17"/> </g> </svg>
