<svg width="512" height="512" version="1.1" viewBox="0 0 384 384" xmlns="http://www.w3.org/2000/svg"><defs><clipPath id="e"><rect width="384" height="384"/></clipPath><linearGradient id="a" x1="23.586" x2="363" y1="348.33" y2="122.83" gradientUnits="userSpaceOnUse"><stop stop-color="#b8174c" offset="0"/><stop stop-color="#b8174c" offset=".17175"/><stop stop-color="#19a187" offset=".41571"/><stop stop-color="#19a187" offset=".62643"/><stop stop-color="#367bf0" offset=".81904"/><stop stop-color="#367bf0" offset="1"/></linearGradient></defs><path d="m36 84v236.4c0 8.6523 6.9531 15.602 15.602 15.602h280.81c8.6406 0 15.586-6.9492 15.586-15.602v-236.4z" fill="url(#a)"/><path d="m51.602 48c-8.6484 0-15.602 6.418-15.602 14.395v21.605h312v-21.605c0-7.9766-6.9453-14.395-15.598-14.395z"/><path d="m128.96 150.74v9.2031l12.23 0.9336 1.9805 2.7969-19.688 104.84-3.0273 2.9141-12.457 0.92187v9.5547h54.52v-9.5508l-12.113-0.81641-2.0977-3.0312 8.0391-43.918h12.348l17.707 37.277c7.2344 14.863 12.312 21.238 27.957 21.438 4.4961 0.0586 6.3086 0.38672 18.441 0 41.855-34.945 63.219-61.582 66.598-73.625 2.043-7.293-1.2031-11.766-8.1562-11.766-3.3945 0-7.2773 1.4258-11.648 4.3125l-3.1445 25.043c-8.5664 11.195-19.988 23.391-33.898 36.113l9.2031-48.113c1.9062-9.8359 2.5391-15.086-3.8476-17.125l-28.539 6.293-1.5117 5.3594 13.16 2.0977c0.91797 3.3906-0.0977 10.766-2.0977 22.133l-6.4062 35.297c-0.10156 0.36328-0.16406 0.76172-0.23046 1.1641-4.1562-2.2344-6.7734-6.207-9.7852-12.23l-25.047-50.09 45.781-46.363 15.609-1.5156v-9.5547h-48.926l4e-3 9.5547 12.109 0.92969 1.168 3.1484-49.043 50.555h-5.8242l9.6679-51.254 2.5625-2.7969 12.93-0.92968v-9.2031z" opacity=".3"/><g fill="#fff"><path d="m128.96 143.24v9.2031l12.23 0.9336 1.9805 2.7969-19.688 104.84-3.0273 2.9141-12.457 0.92187v9.5547h54.52v-9.5508l-12.113-0.81641-2.0977-3.0312 8.0391-43.918h12.348l17.707 37.277c7.2344 14.863 12.312 21.238 27.957 21.438 4.4961 0.0586 6.3086 0.38672 18.441 0 41.855-34.945 63.219-61.582 66.598-73.625 2.043-7.293-1.2031-11.766-8.1562-11.766-3.3945 0-7.2773 1.4258-11.648 4.3125l-3.1445 25.043c-8.5664 11.195-19.988 23.391-33.898 36.113l9.2031-48.113c1.9062-9.8359 2.5391-15.086-3.8476-17.125l-28.539 6.293-1.5117 5.3594 13.16 2.0977c0.91797 3.3906-0.0977 10.766-2.0977 22.133l-6.4062 35.297c-0.10156 0.36328-0.16406 0.76172-0.23046 1.1641-4.1562-2.2344-6.7734-6.207-9.7852-12.23l-25.047-50.09 45.781-46.363 15.609-1.5156v-9.5547h-48.926l4e-3 9.5547 12.109 0.92969 1.168 3.1484-49.043 50.555h-5.8242l9.6679-51.254 2.5625-2.7969 12.93-0.92968v-9.2031z"/><path transform="scale(.75)" d="m68.803 64c-11.531 0-20.803 8.5579-20.803 19.193v10c0-10.635 9.2715-19.193 20.803-19.193h374.4c11.536 0 20.797 8.5579 20.797 19.193v-10c0-10.635-9.2604-19.193-20.797-19.193h-374.4z" fill="#eee" opacity=".2" stroke-width="1.3333"/><path d="m51.602 336c-8.6484 0-15.602-6.4185-15.602-14.395v-7.5c0 7.9766 6.9536 14.395 15.602 14.395h280.8c8.6524 0 15.598-6.4185 15.598-14.395v7.5c0 7.9766-6.9453 14.395-15.598 14.395z" fill="#000" opacity=".3"/></g></svg>
