<svg xmlns="http://www.w3.org/2000/svg" xmlns:xlink="http://www.w3.org/1999/xlink" width="384pt" height="384pt" version="1.1" viewBox="0 0 384 384"> <defs> <filter id="alpha" width="100%" height="100%" x="0%" y="0%" filterUnits="objectBoundingBox"> <feColorMatrix in="SourceGraphic" type="matrix" values="0 0 0 0 1 0 0 0 0 1 0 0 0 0 1 0 0 0 1 0"/> </filter> <linearGradient id="linear0-0" x1="235.092" x2="720.481" y1="289.085" y2="-306.19" gradientTransform="matrix(0.75,0,0,0.75,-71.593604,-759.8644)" gradientUnits="userSpaceOnUse"> <stop offset="0" style="stop-color:rgb(29.803%,30.980%,36.078%)"/> <stop offset="1" style="stop-color:rgb(15.294%,16.470%,20.392%)"/> </linearGradient> <filter id="alpha-48" width="100%" height="100%" x="0%" y="0%" filterUnits="objectBoundingBox"> <feColorMatrix in="SourceGraphic" type="matrix" values="0 0 0 0 1 0 0 0 0 1 0 0 0 0 1 0 0 0 1 0"/> </filter> <mask id="mask0-71"> <g filter="url(#alpha)" style="filter:url(#alpha-48)"> <rect width="384" height="384" x="0" y="0" style="fill:rgb(0%,0%,0%);fill-opacity:0.301961"/> </g> </mask> <clipPath id="clip1-72"> <rect width="384" height="384" x="0" y="0"/> </clipPath> <g id="surface5-72" clip-path="url(#clip1-72)"> <path style="fill:rgb(0%,0%,0%)" d="M 91.535156 58.078125 C 91.226562 58.078125 90.917969 58.089844 90.609375 58.113281 L 90.257812 58.113281 L 90.222656 58.160156 C 83.605469 58.847656 78.570312 64.507812 78.5625 71.273438 C 78.570312 71.8125 78.605469 72.347656 78.675781 72.882812 L 78.605469 72.972656 L 78.683594 200.253906 L 78.757812 326.121094 C 78.695312 326.628906 78.664062 327.144531 78.660156 327.65625 C 78.664062 334.496094 83.804688 340.199219 90.503906 340.792969 L 90.515625 340.800781 L 90.675781 340.804688 C 90.996094 340.832031 91.3125 340.847656 91.632812 340.851562 C 91.960938 340.851562 92.285156 340.839844 92.609375 340.8125 L 191.5625 341.246094 L 289.148438 341.273438 C 289.695312 341.347656 290.246094 341.386719 290.796875 341.394531 C 297.394531 341.390625 302.9375 336.351562 303.679688 329.683594 L 303.878906 329.519531 L 303.875 278.269531 C 303.867188 253.972656 303.835938 218.457031 303.800781 199.347656 L 303.738281 164.597656 L 295.101562 155.96875 C 290.351562 151.21875 286.464844 147.269531 286.464844 147.1875 C 286.464844 147.105469 276.238281 136.765625 263.742188 124.210938 C 251.242188 111.660156 231.332031 91.652344 219.496094 79.75 L 197.976562 58.113281 L 92.210938 58.113281 C 91.988281 58.09375 91.761719 58.082031 91.535156 58.078125 Z M 91.535156 58.078125"/> </g> </defs> <g transform="translate(71.593219,759.86435)"> <path d="m 9.882958,-399.59096 c -2.472656,-0.66407 -7.496093,-3.0586 -10.152343,-4.84375 -5.203125,-3.49219 -10.277344,-9.97657 -12.734375,-16.27344 l -1.207032,-3.08984 -0.09375,-143.05469 -0.08984,-143.05469 0.886719,-2.86328 c 2.816406,-9.10156 9.183593,-16.45313 17.828124,-20.58594 6.074219,-2.90234 0.320313,-2.66797 65.425775,-2.66015 l 57.914074,0.004 25.61328,25.75 c 14.08593,14.16406 37.78125,37.97656 52.65625,52.91406 14.875,14.9414 27.04297,27.24609 27.04297,27.34374 0,0.0977 4.625,4.79688 10.27734,10.44922 l 10.27734,10.26953 0.0781,41.35157 c 0.0391,22.74218 0.0781,65.00781 0.082,93.92187 l 0.0117,52.57422 -1.57031,3.25781 c -1.98438,4.13672 -3.16797,5.83985 -6.33204,9.15625 -4.11718,4.3086 -8.35156,6.9375 -14.48828,8.99219 l -2.98437,1.00391 -108.29297,-0.0312 c -94.41797,-0.0274 -108.531251,-0.0937 -110.148439,-0.53125 z m 0,0" style="fill:url(#linear0-0)"/> <path d="m 174.05093,-736.70034 -0.20703,0.95313 c 0,0.004 0,0.004 0,0.008 l -0.0156,0.0625 c -0.0898,0.41015 -0.082,0.82812 0.0312,1.26953 0.0352,0.21875 0.082,0.42578 0.14454,0.59766 0.0195,0.0469 0.0898,0.14843 0.1875,0.27343 0.0117,0.0234 0.0195,0.043 0.0312,0.0664 0.33984,0.65235 5.85156,6.46485 12.24609,12.91016 6.39453,6.44922 17.44141,17.625 24.55469,24.83594 7.10937,7.21093 18.48437,18.74609 25.27343,25.6289 6.78907,6.88672 12.6875,12.97266 13.10157,13.53125 0.0859,0.11719 0.1914,0.23047 0.30078,0.33985 0.33594,0.35156 0.68359,0.59765 1.10547,0.77734 0.20312,0.0977 0.41015,0.17969 0.61718,0.23047 1.21485,0.32422 2.09766,0.42969 2.76563,0.32422 0.0703,-0.008 0.14062,-0.0195 0.20312,-0.0352 0.10157,-0.0234 0.19922,-0.0508 0.28907,-0.0859 0.0273,-0.008 0.0469,-0.0312 0.0703,-0.0547 0.0195,-0.0117 0.043,-0.0195 0.0625,-0.0312 0.15625,-0.0977 0.25,-1.14063 0.30469,-3.80469 0.008,-0.33985 0.0156,-0.76563 0.0195,-1.16797 0.004,-0.15625 0.008,-0.29687 0.008,-0.46484 0.0547,-3.60157 0.0664,-9.4375 0.0625,-19.32813 -0.004,-14.58594 -0.14453,-25.61328 -0.34375,-27.01172 -0.0664,-0.46093 -0.14062,-0.91406 -0.22266,-1.36718 -0.0937,-0.70313 -0.20703,-1.23829 -0.35156,-1.83204 -0.0508,-0.21093 -0.125,-0.46093 -0.1875,-0.69921 -0.34765,-1.39454 -0.76953,-2.7461 -1.26172,-4.05469 -0.0859,-0.23438 -0.17578,-0.49219 -0.2539,-0.69531 -0.25391,-0.66016 -0.56641,-1.34375 -0.92188,-2.03907 -3.29687,-6.82812 -8.77344,-12.21484 -16.14062,-15.76172 -3,-1.4414 -4.98438,-2.26562 -8.86719,-2.73828 -0.4375,-0.0547 -0.89844,-0.10547 -1.41797,-0.15234 -0.008,0 -0.0156,0 -0.0273,0 -0.0664,-0.008 -0.14453,-0.0117 -0.21094,-0.0195 -0.37109,-0.0312 -0.76172,-0.0586 -1.18359,-0.0859 -4.95313,-0.33984 -12.53907,-0.37109 -25.94922,-0.375 h -23.81641 z m 0,0" style="fill:rgb(15.294%,16.470%,20.392%)"/> <use width="100%" height="100%" x="0" y="0" mask="url(#mask0-71)" transform="translate(-71.593604,-759.8644)" xlink:href="#surface5-72"/> <path d="m 19.941552,-708.98159 c -0.308594,0 -0.617187,0.0117 -0.925781,0.0352 h -0.351563 l -0.03516,0.0469 c -6.617183,0.6836 -11.65234,6.34766 -11.660152,13.11328 0.0078,0.53516 0.04297,1.07422 0.113281,1.60547 l -0.07031,0.0898 0.07813,127.28516 0.07422,125.86328 c -0.0625,0.51172 -0.09375,1.02735 -0.09766,1.53907 0.0039,6.83984 5.144532,12.54297 11.84375,13.13672 l 0.01172,0.008 0.160156,0.004 c 0.320313,0.0274 0.636719,0.043 0.957031,0.0469 0.328126,0 0.652344,-0.0156 0.976563,-0.0391 l 98.953133,0.43359 97.58594,0.0273 c 0.54687,0.0742 1.09765,0.11329 1.64843,0.11719 6.59766,-0.004 12.14063,-5.03906 12.88282,-11.70703 l 0.19922,-0.16406 -0.004,-51.25391 c -0.008,-24.29297 -0.0391,-59.80859 -0.0742,-78.92187 l -0.0625,-34.7461 -8.63672,-8.6289 c -4.75,-4.75 -8.63672,-8.69922 -8.63672,-8.78125 0,-0.082 -10.22656,-10.42188 -22.72265,-22.97656 -12.5,-12.55469 -32.41016,-32.56251 -44.2461,-44.46095 L 126.38296,-708.9464 H 20.617334 c -0.222657,-0.0195 -0.449219,-0.0312 -0.671876,-0.0352 z m 0,0" style="fill:rgb(100.000%,100.000%,100.000%)"/> <path d="m 131.33451,-617.18862 -0.0806,72.32813 -0.0908,82.83251 -0.35889,0.0703 c -0.1953,0.0391 -21.79736,-3.73143 -48.004391,-8.37597 -26.20703,-4.64063 -47.92872,-8.55079 -48.27246,-8.6836 l -0.62549,-0.2417 v 7.5 l 0.62549,0.2417 c 0.34374,0.13281 22.06543,4.04297 48.27246,8.6836 26.207031,4.64454 47.809091,8.41503 48.004391,8.37597 l 0.35889,-0.0703 0.0908,-82.83251 0.0893,-79.82813 z" style="opacity:0.3"/> <path style="fill:rgb(29.803%,30.980%,36.078%);fill-rule:evenodd" d="m 131.08452,-621.64186 c -0.50782,0 -5.23829,0.76953 -10.50782,1.70703 -5.27343,0.94141 -16.42578,2.88282 -24.785151,4.32422 -8.35938,1.4375 -15.85157,2.78906 -16.64844,3 -0.79688,0.21485 -8.18359,1.51953 -16.41797,2.89844 -8.23437,1.38281 -15.42578,2.66015 -15.97656,2.83984 -0.55078,0.17969 -3.53906,0.73438 -6.63672,1.23828 l -5.63672,0.91016 v 63.01172 c 0,34.65625 0.0391,63.01172 0.0859,63.01562 0.0469,0.004 3.03516,0.54297 6.64062,1.19532 3.60938,0.65234 13.3711,2.3789 21.69532,3.83202 8.32421,1.45313 15.4375,2.73828 15.80468,2.85548 0.3711,0.11328 7.71485,1.42578 16.3125,2.91015 8.601571,1.48828 20.179691,3.50781 25.730471,4.4961 5.55078,0.98437 10.35547,1.80468 10.67969,1.82031 0.55859,0.0351 0.58984,-3.98828 0.58984,-80.00781 v -80.04688 z"/> <path d="m 136.78662,-605.00552 -0.27246,5.71143 h 66.33545 v 113.91504 h -66.33545 l 0.28858,7.15576 34.00341,-0.0981 34.00782,-0.0967 1.86034,-0.84082 c 2.28906,-1.03516 3.26124,-2.77245 3.68702,-6.58887 0.16016,-1.41406 0.2456,-27.55566 0.19483,-58.09863 -0.0976,-55.17578 -0.10108,-55.53516 -0.82764,-56.95313 -0.91017,-1.77733 -1.63721,-2.4414 -3.67236,-3.36328 -1.57422,-0.71484 -2.18702,-0.72607 -35.43311,-0.73389 z m 38.89893,29.96925 c -12.32423,-0.0156 -24.6206,0.10644 -24.79249,0.38379 -0.12109,0.1953 -1.333,7.77734 -2.69238,16.85156 -1.35937,9.0703 -2.52245,16.64746 -2.58105,16.83105 -0.0625,0.1875 -0.80908,-1.8125 -1.65674,-4.4414 -0.84375,-2.6289 -1.69923,-4.98438 -1.89844,-5.22657 -0.23047,-0.28516 -1.32032,-0.44824 -3,-0.44824 h -2.55029 v 13.85449 l 2.17529,8.28516 c 1.21484,4.61718 2.35108,8.61376 2.52686,8.8872 0.25781,0.40234 1.24609,0.46143 5.13281,0.29737 2.75,-0.11328 4.98439,-0.37207 5.21485,-0.59473 0.21876,-0.21875 2.65722,-9.83105 5.41113,-21.36621 l 5.01123,-20.96924 5.70264,-0.21826 c 3.13281,-0.12109 11.73534,-0.24316 19.11034,-0.2666 9.89845,-0.0391 13.52295,-0.16406 13.83546,-0.48047 0.29297,-0.29297 0.4292,-2.01953 0.4292,-5.46094 0,-3.4414 -0.13623,-5.1709 -0.4292,-5.46386 -0.27735,-0.27735 -12.625,-0.43457 -24.94922,-0.4541 z m 17.45361,18.90234 c -1.28906,-0.0195 -2.41894,0.0401 -2.78613,0.16113 -0.55469,0.17578 -2.10059,1.90137 -4.08106,4.5498 -1.75,2.34375 -3.28614,4.26563 -3.40723,4.26563 -0.1211,0 -1.71484,-1.9292 -3.53906,-4.28467 -1.89453,-2.44531 -3.64843,-4.37158 -4.08984,-4.48096 -0.42578,-0.10936 -2.06251,-0.14798 -3.63281,-0.0893 -2.58203,0.0977 -2.8667,0.17529 -2.96045,0.85108 -0.0586,0.41406 0.87549,2.48437 2.09033,4.64062 1.21094,2.14453 2.66358,4.72363 3.22998,5.72754 l 1.03564,1.82813 -3.40283,4.24218 c -4.43359,5.53516 -4.42187,5.63574 0.6211,5.76855 l 3.82763,0.10548 6.80567,-6.14796 3.6123,3.28565 3.61816,3.28418 3.42921,-0.24902 c 1.8828,-0.14063 3.55078,-0.33252 3.70312,-0.42627 0.67969,-0.41798 0.0698,-1.48438 -3.10986,-5.44922 -1.86719,-2.32422 -3.39404,-4.31202 -3.39404,-4.41357 0,-0.10548 1.61767,-2.79395 3.59032,-5.97364 1.97657,-3.18359 3.53858,-6.05078 3.47608,-6.375 -0.0898,-0.48438 -0.70361,-0.625 -3.3208,-0.77344 -0.44141,-0.0234 -0.88574,-0.0391 -1.31543,-0.0469 z" style="fill:rgb(29.803%,30.980%,36.078%)"/> <path d="m 136.78662,-597.50552 -0.27246,5.71143 h 66.33545 v 113.91504 h -66.33545 l 0.28858,7.15576 34.00341,-0.0981 34.00782,-0.0967 1.86034,-0.84083 c 2.28906,-1.03515 3.26124,-2.77245 3.68702,-6.58886 0.16016,-1.41406 0.2456,-27.55566 0.19483,-58.09863 -0.0976,-55.17578 -0.10108,-55.53516 -0.82764,-56.95313 -0.91017,-1.77733 -1.63721,-2.4414 -3.67236,-3.36328 -1.57422,-0.71484 -2.18702,-0.72607 -35.43311,-0.73389 z m 38.89893,29.96925 c -12.32423,-0.0156 -24.6206,0.10644 -24.79249,0.38379 -0.12109,0.1953 -1.333,7.77734 -2.69238,16.85156 -1.35937,9.0703 -2.52245,16.64746 -2.58105,16.83105 -0.0625,0.1875 -0.80908,-1.8125 -1.65674,-4.4414 -0.84375,-2.6289 -1.69923,-4.98438 -1.89844,-5.22657 -0.23047,-0.28516 -1.32032,-0.44824 -3,-0.44824 h -2.55029 v 13.85449 l 2.17529,8.28516 c 1.21484,4.61718 2.35108,8.61376 2.52686,8.8872 0.25781,0.40234 1.24609,0.46143 5.13281,0.29737 2.75,-0.11328 4.98439,-0.37207 5.21485,-0.59473 0.21876,-0.21875 2.65722,-9.83105 5.41113,-21.36621 l 5.01123,-20.96924 5.70264,-0.21826 c 3.13281,-0.12109 11.73534,-0.24316 19.11034,-0.2666 9.89845,-0.0391 13.52295,-0.16406 13.83546,-0.48047 0.29297,-0.29297 0.4292,-2.01953 0.4292,-5.46094 0,-3.4414 -0.13623,-5.1709 -0.4292,-5.46386 -0.27735,-0.27735 -12.625,-0.43457 -24.94922,-0.4541 z m 17.45361,18.90234 c -1.28906,-0.0195 -2.41894,0.0401 -2.78613,0.16113 -0.55469,0.17578 -2.10059,1.90137 -4.08106,4.5498 -1.75,2.34375 -3.28614,4.26563 -3.40723,4.26563 -0.1211,0 -1.71484,-1.9292 -3.53906,-4.28467 -1.89453,-2.44531 -3.64843,-4.37158 -4.08984,-4.48096 -0.42578,-0.10936 -2.06251,-0.14798 -3.63281,-0.0893 -2.58203,0.0977 -2.8667,0.17529 -2.96045,0.85108 -0.0586,0.41406 0.87549,2.48437 2.09033,4.64062 1.21094,2.14453 2.66358,4.72363 3.22998,5.72754 l 1.03564,1.82813 -3.40283,4.24218 c -4.43359,5.53516 -4.42187,5.63574 0.6211,5.76855 l 3.82763,0.10548 6.80567,-6.14796 3.6123,3.28565 3.61816,3.28418 3.42921,-0.24902 c 1.8828,-0.14063 3.55078,-0.33252 3.70312,-0.42627 0.67969,-0.41798 0.0698,-1.48438 -3.10986,-5.44922 -1.86719,-2.32422 -3.39404,-4.31202 -3.39404,-4.41357 0,-0.10548 1.61767,-2.79395 3.59032,-5.97364 1.97657,-3.18359 3.53858,-6.05078 3.47608,-6.375 -0.0898,-0.48438 -0.70361,-0.625 -3.3208,-0.77344 -0.44141,-0.0234 -0.88574,-0.0391 -1.31543,-0.0469 z" style="opacity:0.3"/> </g> </svg>
