<svg xmlns="http://www.w3.org/2000/svg" xmlns:xlink="http://www.w3.org/1999/xlink" width="384pt" height="384pt" version="1.1" viewBox="0 0 384 384">
 <defs>
  <filter id="alpha" width="100%" height="100%" x="0%" y="0%" filterUnits="objectBoundingBox">
   <feColorMatrix in="SourceGraphic" type="matrix" values="0 0 0 0 1 0 0 0 0 1 0 0 0 0 1 0 0 0 1 0"/>
  </filter>
  <mask id="mask0">
   <g filter="url(#alpha)">
    <rect width="384" height="384" x="0" y="0" style="fill:rgb(0%,0%,0%);fill-opacity:0.2"/>
   </g>
  </mask>
  <clipPath id="clip1">
   <rect width="384" height="384" x="0" y="0"/>
  </clipPath>
  <g id="surface5" clip-path="url(#clip1)">
   <path style="fill:rgb(0%,0%,0%)" d="M 183 114 L 201 114 C 215.910156 114 228 125.28125 228 139.199219 L 228 340.792969 C 228 354.710938 215.910156 365.992188 201 365.992188 L 183 365.992188 C 168.089844 365.992188 156 354.710938 156 340.792969 L 156 139.199219 C 156 125.28125 168.089844 114 183 114 Z M 183 114"/>
  </g>
  <mask id="mask1">
   <g filter="url(#alpha)">
    <rect width="384" height="384" x="0" y="0" style="fill:rgb(0%,0%,0%);fill-opacity:0.2"/>
   </g>
  </mask>
  <clipPath id="clip2">
   <rect width="384" height="384" x="0" y="0"/>
  </clipPath>
  <g id="surface8" clip-path="url(#clip2)">
   <path style="fill:rgb(0%,0%,0%)" d="M 172.269531 197.855469 C 132.601562 197.101562 116.503906 196.433594 106.65625 195.140625 C 99.4375 194.191406 95.890625 193.269531 91.894531 191.292969 C 85.289062 188.027344 81.179688 183.472656 78.21875 176.128906 C 75.507812 169.417969 74.402344 164.085938 73.390625 152.8125 C 72.246094 140.085938 72.160156 137.785156 72.039062 117.960938 C 71.898438 94.644531 72.179688 87.003906 73.746094 71.53125 C 74.566406 63.417969 75.765625 58.027344 78.011719 52.308594 C 80.058594 47.101562 81.929688 44.230469 85.328125 41.0625 C 89.601562 37.082031 94.296875 34.664062 100.21875 33.386719 C 109.0625 31.480469 149.03125 30.011719 192.023438 30.011719 C 235.019531 30.011719 274.984375 31.480469 283.828125 33.386719 C 290.222656 34.765625 294.917969 37.3125 299.496094 41.886719 C 303.082031 45.46875 304.925781 48.722656 307.125 55.332031 C 309.386719 62.144531 310.253906 68.167969 311.542969 86.003906 C 312.152344 94.476562 312.152344 133.464844 311.542969 141.929688 C 310.828125 151.832031 309.949219 160.652344 309.367188 163.808594 C 307.863281 171.921875 304.917969 179.519531 301.59375 183.835938 C 299.3125 186.800781 294.808594 190.332031 291.042969 192.109375 C 287.230469 193.910156 283.597656 194.800781 277.742188 195.375 C 259.597656 197.160156 204.191406 198.460938 172.269531 197.855469 Z M 172.269531 197.855469"/>
  </g>
  <mask id="mask2">
   <g filter="url(#alpha)">
    <rect width="384" height="384" x="0" y="0" style="fill:rgb(0%,0%,0%);fill-opacity:0.2"/>
   </g>
  </mask>
  <clipPath id="clip3">
   <rect width="384" height="384" x="0" y="0"/>
  </clipPath>
  <g id="surface11" clip-path="url(#clip3)">
   <path style="fill:rgb(0%,0%,0%)" d="M 98.648438 71.714844 C 93.816406 71.902344 89.996094 75.875 90 80.714844 L 90 140.714844 C 89.953125 143.957031 91.660156 146.976562 94.460938 148.613281 C 97.265625 150.25 100.734375 150.25 103.539062 148.613281 C 106.339844 146.976562 108.046875 143.957031 108 140.714844 L 108 101.714844 L 117.996094 111.230469 C 121.597656 114.65625 127.296875 114.515625 130.722656 110.914062 L 138 103.25 L 138 140.714844 C 137.953125 143.957031 139.660156 146.976562 142.460938 148.613281 C 145.265625 150.25 148.734375 150.25 151.539062 148.613281 C 154.339844 146.976562 156.046875 143.957031 156 140.714844 L 156 80.714844 C 156 78.277344 155.015625 75.949219 153.269531 74.253906 C 151.523438 72.554688 149.164062 71.640625 146.730469 71.714844 C 144.355469 71.785156 142.109375 72.792969 140.472656 74.515625 L 123.878906 91.988281 L 105.210938 74.199219 C 103.449219 72.515625 101.082031 71.621094 98.648438 71.714844 Z M 237 71.714844 C 233.753906 71.667969 230.738281 73.375 229.105469 76.179688 C 227.46875 78.980469 227.46875 82.445312 229.105469 85.25 C 230.738281 88.050781 233.753906 89.757812 237 89.714844 L 252 89.714844 L 252 140.714844 C 251.953125 143.957031 253.660156 146.976562 256.460938 148.613281 C 259.265625 150.25 262.734375 150.25 265.539062 148.613281 C 268.339844 146.976562 270.046875 143.957031 270 140.714844 L 270 89.714844 L 285.597656 89.714844 C 288.84375 89.757812 291.859375 88.050781 293.492188 85.25 C 295.128906 82.445312 295.128906 78.980469 293.492188 76.179688 C 291.859375 73.375 288.84375 71.667969 285.597656 71.714844 Z M 197.53125 71.726562 C 194.164062 71.902344 191.179688 73.945312 189.796875 77.023438 L 162.796875 137.023438 C 161.34375 139.972656 161.617188 143.484375 163.507812 146.175781 C 165.398438 148.867188 168.609375 150.3125 171.878906 149.945312 C 175.148438 149.574219 177.957031 147.449219 179.203125 144.40625 L 182.4375 137.222656 L 182.4375 137.714844 L 213.785156 137.714844 L 216.796875 144.40625 C 218.042969 147.449219 220.851562 149.574219 224.121094 149.945312 C 227.390625 150.3125 230.601562 148.867188 232.492188 146.175781 C 234.382812 143.484375 234.65625 139.972656 233.203125 137.023438 L 206.203125 77.023438 C 204.679688 73.636719 201.238281 71.535156 197.53125 71.726562 Z M 198 102.640625 L 205.6875 119.714844 L 190.3125 119.714844 Z M 198 102.640625"/>
  </g>
  <mask id="mask3">
   <g filter="url(#alpha)">
    <rect width="384" height="384" x="0" y="0" style="fill:rgb(0%,0%,0%);fill-opacity:0.2"/>
   </g>
  </mask>
  <clipPath id="clip4">
   <rect width="384" height="384" x="0" y="0"/>
  </clipPath>
  <g id="surface14" clip-path="url(#clip4)">
   <path style="fill:rgb(100%,100%,100%)" d="M 192.023438 24.011719 C 149.03125 24.011719 109.074219 25.480469 100.230469 27.386719 C 94.304688 28.664062 89.597656 31.09375 85.324219 35.074219 C 81.925781 38.242188 80.058594 41.09375 78.011719 46.300781 C 75.761719 52.019531 74.566406 57.429688 73.746094 65.542969 C 72.179688 81.015625 71.894531 88.660156 72.035156 111.972656 C 72.042969 112.933594 72.058594 113.378906 72.070312 113.917969 C 72.007812 94.523438 72.300781 85.816406 73.746094 71.542969 C 74.566406 63.429688 75.761719 58.019531 78.011719 52.300781 C 80.058594 47.09375 81.925781 44.242188 85.324219 41.074219 C 89.597656 37.09375 94.304688 34.664062 100.230469 33.386719 C 109.074219 31.480469 149.03125 30.011719 192.023438 30.011719 C 235.015625 30.011719 274.984375 31.480469 283.828125 33.386719 C 290.222656 34.765625 294.929688 37.320312 299.507812 41.894531 C 303.09375 45.476562 304.929688 48.714844 307.125 55.324219 C 309.386719 62.132812 310.246094 68.167969 311.53125 86.003906 C 311.84375 90.332031 311.914062 101.761719 311.894531 113.53125 C 311.894531 113.710938 311.90625 113.785156 311.90625 113.964844 C 311.984375 99.980469 311.902344 85.148438 311.53125 80.003906 C 310.246094 62.167969 309.386719 56.132812 307.125 49.324219 C 304.929688 42.714844 303.09375 39.476562 299.507812 35.894531 C 294.929688 31.320312 290.222656 28.765625 283.828125 27.386719 C 274.984375 25.480469 235.015625 24.011719 192.023438 24.011719 Z M 192.023438 24.011719"/>
  </g>
 </defs>
 <g>
  <use mask="url(#mask0)" xlink:href="#surface5"/>
  <path style="fill:rgb(83.137255%,10.196078%,10.196078%)" d="M 183 108 L 201 108 C 215.910156 108 228 119.28125 228 133.199219 L 228 334.792969 C 228 348.710938 215.910156 359.992188 201 359.992188 L 183 359.992188 C 168.089844 359.992188 156 348.710938 156 334.792969 L 156 133.199219 C 156 119.28125 168.089844 108 183 108 Z M 183 108"/>
  <use mask="url(#mask1)" xlink:href="#surface8"/>
  <path style="fill:rgb(96.470588%,27.843137%,27.843137%)" d="M 172.269531 191.855469 C 132.601562 191.101562 116.503906 190.433594 106.65625 189.140625 C 99.4375 188.195312 95.890625 187.269531 91.894531 185.292969 C 85.289062 182.027344 81.179688 177.472656 78.21875 170.128906 C 75.507812 163.417969 74.402344 158.085938 73.390625 146.8125 C 72.246094 134.085938 72.160156 131.785156 72.039062 111.960938 C 71.898438 88.644531 72.179688 81.007812 73.746094 65.53125 C 74.566406 57.417969 75.765625 52.027344 78.011719 46.308594 C 80.058594 41.105469 81.929688 38.230469 85.328125 35.0625 C 89.601562 31.085938 94.296875 28.664062 100.21875 27.386719 C 109.0625 25.480469 149.03125 24.011719 192.023438 24.011719 C 235.019531 24.011719 274.984375 25.480469 283.828125 27.386719 C 290.222656 28.765625 294.917969 31.3125 299.496094 35.886719 C 303.082031 39.46875 304.925781 42.722656 307.125 49.332031 C 309.386719 56.144531 310.253906 62.171875 311.542969 80.003906 C 312.152344 88.476562 312.152344 127.464844 311.542969 135.929688 C 310.828125 145.835938 309.949219 154.652344 309.367188 157.808594 C 307.863281 165.921875 304.917969 173.519531 301.59375 177.835938 C 299.3125 180.800781 294.808594 184.332031 291.042969 186.109375 C 287.230469 187.910156 283.597656 188.800781 277.742188 189.375 C 259.597656 191.160156 204.191406 192.460938 172.269531 191.855469 Z M 172.269531 191.855469"/>
  <use mask="url(#mask2)" xlink:href="#surface11"/>
  <path style="fill:none;stroke-width:3;stroke-linecap:round;stroke-linejoin:round;stroke:rgb(100%,100%,100%)" d="M 16.5 22.5 L 16.5 12.5 L 20.69987 16.5 L 24.5 12.5 L 24.5 22.5" transform="matrix(6,0,0,6,0,0)"/>
  <path style="fill:none;stroke-width:3;stroke-linecap:round;stroke-linejoin:round;stroke:rgb(100%,100%,100%)" d="M 28.5 22.5 L 33 12.5 L 37.5 22.5" transform="matrix(6,0,0,6,0,0)"/>
  <path style="fill:none;stroke-width:3;stroke-linecap:round;stroke-linejoin:round;stroke:rgb(100%,100%,100%)" d="M 43.500651 22.5 L 43.500651 13.001953" transform="matrix(6,0,0,6,0,0)"/>
  <path style="fill:none;stroke-width:2.99997;stroke-linecap:round;stroke-linejoin:round;stroke:rgb(100%,100%,100%)" d="M 39.500651 12.5 L 47.60026 12.5" transform="matrix(6,0,0,6,0,0)"/>
  <path style="fill:none;stroke-width:3;stroke:rgb(100%,100%,100%)" d="M 30.405599 20.5 L 36.005859 20.5" transform="matrix(6,0,0,6,0,0)"/>
  <use mask="url(#mask3)" xlink:href="#surface14"/>
 </g>
</svg>
