<svg xmlns="http://www.w3.org/2000/svg" xmlns:xlink="http://www.w3.org/1999/xlink" width="384pt" height="384pt" version="1.1" viewBox="0 0 384 384"> <defs> <filter id="alpha" width="100%" height="100%" x="0%" y="0%" filterUnits="objectBoundingBox"> <feColorMatrix in="SourceGraphic" type="matrix" values="0 0 0 0 1 0 0 0 0 1 0 0 0 0 1 0 0 0 1 0"/> </filter> <mask id="mask0"> <g filter="url(#alpha)"> <rect width="384" height="384" x="0" y="0" style="fill:rgb(0%,0%,0%);fill-opacity:0.352941"/> </g> </mask> <mask id="mask1"> <g filter="url(#alpha)"> <rect width="384" height="384" x="0" y="0" style="fill:rgb(0%,0%,0%);fill-opacity:0.403922"/> </g> </mask> <linearGradient id="linear0" x1="302.857" x2="302.857" y1="366.648" y2="609.505" gradientTransform="matrix(-0.363434,0,0,0.202044,338.080148,130.792725)" gradientUnits="userSpaceOnUse"> <stop offset="0" style="stop-color:rgb(0%,0%,0%);stop-opacity:0"/> <stop offset=".5" style="stop-color:rgb(0%,0%,0%)"/> <stop offset="1" style="stop-color:rgb(0%,0%,0%);stop-opacity:0"/> </linearGradient> <clipPath id="clip2"> <rect width="384" height="384" x="0" y="0"/> </clipPath> <g id="surface6" clip-path="url(#clip2)"> <path style="fill:url(#linear0)" d="M 258.660156 204.871094 L 125.339844 204.871094 L 125.339844 253.9375 L 258.660156 253.9375 Z M 258.660156 204.871094"/> </g> <mask id="mask2"> <g filter="url(#alpha)"> <rect width="384" height="384" x="0" y="0" style="fill:rgb(0%,0%,0%);fill-opacity:0.403922"/> </g> </mask> <radialGradient id="radial0" cx="576.933" cy="486.675" r="117.143" fx="576.933" fy="486.675" gradientTransform="matrix(-0.208,0.0000373508,0.0000285169,0.203587,245.327524,130.117118)" gradientUnits="userSpaceOnUse"> <stop offset="0" style="stop-color:rgb(0%,0%,0%)"/> <stop offset="1" style="stop-color:rgb(0%,0%,0%);stop-opacity:0"/> </radialGradient> <clipPath id="clip3"> <rect width="384" height="384" x="0" y="0"/> </clipPath> <g id="surface9" clip-path="url(#clip3)"> <path style="fill:url(#radial0)" d="M 125.339844 204.5 C 125.339844 204.5 125.339844 253.9375 125.339844 253.9375 C 111.550781 254.03125 92.007812 242.863281 92.007812 229.214844 C 92.007812 215.570312 107.394531 204.5 125.339844 204.5 Z M 125.339844 204.5"/> </g> <mask id="mask3"> <g filter="url(#alpha)"> <rect width="384" height="384" x="0" y="0" style="fill:rgb(0%,0%,0%);fill-opacity:0.403922"/> </g> </mask> <radialGradient id="radial1" cx="422.823" cy="489.906" r="117.143" fx="422.823" fy="489.906" gradientTransform="matrix(0.183718,0,0,0.203759,180.981245,129.209113)" gradientUnits="userSpaceOnUse"> <stop offset="0" style="stop-color:rgb(0%,0%,0%)"/> <stop offset="1" style="stop-color:rgb(0%,0%,0%);stop-opacity:0"/> </radialGradient> <clipPath id="clip4"> <rect width="384" height="384" x="0" y="0"/> </clipPath> <g id="surface12" clip-path="url(#clip4)"> <path style="fill:url(#radial1)" d="M 258.660156 204.5 C 258.660156 204.5 258.660156 253.5625 258.660156 253.5625 C 272.449219 253.65625 291.992188 242.570312 291.992188 229.027344 C 291.992188 215.484375 276.605469 204.5 258.660156 204.5 Z M 258.660156 204.5"/> </g> <clipPath id="clip1"> <rect width="384" height="384" x="0" y="0"/> </clipPath> <g id="surface14" clip-path="url(#clip1)"> <use mask="url(#mask1)" xlink:href="#surface6"/> <use mask="url(#mask2)" xlink:href="#surface9"/> <use mask="url(#mask3)" xlink:href="#surface12"/> </g> <mask id="mask4"> <g filter="url(#alpha)"> <rect width="384" height="384" x="0" y="0" style="fill:rgb(0%,0%,0%);fill-opacity:0.301961"/> </g> </mask> <clipPath id="clip5"> <rect width="384" height="384" x="0" y="0"/> </clipPath> <g id="surface17" clip-path="url(#clip5)"> <path style="fill:rgb(100.000%,100.000%,100.000%)" d="M 61.800781 137.832031 C 50.90625 137.832031 42 146.738281 42 157.632812 L 42 159.707031 C 42 160.628906 42.066406 161.53125 42.191406 162.417969 C 43.523438 152.800781 51.828125 145.332031 61.800781 145.332031 L 322.199219 145.332031 C 332.171875 145.332031 340.476562 152.800781 341.808594 162.417969 C 341.933594 161.53125 342 160.628906 342 159.707031 L 342 157.632812 C 342 146.738281 333.09375 137.832031 322.199219 137.832031 Z M 61.800781 137.832031"/> </g> <linearGradient id="linear1" x1="23.156" x2="23.156" y1="37.015" y2="10" gradientTransform="matrix(0,5.262718,3.525346,0,109.153987,3.603564)" gradientUnits="userSpaceOnUse"> <stop offset="0" style="stop-color:rgb(20.000%,20.000%,20.000%)"/> <stop offset="1" style="stop-color:rgb(21.960%,23.529%,29.019%)"/> </linearGradient> <mask id="mask5"> <g filter="url(#alpha)"> <rect width="384" height="384" x="0" y="0" style="fill:rgb(0%,0%,0%);fill-opacity:0.301961"/> </g> </mask> <clipPath id="clip6"> <rect width="384" height="384" x="0" y="0"/> </clipPath> <g id="surface20" clip-path="url(#clip6)"> <path style="fill:rgb(0%,0%,0%)" d="M 16.164062 323.628906 L 16.164062 331.128906 C 16.164062 352.320312 33.222656 369.375 54.410156 369.375 L 328.871094 369.375 C 350.058594 369.375 367.113281 352.320312 367.113281 331.128906 L 367.113281 323.628906 C 367.113281 344.820312 350.058594 361.875 328.871094 361.875 L 54.410156 361.875 C 33.222656 361.875 16.164062 344.820312 16.164062 323.628906 Z M 16.164062 323.628906"/> </g> <mask id="mask6"> <g filter="url(#alpha)"> <rect width="384" height="384" x="0" y="0" style="fill:rgb(0%,0%,0%);fill-opacity:0.301961"/> </g> </mask> <clipPath id="clip7"> <rect width="384" height="384" x="0" y="0"/> </clipPath> <g id="surface23" clip-path="url(#clip7)"> <path style="fill:rgb(100.000%,100.000%,100.000%)" d="M 54.410156 12.578125 C 33.222656 12.578125 16.164062 29.632812 16.164062 50.824219 L 16.164062 58.324219 C 16.164062 37.132812 33.222656 20.078125 54.410156 20.078125 L 328.871094 20.078125 C 350.058594 20.078125 367.113281 37.132812 367.113281 58.324219 L 367.113281 50.824219 C 367.113281 29.632812 350.058594 12.578125 328.871094 12.578125 Z M 54.410156 12.578125"/> </g> <mask id="mask7"> <g filter="url(#alpha)"> <rect width="384" height="384" x="0" y="0" style="fill:rgb(0%,0%,0%);fill-opacity:0.301961"/> </g> </mask> <clipPath id="clip8"> <rect width="384" height="384" x="0" y="0"/> </clipPath> <g id="surface26" clip-path="url(#clip8)"> <path style="fill:rgb(0%,0%,0%)" d="M 117.003906 184.222656 L 117.003906 222.292969 C 117.003906 230.839844 125.90625 237.824219 136.800781 237.824219 L 247.199219 237.824219 C 258.09375 237.824219 266.996094 230.839844 266.996094 222.292969 L 266.996094 184.222656 C 266.996094 192.773438 258.09375 199.757812 247.199219 199.757812 L 136.800781 199.757812 C 125.90625 199.757812 117.003906 192.773438 117.003906 184.222656 Z M 117.003906 184.222656"/> </g> </defs> <g> <path style="fill:rgb(100.000%,100.000%,100.000%)" d="M 54.40625 12.578125 L 328.867188 12.578125 C 349.988281 12.578125 367.113281 29.699219 367.113281 50.824219 L 367.113281 331.132812 C 367.113281 352.253906 349.988281 369.378906 328.867188 369.378906 L 54.40625 369.378906 C 33.285156 369.378906 16.164062 352.253906 16.164062 331.132812 L 16.164062 50.824219 C 16.164062 29.699219 33.285156 12.578125 54.40625 12.578125 Z M 54.40625 12.578125"/> <use mask="url(#mask0)" xlink:href="#surface14"/> <path style="fill:rgb(29.803%,29.803%,29.803%)" d="M 57.1875 252.984375 L 57.1875 306 L 68.507812 306 L 68.507812 252.984375 Z M 90.515625 252.984375 L 90.515625 297.65625 L 101.835938 297.65625 L 101.835938 252.984375 Z M 123.84375 252.984375 L 123.84375 289.335938 L 135.164062 289.335938 L 135.164062 252.984375 Z M 157.171875 252.984375 L 157.171875 280.992188 L 168.492188 280.992188 L 168.492188 252.984375 Z M 190.5 252.984375 L 190.5 306 L 201.84375 306 L 201.84375 252.984375 Z M 223.828125 252.984375 L 223.828125 280.992188 L 235.171875 280.992188 L 235.171875 252.984375 Z M 257.15625 252.984375 L 257.15625 289.335938 L 268.5 289.335938 L 268.5 252.984375 Z M 282.164062 252.984375 L 282.164062 297.65625 L 293.484375 297.65625 L 293.484375 252.984375 Z M 315.492188 252.984375 L 315.492188 306 L 326.8125 306 L 326.8125 252.984375 Z M 315.492188 252.984375"/> <path style="fill:rgb(29.803%,29.803%,29.803%)" d="M 342 157.632812 C 342 146.738281 333.09375 137.832031 322.199219 137.832031 L 61.796875 137.832031 C 50.90625 137.832031 42 146.738281 42 157.632812 L 42 159.707031 C 42 170.601562 50.90625 179.507812 61.796875 179.507812 L 322.199219 179.507812 C 333.09375 179.507812 342 170.601562 342 159.707031 Z M 342 157.632812"/> <use mask="url(#mask4)" xlink:href="#surface17"/> <path style="fill:rgb(37.647%,38.823%,43.137%)" d="M 117.007812 90.972656 C 117.007812 80.082031 125.90625 71.179688 136.800781 71.179688 L 247.199219 71.179688 C 258.09375 71.179688 266.992188 80.082031 266.992188 90.972656 L 266.992188 218.035156 C 266.992188 228.925781 258.09375 237.828125 247.199219 237.828125 L 136.800781 237.828125 C 125.90625 237.828125 117.007812 228.925781 117.007812 218.035156 Z M 117.007812 90.972656"/> <path style="fill:url(#linear1)" d="M 141.996094 100.800781 C 141.996094 89.910156 150.898438 81.007812 161.789062 81.007812 L 222.210938 81.007812 C 233.101562 81.007812 242.003906 89.910156 242.003906 100.800781 L 242.003906 169.554688 C 242.003906 180.445312 233.101562 189.320312 222.210938 189.320312 L 161.789062 189.320312 C 150.898438 189.320312 141.996094 180.445312 141.996094 169.554688 Z M 141.996094 100.800781"/> <path style="fill:rgb(83.137%,9.803%,9.803%)" d="M 200.332031 103.320312 L 200.332031 167.003906 C 200.332031 170.128906 197.800781 172.660156 194.675781 172.660156 L 189.324219 172.660156 C 186.199219 172.660156 183.667969 170.128906 183.667969 167.003906 L 183.667969 103.320312 C 183.667969 100.195312 186.199219 97.664062 189.324219 97.664062 L 194.675781 97.664062 C 197.800781 97.664062 200.332031 100.195312 200.332031 103.320312 Z M 200.332031 103.320312"/> <use mask="url(#mask5)" xlink:href="#surface20"/> <use mask="url(#mask6)" xlink:href="#surface23"/> <use mask="url(#mask7)" xlink:href="#surface26"/> </g> </svg>
