<svg xmlns="http://www.w3.org/2000/svg" xmlns:xlink="http://www.w3.org/1999/xlink" width="384pt" height="384pt" version="1.1" viewBox="0 0 384 384">
 <defs>
  <filter id="alpha" width="100%" height="100%" x="0%" y="0%" filterUnits="objectBoundingBox">
   <feColorMatrix in="SourceGraphic" type="matrix" values="0 0 0 0 1 0 0 0 0 1 0 0 0 0 1 0 0 0 1 0"/>
  </filter>
  <mask id="mask0">
   <g filter="url(#alpha)">
    <rect width="384" height="384" x="0" y="0" style="fill:rgb(0%,0%,0%);fill-opacity:0.2"/>
   </g>
  </mask>
  <clipPath id="clip1">
   <rect width="384" height="384" x="0" y="0"/>
  </clipPath>
  <g id="surface5" clip-path="url(#clip1)">
   <path style="fill:rgb(0%,0%,0%)" d="M 24 336 L 24 348 C 24 357.972656 32.027344 366 42 366 L 342 366 C 351.972656 366 360 357.972656 360 348 L 360 336 C 360 345.972656 351.972656 354 342 354 L 42 354 C 32.027344 354 24 345.972656 24 336 Z M 24 336"/>
  </g>
  <mask id="mask1">
   <g filter="url(#alpha)">
    <rect width="384" height="384" x="0" y="0" style="fill:rgb(0%,0%,0%);fill-opacity:0.101961"/>
   </g>
  </mask>
  <clipPath id="clip2">
   <rect width="384" height="384" x="0" y="0"/>
  </clipPath>
  <g id="surface8" clip-path="url(#clip2)">
   <path style="fill:rgb(100%,100%,100%)" d="M 42 24 C 32.027344 24 24 32.027344 24 42 L 24 48 C 24 38.027344 32.027344 30 42 30 L 342 30 C 351.972656 30 360 38.027344 360 48 L 360 42 C 360 32.027344 351.972656 24 342 24 Z M 42 24"/>
  </g>
 </defs>
 <g>
  <use mask="url(#mask0)" xlink:href="#surface5"/>
  <path style="fill:rgb(71.764706%,76.470588%,80.392157%)" d="M 360 342 L 360 42 C 360 32.058594 351.941406 24 342 24 L 42 24 C 32.058594 24 24 32.058594 24 42 L 24 342 C 24 351.941406 32.058594 360 42 360 L 342 360 C 351.941406 360 360 351.941406 360 342 Z M 360 342"/>
  <use mask="url(#mask1)" xlink:href="#surface8"/>
  <path style="fill:none;stroke-width:1.43;stroke:rgb(29.803922%,29.803922%,29.803922%)" d="M 45.623698 25.434245 C 50.484375 33.561198 49.544271 43.065755 43.522135 46.684896 C 37.5 50.304036 28.666667 46.672526 23.772135 38.565755 C 18.911458 30.438802 19.851562 20.934245 25.873698 17.315104 C 31.895833 13.695964 40.729818 17.327474 45.623698 25.434245 Z M 45.623698 25.434245" transform="matrix(6,0,0,6,0,0)"/>
  <path style="fill:rgb(14.117647%,36.470588%,76.862745%)" d="M 204 144 C 170.855469 144 144 170.847656 144 204 C 144 237.152344 170.847656 264 204 264 C 237.152344 264 264 237.152344 264 204 C 264 170.847656 237.152344 144 204 144 Z M 193.269531 175.707031 C 215.808594 175.707031 234.242188 193.902344 234.242188 216.441406 C 234.242188 238.980469 215.808594 257.414062 193.269531 257.414062 C 170.730469 257.414062 152.539062 238.980469 152.539062 216.441406 C 152.539062 193.902344 170.730469 175.707031 193.269531 175.707031 Z M 193.269531 175.707031"/>
  <path style="fill:rgb(29.803922%,29.803922%,29.803922%)" d="M 82.324219 197.953125 C 82.324219 197.953125 58.222656 220.96875 60.105469 235.339844 C 62.703125 255.167969 87.597656 258.328125 107.246094 258.101562 C 154.882812 257.5625 324.554688 201.894531 324.003906 135.101562 C 323.824219 113.511719 284.992188 111.605469 284.992188 112.882812 C 284.992188 112.882812 313.792969 120.109375 313.167969 134.015625 C 310.824219 185.851562 169.105469 244.046875 106.167969 245.640625 C 92.957031 245.976562 74.570312 243.117188 69.3125 231 C 64.605469 220.140625 82.320312 197.949219 82.320312 197.949219 Z M 82.324219 197.953125"/>
  <path style="fill:rgb(96.470588%,27.843137%,27.843137%)" d="M 276 138 C 276 154.570312 262.570312 168 246 168 C 229.429688 168 216 154.570312 216 138 C 216 121.429688 229.429688 108 246 108 C 262.570312 108 276 121.429688 276 138 Z M 276 138"/>
  <path style="fill:rgb(29.803922%,29.803922%,29.803922%)" d="M 192 234.011719 C 192 243.953125 183.941406 252.011719 174 252.011719 C 164.058594 252.011719 156 243.953125 156 234.011719 C 156 224.070312 164.058594 216.011719 174 216.011719 C 183.941406 216.011719 192 224.070312 192 234.011719 Z M 192 234.011719"/>
 </g>
</svg>
