<svg xmlns="http://www.w3.org/2000/svg" xmlns:xlink="http://www.w3.org/1999/xlink" width="384pt" height="384pt" version="1.1" viewBox="0 0 384 384">
 <defs>
  <filter id="alpha" width="100%" height="100%" x="0%" y="0%" filterUnits="objectBoundingBox">
   <feColorMatrix in="SourceGraphic" type="matrix" values="0 0 0 0 1 0 0 0 0 1 0 0 0 0 1 0 0 0 1 0"/>
  </filter>
  <mask id="mask0">
   <g filter="url(#alpha)">
    <rect width="384" height="384" x="0" y="0" style="fill:rgb(0%,0%,0%);fill-opacity:0.2"/>
   </g>
  </mask>
  <clipPath id="clip1">
   <rect width="384" height="384" x="0" y="0"/>
  </clipPath>
  <g id="surface5" clip-path="url(#clip1)">
   <path style="fill:rgb(0%,0%,0%)" d="M 111.601562 36.242188 C 70.210938 37.648438 36.234375 72.742188 36.25 114.109375 L 36.25 195.113281 L 37.046875 185.332031 C 35.652344 193.757812 35.652344 202.34375 37.046875 210.773438 L 36.25 200.988281 L 36.25 281.007812 C 35.953125 302.132812 45.84375 325.871094 61.679688 340.082031 C 77.519531 354.296875 96.3125 360 114.25 360 C 132.1875 360 150.984375 354.296875 166.820312 340.082031 C 182.660156 325.871094 192.550781 302.132812 192.25 281.007812 L 192.25 272.605469 C 196.402344 272.238281 196.734375 272.753906 201.25 272.234375 C 224.207031 269.574219 249.714844 265.59375 276.039062 254.539062 C 288.929688 249.125 305.117188 240.617188 319.46875 225.796875 C 336.261719 208.457031 348.21875 185.261719 347.992188 155.703125 C 347.769531 126.402344 335.640625 103.507812 319.046875 86.515625 C 304.773438 71.898438 288.761719 63.425781 275.875 57.988281 C 249.605469 46.894531 224.140625 42.835938 201.25 40.105469 C 154.683594 34.550781 111.601562 36.242188 111.601562 36.242188 Z M 111.601562 36.242188"/>
  </g>
  <mask id="mask1">
   <g filter="url(#alpha)">
    <rect width="384" height="384" x="0" y="0" style="fill:rgb(0%,0%,0%);fill-opacity:0.2"/>
   </g>
  </mask>
  <clipPath id="clip2">
   <rect width="384" height="384" x="0" y="0"/>
  </clipPath>
  <g id="surface8" clip-path="url(#clip2)">
   <path style="fill:none;stroke-width:5.999977;stroke-linecap:round;stroke-linejoin:round;stroke:rgb(0%,0%,0%)" d="M 19.042318 46.958333 L 19.042318 18.958333 C 19.042318 18.958333 44.940755 18.110026 45.000651 26.001302 C 45.060547 33.892578 19.042318 32.958333 19.042318 32.958333" transform="matrix(6,0,0,6,0,0)"/>
  </g>
  <mask id="mask2">
   <g filter="url(#alpha)">
    <rect width="384" height="384" x="0" y="0" style="fill:rgb(0%,0%,0%);fill-opacity:0.2"/>
   </g>
  </mask>
  <clipPath id="clip3">
   <rect width="384" height="384" x="0" y="0"/>
  </clipPath>
  <g id="surface11" clip-path="url(#clip3)">
   <path style="fill:rgb(100%,100%,100%)" d="M 119.0625 30.058594 C 114.296875 30.128906 111.609375 30.234375 111.609375 30.234375 C 70.21875 31.640625 36.238281 66.75 36.257812 108.117188 L 36.257812 114.117188 C 36.238281 72.75 70.21875 37.640625 111.609375 36.234375 C 111.609375 36.234375 122.371094 35.824219 138.960938 36.09375 C 155.550781 36.363281 177.972656 37.324219 201.257812 40.101562 C 224.144531 42.832031 249.613281 46.894531 275.882812 57.984375 C 288.769531 63.425781 304.78125 71.890625 319.054688 86.507812 C 335.152344 102.992188 346.949219 125.089844 347.847656 153.140625 C 347.910156 151.996094 348.007812 150.875 348 149.695312 C 347.777344 120.398438 335.648438 97.5 319.054688 80.507812 C 304.78125 65.890625 288.769531 57.425781 275.882812 51.984375 C 249.613281 40.894531 224.144531 36.832031 201.257812 34.101562 C 177.972656 31.324219 155.550781 30.363281 138.960938 30.09375 C 130.664062 29.957031 123.828125 29.988281 119.0625 30.058594 Z M 119.0625 30.058594"/>
  </g>
 </defs>
 <g>
  <use mask="url(#mask0)" xlink:href="#surface5"/>
  <path style="fill:rgb(96.470588%,27.843137%,27.843137%)" d="M 111.601562 30.242188 C 70.210938 31.648438 36.234375 66.742188 36.25 108.109375 L 36.25 189.113281 L 37.046875 179.332031 C 35.652344 187.757812 35.652344 196.34375 37.046875 204.773438 L 36.25 194.988281 L 36.25 275.007812 C 35.953125 296.132812 45.84375 319.871094 61.679688 334.082031 C 77.519531 348.296875 96.3125 354 114.25 354 C 132.1875 354 150.984375 348.296875 166.820312 334.082031 C 182.660156 319.871094 192.550781 296.132812 192.25 275.007812 L 192.25 266.605469 C 196.402344 266.238281 196.734375 266.753906 201.25 266.234375 C 224.207031 263.574219 249.714844 259.59375 276.039062 248.539062 C 288.929688 243.125 305.117188 234.617188 319.46875 219.796875 C 336.261719 202.457031 348.21875 179.261719 347.992188 149.703125 C 347.769531 120.402344 335.640625 97.507812 319.046875 80.515625 C 304.773438 65.898438 288.761719 57.425781 275.875 51.988281 C 249.605469 40.894531 224.140625 36.835938 201.25 34.105469 C 154.683594 28.550781 111.601562 30.242188 111.601562 30.242188 Z M 111.601562 30.242188"/>
  <use mask="url(#mask1)" xlink:href="#surface8"/>
  <path style="fill:rgb(100%,100%,100%)" d="M 113.671875 88.804688 C 103.960938 89.121094 96.253906 97.089844 96.257812 106.804688 L 96.257812 187.945312 C 95.933594 189.894531 95.933594 191.882812 96.257812 193.828125 L 96.257812 274.804688 C 96.164062 281.296875 99.578125 287.335938 105.183594 290.605469 C 110.789062 293.878906 117.726562 293.878906 123.332031 290.605469 C 128.9375 287.335938 132.347656 281.296875 132.257812 274.804688 L 132.257812 208.054688 C 144.847656 208.269531 162.992188 209.203125 194.34375 205.570312 C 214.726562 203.207031 235.339844 199.480469 252.796875 192.140625 C 261.523438 188.472656 269.632812 183.902344 276.351562 176.953125 C 283.070312 170.007812 288.082031 159.785156 288 148.921875 C 287.917969 138.082031 282.824219 127.984375 276.09375 121.078125 C 269.359375 114.175781 261.242188 109.582031 252.515625 105.890625 C 235.058594 98.511719 214.472656 94.726562 194.132812 92.296875 C 153.453125 87.4375 113.671875 88.804688 113.671875 88.804688 Z M 132.257812 125.53125 C 144.167969 125.394531 161.375 124.636719 189.867188 128.039062 C 208.417969 130.257812 226.71875 134.074219 238.5 139.054688 C 244.390625 141.546875 248.476562 144.324219 250.3125 146.203125 C 252.144531 148.085938 251.992188 148.207031 252 149.203125 C 252.007812 150.179688 252.226562 150.113281 250.476562 151.921875 C 248.726562 153.730469 244.707031 156.492188 238.851562 158.953125 C 227.136719 163.878906 208.792969 167.648438 190.195312 169.804688 C 161.578125 173.121094 144.179688 172.28125 132.257812 172.101562 Z M 132.257812 125.53125"/>
  <use mask="url(#mask2)" xlink:href="#surface11"/>
 </g>
</svg>
