<svg xmlns="http://www.w3.org/2000/svg" xmlns:xlink="http://www.w3.org/1999/xlink" width="384pt" height="384pt" version="1.1" viewBox="0 0 384 384"> <defs> <filter id="alpha" width="100%" height="100%" x="0%" y="0%" filterUnits="objectBoundingBox"> <feColorMatrix in="SourceGraphic" type="matrix" values="0 0 0 0 1 0 0 0 0 1 0 0 0 0 1 0 0 0 1 0"/> </filter> <mask id="mask0"> <g filter="url(#alpha)"> <rect width="384" height="384" x="0" y="0" style="fill:rgb(0%,0%,0%);fill-opacity:0.2"/> </g> </mask> <clipPath id="clip1"> <rect width="384" height="384" x="0" y="0"/> </clipPath> <g id="surface5" clip-path="url(#clip1)"> <path style="fill:rgb(0%,0%,0%)" d="M 142.007812 30 C 86.609375 30 42 76.246094 42 133.6875 L 42 190.3125 C 42 192.125 42.171875 193.890625 42.257812 195.679688 C 43.15625 235.707031 48.46875 303.488281 73.96875 332.53125 C 99.664062 361.796875 159.609375 366 183.820312 366 C 226.84375 366 246 349.148438 246 349.148438 L 246 321.46875 C 246 321.46875 220.046875 330.542969 189.398438 330 C 168.351562 329.625 150.332031 324.113281 141.28125 310.476562 C 138.015625 305.554688 138.25 300.710938 137.25 293.742188 C 138.835938 293.820312 140.402344 294 142.007812 294 L 241.992188 294 C 297.390625 294 342 247.753906 342 190.3125 L 342 133.6875 C 342 76.246094 297.390625 30 241.992188 30 Z M 142.007812 30"/> </g> <mask id="mask1"> <g filter="url(#alpha)"> <rect width="384" height="384" x="0" y="0" style="fill:rgb(0%,0%,0%);fill-opacity:0.2"/> </g> </mask> <clipPath id="clip2"> <rect width="384" height="384" x="0" y="0"/> </clipPath> <g id="surface8" clip-path="url(#clip2)"> <path style="fill:rgb(0%,0%,0%)" d="M 150 132 C 150 141.941406 141.941406 150 132 150 C 122.058594 150 114 141.941406 114 132 C 114 122.058594 122.058594 114 132 114 C 141.941406 114 150 122.058594 150 132 Z M 150 132"/> </g> <mask id="mask2"> <g filter="url(#alpha)"> <rect width="384" height="384" x="0" y="0" style="fill:rgb(0%,0%,0%);fill-opacity:0.2"/> </g> </mask> <clipPath id="clip3"> <rect width="384" height="384" x="0" y="0"/> </clipPath> <g id="surface11" clip-path="url(#clip3)"> <path style="fill:rgb(100.000%,100.000%,100.000%)" d="M 142.007812 24 C 86.609375 24 42 70.246094 42 127.6875 L 42 133.6875 C 42 76.246094 86.609375 30 142.007812 30 L 241.992188 30 C 297.390625 30 342 76.246094 342 133.6875 L 342 127.6875 C 342 70.246094 297.390625 24 241.992188 24 Z M 137.25 299.742188 C 137.582031 302.042969 137.792969 303.859375 138.023438 305.777344 C 138.40625 305.792969 138.789062 305.808594 139.171875 305.835938 C 139.652344 307.414062 140.269531 308.949219 141.28125 310.476562 C 150.332031 324.113281 168.351562 329.625 189.398438 330 C 220.046875 330.542969 246 321.46875 246 321.46875 L 246 315.46875 C 246 315.46875 220.046875 324.542969 189.398438 324 C 168.351562 323.625 150.332031 318.113281 141.28125 304.476562 C 140.269531 302.949219 139.652344 301.414062 139.171875 299.835938 C 138.535156 299.789062 137.890625 299.773438 137.25 299.742188 Z M 137.25 299.742188"/> </g> </defs> <g> <use mask="url(#mask0)" xlink:href="#surface5"/> <path style="fill:rgb(23.137%,54.509%,72.156%)" d="M 142.003906 24 L 241.996094 24 C 297.226562 24 342 70.421875 342 127.6875 L 342 184.3125 C 342 241.578125 297.226562 288 241.996094 288 L 142.003906 288 C 86.773438 288 42 241.578125 42 184.3125 L 42 127.6875 C 42 70.421875 86.773438 24 142.003906 24 Z M 142.003906 24"/> <path style="fill:rgb(23.137%,54.509%,72.156%)" d="M 42.277344 158.398438 L 131.03125 158.398438 C 131.03125 158.398438 127.15625 238.078125 136.804688 284.398438 C 138.753906 293.753906 137.453125 298.699219 141.28125 304.46875 C 150.332031 318.101562 168.359375 323.621094 189.402344 323.996094 C 220.050781 324.539062 246 315.476562 246 315.476562 L 246 343.152344 C 246 343.152344 226.832031 360 183.808594 360 C 159.601562 360 99.671875 355.785156 73.976562 326.519531 C 36.859375 284.246094 42.277344 158.398438 42.277344 158.398438 Z M 42.277344 158.398438"/> <use mask="url(#mask1)" xlink:href="#surface8"/> <path style="fill:rgb(100.000%,100.000%,100.000%)" d="M 150 126 C 150 135.941406 141.941406 144 132 144 C 122.058594 144 114 135.941406 114 126 C 114 116.058594 122.058594 108 132 108 C 141.941406 108 150 116.058594 150 126 Z M 150 126"/> <use mask="url(#mask2)" xlink:href="#surface11"/> </g> </svg>
