<svg xmlns="http://www.w3.org/2000/svg" xmlns:xlink="http://www.w3.org/1999/xlink" width="384pt" height="384pt" version="1.1" viewBox="0 0 384 384"> <defs> <filter id="alpha" width="100%" height="100%" x="0%" y="0%" filterUnits="objectBoundingBox"> <feColorMatrix in="SourceGraphic" type="matrix" values="0 0 0 0 1 0 0 0 0 1 0 0 0 0 1 0 0 0 1 0"/> </filter> <mask id="mask0"> <g filter="url(#alpha)"> <rect width="384" height="384" x="0" y="0" style="fill:rgb(0%,0%,0%);fill-opacity:0.2"/> </g> </mask> <clipPath id="clip1"> <rect width="384" height="384" x="0" y="0"/> </clipPath> <g id="surface5" clip-path="url(#clip1)"> <path style="fill:rgb(0%,0%,0%)" d="M 214.945312 30.015625 C 204.632812 30.316406 194.949219 35.027344 188.34375 42.953125 L 139.148438 101.980469 L 120 101.980469 C 100.117188 101.984375 84.003906 118.097656 84 137.976562 L 84 281.953125 C 84.003906 301.832031 100.117188 317.945312 120 317.949219 L 132 317.949219 L 132 329.949219 C 132.015625 363.601562 174.101562 378.832031 195.65625 352.984375 L 244.851562 293.953125 L 264 293.953125 C 283.882812 293.949219 299.996094 277.835938 300 257.957031 L 300 113.980469 C 299.996094 94.101562 283.882812 77.988281 264 77.984375 L 252 77.984375 L 252 65.988281 C 251.992188 45.699219 235.226562 29.421875 214.945312 30.015625 Z M 214.945312 30.015625"/> </g> <mask id="mask1"> <g filter="url(#alpha)"> <rect width="384" height="384" x="0" y="0" style="fill:rgb(0%,0%,0%);fill-opacity:0.301961"/> </g> </mask> <clipPath id="clip2"> <rect width="384" height="384" x="0" y="0"/> </clipPath> <g id="surface8" clip-path="url(#clip2)"> <path style="fill:rgb(0%,0%,0%)" d="M 216 60 L 156 132 L 120 132 L 120 276 L 168 276 L 168 324 L 228 252 L 264 252 L 264 108 L 216 108 Z M 216 60"/> </g> <mask id="mask2"> <g filter="url(#alpha)"> <rect width="384" height="384" x="0" y="0" style="fill:rgb(0%,0%,0%);fill-opacity:0.2"/> </g> </mask> <clipPath id="clip3"> <rect width="384" height="384" x="0" y="0"/> </clipPath> <g id="surface11" clip-path="url(#clip3)"> <path style="fill:rgb(0%,0%,0%)" d="M 132 150 L 132 234 L 168 234 L 168 198 L 216 246 L 252 246 L 252 162 L 216 162 L 216 198 L 168 150 Z M 132 150"/> </g> <mask id="mask3"> <g filter="url(#alpha)"> <rect width="384" height="384" x="0" y="0" style="fill:rgb(0%,0%,0%);fill-opacity:0.101961"/> </g> </mask> <clipPath id="clip4"> <rect width="384" height="384" x="0" y="0"/> </clipPath> <g id="surface14" clip-path="url(#clip4)"> <path style="fill:rgb(100.000%,100.000%,100.000%)" d="M 214.945312 24.011719 C 204.632812 24.3125 194.949219 29.027344 188.34375 36.949219 L 139.148438 95.976562 L 120 95.976562 C 100.117188 95.980469 84.003906 112.097656 84 131.976562 L 84 137.976562 C 84.003906 118.097656 100.117188 101.980469 120 101.976562 L 139.148438 101.976562 L 188.34375 42.949219 C 194.949219 35.027344 204.632812 30.3125 214.945312 30.011719 C 235.226562 29.417969 251.992188 45.699219 252 65.988281 L 252 59.988281 C 251.992188 39.699219 235.226562 23.417969 214.945312 24.011719 Z M 252 71.988281 L 252 77.988281 L 264 77.988281 C 283.882812 77.992188 299.996094 94.097656 300 113.976562 L 300 107.976562 C 299.996094 88.097656 283.882812 71.992188 264 71.988281 Z M 252 71.988281"/> </g> </defs> <g> <use mask="url(#mask0)" xlink:href="#surface5"/> <path style="fill:rgb(29.803%,29.803%,29.803%)" d="M 214.945312 24.015625 C 204.632812 24.316406 194.949219 29.027344 188.34375 36.953125 L 139.148438 95.980469 L 120 95.980469 C 100.117188 95.984375 84.003906 112.097656 84 131.976562 L 84 275.953125 C 84.003906 295.832031 100.117188 311.945312 120 311.949219 L 132 311.949219 L 132 323.949219 C 132.015625 357.601562 174.101562 372.832031 195.65625 346.984375 L 244.851562 287.953125 L 264 287.953125 C 283.882812 287.949219 299.996094 271.835938 300 251.957031 L 300 107.980469 C 299.996094 88.101562 283.882812 71.988281 264 71.984375 L 252 71.984375 L 252 59.988281 C 251.992188 39.699219 235.226562 23.421875 214.945312 24.015625 Z M 214.945312 24.015625"/> <use mask="url(#mask1)" xlink:href="#surface8"/> <use mask="url(#mask2)" xlink:href="#surface11"/> <path style="fill:rgb(100.000%,100.000%,100.000%)" d="M 132 144 L 132 228 L 168 228 L 168 192 L 216 240 L 252 240 L 252 156 L 216 156 L 216 192 L 168 144 Z M 132 144"/> <use mask="url(#mask3)" xlink:href="#surface14"/> </g> </svg>
