<?xml version="1.0" encoding="UTF-8" standalone="no"?>
<svg
   xmlns:dc="http://purl.org/dc/elements/1.1/"
   xmlns:cc="http://creativecommons.org/ns#"
   xmlns:rdf="http://www.w3.org/1999/02/22-rdf-syntax-ns#"
   xmlns:svg="http://www.w3.org/2000/svg"
   xmlns="http://www.w3.org/2000/svg"
   xmlns:xlink="http://www.w3.org/1999/xlink"
   xmlns:sodipodi="http://sodipodi.sourceforge.net/DTD/sodipodi-0.dtd"
   xmlns:inkscape="http://www.inkscape.org/namespaces/inkscape"
   height="128"
   width="128"
   version="1.1"
   id="svg2"
   inkscape:version="0.48.5 r10040"
   sodipodi:docname="onboard.svg">
  <metadata
     id="metadata108">
    <rdf:RDF>
      <cc:Work
         rdf:about="">
        <dc:format>image/svg+xml</dc:format>
        <dc:type
           rdf:resource="http://purl.org/dc/dcmitype/StillImage" />
        <dc:title />
      </cc:Work>
    </rdf:RDF>
  </metadata>
  <sodipodi:namedview
     pagecolor="#ffffff"
     bordercolor="#666666"
     borderopacity="1"
     objecttolerance="10"
     gridtolerance="10"
     guidetolerance="10"
     inkscape:pageopacity="0"
     inkscape:pageshadow="2"
     inkscape:window-width="1238"
     inkscape:window-height="684"
     id="namedview106"
     showgrid="false"
     inkscape:zoom="1.7383042"
     inkscape:cx="-0.57803394"
     inkscape:cy="78.599623"
     inkscape:window-x="15"
     inkscape:window-y="39"
     inkscape:window-maximized="0"
     inkscape:current-layer="svg2" />
  <defs
     id="defs4">
    <linearGradient
       id="linearGradient3328"
       y2="22"
       gradientUnits="userSpaceOnUse"
       x2="10"
       x1="10">
      <stop
         stop-color="#fff"
         offset="0"
         id="stop7" />
      <stop
         stop-color="#fff"
         stop-opacity="0"
         offset=".13636"
         id="stop9" />
      <stop
         stop-opacity="0"
         offset=".81818"
         id="stop11" />
      <stop
         offset="1"
         id="stop13" />
    </linearGradient>
    <linearGradient
       id="linearGradient3328-2"
       y2="22"
       gradientUnits="userSpaceOnUse"
       gradientTransform="translate(0,25)"
       x2="10"
       x1="10">
      <stop
         stop-color="#fff"
         offset="0"
         id="stop16" />
      <stop
         stop-color="#fff"
         stop-opacity="0"
         offset=".13636"
         id="stop18" />
      <stop
         stop-opacity="0"
         offset=".81818"
         id="stop20" />
      <stop
         offset="1"
         id="stop22" />
    </linearGradient>
    <linearGradient
       id="linearGradient3328-7"
       y2="22"
       gradientUnits="userSpaceOnUse"
       gradientTransform="translate(25,0)"
       x2="10"
       x1="10">
      <stop
         stop-color="#fff"
         offset="0"
         id="stop25" />
      <stop
         stop-color="#fff"
         stop-opacity="0"
         offset=".13636"
         id="stop27" />
      <stop
         stop-opacity="0"
         offset=".81818"
         id="stop29" />
      <stop
         offset="1"
         id="stop31" />
    </linearGradient>
    <linearGradient
       id="linearGradient6815"
       y2="22"
       gradientUnits="userSpaceOnUse"
       gradientTransform="translate(25,25)"
       x2="10"
       x1="10">
      <stop
         stop-color="#fff"
         offset="0"
         id="stop34" />
      <stop
         stop-color="#fff"
         stop-opacity="0"
         offset=".13636"
         id="stop36" />
      <stop
         stop-opacity="0"
         offset=".81818"
         id="stop38" />
      <stop
         offset="1"
         id="stop40" />
    </linearGradient>
    <linearGradient
       inkscape:collect="always"
       xlink:href="#linearGradient6815"
       id="linearGradient3015"
       gradientUnits="userSpaceOnUse"
       gradientTransform="matrix(2.5100917,0,0,2.5100917,66.752292,66.829671)"
       x1="10"
       x2="10"
       y2="22" />
    <linearGradient
       inkscape:collect="always"
       xlink:href="#linearGradient3328-7"
       id="linearGradient3018"
       gradientUnits="userSpaceOnUse"
       gradientTransform="matrix(2.5100917,0,0,2.5100917,66.752292,4.077379)"
       x1="10"
       x2="10"
       y2="22" />
    <linearGradient
       inkscape:collect="always"
       xlink:href="#linearGradient3328-2"
       id="linearGradient3021"
       gradientUnits="userSpaceOnUse"
       gradientTransform="matrix(2.5100917,0,0,2.5100917,82.237172,49.859108)"
       x1="10"
       x2="10"
       y2="22" />
    <linearGradient
       inkscape:collect="always"
       xlink:href="#linearGradient3328"
       id="linearGradient3024"
       gradientUnits="userSpaceOnUse"
       x1="10"
       x2="10"
       y2="22"
       gradientTransform="matrix(2.5100917,0,0,2.5100917,4,4.077379)" />
  </defs>
  <rect
     id="rect44"
     x="9.1505461"
     y="8.9809446"
     width="53.046028"
     height="53.046028"
     ry="4.6126981"
     style="color:#000000;fill:#ffc022" />
  <rect
     id="rect46"
     x="9.1505461"
     y="66.639671"
     width="53.046028"
     height="53.046028"
     ry="4.6126981"
     style="color:#000000;fill:#cccccc" />
  <rect
     id="rect48"
     x="66.809273"
     y="8.9809446"
     width="53.046028"
     height="53.046028"
     ry="4.6126981"
     style="color:#000000;fill:#cccccc" />
  <rect
     id="rect50"
     x="66.809273"
     y="66.639671"
     width="53.046028"
     height="53.046028"
     ry="4.6126981"
     style="color:#000000;fill:#0084c8" />
  <g
     id="g90"
     transform="matrix(2.3063492,0,0,2.3063492,9.1505474,8.9806818)">
    <path
       d="M 7.9473,4.5166 C 7.1452,4.5166 6.5231,4.8128 6.0811,5.4053 5.639,5.9977 5.418,6.8317 5.418,7.9072 c -3.4e-6,1.071 0.22103,1.9027 0.66309,2.4951 0.44205,0.59245 1.0641,0.88867 1.8662,0.88867 0.80663,1e-6 1.431,-0.29622 1.873,-0.88867 0.4417,-0.5921 0.6627,-1.4238 0.6627,-2.4948 0,-1.0755 -0.221,-1.9095 -0.6627,-2.5019 -0.4421,-0.5925 -1.0664,-0.8887 -1.873,-0.8887 m 0,-1.9072 c 1.6406,1.04e-5 2.9258,0.46941 3.8555,1.4082 0.92968,0.93881 1.3945,2.2354 1.3945,3.8896 -1.2e-5,1.6497 -0.46486,2.944 -1.3945,3.8828 -0.9297,0.9388 -2.2149,1.4082 -3.8555,1.4082 -1.6361,0 -2.9212,-0.4694 -3.8555,-1.4082 -0.9297,-0.939 -1.3945,-2.233 -1.3945,-3.8828 0,-1.6543 0.4648,-2.9508 1.3945,-3.8896 0.9342,-0.9388 2.2194,-1.4082 3.8555,-1.4082"
       id="path92"
       inkscape:connector-curvature="0" />
    <path
       d="m 32.373,31.745 c 0.41471,6e-6 0.72916,-0.09114 0.94336,-0.27344 0.21419,-0.18228 0.32128,-0.45116 0.32129,-0.80664 -6e-6,-0.3509 -0.1071,-0.6175 -0.32129,-0.7998 -0.2142,-0.18684 -0.52865,-0.28026 -0.94336,-0.28027 h -1.4561 v 2.1602 h 1.4561 m 0.08887,4.4639 c 0.52864,2e-6 0.92512,-0.11165 1.1895,-0.33496 0.26887,-0.2233 0.40331,-0.56054 0.40332,-1.0117 -7e-6,-0.44205 -0.13217,-0.77246 -0.39648,-0.99121 -0.26433,-0.2233 -0.66309,-0.33496 -1.1963,-0.33496 h -1.5449 v 2.6729 h 1.5449 m 2.4473,-3.6709 c 0.5651,0.16407 1.0026,0.46713 1.3125,0.90918 0.30989,0.44206 0.46483,0.98438 0.46484,1.627 -9e-6,0.98438 -0.33269,1.7181 -0.99805,2.2012 -0.665,0.483 -1.677,0.725 -3.035,0.725 h -4.3682 v -10.206 h 3.9512 c 1.4173,1.1e-5 2.4427,0.2142 3.0762,0.64258 0.63801,0.4284 0.95702,1.1143 0.95703,2.0576 -9e-6,0.49675 -0.11622,0.92058 -0.34863,1.2715 -0.23243,0.34636 -0.56967,0.60385 -1.0117,0.77246"
       id="path94"
       inkscape:connector-curvature="0" />
  </g>
</svg>
