<svg width="512" height="512" version="1.1" viewBox="0 0 384 384" xmlns="http://www.w3.org/2000/svg"><defs><clipPath><rect width="384" height="384"/></clipPath><clipPath><rect width="384" height="384"/></clipPath><clipPath><rect width="384" height="384"/></clipPath></defs><path d="m360 334.8v-285.6c0-13.918-11.281-25.199-25.199-25.199h-285.6c-13.918 0-25.199 11.281-25.199 25.199v285.6c0 13.918 11.281 25.199 25.199 25.199h285.6c13.918 0 25.199-11.281 25.199-25.199z" fill="#fd4747"/><path d="m107.55 103.5c-13.047 0-23.555 10.824-23.555 24.258 0 99.59 17.684 168.11 108 167.74 90.316-0.35938 108-68.238 108-167.74 0-13.434-10.508-24.258-23.555-24.258zm33.938 53.508c3.7656 0 7.5391 2.5781 10.43 5.5078l40.078 39.602 40.082-40.801c2.8906-2.9297 6.6094-4.3594 10.383-4.3594s7.5859 1.4297 10.477 4.3594c5.7812 5.8594 5.7812 15.379 0 21.234l-49.383 50.016c-3.1758 3.2188-7.4219 4.5352-11.555 4.2188-4.1328 0.3125-8.3789-0.99609-11.555-4.2188l-49.383-50.016c-5.7812-5.8555-5.7812-15.375 0-21.234 2.8906-2.9297 6.6641-4.3086 10.43-4.3086z" opacity=".3"/><path d="m107.55 96.004c-13.047 0-23.555 10.824-23.555 24.258 0 99.59 17.684 168.11 108 167.74 90.316-0.35938 108-68.238 108-167.74 0-13.434-10.508-24.258-23.555-24.258zm33.938 53.508c3.7656 0 7.5391 2.5781 10.43 5.5078l40.078 39.602 40.082-40.801c2.8906-2.9297 6.6094-4.3594 10.383-4.3594 3.7734 0 7.5859 1.4297 10.477 4.3594 5.7812 5.8594 5.7812 15.379 0 21.234l-49.383 50.016c-3.1758 3.2188-7.4219 4.5352-11.555 4.2188-4.1328 0.3125-8.3789-0.99609-11.555-4.2188l-49.383-50.016c-5.7812-5.8555-5.7812-15.375 0-21.234 2.8906-2.9297 6.6641-4.3086 10.43-4.3086z" fill="#fff"/><path transform="scale(.75)" d="m32 436.4v10c0 18.557 15.042 33.6 33.6 33.6h380.8c18.557 0 33.6-15.042 33.6-33.6v-10c0 18.557-15.042 33.6-33.6 33.6h-380.8c-18.557 0-33.6-15.042-33.6-33.6z" opacity=".3" stroke-width="1.3333"/><path transform="scale(.75)" d="m65.6 32c-18.557 0-33.6 15.042-33.6 33.6v10c0-18.557 15.042-33.6 33.6-33.6h380.8c18.557 0 33.6 15.042 33.6 33.6v-10c0-18.557-15.042-33.6-33.6-33.6h-380.8z" fill="#fff" opacity=".3" stroke-width="1.3333"/></svg>
