<svg xmlns="http://www.w3.org/2000/svg" xmlns:xlink="http://www.w3.org/1999/xlink" width="384pt" height="384pt" version="1.1" viewBox="0 0 384 384">
 <defs>
  <filter id="alpha" width="100%" height="100%" x="0%" y="0%" filterUnits="objectBoundingBox">
   <feColorMatrix in="SourceGraphic" type="matrix" values="0 0 0 0 1 0 0 0 0 1 0 0 0 0 1 0 0 0 1 0"/>
  </filter>
  <mask id="mask0">
   <g filter="url(#alpha)">
    <rect width="384" height="384" x="0" y="0" style="fill:rgb(0%,0%,0%);fill-opacity:0.2"/>
   </g>
  </mask>
  <clipPath id="clip1">
   <rect width="384" height="384" x="0" y="0"/>
  </clipPath>
  <g id="surface5" clip-path="url(#clip1)">
   <path style="fill:rgb(0%,0%,0%)" d="M 348 42 L 324 66 L 324 78 L 360 42 Z M 120 216 L 120 228 C 120 237.972656 128.027344 246 138 246 L 306 246 C 315.972656 246 324 237.972656 324 228 L 324 216 C 324 225.972656 315.972656 234 306 234 L 138 234 C 128.027344 234 120 225.972656 120 216 Z M 120 216"/>
  </g>
  <mask id="mask1">
   <g filter="url(#alpha)">
    <rect width="384" height="384" x="0" y="0" style="fill:rgb(0%,0%,0%);fill-opacity:0.101961"/>
   </g>
  </mask>
  <clipPath id="clip2">
   <rect width="384" height="384" x="0" y="0"/>
  </clipPath>
  <g id="surface8" clip-path="url(#clip2)">
   <path style="fill:rgb(100%,100%,100%)" d="M 138 36 C 128.027344 36 120 44.027344 120 54 L 120 60 C 120 50.027344 128.027344 42 138 42 L 354 42 L 360 36 Z M 138 36"/>
  </g>
  <mask id="mask2">
   <g filter="url(#alpha)">
    <rect width="384" height="384" x="0" y="0" style="fill:rgb(0%,0%,0%);fill-opacity:0.2"/>
   </g>
  </mask>
  <clipPath id="clip3">
   <rect width="384" height="384" x="0" y="0"/>
  </clipPath>
  <g id="surface11" clip-path="url(#clip3)">
   <path style="fill:rgb(0%,0%,0%)" d="M 24 150 L 60 186 L 60 174 L 36 150 Z M 60 324 L 60 336 C 60 345.972656 68.027344 354 78 354 L 246 354 C 255.972656 354 264 345.972656 264 336 L 264 324 C 264 333.972656 255.972656 342 246 342 L 78 342 C 68.027344 342 60 333.972656 60 324 Z M 60 324"/>
  </g>
  <mask id="mask3">
   <g filter="url(#alpha)">
    <rect width="384" height="384" x="0" y="0" style="fill:rgb(0%,0%,0%);fill-opacity:0.2"/>
   </g>
  </mask>
  <clipPath id="clip4">
   <rect width="384" height="384" x="0" y="0"/>
  </clipPath>
  <g id="surface14" clip-path="url(#clip4)">
   <path style="fill:rgb(0%,0%,0%)" d="M 96 210 L 96 222 L 228 222 L 228 210 Z M 96 246 L 96 258 L 228 258 L 228 246 Z M 96 282 L 96 294 L 196.800781 294 L 196.800781 282 Z M 96 282"/>
  </g>
  <mask id="mask4">
   <g filter="url(#alpha)">
    <rect width="384" height="384" x="0" y="0" style="fill:rgb(0%,0%,0%);fill-opacity:0.101961"/>
   </g>
  </mask>
  <clipPath id="clip5">
   <rect width="384" height="384" x="0" y="0"/>
  </clipPath>
  <g id="surface17" clip-path="url(#clip5)">
   <path style="fill:rgb(100%,100%,100%)" d="M 24 144 L 30 150 L 246 150 C 255.972656 150 264 158.027344 264 168 L 264 162 C 264 152.027344 255.972656 144 246 144 Z M 24 144"/>
  </g>
 </defs>
 <g>
  <use mask="url(#mask0)" xlink:href="#surface5"/>
  <path style="fill:rgb(96.470588%,27.843137%,27.843137%)" d="M 138 36 C 128.027344 36 120 44.027344 120 54 L 120 222 C 120 231.972656 128.027344 240 138 240 L 306 240 C 315.972656 240 324 231.972656 324 222 L 324 72 L 360 36 Z M 138 36"/>
  <use mask="url(#mask1)" xlink:href="#surface8"/>
  <use mask="url(#mask2)" xlink:href="#surface11"/>
  <path style="fill:rgb(24.313725%,80.392157%,96.470588%)" d="M 24 144 L 60 180 L 60 330 C 60 339.972656 68.027344 348 78 348 L 246 348 C 255.972656 348 264 339.972656 264 330 L 264 162 C 264 152.027344 255.972656 144 246 144 Z M 24 144"/>
  <use mask="url(#mask3)" xlink:href="#surface14"/>
  <path style="fill:rgb(71.764706%,76.470588%,80.392157%)" d="M 96 204 L 96 216 L 228 216 L 228 204 Z M 96 240 L 96 252 L 228 252 L 228 240 Z M 96 276 L 96 288 L 196.800781 288 L 196.800781 276 Z M 96 276"/>
  <use mask="url(#mask4)" xlink:href="#surface17"/>
 </g>
</svg>
