<svg xmlns="http://www.w3.org/2000/svg" xmlns:xlink="http://www.w3.org/1999/xlink" width="384pt" height="384pt" version="1.1" viewBox="0 0 384 384">
 <defs>
  <filter id="alpha" width="100%" height="100%" x="0%" y="0%" filterUnits="objectBoundingBox">
   <feColorMatrix in="SourceGraphic" type="matrix" values="0 0 0 0 1 0 0 0 0 1 0 0 0 0 1 0 0 0 1 0"/>
  </filter>
  <mask id="mask0">
   <g filter="url(#alpha)">
    <rect width="384" height="384" x="0" y="0" style="fill:rgb(0%,0%,0%);fill-opacity:0.301961"/>
   </g>
  </mask>
  <clipPath id="clip1">
   <rect width="384" height="384" x="0" y="0"/>
  </clipPath>
  <g id="surface5" clip-path="url(#clip1)">
   <path style="fill-rule:evenodd;fill:rgb(0%,0%,0%)" d="M 45.679688 69.652344 L 338.324219 69.652344 C 351.011719 69.652344 361.296875 79.941406 361.296875 92.628906 L 361.296875 295.101562 C 361.296875 307.789062 351.011719 318.074219 338.324219 318.074219 L 45.679688 318.074219 C 32.992188 318.074219 22.703125 307.789062 22.703125 295.101562 L 22.703125 92.628906 C 22.703125 79.941406 32.992188 69.652344 45.679688 69.652344 Z M 45.679688 69.652344"/>
  </g>
  <mask id="mask1">
   <g filter="url(#alpha)">
    <rect width="384" height="384" x="0" y="0" style="fill:rgb(0%,0%,0%);fill-opacity:0.301961"/>
   </g>
  </mask>
  <clipPath id="clip2">
   <rect width="384" height="384" x="0" y="0"/>
  </clipPath>
  <g id="surface8" clip-path="url(#clip2)">
   <path style="fill:rgb(0%,0%,0%)" d="M 23.441406 41.617188 C 17.101562 41.617188 12 46.71875 12 53.058594 L 12 60.558594 C 12 54.21875 17.101562 49.117188 23.441406 49.117188 L 360.546875 49.117188 C 366.886719 49.117188 371.992188 54.21875 371.992188 60.558594 L 371.992188 53.058594 C 371.992188 46.71875 366.886719 41.617188 360.546875 41.617188 Z M 23.441406 41.617188"/>
  </g>
  <mask id="mask2">
   <g filter="url(#alpha)">
    <rect width="384" height="384" x="0" y="0" style="fill:rgb(0%,0%,0%);fill-opacity:0.301961"/>
   </g>
  </mask>
  <clipPath id="clip3">
   <rect width="384" height="384" x="0" y="0"/>
  </clipPath>
  <g id="surface11" clip-path="url(#clip3)">
   <path style="fill:rgb(94.117647%,90.196078%,86.27451%)" d="M 12 313.3125 L 12 320.8125 C 12 327.152344 17.101562 332.257812 23.441406 332.257812 L 360.546875 332.257812 C 366.886719 332.257812 371.992188 327.152344 371.992188 320.8125 L 371.992188 313.3125 C 371.992188 319.652344 366.886719 324.757812 360.546875 324.757812 L 23.441406 324.757812 C 17.101562 324.757812 12 319.652344 12 313.3125 Z M 12 313.3125"/>
  </g>
 </defs>
 <g>
  <path style="fill:rgb(9.803922%,7.843137%,3.137255%)" d="M 33.050781 330.09375 L 78.589844 330.09375 L 78.589844 342.382812 L 33.050781 342.382812 Z M 33.050781 330.09375"/>
  <path style="fill:rgb(9.803922%,7.843137%,3.137255%)" d="M 299.332031 330.09375 L 344.871094 330.09375 L 344.871094 341.621094 L 299.332031 341.621094 Z M 299.332031 330.09375"/>
  <path style="fill:rgb(80.392157%,61.176471%,42.745098%)" d="M 23.441406 41.617188 C 17.101562 41.617188 12 46.71875 12 53.058594 L 12 320.8125 C 12 327.152344 17.101562 332.257812 23.441406 332.257812 L 360.546875 332.257812 C 366.886719 332.257812 371.992188 327.152344 371.992188 320.8125 L 371.992188 53.058594 C 371.992188 46.71875 366.886719 41.617188 360.546875 41.617188 Z M 23.441406 41.617188"/>
  <use mask="url(#mask0)" xlink:href="#surface5"/>
  <path style="fill-rule:evenodd;fill:rgb(0%,0%,0%)" d="M 45.679688 60.042969 L 338.324219 60.042969 C 351.011719 60.042969 361.296875 70.332031 361.296875 83.019531 L 361.296875 285.492188 C 361.296875 298.179688 351.011719 308.46875 338.324219 308.46875 L 45.679688 308.46875 C 32.992188 308.46875 22.703125 298.179688 22.703125 285.492188 L 22.703125 83.019531 C 22.703125 70.332031 32.992188 60.042969 45.679688 60.042969 Z M 45.679688 60.042969"/>
  <use mask="url(#mask1)" xlink:href="#surface8"/>
  <use mask="url(#mask2)" xlink:href="#surface11"/>
 </g>
</svg>
