<svg width="512" height="512" version="1.1" viewBox="0 0 384 384" xmlns="http://www.w3.org/2000/svg"><path d="m192.3 51.006c30.901 0.0631 62.233 9.3116 86.708 27.614 17.206 19.031-15.577 39.415-30.345 20.855-44.453-25.824-107.14-16.73-140.59 21.876-17.791 19.163-27.82 44.728-27.7 70.397h29.375c-15.674 22.559-31.337 45.118-47.006 67.677l-47-67.677h29.375c-0.93518-61.286 44.969-119.58 106.6-135.45 13.224-3.4825 26.845-5.4332 40.574-5.2955zm128.96 73.328c15.651 22.565 31.32 45.141 46.989 67.7h-29.375c0.83191 62.015-46.243 120.97-108.95 136-42.318 11.348-90.162 3.0695-124.94-22.892-17.74-19.346 15.496-39.53 30.402-20.803 43.064 25.089 103.37 17.126 137.37-18.704 19.685-19.478 31.016-46.455 30.867-73.598h-29.375l47-67.694z" opacity=".3" stroke-width="1.4688"/><path d="m192.3 39.756c-14.098-0.13822-28.04 1.8666-41.533 5.4199-62.056 15.988-108.34 73.565-109.28 135.32h-32.916l54.17 78 3.0801-4.4336c15.669-22.559 31.332-45.119 47.006-67.678l4.0918-5.8887h-32.631c0.82286-23.42 10.258-46.569 26.531-64.096l0.0449-0.0469 0.041-0.0488c32.035-36.981 92.76-45.892 135.54-21.26 8.6947 10.017 22.416 9.6224 31.426 3.7363 4.6249-3.0214 8.2693-7.5241 9.3984-13.01 1.1292-5.4857-0.56414-11.724-5.4863-17.168l-0.24414-0.27148-0.29102-0.2168c-25.213-18.854-57.285-28.292-88.922-28.361zm-0.0449 7.5h0.0449c30.015 0.06283 60.437 9.0533 84.119 26.635 3.4731 3.9562 4.1358 7.3279 3.5098 10.369-0.63991 3.1088-2.8883 6.1105-6.1543 8.2441-6.532 4.2672-16.052 4.8355-22.178-2.8633l-0.43945-0.55273-0.61133-0.35547c-46.095-26.778-110.5-17.479-145.28 22.633-18.408 19.859-28.77 46.272-28.645 72.9l0.01758 3.7324h25.936c-13.282 19.118-26.557 38.235-39.834 57.352l-39.83-57.352h26.014l-0.058594-3.8066c-0.90606-59.378 43.867-116.33 103.79-131.76l0.01-0.0039 0.01-2e-3c12.945-3.4089 26.231-5.3058 39.58-5.1719zm130.23 64.77-2.9062 1.4551-0.86914 0.43555-51.633 74.369h32.617c-0.86389 24.822-11.518 49.311-29.578 67.182l-0.043 0.041-0.041 0.043c-32.582 34.336-91.006 42.139-132.44 18.217-8.7599-10.106-22.594-9.8171-31.689-3.959-4.6672 3.006-8.3421 7.528-9.4356 13.059-1.0934 5.5306 0.69547 11.801 5.7441 17.307l0.23828 0.25976 0.28125 0.21094c35.778 26.707 84.67 35.148 128.1 23.521 63.154-15.158 110.6-73.381 111.66-135.88h32.924l-4.0898-5.8906c-15.668-22.558-31.335-45.133-46.986-67.697zm-1.2324 11.381c13.267 19.126 26.544 38.257 39.824 57.379h-26.008l0.0508 3.7988c0.80603 60.085-45.115 117.69-106.08 132.3l-0.0488 0.0117-0.0469 0.0137c-41.07 11.014-87.667 2.9581-121.41-22.066-3.6063-4.0485-4.3143-7.4794-3.7129-10.521 0.61483-3.1098 2.853-6.0916 6.1406-8.209 6.5752-4.2349 16.28-4.7285 22.479 3.0586l0.4375 0.55078 0.60742 0.35351c44.661 26.02 106.6 17.877 141.94-19.32 20.378-20.186 32.094-48.061 31.939-76.242l-0.0215-3.7285h-25.936z" color="#000000" color-rendering="auto" dominant-baseline="auto" image-rendering="auto" opacity=".2" shape-rendering="auto" solid-color="#000000" style="font-feature-settings:normal;font-variant-alternates:normal;font-variant-caps:normal;font-variant-ligatures:normal;font-variant-numeric:normal;font-variant-position:normal;isolation:auto;mix-blend-mode:normal;shape-padding:0;text-decoration-color:#000000;text-decoration-line:none;text-decoration-style:solid;text-indent:0;text-orientation:mixed;text-transform:none;white-space:normal"/><path d="m192.3 43.506c30.901 0.06311 62.233 9.3116 86.708 27.614 17.206 19.031-15.577 39.415-30.345 20.855-44.453-25.824-107.14-16.73-140.59 21.876-17.791 19.163-27.82 44.728-27.7 70.397h29.375c-15.674 22.559-31.337 45.118-47.006 67.677l-47-67.677h29.375c-0.93518-61.286 44.969-119.58 106.6-135.45 13.224-3.4825 26.845-5.4332 40.574-5.2955zm128.96 73.328c15.651 22.565 31.32 45.141 46.989 67.7h-29.375c0.83191 62.015-46.243 120.97-108.95 136-42.318 11.348-90.162 3.0695-124.94-22.892-17.74-19.346 15.496-39.53 30.402-20.803 43.064 25.089 103.37 17.126 137.37-18.704 19.685-19.478 31.016-46.455 30.867-73.598h-29.375l47-67.694z" fill="#fff" stroke-width="1.4688"/><path d="m384 294c0 49.706-40.294 90-90 90-49.706 0-90-40.294-90-90s40.294-90 90-90 90 40.294 90 90z" opacity=".3" stroke-width=".9375"/><path d="m384 286.5c0 49.706-40.294 90-90 90s-90-40.294-90-90 40.294-90 90-90 90 40.294 90 90z" fill="#fd3333" stroke-width=".9375"/><path d="m242.68 260.25c-4.9294 0-4.9289 4.826-4.9289 4.8149v57.86c0 4.8268 4.9289 4.8273 4.9289 4.8273h68.882s4.9303-4.8e-4 4.9413-4.8163v-32.85l33.747 26.413v-50.627l-33.747 24.208v-25.004s0-4.819-4.922-4.819h-68.894z" opacity=".3" stroke-width=".93753"/><path d="m242.68 252.75c-4.9294 0-4.9289 4.826-4.9289 4.8149v57.86c0 4.8268 4.9289 4.8273 4.9289 4.8273h68.882s4.9303-4.8e-4 4.9413-4.8163v-32.85l33.747 26.413v-50.627l-33.747 24.208v-25.004s0-4.819-4.922-4.819h-68.894z" fill="#fff" stroke-width=".93753"/></svg>
