<svg xmlns="http://www.w3.org/2000/svg" xmlns:xlink="http://www.w3.org/1999/xlink" width="384pt" height="384pt" version="1.1" viewBox="0 0 384 384"> <defs> <filter id="alpha" width="100%" height="100%" x="0%" y="0%" filterUnits="objectBoundingBox"> <feColorMatrix in="SourceGraphic" type="matrix" values="0 0 0 0 1 0 0 0 0 1 0 0 0 0 1 0 0 0 1 0"/> </filter> <mask id="mask0"> <g filter="url(#alpha)"> <rect width="384" height="384" x="0" y="0" style="fill:rgb(0%,0%,0%);fill-opacity:0.2"/> </g> </mask> <clipPath id="clip1"> <rect width="384" height="384" x="0" y="0"/> </clipPath> <g id="surface5" clip-path="url(#clip1)"> <path style="fill:rgb(0%,0%,0%)" d="M 60 336 L 60 348 C 60 357.972656 68.027344 366 78 366 L 306 366 C 315.972656 366 324 357.972656 324 348 L 324 336 C 324 345.972656 315.972656 354 306 354 L 78 354 C 68.027344 354 60 345.972656 60 336 Z M 60 336"/> </g> <mask id="mask1"> <g filter="url(#alpha)"> <rect width="384" height="384" x="0" y="0" style="fill:rgb(0%,0%,0%);fill-opacity:0.2"/> </g> </mask> <clipPath id="clip2"> <rect width="384" height="384" x="0" y="0"/> </clipPath> <g id="surface8" clip-path="url(#clip2)"> <path style="fill:rgb(0%,0%,0%)" d="M 78 24 C 68.027344 24 60 32.027344 60 42 L 60 342 C 60 351.972656 68.027344 360 78 360 L 108 360 L 108 24 Z M 78 24"/> </g> <mask id="mask2"> <g filter="url(#alpha)"> <rect width="384" height="384" x="0" y="0" style="fill:rgb(0%,0%,0%);fill-opacity:0.2"/> </g> </mask> <clipPath id="clip3"> <rect width="384" height="384" x="0" y="0"/> </clipPath> <g id="surface11" clip-path="url(#clip3)"> <path style="fill:rgb(0%,0%,0%)" d="M 228 30 L 228 198 L 252 174 L 276 198 L 276 30 Z M 228 30"/> </g> <mask id="mask3"> <g filter="url(#alpha)"> <rect width="384" height="384" x="0" y="0" style="fill:rgb(0%,0%,0%);fill-opacity:0.2"/> </g> </mask> <clipPath id="clip4"> <rect width="384" height="384" x="0" y="0"/> </clipPath> <g id="surface14" clip-path="url(#clip4)"> <path style="fill:rgb(100.000%,100.000%,100.000%)" d="M 78 24 C 68.027344 24 60 32.027344 60 42 L 60 48 C 60 38.027344 68.027344 30 78 30 L 306 30 C 315.972656 30 324 38.027344 324 48 L 324 42 C 324 32.027344 315.972656 24 306 24 Z M 78 24"/> </g> </defs> <g> <use mask="url(#mask0)" xlink:href="#surface5"/> <path style="fill:rgb(83.137%,9.803%,9.803%)" d="M 78 24 C 68.027344 24 60 32.027344 60 42 L 60 342 C 60 351.972656 68.027344 360 78 360 L 306 360 C 315.972656 360 324 351.972656 324 342 L 324 42 C 324 32.027344 315.972656 24 306 24 Z M 78 24"/> <use mask="url(#mask1)" xlink:href="#surface8"/> <use mask="url(#mask2)" xlink:href="#surface11"/> <path style="fill:rgb(100.000%,78.039%,18.823%)" d="M 228 24 L 228 192 L 252 168 L 276 192 L 276 24 Z M 228 24"/> <use mask="url(#mask3)" xlink:href="#surface14"/> </g> </svg>
