<svg xmlns="http://www.w3.org/2000/svg" xmlns:xlink="http://www.w3.org/1999/xlink" width="384pt" height="384pt" version="1.1" viewBox="0 0 384 384"> <defs> <filter id="alpha" width="100%" height="100%" x="0%" y="0%" filterUnits="objectBoundingBox"> <feColorMatrix in="SourceGraphic" type="matrix" values="0 0 0 0 1 0 0 0 0 1 0 0 0 0 1 0 0 0 1 0"/> </filter> <mask id="mask0"> <g filter="url(#alpha)"> <rect width="384" height="384" x="0" y="0" style="fill:rgb(0%,0%,0%);fill-opacity:0.980392"/> </g> </mask> <clipPath id="clip1"> <rect width="384" height="384" x="0" y="0"/> </clipPath> <g id="surface5" clip-path="url(#clip1)"> <path style="fill:rgb(29.019%,68.235%,90.196%)" d="M 79.265625 66.609375 C 79.265625 79.523438 68.796875 89.992188 55.882812 89.992188 C 42.972656 89.992188 32.503906 79.523438 32.503906 66.609375 C 32.503906 53.699219 42.972656 43.230469 55.882812 43.230469 C 68.796875 43.230469 79.265625 53.699219 79.265625 66.609375 Z M 79.265625 66.609375"/> </g> <mask id="mask1"> <g filter="url(#alpha)"> <rect width="384" height="384" x="0" y="0" style="fill:rgb(0%,0%,0%);fill-opacity:0.301961"/> </g> </mask> <clipPath id="clip2"> <rect width="384" height="384" x="0" y="0"/> </clipPath> <g id="surface8" clip-path="url(#clip2)"> <path style="fill:rgb(0%,0%,0%)" d="M 32.621094 64.257812 C 32.542969 65.039062 32.503906 65.824219 32.503906 66.609375 C 32.503906 79.523438 42.972656 89.992188 55.882812 89.992188 C 68.796875 89.992188 79.265625 79.523438 79.265625 66.609375 C 79.257812 65.890625 79.21875 65.171875 79.144531 64.457031 C 77.941406 76.402344 67.886719 85.492188 55.882812 85.492188 C 43.808594 85.480469 33.730469 76.28125 32.621094 64.257812 Z M 32.621094 64.257812"/> </g> <mask id="mask2"> <g filter="url(#alpha)"> <rect width="384" height="384" x="0" y="0" style="fill:rgb(0%,0%,0%);fill-opacity:0.301961"/> </g> </mask> <clipPath id="clip3"> <rect width="384" height="384" x="0" y="0"/> </clipPath> <g id="surface11" clip-path="url(#clip3)"> <path style="fill:none;stroke-width:15;stroke-linecap:round;stroke:rgb(0%,0%,0%)" d="M 722.123668 354.197347 L 754.811168 534.74943 C 754.811168 534.74943 760.488252 570.176513 783.946585 582.931722 C 807.410127 595.692138 842.644502 610.770263 842.644502 610.770263" transform="matrix(0.75,0,0,0.75,-479.995095,-191.483947)"/> <path style="fill:rgb(0%,0%,0%);fill-opacity:0.996078" d="M 108.976562 258.714844 L 118.761719 238.339844 L 148.484375 252.609375 L 138.699219 272.988281 Z M 108.976562 258.714844"/> <path style="fill:rgb(0%,0%,0%);fill-opacity:0.996078" d="M 43.769531 62.441406 L 51.246094 100.445312 L 64.46875 126.53125 L 74.726562 124.660156 L 77.460938 94.878906 L 69.980469 56.878906 C 61.023438 54.46875 48.195312 58.429688 43.769531 62.441406 Z M 43.769531 62.441406"/> </g> <mask id="mask3"> <g filter="url(#alpha)"> <rect width="384" height="384" x="0" y="0" style="fill:rgb(0%,0%,0%);fill-opacity:0.301961"/> </g> </mask> <clipPath id="clip4"> <rect width="384" height="384" x="0" y="0"/> </clipPath> <g id="surface14" clip-path="url(#clip4)"> <path style="fill:rgb(0%,0%,0%)" d="M 105.792969 257.230469 L 115.578125 236.855469 L 145.296875 251.125 L 135.511719 271.503906 Z M 105.792969 257.230469"/> </g> <mask id="mask4"> <g filter="url(#alpha)"> <rect width="384" height="384" x="0" y="0" style="fill:rgb(0%,0%,0%);fill-opacity:0.301961"/> </g> </mask> <clipPath id="clip5"> <rect width="384" height="384" x="0" y="0"/> </clipPath> <g id="surface17" clip-path="url(#clip5)"> <path style="fill:rgb(0%,0%,0%);fill-opacity:0.996078" d="M 41.691406 63.75 L 49.171875 101.753906 L 62.390625 127.839844 L 72.652344 125.96875 L 75.382812 96.191406 L 67.90625 58.1875 C 58.949219 55.777344 46.121094 59.738281 41.691406 63.75 Z M 41.691406 63.75"/> </g> </defs> <g> <path style="fill:rgb(100.000%,100.000%,100.000%)" d="M 48.5625 23.25 L 335.4375 23.25 C 349.460938 23.25 360.75 34.539062 360.75 48.5625 L 360.75 335.4375 C 360.75 349.460938 349.460938 360.75 335.4375 360.75 L 48.5625 360.75 C 34.539062 360.75 23.25 349.460938 23.25 335.4375 L 23.25 48.5625 C 23.25 34.539062 34.539062 23.25 48.5625 23.25 Z M 48.5625 23.25"/> <path style="fill:rgb(20.000%,20.000%,20.000%)" d="M 343.875 192 C 343.875 275.878906 275.878906 343.875 192 343.875 C 108.121094 343.875 40.125 275.878906 40.125 192 C 40.125 108.121094 108.121094 40.125 192 40.125 C 275.878906 40.125 343.875 108.121094 343.875 192 Z M 343.875 192"/> <path style="fill:rgb(29.803%,29.803%,29.803%)" d="M 255.28125 192 C 255.28125 226.949219 226.949219 255.28125 192 255.28125 C 157.050781 255.28125 128.71875 226.949219 128.71875 192 C 128.71875 157.050781 157.050781 128.71875 192 128.71875 C 226.949219 128.71875 255.28125 157.050781 255.28125 192 Z M 255.28125 192"/> <path style="fill:rgb(12.549%,65.882%,68.627%)" d="M 238.40625 192 C 238.40625 217.628906 217.628906 238.40625 192 238.40625 C 166.371094 238.40625 145.59375 217.628906 145.59375 192 C 145.59375 166.371094 166.371094 145.59375 192 145.59375 C 217.628906 145.59375 238.40625 166.371094 238.40625 192 Z M 238.40625 192"/> <path style="fill:rgb(20.000%,20.000%,20.000%)" d="M 196.21875 192 C 196.21875 194.328125 194.328125 196.21875 192 196.21875 C 189.671875 196.21875 187.78125 194.328125 187.78125 192 C 187.78125 189.667969 189.671875 187.78125 192 187.78125 C 194.328125 187.78125 196.21875 189.667969 196.21875 192 Z M 196.21875 192"/> <path style="fill:none;stroke-width:1.124999;stroke:rgb(29.803%,29.803%,29.803%)" d="M 457.796875 796.3622 C 457.796875 907.810117 367.447917 998.159075 256 998.159075 C 144.552083 998.159075 54.203125 907.810117 54.203125 796.3622 C 54.203125 684.914283 144.552083 594.565325 256 594.565325 C 367.447917 594.565325 457.796875 684.914283 457.796875 796.3622 Z M 457.796875 796.3622" transform="matrix(0.75,0,0,0.75,0,-405.27165)"/> <path style="fill:none;stroke-width:1.125;stroke:rgb(29.803%,29.803%,29.803%)" d="M 446.552083 796.3622 C 446.552083 901.601783 361.239583 986.914283 256 986.914283 C 150.760417 986.914283 65.447917 901.601783 65.447917 796.3622 C 65.447917 691.122617 150.760417 605.810117 256 605.810117 C 361.239583 605.810117 446.552083 691.122617 446.552083 796.3622 Z M 446.552083 796.3622" transform="matrix(0.75,0,0,0.75,0,-405.27165)"/> <path style="fill:none;stroke-width:1.125;stroke:rgb(29.803%,29.803%,29.803%)" d="M 440.927083 796.3622 C 440.927083 898.492408 358.130208 981.289283 256 981.289283 C 153.869792 981.289283 71.072917 898.492408 71.072917 796.3622 C 71.072917 694.231992 153.869792 611.435117 256 611.435117 C 358.130208 611.435117 440.927083 694.231992 440.927083 796.3622 Z M 440.927083 796.3622" transform="matrix(0.75,0,0,0.75,0,-405.27165)"/> <path style="fill:none;stroke-width:1.125;stroke:rgb(29.803%,29.803%,29.803%)" d="M 435.302083 796.3622 C 435.302083 895.388242 355.026042 975.664283 256 975.664283 C 156.973958 975.664283 76.697917 895.388242 76.697917 796.3622 C 76.697917 697.336158 156.973958 617.060117 256 617.060117 C 355.026042 617.060117 435.302083 697.336158 435.302083 796.3622 Z M 435.302083 796.3622" transform="matrix(0.75,0,0,0.75,0,-405.27165)"/> <path style="fill:none;stroke-width:1.125;stroke:rgb(29.803%,29.803%,29.803%)" d="M 429.677083 796.3622 C 429.677083 892.278867 351.916667 970.039283 256 970.039283 C 160.083333 970.039283 82.322917 892.278867 82.322917 796.3622 C 82.322917 700.445533 160.083333 622.685117 256 622.685117 C 351.916667 622.685117 429.677083 700.445533 429.677083 796.3622 Z M 429.677083 796.3622" transform="matrix(0.75,0,0,0.75,0,-405.27165)"/> <path style="fill:none;stroke-width:1.125;stroke:rgb(29.803%,29.803%,29.803%)" d="M 424.052083 796.3622 C 424.052083 889.1747 348.8125 964.414283 256 964.414283 C 163.1875 964.414283 87.947917 889.1747 87.947917 796.3622 C 87.947917 703.5497 163.1875 628.310117 256 628.310117 C 348.8125 628.310117 424.052083 703.5497 424.052083 796.3622 Z M 424.052083 796.3622" transform="matrix(0.75,0,0,0.75,0,-405.27165)"/> <path style="fill:none;stroke-width:5.624997;stroke:rgb(29.803%,29.803%,29.803%)" d="M 418.427083 796.3622 C 418.427083 886.070533 345.708333 958.789283 256 958.789283 C 166.291667 958.789283 93.572917 886.070533 93.572917 796.3622 C 93.572917 706.653867 166.291667 633.935117 256 633.935117 C 345.708333 633.935117 418.427083 706.653867 418.427083 796.3622 Z M 418.427083 796.3622" transform="matrix(0.75,0,0,0.75,0,-405.27165)"/> <path style="fill:none;stroke-width:1.125;stroke:rgb(29.803%,29.803%,29.803%)" d="M 412.802083 796.3622 C 412.802083 882.961158 342.598958 953.164283 256 953.164283 C 169.401042 953.164283 99.197917 882.961158 99.197917 796.3622 C 99.197917 709.763242 169.401042 639.560117 256 639.560117 C 342.598958 639.560117 412.802083 709.763242 412.802083 796.3622 Z M 412.802083 796.3622" transform="matrix(0.75,0,0,0.75,0,-405.27165)"/> <path style="fill:none;stroke-width:1.125;stroke:rgb(29.803%,29.803%,29.803%)" d="M 407.177083 796.3622 C 407.177083 879.856992 339.494792 947.539283 256 947.539283 C 172.505208 947.539283 104.822917 879.856992 104.822917 796.3622 C 104.822917 712.867408 172.505208 645.185117 256 645.185117 C 339.494792 645.185117 407.177083 712.867408 407.177083 796.3622 Z M 407.177083 796.3622" transform="matrix(0.75,0,0,0.75,0,-405.27165)"/> <path style="fill:none;stroke-width:1.125;stroke:rgb(29.803%,29.803%,29.803%)" d="M 401.552083 796.3622 C 401.552083 876.747617 336.385417 941.914283 256 941.914283 C 175.614583 941.914283 110.447917 876.747617 110.447917 796.3622 C 110.447917 715.976783 175.614583 650.810117 256 650.810117 C 336.385417 650.810117 401.552083 715.976783 401.552083 796.3622 Z M 401.552083 796.3622" transform="matrix(0.75,0,0,0.75,0,-405.27165)"/> <path style="fill:none;stroke-width:1.125;stroke:rgb(29.803%,29.803%,29.803%)" d="M 395.927083 796.3622 C 395.927083 873.64345 333.28125 936.289283 256 936.289283 C 178.71875 936.289283 116.072917 873.64345 116.072917 796.3622 C 116.072917 719.08095 178.71875 656.435117 256 656.435117 C 333.28125 656.435117 395.927083 719.08095 395.927083 796.3622 Z M 395.927083 796.3622" transform="matrix(0.75,0,0,0.75,0,-405.27165)"/> <path style="fill:none;stroke-width:1.125;stroke:rgb(29.803%,29.803%,29.803%)" d="M 390.302083 796.3622 C 390.302083 870.534075 330.171875 930.664283 256 930.664283 C 181.828125 930.664283 121.697917 870.534075 121.697917 796.3622 C 121.697917 722.190325 181.828125 662.060117 256 662.060117 C 330.171875 662.060117 390.302083 722.190325 390.302083 796.3622 Z M 390.302083 796.3622" transform="matrix(0.75,0,0,0.75,0,-405.27165)"/> <path style="fill:none;stroke-width:1.124999;stroke:rgb(29.803%,29.803%,29.803%)" d="M 384.677083 796.3622 C 384.677083 867.429908 327.067708 925.039283 256 925.039283 C 184.932292 925.039283 127.322917 867.429908 127.322917 796.3622 C 127.322917 725.294492 184.932292 667.685117 256 667.685117 C 327.067708 667.685117 384.677083 725.294492 384.677083 796.3622 Z M 384.677083 796.3622" transform="matrix(0.75,0,0,0.75,0,-405.27165)"/> <path style="fill:none;stroke-width:5.624998;stroke:rgb(29.803%,29.803%,29.803%)" d="M 379.052083 796.3622 C 379.052083 864.320533 323.958333 919.414283 256 919.414283 C 188.041667 919.414283 132.947917 864.320533 132.947917 796.3622 C 132.947917 728.403867 188.041667 673.310117 256 673.310117 C 323.958333 673.310117 379.052083 728.403867 379.052083 796.3622 Z M 379.052083 796.3622" transform="matrix(0.75,0,0,0.75,0,-405.27165)"/> <path style="fill:none;stroke-width:1.125;stroke:rgb(29.803%,29.803%,29.803%)" d="M 373.427083 796.3622 C 373.427083 861.216367 320.854167 913.789283 256 913.789283 C 191.145833 913.789283 138.572917 861.216367 138.572917 796.3622 C 138.572917 731.508033 191.145833 678.935117 256 678.935117 C 320.854167 678.935117 373.427083 731.508033 373.427083 796.3622 Z M 373.427083 796.3622" transform="matrix(0.75,0,0,0.75,0,-405.27165)"/> <path style="fill:none;stroke-width:1.125;stroke:rgb(29.803%,29.803%,29.803%)" d="M 367.802083 796.3622 C 367.802083 858.1122 317.75 908.164283 256 908.164283 C 194.25 908.164283 144.197917 858.1122 144.197917 796.3622 C 144.197917 734.6122 194.25 684.560117 256 684.560117 C 317.75 684.560117 367.802083 734.6122 367.802083 796.3622 Z M 367.802083 796.3622" transform="matrix(0.75,0,0,0.75,0,-405.27165)"/> <path style="fill:none;stroke-width:1.125;stroke:rgb(29.803%,29.803%,29.803%)" d="M 362.177083 796.3622 C 362.177083 855.002825 314.640625 902.544492 256 902.544492 C 197.359375 902.544492 149.822917 855.002825 149.822917 796.3622 C 149.822917 737.721575 197.359375 690.185117 256 690.185117 C 314.640625 690.185117 362.177083 737.721575 362.177083 796.3622 Z M 362.177083 796.3622" transform="matrix(0.75,0,0,0.75,0,-405.27165)"/> <path style="fill:none;stroke-width:1.125;stroke:rgb(29.803%,29.803%,29.803%)" d="M 356.5625 796.3622 C 356.5625 851.898658 311.536458 896.9247 256 896.9247 C 200.463542 896.9247 155.4375 851.898658 155.4375 796.3622 C 155.4375 740.825742 200.463542 695.7997 256 695.7997 C 311.536458 695.7997 356.5625 740.825742 356.5625 796.3622 Z M 356.5625 796.3622" transform="matrix(0.75,0,0,0.75,0,-405.27165)"/> <path style="fill:none;stroke-width:1.125;stroke:rgb(29.803%,29.803%,29.803%)" d="M 350.932292 796.3622 C 350.932292 848.789283 308.427083 891.294492 256 891.294492 C 203.572917 891.294492 161.067708 848.789283 161.067708 796.3622 C 161.067708 743.935117 203.572917 701.429908 256 701.429908 C 308.427083 701.429908 350.932292 743.935117 350.932292 796.3622 Z M 350.932292 796.3622" transform="matrix(0.75,0,0,0.75,0,-405.27165)"/> <path style="fill:none;stroke-width:1.125;stroke:rgb(29.803%,29.803%,29.803%)" d="M 345.307292 796.3622 C 345.307292 845.685117 305.322917 885.669492 256 885.669492 C 206.677083 885.669492 166.692708 845.685117 166.692708 796.3622 C 166.692708 747.039283 206.677083 707.054908 256 707.054908 C 305.322917 707.054908 345.307292 747.039283 345.307292 796.3622 Z M 345.307292 796.3622" transform="matrix(0.75,0,0,0.75,0,-405.27165)"/> <path style="fill:none;stroke-width:5.624998;stroke:rgb(29.803%,29.803%,29.803%)" d="M 455.6875 796.3622 C 455.6875 906.648658 366.286458 996.0497 256 996.0497 C 145.713542 996.0497 56.3125 906.648658 56.3125 796.3622 C 56.3125 686.075742 145.713542 596.6747 256 596.6747 C 366.286458 596.6747 455.6875 686.075742 455.6875 796.3622 Z M 455.6875 796.3622" transform="matrix(0.75,0,0,0.75,0,-405.27165)"/> <path style="fill:rgb(21.960%,23.529%,29.019%)" d="M 23.25 327.9375 L 23.25 335.4375 C 23.25 349.460938 34.539062 366.75 48.5625 366.75 L 335.4375 366.75 C 349.460938 366.75 360.75 349.460938 360.75 335.4375 L 360.75 327.9375 C 360.75 341.960938 349.460938 353.25 335.4375 353.25 L 48.5625 353.25 C 34.539062 353.25 23.25 341.960938 23.25 327.9375 Z M 23.25 327.9375"/> <use mask="url(#mask0)" xlink:href="#surface5"/> <use mask="url(#mask1)" xlink:href="#surface8"/> <use mask="url(#mask2)" xlink:href="#surface11"/> <path style="fill:none;stroke-width:15;stroke-linecap:round;stroke:rgb(29.019%,68.235%,90.196%)" d="M 75.885417 633.26845 L 108.572917 813.820533 C 108.572917 813.820533 114.25 849.247617 137.708333 862.002825 C 161.171875 874.763242 196.40625 889.841367 196.40625 889.841367" transform="matrix(0.75,0,0,0.75,0,-405.27165)"/> <use mask="url(#mask3)" xlink:href="#surface14"/> <path style="fill:rgb(26.274%,61.568%,81.176%);fill-opacity:0.996078" d="M 104.289062 254.230469 L 114.074219 233.855469 L 143.792969 248.125 L 134.007812 268.5 Z M 104.289062 254.230469"/> <use mask="url(#mask4)" xlink:href="#surface17"/> <path style="fill:rgb(26.274%,61.568%,81.176%);fill-opacity:0.996078" d="M 40.53125 58.335938 L 48.007812 96.335938 L 61.230469 122.425781 L 71.488281 120.554688 L 74.222656 90.773438 L 66.742188 52.773438 C 57.785156 50.363281 44.957031 54.320312 40.53125 58.335938 Z M 40.53125 58.335938"/> </g> </svg>
