<svg xmlns="http://www.w3.org/2000/svg" xmlns:xlink="http://www.w3.org/1999/xlink" width="384pt" height="384pt" version="1.1" viewBox="0 0 384 384">
 <defs>
  <filter id="alpha" width="100%" height="100%" x="0%" y="0%" filterUnits="objectBoundingBox">
   <feColorMatrix in="SourceGraphic" type="matrix" values="0 0 0 0 1 0 0 0 0 1 0 0 0 0 1 0 0 0 1 0"/>
  </filter>
  <mask id="mask0">
   <g filter="url(#alpha)">
    <rect width="384" height="384" x="0" y="0" style="fill:rgb(0%,0%,0%);fill-opacity:0.2"/>
   </g>
  </mask>
  <clipPath id="clip1">
   <rect width="384" height="384" x="0" y="0"/>
  </clipPath>
  <g id="surface5" clip-path="url(#clip1)">
   <path style="fill:rgb(0%,0%,0%)" d="M 192 30 C 99.214844 30 24 105.214844 24 198 C 24 290.785156 99.214844 366 192 366 C 284.785156 366 360 290.785156 360 198 C 360 105.214844 284.785156 30 192 30 Z M 192 30"/>
  </g>
  <mask id="mask1">
   <g filter="url(#alpha)">
    <rect width="384" height="384" x="0" y="0" style="fill:rgb(0%,0%,0%);fill-opacity:0.2"/>
   </g>
  </mask>
  <clipPath id="clip2">
   <rect width="384" height="384" x="0" y="0"/>
  </clipPath>
  <g id="surface8" clip-path="url(#clip2)">
   <path style="fill:rgb(0%,0%,0%)" d="M 144 78 C 144 83.308594 146.34375 88.03125 150 91.324219 L 150 126.09375 C 143.5 126.148438 138.257812 126.285156 132.164062 127.6875 C 125.757812 129.160156 120 130.410156 120 138.410156 L 128.390625 144 C 128.390625 144 132.785156 139.09375 136.804688 138.410156 C 139.132812 138.015625 141.605469 138.488281 144 139.382812 L 144 192 L 126 210 L 144 228 L 144 297.550781 L 162 318 L 180 297.550781 L 180 139.476562 C 182.476562 138.574219 184.988281 138.035156 187.195312 138.410156 C 191.214844 139.09375 195.609375 144 195.609375 144 L 204 138.410156 C 204 130.410156 198.242188 129.160156 191.835938 127.6875 C 185.730469 126.285156 180.484375 126.152344 174 126.09375 L 174 91.324219 C 177.65625 88.03125 180 83.308594 180 78 Z M 211.921875 126 C 214.324219 129.640625 216 134.09375 216 138.398438 C 216 141.660156 213.476562 144.785156 211.125 147.046875 C 220.984375 153.917969 228 166.34375 228 178.59375 C 228 201.300781 215.34375 203.296875 192 210 C 206.007812 244.242188 233.925781 274.542969 261.539062 290.226562 C 285.097656 304.46875 306.683594 314.488281 336 318 C 303.625 278.480469 253.207031 261.085938 228 222 C 244.847656 213.164062 264 205.535156 264 176.34375 C 264 152.660156 242.398438 126 226.335938 126 Z M 211.921875 126"/>
  </g>
  <mask id="mask2">
   <g filter="url(#alpha)">
    <rect width="384" height="384" x="0" y="0" style="fill:rgb(0%,0%,0%);fill-opacity:0.101961"/>
   </g>
  </mask>
  <clipPath id="clip3">
   <rect width="384" height="384" x="0" y="0"/>
  </clipPath>
  <g id="surface11" clip-path="url(#clip3)">
   <path style="fill:rgb(100%,100%,100%)" d="M 192 24 C 99.214844 24 24 99.214844 24 192 C 24.035156 192.8125 24.078125 193.625 24.128906 194.4375 C 26.066406 103.097656 100.640625 30.050781 192 30 C 283.753906 30.058594 358.488281 103.726562 359.871094 195.46875 C 359.925781 194.3125 359.96875 193.15625 360 192 C 360 99.214844 284.785156 24 192 24 Z M 192 24"/>
  </g>
 </defs>
 <g>
  <use mask="url(#mask0)" xlink:href="#surface5"/>
  <path style="fill:rgb(16.078431%,50.196078%,72.54902%)" d="M 192 24 C 99.214844 24 24 99.214844 24 192 C 24 284.785156 99.214844 360 192 360 C 284.785156 360 360 284.785156 360 192 C 360 99.214844 284.785156 24 192 24 Z M 192 24"/>
  <use mask="url(#mask1)" xlink:href="#surface8"/>
  <path style="fill:rgb(100%,100%,100%)" d="M 144 132 L 180 132 L 180 291.546875 L 162 312 L 144 291.546875 Z M 144 132"/>
  <path style="fill:rgb(100%,100%,100%)" d="M 150.609375 120 L 150.609375 120.070312 C 143.800781 120.121094 138.460938 120.242188 132.164062 121.6875 C 125.757812 123.160156 120 124.40625 120 132.40625 L 128.390625 138 C 128.390625 138 132.785156 133.089844 136.804688 132.40625 C 141.40625 131.625 146.554688 134.238281 150.609375 136.789062 L 150.609375 140.398438 L 168 140.398438 C 168 140.398438 179.515625 131.105469 187.195312 132.40625 C 191.214844 133.089844 195.609375 138 195.609375 138 L 204 132.40625 C 204 124.40625 198.242188 123.160156 191.835938 121.6875 C 183.859375 119.855469 178.308594 120.113281 168 120 Z M 150.609375 120"/>
  <path style="fill:rgb(100%,100%,100%)" d="M 174 79.199219 L 174 127.199219 L 150 127.199219 L 150 79.199219 Z M 174 79.199219"/>
  <path style="fill:rgb(100%,100%,100%)" d="M 143.996094 185.996094 L 161.996094 204 L 143.996094 222 L 125.992188 204 Z M 143.996094 185.996094"/>
  <path style="fill:rgb(100%,100%,100%)" d="M 211.921875 120 C 214.324219 123.640625 216 128.09375 216 132.398438 C 216 135.660156 213.472656 138.785156 211.121094 141.046875 C 220.980469 147.917969 228 160.34375 228 172.59375 C 228 195.300781 215.34375 197.296875 192 204 C 206.007812 238.242188 233.925781 268.542969 261.539062 284.226562 C 285.097656 298.46875 306.683594 308.488281 336 312 C 303.625 272.480469 253.207031 255.085938 228 216 C 244.847656 207.164062 264 199.535156 264 170.34375 C 264 146.660156 242.398438 120 226.335938 120 Z M 211.921875 120"/>
  <use mask="url(#mask2)" xlink:href="#surface11"/>
  <path style="fill:rgb(100%,100%,100%)" d="M 180 72 C 180 81.941406 171.941406 90 162 90 C 152.058594 90 144 81.941406 144 72 Z M 180 72"/>
 </g>
</svg>
