<svg xmlns="http://www.w3.org/2000/svg" width="384pt" height="384pt" version="1.1" viewBox="0 0 384 384">
 <g transform="translate(0.003905,0.001955)">
  <path style="fill:#f8de66;fill-rule:evenodd" d="m 191.99609,23.25 c -44.71093,0 -80.88281,36.160156 -80.88281,80.88281 0,31.3711 17.67578,58.6875 43.73438,72.1875 v 162.5586 l 36.35937,21.86718 c 0.30078,-116.99218 0.56641,-174.94531 0.52734,-175.46875 0.0859,0 0.17579,0 0.26172,0 44.71094,0 80.88282,-36.42578 80.88282,-81.14453 0,-44.722654 -36.17188,-80.88281 -80.88282,-80.88281 z m -0.26172,23.976562 c 13.27735,0 23.97266,10.691407 23.97266,23.972657 0,13.28125 -10.69531,23.976562 -23.97266,23.976562 -13.27734,0 -23.97656,-10.695312 -23.97656,-23.976562 0,-13.28125 10.69922,-23.972657 23.97656,-23.972657 z m 0,0"/>
  <path style="fill:#ffc72e;fill-rule:evenodd" d="m 191.17578,360.67578 37.32031,-21.78906 c 0,-4.53906 0,-11.03906 0,-19.49219 l -16.66015,-17.78906 16.66015,-14.72656 v -5.5586 l -16.79687,-17.33984 16.79687,-18.01172 -16.92968,-18.19922 16.92968,-16.24219 c 0,-19.50781 0,-31.53125 0,-36.07031 -8.75,3.9375 -23.09375,9.125 -36.96484,8.91797 -0.0469,0 -0.26953,58.67969 -0.35547,176.30078 z m 0,0"/>
 </g>
 <path style="fill-rule:evenodd;opacity:0.3" d="M 255.65234 50.970703 C 237.94921 50.970703 223.68359 65.2272 223.68359 82.935547 C 223.68359 84.988597 223.88337 86.992036 224.25 88.935547 C 227.04566 74.116242 240.00166 62.970703 255.65234 62.970703 C 271.30293 62.970703 284.25413 74.116361 287.04883 88.935547 C 287.41534 86.991962 287.61523 84.988681 287.61523 82.935547 C 287.61523 65.2272 273.35546 50.970703 255.65234 50.970703 z M 363.66797 132.73828 C 361.54144 172.3424 338.14291 206.37716 304.66797 223.40625 L 304.66797 235.40625 C 339.79328 217.53761 363.84375 180.94989 363.84375 138.8457 C 363.84375 136.79564 363.78048 134.75986 363.66797 132.73828 z M 148.33008 132.75391 C 148.21814 134.77032 148.15625 136.80096 148.15625 138.8457 C 148.15625 180.67385 171.72394 217.0957 206.46875 235.0957 L 206.46875 223.0957 C 173.37176 205.94938 150.43298 172.08191 148.33008 132.75391 z M 304.66797 270.03906 L 282.09375 291.69531 L 287.99219 298.03711 L 304.66797 282.03906 L 304.66797 270.03906 z M 299.08008 321.95312 L 282.27148 339.97656 L 287.97266 345.86328 L 304.66797 327.96094 L 299.08008 321.95312 z M 302.27344 372.625 L 282.45312 390.14258 L 288.60156 396.70703 L 304.66797 382.50781 L 304.66797 375.0957 L 302.27344 372.625 z M 206.46875 439.8418 L 206.46875 451.8418 L 254.94922 480.99805 C 254.94935 480.94498 254.94907 480.93197 254.94922 480.87891 L 304.66797 451.85156 L 304.66797 439.85156 L 254.94922 468.87891 C 254.94907 468.93197 254.94935 468.94498 254.94922 468.99805 L 206.46875 439.8418 z" transform="scale(0.75)"/>
 <path style="fill:#ffffff;fill-rule:evenodd;opacity:0.3" d="M 256 31.001953 C 196.38544 31.001953 148.15625 79.215502 148.15625 138.8457 C 148.15625 140.4971 148.20659 142.13579 148.2793 143.76953 C 150.92445 86.503314 198.08681 41.001953 256 41.001953 C 313.90861 41.001953 361.0687 86.496048 363.7207 143.75586 C 363.79347 142.12717 363.84375 140.49205 363.84375 138.8457 C 363.84375 79.215502 315.61457 31.001953 256 31.001953 z M 224.07227 99.935547 C 223.81832 101.56418 223.68359 103.23355 223.68359 104.93555 C 223.68359 122.64387 237.94922 136.9043 255.65234 136.9043 C 273.35546 136.9043 287.61523 122.64387 287.61523 104.93555 C 287.61523 103.23354 287.48042 101.56419 287.22656 99.935547 C 284.83922 115.2525 271.65396 126.9043 255.65234 126.9043 C 239.65071 126.9043 226.46051 115.25251 224.07227 99.935547 z M 287.00977 308.97852 L 282.09375 313.69531 L 300.01172 332.95508 L 304.66797 327.96094 L 287.00977 308.97852 z M 287.02344 356.88086 L 282.27148 361.97656 L 303.31836 383.70117 L 304.66797 382.50781 L 304.66797 375.0957 L 287.02344 356.88086 z M 287.57812 407.61328 L 282.45312 412.14258 L 304.66797 435.86133 L 304.66797 425.86133 L 287.57812 407.61328 z" transform="scale(0.75)"/>
</svg>
