<svg xmlns="http://www.w3.org/2000/svg" width="384pt" height="384pt" version="1.1" viewBox="0 0 384 384">
 <defs>
  <linearGradient id="linear0" x1="399.994" x2="399.994" y1="545.139" y2="518.139" gradientTransform="matrix(13.142868,0,0,13.142868,-5072.657232,-6797.350258)" gradientUnits="userSpaceOnUse">
   <stop offset="0" style="stop-color:rgb(21.176471%,48.235294%,94.117647%)"/>
   <stop offset="1" style="stop-color:rgb(24.313725%,80.392157%,96.470588%)"/>
  </linearGradient>
 </defs>
 <g>
  <path style="fill:url(#linear0)" d="M 375.996094 192 C 375.996094 293.621094 293.613281 376 191.996094 376 C 90.375 376 7.996094 293.621094 7.996094 192 C 7.996094 90.378906 90.375 8 191.996094 8 C 293.613281 8 375.996094 90.378906 375.996094 192 Z M 375.996094 192"/>
  <path style="fill:rgb(100%,100%,100%);fill-opacity:0.847059" d="M 266.675781 251.078125 L 234.167969 218.570312 C 242.003906 207.257812 245.921875 194.652344 245.921875 180.75 C 245.921875 171.714844 244.167969 163.074219 240.660156 154.828125 C 237.152344 146.582031 232.414062 139.472656 226.445312 133.503906 C 220.472656 127.53125 213.367188 122.792969 205.121094 119.285156 C 196.871094 115.777344 188.230469 114.023438 179.195312 114.023438 C 170.160156 114.023438 161.519531 115.777344 153.273438 119.285156 C 145.027344 122.792969 137.917969 127.53125 131.945312 133.503906 C 125.976562 139.472656 121.234375 146.582031 117.730469 154.828125 C 114.222656 163.074219 112.46875 171.714844 112.46875 180.75 C 112.46875 189.785156 114.222656 198.425781 117.730469 206.671875 C 121.234375 214.917969 125.976562 222.027344 131.945312 227.996094 C 137.917969 233.96875 145.027344 238.707031 153.273438 242.214844 C 161.519531 245.722656 170.160156 247.476562 179.195312 247.476562 C 193.097656 247.476562 205.703125 243.558594 217.011719 235.722656 L 249.523438 268.136719 C 251.796875 270.535156 254.636719 271.738281 258.050781 271.738281 C 261.335938 271.738281 264.183594 270.535156 266.582031 268.136719 C 268.984375 265.734375 270.183594 262.890625 270.183594 259.605469 C 270.183594 256.257812 269.015625 253.414062 266.675781 251.078125 Z M 209.195312 210.746094 C 200.882812 219.058594 190.886719 223.210938 179.195312 223.210938 C 167.507812 223.210938 157.507812 219.054688 149.199219 210.746094 C 140.886719 202.4375 136.734375 192.441406 136.734375 180.75 C 136.734375 169.0625 140.890625 159.0625 149.199219 150.753906 C 157.507812 142.441406 167.507812 138.289062 179.195312 138.289062 C 190.882812 138.289062 200.882812 142.445312 209.195312 150.753906 C 217.503906 159.0625 221.660156 169.0625 221.660156 180.75 C 221.660156 192.441406 217.503906 202.4375 209.195312 210.746094 Z M 209.195312 210.746094"/>
 </g>
</svg>
