<svg xmlns="http://www.w3.org/2000/svg" xmlns:xlink="http://www.w3.org/1999/xlink" width="384pt" height="384pt" version="1.1" viewBox="0 0 384 384"> <defs> <filter id="alpha" width="100%" height="100%" x="0%" y="0%" filterUnits="objectBoundingBox"> <feColorMatrix in="SourceGraphic" type="matrix" values="0 0 0 0 1 0 0 0 0 1 0 0 0 0 1 0 0 0 1 0"/> </filter> <mask id="mask0"> <g filter="url(#alpha)"> <rect width="384" height="384" x="0" y="0" style="fill:rgb(0%,0%,0%);fill-opacity:0.2"/> </g> </mask> <clipPath id="clip1"> <rect width="384" height="384" x="0" y="0"/> </clipPath> <g id="surface5" clip-path="url(#clip1)"> <path style="fill:rgb(0%,0%,0%)" d="M 360 349.199219 L 360 46.800781 C 360 37.523438 352.476562 30 343.199219 30 L 40.800781 30 C 31.523438 30 24 37.523438 24 46.800781 L 24 349.199219 C 24 358.476562 31.523438 366 40.800781 366 L 343.199219 366 C 352.476562 366 360 358.476562 360 349.199219 Z M 360 349.199219"/> </g> <mask id="mask1"> <g filter="url(#alpha)"> <rect width="384" height="384" x="0" y="0" style="fill:rgb(0%,0%,0%);fill-opacity:0.2"/> </g> </mask> <clipPath id="clip2"> <rect width="384" height="384" x="0" y="0"/> </clipPath> <g id="surface8" clip-path="url(#clip2)"> <path style="fill:none;stroke-width:12;stroke-linecap:round;stroke-linejoin:round;stroke:rgb(0%,0%,0%)" d="M 18 29.000651 C 18 16.401042 26.39974 19.000651 46 19.000651" transform="matrix(6,0,0,6,0,0)"/> </g> <mask id="mask2"> <g filter="url(#alpha)"> <rect width="384" height="384" x="0" y="0" style="fill:rgb(0%,0%,0%);fill-opacity:0.2"/> </g> </mask> <clipPath id="clip3"> <rect width="384" height="384" x="0" y="0"/> </clipPath> <g id="surface11" clip-path="url(#clip3)"> <path style="fill:none;stroke-width:12;stroke-linecap:round;stroke-linejoin:round;stroke:rgb(0%,0%,0%)" d="M 46.079427 37.000651 C 46.079427 49.600911 37.679036 47.000651 18.079427 47.000651" transform="matrix(6,0,0,6,0,0)"/> </g> <mask id="mask3"> <g filter="url(#alpha)"> <rect width="384" height="384" x="0" y="0" style="fill:rgb(0%,0%,0%);fill-opacity:0.2"/> </g> </mask> <clipPath id="clip4"> <rect width="384" height="384" x="0" y="0"/> </clipPath> <g id="surface14" clip-path="url(#clip4)"> <path style="fill:rgb(100.000%,100.000%,100.000%)" d="M 40.804688 24 C 31.496094 24 24 31.496094 24 40.804688 L 24 46.804688 C 24 37.496094 31.496094 30 40.804688 30 L 343.195312 30 C 352.503906 30 360 37.496094 360 46.804688 L 360 40.804688 C 360 31.496094 352.503906 24 343.195312 24 Z M 40.804688 24"/> </g> </defs> <g> <use mask="url(#mask0)" xlink:href="#surface5"/> <path style="fill:rgb(97.254%,87.058%,40.784%)" d="M 360 343.199219 L 360 40.800781 C 360 31.523438 352.476562 24 343.199219 24 L 40.800781 24 C 31.523438 24 24 31.523438 24 40.800781 L 24 343.199219 C 24 352.476562 31.523438 360 40.800781 360 L 343.199219 360 C 352.476562 360 360 352.476562 360 343.199219 Z M 360 343.199219"/> <use mask="url(#mask1)" xlink:href="#surface8"/> <path style="fill:none;stroke-width:12;stroke-linecap:round;stroke-linejoin:round;stroke:rgb(29.803%,29.803%,29.803%)" d="M 18 28 C 18 15.39974 26.39974 18 46 18" transform="matrix(6,0,0,6,0,0)"/> <use mask="url(#mask2)" xlink:href="#surface11"/> <path style="fill:none;stroke-width:12;stroke-linecap:round;stroke-linejoin:round;stroke:rgb(29.803%,29.803%,29.803%)" d="M 46.079427 36 C 46.079427 48.60026 37.679036 46 18.079427 46" transform="matrix(6,0,0,6,0,0)"/> <use mask="url(#mask3)" xlink:href="#surface14"/> </g> </svg>
