<svg xmlns="http://www.w3.org/2000/svg" xmlns:xlink="http://www.w3.org/1999/xlink" width="384pt" height="384pt" version="1.1" viewBox="0 0 384 384">
 <defs>
  <filter id="alpha" width="100%" height="100%" x="0%" y="0%" filterUnits="objectBoundingBox">
   <feColorMatrix in="SourceGraphic" type="matrix" values="0 0 0 0 1 0 0 0 0 1 0 0 0 0 1 0 0 0 1 0"/>
  </filter>
  <mask id="mask0">
   <g filter="url(#alpha)">
    <rect width="384" height="384" x="0" y="0" style="fill:rgb(0%,0%,0%);fill-opacity:0.2"/>
   </g>
  </mask>
  <clipPath id="clip1">
   <rect width="384" height="384" x="0" y="0"/>
  </clipPath>
  <g id="surface5" clip-path="url(#clip1)">
   <path style="fill:rgb(0%,0%,0%)" d="M 360 349.199219 L 360 46.800781 C 360 37.523438 352.476562 30 343.199219 30 L 40.800781 30 C 31.523438 30 24 37.523438 24 46.800781 L 24 349.199219 C 24 358.476562 31.523438 366 40.800781 366 L 343.199219 366 C 352.476562 366 360 358.476562 360 349.199219 Z M 360 349.199219"/>
  </g>
  <mask id="mask1">
   <g filter="url(#alpha)">
    <rect width="384" height="384" x="0" y="0" style="fill:rgb(0%,0%,0%);fill-opacity:0.2"/>
   </g>
  </mask>
  <clipPath id="clip2">
   <rect width="384" height="384" x="0" y="0"/>
  </clipPath>
  <g id="surface8" clip-path="url(#clip2)">
   <path style="fill:rgb(100%,100%,100%)" d="M 40.804688 24 C 31.496094 24 24 31.496094 24 40.804688 L 24 46.804688 C 24 37.496094 31.496094 30 40.804688 30 L 343.195312 30 C 352.503906 30 360 37.496094 360 46.804688 L 360 40.804688 C 360 31.496094 352.503906 24 343.195312 24 Z M 40.804688 24"/>
  </g>
  <mask id="mask2">
   <g filter="url(#alpha)">
    <rect width="384" height="384" x="0" y="0" style="fill:rgb(0%,0%,0%);fill-opacity:0.2"/>
   </g>
  </mask>
  <clipPath id="clip3">
   <rect width="384" height="384" x="0" y="0"/>
  </clipPath>
  <g id="surface11" clip-path="url(#clip3)">
   <path style="fill:rgb(0%,0%,0%)" d="M 147.585938 85.078125 L 116.414062 103.078125 L 144.703125 152.0625 C 137.097656 159.894531 131.550781 169.492188 128.566406 180 L 72 180 L 72 216 L 128.519531 216 C 131.5 226.523438 137.046875 236.144531 144.667969 243.996094 L 116.414062 292.921875 L 147.585938 310.921875 L 175.886719 261.914062 C 181.152344 263.269531 186.5625 263.96875 192 264 C 197.445312 263.980469 202.863281 263.285156 208.136719 261.9375 L 236.414062 310.921875 L 267.585938 292.921875 L 239.296875 243.9375 C 246.902344 236.101562 252.449219 226.503906 255.433594 216 L 312 216 L 312 180 L 255.480469 180 C 252.5 169.472656 246.953125 159.851562 239.332031 152.003906 L 267.585938 103.078125 L 236.414062 85.078125 L 208.113281 134.085938 C 202.847656 132.726562 197.4375 132.027344 192 132 C 186.554688 132.015625 181.136719 132.710938 175.863281 134.0625 Z M 192 156 C 215.195312 156 234 174.800781 234 198 C 234 221.195312 215.195312 240 192 240 C 168.804688 240 150 221.195312 150 198 C 150 174.800781 168.804688 156 192 156 Z M 192 156"/>
  </g>
 </defs>
 <g>
  <use mask="url(#mask0)" xlink:href="#surface5"/>
  <path style="fill:rgb(10.588235%,63.921569%,53.72549%)" d="M 360 343.199219 L 360 40.800781 C 360 31.523438 352.476562 24 343.199219 24 L 40.800781 24 C 31.523438 24 24 31.523438 24 40.800781 L 24 343.199219 C 24 352.476562 31.523438 360 40.800781 360 L 343.199219 360 C 352.476562 360 360 352.476562 360 343.199219 Z M 360 343.199219"/>
  <use mask="url(#mask1)" xlink:href="#surface8"/>
  <use mask="url(#mask2)" xlink:href="#surface11"/>
  <path style="fill:rgb(100%,100%,100%)" d="M 147.585938 79.078125 L 116.414062 97.078125 L 144.703125 146.0625 C 137.097656 153.898438 131.550781 163.496094 128.566406 174 L 72 174 L 72 210 L 128.519531 210 C 131.5 220.527344 137.046875 230.148438 144.667969 237.996094 L 116.414062 286.921875 L 147.585938 304.921875 L 175.886719 255.914062 C 181.152344 257.269531 186.5625 257.972656 192 258 C 197.445312 257.980469 202.863281 257.289062 208.136719 255.9375 L 236.414062 304.921875 L 267.585938 286.921875 L 239.296875 237.9375 C 246.902344 230.101562 252.449219 220.503906 255.433594 210 L 312 210 L 312 174 L 255.480469 174 C 252.5 163.472656 246.953125 153.851562 239.332031 146.003906 L 267.585938 97.078125 L 236.414062 79.078125 L 208.113281 128.085938 C 202.847656 126.730469 197.4375 126.027344 192 126 C 186.554688 126.019531 181.136719 126.710938 175.863281 128.0625 Z M 192 150 C 215.195312 150 234 168.804688 234 192 C 234 215.195312 215.195312 234 192 234 C 168.804688 234 150 215.195312 150 192 C 150 168.804688 168.804688 150 192 150 Z M 192 150"/>
 </g>
</svg>
