<svg xmlns="http://www.w3.org/2000/svg" xmlns:xlink="http://www.w3.org/1999/xlink" width="384pt" height="384pt" version="1.1" viewBox="0 0 384 384"> <defs> <filter id="alpha" width="100%" height="100%" x="0%" y="0%" filterUnits="objectBoundingBox"> <feColorMatrix in="SourceGraphic" type="matrix" values="0 0 0 0 1 0 0 0 0 1 0 0 0 0 1 0 0 0 1 0"/> </filter> <mask id="mask2"> <g filter="url(#alpha)"> <rect width="384" height="384" x="0" y="0" style="fill:rgb(0%,0%,0%);fill-opacity:0.2"/> </g> </mask> <clipPath id="clip3"> <rect width="384" height="384" x="0" y="0"/> </clipPath> <g id="surface11" clip-path="url(#clip3)"> <path style="fill:rgb(0%,0%,0%)" d="M 240.421875 315.671875 C 239.382812 327.929688 241.207031 339.503906 247.570312 349.539062 C 271.570312 387.386719 353.171875 387.578125 376.890625 349.539062 C 382.871094 339.953125 384.671875 329.058594 383.664062 317.523438 C 382.898438 324.617188 380.75 331.355469 376.890625 337.539062 C 353.167969 375.578125 271.570312 375.386719 247.570312 337.539062 C 243.328125 330.855469 241.175781 323.457031 240.421875 315.671875 Z M 240.421875 315.671875"/> </g> </defs> <g transform="translate(16.31445,-6.0000001e-6)"> <path d="M 24.000155,4.000185 C 12.95452,4.000185 3.999848,12.954365 3.999848,24 c 0,11.045635 8.954672,19.999815 20.000307,19.999815 11.045144,0 19.999815,-8.95418 19.999815,-19.999815 0,-11.045635 -8.954671,-19.999815 -19.999815,-19.999815 z m 0,14.54532 c 3.01258,0 5.454495,2.441915 5.454495,5.454495 0,3.01258 -2.441915,5.454495 -5.454495,5.454495 -3.013071,0 -5.454495,-2.441915 -5.454495,-5.454495 0,-3.01258 2.441424,-5.454495 5.454495,-5.454495 z m 0,0" style="fill:rgb(90.196%,90.196%,90.196%);stroke:rgb(80.000%,80.000%,80.000%);stroke-width:0.25" transform="matrix(7.947144,0,0,7.947144,-15.045183,1.26855)"/> <path d="m 24.000155,15.461162 c -4.716219,0 -8.53933,3.822619 -8.53933,8.538838 0,4.716219 3.823111,8.538838 8.53933,8.538838 4.715728,0 8.538839,-3.822619 8.538839,-8.538838 0,-4.716219 -3.823111,-8.538838 -8.538839,-8.538838 z m 0,4.007434 c 2.502373,0 4.531404,2.029031 4.531404,4.531404 0,2.502373 -2.029031,4.531404 -4.531404,4.531404 -2.502373,0 -4.531895,-2.029031 -4.531895,-4.531404 0,-2.502373 2.029522,-4.531404 4.531895,-4.531404 z m 0,0" transform="matrix(7.947144,0,0,7.947144,-15.045183,1.26855)" style="fill:rgb(100.000%,100.000%,100.000%);stroke:rgb(90.196%,90.196%,90.196%);stroke-width:0.44277301"/> </g> <use width="100%" height="100%" x="0" y="0" mask="url(#mask2)" xlink:href="#surface11"/> <path d="m 310.82422,180 c -21.4336,30.00781 -94.26172,114.625 -63.24219,163.54687 24.00391,37.84766 105.59375,38.04297 129.3125,0 C 407.76953,294.05859 329.07422,210 310.83594,180 Z m 0,0" style="fill:rgb(100.000%,78.039%,18.823%)"/> </svg>
