<svg xmlns="http://www.w3.org/2000/svg" xmlns:xlink="http://www.w3.org/1999/xlink" width="512" height="512" version="1.1" viewBox="0 0 384 384"> <defs> <filter id="alpha" width="100%" height="100%" x="0%" y="0%" filterUnits="objectBoundingBox"> <feColorMatrix in="SourceGraphic" type="matrix" values="0 0 0 0 1 0 0 0 0 1 0 0 0 0 1 0 0 0 1 0"/> </filter> <mask id="mask0"> <g filter="url(#alpha)"> <rect width="384" height="384" x="0" y="0" style="fill:rgb(0%,0%,0%);fill-opacity:0.2"/> </g> </mask> <clipPath id="clip1"> <rect width="384" height="384" x="0" y="0"/> </clipPath> <g id="surface5" clip-path="url(#clip1)"> <path style="fill:rgb(0%,0%,0%)" d="M 228 72 C 195.195312 72.042969 165.417969 91.175781 151.746094 120.996094 C 140.414062 108.890625 124.582031 102.015625 108 102 C 74.863281 102 48 128.863281 48 162 C 48.007812 171.316406 50.1875 180.507812 54.363281 188.835938 C 35.292969 202.957031 24.035156 225.269531 24 249 C 24.035156 288.070312 54.054688 320.570312 93 323.695312 L 93 324 L 270 324 L 270 323.894531 C 320.144531 322.277344 359.96875 281.171875 360 231 C 359.996094 197.046875 341.488281 165.796875 311.71875 149.472656 C 308.3125 105.753906 271.851562 72.015625 228 72 Z M 228 72"/> </g> <mask id="mask1"> <g filter="url(#alpha)"> <rect width="384" height="384" x="0" y="0" style="fill:rgb(0%,0%,0%);fill-opacity:0.2"/> </g> </mask> <clipPath id="clip2"> <rect width="384" height="384" x="0" y="0"/> </clipPath> <g id="surface8" clip-path="url(#clip2)"> <path style="fill:rgb(0%,0%,0%)" d="M 192 156 C 164.007812 156.015625 140.167969 176.359375 135.75 204 L 154.101562 204 C 158.269531 186.433594 173.945312 174.023438 192 174 C 204.566406 174.035156 216.34375 180.128906 223.640625 190.359375 L 210 204 L 252 204 L 252 162 L 236.496094 177.503906 C 225.703125 163.945312 209.328125 156.03125 192 156 Z M 132 222 L 132 264 L 147.503906 248.496094 C 158.296875 262.054688 174.671875 269.96875 192 270 C 219.992188 269.984375 243.832031 249.640625 248.25 222 L 229.898438 222 C 225.730469 239.566406 210.054688 251.976562 192 252 C 179.433594 251.964844 167.65625 245.871094 160.359375 235.640625 L 174 222 Z M 132 222"/> </g> <mask id="mask2"> <g filter="url(#alpha)"> <rect width="384" height="384" x="0" y="0" style="fill:rgb(0%,0%,0%);fill-opacity:0.2"/> </g> </mask> <clipPath id="clip3"> <rect width="384" height="384" x="0" y="0"/> </clipPath> <g id="surface11" clip-path="url(#clip3)"> <path style="fill:rgb(100.000%,100.000%,100.000%)" d="M 228 66 C 195.195312 66.042969 165.417969 85.175781 151.746094 114.996094 C 140.414062 102.890625 124.582031 96.015625 108 96 C 74.863281 96 48 122.863281 48 156 C 48.027344 156.828125 48.070312 157.65625 48.128906 158.484375 C 49.988281 126.777344 76.238281 102.011719 108 102 C 124.582031 102.015625 140.414062 108.890625 151.746094 120.996094 C 165.417969 91.175781 195.195312 72.042969 228 72 C 271.851562 72.015625 308.3125 105.753906 311.71875 149.472656 C 340.800781 165.460938 359.160156 195.734375 359.894531 228.914062 C 359.957031 227.609375 359.992188 226.304688 360 225 C 359.996094 191.046875 341.488281 159.796875 311.71875 143.472656 C 308.3125 99.753906 271.851562 66.015625 228 66 Z M 52.417969 184.429688 C 34.523438 198.609375 24.0625 220.167969 24 243 C 24.027344 243.859375 24.070312 244.71875 24.128906 245.578125 C 25.179688 223.085938 36.277344 202.253906 54.363281 188.835938 C 53.65625 187.394531 53.007812 185.925781 52.417969 184.429688 Z M 52.417969 184.429688"/> </g> </defs> <g> <use mask="url(#mask0)" xlink:href="#surface5"/> <path style="fill:rgb(29.019%,68.235%,90.196%)" d="M 312 150 C 312 196.390625 274.390625 234 228 234 C 181.609375 234 144 196.390625 144 150 C 144 103.609375 181.609375 66 228 66 C 274.390625 66 312 103.609375 312 150 Z M 312 150"/> <path style="fill:rgb(29.019%,68.235%,90.196%)" d="M 174 243 C 174 284.421875 140.421875 318 99 318 C 57.578125 318 24 284.421875 24 243 C 24 201.578125 57.578125 168 99 168 C 140.421875 168 174 201.578125 174 243 Z M 174 243"/> <path style="fill:rgb(29.019%,68.235%,90.196%)" d="M 168 156 C 168 189.136719 141.136719 216 108 216 C 74.863281 216 48 189.136719 48 156 C 48 122.863281 74.863281 96 108 96 C 141.136719 96 168 122.863281 168 156 Z M 168 156"/> <path style="fill:rgb(29.019%,68.235%,90.196%)" d="M 360 225 C 360 276.363281 318.363281 318 267 318 C 215.636719 318 174 276.363281 174 225 C 174 173.636719 215.636719 132 267 132 C 318.363281 132 360 173.636719 360 225 Z M 360 225"/> <path style="fill:rgb(29.019%,68.235%,90.196%)" d="M 93 150 L 270 150 L 270 318 L 93 318 Z M 93 150"/> <use mask="url(#mask1)" xlink:href="#surface8"/> <path style="fill:rgb(100.000%,100.000%,100.000%)" d="M 192 150 C 164.007812 150.015625 140.167969 170.359375 135.75 198 L 154.101562 198 C 158.269531 180.433594 173.945312 168.023438 192 168 C 210.054688 168.023438 225.730469 180.433594 229.898438 198 L 248.214844 198 C 243.796875 170.371094 219.980469 150.035156 192 150 Z M 135.785156 216 C 140.203125 243.628906 164.019531 263.964844 192 264 C 219.992188 263.984375 243.832031 243.640625 248.25 216 L 229.898438 216 C 225.730469 233.566406 210.054688 245.976562 192 246 C 173.945312 245.976562 158.269531 233.566406 154.101562 216 Z M 135.785156 216"/> <path style="fill:rgb(100.000%,100.000%,100.000%)" d="M 252 198 L 210 198 L 252 156 Z M 252 198"/> <path style="fill:rgb(100.000%,100.000%,100.000%)" d="M 132 216 L 174 216 L 132 258 Z M 132 216"/> <use mask="url(#mask2)" xlink:href="#surface11"/> </g> </svg>
