<svg xmlns="http://www.w3.org/2000/svg" xmlns:xlink="http://www.w3.org/1999/xlink" width="384pt" height="384pt" version="1.1" viewBox="0 0 384 384"> <defs> <filter id="alpha" width="100%" height="100%" x="0%" y="0%" filterUnits="objectBoundingBox"> <feColorMatrix in="SourceGraphic" type="matrix" values="0 0 0 0 1 0 0 0 0 1 0 0 0 0 1 0 0 0 1 0"/> </filter> <mask id="mask0"> <g filter="url(#alpha)"> <rect style="fill:rgb(0%,0%,0%);fill-opacity:0.2" width="384" height="384" x="0" y="0"/> </g> </mask> <clipPath id="clip1"> <rect width="384" height="384" x="0" y="0"/> </clipPath> <g id="surface5" clip-path="url(#clip1)"> <path d="M 359.746094 190.96875 C 357.0625 281.707031 282.78125 353.902344 192 354 C 101.996094 353.9375 28.03125 282.957031 24.265625 193.03125 C 24.152344 194.6875 24.0625 196.34375 24 198 C 24 290.785156 99.214844 366 192 366 C 284.785156 366 360 290.785156 360 198 C 359.964844 195.65625 359.882812 193.308594 359.746094 190.96875 Z M 359.746094 190.96875" style="fill:rgb(0%,0%,0%)"/> </g> <mask id="mask1"> <g filter="url(#alpha)"> <rect style="fill:rgb(0%,0%,0%);fill-opacity:0.2" width="384" height="384" x="0" y="0"/> </g> </mask> <clipPath id="clip2"> <rect width="384" height="384" x="0" y="0"/> </clipPath> <g id="surface8" clip-path="url(#clip2)"> <path d="M 192 90 C 251.648438 90 300 138.351562 300 198 C 300 257.648438 251.648438 306 192 306 C 132.351562 306 84 257.648438 84 198 C 84 138.351562 132.351562 90 192 90 Z M 192 114 C 145.609375 114 108 151.609375 108 198 C 108 244.390625 145.609375 282 192 282 C 238.390625 282 276 244.390625 276 198 C 276 151.609375 238.390625 114 192 114 Z M 192 162 L 215.789062 180.46875 L 240.003906 198 L 215.800781 215.53125 L 192.003906 234 L 192.292969 210 L 156.003906 210 C 149.355469 210 144.003906 204.648438 144.003906 198 C 144.003906 191.351562 149.355469 186 156.003906 186 L 192.285156 186 L 192.003906 162 Z M 192 162" style="fill:rgb(0%,0%,0%)"/> </g> <mask id="mask2"> <g filter="url(#alpha)"> <rect style="fill:rgb(0%,0%,0%);fill-opacity:0.2" width="384" height="384" x="0" y="0"/> </g> </mask> <clipPath id="clip3"> <rect width="384" height="384" x="0" y="0"/> </clipPath> <g id="surface11" clip-path="url(#clip3)"> <path d="M 191.988281 24 C 99.210938 24.007812 24 99.222656 24 192 C 24.027344 192.984375 24.0625 193.96875 24.105469 194.953125 C 25.765625 103.40625 100.425781 30.046875 191.988281 30 L 192 30 C 283.5625 30.074219 358.199219 103.453125 359.835938 195 C 359.894531 194 359.945312 193 359.988281 192 C 359.988281 99.222656 284.777344 24.007812 192 24 Z M 191.988281 24" style="fill:rgb(100.000%,100.000%,100.000%)"/> </g> </defs> <g> <use mask="url(#mask0)" xlink:href="#surface5"/> <path d="M 360 192 C 360 284.785156 284.785156 360 192 360 C 99.214844 360 24 284.785156 24 192 C 24 99.214844 99.214844 24 192 24 C 284.785156 24 360 99.214844 360 192 Z M 360 192" style="fill:rgb(6.666%,17.647%,36.078%)"/> <use mask="url(#mask1)" xlink:href="#surface8"/> <path d="M 192 84 C 251.648438 84 300 132.351562 300 192 C 300 251.648438 251.648438 300 192 300 C 132.351562 300 84 251.648438 84 192 C 84 132.351562 132.351562 84 192 84 Z M 192 108 C 145.609375 108 108 145.609375 108 192 C 108 238.390625 145.609375 276 192 276 C 238.390625 276 276 238.390625 276 192 C 276 145.609375 238.390625 108 192 108 Z M 192 156 L 215.789062 174.46875 L 240.003906 192 L 215.800781 209.53125 L 192.003906 228 L 192.292969 204 L 156.003906 204 C 149.355469 204 144.003906 198.648438 144.003906 192 C 144.003906 185.351562 149.355469 180 156.003906 180 L 192.285156 180 L 192.003906 156 Z M 192 156" style="fill:rgb(100.000%,100.000%,100.000%)"/> <use mask="url(#mask2)" xlink:href="#surface11"/> </g> </svg>
