<svg xmlns="http://www.w3.org/2000/svg" xmlns:xlink="http://www.w3.org/1999/xlink" width="384pt" height="384pt" version="1.1" viewBox="0 0 384 384">
 <defs>
  <filter id="alpha" width="100%" height="100%" x="0%" y="0%" filterUnits="objectBoundingBox">
   <feColorMatrix in="SourceGraphic" type="matrix" values="0 0 0 0 1 0 0 0 0 1 0 0 0 0 1 0 0 0 1 0"/>
  </filter>
  <mask id="mask0">
   <g filter="url(#alpha)">
    <rect width="384" height="384" x="0" y="0" style="fill:rgb(0%,0%,0%);fill-opacity:0.2"/>
   </g>
  </mask>
  <clipPath id="clip1">
   <rect width="384" height="384" x="0" y="0"/>
  </clipPath>
  <g id="surface5" clip-path="url(#clip1)">
   <path style="fill:rgb(0%,0%,0%)" d="M 24 337.199219 L 24 349.199219 C 24 358.5 31.496094 366 40.804688 366 L 259.203125 366 C 268.503906 366 276.003906 358.5 276.003906 349.199219 L 276.003906 337.199219 C 276.003906 346.5 268.503906 354 259.203125 354 L 40.804688 354 C 31.503906 354 24.003906 346.5 24.003906 337.199219 Z M 24 337.199219"/>
  </g>
  <mask id="mask1">
   <g filter="url(#alpha)">
    <rect width="384" height="384" x="0" y="0" style="fill:rgb(0%,0%,0%);fill-opacity:0.2"/>
   </g>
  </mask>
  <clipPath id="clip2">
   <rect width="384" height="384" x="0" y="0"/>
  </clipPath>
  <g id="surface8" clip-path="url(#clip2)">
   <path style="fill:rgb(0%,0%,0%)" d="M 108 253.199219 L 108 265.199219 C 108 274.5 115.496094 282 124.800781 282 L 343.1875 282 C 352.5 282 360 274.5 360 265.199219 L 360 253.199219 C 360 262.5 352.5 270 343.199219 270 L 124.800781 270 C 115.496094 270 108 262.5 108 253.199219 Z M 108 253.199219"/>
  </g>
  <mask id="mask2">
   <g filter="url(#alpha)">
    <rect width="384" height="384" x="0" y="0" style="fill:rgb(0%,0%,0%);fill-opacity:0.2"/>
   </g>
  </mask>
  <clipPath id="clip3">
   <rect width="384" height="384" x="0" y="0"/>
  </clipPath>
  <g id="surface11" clip-path="url(#clip3)">
   <path style="fill:rgb(0%,0%,0%)" d="M 24 169.199219 L 24 181.199219 C 24 190.5 31.496094 198 40.804688 198 L 259.203125 198 C 268.503906 198 276.003906 190.5 276.003906 181.199219 L 276.003906 169.199219 C 276.003906 178.5 268.503906 186 259.203125 186 L 40.804688 186 C 31.503906 186 24.003906 178.5 24.003906 169.199219 Z M 24 169.199219"/>
  </g>
  <mask id="mask3">
   <g filter="url(#alpha)">
    <rect width="384" height="384" x="0" y="0" style="fill:rgb(0%,0%,0%);fill-opacity:0.2"/>
   </g>
  </mask>
  <clipPath id="clip4">
   <rect width="384" height="384" x="0" y="0"/>
  </clipPath>
  <g id="surface14" clip-path="url(#clip4)">
   <path style="fill:rgb(0%,0%,0%)" d="M 108 85.195312 L 108 97.195312 C 108 106.503906 115.496094 114 124.800781 114 L 343.1875 114 C 352.5 114 360 106.503906 360 97.195312 L 360 85.195312 C 360 94.503906 352.5 102 343.199219 102 L 124.800781 102 C 115.496094 102 108 94.503906 108 85.195312 Z M 108 85.195312"/>
  </g>
  <mask id="mask4">
   <g filter="url(#alpha)">
    <rect width="384" height="384" x="0" y="0" style="fill:rgb(0%,0%,0%);fill-opacity:0.2"/>
   </g>
  </mask>
  <clipPath id="clip5">
   <rect width="384" height="384" x="0" y="0"/>
  </clipPath>
  <g id="surface17" clip-path="url(#clip5)">
   <path style="fill:rgb(100%,100%,100%)" d="M 124.804688 24 C 115.503906 24 108 31.496094 108 40.804688 L 108 46.804688 C 108 37.496094 115.503906 30 124.804688 30 L 343.195312 30 C 352.496094 30 360 37.496094 360 46.804688 L 360 40.804688 C 360 31.496094 352.496094 24 343.195312 24 Z M 124.804688 24"/>
  </g>
  <mask id="mask5">
   <g filter="url(#alpha)">
    <rect width="384" height="384" x="0" y="0" style="fill:rgb(0%,0%,0%);fill-opacity:0.2"/>
   </g>
  </mask>
  <clipPath id="clip6">
   <rect width="384" height="384" x="0" y="0"/>
  </clipPath>
  <g id="surface20" clip-path="url(#clip6)">
   <path style="fill:rgb(100%,100%,100%)" d="M 40.804688 108 C 31.496094 108 24 115.503906 24 124.804688 L 24 130.804688 C 24 121.503906 31.496094 114 40.804688 114 L 259.207031 114 C 268.507812 114 276 121.503906 276 130.804688 L 276 124.804688 C 276 115.503906 268.507812 108 259.207031 108 Z M 40.804688 108"/>
  </g>
  <mask id="mask6">
   <g filter="url(#alpha)">
    <rect width="384" height="384" x="0" y="0" style="fill:rgb(0%,0%,0%);fill-opacity:0.2"/>
   </g>
  </mask>
  <clipPath id="clip7">
   <rect width="384" height="384" x="0" y="0"/>
  </clipPath>
  <g id="surface23" clip-path="url(#clip7)">
   <path style="fill:rgb(100%,100%,100%)" d="M 124.804688 192 C 115.503906 192 108 199.503906 108 208.804688 L 108 214.804688 C 108 205.503906 115.503906 198 124.804688 198 L 343.195312 198 C 352.496094 198 360 205.503906 360 214.804688 L 360 208.804688 C 360 199.503906 352.496094 192 343.195312 192 Z M 124.804688 192"/>
  </g>
  <mask id="mask7">
   <g filter="url(#alpha)">
    <rect width="384" height="384" x="0" y="0" style="fill:rgb(0%,0%,0%);fill-opacity:0.2"/>
   </g>
  </mask>
  <clipPath id="clip8">
   <rect width="384" height="384" x="0" y="0"/>
  </clipPath>
  <g id="surface26" clip-path="url(#clip8)">
   <path style="fill:rgb(100%,100%,100%)" d="M 40.804688 276 C 31.496094 276 24 283.503906 24 292.804688 L 24 298.804688 C 24 289.503906 31.496094 282 40.804688 282 L 259.207031 282 C 268.507812 282 276 289.503906 276 298.804688 L 276 292.804688 C 276 283.503906 268.507812 276 259.207031 276 Z M 40.804688 276"/>
  </g>
 </defs>
 <g>
  <use mask="url(#mask0)" xlink:href="#surface5"/>
  <path style="fill:rgb(5.882353%,63.137255%,37.254902%)" d="M 276 343.199219 L 276 292.800781 C 276 283.523438 268.476562 276 259.199219 276 L 40.800781 276 C 31.523438 276 24 283.523438 24 292.800781 L 24 343.199219 C 24 352.476562 31.523438 360 40.800781 360 L 259.199219 360 C 268.476562 360 276 352.476562 276 343.199219 Z M 276 343.199219"/>
  <use mask="url(#mask1)" xlink:href="#surface8"/>
  <path style="fill:rgb(29.019608%,68.235294%,90.980392%)" d="M 360 259.199219 L 360 208.800781 C 360 199.523438 352.476562 192 343.199219 192 L 124.800781 192 C 115.523438 192 108 199.523438 108 208.800781 L 108 259.199219 C 108 268.476562 115.523438 276 124.800781 276 L 343.199219 276 C 352.476562 276 360 268.476562 360 259.199219 Z M 360 259.199219"/>
  <use mask="url(#mask2)" xlink:href="#surface11"/>
  <path style="fill:rgb(96.470588%,27.843137%,27.843137%)" d="M 276 175.199219 L 276 124.800781 C 276 115.523438 268.476562 108 259.199219 108 L 40.800781 108 C 31.523438 108 24 115.523438 24 124.800781 L 24 175.199219 C 24 184.476562 31.523438 192 40.800781 192 L 259.199219 192 C 268.476562 192 276 184.476562 276 175.199219 Z M 276 175.199219"/>
  <use mask="url(#mask3)" xlink:href="#surface14"/>
  <path style="fill:rgb(97.647059%,87.058824%,41.176471%)" d="M 360 91.199219 L 360 40.800781 C 360 31.523438 352.476562 24 343.199219 24 L 124.800781 24 C 115.523438 24 108 31.523438 108 40.800781 L 108 91.199219 C 108 100.476562 115.523438 108 124.800781 108 L 343.199219 108 C 352.476562 108 360 100.476562 360 91.199219 Z M 360 91.199219"/>
  <use mask="url(#mask4)" xlink:href="#surface17"/>
  <use mask="url(#mask5)" xlink:href="#surface20"/>
  <use mask="url(#mask6)" xlink:href="#surface23"/>
  <use mask="url(#mask7)" xlink:href="#surface26"/>
 </g>
</svg>
