<svg xmlns="http://www.w3.org/2000/svg" xmlns:xlink="http://www.w3.org/1999/xlink" width="384pt" height="384pt" version="1.1" viewBox="0 0 384 384">
 <defs>
  <filter id="alpha" width="100%" height="100%" x="0%" y="0%" filterUnits="objectBoundingBox">
   <feColorMatrix in="SourceGraphic" type="matrix" values="0 0 0 0 1 0 0 0 0 1 0 0 0 0 1 0 0 0 1 0"/>
  </filter>
  <mask id="mask0">
   <g filter="url(#alpha)">
    <rect width="384" height="384" x="0" y="0" style="fill:rgb(0%,0%,0%);fill-opacity:0.2"/>
   </g>
  </mask>
  <clipPath id="clip1">
   <rect width="384" height="384" x="0" y="0"/>
  </clipPath>
  <g id="surface5" clip-path="url(#clip1)">
   <path style="fill:rgb(0%,0%,0%)" d="M 24.257812 178.96875 C 24.113281 181.308594 24.027344 183.65625 24 186 C 24.003906 232.105469 45.96875 275.84375 84 305.484375 L 84 293.484375 C 47.464844 264.929688 25.738281 223.289062 24.257812 178.96875 Z M 359.753906 181.03125 C 355.707031 264.34375 281.804688 329.964844 191.992188 330 C 170.273438 329.96875 148.761719 326.03125 128.65625 318.394531 L 84 354 L 84 366 L 128.652344 330.394531 C 148.761719 338.03125 170.273438 341.972656 192 342 C 284.785156 342 360 272.15625 360 186 C 359.945312 184.34375 359.859375 182.6875 359.746094 181.03125 Z M 359.753906 181.03125"/>
  </g>
  <mask id="mask1">
   <g filter="url(#alpha)">
    <rect width="384" height="384" x="0" y="0" style="fill:rgb(0%,0%,0%);fill-opacity:0.2"/>
   </g>
  </mask>
  <clipPath id="clip2">
   <rect width="384" height="384" x="0" y="0"/>
  </clipPath>
  <g id="surface8" clip-path="url(#clip2)">
   <path style="fill:rgb(100%,100%,100%)" d="M 191.988281 24 C 99.210938 24.007812 24 93.847656 24 180 C 24.035156 180.847656 24.078125 181.695312 24.128906 182.542969 C 26.152344 97.789062 100.695312 30.050781 191.988281 30 L 192 30 C 283.714844 30.0625 358.425781 98.410156 359.859375 183.5625 C 359.917969 182.375 359.960938 181.1875 359.988281 180 C 359.988281 93.847656 284.777344 24.007812 192 24 Z M 191.988281 24"/>
  </g>
  <mask id="mask2">
   <g filter="url(#alpha)">
    <rect width="384" height="384" x="0" y="0" style="fill:rgb(0%,0%,0%);fill-opacity:0.101961"/>
   </g>
  </mask>
  <clipPath id="clip3">
   <rect width="384" height="384" x="0" y="0"/>
  </clipPath>
  <g id="surface11" clip-path="url(#clip3)">
   <path style="fill:rgb(0%,0%,0%)" d="M 192 78 C 132.351562 78 84 126.351562 84 186 C 84 245.644531 132.351562 294 192 294 C 196.011719 293.957031 200.019531 293.691406 204 293.203125 L 204 329.4375 C 216.199219 328.660156 228.269531 326.648438 240 323.4375 L 240 282.695312 C 276.742188 264.46875 299.984375 227 300 185.988281 C 300 126.339844 251.648438 77.988281 192 77.988281 Z M 192 78"/>
  </g>
  <mask id="mask3">
   <g filter="url(#alpha)">
    <rect width="384" height="384" x="0" y="0" style="fill:rgb(0%,0%,0%);fill-opacity:0.101961"/>
   </g>
  </mask>
  <clipPath id="clip4">
   <rect width="384" height="384" x="0" y="0"/>
  </clipPath>
  <g id="surface14" clip-path="url(#clip4)">
   <path style="fill:rgb(0%,0%,0%)" d="M 192 125.996094 C 158.863281 125.996094 132 152.859375 132 185.996094 L 132 263.691406 C 142.957031 271 155.15625 276.242188 168 279.160156 L 168 240.957031 C 175.566406 244.273438 183.738281 245.988281 192 246 C 225.136719 246 252 219.136719 252 186 C 252 152.863281 225.136719 126 192 126 Z M 192 125.996094"/>
  </g>
 </defs>
 <g>
  <use mask="url(#mask0)" xlink:href="#surface5"/>
  <path style="fill:rgb(100%,78.431373%,19.215686%)" d="M 192 24 C 99.214844 24 24 93.84375 24 180 C 24.003906 226.105469 45.96875 269.84375 84 299.484375 L 84 360 L 128.652344 324.394531 C 148.761719 332.03125 170.273438 335.972656 192 336 C 284.785156 336 360 266.15625 360 180 C 360 93.84375 284.785156 24 192 24 Z M 192 24"/>
  <use mask="url(#mask1)" xlink:href="#surface8"/>
  <use mask="url(#mask2)" xlink:href="#surface11"/>
  <path style="fill:rgb(41.568627%,30.196078%,21.960784%)" d="M 192 72 C 132.351562 72 84 120.351562 84 180 C 84 239.648438 132.351562 288 192 288 C 196.011719 287.957031 200.019531 287.691406 204 287.203125 L 204 335.4375 C 216.199219 334.660156 228.269531 332.648438 240 329.4375 L 240 276.695312 C 276.742188 258.46875 299.984375 221.003906 300 179.988281 C 300 120.34375 251.648438 71.988281 192 71.988281 Z M 192 72"/>
  <use mask="url(#mask3)" xlink:href="#surface14"/>
  <path style="fill:rgb(13.333333%,21.176471%,33.72549%)" d="M 192 120 C 158.863281 120 132 146.863281 132 180 L 132 269.695312 C 142.957031 277.003906 155.15625 282.246094 168 285.164062 L 168 234.960938 C 175.566406 238.277344 183.738281 239.992188 192 240 C 225.136719 240 252 213.136719 252 180 C 252 146.863281 225.136719 120 192 120 Z M 192 120"/>
 </g>
</svg>
