<svg xmlns="http://www.w3.org/2000/svg" width="384pt" height="384pt" version="1.1" viewBox="0 0 384 384">
 <defs>
  <linearGradient id="linear0" x1="400.512" x2="400.699" y1="546.074" y2="517.773" gradientTransform="matrix(13.142868,0,0,13.142868,-5072.657214,-6797.350279)" gradientUnits="userSpaceOnUse">
   <stop offset="0" style="stop-color:rgb(100%,57.647059%,0%)"/>
   <stop offset="1" style="stop-color:rgb(100%,84.313725%,0.784314%)"/>
  </linearGradient>
 </defs>
 <g>
  <path style="fill:url(#linear0)" d="M 375.996094 192 C 375.996094 293.621094 293.613281 376 191.996094 376 C 90.375 376 7.996094 293.621094 7.996094 192 C 7.996094 90.378906 90.375 8 191.996094 8 C 293.613281 8 375.996094 90.378906 375.996094 192 Z M 375.996094 192"/>
  <path style="fill:rgb(20.392157%,14.901961%,0%)" d="M 87.082031 287.933594 L 86.90625 195.628906 L 141.144531 195.621094 L 141.316406 287.921875 Z M 87.082031 287.933594"/>
  <path style="fill:rgb(20.392157%,14.901961%,0%)" d="M 163.605469 287.648438 L 163.429688 145.511719 L 217.664062 145.492188 L 217.839844 287.628906 Z M 163.605469 287.648438"/>
  <path style="fill:rgb(20.392157%,14.901961%,0%)" d="M 242.847656 288.050781 L 242.671875 96.0625 L 296.910156 96.042969 L 297.082031 288.03125 Z M 242.847656 288.050781"/>
 </g>
</svg>
