<svg width="512" height="512" version="1.1" viewBox="0 0 384 384" xmlns="http://www.w3.org/2000/svg"><path d="m360.75 192c0 93.199-75.551 168.75-168.75 168.75s-168.75-75.551-168.75-168.75 75.551-168.75 168.75-168.75 168.75 75.551 168.75 168.75z" fill="#fff"/><path d="m241.38 133.73c5.0781 37.398-34.672 55.391-73.07 46.258-20.848-4.9609-33.914-26.574-26.812-50.277 34.211-11.762 63.102 12.043 99.883 4.0195" fill="#d41717" fill-rule="evenodd"/><path d="m251.1 137.74c-1.4492-20.207-7.7226-38.605-15.602-56.547-0.78906-1.8086-3.9883-1.207-6.4961-1.3008 4.8906 18.379 15.98 38.254 16.246 59.145 0.42969 33.191-24.297 48.105-55.434 49.508-31.137-1.4024-55.863-16.316-55.434-49.508 0.26563-20.891 11.355-40.766 16.246-59.145-2.5078 0.09375-5.707-0.50781-6.5 1.3008-7.875 17.941-14.148 36.34-15.598 56.547-0.30859 4.3125-0.51172 9.7148 0 14.297 3.4023 30.438 34.555 33.426 49.398 51.996 8.832 11.055 9.2695 89.738 5.1992 102.04-3.1328 9.4648-15.934 12.203-26.648 13.648-3.9062 0.52734-10.301-0.69532-12.352 3.9023 10.953 2.3555 28.449 3.1211 45.688 3.0508 17.238 0.0703 34.734-0.69531 45.684-3.0508-2.0469-4.5977-8.4414-3.375-12.348-3.9023-10.715-1.4453-23.516-4.1836-26.648-13.648-4.0703-12.305-3.6328-90.988 5.1992-102.04 14.84-18.57 45.996-21.559 49.398-51.996 0.51172-4.582 0.3086-9.9844 0-14.297"/><path transform="scale(.75)" d="m31.064 251c-0.036282 1.6632-0.064453 3.3281-0.064453 5 0 124.27 100.73 225 225 225s225-100.73 225-225c0-1.6719-0.02817-3.3368-0.06445-5-2.6604 121.96-102.34 220-224.94 220s-222.28-98.045-224.94-220z" opacity=".3" stroke-width="1.3333"/><path d="m384 294c0 49.706-40.294 90-90 90s-90-40.294-90-90 40.294-90 90-90 90 40.294 90 90z" fill="#3c0707" opacity=".3" stroke-width=".97425"/><path d="m384 286.5c0 49.706-40.294 90-90 90s-90-40.294-90-90 40.294-90 90-90 90 40.294 90 90z" fill="#d41717" stroke-width=".97425"/><path d="m280.65 328.86c0-1.8662 0.2666-3.4454 0.80272-4.7373 0.53907-1.2891 1.2803-2.332 2.2383-3.1289 0.9492-0.79395 2.0742-1.3711 3.3662-1.7285 1.2891-0.35449 2.669-0.53613 4.1396-0.53613 1.3916 0 2.7158 0.18164 3.9639 0.53613 1.251 0.35742 2.3525 0.93458 3.3106 1.7285 0.9492 0.79688 1.7021 1.8398 2.2588 3.1289 0.55957 1.292 0.83498 2.8711 0.83498 4.7373 0 1.79-0.27539 3.3223-0.83498 4.5938-0.55664 1.2656-1.3096 2.3262-2.2588 3.1611-0.95798 0.82914-2.0596 1.4356-3.3106 1.8164-1.2481 0.375-2.5723 0.56543-3.9639 0.56543-1.4707 0-2.8506-0.19043-4.1396-0.56544-1.292-0.38085-2.417-0.9873-3.3662-1.8164-0.95798-0.83497-1.7021-1.8956-2.2383-3.1611-0.53027-1.2686-0.7998-2.8008-0.7998-4.5908m1.9688-20.385v-4.4062c0-2.0273 0.208-3.8672 0.62402-5.5137 0.41602-1.6523 1.0517-3.2168 1.9072-4.708 0.85253-1.4883 1.957-2.9414 3.3046-4.3506 1.3535-1.4121 2.9854-2.8711 4.8896-4.3828 1.67-1.3096 3.0791-2.4815 4.2305-3.5186 1.1543-1.0283 2.083-2.0537 2.8008-3.0704 0.71484-1.0108 1.2334-2.0713 1.5498-3.1816 0.31934-1.1162 0.48047-2.4111 0.48047-3.876 0-2.2646-0.77048-4.1396-2.2969-5.6044-1.5293-1.4707-3.8642-2.206-7.0049-2.206-2.7363 0-5.6894 0.57714-8.8508 1.7256-3.1523 1.1543-6.4277 2.5635-9.8025 4.2334l-6.0762-13.172c1.7021-0.99315 3.5625-1.9365 5.5694-2.8271 2.0098-0.89648 4.0957-1.6904 6.2578-2.3877 2.165-0.69141 4.3623-1.2422 6.5859-1.6377 2.2266-0.39843 4.4092-0.59765 6.5596-0.59765 4.0517 0 7.7048 0.48926 10.96 1.4619 3.2607 0.97268 6.0264 2.3906 8.2853 4.2598 2.2706 1.8662 4.0048 4.1367 5.2178 6.7969 1.2129 2.6631 1.8194 5.7012 1.8194 9.117 0 2.5019-0.28125 4.7373-0.83497 6.7061-0.55373 1.9688-1.3829 3.7969-2.4698 5.4844-1.0986 1.6904-2.4668 3.3194-4.1162 4.8867-1.6465 1.5674-3.5684 3.2285-5.751 4.9746-1.67 1.3125-3.0322 2.458-4.0869 3.4306-1.0488 0.97267-1.875 1.8984-2.4698 2.7686-0.59472 0.876-1.0019 1.7812-1.2217 2.7158-0.2168 0.92872-0.32813 2.0302-0.32813 3.3017v3.5771z" opacity=".3" stroke-width=".75"/><path d="m280.65 321.36c0-1.8662 0.2666-3.4454 0.80272-4.7373 0.53907-1.2891 1.2803-2.332 2.2383-3.1289 0.9492-0.79395 2.0742-1.3711 3.3662-1.7285 1.2891-0.35449 2.669-0.53613 4.1396-0.53613 1.3916 0 2.7158 0.18164 3.9639 0.53613 1.251 0.35742 2.3525 0.93458 3.3106 1.7285 0.9492 0.79688 1.7021 1.8398 2.2588 3.1289 0.55957 1.292 0.83498 2.8711 0.83498 4.7373 0 1.79-0.27539 3.3223-0.83498 4.5938-0.55664 1.2656-1.3096 2.3262-2.2588 3.1611-0.95798 0.82913-2.0596 1.4356-3.3106 1.8164-1.2481 0.375-2.5723 0.56543-3.9639 0.56543-1.4707 0-2.8506-0.19043-4.1396-0.56544-1.292-0.38085-2.417-0.9873-3.3662-1.8164-0.95798-0.83497-1.7021-1.8956-2.2383-3.1611-0.53027-1.2686-0.7998-2.8008-0.7998-4.5908m1.9688-20.385v-4.4062c0-2.0273 0.208-3.8672 0.62402-5.5137 0.41602-1.6523 1.0517-3.2168 1.9072-4.708 0.85253-1.4883 1.957-2.9414 3.3046-4.3506 1.3535-1.4121 2.9854-2.8711 4.8896-4.3828 1.67-1.3096 3.0791-2.4815 4.2305-3.5186 1.1543-1.0283 2.083-2.0537 2.8008-3.0704 0.71484-1.0108 1.2334-2.0713 1.5498-3.1816 0.31934-1.1162 0.48047-2.4111 0.48047-3.876 0-2.2646-0.77048-4.1396-2.2969-5.6044-1.5293-1.4707-3.8642-2.206-7.0049-2.206-2.7363 0-5.6894 0.57714-8.8508 1.7256-3.1523 1.1543-6.4277 2.5635-9.8025 4.2334l-6.0762-13.172c1.7021-0.99315 3.5625-1.9365 5.5694-2.8271 2.0098-0.89648 4.0957-1.6904 6.2578-2.3877 2.165-0.69141 4.3623-1.2422 6.5859-1.6377 2.2266-0.39843 4.4092-0.59765 6.5596-0.59765 4.0517 0 7.7048 0.48926 10.96 1.4619 3.2607 0.97268 6.0264 2.3906 8.2853 4.2598 2.2706 1.8662 4.0048 4.1367 5.2178 6.7969 1.2129 2.6631 1.8194 5.7012 1.8194 9.117 0 2.5019-0.28125 4.7373-0.83497 6.7061-0.55373 1.9688-1.3829 3.7969-2.4698 5.4844-1.0986 1.6904-2.4668 3.3194-4.1162 4.8867-1.6465 1.5674-3.5684 3.2285-5.751 4.9746-1.67 1.3125-3.0322 2.458-4.0869 3.4306-1.0488 0.97267-1.875 1.8984-2.4698 2.7686-0.59472 0.876-1.0019 1.7812-1.2217 2.7158-0.2168 0.92872-0.32813 2.0302-0.32813 3.3017v3.5771z" fill="#fff" stroke-width=".75"/><path transform="scale(.75)" d="m256 31c-124.27 0-225 100.73-225 225 0 1.6719 0.028171 3.3368 0.064453 5 2.6604-121.96 102.34-220 224.94-220 122.59 0 222.28 98.045 224.94 220 0.03628-1.6632 0.06445-3.3281 0.06445-5 0-124.27-100.73-225-225-225z" opacity=".1" stroke-width="1.3333"/></svg>
