<svg width="512" height="512" version="1.1" viewBox="0 0 384 384" xmlns="http://www.w3.org/2000/svg"><defs><clipPath><rect width="384" height="384"/></clipPath><clipPath><rect width="384" height="384"/></clipPath><linearGradient id="a" x1="31.683" x2="-114.89" y1="5.608" y2="-603.16" gradientTransform="matrix(.35165 0 0 -.35165 102.4 148.65)" gradientUnits="userSpaceOnUse"><stop stop-color="#2c2f3a" stop-opacity=".16078" offset=".33"/><stop stop-color="#2c2f3a" stop-opacity="0" offset="1"/></linearGradient><clipPath><rect width="384" height="384"/></clipPath><clipPath><rect width="384" height="384"/></clipPath><clipPath><rect width="384" height="384"/></clipPath><clipPath><rect width="384" height="384"/></clipPath><clipPath><rect width="384" height="384"/></clipPath></defs><path d="m342.11 172.71c0 83.449-67.652 151.1-151.1 151.1s-151.1-67.648-151.1-151.1c0-83.449 67.648-151.1 151.1-151.1s151.1 67.648 151.1 151.1z" fill="#0ba05d"/><path transform="scale(.75)" d="m53.277 225.29c-0.040467 1.6615-0.064453 3.3287-0.064453 5 0 111.27 90.199 201.46 201.46 201.46 111.27 0 201.47-90.197 201.47-201.46 0-1.6713-0.02398-3.3385-0.06445-5-2.6547 108.95-91.811 196.46-201.4 196.46-109.59 0-198.75-87.508-201.4-196.46z" opacity=".3" stroke-width="1.3333"/><path d="m191.01 21.617c-83.449 0-151.1 67.649-151.1 151.1h302.2c0-83.449-67.652-151.1-151.1-151.1z" fill="#09804a"/><path d="m174.55 88.711v28.305h-8.9336c-8.6562 0-15.805 7.1484-15.805 15.805v35.867h0.13672c-0.13672 1.2344 0.6875 2.7461 2.3359 4.5352 0.13671 0.13671 0.13671 0.13671 0.13671 0.27343l5.4961 5.4961-63.348 109.8c7.2812 6.1836 15.117 11.543 23.359 16.215 21.988 12.367 47.137 19.516 74.207 19.516 1.6836 0 3.3594-0.0273 5.0312-0.082 25.051-0.83203 48.562-7.8398 69.176-19.434 1.0312-0.58204 2.0547-1.1797 3.0742-1.7891 7.1211-4.2656 13.914-9.1328 20.285-14.426 1.3906-1.1758 2.7617-2.375 4.1094-3.6016 20.203-18.363 35.312-42.031 43.301-68.957 0.55078-1.7852 0.96094-3.5703 1.5117-5.2188l-37.652-37.652v-0.27734h-7.0078l-84.375-84.371z" fill="url(#a)"/><path d="m313.2 338.89c-0.1367-1.375-0.55077-2.6133-1.2383-3.8476l-43.973-76.27-14.566-25.422-27.207-46.996-20.75 20.75 25.559 44.387 14.016 24.324 42.465 73.379c0.6836 1.2383 1.6484 2.1992 2.7461 2.8867l21.164 14.43c0.82422 0.54687 1.7852 0.54687 2.6094 0.13671 0.82422-0.55077 1.2383-1.375 1.2383-2.3359z" fill="#060606" opacity=".3"/><path d="m313.2 331.39c-0.13671-1.375-0.55078-2.6133-1.2383-3.8476l-43.973-76.27-14.566-25.422-27.207-46.996-20.75 20.75 25.559 44.387 14.016 24.324 42.465 73.379c0.6836 1.2383 1.6484 2.1992 2.7461 2.8867l21.164 14.43c0.82422 0.54687 1.7852 0.54687 2.6094 0.13672 0.82422-0.55078 1.2383-1.375 1.2383-2.3359z" fill="#e5e5e5"/><path d="m272.94 180.58c0 20.066-7.4219 38.48-19.652 52.77-6.3203 7.2852-13.742 13.469-22.262 18.141-11.543 6.457-24.875 10.031-39.027 10.031s-27.484-3.7109-38.891-10.031l25.562-44.387-20.75-20.75-85.887 148.69c-0.6875 1.2344-1.1016 2.4727-1.2383 3.8476l-1.9258 25.559c-0.13672 0.96093 0.41406 1.7852 1.2383 2.3359 0.82422 0.55079 1.7852 0.41406 2.6094-0.13672l21.164-14.293c1.1016-0.82422 2.0625-1.7852 2.75-2.8828l42.461-73.52c15.664 8.793 33.805 13.879 53.043 13.879s37.379-5.0859 53.043-13.879c8.3828-4.6719 16.078-10.445 22.812-17.043 20.34-19.785 33.117-47.547 33.117-78.187z" opacity=".3"/><path d="m272.94 173.08c0 20.066-7.4219 38.48-19.652 52.77-6.3203 7.2852-13.742 13.469-22.262 18.141-11.543 6.457-24.875 10.031-39.027 10.031s-27.484-3.7109-38.891-10.031l25.562-44.387-20.75-20.75-85.887 148.69c-0.6875 1.2344-1.1016 2.4726-1.2383 3.8476l-1.9258 25.559c-0.13672 0.96094 0.41406 1.7852 1.2383 2.3359 0.82422 0.55078 1.7852 0.41406 2.6094-0.13672l21.164-14.293c1.1016-0.82422 2.0625-1.7852 2.75-2.8828l42.461-73.52c15.664 8.793 33.805 13.879 53.043 13.879s37.379-5.0859 53.043-13.879c8.3828-4.6719 16.078-10.445 22.812-17.043 20.34-19.785 33.117-47.547 33.117-78.188z" fill="#fff"/><path d="m218.38 124.38h-8.793v-28.309h-35.043v28.309h-8.9297c-8.6602 0-15.805 7.1445-15.805 15.805v35.863h0.13672c-0.13672 1.375 0.6875 2.8867 2.4726 4.6758l31.746 31.742c2.1992 2.1992 5.082 3.2969 7.832 3.2969v-0.13672l0.13672 0.13672c2.8867 0 5.7734-1.0977 7.832-3.2969l31.746-31.742c1.7852-1.7891 2.4727-3.4375 2.4727-4.6758h0.13672v-35.727c-0.13672-8.7969-7.1445-15.941-15.941-15.941zm-26.246 56.203h-0.13672c-11.543 0-21.023-9.4805-21.023-21.16 0-11.68 9.4805-21.164 21.023-21.164v-0.27344l0.13672 0.27344c11.543 0.13672 21.027 9.4844 21.027 21.164 0 11.68-9.4844 21.023-21.027 21.16z" opacity=".3"/><path d="m218.38 116.88h-8.793v-28.309h-35.043v28.309h-8.9297c-8.6602 0-15.805 7.1445-15.805 15.805v35.863h0.13672c-0.13672 1.375 0.6875 2.8867 2.4726 4.6758l31.746 31.742c2.1992 2.1992 5.082 3.2969 7.832 3.2969v-0.13672l0.13672 0.13672c2.8867 0 5.7734-1.0977 7.832-3.2969l31.746-31.742c1.7852-1.7891 2.4727-3.4375 2.4727-4.6758h0.13672v-35.727c-0.13672-8.7969-7.1445-15.941-15.941-15.941zm-26.246 56.203h-0.13672c-11.543 0-21.023-9.4805-21.023-21.16 0-11.68 9.4805-21.164 21.023-21.164v-0.27344l0.13672 0.27344c11.543 0.13672 21.027 9.4844 21.027 21.164 0 11.68-9.4844 21.023-21.027 21.16z" fill="#373b49"/><path transform="scale(.75)" d="m254.68 28.822c-111.27 0-201.46 90.199-201.46 201.46 0 1.6719 0.023956 3.3378 0.064453 5 2.6536-108.96 91.806-196.46 201.4-196.46 109.59 0 198.75 87.509 201.4 196.46 0.0405-1.6622 0.06445-3.3281 0.06445-5 0-111.27-90.203-201.46-201.47-201.46z" fill="#fff" opacity=".3" stroke-width="1.3333"/></svg>
