<svg version="1.1" viewBox="0 0 512 512" xmlns="http://www.w3.org/2000/svg"><rect x="31" y="31" width="450" height="450" rx="30" ry="30" fill="#265ab1" style="paint-order:normal"/><path d="m226.07 115v125.33h152v-125.33h-76zm43.332 22h38.43v26.838h28.564v51.344h-66.994zm45.705 3.334 17.312 18.803h-17.312zm-32.988 35.207v3.8359h41.42v-3.8359zm-66.76 0.75781-88.623 0.70117-0.3457 90 0.29101 91.668 283.91-0.44336-0.32617-180.28-11.646-1.334-10.551 0.39258-0.35546 36.344-0.35547 36.344-171.29-0.6875-0.35546-36.352zm66.76 5.8477v3.8359h41.42v-3.8359zm0 6.6055v3.8359h41.42v-3.8359zm0 6.6055v3.834h41.42v-3.834zm-129.12 4.4727h43.465v7.9707h-43.465zm0 13.457h43.465v7.9707h-43.465zm-51.6 11.713v96h16v-96zm51.6 1.7441h43.465v7.9707h-43.465zm116.14 31.346c2.1433 0 2.9668 2.0218 2.9668 4.5898-0.0669 12.378 0.01 17.914 4e-3 30.963h17.789c5.999 0 5.6809 4.5841 2.9844 8.9023-2.6966 4.3167-16.042 25.987-23.744 38.584-1.4603 2.3867-3.7927 5.9355-5.9375 5.9355-2.1433 0-2.9668-2.0218-2.9668-4.5898 0.0669-12.378-0.01-23.912-4e-3 -36.961h-17.789c-5.9991 0-5.6809-4.5861-2.9844-8.9043 2.6966-4.3167 16.042-19.987 23.744-32.584 1.4603-2.3867 3.7927-5.9355 5.9375-5.9355zm-117.19 32.576h43.465v7.9707h-43.465zm0 13.457h43.465v7.9707h-43.465zm0 13.457h43.465v7.9707h-43.465zm0 13.457h43.465v7.9707h-43.465zm1.8164 34.984v13.646h40.967v-13.646zm202.67 0v13.646h40.967v-13.646zm-202.67 17.332v13.646h40.967v-13.646zm202.67 0v13.646h40.967v-13.646z" fill="#fff" stroke-width="1.3333"/><path d="m31 441v10c0 16.62 13.38 30 30 30h390c16.62 0 30-13.38 30-30v-10c0 16.62-13.38 30-30 30h-390c-16.62 0-30-13.38-30-30z" opacity=".3" style="paint-order:normal"/><path d="m61 31c-16.62 0-30 13.38-30 30v10c0-16.62 13.38-30 30-30h390c16.62 0 30 13.38 30 30v-10c0-16.62-13.38-30-30-30h-390z" fill="#fff" opacity=".2" style="paint-order:normal"/><path d="m226.07 115v6h76 76v-6h-76-76zm89.037 44.137v4.7012h16.117l-4.3301-4.7012h-11.787zm-32.988 16.404v3.8359h41.42v-3.8359h-41.42zm-66.76 0.75781-88.623 0.70117-0.3457 90 0.00976 3.2852 0.33594-87.285 44.312-0.35156 44.311-0.34961 0.35547 36.35 0.35547 36.352 171.29 0.6875 0.71094-72.688 10.551-0.39258 11.646 1.334 0.31445 174.28h0.01172l-0.32617-180.28-11.646-1.334-10.551 0.39258-0.71094 72.688-171.29-0.6875-0.35547-36.352-0.35547-36.35zm66.76 9.0781v0.60547h41.42v-0.60547h-41.42zm0 6.6055v0.60547h41.42v-0.60547h-41.42zm0 6.6055v0.60352h41.42v-0.60352h-41.42zm-129.12 9.2129v5.4863h43.465v-5.4863h-43.465zm116.4 7.3809v6h66.994v-6h-66.994zm-116.4 6.0762v5.4863h43.465v-5.4863h-43.465zm-51.6 3.7422v6h16v-6h-16zm51.6 9.7148v6h43.465v-6h-43.465zm119.1 33.77c-0.0081 4.1001-0.01926 8.5203-0.00976 12.225-0.00447-3.6382-0.00884-7.1412 0.01758-12.029 0-0.06715-0.00668-0.12894-0.00782-0.19531zm-120.15 30.152v5.4863h43.465v-5.4863h-43.465zm141.85 2.2168c-0.26189 0.56102-0.57048 1.1287-0.92187 1.6914-2.6966 4.3167-16.042 25.987-23.744 38.584-1.4603 2.3867-3.7927 5.9355-5.9375 5.9355-2.0962 0-2.9234-1.9384-2.959-4.4258-0.00427 1.9478 0.0029 3.8546-0.00781 5.8359 0 2.568 0.82352 4.5898 2.9668 4.5898 2.1448 0 4.4772-3.5489 5.9375-5.9355 7.7024-12.597 21.048-34.267 23.744-38.584 1.8486-2.9603 2.5779-6.0438 0.92187-7.6914zm-55.271 3.4492c-1.7466 3.7436-1.308 7.2109 3.9082 7.2109h17.789c-0.00256 5.5522 0.01148 10.756 0.02148 15.941-0.00771-7.1051-0.02501-14.269-0.02148-21.941h-17.789c-1.8871 0-3.1487-0.4544-3.9082-1.2109zm-86.582 7.791v5.4863h43.465v-5.4863h-43.465zm0 13.457v5.4863h43.465v-5.4863h-43.465zm0 13.457v6h43.465v-6h-43.465zm1.8164 27.014v6h40.967v-6h-40.967zm202.67 0v6h40.967v-6h-40.967zm-202.67 19.646v3.6856h40.967v-3.6856h-40.967zm202.67 0v3.6856h40.967v-3.6856h-40.967z" opacity=".1" stroke-width="1.3333"/></svg>
