<svg width="512" height="512" version="1.1" viewBox="0 0 384 384" xmlns="http://www.w3.org/2000/svg"><defs><clipPath><rect width="384" height="384"/></clipPath></defs><g stroke-width="1.0045"><path d="m360.75 325.93v-267.85c0-9.2756-7.5217-16.742-16.876-16.742h-303.74c-9.3501 0-16.876 7.4668-16.876 16.742v267.85c0 9.2795 7.5256 16.742 16.876 16.742h303.74c9.3502 0 16.876-7.4668 16.876-16.742z" fill="#357af0"/><path d="m59.411 121.16v36.161h129.14c9.5346 0 15.487 5.1204 15.487 13.16v58.047c0 8.0396-5.9522 13.031-15.499 13.164h-92.815v-69.257h-36.326v105.42h154.97c14.306 0 25.83-11.646 25.83-26.12v-104.46c0-14.459-11.524-26.108-25.83-26.108h-118.98z" fill="#000001" opacity=".3"/><path d="m59.411 113.66v36.161h129.14c9.5346 0 15.487 5.1204 15.487 13.16v58.047c0 8.0396-5.9522 13.031-15.499 13.164h-92.815v-69.257h-36.326v105.42h154.97c14.306 0 25.83-11.646 25.83-26.12v-104.46c0-14.459-11.524-26.108-25.83-26.108h-118.98z" fill="#fff"/><path d="m276.37 121.16v36.161h36.161v-36.161zm0 48.214v108.48h36.161v-108.48z" fill="#000001" opacity=".3"/><path d="m276.37 113.66v36.161h36.161v-36.161zm0 48.214v108.48h36.161v-108.48z" fill="#fff"/></g><path transform="scale(.75)" d="m31 424.57v10c0 12.373 10.035 22.322 22.502 22.322h404.99c12.467 0 22.5-9.9548 22.5-22.322v-10c0 12.367-10.033 22.322-22.5 22.322h-404.99c-12.467 0-22.502-9.9496-22.502-22.322z" opacity=".3" stroke-width="1.3393"/><path transform="scale(.75)" d="m53.502 55.113c-12.467 0-22.502 9.9548-22.502 22.322v10c0-12.367 10.035-22.322 22.502-22.322h404.99c12.472 0 22.5 9.9548 22.5 22.322v-10c0-12.367-10.028-22.322-22.5-22.322h-404.99z" fill="#fefefe" opacity=".3" stroke-width="1.3393"/></svg>
