<svg width="512" height="512" version="1.1" viewBox="0 0 384 384" xmlns="http://www.w3.org/2000/svg"><path d="m192 24c-92.785 0-168 75.215-168 168s75.215 168 168 168 168-75.215 168-168-75.215-168-168-168z" fill="#2861bf"/><path d="m134.95 179.68c87.066-33.945 174.38 3.8242 168.18 71.004-2.2148 24.043-37.328 38.703-62.328 35.641-42.539-5.207-80.82-52.461-96.824-82.262-18.836-35.07-10.578-119.05 42.551-121.61 37.371 2.5977 49.41 40.223 54.152 62.762 18.844 89.508-81.223 187.37-137.4 141.78-36.723-29.797-5.6328-91.937 31.672-107.32z" fill="none" opacity=".3" stroke="#000" stroke-width="18"/><path d="m134.95 172.18c87.066-33.945 174.38 3.8242 168.18 71.004-2.2148 24.043-37.328 38.703-62.328 35.641-42.539-5.207-80.82-52.461-96.824-82.262-18.836-35.07-10.578-119.05 42.551-121.61 37.371 2.5977 49.41 40.223 54.152 62.762 18.844 89.508-81.223 187.37-137.4 141.78-36.723-29.797-5.6328-91.937 31.672-107.32z" fill="none" stroke="#fff" stroke-linejoin="bevel" stroke-width="18"/><path transform="scale(.75)" d="m32.062 251c-0.036438 1.6631-0.0625 3.3282-0.0625 5 0 123.71 100.29 224 224 224s224-100.29 224-224c0-1.6718-0.02606-3.3369-0.0625-5-2.66 121.4-101.9 219-223.94 219s-221.28-97.597-223.94-219z" opacity=".3" stroke-width="1.3333"/><path transform="scale(.75)" d="m256 32c-123.71 0-224 100.29-224 224 0 1.6718 0.026062 3.3369 0.0625 5 2.66-121.4 101.9-219 223.94-219s221.28 97.597 223.94 219c0.03644-1.6631 0.0625-3.3282 0.0625-5 0-123.71-100.29-224-224-224z" fill="#fff" opacity=".3" stroke-width="1.3333"/></svg>
