<svg width="512" height="512" version="1.1" viewBox="0 0 135.47 135.47" xmlns="http://www.w3.org/2000/svg"><g stroke-linecap="round" stroke-linejoin="round"><circle cx="67.733" cy="67.733" r="59.531" fill="#fff" opacity=".2" stroke="#000" stroke-width="2.6458"/><circle cx="67.733" cy="67.733" r="59.531" fill="#fff" stroke-width="5.2917"/><path d="m47.421 16.898v6.2775h-6.2781v5.8131h6.2781v6.2781h5.8131v-6.2781h6.2775v-5.8131h-6.2775v-6.2775zm-6.2e-4 21.992v73.635h29.255v5.8193h17.648v-17.648h-17.648v6.0147h-23.442v-20.5h23.442v5.7804h17.648v-17.648h-17.648v6.0549h-23.442v-20.5h23.442v5.7408h17.648v-17.648h-17.648v6.0939h-23.442v-15.195z" opacity=".2" stroke-width="6.3319"/><g transform="matrix(1.1966 0 0 1.1966 -21.697 -5.9218)" stroke-width="5.2917"><rect x="52.516" y="22.113" width="15.351" height="4.8582" rx="0" ry="0" fill="#19a187"/><rect transform="rotate(90)" x="16.867" y="-62.621" width="15.351" height="4.8582" rx="0" ry="0" fill="#19a187"/><path d="m57.763 35.246v61.537h29.332v-4.8586h-24.473v-17.132h24.473v-4.8581h-24.473v-17.132h24.473v-4.8581h-24.473v-12.698z" fill="#1b3f7c"/><rect x="82.211" y="42.851" width="14.749" height="14.749" fill="#4a88f1"/><rect x="82.211" y="86.898" width="14.749" height="14.749" fill="#4a88f1"/><rect x="82.211" y="64.875" width="14.749" height="14.749" fill="#4a88f1"/></g><path transform="scale(.26458)" d="m255.75 31a225 225 0 0 0-224.75 225 225 225 0 0 0 0.056641 4.9805 225 225 0 0 1 224.94-219.98 225 225 0 0 1 224.94 220.02 225 225 0 0 0 0.05664-5.0195 225 225 0 0 0-225-225 225 225 0 0 0-0.25195 0z" opacity=".05" stroke-width="20"/><path transform="scale(.26458)" d="m31.057 250.98a225 225 0 0 0-0.056641 5.0195 225 225 0 0 0 225 225 225 225 0 0 0 225-225 225 225 0 0 0-0.05664-4.9805 225 225 0 0 1-224.94 219.98 225 225 0 0 1-224.94-220.02z" opacity=".1" stroke-width="20"/></g></svg>
