<svg width="512" height="512" version="1.1" viewBox="0 0 384 384" xmlns="http://www.w3.org/2000/svg" xmlns:xlink="http://www.w3.org/1999/xlink"><defs><filter id="a" x="0%" y="0%" width="100%" height="100%"><feColorMatrix in="SourceGraphic" values="0 0 0 0 1 0 0 0 0 1 0 0 0 0 1 0 0 0 1 0"/></filter><mask id="m"><g filter="url(#a)"><rect width="384" height="384" fill-opacity=".10196"/></g></mask><clipPath id="f"><rect width="384" height="384"/></clipPath><g id="b" clip-path="url(#f)"><path transform="scale(.75)" d="m98.391 49.75c0 4.4792-3.6302 8.1094-8.1094 8.1094s-8.1094-3.6302-8.1094-8.1094 3.6302-8.1094 8.1094-8.1094 8.1094 3.6302 8.1094 8.1094zm0 0" stroke="#fff" stroke-linecap="round" stroke-linejoin="round" stroke-width=".99655"/></g><mask id="l"><g filter="url(#a)"><rect width="384" height="384" fill-opacity=".10196"/></g></mask><clipPath id="g"><rect width="384" height="384"/></clipPath><g id="e" clip-path="url(#g)"><path transform="scale(.75)" d="m429.85 49.75c0 4.4792-3.6302 8.1094-8.1094 8.1094-4.474 0-8.1042-3.6302-8.1042-8.1094s3.6302-8.1094 8.1042-8.1094c4.4792 0 8.1094 3.6302 8.1094 8.1094zm0 0" stroke="#fff" stroke-linecap="round" stroke-linejoin="round" stroke-width=".99655"/></g><mask id="k"><g filter="url(#a)"><rect width="384" height="384" fill-opacity=".10196"/></g></mask><clipPath id="h"><rect width="384" height="384"/></clipPath><g id="d" clip-path="url(#h)"><path transform="scale(.75)" d="m98.391 404.61c0 4.4792-3.6302 8.1094-8.1094 8.1094s-8.1094-3.6302-8.1094-8.1094 3.6302-8.1094 8.1094-8.1094 8.1094 3.6302 8.1094 8.1094zm0 0" stroke="#fff" stroke-linecap="round" stroke-linejoin="round" stroke-width=".99655"/></g><mask id="j"><g filter="url(#a)"><rect width="384" height="384" fill-opacity=".10196"/></g></mask><clipPath id="i"><rect width="384" height="384"/></clipPath><g id="c" clip-path="url(#i)"><path transform="scale(.75)" d="m429.85 404.61c0 4.4792-3.6302 8.1094-8.1094 8.1094-4.474 0-8.1042-3.6302-8.1042-8.1094s3.6302-8.1094 8.1042-8.1094c4.4792 0 8.1094 3.6302 8.1094 8.1094zm0 0" stroke="#fff" stroke-linecap="round" stroke-linejoin="round" stroke-width=".99655"/></g><clipPath><rect width="384" height="384"/></clipPath><clipPath><rect width="384" height="384"/></clipPath><clipPath><rect width="384" height="384"/></clipPath><clipPath><rect width="384" height="384"/></clipPath></defs><g transform="translate(.0024 -.45382)"><path d="m69.555 24.285c-8.7146 0-15.781 6.1914-15.781 13.828v2.6162c-0.0011 0.07737-0.0059 0.15381-0.0059 0.23144v303.88c0 8.7146 7.066 15.782 15.781 15.782h244.89c8.7146 0 15.781-7.0674 15.781-15.782v-40.131c2e-3 -0.0851 7e-3 -0.1694 7e-3 -0.25489v-266.34c0-7.6366-7.066-13.828-15.781-13.828z" opacity=".2" stroke="#000" stroke-width="7.5"/><path d="m69.555 24.285h244.89c8.7148 0 15.781 7.0664 15.781 15.777v303.88c0 8.7148-7.0664 15.781-15.781 15.781h-244.89c-8.7148 0-15.781-7.0664-15.781-15.781v-303.88c0-8.7109 7.0664-15.777 15.781-15.777z"/><g fill="#fff"><path d="m74.383 329.47h116.23c2.3945 0 4.3359 1.9414 4.3359 4.3359v8.5664c0 2.3945-1.9414 4.3398-4.3359 4.3398h-116.23c-2.3984 0-4.3398-1.9453-4.3398-4.3398v-8.5664c0-2.3945 1.9414-4.3359 4.3398-4.3359z"/><path d="m69.562 23.387h244.89c8.7148 0 15.781 6.1914 15.781 13.828v266.34c0 7.6406-7.0664 13.832-15.781 13.832h-244.89c-8.7148 0-15.781-6.1914-15.781-13.832v-266.34c0-7.6367 7.0664-13.828 15.781-13.828z"/><path d="m275.97 338.06c0 4.2695-3.4609 7.7305-7.7305 7.7305-4.2734 0-7.7344-3.4609-7.7344-7.7305s3.4609-7.7305 7.7344-7.7305c4.2695 0 7.7305 3.4609 7.7305 7.7305z"/><path d="m299.85 338.06c0 4.2695-3.4648 7.7305-7.7344 7.7305s-7.7305-3.4609-7.7305-7.7305 3.4609-7.7305 7.7305-7.7305 7.7344 3.4609 7.7344 7.7305z"/></g><use width="100%" height="100%" mask="url(#m)" xlink:href="#b"/><use width="100%" height="100%" mask="url(#l)" xlink:href="#e"/><use width="100%" height="100%" mask="url(#k)" xlink:href="#d"/><use width="100%" height="100%" mask="url(#j)" xlink:href="#c"/></g><path d="m287.46 102.6h-190.9v-19.105c0-7.6204 6.1348-13.755 13.755-13.755h163.39c7.6204 0 13.755 6.1348 13.755 13.755z" fill="#367bf0" stroke-width=".8158"/><path d="m287.46 128.59h-189.38c-0.51821 0-1.0082-0.0965-1.5112-0.15179v-34.09h190.9z" opacity=".3" stroke-width=".8158"/><path d="m287.46 135.47h-189.38c-0.51821 0-1.0082-0.0965-1.5112-0.15178v-34.09h190.9z" fill="#8a3fab" stroke-width=".8158"/><path d="m287.46 156.01h-190.9v-28.949c0.50301 0.0553 0.993 0.15178 1.5112 0.15178h189.38z" opacity=".3" stroke-width=".8158"/><path d="m287.46 162.89h-190.9v-28.949c0.50301 0.0553 0.993 0.15179 1.5112 0.15179h189.38z" fill="#f8de68" stroke-width=".8158"/><path d="m287.46 202.96h-190.9v-48.329h190.9z" opacity=".2" stroke-width=".8158"/><path d="m287.46 209.84h-190.9v-48.329h190.9z" fill="#fd3535" stroke-width=".8158"/><path d="m110.32 263.25c-7.6204 0-13.755-6.1348-13.755-13.755v-47.904h190.9v47.904c0 7.6204-6.1348 13.755-13.755 13.755z" opacity=".3" stroke-width=".8158"/><path d="m110.32 270.13c-7.6204 0-13.755-6.1348-13.755-13.755v-47.904h190.9v47.904c0 7.6204-6.1348 13.755-13.755 13.755z" fill="#23bac2" stroke-width=".8158"/><path d="m96.563 249.5v6.8776c0 7.6204 6.1348 13.755 13.755 13.755h163.39c7.6204 0 13.755-6.1348 13.755-13.755v-6.8776c0 7.6204-6.1348 13.755-13.755 13.755h-163.39c-7.6204 0-13.755-6.1348-13.755-13.755z" opacity=".3" stroke-width=".8158"/><path d="m110.32 69.74c-7.6204 0-13.755 6.1348-13.755 13.755v6.8776c0-7.6204 6.1348-13.755 13.755-13.755h163.39c7.6204 0 13.755 6.1348 13.755 13.755v-6.8776c0-7.6204-6.1348-13.755-13.755-13.755z" fill="#fff" opacity=".2" stroke-width=".8158"/><path d="m110.32 69.741c-0.47628 0-0.9466 0.02371-1.4101 0.07051-0.23136 0.02338-0.46175 0.05263-0.68952 0.08724-0.68447 0.10401-1.3524 0.25854-1.9993 0.45889-0.43087 0.13349-0.85299 0.28787-1.2643 0.46128-1.4409 0.60743-2.7558 1.4522-3.8946 2.4868-0.16247 0.14762-0.32163 0.30012-0.47682 0.4553-0.46617 0.46617-0.89884 0.96566-1.2942 1.495-0.26358 0.35288-0.51045 0.71892-0.73972 1.097-0.22927 0.37811-0.44067 0.76767-0.63336 1.1687-0.09635 0.20053-0.18808 0.40481-0.27486 0.61066-0.17355 0.41169-0.32771 0.8331-0.46128 1.2643-0.33392 1.0781-0.5395 2.2136-0.5987 3.3891-0.01184 0.2351-0.01793 0.47171-0.01793 0.70985v19.106h6e-3v24.465c-2e-3 -2.2e-4 -4e-3 -9.7e-4 -6e-3 -1e-3v82.776h0.0012v46.533c2.4e-5 0.23773 0.0049 0.47395 0.01673 0.70865v1e-3c0.01184 0.2347 0.03042 0.46772 0.05378 0.69909v1e-3c0.02338 0.23136 0.05263 0.46176 0.08724 0.68953v1e-3c0.03463 0.22777 0.07512 0.4537 0.12069 0.67758v1e-3c0.0456 0.22388 0.0967 0.44474 0.15296 0.66444v1e-3c0.05629 0.2197 0.11736 0.43722 0.18403 0.65248v1e-3c0.06669 0.21526 0.13951 0.42882 0.2163 0.63934v1e-3c0.07681 0.21052 0.15835 0.4183 0.24498 0.6238v1e-3c0.08665 0.20551 0.17867 0.40807 0.27486 0.60827v1e-3c0.09621 0.2002 0.19807 0.39811 0.30353 0.59273v1e-3c0.10548 0.19463 0.21537 0.38605 0.32983 0.57481v1e-3c0.11447 0.18875 0.23414 0.37427 0.35731 0.55688v1e-3c0.12318 0.1826 0.25081 0.36158 0.38241 0.53775v1e-3c0.13162 0.17618 0.26896 0.34798 0.4087 0.51745v1e-3c0.13976 0.16946 0.2838 0.33466 0.43141 0.49713v1e-3c0.14762 0.16246 0.29892 0.32162 0.4541 0.47681 2.4863 2.4866 5.9254 4.0213 9.7359 4.0213h163.39c7.6204 0 13.756-6.1355 13.756-13.756v-6.8774c0 0.016-1e-3 0.0318-1e-3 0.0478v-47.953h-1e-3v-46.957l-4e-3 -19.162h4e-3l6e-3 -34.242h-1e-3l1e-3 -6.8857h-6e-3l1e-3 -4.0344c1e-4 0.02159 1e-3 0.04292 1e-3 0.06453v-6.8786c0-2.1432-0.48566-4.1691-1.3528-5.9739-0.28904-0.6016-0.62062-1.1781-0.99068-1.7268-0.49357-0.7318-1.056-1.4122-1.6778-2.0339-0.15519-0.15519-0.31316-0.30768-0.47562-0.4553-2.3e-4 -2.03e-4 -9.7e-4 2.02e-4 -1e-3 0-0.32516-0.29541-0.66437-0.57549-1.017-0.83891-2.6e-4 -1.94e-4 -9.4e-4 1.94e-4 -1e-3 0-0.17618-0.1316-0.35515-0.26042-0.53776-0.3836-2.8e-4 -1.88e-4 -9.2e-4 1.88e-4 -1e-3 0-0.1826-0.12317-0.36812-0.24164-0.55687-0.35612-3e-4 -1.78e-4 -9e-4 1.8e-4 -1e-3 0-0.18876-0.11446-0.38018-0.22554-0.57481-0.33102-3.1e-4 -1.69e-4 -8.8e-4 1.69e-4 -1e-3 0-0.77942-0.42235-1.6044-0.77138-2.4665-1.0385-3.7e-4 -1.12e-4 -8.3e-4 1.14e-4 -1e-3 0-0.21526-0.06667-0.43278-0.12894-0.65248-0.18523-3.7e-4 -9.6e-5 -8.2e-4 9.6e-5 -1e-3 0-0.21971-0.05627-0.44176-0.10736-0.66564-0.15296-3.8e-4 -7.8e-5 -8.1e-4 7.7e-5 -1e-3 0-0.44814-0.09124-0.90398-0.16114-1.3671-0.20794-3.9e-4 -4e-5 -8e-4 4e-5 -1e-3 0-0.46353-0.04679-0.93385-0.07051-1.4101-0.07051z" fill="none" stroke="#000" stroke-width="7.5"/><g transform="translate(-197.57 117.34)"><path d="m581.57 176.66c0 49.707-40.294 90.001-90.001 90.001s-90.001-40.294-90.001-90.001 40.293-90.001 90.001-90.001c49.707 0 90.001 40.293 90.001 90.001z" fill="#04121a" fill-rule="evenodd" opacity=".3" stroke-width=".93751"/><path d="m581.57 169.16c0 49.707-40.294 90.001-90.001 90.001s-90.001-40.294-90.001-90.001 40.293-90.001 90.001-90.001c49.707 0 90.001 40.294 90.001 90.001z" fill="#49ade5" fill-rule="evenodd" stroke-width=".93751"/><path d="m477.6 130.16v24.789h27.948v-24.789zm0 38.607v55.895h27.948v-55.895z" opacity=".3" stroke-width=".7763"/><path d="m477.6 122.66v24.789h27.948v-24.789zm0 38.607v55.895h27.948v-55.895z" fill="#fff" stroke-width=".7763"/></g></svg>
