<svg width="512" height="512" version="1.1" viewBox="0 0 384 384" xmlns="http://www.w3.org/2000/svg"><path d="m360 192c0-92.781-75.215-168-168-168-92.781 0-168 75.215-168 168 0 92.781 75.215 168 168 168 92.781 0 168-75.215 168-168z" fill="#2359b0"/><path transform="scale(.75)" d="m32.068 251c-0.036438 1.663-0.0625 3.3283-0.0625 5 0 123.71 100.29 223.99 223.99 223.99s223.99-100.29 223.99-223.99c0-1.6717-0.02606-3.337-0.0625-5-2.66 121.4-101.9 218.99-223.93 218.99s-221.27-97.596-223.93-218.99z" opacity=".3" stroke-width="1.3333"/><path transform="scale(.75)" d="m256 32.006c-123.71 0-223.99 100.29-223.99 223.99 0 1.6717 0.026062 3.337 0.0625 5 2.66-121.4 101.9-218.99 223.93-218.99 122.04 0 221.27 97.596 223.93 218.99 0.03644-1.663 0.0625-3.3283 0.0625-5 0-123.71-100.29-223.99-223.99-223.99z" fill="#fff" opacity=".3" stroke-width="1.3333"/><path d="m120 97.5v204h35.996v-57.703c10.609 6.1779 22.913 9.7251 36 9.7251 13.089 0 25.394-3.5496 36.004-9.728v9.706h36v-156h-36v59.996h-4e-3v24c0 20.254-15.742 36-36 36-20.254 0-36-15.746-36-36v-83.996z" opacity=".3"/><g id="a" clip-path="url(#b)"><path d="m120 90v204h35.996v-57.703c10.609 6.1779 22.913 9.7251 36 9.7251 13.09 0 25.394-3.5496 36.004-9.728v9.706h36v-156h-36v59.996h-4e-3v24c0 20.254-15.742 36-36 36-20.254 0-36-15.746-36-36v-83.996z" fill="#fff"/></g></svg>
