<svg xmlns="http://www.w3.org/2000/svg" xmlns:xlink="http://www.w3.org/1999/xlink" width="512" height="512" version="1.1" viewBox="0 0 384 384"> <defs> <filter id="alpha" width="100%" height="100%" x="0%" y="0%" filterUnits="objectBoundingBox"> <feColorMatrix in="SourceGraphic" type="matrix" values="0 0 0 0 1 0 0 0 0 1 0 0 0 0 1 0 0 0 1 0"/> </filter> <mask id="mask0"> <g filter="url(#alpha)"> <rect width="384" height="384" x="0" y="0" style="fill:rgb(0%,0%,0%);fill-opacity:0.2"/> </g> </mask> <clipPath id="clip1"> <rect width="384" height="384" x="0" y="0"/> </clipPath> <g id="surface5" clip-path="url(#clip1)"> <path style="fill:rgb(0%,0%,0%)" d="M 371.761719 190.96875 C 369.070312 288.339844 289.410156 365.90625 192 366 C 95.363281 365.945312 16.015625 289.59375 12.238281 193.03125 C 12.136719 194.6875 12.058594 196.34375 12 198 C 12 297.410156 92.589844 378 192 378 C 291.410156 378 372 297.410156 372 198 C 371.964844 195.65625 371.886719 193.308594 371.761719 190.96875 Z M 371.761719 190.96875"/> </g> <mask id="mask1"> <g filter="url(#alpha)"> <rect width="384" height="384" x="0" y="0" style="fill:rgb(0%,0%,0%);fill-opacity:0.2"/> </g> </mask> <clipPath id="clip2"> <rect width="384" height="384" x="0" y="0"/> </clipPath> <g id="surface8" clip-path="url(#clip2)"> <path style="fill:rgb(0%,0%,0%)" d="M 166.320312 276.480469 C 177.730469 272.980469 191.425781 263.367188 197.84375 254.355469 L 199.960938 251.378906 L 197.3125 243.355469 C 187.625 214.046875 205.210938 184.492188 235.367188 179.40625 C 257.285156 175.710938 280.28125 189.117188 288.210938 210.214844 C 290.097656 215.234375 290.15625 215.289062 289.539062 211.433594 C 287.722656 200.027344 282.078125 189.511719 272.898438 180.4375 C 263.316406 170.96875 252.191406 165.601562 238.292969 163.742188 C 234.027344 163.167969 233.585938 163.332031 231.980469 166.046875 C 229.507812 170.234375 222.3125 177.242188 216.992188 180.636719 C 202.671875 189.789062 180.589844 189.792969 166.230469 180.648438 C 150.011719 170.316406 140.839844 150.527344 143.816406 132.296875 C 145.441406 122.347656 149.820312 113.519531 156.804688 106.121094 C 161.867188 100.761719 162.210938 100.171875 159.285156 101.84375 C 154.359375 104.664062 142.832031 117.191406 139.5625 123.277344 C 135.789062 130.292969 132.726562 142.707031 132.746094 150.90625 C 132.757812 157.960938 134.609375 167.328125 137.320312 174.101562 C 138.898438 178.054688 139.101562 178.179688 144.957031 178.839844 C 148.261719 179.214844 153.488281 180.386719 156.570312 181.445312 C 183.808594 190.820312 196.660156 222.234375 183.90625 248.273438 C 175.214844 266.019531 155.09375 277.449219 136.285156 275.316406 C 128.628906 274.449219 129.441406 275.488281 137.929688 277.417969 C 145.449219 279.128906 159.164062 278.675781 166.320312 276.480469 Z M 166.320312 276.480469"/> <path style="fill:rgb(0%,0%,0%)" d="M 192 78 C 125.800781 78 72 131.800781 72 198 C 72 264.199219 125.800781 318 192 318 C 258.199219 318 312 264.199219 312 198 C 312 131.800781 258.199219 78 192 78 Z M 192 90.890625 C 251.234375 90.890625 299.109375 138.765625 299.109375 198 C 299.109375 257.234375 251.234375 305.109375 192 305.109375 C 132.765625 305.109375 84.890625 257.234375 84.890625 198 C 84.890625 138.765625 132.765625 90.890625 192 90.890625 Z M 192 90.890625"/> </g> <mask id="mask2"> <g filter="url(#alpha)"> <rect width="384" height="384" x="0" y="0" style="fill:rgb(0%,0%,0%);fill-opacity:0.101961"/> </g> </mask> <clipPath id="clip3"> <rect width="384" height="384" x="0" y="0"/> </clipPath> <g id="surface11" clip-path="url(#clip3)"> <path style="fill:rgb(100.000%,100.000%,100.000%)" d="M 191.988281 12 C 92.582031 12.007812 12 92.59375 12 192 C 12.027344 193.023438 12.0625 194.046875 12.105469 195.070312 C 13.703125 96.851562 93.753906 18.050781 191.988281 18 L 192 18 C 290.21875 18.070312 370.25 96.863281 371.847656 195.070312 C 371.902344 194.046875 371.949219 193.023438 371.988281 192 C 371.988281 92.59375 291.40625 12.007812 192 12 Z M 191.988281 12"/> </g> <clipPath id="clip4"> <rect width="384" height="384" x="0" y="0"/> </clipPath> <g id="surface14" clip-path="url(#clip4)"> <path style="fill:rgb(100.000%,100.000%,100.000%)" d="M 166.320312 270.480469 C 177.730469 266.980469 191.425781 257.367188 197.84375 248.355469 L 199.960938 245.378906 L 197.3125 237.355469 C 187.625 208.046875 205.210938 178.492188 235.367188 173.40625 C 257.285156 169.710938 280.28125 183.117188 288.210938 204.214844 C 290.097656 209.234375 290.15625 209.289062 289.539062 205.433594 C 287.722656 194.027344 282.078125 183.511719 272.898438 174.4375 C 263.316406 164.96875 252.191406 159.601562 238.292969 157.742188 C 234.027344 157.167969 233.585938 157.332031 231.980469 160.046875 C 229.507812 164.234375 222.3125 171.242188 216.992188 174.636719 C 202.671875 183.789062 180.589844 183.792969 166.230469 174.648438 C 150.011719 164.316406 140.839844 144.527344 143.816406 126.296875 C 145.441406 116.347656 149.820312 107.519531 156.804688 100.121094 C 161.867188 94.761719 162.210938 94.171875 159.285156 95.84375 C 154.359375 98.664062 142.832031 111.191406 139.5625 117.277344 C 135.789062 124.292969 132.726562 136.707031 132.746094 144.90625 C 132.757812 151.960938 134.609375 161.328125 137.320312 168.101562 C 138.898438 172.054688 139.101562 172.179688 144.957031 172.839844 C 148.261719 173.214844 153.488281 174.386719 156.570312 175.445312 C 183.808594 184.820312 196.660156 216.234375 183.90625 242.273438 C 175.214844 260.019531 155.09375 271.449219 136.285156 269.316406 C 128.628906 268.449219 129.441406 269.488281 137.929688 271.417969 C 145.449219 273.128906 159.164062 272.675781 166.320312 270.480469 Z M 166.320312 270.480469"/> <path style="fill:rgb(100.000%,100.000%,100.000%)" d="M 192 72 C 125.800781 72 72 125.800781 72 192 C 72 258.199219 125.800781 312 192 312 C 258.199219 312 312 258.199219 312 192 C 312 125.800781 258.199219 72 192 72 Z M 192 84.890625 C 251.234375 84.890625 299.109375 132.765625 299.109375 192 C 299.109375 251.234375 251.234375 299.109375 192 299.109375 C 132.765625 299.109375 84.890625 251.234375 84.890625 192 C 84.890625 132.765625 132.765625 84.890625 192 84.890625 Z M 192 84.890625"/> </g> </defs> <g> <use mask="url(#mask0)" xlink:href="#surface5"/> <path style="fill:rgb(29.803%,29.803%,29.803%)" d="M 372 192 C 372 291.410156 291.410156 372 192 372 C 92.589844 372 12 291.410156 12 192 C 12 92.589844 92.589844 12 192 12 C 291.410156 12 372 92.589844 372 192 Z M 372 192"/> <use mask="url(#mask1)" xlink:href="#surface8"/> <use mask="url(#mask2)" xlink:href="#surface11"/> <use xlink:href="#surface14"/> </g> </svg>
