<svg class="astro-TVRURPNS w-44" version="1.1" viewBox="0 0 512 512" xmlns="http://www.w3.org/2000/svg" xmlns:xlink="http://www.w3.org/1999/xlink"><defs><linearGradient id="b" class="astro-TVRURPNS" x1="70.275" x2="70.275" y1="177.95" y2="62.096" gradientTransform="matrix(3.8827 0 0 -3.8827 -16.757 722.01)" gradientUnits="userSpaceOnUse"><stop class="astro-TVRURPNS" stop-color="#00bfcb" offset="0"/><stop class="astro-TVRURPNS" stop-color="#6619d0" offset="1"/></linearGradient><linearGradient id="a" x1="70.275" x2="70.275" y1="177.95" y2="62.096" gradientTransform="matrix(3.8827 0 0 -3.8827 -16.504 722.01)" gradientUnits="userSpaceOnUse"><stop class="astro-TVRURPNS" stop-color="#fff" offset="0"/><stop class="astro-TVRURPNS" stop-color="#6619d0" offset="1"/></linearGradient></defs><style>.st0{fill:#fff}</style><path class="astro-TVRURPNS" d="m255.42 31.193c-0.13021 0-0.26042 0.0093-0.39063 0.0098-4.011 0.0033-8.0222 0.06015-12.033 0.30859l-1.9414 207.79c0 46.592-3.4952 92.794-10.096 139l-14.365 99.008c12.813 2.3296 26.014 3.4961 39.215 3.4961 0.0645 0 0.12887-4e-3 0.19336-4e-3 0.0645 6e-5 0.12887 4e-3 0.19336 4e-3 13.201 0 26.402-1.1665 39.215-3.4961l-14.365-99.008c-6.6005-46.204-10.096-92.406-10.096-139l0.77734-207.72c-0.90624 0-1.8125-0.04977-2.7188-0.07031-4.011-0.24844-8.0222-0.30534-12.033-0.30859-0.13021-5.03e-4 -0.26042-0.0098-0.39063-0.0098-0.19403 0-0.388 0.0039-0.58203 0.0039-0.19403-2.2e-5 -0.388-0.0039-0.58203-0.0039zm-70.277 11.26c-89.689 29.896-154.14 114.15-154.14 213.55 0 72.994 34.943 137.83 88.912 178.99l58.629-113.76c4.2709-8.5418 6.5996-18.248 6.5996-27.955zm141.72 0v250.82c0 9.7066 2.3287 19.413 6.5996 27.955l58.629 113.76c53.969-41.156 88.912-106 88.912-178.99 0-99.396-64.451-183.65-154.14-213.55z" clip-rule="evenodd" fill="url(#b)" fill-rule="evenodd" stroke-width="3.8827"/><path class="astro-TVRURPNS" d="m480.88 250.04c-1.2677 71.337-35.824 134.56-88.791 174.96l-58.629-113.76c-4.2709-8.9301-6.5996-18.248-6.5996-27.955v10c0 9.7066 2.3287 19.025 6.5996 27.955l58.629 113.76c53.969-41.156 88.912-106 88.912-178.99 0-1.9979-0.0693-3.9795-0.12109-5.9648zm-449.76 0.0234c-0.05166 1.9776-0.12109 3.9514-0.12109 5.9414 0 72.994 34.943 137.83 88.912 178.99l58.629-113.76c4.2709-8.5418 6.5996-18.248 6.5996-27.955v-10c1e-5 9.7066-2.3287 19.413-6.5996 27.955l-58.629 113.76c-52.961-40.388-87.516-103.6-88.791-174.93zm187.28 217.48-1.418 9.7754c12.813 2.3296 26.014 3.4961 39.215 3.4961 13.201 0 26.402-1.1665 39.215-3.4961l-1.418-9.7754c-12.37 2.162-25.08 3.2715-37.797 3.2715-12.717 0-25.427-1.1094-37.797-3.2715z" clip-rule="evenodd" fill-rule="evenodd" opacity=".3" stroke-width="3.8827"/><path class="astro-TVRURPNS" d="m256.83 31.193c-5.0474 0-10.095 4.07e-4 -15.143 0.38867v10c5.0475-0.38826 10.095-0.38867 15.143-0.38867s10.095 0.38867 15.143 0.38867v-10c-5.0474 0-10.095-0.38867-15.143-0.38867zm-71.441 11.26c-89.301 29.896-154.14 114.15-154.14 213.55 0 1.3627 0.09684 2.7017 0.12109 4.0586 2.5286-96.796 66.506-178.31 154.02-207.61zm141.72 0v10c87.886 29.295 151.5 110.8 154.02 207.58 0.024-1.3491 0.12109-2.6804 0.12109-4.0352 0-99.396-64.451-183.65-154.14-213.55zm-85.42 196.85c0 46.592-3.4932 92.794-10.094 139l-14.367 99.008c0.46935 0.0853 0.94759 0.14239 1.418 0.22461l12.949-89.232c6.6005-46.204 10.094-92.406 10.094-139zm29.508 10c0 46.592 3.4952 92.794 10.096 139l12.947 89.232c0.47047-0.0822 0.94853-0.13926 1.418-0.22461l-14.365-99.008c-6.1278-42.895-9.5392-85.793-10.002-129z" clip-rule="evenodd" fill="url(#a)" fill-rule="evenodd" opacity=".2" stroke-width="3.8827"/></svg>
