<svg xmlns="http://www.w3.org/2000/svg" xmlns:xlink="http://www.w3.org/1999/xlink" width="512" height="512" version="1.1" viewBox="0 0 384 384"> <defs> <filter id="alpha" width="100%" height="100%" x="0%" y="0%" filterUnits="objectBoundingBox"> <feColorMatrix in="SourceGraphic" type="matrix" values="0 0 0 0 1 0 0 0 0 1 0 0 0 0 1 0 0 0 1 0"/> </filter> <mask id="mask0"> <g filter="url(#alpha)"> <rect width="384" height="384" x="0" y="0" style="fill:rgb(0%,0%,0%);fill-opacity:0.2"/> </g> </mask> <clipPath id="clip1"> <rect width="384" height="384" x="0" y="0"/> </clipPath> <g id="surface5" clip-path="url(#clip1)"> <path style="fill:rgb(0%,0%,0%)" d="M 24 342 L 24 348 C 24 357.972656 32.027344 366 42 366 L 342 366 C 351.972656 366 360 357.972656 360 348 L 360 342 C 360 351.972656 351.972656 360 342 360 L 42 360 C 32.027344 360 24 351.972656 24 342 Z M 24 342"/> </g> <mask id="mask1"> <g filter="url(#alpha)"> <rect width="384" height="384" x="0" y="0" style="fill:rgb(0%,0%,0%);fill-opacity:0.2"/> </g> </mask> <clipPath id="clip2"> <rect width="384" height="384" x="0" y="0"/> </clipPath> <g id="surface8" clip-path="url(#clip2)"> <path style="fill:rgb(100.000%,100.000%,100.000%)" d="M 42 24 C 32.027344 24 24 32.027344 24 42 L 24 48 C 24 38.027344 32.027344 30 42 30 L 342 30 C 351.972656 30 360 38.027344 360 48 L 360 42 C 360 32.027344 351.972656 24 342 24 Z M 42 24"/> </g> <mask id="mask2"> <g filter="url(#alpha)"> <rect width="384" height="384" x="0" y="0" style="fill:rgb(0%,0%,0%);fill-opacity:0.2"/> </g> </mask> <clipPath id="clip3"> <rect width="384" height="384" x="0" y="0"/> </clipPath> <g id="surface11" clip-path="url(#clip3)"> <path style="fill:rgb(0%,0%,0%)" d="M 253.746094 66.003906 C 226.253906 65.980469 170.101562 77.496094 164.109375 84.859375 C 162.304688 87.074219 162.242188 89.324219 163.875 94.09375 C 167.535156 104.804688 169.890625 122.753906 161.859375 175.035156 C 152.542969 235.660156 148.617188 256.65625 146.519531 258.796875 C 145.652344 259.679688 141.066406 258.609375 136.324219 256.417969 C 124.640625 251.011719 106.53125 250.964844 97.933594 256.3125 C 72.308594 272.234375 83.605469 305.070312 118.921875 316.808594 L 118.921875 316.820312 C 121.605469 317.710938 129.183594 318.203125 135.773438 317.921875 C 145.046875 317.527344 149.902344 316.089844 157.230469 311.535156 C 171.1875 302.859375 177.828125 288.101562 185.355469 249.027344 C 188.613281 232.109375 191.445312 216.566406 192 216.003906 C 192.554688 215.4375 196.511719 220.226562 200.4375 225.132812 C 225.976562 257.019531 242.304688 270.003906 260.800781 270.003906 C 266.535156 270.003906 270.234375 269.355469 270.234375 267.988281 C 270.234375 266.746094 265.707031 261.78125 260.167969 256.222656 C 244.363281 239.765625 237.414062 215.589844 222 198.003906 L 229.582031 194.042969 C 280.566406 162.507812 310.320312 115.707031 296.695312 88.46875 C 288.691406 72.464844 276.378906 66.023438 253.746094 66.003906 Z M 244.640625 108.003906 C 254.144531 107.976562 262.695312 108.914062 266.484375 111.050781 C 270.566406 113.351562 271.066406 114.03125 268.113281 113.277344 C 264.664062 112.394531 262.621094 113.886719 257.460938 121.082031 C 249.402344 132.316406 236.449219 144.351562 221.332031 154.644531 C 203.410156 166.84375 199.207031 169.1875 198.152344 167.535156 C 196.8125 165.441406 204.777344 117.546875 206.894531 114.953125 C 210.328125 110.75 228.800781 108.046875 244.640625 108.003906 Z M 244.640625 108.003906"/> </g> </defs> <g> <use mask="url(#mask0)" xlink:href="#surface5"/> <path style="fill:rgb(21.176%,48.235%,94.117%)" d="M 360 342 L 360 42 C 360 32.058594 351.941406 24 342 24 L 42 24 C 32.058594 24 24 32.058594 24 42 L 24 342 C 24 351.941406 32.058594 360 42 360 L 342 360 C 351.941406 360 360 351.941406 360 342 Z M 360 342"/> <use mask="url(#mask1)" xlink:href="#surface8"/> <use mask="url(#mask2)" xlink:href="#surface11"/> <path style="fill:rgb(100.000%,100.000%,100.000%)" d="M 253.746094 60 C 226.253906 59.976562 170.101562 71.492188 164.109375 78.855469 C 162.304688 81.070312 162.242188 83.320312 163.875 88.089844 C 167.535156 98.800781 169.890625 116.75 161.859375 169.03125 C 152.542969 229.65625 148.617188 250.652344 146.519531 252.792969 C 145.652344 253.675781 141.066406 252.609375 136.324219 250.414062 C 124.640625 245.007812 106.53125 244.960938 97.933594 250.308594 C 72.308594 266.230469 83.605469 299.070312 118.921875 310.804688 L 118.921875 310.816406 C 121.605469 311.707031 129.183594 312.199219 135.773438 311.917969 C 145.046875 311.523438 149.902344 310.085938 157.230469 305.53125 C 171.1875 296.859375 177.828125 282.101562 185.355469 243.023438 C 188.613281 226.105469 191.445312 210.566406 192 210 C 192.554688 209.433594 196.511719 214.226562 200.4375 219.128906 C 225.976562 251.015625 242.304688 264 260.800781 264 C 266.535156 264 270.234375 263.355469 270.234375 261.984375 C 270.234375 260.746094 265.707031 255.777344 260.167969 250.21875 C 244.363281 233.761719 237.414062 209.589844 222 192 L 229.582031 188.039062 C 280.566406 156.503906 310.320312 109.703125 296.695312 82.464844 C 288.691406 66.460938 276.378906 60.019531 253.746094 60 Z M 244.640625 102 C 254.144531 101.972656 262.695312 102.910156 266.484375 105.046875 C 270.566406 107.347656 271.066406 108.027344 268.113281 107.273438 C 264.664062 106.390625 262.621094 107.882812 257.460938 115.078125 C 249.402344 126.316406 236.449219 138.347656 221.332031 148.640625 C 203.410156 160.839844 199.207031 163.183594 198.152344 161.53125 C 196.8125 159.4375 204.777344 111.542969 206.894531 108.949219 C 210.328125 104.746094 228.800781 102.042969 244.640625 102 Z M 244.640625 102"/> </g> </svg>
