<svg width="512" height="512" version="1.1" viewBox="0 0 384 384" xmlns="http://www.w3.org/2000/svg"><defs><clipPath><rect width="384" height="384"/></clipPath><clipPath><rect width="384" height="384"/></clipPath><clipPath><rect width="384" height="384"/></clipPath></defs><path d="m360 343.2v-302.4c0-9.2773-7.5234-16.801-16.801-16.801h-302.4c-9.2773 0-16.801 7.5234-16.801 16.801v302.4c0 9.2773 7.5234 16.801 16.801 16.801h302.4c9.2773 0 16.801-7.5234 16.801-16.801z" style="fill:#4a4a4a"/><path d="m276 67.5c-99.324 0-158.3 84.965-156 160.48v97.523h90v-97.805c0-18.051 5.9219-35.805 16.957-48.75 11.035-12.945 26.91-21.445 49.043-21.445zm-18 19.102v18.457c-55.902 8.5312-102 54.574-102 122.64v79.805h-18v-80.074c-1.8633-61.203 42.125-131.36 120-140.82zm0 36.551v18.152c-18.625 3.75-33.867 13.203-44.742 25.957-14.199 16.656-21.258 38.492-21.258 60.434v79.805h-18v-79.805c0-59.02 37.273-96.57 84-104.54z" style="opacity:.3"/><path d="m276 60c-99.324 0-158.3 84.965-156 160.48v97.523h90v-97.805c0-18.051 5.9219-35.805 16.957-48.75s26.91-21.445 49.043-21.445zm-18 19.102v18.457c-55.902 8.5312-102 54.574-102 122.64v79.805h-18v-80.074c-1.8633-61.203 42.125-131.36 120-140.82zm0 36.551v18.152c-18.625 3.75-33.867 13.203-44.742 25.957-14.199 16.656-21.258 38.492-21.258 60.434v79.805h-18v-79.805c0-59.02 37.273-96.57 84-104.54z" style="fill:#ffc72e"/><path transform="scale(.75)" d="m32 447.6v10c0 12.37 10.031 22.4 22.4 22.4h403.2c12.37 0 22.4-10.031 22.4-22.4v-10c0 12.37-10.031 22.4-22.4 22.4h-403.2c-12.37 0-22.4-10.031-22.4-22.4z" style="opacity:.3;stroke-width:1.3333"/><path transform="scale(.75)" d="m54.4 32c-12.37 0-22.4 10.031-22.4 22.4v10c0-12.37 10.031-22.4 22.4-22.4h403.2c12.37 0 22.4 10.031 22.4 22.4v-10c0-12.37-10.031-22.4-22.4-22.4h-403.2z" style="fill:#eee;opacity:.1;stroke-width:1.3333"/></svg>
