<svg width="512" height="512" version="1.1" viewBox="0 0 384 384" xmlns="http://www.w3.org/2000/svg"><defs><linearGradient id="b" x1="166.47" x2="283.56" y1="270.99" y2="370.27" gradientTransform="matrix(.75386 0 0 .69542 -.94953 9.8514)" gradientUnits="userSpaceOnUse"><stop stop-color="#e5e5e5" offset="0"/><stop stop-color="#fff" offset="1"/></linearGradient><clipPath id="c"><rect width="384" height="384"/></clipPath><linearGradient id="a" x1="166.47" x2="283.56" y1="270.99" y2="370.27" gradientTransform="matrix(.75386 0 0 .69542 -.94892 9.8515)" gradientUnits="userSpaceOnUse"><stop stop-color="#e5e5e5" offset="0"/><stop stop-color="#fff" offset="1"/></linearGradient></defs><path d="m26.635 92.539c-1.9961 0.61328-3.5659 2.1635-4.2144 4.144v230.05c0.09751 0.2994 0.21632 0.58927 0.35449 0.86722 0.02265 0.0454 0.05396 0.0855 0.07764 0.13035 0.12193 0.2313 0.25028 0.459 0.39844 0.67238 0.17614 0.25365 0.37013 0.49275 0.58008 0.71775 0.21004 0.22515 0.43642 0.43552 0.67676 0.62842 0.48046 0.38573 1.018 0.7017 1.5981 0.9375 0.56404 0.2292 1.167 0.38415 1.7988 0.44535h327.87c1.4072-0.13635 2.6777-0.72442 3.6709-1.6157 9e-3 -8e-3 0.0179-0.0143 0.0264-0.022 1e-3 -9.7e-4 2e-3 -2e-3 3e-3 -3e-3 0.14277-0.12968 0.27958-0.26535 0.41016-0.40725 0.0881-0.0958 0.16971-0.19778 0.25195-0.2988 0.0434-0.0532 0.0902-0.10365 0.13184-0.15825 2e-3 -2e-3 4e-3 -5e-3 6e-3 -7e-3 0.11345-0.14932 0.22052-0.30375 0.3208-0.4629 3e-3 -5e-3 7e-3 -0.0107 0.0103-0.0161 0.10054-0.16065 0.19346-0.32528 0.27979-0.49515 2e-4 -3.8e-4 -2e-4 -1e-3 0-1e-3 0.0545-0.10732 0.1023-0.21892 0.15088-0.32962 0.0306-0.0696 0.0656-0.1371 0.0937-0.20798 2e-3 -4e-3 3e-3 -8e-3 4e-3 -0.0117 0.0711-0.18015 0.13406-0.36457 0.18897-0.5523 9.8e-4 -3e-3 2e-3 -7e-3 3e-3 -0.0102 0.055-0.18937 0.1014-0.38242 0.13916-0.57862 3.7e-4 -2e-3 1e-3 -4e-3 1e-3 -6e-3 0.0377-0.19695 0.067-0.39765 0.0864-0.6006 1.4e-4 -1e-3 -1.4e-4 -3e-3 0-4e-3 0.0194-0.20445 0.0293-0.41137 0.0293-0.62107v-226.03c0-2.9062-1.9067-5.3482-4.5396-6.1568z" fill="url(#a)" opacity=".2" stroke="#000" stroke-width="7.5"/><path d="m135.34 52.867h112.96v12.512h-112.96z" fill="#b3b3b3"/><path d="m135.31 52.883-14.867 11.906v27.75h-93.805c-1.9961 0.61328-3.5664 2.1641-4.2148 4.1445v230.05c0.77734 2.3867 2.9023 4.1484 5.4844 4.3984h327.87c3.2656-0.31641 5.8086-3.0547 5.8086-6.4102v-226.03c0-2.9062-1.9062-5.3477-4.5391-6.1562h-93.402v-27.023l-15.34-12.633 0.0391 39.656h-113.12z" fill="url(#b)"/><path d="m22.42 252.01v74.727c0.78516 2.4023 2.9336 4.1719 5.543 4.3984h327.75c3.2969-0.28907 5.8672-3.0352 5.8672-6.4102v-72.715z" fill="#fff"/><path d="m378.53 324.8c-17.007 46.664-68.6 70.725-115.27 53.757-46.675-16.962-70.779-68.537-53.854-115.23 16.925-46.689 68.478-70.834 115.18-53.949 46.703 16.889 70.894 68.422 54.046 115.14" fill="#02090d" fill-rule="evenodd" opacity=".3" stroke-width="1.0449"/><path d="m361.58 317.22c0 3.375-2.5698 6.1211-5.8667 6.4102h-327.75c-2.6094-0.22659-4.7578-1.9966-5.543-4.3989v7.5c0.78516 2.4023 2.9336 4.1723 5.543 4.3989h327.75c3.2969-0.28908 5.8667-3.0352 5.8667-6.4102z" fill="#010101" opacity=".3"/><path d="m378.53 317.3c-17.007 46.664-68.6 70.725-115.27 53.757-46.675-16.962-70.779-68.537-53.854-115.23 16.925-46.689 68.478-70.834 115.18-53.949 46.703 16.889 70.894 68.422 54.046 115.14" fill="#4aaee6" fill-rule="evenodd" stroke-width="1.0449"/><path d="m302.56 249-18.084 0.0925 0.50293 59.299-14.977-13.136-10.839 9.7293 24.281 21.293h-25.103v12.722h71.31v-12.722h-24.948l24.126-21.648-10.969-9.6185-14.804 13.287z" opacity=".3" stroke-width=".9467"/><path d="m302.56 241.5-18.084 0.0925 0.50293 59.299-14.977-13.136-10.839 9.7293 24.281 21.293h-25.103v12.722h71.31v-12.722h-24.948l24.126-21.648-10.969-9.6185-14.804 13.287z" fill="#fff" stroke-width=".9467"/><g transform="translate(6.6699 3.7344)" clip-path="url(#c)"><path d="m15.75 102.66c0-3.375 2.5703-6.1211 5.8672-6.4102h327.75c2.6055 0.23047 4.7578 1.9961 5.543 4.3984v-7.5c-0.78516-2.4023-2.9375-4.168-5.543-4.3984h-327.75c-3.2969 0.28906-5.8672 3.0352-5.8672 6.4102z" fill="#fff"/></g></svg>
