<svg width="512" height="512" version="1.1" viewBox="0 0 384 384" xmlns="http://www.w3.org/2000/svg" xmlns:xlink="http://www.w3.org/1999/xlink"><defs><clipPath><rect width="384" height="384"/></clipPath><clipPath><rect width="384" height="384"/></clipPath><clipPath><rect width="384" height="384"/></clipPath><clipPath><rect width="384" height="384"/></clipPath><clipPath><rect width="384" height="384"/></clipPath><clipPath><rect width="384" height="384"/></clipPath><clipPath><rect width="384" height="384"/></clipPath><clipPath><rect width="384" height="384"/></clipPath><clipPath><rect width="384" height="384"/></clipPath><clipPath><rect width="384" height="384"/></clipPath><clipPath><rect width="384" height="384"/></clipPath><clipPath><rect width="384" height="384"/></clipPath><clipPath><rect width="384" height="384"/></clipPath><clipPath><rect width="384" height="384"/></clipPath><clipPath><rect width="384" height="384"/></clipPath><clipPath><rect width="384" height="384"/></clipPath><clipPath><rect width="384" height="384"/></clipPath><clipPath><rect width="384" height="384"/></clipPath><clipPath><rect width="384" height="384"/></clipPath><clipPath><rect width="384" height="384"/></clipPath><clipPath><rect width="384" height="384"/></clipPath><clipPath><rect width="384" height="384"/></clipPath><clipPath><rect width="384" height="384"/></clipPath><clipPath><rect width="384" height="384"/></clipPath><clipPath><rect width="384" height="384"/></clipPath><clipPath><rect width="384" height="384"/></clipPath><clipPath><rect width="384" height="384"/></clipPath><clipPath><rect width="384" height="384"/></clipPath><clipPath><rect width="384" height="384"/></clipPath><clipPath><rect width="384" height="384"/></clipPath><clipPath><rect width="384" height="384"/></clipPath><clipPath><rect width="384" height="384"/></clipPath><clipPath><rect width="384" height="384"/></clipPath><clipPath><rect width="384" height="384"/></clipPath><clipPath><rect width="384" height="384"/></clipPath><clipPath><rect width="384" height="384"/></clipPath><clipPath><rect width="384" height="384"/></clipPath><clipPath><rect width="384" height="384"/></clipPath><clipPath><rect width="384" height="384"/></clipPath><clipPath><rect width="384" height="384"/></clipPath><clipPath><rect width="384" height="384"/></clipPath><clipPath><rect width="384" height="384"/></clipPath><clipPath><rect width="384" height="384"/></clipPath><clipPath><rect width="384" height="384"/></clipPath><clipPath><rect width="384" height="384"/></clipPath><clipPath><rect width="384" height="384"/></clipPath><clipPath><rect width="384" height="384"/></clipPath><clipPath><rect width="384" height="384"/></clipPath><clipPath><rect width="384" height="384"/></clipPath><clipPath><rect width="384" height="384"/></clipPath><clipPath><rect width="384" height="384"/></clipPath><clipPath id="clip2-08"><path d="m111 119h177v23h-177z"/></clipPath><clipPath><path d="m368.64 199.88c0-93.234-75.602-168.75-168.75-168.75-93.152 0-168.75 75.516-168.75 168.75s75.598 168.75 168.75 168.75c93.148 0 168.75-75.516 168.75-168.75z"/></clipPath><clipPath id="clip4-06"><path d="m177 130h45v89h-45z"/></clipPath><clipPath><path d="m368.64 199.88c0-93.234-75.602-168.75-168.75-168.75-93.152 0-168.75 75.516-168.75 168.75s75.598 168.75 168.75 168.75c93.148 0 168.75-75.516 168.75-168.75z"/></clipPath><clipPath id="clip6"><path d="m111 207h177v89h-177z"/></clipPath><clipPath><path d="m368.64 199.88c0-93.234-75.602-168.75-168.75-168.75-93.152 0-168.75 75.516-168.75 168.75s75.598 168.75 168.75 168.75c93.148 0 168.75-75.516 168.75-168.75z"/></clipPath><clipPath id="clip1-6"><rect width="384" height="384"/></clipPath><g clip-path="url(#clip1-6)"><g clip-path="url(#clip2-08)"></g><g clip-path="url(#clip4-06)"></g><g clip-path="url(#clip6)"></g></g><clipPath><rect width="384" height="384"/></clipPath><clipPath><rect width="384" height="384"/></clipPath><clipPath><rect width="384" height="384"/></clipPath><clipPath><rect width="384" height="384"/></clipPath><clipPath><rect width="384" height="384"/></clipPath><clipPath><rect width="384" height="384"/></clipPath><clipPath><rect width="384" height="384"/></clipPath><clipPath><rect width="384" height="384"/></clipPath><clipPath><rect width="384" height="384"/></clipPath><clipPath><rect width="384" height="384"/></clipPath><clipPath><rect width="384" height="384"/></clipPath></defs><g transform="translate(-448.74 83.378)"><path d="m738.44 64.021-105.8-37.103-113.38 7.5554-28.938 36.113c5.1491 33.383 1.9499 69.52 19.882 98.685l200.47 63.498 27.607-77.059z" fill="#fff" stroke-width="11.633"/><path d="m632.23-25.331c-0.018 6e-3 -24.14 0.11706-34.669 3.4977-17.544 4.0486-33.283 11.51-48.878 20.154-20.25 13.614-36.835 32.464-49.644 53.091-11.267 19.888-18.093 42.009-20.631 64.679-1.5082 22.984 1.1193 46.404 9.7741 67.907 16.384 36.934 56.943 79.998 94.521 79.537-8.1413-4.7071-28.519-23.156-34.899-58.164 6.7735 13.266 37.356 30.861 46.534 34.899-4.5596-4.2578-22.069-29.794-23.269-44.787l-58.473-17.981c-5.157-16.316-8.227-33.19-10.106-50.442-0.24011-3.8559-0.72099-8.039 0.66828-7.0111 5.1968 8.2366 12.36 10.846 21.381 15.523-8.5557-13.456-12.458-28.885-11.052-44.88 1.4112-16.05 10.467-31.611 20.412-43.141 26.056-29.829 64.076-53.961 98.331-72.882z" opacity=".3" stroke-width="11.633"/><path d="m521.97 32.303 19.102 2.7282 5.2444-25.564-10.489 5.1128z" fill="#3f7da7" fill-rule="evenodd" stroke-width="11.633"/><g><g stroke-width="11.633"><path d="m729.83 96.001-15.697-51.565-192-1.927l-1.0886 1.3413-1.7992 2.2552 72.692 102.8z" opacity=".2"/><path d="m729.83 84.368-15.697-51.565-192-1.927-1.0886 1.3413-1.7992 2.2552 72.692 102.8z" fill="#fff"/><path d="m632.23-32.831c-0.018 6e-3 -24.14 0.11706-34.669 3.4977-17.544 4.0486-33.283 11.51-48.878 20.154-20.25 13.614-36.835 32.464-49.644 53.091-11.267 19.888-18.093 42.009-20.631 64.679-1.5082 22.984 1.1193 46.404 9.7741 67.907 16.384 36.934 56.943 79.998 94.521 79.537-8.1413-4.7071-28.519-23.156-34.899-58.164 6.7735 13.266 37.356 30.861 46.534 34.899-4.5596-4.2578-22.069-29.794-23.269-44.787l-58.473-17.981c-5.157-16.316-8.227-33.19-10.106-50.442-0.24011-3.8559-0.72099-8.0389 0.66828-7.0111 5.1968 8.2366 12.36 10.846 21.381 15.523-8.5557-13.456-12.458-28.885-11.052-44.88 1.4112-16.05 10.467-31.611 20.412-43.141 26.056-29.829 64.076-53.961 98.331-72.882z" fill="#2b62c0"/></g><path transform="scale(.75)" d="m842.97-43.773c-0.024 8e-3 -32.186 0.15452-46.225 4.6621-23.392 5.3981-44.378 15.348-65.172 26.873-26.999 18.152-49.115 43.284-66.193 70.787-15.023 26.517-24.124 56.012-27.508 86.238-0.45543 6.9405-0.61024 13.911-0.4707 20.875 0.0795-3.6294 0.23327-7.2566 0.4707-10.875 3.3839-30.226 12.485-59.721 27.508-86.238 17.078-27.503 39.194-52.635 66.193-70.787 20.794-11.525 41.78-21.475 65.172-26.873 6.7738-2.175 17.754-3.3283 27.32-3.9473 6.358-3.6979 12.68-7.2767 18.904-10.715zm-112.57 317.6c5.8705 32.21 20.626 53.903 32.777 66.32 4.5996 0.85593 9.1929 1.2883 13.754 1.2324-9.5718-5.5342-31.822-25.326-42.783-61.928-1.5376-1.918-2.818-3.8034-3.748-5.625z" fill="#fff" opacity=".3" stroke-width="15.511"/><path transform="scale(.75)" d="m984.57 95.355-0.20898 112.26-36.809 102.75c-87.999-28.006-175.62-57.285-264.09-83.689 0.30122 3.584 1.1777 7.1681 2.1958 10.752l261.9 82.937 36.809-102.75 0.22656-122.25z" opacity=".3" stroke-width="15.511"/><path d="m605.96-50.558c-27.566 0.73573-43.047 28.966-53.911 50.754-3.9131 6.9253-7.9691 15.143-11.387 21.684-6.5417 10.308-2.702 22.688-1.3461 33.966-0.14273 3.0905 1.7504 9.5791 0.26756 10.233-2.9914 9.0367-5.842 20.698 1.3111 28.588 2.2657-10.214 13.412-15.135 22.196-19.431 9.9298-4.311 17.967-10.842 27.799-15.373 12.956-7.432 25.466 3.5193 42.109 3.5193 15.911 0 32.721-9.1971 48.466-16.277 3.6644 3.7907 10.218 9.9478 13.084 14.446h-0.0408c8.207 13.125 13.897 28.384 15.766 43.358 2.3322 19.587 0.37807 39.087-11.203 53.919-7.5e-4 2.1e-4 -0.0918 0.0187-0.0918 0.0187 2.6e-4 0 0.0803-2.1e-4 0.0814 0 0.23878 0.0315 21.009 1.5072 34.864-11.643-9.8851 76.432-56.751 117.29-81.432 127.96 32.854 2.2111 58.165-23.266 58.165-23.266 4.7778-6.8048-11.549 16.265-23.266 23.266 21.468-6.0114 35.841-8.196 49.388-18.081-5e-3 0 11.009-5.9929 22.493-19.093 1.5279-1.7428 4.1528-4.161 5.7258-6.1458 0.97776-1.2338 1.8816-2.499 2.8373-3.7387 0.16835-0.20382 0.36052-0.39759 0.52246-0.60434 24.172-29.571 35.945-66.336 35.072-99.653 0.1697-40.387-16.222-75.447-43.758-104.43-19.914-20.96-42.529-34.946-62.897-41.886-26.388-7.5776-58.946-10.808-82.235-6.4016-2.2055 0.73736 0.33022-12.124 3.0522-14.06-6.5297 0.61127-13.607 15.085-18.898 18.307 4.3422-7.194 2.0418-11.508 7.2649-18.307-19.417 3.6251-17.033 19.825-28.969 31.141 3.9327-21.027 12.604-29.239 28.969-42.774z" opacity=".3" stroke-width="11.633"/><path d="m605.96-58.058c-27.566 0.73573-43.047 28.966-53.911 50.754-3.9131 6.9253-7.9691 15.143-11.387 21.684-6.5417 10.308-2.702 22.688-1.3461 33.966-0.14273 3.0905 1.7504 9.5791 0.26756 10.233-2.9914 9.0367-5.842 20.698 1.3111 28.588 2.2657-10.214 13.412-15.135 22.196-19.431 9.9298-4.311 17.967-10.842 27.799-15.373 12.956-7.432 25.466 3.5193 42.109 3.5193 15.911 0 32.721-9.1971 48.466-16.277 3.6644 3.7907 10.218 9.9478 13.084 14.446h-0.0408c8.207 13.125 13.897 28.384 15.766 43.358 2.3322 19.587 0.37807 39.087-11.203 53.919-1e-3 2.1e-4 -0.0918 0.0187-0.0918 0.0187 2.6e-4 0 0.0803-2.1e-4 0.0814 0 0.23878 0.0315 21.009 1.5072 34.864-11.643-9.8851 76.432-56.751 117.29-81.432 127.96 32.854 2.2111 58.165-23.266 58.165-23.266 4.7778-6.8048-11.549 16.265-23.266 23.266 21.468-6.0114 35.841-8.196 49.388-18.081-5e-3 0 11.009-5.9929 22.493-19.093 1.5279-1.7428 4.1528-4.161 5.7258-6.1458 0.97776-1.2338 1.8816-2.499 2.8373-3.7387 0.16835-0.20382 0.36052-0.39759 0.52246-0.60433 24.172-29.571 35.945-66.336 35.072-99.653 0.16968-40.387-16.222-75.447-43.758-104.43-19.914-20.96-42.529-34.946-62.897-41.886-26.388-7.5776-58.946-10.808-82.235-6.4016-2.2055 0.73736 0.33023-12.124 3.0522-14.06-6.5297 0.61127-13.607 15.085-18.898 18.307 4.3422-7.194 2.0418-11.508 7.2649-18.307-19.417 3.6251-17.033 19.825-28.969 31.141 3.9327-21.027 12.604-29.239 28.969-42.774z" fill="#357af0" stroke-width="11.633"/><path d="m551.41 58.273c56.154-15.232 18.403-28.378 66.188-69.798-42.167 21.833-82.301 21.802-66.138 69.798h-0.0488z" opacity=".3" stroke-width="11.633"/><path d="m580.44 41.723c-3.7184 6.7917-12.395 9.529-17.194 6.9725-4.9051-2.5566-4.8787-11.104-1.0816-17.896 3.6656-6.7917 19.858-3.7445 19.937-3.7445 0.0768 0 2.0569 7.9021-1.6615 14.668z" opacity=".3" stroke-width="11.633"/></g><path d="m580.44 38.723c-3.7184 6.7917-12.395 9.529-17.194 6.9725-4.9051-2.5566-4.8787-11.104-1.0816-17.896 3.6656-6.7917 19.858-3.7445 19.937-3.7445 0.0768 0 2.0569 7.9021-1.6615 14.668z" fill="#fff" stroke-width="11.633"/><g><path d="m558.39 69.721s2.0883-2.0152 0.99967-5.7002c-13.018 4.3041-19.41-8.1565-19.364-8.1565 0.044 0-9.7527 25.675 1.9414 37.308 1.013-9.5811 15.939-22.95 15.985-22.95" stroke-width="11.633"/><path d="m529.49 208.54c14.134 20.328 32.379 44.28 53.208 47.492-8.1413-4.7071-28.519-23.158-34.899-58.165 6.7735 13.266 37.354 30.861 46.532 34.899-4.5596-4.2578-22.067-29.795-23.266-44.787l-58.681-18.04c0.36558 0.55629 1.6646 16.883 17.106 38.602z" opacity=".3" stroke-width="11.633"/><path transform="scale(.75)" d="m807.95-77.41c-36.754 0.98227-57.394 38.622-71.879 67.672-5.2174 9.2337-10.626 20.191-15.184 28.912-4.7439 7.4752-5.3807 15.769-4.6953 24.197 0.494-4.9279 1.8482-9.7108 4.6953-14.197 4.5573-8.7216 9.9662-19.678 15.184-28.912 12.486-25.041 29.556-56.443 57.568-65.268 4.1888-3.9456 8.9358-7.9589 14.311-12.404zm2e-3 15.51c-4.4633 0.83329-8.0471 2.1741-11.029 3.8848-3.9276 3.5121-7.3896 6.9108-10.467 10.42-4.5429 7.1772-7.3665 15.797-13.586 23.387-1.4085 4.1371-2.5826 8.6952-3.543 13.83 14.777-14.009 13.108-33.625 33.514-40.229 0.8014-3.5281 1.8486-7.0462 5.1113-11.293zm15.512 0c-6.8006 0.63664-14.043 12.527-20.252 19.76-1.1731 4.5295-1.4777 8.9002-4.9473 14.648 5.7866-3.5234 13.177-17.134 20.451-22.365 0.83447-4.7946 2.7505-10.623 4.748-12.043zm28.033 16.086c-11.477-0.01887-22.376 0.8223-32.072 2.6543-1.3215 5.188-1.7151 10.569-0.0312 10.006 31.052-5.8754 74.462-1.5683 109.65 8.5352 27.156 9.2528 57.312 27.901 83.863 55.848 36.532 38.453 58.344 84.93 58.336 138.44 0.079-3.086 0.088-6.1559 0.01-9.2031 0.2263-53.85-21.629-100.6-58.344-139.24-26.551-27.947-56.707-46.595-83.863-55.848-24.189-6.9461-52.266-11.154-77.543-11.195zm-132.13 124.18c-2.5958 7.8798-5.0727 17.212-3.7969 25.654 0.67169-5.5016 2.2516-11 3.8789-15.916 1.4649-0.64568 0.46026-5.5581-0.082-9.7383zm228.71 74.955c-0.69009 17.797-5.2027 34.641-15.984 48.449-1e-3 2.8e-4 -0.12109 0.0254-0.12109 0.0254 3.4e-4 0 0.10595-2.8e-4 0.10742 0 0.0936 0.0123 2.5953 0.18154 6.4902-0.0176 7.6721-14.423 10.129-31.181 9.5078-48.457zm30.488 42.951c-0.57528 0.54601-1.1599 1.0732-1.752 1.582-16.218 94.465-75.188 145.35-106.82 159.04 6.665 0.44856 13.093 0.0325 19.209-0.97851 33.741-23.421 78.453-75.254 89.367-159.64zm-31.844 140.38c-2.2925 2.1981-12.921 11.957-29.283 19.996 5.59-1.5549 10.769-2.9149 15.697-4.2051 5.9511-6.3116 10.98-12.516 13.586-15.791z" fill="#fff" opacity=".3" stroke-width="15.511"/></g></g></svg>
