<?xml version="1.0" encoding="UTF-8" standalone="no"?>
<svg
   xmlns:dc="http://purl.org/dc/elements/1.1/"
   xmlns:cc="http://creativecommons.org/ns#"
   xmlns:rdf="http://www.w3.org/1999/02/22-rdf-syntax-ns#"
   xmlns:svg="http://www.w3.org/2000/svg"
   xmlns="http://www.w3.org/2000/svg"
   xmlns:sodipodi="http://sodipodi.sourceforge.net/DTD/sodipodi-0.dtd"
   xmlns:inkscape="http://www.inkscape.org/namespaces/inkscape"
   width="512"
   height="512"
   version="1.1"
   viewBox="0 0 384 384"
   id="svg84"
   sodipodi:docname="yubikey-neo-manager.svg"
   inkscape:version="0.92.4 5da689c313, 2019-01-14">
  <metadata
     id="metadata88">
    <rdf:RDF>
      <cc:Work
         rdf:about="">
        <dc:format>image/svg+xml</dc:format>
        <dc:type
           rdf:resource="http://purl.org/dc/dcmitype/StillImage" />
        <dc:title></dc:title>
      </cc:Work>
    </rdf:RDF>
  </metadata>
  <sodipodi:namedview
     pagecolor="#ffffff"
     bordercolor="#666666"
     borderopacity="1"
     objecttolerance="10"
     gridtolerance="10"
     guidetolerance="10"
     inkscape:pageopacity="0"
     inkscape:pageshadow="2"
     inkscape:window-width="640"
     inkscape:window-height="480"
     id="namedview86"
     showgrid="false"
     inkscape:zoom="0.78997086"
     inkscape:cx="497.56575"
     inkscape:cy="-60.678487"
     inkscape:current-layer="svg84" />
  <defs
     id="defs60">
    <filter
       id="alpha"
       width="100%"
       height="100%"
       x="0%"
       y="0%"
       filterUnits="objectBoundingBox">
      <feColorMatrix
         in="SourceGraphic"
         type="matrix"
         values="0 0 0 0 1 0 0 0 0 1 0 0 0 0 1 0 0 0 1 0"
         id="feColorMatrix2" />
    </filter>
    <mask
       id="mask0">
      <g
         filter="url(#alpha)"
         id="g7">
        <rect
           width="384"
           height="384"
           x="0"
           y="0"
           style="fill:rgb(0%,0%,0%);fill-opacity:0.2"
           id="rect5" />
      </g>
    </mask>
    <clipPath
       id="clip1">
      <rect
         width="384"
         height="384"
         x="0"
         y="0"
         id="rect10" />
    </clipPath>
    <g
       id="surface5"
       clip-path="url(#clip1)">
      <path
         style="fill:rgb(0%,0%,0%)"
         d="M 192 30 C 99.214844 30 24 105.214844 24 198 C 24 290.785156 99.214844 366 192 366 C 284.785156 366 360 290.785156 360 198 C 360 105.214844 284.785156 30 192 30 Z M 192 30"
         id="path13" />
    </g>
    <mask
       id="mask1">
      <g
         filter="url(#alpha)"
         id="g18">
        <rect
           width="384"
           height="384"
           x="0"
           y="0"
           style="fill:rgb(0%,0%,0%);fill-opacity:0.2"
           id="rect16" />
      </g>
    </mask>
    <clipPath
       id="clip2">
      <rect
         width="384"
         height="384"
         x="0"
         y="0"
         id="rect21" />
    </clipPath>
    <g
       id="surface8"
       clip-path="url(#clip2)">
      <path
         style="fill:none;stroke-width:6;stroke-linecap:round;stroke-linejoin:round;stroke:rgb(0%,0%,0%)"
         d="M 22 20 L 32.39974 33"
         transform="matrix(6,0,0,6,0,0)"
         id="path24" />
    </g>
    <mask
       id="mask2">
      <g
         filter="url(#alpha)"
         id="g29">
        <rect
           width="384"
           height="384"
           x="0"
           y="0"
           style="fill:rgb(0%,0%,0%);fill-opacity:0.2"
           id="rect27" />
      </g>
    </mask>
    <clipPath
       id="clip3">
      <rect
         width="384"
         height="384"
         x="0"
         y="0"
         id="rect32" />
    </clipPath>
    <g
       id="surface11"
       clip-path="url(#clip3)">
      <path
         style="fill:none;stroke-width:6;stroke-linecap:round;stroke-linejoin:round;stroke:rgb(0%,0%,0%)"
         d="M 24 46 L 44 20"
         transform="matrix(6,0,0,6,0,0)"
         id="path35" />
    </g>
    <mask
       id="mask3">
      <g
         filter="url(#alpha)"
         id="g40">
        <rect
           width="384"
           height="384"
           x="0"
           y="0"
           style="fill:rgb(0%,0%,0%);fill-opacity:0.2"
           id="rect38" />
      </g>
    </mask>
    <clipPath
       id="clip4">
      <rect
         width="384"
         height="384"
         x="0"
         y="0"
         id="rect43" />
    </clipPath>
    <g
       id="surface14"
       clip-path="url(#clip4)">
      <path
         style="fill:rgb(100.000%,100.000%,100.000%)"
         d="M 192 24 C 99.214844 24 24 99.214844 24 192 C 24.035156 192.8125 24.078125 193.625 24.128906 194.4375 C 26.066406 103.097656 100.640625 30.050781 192 30 C 283.753906 30.058594 358.488281 103.726562 359.871094 195.46875 C 359.925781 194.3125 359.96875 193.15625 360 192 C 360 99.214844 284.785156 24 192 24 Z M 192 24"
         id="path46" />
    </g>
    <mask
       id="mask4">
      <g
         filter="url(#alpha)"
         id="g51">
        <rect
           width="384"
           height="384"
           x="0"
           y="0"
           style="fill:rgb(0%,0%,0%);fill-opacity:0.2"
           id="rect49" />
      </g>
    </mask>
    <clipPath
       id="clip5">
      <rect
         width="384"
         height="384"
         x="0"
         y="0"
         id="rect54" />
    </clipPath>
    <g
       id="surface17"
       clip-path="url(#clip5)">
      <path
         style="fill:rgb(0%,0%,0%)"
         d="M 384 288 C 384 341.019531 341.019531 384 288 384 C 234.980469 384 192 341.019531 192 288 C 192 234.980469 234.980469 192 288 192 C 341.019531 192 384 234.980469 384 288 Z M 384 288"
         id="path57" />
    </g>
    <clipPath
       id="clipPath92">
      <rect
         id="rect90"
         height="384"
         width="384" />
    </clipPath>
    <clipPath
       id="clipPath96">
      <rect
         id="rect94"
         height="384"
         width="384" />
    </clipPath>
    <clipPath
       id="clipPath100">
      <rect
         id="rect98"
         height="384"
         width="384" />
    </clipPath>
    <clipPath
       id="clipPath104">
      <rect
         id="rect102"
         height="384"
         width="384" />
    </clipPath>
    <clipPath
       id="clipPath108">
      <rect
         id="rect106"
         height="384"
         width="384" />
    </clipPath>
  </defs>
  <g
     id="g155"
     transform="translate(0,-0.005)">
    <path
       id="path112"
       d="M 192,23.25 C 98.801,23.25 23.25,98.801 23.25,192 23.25,285.199 98.801,360.75 192,360.75 285.199,360.75 360.75,285.199 360.75,192 360.75,98.801 285.199,23.25 192,23.25 Z"
       inkscape:connector-curvature="0"
       style="fill:#23a86e;stroke-width:1.00450003" />
    <g
       id="g122">
      <path
         id="path114"
         d="m 175.65,293.25 h 34.852 v -73.487 l 66.733,-114.01 H 238.6 l -44.308,83.213 -46.47,-83.213 h -41.066 l 68.894,113.47 z"
         inkscape:connector-curvature="0"
         style="opacity:0.3" />
      <path
         id="path116"
         d="m 175.65,285.75 h 34.852 V 212.263 L 277.235,98.253 H 238.6 l -44.308,83.213 -46.47,-83.213 h -41.066 l 68.894,113.47 z"
         inkscape:connector-curvature="0"
         style="fill:#ffffff" />
      <path
         id="path118"
         d="m 31.064,251 c -0.03628,1.6632 -0.06445,3.3281 -0.06445,5 0,124.27 100.73,225 225,225 124.27,0 225,-100.73 225,-225 0,-1.6719 -0.0282,-3.3368 -0.0645,-5 -2.6604,121.96 -102.34,220 -224.94,220 -122.6,0 -222.28,-98.045 -224.94,-220 z"
         transform="scale(0.75)"
         inkscape:connector-curvature="0"
         style="opacity:0.3;stroke-width:1.33930004" />
      <path
         id="path120"
         d="M 256,31 C 131.73,31 31,131.73 31,256 c 0,1.6719 0.02817,3.3368 0.06445,5 2.6604,-121.96 102.34,-220 224.94,-220 122.59,0 222.28,98.045 224.94,220 0.0363,-1.6632 0.0644,-3.3281 0.0644,-5 0,-124.27 -100.73,-225 -225,-225 z"
         transform="scale(0.75)"
         inkscape:connector-curvature="0"
         style="opacity:0.2;fill:#ffffff;stroke-width:1.33930004" />
    </g>
    <path
       id="path124"
       d="m 384,291.63 c 0,51.016 -41.359,92.375 -92.379,92.375 -51.02,0 -92.379,-41.359 -92.379,-92.375 0,-51.02 41.359,-92.379 92.379,-92.379 51.02,0 92.379,41.359 92.379,92.379 z"
       inkscape:connector-curvature="0"
       style="opacity:0.3" />
    <path
       id="path126"
       d="m 384,284.13 c 0,51.016 -41.359,92.375 -92.379,92.375 -51.02,0 -92.379,-41.359 -92.379,-92.375 0,-51.02 41.359,-92.379 92.379,-92.379 51.02,0 92.379,41.359 92.379,92.379 z"
       inkscape:connector-curvature="0"
       style="fill:#9754b3;fill-opacity:1" />
  </g>
  <path
     d="m 252.26221,336.623 h 15.82132 v -67.17579 l 44.22192,67.17579 h 18.67434 v -90 h -15.951 L 314.8991,313.66911 271.45529,246.623 h -19.19308 z"
     style="font-style:normal;font-variant:normal;font-weight:bold;font-stretch:normal;font-size:30px;line-height:1.25;font-family:cantarell;-inkscape-font-specification:'cantarell Bold';letter-spacing:0px;word-spacing:0px;opacity:0.3;fill:#000000;fill-opacity:1;stroke:none;stroke-width:3.24207497"
     id="path161-3"
     inkscape:connector-curvature="0" />
  <g
     aria-label="N"
     style="font-style:normal;font-weight:normal;font-size:30px;line-height:1.25;font-family:sans-serif;letter-spacing:0px;word-spacing:0px;fill:#000000;fill-opacity:1;stroke:none;stroke-width:0.75"
     id="text159"
     transform="matrix(4.3227666,0,0,4.3227666,-122.14349,-1992.6452)">
    <path
       d="m 86.612518,537.10237 h 3.66 v -15.54 l 10.230002,15.54 h 4.32 v -20.82 h -3.69 l -0.03,15.51 -10.050002,-15.51 h -4.44 z"
       style="font-style:normal;font-variant:normal;font-weight:bold;font-stretch:normal;font-family:cantarell;-inkscape-font-specification:'cantarell Bold';fill:#ffffff;fill-opacity:1;stroke-width:0.75"
       id="path161"
       inkscape:connector-curvature="0" />
  </g>
</svg>
