<svg xmlns="http://www.w3.org/2000/svg" width="512" height="512" version="1.1" viewBox="0 0 512 512">
 <defs>
  <filter id="filter4166" style="color-interpolation-filters:sRGB" width="1.056" height="1.099" x="-.03" y="-.05">
   <feGaussianBlur stdDeviation="5.9"/>
  </filter>
 </defs>
 <path style="fill:#245dc4;fill-rule:evenodd;stroke:#000000;stroke-width:0" d="m 55.066853,94.276715 c -7.824275,0 -14.123816,6.297845 -14.123816,14.122115 l 0,37.32867 0,120.13243 0,121.5455 0,7.30708 c 0,5.98757 4.819796,10.80737 10.807375,10.80737 l 408.499318,0 c 5.98757,0 10.80907,-4.8198 10.80907,-10.80737 l 0,-128.85257 -0.002,0 0,-120.13243 c 0,-11.78329 -9.48585,-21.26915 -21.26914,-21.26915 l -218.96832,0 c -5.81617,0 -8.11397,-0.68519 -11.8386,-4.18889 L 197.01302,98.500575 c -0.0748,-0.0762 -0.15164,-0.15024 -0.22814,-0.22473 l -0.0443,-0.0426 -0.002,0.002 c -2.53734,-2.44894 -5.98807,-3.95828 -9.80972,-3.95828 z"/>
 <path style="opacity:0.3;fill-rule:evenodd;stroke:#000000;stroke-width:0;filter:url(#filter4166)" d="m 28.241425,148.07206 c -12.87594,0 -23.24141,9.6069 -23.24141,21.54052 l 16,244.76159 0,7.4003 c 0,6.06398 5.26673,10.94526 11.80953,10.94526 l 446.379045,0 c 6.54281,0 11.81139,-4.88128 11.81139,-10.94526 l 15.998,-252.16189 c 0,-11.93362 -10.36547,-21.54052 -23.24141,-21.54052 l -455.515295,0 z" transform="matrix(0.88626203,0,0,0.86265191,29.117811,27.075351)"/>
 <path style="fill:#367bf0;fill-rule:evenodd;stroke:#000000;stroke-width:0" d="m 47.569939,157.23082 c -11.78328,0 -21.26914,8.79166 -21.26914,19.7126 l 14.64224,223.99111 v 6.77231 c 0,5.54939 4.81979,10.01644 10.80737,10.01644 H 460.24973 c 5.98757,0 10.80907,-4.46705 10.80907,-10.01644 l 14.64041,-230.76343 c 0,-10.92094 -9.48585,-19.71259 -21.26914,-19.71259 H 47.569809 Z"/>
 <path style="fill:none;stroke-width:4.255;stroke:#ffffff" d="m 252.59947,341.7717 c -7.67848,-2.11073 -13.9257,-7.02525 -17.40785,-14.0538 -1.59629,-3.22204 -3.63973,-11.47738 -3.08747,-12.03883 0.12497,-0.12705 3.07868,2.66287 4.73607,3.79098 1.6574,1.1281 3.13569,2.1979 3.13569,2.1979 0.20767,0.16127 2.70984,1.95368 6.06148,4.42848 7.12144,5.25836 9.13759,5.82148 13.3946,5.85541 5.81885,0.0464 10.66023,-2.49312 13.76535,-7.22045 2.76212,-4.20515 3.59605,-9.59706 2.19309,-14.17979 -1.50893,-4.9289 -3.68548,-7.28795 -11.07497,-12.00361 -2.78539,-1.77752 -5.65843,-3.43653 -6.37076,-3.83271 -0.6309,-0.35089 -4.73146,-2.30515 -6.28559,-3.37611 -0.91758,-0.6323 -2.14385,-1.4267 -2.00931,-1.4971 0.82632,-0.43238 2.51002,-0.45497 5.03548,-1.23803 l 1.54021,-0.47757 4.01517,-6.27206 c 2.17826,-3.40266 4.42515,-7.02601 4.9981,-8.11765 1.17118,-2.23148 2.59744,-4.6494 2.84144,-4.92906 0.15606,-0.0156 0.39432,1.99386 0.52016,3.35916 0.55748,6.04827 3.84704,13.87374 8.07653,19.21307 5.75248,7.26195 15.35198,12.76762 24.08368,13.81288 1.144,0.13694 2.23314,0.0982 2.23314,0.26743 0,0.37237 -2.97415,2.4186 -3.95139,2.98524 -0.36376,0.21092 -3.48375,2.18585 -6.85741,4.55542 l -6.13394,4.3083 -0.60347,3.12595 c -1.90384,9.86182 -8.55803,17.6084 -17.8764,20.81108 -4.01349,1.37941 -10.97616,1.62378 -14.97163,0.52547 z"/>
 <path style="fill:none;stroke-width:4.255;stroke:#ffffff" d="m 193.58263,301.63449 c -12.28673,-2.14223 -21.03631,-12.25842 -22.40343,-24.49021 -1.48366,-13.27456 6.36136,-25.04066 19.23314,-29.11374 3.51146,-1.11115 10.45301,-1.20648 14.09502,-0.19359 4.78685,1.33128 9.33779,4.13298 12.80352,7.77024 2.02516,2.12538 3.41082,4.6257 4.96728,7.04773 1.7079,2.65769 3.30612,10.89364 2.90503,11.30141 -0.10321,0.10494 -2.58765,-2.80629 -4.0735,-3.96332 -1.38694,-1.08001 -2.76403,-2.27709 -3.01061,-2.42148 -0.21278,-0.12459 -2.9282,-2.18516 -6.19447,-4.44414 -6.9235,-4.78837 -9.50976,-5.5595 -13.63111,-5.57117 -4.48873,-0.0127 -8.18525,1.40053 -11.22561,4.29177 -6.08646,5.78791 -7.16236,14.73252 -2.61067,21.70405 1.35224,2.07114 3.56941,4.20759 5.34934,5.15459 2.46466,1.31131 18.47347,10.91169 18.50105,11.34212 0.0304,0.47401 -2.49838,1.31872 -5.54666,1.67317 -3.31117,0.38502 -7.23533,0.24785 -9.15832,-0.0874 z"/>
 <path style="fill:#ffffff" d="M 305.07031 232.49609 C 299.35392 232.45449 295.82746 233.06722 291.17578 234.91406 C 278.41948 239.9787 269.27752 252.34474 268.45508 265.64648 C 268.35908 267.19914 268.2924 268.05528 268.07031 268.82031 C 268.07231 268.81831 268.07808 268.80884 268.08008 268.80664 C 268.23613 268.79104 268.47572 270.80071 268.60156 272.16602 C 269.15905 278.21429 272.44824 286.04152 276.67773 291.38086 C 282.4302 298.64281 292.02807 304.1481 300.75977 305.19336 C 301.82915 305.32137 302.85176 305.29533 302.98047 305.42969 C 303.69174 305.17541 304.77574 305.06577 307.07422 304.94727 C 315.75404 304.49977 323.88909 300.83534 330.26172 294.50391 C 341.15805 283.67804 344.07583 267.2532 337.56836 253.35938 C 332.92857 243.45315 324.32025 236.31562 313.58789 233.47266 C 310.61039 232.68393 309.2388 232.52644 305.07031 232.49609 z M 305.12109 243.05859 C 309.89563 243.07699 310.35823 243.14324 313.17969 244.23047 C 319.42478 246.6369 324.03055 250.8166 326.86328 256.64648 C 328.97259 260.98751 329.66681 264.38309 329.42188 269.15039 C 328.88196 279.65879 322.23027 288.42215 312.35742 291.63086 C 308.64662 292.83688 303.35544 293.11241 299.69531 292.29102 C 294.34574 291.09049 288.74911 287.49459 285.55664 283.20508 C 281.78246 278.13396 280.15955 272.86147 280.4375 266.57617 C 280.89234 256.29103 287.42432 247.44649 297.04492 244.08984 C 299.81377 243.12378 300.46627 243.04072 305.12109 243.05859 z M 198.27344 257.55664 C 193.78471 257.54394 190.08725 258.95643 187.04688 261.84766 C 180.96042 267.63557 179.88581 276.5812 184.4375 283.55273 C 185.78974 285.62388 188.00718 287.76003 189.78711 288.70703 C 192.25178 290.01835 208.25953 299.6184 208.28711 300.04883 C 208.28811 300.06403 208.27919 300.0798 208.27539 300.0957 L 208.41992 300.04492 L 212.9082 302.9707 C 215.37703 304.57982 220.68901 308.08866 224.71289 310.76758 L 232.0293 315.63867 L 232.04883 315.80078 C 232.06333 315.74758 232.07922 315.7043 232.10352 315.67969 C 232.22848 315.55265 235.18244 318.3426 236.83984 319.4707 C 238.49723 320.5988 239.97656 321.66797 239.97656 321.66797 C 240.18423 321.82924 242.68547 323.6209 246.03711 326.0957 C 253.15855 331.35406 255.17463 331.91725 259.43164 331.95117 C 265.25049 331.99757 270.09215 329.45976 273.19727 324.73242 C 275.95939 320.52727 276.79359 315.13352 275.39062 310.55078 C 273.88169 305.62188 271.7059 303.26254 264.31641 298.54688 C 261.53102 296.76936 258.65764 295.11102 257.94531 294.71484 C 257.31441 294.36394 253.21429 292.4108 251.66016 291.33984 C 250.76142 290.72052 249.56873 289.94732 249.64648 289.84961 C 248.46337 289.41274 244.91573 287.17216 237.27344 282.06055 L 225.20508 273.98828 L 225.19922 273.92578 C 225.19422 273.93598 225.18949 273.95063 225.18359 273.95703 C 225.08037 274.06197 222.59523 271.14923 221.10938 269.99219 C 219.72243 268.91218 218.34619 267.71666 218.09961 267.57227 C 217.88684 267.44767 215.17056 265.38593 211.9043 263.12695 C 204.98079 258.33858 202.39478 257.56831 198.27344 257.55664 z M 224.08008 267.38867 C 224.31224 268.24263 224.51807 269.10682 224.69141 269.91992 C 224.53419 269.06543 224.33355 268.22106 224.08008 267.38867 z M 263.57227 276.54883 C 263.16723 277.20166 262.8926 277.64629 262.45508 278.35156 C 262.85488 277.71198 263.2289 277.10814 263.57227 276.54883 z M 232.43164 318.94727 C 232.77807 321.17132 233.38276 323.31001 234.22461 325.33203 C 233.52204 323.33332 232.84724 320.8862 232.43164 318.94727 z"/>
</svg>
