<?xml version="1.0" encoding="UTF-8" standalone="no"?>
<!-- Created using Karbon, part of Calligra: http://www.calligra.org/karbon -->

<svg
   xmlns:dc="http://purl.org/dc/elements/1.1/"
   xmlns:cc="http://creativecommons.org/ns#"
   xmlns:rdf="http://www.w3.org/1999/02/22-rdf-syntax-ns#"
   xmlns:svg="http://www.w3.org/2000/svg"
   xmlns="http://www.w3.org/2000/svg"
   xmlns:sodipodi="http://sodipodi.sourceforge.net/DTD/sodipodi-0.dtd"
   xmlns:inkscape="http://www.inkscape.org/namespaces/inkscape"
   width="512"
   height="512"
   id="svg2"
   version="1.1"
   inkscape:version="0.91+devel r14055 custom"
   sodipodi:docname="tablet.svg"
   viewBox="0 0 511.99999 511.99999">
  <metadata
     id="metadata15">
    <rdf:RDF>
      <cc:Work
         rdf:about="">
        <dc:format>image/svg+xml</dc:format>
        <dc:type
           rdf:resource="http://purl.org/dc/dcmitype/StillImage" />
        <dc:title></dc:title>
      </cc:Work>
    </rdf:RDF>
  </metadata>
  <sodipodi:namedview
     pagecolor="#ffffff"
     bordercolor="#666666"
     borderopacity="1"
     objecttolerance="10"
     gridtolerance="10"
     guidetolerance="10"
     inkscape:pageopacity="0"
     inkscape:pageshadow="2"
     inkscape:window-width="960"
     inkscape:window-height="1008"
     id="namedview13"
     inkscape:document-units="px"
     showgrid="false"
     inkscape:zoom="0.4609375"
     inkscape:cx="256"
     inkscape:cy="256"
     inkscape:window-x="0"
     inkscape:window-y="32"
     inkscape:window-maximized="0"
     inkscape:current-layer="svg2"
     units="px" />
  <defs
     id="defs4" />
  <path
     inkscape:connector-curvature="0"
     style="opacity:1;fill:#d1d5db;fill-opacity:1;stroke:none;stroke-width:21.36363602;stroke-linecap:round;stroke-linejoin:round;stroke-miterlimit:4;stroke-dasharray:none;stroke-opacity:1"
     d="m 85.090872,63.72727 0,384.54546 373.863638,0 C 476.70768,448.27273 491,433.98046 491,416.22728 L 491,95.77272 C 491,78.01954 476.70768,63.72727 458.95451,63.72727 l -373.863638,0 z"
     id="rect4169" />
  <path
     inkscape:connector-curvature="0"
     id="path4235"
     d="m 378.30345,189.02927 c -3.28849,-3.28893 -8.46879,-3.27505 -11.75695,0 l -16.2414,16.3325 -11.16677,11.16784 -29.25217,29.25323 -59.22713,59.23175 0,31.09905 31.09614,0 59.22702,-59.23175 29.25217,-29.25537 11.16688,-11.16677 16.32987,-16.24277 c 3.28815,-3.28894 3.30269,-8.46962 0.0111,-11.75748 L 378.2998,189.01538 Z"
     style="fill:#000000;fill-opacity:0.2;stroke-width:10.68181801" />
  <path
     inkscape:connector-curvature="0"
     style="opacity:1;fill:#3b414b;fill-opacity:1;stroke:none;stroke-width:21.36363602;stroke-linecap:round;stroke-linejoin:round;stroke-miterlimit:4;stroke-dasharray:none;stroke-opacity:1"
     d="M 53.045383,63.72727 C 35.292204,63.72727 21,78.01954 21,95.77272 l 0,320.45456 c 0,17.75318 14.292204,32.04545 32.045383,32.04545 l 32.045489,0 0,-10.68182 0,-64.09091 0,-309.77273 -32.045489,0 z"
     id="rect4171" />
  <path
     inkscape:connector-curvature="0"
     style="opacity:1;fill:#ffffff;fill-opacity:0.2;stroke:none;stroke-width:21.36363602;stroke-linecap:round;stroke-linejoin:round;stroke-miterlimit:4;stroke-dasharray:none;stroke-opacity:1"
     d="M 53.045383,63.72727 C 35.292204,63.72727 21,78.01954 21,95.77272 l 0,10.68182 C 21,88.70136 35.292204,74.40909 53.045383,74.40909 l 32.045489,0 373.863638,0 C 476.70768,74.40909 491,88.70136 491,106.45454 l 0,-10.68182 C 491,78.01954 476.70768,63.72727 458.95451,63.72727 l -373.863638,0 -32.045489,0 z"
     id="path4179" />
  <path
     id="path4187"
     d="M 53.045383,448.27273 C 35.292204,448.27273 21,433.98046 21,416.22728 l 0,-10.68182 c 0,17.75318 14.292204,32.04545 32.045383,32.04545 l 32.045489,0 373.863638,0 C 476.70768,437.59091 491,423.29864 491,405.54546 l 0,10.68182 c 0,17.75318 -14.29232,32.04545 -32.04549,32.04545 l -373.863638,0 -32.045489,0 z"
     style="opacity:1;fill:#000000;fill-opacity:0.2;stroke:none;stroke-width:21.36363602;stroke-linecap:round;stroke-linejoin:round;stroke-miterlimit:4;stroke-dasharray:none;stroke-opacity:1"
     inkscape:connector-curvature="0" />
  <path
     style="fill:#3b414b;fill-opacity:1;stroke-width:10.68181801"
     d="m 372.96253,183.68836 c -3.28848,-3.28893 -8.46879,-3.27504 -11.75694,0 l -16.24141,16.3325 -11.16677,11.16784 -29.25217,29.25323 -59.22712,59.23175 0,31.09905 31.09613,0 59.22702,-59.23175 29.25217,-29.25536 11.16688,-11.16678 16.32988,-16.24277 c 3.28815,-3.28894 3.30268,-8.46962 0.0111,-11.75748 l -19.44241,-19.44412 z"
     id="path4"
     inkscape:connector-curvature="0" />
  <circle
     r="16.022728"
     style="opacity:1;fill:#2980b9;fill-opacity:1;stroke:none;stroke-width:21.36363602;stroke-linecap:round;stroke-linejoin:round;stroke-miterlimit:4;stroke-dasharray:none;stroke-opacity:1"
     id="path4242"
     cx="53.045486"
     cy="394.86331" />
</svg>
