<svg xmlns="http://www.w3.org/2000/svg" width="12pt" height="12pt" version="1.1" viewBox="0 0 12 12">
 <g>
  <path style="fill:rgb(82.745098%,85.490196%,89.019608%)" d="M 5.9375 2.5 C 5.265625 2.511719 4.589844 2.722656 3.996094 3.140625 C 2.414062 4.246094 2.03125 6.417969 3.140625 8.003906 C 4.25 9.585938 6.417969 9.96875 8.003906 8.859375 C 9.140625 8.0625 9.65625 6.71875 9.449219 5.433594 C 9.398438 5.132812 9.304688 4.851562 9.183594 4.582031 L 6.007812 8.210938 L 5.664062 8.617188 L 5.273438 8.242188 L 3.773438 6.742188 C 3.585938 6.554688 3.585938 6.210938 3.773438 6.023438 C 3.960938 5.835938 4.304688 5.835938 4.492188 6.023438 L 5.617188 7.148438 L 8.628906 3.703125 C 8.089844 3.082031 7.375 2.6875 6.605469 2.550781 C 6.386719 2.511719 6.164062 2.496094 5.9375 2.5 Z M 5.9375 2.5"/>
 </g>
</svg>
