<svg xmlns="http://www.w3.org/2000/svg" width="12pt" height="12pt" version="1.1" viewBox="0 0 12 12">
 <g>
  <path style="fill:rgb(82.745098%,85.490196%,89.019608%)" d="M 4.5 2 C 3.398438 2.636719 2.714844 3.714844 2.546875 4.882812 C 2.664062 4.824219 2.789062 4.773438 2.917969 4.734375 C 3.46875 4.554688 4.082031 4.503906 4.726562 4.5 C 5.617188 4.496094 6.566406 4.613281 7.460938 4.785156 C 6.765625 3.285156 5.761719 1.996094 4.5 2 Z M 6.621094 2.558594 C 7.140625 3.117188 7.566406 3.824219 7.914062 4.574219 L 8.074219 4.917969 C 8.554688 5.027344 9.015625 5.144531 9.417969 5.273438 C 9.121094 3.882812 8.015625 2.8125 6.621094 2.558594 Z M 4.726562 5 C 3.5 5.003906 2.445312 5.21875 2 6 C 2 8.210938 3.789062 10 6 10 C 8.210938 10 10 8.210938 10 6 C 8.828125 5.542969 6.578125 4.992188 4.726562 5 Z M 4.726562 5"/>
 </g>
</svg>
