<svg xmlns="http://www.w3.org/2000/svg" width="12pt" height="12pt" version="1.1" viewBox="0 0 12 12">
 <g>
  <path style="fill:rgb(82.745098%,85.490196%,89.019608%)" d="M 6 0.75 C 3.101562 0.75 0.75 3.101562 0.75 6 C 0.75 8.898438 3.101562 11.25 6 11.25 C 8.898438 11.25 11.25 8.898438 11.25 6 C 11.25 3.101562 8.898438 0.75 6 0.75 Z M 6.246094 3.429688 L 6.25 3.429688 C 7.449219 3.476562 8.160156 4.285156 8.238281 5.46875 C 8.324219 6.804688 7.933594 7.152344 8.101562 7.417969 C 8.453125 7.980469 7.953125 8.125 7.625 8.398438 C 7.417969 8.566406 7.019531 8.492188 6.824219 8.25 C 6.226562 7.902344 6.457031 8.566406 5.222656 8.570312 C 4.582031 8.542969 3.992188 8.082031 3.828125 7.457031 C 3.574219 6.5 3.945312 5.792969 4.984375 5.460938 C 5.289062 5.363281 5.882812 5.421875 6.148438 5.230469 C 6.394531 5.046875 6.308594 4.789062 6.003906 4.753906 C 5.566406 4.703125 4.882812 4.902344 4.480469 4.820312 C 4.15625 4.757812 4.058594 4.140625 4.269531 3.875 C 4.617188 3.441406 5.503906 3.457031 6.003906 3.433594 C 6.085938 3.429688 6.167969 3.425781 6.246094 3.429688 Z M 6.007812 6.101562 C 5.59375 6.101562 5.25 6.414062 5.25 6.796875 C 5.25 7.183594 5.59375 7.5 6.007812 7.5 C 6.421875 7.5 6.75 7.183594 6.75 6.796875 C 6.75 6.414062 6.421875 6.101562 6.007812 6.101562 Z M 6.007812 6.101562"/>
 </g>
</svg>
