<svg xmlns="http://www.w3.org/2000/svg" width="12pt" height="12pt" version="1.1" viewBox="0 0 12 12">
 <g>
  <path style="fill:rgb(82.745098%,85.490196%,89.019608%)" d="M 3.375 1.453125 C 0.863281 2.902344 0.00390625 6.113281 1.453125 8.625 C 2.902344 11.136719 6.113281 11.996094 8.625 10.546875 C 11.136719 9.097656 11.996094 5.886719 10.546875 3.375 C 9.097656 0.863281 5.886719 0.00390625 3.375 1.453125 Z M 4.125 2.753906 C 5.695312 1.84375 7.652344 2.203125 8.808594 3.511719 L 9.523438 3.101562 L 9.347656 5.800781 L 6.925781 4.601562 L 7.453125 4.292969 C 6.75 3.695312 5.722656 3.5625 4.875 4.050781 C 4.410156 4.320312 4.058594 4.746094 3.882812 5.25 L 2.332031 5.25 C 2.542969 4.199219 3.199219 3.289062 4.125 2.753906 Z M 2.652344 6.199219 L 5.074219 7.398438 L 4.546875 7.707031 C 5.25 8.304688 6.277344 8.4375 7.125 7.949219 C 7.589844 7.679688 7.941406 7.253906 8.117188 6.75 L 9.667969 6.75 C 9.457031 7.800781 8.800781 8.710938 7.875 9.246094 C 6.304688 10.15625 4.347656 9.796875 3.191406 8.488281 L 2.476562 8.898438 Z M 2.652344 6.199219"/>
 </g>
</svg>
