<svg xmlns="http://www.w3.org/2000/svg" width="12pt" height="12pt" version="1.1" viewBox="0 0 12 12">
 <g>
  <path style="fill:rgb(82.745098%,85.490196%,89.019608%)" d="M 10.546875 8.625 C 11.996094 6.113281 11.136719 2.902344 8.625 1.453125 C 6.113281 0.00390625 2.902344 0.863281 1.453125 3.375 C 0.00390625 5.886719 0.863281 9.097656 3.375 10.546875 C 5.886719 11.996094 9.097656 11.136719 10.546875 8.625 Z M 9.246094 7.875 C 8.339844 9.445312 6.46875 10.113281 4.8125 9.558594 L 4.398438 10.273438 L 3.199219 7.847656 L 5.898438 7.675781 L 5.59375 8.203125 C 6.503906 8.371094 7.460938 7.972656 7.949219 7.125 C 8.214844 6.660156 8.308594 6.117188 8.210938 5.589844 L 9.550781 4.816406 C 9.894531 5.832031 9.78125 6.945312 9.246094 7.875 Z M 8.800781 4.152344 L 6.101562 4.324219 L 6.40625 3.796875 C 5.496094 3.628906 4.539062 4.027344 4.050781 4.875 C 3.785156 5.339844 3.691406 5.882812 3.789062 6.410156 L 2.449219 7.183594 C 2.105469 6.167969 2.21875 5.054688 2.753906 4.125 C 3.660156 2.554688 5.53125 1.886719 7.1875 2.441406 L 7.601562 1.726562 Z M 8.800781 4.152344"/>
 </g>
</svg>
