<svg xmlns="http://www.w3.org/2000/svg" width="12pt" height="12pt" version="1.1" viewBox="0 0 12 12">
 <g>
  <path style="fill:rgb(82.745098%,85.490196%,89.019608%)" d="M 5.394531 0 C 4.570312 1.035156 4.324219 1.175781 4.621094 1.835938 C 4.890625 2.4375 5.585938 2.363281 5.238281 3.75 C 5.8125 3.074219 6.269531 2.59375 5.816406 1.90625 C 5.359375 1.199219 5.105469 1.148438 5.394531 0 Z M 7.644531 0 C 6.820312 1.035156 6.574219 1.175781 6.871094 1.835938 C 7.140625 2.4375 7.835938 2.363281 7.488281 3.75 C 8.0625 3.074219 8.519531 2.59375 8.066406 1.90625 C 7.609375 1.199219 7.355469 1.148438 7.644531 0 Z M 9.894531 0 C 9.070312 1.035156 8.824219 1.175781 9.121094 1.835938 C 9.390625 2.4375 10.085938 2.363281 9.738281 3.75 C 10.3125 3.074219 10.769531 2.59375 10.316406 1.90625 C 9.859375 1.199219 9.605469 1.148438 9.894531 0 Z M 3 4.5 C 1.34375 4.5 0 5.84375 0 7.5 C 0 9.15625 1.34375 10.5 3 10.5 C 3.183594 10.5 3.363281 10.484375 3.542969 10.449219 C 4.097656 11.609375 5.21875 12 7.5 12 C 12 12 12 10.5 12 4.5 Z M 3 6 L 3.003906 6 C 3.015625 7.199219 3.046875 8.203125 3.152344 8.992188 C 3.101562 8.992188 3.050781 9 3 9 C 2.171875 9 1.5 8.324219 1.5 7.5 C 1.5 6.675781 2.171875 6 3 6 Z M 3 6"/>
 </g>
</svg>
