<svg xmlns="http://www.w3.org/2000/svg" width="12pt" height="12pt" version="1.1" viewBox="0 0 12 12">
 <g>
  <path style="fill:rgb(82.745098%,85.490196%,89.019608%)" d="M 5.90625 1.992188 C 3.726562 2.042969 1.988281 3.832031 2 6.011719 C 2 8.21875 3.792969 10.011719 6 10.011719 C 8.207031 10.011719 10 8.21875 10 6.011719 C 10.007812 4.929688 9.574219 3.894531 8.804688 3.136719 C 8.03125 2.378906 6.984375 1.964844 5.90625 1.992188 Z M 6 2.988281 C 7.652344 2.988281 9 4.335938 9 5.988281 C 9 7.644531 7.652344 8.988281 6 8.988281 C 4.347656 8.988281 3 7.644531 3 5.988281 C 3 4.335938 4.347656 2.988281 6 2.988281 Z M 6.199219 3.488281 C 6 3.488281 6 3.699219 6 3.699219 L 6 6.09375 C 5.808594 6.023438 5.664062 5.988281 5.449219 5.988281 C 4.675781 5.988281 4 6.4375 4 6.988281 C 4 7.542969 4.726562 7.988281 5.5 7.988281 C 6.273438 7.988281 7 7.542969 7 6.988281 L 7 4.488281 C 7 4.488281 8.132812 5.070312 7.664062 5.5 C 7.53125 5.574219 7.488281 5.691406 7.511719 5.789062 C 7.546875 5.941406 7.734375 6.058594 7.988281 5.949219 C 8.375 5.75 8.5 5.390625 8.5 5.089844 C 8.5 4.1875 7 3.488281 6.199219 3.488281 Z M 6.199219 3.488281"/>
 </g>
</svg>
