<svg xmlns="http://www.w3.org/2000/svg" width="12pt" height="12pt" version="1.1" viewBox="0 0 12 12">
 <g>
  <path style="fill:rgb(82.745098%,85.490196%,89.019608%)" d="M 8.84375 2.585938 L 8.632812 2.40625 C 8.320312 2.144531 7.925781 2 7.519531 2 C 6.980469 2 6.480469 2.246094 6.140625 2.679688 L 2.894531 6.835938 C 2.597656 7.214844 2.460938 7.695312 2.511719 8.183594 C 2.558594 8.667969 2.789062 9.105469 3.15625 9.414062 L 3.367188 9.59375 C 3.683594 9.855469 4.078125 10 4.480469 10 C 4.542969 10 4.605469 9.996094 4.667969 9.988281 C 5.136719 9.9375 5.554688 9.703125 5.851562 9.328125 C 5.851562 9.328125 5.855469 9.328125 8.042969 6.523438 C 8.433594 6.027344 8.359375 5.292969 7.875 4.886719 L 7.765625 4.796875 C 7.566406 4.628906 7.316406 4.535156 7.058594 4.535156 C 6.71875 4.535156 6.398438 4.695312 6.183594 4.96875 L 3.996094 7.765625 C 3.855469 7.949219 3.882812 8.21875 4.058594 8.367188 C 4.132812 8.429688 4.222656 8.460938 4.316406 8.460938 C 4.441406 8.460938 4.558594 8.402344 4.636719 8.304688 L 6.824219 5.503906 C 6.882812 5.429688 6.96875 5.390625 7.058594 5.390625 C 7.128906 5.390625 7.191406 5.414062 7.246094 5.457031 L 7.359375 5.550781 C 7.421875 5.601562 7.457031 5.675781 7.46875 5.761719 C 7.476562 5.84375 7.453125 5.925781 7.402344 5.988281 L 5.21875 8.785156 C 5.039062 9.015625 4.769531 9.148438 4.480469 9.148438 C 4.265625 9.148438 4.054688 9.070312 3.886719 8.929688 L 3.675781 8.753906 C 3.480469 8.589844 3.355469 8.355469 3.332031 8.09375 C 3.304688 7.832031 3.375 7.578125 3.535156 7.375 L 6.785156 3.21875 C 6.964844 2.988281 7.234375 2.855469 7.519531 2.855469 C 7.734375 2.855469 7.949219 2.933594 8.113281 3.070312 L 8.328125 3.25 C 8.730469 3.589844 8.796875 4.207031 8.464844 4.628906 C 8.398438 4.714844 8.367188 4.828125 8.378906 4.941406 C 8.390625 5.054688 8.441406 5.15625 8.527344 5.226562 C 8.601562 5.289062 8.691406 5.324219 8.785156 5.324219 C 8.910156 5.324219 9.027344 5.265625 9.105469 5.164062 C 9.40625 4.785156 9.539062 4.308594 9.492188 3.820312 C 9.441406 3.332031 9.210938 2.890625 8.84375 2.585938 Z M 8.84375 2.585938"/>
 </g>
</svg>
