<svg xmlns="http://www.w3.org/2000/svg" width="12pt" height="12pt" version="1.1" viewBox="0 0 12 12">
 <g>
  <path style="fill:rgb(82.745098%,85.490196%,89.019608%)" d="M 6 0.75 C 3.101562 0.75 0.75 3.101562 0.75 6 C 0.75 8.898438 3.101562 11.25 6 11.25 C 8.898438 11.25 11.25 8.898438 11.25 6 C 11.25 3.101562 8.898438 0.75 6 0.75 Z M 7.488281 2.203125 C 7.910156 2.195312 8.253906 2.539062 8.25 2.960938 L 8.25 5.144531 C 8.261719 5.226562 8.261719 5.308594 8.25 5.390625 L 8.25 8.988281 L 6.75 9 L 4.5 9 L 3.75 8.25 L 3.75 5.261719 L 4.5 4.511719 L 6.75 4.511719 L 6.75 2.960938 C 6.746094 2.546875 7.074219 2.207031 7.488281 2.203125 Z M 5.25 6.011719 L 5.25 7.5 L 6.75 7.5 L 6.75 6.011719 Z M 5.25 6.011719"/>
 </g>
</svg>
