<svg xmlns="http://www.w3.org/2000/svg" width="12pt" height="12pt" version="1.1" viewBox="0 0 12 12">
 <g>
  <path style="fill:rgb(82.745098%,85.490196%,89.019608%)" d="M 6 2 C 3.785156 2 2 3.785156 2 6 C 2 8.214844 3.785156 10 6 10 C 8.214844 10 10 8.214844 10 6 C 10 3.785156 8.214844 2 6 2 Z M 5 4.5 C 5.277344 4.5 5.5 4.945312 5.5 5.5 L 5.5 6.5 C 5.5 7.054688 5.277344 7.5 5 7.5 C 4.722656 7.5 4.5 7.054688 4.5 6.5 L 4.5 5.5 C 4.5 4.945312 4.722656 4.5 5 4.5 Z M 7 4.5 C 7.277344 4.5 7.5 4.945312 7.5 5.5 L 7.5 6.5 C 7.5 7.054688 7.277344 7.5 7 7.5 C 6.722656 7.5 6.5 7.054688 6.5 6.5 L 6.5 5.5 C 6.5 4.945312 6.722656 4.5 7 4.5 Z M 7 4.5"/>
 </g>
</svg>
