<svg xmlns="http://www.w3.org/2000/svg" width="12pt" height="12pt" version="1.1" viewBox="0 0 12 12">
 <g>
  <path style="fill:rgb(82.745098%,85.490196%,89.019608%)" d="M 6 2 C 6.277344 2 6.5 2.222656 6.5 2.5 C 6.5 2.515625 6.5 2.535156 6.496094 2.550781 C 7.640625 2.777344 8.5 3.785156 8.5 5 L 8.5 7.25 L 9.5 8.25 L 9.5 8.5 L 2.5 8.5 L 2.5 8.25 L 3.5 7.25 L 3.5 5 C 3.5 3.785156 4.359375 2.777344 5.503906 2.550781 C 5.5 2.535156 5.5 2.515625 5.5 2.5 C 5.5 2.222656 5.722656 2 6 2 Z M 6.863281 9 C 6.6875 9.308594 6.355469 9.5 6 9.5 C 5.644531 9.5 5.3125 9.308594 5.132812 9 Z M 6.863281 9"/>
 </g>
</svg>
