<svg xmlns="http://www.w3.org/2000/svg" width="12pt" height="12pt" version="1.1" viewBox="0 0 12 12">
 <g>
  <path style="fill:rgb(82.745098%,85.490196%,89.019608%)" d="M 0.75 0 C 0.335938 0 0 0.335938 0 0.75 L 0 11.25 C 0 11.664062 0.335938 12 0.75 12 L 11.25 12 C 11.664062 12 12 11.664062 12 11.25 L 12 0.75 C 12 0.335938 11.664062 0 11.25 0 Z M 1.125 0.75 C 1.332031 0.75 1.5 0.917969 1.5 1.125 C 1.5 1.332031 1.332031 1.5 1.125 1.5 C 0.917969 1.5 0.75 1.332031 0.75 1.125 C 0.75 0.917969 0.917969 0.75 1.125 0.75 Z M 6 0.75 C 8.898438 0.75 11.25 3.101562 11.25 6 C 11.25 8.898438 8.898438 11.25 6 11.25 C 3.101562 11.25 0.75 8.898438 0.75 6 C 0.75 3.101562 3.101562 0.75 6 0.75 Z M 10.875 0.75 C 11.082031 0.75 11.25 0.917969 11.25 1.125 C 11.25 1.332031 11.082031 1.5 10.875 1.5 C 10.667969 1.5 10.5 1.332031 10.5 1.125 C 10.5 0.917969 10.667969 0.75 10.875 0.75 Z M 1.125 10.5 C 1.332031 10.5 1.5 10.667969 1.5 10.875 C 1.5 11.082031 1.332031 11.25 1.125 11.25 C 0.917969 11.25 0.75 11.082031 0.75 10.875 C 0.75 10.667969 0.917969 10.5 1.125 10.5 Z M 10.875 10.5 C 11.082031 10.5 11.25 10.667969 11.25 10.875 C 11.25 11.082031 11.082031 11.25 10.875 11.25 C 10.667969 11.25 10.5 11.082031 10.5 10.875 C 10.5 10.667969 10.667969 10.5 10.875 10.5 Z M 10.875 10.5"/>
  <path style="fill:rgb(82.745098%,85.490196%,89.019608%)" d="M 7.5 6 C 7.5 6.828125 6.828125 7.5 6 7.5 C 5.171875 7.5 4.5 6.828125 4.5 6 C 4.5 5.171875 5.171875 4.5 6 4.5 C 6.828125 4.5 7.5 5.171875 7.5 6 Z M 7.5 6"/>
  <path style="fill:rgb(82.745098%,85.490196%,89.019608%)" d="M 6.75 1.578125 C 6.335938 1.574219 6 1.910156 6 2.328125 L 6 3.75 C 6.683594 3.75 7.332031 4.0625 7.757812 4.597656 C 8.351562 4.46875 8.847656 4.351562 9.355469 4.230469 C 10.023438 4.074219 9.753906 3.488281 9.484375 3.160156 C 8.832031 2.355469 7.917969 1.800781 6.902344 1.589844 C 6.851562 1.582031 6.800781 1.574219 6.75 1.574219 Z M 6.75 1.578125"/>
  <path style="fill:rgb(82.745098%,85.490196%,89.019608%)" d="M 10.421875 6.75 C 10.421875 6.300781 10.085938 6 9.671875 6 L 8.25 6 C 8.238281 6.671875 7.929688 7.304688 7.402344 7.726562 C 7.53125 8.324219 7.648438 8.851562 7.765625 9.375 C 7.925781 10.050781 8.507812 9.75 8.839844 9.449219 C 9.644531 8.851562 10.199219 7.949219 10.410156 6.898438 C 10.417969 6.824219 10.421875 6.824219 10.421875 6.75 Z M 10.421875 6.75"/>
  <path style="fill:rgb(82.745098%,85.490196%,89.019608%)" d="M 5.246094 10.425781 C 5.664062 10.425781 6 10.125 6 9.675781 L 6 8.25 C 5.320312 8.253906 4.671875 7.953125 4.242188 7.425781 C 3.648438 7.5 3.148438 7.648438 2.644531 7.800781 C 1.972656 7.949219 2.246094 8.476562 2.511719 8.851562 C 3.167969 9.675781 4.082031 10.199219 5.097656 10.425781 C 5.148438 10.425781 5.199219 10.425781 5.246094 10.425781 Z M 5.246094 10.425781"/>
  <path style="fill:rgb(82.745098%,85.490196%,89.019608%)" d="M 1.578125 5.25 C 1.574219 5.699219 1.910156 6 2.328125 6 L 3.75 6 C 3.761719 5.328125 4.070312 4.695312 4.597656 4.273438 C 4.46875 3.675781 4.351562 3.148438 4.230469 2.625 C 4.074219 1.949219 3.488281 2.25 3.160156 2.550781 C 2.355469 3.148438 1.800781 4.050781 1.589844 5.101562 C 1.582031 5.175781 1.574219 5.175781 1.574219 5.25 Z M 1.578125 5.25"/>
 </g>
</svg>
