<svg xmlns="http://www.w3.org/2000/svg" width="12pt" height="12pt" version="1.1" viewBox="0 0 12 12">
 <g>
  <path style="fill:rgb(82.745098%,85.490196%,89.019608%)" d="M 3.5 2.5 C 3.222656 2.5 3 2.722656 3 3 L 3 9 C 3 9.277344 3.222656 9.5 3.5 9.5 L 8.5 9.5 C 8.777344 9.5 9 9.277344 9 9 L 9 3 C 9 2.722656 8.777344 2.5 8.5 2.5 Z M 6 3.5 C 7.105469 3.5 8 4.394531 8 5.5 C 8 6.605469 7.105469 7.5 6 7.5 L 4 7.5 L 4 5.5 C 4 4.394531 4.894531 3.5 6 3.5 Z M 6 4.5 C 5.449219 4.5 5 4.949219 5 5.5 C 5 6.050781 5.449219 6.5 6 6.5 C 6.550781 6.5 7 6.050781 7 5.5 C 7 4.949219 6.550781 4.5 6 4.5 Z M 6 4.5"/>
 </g>
</svg>
