<svg xmlns="http://www.w3.org/2000/svg" width="12pt" height="12pt" version="1.1" viewBox="0 0 12 12">
 <g>
  <path style="fill:rgb(82.745098%,85.490196%,89.019608%)" d="M 6.503906 3.351562 L 3.484375 6.367188 C 3.953125 6.550781 4.394531 6.839844 4.765625 7.210938 C 5.136719 7.582031 5.421875 8.019531 5.605469 8.488281 L 8.625 5.46875 L 6.503906 3.347656 Z M 6.503906 3.351562"/>
  <path style="fill:rgb(82.745098%,85.490196%,89.019608%)" d="M 3.703125 1.898438 L 2.996094 2.605469 L 3.703125 3.3125 L 4.410156 2.605469 Z M 4.765625 2.960938 L 4.058594 3.667969 L 4.765625 4.375 L 5.472656 3.667969 Z M 2.644531 2.960938 L 1.9375 3.667969 L 2.644531 4.375 L 3.351562 3.667969 Z M 3.703125 4.019531 L 2.996094 4.726562 L 3.703125 5.4375 L 4.410156 4.726562 Z M 3.703125 4.019531"/>
  <path style="fill:rgb(82.745098%,85.490196%,89.019608%)" d="M 8.300781 6.5 L 7.59375 7.207031 L 8.300781 7.914062 L 9.007812 7.207031 Z M 9.359375 7.5625 L 8.652344 8.269531 L 9.359375 8.976562 L 10.066406 8.269531 Z M 7.238281 7.5625 L 6.53125 8.269531 L 7.238281 8.976562 L 7.945312 8.269531 Z M 8.300781 8.621094 L 7.59375 9.328125 L 8.300781 10.035156 L 9.007812 9.328125 Z M 8.300781 8.621094"/>
  <path style="fill:rgb(82.745098%,85.490196%,89.019608%)" d="M 4.410156 7.550781 C 3.730469 6.867188 2.808594 6.519531 1.957031 6.65625 C 1.863281 6.671875 1.789062 6.738281 1.757812 6.828125 C 1.730469 6.917969 1.753906 7.015625 1.820312 7.082031 L 4.878906 10.140625 C 4.945312 10.207031 5.042969 10.230469 5.132812 10.199219 C 5.222656 10.171875 5.289062 10.09375 5.304688 10.003906 C 5.441406 9.152344 5.089844 8.230469 4.410156 7.550781 Z M 4.410156 7.550781"/>
  <path style="fill-rule:evenodd;fill:rgb(82.745098%,85.490196%,89.019608%)" d="M 8.148438 3.320312 L 7.734375 3.734375 L 8.265625 4.265625 L 8.679688 3.851562 C 8.453125 3.734375 8.265625 3.550781 8.148438 3.320312 Z M 8.148438 3.320312"/>
  <path style="fill:rgb(82.745098%,85.490196%,89.019608%)" d="M 10 2.75 C 10 3.164062 9.664062 3.5 9.25 3.5 C 8.835938 3.5 8.5 3.164062 8.5 2.75 C 8.5 2.335938 8.835938 2 9.25 2 C 9.664062 2 10 2.335938 10 2.75 Z M 10 2.75"/>
 </g>
</svg>
