<svg xmlns="http://www.w3.org/2000/svg" width="12pt" height="12pt" version="1.1" viewBox="0 0 12 12">
 <g>
  <path style="fill:rgb(82.745098%,85.490196%,89.019608%)" d="M 6 0.75 C 3.101562 0.75 0.75 3.101562 0.75 6 C 0.75 8.898438 3.101562 11.25 6 11.25 C 6 11.25 6.003906 11.25 6.003906 11.25 C 5.515625 10.601562 5.25 9.8125 5.25 9 C 5.25 8.484375 5.359375 7.972656 5.566406 7.5 L 5.25 7.5 L 4.5 6.375 L 4.5 8.25 L 3 8.25 L 3 3.75 L 4.5 3.75 L 6 6 L 7.5 3.75 L 9 3.75 L 9 5.25 C 9.8125 5.25 10.601562 5.515625 11.25 6.007812 C 11.25 6.003906 11.25 6 11.25 6 C 11.25 3.101562 8.898438 0.75 6 0.75 Z M 6 0.75"/>
  <path style="fill:rgb(32.156863%,58.039216%,88.627451%)" d="M 9.210938 6.007812 C 8.632812 5.964844 8.039062 6.089844 7.5 6.402344 C 6.066406 7.230469 5.574219 9.066406 6.402344 10.5 C 7.230469 11.933594 9.066406 12.425781 10.5 11.597656 C 11.933594 10.769531 12.425781 8.933594 11.597656 7.5 C 11.082031 6.601562 10.171875 6.074219 9.210938 6.007812 Z M 7.9375 7.410156 L 9 8.46875 L 10.058594 7.410156 L 10.589844 7.941406 L 9.53125 9 L 10.589844 10.0625 L 10.058594 10.589844 L 9 9.53125 L 7.9375 10.589844 L 7.410156 10.0625 L 8.46875 9 L 7.410156 7.941406 Z M 7.9375 7.410156"/>
 </g>
</svg>
