<svg xmlns="http://www.w3.org/2000/svg" width="12pt" height="12pt" version="1.1" viewBox="0 0 12 12">
 <g>
  <path style="fill:rgb(82.745098%,85.490196%,89.019608%)" d="M 6 0 C 5.066406 0 4.265625 0.5625 3.925781 1.371094 L 8.25 5.695312 L 8.25 2.25 C 8.25 1.003906 7.246094 0 6 0 Z M 1.757812 0.703125 L 0.703125 1.757812 L 3.75 4.804688 L 3.75 6 C 3.75 7.246094 4.753906 8.25 6 8.25 C 6.347656 8.25 6.675781 8.164062 6.96875 8.023438 L 7.515625 8.570312 C 7.070312 8.832031 6.5625 9 6 9 C 4.324219 9 3 7.675781 3 6 L 3 5.25 L 1.5 5.25 L 1.5 6 C 1.5 8.226562 3.121094 10.074219 5.25 10.429688 L 5.25 12 L 6.75 12 L 6.75 10.429688 C 7.433594 10.316406 8.054688 10.035156 8.59375 9.648438 L 10.242188 11.296875 L 11.296875 10.242188 Z M 9 5.25 L 9 6 C 9 6.140625 8.976562 6.273438 8.960938 6.40625 L 10.1875 7.632812 C 10.386719 7.125 10.5 6.578125 10.5 6 L 10.5 5.25 Z M 9 5.25"/>
 </g>
</svg>
