<svg xmlns="http://www.w3.org/2000/svg" width="12pt" height="12pt" version="1.1" viewBox="0 0 12 12">
 <g>
  <path style="fill:rgb(82.745098%,85.490196%,89.019608%)" d="M 11.390625 0.871094 C 11.339844 0.898438 11.289062 0.9375 11.25 0.988281 L 10.875 1.363281 L 10.761719 1.246094 L 10.082031 1.921875 L 7.371094 4.636719 L 7.035156 4.972656 L 7.148438 5.09375 L 6.773438 5.46875 L 6.75 6 L 7.289062 5.976562 L 7.664062 5.601562 L 7.785156 5.722656 L 8.011719 5.496094 L 10.644531 2.859375 L 11.511719 1.996094 L 11.390625 1.875 L 11.765625 1.5 C 11.984375 1.28125 11.753906 0.816406 11.4375 0.871094 Z M 2.25 1.5 C 1.835938 1.5 1.5 1.835938 1.5 2.25 L 1.5 9 C 1.5 9.414062 1.835938 9.75 2.25 9.75 L 10.5 9.75 C 10.914062 9.75 11.25 9.414062 11.25 9 L 11.25 3.328125 L 8.316406 6.253906 L 7.785156 6.773438 L 7.664062 6.652344 L 7.621094 6.703125 L 7.3125 6.726562 L 6.773438 6.75 L 5.976562 6.773438 L 6 5.976562 L 6.023438 5.4375 L 6.046875 5.128906 L 6.089844 5.085938 L 5.976562 4.964844 L 6.496094 4.433594 L 9.421875 1.5 Z M 1.5 9.75 L 1.5 10.5 C 1.5 10.914062 1.835938 11.25 2.25 11.25 L 10.5 11.25 C 10.914062 11.25 11.25 10.914062 11.25 10.5 L 11.25 9.75 C 11.25 10.164062 10.914062 10.5 10.5 10.5 L 2.25 10.5 C 1.835938 10.5 1.5 10.164062 1.5 9.75 Z M 1.5 9.75"/>
 </g>
</svg>
