<svg xmlns="http://www.w3.org/2000/svg" width="12pt" height="12pt" version="1.1" viewBox="0 0 12 12">
 <g>
  <path style="fill:rgb(82.745098%,85.490196%,89.019608%)" d="M 6 1.5 C 4.9375 1.5 3.957031 1.867188 3.1875 2.484375 L 2.28125 1.578125 L 1.578125 2.28125 L 2.484375 3.1875 C 1.867188 3.957031 1.5 4.9375 1.5 6 C 1.5 8.484375 3.515625 10.5 6 10.5 C 8.484375 10.5 10.5 8.484375 10.5 6 C 10.5 4.9375 10.132812 3.957031 9.515625 3.1875 L 10.421875 2.28125 L 9.71875 1.578125 L 8.8125 2.484375 C 8.042969 1.867188 7.0625 1.5 6 1.5 Z M 6 2.5 C 7.933594 2.5 9.5 4.066406 9.5 6 C 9.5 7.933594 7.933594 9.5 6 9.5 C 4.066406 9.5 2.5 7.933594 2.5 6 C 2.5 4.066406 4.066406 2.5 6 2.5 Z M 6 3 L 6 6 L 7.5 8.597656 C 8.675781 7.917969 9.25 6.535156 8.898438 5.222656 C 8.554688 3.902344 7.367188 2.976562 6 2.972656 Z M 6 3"/>
 </g>
</svg>
