<svg xmlns="http://www.w3.org/2000/svg" width="12pt" height="12pt" version="1.1" viewBox="0 0 12 12">
 <g>
  <path style="fill-rule:evenodd;fill:rgb(82.745098%,85.490196%,89.019608%)" d="M 3.75 10 C 3.335938 10 3 9.664062 3 9.25 L 3 2.75 C 3 2.335938 3.335938 2 3.75 2 L 7.75 2 C 8.164062 2 8.5 2.335938 8.5 2.75 L 8.5 9.25 C 8.5 9.664062 8.164062 10 7.75 10 Z M 5.75 9 C 6.714844 9 7.5 8.214844 7.5 7.25 C 7.5 6.285156 6.714844 5.5 5.75 5.5 C 4.785156 5.5 4 6.285156 4 7.25 C 4 8.214844 4.785156 9 5.75 9 Z M 5.75 8 C 5.335938 8 5 7.664062 5 7.25 C 5 6.835938 5.335938 6.5 5.75 6.5 C 6.164062 6.5 6.5 6.835938 6.5 7.25 C 6.5 7.664062 6.164062 8 5.75 8 Z M 4.5 4 C 4.777344 4 5 3.777344 5 3.5 C 5 3.222656 4.777344 3 4.5 3 C 4.222656 3 4 3.222656 4 3.5 C 4 3.777344 4.222656 4 4.5 4 Z M 7 4 C 7.277344 4 7.5 3.777344 7.5 3.5 C 7.5 3.222656 7.277344 3 7 3 C 6.722656 3 6.5 3.222656 6.5 3.5 C 6.5 3.777344 6.722656 4 7 4 Z M 7 4"/>
 </g>
</svg>
