<svg xmlns="http://www.w3.org/2000/svg" width="12pt" height="12pt" version="1.1" viewBox="0 0 12 12">
 <g>
  <path style="fill:rgb(82.745098%,85.490196%,89.019608%)" d="M 4 9.464844 C 5.914062 10.570312 8.359375 9.914062 9.464844 8 C 10.570312 6.085938 9.914062 3.640625 8 2.535156 C 6.085938 1.429688 3.640625 2.085938 2.535156 4 C 1.429688 5.914062 2.085938 8.359375 4 9.464844 Z M 4.5 8.597656 C 3.757812 8.167969 3.234375 7.441406 3.0625 6.601562 C 3.023438 6.585938 2.980469 6.566406 2.941406 6.542969 C 2.585938 6.335938 2.460938 5.878906 2.667969 5.519531 C 2.765625 5.347656 2.929688 5.222656 3.121094 5.171875 C 3.1875 4.9375 3.28125 4.710938 3.402344 4.5 C 3.722656 3.945312 4.210938 3.511719 4.796875 3.253906 C 4.804688 3.132812 4.835938 3.015625 4.898438 2.910156 C 5.105469 2.550781 5.5625 2.429688 5.921875 2.636719 C 6.070312 2.722656 6.183594 2.855469 6.246094 3.015625 C 6.6875 3.050781 7.117188 3.179688 7.5 3.402344 C 8.425781 3.9375 8.996094 4.929688 8.996094 6 C 9.007812 6.003906 9.015625 6.007812 9.023438 6.011719 C 9.382812 6.21875 9.503906 6.679688 9.296875 7.039062 C 9.164062 7.269531 8.914062 7.414062 8.644531 7.410156 C 8.628906 7.441406 8.613281 7.46875 8.597656 7.5 C 7.769531 8.933594 5.933594 9.425781 4.5 8.597656 Z M 4.75 8.164062 C 5.945312 8.855469 7.476562 8.445312 8.164062 7.25 C 8.167969 7.246094 8.167969 7.242188 8.171875 7.242188 C 7.992188 7.09375 7.894531 6.875 7.898438 6.644531 L 6.261719 6.019531 C 6.027344 6.292969 5.628906 6.363281 5.316406 6.183594 C 5.195312 6.113281 5.097656 6.011719 5.03125 5.886719 L 4.054688 6.035156 C 4.039062 6.117188 4.007812 6.199219 3.96875 6.269531 C 3.878906 6.421875 3.738281 6.539062 3.574219 6.601562 C 3.738281 7.261719 4.160156 7.824219 4.75 8.164062 Z M 3.980469 5.542969 L 4.957031 5.390625 C 4.972656 5.308594 5 5.230469 5.042969 5.160156 C 5.125 5.019531 5.25 4.90625 5.398438 4.84375 L 5.34375 4.003906 C 5.28125 3.988281 5.226562 3.964844 5.171875 3.933594 C 5.085938 3.882812 5.007812 3.816406 4.945312 3.734375 C 4.480469 3.949219 4.09375 4.304688 3.835938 4.75 C 3.75 4.898438 3.683594 5.050781 3.628906 5.214844 C 3.652344 5.222656 3.671875 5.234375 3.691406 5.246094 C 3.8125 5.316406 3.914062 5.417969 3.980469 5.542969 Z M 6.441406 5.550781 L 8.078125 6.175781 C 8.1875 6.050781 8.332031 5.964844 8.496094 5.929688 C 8.472656 5.0625 8 4.269531 7.25 3.835938 C 6.945312 3.660156 6.609375 3.550781 6.257812 3.515625 C 6.242188 3.566406 6.222656 3.613281 6.195312 3.660156 C 6.113281 3.800781 5.992188 3.910156 5.839844 3.972656 L 5.894531 4.8125 C 5.957031 4.828125 6.011719 4.851562 6.066406 4.882812 C 6.304688 5.023438 6.445312 5.277344 6.441406 5.550781 Z M 6.441406 5.550781"/>
 </g>
</svg>
