<svg xmlns="http://www.w3.org/2000/svg" width="12pt" height="12pt" version="1.1" viewBox="0 0 12 12">
 <g>
  <path style="fill:rgb(82.745098%,85.490196%,89.019608%)" d="M 1.453125 3.375 C 0.00390625 5.886719 0.863281 9.097656 3.375 10.546875 C 5.886719 11.996094 9.097656 11.136719 10.546875 8.625 C 11.996094 6.113281 11.136719 2.902344 8.625 1.453125 C 6.113281 0.00390625 2.902344 0.863281 1.453125 3.375 Z M 2.753906 4.125 C 3.652344 2.570312 5.53125 1.871094 7.226562 2.457031 C 7.589844 2.105469 8.140625 2.039062 8.574219 2.289062 C 9.09375 2.589844 9.285156 3.242188 9.011719 3.773438 C 9.574219 4.535156 9.828125 5.480469 9.726562 6.421875 C 10.222656 6.75 10.382812 7.40625 10.085938 7.925781 C 9.832031 8.363281 9.320312 8.578125 8.832031 8.453125 C 7.65625 9.8125 5.683594 10.144531 4.125 9.246094 C 4.105469 9.238281 4.089844 9.226562 4.070312 9.214844 C 3.707031 9.523438 3.1875 9.574219 2.777344 9.335938 C 2.238281 9.023438 2.054688 8.335938 2.363281 7.796875 C 2.421875 7.699219 2.496094 7.605469 2.582031 7.53125 C 2.089844 6.433594 2.152344 5.167969 2.753906 4.125 Z M 3.402344 4.5 C 2.917969 5.339844 2.871094 6.355469 3.269531 7.238281 C 3.492188 7.222656 3.710938 7.277344 3.902344 7.386719 C 3.914062 7.394531 3.925781 7.402344 3.9375 7.410156 L 5.449219 6.222656 C 5.34375 5.917969 5.375 5.582031 5.539062 5.300781 C 5.777344 4.886719 6.25 4.671875 6.71875 4.757812 L 7.15625 3.996094 C 6.957031 3.757812 6.863281 3.449219 6.894531 3.140625 C 5.558594 2.722656 4.105469 3.285156 3.402344 4.5 Z M 4.402344 8 C 4.464844 8.179688 4.476562 8.375 4.441406 8.5625 C 4.460938 8.574219 4.480469 8.585938 4.5 8.597656 C 5.714844 9.300781 7.253906 9.0625 8.207031 8.03125 C 8.023438 7.78125 7.949219 7.464844 8.003906 7.15625 L 7.242188 6.71875 C 6.878906 7.027344 6.363281 7.074219 5.949219 6.835938 C 5.9375 6.828125 5.925781 6.820312 5.910156 6.8125 Z M 7.367188 5.132812 C 7.585938 5.390625 7.679688 5.734375 7.617188 6.066406 L 8.378906 6.507812 C 8.550781 6.363281 8.761719 6.273438 8.984375 6.246094 C 9.042969 5.554688 8.859375 4.867188 8.464844 4.292969 C 8.257812 4.382812 8.027344 4.410156 7.808594 4.371094 Z M 7.367188 5.132812"/>
 </g>
</svg>
