<svg xmlns="http://www.w3.org/2000/svg" width="12pt" height="12pt" version="1.1" viewBox="0 0 12 12">
 <g>
  <path style="fill:rgb(82.745098%,85.490196%,89.019608%)" d="M 10 6 C 10 3.789062 8.210938 2 6 2 C 3.789062 2 2 3.789062 2 6 C 2 8.210938 3.789062 10 6 10 C 8.210938 10 10 8.210938 10 6 Z M 9 6 C 9 6.859375 8.632812 7.675781 7.988281 8.242188 C 7.996094 8.285156 8 8.332031 8 8.375 C 8 8.789062 7.664062 9.125 7.25 9.125 C 7.054688 9.125 6.863281 9.046875 6.722656 8.90625 C 6.488281 8.96875 6.242188 9 6 9 C 5.359375 9 4.738281 8.792969 4.222656 8.414062 C 4.117188 8.46875 3.996094 8.5 3.875 8.5 C 3.460938 8.5 3.125 8.164062 3.125 7.75 C 3.125 7.578125 3.183594 7.414062 3.289062 7.28125 C 3.101562 6.878906 3 6.441406 3 6 C 3 4.929688 3.574219 3.941406 4.5 3.40625 C 4.5 3.394531 4.5 3.386719 4.5 3.375 C 4.5 2.960938 4.835938 2.625 5.25 2.625 C 5.519531 2.625 5.765625 2.769531 5.902344 3.003906 C 5.933594 3.003906 5.964844 3 6 3 C 7.65625 3 9 4.34375 9 6 Z M 8.5 6 C 8.5 4.621094 7.378906 3.5 6 3.5 C 5.996094 3.5 5.992188 3.5 5.988281 3.5 C 5.949219 3.726562 5.808594 3.921875 5.609375 4.03125 L 5.882812 5.761719 C 6.242188 5.828125 6.5 6.136719 6.5 6.5 C 6.5 6.640625 6.460938 6.777344 6.386719 6.894531 L 7.003906 7.667969 C 7.082031 7.640625 7.167969 7.625 7.25 7.625 C 7.425781 7.625 7.597656 7.6875 7.734375 7.800781 C 8.222656 7.328125 8.5 6.679688 8.5 6 Z M 6.613281 7.980469 L 5.996094 7.207031 C 5.917969 7.234375 5.832031 7.25 5.75 7.25 C 5.589844 7.25 5.429688 7.195312 5.300781 7.097656 L 4.601562 7.566406 C 4.617188 7.625 4.625 7.6875 4.625 7.75 C 4.625 7.851562 4.605469 7.953125 4.5625 8.046875 C 4.984375 8.339844 5.484375 8.5 6 8.5 C 6.167969 8.5 6.339844 8.480469 6.503906 8.445312 C 6.5 8.421875 6.5 8.398438 6.5 8.375 C 6.5 8.234375 6.539062 8.097656 6.613281 7.980469 Z M 5.390625 5.84375 L 5.113281 4.113281 C 4.949219 4.082031 4.800781 3.996094 4.691406 3.875 C 3.953125 4.328125 3.5 5.132812 3.5 6 C 3.5 6.351562 3.574219 6.695312 3.71875 7.015625 C 3.769531 7.003906 3.824219 7 3.875 7 C 4.035156 7 4.195312 7.054688 4.324219 7.148438 L 5.023438 6.683594 C 5.007812 6.625 5 6.5625 5 6.5 C 5 6.226562 5.152344 5.972656 5.390625 5.84375 Z M 5.390625 5.84375"/>
 </g>
</svg>
