<svg xmlns="http://www.w3.org/2000/svg" width="12pt" height="12pt" version="1.1" viewBox="0 0 12 12">
 <g>
  <path style="fill:rgb(82.745098%,85.490196%,89.019608%)" d="M 6 2 C 3.785156 2 2 3.785156 2 6 C 2 8.214844 3.785156 10 6 10 C 8.214844 10 10 8.214844 10 6 C 10 3.785156 8.214844 2 6 2 Z M 6 2.5 C 6.550781 2.5 7 2.949219 7 3.5 C 7 4.050781 6.550781 4.5 6 4.5 C 5.449219 4.5 5 4.050781 5 3.5 C 5 2.949219 5.449219 2.5 6 2.5 Z M 3.5 5 C 4.050781 5 4.5 5.449219 4.5 6 C 4.5 6.550781 4.050781 7 3.5 7 C 2.949219 7 2.5 6.550781 2.5 6 C 2.5 5.449219 2.949219 5 3.5 5 Z M 8.5 5 C 9.050781 5 9.5 5.449219 9.5 6 C 9.5 6.550781 9.050781 7 8.5 7 C 7.949219 7 7.5 6.550781 7.5 6 C 7.5 5.449219 7.949219 5 8.5 5 Z M 5.746094 5.316406 C 5.835938 5.316406 5.921875 5.363281 5.96875 5.441406 C 6.035156 5.5625 5.996094 5.714844 5.875 5.78125 C 5.816406 5.816406 5.75 5.824219 5.683594 5.808594 C 5.621094 5.792969 5.566406 5.75 5.535156 5.691406 C 5.5 5.636719 5.492188 5.566406 5.507812 5.503906 C 5.527344 5.4375 5.566406 5.382812 5.625 5.351562 C 5.660156 5.328125 5.703125 5.316406 5.746094 5.316406 Z M 6.425781 5.5 C 6.519531 5.496094 6.605469 5.546875 6.648438 5.625 C 6.683594 5.683594 6.691406 5.75 6.675781 5.816406 C 6.65625 5.878906 6.617188 5.933594 6.558594 5.964844 C 6.4375 6.035156 6.285156 5.992188 6.21875 5.875 C 6.183594 5.816406 6.175781 5.75 6.191406 5.683594 C 6.207031 5.621094 6.25 5.566406 6.308594 5.53125 C 6.34375 5.511719 6.386719 5.5 6.425781 5.5 Z M 5.5625 6 C 5.652344 5.996094 5.738281 6.046875 5.785156 6.125 C 5.851562 6.246094 5.8125 6.398438 5.691406 6.464844 C 5.636719 6.5 5.566406 6.507812 5.503906 6.492188 C 5.4375 6.476562 5.382812 6.433594 5.351562 6.375 C 5.316406 6.316406 5.308594 6.25 5.324219 6.183594 C 5.34375 6.121094 5.382812 6.066406 5.441406 6.03125 C 5.480469 6.011719 5.519531 6 5.5625 6 Z M 6.246094 6.183594 C 6.335938 6.179688 6.421875 6.226562 6.46875 6.308594 C 6.5 6.363281 6.507812 6.433594 6.492188 6.496094 C 6.476562 6.5625 6.433594 6.617188 6.375 6.648438 C 6.316406 6.683594 6.25 6.691406 6.183594 6.675781 C 6.121094 6.65625 6.066406 6.613281 6.03125 6.558594 C 5.964844 6.4375 6.007812 6.285156 6.125 6.21875 C 6.160156 6.195312 6.203125 6.183594 6.246094 6.183594 Z M 6 7.5 C 6.550781 7.5 7 7.949219 7 8.5 C 7 9.050781 6.550781 9.5 6 9.5 C 5.449219 9.5 5 9.050781 5 8.5 C 5 7.949219 5.449219 7.5 6 7.5 Z M 6 7.5"/>
 </g>
</svg>
