<svg xmlns="http://www.w3.org/2000/svg" width="12pt" height="12pt" version="1.1" viewBox="0 0 12 12">
 <g>
  <path style="fill:rgb(82.745098%,85.490196%,89.019608%)" d="M 10 6 C 10 6.242188 9.976562 6.484375 9.929688 6.722656 L 9.394531 6.191406 L 8 7.601562 L 8.394531 8 L 6.5 8 L 6.5 9.964844 C 6.335938 9.988281 6.167969 10 6 10 C 3.792969 10 2 8.207031 2 6 C 2 3.792969 3.792969 2 6 2 C 8.207031 2 10 3.792969 10 6 Z M 7 4.5 L 7 5.5 L 5 5.5 L 5 4.5 L 3.5 6 L 5 7.5 L 5 6.5 L 7 6.5 L 7 7.5 L 8.5 6 Z M 9.398438 6.894531 L 11.5 9 L 9.398438 11.101562 L 8.6875 10.398438 L 9.585938 9.5 L 7 9.5 L 7 8.5 L 9.585938 8.5 L 8.6875 7.601562 Z M 9.398438 6.894531"/>
 </g>
</svg>
