<svg xmlns="http://www.w3.org/2000/svg" width="12pt" height="12pt" version="1.1" viewBox="0 0 12 12">
 <g>
  <path style="fill:rgb(82.745098%,85.490196%,89.019608%)" d="M 5.011719 3 C 4.816406 3.007812 4.617188 3.042969 4.421875 3.109375 C 3.574219 3.398438 2.9375 4.230469 2.746094 5.265625 C 2.191406 5.402344 1.722656 5.890625 1.558594 6.59375 C 1.324219 7.59375 1.808594 8.625 2.636719 8.90625 C 2.652344 8.910156 2.65625 8.917969 2.667969 8.921875 C 2.78125 8.972656 2.914062 9 3.042969 9 L 9.035156 9 C 9.25 9 9.445312 8.925781 9.613281 8.796875 C 10.285156 8.410156 10.648438 7.488281 10.441406 6.59375 C 10.289062 5.933594 9.855469 5.449219 9.347656 5.28125 C 9.339844 5.261719 9.351562 5.242188 9.347656 5.21875 C 9.113281 4.21875 8.25 3.640625 7.421875 3.921875 C 7.265625 3.976562 7.117188 4.050781 6.984375 4.15625 C 6.527344 3.417969 5.789062 2.980469 5.015625 3 Z M 6 5 L 7.5 6.5 L 6.5 6.5 L 6.5 8 L 5.5 8 L 5.5 6.5 L 4.5 6.5 Z M 6 5"/>
 </g>
</svg>
