<svg xmlns="http://www.w3.org/2000/svg" width="12pt" height="12pt" version="1.1" viewBox="0 0 12 12">
 <g>
  <path style="fill:rgb(82.745098%,85.490196%,89.019608%)" d="M 4.5 2.25 C 2.84375 2.25 1.5 3.59375 1.5 5.25 C 1.5 5.292969 1.503906 5.335938 1.503906 5.378906 C 0.605469 5.695312 0 6.546875 0 7.5 C 0 8.742188 1.007812 9.75 2.25 9.75 L 9.75 9.75 C 10.992188 9.75 12 8.742188 12 7.5 C 12 6.542969 11.394531 5.695312 10.492188 5.378906 C 10.496094 5.335938 10.5 5.292969 10.5 5.25 C 10.5 4.007812 9.492188 3 8.25 3 C 7.761719 3 7.289062 3.160156 6.898438 3.453125 C 6.332031 2.699219 5.445312 2.25 4.5 2.25 Z M 4.5 4.5 L 4.890625 4.5 C 4.988281 4.503906 5.074219 4.558594 5.140625 4.625 L 6 5.46875 L 6.875 4.625 C 6.976562 4.539062 7.035156 4.503906 7.125 4.5 L 7.5 4.5 L 7.5 4.875 C 7.5 4.984375 7.488281 5.082031 7.40625 5.15625 L 6.546875 6.015625 L 7.390625 6.859375 C 7.460938 6.929688 7.5 7.023438 7.5 7.125 L 7.5 7.5 L 7.125 7.5 C 7.027344 7.5 6.929688 7.460938 6.859375 7.390625 L 6 6.546875 L 5.140625 7.390625 C 5.070312 7.460938 4.976562 7.5 4.875 7.5 L 4.5 7.5 L 4.5 7.125 C 4.5 7.027344 4.539062 6.929688 4.609375 6.859375 L 5.46875 6.015625 L 4.609375 5.15625 C 4.53125 5.085938 4.492188 4.980469 4.5 4.875 Z M 4.5 4.5"/>
 </g>
</svg>
