<svg xmlns="http://www.w3.org/2000/svg" width="12pt" height="12pt" version="1.1" viewBox="0 0 12 12">
 <g>
  <path style="fill:rgb(82.745098%,85.490196%,89.019608%)" d="M 10.5 0.75 L 8.25 1.871094 L 8.25 2.578125 C 8.25 2.582031 8.25 2.585938 8.25 2.589844 L 8.25 7.628906 C 8.25 9 7.5 9.75 6 9.75 C 4.5 9.75 3.75 8.792969 3.75 7.628906 L 3.75 3.816406 L 1.5 4.984375 L 1.5 6.585938 C 1.5 7.273438 1.585938 7.902344 1.761719 8.46875 C 1.9375 9.039062 2.207031 9.527344 2.570312 9.941406 C 2.878906 10.289062 3.261719 10.574219 3.714844 10.792969 L 3.800781 10.820312 C 3.851562 10.847656 3.902344 10.878906 3.960938 10.902344 C 4.519531 11.132812 5.1875 11.25 5.960938 11.25 L 5.957031 11.246094 C 6.742188 11.246094 7.417969 11.136719 7.992188 10.910156 C 8.5625 10.683594 9.03125 10.367188 9.402344 9.957031 C 9.773438 9.546875 10.050781 9.050781 10.230469 8.476562 C 10.410156 7.902344 10.5 7.273438 10.5 6.582031 L 10.5 6.464844 C 10.5 6.460938 10.5 6.460938 10.5 6.457031 Z M 10.5 0.75"/>
 </g>
</svg>
