<svg xmlns="http://www.w3.org/2000/svg" width="12pt" height="12pt" version="1.1" viewBox="0 0 12 12">
 <g>
  <path style="fill:rgb(82.745098%,85.490196%,89.019608%)" d="M 6 2 C 4.964844 2 4.082031 2.636719 3.703125 3.53125 C 2.738281 3.675781 2 4.496094 2 5.5 C 2 6.605469 2.894531 7.5 4 7.5 L 5 7.5 L 5 6.25 C 5 5.835938 5.335938 5.5 5.75 5.5 C 6.164062 5.5 6.5 5.835938 6.5 6.25 L 6.5 7.5 L 8.25 7.5 C 9.214844 7.5 10 6.71875 10 5.75 C 10 4.851562 9.324219 4.117188 8.453125 4.015625 C 8.226562 2.871094 7.214844 2 6 2 Z M 6 2"/>
  <path style="fill:rgb(32.156863%,58.039216%,88.627451%)" d="M 5.671875 6 C 5.570312 6.035156 5.496094 6.140625 5.5 6.25 L 5.5 8.140625 C 5.492188 8.15625 5.488281 8.171875 5.484375 8.1875 L 5.171875 8.5 L 4.140625 8.5 L 4.078125 8.578125 L 3.578125 9.078125 C 3.449219 9.15625 3.425781 9.363281 3.53125 9.46875 C 3.636719 9.574219 3.84375 9.550781 3.921875 9.421875 L 4.34375 9 L 5 9 L 5 9.75 C 5 9.882812 5.117188 10.003906 5.25 10.003906 C 5.382812 10.003906 5.503906 9.882812 5.5 9.75 L 5.5 8.84375 L 5.84375 8.5 L 6.90625 8.5 L 7.28125 8.875 L 6.578125 9.578125 C 6.449219 9.65625 6.425781 9.863281 6.53125 9.96875 C 6.636719 10.074219 6.84375 10.050781 6.921875 9.921875 L 7.625 9.21875 L 8.328125 9.921875 C 8.40625 10.050781 8.613281 10.074219 8.71875 9.96875 C 8.824219 9.863281 8.800781 9.65625 8.671875 9.578125 L 7.171875 8.078125 L 7.109375 8 L 6 8 L 6 6.25 C 6.003906 6.101562 5.847656 5.972656 5.703125 6 C 5.691406 6 5.683594 6 5.671875 6 Z M 5.671875 6"/>
 </g>
</svg>
