<svg xmlns="http://www.w3.org/2000/svg" width="12pt" height="12pt" version="1.1" viewBox="0 0 12 12">
 <g>
  <path style="fill:rgb(82.745098%,85.490196%,89.019608%)" d="M 6.015625 0 C 5.746094 -0.00390625 5.492188 0.136719 5.359375 0.371094 C 5.222656 0.605469 5.222656 0.894531 5.359375 1.128906 C 5.492188 1.363281 5.746094 1.503906 6.015625 1.5 C 6.015625 1.5 6.230469 1.507812 6.421875 1.605469 C 6.617188 1.703125 6.753906 1.75 6.753906 2.25 C 6.753906 2.75 6.617188 2.796875 6.421875 2.894531 C 6.230469 2.992188 6.015625 3 6.015625 3 L 0.761719 3 C 0.488281 2.996094 0.238281 3.136719 0.101562 3.371094 C -0.0351562 3.605469 -0.0351562 3.894531 0.101562 4.128906 C 0.238281 4.363281 0.488281 4.503906 0.761719 4.5 L 6.015625 4.5 C 6.015625 4.5 6.546875 4.507812 7.097656 4.230469 C 7.648438 3.953125 8.253906 3.25 8.253906 2.25 C 8.253906 1.25 7.648438 0.546875 7.097656 0.269531 C 6.546875 -0.0078125 6.015625 0 6.015625 0 Z M 9.761719 2.25 C 9.492188 2.246094 9.242188 2.386719 9.105469 2.621094 C 8.96875 2.855469 8.96875 3.144531 9.105469 3.378906 C 9.242188 3.613281 9.492188 3.753906 9.761719 3.75 C 9.761719 3.75 9.976562 3.757812 10.167969 3.855469 C 10.363281 3.953125 10.5 4 10.5 4.5 C 10.5 5 10.363281 5.046875 10.167969 5.144531 C 9.976562 5.242188 9.761719 5.25 9.761719 5.25 L 3.765625 5.25 C 3.496094 5.246094 3.246094 5.386719 3.109375 5.621094 C 2.972656 5.855469 2.972656 6.144531 3.109375 6.378906 C 3.246094 6.613281 3.496094 6.753906 3.765625 6.75 L 9.761719 6.75 C 9.761719 6.75 10.292969 6.757812 10.84375 6.480469 C 11.394531 6.203125 12 5.5 12 4.5 C 12 3.5 11.394531 2.796875 10.84375 2.519531 C 10.292969 2.242188 9.761719 2.25 9.761719 2.25 Z M 0.761719 7.5 C 0.488281 7.496094 0.238281 7.636719 0.101562 7.871094 C -0.0351562 8.105469 -0.0351562 8.394531 0.101562 8.628906 C 0.238281 8.863281 0.488281 9.003906 0.761719 9 L 6.015625 9 C 6.015625 9 6.230469 9.007812 6.421875 9.105469 C 6.617188 9.203125 6.753906 9.25 6.753906 9.75 C 6.753906 10.25 6.617188 10.296875 6.421875 10.394531 C 6.230469 10.492188 6.015625 10.5 6.015625 10.5 C 5.746094 10.496094 5.492188 10.636719 5.359375 10.871094 C 5.222656 11.105469 5.222656 11.394531 5.359375 11.628906 C 5.492188 11.863281 5.746094 12.003906 6.015625 12 C 6.015625 12 6.546875 12.007812 7.097656 11.730469 C 7.648438 11.453125 8.253906 10.75 8.253906 9.75 C 8.253906 8.75 7.648438 8.046875 7.097656 7.769531 C 6.546875 7.492188 6.015625 7.5 6.015625 7.5 Z M 0.761719 7.5"/>
 </g>
</svg>
