<svg xmlns="http://www.w3.org/2000/svg" width="12pt" height="12pt" version="1.1" viewBox="0 0 12 12">
 <g>
  <path style="fill:rgb(32.156863%,58.039216%,88.627451%)" d="M 5.320312 1.535156 C 2.652344 1.535156 3.273438 3.972656 1.90625 4.703125 C 1.859375 4.730469 1.832031 4.757812 1.792969 4.78125 C 2.691406 4.246094 3.800781 3.796875 4.980469 3.496094 C 5.980469 3.238281 6.992188 3.09375 7.925781 3.074219 C 7.949219 3.074219 7.972656 3.074219 7.996094 3.074219 C 7.097656 2.820312 6.996094 1.535156 5.320312 1.535156 Z M 8.226562 3.75 C 7.292969 3.769531 6.277344 3.914062 5.28125 4.171875 C 1.992188 5.015625 -0.355469 6.859375 0.0429688 8.28125 C 0.273438 9.097656 1.378906 9.632812 3.023438 9.730469 C 3.019531 9.722656 3.019531 9.71875 3.019531 9.714844 C 2.929688 8.941406 3.417969 8.273438 3.992188 7.820312 C 4.566406 7.363281 5.300781 7.035156 6.128906 6.859375 C 6.957031 6.683594 7.730469 6.691406 8.378906 6.886719 C 8.988281 7.070312 9.5625 7.472656 9.703125 8.15625 C 11.351562 7.234375 12.207031 6.117188 11.957031 5.21875 C 11.695312 4.273438 10.265625 3.710938 8.226562 3.75 Z M 7.246094 7.5 C 6.914062 7.496094 6.5625 7.53125 6.214844 7.605469 C 4.765625 7.914062 3.664062 8.785156 3.753906 9.554688 C 3.84375 10.324219 5.089844 10.699219 6.535156 10.394531 C 7.984375 10.085938 9.082031 9.210938 8.992188 8.445312 C 8.929688 7.882812 8.242188 7.511719 7.246094 7.5 Z M 7.246094 7.5"/>
 </g>
</svg>
