<svg xmlns="http://www.w3.org/2000/svg" width="12pt" height="12pt" version="1.1" viewBox="0 0 12 12">
 <g>
  <path style="fill:rgb(82.745098%,85.490196%,89.019608%)" d="M 6.082031 1.5 C 4.679688 1.5 2.609375 1.59375 1.988281 1.613281 C 1.316406 1.679688 1.066406 1.714844 0.699219 2.050781 C 0.132812 2.582031 0 3.632812 0 5.234375 L 0 6.761719 C 0 8.589844 0.226562 9.519531 0.605469 9.855469 C 1.039062 10.253906 1.324219 10.285156 1.613281 10.332031 C 1.722656 10.347656 2.515625 10.5 6.03125 10.5 C 6.453125 10.5 6.753906 10.484375 7.144531 10.476562 C 6.886719 10.027344 6.75 9.519531 6.75 9 C 6.75 7.34375 8.09375 6 9.75 6 C 10.609375 6 11.425781 6.371094 11.996094 7.015625 C 11.996094 6.929688 12 6.859375 12 6.769531 L 12 4.992188 C 12 4.042969 11.953125 2.707031 11.398438 2.144531 C 10.976562 1.765625 10.824219 1.660156 9.957031 1.613281 C 9.714844 1.601562 7.574219 1.5 6.082031 1.5 Z M 5.25 3.75 L 8.25 6 L 5.25 8.25 Z M 5.25 3.75"/>
  <path style="fill:rgb(82.745098%,85.490196%,89.019608%)" d="M 9.75 6.75 C 8.507812 6.75 7.5 7.761719 7.5 9 C 7.5 10.238281 8.507812 11.25 9.75 11.25 C 10.992188 11.25 12 10.238281 12 9 C 12 7.761719 10.992188 6.75 9.75 6.75 Z M 9.75 7.5 C 10.578125 7.5 11.25 8.171875 11.25 9 L 10.5 9 C 10.5 8.585938 10.164062 8.25 9.75 8.25 Z M 8.25 9 L 9 9 C 9 9.414062 9.335938 9.75 9.75 9.75 L 9.75 10.5 C 8.921875 10.5 8.25 9.828125 8.25 9 Z M 8.25 9"/>
 </g>
</svg>
