<svg xmlns="http://www.w3.org/2000/svg" width="512" height="512" version="1.1" viewBox="0 0 512 512">
 <defs>
  <filter id="filter4166" style="color-interpolation-filters:sRGB" width="1.056" height="1.099" x="-.03" y="-.05">
   <feGaussianBlur stdDeviation="5.9"/>
  </filter>
 </defs>
 <path style="fill:#245dc4;fill-rule:evenodd;stroke:#000000;stroke-width:0" d="m 55.066853,94.276715 c -7.824275,0 -14.123816,6.297845 -14.123816,14.122115 l 0,37.32867 0,120.13243 0,121.5455 0,7.30708 c 0,5.98757 4.819796,10.80737 10.807375,10.80737 l 408.499318,0 c 5.98757,0 10.80907,-4.8198 10.80907,-10.80737 l 0,-128.85257 -0.002,0 0,-120.13243 c 0,-11.78329 -9.48585,-21.26915 -21.26914,-21.26915 l -218.96832,0 c -5.81617,0 -8.11397,-0.68519 -11.8386,-4.18889 L 197.01302,98.500575 c -0.0748,-0.0762 -0.15164,-0.15024 -0.22814,-0.22473 l -0.0443,-0.0426 -0.002,0.002 c -2.53734,-2.44894 -5.98807,-3.95828 -9.80972,-3.95828 z"/>
 <path style="opacity:0.3;fill-rule:evenodd;stroke:#000000;stroke-width:0;filter:url(#filter4166)" d="m 28.241425,148.07206 c -12.87594,0 -23.24141,9.6069 -23.24141,21.54052 l 16,244.76159 0,7.4003 c 0,6.06398 5.26673,10.94526 11.80953,10.94526 l 446.379045,0 c 6.54281,0 11.81139,-4.88128 11.81139,-10.94526 l 15.998,-252.16189 c 0,-11.93362 -10.36547,-21.54052 -23.24141,-21.54052 l -455.515295,0 z" transform="matrix(0.88626203,0,0,0.86265191,29.117811,27.075351)"/>
 <path style="fill:#367bf0;fill-rule:evenodd;stroke:#000000;stroke-width:0" d="m 47.569939,157.23082 c -11.78328,0 -21.26914,8.79166 -21.26914,19.7126 l 14.64224,223.99111 v 6.77231 c 0,5.54939 4.81979,10.01644 10.80737,10.01644 H 460.24973 c 5.98757,0 10.80907,-4.46705 10.80907,-10.01644 l 14.64041,-230.76343 c 0,-10.92094 -9.48585,-19.71259 -21.26914,-19.71259 H 47.569809 Z"/>
 <g style="fill:#ffffff;stroke:#ffffff" transform="matrix(6.4033596,0,0,6.4066965,-2796.6249,-3087.0322)">
  <g style="fill:#ffffff;stroke:#ffffff" transform="translate(547.69352,-328.64093)">
   <g style="fill:#ffffff;stroke:#ffffff" transform="matrix(0.12613922,0,0,0.12613922,-162.53176,751.54587)">
    <g style="fill:#ffffff;stroke:#ffffff" transform="matrix(-0.14518046,0,0,0.14518046,1220.8929,1118.0734)">
     <g style="fill:#ffffff;stroke:#ffffff" transform="matrix(-7.0732846,0,0,7.0017718,2712.2317,-7878.2911)">
      <g style="fill:#ffffff;stroke:#ffffff" transform="matrix(0.11770342,0,0,0.11770342,-131.56937,724.00624)">
       <g style="opacity:0.98999999;fill:#ffffff;stroke:#ffffff;stroke-width:26.21758842" transform="matrix(2.4074013,0,0,2.4319895,-456.62221,197.91631)">
        <g style="fill:#ffffff;stroke:#ffffff;stroke-width:26.21758842">
         <g style="fill:#ffffff;stroke:#ffffff;stroke-width:26.21758842">
          <path style="fill:#ffffff;stroke:#ffffff;stroke-width:26.21758842" d="M 587.572,186.881 C 555.306,111.656 500.476,56.947 424.623,24.596 386.711,8.427 346.992,0.168 305.497,0.168 264.009,0.168 224.583,8.349 186.713,24.596 111.488,56.861 56.415,111.535 24.092,186.881 7.895,224.629 0,264.176 0,305.664 c 0,41.496 7.895,81.371 24.092,119.127 32.323,75.346 87.403,130.348 162.621,162.621 37.877,16.247 77.295,24.42 118.784,24.42 41.489,0 81.214,-8.259 119.12,-24.42 C 500.47,555.06 555.3,500.009 587.573,424.791 603.819,386.914 612,347.16 612,305.664 c 0,-41.488 -8.174,-80.907 -24.428,-118.783 z m -48.848,253.972 c -24.021,41.195 -56.929,73.876 -98.375,98.039 -41.195,24.021 -86.332,36.135 -134.845,36.135 -36.47,0 -71.27,-7.024 -104.4,-21.415 C 167.975,539.228 139.371,520.318 115.443,496.397 91.515,472.469 72.47,443.586 58.229,410.4 44.03,377.335 37.149,342.142 37.149,305.665 c 0,-48.52 11.921,-93.428 35.807,-134.509 23.971,-41.231 56.886,-73.947 98.039,-98.04 41.146,-24.092 85.99,-36.142 134.502,-36.142 48.52,0 93.649,12.121 134.845,36.142 41.446,24.164 74.283,56.879 98.375,98.039 24.092,41.153 36.135,85.99 36.135,134.509 0,48.521 -11.964,93.735 -36.128,135.189 z"/>
          <path style="fill:#ffffff;stroke:#ffffff;stroke-width:26.21758842" d="M 324.906,302.988 V 129.659 c 0,-10.372 -9.037,-18.738 -19.41,-18.738 -9.701,0 -18.403,8.366 -18.403,18.738 v 176.005 c 0,0.336 0.671,1.678 0.671,2.678 -0.671,6.024 1.007,11.043 5.019,15.062 L 392.836,423.45 c 6.695,6.695 19.073,6.695 25.763,0 7.694,-7.695 7.188,-18.86 0,-26.099 z"/>
         </g>
        </g>
       </g>
      </g>
     </g>
    </g>
   </g>
  </g>
 </g>
</svg>
