<svg xmlns="http://www.w3.org/2000/svg" width="12pt" height="12pt" version="1.1" viewBox="0 0 12 12">
 <g>
  <path style="fill:rgb(82.745098%,85.490196%,89.019608%)" d="M 6.5625 1.96875 L 6.5625 2.03125 L 6.898438 2.585938 C 7.402344 2.679688 7.871094 2.851562 8.269531 3.09375 L 8.675781 2.769531 C 8.09375 2.351562 7.359375 2.070312 6.5625 1.96875 Z M 5.960938 2 C 5.546875 2.003906 5.140625 2.054688 4.75 2.152344 L 5.167969 2.570312 C 5.441406 2.523438 5.722656 2.5 6.003906 2.5 C 6.089844 2.5 6.179688 2.503906 6.265625 2.507812 Z M 4.210938 2.320312 C 3.871094 2.445312 3.558594 2.609375 3.28125 2.804688 L 3.769531 3.078125 C 4.019531 2.929688 4.300781 2.804688 4.601562 2.710938 Z M 9.082031 3.085938 L 8.6875 3.398438 C 8.839844 3.527344 8.972656 3.667969 9.085938 3.816406 L 9.585938 3.671875 C 9.449219 3.460938 9.28125 3.265625 9.082031 3.085938 Z M 2.863281 3.140625 C 2.652344 3.339844 2.480469 3.558594 2.34375 3.792969 L 2.8125 3.976562 C 2.941406 3.765625 3.113281 3.574219 3.316406 3.398438 Z M 9.828125 4.121094 L 9.34375 4.261719 C 9.421875 4.441406 9.472656 4.621094 9.492188 4.808594 L 9.996094 4.875 C 9.980469 4.621094 9.925781 4.367188 9.828125 4.121094 Z M 2.132812 4.246094 C 2.054688 4.480469 2.007812 4.71875 2.003906 4.960938 L 2.507812 4.9375 C 2.511719 4.765625 2.542969 4.597656 2.597656 4.429688 Z M 9.472656 5.308594 C 9.429688 5.5625 9.328125 5.8125 9.179688 6.042969 L 9.671875 6.179688 C 9.820312 5.925781 9.917969 5.652344 9.964844 5.375 Z M 2.558594 5.433594 L 2.054688 5.457031 C 2.105469 5.710938 2.199219 5.957031 2.335938 6.195312 L 2.789062 5.984375 C 2.683594 5.808594 2.605469 5.625 2.558594 5.433594 Z M 3.101562 6.390625 L 2.632812 6.609375 C 2.871094 6.886719 3.171875 7.136719 3.515625 7.339844 C 3.835938 8.527344 2.597656 9.589844 3.003906 9.996094 C 3.570312 10.050781 3.90625 9.214844 4.042969 8.402344 C 4.09375 8.332031 4.28125 8.070312 4.429688 7.753906 C 4.925781 7.914062 5.457031 7.996094 6 8 L 5.464844 7.464844 C 5.15625 7.429688 4.855469 7.363281 4.570312 7.273438 C 4.574219 7.050781 4.4375 6.910156 4.003906 7 C 4.003906 7 4.003906 7 4.003906 6.996094 C 3.964844 6.996094 3.925781 6.988281 3.882812 6.980469 C 3.582031 6.816406 3.316406 6.617188 3.101562 6.390625 Z M 8.832031 6.464844 C 8.601562 6.691406 8.316406 6.890625 7.996094 7.050781 L 8.484375 7.347656 C 8.832031 7.140625 9.132812 6.894531 9.371094 6.617188 Z M 7.414062 7.28125 C 7.03125 7.402344 6.621094 7.476562 6.199219 7.492188 L 6.660156 7.953125 C 7.117188 7.898438 7.554688 7.78125 7.957031 7.613281 Z M 7.414062 7.28125"/>
 </g>
</svg>
