<svg xmlns="http://www.w3.org/2000/svg" width="12pt" height="12pt" version="1.1" viewBox="0 0 12 12">
 <g>
  <path style="fill:rgb(82.745098%,85.490196%,89.019608%)" d="M 3.84375 3.5 L 2.5 7 L 2.921875 7 L 3.34375 5.890625 L 4.734375 5.890625 L 5.140625 7 L 5.5625 7 L 4.265625 3.5 Z M 5.5 3.5 L 5.5 4 L 7.5 4 L 7.5 3.5 Z M 8.5 3.5 L 8.5 5.5 L 9.5 4.5 Z M 4.046875 3.921875 C 4.082031 4.042969 4.261719 4.582031 4.59375 5.546875 L 3.46875 5.546875 Z M 6 5 L 6 5.5 L 7.5 5.5 L 7.5 5 Z M 6.5 6.5 L 6.5 7 L 7.5 7 L 7.5 6.5 Z M 8.5 6.5 L 8.5 8.5 L 9.5 7.5 Z M 2.5 8 L 2.5 8.5 L 7.5 8.5 L 7.5 8 Z M 2.5 8"/>
 </g>
</svg>
