<svg xmlns="http://www.w3.org/2000/svg" width="12pt" height="12pt" version="1.1" viewBox="0 0 12 12">
 <g>
  <path style="fill:rgb(82.745098%,85.490196%,89.019608%)" d="M 4.609375 2.5 L 4.453125 2.640625 L 2.640625 4.453125 L 2.5 4.609375 L 2.5 7.390625 L 2.640625 7.546875 L 4.453125 9.359375 L 4.609375 9.5 L 7.390625 9.5 L 7.546875 9.359375 L 9.359375 7.546875 L 9.5 7.390625 L 9.5 4.609375 L 9.359375 4.453125 L 7.546875 2.640625 L 7.390625 2.5 Z M 5 3.5 L 7 3.5 L 8.5 5 L 8.5 7 L 7 8.5 L 5 8.5 L 3.5 7 L 3.5 5 Z M 5.21875 4 L 4 5.21875 L 4 6.78125 L 5.21875 8 L 6.78125 8 L 8 6.78125 L 8 5.21875 L 6.78125 4 Z M 5.21875 4"/>
 </g>
</svg>
