<svg xmlns="http://www.w3.org/2000/svg" width="12pt" height="12pt" version="1.1" viewBox="0 0 12 12">
 <g>
  <path style="fill:rgb(82.745098%,85.490196%,89.019608%)" d="M 3.949219 2 C 2.570312 2 2 3.121094 2 4.5 L 2 7.5 C 2 8.878906 2.570312 10 3.949219 10 C 5.332031 10 5.75 8.878906 5.75 7.5 L 5.75 4.5 C 5.75 3.121094 5.332031 2 3.949219 2 Z M 3.949219 2.5 C 5.054688 2.5 5.25 3.394531 5.25 4.5 L 5.25 7.5 C 5.25 8.605469 5.054688 9.5 3.949219 9.5 C 2.84375 9.5 2.5 8.605469 2.5 7.5 L 2.5 4.5 C 2.5 3.394531 2.84375 2.5 3.949219 2.5 Z M 9.5 4 L 9.5 4.5 L 10 4.5 L 10 4 Z M 6.5 5.5 L 6.5 10 L 7 10 L 7 7 C 7 6.449219 7.449219 6 8 6 C 8.550781 6 8.5 6.449219 8.5 7 L 9 7 C 9 6.171875 8.828125 5.5 8 5.5 C 7.628906 5.5 7.273438 5.636719 7 5.882812 L 7 5.5 Z M 9.5 5.5 L 9.5 10 L 10 10 L 10 5.5 Z M 9.5 5.5"/>
 </g>
</svg>
