<svg xmlns="http://www.w3.org/2000/svg" width="12pt" height="12pt" version="1.1" viewBox="0 0 12 12">
 <g>
  <path style="fill:rgb(82.745098%,85.490196%,89.019608%)" d="M 3 3.515625 C 2.722656 3.515625 2.5 3.742188 2.5 4.015625 L 2.5 8.015625 C 2.5 8.292969 2.722656 8.515625 3 8.515625 L 9 8.515625 C 9.277344 8.515625 9.5 8.292969 9.5 8.015625 L 9.5 4.015625 C 9.5 3.742188 9.277344 3.515625 9 3.515625 Z M 3.5 6.015625 L 4.5 6.015625 L 4.5 6.515625 L 3.5 6.515625 Z M 5 6.015625 L 7 6.015625 L 7 6.515625 L 5 6.515625 Z M 7.5 6.015625 L 8.5 6.015625 L 8.5 6.515625 L 7.5 6.515625 Z M 3.5 7.015625 L 4 7.015625 L 4 7.515625 L 3.5 7.515625 Z M 4.5 7.015625 L 6.5 7.015625 L 6.5 7.515625 L 4.5 7.515625 Z M 7 7.015625 L 8.5 7.015625 L 8.5 7.515625 L 7 7.515625 Z M 7 7.015625"/>
 </g>
</svg>
