<svg xmlns="http://www.w3.org/2000/svg" width="12pt" height="12pt" version="1.1" viewBox="0 0 12 12">
 <g>
  <path style="fill:rgb(82.745098%,85.490196%,89.019608%)" d="M 5 3 C 4.171875 3 3.5 3.671875 3.5 4.5 C 3.5 5.328125 4.171875 6 5 6 C 5.828125 6 6.5 5.328125 6.5 4.5 C 6.5 3.671875 5.828125 3 5 3 Z M 7.5 3.976562 C 7.304688 3.976562 7.125 4.019531 6.957031 4.09375 C 6.984375 4.226562 7 4.359375 7 4.5 C 7 5.050781 6.773438 5.550781 6.40625 5.914062 C 6.636719 6.265625 7.039062 6.503906 7.5 6.5 C 8.214844 6.5 8.796875 5.9375 8.796875 5.238281 C 8.796875 4.542969 8.214844 3.976562 7.5 3.976562 Z M 5 7 C 2 7 2 9 2 9 L 2 9.5 C 2.441406 9.503906 8.757812 9.5 7 9.5 C 6.722656 9.5 6.5 9.277344 6.5 9 L 6.5 8 C 6.5 7.722656 6.722656 7.5 7 7.5 L 7.078125 7.5 C 6.632812 7.214844 5.976562 7 5 7 Z M 8 7 L 8 8 L 7 8 L 7 9 L 8 9 L 8 10 L 9 10 L 9 9 L 10 9 L 10 8 L 9 8 L 9 7 Z M 8 7"/>
 </g>
</svg>
