<svg xmlns="http://www.w3.org/2000/svg" width="12pt" height="12pt" version="1.1" viewBox="0 0 12 12">
 <g>
  <path style="fill:rgb(82.745098%,85.490196%,89.019608%)" d="M 3.5 2.5 C 2.375 2.5 2.5 3.5 2.5 3.5 L 2.5 9.5 L 9.5 9.5 L 9.5 3.5 C 9.5 2.5 8.5 2.5 8.5 2.5 Z M 3.5 3.5 L 8.5 3.5 L 8.5 8.5 L 3.5 8.5 Z M 5.5 4.5 L 5.5 6.5 L 6.5 6.5 L 6.5 4.5 Z M 6 7 C 5.722656 7 5.5 7.222656 5.5 7.5 C 5.5 7.777344 5.722656 8 6 8 C 6.277344 8 6.5 7.777344 6.5 7.5 C 6.5 7.222656 6.277344 7 6 7 Z M 6 7"/>
 </g>
</svg>
