<svg xmlns="http://www.w3.org/2000/svg" width="12pt" height="12pt" version="1.1" viewBox="0 0 12 12">
 <g>
  <path style="fill:rgb(82.745098%,85.490196%,89.019608%)" d="M 5.5 2.5 L 2 6 L 3 6 L 3 9.5 L 7.1875 9.5 C 7.070312 9.261719 7 8.996094 7 8.714844 C 7 8.015625 7.410156 7.421875 8 7.132812 L 8 6 L 9 6 Z M 5.5 5 C 6.050781 5 6.5 5.449219 6.5 6 C 6.5 6.550781 6.050781 7 5.5 7 C 7 7 7 8.199219 7 8.199219 L 7 8.5 L 4 8.5 L 4 8.199219 C 4 8.199219 4 7 5.5 7 C 4.949219 7 4.5 6.550781 4.5 6 C 4.5 5.449219 4.949219 5 5.5 5 Z M 8.75 7 L 8.75 7.429688 C 8.058594 7.429688 7.5 8.003906 7.5 8.714844 C 7.5 9.425781 8.058594 10 8.75 10 C 9.433594 10 9.988281 9.433594 10 8.734375 C 10 8.726562 10 8.722656 10 8.714844 C 10 8.597656 9.90625 8.5 9.792969 8.5 C 9.738281 8.5 9.683594 8.523438 9.644531 8.5625 C 9.605469 8.601562 9.582031 8.65625 9.582031 8.714844 C 9.582031 9.1875 9.210938 9.570312 8.75 9.570312 C 8.289062 9.570312 7.917969 9.1875 7.917969 8.714844 C 7.917969 8.242188 8.289062 7.859375 8.75 7.859375 L 8.75 8.285156 L 9.582031 7.640625 Z M 8.75 7"/>
 </g>
</svg>
