<svg xmlns="http://www.w3.org/2000/svg" width="12pt" height="12pt" version="1.1" viewBox="0 0 12 12">
 <g>
  <path style="fill:rgb(82.745098%,85.490196%,89.019608%)" d="M 6 2.5 C 4.078125 2.5 2.5 4.082031 2.5 6 C 2.5 7.921875 4.078125 9.5 6 9.5 C 7.921875 9.5 9.5 7.921875 9.5 6 C 9.5 4.082031 7.921875 2.5 6 2.5 Z M 6 4 C 6.550781 4 7 4.449219 7 5 C 7 5.550781 6.550781 6 6 6 C 5.449219 6 5 5.550781 5 5 C 5 4.449219 5.449219 4 6 4 Z M 6 6.5 C 8 6.5 8 7.699219 8 7.699219 L 8 8 L 4 8 L 4 7.699219 C 4 7.699219 4 6.5 6 6.5 Z M 6 6.5"/>
 </g>
</svg>
