<svg width="36pt" height="36pt" version="1.1" viewBox="0 0 36 36" xmlns="http://www.w3.org/2000/svg"><defs><filter id="a" x="-.192" y="-.192" width="1.384" height="1.384" color-interpolation-filters="sRGB"><feGaussianBlur stdDeviation="0.67843748"/></filter></defs><path d="m7.3477 3.9022c-0.67188 0-1.3047 0.63281-1.3047 1.3047v27.391c0 0.63281 0.67188 1.3047 1.3047 1.3047h20.871c0.63281 0 1.3047-0.67188 1.3047-1.3047v-20.215l-8.4805-8.4805z" opacity=".1"/><path d="m7.3477 3.1523c-0.67188 0-1.3047 0.63281-1.3047 1.3047v27.391c0 0.63281 0.67188 1.3047 1.3047 1.3047h20.871c0.63281 0 1.3047-0.67188 1.3047-1.3047v-20.215l-8.4805-8.4805z" fill="#f7dd67"/><path d="m20.668 3.5272 8.4805 8.4805h-7.1758c-0.63281 0-1.3047-0.67187-1.3047-1.3047z" filter="url(#a)" opacity=".2"/><path d="m21.043 3.1523 8.4805 8.4805h-7.1758c-0.63281 0-1.3047-0.67187-1.3047-1.3047z" fill="#f9e794"/><path d="m15.539 25.867c-0.70971-0.36292-1.2662-1.3388-0.89521-2.101 0.31453-0.63713 1.3872-0.81455 1.4396-1.6291 0.05645-0.7702 0.66132-1.3993 1.4355-1.4073 0.80649-4e-3 1.7743-0.10081 2.3711 0.53228 0.4597 0.48793 0.33066 1.6009 1.0444 1.855 0.61293 0.21776 1.1533 0.83472 1.0041 1.5807-0.15726 0.79036-0.81456 1.2299-1.5525 1.3388-1.613 0.24195-3.2905 0.38308-4.843-0.16534m-2.6816-3.9034c-0.80246-0.56051-0.89117-1.6533-0.85489-2.5768 0.0121-0.33872 0.01613-1.5081 0.26614-1.1855 0.25808 0.33066 0.18952 0.5968 0.70568 0.50003 0.7823-0.14516 1.0767 1.0081 1.6815 1.4598 0.54438 0.40728 0.52825 1.4558-0.14114 1.8025-0.51616 0.26614-1.1573 0.30244-1.6533-4e-3m8.7182-0.04839c-0.72584-0.29437-0.72181-1.367-0.09678-1.8267 0.57664-0.43148 0.79843-1.4436 1.7259-1.3469 0.27824 0.02823 0.22582-1.3428 0.45567-0.65729 0.23388 0.70971 0.27018 1.4799 0.32663 2.2218 0.06049 0.80649-0.4476 1.734-1.3025 1.8469-0.38308 0.05242-0.79036-0.0081-1.1129-0.23792m-5.9519-3.1776c-0.85488-0.42341-1.0283-1.7017-0.4839-2.4397 0.45164-0.6089 0.30244-1.742 0.9315-2.0324 0.36696-0.16936-0.26614 1.0081 0.43551 1.0727 0.99199 0.08871 0.45164 1.2259 0.78633 1.8469 0.37905 0.69761 0.23792 1.6533-0.63713 1.746-0.35082 0.03629-0.72987 0.0081-1.0323-0.19356m2.9558-0.07662c-0.53228-0.38712-0.30647-1.117-0.16533-1.6493 0.14516-0.54842-0.31454-1.7501 0.46373-1.7057 0.91537 0.04839 0.11694-1.1694 0.46373-1.0444 0.66536 0.23792 0.66536 1.3953 1.1694 2.0041 0.50405 0.60886 0.57261 1.7097-0.08065 2.2945-0.51616 0.45567-1.2864 0.42744-1.8509 0.10081" fill="#fff" stroke-width="1.0323"/></svg>
