<svg xmlns="http://www.w3.org/2000/svg" xmlns:xlink="http://www.w3.org/1999/xlink" width="512" height="512" version="1.1" viewBox="0 0 384 384"> <defs> <filter id="alpha" width="100%" height="100%" x="0%" y="0%" filterUnits="objectBoundingBox"> <feColorMatrix in="SourceGraphic" type="matrix" values="0 0 0 0 1 0 0 0 0 1 0 0 0 0 1 0 0 0 1 0"/> </filter> <mask id="mask0"> <g filter="url(#alpha)"> <rect width="384" height="384" x="0" y="0" style="fill:rgb(0%,0%,0%);fill-opacity:0.2"/> </g> </mask> <clipPath id="clip1"> <rect width="384" height="384" x="0" y="0"/> </clipPath> <g id="surface5" clip-path="url(#clip1)"> <path style="fill:rgb(0%,0%,0%)" d="M 310.144531 131.71875 C 309.921875 142.246094 308.328125 152.433594 305.46875 162.105469 C 305.792969 162.359375 306.375 162.890625 306.734375 163.183594 C 308.96875 154.234375 310.238281 144.921875 310.238281 135.292969 C 310.238281 134.09375 310.183594 132.910156 310.144531 131.71875 Z M 73.882812 131.765625 C 73.847656 132.941406 73.789062 134.109375 73.789062 135.292969 C 73.789062 144.921875 75.066406 154.234375 77.292969 163.183594 C 77.652344 162.890625 78.238281 162.359375 78.558594 162.105469 C 75.71875 152.445312 74.113281 142.273438 73.882812 131.765625 Z M 66.292969 260.027344 C 49.777344 290.328125 29.660156 292.03125 29.660156 292.03125 C 26.050781 281.902344 24.355469 272.140625 24.070312 262.804688 C 23.679688 273.925781 25.269531 285.714844 29.660156 298.03125 C 29.660156 298.03125 49.773438 296.324219 66.292969 266.027344 C 70.789062 283.402344 78.789062 299.335938 89.566406 313.054688 C 90.835938 312.613281 92.066406 312.144531 93.398438 311.753906 C 80.65625 297.03125 71.308594 279.417969 66.292969 260.027344 Z M 317.71875 260.027344 C 312.703125 279.417969 303.34375 297.03125 290.613281 311.753906 C 291.945312 312.144531 293.171875 312.625 294.445312 313.066406 C 305.21875 299.34375 313.222656 283.40625 317.71875 266.027344 C 334.222656 296.316406 354.316406 298.03125 354.316406 298.03125 C 358.695312 285.765625 360.296875 274.027344 359.929688 262.945312 C 359.628906 272.242188 357.914062 281.953125 354.316406 292.03125 C 354.316406 292.03125 334.222656 290.316406 317.71875 260.027344 Z M 321.609375 343.300781 C 318.445312 359.421875 292.855469 372 261.753906 372 C 239.199219 372 219.558594 365.375 209.242188 355.605469 C 203.59375 356.34375 197.867188 356.859375 191.992188 356.859375 C 186.125 356.859375 180.410156 356.34375 174.742188 355.605469 C 164.445312 365.371094 144.804688 371.996094 122.253906 371.996094 C 91.167969 371.996094 65.59375 359.433594 62.417969 343.308594 C 62.285156 344.175781 62.078125 345.035156 62.078125 345.921875 C 62.078125 363.640625 89.023438 378 122.25 378 C 144.804688 378 164.441406 371.375 174.738281 361.605469 C 180.410156 362.34375 186.121094 362.859375 191.988281 362.859375 C 197.867188 362.859375 203.589844 362.34375 209.238281 361.605469 C 219.558594 371.371094 239.195312 377.996094 261.75 377.996094 C 294.992188 377.996094 321.949219 363.625 321.949219 345.921875 C 321.949219 345.03125 321.742188 344.167969 321.609375 343.296875 Z M 321.609375 343.300781"/> </g> <mask id="mask1"> <g filter="url(#alpha)"> <rect width="384" height="384" x="0" y="0" style="fill:rgb(0%,0%,0%);fill-opacity:0.2"/> </g> </mask> <clipPath id="clip2"> <rect width="384" height="384" x="0" y="0"/> </clipPath> <g id="surface8" clip-path="url(#clip2)"> <path style="fill:rgb(0%,0%,0%)" d="M 168 120.007812 L 216 120.007812 C 212.152344 156.980469 192 192.007812 192 192.007812 C 192 192.007812 168 150.441406 168 120.007812 Z M 168 120.007812"/> </g> <mask id="mask2"> <g filter="url(#alpha)"> <rect width="384" height="384" x="0" y="0" style="fill:rgb(0%,0%,0%);fill-opacity:0.2"/> </g> </mask> <clipPath id="clip3"> <rect width="384" height="384" x="0" y="0"/> </clipPath> <g id="surface11" clip-path="url(#clip3)"> <path style="fill:rgb(0%,0%,0%)" d="M 291.246094 230.546875 C 297.011719 229.351562 302.640625 231.554688 305.378906 235.78125 L 306.53125 235.488281 C 312.058594 231.21875 319.796875 227.445312 328.878906 225.109375 C 337.96875 222.773438 346.632812 222.320312 353.636719 223.363281 C 353.636719 223.363281 355.390625 222.914062 357.558594 222.355469 C 359.722656 221.796875 360.617188 218.253906 359.554688 214.441406 L 353.300781 191.980469 C 352.246094 188.171875 349.648438 185.523438 347.507812 186.074219 L 343.632812 187.074219 C 338.101562 191.363281 330.332031 195.160156 321.195312 197.511719 C 312.066406 199.859375 303.363281 200.304688 296.335938 199.242188 L 295.535156 199.449219 C 295.796875 204.742188 291.910156 209.796875 285.976562 211.632812 L 226.3125 226.792969 C 224.71875 225.714844 222.804688 222.832031 222.34375 215.285156 C 221.515625 201.796875 209.808594 187.523438 185.632812 201.335938 C 161.457031 215.144531 169.636719 224.570312 132.488281 208.125 L 132.492188 208.140625 C 119.796875 201.589844 105.488281 199.402344 91.589844 202.976562 C 58.621094 211.460938 40.449219 249.074219 50.996094 286.996094 C 61.546875 324.914062 96.832031 348.773438 129.800781 340.285156 C 130.390625 340.132812 130.976562 339.949219 131.558594 339.777344 L 131.554688 339.796875 C 131.554688 339.796875 131.777344 339.730469 132.152344 339.605469 C 134.886719 338.773438 137.503906 337.730469 140.007812 336.503906 C 149.769531 332.066406 165.3125 322.914062 171.710938 307.582031 C 181.367188 284.4375 201.296875 297.441406 212.878906 296.988281 C 224.460938 296.535156 230.125 293.605469 233.460938 288.3125 C 233.460938 288.3125 219.34375 289.417969 215.292969 274.863281 C 212.035156 263.164062 222.453125 252.585938 229.417969 247.84375 L 291.234375 230.53125 Z M 291.246094 230.546875"/> </g> <mask id="mask3"> <g filter="url(#alpha)"> <rect width="384" height="384" x="0" y="0" style="fill:rgb(0%,0%,0%);fill-opacity:0.101961"/> </g> </mask> <clipPath id="clip4"> <rect width="384" height="384" x="0" y="0"/> </clipPath> <g id="surface14" clip-path="url(#clip4)"> <path style="fill:rgb(100.000%,100.000%,100.000%)" d="M 192.011719 12.011719 C 126.730469 12.011719 73.792969 64.507812 73.792969 129.292969 C 73.792969 130.121094 73.867188 130.9375 73.882812 131.765625 C 75.773438 68.617188 127.925781 18.011719 192.011719 18.011719 C 256.117188 18.011719 308.238281 68.605469 310.144531 131.71875 C 310.164062 130.90625 310.242188 130.109375 310.242188 129.292969 C 310.242188 64.519531 257.328125 12.011719 192.011719 12.011719 Z M 77.296875 163.171875 C 63.511719 174.378906 22.527344 211.996094 24.070312 262.804688 C 25.792969 213.726562 66.425781 177.78125 78.5625 168.109375 C 78.085938 166.480469 77.707031 164.820312 77.296875 163.171875 Z M 306.738281 163.171875 C 306.328125 164.820312 305.953125 166.480469 305.472656 168.109375 C 317.617188 177.78125 358.296875 213.796875 359.929688 262.945312 C 361.578125 212.0625 320.53125 174.382812 306.738281 163.171875 Z M 89.566406 313.054688 C 73.0625 318.78125 62.074219 328.65625 62.074219 339.925781 C 62.074219 341.070312 62.195312 342.199219 62.410156 343.3125 C 64.09375 332.292969 76.097656 322.8125 93.394531 317.753906 C 92.074219 316.222656 90.816406 314.644531 89.566406 313.054688 Z M 294.445312 313.066406 C 293.195312 314.652344 291.9375 316.222656 290.617188 317.753906 C 307.90625 322.804688 319.921875 332.292969 321.613281 343.300781 C 321.828125 342.191406 321.949219 341.0625 321.949219 339.925781 C 321.949219 328.667969 310.949219 318.796875 294.445312 313.066406 Z M 294.445312 313.066406"/> </g> </defs> <g> <use mask="url(#mask0)" xlink:href="#surface5"/> <path style="fill:rgb(29.803%,29.803%,29.803%)" d="M 305.464844 162.101562 C 308.542969 151.683594 310.242188 140.695312 310.242188 129.296875 C 310.242188 64.523438 257.320312 12.011719 192.003906 12.011719 C 126.726562 12.011719 73.78125 64.511719 73.78125 129.296875 C 73.78125 140.695312 75.492188 151.683594 78.554688 162.101562 C 63.667969 173.964844 5.890625 225.371094 29.660156 292.039062 C 29.660156 292.039062 49.769531 290.328125 66.285156 260.03125 C 71.300781 279.421875 80.644531 297.039062 93.386719 311.761719 C 74.722656 317.214844 62.0625 327.792969 62.0625 339.929688 C 62.0625 357.644531 89.011719 372.003906 122.242188 372.003906 C 144.796875 372.003906 164.4375 365.375 174.730469 355.605469 C 180.402344 356.347656 186.117188 356.859375 191.984375 356.859375 C 197.859375 356.859375 203.589844 356.347656 209.238281 355.605469 C 219.554688 365.375 239.183594 372.003906 261.738281 372.003906 C 294.980469 372.003906 321.941406 357.632812 321.941406 339.929688 C 321.941406 327.804688 309.269531 317.214844 290.605469 311.761719 C 303.335938 297.039062 312.703125 279.421875 317.71875 260.03125 C 334.222656 290.320312 354.3125 292.039062 354.3125 292.039062 C 378.128906 225.355469 320.351562 173.945312 305.476562 162.101562 Z M 305.464844 162.101562"/> <path style="fill:rgb(100.000%,100.000%,100.000%)" d="M 156 96.007812 C 156 109.261719 145.253906 120.007812 132 120.007812 C 118.746094 120.007812 108 109.261719 108 96.007812 C 108 82.75 118.746094 72.007812 132 72.007812 C 145.253906 72.007812 156 82.75 156 96.007812 Z M 156 96.007812"/> <path style="fill:rgb(100.000%,100.000%,100.000%)" d="M 275.992188 96.007812 C 275.992188 109.261719 265.25 120.007812 251.992188 120.007812 C 238.738281 120.007812 227.992188 109.261719 227.992188 96.007812 C 227.992188 82.75 238.738281 72.007812 251.992188 72.007812 C 265.25 72.007812 275.992188 82.75 275.992188 96.007812 Z M 275.992188 96.007812"/> <path style="fill:rgb(100.000%,100.000%,100.000%)" d="M 276 228 C 276 174.980469 238.390625 132 192 132 C 145.609375 132 108 174.980469 108 228 C 108 281.019531 145.609375 324 192 324 C 238.390625 324 276 281.019531 276 228 Z M 276 228"/> <use mask="url(#mask1)" xlink:href="#surface8"/> <use mask="url(#mask2)" xlink:href="#surface11"/> <path style="fill:rgb(20.000%,20.000%,20.000%)" d="M 156 108.007812 C 156 114.632812 150.628906 120.007812 144 120.007812 C 137.371094 120.007812 132 114.632812 132 108.007812 C 132 101.378906 137.371094 96.007812 144 96.007812 C 150.628906 96.007812 156 101.378906 156 108.007812 Z M 156 108.007812"/> <path style="fill:rgb(20.000%,20.000%,20.000%)" d="M 275.992188 108.007812 C 275.992188 114.632812 270.621094 120.007812 263.992188 120.007812 C 257.367188 120.007812 251.992188 114.632812 251.992188 108.007812 C 251.992188 101.378906 257.367188 96.007812 263.992188 96.007812 C 270.621094 96.007812 275.992188 101.378906 275.992188 108.007812 Z M 275.992188 108.007812"/> <use mask="url(#mask3)" xlink:href="#surface14"/> <path style="fill:rgb(86.666%,27.843%,27.843%)" d="M 168 108.007812 L 216 108.007812 C 212.152344 144.980469 192 180.007812 192 180.007812 C 192 180.007812 168 138.441406 168 108.007812 Z M 168 108.007812"/> <path style="fill:rgb(70.588%,53.725%,39.215%)" d="M 291.246094 224.527344 C 297.011719 223.332031 302.640625 225.539062 305.378906 229.765625 L 306.53125 229.472656 C 312.058594 225.199219 319.796875 221.429688 328.878906 219.09375 C 337.96875 216.757812 346.632812 216.304688 353.636719 217.347656 C 353.636719 217.347656 355.390625 216.894531 357.558594 216.335938 C 359.722656 215.777344 360.617188 212.238281 359.554688 208.421875 L 353.300781 185.960938 C 352.246094 182.152344 349.648438 179.507812 347.507812 180.058594 L 343.632812 181.054688 C 338.101562 185.34375 330.332031 189.144531 321.195312 191.492188 C 312.066406 193.84375 303.363281 194.289062 296.335938 193.226562 L 295.535156 193.429688 C 295.796875 198.722656 291.910156 203.78125 285.976562 205.613281 L 226.3125 220.777344 C 224.71875 219.699219 222.804688 216.816406 222.34375 209.269531 C 221.515625 195.777344 209.808594 181.503906 185.632812 195.316406 C 161.457031 209.128906 169.636719 218.554688 132.488281 202.105469 L 132.492188 202.121094 C 119.796875 195.570312 105.488281 193.382812 91.589844 196.957031 C 58.621094 205.441406 40.449219 243.054688 50.996094 280.980469 C 61.546875 318.894531 96.832031 342.753906 129.800781 334.265625 C 130.390625 334.113281 130.976562 333.929688 131.558594 333.761719 L 131.554688 333.777344 C 131.554688 333.777344 131.777344 333.710938 132.152344 333.589844 C 134.886719 332.753906 137.503906 331.710938 140.007812 330.484375 C 149.769531 326.050781 165.3125 316.894531 171.710938 301.566406 C 181.367188 278.421875 201.296875 291.421875 212.878906 290.96875 C 224.460938 290.519531 230.125 287.589844 233.460938 282.296875 C 233.460938 282.296875 219.34375 283.398438 215.292969 268.84375 C 212.035156 257.144531 222.453125 246.570312 229.417969 241.828125 L 291.234375 224.511719 Z M 291.246094 224.527344"/> <path style="fill:rgb(9.803%,9.803%,9.803%)" d="M 168 258 C 168 271.253906 157.253906 282 144 282 C 130.746094 282 120 271.253906 120 258 C 120 244.746094 130.746094 234 144 234 C 157.253906 234 168 244.746094 168 258 Z M 168 258"/> </g> </svg>
