<svg xmlns="http://www.w3.org/2000/svg" width="48" height="48" version="1.1" viewBox="0 0 48 48">
 <defs>
  <filter id="filter4201" style="color-interpolation-filters:sRGB" width="1.12" height="1.12" x="-.06" y="-.06">
   <feGaussianBlur stdDeviation=".283"/>
  </filter>
  <clipPath id="clipPath4157" clipPathUnits="userSpaceOnUse">
   <path style="fill:#f9f8f2" d="m 27.642964,3.2951379 13.085584,13.0855841 -11.072418,0 c -0.977824,0 -2.013166,-1.035372 -2.013166,-2.013167 l 0,-11.0724171 z"/>
  </clipPath>
 </defs>
 <g>
  <path style="fill:#ece9d8" d="m 9.797669,4.203584 c -0.8944343,0 -1.73913,0.8446957 -1.73913,1.7391304 l 0,36.5217396 c 0,0.844721 0.8944348,1.73913 1.73913,1.73913 l 27.826087,0 c 0.844722,0 1.739131,-0.894435 1.739131,-1.73913 l 0,-26.956522 L 28.058539,4.203584 Z"/>
  <path style="fill-opacity:0.39200003;filter:url(#filter4201)" d="m 28.248139,4.2710929 11.304348,11.3043481 -9.565218,0 c -0.844721,0 -1.73913,-0.894435 -1.73913,-1.739131 l 0,-9.5652171 z" clip-path="url(#clipPath4157)" transform="translate(-0.28928697,0.20358399)"/>
  <path style="fill:#f9f8f2" d="m 28.058539,4.203584 11.304348,11.304348 -9.565218,0 c -0.844721,0 -1.73913,-0.894435 -1.73913,-1.739131 l 0,-9.565217 z"/>
 </g>
 <path style="fill-opacity:0.35294119" d="m 23.413043,15.397391 c -1.742956,0.557096 -0.214174,3.151218 -2.708347,4.421913 -2.850522,1.452174 -4.267653,-2.212521 -5.979653,0.403705 -1.712,2.616174 2.36287,2.210434 2.248,5.289652 -0.114869,3.079217 -4.147217,2.425217 -2.634087,5.142348 1.513218,2.71713 3.193479,-0.848861 5.929131,0.778139 2.735739,1.627043 0.120435,4.637652 3.345565,4.738609 3.225217,0.100939 0.830696,-3.059305 3.681131,-4.511566 2.850521,-1.452174 4.267565,2.212522 5.979652,-0.403704 1.712,-2.616174 -2.36287,-2.210435 -2.248,-5.289652 0.114869,-3.079218 4.147217,-2.425218 2.634087,-5.142348 -1.513218,-2.71713 -3.193479,0.848861 -5.929218,-0.778139 -2.735652,-1.627044 -0.120348,-4.637652 -3.345478,-4.738609 -0.40313,-0.01257 -0.723739,0.01007 -0.972783,0.08966 z m 0.03304,7.839826 c 1.438609,-0.293765 2.852696,0.588479 3.158435,1.970522 0.305826,1.382087 -0.612522,2.740609 -2.051131,3.034348 -1.438608,0.293765 -2.852695,-0.588478 -3.158522,-1.970522 -0.305739,-1.382087 0.612609,-2.740608 2.051218,-3.034348 z"/>
</svg>
