<svg xmlns="http://www.w3.org/2000/svg" width="48" height="48" version="1.1" viewBox="0 0 48 48">
 <defs>
  <filter id="filter4201" style="color-interpolation-filters:sRGB" width="1.12" height="1.12" x="-.06" y="-.06">
   <feGaussianBlur stdDeviation=".283"/>
  </filter>
  <clipPath id="clipPath4157" clipPathUnits="userSpaceOnUse">
   <path style="fill:#f9f8f2" d="m 27.642964,3.2951379 13.085584,13.0855841 -11.072418,0 c -0.977824,0 -2.013166,-1.035372 -2.013166,-2.013167 l 0,-11.0724171 z"/>
  </clipPath>
 </defs>
 <path style="fill:#fd7e00" d="m 9.797669,4.203584 c -0.8944343,0 -1.73913,0.8446957 -1.73913,1.7391304 l 0,36.5217396 c 0,0.844721 0.8944348,1.73913 1.73913,1.73913 l 27.826087,0 c 0.844722,0 1.739131,-0.894435 1.739131,-1.73913 l 0,-26.956522 L 28.058539,4.203584 Z"/>
 <path style="fill-opacity:0.39200003;filter:url(#filter4201)" d="m 28.248139,4.2710929 11.304348,11.3043481 -9.565218,0 c -0.844721,0 -1.73913,-0.894435 -1.73913,-1.739131 l 0,-9.5652171 z" clip-path="url(#clipPath4157)" transform="translate(-0.28928697,0.20358399)"/>
 <path style="fill:#ffa650" d="m 28.058539,4.203584 11.304348,11.304348 -9.565218,0 c -0.844721,0 -1.73913,-0.894435 -1.73913,-1.739131 l 0,-9.565217 z"/>
 <g style="fill:#ffffff" transform="matrix(0.86956522,0,0,0.86956522,3.1304347,3.1304348)">
  <g transform="matrix(3.2707,0,0,3.189,1.3846,3.4)">
   <path d="m 3.2456,3.9511 2.1402,0 0,1.5679 -2.1402,0 z"/>
   <path d="m 3.2456,6.4598 2.1402,0 0,1.5679 -2.1402,0 z"/>
   <path d="m 3.2456,8.9684 7.3378,0 0,0.62716 -7.3378,0 z"/>
  </g>
  <g transform="matrix(3.2707,0,0,3.189,2.3077,3.4)">
   <path d="m 8.3256,3.9511 0,1.9756 1.9756,0 c 0,-1.0911 -0.88449,-1.9756 -1.9756,-1.9756 z"/>
   <path d="m 8.0433,4.2333 c -1.0911,0 -1.9756,0.88449 -1.9756,1.9756 0,1.09111 0.88449,1.9756 1.9756,1.9756 1.09111,0 1.9756,-0.88449 1.9756,-1.9756 l -1.9756,0 0,-1.9756 z"/>
  </g>
 </g>
</svg>
