<?xml version="1.0" encoding="UTF-8" standalone="no"?>
<!-- Created with Inkscape (http://www.inkscape.org/) -->
<svg id="svg7384" xmlns:rdf="http://www.w3.org/1999/02/22-rdf-syntax-ns#" style="enable-background:new" xmlns="http://www.w3.org/2000/svg" xmlns:osb="http://www.openswatchbook.org/uri/2009/osb" height="16" width="16.013" version="1.1" xmlns:cc="http://creativecommons.org/ns#" xmlns:dc="http://purl.org/dc/elements/1.1/">
 <metadata id="metadata90">
  <rdf:RDF>
   <cc:Work rdf:about="">
    <dc:format>image/svg+xml</dc:format>
    <dc:type rdf:resource="http://purl.org/dc/dcmitype/StillImage"/>
    <dc:title>Paper Symbolic Icon Theme</dc:title>
   </cc:Work>
  </rdf:RDF>
 </metadata>
 <title id="title8473">Paper Symbolic Icon Theme</title>
 <defs id="defs7386">
  <filter id="filter7554" color-interpolation-filters="sRGB">
   <feBlend id="feBlend7556" in2="BackgroundImage" mode="darken"/>
  </filter>
 </defs>
 <g id="layer10" style="filter:url(#filter7554)" transform="translate(-464.99 139)">
  <path id="rect6444" style="color:#555555;enable-background:accumulate;fill:#555" d="m465.94-138c-0.6096-0.0199-1.0293 0.58742-0.9375 1.1562 0.003 3.6638-0.011 7.3364 0 11 0.0413 0.59291 0.67435 0.92654 1.2188 0.84375 3.9844-0.003 7.9533 0.0114 11.938 0 0.59291-0.0413 0.92654-0.67435 0.84375-1.2188 0.00008-1.9688-0.0003-3.9375 0-5.9062l-2 2c-0.003 1.0378 0 2.078 0 3.125h-10v-9h10c0.0004 0.0421-0.00038 0.0829 0 0.125l1.5625-1.5625c0.0702-0.0702 0.14049-0.13116 0.21875-0.1875-0.14224-0.20054-0.36779-0.375-0.78125-0.375-1.7281 0.00001-5.6159 0.00008-12.062 0zm14.062 1c-0.277 0-0.538 0.1005-0.71875 0.28125l-6 6c-0.18 0.18-0.28 0.44-0.28 0.72v1h1c0.277 0 0.538-0.1005 0.71875-0.28125l6-6c0.18075-0.18075 0.28125-0.44175 0.28125-0.71875 0-0.554-0.446-1-1-1z"/>
 </g>
</svg>
