<svg xmlns="http://www.w3.org/2000/svg" width="18pt" height="18pt" version="1.1" viewBox="0 0 18 18"> <g> <path style="fill:rgb(6.666%,17.647%,36.078%)" d="M 16.5 9 C 16.5 13.140625 13.140625 16.5 9 16.5 C 4.859375 16.5 1.5 13.140625 1.5 9 C 1.5 4.859375 4.859375 1.5 9 1.5 C 13.140625 1.5 16.5 4.859375 16.5 9 Z M 16.5 9"/> <path style="fill:rgb(100.000%,100.000%,100.000%)" d="M 10.902344 4.5 C 10.152344 4.5 9.472656 4.820312 9 5.398438 C 8.527344 4.820312 7.847656 4.5 7.097656 4.5 C 5.664062 4.5 4.5 5.824219 4.5 7.453125 C 4.5 7.894531 4.566406 8.316406 4.6875 8.71875 C 4.6875 8.71875 4.796875 9.082031 4.890625 9.28125 C 5.984375 11.839844 9 13.5 9 13.5 C 9 13.5 12.015625 11.839844 13.109375 9.28125 C 13.109375 9.28125 13.25 8.941406 13.3125 8.71875 C 13.425781 8.3125 13.5 7.894531 13.5 7.453125 C 13.5 5.824219 12.335938 4.5 10.902344 4.5 Z M 10.902344 4.5"/> </g> </svg>
