<?xml version="1.0" encoding="UTF-8" standalone="no"?>
<svg
   xmlns:dc="http://purl.org/dc/elements/1.1/"
   xmlns:cc="http://creativecommons.org/ns#"
   xmlns:rdf="http://www.w3.org/1999/02/22-rdf-syntax-ns#"
   xmlns:svg="http://www.w3.org/2000/svg"
   xmlns="http://www.w3.org/2000/svg"
   xmlns:sodipodi="http://sodipodi.sourceforge.net/DTD/sodipodi-0.dtd"
   xmlns:inkscape="http://www.inkscape.org/namespaces/inkscape"
   width="48"
   height="48"
   viewBox="0 0 48 48"
   version="1.1"
   id="svg2"
   inkscape:version="0.91+devel r14285 custom"
   sodipodi:docname="text-x-perl.svg">
  <metadata
     id="metadata29">
    <rdf:RDF>
      <cc:Work
         rdf:about="">
        <dc:format>image/svg+xml</dc:format>
        <dc:type
           rdf:resource="http://purl.org/dc/dcmitype/StillImage" />
        <dc:title></dc:title>
      </cc:Work>
    </rdf:RDF>
  </metadata>
  <defs
     id="defs27">
    <clipPath
       id="clipPath4157"
       clipPathUnits="userSpaceOnUse">
      <path
         style="fill:#f9f8f2;fill-opacity:1;stroke-width:1.00658333"
         inkscape:connector-curvature="0"
         id="path4159"
         d="M 27.642964,3.2951379 40.728548,16.380722 H 29.65613 c -0.977824,0 -2.013166,-1.035372 -2.013166,-2.013167 z" />
    </clipPath>
    <filter
       height="1.12"
       y="-0.059999999"
       width="1.12"
       x="-0.059999999"
       id="filter4201"
       style="color-interpolation-filters:sRGB"
       inkscape:collect="always">
      <feGaussianBlur
         id="feGaussianBlur4203"
         stdDeviation="0.2826087"
         inkscape:collect="always" />
    </filter>
  </defs>
  <sodipodi:namedview
     pagecolor="#ffffff"
     bordercolor="#666666"
     borderopacity="1"
     objecttolerance="10"
     gridtolerance="10"
     guidetolerance="10"
     inkscape:pageopacity="0"
     inkscape:pageshadow="2"
     inkscape:window-width="960"
     inkscape:window-height="1017"
     id="namedview25"
     showgrid="false"
     inkscape:zoom="10.1875"
     inkscape:cx="24"
     inkscape:cy="24"
     inkscape:window-x="0"
     inkscape:window-y="32"
     inkscape:window-maximized="0"
     inkscape:current-layer="svg2">
    <inkscape:grid
       type="xygrid"
       id="grid4163" />
  </sodipodi:namedview>
  <path
     d="m 9.797669,4.203584 c -0.894434,0 -1.73913,0.8447 -1.73913,1.73913 v 36.52174 c 0,0.84472 0.894435,1.73913 1.73913,1.73913 h 27.826089 c 0.84472,0 1.73913,-0.89443 1.73913,-1.73913 V 15.507934 L 28.058538,4.203584 Z"
     id="path4-9"
     inkscape:connector-curvature="0"
     style="fill:#51b9c3;fill-opacity:1;stroke-width:0.86956519" />
  <path
     d="M 28.248139,4.2710929 39.552487,15.575441 h -9.565218 c -0.844721,0 -1.73913,-0.894435 -1.73913,-1.739131 z"
     id="path8-3"
     inkscape:connector-curvature="0"
     style="fill:#000000;fill-opacity:0.39200003;stroke-width:0.86956519;filter:url(#filter4201)"
     clip-path="url(#clipPath4157)"
     transform="translate(-0.28928697,0.20358399)" />
  <path
     d="m 28.058538,4.203584 11.30435,11.30435 h -9.56522 c -0.84472,0 -1.73913,-0.89443 -1.73913,-1.73913 z"
     id="path8"
     inkscape:connector-curvature="0"
     style="fill:#7ec5cb;fill-opacity:1;stroke-width:0.86956519" />
  <path
     inkscape:connector-curvature="0"
     style="fill:#ffffff;fill-rule:evenodd;stroke-width:0.16145833"
     d="m 26.331078,34.325674 c -0.497621,-0.06598 0.0877,-0.566967 0.252894,-0.667164 0.318151,-0.190619 0.57716,-0.408119 0.777026,-0.767363 0.316112,-0.576743 0.457061,-1.341662 0.591664,-2.00394 0.08974,-0.449664 0.177204,-0.711153 -0.06141,-1.092391 -0.236574,-0.378793 0.167233,-0.691604 -0.08362,-1.09239 -0.420126,-0.672054 -0.597558,-1.561607 -1.013605,-2.22633 -0.118286,-0.188173 -0.07546,-0.364129 -0.24473,-0.38368 -0.08158,-0.0098 -0.291641,0.185731 -0.363022,0.241939 -0.205982,0.166181 -0.456835,0.244384 -0.658738,0.405676 -0.101974,0.08065 -0.295719,0.022 -0.379337,0.100196 -0.242693,0.227277 -0.18559,0.933544 -0.161115,1.29523 0.03671,0.515648 0.381375,0.67694 0.381375,1.173037 0,0.598739 -0.08998,1.006859 0.06706,1.620258 0.08973,0.351912 0.316229,0.752701 0.352938,1.111943 0.03059,0.283483 -0.01427,0.276152 -0.08362,0.544973 -0.08158,0.320141 -0.118163,0.60607 -0.371052,0.750255 -0.144802,0.08065 -0.808884,0.114862 -0.89046,-0.08064 -0.161118,-0.383682 0.452755,-0.515648 0.556766,-0.750255 0.224335,-0.50343 -0.239228,-1.808433 -0.441133,-2.245879 -0.112167,-0.237051 -0.31016,-0.427671 -0.389696,-0.667165 -0.108092,-0.322586 0.110129,-0.542531 0.07546,-0.789357 -0.0673,-0.481435 -0.236572,-0.992194 -0.363018,-1.456522 -0.295719,-1.077728 -0.705646,0.559637 -0.876961,0.972644 -0.06934,0.161292 -0.118286,0.339693 -0.185588,0.505872 -0.08158,0.195507 0.09789,0.36413 0.04895,0.606069 -0.04487,0.227277 -0.265126,0.354356 -0.387494,0.525424 -0.185588,0.26149 -0.314073,0.591408 -0.414005,0.911547 -0.208024,0.667166 -0.281444,1.830429 -0.666899,2.365627 -0.05506,0.0782 -0.210062,0.03421 -0.269206,0.10264 -0.134603,0.156406 0.03467,0.329918 -0.228418,0.435003 -0.201902,0.08065 -0.711763,0.168624 -0.903471,0.02932 -0.367099,-0.266377 0.09177,-0.59385 0.320193,-0.870004 0.322231,-0.383681 0.695448,-0.735593 0.946299,-1.192588 0.330391,-0.601182 0.399731,-1.278123 0.464992,-1.972169 0.03059,-0.334805 -0.271245,-0.500986 -0.0102,-0.901773 0.08362,-0.12708 0.338549,-0.109972 0.338549,-0.24194 0,-0.417895 0.0102,-0.838232 0,-1.253684 -0.01222,-0.505873 -0.0102,-1.339218 -0.414008,-1.65936 -0.536373,-0.430111 -1.217548,-0.542528 -1.729448,-1.001967 -0.50986,-0.45944 -0.976891,-0.874891 -1.284847,-1.60804 -0.159076,-0.383681 -0.242693,-0.760029 -0.371178,-1.153487 -0.09381,-0.290816 -0.0673,-0.193062 -0.218216,-0.364131 -0.08974,-0.100196 -0.222299,-0.171066 -0.322232,-0.283483 -0.259009,-0.298148 -0.305916,-0.591406 -0.742356,-0.466771 -0.173353,0.05132 -0.458874,0.439888 -0.556767,0.202836 -0.06322,-0.151517 -0.02447,-0.290815 0.0082,-0.444775 0.04895,-0.22972 -0.18355,-0.305479 -0.177431,-0.525424 0.0102,-0.378793 0.520057,-0.777137 0.785184,-0.840677 0.334469,-0.08065 0.701568,0.09287 1.056431,0.0098 0.285522,-0.06598 0.534333,-0.251715 0.809658,-0.33236 0.28756,-0.08798 0.546569,-0.117304 0.793343,0.09042 0.112169,0.09531 0.154996,0.266377 0.25289,0.36413 0.08362,0.08065 0.157038,0.05865 0.252891,0.141743 0.289601,0.249269 0.312034,0.618288 -0.18559,0.505871 0.210064,1.038628 1.227743,3.831925 2.363714,2.387622 0.530254,-0.674497 1.01768,-1.422309 1.519383,-2.123687 0.442557,-0.618291 0.699528,-1.314781 1.452082,-1.195033 0.742355,0.117305 1.250177,0.728261 1.825298,1.234133 0.469073,0.415452 1.02176,0.505873 1.519384,0.850453 0.528214,0.36413 0.999325,0.977531 1.180837,1.67891 0.263088,1.014189 0.112168,1.991721 0.575121,2.954589 0.279405,0.584075 0.677095,0.992195 1.02992,1.476073 0.189667,0.26149 0.316111,0.620733 0.25289,0.9702 -0.04283,0.241938 -0.185591,0.285928 -0.185591,0.566969 0,0.491209 0.03661,0.97753 0.01827,1.468739 -0.01631,0.437446 -0.04487,0.865117 -0.09585,1.297675 -0.04487,0.373905 -0.175297,0.47899 -0.277266,0.755142 -0.150922,0.40812 -0.126448,0.586518 -0.489467,0.747812 -0.205984,0.09042 -0.556768,0.273709 -0.777028,0.263933 -0.316113,-0.0171 -0.360981,-0.329918 -0.118286,-0.667165 0.157036,-0.219945 0.432466,-0.290816 0.60786,-0.527867 0.511899,-0.686717 0.732147,-2.751751 0.303864,-3.480012 -0.177431,-0.303035 -0.387589,-0.305479 -0.403904,-0.767361 -0.01631,-0.413008 0.09206,-0.557195 -0.219971,-0.9311 -0.991168,-0.606069 -1.062836,-1.038628 -1.38507,-0.830902 -0.391572,0.254158 -0.08362,1.683798 0,2.084586 0.15092,0.718486 0.744397,1.055734 0.354864,1.78155 -0.279403,0.518093 -0.409928,1.053291 -0.599596,1.659361 -0.171312,0.544973 -0.157036,1.324556 -0.430322,1.779108 -0.05303,0.08798 -0.136644,0.136853 -0.18559,0.222387 -0.03671,0.06354 -0.09177,0.246827 -0.118286,0.283484 -0.114209,0.158849 -0.138683,0.200394 -0.322232,0.283485 -0.326311,0.149073 -0.726043,0.100197 -1.078865,0.100197"
     id="path4"
     sodipodi:nodetypes="ccccccccccccscccccccccccccccccscccccscccccccccccccccccccccccccccsccccccccccccccccccc" />
</svg>
