<?xml version="1.0" encoding="UTF-8" standalone="no"?>
<svg
   xmlns:dc="http://purl.org/dc/elements/1.1/"
   xmlns:cc="http://creativecommons.org/ns#"
   xmlns:rdf="http://www.w3.org/1999/02/22-rdf-syntax-ns#"
   xmlns:svg="http://www.w3.org/2000/svg"
   xmlns="http://www.w3.org/2000/svg"
   xmlns:sodipodi="http://sodipodi.sourceforge.net/DTD/sodipodi-0.dtd"
   xmlns:inkscape="http://www.inkscape.org/namespaces/inkscape"
   width="48"
   viewBox="0 0 48 48"
   height="48"
   id="svg2"
   version="1.1"
   inkscape:version="0.91+devel r"
   sodipodi:docname="application-x-shellscript.svg">
  <metadata
     id="metadata22">
    <rdf:RDF>
      <cc:Work
         rdf:about="">
        <dc:format>image/svg+xml</dc:format>
        <dc:type
           rdf:resource="http://purl.org/dc/dcmitype/StillImage" />
      </cc:Work>
    </rdf:RDF>
  </metadata>
  <defs
     id="defs20">
    <filter
       height="1.12"
       y="-0.06"
       width="1.12"
       x="-0.06"
       id="filter4201"
       style="color-interpolation-filters:sRGB"
       inkscape:collect="always">
      <feGaussianBlur
         id="feGaussianBlur4203"
         stdDeviation="0.2826087"
         inkscape:collect="always" />
    </filter>
    <clipPath
       id="clipPath4157"
       clipPathUnits="userSpaceOnUse">
      <path
         style="fill:#f9f8f2;fill-opacity:1;stroke-width:1.00658333"
         inkscape:connector-curvature="0"
         id="path4159"
         d="m 27.642964,3.2951379 13.085584,13.0855841 -11.072418,0 c -0.977824,0 -2.013166,-1.035372 -2.013166,-2.013167 l 0,-11.0724171 z" />
    </clipPath>
  </defs>
  <sodipodi:namedview
     pagecolor="#ffffff"
     bordercolor="#666666"
     borderopacity="1"
     objecttolerance="10"
     gridtolerance="10"
     guidetolerance="10"
     inkscape:pageopacity="0"
     inkscape:pageshadow="2"
     inkscape:window-width="959"
     inkscape:window-height="1026"
     id="namedview18"
     showgrid="false"
     inkscape:zoom="8.2665344"
     inkscape:cx="13.796404"
     inkscape:cy="24"
     inkscape:window-x="960"
     inkscape:window-y="27"
     inkscape:window-maximized="0"
     inkscape:current-layer="svg2" />
  <g
     id="g4170">
    <path
       style="fill:#ece9d8;fill-opacity:1;stroke-width:0.86956519"
       inkscape:connector-curvature="0"
       id="path4"
       d="m 9.797669,4.203584 c -0.8944343,0 -1.73913,0.8446957 -1.73913,1.7391304 l 0,36.5217396 c 0,0.844721 0.8944348,1.73913 1.73913,1.73913 l 27.826087,0 c 0.844722,0 1.739131,-0.894435 1.739131,-1.73913 l 0,-26.956522 L 28.058539,4.203584 Z" />
    <path
       transform="translate(-0.28928697,0.20358399)"
       clip-path="url(#clipPath4157)"
       style="fill:#000000;fill-opacity:0.39200003;stroke-width:0.86956519;filter:url(#filter4201)"
       inkscape:connector-curvature="0"
       id="path8-3"
       d="m 28.248139,4.2710929 11.304348,11.3043481 -9.565218,0 c -0.844721,0 -1.73913,-0.894435 -1.73913,-1.739131 l 0,-9.5652171 z" />
    <path
       style="fill:#f9f8f2;fill-opacity:1;stroke-width:0.86956519"
       inkscape:connector-curvature="0"
       id="path8"
       d="m 28.058539,4.203584 11.304348,11.304348 -9.565218,0 c -0.844721,0 -1.73913,-0.894435 -1.73913,-1.739131 l 0,-9.565217 z" />
  </g>
  <g
     transform="matrix(0.86956522,0,0,0.86956522,2.6956521,3.1304348)"
     id="g10"
     style="fill:#000000;fill-opacity:0.35294119">
    <path
       d="m 18.5,20 0,4 -2,0 0,2 2,0 0,2 -2,0 0,2 2,0 0,4 2,0 0,-4 2,0 0,4 2,0 0,-4 2,0 0,-2 -2,0 0,-2 2,0 0,-2 -2,0 0,-4 -2,0 0,4 -2,0 0,-4 -2,0 z m 2,6 2,0 0,2 -2,0 0,-2 z"
       id="path12"
       inkscape:connector-curvature="0"
       style="fill:#000000;fill-opacity:0.35294119" />
    <path
       d="m 30.5,32 0,2 2,0 0,-2 z"
       id="path14"
       inkscape:connector-curvature="0"
       style="fill:#000000;fill-opacity:0.35294119" />
    <path
       d="m 30.5,30 2,0 0,-10 -2,0 z"
       id="path16"
       inkscape:connector-curvature="0"
       style="fill:#000000;fill-opacity:0.35294119" />
  </g>
</svg>
