<?xml version="1.0" encoding="UTF-8" standalone="no"?>
<svg
   xmlns:dc="http://purl.org/dc/elements/1.1/"
   xmlns:cc="http://creativecommons.org/ns#"
   xmlns:rdf="http://www.w3.org/1999/02/22-rdf-syntax-ns#"
   xmlns:svg="http://www.w3.org/2000/svg"
   xmlns="http://www.w3.org/2000/svg"
   xmlns:sodipodi="http://sodipodi.sourceforge.net/DTD/sodipodi-0.dtd"
   xmlns:inkscape="http://www.inkscape.org/namespaces/inkscape"
   width="48"
   height="48"
   viewBox="0 0 48 48"
   version="1.1"
   id="svg2"
   inkscape:version="0.91+devel r14285 custom"
   sodipodi:docname="text-x-emacs-lisp.svg">
  <metadata
     id="metadata29">
    <rdf:RDF>
      <cc:Work
         rdf:about="">
        <dc:format>image/svg+xml</dc:format>
        <dc:type
           rdf:resource="http://purl.org/dc/dcmitype/StillImage" />
        <dc:title></dc:title>
      </cc:Work>
    </rdf:RDF>
  </metadata>
  <defs
     id="defs27">
    <clipPath
       id="clipPath4157"
       clipPathUnits="userSpaceOnUse">
      <path
         style="fill:#f9f8f2;fill-opacity:1;stroke-width:1.00658333"
         inkscape:connector-curvature="0"
         id="path4159"
         d="M 27.642964,3.2951379 40.728548,16.380722 H 29.65613 c -0.977824,0 -2.013166,-1.035372 -2.013166,-2.013167 z" />
    </clipPath>
    <filter
       height="1.12"
       y="-0.059999999"
       width="1.12"
       x="-0.059999999"
       id="filter4201"
       style="color-interpolation-filters:sRGB"
       inkscape:collect="always">
      <feGaussianBlur
         id="feGaussianBlur4203"
         stdDeviation="0.2826087"
         inkscape:collect="always" />
    </filter>
  </defs>
  <sodipodi:namedview
     pagecolor="#ffffff"
     bordercolor="#666666"
     borderopacity="1"
     objecttolerance="10"
     gridtolerance="10"
     guidetolerance="10"
     inkscape:pageopacity="0"
     inkscape:pageshadow="2"
     inkscape:window-width="960"
     inkscape:window-height="1017"
     id="namedview25"
     showgrid="false"
     inkscape:zoom="4.9166667"
     inkscape:cx="24"
     inkscape:cy="24"
     inkscape:window-x="0"
     inkscape:window-y="32"
     inkscape:window-maximized="0"
     inkscape:current-layer="svg2">
    <inkscape:grid
       type="xygrid"
       id="grid4163" />
  </sodipodi:namedview>
  <path
     d="m 9.797669,4.203584 c -0.8944343,0 -1.73913,0.8446957 -1.73913,1.7391304 V 42.464454 c 0,0.844721 0.8944348,1.73913 1.73913,1.73913 h 27.826087 c 0.844722,0 1.739131,-0.894435 1.739131,-1.73913 V 15.507932 L 28.058539,4.203584 Z"
     id="path4"
     inkscape:connector-curvature="0"
     style="fill:#8e44ad;fill-opacity:1;stroke-width:0.86956519" />
  <path
     d="M 28.248139,4.2710929 39.552487,15.575441 h -9.565218 c -0.844721,0 -1.73913,-0.894435 -1.73913,-1.739131 z"
     id="path8-3"
     inkscape:connector-curvature="0"
     style="fill:#000000;fill-opacity:0.39200003;stroke-width:0.86956519;filter:url(#filter4201)"
     clip-path="url(#clipPath4157)"
     transform="translate(-0.28928696,0.20358398)" />
  <path
     d="m 28.058539,4.203584 11.304348,11.304348 h -9.565218 c -0.844721,0 -1.73913,-0.894435 -1.73913,-1.739131 z"
     id="path8"
     inkscape:connector-curvature="0"
     style="fill:#ae76c6;fill-opacity:1;stroke-width:0.86956519" />
  <path
     d="m 19.145754,35.735115 c 2.163922,0.509788 4.427677,0.483161 6.66785,0.535719 0,0 1.959636,-0.066 3.034516,-0.257533 1.125823,-0.201319 1.759667,-0.426812 2.101997,-0.847527 0.007,-0.0977 0.157532,-0.422149 -0.291794,-0.712512 -1.153368,-0.73895 -2.612819,-0.903821 -5.460505,-1.472374 -3.149199,-0.673856 -4.109085,-1.388684 -4.592353,-1.916789 -0.46282,-0.526186 0.02377,-1.67202 2.520914,-2.314824 1.2619,-0.352816 6.005136,-0.575212 6.005136,-0.575212 -1.399514,-1.028573 -4.021947,-2.867442 -4.556942,-3.25749 -0.471571,-0.343557 -1.22698,-0.87005 -1.323642,-1.360328 -0.124439,-0.476147 0.626617,-0.734086 1.02621,-0.776356 2.031824,-0.09677 3.708201,0.0588 5.575818,0.311275 1.125468,0.01473 1.979647,-0.604319 1.890674,-1.835355 -0.05422,-1.252652 -1.343537,-2.213335 -2.737881,-2.208039 -1.312256,0.0026 -4.533876,0.343425 -4.533876,0.343425 3.792404,0.6415 4.415281,0.817851 4.625981,1.26004 -1.052314,0.991997 -2.923461,0.437765 -4.67098,0.314653 -2.215108,-0.264843 -3.758071,-0.524223 -4.399494,0.369675 -0.416427,0.577324 0.108345,1.258662 0.317437,1.654832 1.271824,1.894229 3.096496,2.881944 4.953655,4.018336 -3.45714,-0.812503 -6.167952,-0.190521 -7.869407,0.773983 -1.948724,1.245654 -1.544822,3.211432 1.683018,4.952127 1.900432,1.0262 3.133334,1.469184 5.910712,1.78777 1.798109,0.222813 2.066111,0.328639 2.058183,0.47833 -0.01033,0.208427 -2.10129,0.359113 -2.677092,0.420041 -1.460923,0.151073 -5.241227,0.308863 -5.262239,0.309599"
     id="path53"
     inkscape:connector-curvature="0"
     style="fill:#ffffff;fill-opacity:1;fill-rule:evenodd;stroke:none;stroke-width:0.16145833"
     sodipodi:nodetypes="ccccccccccccccccccccccccccc" />
</svg>
