<svg xmlns="http://www.w3.org/2000/svg" xmlns:xlink="http://www.w3.org/1999/xlink" width="384pt" height="384pt" version="1.1" viewBox="0 0 384 384"> <defs> <filter id="alpha" width="100%" height="100%" x="0%" y="0%" filterUnits="objectBoundingBox"> <feColorMatrix in="SourceGraphic" type="matrix" values="0 0 0 0 1 0 0 0 0 1 0 0 0 0 1 0 0 0 1 0"/> </filter> <filter id="alpha-2" width="100%" height="100%" x="0%" y="0%" filterUnits="objectBoundingBox"> <feColorMatrix in="SourceGraphic" type="matrix" values="0 0 0 0 1 0 0 0 0 1 0 0 0 0 1 0 0 0 1 0"/> </filter> <mask id="mask0-9"> <g filter="url(#alpha)" style="filter:url(#alpha-2)"> <rect width="36" height="36" x="0" y="0" style="fill:rgb(0%,0%,0%);fill-opacity:0.101961"/> </g> </mask> <clipPath id="clip1-1"> <rect width="36" height="36" x="0" y="0"/> </clipPath> <g id="surface5-2" clip-path="url(#clip1-1)"> <path style="fill:rgb(100.000%,100.000%,100.000%)" d="M 12 3.75 C 11.167969 3.75 10.5 4.417969 10.5 5.25 L 10.5 6 C 10.5 5.167969 11.167969 4.5 12 4.5 L 13.5 4.5 C 14.332031 4.5 15 5.167969 15 6 L 15 5.25 C 15 4.417969 14.332031 3.75 13.5 3.75 Z M 12 3.75"/> </g> <mask id="mask1"> <g filter="url(#alpha)" style="filter:url(#alpha-2)"> <rect width="36" height="36" x="0" y="0" style="fill:rgb(0%,0%,0%);fill-opacity:0.101961"/> </g> </mask> <clipPath id="clip2"> <rect width="36" height="36" x="0" y="0"/> </clipPath> <g id="surface8" clip-path="url(#clip2)"> <path style="fill:rgb(100.000%,100.000%,100.000%)" d="M 22.5 3.75 C 21.667969 3.75 21 4.417969 21 5.25 L 21 6 C 21 5.167969 21.667969 4.5 22.5 4.5 L 24 4.5 C 24.832031 4.5 25.5 5.167969 25.5 6 L 25.5 5.25 C 25.5 4.417969 24.832031 3.75 24 3.75 Z M 22.5 3.75"/> </g> <mask id="mask3"> <g filter="url(#alpha)" style="filter:url(#alpha-2)"> <rect width="36" height="36" x="0" y="0" style="fill:rgb(0%,0%,0%);fill-opacity:0.2"/> </g> </mask> <clipPath id="clip4"> <rect width="36" height="36" x="0" y="0"/> </clipPath> <g id="surface14" clip-path="url(#clip4)"> <path style="fill:rgb(0%,0%,0%)" d="M 18 18 L 18 22.5 L 22.5 22.5 L 18 30 L 18 25.5 L 13.5 25.5 Z M 18 18"/> </g> </defs> <g transform="matrix(0.97305515,0,0,0.97305515,5.1734112,0.6264736)"> <g transform="matrix(11.538462,0,0,11.538462,-15.692316,-20.019239)"> <path d="m 12,3.75 h 1.5 c 0.828125,0 1.5,0.671875 1.5,1.5 v 9 c 0,0.828125 -0.671875,1.5 -1.5,1.5 H 12 c -0.828125,0 -1.5,-0.671875 -1.5,-1.5 v -9 c 0,-0.828125 0.671875,-1.5 1.5,-1.5 z m 0,0" style="fill:rgb(80.000%,80.000%,80.000%)"/> <path d="M 22.5,3.75 H 24 c 0.828125,0 1.5,0.671875 1.5,1.5 v 9 c 0,0.828125 -0.671875,1.5 -1.5,1.5 h -1.5 c -0.828125,0 -1.5,-0.671875 -1.5,-1.5 v -9 c 0,-0.828125 0.671875,-1.5 1.5,-1.5 z m 0,0" style="fill:rgb(80.000%,80.000%,80.000%)"/> <path d="m 8.25,14.25 h 19.5 c 0.828125,0 1.5,0.671875 1.5,1.5 v 15 c 0,0.828125 -0.671875,1.5 -1.5,1.5 H 8.25 c -0.828125,0 -1.5,-0.671875 -1.5,-1.5 v -15 c 0,-0.828125 0.671875,-1.5 1.5,-1.5 z m 0,0"/> <use width="100%" height="100%" x="0" y="0" mask="url(#mask0-9)" xlink:href="#surface5-2"/> <use width="100%" height="100%" x="0" y="0" mask="url(#mask1)" xlink:href="#surface8"/> <use width="100%" height="100%" x="0" y="0" mask="url(#mask3)" xlink:href="#surface14"/> <path d="m 18,17.25 v 4.5 h 4.5 l -4.5,7.5 v -4.5 h -4.5 z m 0,0" style="fill:rgb(100.000%,100.000%,100.000%)"/> </g> <path style="fill:rgb(45.098%,46.274%,50.196%)" d="m 62.192871,324.28858 v 28.5 c 0,9.55528 7.751839,17.30712 17.307129,17.30712 h 225 c 9.55528,0 17.30713,-7.75184 17.30713,-17.30712 v -28.5 c 0,9.55528 -7.75186,17.30712 -17.30713,17.30712 h -225 c -9.555289,0 -17.307129,-7.75184 -17.307129,-17.30712 z"/> </g> </svg>
