<?xml version="1.0" encoding="UTF-8" standalone="no"?>
<!-- Created with Inkscape (http://www.inkscape.org/) -->

<svg
   xmlns:dc="http://purl.org/dc/elements/1.1/"
   xmlns:cc="http://creativecommons.org/ns#"
   xmlns:rdf="http://www.w3.org/1999/02/22-rdf-syntax-ns#"
   xmlns:svg="http://www.w3.org/2000/svg"
   xmlns="http://www.w3.org/2000/svg"
   xmlns:xlink="http://www.w3.org/1999/xlink"
   xmlns:sodipodi="http://sodipodi.sourceforge.net/DTD/sodipodi-0.dtd"
   xmlns:inkscape="http://www.inkscape.org/namespaces/inkscape"
   width="128"
   height="128"
   id="svg5453"
   version="1.1"
   inkscape:version="0.48.5 r10040"
   sodipodi:docname="baloo.svg">
  <defs
     id="defs5455">
    <linearGradient
       id="linearGradient4074"
       inkscape:collect="always">
      <stop
         id="stop4076"
         offset="0"
         style="stop-color:#007dba;stop-opacity:1" />
      <stop
         id="stop4078"
         offset="1"
         style="stop-color:#00afda;stop-opacity:1" />
    </linearGradient>
    <linearGradient
       gradientUnits="userSpaceOnUse"
       y2="-499.78632"
       x2="425.90933"
       y1="-547.82617"
       x1="425.90933"
       id="linearGradient4156"
       xlink:href="#linearGradient4074"
       inkscape:collect="always"
       gradientTransform="translate(-5.8251953e-6,-1.8183594e-5)" />
  </defs>
  <sodipodi:namedview
     id="base"
     pagecolor="#ffffff"
     bordercolor="#666666"
     borderopacity="1.0"
     inkscape:pageopacity="0"
     inkscape:pageshadow="2"
     inkscape:zoom="4.3176446"
     inkscape:cx="114.86306"
     inkscape:cy="63.140724"
     inkscape:document-units="px"
     inkscape:current-layer="layer1"
     showgrid="true"
     fit-margin-top="0"
     fit-margin-left="0"
     fit-margin-right="0"
     fit-margin-bottom="0"
     inkscape:window-width="1366"
     inkscape:window-height="744"
     inkscape:window-x="0"
     inkscape:window-y="24"
     inkscape:window-maximized="1"
     inkscape:showpageshadow="false"
     borderlayer="true">
    <inkscape:grid
       type="xygrid"
       id="grid3000"
       empspacing="5"
       visible="true"
       enabled="true"
       snapvisiblegridlinesonly="true" />
  </sodipodi:namedview>
  <metadata
     id="metadata5458">
    <rdf:RDF>
      <cc:Work
         rdf:about="">
        <dc:format>image/svg+xml</dc:format>
        <dc:type
           rdf:resource="http://purl.org/dc/dcmitype/StillImage" />
        <dc:title></dc:title>
      </cc:Work>
    </rdf:RDF>
  </metadata>
  <g
     inkscape:label="Capa 1"
     inkscape:groupmode="layer"
     id="layer1"
     transform="translate(-384.57143,-419.798)">
    <path
       inkscape:connector-curvature="0"
       id="path4166"
       d="m 432.05496,428.3437 a 22.480773,13.752943 86.752217 0 0 -12.45726,23.22378 22.480773,13.752943 86.752217 0 0 15.00443,21.66534 22.480773,13.752943 86.752217 0 0 12.45729,-23.22384 22.480773,13.752943 86.752217 0 0 -15.00446,-21.66528 z m 41.59367,3.82437 a 13.752943,22.480773 24.091227 0 0 -17.61122,15.65109 13.752943,22.480773 24.091227 0 0 3.37875,26.13634 13.752943,22.480773 24.091227 0 0 21.73144,-14.90854 13.752943,22.480773 24.091227 0 0 -3.37876,-26.1367 13.752943,22.480773 24.091227 0 0 -4.12021,-0.74219 z m -74.77498,16.05884 a 22.480773,13.752943 71.752218 0 0 -2.73518,0.42998 22.480773,13.752943 71.752218 0 0 -6.02189,25.65672 22.480773,13.752943 71.752218 0 0 20.1007,17.04369 22.480773,13.752943 71.752218 0 0 6.02189,-25.65671 22.480773,13.752943 71.752218 0 0 -17.36552,-17.47368 z m 101.20787,12.53714 a 13.752943,22.480773 30.810573 0 0 -19.32144,13.48341 13.752943,22.480773 30.810573 0 0 0.29747,26.35191 13.752943,22.480773 30.810573 0 0 23.32663,-12.26353 13.752943,22.480773 30.810573 0 0 -0.29747,-26.35227 13.752943,22.480773 30.810573 0 0 -4.00516,-1.21952 z m -54.44648,14.28984 c -5.31783,-0.003 -10.85347,3.33821 -14.59856,10.55745 -6.45987,7.64425 -8.67559,10.45551 -22.48088,17.01509 -6.84136,4.85831 -10.1679,11.57149 -8.55149,20.8937 4.41025,14.80459 18.40539,15.28496 23.80319,15.33995 7.52301,0.82285 14.15578,-0.43105 22.5688,2.46847 8.04549,0.61995 15.68003,3.29498 24.15589,1.76297 19.82748,-6.2693 16.01045,-27.11833 4.69427,-34.70958 l -15.27354,-21.18381 c -2.54374,-7.8346 -8.29075,-12.13914 -14.31768,-12.14424 z"
       style="fill:#000000;fill-opacity:0.23529412;fill-rule:evenodd;stroke:none" />
    <path
       style="fill:#008080;fill-opacity:1;fill-rule:evenodd;stroke:none"
       d="m 432.05496,426.84723 a 22.480773,13.752943 86.752217 0 0 -12.45726,23.22378 22.480773,13.752943 86.752217 0 0 15.00443,21.66534 22.480773,13.752943 86.752217 0 0 12.45729,-23.22384 22.480773,13.752943 86.752217 0 0 -15.00446,-21.66528 z m 41.59367,3.82437 a 13.752943,22.480773 24.091227 0 0 -17.61122,15.65109 13.752943,22.480773 24.091227 0 0 3.37875,26.13634 13.752943,22.480773 24.091227 0 0 21.73144,-14.90854 13.752943,22.480773 24.091227 0 0 -3.37876,-26.1367 13.752943,22.480773 24.091227 0 0 -4.12021,-0.74219 z m -74.77498,16.05884 a 22.480773,13.752943 71.752218 0 0 -2.73518,0.42998 22.480773,13.752943 71.752218 0 0 -6.02189,25.65672 22.480773,13.752943 71.752218 0 0 20.1007,17.04369 22.480773,13.752943 71.752218 0 0 6.02189,-25.65671 22.480773,13.752943 71.752218 0 0 -17.36552,-17.47368 z m 101.20787,12.53714 a 13.752943,22.480773 30.810573 0 0 -19.32144,13.48341 13.752943,22.480773 30.810573 0 0 0.29747,26.35191 13.752943,22.480773 30.810573 0 0 23.32663,-12.26353 13.752943,22.480773 30.810573 0 0 -0.29747,-26.35227 13.752943,22.480773 30.810573 0 0 -4.00516,-1.21952 z m -54.44648,14.28981 c -5.31783,-0.003 -10.85347,3.33824 -14.59856,10.55749 -6.45987,7.64424 -8.67559,10.4555 -22.48088,17.01505 -6.84136,4.85834 -10.1679,11.57152 -8.55149,20.89373 4.41025,14.80459 18.40539,15.28496 23.80319,15.33995 7.52301,0.82285 14.15578,-0.43105 22.5688,2.46847 8.04549,0.61995 15.68003,3.29498 24.15589,1.76297 19.82748,-6.2693 16.01045,-27.11833 4.69427,-34.70961 l -15.27354,-21.18378 c -2.54374,-7.8346 -8.29075,-12.13914 -14.31768,-12.14427 z"
       id="path4126"
       inkscape:connector-curvature="0" />
    <path
       inkscape:connector-curvature="0"
       style="fill:#007fbb;fill-opacity:0.31372549;fill-rule:evenodd;stroke:none"
       d="m 484.08465,442.798 a 13.752943,22.480773 24.091227 0 1 -2.93741,11.75696 13.752943,22.480773 24.091227 0 1 -21.73099,14.91355 13.752943,22.480773 24.091227 0 1 -6.31324,-11.3916 13.752943,22.480773 24.091227 0 0 6.31324,14.38018 13.752943,22.480773 24.091227 0 0 21.73099,-14.90627 13.752943,22.480773 24.091227 0 0 2.93741,-14.75282 z m -64.50614,3.60964 a 22.480773,13.752943 86.752217 0 0 0.0239,3.66083 22.480773,13.752943 86.752217 0 0 15.00128,21.66523 22.480773,13.752943 86.752217 0 0 12.48035,-22.67359 22.480773,13.752943 86.752217 0 1 -12.48035,19.68501 22.480773,13.752943 86.752217 0 1 -15.00128,-21.66523 22.480773,13.752943 86.752217 0 1 -0.0239,-0.67225 z m -31.19357,14.16097 a 22.480773,13.752943 71.752218 0 0 1.73176,12.2465 22.480773,13.752943 71.752218 0 0 20.10156,17.04725 22.480773,13.752943 71.752218 0 0 7.75273,-16.40421 22.480773,13.752943 71.752218 0 1 -7.75273,13.40831 22.480773,13.752943 71.752218 0 1 -20.10156,-17.03988 22.480773,13.752943 71.752218 0 1 -1.73176,-9.25797 z m 120.61659,9.41874 a 13.752943,22.480773 30.810573 0 1 -4.61807,13.86132 13.752943,22.480773 30.810573 0 1 -23.32388,12.26117 13.752943,22.480773 30.810573 0 1 -4.91763,-9.4918 13.752943,22.480773 30.810573 0 0 4.91763,12.48767 13.752943,22.480773 30.810573 0 0 23.32388,-12.26846 13.752943,22.480773 30.810573 0 0 4.61807,-16.8499 z M 399.68154,516.131 c -0.12114,1.84397 -0.0427,3.78925 0.32138,5.88944 4.41025,14.80459 18.40837,15.28968 23.8062,15.34467 7.52298,0.82284 14.15095,-0.42974 22.56397,2.46977 8.04548,0.61996 15.6811,3.29301 24.15696,1.76098 10.79896,-3.41454 14.54748,-11.1536 13.92711,-18.72053 -0.51224,6.53768 -4.55612,12.76162 -13.92711,15.72467 -8.47586,1.53203 -16.11148,-1.14103 -24.15696,-1.76098 -8.41302,-2.89952 -15.04099,-1.64693 -22.56397,-2.46978 -5.39783,-0.0549 -19.39595,-0.53276 -23.8062,-15.33738 -0.17366,-1.00136 -0.25988,-1.95877 -0.32138,-2.90086 z"
       id="path4174" />
    <path
       inkscape:connector-curvature="0"
       style="fill:#ffffff;fill-opacity:0.23529412;fill-rule:evenodd;stroke:none"
       d="m 432.05156,426.84684 a 22.480773,13.752943 86.752217 0 0 -12.49498,22.09637 22.480773,13.752943 86.752217 0 1 12.49498,-20.59844 22.480773,13.752943 86.752217 0 1 15.00858,21.66522 22.480773,13.752943 86.752217 0 1 0.0373,1.06685 22.480773,13.752943 86.752217 0 0 -0.0373,-2.56478 22.480773,13.752943 86.752217 0 0 -15.00858,-21.66522 z m 41.59871,3.82154 a 13.752943,22.480773 24.091227 0 0 -17.60985,15.65157 13.752943,22.480773 24.091227 0 0 -2.97393,13.77369 13.752943,22.480773 24.091227 0 1 2.97393,-12.27576 13.752943,22.480773 24.091227 0 1 17.60985,-15.65157 13.752943,22.480773 24.091227 0 1 4.12113,0.74533 13.752943,22.480773 24.091227 0 1 6.3498,12.36345 13.752943,22.480773 24.091227 0 0 -6.3498,-13.86139 13.752943,22.480773 24.091227 0 0 -4.12113,-0.74532 z m -74.77978,16.06078 a 22.480773,13.752943 71.752218 0 0 -2.73282,0.43111 22.480773,13.752943 71.752218 0 0 -7.77466,15.94385 22.480773,13.752943 71.752218 0 1 7.77466,-14.44592 22.480773,13.752943 71.752218 0 1 2.73282,-0.43111 22.480773,13.752943 71.752218 0 1 17.36874,17.47102 22.480773,13.752943 71.752218 0 1 1.75369,9.71833 22.480773,13.752943 71.752218 0 0 -1.75369,-11.20895 22.480773,13.752943 71.752218 0 0 -17.36874,-17.47833 z m 99.70394,12.5388 a 13.752943,22.480773 30.810573 0 0 -17.81444,13.48142 13.752943,22.480773 30.810573 0 0 -4.65456,16.31648 13.752943,22.480773 30.810573 0 1 4.65456,-14.81855 13.752943,22.480773 30.810573 0 1 19.31968,-13.48141 13.752943,22.480773 30.810573 0 1 4.0042,1.22027 13.752943,22.480773 30.810573 0 1 4.95415,10.03247 13.752943,22.480773 30.810573 0 0 -4.95415,-11.53041 13.752943,22.480773 30.810573 0 0 -4.0042,-1.22027 13.752943,22.480773 30.810573 0 0 -1.50524,0 z m -52.93918,14.29247 c -5.3178,-0.003 -10.85427,3.3321 -14.59937,10.55134 -6.45987,7.64424 -8.67833,10.4584 -22.48362,17.01795 -6.04746,4.29457 -9.32439,10.04916 -8.89262,17.76331 0.0564,-6.95865 3.24733,-12.2564 8.89262,-16.26538 13.80529,-6.55955 16.02375,-9.3737 22.48362,-17.01795 3.7451,-7.21924 9.28157,-10.56238 14.59937,-10.55865 6.02693,0.003 11.77065,4.30967 14.3144,12.14422 l 15.2789,21.183 c 5.40579,3.62634 9.05678,10.28042 9.2799,16.923 0.33185,-7.12182 -3.46788,-14.51478 -9.2799,-18.41362 l -15.2789,-21.18298 c -2.54375,-7.8346 -8.28747,-12.13911 -14.3144,-12.14424 z"
       id="path4179" />
  </g>
</svg>
