<?xml version="1.0" encoding="UTF-8" standalone="no"?>
<!-- Created with Inkscape (http://www.inkscape.org/) -->

<svg
   xmlns:dc="http://purl.org/dc/elements/1.1/"
   xmlns:cc="http://creativecommons.org/ns#"
   xmlns:rdf="http://www.w3.org/1999/02/22-rdf-syntax-ns#"
   xmlns:svg="http://www.w3.org/2000/svg"
   xmlns="http://www.w3.org/2000/svg"
   xmlns:sodipodi="http://sodipodi.sourceforge.net/DTD/sodipodi-0.dtd"
   xmlns:inkscape="http://www.inkscape.org/namespaces/inkscape"
   id="svg2"
   version="1.1"
   inkscape:version="0.91+devel r14055 custom"
   width="512"
   height="512"
   sodipodi:docname="google-earth_engine.svg"
   viewBox="0 0 512 512">
  <metadata
     id="metadata8">
    <rdf:RDF>
      <cc:Work
         rdf:about="">
        <dc:format>image/svg+xml</dc:format>
        <dc:type
           rdf:resource="http://purl.org/dc/dcmitype/StillImage" />
        <dc:title />
      </cc:Work>
    </rdf:RDF>
  </metadata>
  <defs
     id="defs6" />
  <sodipodi:namedview
     pagecolor="#ffffff"
     bordercolor="#666666"
     borderopacity="1"
     objecttolerance="10"
     gridtolerance="10"
     guidetolerance="10"
     inkscape:pageopacity="0"
     inkscape:pageshadow="2"
     inkscape:window-width="1149"
     inkscape:window-height="716"
     id="namedview4"
     showgrid="false"
     inkscape:zoom="0.4609375"
     inkscape:cx="-78.963819"
     inkscape:cy="201.70497"
     inkscape:window-x="259"
     inkscape:window-y="32"
     inkscape:window-maximized="0"
     inkscape:current-layer="svg2"
     inkscape:document-units="px" />
  <ellipse
     style="fill:#ffffff;fill-opacity:1;fill-rule:nonzero;stroke:#4169e1;stroke-width:0;stroke-linecap:round;stroke-linejoin:miter;stroke-miterlimit:4;stroke-dasharray:none;stroke-opacity:1"
     id="path3012"
     transform="matrix(1.1612903,0,0,1.1612903,-67.184257,-59.106617)"
     cx="278.77966"
     cy="273.35593"
     rx="137.76271"
     ry="134.50847" />
  <path
     inkscape:connector-curvature="0"
     id="path2986"
     d="m 222.26198,503.31514 c -4.30086,-1.91972 -8.8755,-6.83229 -10.9168,-11.72322 -1.05206,-2.5207 -2.10198,-12.21014 -3.0009,-27.69445 -0.76045,-13.09948 -1.76183,-24.86184 -2.22527,-26.13857 -0.61471,-1.69349 -3.61992,-3.29116 -11.11126,-5.90712 -5.64776,-1.97219 -14.15283,-5.53872 -18.90014,-7.92563 -4.74732,-2.38689 -9.66575,-4.33982 -10.92986,-4.33982 -1.4178,0 -9.17289,6.30634 -20.24155,16.46016 -9.86873,9.05309 -19.53853,17.27834 -21.48843,18.27834 -4.01368,2.05841 -13.04408,2.39342 -17.70735,0.65691 -3.70788,-1.38073 -42.93205,-40.0341 -45.446972,-44.7856 -2.494396,-4.71271 -2.227632,-13.52832 0.570993,-18.86902 1.273967,-2.43114 9.570429,-12.28384 18.4366,-21.89489 9.544086,-10.3459 16.120313,-18.37742 16.120313,-19.68764 0,-1.21716 -1.952925,-6.09719 -4.339822,-10.84451 -2.386907,-4.74731 -5.945723,-13.23031 -7.908496,-18.85111 -1.962772,-5.6208 -4.371725,-10.63588 -5.353239,-11.14463 -0.981514,-0.50874 -12.50232,-1.51584 -25.601799,-2.23798 -15.234677,-0.83984 -25.488406,-1.91133 -28.454859,-2.97347 -5.653171,-2.02412 -12.166154,-8.95574 -13.086319,-13.92748 -0.373222,-2.0165 -0.526018,-16.95603 -0.339545,-33.19894 l 0.339035,-29.53257 3.394499,-4.25467 c 5.998764,-7.51887 8.818558,-8.27414 37.470636,-10.03647 16.217077,-0.99749 26.07544,-2.05371 26.894321,-2.88146 0.711017,-0.71871 3.141161,-6.29174 5.40032,-12.38453 2.259159,-6.09278 5.790047,-14.43022 7.846416,-18.52763 2.056369,-4.09742 3.738852,-8.35042 3.738852,-9.45112 0,-1.1007 -6.783104,-9.44161 -15.073562,-18.53535 -8.290458,-9.09373 -16.220512,-18.05098 -17.622339,-19.90501 -3.942738,-5.21453 -5.276016,-11.67174 -3.716142,-17.99765 1.177812,-4.77647 3.335244,-7.36582 21.353613,-25.628507 11.02389,-11.173374 21.892946,-21.268004 24.153466,-22.432512 5.24571,-2.702336 13.58672,-2.739746 18.79521,-0.0843 2.19318,1.118147 11.81505,9.218777 21.38193,18.001398 9.56689,8.782622 18.04255,16.336501 18.83484,16.786421 0.83494,0.47414 5.9883,-1.3363 12.25898,-4.306755 5.95017,-2.818609 14.85312,-6.484546 19.78434,-8.146524 6.68624,-2.253465 9.28056,-3.693366 10.2037,-5.663251 0.68083,-1.452818 1.84845,-13.359253 2.59471,-26.458732 1.43521,-25.192589 2.29758,-29.174902 7.49239,-34.5984 5.77848,-6.032872 9.10175,-6.527787 41.4002,-6.165491 l 29.4183,0.329989 4.60225,3.047626 c 7.91816,5.243453 8.87664,8.503447 10.74144,36.533985 0.90266,13.568235 1.88767,25.726302 2.18892,27.017905 0.42397,1.817753 2.84874,3.151873 10.73157,5.904547 5.60112,1.955893 14.57094,5.759495 19.93294,8.452459 5.36201,2.692962 10.17874,4.896292 10.70384,4.896292 0.5251,0 9.13419,-7.507735 19.13132,-16.68384 9.99711,-9.176115 20.02608,-17.65062 22.2866,-18.832231 5.34357,-2.793175 13.2972,-2.767729 19.14106,0.06126 2.7747,1.343203 12.20097,9.922093 24.03971,21.878622 20.32185,20.524049 21.92338,22.872189 21.93916,32.167089 0.0112,6.57408 -2.91549,10.88667 -20.38644,30.04035 -9.49951,10.41446 -17.27184,19.37698 -17.27184,19.91669 0,0.53971 2.47945,6.14961 5.5099,12.46644 3.03044,6.31683 6.64457,15.16341 8.03139,19.65907 1.72287,5.585 3.22323,8.472 4.73705,9.115 1.21856,0.51759 13.46663,1.64375 27.21794,2.50259 27.2897,1.70436 31.68548,2.82722 36.26096,9.26258 4.3254,6.08362 4.82847,10.64305 4.45389,40.36657 l -0.35831,28.43287 -3.33867,4.74734 c -5.96165,8.47704 -7.4673,8.91135 -37.74248,10.88694 -14.79312,0.96532 -27.15606,2.0146 -27.47321,2.33176 -0.31716,0.31716 -2.15365,5.04527 -4.08109,10.5069 -1.92745,5.46165 -5.71766,14.33754 -8.42269,19.72423 -2.70506,5.38668 -4.76583,10.45844 -4.57953,11.27058 0.18631,0.81214 7.56699,9.357 16.40153,18.98858 8.83453,9.63158 17.18441,19.72394 18.55528,22.42745 2.9119,5.74259 3.18198,11.82324 0.78045,17.57091 -2.11933,5.07227 -38.0926,41.63744 -43.93967,44.66265 -4.88898,2.5295 -13.79465,2.80128 -18.91195,0.57716 -1.96058,-0.85213 -11.78995,-9.07509 -21.84304,-18.27325 -10.05309,-9.19817 -19.0779,-16.72623 -20.05514,-16.72903 -0.97724,-0.003 -6.64017,2.26759 -12.58429,5.04529 -5.94413,2.77771 -14.75197,6.34993 -19.57297,7.93828 -6.66342,2.19535 -8.89443,3.44155 -9.30323,5.19658 -0.29576,1.26977 -1.2763,13.40995 -2.17896,26.9782 -1.98537,29.84285 -3.126,33.07797 -13.51793,38.34024 -3.01332,1.52589 -7.99984,1.78875 -33.23335,1.7519 -22.33262,-0.0326 -30.51147,-0.41089 -33.01142,-1.52676 z m 43.75724,-132.50462 c 26.78112,-2.80677 49.15657,-13.48771 68.20616,-32.55826 14.51901,-14.53499 23.8874,-30.84407 29.52845,-51.40499 3.53643,-12.88981 3.51558,-41.35248 -0.0399,-54.39963 -10.78971,-39.59432 -39.13333,-68.74625 -78.30863,-80.54181 -9.12821,-2.74847 -11.60682,-3.00909 -29.35613,-3.08662 -17.00063,-0.0742 -20.54479,0.23162 -28.80223,2.48586 -41.22993,11.25552 -72.76306,44.38443 -81.37953,85.49784 -7.7414,36.93802 3.5778,74.64033 30.54545,101.7417 14.12004,14.19006 32.44092,24.60186 52.28941,29.71619 5.65987,1.45837 13.69183,2.58238 25.13135,3.51692 0.91392,0.0747 6.39742,-0.36058 12.18556,-0.9672 z m -27.47101,-46.4431 c -28.24696,-7.66077 -48.01557,-31.70052 -49.7659,-60.51815 -1.22382,-20.14894 5.2603,-37.19647 19.56861,-51.44824 26.05766,-25.95469 67.66639,-26.19795 93.39392,-0.546 21.19059,21.12833 26.27511,51.17802 13.12257,77.55487 -11.20256,22.46624 -31.84016,35.72424 -57.15268,36.716 -8.61738,0.33764 -12.87949,-0.0534 -19.16652,-1.75848 z m 31.60201,-27.93457 c 7.80185,-2.91905 17.10779,-11.56877 21.02165,-19.53928 2.76183,-5.62442 3.09528,-7.49672 3.09548,-17.38121 2.1e-4,-10.51503 -0.19264,-11.43349 -3.79628,-18.07997 -7.2743,-13.41658 -18.06759,-20.21506 -33.31407,-20.98387 -12.24764,-0.6176 -19.57845,1.97666 -28.42009,10.05742 -11.2101,10.2454 -15.67052,24.48856 -12.07007,38.54251 3.11639,12.16444 9.71875,20.42413 20.82444,26.05181 10.36058,5.25011 21.02537,5.68526 32.65894,1.33259 z"
     style="fill:#869094" />
  <circle
     r="165.00546"
     cy="259.10611"
     cx="256.52478"
     style="fill:#ffffff;fill-opacity:1;fill-rule:nonzero;stroke:none;stroke-width:1.28815722"
     id="path3010" />
  <path
     inkscape:connector-curvature="0"
     id="path2997"
     d="M 233.61024,426.42338 C 197.68639,421.7137 164.3661,404.99223 137.53361,378.20824 114.01256,354.72973 98.872267,327.0956 91.039031,293.34618 c -1.743271,-7.51087 -4.793718,-19.56939 -4.747238,-39.018 0.05491,-22.98222 2.543426,-28.61778 6.010987,-39.64359 15.43972,-49.09366 43.80508,-83.33327 87.80623,-105.78785 39.35794,-20.085073 87.78473,-23.555128 130.16859,-9.327331 40.63604,13.641061 77.57833,45.887321 96.89319,84.576301 32.21235,64.52354 19.25646,142.40435 -32.29422,194.12782 -37.06602,37.19028 -89.23385,54.97141 -141.26633,48.14985 z m -47.42331,-24.15047 c -0.23857,-1.04106 -0.77184,-4.74742 -1.18506,-8.23639 -0.68299,-5.76673 -0.37824,-6.71665 3.35124,-10.44613 5.3387,-5.3387 10.09045,-5.34519 32.63164,-0.0446 9.4912,2.23188 23.46448,5.03537 31.05178,6.22994 17.16244,2.70217 59.00915,3.04733 74.21019,0.61211 12.34988,-1.97847 33.00478,-7.50967 38.33402,-10.26551 5.82087,-3.01009 25.47948,-26.54861 23.6775,-28.3506 -0.42962,-0.42963 -7.00609,0.775 -14.61436,2.67693 -26.19932,6.54939 -38.54199,0.34838 -64.17914,-0.4247 -44.36755,-1.33787 -80.82464,-10.66605 -140.55275,-35.96285 -35.75343,-15.14275 -44.59721,-8.77784 -53.60786,0.23282 -6.7826,6.78261 -6.9657,9.98964 -1.17341,20.55362 13.20035,24.07483 35.42144,46.84576 59.4461,60.91706 8.95395,5.24435 13.44166,6.13699 12.61011,2.50826 z M 411.53027,306.6541 c 0.72386,-1.66141 2.19336,-7.2498 3.26556,-12.41866 1.77606,-8.56209 1.75302,-9.54715 -0.25896,-11.0761 -1.21461,-0.923 -3.03333,-1.67819 -4.04161,-1.67819 -3.73974,0 -25.04416,-9.67941 -36.48478,-16.57644 -21.97634,-13.24853 -49.66555,-35.71221 -88.71177,-71.97002 -38.40796,-35.66513 -49.90888,-44.85362 -64.6895,-51.68269 -17.50255,-8.08666 -40.86579,-9.49704 -64.19607,-3.87535 -8.62125,2.0774 -10.94549,3.29781 -16.16318,8.48698 -11.90502,11.83999 -23.09877,27.49907 -30.24473,42.30976 -11.528198,23.89324 -11.031681,40.95022 3.50839,28.60758 11.05179,-9.38156 22.06862,-10.47234 33.17211,-12.37066 7.24727,-1.23902 18.02456,0.4131 26.62906,2.32983 17.75842,3.95586 30.42134,16.86585 76.40615,49.50445 52.05641,36.94805 61.30415,36.91727 96.77806,51.04348 15.319,6.10024 54.81002,2.20047 60.66561,2.32298 1.91599,0.0401 3.53876,-1.05904 4.36566,-2.95695 z m -4.63534,-84.50876 c 4.32314,-3.79578 4.81127,-4.85649 4.22984,-9.19148 -1.03651,-7.72775 -9.62176,-27.44765 -17.37288,-39.90464 -9.14534,-14.69768 -31.65069,-37.75961 -46.02425,-47.16244 -21.21776,-13.88016 -41.43549,-21.99831 -65.56227,-26.325669 -21.49217,-3.854804 -65.91914,-0.935654 -67.71411,4.449259 -0.37225,1.11674 1.93545,1.59572 7.68827,1.59572 35.89556,0 66.54633,9.99126 89.77949,29.26552 13.78903,11.43939 23.4481,22.30252 39.24611,44.13839 26.57067,36.72574 36.98963,47.02989 47.86862,47.34117 1.63574,0.0469 5.17326,-1.84582 7.86118,-4.20583 z"
     style="fill:#367bf0;fill-opacity:1;stroke-width:1.39689767"
     sodipodi:nodetypes="ssssssssssssssssscssssssssssssssssssssssssssssssssscs" />
</svg>
