<?xml version="1.0" encoding="UTF-8" standalone="no"?>
<!-- Created with Inkscape (http://www.inkscape.org/) -->

<svg
   xmlns:dc="http://purl.org/dc/elements/1.1/"
   xmlns:cc="http://creativecommons.org/ns#"
   xmlns:rdf="http://www.w3.org/1999/02/22-rdf-syntax-ns#"
   xmlns:svg="http://www.w3.org/2000/svg"
   xmlns="http://www.w3.org/2000/svg"
   xmlns:sodipodi="http://sodipodi.sourceforge.net/DTD/sodipodi-0.dtd"
   xmlns:inkscape="http://www.inkscape.org/namespaces/inkscape"
   id="svg2"
   version="1.1"
   inkscape:version="0.48.5 r10040"
   width="524"
   height="520"
   sodipodi:docname="jabber.svg">
  <metadata
     id="metadata8">
    <rdf:RDF>
      <cc:Work
         rdf:about="">
        <dc:format>image/svg+xml</dc:format>
        <dc:type
           rdf:resource="http://purl.org/dc/dcmitype/StillImage" />
        <dc:title />
      </cc:Work>
    </rdf:RDF>
  </metadata>
  <defs
     id="defs6" />
  <sodipodi:namedview
     pagecolor="#ffffff"
     bordercolor="#666666"
     borderopacity="1"
     objecttolerance="10"
     gridtolerance="10"
     guidetolerance="10"
     inkscape:pageopacity="0"
     inkscape:pageshadow="2"
     inkscape:window-width="1212"
     inkscape:window-height="636"
     id="namedview4"
     showgrid="false"
     inkscape:zoom="0.64183539"
     inkscape:cx="393.83938"
     inkscape:cy="147.22428"
     inkscape:window-x="15"
     inkscape:window-y="39"
     inkscape:window-maximized="0"
     inkscape:current-layer="svg2" />
  <rect
     style="fill:#cd4a49;fill-opacity:1;fill-rule:evenodd;stroke:none"
     id="rect2987"
     width="476.75775"
     height="476.75775"
     x="24.928501"
     y="21.429802"
     ry="55.224998" />
  <path
     style="fill:#ffffff;fill-opacity:1;fill-rule:nonzero;stroke:#f9f9f9;stroke-width:3;stroke-linecap:round;stroke-linejoin:miter;stroke-miterlimit:4;stroke-opacity:1;stroke-dasharray:none"
     d="M 198.56348,452.84796 C 166.0306,434.16135 125.44566,410.8493 108.37474,401.0434 91.303807,391.23752 74.287967,380.34174 70.561737,376.83053 l -6.77495,-6.38401 0.42023,-110.82848 0.42023,-110.82848 4.6741,-4.58563 C 77.007857,136.64327 254.43135,34.822046 261.29113,34.023286 c 5.3976,-0.62851 13.36169,3.64972 97.02513,52.12087 50.84411,29.456974 93.72825,55.312414 96.98748,58.475094 l 5.84262,5.66952 -0.0963,100.10354 c -0.053,55.05696 -0.61583,105.29437 -1.25078,111.63872 -1.0433,10.42453 -1.63591,11.93711 -6.15502,15.70982 -4.40332,3.67606 -160.2577,94.59784 -180.08327,105.05635 -4.19799,2.21455 -9.48087,4.02645 -11.73976,4.02645 -2.50347,0 -27.20186,-13.26549 -63.25774,-33.97569 l -3e-5,0 z m 73.87137,8.79207 c 34.32696,-19.31822 163.53274,-94.22391 165.73054,-96.08054 2.54664,-2.15131 2.72561,-9.1499 2.71213,-106.06046 l -0.0144,-103.75715 -9.72329,-5.56567 C 425.79203,147.1151 387.06196,124.73367 345.073,100.4397 303.08404,76.145736 266.93921,55.587116 264.75117,54.753866 c -3.54192,-1.34882 -9.35204,1.60166 -52.97308,26.90073 -26.94715,15.62864 -66.5837,38.579774 -88.08122,51.002514 l -39.086393,22.5868 -1.05246,103.78292 c -0.83826,82.66067 -0.65211,104.14834 0.91462,105.57837 1.9644,1.79298 133.649073,78.13964 161.665133,93.72839 8.14061,4.5296 15.41698,8.23565 16.16969,8.23565 0.75272,0 5.31004,-2.21814 10.1274,-4.92921 l 0,0 z"
     id="path2985"
     inkscape:connector-curvature="0" />
  <path
     style="fill:#ff8c00;fill-opacity:1;fill-rule:nonzero;stroke:#ff8c00;stroke-width:4;stroke-miterlimit:4;stroke-opacity:1;stroke-dasharray:none"
     d="m 218.09339,355.32577 0,-7.79016 44.40391,0 44.40391,0 0,7.79016 0,7.79016 -44.40391,0 -44.40391,0 0,-7.79016 z"
     id="path3757"
     inkscape:connector-curvature="0" />
  <path
     style="fill:#cccccc;fill-opacity:1;fill-rule:nonzero;stroke:none"
     d="m 231.04246,327.67349 c 12.69196,-0.26219 33.02427,-0.26158 45.18293,0.001 12.15865,0.26292 1.77433,0.47743 -23.07628,0.47669 -24.85061,-7.4e-4 -34.7986,-0.21585 -22.10665,-0.47803 z"
     id="path3759"
     inkscape:connector-curvature="0" />
  <path
     style="fill:#ff8c00;fill-opacity:1;fill-rule:nonzero;stroke:#ff8c00;stroke-width:4;stroke-miterlimit:4;stroke-opacity:1;stroke-dasharray:none"
     d="m 263.81694,129.40626 c -18.64366,0 -30.79692,2.59529 -44.90625,9.59375 -37.99386,18.84558 -58.89501,58.3975 -53.875,102 2.66069,23.1101 10.03308,36.59253 36.8125,67.28125 l 16.59375,19 44.625,-0.0937 44.625,-0.0937 17.90625,-20.84375 c 20.13091,-23.39667 30.63783,-41.463 34,-58.4375 9.76897,-49.32032 -18.35436,-97.91651 -65.9375,-113.90625 -11.39537,-3.82928 -15.83996,-4.5 -29.84375,-4.5 z m 0.5,16.125 c 26.00922,0.3 51.22005,13.6157 66.1875,35.65625 9.55217,14.0662 12.64563,24.11442 13.4375,43.59375 1.13643,27.95493 -4.4894,40.62941 -31.65625,71.25 l -12.40625,14 -37.375,-0.0312 -37.40625,0 -13.9375,-16.25 c -25.77212,-30.00132 -29.70958,-38.93637 -29.59375,-66.96875 0.064,-15.48754 0.65611,-20.19111 3.5,-27.375 5.74396,-14.50964 15.7924,-27.93784 27.46875,-36.75 12.84432,-9.69363 23.9978,-14.20036 40.625,-16.4375 3.72031,-0.50056 7.44065,-0.73036 11.15625,-0.6875 z m 23.875,237.75 -25.3125,0.4375 -25.3125,0.4375 -0.46875,8.1875 -0.46875,8.15625 25.78125,0 25.78125,0 0,-8.59375 0,-8.625 z"
     id="path3761"
     inkscape:connector-curvature="0" />
</svg>
