<?xml version="1.0" encoding="UTF-8" standalone="no"?>
<!-- Generator: flash2svg, http://dissentgraphics.com/tools/flash2svg -->

<svg
   xmlns:dc="http://purl.org/dc/elements/1.1/"
   xmlns:cc="http://creativecommons.org/ns#"
   xmlns:rdf="http://www.w3.org/1999/02/22-rdf-syntax-ns#"
   xmlns:svg="http://www.w3.org/2000/svg"
   xmlns="http://www.w3.org/2000/svg"
   xmlns:sodipodi="http://sodipodi.sourceforge.net/DTD/sodipodi-0.dtd"
   xmlns:inkscape="http://www.inkscape.org/namespaces/inkscape"
   id="Imovie"
   image-rendering="optimizeSpeed"
   version="1.1"
   style="background-color:#FFFFFF"
   x="0px"
   y="0px"
   width="1024px"
   height="1024px"
   viewBox="0 0 1024 1024"
   enable-background="new 0 0 1024 1024"
   inkscape:version="0.48.4 r9939"
   sodipodi:docname="pitivi.svg">
  <metadata
     id="metadata77">
    <rdf:RDF>
      <cc:Work
         rdf:about="">
        <dc:format>image/svg+xml</dc:format>
        <dc:type
           rdf:resource="http://purl.org/dc/dcmitype/StillImage" />
        <dc:title></dc:title>
      </cc:Work>
    </rdf:RDF>
  </metadata>
  <sodipodi:namedview
     pagecolor="#ffffff"
     bordercolor="#666666"
     borderopacity="1"
     objecttolerance="10"
     gridtolerance="10"
     guidetolerance="10"
     inkscape:pageopacity="0"
     inkscape:pageshadow="2"
     inkscape:window-width="640"
     inkscape:window-height="480"
     id="namedview75"
     showgrid="false"
     inkscape:zoom="0.23046875"
     inkscape:cx="512"
     inkscape:cy="512"
     inkscape:window-x="15"
     inkscape:window-y="39"
     inkscape:window-maximized="0"
     inkscape:current-layer="Imovie" />
  <defs
     transform="matrix(1 0 0 1 0 0) "
     id="defs3" />
  <g
     id="shadow">
    <g
       id="shape">
      <path
         id="path"
         fill="#000000"
         fill-opacity="0.09803921568627451"
         d="M969.6,351.25 Q961,330.4 950.2,310.4 C946.15,302.85 941.85,295.35 937.3,288 917.75,256.3 893.9,226.35 865.75,198.2 773.6,106.05 662.3,59.95 531.95,59.95 401.6,59.95 290.35,106.05 198.2,198.2 106.05,290.35 59.95,401.6 59.95,531.95 59.95,662.3 106.05,773.6 198.2,865.75 290.35,957.9 401.6,1003.95 531.95,1003.95 662.3,1003.95 773.6,957.9 865.75,865.75 916.5,814.95 953.3,758.35 976.1,696 994.65,645.15 1003.95,590.5 1003.95,531.95 1003.95,487.05 998.5,444.4 987.55,404 986.3,399.45 985,394.9 983.65,390.4 979.55,377.1 974.85,364.05 969.6,351.25z" />
    </g>
  </g>
  <g
     id="circle"
     style="fill:#0084c8">
    <g
       id="shape2"
       style="fill:#0084c8">
      <path
         id="path1"
         fill="#8C63A5"
         fill-opacity="1"
         d="M969.7,392 C968.6,387.65 967.35,383 966.05,378.4 963.55,369.65 960.7,360.8 957.6,352.05 951.15,333.8 943.45,316 934.45,298.4 930.65,291 926.5,283.45 922.15,276 901.85,241.5 876.35,208.8 845.8,178.25 773.2,105.65 688.65,61.6 592.15,46.2 575.9,43.6 559.35,41.8 542.1,40.85 532.4,40.3 522.25,40 512,40 502.65,40 493.4,40.25 484.1,40.75 365.75,46.85 263.8,92.7 178.25,178.25 Q40,316.5 40,512 C40,642.35 86.1,753.65 178.25,845.8 258.4,925.9 353,971.2 461.6,981.6 469.25,982.35 476.65,982.9 484.1,983.3 484.25,983.3 484.35,983.3 484.5,983.3 493,983.75 501.1,984 509,984 510.2,984 511.1,984 512,984 522.3,984 532.5,983.7 542.1,983.2 544.6,983.05 546.85,982.9 549.05,982.75 569.25,981.3 588.95,978.7 607.75,975.05 615.7,973.5 623.55,971.75 631.15,969.9 711.95,949.6 783.3,908.3 845.8,845.8 894.4,797.2 930.2,743.3 953.15,684 971.6,636.35 981.8,585.2 983.7,530.5 983.85,526.1 983.9,521.65 984,517 984,515.4 984,513.7 984,512 984,511.35 984,510.65 984,510 984,509.65 984,509.35 984,509 983.8,468.35 979.05,429.5 969.7,392z"
         style="fill:#0084c8" />
    </g>
  </g>
  <g
     id="ico">
    <g
       id="Symbole.__203_1"
       overflow="visible">
      <g
         id="Calque.__204">
        <g
           id="shape32">
          <path
             id="path31"
             fill="#000000"
             fill-opacity="0.2"
             d="M623.9,548.4 C620.1,539.9 610.5,534.85 600.9,537 L479.8,563.9 C468.8,566.35 461.85,577.25 464.3,588.25 L469.85,613.15 400.15,591.65 420.7,684.1 476.95,645.2 480.25,660.05 C482.65,671.1 493.6,678.05 504.6,675.6 L625.7,648.7 Q633.95,646.85 638.5,639.75 643.05,632.6 641.2,624.3 L626.75,559.15 646.55,561.8 640.85,536.15 623.9,548.4z" />
        </g>
        <g
           id="group4">
          <g
             id="drawingObject25">
            <path
               id="path32"
               fill="#757777"
               fill-opacity="1"
               d="M654,185.6 C651.6,182.35 647.5,180.9 643.7,181.8 L654,185.6 L643.7,181.8 C647.5,180.9 651.6,182.35 654,185.6z" />
          </g>
          <g
             id="drawingObject26">
            <path
               id="path33"
               fill="#1D1D1B"
               fill-opacity="1"
               d="M236.8,486.9 C238.55,486.9 240.25,486.45 241.8,485.55 L318.55,441.25 242.2,412.9 210.45,431.25 C205.65,434 204,440.1 206.8,444.9 L228.15,481.9 C229.45,484.2 231.65,485.85 234.2,486.55 235.05,486.75 235.9,486.9 236.8,486.9z" />
          </g>
          <g
             id="drawingObject27">
            <path
               id="path34"
               fill="#1D1D1B"
               fill-opacity="1"
               d="M530.75,246.45 L607.15,274.75 662.6,242.75 586.2,214.45 530.75,246.45z" />
          </g>
          <g
             id="drawingObject28">
            <path
               id="path35"
               fill="#1D1D1B"
               fill-opacity="1"
               d="M434.2,374.55 L357.8,346.2 299.15,380.05 375.5,408.4 434.2,374.55z" />
          </g>
          <g
             id="drawingObject29">
            <path
               id="path36"
               fill="#1D1D1B"
               fill-opacity="1"
               d="M550.2,307.6 L473.8,279.3 414.75,313.35 491.15,341.7 550.2,307.6z" />
          </g>
          <g
             id="drawingObject30">
            <path
               id="path37"
               fill="#757777"
               fill-opacity="1"
               d="M299.15,380.05 L242.2,412.9 318.55,441.25 375.5,408.4 299.15,380.05z" />
          </g>
          <g
             id="drawingObject31">
            <path
               id="path38"
               fill="#757777"
               fill-opacity="1"
               d="M643.7,181.8 C642.75,182 641.85,182.35 640.95,182.85 L586.2,214.45 662.6,242.75 672.3,237.2 C674.6,235.85 676.25,233.7 676.95,231.1 677.65,228.55 677.25,225.85 675.95,223.55 L654,185.6 643.7,181.8z" />
          </g>
          <g
             id="drawingObject32">
            <path
               id="path39"
               fill="#757777"
               fill-opacity="1"
               d="M473.8,279.3 L550.2,307.6 607.15,274.75 530.75,246.45 473.8,279.3z" />
          </g>
          <g
             id="drawingObject33">
            <path
               id="path40"
               fill="#757777"
               fill-opacity="1"
               d="M357.8,346.2 L434.2,374.55 491.15,341.7 414.75,313.35 357.8,346.2z" />
          </g>
        </g>
        <g
           id="group5">
          <g
             id="drawingObject34">
            <path
               id="path41"
               fill="#1D1D1B"
               fill-opacity="1"
               d="M558.7,398.1 L497.25,413.05 478.2,464.75 539.65,449.75 558.7,398.1z" />
          </g>
          <g
             id="drawingObject35">
            <path
               id="path42"
               fill="#1D1D1B"
               fill-opacity="1"
               d="M661.3,420.1 L679.85,368.55 618,383.65 598.95,435.35 661.3,420.1z" />
          </g>
          <g
             id="drawingObject36">
            <path
               id="path43"
               fill="#1D1D1B"
               fill-opacity="1"
               d="M418.95,479.2 L438,427.5 380.25,441.6 361.2,493.25 418.95,479.2z" />
          </g>
          <g
             id="drawingObject37">
            <path
               id="path44"
               fill="#757777"
               fill-opacity="1"
               d="M438,427.5 L418.95,479.2 478.2,464.75 497.25,413.05 438,427.5z" />
          </g>
          <g
             id="drawingObject38">
            <path
               id="path45"
               fill="#757777"
               fill-opacity="1"
               d="M618,383.65 L558.7,398.1 539.65,449.75 598.95,435.35 618,383.65z" />
          </g>
          <g
             id="drawingObject39">
            <path
               id="path46"
               fill="#757777"
               fill-opacity="1"
               d="M752.8,691.8 L685.15,414.3 298.85,508.45 366.5,785.95 752.8,691.8z" />
          </g>
        </g>
        <g
           id="group6">
          <g
             id="drawingObject40">
            <path
               id="path47"
               fill="#757777"
               fill-opacity="1"
               d="M380.25,441.6 L317.35,456.9 299,508.45 361.2,493.25 380.25,441.6z" />
          </g>
        </g>
        <g
           id="group7">
          <g
             id="drawingObject41">
            <path
               id="path48"
               fill="#757777"
               fill-opacity="1"
               d="M685.15,414.3 L685.2,414.45 720.2,405.95 734.7,365.6 734.7,365.5 Q733.7,361.5 730.2,359.3 C727.9,357.95 725.2,357.5 722.6,358.15 L679.85,368.55 661.3,420.1 685.15,414.3z" />
          </g>
          <g
             id="drawingObject42">
            <path
               id="path49"
               fill="#1D1D1B"
               fill-opacity="1"
               d="M731.7,413.45 L735.75,402.2 720.2,405.95 716.15,417.25 731.7,413.45z" />
          </g>
          <g
             id="drawingObject43">
            <path
               id="path50"
               fill="#1D1D1B"
               fill-opacity="1"
               d="M734.7,365.6 L720.2,405.95 685.2,414.45 752.8,691.8 366.5,785.95 298.95,508.8 298.85,508.85 298.9,508.7 298.85,508.45 299,508.45 317.35,456.9 239.75,475.85 C237.2,476.45 234.95,478.1 233.6,480.35 232.2,482.6 231.8,485.35 232.4,487.9 L316.95,834.75 C317.6,837.35 319.2,839.55 321.45,840.95 323.05,841.9 324.85,842.4 326.65,842.4 327.45,842.4 328.25,842.3 329.05,842.1 L811.9,724.4 C817.25,723.1 820.55,717.7 819.25,712.35 L734.7,365.6z" />
          </g>
        </g>
        <g
           id="drawingObject44">
          <path
             id="path51"
             fill="#797A7A"
             fill-opacity="1"
             d="M261.85,474.55 C261.85,468.3 256.8,463.2 250.5,463.2 244.25,463.2 239.2,468.3 239.2,474.55 239.2,480.8 244.25,485.9 250.5,485.9 Q255.2,485.9 258.55,482.55 261.85,479.25 261.85,474.55z" />
        </g>
        <g
           id="FlashAICB.__2Fimovie.__2F.__3CPath.__3E_3_2"
           overflow="visible">
          <g
             id="Calque.__205">
            <g
               id="drawingObject45">
              <path
                 id="path52"
                 fill="#1D1D1B"
                 fill-opacity="0.3"
                 d="M731.7,414.45 L731.7,402.95 283,512.3 291.65,519.3 731.7,414.45z" />
            </g>
          </g>
        </g>
        <g
           id="drawingObject46">
          <path
             id="path53"
             fill="#1D1D1B"
             fill-opacity="1"
             d="M615.25,542.55 C612.8,531.5 601.9,524.55 590.9,527 L469.8,553.9 C458.8,556.35 451.85,567.25 454.3,578.25 L470.25,650.05 C472.65,661.1 483.6,668.05 494.6,665.6 L615.7,638.7 Q623.95,636.85 628.5,629.75 633.05,622.6 631.2,614.3 L615.25,542.55z" />
        </g>
        <g
           id="drawingObject47">
          <path
             id="path54"
             fill="#1D1D1B"
             fill-opacity="1"
             d="M463.5,604.25 L390.15,581.65 410.7,674.1 472.45,631.35 463.5,604.25z" />
          <path
             id="path55"
             fill="none"
             stroke="#1D1D1B"
             stroke-opacity="1"
             stroke-width="14.4"
             stroke-linecap="round"
             stroke-linejoin="round"
             d="M463.5,604.25 L390.15,581.65 410.7,674.1 472.45,631.35 463.5,604.25z" />
        </g>
        <g
           id="drawingObject48">
          <path
             id="path56"
             fill="#1D1D1B"
             fill-opacity="1"
             d="M609.2,541.75 L610.65,548.35 636.55,551.8 630.85,526.15 609.2,541.75z" />
          <path
             id="path57"
             fill="none"
             stroke="#1D1D1B"
             stroke-opacity="1"
             stroke-width="14.4"
             stroke-linecap="round"
             stroke-linejoin="round"
             d="M609.2,541.75 L610.65,548.35 636.55,551.8 630.85,526.15 609.2,541.75z" />
        </g>
      </g>
    </g>
  </g>
</svg>
