<?xml version="1.0" encoding="UTF-8" standalone="no"?>
<!-- Created with Inkscape (http://www.inkscape.org/) -->

<svg
   xmlns:dc="http://purl.org/dc/elements/1.1/"
   xmlns:cc="http://creativecommons.org/ns#"
   xmlns:rdf="http://www.w3.org/1999/02/22-rdf-syntax-ns#"
   xmlns:svg="http://www.w3.org/2000/svg"
   xmlns="http://www.w3.org/2000/svg"
   xmlns:sodipodi="http://sodipodi.sourceforge.net/DTD/sodipodi-0.dtd"
   xmlns:inkscape="http://www.inkscape.org/namespaces/inkscape"
   version="1.1"
   width="100%"
   height="100%"
   viewBox="0 0 512 512"
   id="svg2"
   inkscape:version="0.48.5 r10040"
   sodipodi:docname="lastpass-vault.svg">
  <sodipodi:namedview
     pagecolor="#ffffff"
     bordercolor="#666666"
     borderopacity="1"
     objecttolerance="10"
     gridtolerance="10"
     guidetolerance="10"
     inkscape:pageopacity="0"
     inkscape:pageshadow="2"
     inkscape:window-width="640"
     inkscape:window-height="480"
     id="namedview85"
     showgrid="false"
     inkscape:zoom="0.4609375"
     inkscape:cx="256"
     inkscape:cy="256"
     inkscape:window-x="15"
     inkscape:window-y="39"
     inkscape:window-maximized="0"
     inkscape:current-layer="svg2" />
  <metadata
     id="metadata70">
    <rdf:RDF>
      <cc:Work
         rdf:about="">
        <dc:format>image/svg+xml</dc:format>
        <dc:type
           rdf:resource="http://purl.org/dc/dcmitype/StillImage" />
        <dc:title />
      </cc:Work>
    </rdf:RDF>
  </metadata>
  <defs
     id="defs68">
    <clipPath
       id="clipPath3425">
      <path
         d="m 471.9456,253.05189 c 0,120.89699 -98.00565,218.90724 -218.90724,218.90724 -120.89698,0 -218.90723,-98.00566 -218.90723,-218.90724 0,-120.89698 98.00565,-218.907232 218.90723,-218.907232 120.89699,0 218.90724,98.005652 218.90724,218.907232"
         inkscape:connector-curvature="0"
         id="path3427"
         style="fill:#cd1d31;fill-rule:evenodd" />
    </clipPath>
  </defs>
  <path
     d="m 495.81001,254.13664 c 0,132.27947 -107.23291,239.51741 -239.51741,239.51741 -132.27946,0 -239.517402,-107.23292 -239.517402,-239.51741 0,-132.27946 107.232912,-239.517406 239.517402,-239.517406 132.27947,0 239.51741,107.232916 239.51741,239.517406"
     inkscape:connector-curvature="0"
     id="path8"
     style="fill:#cd1d31;fill-rule:evenodd" />
  <text
     x="729.64001"
     y="231.35997"
     id="text20"
     style="font-size:129.22999573px;line-height:125%;letter-spacing:0;word-spacing:0;font-family:Gentium Book Basic">
    <tspan
       x="729.64001"
       y="231.35997"
       id="tspan22" />
  </text>
  <text
     x="378.90805"
     y="579.25812"
     transform="scale(4.0128205,0.24920128)"
     id="text24"
     style="font-size:46.95375824px;text-anchor:middle;font-family:Arial" />
  <text
     x="1310.91"
     y="151.35997"
     id="text26"
     style="font-size:129.22999573px;line-height:125%;letter-spacing:0;word-spacing:0;font-family:Gentium Book Basic">
    <tspan
       x="1310.91"
       y="151.35997"
       id="tspan28" />
  </text>
  <text
     x="523.75732"
     y="258.21997"
     transform="scale(4.0128205,0.24920128)"
     id="text30"
     style="font-size:46.95375824px;text-anchor:middle;font-family:Arial" />
  <text
     x="239.33"
     y="-29.900009"
     id="text32"
     style="font-size:129.22999573px;line-height:125%;letter-spacing:0;word-spacing:0;font-family:Gentium Book Basic">
    <tspan
       x="239.33"
       y="-29.900009"
       id="tspan34" />
  </text>
  <text
     x="256.71869"
     y="-469.1264"
     transform="scale(4.0128205,0.24920128)"
     id="text36"
     style="font-size:46.95375824px;text-anchor:middle;font-family:Arial" />
  <text
     x="1337.38"
     y="-246.37001"
     id="text38"
     style="font-size:129.22999573px;line-height:125%;letter-spacing:0;word-spacing:0;font-family:Gentium Book Basic">
    <tspan
       x="1337.38"
       y="-246.37001"
       id="tspan40" />
  </text>
  <text
     x="530.3573"
     y="-1337.802"
     transform="scale(4.0128205,0.24920128)"
     id="text42"
     style="font-size:46.95375824px;text-anchor:middle;font-family:Arial" />
  <text
     x="1918.65"
     y="-326.37"
     id="text44"
     style="font-size:129.22999573px;line-height:125%;letter-spacing:0;word-spacing:0;font-family:Gentium Book Basic">
    <tspan
       x="1918.65"
       y="-326.37"
       id="tspan46" />
  </text>
  <text
     x="675.20654"
     y="-1658.8303"
     transform="scale(4.0128205,0.24920128)"
     id="text48"
     style="font-size:46.95375824px;text-anchor:middle;font-family:Arial" />
  <text
     x="1529.53"
     y="-798.77002"
     id="text50"
     style="font-size:129.22999573px;line-height:125%;letter-spacing:0;word-spacing:0;font-family:Gentium Book Basic">
    <tspan
       x="1529.53"
       y="-798.77002"
       id="tspan52" />
  </text>
  <text
     x="578.237"
     y="-3554.4807"
     transform="scale(4.0128205,0.24920128)"
     id="text54"
     style="font-size:46.95375824px;text-anchor:middle;font-family:Arial" />
  <text
     x="2110.79"
     y="-878.78003"
     id="text56"
     style="font-size:129.22999573px;line-height:125%;letter-spacing:0;word-spacing:0;font-family:Gentium Book Basic">
    <tspan
       x="2110.79"
       y="-878.78003"
       id="tspan58" />
  </text>
  <text
     x="723.0863"
     y="-3875.519"
     transform="scale(4.0128205,0.24920128)"
     id="text60"
     style="font-size:46.95375824px;text-anchor:middle;font-family:Arial" />
  <text
     x="277.98999"
     y="535.94006"
     id="text62"
     style="font-size:208.33000183px;line-height:125%;letter-spacing:0;word-spacing:0;font-family:Gentium Book Basic">
    <tspan
       x="277.98999"
       y="535.94006"
       id="tspan64" />
  </text>
  <path
     d="m 212.18004,103.70545 c -1.37458,0 -55.40037,32.04648 -57.49397,34.11685 -1.11885,1.10953 -0.87584,1.95864 1.70936,6.21513 28.5399,46.9981 47.54564,79.44965 46.89545,80.02737 -0.44841,0.3991 -17.64704,0.19956 -38.20582,-0.43902 -20.5588,-0.63858 -42.13565,-1.2153 -47.94963,-1.2542 l -10.56996,0 -0.51274,34.32138 c -0.31598,20.16499 -0.20063,34.65864 0.28607,35.1675 0.78021,0.82816 60.76688,-0.52882 85.41469,-1.9257 8.49734,-0.47893 10.31742,-0.33924 10.74093,0.77826 0.29037,0.77827 -3.56176,8.16179 -8.94602,17.16169 -5.2021,8.69361 -16.33288,27.29509 -24.72983,41.32576 -8.39687,14.03268 -15.07249,26.01094 -14.84352,26.6166 0.59019,1.56649 55.36288,33.67681 57.55087,33.74067 1.68589,0 14.17139,-22.6165 42.67887,-77.46008 2.13595,-4.10883 4.48598,-7.47034 5.21375,-7.47034 0.80929,0 9.20751,15.06238 21.62435,38.75849 25.66569,48.97967 24.95614,47.62968 25.44206,47.62968 0.22639,0 6.25074,-3.52014 13.39056,-7.79061 7.13985,-4.27345 20.24537,-12.07306 29.14583,-17.36623 8.90045,-5.29319 16.18263,-10.01365 16.18263,-10.47861 0,-0.46895 -8.47997,-15.0145 -18.86072,-32.33682 -10.38075,-17.32434 -21.63188,-36.11439 -25.01471,-41.76478 -3.45673,-5.7741 -5.82734,-10.63625 -5.38473,-11.09024 0.44322,-0.45897 21.4601,-0.19955 48.06359,0.57871 25.99161,0.77826 47.61106,1.10952 48.03506,0.69844 1.03123,-0.98779 1.64274,-68.93414 0.6269,-69.57769 -0.43722,-0.27938 -20.22498,0.1297 -43.96095,0.90797 -51.57843,1.67526 -52.736,1.68723 -52.736,0.43902 0,-0.53881 8.2898,-14.72115 18.4049,-31.51964 30.20203,-50.16004 31.7044,-52.73929 31.28263,-53.43872 -0.222,-0.37916 -5.441,-3.60297 -11.59566,-7.20991 -6.15461,-3.60695 -19.05561,-11.2459 -28.68999,-16.95515 -9.6343,-5.70826 -17.90209,-10.35989 -18.37637,-10.35989 -0.76898,0 -19.15453,33.96719 -39.00358,72.11603 -4.6959,9.02487 -7.62186,13.69444 -8.4902,13.54177 -0.72897,-0.12969 -11.39564,-19.43959 -23.70413,-42.93116 -12.74405,-24.32471 -22.90574,-42.72164 -23.61866,-42.72664 z"
     inkscape:connector-curvature="0"
     id="rect3036"
     style="fill:#ffffff;fill-opacity:1;stroke:none" />
</svg>
