<?xml version="1.0" encoding="UTF-8" standalone="no"?>
<!-- Created with Inkscape (http://www.inkscape.org/) -->

<svg
   xmlns:dc="http://purl.org/dc/elements/1.1/"
   xmlns:cc="http://creativecommons.org/ns#"
   xmlns:rdf="http://www.w3.org/1999/02/22-rdf-syntax-ns#"
   xmlns:svg="http://www.w3.org/2000/svg"
   xmlns="http://www.w3.org/2000/svg"
   xmlns:sodipodi="http://sodipodi.sourceforge.net/DTD/sodipodi-0.dtd"
   xmlns:inkscape="http://www.inkscape.org/namespaces/inkscape"
   id="svg2"
   version="1.1"
   inkscape:version="0.48.5 r10040"
   width="128"
   height="128"
   sodipodi:docname="lintInstall.svg">
  <metadata
     id="metadata8">
    <rdf:RDF>
      <cc:Work
         rdf:about="">
        <dc:format>image/svg+xml</dc:format>
        <dc:type
           rdf:resource="http://purl.org/dc/dcmitype/StillImage" />
        <dc:title></dc:title>
      </cc:Work>
    </rdf:RDF>
  </metadata>
  <defs
     id="defs6" />
  <sodipodi:namedview
     pagecolor="#ffffff"
     bordercolor="#666666"
     borderopacity="1"
     objecttolerance="10"
     gridtolerance="10"
     guidetolerance="10"
     inkscape:pageopacity="0"
     inkscape:pageshadow="2"
     inkscape:window-width="1153"
     inkscape:window-height="657"
     id="namedview4"
     showgrid="false"
     inkscape:zoom="2.6074563"
     inkscape:cx="149.15011"
     inkscape:cy="58.896246"
     inkscape:window-x="56"
     inkscape:window-y="59"
     inkscape:window-maximized="0"
     inkscape:current-layer="svg2"
     showguides="true"
     inkscape:guide-bbox="true">
    <inkscape:grid
       type="xygrid"
       id="grid2985" />
  </sodipodi:namedview>
  <path
     style="fill:#ffffff;fill-opacity:1;fill-rule:nonzero;stroke:#96d953;stroke-width:3.6;stroke-opacity:1;stroke-miterlimit:4;stroke-dasharray:none"
     d="M 50.852471,112.02859 C 38.471147,108.77769 29.486539,100.82687 25.633617,89.711495 L 24.768044,86.04083 24.064829,63.663745 C 23.30032,39.336215 23.733974,39.245167 21.32253,37.346541 c -0.974469,-0.767229 -1.716307,-0.915902 -4.585615,-0.91898 -1.882694,-0.0022 -4.419611,-0.123483 -5.637598,-0.269909 l -2.2145193,-0.266249 0,-9.910475 0,-9.910477 39.9668373,0.191438 c 43.598701,0.208829 42.200082,0.131695 48.711742,2.685998 8.211403,3.221047 15.401313,9.938949 18.897543,17.656958 2.6779,5.911539 2.62271,5.16754 2.82562,38.093526 0.16793,27.249789 0.1209,30.158199 -0.50735,31.374199 -1.17641,2.2771 -3.71004,4.75412 -5.91735,5.78515 l -2.10907,0.98514 -28.472409,-0.0194 c -26.245516,-0.0172 -28.703574,-0.0798 -31.42789,-0.79512 l 0,0 z M 92.038038,98.941762 c 9.061072,-0.954578 16.055362,-7.951641 17.291732,-17.29861 0.30371,-2.296095 0.39992,-8.570145 0.27191,-17.732793 -0.23794,-17.030836 -0.3144,-17.372909 -4.92474,-22.032484 -3.4256,-3.462173 -6.08744,-4.602219 -10.745488,-4.602219 -3.677808,0 -6.304753,0.724883 -9.074926,2.504168 l -2.047989,1.315421 -3.469588,-1.804247 c -3.449644,-1.793867 -3.495415,-1.804236 -7.962188,-1.804236 -3.870415,0 -4.772973,0.138167 -6.517115,0.997761 -2.999595,1.478323 -6.019637,4.647442 -7.588915,7.963524 l -1.353717,2.86058 -0.122723,12.982932 -0.122724,12.982932 4.868121,0 4.868121,0 0.0018,-11.927402 c 0.0013,-11.156968 0.05571,-12.016305 0.83977,-13.303464 1.900798,-3.120487 6.301926,-4.09164 8.843149,-1.951342 2.505195,2.110051 2.547989,2.367651 2.547989,15.339389 l 0,11.842819 4.80814,0 4.808143,0 0.148174,-12.213375 c 0.14113,-11.633877 0.190292,-12.269942 1.035885,-13.405155 2.726008,-3.659643 7.768283,-3.677678 10.362539,-0.03706 0.978156,1.372693 0.982896,1.442737 1.112156,16.476156 l 0.129806,15.097611 -1.162811,2.138473 c -1.306043,2.401886 -3.326485,4.176573 -6.339561,5.568492 -2.019641,0.933005 -2.19922,0.9404 -20.900212,0.861567 -20.94628,-0.08814 -20.277114,-0.0043 -23.340921,-2.981166 -0.857168,-0.833255 -2.0076,-2.480417 -2.556521,-3.660367 l -0.998026,-2.145353 -0.0041,-26.009473 -0.0041,-26.009478 -3.227247,-0.273057 c -1.774984,-0.150184 -3.86296,-0.273059 -4.639951,-0.273059 l -1.412704,0 0.0291,22.482651 c 0.01611,12.365456 0.169201,25.237562 0.340401,28.604678 0.296334,5.827863 0.378028,6.247329 1.700221,8.729509 1.599561,3.002878 5.258926,6.876219 8.036921,8.506891 4.065815,2.386576 5.729195,2.557152 25.114784,2.575582 9.743895,0.009 19.354791,-0.155856 21.357554,-0.366796 l 0,0 z"
     id="path3021"
     inkscape:connector-curvature="0"
     sodipodi:nodetypes="cscsscscccsssscsccccccssssscssssccccccscscccsssscssscscccsscsssscccc" />
  <path
     style="fill:#96d953;fill-opacity:1;fill-rule:nonzero;stroke:#96d953;stroke-width:0.30000001;stroke-miterlimit:4;stroke-opacity:1;stroke-dasharray:none"
     d="M 58.443212,99.108432 C 51.517838,98.950642 49.603846,98.651526 46.867121,97.299842 44.881694,96.31923 43.661218,95.407344 41.697739,93.437431 39.190577,90.922037 37.145462,87.852623 36.548415,85.709033 35.857022,83.226702 35.724683,78.350956 35.627677,51.786211 l -0.08529,-23.356095 0.428598,0 c 0.675414,0 7.026354,0.423438 7.874702,0.52503 l 0.764459,0.09156 0,25.908114 0,25.908113 0.666769,1.439257 c 0.366723,0.791593 1.017515,1.967372 1.446205,2.612865 0.919851,1.385018 2.819215,3.255392 3.822788,3.764418 1.944475,0.986255 5.63889,1.145768 25.006623,1.079684 16.538832,-0.05632 15.409476,0.0129 17.582472,-1.078825 3.052586,-1.53361 4.765374,-3.264743 6.518191,-6.587982 l 0.485436,-0.920344 -0.173666,-14.237432 c -0.0997,-8.175815 -0.23845,-14.666522 -0.32583,-15.245277 -0.195936,-1.297892 -0.559621,-1.992967 -1.571442,-3.003403 -2.451146,-2.447795 -6.149087,-2.461087 -8.770841,-0.03154 -1.018848,0.944158 -1.355539,1.533006 -1.577697,2.75928 -0.18372,1.01412 -0.436903,11.115316 -0.44169,17.622316 -0.0018,2.413131 -0.04532,4.790639 -0.09678,5.283368 l -0.09356,0.895857 -4.702045,0 -4.702045,0 -0.06392,-11.331895 c -0.06643,-11.778749 -0.09504,-12.335743 -0.70678,-13.759082 -0.369145,-0.858913 -1.8076,-2.254362 -2.828583,-2.744024 -0.955382,-0.458198 -2.876726,-0.57334 -4.019316,-0.240868 -1.694726,0.493132 -3.480072,1.903528 -4.054266,3.202804 -0.532272,1.204419 -0.591804,2.410464 -0.679199,13.759792 l -0.08557,11.113273 -4.788458,0 -4.78846,0 0.07335,-0.910927 c 0.04033,-0.501006 0.110481,-6.321809 0.155906,-12.935118 l 0.08256,-12.024198 1.067526,-2.18622 c 1.595882,-3.26825 3.535278,-5.692319 5.909353,-7.386155 1.038675,-0.741064 2.658328,-1.592022 3.567475,-1.874332 0.782341,-0.242936 7.70373,-0.367855 8.883401,-0.16033 0.617431,0.108607 1.814978,0.624055 4.095815,1.762889 1.772795,0.885168 3.27389,1.609395 3.335767,1.609395 0.06188,0 0.729542,-0.400096 1.483702,-0.889102 2.768487,-1.795123 4.729219,-2.488877 7.876557,-2.786916 3.119251,-0.29538 5.942287,0.143691 8.179356,1.272167 1.85721,0.936851 4.29066,3.025961 6.1106,5.245934 2.72456,3.323433 2.96094,5.237501 2.97893,24.121272 0.008,8.708681 -0.0367,12.105679 -0.17438,13.179774 -1.19988,9.357416 -7.78232,16.28748 -16.632533,17.510888 -2.843929,0.393146 -23.123934,0.597162 -34.218636,0.344236 l 0,0 z"
     id="path3031"
     inkscape:connector-curvature="0" />
</svg>
