<?xml version="1.0" encoding="UTF-8" standalone="no"?>
<!-- Generator: flash2svg, http://dissentgraphics.com/tools/flash2svg -->

<svg
   xmlns:dc="http://purl.org/dc/elements/1.1/"
   xmlns:cc="http://creativecommons.org/ns#"
   xmlns:rdf="http://www.w3.org/1999/02/22-rdf-syntax-ns#"
   xmlns:svg="http://www.w3.org/2000/svg"
   xmlns="http://www.w3.org/2000/svg"
   xmlns:sodipodi="http://sodipodi.sourceforge.net/DTD/sodipodi-0.dtd"
   xmlns:inkscape="http://www.inkscape.org/namespaces/inkscape"
   id="Miro"
   image-rendering="optimizeSpeed"
   version="1.1"
   style="background-color:#ffffff"
   x="0px"
   y="0px"
   width="1024px"
   height="1024px"
   viewBox="0 0 1024 1024"
   enable-background="new 0 0 1024 1024"
   inkscape:version="0.48.5 r10040"
   sodipodi:docname="Miro.svg">
  <metadata
     id="metadata34">
    <rdf:RDF>
      <cc:Work
         rdf:about="">
        <dc:format>image/svg+xml</dc:format>
        <dc:type
           rdf:resource="http://purl.org/dc/dcmitype/StillImage" />
      </cc:Work>
    </rdf:RDF>
  </metadata>
  <sodipodi:namedview
     pagecolor="#ffffff"
     bordercolor="#666666"
     borderopacity="1"
     objecttolerance="10"
     gridtolerance="10"
     guidetolerance="10"
     inkscape:pageopacity="0"
     inkscape:pageshadow="2"
     inkscape:window-width="640"
     inkscape:window-height="480"
     id="namedview32"
     showgrid="false"
     inkscape:zoom="0.23046875"
     inkscape:cx="512"
     inkscape:cy="512"
     inkscape:window-x="15"
     inkscape:window-y="39"
     inkscape:window-maximized="0"
     inkscape:current-layer="Miro" />
  <defs
     transform="matrix(1 0 0 1 0 0) "
     id="defs3" />
  <g
     id="shadow">
    <g
       id="shape">
      <path
         id="path"
         fill="#000000"
         fill-opacity="0.09803921568627451"
         d="M969.65,351.3 Q961.05,330.45 950.25,310.45 C946.2,302.9 941.9,295.4 937.35,288.05 917.8,256.35 893.95,226.4 865.8,198.25 773.65,106.1 662.35,60 532,60 401.65,60 290.4,106.1 198.25,198.25 106.1,290.4 60,401.65 60,532 60,662.35 106.1,773.65 198.25,865.8 290.4,957.95 401.65,1004 532,1004 662.35,1004 773.65,957.95 865.8,865.8 916.55,815 953.35,758.4 976.15,696.05 994.7,645.2 1004,590.55 1004,532 1004,487.1 998.55,444.45 987.6,404.05 986.35,399.5 985.05,394.95 983.7,390.45 979.6,377.15 974.9,364.1 969.65,351.3z" />
    </g>
  </g>
  <g
     id="Calque.__201">
    <g
       id="shape2">
      <path
         id="path1"
         fill="#B6312C"
         fill-opacity="1"
         d="M860,339.35 L687.35,339.35 687.35,512 860,512 860,339.35z M514.7,512 L342.05,512 342.05,684.65 514.7,684.65 514.7,512z M342.05,339.35 L169.4,339.35 169.4,512 342.05,512 342.05,339.35z M38.6,512 L38.6,512.05 C38.6,545.85 42.55,579.2 50.25,612.55 52,620.1 53.9,627.6 55.9,634.7 60.55,651.35 66.15,668 72.7,684.65 L169.4,684.65 169.4,512 38.6,512z" />
      <path
         id="path2"
         fill="#822D37"
         fill-opacity="1"
         d="M687.35,684.65 L687.35,512 514.7,512 514.7,684.65 687.35,684.65z M514.7,339.35 L342.05,339.35 342.05,512 514.7,512 514.7,339.35z M968.2,389.4 C963.55,372.75 957.9,356.05 951.35,339.35 L860,339.35 860,512 985.6,512 C985.55,502.75 985.25,493.5 984.65,484.25 984.2,477.85 983.65,471.35 982.95,464.65 982.75,462.8 982.5,460.8 982.25,458.8 980.25,442.4 977.3,425.95 973.3,409.1 971.75,402.6 970.05,396.05 968.2,389.4z M860,684.65 L687.35,684.65 687.35,857.3 836.15,857.3 C840.3,853.45 844.35,849.5 848.3,845.45 852.25,841.4 856.15,837.3 860,833.15 L860,684.65z M342.05,684.65 L169.4,684.65 169.4,838.825 L169.4,838.85 C175.45,845.2 181.65,851.35 188.1,857.3 L188.075,857.3 L342.05,857.3 342.05,684.65z" />
      <path
         id="path3"
         fill="#9F3135"
         fill-opacity="1"
         d="M687.35,512 L687.35,684.65 860,684.65 860,512 687.35,512z M514.7,684.65 L342.05,684.65 342.05,857.3 514.7,857.3 514.7,684.65z M951.35,339.35 C951.3,339.15 951.2,338.95 951.1,338.7 941.05,313.3 929.45,289.4 916.1,266.75 905.8,249.35 894.4,232.65 881.95,216.8 874.95,207.9 867.65,199.3 860,191 L860,190.975 L860,339.35 951.35,339.35z M937.4,716.75 C940,711.25 942.55,705.65 945.05,699.9 945.3,699.3 945.6,698.65 945.85,698.05 946,697.75 946.1,697.45 946.25,697.15 948.05,693 949.8,688.8 951.45,684.65 L951.425,684.65 L860,684.65 860,833.15 C860.2,832.95 860.4,832.75 860.55,832.55 867.9,824.45 875.05,816 881.95,807.15 882.9,805.95 883.85,804.7 884.8,803.45 895.9,788.95 906.25,773.6 915.85,757.35 923.5,744.35 930.7,730.8 937.4,716.75z M685.4,951.1 C686.05,950.85 686.7,950.6 687.35,950.35 L687.35,950.325 L687.35,857.3 514.7,857.3 514.7,985.55 C541.05,985.4 567.4,982.8 593.85,977.85 608.2,975.1 622.5,971.7 636.65,967.7 653,963 669.2,957.5 685.4,951.1z M72.7,684.65 C72.8,684.9 72.9,685.15 73,685.4 83.2,711.05 94.95,735.2 108.05,757.35 119.7,777.1 132.3,795.3 146.05,812.25 153.5,821.45 161.25,830.3 169.4,838.85 L169.4,838.825 L169.4,684.65 72.7,684.65z M324.2,945.05 C330.15,947.6 336.1,950.1 342.05,952.45 L342.05,952.425 L342.05,857.3 188.075,857.3 L188.1,857.3 C189.25,858.35 190.4,859.45 191.55,860.5 199.05,867.3 206.8,873.9 214.5,880 231.7,893.65 249.7,905.9 268.7,917.05 278.6,922.8 288.6,928.2 298.85,933.3 299,933.35 299.1,933.4 299.2,933.45 302.3,935 305.3,936.45 307.85,937.6 312.75,939.95 317.1,941.95 321.45,943.85 Q322.8,944.45 324.2,945.05z" />
      <path
         id="path4"
         fill="#D45E4F"
         fill-opacity="1"
         d="M687.35,512 L687.35,339.35 514.7,339.35 514.7,512 687.35,512z M169.4,512 L169.4,684.65 342.05,684.65 342.05,512 169.4,512z M72.75,339.35 C66.1,356 60.4,372.7 55.75,389.4 48.65,414.55 43.85,439.25 41.2,463.8 40.75,468.25 40.35,472.4 40,476.55 39.05,488.4 38.55,500.2 38.6,512 L169.4,512 169.4,339.35 72.725,339.35z" />
      <path
         id="path5"
         fill="#6C2B5E"
         fill-opacity="1"
         d="M687.35,857.3 L687.35,684.65 514.7,684.65 514.7,857.3 687.35,857.3z M951.45,684.65 C952.45,682.15 953.4,679.65 954.35,677.15 959.65,663.15 964.35,649.05 968.45,634.7 973.1,618.1 976.9,601.15 979.7,584.1 980.4,579.7 981.1,574.95 981.8,570.2 982.7,562.85 983.55,555.35 984.15,547.6 984.25,546.15 984.4,544.45 984.55,542.65 985.15,533.7 985.5,524.7 985.6,515.6 985.6,514.45 985.6,513.3 985.6,512.05 L985.6,512 860,512 860,684.65 951.425,684.65z M754.2,917.95 C755.9,916.95 757.6,915.95 759.3,914.95 777.2,904.25 794.1,892.6 809.85,880 818.95,872.75 827.7,865.2 836.15,857.3 L687.35,857.3 687.35,950.325 L687.35,950.35 C710.95,940.9 733.25,930.1 754.2,917.95z M514,985.55 C514.25,985.55 514.45,985.55 514.7,985.55 L514.7,857.3 342.05,857.3 342.05,952.425 L342.05,952.45 C345.4,953.75 348.75,955 352.1,956.25 354.45,957.1 356.6,957.9 358.7,958.65 369.8,962.55 380.9,966 391.35,968.95 399.9,971.25 407.8,973.2 415.6,974.95 423.5,976.65 431.4,978.2 439.1,979.5 440.05,979.7 441.05,979.8 441.8,979.95 453.45,981.8 465,983.2 476.55,984.15 489.1,985.15 501.65,985.6 514,985.55z" />
      <path
         id="path16"
         fill="#C13B37"
         fill-opacity="1"
         d="M687.35,339.35 L687.35,166.7 514.7,166.7 514.7,339.35 687.35,339.35z" />
      <path
         id="path17"
         fill="#E99361"
         fill-opacity="1"
         d="M342.05,339.35 L514.7,339.35 514.7,166.7 342.05,166.7 342.05,339.35z" />
      <path
         id="path18"
         fill="#CA655B"
         fill-opacity="1"
         d="M835.9,166.7 C834.75,165.65 833.65,164.65 832.5,163.6 825.25,157 817.75,150.6 809.6,144.1 797.6,134.6 784.55,125.35 770.95,116.65 767.15,114.2 763.3,111.8 759.3,109.45 749.1,103.3 738.4,97.4 727.2,91.75 718.5,87.4 709.35,83.1 699.95,79.05 695.75,77.25 691.55,75.5 687.35,73.8 L687.35,166.7 835.875,166.7" />
      <path
         id="path19"
         fill="#CF4544"
         fill-opacity="1"
         d="M860,191 C852.25,182.55 844.25,174.45 835.9,166.7 L835.875,166.7 L687.35,166.7 687.35,339.35 860,339.35 860,190.975" />
      <path
         id="path20"
         fill="#E46B62"
         fill-opacity="1"
         d="M687.35,73.8 C682.9,72 678.5,70.3 674.05,68.65 661.65,64 649.2,59.9 636.65,56.3 607.05,47.8 577.35,42.35 547.6,40 536.65,39.15 525.65,38.65 514.7,38.6 L514.7,166.7 687.35,166.7 687.35,73.8z" />
      <path
         id="path35"
         fill="#DF8774"
         fill-opacity="1"
         d="M514.7,38.6 C514.45,38.6 514.25,38.6 514,38.6 473.35,38.45 432.6,43.95 391.35,55.35 374.9,59.9 358.5,65.35 342.05,71.7 L342.05,166.7 514.7,166.7 514.7,38.6z" />
      <path
         id="path36"
         fill="#EDA372"
         fill-opacity="1"
         d="M342.05,71.7 C340.95,72.15 339.85,72.55 338.7,73 315.25,82.3 293.05,92.9 272.1,104.9 270.95,105.55 269.8,106.2 268.7,106.9 249.45,118.15 231.3,130.55 214.3,144.1 205.25,151.3 196.55,158.85 188.15,166.7 L342.05,166.7 342.05,71.7z" />
      <path
         id="path37"
         fill="#D3554E"
         fill-opacity="1"
         d="M342.05,339.35 L342.05,166.7 188.15,166.7 C181.7,172.75 175.45,178.95 169.4,185.35 L169.4,339.35 342.05,339.35z" />
      <path
         id="path38"
         fill="#DB8664"
         fill-opacity="1"
         d="M169.4,185.35 C167.45,187.4 165.5,189.5 163.6,191.6 157.55,198.25 151.7,205.1 146.05,212.1 132.25,229.25 119.6,247.5 108.25,266.75 97.45,285 87.75,304.1 79.05,324.15 76.85,329.2 74.75,334.3 72.75,339.35 L72.725,339.35 L169.4,339.35 169.4,185.35z" />
    </g>
  </g>
  <g
     id="ico-shadow">
    <g
       id="Symbole.__2022_1"
       overflow="visible">
      <g
         id="Calque.__203">
        <g
           id="shape58">
          <path
             id="path53"
             fill="#FFFFFF"
             fill-opacity="1"
             d="M656.1,419.7 C661.75,424.45 664.6,431.8 664.6,441.85 L664.6,705.3 819.6,705.3 819.6,411.45 C819.6,380.25 810.35,357 791.8,341.75 783.45,334.8 773.2,329.45 760.95,325.65 Q756.45,324.1 754.1,323.4 749.95,322.15 746.5,322.05 L208.05,322.05 208.05,705.3 359.1,705.3 359.1,457.2 C359.1,440.25 362.25,428.5 368.5,421.9 374.8,415.35 385.15,412.1 399.55,412.1 411.15,412.1 419.95,414.65 425.9,419.7 431.55,424.45 434.4,431.8 434.4,441.85 L434.4,705.3 589.35,705.3 589.35,457.2 C589.35,440.25 592.5,428.5 598.75,421.9 605,415.35 615.35,412.1 629.8,412.1 641.7,412.1 650.45,414.65 656.1,419.7z" />
        </g>
      </g>
    </g>
  </g>
</svg>
