<?xml version="1.0" encoding="UTF-8" standalone="no"?>
<svg
   xmlns:dc="http://purl.org/dc/elements/1.1/"
   xmlns:cc="http://creativecommons.org/ns#"
   xmlns:rdf="http://www.w3.org/1999/02/22-rdf-syntax-ns#"
   xmlns:svg="http://www.w3.org/2000/svg"
   xmlns="http://www.w3.org/2000/svg"
   xmlns:sodipodi="http://sodipodi.sourceforge.net/DTD/sodipodi-0.dtd"
   xmlns:inkscape="http://www.inkscape.org/namespaces/inkscape"
   viewBox="0 0 128 128"
   id="svg2"
   version="1.1"
   inkscape:version="0.48.5 r10040"
   width="100%"
   height="100%"
   sodipodi:docname="nexuiz.svg">
  <metadata
     id="metadata61">
    <rdf:RDF>
      <cc:Work
         rdf:about="">
        <dc:format>image/svg+xml</dc:format>
        <dc:type
           rdf:resource="http://purl.org/dc/dcmitype/StillImage" />
        <dc:title />
      </cc:Work>
    </rdf:RDF>
  </metadata>
  <sodipodi:namedview
     pagecolor="#ffffff"
     bordercolor="#666666"
     borderopacity="1"
     objecttolerance="10"
     gridtolerance="10"
     guidetolerance="10"
     inkscape:pageopacity="0"
     inkscape:pageshadow="2"
     inkscape:window-width="640"
     inkscape:window-height="480"
     id="namedview59"
     showgrid="false"
     inkscape:zoom="2.4583333"
     inkscape:cx="75.283748"
     inkscape:cy="70.227812"
     inkscape:window-x="15"
     inkscape:window-y="39"
     inkscape:window-maximized="0"
     inkscape:current-layer="svg2" />
  <defs
     id="defs4">
    <linearGradient
       id="linearGradient3764"
       x1="1"
       x2="47"
       gradientUnits="userSpaceOnUse"
       gradientTransform="matrix(0,-1,1,0,-1.5e-6,47.999998)">
      <stop
         stop-color="#287298"
         stop-opacity="1"
         id="stop7" />
      <stop
         offset="1"
         stop-color="#2c7ea8"
         stop-opacity="1"
         id="stop9" />
    </linearGradient>
    <clipPath
       id="clipPath-141792452">
      <g
         transform="translate(0,-1004.3622)"
         id="g12">
        <path
           d="m -24,13 c 0,1.105 -0.672,2 -1.5,2 -0.828,0 -1.5,-0.895 -1.5,-2 0,-1.105 0.672,-2 1.5,-2 0.828,0 1.5,0.895 1.5,2 z"
           transform="matrix(15.333333,0,0,11.5,414.99999,878.8622)"
           id="path14"
           inkscape:connector-curvature="0"
           style="fill:#1890d0" />
      </g>
    </clipPath>
    <clipPath
       id="clipPath-147250665">
      <g
         transform="translate(0,-1004.3622)"
         id="g17">
        <path
           d="m -24,13 c 0,1.105 -0.672,2 -1.5,2 -0.828,0 -1.5,-0.895 -1.5,-2 0,-1.105 0.672,-2 1.5,-2 0.828,0 1.5,0.895 1.5,2 z"
           transform="matrix(15.333333,0,0,11.5,414.99999,878.8622)"
           id="path19"
           inkscape:connector-curvature="0"
           style="fill:#1890d0" />
      </g>
    </clipPath>
  </defs>
  <g
     id="g29"
     style="fill:#d3d7cf"
     transform="matrix(2.5210022,0,0,2.5210022,3.6993369,3.6315436)">
    <path
       d="M 24,1 C 36.703,1 47,11.297 47,24 47,36.703 36.703,47 24,47 11.297,47 1,36.703 1,24 1,11.297 11.297,1 24,1 z"
       id="path31"
       style="fill:#d3d7cf;fill-opacity:1"
       inkscape:connector-curvature="0" />
  </g>
  <g
     id="g33"
     transform="translate(0,80)" />
  <g
     id="g35"
     transform="matrix(3.3010519,0,0,3.3010519,-16.132441,-16.297524)">
    <g
       clip-path="url(#clipPath-141792452)"
       id="g37">
      <g
         transform="translate(1,1)"
         id="g39">
        <g
           id="g41"
           style="opacity:0.1">
          <!-- color: #2c7ea8 -->
          <g
             id="g43">
            <path
               d="m 20.395,12 c -0.07,0 -0.148,0.023 -0.219,0.074 -0.074,0.051 -0.133,0.145 -0.145,0.223 -0.027,0.156 0.008,0.23 0.074,0.363 0.309,0.555 0.617,0.984 0.734,1.316 0.203,0.457 0.199,0.879 0.145,1.164 l -0.371,1.75 c -1.855,0.426 -3.645,0.859 -5.438,1.461 -0.348,0.109 -0.617,0.223 -0.883,0.363 -0.023,-0.004 -0.051,-0.004 -0.074,0 -0.094,0.059 -0.098,0.141 -0.148,0.219 -0.023,0.043 -0.066,0.09 -0.074,0.148 -0.008,0.055 0.02,0.152 0.074,0.219 0.156,0.211 0.367,0.301 0.664,0.438 0.293,0.137 0.633,0.273 0.883,0.367 1.246,0.449 2.848,0.813 4.117,0.949 -0.344,1.527 -0.672,3.035 -1.18,4.52 -0.121,0.363 -0.277,0.742 -0.438,1.098 -0.461,1.02 -1.051,1.949 -1.617,2.844 -0.602,0.836 -1.105,1.652 -1.762,2.406 -0.125,0.129 -0.32,0.242 -0.441,0.363 -0.059,0.066 -0.102,0.164 -0.148,0.223 -0.02,0.027 -0.055,0.039 -0.074,0.074 -0.02,0.031 -0.008,0.051 0,0.145 -0.004,0.023 -0.004,0.051 0,0.074 0.016,0.027 0.043,0.055 0.074,0.074 0.02,0.027 0.043,0.055 0.074,0.074 0.023,0.004 0.051,0.004 0.074,0 0.133,0.02 0.242,-0.031 0.367,-0.074 0.129,-0.039 0.219,-0.074 0.371,-0.145 0.305,-0.145 0.695,-0.301 1.027,-0.512 0.473,-0.297 0.828,-0.602 1.102,-0.801 0.484,-0.352 1.574,-1.355 2.133,-2.039 0.641,-0.723 1.32,-1.5 1.84,-2.48 0.008,-0.02 -0.012,-0.055 0,-0.074 0.035,-0.063 0.238,-0.449 0.293,-0.586 0.109,-0.273 0.184,-0.547 0.219,-0.656 l 1.617,-4.887 5.66,-1.313 c -0.141,1.18 -0.297,2.32 -0.438,3.5 -0.109,0.973 -0.184,1.363 -0.293,2.406 -0.004,0.031 0.004,0.039 0,0.074 -0.066,0.32 -0.246,1.223 -0.297,1.461 -0.375,1.809 -0.777,3.453 -1.613,4.887 -0.203,0.277 -0.434,0.57 -0.664,0.801 -0.23,-0.113 -0.555,-0.27 -1.027,-0.293 -0.008,0 -0.051,0 -0.074,0 -0.023,-0.004 -0.051,-0.004 -0.074,0 0,0 -0.074,0.07 -0.074,0.074 -0.027,0.02 -0.059,0.043 -0.074,0.074 -0.031,0.168 0.023,0.297 0.074,0.441 0.051,0.145 0.09,0.305 0.145,0.438 0.426,0.953 0.926,1.781 1.398,2.625 0.016,0.031 0.039,0.055 0.074,0.074 0.016,0.031 0.039,0.055 0.074,0.074 0.023,0.004 0.047,0.004 0.074,0 0.023,0.004 0.047,0.004 0.074,0 0.027,-0.016 0.055,-0.039 0.074,-0.074 0.703,-0.66 1.535,-1.73 2.133,-2.625 1.172,-1.746 2.164,-3.695 2.867,-5.906 0.105,-0.344 0.191,-0.691 0.293,-1.094 l 2.203,-8.387 c 0.094,-0.371 0.203,-0.785 0.219,-1.098 0.004,-0.023 0.004,-0.055 0,-0.074 C 33.956,16.655 33.854,16.6 33.78,16.533 33.706,16.482 33.655,16.435 33.561,16.388 33.37,16.294 33.12,16.177 32.897,16.099 31.838,15.747 30.69,15.423 29.444,15.15 c -0.137,-0.059 -0.223,-0.082 -0.367,-0.078 -0.145,0.016 -0.355,0.043 -0.516,0.078 -0.32,0.066 -0.648,0.168 -0.883,0.227 l -2.941,0.648 c 0.125,-0.387 0.332,-0.961 0.145,-1.676 -0.25,-0.816 -0.898,-1.293 -1.613,-1.531 -0.613,-0.207 -1.211,-0.391 -1.84,-0.586 -0.102,-0.023 -0.563,-0.188 -1.027,-0.219 M 20.394,11.99"
               id="path45"
               inkscape:connector-curvature="0"
               style="fill:#000000;fill-opacity:1;fill-rule:nonzero;stroke:none" />
          </g>
        </g>
      </g>
    </g>
  </g>
  <g
     id="g47"
     style="fill:#2e3436"
     transform="matrix(3.3010519,0,0,3.3010519,-16.132441,-16.297524)">
    <g
       clip-path="url(#clipPath-147250665)"
       id="g49"
       style="fill:#2e3436">
      <!-- color: #2c7ea8 -->
      <g
         id="g51"
         style="fill:#2e3436">
        <path
           d="m 20.395,12 c -0.07,0 -0.148,0.023 -0.219,0.074 -0.074,0.051 -0.133,0.145 -0.145,0.223 -0.027,0.156 0.008,0.23 0.074,0.363 0.309,0.555 0.617,0.984 0.734,1.316 0.203,0.457 0.199,0.879 0.145,1.164 l -0.371,1.75 c -1.855,0.426 -3.645,0.859 -5.438,1.461 -0.348,0.109 -0.617,0.223 -0.883,0.363 -0.023,-0.004 -0.051,-0.004 -0.074,0 -0.094,0.059 -0.098,0.141 -0.148,0.219 -0.023,0.043 -0.066,0.09 -0.074,0.148 -0.008,0.055 0.02,0.152 0.074,0.219 0.156,0.211 0.367,0.301 0.664,0.438 0.293,0.137 0.633,0.273 0.883,0.367 1.246,0.449 2.848,0.813 4.117,0.949 -0.344,1.527 -0.672,3.035 -1.18,4.52 -0.121,0.363 -0.277,0.742 -0.438,1.098 -0.461,1.02 -1.051,1.949 -1.617,2.844 -0.602,0.836 -1.105,1.652 -1.762,2.406 -0.125,0.129 -0.32,0.242 -0.441,0.363 -0.059,0.066 -0.102,0.164 -0.148,0.223 -0.02,0.027 -0.055,0.039 -0.074,0.074 -0.02,0.031 -0.008,0.051 0,0.145 -0.004,0.023 -0.004,0.051 0,0.074 0.016,0.027 0.043,0.055 0.074,0.074 0.02,0.027 0.043,0.055 0.074,0.074 0.023,0.004 0.051,0.004 0.074,0 0.133,0.02 0.242,-0.031 0.367,-0.074 0.129,-0.039 0.219,-0.074 0.371,-0.145 0.305,-0.145 0.695,-0.301 1.027,-0.512 0.473,-0.297 0.828,-0.602 1.102,-0.801 0.484,-0.352 1.574,-1.355 2.133,-2.039 0.641,-0.723 1.32,-1.5 1.84,-2.48 0.008,-0.02 -0.012,-0.055 0,-0.074 0.035,-0.063 0.238,-0.449 0.293,-0.586 0.109,-0.273 0.184,-0.547 0.219,-0.656 l 1.617,-4.887 5.66,-1.313 c -0.141,1.18 -0.297,2.32 -0.438,3.5 -0.109,0.973 -0.184,1.363 -0.293,2.406 -0.004,0.031 0.004,0.039 0,0.074 -0.066,0.32 -0.246,1.223 -0.297,1.461 -0.375,1.809 -0.777,3.453 -1.613,4.887 -0.203,0.277 -0.434,0.57 -0.664,0.801 -0.23,-0.113 -0.555,-0.27 -1.027,-0.293 -0.008,0 -0.051,0 -0.074,0 -0.023,-0.004 -0.051,-0.004 -0.074,0 0,0 -0.074,0.07 -0.074,0.074 -0.027,0.02 -0.059,0.043 -0.074,0.074 -0.031,0.168 0.023,0.297 0.074,0.441 0.051,0.145 0.09,0.305 0.145,0.438 0.426,0.953 0.926,1.781 1.398,2.625 0.016,0.031 0.039,0.055 0.074,0.074 0.016,0.031 0.039,0.055 0.074,0.074 0.023,0.004 0.047,0.004 0.074,0 0.023,0.004 0.047,0.004 0.074,0 0.027,-0.016 0.055,-0.039 0.074,-0.074 0.703,-0.66 1.535,-1.73 2.133,-2.625 1.172,-1.746 2.164,-3.695 2.867,-5.906 0.105,-0.344 0.191,-0.691 0.293,-1.094 l 2.203,-8.387 c 0.094,-0.371 0.203,-0.785 0.219,-1.098 0.004,-0.023 0.004,-0.055 0,-0.074 C 33.956,16.655 33.854,16.6 33.78,16.533 33.706,16.482 33.655,16.435 33.561,16.388 33.37,16.294 33.12,16.177 32.897,16.099 31.838,15.747 30.69,15.423 29.444,15.15 c -0.137,-0.059 -0.223,-0.082 -0.367,-0.078 -0.145,0.016 -0.355,0.043 -0.516,0.078 -0.32,0.066 -0.648,0.168 -0.883,0.227 l -2.941,0.648 c 0.125,-0.387 0.332,-0.961 0.145,-1.676 -0.25,-0.816 -0.898,-1.293 -1.613,-1.531 -0.613,-0.207 -1.211,-0.391 -1.84,-0.586 -0.102,-0.023 -0.563,-0.188 -1.027,-0.219 M 20.394,11.99"
           id="path53"
           style="fill:#2e3436;fill-opacity:1;fill-rule:nonzero;stroke:none"
           inkscape:connector-curvature="0" />
      </g>
    </g>
  </g>
</svg>
