<?xml version="1.0" encoding="UTF-8" standalone="no"?>
<!-- Created with Inkscape (http://www.inkscape.org/) -->

<svg
   xmlns:dc="http://purl.org/dc/elements/1.1/"
   xmlns:cc="http://creativecommons.org/ns#"
   xmlns:rdf="http://www.w3.org/1999/02/22-rdf-syntax-ns#"
   xmlns:svg="http://www.w3.org/2000/svg"
   xmlns="http://www.w3.org/2000/svg"
   xmlns:xlink="http://www.w3.org/1999/xlink"
   xmlns:sodipodi="http://sodipodi.sourceforge.net/DTD/sodipodi-0.dtd"
   xmlns:inkscape="http://www.inkscape.org/namespaces/inkscape"
   width="128"
   height="128"
   id="svg5453"
   version="1.1"
   inkscape:version="0.48.5 r10040"
   sodipodi:docname="secondlife_icon.svg">
  <defs
     id="defs5455">
    <linearGradient
       gradientTransform="translate(384.57142,504.56412)"
       gradientUnits="userSpaceOnUse"
       y2="-1004.6325"
       x2="24.04163"
       y1="-1053.0693"
       x1="24.04163"
       id="linearGradient848-6"
       xlink:href="#linearGradient1373"
       inkscape:collect="always" />
    <linearGradient
       inkscape:collect="always"
       id="linearGradient1373">
      <stop
         style="stop-color:#282827;stop-opacity:1"
         offset="0"
         id="stop1375" />
      <stop
         style="stop-color:#292929;stop-opacity:1"
         offset="1"
         id="stop1377" />
    </linearGradient>
  </defs>
  <sodipodi:namedview
     id="base"
     pagecolor="#ffffff"
     bordercolor="#666666"
     borderopacity="1.0"
     inkscape:pageopacity="0"
     inkscape:pageshadow="2"
     inkscape:zoom="3.0162524"
     inkscape:cx="84.334421"
     inkscape:cy="34.422491"
     inkscape:document-units="px"
     inkscape:current-layer="layer1"
     showgrid="true"
     fit-margin-top="0"
     fit-margin-left="0"
     fit-margin-right="0"
     fit-margin-bottom="0"
     inkscape:window-width="1366"
     inkscape:window-height="744"
     inkscape:window-x="0"
     inkscape:window-y="24"
     inkscape:window-maximized="1"
     inkscape:showpageshadow="false"
     borderlayer="true"
     showguides="false">
    <inkscape:grid
       type="xygrid"
       id="grid3000"
       empspacing="5"
       visible="true"
       enabled="true"
       snapvisiblegridlinesonly="true" />
  </sodipodi:namedview>
  <metadata
     id="metadata5458">
    <rdf:RDF>
      <cc:Work
         rdf:about="">
        <dc:format>image/svg+xml</dc:format>
        <dc:type
           rdf:resource="http://purl.org/dc/dcmitype/StillImage" />
        <dc:title></dc:title>
      </cc:Work>
    </rdf:RDF>
  </metadata>
  <g
     inkscape:label="Capa 1"
     inkscape:groupmode="layer"
     id="layer1"
     transform="translate(-384.57143,-419.798)">
    <path
       sodipodi:nodetypes="csssssscsssssssssssssssssssccssssssssssscsssssssssssssssssss"
       inkscape:connector-curvature="0"
       id="path4183"
       d="m 465.67492,544.8469 c 14.25858,-4.07517 23.05488,-14.7985 23.08951,-28.14791 0.032,-12.80946 -7.32102,-21.13446 -21.86232,-24.74821 -6.96705,-1.73141 -20.81798,-1.71563 -27.85788,0.032 -6.12823,1.52112 -11.90359,4.25977 -15.3142,7.26188 -4.38671,3.86137 -5.03368,6.32075 -2.41521,9.18153 1.78264,1.94772 3.7442,1.58737 7.08,-1.30054 2.99523,-2.59309 6.57039,-4.57535 8.29082,-4.59698 1.17588,-0.0169 1.17925,0.15081 0.0896,4.40373 -2.02683,7.91149 2.05618,16.54347 9.39318,19.85841 4.10758,1.85585 10.53437,1.75989 14.34243,-0.21428 5.32961,-2.76278 8.51769,-7.76071 8.86017,-13.89003 0.23619,-4.2268 -0.31954,-5.82754 -2.61496,-7.53087 -1.97524,-1.46576 -3.27116,-0.81736 -3.27116,1.63677 0,3.46423 -2.66818,5.01018 -5.37501,3.11425 -0.90319,-0.6326 -1.22177,-1.4082 -1.22177,-2.97461 0,-7.32049 13.80589,-6.88308 19.23339,0.60939 5.78095,7.98032 1.49621,20.25779 -8.91543,25.54625 -6.95905,3.53481 -18.81837,3.92874 -30.3831,1.00926 -7.81069,-1.97181 -14.8632,-6.9562 -17.6647,-12.48464 -2.21232,-4.36585 -2.83436,-8.289 -3.19861,-20.17439 -0.44979,-14.67644 -1.02442,-18.91753 -2.93816,-21.68623 -1.66968,-2.41562 -4.57714,-4.13813 -7.68925,-4.55555 -3.06415,-0.41101 -3.46525,0.377 -2.57304,5.05632 0.40354,2.11645 1.00813,10.77469 1.34354,19.24053 0.36858,9.29985 0.94163,16.97077 1.44799,19.37994 3.13393,14.91043 15.82547,24.60647 35.39523,27.04097 6.92358,0.86128 19.94842,0.29943 24.72884,-1.06692 z m 15.32277,-53.73735 c 2.07379,-1.74602 5.41793,-11.5169 11.99455,-35.04528 0.93517,-3.34563 0.57511,-5.75735 -1.09359,-7.32498 -2.83661,-2.66484 -6.36327,-1.73655 -8.40535,2.21241 -0.47268,0.91408 -1.979,6.52009 -3.34737,12.4578 -5.80018,25.16891 -5.87157,25.63508 -4.1546,27.13081 1.95146,1.69996 3.45966,1.87144 5.00636,0.56924 z m -48.062,-3.20027 c 1.11308,-1.11303 1.1319,-5.60488 0.0534,-12.78433 -1.38489,-9.22032 -6.9065,-36.95618 -7.80356,-39.19805 -1.72572,-4.31301 -5.73335,-6.01263 -9.53824,-4.04506 -2.17946,1.12704 -2.738,2.38108 -2.7357,6.14264 0.003,5.35617 8.58172,39.89663 11.85363,47.72744 0.42775,1.02369 1.21298,2.11473 1.745,2.42452 1.50674,0.87746 5.44444,0.71371 6.42531,-0.26736 z m 33.6102,-2.50679 c 1.26047,-2.43753 3.23844,-12.85496 5.97602,-31.47458 1.56715,-10.6587 2.37032,-17.76765 2.1577,-19.09755 -0.50577,-3.16277 -2.5019,-4.87829 -5.67647,-4.87829 -2.83189,0 -4.39235,1.1467 -5.48508,4.0306 -0.79048,2.08628 -4.28746,34.05599 -4.67033,42.69645 -0.34967,7.88989 0.0539,9.28191 2.96456,10.22995 2.48252,0.80851 3.74406,0.40699 4.7336,-1.50658 z m -15.76649,-0.73074 c 1.9713,-1.97347 0.38062,-54.23046 -1.77781,-58.40446 -1.42249,-2.75083 -2.97939,-3.73656 -5.90185,-3.73656 -3.45743,0 -5.35252,1.73097 -6.06389,5.53881 -0.5723,3.06335 2.69186,39.11112 4.47517,49.42166 0.90257,5.21842 1.25514,6.23942 2.53982,7.35551 1.20419,1.04616 1.91095,1.23969 3.66691,1.0042 1.19638,-0.16036 2.57413,-0.69112 3.06165,-1.17916 z"
       style="fill:#000000;fill-opacity:0.23529412" />
    <path
       style="fill:#4ca7c1;fill-opacity:1"
       d="m 465.67492,543.2392 c 14.25858,-4.07517 23.05488,-14.7985 23.08951,-28.14791 0.032,-12.80947 -7.32102,-21.13446 -21.86232,-24.74821 -6.96705,-1.73142 -20.81798,-1.71563 -27.85788,0.0323 -6.12823,1.52112 -11.90359,4.25977 -15.3142,7.26188 -4.38671,3.86136 -5.03368,6.32075 -2.41521,9.18153 1.78264,1.94772 3.7442,1.58737 7.08,-1.30054 2.99523,-2.59309 6.57039,-4.57535 8.29082,-4.59698 1.17588,-0.0169 1.17925,0.15081 0.0896,4.40373 -2.02683,7.91149 2.05618,16.54347 9.39318,19.85841 4.10758,1.85585 10.53437,1.75989 14.34243,-0.21429 5.32961,-2.76277 8.51769,-7.7607 8.86017,-13.89003 0.23619,-4.22679 -0.31954,-5.82753 -2.61496,-7.53086 -1.97524,-1.46577 -3.27116,-0.81736 -3.27116,1.63677 0,3.46423 -2.66818,5.01017 -5.37501,3.11425 -0.90319,-0.6326 -1.22177,-1.4082 -1.22177,-2.97462 0,-7.32048 13.80589,-6.88307 19.23339,0.6094 5.78095,7.98032 1.49621,20.25779 -8.91543,25.54625 -6.95905,3.53481 -18.81837,3.92874 -30.3831,1.00926 -7.81069,-1.97181 -14.8632,-6.95621 -17.6647,-12.48465 -2.21232,-4.36584 -2.83436,-8.28899 -3.19861,-20.17438 -0.44979,-14.67644 -1.02442,-18.91753 -2.93816,-21.68623 -1.66968,-2.41563 -4.57714,-4.13814 -7.68925,-4.55555 -3.06415,-0.41101 -3.46525,0.377 -2.57304,5.05632 0.40354,2.11644 1.00813,10.77469 1.34354,19.24053 0.36858,9.29985 0.94163,16.97077 1.44799,19.37994 3.13393,14.91043 15.82547,24.60647 35.39523,27.04097 6.92358,0.86128 19.94842,0.29943 24.72884,-1.06692 z m 15.32277,-53.73735 c 2.07379,-1.74602 5.41793,-11.5169 11.99455,-35.04528 0.93517,-3.34563 0.57511,-5.75735 -1.09359,-7.32498 -2.83661,-2.66484 -6.36327,-1.73655 -8.40535,2.21241 -0.47268,0.91408 -1.979,6.52006 -3.34737,12.4578 -5.80018,25.16891 -5.87157,25.63508 -4.1546,27.13081 1.95146,1.69996 3.45966,1.87144 5.00636,0.56924 z m -48.062,-3.20027 c 1.11308,-1.11303 1.1319,-5.60489 0.0534,-12.78433 -1.38489,-9.22032 -6.9065,-36.95618 -7.80356,-39.19805 -1.72572,-4.31301 -5.73335,-6.01264 -9.53824,-4.04506 -2.17946,1.12704 -2.738,2.38108 -2.7357,6.14264 0.003,5.35617 8.58172,39.89663 11.85363,47.72743 0.42775,1.0237 1.21298,2.11474 1.745,2.42453 1.50674,0.87746 5.44444,0.7137 6.42531,-0.26736 z m 33.6102,-2.50679 c 1.26047,-2.43753 3.23844,-12.85496 5.97602,-31.47458 1.56715,-10.6587 2.37032,-17.76766 2.1577,-19.09755 -0.50577,-3.16278 -2.5019,-4.87829 -5.67647,-4.87829 -2.83189,0 -4.39235,1.1467 -5.48508,4.0306 -0.79048,2.08628 -4.28746,34.05598 -4.67033,42.69645 -0.34967,7.88989 0.0539,9.28191 2.96456,10.22994 2.48252,0.80852 3.74406,0.407 4.7336,-1.50657 z m -15.76649,-0.73075 c 1.9713,-1.97347 0.38062,-54.23045 -1.77781,-58.40445 -1.42249,-2.75084 -2.97939,-3.73656 -5.90185,-3.73656 -3.45743,0 -5.35252,1.73096 -6.06389,5.5388 -0.5723,3.06336 2.69186,39.11113 4.47517,49.42167 0.90257,5.21842 1.25514,6.23942 2.53982,7.35551 1.20419,1.04616 1.91095,1.23969 3.66691,1.0042 1.19638,-0.16036 2.57413,-0.69112 3.06165,-1.17917 z"
       id="path4173"
       inkscape:connector-curvature="0"
       sodipodi:nodetypes="csssssscsssssssssssssssssssccssssssssssscsssssssssssssssssss" />
    <path
       style="fill:#666666;fill-opacity:0.31372549"
       d="m 437.03209,426.57364 c -0.52868,3.39536 2.70863,39.05099 4.48242,49.30657 0.90256,5.2184 1.25092,6.23948 2.5356,7.35557 1.20419,1.04616 1.91003,1.24028 3.66598,1.00479 1.19639,-0.16036 2.57405,-0.68946 3.06156,-1.17751 0.74536,-0.74617 0.97475,-8.68871 0.86351,-18.49487 0.0225,8.18472 -0.2067,14.62657 -0.86351,15.28418 -0.48751,0.48805 -1.86517,1.01715 -3.06156,1.17751 -1.75595,0.23535 -2.46179,0.0413 -3.66598,-1.00482 -1.28468,-1.11606 -1.63304,-2.13714 -2.5356,-7.35556 -1.52705,-8.82888 -4.12233,-36.39345 -4.48242,-46.09586 z m 37.53926,6.2958 c -0.26287,3.22018 -0.95343,8.78339 -2.04888,16.23405 -2.73761,18.61959 -4.71347,29.04143 -5.97394,31.47893 -0.98954,1.91357 -2.25111,2.31573 -4.73363,1.50722 -2.07179,-0.67478 -2.84275,-1.68482 -3.0066,-4.99265 -0.15306,5.89027 0.40318,7.35542 3.0066,8.20336 2.48252,0.80852 3.74409,0.40635 4.73363,-1.50722 1.26047,-2.43753 3.23633,-12.8515 5.97394,-31.47112 1.56715,-10.6587 2.37139,-17.76943 2.15877,-19.09932 -0.0225,-0.13312 -0.0834,-0.22524 -0.10981,-0.35325 z m -61.5449,1.33453 c -0.073,0.63232 -0.11824,1.34136 -0.11768,2.21373 0.003,5.35617 8.58177,39.89787 11.85368,47.72868 0.42773,1.02369 1.21855,2.11588 1.75057,2.42568 1.50674,0.87746 5.44054,0.71406 6.4214,-0.2668 0.70373,-0.70371 0.91759,-2.90073 0.74578,-6.13093 -0.10307,1.39923 -0.31567,2.4823 -0.74578,2.91241 -0.98086,0.98097 -4.91466,1.14434 -6.4214,0.26679 -0.53202,-0.30979 -1.32284,-1.40195 -1.75057,-2.42568 -3.14603,-7.52954 -11.11813,-39.49424 -11.73592,-46.72385 z m 80.26741,15.51181 c -0.0837,0.49697 -0.14547,0.97651 -0.29831,1.52291 -6.57662,23.52838 -9.92118,33.30477 -11.99497,35.05076 -1.5467,1.3022 -3.05695,1.12693 -5.00838,-0.57306 -0.36253,-0.31581 -0.61903,-0.6249 -0.785,-1.09115 -0.4241,3.04406 -0.0346,3.59569 0.785,4.3097 1.95143,1.69999 3.46168,1.8674 5.00838,0.56522 2.07379,-1.74602 5.41835,-11.51454 11.99497,-35.04292 0.52512,-1.87863 0.59235,-3.43586 0.29831,-4.74146 z m -90.71591,24.47666 c -0.38503,0.72522 -0.26988,2.08876 0.18058,4.451 0.40354,2.11647 1.00696,10.7748 1.34237,19.24064 0.36857,9.29982 0.94593,16.97274 1.45228,19.38193 3.13394,14.91044 15.82638,24.60911 35.39616,27.04364 6.92358,0.86128 19.94744,0.29873 24.72786,-1.06762 14.25857,-4.07517 23.05255,-14.8011 23.08718,-28.15051 10e-4,-0.42143 -0.0713,-0.7972 -0.0865,-1.20891 -0.8696,12.40831 -9.46642,22.27268 -23.00082,26.14087 -4.78042,1.36635 -17.80428,1.9289 -24.72786,1.06762 -19.56978,-2.43453 -32.26222,-12.1332 -35.39616,-27.04364 -0.50635,-2.40919 -1.08371,-10.07424 -1.45228,-19.3741 -0.33541,-8.46584 -0.93883,-17.12416 -1.34237,-19.24061 -0.098,-0.51352 -0.1157,-0.81697 -0.18058,-1.24031 z m 61.89028,22.66328 c -4.12991,-0.13087 -7.58318,1.59147 -7.58318,5.2517 0,0.72283 0.0893,1.24595 0.25107,1.69564 0.79905,-2.48623 3.58676,-3.68082 6.88456,-3.68955 0.54815,-0.69803 1.47602,-0.71213 2.73183,0.2199 0.0315,0.0225 0.0477,0.0472 0.0784,0.0705 3.49001,0.66424 7.07708,2.4762 9.28668,5.52647 1.42729,1.97032 2.23693,4.20697 2.49634,6.53129 0.33873,-3.45277 -0.41955,-6.8751 -2.49634,-9.74198 -2.71373,-3.74622 -7.51965,-5.73317 -11.64956,-5.86401 z m -27.78155,0.84781 c -1.72043,0.0225 -5.29447,2.00705 -8.28969,4.60014 -3.33581,2.88792 -5.29815,3.25082 -7.08082,1.30313 -0.52408,-0.57258 -0.87962,-1.13288 -1.13828,-1.68777 -0.7531,1.7288 -0.37186,3.24858 1.13828,4.89846 1.78267,1.94769 3.74501,1.58481 7.08082,-1.3031 2.99522,-2.59312 6.56926,-4.57069 8.28969,-4.59231 0.14688,-0.002 0.21934,0.0281 0.32971,0.0393 0.6438,-2.64038 0.66885,-3.27143 -0.32971,-3.25778 z m -0.32968,10.23654 c -0.64677,7.1233 3.27711,14.29388 9.81262,17.2467 4.1076,1.85585 10.53412,1.75433 14.34215,-0.2199 5.32963,-2.76275 8.52032,-7.7575 8.86278,-13.88683 0.0657,-1.1735 0.0455,-2.11676 -0.0315,-2.9438 -0.42275,6.00129 -3.58325,10.89943 -8.83138,13.61994 -3.80804,1.97414 -10.23455,2.0678 -14.34216,0.21204 -5.54616,-2.50581 -9.21875,-8.05374 -9.81261,-14.02815 z"
       id="path4191"
       inkscape:connector-curvature="0" />
  </g>
</svg>
