<?xml version="1.0" encoding="UTF-8" standalone="no"?>
<!-- Created with Inkscape (http://www.inkscape.org/) -->

<svg
   xmlns:dc="http://purl.org/dc/elements/1.1/"
   xmlns:cc="http://creativecommons.org/ns#"
   xmlns:rdf="http://www.w3.org/1999/02/22-rdf-syntax-ns#"
   xmlns:svg="http://www.w3.org/2000/svg"
   xmlns="http://www.w3.org/2000/svg"
   xmlns:sodipodi="http://sodipodi.sourceforge.net/DTD/sodipodi-0.dtd"
   xmlns:inkscape="http://www.inkscape.org/namespaces/inkscape"
   width="512"
   height="512"
   viewBox="0 0 135.46667 135.46666"
   version="1.1"
   id="svg8"
   inkscape:version="0.91+devel r14285 custom"
   sodipodi:docname="swell-foop.svg">
  <defs
     id="defs2" />
  <sodipodi:namedview
     id="base"
     pagecolor="#ffffff"
     bordercolor="#666666"
     borderopacity="1.0"
     inkscape:pageopacity="0.0"
     inkscape:pageshadow="2"
     inkscape:zoom="1.010791"
     inkscape:cx="274.32108"
     inkscape:cy="321.70252"
     inkscape:document-units="mm"
     inkscape:current-layer="layer1"
     showgrid="false"
     units="px"
     inkscape:window-width="1920"
     inkscape:window-height="1017"
     inkscape:window-x="0"
     inkscape:window-y="32"
     inkscape:window-maximized="1" />
  <metadata
     id="metadata5">
    <rdf:RDF>
      <cc:Work
         rdf:about="">
        <dc:format>image/svg+xml</dc:format>
        <dc:type
           rdf:resource="http://purl.org/dc/dcmitype/StillImage" />
        <dc:title />
      </cc:Work>
    </rdf:RDF>
  </metadata>
  <g
     inkscape:label="Capa 1"
     inkscape:groupmode="layer"
     id="layer1"
     transform="translate(0,-161.53338)">
    <rect
       style="opacity:1;fill:#367bf0;fill-opacity:1;stroke:none;stroke-width:0.36093387;stroke-linecap:round;stroke-miterlimit:4;stroke-dasharray:none;stroke-opacity:0.23529412"
       id="rect4172"
       width="57.075714"
       height="57.553471"
       x="8.2022228"
       y="169.7356"
       rx="2.7451348"
       ry="2.7224252" />
    <rect
       style="opacity:1;fill:#367bf0;fill-opacity:1;stroke:none;stroke-width:0.36093387;stroke-linecap:round;stroke-miterlimit:4;stroke-dasharray:none;stroke-opacity:0.23529412"
       id="rect4172-6"
       width="57.075714"
       height="57.553471"
       x="70.188744"
       y="169.98279"
       rx="2.7451348"
       ry="2.7224252" />
    <rect
       style="opacity:1;fill:#367bf0;fill-opacity:1;stroke:none;stroke-width:0.36093387;stroke-linecap:round;stroke-miterlimit:4;stroke-dasharray:none;stroke-opacity:0.23529412"
       id="rect4172-61"
       width="57.075714"
       height="57.553471"
       x="70.044556"
       y="231.24435"
       rx="2.7451348"
       ry="2.7224252" />
    <rect
       style="opacity:1;fill:#1ba389;fill-opacity:1;stroke:none;stroke-width:0.36093387;stroke-linecap:round;stroke-miterlimit:4;stroke-dasharray:none;stroke-opacity:0.23529412"
       id="rect4172-9"
       width="57.075714"
       height="57.553471"
       x="8.836669"
       y="231.07803"
       rx="2.7451348"
       ry="2.7224252" />
    <path
       style="opacity:0.3;fill:#000000;fill-opacity:1;stroke:none;stroke-width:0.36093387;stroke-linecap:round;stroke-miterlimit:4;stroke-dasharray:none;stroke-opacity:0.23529412"
       d="m 8.2020831,221.87393 v 2.69285 c 0,1.50823 1.2242201,2.72232 2.7450249,2.72232 h 51.585887 c 1.520804,0 2.745026,-1.21409 2.745026,-2.72232 v -2.69285 c 0,1.50821 -1.224214,2.72231 -2.745026,2.72231 H 10.947639 c -1.5208121,0 -2.7455559,-1.2141 -2.7455559,-2.72231 z m 61.9865709,0.24719 v 2.69287 c 0,1.50822 1.22422,2.7223 2.745025,2.7223 h 51.585871 c 1.5208,0 2.74503,-1.21408 2.74503,-2.7223 v -2.69287 c 0,1.50822 -1.22476,2.72233 -2.74556,2.72233 H 72.933679 c -1.520802,0 -2.745025,-1.21411 -2.745025,-2.72233 z M 8.8368966,283.21605 v 2.69287 c 0,1.50822 1.2242204,2.72283 2.7450254,2.72283 h 51.585357 c 1.520804,0 2.745026,-1.21461 2.745026,-2.72283 v -2.69287 c 0,1.50823 -1.224214,2.72285 -2.745026,2.72285 H 11.581922 c -1.520812,0 -2.7450254,-1.21462 -2.7450254,-2.72285 z m 61.2075044,0.16673 v 2.69286 c 0,1.50823 1.224221,2.72232 2.745027,2.72232 H 124.3753 c 1.52081,0 2.74502,-1.21409 2.74502,-2.72232 v -2.69286 c 0,1.50823 -1.22421,2.72231 -2.74502,2.72231 H 72.789957 c -1.520802,0 -2.745556,-1.21408 -2.745556,-2.72231 z"
       id="rect4172-3"
       inkscape:connector-curvature="0"
       sodipodi:nodetypes="csssscssccsssscssccsssscssccsssscssc" />
    <path
       style="opacity:0.3;fill:#ffffff;fill-opacity:1;stroke:none;stroke-width:0.36093387;stroke-linecap:round;stroke-miterlimit:4;stroke-dasharray:none;stroke-opacity:0.23529412"
       d="m 10.947639,169.73547 c -1.5208052,0 -2.7450253,1.2141 -2.7450253,2.72232 v 2.69338 c 0,-1.50821 1.2236925,-2.72231 2.7444943,-2.72231 h 51.585357 c 1.520802,0 2.713955,1.21442 2.745026,2.72231 l 1.039847,50.46545 c 1.4e-5,-0.004 6e-4,-0.007 5.3e-4,-0.0105 L 65.278021,172.4578 c -0.02951,-1.50794 -1.224751,-2.72232 -2.745556,-2.72232 z m 61.98657,0.2472 c -1.520806,0 -2.745555,1.21409 -2.745555,2.72232 v 2.69338 c 0,-1.50821 1.224742,-2.72232 2.745555,-2.72232 h 51.585341 c 1.5208,0 2.74503,1.21411 2.74503,2.72232 v -2.69338 c 0,-1.50823 -1.22423,-2.72232 -2.74503,-2.72232 z M 11.581922,231.0776 c -1.520805,0 -2.7450254,1.2141 -2.7450254,2.72232 v 2.69338 c 0,-1.50822 1.2236934,-2.72231 2.7444954,-2.72231 h 51.585357 c 1.520802,0 2.746085,1.21409 2.746085,2.72231 v -2.69338 c 0,-1.50822 -1.224751,-2.72232 -2.745555,-2.72232 z m 61.208035,0.1662 c -1.520805,0 -2.745556,1.21462 -2.745556,2.72285 v 2.69338 c 0,-1.50822 1.224743,-2.72284 2.745556,-2.72284 H 124.3753 c 1.52081,0 2.74502,1.21462 2.74502,2.72284 v -2.69338 c 0,-1.50823 -1.22421,-2.72285 -2.74502,-2.72285 z"
       id="rect4172-4"
       inkscape:connector-curvature="0"
       sodipodi:nodetypes="sscssscsssssscsscssssscsscssssscsscsss" />
    <ellipse
       style="opacity:0.3;fill:#ffffff;fill-opacity:0;stroke:#000000;stroke-width:2.70407081;stroke-linecap:round;stroke-miterlimit:4;stroke-dasharray:none;stroke-opacity:1"
       id="path4334"
       cx="98.726601"
       cy="198.75954"
       rx="16.56077"
       ry="16.423769" />
    <ellipse
       style="opacity:0.3;fill:#ffffff;fill-opacity:0;stroke:#000000;stroke-width:2.70407081;stroke-linecap:round;stroke-miterlimit:4;stroke-dasharray:none;stroke-opacity:1"
       id="path4334-3"
       cx="36.740078"
       cy="198.51234"
       rx="16.56077"
       ry="16.423769" />
    <ellipse
       style="opacity:0.3;fill:#ffffff;fill-opacity:0;stroke:#000000;stroke-width:2.70407081;stroke-linecap:round;stroke-miterlimit:4;stroke-dasharray:none;stroke-opacity:1"
       id="path4334-7"
       cx="98.582413"
       cy="260.02115"
       rx="16.56077"
       ry="16.423769" />
    <rect
       style="opacity:0.3;fill:#ffffff;fill-opacity:0;stroke:#000000;stroke-width:2.91069698;stroke-linecap:round;stroke-miterlimit:4;stroke-dasharray:none;stroke-opacity:1"
       id="rect4361"
       width="32.914356"
       height="32.642067"
       x="20.917345"
       y="243.53374"
       rx="2.897831"
       ry="2.873858" />
  </g>
</svg>
