<svg xmlns="http://www.w3.org/2000/svg" xmlns:xlink="http://www.w3.org/1999/xlink" width="36pt" height="36pt" version="1.1" viewBox="0 0 36 36"> <defs> <filter id="alpha" width="100%" height="100%" x="0%" y="0%" filterUnits="objectBoundingBox"> <feColorMatrix in="SourceGraphic" type="matrix" values="0 0 0 0 1 0 0 0 0 1 0 0 0 0 1 0 0 0 1 0"/> </filter> <mask id="mask0"> <g filter="url(#alpha)"> <rect width="36" height="36" x="0" y="0" style="fill:rgb(0%,0%,0%);fill-opacity:0.301961"/> </g> </mask> <clipPath id="clip1"> <rect width="36" height="36" x="0" y="0"/> </clipPath> <g id="surface5" clip-path="url(#clip1)"> <path style="fill:rgb(0%,0%,0%)" d="M 12.375 14.765625 L 19.828125 23.203125 L 24.609375 18.5625 L 28.574219 22.53125 L 27.75 23.25 L 24.75 27 L 6.75 27 L 6.75 21.375 Z M 12.375 14.765625"/> </g> <mask id="mask1"> <g filter="url(#alpha)"> <rect width="36" height="36" x="0" y="0" style="fill:rgb(0%,0%,0%);fill-opacity:0.2"/> </g> </mask> <clipPath id="clip2"> <rect width="36" height="36" x="0" y="0"/> </clipPath> <g id="surface8" clip-path="url(#clip2)"> <path style="fill:rgb(100.000%,100.000%,100.000%)" d="M 22.5 19.5 C 21.671875 19.5 21 20.171875 21 21 L 21 21.75 C 21 20.921875 21.671875 20.25 22.5 20.25 L 32.25 20.25 L 33 19.5 Z M 22.5 19.5"/> </g> <mask id="mask2"> <g filter="url(#alpha)"> <rect width="36" height="36" x="0" y="0" style="fill:rgb(0%,0%,0%);fill-opacity:0.2"/> </g> </mask> <clipPath id="clip3"> <rect width="36" height="36" x="0" y="0"/> </clipPath> <g id="surface11" clip-path="url(#clip3)"> <path style="fill:rgb(0%,0%,0%)" d="M 33 19.464844 L 21 31.464844 L 4.5 31.464844 C 3.667969 31.464844 3 30.796875 3 29.964844 L 3 30.75 C 3 31.582031 3.667969 32.25 4.5 32.25 L 21 32.25 L 33 20.25 Z M 33 19.464844"/> </g> <mask id="mask3"> <g filter="url(#alpha)"> <rect width="36" height="36" x="0" y="0" style="fill:rgb(0%,0%,0%);fill-opacity:0.2"/> </g> </mask> <clipPath id="clip4"> <rect width="36" height="36" x="0" y="0"/> </clipPath> <g id="surface14" clip-path="url(#clip4)"> <path style="fill:rgb(100.000%,100.000%,100.000%)" d="M 4.5 4.5 C 3.667969 4.5 3 5.167969 3 6 L 3 6.75 C 3 5.917969 3.667969 5.25 4.5 5.25 L 31.5 5.25 C 32.332031 5.25 33 5.917969 33 6.75 L 33 6 C 33 5.167969 32.332031 4.5 31.5 4.5 Z M 4.5 4.5"/> </g> </defs> <g> <path style="fill:rgb(90.196%,90.196%,90.196%)" d="M 4.5 4.5 C 3.667969 4.5 3 5.167969 3 6 L 3 30 C 3 30.832031 3.667969 31.5 4.5 31.5 L 21 31.5 L 33 19.5 L 33 6 C 33 5.167969 32.332031 4.5 31.5 4.5 Z M 4.5 4.5"/> <use mask="url(#mask0)" xlink:href="#surface5"/> <path style="fill:rgb(100.000%,100.000%,100.000%)" d="M 33 19.5 L 22.5 19.5 C 21.671875 19.5 21 20.171875 21 21 L 21 31.5 Z M 33 19.5"/> <use mask="url(#mask1)" xlink:href="#surface8"/> <use mask="url(#mask2)" xlink:href="#surface11"/> <use mask="url(#mask3)" xlink:href="#surface14"/> </g> </svg>
