<svg version="1.1" viewBox="0 0 512 512" xmlns="http://www.w3.org/2000/svg"><defs><clipPath id="h"><rect width="384" height="384"/></clipPath></defs><g transform="matrix(1.3333 0 0 1.3333 6.4e-6 6.4e-6)"><path d="m60 24h264c19.883 0 36 16.117 36 36v264c0 19.883-16.117 36-36 36h-264c-19.883 0-36-16.117-36-36v-264c0-19.883 16.117-36 36-36z" fill="#138de7"/><g stroke-width="1.3333"><path transform="scale(.75)" d="m80 32c-26.51 0-48 21.49-48 48v10c0-26.51 21.49-48 48-48h352c26.51 0 48 21.49 48 48v-10c0-26.51-21.49-48-48-48z" fill="#fff" opacity=".2"/><path transform="scale(.75)" d="m32 422v10c0 26.51 21.49 48 48 48h352c26.51 0 48-21.49 48-48v-10c0 26.51-21.49 48-48 48h-352c-26.51 0-48-21.49-48-48z" opacity=".3"/></g></g><path d="m167.47 91c-3.4166 0-6.7099 0.59949-9.789 1.6868l-2.3245-0.9481v1.8818c-10.479 4.7232-17.913 15.313-17.913 27.406v260.39c0 16.385 13.641 30.026 30.026 30.026h14.236l72.481 29.555v-308.96l-29.997-12.231h120.35c0.92533 0 1.22 0.29468 1.22 1.22v260.39c0 0.92533-0.29468 1.22-1.22 1.22h-62.635v28.806h62.635c16.385 0 30.026-13.641 30.026-30.026v-260.39c0-16.385-13.641-30.026-30.026-30.026zm63.804 166.03 11.341 5.0413v34.018l-11.341-5.0389z" color="#000000" color-rendering="auto" dominant-baseline="auto" image-rendering="auto" opacity=".3" shape-rendering="auto" solid-color="#000000" style="font-feature-settings:normal;font-variant-alternates:normal;font-variant-caps:normal;font-variant-ligatures:normal;font-variant-numeric:normal;font-variant-position:normal;isolation:auto;mix-blend-mode:normal;shape-padding:0;text-decoration-color:#000000;text-decoration-line:none;text-decoration-style:solid;text-indent:0;text-orientation:mixed;text-transform:none;white-space:normal"/><path d="m167.47 81c-3.4166 0-6.7099 0.59949-9.789 1.6868l-2.3245-0.9481v1.8818c-10.479 4.7232-17.913 15.313-17.913 27.406v260.39c0 16.385 13.641 30.026 30.026 30.026h14.236l72.481 29.555v-308.96l-29.997-12.231h120.35c0.92533 0 1.22 0.29468 1.22 1.22v260.39c0 0.92533-0.29468 1.22-1.22 1.22h-62.635v28.806h62.635c16.385 0 30.026-13.641 30.026-30.026v-260.39c0-16.385-13.641-30.026-30.026-30.026zm55.804 158.03 19.341 7.0413v44.018l-19.341-7.0389z" color="#000000" color-rendering="auto" dominant-baseline="auto" image-rendering="auto" shape-rendering="auto" solid-color="#000000" style="font-feature-settings:normal;font-variant-alternates:normal;font-variant-caps:normal;font-variant-ligatures:normal;font-variant-numeric:normal;font-variant-position:normal;isolation:auto;mix-blend-mode:normal;shape-padding:0;text-decoration-color:#000000;text-decoration-line:none;text-decoration-style:solid;text-indent:0;text-orientation:mixed;text-transform:none;white-space:normal"/></svg>
