<svg width="512" height="512" version="1.1" viewBox="0 0 384 384" xmlns="http://www.w3.org/2000/svg"><defs><clipPath><rect width="384" height="384"/></clipPath><clipPath><rect width="384" height="384"/></clipPath><clipPath><rect width="384" height="384"/></clipPath></defs><path d="m24 24 96 336h144l96-336h-96l-72 264-72-264z" fill="#ffc62f"/><g><path transform="scale(.75)" d="m32 32 128 448h192l128-448h-2.8574l-125.14 438h-192l-125.14-438h-2.8574z" opacity=".3" stroke-width="1.3333"/><path transform="scale(.75)" d="m32 32 2.8574 10h125.14l96 352 96-352h125.14l2.8574-10h-128l-96 352-96-352h-128z" fill="#fff" opacity=".3" stroke-width="1.3333"/><path d="m24 24h96l91.553 336.05-91.553-0.05485z" fill="#fff" opacity=".3"/></g></svg>
