<svg width="512" height="512" version="1.1" viewBox="0 0 384 384" xmlns="http://www.w3.org/2000/svg"><path d="m360 192c0-92.781-75.215-168-168-168s-168 75.215-168 168c0 92.781 75.215 168 168 168s168-75.215 168-168z" fill="#262833"/><path transform="scale(.75)" d="m32.068 251c-0.036438 1.663-0.0625 3.3283-0.0625 5 0 123.71 100.29 223.99 223.99 223.99 123.71 0 223.99-100.29 223.99-223.99 0-1.6717-0.02606-3.337-0.0625-5-2.66 121.4-101.9 218.99-223.93 218.99-122.04 0-221.27-97.596-223.93-218.99z" opacity=".3" stroke-width="1.3333"/><path d="m191.99 67.5c-39.762 0-71.996 32.235-71.996 71.997 0.0352 8 1.4062 15.938 4.0547 23.484 9.1445-9.1758 20.051-16.403 32.062-21.25-0.0625-0.74218-0.10158-1.4878-0.11719-2.2339 0-19.883 16.117-36 35.996-36 19.883 0 36 16.117 36 36-0.0156 0.75391-0.0547 1.5073-0.11719 2.2573 12.016 4.832 22.93 12.043 32.086 21.204 2.6367-7.543 4-15.469 4.0312-23.461 0-39.762-32.234-71.997-72-71.997zm4e-3 47.997c-13.254 0-24 10.746-24 24s10.746 24 24 24 23.999-10.746 23.999-24-10.745-24-23.999-24zm71.433 48.961-0.63721 1.0547c1.5547 6.8203 2.3589 13.789 2.398 20.785-0.0312 5.1133-0.47217 10.219-1.3198 15.262 14.43 5.0469 24.102 18.652 24.122 33.938 0 19.883-16.117 36-36 36-8.9102-0.0195-17.492-3.3447-24.094-9.3252-9.8476 7.6484-21.09 13.305-33.098 16.657l-0.082 0.14502c13.586 17.934 34.774 28.484 57.274 28.523 39.766 0 72-32.238 72-72-0.0234-35.332-25.68-65.426-60.562-71.039zm-143.24 0.12011c-34.691 5.7656-60.14 35.751-60.19 70.919 0 39.762 32.234 72 72 72 22.484-0.0195 43.671-10.547 57.272-28.453-12.203-3.207-23.653-8.79-33.696-16.427-6.5352 5.7031-14.905 8.8564-23.577 8.8799-19.883 0-36-16.117-36-36 0-14.836 9.1016-28.152 22.922-33.539-0.86718-5.1758-1.3047-10.415-1.3125-15.661 0.0312-7.3164 0.89356-14.602 2.5811-21.719zm11.81 46.919c-13.254 0-24 10.746-24 24s10.746 24 24 24 24-10.746 24-24-10.746-24-24-24zm119.99 0c-13.254 0-24 10.746-24 24s10.746 24 24 24c13.258 0 24-10.746 24-24s-10.742-24-24-24z" opacity=".3"/><path d="m384 294c0 49.706-40.294 90-90 90s-90-40.294-90-90 40.294-90 90-90 90 40.294 90 90z" opacity=".3" stroke-width=".9375"/><path d="m263.43 156.96-0.63672 1.0547c1.5547 6.8203 2.3594 13.789 2.3984 20.785-0.0312 5.1133-0.47265 10.219-1.3203 15.262 14.43 5.0469 24.102 18.652 24.121 33.938 0 19.883-16.117 36-36 36-8.9102-0.0195-17.492-3.3438-24.094-9.3242-9.8476 7.6484-21.09 13.305-33.098 16.656l-0.082 0.14453c13.586 17.934 34.773 28.484 57.273 28.523 39.766 0 72-32.238 72-72-0.0234-35.332-25.68-65.426-60.562-71.039z" fill="#357af0"/><path d="m120.19 157.08c-34.691 5.7656-60.141 35.75-60.191 70.918 0 39.762 32.234 72 72 72 22.484-0.0195 43.672-10.547 57.273-28.453-12.203-3.207-23.652-8.7891-33.695-16.426-6.5352 5.7031-14.906 8.8555-23.578 8.8789-19.883 0-36-16.117-36-36 0-14.836 9.1016-28.152 22.922-33.539-0.86719-5.1758-1.3047-10.414-1.3125-15.66 0.0312-7.3164 0.89453-14.602 2.582-21.719z" fill="#d41717"/><path d="m191.99 60c-39.762 0-71.996 32.234-71.996 71.996 0.0352 8 1.4062 15.938 4.0547 23.484 9.1445-9.1758 20.051-16.402 32.062-21.25-0.0625-0.74218-0.10157-1.4883-0.11719-2.2344 0-19.883 16.117-36 35.996-36 19.883 0 36 16.117 36 36-0.0156 0.75391-0.0547 1.5078-0.11718 2.2578 12.016 4.832 22.93 12.043 32.086 21.203 2.6367-7.543 4-15.469 4.0312-23.461 0-39.762-32.234-71.996-72-71.996z" fill="#0aa15c"/><path d="m216 132c0 13.254-10.746 24-24 24s-24-10.746-24-24 10.746-24 24-24 24 10.746 24 24z" fill="#07703f"/><path d="m156 228c0 13.254-10.746 24-24 24s-24-10.746-24-24 10.746-24 24-24 24 10.746 24 24z" fill="#7f0f33"/><path d="m275.99 228c0 13.254-10.742 24-24 24-13.254 0-24-10.746-24-24s10.746-24 24-24c13.258 0 24 10.746 24 24z" fill="#2b4a7f"/><path d="m192 24.004c-92.781 0-168 75.216-168 168 0 1.2538 0.021 2.5028 0.0483 3.75 1.995-91.049 76.421-164.25 167.95-164.25 91.527 0 165.95 73.198 167.95 164.25 0.0273-1.2472 0.0469-2.4962 0.0469-3.75-3e-5 -92.781-75.214-168-168-168z" fill="#fff" fill-opacity=".97685" opacity=".1"/><path d="m384 286.5c0 49.706-40.294 90-90 90s-90-40.294-90-90 40.294-90 90-90 90 40.294 90 90z" fill="#ffc62f" stroke-width=".9375"/><path d="m294 252.75c-17.397 0-31.499 14.104-31.499 31.5 0 8.8261 3.6534 16.78 9.5009 22.5h-0.49954v31.499h8.9989v4.5001h27.001v-4.5001h9.0002v-31.499h-0.51856c5.8551-5.7203 9.5174-13.668 9.5174-22.5 0-17.397-14.102-31.5-31.499-31.5zm0 9.0002c12.426 0 22.5 10.074 22.5 22.5 0 6.8381-3.0513 12.968-7.8664 17.095-3.9332 3.3692-9.0444 5.4039-14.634 5.4039-5.4713 0-10.488-1.9571-14.387-5.2017-4.9586-4.1265-8.1124-10.346-8.1124-17.299 0-12.424 10.075-22.5 22.499-22.5zm-13.499 53.999h26.999v4.5001h-26.999zm0 13.5h26.999v4.5001h-26.999z" opacity=".3" stroke-width=".6596"/><path d="m294 245.25c-17.397 0-31.499 14.104-31.499 31.5 0 8.8261 3.6534 16.78 9.5009 22.5h-0.49954v31.499h8.9989v4.5001h27.001v-4.5001h9.0002v-31.499h-0.51856c5.8551-5.7203 9.5174-13.668 9.5174-22.5 0-17.397-14.102-31.5-31.499-31.5zm0 9.0002c12.426 0 22.5 10.074 22.5 22.5 0 6.8381-3.0513 12.968-7.8664 17.095-3.9332 3.3692-9.0444 5.4039-14.634 5.4039-5.4713 0-10.488-1.9571-14.387-5.2017-4.9586-4.1265-8.1124-10.346-8.1124-17.299 0-12.424 10.075-22.5 22.499-22.5zm-13.499 53.999h26.999v4.5001h-26.999zm0 13.5h26.999v4.5001h-26.999z" fill="#fff" stroke-width=".6596"/></svg>
