<svg width="512" height="512" version="1" xmlns="http://www.w3.org/2000/svg"><defs><linearGradient id="a" x1="187.95" x2="187.95" y1="330.3" y2="118.97" gradientTransform="matrix(1.0227 0 0 1.0227 59.638 55.635)" gradientUnits="userSpaceOnUse"><stop stop-color="#80c6ed" offset="0"/><stop stop-color="#fff" offset="1"/></linearGradient></defs><path d="m97.35 258.74v-176.77c0-9.0794 8.5733-18.329 17.625-17.625h282.05c9.0521-0.70338 17.625 8.5459 17.625 17.625v176.77z" fill="#367bf0" stroke-width="13.513"/><path d="m201 84.502c-56.525 9e-3 -103.19 39.132-103.19 88.327-3e-5 9e-3 -3e-5 0.0176 0 0.0264 0.0278 4.8943 0.70236 9.7496 1.6696 14.563-43.571 1.758-78.483 37.633-78.483 81.628 0 45.12 36.684 81.804 81.798 81.804h306.39c45.116 0 81.798-36.685 81.798-81.804 0-44.797-36.178-81.238-80.854-81.751 1.3471-5.5751 2.2754-11.243 2.2916-16.992 2e-5 -5e-3 2e-5 -0.0105 0-0.015 0-40.546-32.975-73.526-73.527-73.533h-9e-3c-20.892 0.03636-40.623 9.0281-54.475 24.422-19.404-22.99-50.278-36.655-83.401-36.675h-9e-3zm-98.371 112.64c0.0442 1e-3 0.0879 5e-3 0.13206 6e-3 0.0135-2e-5 0.0251-3e-3 0.0382-3e-3z" color="#000000" color-rendering="auto" dominant-baseline="auto" fill-rule="evenodd" image-rendering="auto" opacity=".1" shape-rendering="auto" solid-color="#000000" style="font-feature-settings:normal;font-variant-alternates:normal;font-variant-caps:normal;font-variant-ligatures:normal;font-variant-numeric:normal;font-variant-position:normal;isolation:auto;mix-blend-mode:normal;paint-order:stroke fill markers;shape-padding:0;text-decoration-color:#000000;text-decoration-line:none;text-decoration-style:solid;text-indent:0;text-orientation:mixed;text-transform:none;white-space:normal"/><path d="m201.01 103.4c-56.527 8e-3 -103.19 39.13-103.19 88.327-3e-5 9e-3 -3e-5 0.018 0 0.027 0.0276 4.8942 0.7002 9.7493 1.6674 14.562-43.571 1.7587-78.481 37.634-78.481 81.629 0 45.121 36.684 81.805 81.799 81.805h306.39c45.116 0 81.799-36.685 81.799-81.805 0-44.725-36.063-81.11-80.639-81.739 1.3415-5.5639 2.0608-11.267 2.077-17.005 1e-5 -5e-3 1e-5 -0.0105 0-0.0155 0-40.546-32.975-73.527-73.528-73.532h-8e-3c-20.892 0.0364-40.622 9.0268-54.474 24.42-19.405-22.99-50.28-36.654-83.402-36.675h-6e-3z" color="#000000" color-rendering="auto" dominant-baseline="auto" fill-opacity=".33725" fill-rule="evenodd" image-rendering="auto" opacity=".3" shape-rendering="auto" solid-color="#000000" stroke-width=".99998" style="font-feature-settings:normal;font-variant-alternates:normal;font-variant-caps:normal;font-variant-ligatures:normal;font-variant-numeric:normal;font-variant-position:normal;isolation:auto;mix-blend-mode:normal;paint-order:stroke fill markers;shape-padding:0;text-decoration-color:#000000;text-decoration-line:none;text-decoration-style:solid;text-indent:0;text-orientation:mixed;text-transform:none;white-space:normal"/><g transform="matrix(1.2746 0 0 1.2746 -70.31 -94.515)"><path d="m212.86 151.4c-42.57 4e-3 -77.079 29.288-77.079 65.415 0.0292 5.1592 0.77513 10.298 2.2254 15.307-0.72929-0.05-1.4627-0.0875-2.1962-0.11252-33.297 0-60.293 26.997-60.293 60.293 0 33.301 26.997 60.297 60.293 60.297h240.38c33.297 0 60.293-26.997 60.293-60.297 0-33.297-26.997-60.293-60.293-60.293-1.4252 0-2.8463 0.0543-4.2673 0.15419 1.9211-5.5801 2.9088-11.44 2.9255-17.34 0-29.713-24.087-53.805-53.805-53.809-16.79 0.0292-32.609 7.893-42.766 21.266-14.057-19.186-38.786-30.864-65.411-30.88z" fill="url(#a)" fill-rule="evenodd" stroke="#80c6ed" stroke-linejoin="round" stroke-opacity=".47059" stroke-width="7.7608" style="paint-order:stroke fill markers"/></g><g stroke-width="13.513"><path d="m97.35 268.28v161.74c0 9.0794 8.5734 18.329 17.625 17.625h185.07l114.6-114.6v-64.761z" fill="#367bf0"/><path d="m189.14 387.68h60.283c2.7977 0 5.1203-2.3754 5.1203-5.3315v-51.098c0-2.9033-2.3226-5.2786-5.1203-5.2786h-60.283c-2.8505 0-5.1203 2.3754-5.1203 5.2786v51.098c0 2.956 2.2699 5.3315 5.1203 5.3315z" opacity=".3"/><path d="m189.14 381.74h60.283c2.7977 0 5.1203-2.3755 5.1203-5.3315v-51.098c0-2.9033-2.3226-5.2786-5.1203-5.2786h-60.283c-2.8505 0-5.1203 2.3754-5.1203 5.2786v51.098c0 2.956 2.2699 5.3315 5.1203 5.3315z" fill="#fff"/></g><g transform="matrix(1.5023 0 0 1.5023 -128.6 -152.78)" stroke-linecap="round" stroke-linejoin="round" stroke-width="5.8663"><path d="m269.69 356.79h29.339" opacity=".3" stroke="#000"/><path d="m269.69 352.83h29.339" fill="none" stroke="#fff"/><path d="m269.69 339.19h29.339" opacity=".3" stroke="#000"/><path d="m269.69 335.23h29.339" fill="none" stroke="#fff"/><path d="m269.69 321.59h29.339" opacity=".3" stroke="#000"/><path d="m269.69 317.63h29.339" fill="none" stroke="#fff"/><path d="m208.09 304.02h93.849" opacity=".3" stroke="#000"/><path d="m208.09 300.06h93.849" fill="none" stroke="#fff"/></g><path d="m294.05 447.65 5.9973-4e-3 108.6-114.6h-96.97c-8.5515 0-17.631 9.0794-17.631 17.631z" fill="#00050d" opacity=".3" stroke-width="13.513"/><path d="m300.05 447.65 114.6-114.6h-96.97c-8.5515 0-17.631 9.0794-17.631 17.631z" fill="#2656a8" stroke-width="13.513"/><g transform="matrix(1.5023 0 0 1.5023 -128.6 -152.78)"><rect x="147.34" y="277.78" width="217.33" height="7.3332" opacity=".3" stroke-width=".74446" style="paint-order:fill markers stroke"/><rect x="147.34" y="275.11" width="217.33" height="5.8094" stroke-width=".66261" style="paint-order:fill markers stroke"/></g><g><path d="m114.13 64.311c-8.7327-0.088122-16.779 8.8684-16.779 17.664v10c0-9.0794 8.5747-18.33 17.627-17.627h282.05c9.0521-0.70338 17.625 8.5474 17.625 17.627v-10c0-9.0796-8.5729-18.33-17.625-17.627h-282.05c-0.28288-0.021972-0.56595-0.034266-0.84765-0.037109z" fill="#f8fbff" opacity=".2" stroke-width="13.513"/><path d="m300.05 437.65h-185.07c-9.0521 0.7031-17.627-8.5476-17.627-17.627v10c0 9.0794 8.5749 18.33 17.627 17.627h185.07z" opacity=".3" stroke-width="13.513"/><circle cx="448.55" cy="268.18" r="12.622" opacity=".3" style="paint-order:stroke fill markers"/><circle cx="448.55" cy="264.18" r="12.622" fill="#65cfd4" style="paint-order:stroke fill markers"/></g></svg>
