<svg width="384pt" height="384pt" version="1.1" viewBox="0 0 384 384" xmlns="http://www.w3.org/2000/svg"><g transform="translate(.15705 -14.205)"><path d="m13.863 159.69c98.297-98.297 257.67-98.297 355.96 0l-177.98 177.98z" opacity=".3"/><path d="m13.863 152.19c98.297-98.297 257.67-98.297 355.96 0l-177.98 177.98z" fill="#4a4a4a" opacity=".2" stroke="#000" stroke-width="7.5"/><path d="m13.863 152.19c98.297-98.297 257.67-98.297 355.96 0l-177.98 177.98z" fill="#666"/><path d="m37.023 175.36c81.983-86.649 225.49-86.981 309.64 0l-154.82 154.82z" opacity=".3"/><path d="m41.523 179.86c83.02-83.02 217.62-83.02 300.64 0l-150.32 150.32z" fill="#e6e6e6"/><path d="m72.516 210.85c63.418-66.8 175.24-65.376 238.66 0l-119.33 119.33z" opacity=".3"/><path d="m77.016 215.35c63.418-63.418 166.24-63.418 229.66 0l-114.83 114.83z" fill="#fff"/></g><path d="m263.76 143.53c-66.215 0-120.24 54.021-120.24 120.24s54.021 120.24 120.24 120.24 120.24-54.021 120.24-120.24-54.021-120.24-120.24-120.24zm0 32.063c48.887 0 88.173 39.286 88.173 88.173 0 19.863-6.4858 38.142-17.467 52.844l-123.55-123.55c14.703-10.981 32.981-17.467 52.844-17.467zm-74.621 41.034 121.76 121.76c-13.614 8.5879-29.769 13.552-47.14 13.552-48.887 0-88.173-39.286-88.173-88.173 0-17.37 4.9639-33.525 13.552-47.14z" color="#000000" color-rendering="auto" dominant-baseline="auto" image-rendering="auto" opacity=".3" shape-rendering="auto" solid-color="#000000" stroke-width=".71251" style="font-feature-settings:normal;font-variant-alternates:normal;font-variant-caps:normal;font-variant-ligatures:normal;font-variant-numeric:normal;font-variant-position:normal;isolation:auto;mix-blend-mode:normal;paint-order:stroke fill markers;shape-padding:0;text-decoration-color:#000000;text-decoration-line:none;text-decoration-style:solid;text-indent:0;text-orientation:mixed;text-transform:none;white-space:normal"/><path d="m263.76 138.18c-66.215 0-120.24 54.021-120.24 120.24s54.021 120.24 120.24 120.24 120.24-54.021 120.24-120.24-54.021-120.24-120.24-120.24zm0 32.063c48.887 0 88.173 39.286 88.173 88.173 0 19.863-6.4858 38.142-17.467 52.845l-123.55-123.55c14.703-10.981 32.981-17.467 52.844-17.467zm-74.621 41.034 121.76 121.76c-13.614 8.5879-29.769 13.552-47.14 13.552-48.887 0-88.173-39.286-88.173-88.173 0-17.37 4.9639-33.525 13.552-47.14z" color="#000000" color-rendering="auto" dominant-baseline="auto" fill="#d41919" image-rendering="auto" shape-rendering="auto" solid-color="#000000" stroke-width=".71251" style="font-feature-settings:normal;font-variant-alternates:normal;font-variant-caps:normal;font-variant-ligatures:normal;font-variant-numeric:normal;font-variant-position:normal;isolation:auto;mix-blend-mode:normal;paint-order:stroke fill markers;shape-padding:0;text-decoration-color:#000000;text-decoration-line:none;text-decoration-style:solid;text-indent:0;text-orientation:mixed;text-transform:none;white-space:normal"/></svg>
