<svg width="512" height="512" version="1.1" viewBox="0 0 384 384" xmlns="http://www.w3.org/2000/svg"><g transform="translate(.15705 -14.205)"><path d="m13.863 159.69c98.297-98.297 257.67-98.297 355.96 0l-177.98 177.98z" opacity=".3"/><path d="m13.863 152.19c98.297-98.297 257.67-98.297 355.96 0l-177.98 177.98z" fill="#4a4a4a" opacity=".2" stroke="#000" stroke-width="7.5"/><path d="m13.863 152.19c98.297-98.297 257.67-98.297 355.96 0l-177.98 177.98z" fill="#4a4a4a"/><path d="m37.023 175.36c81.983-86.649 225.49-86.981 309.64 0l-154.82 154.82z" opacity=".3"/><path d="m41.523 179.86c83.02-83.02 217.62-83.02 300.64 0l-150.32 150.32z" fill="#e6e6e6"/><path d="m72.516 210.85c63.418-66.8 175.24-65.376 238.66 0l-119.33 119.33z" opacity=".3"/><path d="m77.016 215.35c63.418-63.418 166.24-63.418 229.66 0l-114.83 114.83z" fill="#fff"/></g><path d="m384 294c0 49.706-40.294 90-90 90s-90-40.294-90-90 40.294-90 90-90 90 40.294 90 90z" fill-rule="evenodd" opacity=".3" stroke-width=".9375"/><path d="m384 286.5c0 49.706-40.294 90-90 90s-90-40.294-90-90 40.294-90 90-90 90 40.294 90 90z" fill="#d41717" fill-rule="evenodd" stroke-width=".9375"/><path d="m264.75 253.07-11.675 11.675 29.253 29.254-29.253 29.253 11.675 11.676 29.254-29.254 29.253 29.254 11.676-11.676-29.254-29.253 29.254-29.254-11.676-11.675-29.253 29.253z" opacity=".3" stroke-width="11.029"/><path d="m264.75 245.57-11.675 11.675 29.253 29.254-29.253 29.253 11.675 11.676 29.254-29.254 29.253 29.254 11.676-11.676-29.254-29.253 29.254-29.254-11.676-11.675-29.253 29.253z" fill="#fff" stroke-width="11.029"/></svg>
