<svg width="512" height="512" version="1.1" viewBox="0 0 384 384" xmlns="http://www.w3.org/2000/svg"><defs><clipPath><rect width="384" height="384"/></clipPath><clipPath><rect width="384" height="384"/></clipPath><clipPath><rect width="384" height="384"/></clipPath><clipPath><rect width="384" height="384"/></clipPath><clipPath><rect width="384" height="384"/></clipPath><clipPath><rect width="384" height="384"/></clipPath><clipPath><rect width="384" height="384"/></clipPath></defs><g stroke-width=".28297"><path d="m204.13 362.59c-8.1141-14.094-14.171-24.236-21.597-36.165l-4.766-7.6557 10.603-32.352c5.8316-17.793 10.747-32.526 10.924-32.738 0.17661-0.2128 0.67189-0.3869 1.1007-0.3869 0.61229 0 1.1851 0.4531 2.6696 2.1117 5.4497 6.0891 10.826 8.4559 34.824 15.331 4.669 1.3375 8.7267 2.5566 9.017 2.7091 0.72183 0.3792 10.502 8.0517 10.947 8.5878 0.29313 0.3532 0.25641 0.568-0.20456 1.1968-1.7534 2.3918-13.305 19.557-18.13 26.941-10.18 15.578-22.342 35.041-30.46 48.742-1.8211 3.0738-3.4276 5.5887-3.5699 5.5887-0.14234 0-0.75365-0.8595-1.3585-1.9101zm-31.354-51.603c-4.6462-7.1816-10.421-15.879-14.583-21.964-2.4804-3.6261-4.5731-6.7579-4.6505-6.9595-0.0826-0.2154 0.50639-0.8123 1.4277-1.4468 1.9117-1.3167 3.0166-2.5432 4.0402-4.4849 0.70676-1.3407 0.78061-1.7661 0.81026-4.6676 0.0179-1.7559 0.0935-3.2534 0.16791-3.3277 0.23021-0.2303 25.537-1.5139 25.753-1.3062 0.22753 0.2194-10.458 46.451-10.827 46.845-0.13122 0.14-1.0795-1.0524-2.1378-2.6883zm86.908-33.068c-0.96318-1.0054-0.82142-1.276 0.53511-1.0215 1.2598 0.2364 1.5107 0.642 0.8227 1.33-0.53466 0.5347-0.55423 0.5302-1.3578-0.3085zm-164.75-68.513c-3.0841-3.1272-7.2946-7.2278-9.3568-9.1125-2.0622-1.8847-3.7494-3.6165-3.7494-3.8485 0-0.23201 2.2657-2.7211 5.0348-5.5313 2.7692-2.8103 6.8044-7.0196 8.9672-9.3542 2.1628-2.3345 4.0714-4.2803 4.2412-4.3241 0.16983-0.044 1.2599 0.974 2.4224 2.2617 3.7048 4.1039 12.489 13.57 15.199 16.379 1.4406 1.4932 2.6193 2.8984 2.6193 3.1226 0 0.22429-0.95888 1.0935-2.1308 1.9316-3.9181 2.8022-7.4131 6.9514-9.7193 11.539-0.6064 1.2061-1.0874 1.808-1.5218 1.9043-0.51629 0.1145-5.7826 0.7182-6.2647 0.7182-0.0737 0-2.6572-2.5586-5.7413-5.6857zm227.26-7.2603c-0.52113-2.3138-0.82934-3.2023-1.7346-4.9999-0.54729-1.0868-1.6173-2.9791-2.3777-4.2052-0.76044-1.2261-1.3826-2.4046-1.3826-2.6189 0-0.3558 3.6037-2.6783 4.1559-2.6783 0.13039 0 2.2072 1.9733 4.6152 4.3851l4.3782 4.385-0.8445 0.8276c-1.8805 1.843-6.218 5.6828-6.4193 5.6828-0.11842 0-0.29415-0.3502-0.39052-0.7782zm-96.413-54.682c-0.20132-4.0037-0.70511-5.422-2.6178-7.3694l-1.2608-1.2838 6.2239-29.702c7.0233-33.517 6.7778-32.39 7.0573-32.39 0.11373 0 1.2067 1.5599 2.4288 3.4664 7.2638 11.332 19.726 29.494 28.008 40.819 2.0487 2.8015 3.7996 5.2229 3.891 5.3811 0.0913 0.1582 0.0447 0.92219-0.10355 1.6978-0.14827 0.77569-0.45966 2.7449-0.69198 4.3761-0.23229 1.6311-0.51393 3.0551-0.62586 3.1644-0.11196 0.10929-1.0312 0-2.0428-0.2367-3.678-0.87051-8.9968 0.015-13.441 2.2379-0.93379 0.4671-4.0841 2.1761-7.0006 3.7977l-5.3028 2.9485-3.115 0.27339c-1.7133 0.1503-3.5991 0.4401-4.1907 0.6439-1.6199 0.55811-3.5404 1.9895-5.2018 3.877-0.81937 0.93079-1.5693 1.6924-1.6666 1.6924-0.0973 0-0.2536-1.5272-0.34746-3.3938zm-16.753-6.4478c-0.31127-0.064-0.94796-0.47241-1.4149-0.90771-2.1656-2.0191-5.3492-2.7291-8.2065-1.8304-1.2616 0.39679-1.7232 0.4368-2.0836 0.18039-3.4697-2.4688-6.7389-2.605-10.266-0.42759-1.2792 0.78949-1.7614 0.94989-2.2832 0.7593-0.36381-0.1329-7.3091-6.9717-15.434-15.197-12.806-12.964-14.735-15.026-14.488-15.488 0.15666-0.29271 1.7511-2.6417 3.5433-5.22 15.991-23.005 34.476-52.61 45.54-72.933 0.91269-1.6765 1.7954-3.0036 1.9615-2.949 0.1661 0.055 1.2982 1.9357 2.5157 4.1802 5.1138 9.4272 12.872 22.762 19.786 34.009l3.09 5.0266-10.247 34.448c-5.6356 18.946-10.36 34.849-10.499 35.339-0.27111 0.9587-0.62274 1.1932-1.5144 1.0102z" fill="#252121" opacity=".3"/><path d="m204.13 355.09c-8.1141-14.094-14.171-24.236-21.597-36.165l-4.766-7.6557 10.603-32.352c5.8316-17.793 10.747-32.526 10.924-32.738 0.17661-0.2128 0.67189-0.3869 1.1007-0.3869 0.61229 0 1.1851 0.4531 2.6696 2.1117 5.4497 6.0891 10.826 8.4559 34.824 15.331 4.669 1.3375 8.7267 2.5566 9.017 2.7091 0.72183 0.3792 10.502 8.0517 10.947 8.5878 0.29313 0.3532 0.2564 0.568-0.20456 1.1968-1.7534 2.3918-13.305 19.557-18.13 26.941-10.18 15.578-22.342 35.041-30.46 48.742-1.8211 3.0738-3.4276 5.5887-3.5699 5.5887-0.14234 0-0.75364-0.8595-1.3585-1.9101zm-31.354-51.603c-4.6462-7.1816-10.421-15.879-14.583-21.964-2.4804-3.6261-4.5731-6.7579-4.6505-6.9595-0.0826-0.2154 0.50639-0.8123 1.4277-1.4468 1.9117-1.3167 3.0166-2.5432 4.0402-4.4849 0.70676-1.3407 0.78061-1.7661 0.81026-4.6676 0.0179-1.7559 0.0935-3.2534 0.16791-3.3277 0.23021-0.2303 25.537-1.5139 25.753-1.3062 0.22753 0.2194-10.458 46.451-10.827 46.845-0.13122 0.14-1.0795-1.0524-2.1378-2.6883zm86.908-33.068c-0.96318-1.0054-0.82141-1.276 0.53512-1.0215 1.2598 0.2364 1.5107 0.642 0.82269 1.33-0.53465 0.5347-0.55423 0.5302-1.3578-0.3085zm-164.75-68.513c-3.0841-3.1272-7.2946-7.2278-9.3568-9.1125-2.0622-1.8847-3.7494-3.6165-3.7494-3.8485s2.2657-2.7211 5.0348-5.5313c2.7692-2.8103 6.8044-7.0196 8.9672-9.3542 2.1628-2.3345 4.0714-4.2803 4.2412-4.3241 0.16983-0.044 1.2599 0.974 2.4224 2.2617 3.7048 4.1039 12.489 13.57 15.199 16.379 1.4406 1.4932 2.6193 2.8984 2.6193 3.1226 0 0.2243-0.95888 1.0935-2.1308 1.9316-3.9181 2.8022-7.4131 6.9514-9.7193 11.539-0.6064 1.2061-1.0874 1.808-1.5218 1.9043-0.51629 0.1145-5.7826 0.7182-6.2647 0.7182-0.0737 0-2.6572-2.5586-5.7413-5.6857zm227.26-7.2603c-0.52112-2.3138-0.82933-3.2023-1.7346-4.9999-0.54729-1.0868-1.6173-2.9791-2.3777-4.2052-0.76043-1.2261-1.3826-2.4046-1.3826-2.6189 0-0.3558 3.6037-2.6783 4.1559-2.6783 0.1304 0 2.2072 1.9733 4.6152 4.3851l4.3782 4.385-0.8445 0.8276c-1.8805 1.843-6.218 5.6828-6.4193 5.6828-0.11843 0-0.29415-0.3502-0.39053-0.7782zm-96.413-54.682c-0.20131-4.0037-0.70511-5.422-2.6178-7.3694l-1.2608-1.2838 6.2239-29.702c7.0233-33.517 6.7778-32.39 7.0572-32.39 0.11373 0 1.2067 1.5599 2.4288 3.4664 7.2638 11.332 19.726 29.494 28.008 40.819 2.0487 2.8015 3.7996 5.2229 3.891 5.3811 0.0913 0.1582 0.0447 0.9222-0.10354 1.6978-0.14828 0.7757-0.45966 2.7449-0.69198 4.3761-0.23229 1.6311-0.51393 3.0551-0.62587 3.1644-0.11195 0.1093-1.0312 0-2.0428-0.2367-3.678-0.8705-8.9968 0.015-13.441 2.2379-0.9338 0.4671-4.0841 2.1761-7.0006 3.7977l-5.3028 2.9485-3.115 0.2734c-1.7133 0.1503-3.5991 0.4401-4.1907 0.6439-1.6199 0.5581-3.5404 1.9895-5.2018 3.877-0.81937 0.9308-1.5693 1.6924-1.6666 1.6924-0.0973 0-0.2536-1.5272-0.34746-3.3938zm-16.753-6.4478c-0.31127-0.064-0.94796-0.4724-1.4149-0.9077-2.1656-2.0191-5.3492-2.7291-8.2065-1.8304-1.2616 0.3968-1.7232 0.4368-2.0836 0.1804-3.4697-2.4688-6.7389-2.605-10.266-0.4276-1.2792 0.7895-1.7614 0.9499-2.2832 0.7593-0.3638-0.1329-7.3091-6.9717-15.434-15.197-12.806-12.964-14.735-15.026-14.488-15.488 0.15666-0.2927 1.7511-2.6417 3.5433-5.22 15.991-23.005 34.476-52.61 45.54-72.933 0.91269-1.6765 1.7954-3.0036 1.9615-2.949 0.1661 0.055 1.2982 1.9357 2.5157 4.1802 5.1138 9.4272 12.872 22.762 19.786 34.009l3.09 5.0266-10.247 34.448c-5.6356 18.946-10.36 34.849-10.499 35.339-0.27111 0.9587-0.62273 1.1932-1.5144 1.0102z" fill="#951212"/><path d="m141.54 275.82c-2.1396-0.6277-12.093-4.9602-30.179-13.136l-6.2674-2.8333-3.9967 0.793c-3.8368 0.7613-4.0471 0.8395-5.2573 1.9551-1.3652 1.2584-2.3253 1.4687-3.0448 0.66689-1.1097-1.2367-0.73165-4.1965 0.79095-6.1927 1.4682-1.9249 2.1625-1.3559-17.696-14.502-9.8828-6.5423-18.626-12.471-19.429-13.176-0.95474-0.837-1.6316-1.7285-1.9547-2.5745-0.45646-1.1952-0.45976-1.3663-0.0431-2.24 1.2332-2.586 6.024-4.1526 10.843-3.5455 2.1658 0.2728 4.9604 1.313 29.217 10.874 7.3686 2.9045 13.544 5.2313 13.724 5.1707 0.1797-0.061 0.46495 0.077 0.63389 0.3067 0.16894 0.2293 1.3056 0.817 2.5258 1.3061 1.2202 0.4891 2.264 1.0253 2.3194 1.1916 0.30113 0.9034-4.909 5.8712-10.953 10.444-3.8143 2.8857-3.5261 2.643-3.3486 2.8205 0.0778 0.078 2.0409-0.9556 4.3625-2.2963 12.661-7.3119 21.033-11.909 31.635-17.37l6.6274-3.4141 2e-3 -3.3156c7.5e-4 -2.4398 0.1577-3.9135 0.59119-5.5793 0.65254-2.5077 3.2412-7.9981 4.0434-8.576 0.28233-0.20331 0.51333-0.53111 0.51333-0.72821 0-0.1972-1.4304-1.3678-3.1787-2.6015-1.7483-1.2336-4.7089-3.4679-6.5791-4.965-5.8052-4.6473-18.058-17.549-41.958-44.18-14.407-16.052-18.59-21.054-22.683-27.118-4.2934-6.3611-5.5891-9.9493-5.867-16.248-0.42739-9.6854 2.7994-20.683 7.6525-26.081 1.6222-1.8043 5.1243-4.2324 7.1121-4.9311 5.8788-2.0662 16.286-0.9995 21.574 2.2112 6.4333 3.9063 13.329 9.5615 42.371 34.748 26.376 22.874 33.242 28.723 33.703 28.709 0.1396 0 1.0136-0.5812 1.9423-1.2823 1.3627-1.0289 1.8385-1.2419 2.4661-1.1041 0.65083 0.143 1.3578-0.229 4.3352-2.281 3.2363-2.2305 4.6481-2.8222 4.231-1.7733-0.0797 0.2004-1.7264 1.444-3.6594 2.7635-2.3241 1.5865-3.5696 2.6186-3.6771 3.0472-0.0895 0.3565-0.79635 1.1034-1.5708 1.6598-0.77447 0.5564-1.4081 1.1178-1.4081 1.2475 0 0.3723 2.0628 1.9749 2.542 1.9749 0.23773 0 2.256-1.2177 4.4851-2.7059 3.3165-2.2142 4.1902-2.6768 4.809-2.546 0.61945 0.131 1.3828-0.2751 4.2224-2.2461 1.9064-1.3233 3.6573-2.406 3.8908-2.406 1.1032 0 0.12746 1.0156-3.1381 3.2662-2.3851 1.6438-3.6519 2.7023-3.8325 3.2024-0.18387 0.5091-1.4108 1.5133-3.8516 3.1524-1.97 1.3229-3.6221 2.5396-3.6714 2.7038-0.0798 0.2659 11.927 10.279 16.011 13.352 2.0078 1.5109 3.1689 1.9301 4.0572 1.4648 2.2076-1.1564 9.069-5.5253 9.2612-5.8969 0.12711-0.2458 0.31325-3.2483 0.41364-6.6722 0.10041-3.424 0.26847-7.3714 0.37344-8.7721 0.1735-2.3147 0.20859-2.4307 0.38481-1.2734 0.10665 0.7004 0.2876 4.3454 0.40209 8.1 0.11445 3.7547 0.31176 6.9943 0.43843 7.1993 0.17276 0.2795 1.8084-0.5829 6.5469-3.4521l6.3166-3.8246 0.54908-1.5158c0.54283-1.4986 2.5528-3.9601 3.2337-3.9601 0.39661 0 0.0922 0.4347-1.1734 1.6755-1.4102 1.3826-2.6503 5.7705-1.8898 6.6868 0.27275 0.3286 0.28062 0.5133 0.0325 0.7614-0.58134 0.5814-0.19861 4.7378 0.45636 4.9561 0.13635 0.045 0.19256 0.4598 0.12489 0.9208-0.20548 1.4002 2.3768 8.3179 3.3234 8.9029 0.45411 0.2807 5.1656-4.6662 4.9537-5.2013-0.76248-1.9258-1.8273-5.4866-1.954-6.5344-0.15309-1.2662-0.1515-1.2646 0.2805 0.283 1.0298 3.6889 1.8885 5.9424 2.2645 5.9424 0.21585 0 1.6097-0.9515 3.0974-2.1145 3.0182-2.3592 5.5127-3.8896 8.7314-5.3563 1.446-0.659 2.1639-1.1438 2.1639-1.4614 0-0.3825 0.0798-0.4089 0.40933-0.1354 0.32214 0.2673 0.90981 0.2162 2.759-0.2401 1.2923-0.3189 3.241-0.718 4.3304-0.8869 1.0894-0.1689 2.0818-0.4072 2.2051-0.5297 0.12336-0.1224-0.25866-1.2294-0.84891-2.4601l-1.0732-2.2376-4.6045-0.034c-2.5878-0.019-4.676 0.082-4.7679 0.2306-0.093 0.1505-0.3646 0.094-0.63047-0.1318-0.25691-0.2179-1.2108-0.5676-2.1197-0.7772-2.0933-0.4826-4.0716-1.7136-4.3155-2.6853-0.10105-0.4027-0.12976-0.7861-0.0638-0.852 0.066-0.066 0.94081-0.3466 1.944-0.6235 1.5093-0.4167 2.8985-0.4994 8.0495-0.4789 6.1982 0.025 6.2421 0.029 10.045 1.0341 4.3094 1.1387 8.0647 1.5021 8.0647 0.7805 0-0.3161-0.50581-0.4802-1.9808-0.6429-1.0894-0.1201-3.2616-0.5854-4.827-1.034-1.5654-0.4486-3.571-0.9061-4.4568-1.0168-1.7861-0.2232-1.886-0.4064-1.3244-2.4281 0.35666-1.284 1.1341-1.9951 2.4153-2.2094 2.5247-0.4222 0.32822-1.3922-3.2674-1.4429-1.9436-0.027-2.2695-0.09-1.6978-0.3261 1.1166-0.4613 3.9656-0.3825 5.5708 0.1541 2.0879 0.6979 4.5236 2.356 7.1581 4.873 2.1588 2.0625 2.3189 2.1602 3.0173 1.842l0.73756-0.3361-0.24675-5.437c-0.3766-8.2984-0.12779-11.536 1.3641-17.746 1.0371-4.3176 1.8303-4.9284 3.433-2.6436 0.82008 1.1692 0.82616 1.2084 0.9698 6.2254 0.21872 7.6404-0.42446 12.11-2.3217 16.133-0.52627 1.116-0.89125 2.0946-0.8111 2.1748 0.0801 0.08-0.0583 0.4369-0.30762 0.7929-0.24932 0.3559-0.45332 1.0009-0.45332 1.4331 0 0.4551-0.15443 0.786-0.36685 0.786-0.25923 0-0.37259 0.5187-0.38651 1.7686-0.0108 0.9727-0.0686 2.0869-0.12835 2.476-0.0838 0.5455 0.015 0.7074 0.43169 0.7074 0.38887 0 0.62944-0.3173 0.85783-1.1313l0.31741-1.1313 0.90692 1.3182c0.4988 0.725 1.4299 1.7658 2.0691 2.313l1.1622 0.9947-0.83338 0.431c-1.0418 0.5388-2.6859 2.3803-2.4564 2.7516 0.10037 0.1624 0.7033-0.02 1.4567-0.4414 0.70701-0.3951 1.4286-0.7136 1.6035-0.7077 0.17497 0.01 0.64716 0.4834 1.0494 1.0611 0.40218 0.5777 2.6306 3.1974 4.952 5.8215 7.4172 8.3843 8.8705 10.123 12.806 15.32 6.488 8.5678 12.779 18.338 12.779 19.846 0 1.2615-2.2902-0.48-8.0252-6.1024-9.012-8.8351-18.411-20.298-21.305-25.982-0.57434-1.1284-1.132-2.0516-1.2393-2.0516-0.10724 0-0.26704 1.0506-0.35504 2.3346-0.19754 2.8817-0.77979 4.835-1.9739 6.6218-0.75618 1.1314-1.9913 2.0918-7.0419 5.4752-3.3687 2.2567-7.4731 4.9158-9.121 5.9092-2.7775 1.6743-3.0653 1.9325-3.9445 3.5371-0.69719 1.2726-1.3025 1.9507-2.2857 2.5605-1.2139 0.75291-1.5533 0.8266-3.6756 0.7975-2.1503-0.029-2.473 0.043-4.0152 0.9045-0.92238 0.5151-1.6635 1.1182-1.647 1.3403 0.0164 0.2221 2.5062 3.5166 5.5326 7.3211 7.5487 9.4896 6.9236 8.5519 6.2848 9.4284-0.29076 0.39889-0.73887 0.7293-0.99584 0.73419-0.46707 0.01-2.9794-2.6928-3.5965-3.8676-0.26124-0.4973-0.22906-0.82749 0.16019-1.6438 0.59863-1.2553 0.29435-1.5401-1.4367-1.345-1.18 0.13301-1.1908 0.1257-2.9753-2.0317-1.4515-1.7548-1.7584-2.2968-1.619-2.8595 0.0946-0.38179 0.24898-1.0049 0.34315-1.3845 0.13298-0.53629-0.12337-1.0732-1.1484-2.4053-0.72579-0.9432-1.503-1.715-1.7271-1.715-0.69082 0-4.9247 2.3828-4.9305 2.7748-7e-3 0.48371 13.457 17.186 14.815 18.379 1.1342 0.9959 1.4399 1.0691 2.6084 0.6248 0.65811-0.2502 0.87772-0.1916 1.504 0.401 1.2956 1.226 6.6786 4.4702 18.702 11.271 27.346 15.468 34.297 19.25 32.4 17.627-1.1074-0.9477-26.707-17.166-27.369-17.339-0.27864-0.073-0.69082 0.02-0.91598 0.2073-0.85984 0.7136-1.5601 0.075-2.2404-2.0415-0.19477-0.6061-0.98327-0.6524-1.2064-0.071-0.43676 1.1383-2.0831-0.097-2.0831-1.5627 0-0.4011-0.13135-0.8607-0.29186-1.0212-0.20051-0.2005-0.0379-0.2546 0.51948-0.1728 0.59056 0.087 1.8241-0.3884 4.5324-1.7455 2.0466-1.0255 3.9794-1.8646 4.2951-1.8646s2.2439-0.8368 4.285-1.8596c2.4846-1.245 3.8049-1.7656 3.9951-1.5753 0.55086 0.5508-0.0344 1.0463-3.2218 2.7275-1.7704 0.9338-3.6647 2.0904-4.2094 2.5702-0.54472 0.4799-1.9742 1.4103-3.1767 2.0677-1.2025 0.6573-2.2605 1.3152-2.3512 1.462-0.2321 0.3756-0.0693 0.3414 1.4248-0.299 0.72616-0.3113 1.6493-0.566 2.0514-0.566 0.40215 0 2.318-0.835 4.2575-1.8556 1.9395-1.0206 3.701-1.7886 3.9144-1.7067 0.96145 0.3689 0.21746 1.08-2.7954 2.6717-3.4021 1.7974-5.8617 3.5944-5.8666 4.2863-3e-3 0.3921 5.194 3.7112 27.726 17.708 8.4917 5.2749 10.753 7.1802 10.753 9.0604 0 2.9327-3.6017 5.9375-10.301 8.5937-2.8397 1.126-16.67 5.2075-20.402 6.0206-2.3815 0.519-3.7038 0.6149-8.3476 0.6054-4.8173-0.01-6.0205-0.1091-9.476-0.7812-8.3418-1.6226-29.447-7.3087-49.562-13.353-8.1093-2.4365-14.275-5.1787-16.976-7.5499-1.199-1.0528-6.1847-6.7411-13.797-15.741-4.7078-5.5662-5.5675-6.7208-5.4255-7.2865 0.0928-0.3697 0.10566-0.6722 0.0286-0.6722-0.077 0-1.9892 0.8284-4.2493 1.8408-8.9703 4.0183-39.773 16.416-51.769 20.835-1.8554 0.6836-3.4212 1.3865-3.4797 1.562-0.0585 0.1755 3.8236 3.443 8.6268 7.2612s9.2147 7.4752 9.8034 8.1267c1.1924 1.3199 1.8641 2.7029 1.8641 3.8385 0 0.9413-1.4857 2.3966-3.499 3.4275-1.7368 0.8893-5.1859 1.1455-7.2539 0.5388zm133.56-4.2876c0-0.2462-1.6546-0.8939-17.633-6.9031l-15.227-5.7269-1.5706 0.9436c-1.4159 0.8506-2.0465 1.4905-1.7542 1.7801 0.0905 0.09 29.462 8.3925 33.921 9.5888 1.7396 0.4668 2.2638 0.5403 2.2638 0.3175zm-36.076-11.515c1.1064-0.5456 1.8211-1.0693 1.7739-1.2998-0.0441-0.2155-2.9487-1.5024-6.5712-2.9115-6.9014-2.6846-7.4049-2.9329-12.066-5.9519-1.6472-1.0669-3.1752-1.9309-3.3957-1.92-0.67831 0.033-6.9106 3.2165-6.8868 3.5174 0.0322 0.40751 3.8805 2.389 8.4668 4.3596 3.6599 1.5725 14.737 5.0626 16.195 5.1026 0.34721 0.01 1.4652-0.3938 2.4843-0.8964zm-24.805-11.02c1.9223-0.6528 3.5583-1.3513 3.6354-1.5524 0.0772-0.201-0.5003-0.9736-1.2832-1.7168-1.2522-1.1887-2.0582-2.6022-6.6984-11.747-2.9012-5.7175-5.372-10.456-5.4907-10.529-0.35988-0.2224-11.342 5.8961-11.343 6.3197 0 0.406 1.7501 2.6214 8.715 11.024 5.8929 7.1092 7.9482 9.3812 8.4899 9.3848 0.26379 0 2.0524-0.5309 3.9747-1.1836zm-62.846-23.531c3.5394-1.7631 9.0775-4.4641 12.307-6.0023 3.2294-1.5381 5.8717-2.9607 5.8717-3.1613 0-0.20051-0.051-0.36461-0.11334-0.36461-0.38617 0-16.145-2.5735-17.168-2.8035-0.68949-0.1552-1.8128-0.47989-2.4962-0.72159-0.94443-0.33411-1.3364-0.36171-1.6338-0.1149-0.21519 0.17859-1.0771 1.6948-1.9154 3.3694-1.8913 3.7781-2.5359 6.4527-2.3736 9.8486 0.1167 2.4405 0.30195 3.1557 0.8175 3.1557 0.14775 0 3.1645-1.4425 6.7039-3.2055zm33.351-15.945c6.6035-3.0626 11.961-5.7049 11.906-5.8717s-0.91757-0.33129-1.9168-0.36549c-5.6309-0.1927-15.819-0.7081-18.5-0.93591-2.489-0.2115-3.2146-0.1872-3.6786 0.1233-1.2231 0.81861-11.336 10.112-11.42 10.496-0.0513 0.2316 0.1905 0.47 0.56595 0.5582 1.6192 0.37999 8.9693 1.5173 9.9496 1.5395 0.84855 0.019 3.7296-1.2005 13.094-5.5436zm-23.481 0.7221c4.7391-3.3631 7.3313-5.4306 6.9628-5.5534-0.16254-0.054-1.6136 0.63131-3.2245 1.5234-3.3945 1.8798-6.7688 3.3775-10.074 4.4714-2.3906 0.79119-2.8225 1.1588-1.694 1.4421 0.77399 0.19419 3.2819 0.6194 3.9266 0.6656 0.25521 0.018 2.1016-1.1288 4.1031-2.5491zm-9.1624-0.8271c5.8748-1.3027 17.765-6.002 17.978-7.1051 0.0723-0.3756-0.41679-0.5154-2.8273-0.80841-10.833-1.3165-15.104-3.4965-17.896-9.1355-0.70929-1.432-2.1221-4.5137-3.1396-6.8483-1.0175-2.3345-2.3028-5.0086-2.8563-5.9424-1.5332-2.5865-3.8726-5.7789-4.3511-5.9373-0.54587-0.1808-18.39 11.58-18.39 12.121 0 0.52661 8.3512 9.4146 11.25 11.974 2.6079 2.3018 12.663 10.358 14.353 11.501 1.3768 0.93039 2.3656 0.96099 5.8797 0.1817zm15.466-10.914c3.7915-2.0835 6.0369-4.5708 7.3824-8.1774 1.4296-3.8321 2.8367-5.6335 5.4362-6.9597 1.4424-0.73579 3.059-0.6144 5.4949 0.4128 1.8838 0.7944 2.3149 0.72071 1.657-0.28339-0.25172-0.38421-0.4178-0.80691-0.36909-0.93951 0.2319-0.6309 7.105-6.0654 8.8052-6.9621 1.5555-0.8204 1.8631-1.0903 1.6015-1.4055-0.17805-0.2145-0.59874-0.47379-0.93486-0.5762-1.7038-0.519-10.143-3.9375-13.108-5.3096-1.8593-0.86051-4.3442-1.848-5.5219-2.1945l-2.1413-0.62991-14.043 9.2719c-7.7238 5.0995-14.043 9.3903-14.043 9.535 0 0.6751 3.2385 7.9042 4.1136 9.1826 1.9682 2.8753 5.3745 4.6217 11.011 5.6456 2.7691 0.5031 2.5918 0.52629 4.6598-0.61011zm23.51-10.28c1.4781-1.0005 1.6182-1.0241 2.3181-0.39069 0.49219 0.4455 0.62323 0.426 2.1986-0.327 1.7244-0.82411 3.2088-2.1863 5.4914-5.0389 1.2513-1.5638 1.3108-1.7201 1.3108-3.4459 0-1.619-0.0784-1.8694-0.75064-2.3982-0.41283-0.3247-0.81287-0.52819-0.88893-0.4521-0.0761 0.076-0.11434 1.1322-0.0851 2.3469 0.0482 1.9997-0.0223 2.3211-0.74472 3.3968-2.1787 3.244-5 5.1922-6.3228 4.366-0.88791-0.55449-1.1641-0.41899-3.3756 1.6553-2.1469 2.0138-1.8498 2.1145 0.84891 0.28779zm47.539-1.2955c0-0.4375-0.95866-1.0626-1.2234-0.7978-0.22344 0.22339 0.74208 1.4882 1.0112 1.3246 0.11671-0.071 0.21223-0.3081 0.21223-0.5268zm-14.644-0.1431c1.4528-0.079 11.218-7.6138 11.656-8.9938 0.0918-0.2892-0.33767-1.6649-0.9876-3.1633-2.0146-4.6451-3.2653-10.301-3.0572-13.827 0.13122-2.2237 0.65961-2.4337-9.521 3.7851-12.105 7.3941-13.724 8.4292-13.724 8.7712 0 0.2292 0.82434 0.56541 2.1557 0.8793 2.8489 0.6716 2.2315 0.822-1.0777 0.26241-4.3248-0.73131-5.5228-1.4859-14.608-9.2008-6.7325-5.7171-8.1183-6.777-8.6769-6.6369-0.83206 0.2089-1.8457-0.7233-1.8457-1.6974 0-1.0246-2.599-3.0273-3.6548-2.8161-0.95193 0.1904-1.7217-0.4778-1.7217-1.4945 0-0.3988-0.34045-1.0447-0.77817-1.4762-0.78234-0.7713-38.986-32.966-56.665-47.751-15.165-12.683-16.704-13.875-19.927-15.425-1.5687-0.7544-3.1323-1.3735-3.4747-1.3757-0.34238 0-1.3611 0.4413-2.2638 0.9856s-1.8098 0.99-2.0158 0.9904c-0.20601 3e-4 -1.0146-0.6996-1.797-1.5556l-1.4224-1.5564h-1.7402c-3.0456 0-5.2856 0.5021-7.7231 1.7184-1.2674 0.6324-2.6044 1.4779-2.9712 1.8788-0.77501 0.8472-0.95849 0.8772 2.8998-0.4739 1.3392-0.469 3.6506-1.0062 5.1365-1.1939l2.7016-0.3412 1.9757 1.7516c1.0866 0.9633 2.1384 1.7515 2.3374 1.7515 0.19895 0 1.3481-0.5782 2.5536-1.285l2.1919-1.285 1.6102 0.566c3.2607 1.146 1.9564 0.062 44.991 37.374 56.146 48.679 63.119 54.741 63.447 55.163 0.18951 0.2435 0.5475 1.0402 0.79552 1.7706 0.52953 1.5593 0.25388 1.4379 6.9246 3.0479 3.4994 0.84459 5.0589 1.0957 6.2254 1.0023 0.85599-0.068 1.779-0.1367 2.0513-0.1515zm-3.0835-4.2344c-0.33425-0.1348-0.68849-0.3759-0.78722-0.5356-0.0987-0.1598-0.36807-0.2181-0.59853-0.12969-0.23044 0.088-0.60277 0.01-0.82743-0.1782-0.22464-0.18641-0.54138-0.2568-0.70383-0.15641-0.16245 0.1004-0.45454 0.08-0.64908-0.046-0.19455-0.1259-0.598-0.2289-0.89658-0.2289-0.43174 0-0.68193-0.4564-1.2224-2.2299-0.37371-1.2265-0.57513-2.33-0.44754-2.4524 0.28142-0.2698 5.3596 0.9868 5.9426 1.4706 1.0356 0.8595 2.0109 3.7342 1.4827 4.3706-0.37322 0.4497-0.44945 0.4566-1.2927 0.1163zm-8.8718-4.8124c-0.31128-0.31119-0.56595-0.7728-0.56595-1.0257 0-0.3651 0.18408-0.42309 0.89268-0.2813 1.1187 0.2237 1.6541 0.65801 1.6541 1.3417 0 0.72799-1.2398 0.70629-1.9808-0.035zm24.336 9.0783c0-0.6501-0.39017-1.1551-0.89239-1.1551-0.53228 0-0.5335 0.021-0.0405 0.69859 0.5214 0.71631 0.93287 0.9177 0.93287 0.45651zm-0.83894-4.1143c-0.19926-0.24-0.54359-0.43641-0.76524-0.43641-0.3197 0-0.29792 0.1416 0.10537 0.6852 0.29679 0.3999 0.61533 0.58161 0.76523 0.43641 0.15301-0.1482 0.11041-0.42521-0.10536-0.6852zm-111.78-1.644c6.4089-3.203 14.391-7.6164 14.557-8.0487 0.14823-0.38631-2.9683-4.1623-3.6518-4.4246-0.47031-0.1805-19.424 10.515-19.607 11.065-0.15201 0.456 2.9963 3.749 3.5806 3.7452 0.24866 0 2.5532-1.0531 5.1212-2.3365zm30.117-4.4313c9.0544-4.4903 20.251-10.676 20.251-11.188 0-0.4051-0.0857-0.4285-7.3573-2.0072-5.9996-1.3025-9.6324-2.3585-13.627-3.9609-4.603-1.8465-11.658-5.406-16.834-8.4942-2.4595-1.4672-4.6574-2.6677-4.8843-2.6677-0.64742 0-9.081 5.3706-9.081 5.7829 0 0.2028 1.6236 1.8135 3.6079 3.5793 9.1995 8.1865 16.278 16.131 19.37 21.739 0.26513 0.48081 0.63856 0.8743 0.82989 0.8743 0.19131 0 3.6672-1.6462 7.7241-3.6581zm-35.635-1.3011c5.9092-2.4596 14.912-6.6107 15.422-7.111 0.37571-0.36859 0.0344-0.7969-2.9712-3.7291-1.8676-1.822-5.9424-5.53-9.0551-8.2401-3.1127-2.7101-6.3203-5.5407-7.1281-6.2904-0.80776-0.7497-1.6991-1.3598-1.9808-1.3558-0.61319 0.01-16.265 9.9004-16.425 10.38-0.0944 0.2832 14.463 16.516 16.131 17.987 0.68008 0.59991 0.5188 0.6439 6.0079-1.6408zm-14.433-22.902c4.5668-2.3051 7.9571-4.182 8.0052-4.4319 0.0955-0.4959-17.835-17.035-18.616-17.171-0.57972-0.1011-13.865 8.552-13.865 9.0308 0 0.6546 8.7865 10.998 13.231 15.576 1.4907 1.5353 1.5895 1.5879 2.4381 1.2977 0.48647-0.1663 4.4493-2.1017 8.8062-4.3008zm21.897-1.9181c2.5488-1.2861 4.6869-2.4753 4.7512-2.6429 0.0643-0.1675-0.75279-1.1899-1.8158-2.272-3.4595-3.5218-6.3103-8.3788-10.695-18.222-1.352-3.0349-2.8768-6.3498-3.3883-7.3666-3.1704-6.3019-10.593-13.049-19.679-17.889-4.7648-2.5378-9.1381-3.7196-17.107-4.6224-3.5178-0.3986-4.2067-0.411-4.5287-0.081-0.81376 0.8332-2.4507 12.612-1.9652 14.142 0.13396 0.4221 0.44162 0.5371 1.4361 0.5371 0.69607 0 1.738 0.2426 2.3154 0.5391 2.0071 1.0307 12.867 10.577 31.894 28.035 11.022 10.114 13.354 12.173 13.789 12.177 0.19751 0 2.4445-1.0485 4.9934-2.3345zm-44.881-13.976c3.5747-1.7922 9.7994-5.1674 10.747-5.8274 0.42799-0.2981 0.77817-0.6438 0.77817-0.7683 0-0.3525-12.45-11.395-16.268-14.429-2.327-1.8492-3.0376-2.0466-4.4225-1.2285-1.0171 0.6008-1.7199 0.2664-1.9842-0.9442-0.30475-1.3957-0.23554-5.2043 0.15371-8.4589 0.20475-1.712 0.32765-3.1641 0.27311-3.2269-0.25876-0.298-1.0252 2.2861-1.5667 5.2825-0.45317 2.5074-0.60538 4.5338-0.62142 8.2728-0.0243 5.665 0.29111 7.7133 1.6339 10.612 1.5339 3.3105 7.6205 12.026 8.3985 12.026 0.14661 0 1.4419-0.5893 2.8784-1.3095zm197.23 90.13c-0.96452-0.6177-1.2766-1.0325-0.42446-0.564 0.64925 0.3568 1.6664 1.1434 1.4856 1.1488-0.0778 0-0.55534-0.2608-1.0611-0.5848zm-166.12-0.25039c0.0787-0.23341 0.7475-2.3323 1.4862-4.664 1.2062-3.8075 2.7508-7.5038 3.1355-7.5038 0.0796 0-0.0331 0.35019-0.25049 0.7782-0.53793 1.0593-3.015 8.4321-3.015 8.9738 0 0.2393 0.10422 0.435 0.23161 0.435s1.9419-1.861 4.0323-4.1355c5.4902-5.9739 8.9227-9.1835 10.892-10.185 1.4707-0.74779 1.6996-0.97609 1.8311-1.8269l0.15033-0.97241 0.20026 1.1319c0.3942 2.228 0.2937 2.6883-0.58702 2.6883-1.6993 0-4.9203 2.595-12.619 10.167-3.097 3.0459-5.5665 5.347-5.4878 5.1135zm7.7231-16.375c0.46691-0.5166 1.3583-1.3313 1.9808-1.8105 1.3257-1.0203 0.89892-0.56199-1.2734 1.3674-0.9035 0.8025-1.2002 0.98831-0.70743 0.4431zm3.2542-2.7322c0-0.2018 3.1085-2.2162 3.2227-2.0883 0.0558 0.062-0.64648 0.5871-1.5606 1.1658s-1.662 0.99381-1.662 0.9225zm3.8861-2.4342c0.19195-0.1934 0.42028-0.2804 0.5074-0.19319 0.0871 0.087-0.0699 0.2453-0.34901 0.35159-0.40328 0.15351-0.43579 0.121-0.15839-0.1584zm2.6128-0.11769c-0.24801-0.29891-0.61717-0.39311-1.1015-0.2813-0.5495 0.12699-0.62416 0.098-0.30397-0.1189 0.6385-0.43211 1.6936-0.35321 1.8832 0.1407 0.24189 0.6304-0.042 0.7845-0.47772 0.2595zm109.57-41.869c6e-3 -0.46689 0.0692-0.6236 0.14094-0.3483 0.0717 0.27531 0.067 0.6573-0.0105 0.84891-0.0775 0.19159-0.13624-0.034-0.13045-0.50061zm44.214-6.0904c-0.68522-0.2561-2.2981-2.0293-2.7521-3.0257-0.39049-0.857 0.0181-1.2178 3.2848-2.9008 1.7702-0.912 2.5171-1.1412 3.7191-1.1412 1.6717 0 1.8483 0.1848 1.8465 1.9332 0 1.4701-0.84864 2.6794-2.7122 3.8715-2.0343 1.3013-2.6595 1.5345-3.3861 1.263zm-41.864-4.238c-0.0962-0.1557 0.0948-0.283 0.42446-0.283 0.32963 0 0.52064 0.1273 0.42446 0.283-0.0962 0.1556-0.28719 0.2829-0.42446 0.2829-0.13728 0-0.32827-0.1273-0.42446-0.2829zm9.6275-5.061c0.48453-0.5025 7.4503-3.9941 7.9684-3.9941 0.26639 0-0.52762 0.5071-1.7645 1.127-1.2368 0.6199-2.4398 1.2394-2.6733 1.3768-0.9823 0.5782-3.7964 1.7661-3.5306 1.4903z" opacity=".1"/><path d="m141.54 268.32c-2.1396-0.6277-12.093-4.9602-30.179-13.136l-6.2674-2.8333-3.9967 0.793c-3.8368 0.7613-4.0471 0.8395-5.2573 1.9551-1.3652 1.2584-2.3253 1.4687-3.0448 0.6669-1.1097-1.2367-0.73165-4.1965 0.79095-6.1927 1.4682-1.9249 2.1625-1.3559-17.696-14.502-9.8828-6.5423-18.626-12.471-19.429-13.176-0.95474-0.837-1.6316-1.7285-1.9547-2.5745-0.45646-1.1952-0.45976-1.3663-0.0431-2.24 1.2332-2.586 6.024-4.1526 10.843-3.5455 2.1658 0.2728 4.9604 1.313 29.217 10.874 7.3686 2.9045 13.544 5.2313 13.724 5.1707 0.1797-0.061 0.46495 0.077 0.63389 0.3067 0.16894 0.2293 1.3056 0.817 2.5258 1.3061 1.2202 0.4891 2.264 1.0253 2.3194 1.1916 0.30113 0.9034-4.909 5.8712-10.953 10.444-3.8143 2.8857-3.5261 2.643-3.3486 2.8205 0.0778 0.078 2.0409-0.9556 4.3625-2.2963 12.661-7.3119 21.033-11.909 31.635-17.37l6.6274-3.4141 2e-3 -3.3156c1e-3 -2.4398 0.1577-3.9135 0.59119-5.5793 0.65254-2.5077 3.2412-7.9981 4.0434-8.576 0.28233-0.2033 0.51333-0.5311 0.51333-0.7282 0-0.1972-1.4304-1.3678-3.1787-2.6015-1.7483-1.2336-4.7089-3.4679-6.5791-4.965-5.8052-4.6473-18.058-17.549-41.958-44.18-14.406-16.052-18.59-21.054-22.683-27.118-4.2934-6.3611-5.5891-9.9493-5.867-16.248-0.42739-9.6854 2.7994-20.683 7.6525-26.081 1.6222-1.8043 5.1243-4.2324 7.1121-4.9311 5.8788-2.0662 16.286-0.9995 21.574 2.2112 6.4333 3.9063 13.329 9.5615 42.371 34.748 26.376 22.874 33.242 28.723 33.703 28.709 0.13961 0 1.0136-0.5812 1.9423-1.2823 1.3627-1.0289 1.8385-1.2419 2.4661-1.1041 0.65084 0.143 1.3578-0.229 4.3352-2.281 3.2364-2.2305 4.6481-2.8222 4.231-1.7733-0.0797 0.2004-1.7264 1.444-3.6594 2.7635-2.3241 1.5865-3.5696 2.6186-3.6771 3.0472-0.0895 0.3565-0.79634 1.1034-1.5708 1.6598s-1.4081 1.1178-1.4081 1.2475c0 0.3723 2.0628 1.9749 2.542 1.9749 0.23774 0 2.256-1.2177 4.4851-2.7059 3.3164-2.2142 4.1902-2.6768 4.809-2.546 0.61946 0.131 1.3828-0.2751 4.2224-2.2461 1.9064-1.3233 3.6573-2.406 3.8909-2.406 1.1032 0 0.12745 1.0156-3.1381 3.2662-2.3851 1.6438-3.6519 2.7023-3.8325 3.2024-0.18387 0.5091-1.4108 1.5133-3.8516 3.1524-1.97 1.3229-3.6221 2.5396-3.6714 2.7038-0.0798 0.2659 11.927 10.279 16.011 13.352 2.0078 1.5109 3.1689 1.9301 4.0572 1.4648 2.2076-1.1564 9.069-5.5253 9.2612-5.8969 0.12711-0.2458 0.31325-3.2483 0.41365-6.6722 0.1004-3.424 0.26846-7.3714 0.37344-8.7721 0.17349-2.3147 0.20858-2.4307 0.38481-1.2734 0.10665 0.7004 0.28759 4.3454 0.40208 8.1 0.11446 3.7547 0.31177 6.9943 0.43843 7.1993 0.17276 0.2795 1.8084-0.5829 6.5469-3.4521l6.3166-3.8246 0.54908-1.5158c0.54283-1.4986 2.5528-3.9601 3.2337-3.9601 0.39661 0 0.0922 0.4347-1.1734 1.6755-1.4102 1.3826-2.6503 5.7705-1.8898 6.6868 0.27275 0.3286 0.28062 0.5133 0.0325 0.7614-0.58134 0.5814-0.19862 4.7378 0.45635 4.9561 0.13636 0.045 0.19256 0.4598 0.1249 0.9208-0.20549 1.4002 2.3768 8.3179 3.3234 8.9029 0.45411 0.2807 5.1656-4.6662 4.9537-5.2013-0.76249-1.9258-1.8273-5.4866-1.954-6.5344-0.15309-1.2662-0.1515-1.2646 0.28051 0.283 1.0298 3.6889 1.8885 5.9424 2.2645 5.9424 0.21585 0 1.6097-0.9515 3.0974-2.1145 3.0182-2.3592 5.5127-3.8896 8.7313-5.3563 1.446-0.659 2.1639-1.1438 2.1639-1.4614 0-0.3825 0.0798-0.4089 0.40934-0.1354 0.32214 0.2673 0.90981 0.2162 2.759-0.2401 1.2923-0.3189 3.241-0.718 4.3304-0.8869s2.0817-0.4072 2.2051-0.5297c0.12335-0.1224-0.25866-1.2294-0.84891-2.4601l-1.0732-2.2376-4.6045-0.034c-2.5878-0.019-4.676 0.082-4.7679 0.2306-0.093 0.1505-0.36461 0.094-0.63046-0.1318-0.25691-0.2179-1.2108-0.5676-2.1197-0.7772-2.0933-0.4826-4.0716-1.7136-4.3155-2.6853-0.10105-0.4027-0.12977-0.7861-0.0638-0.852 0.066-0.066 0.9408-0.3466 1.944-0.6235 1.5093-0.4167 2.8985-0.4994 8.0495-0.4789 6.1982 0.025 6.2421 0.029 10.045 1.0341 4.3094 1.1387 8.0647 1.5021 8.0647 0.7805 0-0.3161-0.50581-0.4802-1.9808-0.6429-1.0894-0.1201-3.2616-0.5854-4.827-1.034-1.5654-0.4486-3.571-0.9061-4.4568-1.0168-1.7861-0.2232-1.8861-0.4064-1.3244-2.4281 0.35666-1.284 1.1341-1.9951 2.4153-2.2094 2.5247-0.4222 0.32822-1.3922-3.2674-1.4429-1.9436-0.027-2.2695-0.09-1.6978-0.3261 1.1166-0.4613 3.9656-0.3825 5.5708 0.1541 2.0879 0.6979 4.5236 2.356 7.1581 4.873 2.1588 2.0625 2.3189 2.1602 3.0173 1.842l0.73756-0.3361-0.24675-5.437c-0.3766-8.2984-0.12779-11.536 1.3641-17.746 1.0371-4.3176 1.8303-4.9284 3.433-2.6436 0.82008 1.1692 0.82616 1.2084 0.9698 6.2254 0.21871 7.6404-0.42446 12.11-2.3217 16.133-0.52627 1.116-0.89125 2.0946-0.81111 2.1748 0.0801 0.08-0.0583 0.4369-0.30762 0.7929-0.24932 0.3559-0.45332 1.0009-0.45332 1.4331 0 0.4551-0.15442 0.786-0.36684 0.786-0.25923 0-0.37259 0.5187-0.38651 1.7686-0.0108 0.9727-0.0686 2.0869-0.12836 2.476-0.0838 0.5455 0.015 0.7074 0.4317 0.7074 0.38886 0 0.62944-0.3173 0.85783-1.1313l0.31741-1.1313 0.90692 1.3182c0.4988 0.725 1.4299 1.7658 2.0691 2.313l1.1622 0.9947-0.83338 0.431c-1.0418 0.5388-2.6859 2.3803-2.4564 2.7516 0.10037 0.1624 0.7033-0.02 1.4567-0.4414 0.70701-0.3951 1.4286-0.7136 1.6035-0.7077 0.17497 0.01 0.64716 0.4834 1.0494 1.0611 0.40218 0.5777 2.6306 3.1974 4.952 5.8215 7.4172 8.3843 8.8705 10.123 12.806 15.32 6.488 8.5678 12.779 18.338 12.779 19.846 0 1.2615-2.2902-0.48-8.0252-6.1024-9.012-8.8351-18.411-20.298-21.305-25.982-0.57434-1.1284-1.132-2.0516-1.2393-2.0516-0.10724 0-0.26704 1.0506-0.35504 2.3346-0.19754 2.8817-0.77979 4.835-1.9739 6.6218-0.75618 1.1314-1.9913 2.0918-7.0419 5.4752-3.3687 2.2567-7.4731 4.9158-9.121 5.9092-2.7775 1.6743-3.0653 1.9325-3.9445 3.5371-0.69719 1.2726-1.3025 1.9507-2.2857 2.5605-1.2139 0.7529-1.5533 0.8266-3.6756 0.7975-2.1503-0.029-2.473 0.043-4.0152 0.9045-0.92238 0.5151-1.6635 1.1182-1.647 1.3403 0.0164 0.2221 2.5062 3.5166 5.5326 7.3211 7.5487 9.4896 6.9236 8.5519 6.2848 9.4284-0.29076 0.3989-0.73887 0.7293-0.99584 0.7342-0.46707 0.01-2.9794-2.6928-3.5965-3.8676-0.26124-0.4973-0.22906-0.8275 0.16019-1.6438 0.59863-1.2553 0.29435-1.5401-1.4367-1.345-1.18 0.133-1.1908 0.1257-2.9753-2.0317-1.4515-1.7548-1.7584-2.2968-1.619-2.8595 0.0946-0.3818 0.24899-1.0049 0.34316-1.3845 0.13297-0.5363-0.12338-1.0732-1.1484-2.4053-0.72579-0.9432-1.503-1.715-1.7271-1.715-0.69082 0-4.9247 2.3828-4.9305 2.7748-7e-3 0.4837 13.457 17.186 14.815 18.379 1.1342 0.9959 1.4399 1.0691 2.6084 0.6248 0.65811-0.2502 0.87772-0.1916 1.504 0.401 1.2956 1.226 6.6786 4.4702 18.702 11.271 27.346 15.468 34.297 19.25 32.4 17.627-1.1074-0.9477-26.707-17.166-27.369-17.339-0.27864-0.073-0.69082 0.02-0.91598 0.2073-0.85984 0.7136-1.5601 0.075-2.2404-2.0415-0.19477-0.6061-0.98327-0.6524-1.2064-0.071-0.43676 1.1383-2.0831-0.097-2.0831-1.5627 0-0.4011-0.13135-0.8607-0.29186-1.0212-0.20051-0.2005-0.0379-0.2546 0.51948-0.1728 0.59056 0.087 1.8241-0.3884 4.5324-1.7455 2.0466-1.0255 3.9794-1.8646 4.2951-1.8646s2.2439-0.8368 4.285-1.8596c2.4846-1.245 3.8049-1.7656 3.9951-1.5753 0.55086 0.5508-0.0344 1.0463-3.2218 2.7275-1.7704 0.9338-3.6647 2.0904-4.2094 2.5702-0.54472 0.4799-1.9742 1.4103-3.1767 2.0677-1.2025 0.6573-2.2605 1.3152-2.3512 1.462-0.2321 0.3756-0.0693 0.3414 1.4248-0.299 0.72616-0.3113 1.6493-0.566 2.0514-0.566 0.40215 0 2.318-0.835 4.2575-1.8556 1.9395-1.0206 3.701-1.7886 3.9144-1.7067 0.96145 0.3689 0.21746 1.08-2.7954 2.6717-3.4021 1.7974-5.8617 3.5944-5.8666 4.2863-3e-3 0.3921 5.194 3.7112 27.726 17.708 8.4917 5.2749 10.753 7.1802 10.753 9.0604 0 2.9327-3.6017 5.9375-10.301 8.5937-2.8397 1.126-16.67 5.2075-20.402 6.0206-2.3815 0.519-3.7038 0.6149-8.3476 0.6054-4.8173-0.01-6.0205-0.1091-9.476-0.7812-8.3418-1.6226-29.447-7.3087-49.562-13.353-8.1093-2.4365-14.275-5.1787-16.976-7.5499-1.199-1.0528-6.1847-6.7411-13.797-15.741-4.7078-5.5662-5.5675-6.7208-5.4255-7.2865 0.0928-0.3697 0.10567-0.6722 0.0286-0.6722-0.077 0-1.9892 0.8284-4.2493 1.8408-8.9703 4.0183-39.773 16.416-51.769 20.835-1.8554 0.6836-3.4212 1.3865-3.4797 1.562-0.0585 0.1755 3.8236 3.443 8.6268 7.2612s9.2148 7.4752 9.8034 8.1267c1.1924 1.3199 1.8641 2.7029 1.8641 3.8385 0 0.9413-1.4857 2.3966-3.499 3.4275-1.7368 0.8893-5.1859 1.1455-7.2539 0.5388zm133.56-4.2876c0-0.2462-1.6546-0.8939-17.633-6.9031l-15.227-5.7269-1.5706 0.9436c-1.4159 0.8506-2.0465 1.4905-1.7542 1.7801 0.0905 0.09 29.462 8.3925 33.921 9.5888 1.7396 0.4668 2.2638 0.5403 2.2638 0.3175zm-36.076-11.515c1.1064-0.5456 1.8211-1.0693 1.7739-1.2998-0.0441-0.2155-2.9487-1.5024-6.5712-2.9115-6.9014-2.6846-7.4049-2.9329-12.066-5.9519-1.6472-1.0669-3.1752-1.9309-3.3957-1.92-0.67831 0.033-6.9106 3.2165-6.8868 3.5174 0.0322 0.4075 3.8805 2.389 8.4668 4.3596 3.6599 1.5725 14.737 5.0626 16.195 5.1026 0.34721 0.01 1.4652-0.3938 2.4843-0.8964zm-24.805-11.02c1.9223-0.6528 3.5583-1.3513 3.6354-1.5524 0.0772-0.201-0.5003-0.9736-1.2832-1.7168-1.2522-1.1887-2.0582-2.6022-6.6984-11.747-2.9012-5.7175-5.372-10.456-5.4907-10.529-0.35989-0.2224-11.342 5.8961-11.343 6.3197 0 0.406 1.7501 2.6214 8.715 11.024 5.8928 7.1092 7.9482 9.3812 8.4899 9.3848 0.26378 0 2.0524-0.5309 3.9747-1.1836zm-62.846-23.531c3.5394-1.7631 9.0775-4.4641 12.307-6.0023 3.2294-1.5381 5.8717-2.9607 5.8717-3.1613 0-0.2005-0.051-0.3646-0.11335-0.3646-0.38617 0-16.145-2.5735-17.168-2.8035-0.6895-0.1552-1.8128-0.4799-2.4962-0.7216-0.94443-0.3341-1.3364-0.3617-1.6338-0.1149-0.21519 0.1786-1.0771 1.6948-1.9154 3.3694-1.8913 3.7781-2.5359 6.4527-2.3736 9.8486 0.11669 2.4405 0.30195 3.1557 0.8175 3.1557 0.14774 0 3.1645-1.4425 6.7039-3.2055zm33.351-15.945c6.6035-3.0626 11.961-5.7049 11.906-5.8717-0.055-0.1668-0.91757-0.3313-1.9168-0.3655-5.6309-0.1927-15.819-0.7081-18.5-0.9359-2.489-0.2115-3.2146-0.1872-3.6786 0.1233-1.223 0.8186-11.336 10.112-11.42 10.496-0.0513 0.2316 0.1905 0.47 0.56594 0.5582 1.6192 0.38 8.9693 1.5173 9.9496 1.5395 0.84854 0.019 3.7296-1.2005 13.094-5.5436zm-23.481 0.7221c4.7391-3.3631 7.3313-5.4306 6.9628-5.5534-0.16254-0.054-1.6136 0.6313-3.2245 1.5234-3.3945 1.8798-6.7688 3.3775-10.074 4.4714-2.3906 0.7912-2.8225 1.1588-1.694 1.4421 0.77398 0.1942 3.2819 0.6194 3.9266 0.6656 0.25521 0.018 2.1016-1.1288 4.1031-2.5491zm-9.1624-0.8271c5.8748-1.3027 17.765-6.002 17.978-7.1051 0.0723-0.3756-0.41678-0.5154-2.8273-0.8084-10.833-1.3165-15.104-3.4965-17.896-9.1355-0.70928-1.432-2.1221-4.5137-3.1396-6.8483-1.0175-2.3345-2.3028-5.0086-2.8563-5.9424-1.5332-2.5865-3.8726-5.7789-4.3511-5.9373-0.54586-0.1808-18.39 11.58-18.39 12.121 0 0.5266 8.3512 9.4146 11.25 11.974 2.6079 2.3018 12.663 10.358 14.353 11.501 1.3768 0.9304 2.3656 0.961 5.8797 0.1817zm15.466-10.914c3.7914-2.0835 6.0369-4.5708 7.3824-8.1774 1.4296-3.8321 2.8367-5.6335 5.4362-6.9597 1.4424-0.7358 3.059-0.6144 5.4949 0.4128 1.8838 0.7944 2.3149 0.7207 1.657-0.2834-0.25171-0.3842-0.4178-0.8069-0.36909-0.9395 0.2319-0.6309 7.105-6.0654 8.8052-6.9621 1.5555-0.8204 1.8631-1.0903 1.6015-1.4055-0.17804-0.2145-0.59873-0.4738-0.93485-0.5762-1.7038-0.519-10.143-3.9375-13.108-5.3096-1.8593-0.8605-4.3442-1.848-5.5219-2.1945l-2.1413-0.6299-14.043 9.2719c-7.7238 5.0995-14.043 9.3903-14.043 9.535 0 0.6751 3.2384 7.9042 4.1136 9.1826 1.9683 2.8753 5.3745 4.6217 11.011 5.6456 2.7691 0.5031 2.5918 0.5263 4.6598-0.6101zm23.51-10.28c1.4781-1.0005 1.6182-1.0241 2.3181-0.3907 0.4922 0.4455 0.62324 0.426 2.1986-0.327 1.7244-0.8241 3.2088-2.1863 5.4914-5.0389 1.2513-1.5638 1.3108-1.7201 1.3108-3.4459 0-1.619-0.0784-1.8694-0.75064-2.3982-0.41283-0.3247-0.81287-0.5282-0.88893-0.4521-0.0761 0.076-0.11435 1.1322-0.0851 2.3469 0.0482 1.9997-0.0223 2.3211-0.74472 3.3968-2.1787 3.244-5 5.1922-6.3228 4.366-0.88791-0.5545-1.1641-0.419-3.3756 1.6553-2.1469 2.0138-1.8498 2.1145 0.84892 0.2878zm47.539-1.2955c0-0.4375-0.95866-1.0626-1.2234-0.7978-0.22344 0.2234 0.74209 1.4882 1.0112 1.3246 0.11672-0.071 0.21223-0.3081 0.21223-0.5268zm-14.644-0.1431c1.4528-0.079 11.218-7.6138 11.656-8.9938 0.0918-0.2892-0.33767-1.6649-0.9876-3.1633-2.0146-4.6451-3.2653-10.301-3.0572-13.827 0.13121-2.2237 0.6596-2.4337-9.521 3.7851-12.105 7.3941-13.724 8.4292-13.724 8.7712 0 0.2292 0.82435 0.5654 2.1557 0.8793 2.8489 0.6716 2.2315 0.822-1.0777 0.2624-4.3248-0.7313-5.5228-1.4859-14.608-9.2008-6.7325-5.7171-8.1183-6.777-8.6769-6.6369-0.83206 0.2089-1.8457-0.7233-1.8457-1.6974 0-1.0246-2.599-3.0273-3.6548-2.8161-0.95193 0.1904-1.7217-0.4778-1.7217-1.4945 0-0.3988-0.34045-1.0447-0.77817-1.4762-0.78234-0.7713-38.986-32.966-56.665-47.751-15.165-12.683-16.704-13.875-19.927-15.425-1.5687-0.7544-3.1323-1.3735-3.4747-1.3757-0.34238 0-1.3611 0.4413-2.2638 0.9856s-1.8098 0.99-2.0158 0.9904c-0.20601 3e-4 -1.0146-0.6996-1.797-1.5556l-1.4224-1.5564h-1.7402c-3.0456 0-5.2856 0.5021-7.7231 1.7184-1.2674 0.6324-2.6044 1.4779-2.9712 1.8788-0.77501 0.8472-0.95849 0.8772 2.8998-0.4739 1.3392-0.469 3.6506-1.0062 5.1365-1.1939l2.7016-0.3412 1.9757 1.7516c1.0866 0.9633 2.1384 1.7515 2.3374 1.7515 0.19895 0 1.3481-0.5782 2.5536-1.285l2.1919-1.285 1.6102 0.566c3.2607 1.146 1.9564 0.062 44.991 37.374 56.146 48.679 63.119 54.741 63.447 55.163 0.18951 0.2435 0.5475 1.0402 0.79552 1.7706 0.52953 1.5593 0.25388 1.4379 6.9246 3.0479 3.4994 0.8446 5.0589 1.0957 6.2254 1.0023 0.85599-0.068 1.779-0.1367 2.0513-0.1515zm-3.0835-4.2344c-0.33424-0.1348-0.68849-0.3759-0.78722-0.5356-0.0987-0.1598-0.36806-0.2181-0.59852-0.1297-0.23045 0.088-0.60278 0.01-0.82743-0.1782-0.22465-0.1864-0.54138-0.2568-0.70384-0.1564-0.16245 0.1004-0.45454 0.08-0.64908-0.046-0.19454-0.1259-0.598-0.2289-0.89657-0.2289-0.43175 0-0.68193-0.4564-1.2224-2.2299-0.37372-1.2265-0.57514-2.33-0.44754-2.4524 0.28141-0.2698 5.3596 0.9868 5.9425 1.4706 1.0356 0.8595 2.0109 3.7342 1.4827 4.3706-0.37321 0.4497-0.44944 0.4566-1.2927 0.1163zm-8.8718-4.8124c-0.31127-0.3112-0.56595-0.7728-0.56595-1.0257 0-0.3651 0.18408-0.4231 0.89269-0.2813 1.1187 0.2237 1.6541 0.658 1.6541 1.3417 0 0.728-1.2398 0.7063-1.9808-0.035zm24.336 9.0783c0-0.6501-0.39016-1.1551-0.8924-1.1551-0.53227 0-0.53349 0.021-0.0405 0.6986 0.5214 0.7163 0.93287 0.9177 0.93287 0.4565zm-0.83895-4.1143c-0.19924-0.24-0.54359-0.4364-0.76524-0.4364-0.3197 0-0.29791 0.1416 0.10538 0.6852 0.29678 0.3999 0.61532 0.5816 0.76524 0.4364 0.153-0.1482 0.11039-0.4252-0.10538-0.6852zm-111.78-1.644c6.4089-3.203 14.391-7.6164 14.557-8.0487 0.14823-0.3863-2.9683-4.1623-3.6518-4.4246-0.47032-0.1805-19.424 10.515-19.607 11.065-0.152 0.456 2.9963 3.749 3.5806 3.7452 0.24867 0 2.5532-1.0531 5.1212-2.3365zm30.117-4.4313c9.0544-4.4903 20.251-10.676 20.251-11.188 0-0.4051-0.0857-0.4285-7.3573-2.0072-5.9996-1.3025-9.6324-2.3585-13.627-3.9609-4.603-1.8465-11.658-5.406-16.834-8.4942-2.4595-1.4672-4.6574-2.6677-4.8843-2.6677-0.64741 0-9.081 5.3706-9.081 5.7829 0 0.2028 1.6236 1.8135 3.6079 3.5793 9.1995 8.1865 16.278 16.131 19.37 21.739 0.26513 0.4808 0.63857 0.8743 0.82989 0.8743s3.6672-1.6462 7.7241-3.6581zm-35.635-1.3011c5.9092-2.4596 14.912-6.6107 15.422-7.111 0.37571-0.3686 0.0344-0.7969-2.9712-3.7291-1.8676-1.822-5.9424-5.53-9.0551-8.2401-3.1127-2.7101-6.3203-5.5407-7.1281-6.2904-0.80776-0.7497-1.6991-1.3598-1.9808-1.3558-0.61319 0.01-16.265 9.9004-16.425 10.38-0.0944 0.2832 14.463 16.516 16.131 17.987 0.68008 0.5999 0.5188 0.6439 6.0079-1.6408zm-14.433-22.902c4.5668-2.3051 7.9571-4.182 8.0052-4.4319 0.0955-0.4959-17.835-17.035-18.616-17.171-0.57972-0.1011-13.865 8.552-13.865 9.0308 0 0.6546 8.7865 10.998 13.231 15.576 1.4907 1.5353 1.5895 1.5879 2.4381 1.2977 0.48647-0.1663 4.4493-2.1017 8.8062-4.3008zm21.897-1.9181c2.5488-1.2861 4.6869-2.4753 4.7512-2.6429 0.0643-0.1675-0.75278-1.1899-1.8158-2.272-3.4595-3.5218-6.3103-8.3788-10.695-18.222-1.352-3.0349-2.8768-6.3498-3.3883-7.3666-3.1704-6.3019-10.593-13.049-19.679-17.889-4.7648-2.5378-9.1381-3.7196-17.107-4.6224-3.5178-0.3986-4.2067-0.411-4.5287-0.081-0.81376 0.8332-2.4507 12.612-1.9652 14.142 0.13396 0.4221 0.44162 0.5371 1.4361 0.5371 0.69607 0 1.738 0.2426 2.3154 0.5391 2.0071 1.0307 12.867 10.577 31.894 28.035 11.022 10.114 13.354 12.173 13.789 12.177 0.19751 0 2.4445-1.0485 4.9934-2.3345zm-44.881-13.976c3.5747-1.7922 9.7994-5.1674 10.747-5.8274 0.42799-0.2981 0.77817-0.6438 0.77817-0.7683 0-0.3525-12.45-11.395-16.268-14.429-2.327-1.8492-3.0376-2.0466-4.4225-1.2285-1.0171 0.6008-1.7199 0.2664-1.9842-0.9442-0.30475-1.3957-0.23554-5.2043 0.15371-8.4589 0.20475-1.712 0.32765-3.1641 0.27311-3.2269-0.25876-0.298-1.0252 2.2861-1.5667 5.2825-0.45317 2.5074-0.60538 4.5338-0.62142 8.2728-0.0243 5.665 0.29111 7.7133 1.6339 10.612 1.5339 3.3105 7.6205 12.026 8.3985 12.026 0.14661 0 1.4419-0.5893 2.8784-1.3095zm197.23 90.13c-0.96451-0.6177-1.2766-1.0325-0.42445-0.564 0.64925 0.3568 1.6664 1.1434 1.4856 1.1488-0.0778 0-0.55534-0.2608-1.0612-0.5848zm-166.12-0.2504c0.0787-0.2334 0.7475-2.3323 1.4862-4.664 1.2062-3.8075 2.7508-7.5038 3.1355-7.5038 0.0796 0-0.0331 0.3502-0.25049 0.7782-0.53793 1.0593-3.015 8.4321-3.015 8.9738 0 0.2393 0.10422 0.435 0.23161 0.435s1.9419-1.861 4.0323-4.1355c5.4902-5.9739 8.9227-9.1835 10.892-10.185 1.4707-0.7478 1.6996-0.9761 1.8311-1.8269l0.15033-0.9724 0.20026 1.1319c0.3942 2.228 0.29371 2.6883-0.58702 2.6883-1.6993 0-4.9203 2.595-12.619 10.167-3.097 3.0459-5.5665 5.347-5.4878 5.1135zm7.7231-16.374c0.46691-0.5166 1.3583-1.3313 1.9808-1.8105 1.3257-1.0203 0.89892-0.562-1.2734 1.3674-0.9035 0.8025-1.2002 0.9883-0.70743 0.4431zm3.2542-2.7322c0-0.2018 3.1085-2.2162 3.2227-2.0883 0.0558 0.062-0.64648 0.5871-1.5606 1.1658s-1.662 0.9938-1.662 0.9225zm3.8861-2.4342c0.19195-0.1934 0.42028-0.2804 0.5074-0.1932 0.0871 0.087-0.0699 0.2453-0.349 0.3516-0.40329 0.1535-0.43579 0.121-0.1584-0.1584zm2.6128-0.1177c-0.24801-0.2989-0.61718-0.3931-1.1015-0.2813-0.5495 0.127-0.62416 0.098-0.30397-0.1189 0.63851-0.4321 1.6936-0.3532 1.8832 0.1407 0.24188 0.6304-0.042 0.7845-0.47772 0.2595zm109.57-41.868c6e-3 -0.4669 0.0692-0.6236 0.14095-0.3483 0.0717 0.2753 0.067 0.6573-0.0105 0.8489s-0.13623-0.034-0.13045-0.5006zm44.214-6.0904c-0.68521-0.2561-2.2981-2.0293-2.7521-3.0257-0.39048-0.857 0.0181-1.2178 3.2848-2.9008 1.7702-0.912 2.5171-1.1412 3.7191-1.1412 1.6717 0 1.8483 0.1848 1.8465 1.9332 0 1.4701-0.84863 2.6794-2.7122 3.8715-2.0342 1.3013-2.6595 1.5345-3.3861 1.263zm-41.864-4.238c-0.0962-0.1557 0.0948-0.283 0.42446-0.283 0.32963 0 0.52064 0.1273 0.42446 0.283-0.0962 0.1556-0.28719 0.2829-0.42446 0.2829s-0.32827-0.1273-0.42446-0.2829zm9.6275-5.061c0.48453-0.5025 7.4502-3.9941 7.9684-3.9941 0.26639 0-0.52763 0.5071-1.7645 1.127s-2.4398 1.2394-2.6733 1.3768c-0.98231 0.5782-3.7965 1.7661-3.5306 1.4903z" fill="#0f2751"/></g></svg>
