<svg width="512" height="512" version="1.1" viewBox="0 0 384 384" xmlns="http://www.w3.org/2000/svg" xmlns:xlink="http://www.w3.org/1999/xlink"><defs><filter id="e" x="0%" y="0%" width="100%" height="100%"><feColorMatrix in="SourceGraphic" values="0 0 0 0 1 0 0 0 0 1 0 0 0 0 1 0 0 0 1 0"/></filter><mask id="b"><g filter="url(#e)"><rect width="384" height="384" fill-opacity=".2"/></g></mask><clipPath id="d"><rect width="384" height="384"/></clipPath><g id="a" clip-path="url(#d)"><path d="m203.71 126.33s-18.227-2.707-28.742 7.4375c-10.516 10.148-19.633 32.469-18.93 39.234 0.69922 6.7656 21.734-23 30.848-25.027 9.1133-2.0312 18.93-16.914 16.824-21.645z"/></g><linearGradient id="c" x1="-68.76" x2="778.12" y1="293.05" y2="-190.82" gradientUnits="userSpaceOnUse"><stop stop-color="#1b3f7c" offset="0"/><stop stop-color="#367bf0" offset="1"/></linearGradient></defs><g transform="matrix(.90727 0 0 .90727 17.801 23.246)"><path d="m213.14 120.28s-21.953-3.3867-34.621 9.3164c-12.668 12.699-23.648 40.641-22.801 49.105 0.84375 8.4688 26.176-28.785 37.156-31.324 10.977-2.543 22.801-21.172 20.266-27.098z"/><path d="m323.68 0.0039062c-9.1406 0-26.879 21.672-33.527 25.094-6.6562 3.418-59.301 42.195-64.281 49.039-4.9922 6.8398-11.641 9.6914-18.84 9.1211-7.2109-0.56641-29.973-0.80469-37.738 3.7578-7.75 4.5625-43.164 41.867-52.035 46.426-8.8633 4.5625-20.434 6.8984-25.973 7.4688-5.543 0.57031-23.898 21.609-28.887 25.602-4.9844 3.9922-44.395 21.543-49.934 24.961-5.543 3.4219 40.426 51.34 47.074 52.48 6.6484 1.1406-17.23 16.262-17.375 27.105-0.14062 10.812 11.434 43.02 78.578 80.922 58.047 32.77 119.36 16.988 142.51 10.316 9.1797-2.6484 5.8047-33.07 7.5039-49.234 1.1094-10.266 4.9883-96.371 19.395-119.18 14.406-22.805 55.586-50.188 69.996-53.039 14.406-2.8477 11.637-8.5508 11.637-13.684 0-5.1289-2.2188-16.535-6.0977-18.246-3.8789-1.7109-19.012 8.5625-24 9.7031-4.9883 1.1406-28.816 2.8516-32.141-2.8516-3.3242-5.6992 26.879-63.863 30.754-70.703 3.875-6.8438 5.543-15.969-1.668-25.66-7.1992-9.6953-12.18-19.391-14.953-19.391z" fill="url(#c)"/><use width="100%" height="100%" mask="url(#b)" xlink:href="#a"/><path d="m203.71 120.32s-18.227-2.7031-28.742 7.4414c-10.516 10.148-19.633 32.469-18.93 39.234 0.69922 6.7617 21.734-23 30.848-25.027 9.1133-2.0312 18.93-16.914 16.824-21.648z" fill="#fff"/></g><path transform="scale(.75)" d="m438.89 66.322c-0.66725 3.3177-1.9226 6.41-3.4941 9.1855-4.6876 8.2741-41.224 78.635-37.203 85.529 0.28195 0.48373 0.6976 0.91753 1.207 1.3164 6.5009-20.77 32.121-70.006 35.996-76.846 3.0625-5.4088 4.9615-11.999 3.4941-19.186zm34.518 116.6c-0.91364 3.4258-4.1039 6.4966-14.002 8.4531-17.432 3.4495-67.247 36.575-84.674 64.162-17.427 27.591-22.121 131.75-23.463 144.17-2.0555 19.554 2.0285 56.357-9.0762 59.561-27.998 8.0709-102.17 27.161-172.39-12.48-70.868-40.004-90.557-74.759-94.314-91.66-0.45836 1.2889-0.72401 2.5521-0.74023 3.7695-0.17012 13.08 13.83 52.04 95.055 97.891 70.219 39.641 144.39 20.551 172.39 12.48 11.105-3.2038 7.0206-40.007 9.0762-59.561 1.342-12.418 6.0357-116.58 23.463-144.17 17.427-27.587 67.242-60.713 84.674-64.162 17.427-3.4448 14.076-10.344 14.076-16.553 0-0.5689-0.02961-1.2187-0.07422-1.9004zm-431.74 78.148c-1.209 0.62584-2.2418 1.1781-2.8457 1.5508-6.0525 3.7364 38.654 51.316 53.334 61.562 4.2135-4.3818 6.7521-7.5373 3.6113-8.0762-6.388-1.096-42.755-37.87-54.1-55.037z" opacity=".3" stroke-width="1.2097"/><path transform="scale(.75)" d="m415.29 31c-11.057 0-32.516 26.216-40.559 30.355-8.052 4.1347-71.737 51.043-77.762 59.322-6.039 8.2741-14.08 11.725-22.789 11.035-8.7231-0.68518-36.258-0.97433-45.652 4.5449-9.3752 5.5192-52.216 50.646-62.947 56.16-10.722 5.5192-24.717 8.3452-31.418 9.0352-6.7053 0.68991-28.911 26.141-34.945 30.971-6.0296 4.8293-53.704 26.061-60.404 30.195-1.3795 0.85159-0.092782 4.0027 2.8457 8.4492 12.206-6.3184 52.072-24.25 57.559-28.645 6.0343-4.8294 28.24-30.281 34.945-30.971 6.7006-0.6899 20.696-3.5159 31.418-9.0352 10.731-5.5145 53.572-50.641 62.947-56.16 9.3941-5.5192 36.929-5.2301 45.652-4.5449 8.7089 0.68991 16.75-2.761 22.789-11.035 6.0248-8.2788 69.71-55.188 77.762-59.322 8.0426-4.1394 29.501-30.355 40.559-30.355l-0.00586 0.009766c3.355 0 9.381 11.729 18.09 23.457 3.024 4.0643 4.7331 8.0423 5.5117 11.855 1.323-6.5784 0.28689-14.062-5.5117-21.855-8.7089-11.728-14.735-23.457-18.09-23.457l0.00586-0.009766zm49.777 131.52c-5.8996-0.33498-22.341 10.669-27.998 11.963-5.6112 1.283-30.918 3.1571-37.674-2.1328-1.3632 4.3554-1.9041 7.4885-1.207 8.6836 4.0213 6.899 32.847 4.829 38.881 3.4492 6.0343-1.3798 24.339-13.808 29.031-11.738 4.262 1.8799 6.8608 13.419 7.3027 20.172 0.69498-2.6059 0.07422-5.417 0.07422-8.0996 0-6.2044-2.6846-20.003-7.377-22.072-0.29327-0.12936-0.6399-0.20228-1.0332-0.22461zm-372.92 171.66c-6.5761 6.8387-17.3 16.718-17.406 24.713-0.021691 1.6678 0.19111 3.7604 0.74023 6.2305 4.4804-12.599 27.574-27.768 20.277-29.02-0.78304-0.13434-2.0279-0.81859-3.6113-1.9238z" fill="#fff" opacity=".1" stroke-width="1.2097"/></svg>
