<svg width="512" height="512" version="1.1" viewBox="0 0 135.47 135.47" xmlns="http://www.w3.org/2000/svg" xmlns:xlink="http://www.w3.org/1999/xlink"><defs><linearGradient id="b"><stop stop-color="#23bac2" offset="0"/><stop stop-color="#367bf0" offset="1"/></linearGradient><linearGradient id="c" x1="-397.02" x2="-191.26" y1="530.41" y2="324.64" gradientTransform="matrix(.22398 0 0 .22656 136.66 4.2074)" gradientUnits="userSpaceOnUse"><stop stop-color="#fd9733" offset="0"/><stop stop-color="#ffc730" offset="1"/></linearGradient><linearGradient id="a" x1="82.732" x2="42.975" y1="31.579" y2="55.428" gradientUnits="userSpaceOnUse" xlink:href="#b"/><linearGradient id="d" x1="82.732" x2="42.975" y1="31.579" y2="55.428" gradientTransform="matrix(3.7795 0 0 3.7795 0 10)" gradientUnits="userSpaceOnUse" xlink:href="#b"/></defs><g><path d="m69.09 8.3295c-2.5679-0.079884-5.6094 0.20297-7.4618 0.75521-3.5443 1.0566-6.6304 2.8341-9.3698 5.3968l-1.4615 1.3672-1.3254-0.36337c-2.0765-0.56915-6.414-0.69695-8.7258-0.25707-4.2049 0.80006-7.5968 2.5398-10.669 5.4719-6.9049 6.591-8.5827 16.401-4.2631 24.925 1.1873 2.3431 3.8888 5.5442 5.9016 6.9926l0.64847 0.46656-0.03187 11.338c-2.0542 12.854-2.3566 14.651-2.508 14.896-0.25168 5.3472 3.1204 2.1387 6.2973 1.6762 0.13003-0.01895 0.2602-0.03777 0.3905-0.05648 0.13033-0.01881 0.2608-0.03748 0.3914-0.05604 0.13063-0.01849 0.26139-0.03688 0.39228-0.05515 0.13093-0.0182 0.26198-0.03629 0.39317-0.05426 0.13108-0.01806 0.26228-0.03599 0.39362-0.05381 0.13138-0.01776 0.26288-0.0354 0.39451-0.05293 0.13167-0.01747 0.26347-0.03481 0.39539-0.05204 0.13197-0.01731 0.26407-0.03451 0.39629-0.05159 0.13212-0.01701 0.26436-0.03392 0.39673-0.0507l0.39762-0.05026 0.39805-0.04937 0.39896-0.04848 0.39984-0.04803 0.40029-0.04759 0.40118-0.04626 0.40162-0.04581 0.40206-0.04492 0.40296-0.04448 0.40385-0.04359 0.40429-0.04314 0.40474-0.04181 0.40562-0.04181 0.40563-0.04048 0.40696-0.04003 0.40696-0.03914 0.40785-0.03869 0.40829-0.0378 0.40873-0.03692 0.40963-0.03647 0.40963-0.03558 0.41051-0.03469 0.41097-0.03425 0.41096-0.03336 0.41185-0.03247 0.4123-0.03202 0.41274-0.03113 0.41319-0.03024 0.41363-0.0298 0.41407-0.02891 0.41453-0.02802 0.41496-0.02713 0.41541-0.02669 0.41541-0.02624 0.41585-0.02491 0.4163-0.02446 0.41674-0.02357 0.41719-0.02313 0.41719-0.02225 0.41763-0.02134 0.41808-0.02047 0.41852-0.02002 0.41852-0.01913 0.41852-0.01824 0.41897-0.01778 0.41941-0.0169 0.41941-0.01601 0.41986-0.01558 0.4203-0.01469 0.41986-0.01378 0.42075-0.01289 0.4203-0.01246 0.42075-0.01157 0.42119-0.01111 0.42074-0.0098 0.42119-0.0093 0.42164-0.0089 0.42119-0.0076 0.42164-0.0071 0.42164-0.0062 0.42164-0.0058 0.42208-0.0044 0.42164-4e-3 0.42208-0.0036 0.42208-0.0023 0.42164-0.0018 0.42208-9.11e-4 0.33313-4.56e-4 0.42164 4.56e-4 0.42208 9.11e-4 0.42208 0.0023 0.42208 0.0027 0.42164 0.0031 0.42208 0.0044 0.42164 0.0049 0.42164 0.0058 0.42164 0.0062 0.42164 0.0071 0.42164 8e-3 0.42119 0.0089 0.42119 0.0093 0.42119 0.01023 0.42075 0.01111 0.42075 0.01157 0.8406 0.02578 0.4203 0.01423 0.41986 0.01469 0.41986 0.01558 0.41941 0.01646 0.41941 0.0169 0.41897 0.01778 0.41852 0.01867 0.41852 0.01913 0.41852 0.02002 0.41764 0.0209 0.41763 0.02179 0.41719 0.02225 0.41719 0.02313 0.41674 0.02357 0.41585 0.02491 0.4163 0.02535 0.41541 0.0258 0.41496 0.02669 0.41497 0.02757 0.41452 0.02847 0.41363 0.02891 0.41363 0.0298 0.41318 0.03069 0.41274 0.03113 0.41185 0.03202 0.41185 0.03291 0.41141 0.03336 0.41052 0.03425 0.41052 0.03513 0.40963 0.03558 0.40918 0.03647 0.40874 0.03736 0.40829 0.03781 0.4074 0.03869 0.4074 0.03958 0.40652 0.04003 0.40563 0.04092 0.40562 0.04136 0.40473 0.0427 0.40385 0.0427 0.4034 0.04403 0.40296 0.04448 0.40207 0.04537 0.40162 0.04581 0.40074 0.0467 0.40029 0.04714 0.3994 0.04804 0.39895 0.04892 0.39807 0.04981 0.39762 0.05026c0.13236 0.01678 0.26461 0.03368 0.39673 0.0507 0.13207 0.01721 0.26402 0.03457 0.39584 0.05204 0.13177 0.01722 0.26342 0.03457 0.39495 0.05204 0.13163 0.01767 0.26313 0.03546 0.39451 0.05337 0.13133 0.01783 0.26254 0.03576 0.39362 0.05382 0.13104 0.01797 0.26195 0.03606 0.39273 0.05426 0.13089 0.01842 0.26166 0.03695 0.39228 0.0556 0.1306 0.01842 0.26106 0.03694 0.39139 0.05559 0.1303 0.01886 0.26047 0.03784 0.3905 0.05693 0.13001 0.01901 0.25988 0.03813 0.38961 0.05737 0.12971 0.01915 0.25929 0.03843 0.38872 0.05782 0.12941 0.01945 0.2587 0.03902 0.38784 0.05871 0.12927 0.01974 0.25839 0.03962 0.38738 0.0596 0.12883 0.0199 0.25751 0.03991 0.38605 0.06004 0.12869 0.0202 0.25722 0.04051 0.38561 0.06093 0.12824 0.02034 0.25634 0.0408 0.38428 0.06138 0.12809 0.02063 0.25604 0.0414 0.38384 0.06227 0.12765 0.02079 0.25515 0.04169 0.38249 0.06271 0.1275 0.02109 0.25485 0.04228 0.38205 0.0636 0.12706 0.02138 0.25397 0.04288 0.38072 0.06449 0.12691 0.02154 0.25367 0.04318 0.38027 0.06494 0.12647 0.02184 0.25279 0.04377 0.37894 0.06583 0.12618 0.02197 0.25219 0.04407 0.37805 0.06627 0.12588 0.02214 0.2516 0.04436 0.37716 0.06672 0.12559 0.02257 0.25101 0.04525 0.37627 0.06805 0.12515 0.02257 0.25012 0.04525 0.37494 0.06805 0.12485 0.02302 0.24953 0.04614 0.37405 0.06938 0.12455 0.02302 0.24893 0.04614 0.37315 0.06938 0.12426 0.02346 0.24835 0.04703 0.37227 0.07072l0.37138 0.07072-3.6714-3.0085-0.58991-26.184 0.75165-0.62223c1.6195-1.3406 2.6907-2.4037 3.5648-3.5377 6.505-8.4388 6.058-19.687-1.0852-27.309-2.834-3.0239-6.2367-5.1022-10.048-6.1373-2.5072-0.68092-7.904-0.73652-10.203-0.10496l-1.4468 0.39762-1.2858-1.2138c-3.3753-3.1859-7.7718-5.4364-11.924-6.1034-0.68916-0.1107-1.4924-0.17752-2.3484-0.20415z" fill="#fff" opacity=".2" stroke="#000" stroke-width="2.6458"/><path transform="scale(.26458)" d="m257.42 31.432c-8.798 0.030898-18.366 1.078-24.492 2.9043-13.396 3.9936-25.06 10.711-35.414 20.396l-5.5234 5.168-5.0098-1.373c-7.8483-2.1511-24.241-2.6352-32.979-0.97266-15.893 3.0239-28.712 9.5995-40.322 20.682-26.097 24.911-32.437 61.989-16.111 94.207 4.4875 8.8557 14.697 20.954 22.305 26.428l2.4512 1.7637-6.5957 41.262c-5.3595 33.537-7.5346 46.959-8.5742 52.484 15.825-2.8122 54.02-8.0144 77.055-10.283 24.184-2.382 48.951-3.4923 74.285-3.332 32.573 0.20612 66.087 2.5141 100.52 6.9219 14.072 1.8016 34.982 5.0321 45.648 6.9473-0.38446-2.3612-1.6654-10.381-3.2051-20.084-1.6526-10.414-4.9659-31.237-7.3633-46.275l-4.3594-27.342 2.8398-2.3516c6.121-5.0667 10.171-9.0853 13.475-13.371 24.586-31.895 22.897-74.406-4.1016-103.21-10.711-11.429-23.573-19.283-37.979-23.195-9.4762-2.5736-29.872-2.7835-38.562-0.39648l-5.4688 1.502-4.8594-4.5879c-12.757-12.041-29.374-20.546-45.068-23.066-2.6047-0.41838-5.6398-0.6728-8.875-0.77344-1.2132-0.037741-2.4541-0.053242-3.7109-0.048828z" fill="#fff"/><path transform="scale(.26458)" d="m363.07 129.29c-6.0692-0.06391-14.351 5.8672-20.473 5.8672-19.587 0-32.941 10.238-32.941 25.818 0 26.264 37.949 18.809 37.949 30.717 0 3.5612-3.3386 5.5625-10.795 5.5625-7.0112 0-15.47-1.3351-23.148-4.5625l-5.3418 5.8027v10c7.9015 3.5612 18.14 6.1211 27.711 6.1211 20.477 0 31.828-9.7927 31.828-25.262 0-28.378-38.172-19.809-38.172-31.271 0-3.8951 4.3406-6.0098 11.908-6.0098 6.2321 0 13.133 1.112 18.586 3.0039l5.3418-15.357v-10c-0.76398-0.28856-1.5861-0.42056-2.4531-0.42969zm-221.24 6.9805v77.234h27.488c26.487 0 43.959-15.915 43.959-40.176 0-23.259-15.803-37.059-42.512-37.059h-28.936zm83.467 0v77.234h18.25v-50.748l32.053 50.748h21.59v-77.234h-18.475l-0.22266 50.301-31.16-50.301h-22.035zm-64.547 16.582h8.9024c14.801 0 23.594 8.4563 23.594 22.701 0 13.8-7.6789 21.369-21.701 21.369h-10.795v-44.07z" fill="url(#d)"/><path d="m68.412 71.412c-6.3192-0.04044-12.496 0.23976-18.529 0.84075-7.3028 0.72757-20.756 2.6554-21.032 3.0139-0.04583 0.05939-0.79218 2.229-1.6584 4.821-0.71428 2.6965-1.9286 10.357 0.22486 15.634 2.8648 7.1116 9.0452 14.899 15.488 19.515 5.7873 4.1462 13.582 7.0215 20.823 7.6818 2.9038 0.26478 9.7209-0.12956 12.707-0.73498 13.363-2.7093 24.308-11.481 30.579-24.506 0.82078-1.7048 1.4922-3.2941 1.4922-3.532 1.284-4.8472 1.3208-10.745-0.28522-14.076-0.86718-2.5822-1.6078-4.7372-1.6462-4.7887-0.13336-0.17922-8.2607-1.4969-13.093-2.1227-8.5874-1.1121-16.947-1.6941-25.071-1.7461z" fill="url(#c)" stroke-width=".2969"/><path d="m53.785 113.85c-2.2801-0.4964-4.6291-1.4465-6.3509-2.5688-1.461-0.95223-4.0574-3.7039-3.9122-4.1462 0.05213-0.15912 0.72524-0.43352 1.4956-0.60975 1.8621-0.42597 2.8894-0.89556 7.8953-3.609 5.9791-3.241 8.6354-4.0094 9.2355-2.6718 0.5247 1.1697 1.9275 2.5557 3.0473 3.0108 3.0006 1.2195 6.4505 0.0347 7.8855-2.708 0.50955-0.97393 0.55338-0.9951 1.729-0.83526 1.6476 0.22401 4.2671 1.2804 6.8351 2.7565 3.4966 2.0098 7.0354 3.66 8.6452 4.0314 0.82906 0.19125 1.5565 0.49738 1.6165 0.68027 0.21188 0.64567-3.4622 3.9436-5.5709 5.0005-3.0656 1.5366-4.9678 1.9597-8.8454 1.9678-3.72 7e-3 -5.9315-0.51062-8.4101-1.9713l-1.307-0.7702-2.0532 1.0398c-3.5395 1.7925-7.83 2.2969-11.935 1.4032z" fill="#a16b3d"/><path d="m49.491 83.447c-2.2047-0.01133-3.7904 0.79005-5.1087 2.5656-2.3227 3.1284-1.1857 7.8197 2.3352 9.6359 1.9074 0.98394 4.7525 0.77058 6.4635-0.48498 3.6016-2.6429 3.6016-8.0271 0-10.67-1.0602-0.77795-1.5938-0.94808-3.2407-1.0337-0.15259-0.0079-0.30229-0.01215-0.44928-0.01283z" opacity=".1" stroke-width=".2969"/><path d="m49.491 81.86c-2.2047-0.01133-3.7904 0.79005-5.1087 2.5656-2.3227 3.1284-1.1857 7.8197 2.3352 9.6359 1.9074 0.98394 4.7525 0.77058 6.4635-0.48498 3.6016-2.6429 3.6016-8.0271 0-10.67-1.0602-0.77795-1.5938-0.94808-3.2407-1.0337-0.15259-0.0079-0.30229-0.01215-0.44928-0.01283z" fill="#fff" stroke-width=".2969"/><path d="m51.669 83.956c-0.97498-0.0051-1.6762 0.34938-2.2592 1.1346-1.0272 1.3835-0.52435 3.4581 1.0327 4.2613 0.84351 0.43512 2.1017 0.34078 2.8584-0.21448 1.5927-1.1688 1.5927-3.5498 0-4.7186-0.46883-0.34403-0.70481-0.41926-1.4332-0.45712-0.06747-0.0033-0.13368-0.0052-0.19868-6e-3z" stroke-width=".1313"/><path d="m85.962 83.351c-2.2047-0.01133-3.7904 0.79005-5.1087 2.5656-2.3227 3.1284-1.1857 7.8197 2.3352 9.6359 1.9074 0.98394 4.7525 0.77058 6.4635-0.48498 3.6016-2.6429 3.6016-8.0271 0-10.67-1.0602-0.77795-1.5938-0.94808-3.2407-1.0337-0.15259-0.0079-0.30229-0.01214-0.44927-0.01282z" opacity=".1" stroke-width=".2969"/><path d="m85.962 81.764c-2.2047-0.01133-3.7904 0.79005-5.1087 2.5656-2.3227 3.1284-1.1857 7.8197 2.3352 9.6359 1.9074 0.98394 4.7525 0.77058 6.4635-0.48498 3.6016-2.6429 3.6016-8.0271 0-10.67-1.0602-0.77795-1.5938-0.94808-3.2407-1.0337-0.15259-0.0079-0.30229-0.01214-0.44927-0.01282z" fill="#fff" stroke-width=".2969"/><path d="m88.14 83.86c-0.97498-0.0052-1.6762 0.34938-2.2592 1.1346-1.0272 1.3835-0.52434 3.4581 1.0327 4.2613 0.84351 0.43512 2.1017 0.34078 2.8583-0.21447 1.5928-1.1688 1.5928-3.5498 0-4.7186-0.46883-0.34403-0.70481-0.41926-1.4331-0.45712-0.06747-0.0033-0.13369-0.0051-0.19868-6e-3z" stroke-width=".1313"/><path transform="scale(.26458)" d="m423.22 130.53c-1.0078 15.567-6.6954 31.09-17.174 44.684-3.3037 4.2858-7.3536 8.3044-13.475 13.371l-2.8398 2.3516-4e-4 10 2.8402-2.352c6.121-5.0667 10.171-9.0853 13.475-13.371 12.725-16.509 18.393-35.859 17.174-54.684zm-334.44 0.17969c-0.8904 13.932 1.9575 28.259 8.7871 41.736 4.4875 8.8557 14.697 20.954 22.305 26.428l2.4504 1.7641 7.6e-4 -10-2.4512-1.7637c-7.6072-5.4741-17.817-17.572-22.305-26.428-5.2036-10.269-8.0945-21.031-8.7871-31.736zm160.24 140.06c-22.043 0.13771-43.649 1.2478-64.811 3.332-22.298 2.1962-58.62 7.1233-75.287 9.9883-0.7741 4.6679-2.7414 7.8278-3.1187 9.8326 15.825-2.8122 55.371-7.5521 78.406-9.8208 24.184-2.382 48.951-3.4923 74.285-3.332 32.573 0.20612 66.087 2.5141 100.52 6.9219 14.072 1.8016 36.576 5.0071 47.243 6.9222-0.19677-1.2085-2.6541-6.6141-3.235-10.254-11.017-1.936-30.534-4.9429-44.008-6.668-34.429-4.4078-67.943-6.7157-100.52-6.9219-3.1668-0.02-6.3256-0.0197-9.4746 0z" opacity=".2"/><path d="m109.42 85.591c-0.0924 2.0259-0.40212 4.111-0.911 6.0321 0 0.23791-0.67139 1.8269-1.4922 3.5317-6.2711 13.025-17.216 21.797-30.579 24.506-2.9861 0.60542-9.8034 0.99951-12.707 0.73472-7.2414-0.66026-15.036-3.5352-20.823-7.6814-6.4431-4.616-12.624-12.404-15.488-19.515-0.76695-1.8794-1.1018-4.0607-1.1892-6.2129-0.11906 2.8993 0.11836 6.1119 1.1892 8.7359 2.8648 7.1116 9.0453 14.899 15.488 19.515 5.7873 4.1462 13.581 7.0216 20.823 7.6819 2.9038 0.26479 9.7211-0.12979 12.707-0.73522 13.363-2.7093 24.308-11.481 30.579-24.506 0.82079-1.7048 1.4922-3.2938 1.4922-3.5317 0.72418-2.7338 1.0512-5.8018 0.911-8.5551z" opacity=".1" stroke-width=".2969"/><path transform="scale(.26458)" d="m167.3 403.42c-1.5351 0.53133-2.6783 1.0928-2.8047 1.4785-0.54859 1.6716 9.2654 12.073 14.787 15.672 6.5076 4.2417 15.386 7.8328 24.004 9.709 15.516 3.3778 31.732 1.4701 45.109-5.3047l7.7598-3.9297 4.9395 2.9121c9.3678 5.5206 17.727 7.4757 31.787 7.4492 14.656-0.03057 21.843-1.63 33.43-7.4375 7.9699-3.9947 21.857-16.458 21.057-18.898-0.13645-0.41576-1.2401-0.9958-2.7363-1.5527-4.3201 4.7523-12.755 11.662-18.32 14.451-11.587 5.8075-18.774 7.4069-33.43 7.4375-14.06 0.02646-22.419-1.9286-31.787-7.4492l-4.9395-2.9121-7.7598 3.9297c-13.378 6.7748-29.594 8.6825-45.109 5.3047-8.6178-1.8762-17.496-5.4673-24.004-9.709-3.5243-2.2971-8.7717-7.35-11.982-11.15z" opacity=".3"/><path transform="scale(.26458)" d="m363.07 129.29c-6.0692-0.06391-14.351 5.8672-20.473 5.8672-19.587 0-32.941 10.238-32.941 25.818 0 26.264 37.949 18.809 37.949 30.717 0 3.5612-3.3386 5.5625-10.795 5.5625-7.0112 0-15.47-1.3351-23.148-4.5625l-5.3418 5.8027v10c7.9015 3.5612 18.14 6.1211 27.711 6.1211 20.477 0 31.828-9.7927 31.828-25.262 0-28.378-38.172-19.809-38.172-31.271 0-3.8951 4.3406-6.0098 11.908-6.0098 6.2321 0 13.133 1.112 18.586 3.0039l5.3418-15.357v-10c-0.76398-0.28856-1.5861-0.42056-2.4531-0.42969zm-221.24 6.9805v77.234h27.488c26.487 0 43.959-15.915 43.959-40.176 0-23.259-15.803-37.059-42.512-37.059h-28.936zm83.467 0v77.234h18.25v-50.748l32.053 50.748h21.59v-77.234h-18.475l-0.22266 50.301-31.16-50.301h-22.035zm-64.547 16.582h8.9024c14.801 0 23.594 8.4563 23.594 22.701 0 13.8-7.6789 21.369-21.701 21.369h-10.795v-44.07z" opacity=".3"/><path d="m37.528 53.845h7.2729c7.0079 0 11.631-4.2106 11.631-10.63 0-6.154-4.1812-9.8052-11.248-9.8052h-7.6557zm5.0056-4.3873v-11.66h2.3556c3.9162 0 6.2423 2.2378 6.2423 6.0068 0 3.6512-2.0317 5.6534-5.7418 5.6534z" fill="url(#a)"/><path d="m59.612 53.845h4.829v-13.427l8.4802 13.427h5.7123v-20.435h-4.8879l-0.05889 13.309-8.2446-13.309h-5.8301z" fill="url(#a)"/><path d="m88.909 54.139c5.4179 0 8.4213-2.5912 8.4213-6.684 0-7.5085-10.1-5.2412-10.1-8.274 0-1.0306 1.1484-1.59 3.1506-1.59 1.6489 0 3.4745 0.29445 4.9173 0.79502l1.4134-4.0634c-1.7078-0.76557-3.9751-1.2072-6.0657-1.2072-5.1823 0-8.7157 2.7089-8.7157 6.8312 0 6.949 10.041 4.9762 10.041 8.1268 0 0.94224-0.88335 1.4722-2.8562 1.4722-1.855 0-4.0929-0.35334-6.1246-1.2072l-1.4134 4.1812c2.0906 0.94224 4.7995 1.6195 7.3318 1.6195z" fill="url(#a)"/></g></svg>
