<svg width="512" height="512" version="1.1" viewBox="0 0 384 384" xmlns="http://www.w3.org/2000/svg">
	<defs>
		<clipPath>
			<rect width="384" height="384"/>
		</clipPath>
		<clipPath>
			<rect width="384" height="384"/>
		</clipPath>
		<clipPath>
			<rect width="384" height="384"/>
		</clipPath>
	</defs>
	<path d="m360 192c0 92.785-75.215 168-168 168-92.785 0-168-75.215-168-168 0-92.785 75.215-168 168-168 92.785 0 168 75.215 168 168z" style="fill:#4a4a4a"/>
	<path d="m157.4 79.5c-0.68359 0.01953-1.418 0.23047-2.1172 0.73047-0.69922 0.49609-1.2695 1.4102-1.4102 2.1875-0.27734 1.5547 0.0625 2.3008 0.70703 3.6484 2.9688 5.5273 5.9023 9.8398 7.0547 13.129 1.9844 4.5547 1.957 8.793 1.4141 11.668l-3.5312 17.508c-17.816 4.2617-35.012 8.5703-52.223 14.586-3.3516 1.1094-5.9024 2.2227-8.4688 3.6484-0.23437-0.0391-0.47265-0.0391-0.70703 0-0.90234 0.55469-0.94531 1.3711-1.4102 2.1875-0.23438 0.40625-0.64063 0.88281-0.70704 1.4609-0.0664 0.57421 0.19922 1.5117 0.70704 2.1875 1.5039 2.1406 3.5234 3.0234 6.3516 4.375 2.8281 1.3516 6.0742 2.7461 8.4688 3.6484 11.969 4.5156 27.363 8.1641 39.52 9.4805-3.2734 15.262-6.4375 30.352-11.293 45.223-1.1797 3.6211-2.6875 7.3906-4.2344 10.941-4.4375 10.191-10.066 19.496-15.523 28.445-5.7695 8.3555-10.629 16.504-16.941 24.07-1.1758 1.2891-3.0781 2.3906-4.2344 3.6445-0.57813 0.62891-0.98828 1.6328-1.4102 2.1914-0.21094 0.27734-0.52734 0.39062-0.70703 0.72656-0.17969 0.33984-0.0664 0.51562 0 1.4609-0.0352 0.24218-0.0352 0.48828 0 0.72656 0.17969 0.29687 0.42187 0.54687 0.70703 0.73047 0.17578 0.29687 0.41797 0.54687 0.70703 0.73047 0.23438 0.0391 0.47266 0.0391 0.70313 0 1.2617 0.19922 2.3047-0.33594 3.5312-0.73047 1.2227-0.39453 2.0664-0.75 3.5273-1.457 2.9258-1.418 6.6953-3.0234 9.8789-5.1055 4.5742-2.9922 7.9492-6.0312 10.586-8.0234 4.6484-3.5117 15.117-13.582 20.469-20.426 6.1484-7.2305 12.695-14.988 17.645-24.797 0.0937-0.1875-0.0977-0.53906 0-0.73046 0.33593-0.60157 2.2891-4.4688 2.8203-5.8359 1.0625-2.7344 1.7695-5.4492 2.1172-6.5625l15.527-48.871 54.344-13.129c-1.3477 11.785-2.8633 23.203-4.2344 35.012-1.0469 9.7383-1.7656 13.656-2.8242 24.07-0.0312 0.3125 0.0352 0.40625 0 0.73047-0.60157 3.207-2.3516 12.227-2.8242 14.586-3.6055 18.117-7.4805 34.547-15.527 48.871-1.9219 2.793-4.1484 5.7305-6.3516 8.0234-2.2226-1.1172-5.3477-2.6719-9.8789-2.918-0.0781-0.0117-0.4883 8e-3 -0.70704 0-0.23046-0.0391-0.46875-0.0391-0.70313 0-0.0117 4e-3 -0.70312 0.72265-0.70702 0.73047-0.28517 0.18359-0.52736 0.42968-0.70703 0.72656-0.29688 1.6562 0.24218 2.9375 0.70703 4.3789 0.46483 1.4375 0.84765 3.0508 1.4102 4.375 4.082 9.5469 8.8711 17.773 13.41 26.258 0.17578 0.29686 0.41797 0.54687 0.70703 0.73047 0.17578 0.29686 0.41797 0.54687 0.70313 0.73047 0.23437 0.0391 0.47265 0.0391 0.70704 0 0.23436 0.0391 0.47265 0.0391 0.70702 0 0.28517-0.1875 0.52734-0.43361 0.70313-0.73047 6.7812-6.6406 14.742-17.336 20.469-26.258 11.262-17.457 20.781-36.977 27.523-59.082 1.0078-3.4375 1.8281-6.918 2.8242-10.941l21.172-83.879c0.89453-3.707 1.9297-7.8281 2.1172-10.941 0.0391-0.24219 0.0391-0.48829 0-0.73047-0.4414-1.0781-1.3984-1.6406-2.1172-2.1875-0.72266-0.54297-1.207-0.98828-2.1172-1.457-1.8008-0.97266-4.2148-2.1211-6.3398-2.9492-10.148-3.5352-21.191-6.7148-33.168-9.4844-1.2812-0.57422-2.1445-0.80469-3.5274-0.72656-1.375 0.0781-3.4062 0.43359-4.9375 0.73047-3.0664 0.58984-6.2226 1.6953-8.4688 2.1875l-28.238 6.5625c1.1992-3.8789 3.1563-9.5938 1.418-16.773-2.4141-8.1523-8.6289-12.906-15.527-15.316-5.8828-2.0586-11.617-3.8867-17.641-5.8359-0.98437-0.31641-5.4141-1.9375-9.8906-2.1875z" style="opacity:.5"/>
	<path d="m157.4 72c-0.68359 0.01953-1.418 0.23047-2.1172 0.73047-0.69922 0.49609-1.2695 1.4102-1.4102 2.1875-0.27734 1.5547 0.0625 2.3008 0.70703 3.6484 2.9688 5.5273 5.9023 9.8398 7.0547 13.129 1.9844 4.5547 1.957 8.793 1.4141 11.668l-3.5312 17.508c-17.816 4.2617-35.012 8.5703-52.223 14.586-3.3516 1.1094-5.9024 2.2227-8.4688 3.6484-0.23438-0.0391-0.47266-0.0391-0.70703 0-0.90234 0.55469-0.94531 1.3711-1.4102 2.1875-0.23438 0.40625-0.64063 0.88281-0.70703 1.4609-0.06641 0.57421 0.19922 1.5117 0.70703 2.1875 1.5039 2.1406 3.5234 3.0234 6.3516 4.375 2.8281 1.3516 6.0742 2.7461 8.4688 3.6484 11.969 4.5156 27.363 8.1641 39.52 9.4805-3.2734 15.262-6.4375 30.352-11.293 45.223-1.1797 3.6211-2.6875 7.3906-4.2344 10.941-4.4375 10.191-10.066 19.496-15.523 28.445-5.7695 8.3555-10.629 16.504-16.941 24.07-1.1758 1.2891-3.0781 2.3906-4.2344 3.6445-0.57812 0.62891-0.98828 1.6328-1.4102 2.1914-0.21094 0.27734-0.52734 0.39062-0.70703 0.72656-0.17969 0.33984-0.06641 0.51562 0 1.4609-0.03516 0.24218-0.03516 0.48828 0 0.72656 0.17969 0.29687 0.42188 0.54687 0.70703 0.73047 0.17578 0.29687 0.41797 0.54687 0.70703 0.73047 0.23438 0.0391 0.47266 0.0391 0.70312 0 1.2617 0.19922 2.3047-0.33594 3.5313-0.73047 1.2227-0.39453 2.0664-0.75 3.5273-1.457 2.9258-1.418 6.6953-3.0234 9.8789-5.1055 4.5742-2.9922 7.9492-6.0312 10.586-8.0234 4.6484-3.5117 15.117-13.582 20.469-20.426 6.1484-7.2305 12.695-14.988 17.645-24.797 0.0937-0.1875-0.0977-0.53906 0-0.73046 0.33593-0.60157 2.2891-4.4688 2.8203-5.8359 1.0625-2.7344 1.7695-5.4492 2.1172-6.5625l15.527-48.871 54.344-13.129c-1.3477 11.785-2.8633 23.203-4.2344 35.012-1.0469 9.7383-1.7656 13.656-2.8242 24.07-0.0312 0.3125 0.0352 0.40625 0 0.73047-0.60157 3.207-2.3516 12.227-2.8242 14.586-3.6055 18.117-7.4805 34.547-15.527 48.871-1.9219 2.793-4.1484 5.7305-6.3516 8.0234-2.2226-1.1172-5.3476-2.6719-9.8789-2.918-0.0781-0.0117-0.48829 8e-3 -0.70704 0-0.23046-0.0391-0.46875-0.0391-0.70312 0-0.0117 4e-3 -0.70313 0.72265-0.70703 0.73047-0.28516 0.18359-0.52735 0.42968-0.70703 0.72656-0.29688 1.6562 0.24218 2.9375 0.70703 4.3789 0.46484 1.4375 0.84765 3.0508 1.4102 4.375 4.082 9.5469 8.8711 17.773 13.41 26.258 0.17578 0.29687 0.41797 0.54687 0.70703 0.73047 0.17578 0.29687 0.41797 0.54687 0.70313 0.73047 0.23437 0.0391 0.47265 0.0391 0.70703 0 0.23437 0.0391 0.47265 0.0391 0.70703 0 0.28516-0.1875 0.52734-0.4336 0.70312-0.73047 6.7812-6.6406 14.742-17.336 20.469-26.258 11.262-17.457 20.781-36.977 27.523-59.082 1.0078-3.4375 1.8281-6.918 2.8242-10.941l21.172-83.879c0.89453-3.707 1.9297-7.8281 2.1172-10.941 0.0391-0.24219 0.0391-0.48829 0-0.73047-0.4414-1.0781-1.3984-1.6406-2.1172-2.1875-0.72266-0.54297-1.207-0.98828-2.1172-1.457-1.8008-0.97266-4.2148-2.1211-6.3398-2.9492-10.148-3.5352-21.191-6.7148-33.168-9.4844-1.2812-0.57422-2.1445-0.80469-3.5274-0.72656-1.375 0.0781-3.4062 0.43359-4.9375 0.73047-3.0664 0.58984-6.2226 1.6953-8.4688 2.1875l-28.238 6.5625c1.1992-3.8789 3.1562-9.5938 1.418-16.773-2.4141-8.1523-8.6289-12.906-15.527-15.316-5.8828-2.0586-11.617-3.8867-17.641-5.8359-0.98437-0.31641-5.4141-1.9375-9.8906-2.1875z" style="fill:#fff"/>
	<path transform="scale(.75)" d="m256 32c-123.71 0-224 100.29-224 224 0 1.6718 0.026062 3.3369 0.0625 5 2.66-121.4 101.9-219 223.94-219s221.28 97.597 223.94 219c0.03644-1.6631 0.0625-3.3282 0.0625-5 0-123.71-100.29-224-224-224z" style="fill:#fff;opacity:.1;stroke-width:1.3333"/>
	<path transform="scale(.75)" d="m32.062 251c-0.036438 1.6631-0.0625 3.3282-0.0625 5 0 123.71 100.29 224 224 224 123.71 0 224-100.29 224-224 0-1.6718-0.02606-3.3369-0.0625-5-2.66 121.4-101.9 219-223.94 219-122.04 0-221.28-97.597-223.94-219z" style="opacity:.5;stroke-width:1.3333"/>
</svg>
