<svg xmlns="http://www.w3.org/2000/svg" width="512" height="512" version="1.1" viewBox="0 0 384 384"> <path style="opacity:0.3" d="m 128.71875,30.749925 -71.973633,53.9707 0.0044,0.006 -12.405761,9.3047 V 304.96882 l 84.375004,63.28125 v -180.73975 -0.006 l 126.5625,180.74561 71.97217,-53.97949 12.40283,-9.30176 V 94.031185 l -84.375,-63.28125 V 211.48968 Z"/> <g transform="matrix(21.09375,0,0,21.09375,23.25,23.25)"> <path d="M 15,3 11,0 v 16 l 4,-3 z" style="fill:rgb(4.705%,63.137%,36.862%)"/> <path d="M 1,3 5,0 V 16 L 1,13 Z" style="fill:rgb(29.019%,68.235%,90.196%)"/> <path d="M 5,0 14.412,13.441 11,16 1.5883,2.559 Z" style="fill:rgb(32.941%,74.117%,55.686%)"/> <path d="M 11,8.5684 V 16 l 3.412,-2.559 z" style="fill:rgb(3.921%,50.588%,29.411%)"/> <path d="M 5,0 1.5879,2.5586 5,7.4316 Z" style="fill:rgb(14.117%,66.666%,43.137%)"/> </g> </svg>
