<svg version="1.1" viewBox="0 0 512 512" xmlns="http://www.w3.org/2000/svg"><g stroke-width="1.8443"><path d="m84.084 51.54c-1.111 0.0444-2.0168 0.18568-2.6665 0.43498-1.7118 0.65685-3.3749 4.5689-4.1551 9.7718-1.1597 7.7334-0.7162 9.5037 4.0903 16.285 5.6366 7.9532 9.6583 17.757 9.6583 23.55 0 0.3973-0.224 1.0502-0.5701 1.8344 0.105-6e-3 0.1865-0.0243 0.3026-0.0243 1.6864 0 2.3788 0.68303 2.9664 1.1698s1.0363 0.99988 1.4778 1.5696c0.883 1.1395 1.6932 2.5124 2.3937 4.0498 1.0827 2.3764 1.6501 5.5099 0.4781 8.5047 2.276 0.83124 6.3815 2.8798 10.704 5.406 0.7338 0.42884 1.5013 0.86484 2.291 1.2968 0.2267-0.42724 0.5035-0.77607 0.7538-1.0104 0.8904-0.83375 1.4709-0.91792 1.9965-1.0644 1.0511-0.29307 2.0246-0.37016 3.2689-0.43227 2.4888-0.12429 5.8607-0.0311 9.8799 0.27286 3.6209 0.27392 7.0326 0.3417 9.4827 0.24045 0.8347-0.0345 1.3351-0.10644 1.8885-0.17021 0.1694-1.1415 0.3677-2.7639 0.57-4.7143 0.4071-3.9231 0.84-9.1642 1.1968-14.724l1.2185-18.984-5.7248-6.8514-6.6082-7.9104c-1.2324-1.4752-1.0001-3.6156 0.3891-4.8197-2.6439-1.0146-6.273-2.6426-10.018-4.5739-9.6988-5.002-27.487-9.4179-35.264-9.1072zm198.77 26.392c-3.2512-0.0247-6.0481 0.5297-7.1107 1.8101-4.2158 5.0797-7.688 29.803-8.856 63.072l-1.1644 33.198-44.345 44.623c0.014 0.18141 0.024 0.3905 0.011 0.6646-0.01 0.15041-0.024 0.31978-0.062 0.51061-0.038 0.19084-0.1914 0.63132-0.1918 0.63218-7e-4 2e-3 -0.9956 1.3552-0.9969 1.3562-6e-4 5.4e-4 -0.7394 0.4724-0.7402 0.47277-8e-4 3.8e-4 -0.4987 0.19593-0.7241 0.24586-0.4506 0.0999-0.8101 0.0919-1.0887 0.0648-1.4227-0.13858-1.1947-0.29667-1.5372-0.44306-0.3426-0.14638-0.7121-0.31939-1.132-0.52412-0.8399-0.40944-1.8641-0.94013-2.9232-1.521-1.7365-0.95237-3.5895-2.4546-5.8679-4.3956-2.2784-1.9409-4.8213-4.2659-7.2242-6.5758-2.4029-2.3099-4.6562-4.5947-6.3678-6.4947-0.8557-0.95002-1.5715-1.7943-2.1477-2.5747-0.2882-0.39018-0.544-0.75729-0.7862-1.1995s-0.6106-0.82686-0.6106-2.1802c0-0.91649 0.103-1.965 0.8321-3.0745 0.042-0.064 0.096-0.12188 0.1432-0.18371-0.7785-0.56931-1.54-1.2318-2.1856-1.9452-3.0521-3.3725-5.2588-3.6951-21.956-3.2258-17.819 0.50091-18.588 0.69224-19.168 4.7873-0.4274 3.0158 1.8717 6.9113 7.8402 13.292l8.4426 9.0262v60.581l-6.1976 4.7279c-10.867 8.289-27.353 15.624-62.202 27.67-18.678 6.4563-35.329 12.335-37.002 13.068-0.6081 0.26624-1.1318 0.44483-1.6075 0.52412 0.035 0.55253 0.063 1.0923 0.059 1.5886 0 0.58745-0.034 1.1342-0.1405 1.7317-0.106 0.59753-0.1809 1.2757-0.9644 2.2397 0.5064-0.62324 0.1565-0.24702-0.01 0.31338-0.162 0.56038-0.3527 1.4104-0.5296 2.4126-0.3538 2.0044-0.6608 4.6378-0.8104 7.2782l-0.5728 10.088c-0.1005 1.7579-1.294 2.8445-2.6638 3.1582 1.2054 4.7354 1.9776 8.9953 1.9776 11.479 0 7.095 0.6767 8.4757 5.3303 10.882 0.6471 0.33463 1.4827 0.96145 2.4126 1.7561 0.293-0.73765 0.8269-1.3866 1.5939-1.7885l5.1331-2.6935c1.8788-0.98586 7.7642-5.66 11.547-9.5665l7.289-7.5294c0.6516-0.67341 1.5485-1.0536 2.4855-1.0536h18.733c10.672 0 15.109 0.0583 20.173-2.2234s11.449-7.4289 24.663-18.185c11.764-9.5757 20.281-15.563 27.376-18.536 7.0949-2.9726 13.501-2.5203 18.233 1.2022l5.0871 4.0011c1.987 1.5615 1.6672 4.6348-0.5565 5.7815 1.9988 1.155 4.559 3.3268 8.7695 6.9999l10.485 9.145 2.8422 36.483-9.2585 8.9397-9.2612 8.9397v13.776c0 11.854 0.6433 14.619 4.6117 19.822 2.5365 3.3256 6.2913 10.926 8.3426 16.888 4.3973 12.781 6.1359 14.988 9.7961 12.101-1.4511-4.7845-2.2315-10.846-2.2315-16.58 0-5.423-0.1269-8.3955 0.9698-11.252 0.5484-1.4284 1.6227-2.7528 2.8043-3.5553s2.3399-1.2171 3.6013-1.6642c2.4183-0.85708 4.1007-1.5302 5.1953-2.1991 1.0945-0.66893 1.6849-1.2449 2.3882-2.4801 1.4066-2.4704 2.7445-7.9246 4.8764-18.549 4.235-21.106 8.7436-33.344 16.196-42.818 2.6324-3.3466 5.7673-5.7194 9.5233-5.8085 3.7559-0.089 7.0169 2.0644 9.9987 5.2385 1.745 1.8574 2.9794 2.8505 3.5986 5.206 0.3096 1.1778-0.014 3.0642-0.8969 4.1065-0.08 0.0947-0.1603 0.15678-0.2405 0.24045 6.6044 5.2843 23.413 21.18 43.01 40.8l41.794 41.843c10.249-3.5596 21.436-6.4862 36.975-9.7961l7.5808-1.6156 0.39984-6.2219c0.29796-4.6356-0.26163-7.5756-0.96719-8.8262-0.70556-1.2506-1.2024-1.5778-3.5283-1.5778-3.0867 0-6.3462-1.1034-8.4831-3.6256-2.1369-2.5222-3.4089-5.8565-4.9683-10.777-3.9026-12.314-12.657-27.931-20.097-36.08l-7.7348-8.4696c-1.1622-1.2754-1.1442-2.8307-0.47009-4.0119-8.6923-5.3568-18.511-10.643-28.329-15.124-7.1006-3.2407-16.437-8.1172-20.749-10.839l-5.6761-3.5851c-0.0522 0.10992-0.0865 0.20267-0.16751 0.3404-0.29297 0.49827-1.0969 1.7993-3.0934 1.7993-1.7883 0-1.798-0.37759-2.345-0.64028-0.54702-0.26269-1.1231-0.58027-1.7642-0.95908-1.2822-0.75764-2.8048-1.7537-4.3523-2.8556-1.3354-0.95086-2.5293-1.7772-3.631-3.0015-1.1016-1.2243-1.9382-2.8455-2.3801-4.6414-0.88385-3.5918-0.79699-8.0827-0.79699-16.945 0-8.9312-0.0885-13.475 0.86723-17.247 0.95571-3.7723 3.2124-6.0721 6.2002-8.9154 14.502-13.8 45.082-24.515 73.557-26.716 7.78-0.60147 11.423-0.97665 13.827-1.9452 2.4044-0.96853 4.4309-2.7927 9.0937-7.2026 11.528-10.903 21.36-15.44 34.089-15.44 4.0494 0 5.6204-0.13844 7.3619-1.0563 1.7416-0.91791 4.1443-3.1034 8.5399-7.5889 6.1992-6.3261 9.1653-11.239 9.734-14.37 0.28886-1.5904 0.5169-2.8684 0.93206-4.12 0.41517-1.2516 1.1592-2.6756 2.5125-3.6121 0.28614-0.19801 0.58016-0.34853 0.87534-0.48629-0.0731-0.0939-0.15855-0.17786-0.22695-0.27557-2.2394-3.1996-5.6158-3.7585-29.369-4.8602l-26.838-1.2455-9.6367 12.263c-17.233 21.929-30.306 28.338-61.176 29.994l-16.002 0.85913c-0.0463 0.27367-0.12023 0.56934-0.25395 0.90504-0.57482 1.443-2.5207 2.3286-3.4716 2.3369-1.3768 0.0124-1.7495-0.33557-2.2586-0.58626-0.5091-0.25068-0.98047-0.53689-1.4994-0.87532-1.0379-0.67687-2.238-1.5663-3.6067-2.6476-2.7374-2.1626-6.1151-5.0811-9.5584-8.3021l-12.293-11.498c-0.7504-0.70254-1.1493-1.7025-1.0888-2.7286l1.2941-22.121c0.718-12.275 2.4458-32 3.8606-44.072 1.3931-11.886 3.1098-29.959 3.7985-39.957l1.2671-18.374c0.0856-1.2343 0.81662-2.265 1.8398-2.807-2.3834-2.3019-8.5463-3.7626-13.632-3.8012z" fill="#b22525"/><path d="m84.084 51.54c-1.111 0.0444-2.0168 0.18568-2.6665 0.43498-1.7118 0.65685-3.3749 4.5689-4.1551 9.7718-1.1597 7.7334-0.7162 9.5037 4.0903 16.285 5.6366 7.9532 9.6583 17.757 9.6583 23.55 0 0.3973-0.224 1.0502-0.5701 1.8344 0.105-6e-3 0.1865-0.0243 0.3026-0.0243 1.6864 0 2.3788 0.68303 2.9664 1.1698s1.0363 0.99988 1.4778 1.5696c0.883 1.1395 1.6932 2.5124 2.3937 4.0498 1.0827 2.3764 1.6501 5.5099 0.4781 8.5047 2.276 0.83124 6.3815 2.8798 10.704 5.406 0.7338 0.42884 1.5013 0.86484 2.291 1.2968 0.2267-0.42724 0.5035-0.77607 0.7538-1.0104 0.8904-0.83375 1.4709-0.91792 1.9965-1.0644 1.0511-0.29307 2.0246-0.37016 3.2689-0.43227 2.4888-0.12429 5.8607-0.0311 9.8799 0.27286 3.6209 0.27392 7.0326 0.3417 9.4827 0.24045 0.8347-0.0345 1.3351-0.10644 1.8885-0.17021 0.1694-1.1415 0.3677-2.7639 0.57-4.7143 0.4071-3.9231 0.84-9.1642 1.1968-14.724l1.2185-18.984-5.7248-6.8514-6.6082-7.9104c-1.2324-1.4752-1.0001-3.6156 0.3891-4.8197-2.6439-1.0146-6.273-2.6426-10.018-4.5739-9.6988-5.002-27.487-9.4179-35.264-9.1072zm198.77 26.392c-3.2512-0.0247-6.0481 0.5297-7.1107 1.8101-4.2158 5.0797-7.688 29.803-8.856 63.072l-1.1644 33.198-44.345 44.623c0.014 0.18141 0.024 0.3905 0.011 0.6646-0.01 0.15041-0.024 0.31978-0.062 0.51061-0.038 0.19084-0.1914 0.63132-0.1918 0.63218-7e-4 2e-3 -0.9956 1.3552-0.9969 1.3562-6e-4 5.4e-4 -0.7394 0.4724-0.7402 0.47277-8e-4 3.8e-4 -0.4987 0.19593-0.7241 0.24586-0.4506 0.0999-0.8101 0.0919-1.0887 0.0648-1.4227-0.13858-1.1947-0.29667-1.5372-0.44306-0.3426-0.14638-0.7121-0.31939-1.132-0.52412-0.8399-0.40944-1.8641-0.94013-2.9232-1.521-1.7365-0.95237-3.5895-2.4546-5.8679-4.3956-2.2784-1.9409-4.8213-4.2659-7.2242-6.5758-2.4029-2.3099-4.6562-4.5947-6.3678-6.4947-0.8557-0.95002-1.5715-1.7943-2.1477-2.5747-0.2882-0.39018-0.544-0.75729-0.7862-1.1995s-0.6106-0.82686-0.6106-2.1802c0-0.91649 0.103-1.965 0.8321-3.0745 0.042-0.064 0.096-0.12188 0.1432-0.18371-0.7785-0.56931-1.54-1.2318-2.1856-1.9452-3.0521-3.3725-5.2588-3.6951-21.956-3.2258-17.819 0.50091-18.588 0.69224-19.168 4.7873-0.4274 3.0158 1.8717 6.9113 7.8402 13.292l8.4426 9.0262v60.581l-6.1976 4.7279c-10.867 8.289-27.353 15.624-62.202 27.67-18.678 6.4563-35.329 12.335-37.002 13.068-0.6081 0.26624-1.1318 0.44483-1.6075 0.52412 0.035 0.55253 0.063 1.0923 0.059 1.5886 0 0.58745-0.034 1.1342-0.1405 1.7317-0.106 0.59753-0.1809 1.2757-0.9644 2.2397 0.5064-0.62324 0.1565-0.24702-0.01 0.31338-0.162 0.56038-0.3527 1.4104-0.5296 2.4126-0.3538 2.0044-0.6608 4.6378-0.8104 7.2782l-0.5728 10.088c-0.1005 1.7579-1.294 2.8445-2.6638 3.1582 1.2054 4.7354 1.9776 8.9953 1.9776 11.479 0 7.095 0.6767 8.4757 5.3303 10.882 0.6471 0.33463 1.4827 0.96145 2.4126 1.7561 0.293-0.73765 0.8269-1.3866 1.5939-1.7885l5.1331-2.6935c1.8788-0.98586 7.7642-5.66 11.547-9.5665l7.289-7.5294c0.6516-0.67341 1.5485-1.0536 2.4855-1.0536h18.733c10.672 0 15.109 0.0583 20.173-2.2234s11.449-7.4289 24.663-18.185c11.764-9.5757 20.281-15.563 27.376-18.536 7.0949-2.9726 13.501-2.5203 18.233 1.2022l5.0871 4.0011c1.987 1.5615 1.6672 4.6348-0.5565 5.7815 1.9988 1.155 4.559 3.3268 8.7695 6.9999l10.485 9.145 2.8422 36.483-9.2585 8.9397-9.2612 8.9397v13.776c0 11.854 0.6433 14.619 4.6117 19.822 2.5365 3.3256 6.2913 10.926 8.3426 16.888 4.3973 12.781 6.1359 14.988 9.7961 12.101-1.4511-4.7845-2.2315-10.846-2.2315-16.58 0-5.423-0.1269-8.3955 0.9698-11.252 0.5484-1.4284 1.6227-2.7528 2.8043-3.5553s2.3399-1.2171 3.6013-1.6642c2.4183-0.85708 4.1007-1.5302 5.1953-2.1991 1.0945-0.66893 1.6849-1.2449 2.3882-2.4801 1.4066-2.4704 2.7445-7.9246 4.8764-18.549 4.235-21.106 8.7436-33.344 16.196-42.818 2.6324-3.3466 5.7673-5.7194 9.5233-5.8085 3.7559-0.089 7.0169 2.0644 9.9987 5.2385 1.745 1.8574 2.9794 2.8505 3.5986 5.206 0.3096 1.1778-0.014 3.0642-0.8969 4.1065-0.08 0.0947-0.1603 0.15678-0.2405 0.24045 6.6044 5.2843 23.413 21.18 43.01 40.8l41.794 41.843c10.249-3.5596 21.436-6.4862 36.975-9.7961l7.5808-1.6156 0.39984-6.2219c0.29796-4.6356-0.26163-7.5756-0.96719-8.8262-0.70556-1.2506-1.2024-1.5778-3.5283-1.5778-3.0867 0-6.3462-1.1034-8.4831-3.6256-2.1369-2.5222-3.4089-5.8565-4.9683-10.777-3.9026-12.314-12.657-27.931-20.097-36.08l-7.7348-8.4696c-1.1622-1.2754-1.1442-2.8307-0.47009-4.0119-8.6923-5.3568-18.511-10.643-28.329-15.124-7.1006-3.2407-16.437-8.1172-20.749-10.839l-5.6761-3.5851c-0.0522 0.10992-0.0865 0.20267-0.16751 0.3404-0.29297 0.49827-1.0969 1.7993-3.0934 1.7993-1.7883 0-1.798-0.37759-2.345-0.64028-0.54702-0.26269-1.1231-0.58027-1.7642-0.95908-1.2822-0.75764-2.8048-1.7537-4.3523-2.8556-1.3354-0.95086-2.5293-1.7772-3.631-3.0015-1.1016-1.2243-1.9382-2.8455-2.3801-4.6414-0.88385-3.5918-0.79699-8.0827-0.79699-16.945 0-8.9312-0.0885-13.475 0.86723-17.247 0.95571-3.7723 3.2124-6.0721 6.2002-8.9154 14.502-13.8 45.082-24.515 73.557-26.716 7.78-0.60147 11.423-0.97665 13.827-1.9452 2.4044-0.96853 4.4309-2.7927 9.0937-7.2026 11.528-10.903 21.36-15.44 34.089-15.44 4.0494 0 5.6204-0.13844 7.3619-1.0563 1.7416-0.91791 4.1443-3.1034 8.5399-7.5889 6.1992-6.3261 9.1653-11.239 9.734-14.37 0.28886-1.5904 0.5169-2.8684 0.93206-4.12 0.41517-1.2516 1.1592-2.6756 2.5125-3.6121 0.28614-0.19801 0.58016-0.34853 0.87534-0.48629-0.0731-0.0939-0.15855-0.17786-0.22695-0.27557-2.2394-3.1996-5.6158-3.7585-29.369-4.8602l-26.838-1.2455-9.6367 12.263c-17.233 21.929-30.306 28.338-61.176 29.994l-16.002 0.85913c-0.0463 0.27367-0.12023 0.56934-0.25395 0.90504-0.57482 1.443-2.5207 2.3286-3.4716 2.3369-1.3768 0.0124-1.7495-0.33557-2.2586-0.58626-0.5091-0.25068-0.98047-0.53689-1.4994-0.87532-1.0379-0.67687-2.238-1.5663-3.6067-2.6476-2.7374-2.1626-6.1151-5.0811-9.5584-8.3021l-12.293-11.498c-0.7504-0.70254-1.1493-1.7025-1.0888-2.7286l1.2941-22.121c0.718-12.275 2.4458-32 3.8606-44.072 1.3931-11.886 3.1098-29.959 3.7985-39.957l1.2671-18.374c0.0856-1.2343 0.81662-2.265 1.8398-2.807-2.3834-2.3019-8.5463-3.7626-13.632-3.8012z" opacity=".5"/><path d="m84.079 31.54c-1.111 0.0444-2.0168 0.18568-2.6665 0.43498-1.7118 0.65685-3.3749 4.5689-4.1551 9.7718-1.1597 7.7334-0.71614 9.5037 4.0903 16.285 5.6367 7.9532 9.6583 17.757 9.6583 23.55 0 0.3973-0.22399 1.0502-0.57005 1.8344 0.10493-6e-3 0.18647-0.0243 0.30258-0.0243 1.6864 0 2.3788 0.68303 2.9664 1.1698s1.0363 0.99988 1.4778 1.5696c0.88296 1.1395 1.6932 2.5124 2.3936 4.0498 1.0828 2.3764 1.6501 5.5099 0.47819 8.5047 2.276 0.83124 6.3815 2.8798 10.704 5.406 0.7338 0.42884 1.5013 0.86484 2.291 1.2968 0.22667-0.42724 0.50347-0.77607 0.75376-1.0104 0.89046-0.83375 1.471-0.91792 1.9965-1.0644 1.0511-0.29307 2.0246-0.37016 3.269-0.43227 2.4888-0.12429 5.8607-0.0311 9.8799 0.27286 3.6209 0.27392 7.0326 0.3417 9.4827 0.24045 0.83466-0.0345 1.335-0.10644 1.8884-0.17021 0.16939-1.1415 0.36768-2.7639 0.57005-4.7143 0.40704-3.9231 0.83999-9.1642 1.1968-14.724l1.2184-18.984-5.7248-6.8514-6.6082-7.9104c-1.2324-1.4752-1.0002-3.6156 0.38904-4.8197-2.6439-1.0146-6.273-2.6426-10.018-4.5739-9.6988-5.002-27.487-9.4179-35.264-9.1072zm198.77 26.392c-3.2511-0.0247-6.0481 0.5297-7.1107 1.8101-4.2158 5.0797-7.688 29.803-8.856 63.072l-1.1644 33.198-22.91 23.053-21.435 21.57c0.0144 0.18141 0.0244 0.3905 0.0108 0.6646-7e-3 0.15041-0.024 0.31978-0.0621 0.51061-0.0382 0.19084-0.19145 0.63132-0.19181 0.63218-7.1e-4 2e-3 -0.99563 1.3552-0.99691 1.3562-6.5e-4 5.4e-4 -0.73944 0.4724-0.74024 0.47277-7.9e-4 3.8e-4 -0.49871 0.19593-0.72404 0.24586-0.45069 0.0999-0.81015 0.0919-1.0888 0.0648-1.4227-0.13858-1.1946-0.29667-1.5372-0.44306-0.3426-0.14638-0.71208-0.31939-1.132-0.52412-0.83982-0.40944-1.864-0.94013-2.9232-1.521-1.7365-0.95237-3.5895-2.4546-5.8679-4.3956-2.2784-1.9409-4.8212-4.2659-7.2242-6.5758-2.4029-2.3099-4.6562-4.5947-6.3678-6.4947-0.85579-0.95002-1.5715-1.7943-2.1478-2.5747-0.28814-0.39018-0.54399-0.75729-0.78618-1.1995-0.24217-0.44222-0.61057-0.82686-0.61057-2.1802 0-0.91649 0.103-1.965 0.83211-3.0745 0.0421-0.064 0.096-0.12188 0.14318-0.18371-0.77848-0.56931-1.54-1.2318-2.1856-1.9452-3.0521-3.3725-5.2587-3.6951-21.956-3.2258-17.819 0.50092-18.588 0.69224-19.168 4.7873-0.4274 3.0158 1.8717 6.9113 7.8401 13.292l8.4426 9.0262v60.581l-6.1976 4.7279c-10.867 8.289-27.353 15.624-62.202 27.67-18.677 6.4563-35.329 12.335-37.002 13.068-0.60808 0.26624-1.1318 0.44483-1.6075 0.52412 0.0351 0.55253 0.0635 1.0923 0.0594 1.5886-5e-3 0.58745-0.0344 1.1342-0.14048 1.7317-0.10604 0.59753-0.1809 1.2757-0.96449 2.2397 0.50648-0.62323 0.15651-0.24701-5e-3 0.31338-0.16191 0.56038-0.35262 1.4104-0.52952 2.4126-0.35382 2.0044-0.66088 4.6378-0.81048 7.2782l-0.57275 10.088c-0.10054 1.7579-1.294 2.8445-2.6638 3.1582 1.2054 4.7354 1.9776 8.9953 1.9776 11.479 0 7.095 0.67675 8.4757 5.3303 10.882 0.64712 0.33463 1.4826 0.96145 2.4126 1.7561 0.29301-0.73765 0.82688-1.3866 1.594-1.7885l5.1331-2.6935c1.8788-0.98586 7.7641-5.66 11.547-9.5665l7.289-7.5294c0.65155-0.67341 1.5485-1.0536 2.4855-1.0536h18.733c10.672 0 15.109 0.0583 20.173-2.2234 5.0644-2.2817 11.449-7.4289 24.663-18.185 11.764-9.5757 20.281-15.563 27.376-18.536 7.095-2.9726 13.501-2.5203 18.233 1.2022l5.0872 4.0011c1.987 1.5615 1.6671 4.6348-0.55653 5.7815 1.9988 1.155 4.559 3.3268 8.7695 6.9999l10.485 9.145 2.8421 36.483-9.2585 8.9397-9.2612 8.9397v13.776c0 11.854 0.64332 14.619 4.6117 19.822 2.5365 3.3256 6.2914 10.926 8.3426 16.888 4.3973 12.781 6.1359 14.988 9.7961 12.101-1.4511-4.7845-2.2316-10.846-2.2316-16.58 0-5.423-0.12683-8.3955 0.96988-11.252 0.54837-1.4284 1.6227-2.7528 2.8043-3.5553 1.1816-0.80252 2.3398-1.2171 3.6013-1.6642 2.4183-0.85708 4.1007-1.5302 5.1952-2.1991 1.0946-0.66893 1.6849-1.2449 2.3882-2.4801 1.4066-2.4704 2.7446-7.9246 4.8764-18.549 4.2349-21.106 8.7436-33.344 16.196-42.818 2.6324-3.3466 5.7673-5.7194 9.5232-5.8085 3.756-0.089 7.0169 2.0644 9.9988 5.2385 1.745 1.8575 2.9794 2.8505 3.5986 5.206 0.3096 1.1778-0.0138 3.0642-0.89694 4.1065-0.0802 0.0947-0.16022 0.15678-0.24045 0.24045 6.6044 5.2843 23.413 21.18 43.01 40.8l41.794 41.843c10.249-3.5596 21.436-6.4862 36.975-9.7961l7.5808-1.6156 0.39984-6.2219c0.29796-4.6356-0.26163-7.5756-0.96719-8.8262-0.70556-1.2506-1.2024-1.5778-3.5283-1.5778-3.0867 0-6.3462-1.1034-8.4831-3.6256-2.1369-2.5222-3.4089-5.8565-4.9683-10.777-3.9026-12.314-12.657-27.931-20.097-36.08l-7.7348-8.4696c-1.1622-1.2754-1.1442-2.8307-0.47009-4.0119-8.6923-5.3568-18.511-10.643-28.329-15.124-7.1006-3.2407-16.437-8.1172-20.749-10.839l-5.6761-3.5851c-0.0522 0.10992-0.0865 0.20267-0.16751 0.3404-0.29297 0.49827-1.0969 1.7993-3.0934 1.7993-1.7883 0-1.798-0.37759-2.345-0.64028-0.54702-0.26269-1.1231-0.58027-1.7642-0.95908-1.2822-0.75764-2.8048-1.7537-4.3523-2.8556-1.3354-0.95086-2.5293-1.7772-3.631-3.0015-1.1016-1.2243-1.9382-2.8455-2.3801-4.6414-0.88385-3.5918-0.79699-8.0827-0.79699-16.945 0-8.9312-0.0885-13.475 0.86723-17.247 0.95571-3.7723 3.2124-6.0721 6.2002-8.9154 14.502-13.8 45.082-24.515 73.557-26.716 7.78-0.60147 11.423-0.97665 13.827-1.9452 2.4044-0.96853 4.4309-2.7927 9.0937-7.2026 11.528-10.903 21.36-15.44 34.089-15.44 4.0494 0 5.6204-0.13844 7.3619-1.0563 1.7416-0.91791 4.1443-3.1034 8.5399-7.5889 6.1992-6.3261 9.1653-11.239 9.734-14.37 0.28886-1.5904 0.5169-2.8684 0.93206-4.12 0.41517-1.2516 1.1592-2.6756 2.5125-3.6121 0.28614-0.19801 0.58016-0.34853 0.87534-0.48629-0.0731-0.0939-0.15855-0.17786-0.22695-0.27557-2.2394-3.1996-5.6158-3.7585-29.369-4.8602l-26.838-1.2455-9.6367 12.263c-17.233 21.929-30.306 28.338-61.176 29.994l-16.002 0.85913c-0.0463 0.27367-0.12023 0.56934-0.25395 0.90504-0.57482 1.443-2.5207 2.3286-3.4716 2.3369-1.3768 0.0124-1.7495-0.33557-2.2586-0.58626-0.5091-0.25067-0.98047-0.53689-1.4994-0.87532-1.0379-0.67687-2.238-1.5663-3.6067-2.6476-2.7374-2.1626-6.1151-5.0811-9.5584-8.3021l-12.293-11.498c-0.75039-0.70254-1.1493-1.7025-1.0888-2.7286l1.2941-22.121c0.71799-12.275 2.4458-32 3.8606-44.072 1.3931-11.886 3.1098-29.959 3.7985-39.957l1.2671-18.374c0.0856-1.2343 0.81662-2.265 1.8398-2.807-2.3834-2.3019-8.5463-3.7626-13.632-3.8012z" fill="#f20a0a"/></g></svg>
