<svg width="512" height="512" version="1.1" viewBox="0 0 384 384" xmlns="http://www.w3.org/2000/svg"><g transform="matrix(1.0871 0 0 1.0871 -16.722 -16.722)"><g transform="translate(5.0271 -.43403)"><path d="m102.8 345.67c9.5547-8.1094 21.961-29.777 29.121-38.906 2.7344-1.0078 2.582-2.7266-0.64062-7.0664-1.4766-1.9922-3.4375-6.3672-4.3555-9.7266-0.92188-3.3555-2.582-8.7266-3.6914-11.93 2.2617 1.8008 6.6641-0.76563 8.7227 1.2461 16.137 15.422 29.816 19.055 33.387 19.051 39.258-0.33984 82.094-28.508 85.82-65.457 1.3789-14.773-3.1836-36.629-12.742-47.703-14.27-20.172-42.254-27.203-75.41-12.73-15.113 6.8945-41.852 24.375-54.437 35.914-26.773 24.562-29.813 1.5547-37.652-13.719-2.957-5.7578-7.0742 14.02-6.9922-4.5859 0.07422-16.508 0.67969-22.465 3.1758-31.27 8.332-29.398 30.582-58.871 55.336-73.305 14.137-8.2383 27.879-11.691 51.906-13.043 43.449-2.4453 67.699-7.5859 91.805-22.988 14.305-9.1406 19.816-11.73 24.148-7.1367 4.8711 5.1602-4.1328 9.5039-17.141 28.344-13.914 20.148-7.0859 27.344 9.6445 47.547 16.703 20.168 24.543 38.785 26.723 63.445 5.0898 57.629-19.867 98.871-71.426 118.04-6.2344 2.3164-17.711 5.6719-25.504 7.457-7.7891 1.7812-19.902 4.5508-26.918 6.1484-26.59 6.0625-55.32 17.406-73.633 29.07-7.9375 5.0547-9.2461 5.5234-9.2461 3.3086z" fill="#fff"/><path d="m126.44 313.46c11.324-16.277 8.625-3.7227 5-10.574-4.5195-5.7227-12.773-33.48-10.578-35.582 0.5039-0.48438 5.9414 4.0234 12.09 10.02 12.945 12.625 23.277 17.98 39.656 20.547 63.281-0.62109 94.535-50.969 94.855-90.152 0.5664-19.438-10.273-63.996-31.941-64.301-16.09 2.7383-21.168 29.77-17.434 42.266 2.2422 6.5859 3.2539 20.148 1.1758 22.141-2.6367 2.5312-13.258-1.3867-22.551-11.02-8.168-8.4648-9.4336-10.133-8.8086-21.352 0.50391-9.0039-2.5781-22.145-9.2617-26.055-28.309-15.754-85.914-3.4453-86.93 27.844-0.18359 11.066 5.707 21.664 16.734 28.242 3.1524 1.8828 2.7734 1.7227-11.906 12.387-21.52 15.641-33.453 9.0586-35.637-18.164-1.7266-21.484 4.0156-47.359 14.895-67.148 14.816-26.941 37.063-47.277 60.629-55.414 12.871-4.4453 18.566-5.3477 42.391-6.7188 39.633-2.2773 62.387-8.3203 86.852-23.059 16.125-9.7148 21.711-11.746 25.031-9.1016 1.8555 1.4766 2.2852 3.5312 1.7852 8.543-0.52343 5.2422-2.6602 9.4375-10.406 20.469-5.3633 7.6289-10.406 16.047-11.211 18.707-2.6328 8.7031 0.33203 16.113 11.938 29.836 62.82 85.863 24.844 173.05-78.316 195.36-43.254 9.4414-65.363 16.918-86.914 29.383-7.2734 4.2109-15.344 7.1016-15.82 7.1016 6.5859-13.43 17.113-23.695 24.684-34.203z" fill="#262833"/></g></g><path d="m301.45 23.251c-0.75983-0.01813-1.6128 0.08044-2.584 0.30469-0.32371 0.07475-0.66129 0.16358-1.0122 0.2666-1.0524 0.30907-2.2323 0.74722-3.5625 1.3228-2.218 0.95962-4.8561 2.3014-8.0318 4.0694-2.5405 1.4143-5.4247 3.1013-8.7112 5.0816-1.6622 1.0014-3.3176 1.9657-4.9702 2.8946-4.1316 2.3221-8.2485 4.422-12.428 6.3194-1.6718 0.75892-3.354 1.4856-5.0508 2.1812-0.8484 0.34778-1.6996 0.6871-2.5562 1.0196-3.4258 1.3298-6.9218 2.5386-10.526 3.6358-4.5057 1.3714-9.1815 2.569-14.105 3.6138-2.9542 0.62687-5.9989 1.1986-9.1478 1.7198-10.497 1.7368-22.168 2.9104-35.632 3.6841-12.95 0.74525-20.973 1.3624-27.507 2.398-1.6336 0.25888-3.1731 0.54464-4.6743 0.86422s-2.9636 0.6734-4.4399 1.0708c-2.9528 0.79478-5.9634 1.7626-9.4612 2.9707-1.6012 0.55284-3.1973 1.157-4.7857 1.812-3.1767 1.31-6.3233 2.8214-9.429 4.522-2.3294 1.2754-4.6358 2.6576-6.9126 4.1411-1.5178 0.98902-3.0227 2.0233-4.5132 3.1011s-2.967 2.1982-4.4268 3.3618c-0.72989 0.58178-1.4552 1.1742-2.1767 1.7768-2.8864 2.4106-5.7056 4.9882-8.4435 7.7182-1.3689 1.3651-2.7176 2.768-4.0444 4.2085-0.66345 0.72022-1.3208 1.4485-1.9732 2.187-2.4e-4 2.78e-4 2.4e-4 0.0012 0 0.0015-0.65209 0.73825-1.3004 1.4851-1.9409 2.2412-0.64106 0.75675-1.2752 1.5226-1.9043 2.2969-0.62889 0.77401-1.2511 1.5555-1.8676 2.3467-1.2334 1.5826-2.441 3.1995-3.6226 4.8486-0.59068 0.8244-1.1748 1.6556-1.7519 2.4961-1.1546 1.6813-2.2815 3.3939-3.3794 5.1372-0.54884 0.8715-1.0904 1.7503-1.6245 2.6367-1.0684 1.7732-2.1059 3.5758-3.1128 5.4068-0.56068 1.0199-1.1054 2.0585-1.6406 3.1069-0.08585 0.16815-0.17262 0.33507-0.25781 0.50391-0.51308 1.0169-1.0142 2.047-1.5029 3.0879-0.08564 0.18237-0.17 0.36624-0.25488 0.54931-0.49864 1.0755-0.98812 2.1597-1.4605 3.2578-0.0028 6e-3 -6e-3 0.0126-0.0088 0.019-0.47792 1.1116-0.93682 2.2367-1.3872 3.3692-0.06298 0.15831-0.12653 0.31593-0.18896 0.47461-0.43383 1.103-0.85545 2.2141-1.2627 3.334-0.06537 0.17968-0.12868 0.36043-0.19336 0.54052-0.41311 1.1506-0.8166 2.3074-1.2012 3.4732-0.39209 1.1885-0.76605 2.3858-1.1279 3.5874-0.04474 0.1485-0.09049 0.29663-0.13477 0.44531-0.35557 1.1946-0.69586 2.3945-1.021 3.5991-0.02451 0.0908-0.04891 0.18166-0.07324 0.27246-0.67598 2.5238-1.2852 5.0659-1.8237 7.6155-0.0095 0.045-0.01984 0.0898-0.0293 0.13477-0.27275 1.2974-0.52703 2.597-0.7632 3.8965-0.47906 2.6362-0.88282 5.2742-1.207 7.8998-0.4863 3.9386-0.79508 7.851-0.91702 11.694-2.17e-4 -6e-3 2.18e-4 -0.0127 0-0.019-0.13244 4.1502-0.05246 8.2215 0.26367 12.155 2.3738 29.594 15.347 36.749 38.74 19.746 10.879-7.9028 14.531-10.337 14.669-11.734 14.223-12.518 41.761-30.419 57.598-37.643 9.1718-4.0035 17.977-6.4854 26.267-7.611 0.32961 1.7675 0.56064 3.5422 0.69726 5.272 0.024-0.60696 0.0523-1.2296 0.0894-1.8955 0.18472-3.3004-0.0843-7.1106-0.7866-10.876-8.2905 1.126-17.096 3.6078-26.267 7.611-15.837 7.2247-43.374 25.125-57.598 37.643-0.1386 1.3976-3.7905 3.8322-14.669 11.734-23.394 17.002-36.367 9.8475-38.74-19.746-0.02882-0.35862-0.04971-0.7217-0.07471-1.0826 1.2392-19.399 7.0574-40.162 16.267-56.915 16.107-29.288 40.29-51.395 65.909-60.24 13.992-4.8325 20.183-5.8132 46.082-7.3037 43.084-2.4757 67.821-9.0458 94.418-25.068 13.147-7.9208 19.85-11.141 23.902-11.045 1.3508 0.03225 2.4067 0.43264 3.3091 1.1514 0.15866 0.12628 0.29538 0.26302 0.43505 0.39844-1.5323 3.8342-4.416 8.4622-9.807 16.14-5.8304 8.2935-11.313 17.444-12.188 20.336-1.0188 3.3679-1.2614 6.5588-0.58886 9.9435 0.15477-0.80805 0.33961-1.6194 0.58886-2.4434 0.87472-2.8918 6.3571-12.043 12.188-20.336 8.421-11.992 10.744-16.552 11.313-22.251 0.30064-3.0136 0.2905-5.0416-0.11866-6.5259-0.0777-0.28192-0.17266-0.54091-0.27978-0.7866-0.0119-0.02722-0.0229-0.05522-0.0352-0.08204-0.10562-0.23152-0.22651-0.44759-0.36035-0.65186-0.0187-0.02853-0.0378-0.05691-0.0571-0.08496-0.13794-0.20098-0.28806-0.39172-0.45556-0.57129-0.0178-0.01909-0.0375-0.03678-0.0557-0.05566-0.17746-0.18465-0.36778-0.36103-0.57861-0.52881-0.9024-0.71872-1.9584-1.1192-3.3091-1.1514zm-18.839 62.971c-1.6217 8.4705 2.0491 16.372 13.566 29.99 20.666 28.246 31.276 56.62 32.946 83.138-3.632 54.376-46.365 98.73-118.08 114.24-47.021 10.264-71.056 18.392-94.485 31.942-1.0738 0.62171-2.1616 1.2094-3.2446 1.7739 4.4843-5.6059 9.0315-10.896 12.879-16.236 4.025-5.7855 6.3993-8.193 7.6628-9.1095-0.6084-0.18482-1.3941-0.81112-2.2266-2.3848-0.35587-0.4506-0.73534-1.0404-1.1279-1.7227-1e-3 1e-3 -2e-3 3e-3 -3e-3 4e-3 -0.27535 0.32865-0.56623 0.68649-0.87015 1.0678-0.0455 0.0573-0.0929 0.11724-0.13916 0.17578-0.26 0.32865-0.53261 0.67849-0.81443 1.0488-0.17153 0.22583-0.35334 0.47285-0.53319 0.71485-0.21256 0.28556-0.42124 0.56343-0.646 0.87307-0.41555 0.57297-0.84488 1.1751-1.3022 1.8326-0.71149 0.9876-1.4542 1.973-2.209 2.959-0.18553 0.24248-0.37181 0.48544-0.55958 0.72802-0.38031 0.49114-0.77295 0.9861-1.1616 1.478-0.72111 0.91327-1.4623 1.8393-2.206 2.7583-0.86295 1.0654-1.7382 2.1428-2.6206 3.2212-3.8071 4.6568-7.7168 9.4432-11.298 14.634-0.43178 0.6258-0.85808 1.2566-1.2788 1.894-1.9948 3.022-3.8624 6.1724-5.499 9.51 0.51807 0 9.2917-3.142 17.199-7.7198 23.428-13.55 47.463-21.679 94.485-31.942 76.605-16.562 120.13-66.04 118.27-125.48-2.1e-4 -7e-3 -1e-3 -0.0137-1e-3 -0.0205-0.0259-0.82395-0.0607-1.6493-0.104-2.477-6e-3 -0.11409-0.0142-0.22861-0.0205-0.34277-0.0845-1.5297-0.1998-3.0665-0.34424-4.6084-0.0169-0.18021-0.0321-0.36015-0.0498-0.54053-0.08-0.8151-0.16686-1.6309-0.26368-2.4492-0.18828-1.5915-0.4128-3.1899-0.66504-4.793-0.0482-0.30606-0.0974-0.61199-0.14794-0.91845-0.22268-1.3514-0.46991-2.7075-0.73829-4.0664-0.0597-0.30189-0.11383-0.60303-0.17577-0.90525-0.14103-0.68877-0.29252-1.3792-0.44532-2.0698-0.10757-0.4857-0.2191-0.97245-0.33252-1.459-0.24078-1.0339-0.49593-2.0692-0.7632-3.107-0.1464-0.56799-0.29241-1.136-0.44677-1.705-0.17743-0.65459-0.36134-1.3099-0.54932-1.9658-0.18504-0.64521-0.37747-1.2915-0.57276-1.938-0.26114-0.8652-0.53196-1.7313-0.8115-2.5986-0.21321-0.66105-0.42938-1.3226-0.65331-1.9849-0.19761-0.58477-0.39607-1.1692-0.60206-1.7548-0.36853-1.0472-0.74861-2.0952-1.144-3.145-0.1733-0.4604-0.3547-0.9219-0.5332-1.3828-0.31095-0.8025-0.62982-1.6058-0.95655-2.4097-0.19519-0.48051-0.38656-0.96045-0.5874-1.4414-0.45578-1.091-0.92865-2.1836-1.4136-3.2768-0.20906-0.47151-0.42419-0.94313-0.63867-1.415-0.44022-0.9681-0.89033-1.9366-1.3535-2.9062-0.11821-0.24757-0.23038-0.49501-0.3501-0.74267-0.0222-0.046-0.0466-0.0917-0.0688-0.1377-0.56441-1.1646-1.1499-2.3301-1.7476-3.4966-0.19131-0.37348-0.38389-0.74694-0.57862-1.1206-0.63536-1.2188-1.2822-2.4388-1.9541-3.6592-0.13033-0.23682-0.26671-0.47358-0.39843-0.71045-0.60923-1.0953-1.2347-2.1908-1.8735-3.2871-0.17127-0.29398-0.34077-0.5878-0.51417-0.88185-0.72482-1.229-1.4674-2.4586-2.2295-3.6885-0.20091-0.32424-0.40733-0.64837-0.61084-0.97267-0.69901-1.1137-1.4118-2.2273-2.1416-3.3413-0.12521-0.19114-0.24596-0.38305-0.37207-0.57421-0.8382-1.2704-1.6997-2.5411-2.5781-3.8115-0.21689-0.31371-0.43689-0.62674-0.65625-0.94043-0.89617-1.2816-1.8048-2.5625-2.7422-3.8438-0.91822-1.0858-1.7714-2.1259-2.5913-3.142-0.24771-0.30703-0.48182-0.60421-0.72071-0.90525-0.57652-0.72649-1.1294-1.4393-1.6552-2.1328-0.31299-0.41287-0.63047-0.8286-0.9258-1.2304-0.12496-0.16999-0.2517-0.34166-0.37353-0.50977-0.48179-0.665-0.94365-1.3173-1.3769-1.9541-0.1127-0.16556-0.21719-0.32697-0.32666-0.49072-0.33552-0.50212-0.6555-0.99645-0.9609-1.4824-0.11845-0.18839-0.2405-0.37934-0.35449-0.56543-0.35317-0.57686-0.68381-1.1416-0.99465-1.6978-0.10408-0.18615-0.2009-0.36972-0.30029-0.55371-0.23497-0.4352-0.45742-0.86512-0.66651-1.2891-0.0838-0.16989-0.17369-0.34304-0.25342-0.51123-0.24206-0.51092-0.46035-1.0122-0.66504-1.5088-0.087-0.2111-0.16863-0.42112-0.24902-0.62989-0.15398-0.40005-0.29641-0.79575-0.42627-1.188-0.17205-0.51949-0.33088-1.036-0.46142-1.544-0.0996-0.3874-0.18775-0.77242-0.26367-1.1543zm-57.388 72.454c-0.65505 4.2274-0.81765 8.409-0.51709 12.123 0.10982-1.5226 0.27612-3.068 0.51709-4.6231 9.2768 3.7482 17.006 9.8715 22.711 17.937 8.427 9.7635 13.28 27.233 14.014 42.056 0.85665-15.956-4.1079-38.078-14.014-49.556-5.7053-8.0655-13.434-14.188-22.711-17.937zm-32.224 15.086c-0.64844 11.985 0.76387 13.845 9.5858 22.988 10.102 10.472 21.65 14.732 24.516 11.98 1.2116-1.1615 1.4506-5.9478 1.0415-11.235-0.0325-0.42159-0.0692-0.84503-0.10986-1.2715-0.0174-0.1824-0.0368-0.36496-0.0557-0.54785-0.0421-0.40914-0.0855-0.81945-0.13476-1.229-0.0282-0.23353-0.0605-0.46578-0.0908-0.69873-0.045-0.34578-0.0894-0.69108-0.13916-1.0342-0.0453-0.31153-0.0945-0.61923-0.14356-0.92722-0.0445-0.27971-0.0872-0.56061-0.13476-0.8364-0.0505-0.29268-0.10587-0.57706-0.15967-0.86423-0.0568-0.3037-0.11244-0.61043-0.17285-0.90675-0.0563-0.27594-0.11795-0.54019-0.17725-0.80857-0.0584-0.2646-0.11455-0.53478-0.17578-0.79103-0.0828-0.34627-0.17015-0.67316-0.25781-1.0019-0.0465-0.17428-0.0899-0.35851-0.13769-0.52734-0.13821-0.48831-0.28207-0.95363-0.43067-1.3901-0.12429-0.41587-0.2366-0.85207-0.34278-1.2964-0.023-0.0968-0.0452-0.19344-0.0674-0.29151-0.0537-0.2364-0.0993-0.48444-0.14794-0.72803-0.0787-0.39619-0.15145-0.79897-0.21681-1.2129-0.0413-0.25991-0.0812-0.52018-0.11718-0.7866-0.0505-0.37631-0.0932-0.7617-0.1333-1.1499-0.0306-0.29465-0.0649-0.58366-0.0894-0.88477-2.8e-4 -4e-3 -1e-3 -7e-3 -1e-3 -0.0103-0.37696 5.2262 4e-3 10.138 1.1162 13.86 0.75157 2.2076 1.3698 5.1358 1.8062 8.193-0.15019 0.383-0.32439 0.68289-0.52735 0.87743-2.8664 2.7518-14.414-1.5077-24.516-11.98-6.5657-6.8044-9.0225-9.5782-9.5858-15.488zm68.949 59.908c-0.0419 0.7803-0.0927 1.551-0.16259 2.2998-0.0588 0.58286-0.12707 1.163-0.20362 1.7417-6e-5 4.8e-4 7e-5 1e-3 0 1e-3 -0.0765 0.5783-0.16093 1.1544-0.25488 1.7285-0.28212 1.7242-0.64224 3.4283-1.0767 5.1123-0.14477 0.56117-0.29885 1.1193-0.45996 1.6758-1.6112 5.5651-4.0322 10.891-7.1221 15.914-0.30897 0.50232-0.62409 1.0009-0.94627 1.4971-0.96675 1.489-1.991 2.9497-3.0718 4.3814-0.36017 0.47712-0.72637 0.9504-1.0986 1.4209-0.74474 0.94133-1.5128 1.8692-2.3042 2.7832-0.3956 0.4569-0.79725 0.90945-1.2041 1.3594-0.8139 0.90008-1.6492 1.7859-2.5064 2.6572-0.42846 0.43554-0.8619 0.86678-1.3008 1.295-0.43909 0.42841-0.8838 0.8535-1.333 1.2744-1.7958 1.6826-3.67 3.3042-5.6162 4.8618-2.9e-4 2.3e-4 -1e-3 -2.4e-4 -1e-3 0-3.8921 3.1149-8.0662 5.9724-12.452 8.5388-3.2887 1.9248-6.6952 3.6863-10.19 5.2705-4.659 2.1122-9.474 3.9098-14.372 5.3599-2.4488 0.72506-4.9178 1.3628-7.3989 1.9102-1.2406 0.2737-2.4842 0.52517-3.7294 0.75292-2.4904 0.45553-4.9882 0.81825-7.4839 1.084-0.42742 8e-3 -0.85005 0.0251-1.2802 0.0293-5.5642-0.87187-10.486-2.0405-15.054-3.6533-1.8271-0.64512-3.5972-1.3607-5.3291-2.1578-3.464-1.5939-6.7739-3.5103-10.078-5.8257-1.6521-1.1577-3.3029-2.4157-4.9702-3.7822-2.501-2.0499-5.0401-4.3451-7.6785-6.9184-0.77685-0.75765-1.5393-1.4878-2.2881-2.1958-0.32929-0.31132-0.64353-0.59943-0.96533-0.8994-0.43299-0.40366-0.86775-0.80985-1.2847-1.1909-0.31363-0.28664-0.61106-0.5536-0.9141-0.8262-0.38688-0.34809-0.77093-0.69332-1.1382-1.0166-0.31403-0.27635-0.61476-0.53434-0.9126-0.79102-0.30966-0.26693-0.61196-0.52631-0.90233-0.77048-0.3098-0.26044-0.6079-0.50704-0.89355-0.73975-0.2412-0.19654-0.46891-0.37815-0.69141-0.55371-0.27175-0.21434-0.53625-0.42091-0.77782-0.60205-0.19926-0.14945-0.37359-0.27284-0.55078-0.39844-0.24711-0.17505-0.5051-0.36037-0.70606-0.48633-3e-3 -2e-3 -5e-3 -4e-3 -7e-3 -6e-3 -5e-3 -3e-3 -8e-3 -4e-3 -0.0132-7e-3 -0.14212-0.0886-0.27125-0.16486-0.38819-0.22705l-6e-3 -3e-3c-3e-3 -2e-3 -5e-3 -3e-3 -9e-3 -4e-3 -0.11804-0.0622-0.22454-0.11147-0.31494-0.14502-0.18362-0.0682-0.3192-0.0872-0.37939-0.0293-2.2138 2.1192 5.3434 28.225 10.371 36.961 1.5393-1.8369 2.6352-2.8718 3.3545-3.394-0.60845-0.18482-1.394-0.81113-2.2266-2.3848-2.5881-3.277-6.2912-13.192-8.8785-22.185 2.4466 1.8673 6.3133 5.2911 10.522 9.3952 14.073 13.724 25.305 19.547 43.11 22.337 0.4302-4e-3 0.8529-0.0213 1.2802-0.0293 39.931-4.2514 80.362-33.316 84.128-70.62 0.28326-3.035 0.33372-6.346 0.1626-9.7995z" opacity=".1" stroke-width="1.0871"/><path transform="scale(.75)" d="m401.94 31.002c-5.403-0.12893-14.34 4.1676-31.869 14.729-35.461 21.363-68.442 30.121-125.89 33.422-34.534 1.9874-42.789 3.295-61.445 9.7383-34.158 11.794-66.404 41.272-87.879 80.322-14.733 26.798-22.964 61.294-21.941 91.107 0.8739-27.316 8.8303-57.259 21.941-81.107 21.475-39.05 53.721-68.528 87.879-80.322 18.656-6.4433 26.912-7.7509 61.445-9.7383 57.447-3.3009 90.427-12.059 125.89-33.422 23.373-14.081 31.469-17.026 36.281-13.193 1.2028 0.9572 1.9912 2.0847 2.4316 3.6855 0.0605-0.43078 0.11244-0.86404 0.15625-1.3027 0.72473-7.2644 0.10159-10.243-2.5879-12.383-1.2031-0.95824-2.6111-1.4922-4.4121-1.5352zm-25.119 83.959c-2.164 11.295 2.7316 21.83 18.09 39.99 28.859 39.445 43.023 79.078 44.174 115.85 1.3262-39.535-12.68-82.807-44.174-125.85-10.835-12.811-16.468-21.825-18.09-29.99zm-202.81 308.85c-1.5597 1.8612-3.4329 4.2874-5.748 7.6152l4e-3 4e-3c-10.974 15.231-26.233 30.11-35.779 49.576 0.33235 0 3.2507-0.98969 7.332-2.6797 8.9756-13.598 19.982-25.147 28.447-36.896l-4e-3 -4e-3c5.3692-7.7177 8.535-10.925 10.219-12.146-0.81148-0.24576-1.8598-1.0801-2.9707-3.1797-0.47337-0.59938-0.97788-1.3822-1.5-2.2891z" fill="#fff" opacity=".1" stroke-width="1.4495"/></svg>
