<svg xmlns="http://www.w3.org/2000/svg" xmlns:xlink="http://www.w3.org/1999/xlink" width="512" height="512" version="1.1" viewBox="0 0 384 384"> <defs> <filter id="alpha" width="100%" height="100%" x="0%" y="0%" filterUnits="objectBoundingBox"> <feColorMatrix in="SourceGraphic" type="matrix" values="0 0 0 0 1 0 0 0 0 1 0 0 0 0 1 0 0 0 1 0"/> </filter> <mask id="mask0"> <g filter="url(#alpha)"> <rect width="384" height="384" x="0" y="0" style="fill:rgb(0%,0%,0%);fill-opacity:0.2"/> </g> </mask> <clipPath id="clip1"> <rect width="384" height="384" x="0" y="0"/> </clipPath> <g id="surface5" clip-path="url(#clip1)"> <path style="fill:rgb(0%,0%,0%)" d="M 30 144 L 138 144 L 138 252 L 30 252 Z M 30 144"/> </g> <mask id="mask1"> <g filter="url(#alpha)"> <rect width="384" height="384" x="0" y="0" style="fill:rgb(0%,0%,0%);fill-opacity:0.2"/> </g> </mask> <clipPath id="clip2"> <rect width="384" height="384" x="0" y="0"/> </clipPath> <g id="surface8" clip-path="url(#clip2)"> <path style="fill:rgb(0%,0%,0%)" d="M 138 144 L 246 144 L 246 252 L 138 252 Z M 138 144"/> </g> <mask id="mask2"> <g filter="url(#alpha)"> <rect width="384" height="384" x="0" y="0" style="fill:rgb(0%,0%,0%);fill-opacity:0.2"/> </g> </mask> <clipPath id="clip3"> <rect width="384" height="384" x="0" y="0"/> </clipPath> <g id="surface11" clip-path="url(#clip3)"> <path style="fill:rgb(0%,0%,0%)" d="M 246 144 L 354 144 L 354 252 L 246 252 Z M 246 144"/> </g> <mask id="mask3"> <g filter="url(#alpha)"> <rect width="384" height="384" x="0" y="0" style="fill:rgb(0%,0%,0%);fill-opacity:0.2"/> </g> </mask> <clipPath id="clip4"> <rect width="384" height="384" x="0" y="0"/> </clipPath> <g id="surface14" clip-path="url(#clip4)"> <path style="fill:rgb(0%,0%,0%)" d="M 246 36 L 246 144 L 354 144 L 354 52.199219 C 354 43.226562 346.773438 36 337.800781 36 Z M 246 36"/> </g> <mask id="mask4"> <g filter="url(#alpha)"> <rect width="384" height="384" x="0" y="0" style="fill:rgb(0%,0%,0%);fill-opacity:0.2"/> </g> </mask> <clipPath id="clip5"> <rect width="384" height="384" x="0" y="0"/> </clipPath> <g id="surface17" clip-path="url(#clip5)"> <path style="fill:rgb(0%,0%,0%)" d="M 138 36 L 246 36 L 246 144 L 138 144 Z M 138 36"/> </g> <mask id="mask5"> <g filter="url(#alpha)"> <rect width="384" height="384" x="0" y="0" style="fill:rgb(0%,0%,0%);fill-opacity:0.2"/> </g> </mask> <clipPath id="clip6"> <rect width="384" height="384" x="0" y="0"/> </clipPath> <g id="surface20" clip-path="url(#clip6)"> <path style="fill:rgb(0%,0%,0%)" d="M 46.199219 36 C 37.226562 36 30 43.226562 30 52.199219 L 30 144 L 138 144 L 138 36 Z M 46.199219 36"/> </g> <mask id="mask6"> <g filter="url(#alpha)"> <rect width="384" height="384" x="0" y="0" style="fill:rgb(0%,0%,0%);fill-opacity:0.2"/> </g> </mask> <clipPath id="clip7"> <rect width="384" height="384" x="0" y="0"/> </clipPath> <g id="surface23" clip-path="url(#clip7)"> <path style="fill:rgb(0%,0%,0%)" d="M 30 337.800781 L 30 343.800781 C 30 352.777344 37.222656 360 46.195312 360 L 337.804688 360 C 346.78125 360 354 352.777344 354 343.800781 L 354 337.800781 C 354 346.777344 346.78125 354 337.804688 354 L 46.195312 354 C 37.222656 354 30 346.777344 30 337.800781 Z M 30 337.800781"/> </g> <mask id="mask7"> <g filter="url(#alpha)"> <rect width="384" height="384" x="0" y="0" style="fill:rgb(0%,0%,0%);fill-opacity:0.2"/> </g> </mask> <clipPath id="clip8"> <rect width="384" height="384" x="0" y="0"/> </clipPath> <g id="surface26" clip-path="url(#clip8)"> <path style="fill:rgb(100.000%,100.000%,100.000%)" d="M 46.195312 30 C 37.21875 30 30 37.21875 30 46.195312 L 30 52.195312 C 30 43.21875 37.21875 36 46.195312 36 L 337.804688 36 C 346.78125 36 354 43.21875 354 52.195312 L 354 46.195312 C 354 37.21875 346.78125 30 337.804688 30 Z M 46.195312 30"/> </g> <mask id="mask8"> <g filter="url(#alpha)"> <rect width="384" height="384" x="0" y="0" style="fill:rgb(0%,0%,0%);fill-opacity:0.2"/> </g> </mask> <clipPath id="clip9"> <rect width="384" height="384" x="0" y="0"/> </clipPath> <g id="surface29" clip-path="url(#clip9)"> <path style="fill:rgb(0%,0%,0%)" d="M 186.152344 285 C 186.085938 285.996094 186.035156 286.992188 186 287.988281 C 186 341.015625 228.980469 384 282 384 C 335.019531 384 378 341.015625 378 287.988281 C 377.980469 287.003906 377.945312 286.019531 377.894531 285.035156 C 376.25 336.828125 333.8125 377.96875 282 378 C 230.195312 377.941406 187.777344 336.785156 186.152344 285 Z M 186.152344 285"/> </g> </defs> <g> <path style="fill:rgb(23.137%,54.509%,72.156%)" d="M 246 246 L 246 354 L 337.800781 354 C 346.777344 354 354 346.777344 354 337.800781 L 354 246 Z M 246 246"/> <path style="fill:rgb(9.803%,63.137%,52.941%)" d="M 138 246 L 246 246 L 246 354 L 138 354 Z M 138 246"/> <path style="fill:rgb(9.803%,63.137%,52.941%)" d="M 30 246 L 30 337.800781 C 30 346.777344 37.226562 354 46.199219 354 L 138 354 L 138 246 Z M 30 246"/> <use mask="url(#mask0)" xlink:href="#surface5"/> <path style="fill:rgb(30.980%,78.431%,80.784%)" d="M 30 138 L 138 138 L 138 246 L 30 246 Z M 30 138"/> <use mask="url(#mask1)" xlink:href="#surface8"/> <path style="fill:rgb(30.980%,78.431%,80.784%)" d="M 138 138 L 246 138 L 246 246 L 138 246 Z M 138 138"/> <use mask="url(#mask2)" xlink:href="#surface11"/> <path style="fill:rgb(80.000%,80.000%,80.000%)" d="M 246 138 L 354 138 L 354 246 L 246 246 Z M 246 138"/> <use mask="url(#mask3)" xlink:href="#surface14"/> <path style="fill:rgb(90.196%,90.196%,90.196%)" d="M 246 30 L 246 138 L 354 138 L 354 46.199219 C 354 37.226562 346.773438 30 337.800781 30 Z M 246 30"/> <use mask="url(#mask4)" xlink:href="#surface17"/> <path style="fill:rgb(80.000%,80.000%,80.000%)" d="M 138 30 L 246 30 L 246 138 L 138 138 Z M 138 30"/> <use mask="url(#mask5)" xlink:href="#surface20"/> <path style="fill:rgb(80.000%,80.000%,80.000%)" d="M 46.199219 30 C 37.226562 30 30 37.226562 30 46.199219 L 30 138 L 138 138 L 138 30 Z M 46.199219 30"/> <use mask="url(#mask6)" xlink:href="#surface23"/> <use mask="url(#mask7)" xlink:href="#surface26"/> <path style="fill:rgb(29.019%,68.235%,90.196%)" d="M 378 282 C 378 335.019531 335.019531 378 282 378 C 228.980469 378 186 335.019531 186 282 C 186 228.980469 228.980469 186 282 186 C 335.019531 186 378 228.980469 378 282 Z M 378 282"/> <use mask="url(#mask8)" xlink:href="#surface29"/> <path style="fill:rgb(100.000%,100.000%,100.000%)" d="M 237 234 L 273 234 C 274.660156 234 276 235.339844 276 237 L 276 273 C 276 274.660156 274.660156 276 273 276 L 237 276 C 235.339844 276 234 274.660156 234 273 L 234 237 C 234 235.339844 235.339844 234 237 234 Z M 237 234"/> <path style="fill:rgb(100.000%,100.000%,100.000%)" d="M 291 234 L 326.996094 234 C 328.660156 234 330 235.339844 330 237 L 330 273 C 330 274.660156 328.660156 276 327 276 L 291.003906 276 C 289.339844 276 288 274.660156 288 273 L 288 237 C 288 235.339844 289.339844 234 291 234 Z M 291 234"/> <path style="fill:rgb(100.000%,100.000%,100.000%)" d="M 237 288 L 273 288 C 274.660156 288 276 289.339844 276 291 L 276 327 C 276 328.660156 274.660156 330 273 330 L 237 330 C 235.339844 330 234 328.660156 234 327 L 234 291 C 234 289.339844 235.339844 288 237 288 Z M 237 288"/> <path style="fill:rgb(100.000%,100.000%,100.000%)" d="M 291 288 L 326.996094 288 C 328.660156 288 330 289.339844 330 291 L 330 327 C 330 328.660156 328.660156 330 327 330 L 291.003906 330 C 289.339844 330 288 328.660156 288 327 L 288 291 C 288 289.339844 289.339844 288 291 288 Z M 291 288"/> </g> </svg>
