<svg width="512" height="512" version="1.1" viewBox="0 0 384 384" xmlns="http://www.w3.org/2000/svg"><defs><clipPath><rect width="384" height="384"/></clipPath><clipPath><rect width="384" height="384"/></clipPath><clipPath><rect width="384" height="384"/></clipPath></defs><path d="m360.75 192c0-93.198-75.552-168.75-168.75-168.75-93.198 0-168.75 75.552-168.75 168.75 0 93.198 75.552 168.75 168.75 168.75 93.198 0 168.75-75.552 168.75-168.75z" fill="#357af0" stroke-width="1.0045"/><path d="m192 103.5-95.996 36v24l95.996 36 96-36v-24zm-95.996 84v24l95.996 36 96-36v-24l-96 36zm0 48v24l95.996 36 96-36v-24l-96 36z" opacity=".3"/><g fill="#fff"><g stroke-width="1.0045"><path d="m95.565 228.16 96.427 36.162 96.431-36.162v24.108l-96.431 36.162-96.427-36.162z"/><path d="m95.565 179.94 96.427 36.162 96.431-36.162v24.108l-96.431 36.162-96.427-36.162z"/><path d="m191.99 95.565-96.427 36.162v24.108l96.427 36.162 96.431-36.162v-24.108z"/></g><path transform="scale(.75)" d="m256 31c-124.26 0-225 100.74-225 225 0 1.6719 0.02817 3.3368 0.064453 5 2.6604-121.95 102.34-220 224.94-220 122.59 0 222.28 98.047 224.94 220 0.03628-1.6632 0.06445-3.3281 0.06445-5 0-124.26-100.74-225-225-225z" opacity=".2" stroke-width="1.3393"/></g><path transform="scale(.75)" d="m31.064 251c-0.036283 1.6632-0.064453 3.3281-0.064453 5 0 124.26 100.74 225 225 225 124.26 0 225-100.74 225-225 0-1.6719-0.02817-3.3368-0.06445-5-2.6604 121.95-102.34 220-224.94 220-122.59 0-222.28-98.047-224.94-220z" opacity=".3" stroke-width="1.3393"/></svg>
