<svg xmlns="http://www.w3.org/2000/svg" width="12pt" height="12pt" version="1.1" viewBox="0 0 12 12">
 <g>
  <path style="fill:rgb(19.215686%,21.176471%,23.137255%)" d="M 5.75 2.019531 L 5.75 2.925781 L 6.25 2.925781 L 6.25 2.019531 Z M 3.34375 3.003906 L 2.984375 3.363281 L 3.625 4.019531 L 3.984375 3.644531 Z M 8.65625 3.003906 L 8.015625 3.644531 L 8.375 4.019531 L 9.015625 3.363281 Z M 6 3.519531 C 4.621094 3.519531 3.5 4.640625 3.5 6.019531 C 3.5 7.398438 4.621094 8.519531 6 8.519531 C 7.378906 8.519531 8.5 7.398438 8.5 6.019531 C 8.5 4.640625 7.378906 3.519531 6 3.519531 Z M 6 4.019531 L 6 8.019531 C 4.894531 8.019531 4 7.125 4 6.019531 C 4 4.914062 4.894531 4.019531 6 4.019531 Z M 2 5.769531 L 2 6.269531 L 2.90625 6.269531 L 2.90625 5.769531 Z M 9.09375 5.769531 L 9.09375 6.269531 L 10 6.269531 L 10 5.769531 Z M 3.625 8.035156 L 2.984375 8.675781 L 3.34375 9.035156 L 3.984375 8.394531 Z M 8.375 8.035156 L 8.015625 8.394531 L 8.65625 9.035156 L 9.015625 8.675781 Z M 5.75 9.113281 L 5.75 10.019531 L 6.25 10.019531 L 6.25 9.113281 Z M 5.75 9.113281"/>
 </g>
</svg>
