<svg xmlns="http://www.w3.org/2000/svg" width="12pt" height="12pt" version="1.1" viewBox="0 0 12 12">
 <g>
  <path style="fill:rgb(19.215686%,21.176471%,23.137255%)" d="M 5 2.019531 L 5 2.585938 C 4.511719 2.65625 4.09375 2.785156 3.769531 2.984375 C 3.261719 3.292969 3.011719 3.765625 3.011719 4.398438 C 3.007812 5.496094 3.789062 5.859375 5 6.195312 L 5 8.6875 C 4.414062 8.640625 3.878906 8.527344 3.3125 8.285156 L 3 8.964844 C 3.28125 9.117188 3.664062 9.246094 4.144531 9.359375 C 4.417969 9.417969 4.699219 9.457031 5 9.484375 L 5 10.019531 L 5.5 10.019531 L 5.5 9.507812 C 5.585938 9.511719 5.65625 9.519531 5.746094 9.519531 C 5.828125 9.519531 5.914062 9.511719 6 9.507812 L 6 10.019531 L 6.5 10.019531 L 6.5 9.460938 C 7.5 9.316406 8.488281 8.859375 8.480469 7.617188 C 8.445312 6.703125 7.878906 6.363281 6.5 5.878906 L 6.5 3.402344 C 6.953125 3.460938 7.5 3.585938 8.113281 3.890625 L 8.5 3.121094 C 8.222656 2.972656 7.585938 2.738281 7.175781 2.648438 C 6.960938 2.605469 6.734375 2.574219 6.5 2.550781 L 6.5 2.019531 L 6 2.019531 L 6 2.527344 C 5.953125 2.527344 5.910156 2.519531 5.863281 2.519531 C 5.734375 2.519531 5.621094 2.53125 5.5 2.535156 L 5.5 2.019531 Z M 5.71875 3.34375 C 5.792969 3.34375 5.898438 3.347656 6 3.351562 L 6 5.703125 C 5.921875 5.675781 5.871094 5.65625 5.789062 5.628906 C 5.699219 5.609375 5.597656 5.574219 5.5 5.550781 L 5.5 3.351562 C 5.574219 3.347656 5.644531 3.34375 5.71875 3.34375 Z M 5 3.398438 L 5 5.398438 C 4.386719 5.179688 3.820312 4.851562 3.835938 4.304688 C 3.808594 3.78125 4.339844 3.507812 5 3.398438 Z M 5.5 6.328125 C 5.59375 6.347656 5.664062 6.371094 5.761719 6.398438 C 5.839844 6.417969 5.917969 6.445312 6 6.46875 L 6 8.714844 C 5.925781 8.714844 5.84375 8.722656 5.773438 8.722656 C 5.679688 8.722656 5.59375 8.714844 5.5 8.714844 Z M 6.5 6.625 C 7.140625 6.847656 7.660156 7.144531 7.648438 7.65625 C 7.628906 8.355469 7.082031 8.597656 6.5 8.679688 Z M 6.5 6.625"/>
 </g>
</svg>
