<svg xmlns="http://www.w3.org/2000/svg" width="12pt" height="12pt" version="1.1" viewBox="0 0 12 12">
 <g>
  <path style="fill:rgb(19.215686%,21.176471%,23.137255%)" d="M 5.25 2.5 C 4.847656 2.5 4.5 2.824219 4.5 3.226562 L 4.5 4 L 2.984375 4 C 2.714844 4 2.5 4.164062 2.5 4.429688 L 2.5 6 L 3.226562 6 C 3.625 6 4 6.347656 4 6.75 C 4 7.152344 3.625 7.5 3.226562 7.5 L 2.5 7.5 L 2.5 9.015625 C 2.5 9.285156 2.714844 9.5 2.984375 9.5 L 4.5 9.5 L 4.5 9.015625 C 4.5 8.617188 4.507812 8.019531 5.25 8 C 5.992188 7.980469 6 8.644531 6 9.015625 L 6 9.5 L 7.570312 9.5 C 7.835938 9.5 8 9.285156 8 9.015625 L 8 7.5 L 8.777344 7.5 C 9.175781 7.5 9.5 7.152344 9.5 6.75 C 9.5 6.347656 9.171875 6.0625 8.777344 6 L 8 6 L 8 4.429688 C 8 4.164062 7.835938 4 7.570312 4 L 6 4 L 6 3.226562 C 6 2.824219 5.652344 2.5 5.25 2.5 Z M 5.25 2.5"/>
 </g>
</svg>
