<svg xmlns="http://www.w3.org/2000/svg" width="12pt" height="12pt" version="1.1" viewBox="0 0 12 12">
 <g>
  <path style="fill:rgb(19.215686%,21.176471%,23.137255%)" d="M 6.894531 3.945312 L 6.5 4.25 L 7.632812 5.722656 L 6.5 7.195312 L 6.894531 7.5 L 7.945312 6.132812 L 9 7.5 L 9.394531 7.195312 L 8.261719 5.722656 L 9.394531 4.25 L 9 3.945312 L 7.945312 5.3125 Z M 2 4 L 2 4.5 L 3 4.5 L 3 7.5 L 3.5 7.5 L 3.5 4.5 L 4.5 4.5 L 4.5 4 Z M 4 5 L 4 8.5 L 6.5 8.5 L 6.5 8 L 4.5 8 L 4.5 7 L 6.5 7 L 6.5 6.5 L 4.5 6.5 L 4.5 5.5 L 6.5 5.5 L 6.5 5 Z M 4 5"/>
 </g>
</svg>
