<svg xmlns="http://www.w3.org/2000/svg" width="12pt" height="12pt" version="1.1" viewBox="0 0 12 12">
 <g>
  <path style="fill:rgb(23.921569%,68.235294%,91.372549%)" d="M 3.5 2.5 C 2.945312 2.5 2.5 2.945312 2.5 3.5 L 2.5 8.5 C 2.5 9.054688 2.945312 9.5 3.5 9.5 L 8.5 9.5 C 9.054688 9.5 9.5 9.054688 9.5 8.5 L 9.5 3.5 C 9.5 2.945312 9.054688 2.5 8.5 2.5 Z M 6 4 C 6.550781 4 7 4.449219 7 5 C 7 5.550781 6.550781 6 6 6 C 5.449219 6 5 5.550781 5 5 C 5 4.449219 5.449219 4 6 4 Z M 6 6.5 C 8 6.5 8 7.835938 8 7.835938 L 8 8 L 4 8 L 4 7.835938 C 4 7.835938 4 6.5 6 6.5 Z M 6 6.5"/>
 </g>
</svg>
