<svg xmlns="http://www.w3.org/2000/svg" width="12pt" height="12pt" version="1.1" viewBox="0 0 12 12">
 <g>
  <path style="fill:rgb(19.215686%,21.176471%,23.137255%)" d="M 3.421875 2 L 3.421875 2.003906 C 3.28125 2.023438 3 2.121094 3 2.46875 L 3 8.53125 C 3 9 3.5 9 3.5 9 L 7.25 9 C 6.285156 9 5.5 8.214844 5.5 7.25 C 5.5 6.28125 6.285156 5.5 7.25 5.5 C 8.164062 5.5 8.925781 6.203125 8.996094 7.117188 C 8.996094 6.015625 8.996094 4.695312 8.996094 3.867188 L 6.996094 2 L 3.5 2 C 3.5 2 3.46875 1.996094 3.421875 2 Z M 7.257812 5.894531 C 6.511719 5.894531 5.898438 6.507812 5.898438 7.253906 C 5.898438 8.003906 6.511719 8.613281 7.257812 8.613281 C 7.503906 8.613281 7.734375 8.539062 7.929688 8.425781 C 7.949219 8.46875 7.976562 8.503906 8.007812 8.535156 L 8.929688 9.441406 C 9.078125 9.589844 9.316406 9.589844 9.464844 9.441406 C 9.609375 9.296875 9.609375 9.058594 9.460938 8.910156 L 8.539062 8.003906 C 8.507812 7.972656 8.472656 7.945312 8.429688 7.925781 C 8.546875 7.730469 8.617188 7.5 8.617188 7.253906 C 8.617188 6.507812 8.007812 5.894531 7.257812 5.894531 Z M 7.257812 6.394531 C 7.738281 6.394531 8.117188 6.777344 8.117188 7.253906 C 8.117188 7.734375 7.738281 8.113281 7.257812 8.113281 C 6.78125 8.113281 6.398438 7.734375 6.398438 7.253906 C 6.398438 6.777344 6.78125 6.394531 7.257812 6.394531 Z M 7.257812 6.394531"/>
 </g>
</svg>
