<svg xmlns="http://www.w3.org/2000/svg" width="12pt" height="12pt" version="1.1" viewBox="0 0 12 12">
 <g>
  <path style="fill:rgb(19.215686%,21.176471%,23.137255%)" d="M 3.5 2.5 C 2.375 2.5 2.5 3.5 2.5 3.5 L 2.5 5.5 L 3.5 5.5 L 3.5 3.5 L 8.5 3.5 L 8.5 5.5 L 9.5 5.5 L 9.5 3.5 C 9.5 2.5 8.5 2.5 8.5 2.5 Z M 4 4 L 4 5 L 5 5 L 5 4 Z M 5.5 4 L 5.5 5 L 6.5 5 L 6.5 4 Z M 7 4 L 7 5 L 8 5 L 8 4 Z M 3.5 6.5 L 3.5 7.5 L 2.5 7.5 L 2.5 8.5 L 3.5 8.5 L 3.5 9.5 L 4.5 9.5 L 4.5 8.5 L 5.5 8.5 L 5.5 7.5 L 4.5 7.5 L 4.5 6.5 Z M 6.5 6.5 C 6.222656 6.5 6 6.765625 6 7.101562 L 6 8.898438 C 6 9.234375 6.222656 9.5 6.5 9.5 L 9 9.5 C 9.277344 9.5 9.5 9.234375 9.5 8.898438 L 9.5 7.101562 C 9.5 6.765625 9.277344 6.5 9 6.5 Z M 6.5 6.5"/>
 </g>
</svg>
