<svg xmlns="http://www.w3.org/2000/svg" width="12pt" height="12pt" version="1.1" viewBox="0 0 12 12">
 <g>
  <path style="fill:rgb(19.215686%,21.176471%,23.137255%)" d="M 6.773438 2.5 C 4.730469 3.375 3.503906 5.425781 3.503906 6.875 C 3.503906 8.308594 4.578125 9.46875 5.910156 9.496094 C 5.242188 9.484375 4.707031 8.902344 4.707031 8.1875 C 4.707031 7.460938 5.320312 6.4375 6.34375 6 C 6.34375 7.53125 7.441406 7.753906 7.160156 8.625 C 7.003906 9.121094 6.617188 9.496094 5.945312 9.5 C 5.949219 9.5 5.953125 9.5 5.957031 9.5 C 7.3125 9.5 8.09375 8.746094 8.410156 7.75 C 8.972656 6.003906 6.773438 5.5625 6.773438 2.5 Z M 6.773438 2.5"/>
 </g>
</svg>
