<?xml version="1.0" encoding="UTF-8" standalone="no"?>
<!-- Created with Inkscape (http://www.inkscape.org/) -->

<svg
   xmlns:dc="http://purl.org/dc/elements/1.1/"
   xmlns:cc="http://creativecommons.org/ns#"
   xmlns:rdf="http://www.w3.org/1999/02/22-rdf-syntax-ns#"
   xmlns:svg="http://www.w3.org/2000/svg"
   xmlns="http://www.w3.org/2000/svg"
   xmlns:sodipodi="http://sodipodi.sourceforge.net/DTD/sodipodi-0.dtd"
   xmlns:inkscape="http://www.inkscape.org/namespaces/inkscape"
   width="512"
   height="512"
   id="svg4490"
   version="1.1"
   inkscape:version="0.91+devel r14033 custom"
   viewBox="0 0 512 512"
   sodipodi:docname="4kvideodownloader.svg">
  <defs
     id="defs4492" />
  <sodipodi:namedview
     id="base"
     pagecolor="#ffffff"
     bordercolor="#666666"
     borderopacity="1.0"
     inkscape:pageopacity="0.0"
     inkscape:pageshadow="2"
     inkscape:zoom="3.959798"
     inkscape:cx="58.500198"
     inkscape:cy="33.357703"
     inkscape:document-units="px"
     inkscape:current-layer="layer1"
     showgrid="false"
     inkscape:showpageshadow="false"
     borderlayer="true"
     fit-margin-top="0"
     fit-margin-left="0"
     fit-margin-right="0"
     fit-margin-bottom="0"
     inkscape:window-width="1920"
     inkscape:window-height="1011"
     inkscape:window-x="0"
     inkscape:window-y="27"
     inkscape:window-maximized="1"
     inkscape:snap-nodes="false">
    <inkscape:grid
       type="xygrid"
       id="grid3001"
       empspacing="5"
       visible="true"
       enabled="true"
       snapvisiblegridlinesonly="true" />
  </sodipodi:namedview>
  <metadata
     id="metadata4495">
    <rdf:RDF>
      <cc:Work
         rdf:about="">
        <dc:format>image/svg+xml</dc:format>
        <dc:type
           rdf:resource="http://purl.org/dc/dcmitype/StillImage" />
        <dc:title></dc:title>
      </cc:Work>
    </rdf:RDF>
  </metadata>
  <g
     inkscape:label="Capa 1"
     inkscape:groupmode="layer"
     id="layer1"
     transform="translate(-213.14285,-32.93362)">
    <path
       style="fill:#0fa15f;fill-opacity:0.99607843;stroke:none;stroke-width:3.89233899"
       d="m 505.3142,132.2669 c -47.62464,0 -90.10745,28.05329 -109.17555,71.71179 -32.70316,4.18524 -60.43639,25.0625 -73.34626,55.64827 -49.1423,2.03666 -88.64954,43.33808 -88.64954,92.99801 0,51.26693 41.20333,92.97521 92.23781,92.97521 l 285.52431,0 c 51.03829,0 92.2378,-41.70828 92.2378,-92.97521 0,-46.81308 -33.80593,-85.7137 -79.53446,-92.0173 0.20708,-2.82113 0.32696,-5.69274 0.32696,-8.49931 C 624.93508,185.93575 571.16654,132.2669 505.3142,132.2669 Z m -54.92608,125.90806 30.36328,0 30.36328,0 0.36471,38.77131 0.36471,38.77895 17.90325,0.19773 c 9.84613,0.10782 18.1929,0.48732 18.54944,0.84386 0.37678,0.37678 -13.37898,16.23319 -32.84161,37.85148 -18.4203,20.46054 -34.00791,37.27541 -34.64333,37.36493 -1.17813,0.1662 -67.73585,-73.30138 -67.73585,-74.7679 0,-0.49074 6.42197,-0.88807 18.29096,-1.12512 l 18.29096,-0.36471 0.36471,-38.77894 0.36471,-38.77136 z"
       id="path510"
       inkscape:connector-curvature="0" />
    <path
       inkscape:connector-curvature="0"
       style="fill:#2e420b;fill-opacity:0.31372549;stroke:none;stroke-width:3.89233899"
       d="m 624.73844,248.21532 c -0.0561,1.15451 -0.0448,2.31037 -0.13079,3.45324 0.10081,0.0117 0.20163,0.056 0.30555,0.067 -0.004,-1.18607 -0.13662,-2.34116 -0.17437,-3.51883 z m 79.18566,99.68692 c -2.21412,49.29149 -42.40302,88.737 -92.01544,88.737 l -285.53182,0 c -49.54258,0 -89.7028,-39.34057 -92.01544,-88.54024 -0.0782,1.50568 -0.21836,3.00193 -0.21836,4.5243 0,51.26689 41.19963,92.97704 92.234,92.97704 l 285.53182,0 c 51.03829,0 92.23399,-41.71015 92.23399,-92.97704 0,-1.59197 -0.1409,-3.14832 -0.21836,-4.72106 z"
       id="path4165" />
  </g>
</svg>
