<?xml version="1.0" encoding="UTF-8" standalone="no"?>
<!-- Created with Inkscape (http://www.inkscape.org/) -->

<svg
   xmlns:dc="http://purl.org/dc/elements/1.1/"
   xmlns:cc="http://creativecommons.org/ns#"
   xmlns:rdf="http://www.w3.org/1999/02/22-rdf-syntax-ns#"
   xmlns:svg="http://www.w3.org/2000/svg"
   xmlns="http://www.w3.org/2000/svg"
   xmlns:sodipodi="http://sodipodi.sourceforge.net/DTD/sodipodi-0.dtd"
   xmlns:inkscape="http://www.inkscape.org/namespaces/inkscape"
   id="svg3067"
   version="1.1"
   inkscape:version="0.91+devel r14221 custom"
   width="512"
   height="513"
   sodipodi:docname="addressbook.svg"
   viewBox="0 0 512 513">
  <metadata
     id="metadata3073">
    <rdf:RDF>
      <cc:Work
         rdf:about="">
        <dc:format>image/svg+xml</dc:format>
        <dc:type
           rdf:resource="http://purl.org/dc/dcmitype/StillImage" />
        <dc:title />
      </cc:Work>
    </rdf:RDF>
  </metadata>
  <defs
     id="defs3071" />
  <sodipodi:namedview
     pagecolor="#ffffff"
     bordercolor="#666666"
     borderopacity="1"
     objecttolerance="10"
     gridtolerance="10"
     guidetolerance="10"
     inkscape:pageopacity="0"
     inkscape:pageshadow="2"
     inkscape:window-width="1920"
     inkscape:window-height="1017"
     id="namedview3069"
     showgrid="false"
     inkscape:zoom="0.89083821"
     inkscape:cx="252.15266"
     inkscape:cy="293.3918"
     inkscape:window-x="0"
     inkscape:window-y="32"
     inkscape:window-maximized="1"
     inkscape:current-layer="svg3067"
     inkscape:document-units="px" />
  <rect
     style="opacity:1;fill:#cd9c6d;fill-opacity:1;stroke:none;stroke-width:2.64504004;stroke-linecap:round;stroke-miterlimit:4;stroke-dasharray:none;stroke-opacity:1"
     id="rect4164-1"
     width="367.34686"
     height="413.26523"
     x="72.326591"
     y="68.234612"
     rx="13.440322"
     ry="13.440322" />
  <g
     id="g4770"
     transform="matrix(0.91836718,0,0,0.91836718,20.897986,2.571275)">
    <rect
       ry="14.63502"
       rx="14.63502"
       y="31.5"
       x="56"
       height="450"
       width="400"
       id="rect4164"
       style="opacity:1;fill:#cd9c6d;fill-opacity:1;stroke:none;stroke-width:2.88015532;stroke-linecap:round;stroke-miterlimit:4;stroke-dasharray:none;stroke-opacity:1" />
  </g>
  <path
     style="fill:#6a4d38;fill-opacity:1;stroke-width:0.96742105"
     d="m 85.766637,31.499841 c -7.445938,0 -13.440089,5.994151 -13.440089,13.440088 l 0,36.73469 0,349.650361 0,36.73469 c 0,7.3502 5.844084,13.27431 13.156686,13.42574 l 46.782916,0 0,-36.73468 0,-169.89076 0,-206.625441 0,-36.734688 -29.9707,0 -16.528813,0 z"
     id="path3338-9-6"
     inkscape:connector-curvature="0" />
  <path
     style="opacity:1;fill:#ffffff;fill-opacity:1;stroke:none;stroke-width:2.64504004;stroke-linecap:round;stroke-miterlimit:4;stroke-dasharray:none;stroke-opacity:1"
     d="m 439.67342,431.32498 c 0,7.44594 -5.99415,13.44009 -13.44009,13.44009 l -340.466693,0 c -1.58583,0 -3.099086,-0.28572 -4.509327,-0.78564 l 0,10.11819 0,17.43283 c 1.410052,0.49977 2.923738,0.78564 4.509327,0.78564 l 340.464903,0 c 7.44594,0 13.44009,-5.99415 13.44009,-13.4401 z"
     id="rect4164-7"
     inkscape:connector-curvature="0"
     sodipodi:nodetypes="csscccsscc" />
  <path
     style="opacity:0.3;fill:#000000;fill-opacity:1;stroke:none;stroke-width:2.64504004;stroke-linecap:round;stroke-miterlimit:4;stroke-dasharray:none;stroke-opacity:1"
     d="m 72.326548,422.14131 0,9.18367 0,36.73469 c 0,5.86011 3.719506,10.80715 8.930762,12.65445 0.0041,0.001 0.0085,0.002 0.01256,0.004 0.322656,0.11403 0.651623,0.21417 0.984734,0.30493 0.06673,0.0179 0.133748,0.0351 0.200892,0.052 0.294762,0.0756 0.59287,0.14127 0.895049,0.19731 0.160463,0.0289 0.323664,0.0503 0.486089,0.0735 0.220118,0.0325 0.440077,0.0681 0.663664,0.0897 0.41736,0.0387 0.838536,0.0646 1.266343,0.0646 l 340.464899,0 c 3.72297,0 7.08264,-1.4989 9.51191,-3.92817 2.42928,-2.42928 3.92818,-5.78895 3.92818,-9.51192 l 0,-9.18368 c 0,7.44595 -5.99415,13.4401 -13.44009,13.4401 l -340.464899,0 c -1.585588,0 -3.099269,-0.28587 -4.509327,-0.78564 l 0,-18.36734 c 1.410241,0.49991 2.923497,0.78563 4.509327,0.78563 l 340.466689,0 c 7.44594,0 13.44009,-5.99414 13.44009,-13.44009 l 0,-9.18367 0,-9.18367 c 0,7.44594 -5.99415,13.44009 -13.44009,13.44009 l -340.466689,0 c -7.445944,-4e-4 -13.440093,-5.99455 -13.440093,-13.44049 z m 13.34861,22.61838 c 2.769462,0.003 5.555371,0.003 8.32629,0.005 l -8.234811,0 c -0.03092,0 -0.06061,-0.005 -0.09148,-0.005 z"
     id="rect4164-3"
     inkscape:connector-curvature="0" />
  <path
     style="fill:#6a4d38;fill-opacity:1;stroke-width:0.9597277"
     d="m 283.52409,123.68274 c -4.96982,0 -9.93918,0.15381 -12.82126,0.45918 -6.2468,0.6619 -15.49664,2.54422 -21.61751,4.39992 -45.14183,13.68584 -78.246,53.64773 -83.2019,100.43923 -0.61064,5.7653 -0.61064,19.88263 0,25.64791 0.66175,6.24808 2.54458,15.50078 4.3999,21.62289 7.96292,26.27564 24.89088,48.90775 48.14792,64.3736 14.97619,9.9591 32.37236,16.39447 50.32903,18.61845 5.96573,0.73887 21.53804,0.86674 27.58509,0.22601 6.24681,-0.6619 15.49662,-2.54423 21.6175,-4.39992 41.54055,-12.59402 73.183,-47.50646 81.54814,-89.97486 1.64447,-8.34866 2.12911,-13.63984 2.12911,-23.28923 0,-12.83859 -1.46722,-23.20214 -4.87525,-34.44774 -5.48662,-18.10452 -14.9451,-34.08922 -28.3205,-47.8663 -19.44432,-20.02821 -44.79285,-32.45667 -72.099,-35.34996 -2.88206,-0.30537 -7.85145,-0.45918 -12.82127,-0.45918 z m 0,9.89397 c 5.76709,0 11.53497,0.28708 15.2266,0.86276 36.14379,5.63632 65.86224,27.20377 81.85486,59.4015 5.04023,10.14742 8.42483,20.93935 10.26347,32.73477 1.14613,7.35471 1.1499,23.05907 0.007,30.45858 -2.82656,18.30288 -9.78406,35.14617 -20.36551,49.30843 -4.14852,5.55238 -11.53223,13.77403 -12.70647,14.14679 -0.58714,0.18639 -2.1935,-0.5106 -4.81963,-2.09143 -3.82007,-2.29959 -9.62174,-4.91969 -24.90712,-11.24641 -11.6906,-4.83881 -17.0392,-8.54221 -19.88481,-13.77013 -1.30733,-2.40181 -1.32375,-2.52931 -1.51925,-11.80963 l -0.19731,-9.37918 1.63225,-1.69503 c 3.25668,-3.3806 6.97435,-11.22983 8.40701,-17.74852 0.74912,-3.40852 0.88128,-3.6386 2.55959,-4.49499 3.87439,-1.97694 6.20436,-7.37431 6.20436,-14.36921 0,-4.32644 -0.0468,-4.52796 -1.56589,-6.68507 -1.48546,-2.10937 -1.53791,-2.31902 -1.03316,-4.07705 3.63605,-12.66418 4.8178,-26.261 3.08873,-35.54188 -1.60837,-8.63294 -6.20694,-15.23113 -12.83562,-18.41936 -1.83709,-0.88361 -4.275,-1.75581 -5.41693,-1.93719 -1.61646,-0.25676 -2.48414,-0.76044 -3.921,-2.27798 -4.32681,-4.56981 -10.04814,-6.35628 -20.30273,-6.33709 -19.99296,0.0375 -33.2789,7.41295 -38.83509,21.55473 -4.03684,10.27474 -4.07043,24.0058 -0.10044,42.25923 0.54792,2.51927 0.54151,2.55625 -1.01703,4.76942 -1.52455,2.16487 -1.57126,2.36317 -1.57126,6.69224 0,7.00612 2.3302,12.39132 6.22049,14.37639 1.61766,0.82546 1.83621,1.16005 2.33,3.57302 1.28495,6.27907 4.07984,12.48032 7.88505,17.49382 l 2.40174,3.16586 -0.052,9.32179 c -0.0579,10.25818 -0.12073,10.5437 -3.18379,14.32617 -3.45777,4.26987 -8.97266,7.3212 -25.09725,13.8885 -8.74121,3.56016 -17.64363,7.7891 -20.49465,9.73612 -0.7613,0.51991 -1.69465,0.94703 -2.0753,0.94887 -0.38065,0.002 -2.21442,-1.60587 -4.07346,-3.57303 -16.06819,-17.00258 -25.83818,-36.94573 -29.44873,-60.1082 -1.15113,-7.38475 -1.15113,-23.07383 0,-30.45858 5.6352,-36.15103 27.19766,-65.87518 59.38894,-81.871 10.14537,-5.04123 20.93633,-8.42624 32.72938,-10.26527 3.69164,-0.57568 9.45771,-0.86276 15.2248,-0.86276 z"
     id="path3338"
     inkscape:connector-curvature="0"
     sodipodi:nodetypes="ssssssssssssssssssscsssssscccssssssscsssssscscccssscssssss" />
  <path
     style="opacity:0.3;fill:#ffffff;fill-opacity:1;stroke:none;stroke-width:2.64504004;stroke-linecap:round;stroke-miterlimit:4;stroke-dasharray:none;stroke-opacity:1"
     d="m 85.766637,31.499841 c -7.445938,0 -13.440089,5.994151 -13.440089,13.440088 l 0,9.183672 c 0,-7.445939 5.994149,-13.440089 13.440089,-13.440089 l 340.466693,0 c 7.44594,0 13.44009,5.99415 13.44009,13.440089 l 0,-9.183672 c 0,-7.445937 -5.99415,-13.440088 -13.44009,-13.440088 l -340.466693,0 z"
     id="rect4164-50"
     inkscape:connector-curvature="0" />
</svg>
