<svg xmlns="http://www.w3.org/2000/svg" xmlns:xlink="http://www.w3.org/1999/xlink" width="384pt" height="384pt" version="1.1" viewBox="0 0 384 384">
 <defs>
  <filter id="alpha" width="100%" height="100%" x="0%" y="0%" filterUnits="objectBoundingBox">
   <feColorMatrix in="SourceGraphic" type="matrix" values="0 0 0 0 1 0 0 0 0 1 0 0 0 0 1 0 0 0 1 0"/>
  </filter>
  <mask id="mask0">
   <g filter="url(#alpha)">
    <rect width="384" height="384" x="0" y="0" style="fill:rgb(0%,0%,0%);fill-opacity:0.2"/>
   </g>
  </mask>
  <clipPath id="clip1">
   <rect width="384" height="384" x="0" y="0"/>
  </clipPath>
  <g id="surface5" clip-path="url(#clip1)">
   <path style="fill:rgb(0%,0%,0%)" d="M 144.160156 128 C 142.011719 127.957031 139.933594 128.78125 138.398438 130.285156 C 136.863281 131.789062 136 133.851562 136 136 L 136 263.992188 C 135.996094 266.84375 137.515625 269.484375 139.980469 270.914062 C 142.449219 272.347656 145.492188 272.359375 147.96875 270.945312 L 259.960938 206.953125 C 262.460938 205.53125 264.003906 202.875 264.003906 200 C 264.003906 197.125 262.460938 194.46875 259.960938 193.046875 L 147.96875 129.046875 C 146.804688 128.386719 145.496094 128.023438 144.160156 128 Z M 144.160156 128"/>
  </g>
  <mask id="mask1">
   <g filter="url(#alpha)">
    <rect width="384" height="384" x="0" y="0" style="fill:rgb(0%,0%,0%);fill-opacity:0.2"/>
   </g>
  </mask>
  <clipPath id="clip2">
   <rect width="384" height="384" x="0" y="0"/>
  </clipPath>
  <g id="surface8" clip-path="url(#clip2)">
   <path style="fill:rgb(0%,0%,0%)" d="M 32 320 L 32 328 C 32 336.863281 39.136719 344 48 344 L 336 344 C 344.863281 344 352 336.863281 352 328 L 352 320 C 352 328.863281 344.863281 336 336 336 L 48 336 C 39.136719 336 32 328.863281 32 320 Z M 32 320"/>
  </g>
  <mask id="mask2">
   <g filter="url(#alpha)">
    <rect width="384" height="384" x="0" y="0" style="fill:rgb(0%,0%,0%);fill-opacity:0.2"/>
   </g>
  </mask>
  <clipPath id="clip3">
   <rect width="384" height="384" x="0" y="0"/>
  </clipPath>
  <g id="surface11" clip-path="url(#clip3)">
   <path style="fill:rgb(100%,100%,100%)" d="M 48 48 C 39.136719 48 32 55.136719 32 64 L 32 72 C 32 63.136719 39.136719 56 48 56 L 336 56 C 344.863281 56 352 63.136719 352 72 L 352 64 C 352 55.136719 344.863281 48 336 48 Z M 48 48"/>
  </g>
 </defs>
 <g>
  <path style="fill:rgb(65.098039%,21.176471%,61.960784%)" d="M 352 320 L 352 64 C 352 55.136719 344.863281 48 336 48 L 48 48 C 39.136719 48 32 55.136719 32 64 L 32 320 C 32 328.863281 39.136719 336 48 336 L 336 336 C 344.863281 336 352 328.863281 352 320 Z M 352 320"/>
  <use mask="url(#mask0)" xlink:href="#surface5"/>
  <path style="fill:rgb(100%,49.411765%,70.196078%)" d="M 144.160156 120 C 142.011719 119.957031 139.933594 120.78125 138.398438 122.285156 C 136.863281 123.789062 136 125.851562 136 128 L 136 255.992188 C 135.996094 258.84375 137.515625 261.484375 139.980469 262.914062 C 142.449219 264.347656 145.492188 264.359375 147.96875 262.945312 L 259.960938 198.953125 C 262.460938 197.53125 264.003906 194.875 264.003906 192 C 264.003906 189.125 262.460938 186.46875 259.960938 185.046875 L 147.96875 121.046875 C 146.804688 120.386719 145.496094 120.023438 144.160156 120 Z M 144.160156 120"/>
  <use mask="url(#mask1)" xlink:href="#surface8"/>
  <use mask="url(#mask2)" xlink:href="#surface11"/>
 </g>
</svg>
