<svg xmlns="http://www.w3.org/2000/svg" width="384pt" height="384pt" version="1.1" viewBox="0 0 384 384">
 <g>
  <path style="fill:rgb(20%,20%,20%)" d="M 191.996094 23.25 C 140.355469 23.25 98.167969 67.496094 93.21875 124.496094 L 290.777344 124.496094 C 285.824219 67.496094 243.636719 23.25 191.996094 23.25 Z M 43.101562 140.246094 C 32.105469 140.246094 23.25 150.28125 23.25 162.746094 C 23.25 175.210938 32.105469 185.246094 43.101562 185.246094 L 340.890625 185.246094 C 351.890625 185.246094 360.746094 175.210938 360.746094 162.746094 C 360.746094 150.28125 351.890625 140.246094 340.890625 140.246094 Z M 53.027344 225.742188 C 42.03125 225.742188 33.175781 235.777344 33.175781 248.242188 C 33.175781 260.707031 42.03125 270.742188 53.027344 270.742188 L 141.277344 270.742188 L 67.9375 318.730469 C 58.414062 324.960938 55.167969 338.675781 60.667969 349.46875 C 66.167969 360.261719 78.265625 363.941406 87.789062 357.707031 L 177.105469 299.261719 L 177.105469 225.742188 Z M 206.886719 225.742188 L 206.886719 299.261719 L 296.203125 357.707031 C 305.730469 363.941406 317.828125 360.261719 323.328125 349.46875 C 328.828125 338.675781 325.582031 324.960938 316.058594 318.730469 L 242.71875 270.742188 L 330.964844 270.742188 C 341.964844 270.742188 350.816406 260.707031 350.816406 248.242188 C 350.816406 235.777344 341.964844 225.742188 330.964844 225.742188 Z M 206.886719 225.742188"/>
  <path style="fill:rgb(83.137255%,10.196078%,10.196078%)" d="M 72.882812 140.25 L 72.882812 241.496094 L 72.941406 241.496094 C 72.9375 241.878906 72.882812 242.242188 72.882812 242.625 C 72.882812 308.0625 115.78125 360.746094 169.082031 360.746094 L 177.109375 360.746094 L 177.109375 203.25 L 206.886719 203.25 L 206.886719 360.746094 L 214.914062 360.746094 C 268.214844 360.746094 311.113281 308.0625 311.113281 242.625 C 311.113281 242.242188 311.054688 241.878906 311.054688 241.496094 L 311.113281 241.496094 L 311.113281 140.25 Z M 72.882812 140.25"/>
 </g>
</svg>
