<?xml version="1.0" encoding="UTF-8" standalone="no"?>
<!-- Created with Inkscape (http://www.inkscape.org/) -->

<svg
   xmlns:dc="http://purl.org/dc/elements/1.1/"
   xmlns:cc="http://creativecommons.org/ns#"
   xmlns:rdf="http://www.w3.org/1999/02/22-rdf-syntax-ns#"
   xmlns:svg="http://www.w3.org/2000/svg"
   xmlns="http://www.w3.org/2000/svg"
   xmlns:sodipodi="http://sodipodi.sourceforge.net/DTD/sodipodi-0.dtd"
   xmlns:inkscape="http://www.inkscape.org/namespaces/inkscape"
   id="svg3007"
   version="1.1"
   inkscape:version="0.91+devel r14355 custom"
   width="512"
   height="512"
   sodipodi:docname="banshee.svg"
   viewBox="0 0 512 512">
  <metadata
     id="metadata3013">
    <rdf:RDF>
      <cc:Work
         rdf:about="">
        <dc:format>image/svg+xml</dc:format>
        <dc:type
           rdf:resource="http://purl.org/dc/dcmitype/StillImage" />
        <dc:title></dc:title>
      </cc:Work>
    </rdf:RDF>
  </metadata>
  <defs
     id="defs3011" />
  <sodipodi:namedview
     pagecolor="#ffffff"
     bordercolor="#666666"
     borderopacity="1"
     objecttolerance="10"
     gridtolerance="10"
     guidetolerance="10"
     inkscape:pageopacity="0"
     inkscape:pageshadow="2"
     inkscape:window-width="1920"
     inkscape:window-height="1017"
     id="namedview3009"
     showgrid="false"
     inkscape:zoom="5.2149125"
     inkscape:cx="231.84179"
     inkscape:cy="211.1242"
     inkscape:window-x="0"
     inkscape:window-y="32"
     inkscape:window-maximized="1"
     inkscape:current-layer="svg3007"
     inkscape:document-units="px" />
  <ellipse
     style="fill:#ffffff;fill-opacity:1;fill-rule:nonzero;stroke:none;stroke-width:0.50980115"
     id="path3005"
     cx="257.4411"
     cy="241.76004"
     rx="218.62245"
     ry="218.39545" />
  <path
     inkscape:connector-curvature="0"
     id="path2990"
     d="m 237.59705,468.45701 c -0.20282,-0.2045 -2.24069,-0.52287 -4.52869,-0.7075 -6.2519,-0.50448 -12.50782,-1.25852 -15.19574,-1.83157 -1.3195,-0.28132 -3.58662,-0.73796 -5.03807,-1.01476 -1.45143,-0.2768 -3.39468,-0.69361 -4.31833,-0.92624 -0.92364,-0.23264 -2.21915,-0.5242 -2.87889,-0.64793 -4.35259,-0.81625 -13.73283,-3.42748 -18.47288,-5.14238 -1.31949,-0.47738 -3.58662,-1.24 -5.03806,-1.69474 -11.31658,-3.54536 -31.35917,-13.17473 -43.09919,-20.70678 -2.46073,-1.57874 -5.16987,-3.30404 -6.02029,-3.83402 -14.88727,-9.27744 -38.759937,-30.73537 -48.762785,-43.83038 -0.659744,-0.8637 -2.926869,-3.76366 -5.038054,-6.44436 -5.173176,-6.56868 -10.169489,-13.94866 -17.173107,-25.36596 -1.298184,-2.11634 -7.616488,-14.48249 -9.354132,-18.30794 -2.377821,-5.23474 -3.888519,-8.79025 -4.810629,-11.32202 -0.53077,-1.4574 -1.720472,-4.70948 -2.643684,-7.22682 -0.923261,-2.51734 -1.942819,-5.55261 -2.265735,-6.74503 -0.322916,-1.19243 -0.96366,-3.36047 -1.423899,-4.81788 -2.058503,-6.51852 -2.891077,-9.59308 -3.32675,-12.28559 -0.440134,-2.71998 -0.737379,-4.18899 -1.974055,-9.75621 -2.493311,-11.22444 -5.227007,-21.61429 -5.234061,-42.7791 -0.0072,-21.38622 2.325052,-29.72032 4.998965,-41.93596 0.663392,-3.0307 1.642388,-5.18704 2.296423,-8.73679 0.478339,-2.59618 0.77456,-4.1486 1.62067,-7.08083 0.267412,-0.92672 0.719871,-2.90586 1.120245,-4.18475 0.292478,-0.93424 -0.439422,1.95554 0.492319,-3.14485 0.405083,-2.21745 1.518497,-6.04618 1.679113,-6.66647 0.572227,-2.20976 5.145872,-11.46622 6.846001,-15.41314 4.845747,-11.2499 9.871625,-21.40719 12.082025,-24.41781 0.618965,-0.84308 1.327361,-2.03551 1.574183,-2.64983 0.405585,-1.00957 4.265552,-7.02569 9.393428,-14.64053 1.058234,-1.57146 2.893521,-4.12881 4.078429,-5.68302 1.184907,-1.55419 2.34812,-3.56585 2.74397,-4.15096 3.779497,-5.58667 23.23433,-26.124623 28.66895,-30.265071 1.38546,-1.055538 2.51902,-2.08387 2.51902,-2.285179 0,-0.328324 3.17249,-2.945341 6.71665,-5.54056 0.7237,-0.529971 2.58098,-1.939202 4.12722,-3.131624 3.28232,-2.531234 3.2018,-2.474844 10.58539,-7.410392 3.12418,-2.088347 6.28986,-4.220413 7.03491,-4.737931 2.01441,-1.399258 11.37824,-6.603673 17.11826,-9.514347 9.88022,-5.010072 29.24574,-12.670104 35.50632,-14.04452 4.45681,-0.978428 5.56768,-1.276124 7.43713,-1.993031 1.0556,-0.404803 3.21477,-1.001751 4.79816,-1.326542 1.58338,-0.324795 3.52769,-0.781706 4.32063,-1.015358 0.79294,-0.233651 3.06007,-0.66004 5.03806,-0.947531 1.97798,-0.28748 4.78385,-0.730439 6.23529,-0.984351 12.23125,-2.139695 17.26259,-2.477491 36.94577,-2.480473 19.19868,-0.0031 24.04789,0.323171 37.18566,2.500501 1.58339,0.262416 4.37634,0.700063 6.20654,0.972544 1.83016,0.272487 3.98934,0.690887 4.79817,0.929778 0.80877,0.238897 2.76598,0.703107 4.34937,1.031583 1.58339,0.328471 4.06643,0.974752 5.51787,1.436173 1.45144,0.461422 3.61061,1.091093 4.79816,1.399269 5.00739,1.299456 17.47899,5.639556 23.25332,8.092145 11.14174,4.732347 26.39194,12.509148 31.29052,15.956523 0.745,0.524331 3.94561,2.640739 7.1124,4.703131 3.16677,2.062397 7.4566,5.066306 9.53296,6.675346 2.0763,1.609041 4.48473,3.467543 5.35195,4.129998 0.86726,0.66246 2.6231,2.003455 3.9019,2.979999 1.27875,0.976539 2.59518,2.220588 2.92529,2.764557 0.33016,0.543965 1.40974,1.506491 2.39907,2.138952 2.18701,1.398073 16.39222,15.590323 20.86169,20.842642 6.35597,7.469219 7.37845,8.769989 12.519,15.925989 5.37134,7.47723 10.74983,15.68182 11.41374,17.41098 0.23584,0.61432 0.94126,1.80675 1.56751,2.64983 1.79,2.40965 13.25461,25.86157 13.25461,27.11352 0,0.12893 1.16124,3.31502 2.58059,7.08021 1.41929,3.76517 2.85388,7.82139 3.18794,9.01382 0.3341,1.19243 0.9258,3.14366 1.31488,4.33609 0.38913,1.19243 0.87907,2.81845 1.08879,3.61341 0.20973,0.79495 0.705,2.63779 1.10061,4.0952 0.3956,1.4574 0.97675,3.95066 1.29141,5.54055 0.31472,1.58991 0.77534,3.86635 1.0237,5.05878 3.63522,17.45489 4.18231,23.58162 4.19468,46.97433 0.011,20.66319 -0.75044,30.33137 -3.30093,41.91555 -0.29168,1.32492 -0.72064,3.38456 -0.95326,4.57698 -1.29938,6.66197 -2.88532,13.02888 -4.44021,17.82616 -0.38654,1.19242 -1.0731,3.46887 -1.52571,5.05877 -1.28998,4.53096 -6.24153,17.48812 -8.83181,23.11097 -3.04792,6.61618 -8.79923,17.77377 -9.98653,19.3739 -0.62558,0.84309 -1.33336,2.03551 -1.57284,2.64983 -0.23947,0.61432 -1.80516,3.22079 -3.47924,5.79213 -1.67412,2.57136 -3.41872,5.28142 -3.8769,6.02235 -2.73605,4.42474 -10.46485,14.42338 -18.05995,23.36395 -5.82294,6.85451 -20.48253,20.7534 -28.12886,26.66921 -13.40018,10.36748 -24.62743,17.53347 -38.38521,24.50013 -17.74596,8.98617 -34.28634,15.03258 -50.98036,18.63609 -1.12156,0.2421 -3.06481,0.66581 -4.31833,0.94158 -1.25352,0.27577 -3.39028,0.68762 -4.74835,0.91523 -1.35802,0.2276 -2.91972,0.55741 -3.47041,0.73291 -0.55068,0.1755 -3.00219,0.53283 -5.44776,0.79406 -2.44557,0.26125 -6.38974,0.70182 -8.76483,0.97904 -5.16958,0.60341 -42.60427,1.07588 -43.13134,0.54437 z m 43.67972,-81.31445 c 38.8334,-5.44501 69.95809,-27.73772 86.77048,-62.14839 8.26715,-16.92071 11.94312,-32.83955 11.95991,-51.7922 0.008,-9.98187 -0.43807,-14.79738 -2.14621,-23.12582 -9.2328,-45.01757 -46.40973,-80.36453 -93.29404,-88.70176 -5.39504,-0.95938 -7.89032,-1.11208 -18.47288,-1.13045 l -12.23529,-0.0213 -2.71,1.27575 c -3.45932,1.62853 -6.40427,4.59058 -8.00134,8.04783 -1.67177,3.619 -1.76879,9.26566 -0.21817,12.70243 1.42932,3.16793 5.03503,6.86627 8.21947,8.43068 2.64402,1.29893 2.84655,1.32147 12.53493,1.39597 10.4057,0.08 14.61032,0.6036 22.80253,2.83952 23.61607,6.44558 43.9478,23.23944 54.67719,45.16291 10.93407,22.34169 8.66325,54.05161 -5.57742,77.88372 -9.65733,16.16171 -22.99695,26.90606 -41.22633,33.20555 -24.89387,8.60254 -52.95431,5.61835 -72.88837,-7.75155 -17.6357,-11.82838 -30.49767,-31.74224 -35.38526,-54.78604 -1.14297,-5.38885 -1.28173,-7.08664 -1.30006,-15.90929 -0.0177,-8.58487 0.1285,-10.59488 1.11884,-15.36808 0.76468,-3.68544 1.0541,-6.32103 0.88012,-8.01398 -0.54694,-5.32081 -4.38379,-10.60619 -9.37232,-12.91071 -3.17115,-1.46492 -9.47266,-1.46492 -12.64381,0 -2.9854,1.37915 -6.45672,4.65904 -7.84741,7.41474 -1.12004,2.2194 -2.57406,8.97325 -3.62405,16.83333 -0.72749,5.44614 -0.72323,19.76799 0.007,25.77566 2.5816,21.21975 10.38757,40.60518 23.27502,57.80136 16.96875,22.64199 41.85115,37.60109 70.54639,42.41193 10.44389,1.75096 23.74461,1.93718 34.15045,0.47814 z"
     style="fill:#51b9c3;fill-opacity:1;stroke-width:0.50520623"
     sodipodi:nodetypes="csssssssssssssccsssssssssscsccssssscssssssssssssscsssscsscccsssccscccssccsccccsssccsssssssssccscssscssssssssssssscssssssscc" />
  <path
     inkscape:connector-curvature="0"
     id="path2984-9"
     d="m 259.85649,351.80326 c -6.80191,-0.84533 -16.10024,-3.50914 -21.95581,-6.28993 -11.84346,-5.62445 -24.75827,-18.27244 -30.91099,-30.27247 -2.74674,-5.35722 -5.30042,-12.98746 -6.36906,-19.03062 -0.44517,-2.51734 -1.00991,-5.48601 -1.25501,-6.59703 -0.26418,-1.19749 -0.44564,-33.71472 -0.44564,-79.85635 0,-75.16398 -0.0302,-77.8363 -0.87994,-77.8363 -0.51148,0 -5.37268,4.56771 -11.61037,10.90942 -11.47626,11.66768 -12.64753,12.53861 -17.54511,13.04616 -8.63316,0.89469 -16.13075,-5.72375 -16.22192,-14.31982 -0.0182,-1.7224 0.26357,-4.21566 0.6263,-5.54057 0.62265,-2.2743 2.12414,-3.87955 26.86384,-28.72039 l 26.20433,-26.311439 2.96636,-0.804902 c 3.28668,-0.891819 6.98458,-0.576688 10.50963,0.895616 2.81886,1.17734 6.28462,4.853926 7.40172,7.852042 0.93565,2.510966 0.95387,3.879401 0.95387,71.678333 0,60.53195 0.0877,69.1185 0.70624,69.1185 0.38847,0 2.70957,-1.32287 5.15801,-2.9397 5.705,-3.76727 7.75387,-4.7979 13.59355,-6.83797 8.03128,-2.80571 11.65033,-3.45043 19.1673,-3.41458 17.56747,0.0838 32.04513,6.57498 46.06734,20.65484 11.31557,11.36212 17.47726,22.70059 20.16107,37.09944 1.03299,5.54215 1.029,15.81596 -0.008,21.68381 -1.00886,5.70631 -4.12708,14.99771 -6.54837,19.51242 -6.08175,11.33978 -17.15637,22.50244 -28.39263,28.6184 -4.63871,2.52488 -12.29119,5.28067 -18.32399,6.59881 -4.21105,0.9201 -16.09251,1.57901 -19.91233,1.10428 z m 11.75546,-30.3065 c 9.01798,-1.91517 19.97696,-9.56764 25.51786,-17.8188 4.75286,-7.07753 6.87436,-12.95487 6.86256,-19.01141 -0.0105,-5.06818 -1.06342,-9.10832 -3.83676,-14.71375 -4.85601,-9.81493 -10.24961,-15.229 -19.90699,-19.98247 -6.18865,-3.04611 -9.13933,-3.87011 -13.81834,-3.85891 -8.17369,0.0196 -18.66623,4.9906 -25.77278,12.21036 -3.72028,3.7796 -8.06478,10.59873 -10.12322,15.88957 -1.27502,3.27715 -1.56742,4.78034 -1.75599,9.02761 -0.26941,6.06914 0.36481,8.75102 3.5263,14.91148 4.43427,8.64049 11.14337,15.21666 20.36345,19.96 7.47575,3.84596 12.52749,4.74898 18.94391,3.38632 z"
     style="opacity:0.3;fill:#000000;fill-opacity:1;stroke-width:0.50520623" />
  <path
     inkscape:connector-curvature="0"
     id="path2984"
     d="m 259.85649,341.80326 c -6.80191,-0.84533 -16.10025,-3.50914 -21.95582,-6.28993 -11.84346,-5.62445 -24.75827,-18.27244 -30.91099,-30.27247 -2.74674,-5.35722 -5.30042,-12.98746 -6.36906,-19.03062 -0.44517,-2.51734 -1.00991,-5.48601 -1.25501,-6.59703 -0.26418,-1.19749 -0.44564,-33.71472 -0.44564,-79.85635 0,-75.16398 -0.0302,-77.8363 -0.87994,-77.8363 -0.51148,0 -5.37268,4.56771 -11.61037,10.90942 -11.47626,11.66768 -12.64753,12.53861 -17.54511,13.04616 -8.63316,0.89469 -16.13075,-5.72375 -16.22192,-14.31982 -0.0182,-1.7224 0.26357,-4.21566 0.6263,-5.54057 0.62265,-2.2743 2.12414,-3.87955 26.86384,-28.720395 l 26.20433,-26.311435 2.96636,-0.804902 c 3.28668,-0.891819 6.98458,-0.576688 10.50963,0.895616 2.81886,1.17734 6.28462,4.853926 7.40172,7.852042 0.93565,2.510966 0.95387,3.879401 0.95387,71.678334 0,60.53195 0.0877,69.1185 0.70624,69.1185 0.38847,0 2.70957,-1.32287 5.15801,-2.9397 5.705,-3.76727 7.75387,-4.7979 13.59355,-6.83797 8.03129,-2.80571 11.65034,-3.45043 19.16731,-3.41458 17.56747,0.0838 32.04513,6.57498 46.06734,20.65484 11.31557,11.36212 17.47726,22.70059 20.16107,37.09944 1.03299,5.54215 1.029,15.81596 -0.008,21.68381 -1.00886,5.70631 -4.12708,14.99771 -6.54837,19.51242 -6.08175,11.33978 -17.15637,22.50244 -28.39263,28.6184 -4.63871,2.52488 -12.29119,5.28067 -18.32399,6.59881 -4.21105,0.9201 -16.09251,1.57901 -19.91233,1.10428 z m 11.75546,-30.3065 c 9.01798,-1.91517 19.97696,-9.56764 25.51786,-17.8188 4.75286,-7.07753 6.87436,-12.95487 6.86256,-19.01141 -0.0105,-5.06818 -1.06342,-9.10832 -3.83676,-14.71375 -4.85601,-9.81493 -10.24961,-15.229 -19.90699,-19.98247 -6.18865,-3.04611 -9.13933,-3.87011 -13.81834,-3.85891 -8.17369,0.0196 -18.66624,4.9906 -25.77279,12.21036 -3.72028,3.7796 -8.06478,10.59873 -10.12322,15.88957 -1.27502,3.27715 -1.56742,4.78034 -1.75599,9.02761 -0.26941,6.06914 0.36481,8.75102 3.5263,14.91148 4.43427,8.64049 11.14337,15.21666 20.36346,19.96 7.47575,3.84596 12.52749,4.74898 18.94391,3.38632 z"
     style="fill:#ffffff;stroke-width:0.50520623;fill-opacity:1" />
  <path
     style="fill:#300000;fill-opacity:0;stroke-width:0.50520623"
     d="M 256.97852 18.6875 C 237.29534 18.69048 232.2625 19.028269 220.03125 21.167969 C 218.57981 21.421879 215.77486 21.864864 213.79688 22.152344 C 211.81888 22.439834 209.55075 22.865959 208.75781 23.099609 C 207.96487 23.333259 206.02088 23.790434 204.4375 24.115234 C 202.85411 24.440024 200.69622 25.036596 199.64062 25.441406 C 197.77117 26.158306 196.65993 26.457117 192.20312 27.435547 C 185.94255 28.809957 166.57553 36.470399 156.69531 41.480469 C 150.95529 44.391139 141.59253 49.594881 139.57812 50.994141 C 138.83308 51.511651 135.66715 53.644072 132.54297 55.732422 C 125.15938 60.667962 125.23935 60.611338 121.95703 63.142578 C 120.41079 64.334998 118.55378 65.743467 117.83008 66.273438 C 114.28592 68.868657 111.11328 71.486133 111.11328 71.814453 C 111.11328 72.015763 109.98116 73.044069 108.5957 74.099609 C 103.16108 78.240059 83.705281 98.778563 79.925781 104.36523 C 79.529931 104.95034 78.366551 106.96143 77.181641 108.51562 C 75.996731 110.06984 74.161756 112.62776 73.103516 114.19922 C 67.975646 121.81406 64.116518 127.83027 63.710938 128.83984 C 63.464108 129.45416 62.755689 130.6452 62.136719 131.48828 C 59.926319 134.4989 54.900427 144.65635 50.054688 155.90625 C 48.354557 159.85317 43.779251 169.11055 43.207031 171.32031 C 43.046411 171.9406 41.934387 175.76888 41.529297 177.98633 C 41.0656 180.52463 41.01391 181.07863 41.042969 181.11523 C 41.037294 181.13282 41.043835 181.10938 41.037109 181.13086 C 40.636739 182.40975 40.183426 184.38969 39.916016 185.31641 C 39.069906 188.24864 38.773262 189.8003 38.294922 192.39648 C 37.640882 195.94623 36.661437 198.10407 35.998047 201.13477 C 33.324127 213.35041 30.993 221.68409 31 243.07031 C 31.000551 244.72096 31.024328 246.28352 31.056641 247.80859 C 31.407848 230.23734 33.556628 222.28828 35.998047 211.13477 C 36.661447 208.10407 37.640882 205.94623 38.294922 202.39648 C 38.773262 199.8003 39.069906 198.24864 39.916016 195.31641 C 40.183426 194.38969 40.636739 192.40975 41.037109 191.13086 C 41.043835 191.10938 41.037294 191.13282 41.042969 191.11523 C 41.01391 191.07863 41.0656 190.52463 41.529297 187.98633 C 41.934377 185.76888 43.046421 181.9406 43.207031 181.32031 C 43.779261 179.11055 48.354558 169.85317 50.054688 165.90625 C 54.900427 154.65635 59.926319 144.4989 62.136719 141.48828 C 62.755689 140.6452 63.462164 139.45416 63.708984 138.83984 C 64.114574 137.83027 67.975646 131.81406 73.103516 124.19922 C 74.161756 122.62776 75.996731 120.06984 77.181641 118.51562 C 78.366551 116.96143 79.529931 114.95034 79.925781 114.36523 C 83.705281 108.77856 103.16108 88.240059 108.5957 84.099609 C 109.98116 83.044079 111.11328 82.015763 111.11328 81.814453 C 111.11328 81.486133 114.28592 78.868657 117.83008 76.273438 C 118.55378 75.743467 120.41079 74.334998 121.95703 73.142578 C 125.23935 70.611348 125.15938 70.667972 132.54297 65.732422 C 135.66715 63.644072 138.83308 61.511661 139.57812 60.994141 C 141.59253 59.594881 150.95529 54.391139 156.69531 51.480469 C 166.57553 46.470399 185.94255 38.809967 192.20312 37.435547 C 196.65993 36.457117 197.76922 36.158316 199.63867 35.441406 C 200.69427 35.036606 202.85411 34.440024 204.4375 34.115234 C 206.02088 33.790434 207.96487 33.333259 208.75781 33.099609 C 209.55075 32.865959 211.81888 32.439834 213.79688 32.152344 C 215.77486 31.864864 218.57981 31.421879 220.03125 31.167969 C 232.2625 29.028269 237.29534 28.69049 256.97852 28.6875 C 276.1772 28.6845 281.02629 29.01017 294.16406 31.1875 C 295.74745 31.44991 298.53894 31.887676 300.36914 32.160156 C 302.1993 32.432646 304.35914 32.850954 305.16797 33.089844 C 305.97674 33.328734 307.93419 33.794567 309.51758 34.123047 C 311.10097 34.451517 313.58372 35.097174 315.03516 35.558594 C 316.4866 36.020024 318.64643 36.648861 319.83398 36.957031 C 324.84137 38.256491 337.31161 42.598191 343.08594 45.050781 C 354.22768 49.783121 369.47837 57.558489 374.37695 61.005859 C 375.12195 61.530189 378.32344 63.646594 381.49023 65.708984 C 384.657 67.771384 388.94708 70.775726 391.02344 72.384766 C 393.09974 73.993806 395.50778 75.853165 396.375 76.515625 C 397.24226 77.178085 398.99854 78.517601 400.27734 79.494141 C 401.55609 80.470681 402.87106 81.715796 403.20117 82.259766 C 403.53133 82.803736 404.61223 83.765978 405.60156 84.398438 C 407.78857 85.796517 421.99342 99.987913 426.46289 105.24023 C 432.81886 112.70944 433.83992 114.01197 438.98047 121.16797 C 444.35181 128.6452 449.73062 136.84897 450.39453 138.57812 C 450.63037 139.19244 451.33664 140.38544 451.96289 141.22852 C 453.75289 143.63817 465.2168 167.08985 465.2168 168.3418 C 465.2168 168.47073 466.37948 171.65669 467.79883 175.42188 C 469.21812 179.18705 470.65227 183.24312 470.98633 184.43555 C 471.32043 185.62798 471.9117 187.57905 472.30078 188.77148 C 472.68991 189.96391 473.17895 191.58981 473.38867 192.38477 C 473.5984 193.17972 474.09462 195.02306 474.49023 196.48047 C 474.88583 197.93787 475.46659 200.43159 475.78125 202.02148 C 476.09597 203.61139 476.55633 205.88765 476.80469 207.08008 C 480.14243 223.10661 480.86915 229.74499 480.97656 248.80469 C 480.98656 247.25437 481.0009 245.74511 481 244.05469 C 480.9877 220.66198 480.43989 214.53497 476.80469 197.08008 C 476.55629 195.88765 476.09595 193.61139 475.78125 192.02148 C 475.46655 190.43159 474.88583 187.93787 474.49023 186.48047 C 474.09453 185.02306 473.59847 183.17972 473.38867 182.38477 C 473.17897 181.58981 472.68988 179.96391 472.30078 178.77148 C 471.91168 177.57905 471.32043 175.62798 470.98633 174.43555 C 470.65223 173.24312 469.21813 169.18705 467.79883 165.42188 C 466.37953 161.65669 465.2168 158.47073 465.2168 158.3418 C 465.2168 157.08985 453.75289 133.63817 451.96289 131.22852 C 451.33669 130.38544 450.63043 129.19244 450.39453 128.57812 C 449.73063 126.84897 444.35372 118.6452 438.98242 111.16797 C 433.84182 104.01197 432.81891 102.70946 426.46289 95.240234 C 421.99342 89.987914 407.78857 75.796508 405.60156 74.398438 C 404.61223 73.765977 403.53133 72.803726 403.20117 72.259766 C 402.87106 71.715796 401.55609 70.470681 400.27734 69.494141 C 398.99854 68.517601 397.24226 67.178085 396.375 66.515625 C 395.50778 65.853175 393.09974 63.993806 391.02344 62.384766 C 388.94708 60.775726 384.657 57.771384 381.49023 55.708984 C 378.32344 53.646594 375.12195 51.530189 374.37695 51.005859 C 369.47837 47.558479 354.22768 39.783121 343.08594 35.050781 C 337.31161 32.598191 324.84137 28.256491 319.83398 26.957031 C 318.64643 26.648851 316.4866 26.020014 315.03516 25.558594 C 313.58372 25.097174 311.10097 24.451517 309.51758 24.123047 C 307.93419 23.794567 305.97674 23.328734 305.16797 23.089844 C 304.35914 22.850944 302.1993 22.432636 300.36914 22.160156 C 298.53894 21.887676 295.74745 21.44992 294.16406 21.1875 C 281.02629 19.01017 276.1772 18.6845 256.97852 18.6875 z M 242.53711 181.20898 C 241.48881 184.7344 241.59969 189.30025 242.92969 192.24805 C 244.35901 195.41598 247.964 199.11528 251.14844 200.67969 C 253.79246 201.97862 253.99521 202.00167 263.68359 202.07617 C 274.08929 202.15617 278.29412 202.67814 286.48633 204.91406 C 310.1024 211.35964 330.43467 228.15465 341.16406 250.07812 C 345.11111 258.14317 347.32697 267.4316 347.89062 277.12695 C 348.64182 263.88668 346.4535 250.88608 341.16406 240.07812 C 330.43467 218.15466 310.1024 201.35964 286.48633 194.91406 C 278.29412 192.67814 274.08929 192.15617 263.68359 192.07617 C 253.99521 192.00167 253.79246 191.97862 251.14844 190.67969 C 247.964 189.11528 244.35901 185.41598 242.92969 182.24805 C 242.78245 181.9217 242.6547 181.57155 242.53711 181.20898 z M 186.10742 256.26953 C 186.03742 256.63447 185.98482 256.96346 185.9043 257.35156 C 184.91396 262.12476 184.76746 264.13583 184.78516 272.7207 C 184.78875 274.44966 184.80473 275.72907 184.82422 276.99219 C 184.91337 272.8579 185.18458 270.82042 185.9043 267.35156 C 186.66898 263.66612 186.95914 261.03084 186.78516 259.33789 C 186.67908 258.30596 186.44539 257.27731 186.10742 256.26953 z M 379.93555 277.39453 C 379.40943 294.53313 375.69656 309.33722 368.04688 324.99414 C 351.23448 359.40481 320.11074 381.69757 281.27734 387.14258 L 281.27539 387.14258 C 270.86955 388.60162 257.56889 388.41502 247.125 386.66406 C 218.42976 381.85322 193.54883 366.89394 176.58008 344.25195 C 163.69263 327.05577 155.88629 307.67092 153.30469 286.45117 C 153.06268 284.46014 152.90654 281.52568 152.82422 278.33398 C 152.65766 284.66308 152.81406 292.41477 153.30469 296.45117 C 155.88629 317.67092 163.69263 337.05577 176.58008 354.25195 C 193.54883 376.89394 218.42976 391.85322 247.125 396.66406 C 257.56889 398.41502 270.86955 398.60162 281.27539 397.14258 L 281.27734 397.14258 C 320.11074 391.69757 351.23449 369.40481 368.04688 334.99414 C 376.31403 318.07343 379.99102 302.15382 380.00781 283.20117 C 380.00954 281.04233 379.98447 279.15786 379.93555 277.39453 z "
     id="path2990-5" />
  <path
     style="opacity:0.3;fill:#000000;fill-opacity:1;stroke-width:0.50520623"
     d="m 31.056641,237.80859 c -0.03345,1.67327 -0.05725,3.40224 -0.05664,5.26172 0.0071,21.16481 2.741055,31.55486 5.234375,42.7793 1.23667,5.56722 1.534479,7.03588 1.974609,9.75586 0.43567,2.69251 1.267672,5.76663 3.326172,12.28515 0.46024,1.45742 1.100908,3.62593 1.423828,4.81836 0.32292,1.19242 1.342355,4.22681 2.265625,6.74414 0.92321,2.51734 2.113762,5.76917 2.644532,7.22657 0.92211,2.53177 2.432727,6.08752 4.810547,11.32226 1.737639,3.82545 8.055335,16.19226 9.353515,18.3086 7.00362,11.4173 12.000648,18.79655 17.173828,25.36523 2.11118,2.6807 4.37737,5.58161 5.03711,6.44531 10.00285,13.09501 33.876399,34.55264 48.763669,43.83008 0.85042,0.52998 3.5588,2.25525 6.01953,3.83399 11.74002,7.53205 31.78303,17.16167 43.09961,20.70703 1.45144,0.45474 3.71762,1.21793 5.03711,1.69531 4.74005,1.7149 14.12007,4.32437 18.47266,5.14062 0.65974,0.12373 1.95526,0.4158 2.8789,0.64844 0.92365,0.23263 2.86693,0.64898 4.31836,0.92578 1.45145,0.2768 3.71957,0.73431 5.03907,1.01563 2.68792,0.57305 8.94341,1.32755 15.19531,1.83203 2.288,0.18463 4.32648,0.50253 4.5293,0.70703 0.52707,0.53151 37.96128,0.0585 43.13086,-0.54492 2.37509,-0.27722 6.32005,-0.71727 8.76562,-0.97852 2.44557,-0.26123 4.89659,-0.61942 5.44727,-0.79492 0.55069,-0.1755 2.11268,-0.50482 3.4707,-0.73242 1.35807,-0.22761 3.49453,-0.63829 4.74805,-0.91406 1.25352,-0.27577 3.1968,-0.69931 4.31836,-0.94141 16.69402,-3.60351 33.2345,-9.65055 50.98046,-18.63672 13.75778,-6.96666 24.98459,-14.13252 38.38477,-24.5 7.64633,-5.91581 22.30597,-19.81541 28.12891,-26.66992 7.5951,-8.94057 15.32449,-18.93854 18.06054,-23.36328 0.45818,-0.74093 2.20284,-3.45208 3.87696,-6.02344 1.67408,-2.57134 3.23904,-5.17669 3.47851,-5.79101 0.23948,-0.61432 0.94669,-1.8073 1.57227,-2.65039 1.1873,-1.60013 6.93841,-12.75687 9.98633,-19.37305 2.59028,-5.62285 7.54205,-18.58037 8.83203,-23.11133 0.45261,-1.5899 1.13885,-3.86617 1.52539,-5.05859 1.55489,-4.79728 3.14202,-11.16421 4.4414,-17.82617 0.23262,-1.19242 0.66145,-3.25321 0.95313,-4.57813 2.55049,-11.58418 3.31178,-21.25087 3.30078,-41.91406 -0.001,-1.91426 -0.0139,-3.55131 -0.0234,-5.25 -0.11218,17.40031 -0.93549,26.52757 -3.27734,37.16406 -0.2917,1.32492 -0.72051,3.38571 -0.95313,4.57813 -1.29938,6.66196 -2.88651,13.02889 -4.4414,17.82617 -0.38654,1.19242 -1.07278,3.46869 -1.52539,5.05859 -1.28998,4.53096 -6.24175,17.48848 -8.83203,23.11133 -3.04792,6.61618 -8.79903,17.77292 -9.98633,19.37305 -0.62558,0.84309 -1.33279,2.03607 -1.57227,2.65039 -0.23947,0.61432 -1.80443,3.21967 -3.47851,5.79101 -1.67412,2.57136 -3.41878,5.28251 -3.87696,6.02344 -2.73605,4.42474 -10.46544,14.42271 -18.06054,23.36328 -5.82294,6.85451 -20.48258,20.75411 -28.12891,26.66992 -13.40018,10.36748 -24.62699,17.53334 -38.38477,24.5 -17.74596,8.98617 -34.28644,15.03321 -50.98046,18.63672 -1.12156,0.2421 -3.06484,0.66564 -4.31836,0.94141 -1.25352,0.27577 -3.38998,0.68645 -4.74805,0.91406 -1.35802,0.2276 -2.92001,0.55692 -3.4707,0.73242 -0.55068,0.1755 -3.0017,0.53369 -5.44727,0.79492 -2.44557,0.26125 -6.39053,0.7013 -8.76562,0.97852 -5.16958,0.60341 -42.60379,1.07643 -43.13086,0.54492 -0.20282,-0.2045 -2.2413,-0.5224 -4.5293,-0.70703 -6.2519,-0.50448 -12.50739,-1.25898 -15.19531,-1.83203 -1.3195,-0.28132 -3.58762,-0.73883 -5.03907,-1.01563 -1.45143,-0.2768 -3.39471,-0.69315 -4.31836,-0.92578 -0.92364,-0.23264 -2.21916,-0.52471 -2.8789,-0.64844 -4.35259,-0.81625 -13.73261,-3.42572 -18.47266,-5.14062 -1.31949,-0.47738 -3.58567,-1.24057 -5.03711,-1.69531 -11.31658,-3.54536 -31.35959,-13.17498 -43.09961,-20.70703 -2.46073,-1.57874 -5.16911,-3.30401 -6.01953,-3.83399 -14.88727,-9.27744 -38.760819,-30.73507 -48.763669,-43.83008 -0.65974,-0.8637 -2.92593,-3.76461 -5.03711,-6.44531 -5.17318,-6.56868 -10.170208,-13.94793 -17.173828,-25.36523 -1.29818,-2.11634 -7.615876,-14.48315 -9.353515,-18.3086 -2.37782,-5.23474 -3.888437,-8.79049 -4.810547,-11.32226 -0.53077,-1.4574 -1.721322,-4.70923 -2.644532,-7.22657 -0.92326,-2.51733 -1.942705,-5.55172 -2.265625,-6.74414 -0.32291,-1.19243 -0.963588,-3.36094 -1.423828,-4.81836 -2.0585,-6.51852 -2.890492,-9.59264 -3.326172,-12.28515 -0.44013,-2.71998 -0.737939,-4.18864 -1.974609,-9.75586 -2.298857,-10.34904 -4.79574,-20.01135 -5.177734,-38.04102 z"
     id="path2990-2"
     inkscape:connector-curvature="0"
     sodipodi:nodetypes="ccccccccccccccccccccccccccsccccccccccccccccccccccccccccsccccccccccccccccccccccccc" />
</svg>
