<svg xmlns="http://www.w3.org/2000/svg" width="512" height="512" version="1.1">
 <circle style="fill:#ffffff" cx="256" cy="256" r="225"/>
 <path style="fill:#8e44ad;opacity:0.3" d="m 236.50129,480.55531 c -29.90636,-2.51049 -56.11874,-9.76689 -81.4531,-22.54878 -24.0534,-12.1356 -42.8363,-26.53489 -64.236186,-49.24455 C 55.379462,371.1608 35.42656,326.14556 31.455692,274.84971 c -0.611984,-7.90564 -0.606365,-30.10902 0.0096,-38.12751 1.223597,-15.92718 3.66837,-29.74665 7.832002,-44.27162 8.549852,-29.82644 21.958661,-54.93848 42.560425,-79.70724 5.010969,-6.02452 21.017421,-22.242734 28.066171,-28.437492 25.62415,-22.519644 55.92938,-38.557125 88.05819,-46.600273 19.13819,-4.791063 36.00295,-6.719185 58.77089,-6.719185 13.02554,0 20.60371,0.503351 32.84865,2.181846 23.68592,3.246787 42.54329,8.948387 63.76193,19.27867 18.21526,8.868085 34.07477,19.478099 49.90583,33.38699 7.32878,6.438935 24.21599,23.839514 29.467,30.362804 17.53984,21.78958 29.1628,43.07866 37.6797,69.01566 5.62206,17.12125 8.76988,33.5588 10.21005,53.31583 0.73097,10.02786 0.3338,34.27234 -0.70424,42.98966 -1.56326,13.12802 -4.5405,28.66917 -7.16268,37.3892 -2.96942,9.8747 -8.82762,24.99714 -12.63894,32.62625 -0.98152,1.96472 -1.94606,4.10805 -2.14341,4.76295 -0.79701,2.6448 -7.19523,13.53742 -8.33993,14.19828 -0.6549,0.37807 -1.92304,1.89271 -2.81809,3.36585 -2.91716,4.80131 -11.32333,16.36383 -16.09349,22.13623 -4.30407,5.2084 -5.05961,6.273 -6.52856,9.19916 -0.28487,0.56748 -2.73443,3.30691 -5.44344,6.08761 l -4.92549,5.05581 -70.8055,-0.15788 c -77.3427,-0.17246 -72.87968,-0.021 -87.49875,-2.96819 -22.8834,-4.61318 -44.05589,-14.6142 -63.08627,-29.79939 -18.40021,-14.68234 -33.05593,-32.66309 -42.87248,-52.59929 -7.71863,-15.67557 -11.76289,-29.03528 -14.13008,-46.67696 -0.64572,-4.81228 -0.82922,-9.58772 -0.82362,-21.4333 0.006,-13.39061 0.1368,-16.08013 1.07431,-22.14774 5.33718,-34.54273 19.53226,-61.8025 45.14282,-86.69084 20.35071,-19.77685 42.11446,-32.15961 67.81192,-38.58251 4.85525,-1.21354 7.23298,-2.52068 9.95319,-5.47179 3.0523,-3.31135 4.53086,-6.88216 4.53993,-10.964163 0.0211,-9.492787 -7.22796,-16.900357 -16.53403,-16.89561 -7.17892,0.0043 -28.4747,7.133273 -42.84167,14.342946 -34.96213,17.544827 -68.33976,51.155147 -84.90842,85.500347 -9.66069,20.02568 -15.22643,40.31829 -17.42313,63.52457 -0.72876,7.69866 -0.73384,28.55878 -0.009,36.19846 3.63272,38.2786 16.88132,70.36628 41.19955,99.78392 9.81874,11.87768 25.6694,26.54585 38.46793,35.59814 21.67984,15.33396 46.83726,25.71766 72.98593,30.12488 15.21549,2.56449 19.21592,2.72653 69.06981,2.79767 32.61567,0.0465 46.21117,0.21703 46.33269,0.581 0.19842,0.59425 -10.72333,6.7515 -17.68439,9.96976 -24.67882,11.40959 -47.16369,17.35323 -75.69801,20.00996 -8.10553,0.75467 -31.44123,0.85613 -39.58954,0.17213 z"/>
 <path style="fill:#8e44ad" d="m 237.44732,479.65861 c -19.71892,-1.46029 -41.83426,-6.18707 -59.37791,-12.69105 -25.65279,-9.51029 -46.72294,-22.06739 -68.18256,-40.63449 -6.17106,-5.33927 -21.752141,-21.19513 -26.933402,-27.40836 -18.87754,-22.63749 -31.728893,-45.5 -40.531473,-72.10533 -9.142533,-27.63281 -12.503398,-58.62718 -9.973658,-91.97849 1.756887,-23.16228 7.852818,-47.64738 17.312802,-69.53915 7.062216,-16.34299 18.742213,-35.06436 31.795469,-50.96362 5.577165,-6.79316 23.531002,-25.002823 30.624992,-31.061375 24.84104,-21.215242 55.31901,-37.172707 85.25691,-44.638275 12.9424,-3.227427 25.26471,-5.245433 37.92829,-6.211461 9.67321,-0.737911 34.10409,-0.605348 43.23295,0.234582 37.19827,3.422558 68.76021,14.459549 99.35478,34.743676 29.24584,19.389917 56.29426,47.830103 73.17434,76.939463 15.0465,25.9474 24.35082,54.47361 27.82515,85.30944 1.04302,9.25721 1.45954,34.35772 0.7235,43.60111 -1.29268,16.23395 -4.95237,36.85508 -8.41897,47.43788 l -0.74109,2.26241 -93.91103,-0.01 c -60.27548,-0.007 -95.10515,-0.18071 -97.24508,-0.48765 -7.48872,-1.07413 -15.51112,-3.87782 -21.56876,-7.5379 -6.98049,-4.21767 -15.2412,-12.12708 -19.96281,-19.11386 -5.99526,-8.87144 -9.18807,-20.14106 -9.19199,-32.44478 -0.005,-16.28515 5.0782,-28.96428 16.33215,-40.73612 5.56979,-5.82609 10.5178,-9.51873 17.14465,-12.7948 8.52102,-4.21249 13.65511,-5.32335 27.24897,-5.89584 7.55973,-0.31837 8.82063,-0.48888 10.66523,-1.44221 7.17213,-3.70677 11.0001,-12.04888 8.87821,-19.3479 -1.52839,-5.25751 -4.80803,-9.09457 -9.66824,-11.31157 -1.9677,-0.89757 -3.30254,-1.05123 -10.49387,-1.20802 -15.8637,-0.34585 -27.48094,2.07101 -40.81905,8.49202 -10.30724,4.96195 -18.00056,10.63016 -26.9107,19.82701 -10.71089,11.05556 -17.05623,21.24611 -21.46185,34.46749 -6.34295,19.03534 -6.31495,41.04264 0.0766,60.25139 8.42204,25.31092 29.22737,47.00395 54.47492,56.79917 5.93599,2.30298 9.41441,3.26855 17.15948,4.76331 l 6.66813,1.28693 89.18635,0.14301 c 74.28105,0.11912 89.18634,0.24999 89.18634,0.78307 0,0.68225 -4.27848,8.68518 -5.82454,10.89485 l -0.92417,1.32084 -87.47902,-0.15443 -87.47903,-0.15441 -5.47739,-1.05827 c -11.71063,-2.26257 -19.64168,-4.88639 -29.06675,-9.6161 -19.85192,-9.96218 -37.80191,-27.97454 -47.74632,-47.91227 -12.24158,-24.54338 -14.13913,-55.79895 -5.02832,-82.82449 3.09701,-9.18672 10.15904,-21.97719 16.36435,-29.63846 17.82152,-22.00302 40.05213,-35.53361 64.76551,-39.41935 6.1573,-0.96813 9.83706,-2.72263 13.02429,-6.20996 3.3852,-3.70396 4.50362,-6.89897 4.26044,-12.17097 -0.14863,-3.2219 -0.46199,-4.64594 -1.48037,-6.72746 -1.59863,-3.26745 -5.20353,-6.70541 -8.79713,-8.38973 -3.77344,-1.76862 -8.44935,-1.68815 -18.09031,0.31129 -20.36751,4.22405 -39.12409,13.06642 -55.85866,26.33336 -6.47703,5.13489 -19.73469,18.36352 -24.71493,24.6608 -16.81033,21.25588 -26.43585,44.90316 -29.073,71.42443 -0.73716,7.41338 -0.60954,25.48731 0.23088,32.69778 3.70431,31.78173 16.93158,58.79313 40.24007,82.17418 17.67496,17.72997 38.32176,30.10567 60.26774,36.1245 6.13572,1.68277 9.9708,2.47787 19.03547,3.94657 l 6.66814,1.08039 74.65932,0.14923 c 41.06264,0.082 74.65933,0.32536 74.65933,0.54061 0,0.21525 -2.16285,2.67369 -4.80633,5.46322 l -4.80633,5.07187 h -69.14147 c -75.77455,0 -73.67714,0.0683 -88.75874,-2.89126 -22.73603,-4.46166 -44.03682,-14.4936 -63.25233,-29.78968 -6.7899,-5.40495 -21.30733,-19.9877 -26.27215,-26.39036 -10.39028,-13.39937 -17.91857,-27.12098 -23.18456,-42.25791 -10.01345,-28.78334 -10.94683,-63.98838 -2.47669,-93.41594 5.35595,-18.60802 14.29512,-35.73191 26.76,-51.26151 5.43882,-6.77605 17.97992,-19.35506 24.85076,-24.92588 16.38867,-13.28777 35.72978,-23.13027 55.04957,-28.01418 2.6278,-0.66428 5.82581,-1.73885 7.1067,-2.38793 3.05378,-1.54746 6.13558,-4.77025 7.79712,-8.15383 1.1812,-2.4054 1.3373,-3.25257 1.3373,-7.258084 0,-4.153665 -0.13011,-4.7991 -1.54793,-7.679115 -3.96902,-8.062209 -12.02374,-11.427436 -21.55241,-9.004518 -33.90287,8.620731 -62.6202,25.489637 -88.1328,51.770297 -18.34535,18.89763 -30.86881,37.90358 -39.65562,60.18247 -6.30686,15.99104 -9.37718,28.2063 -11.61253,46.20066 -1.227151,9.87844 -1.227151,36.79853 0,46.67697 2.10834,16.97187 5.07756,29.17 10.66632,43.8192 9.66864,25.34331 24.13777,46.75193 45.7712,67.7234 30.49366,29.56056 65.54054,46.13821 108.2071,51.1834 5.91412,0.69932 13.74876,0.85551 54.53584,1.08723 l 47.62955,0.27059 -5.38812,3.01386 c -11.97551,6.69851 -27.24901,12.97889 -43.50439,17.88876 -9.02297,2.72535 -24.08001,5.59692 -38.03142,7.25308 -7.36559,0.87436 -35.03738,1.29469 -43.58105,0.66199 z"/>
 <path style="fill:#ffffff;opacity:0.1" d="M 256 31 A 225 225 0 0 0 31 256 A 225 225 0 0 0 31.207031 261.85352 A 225 225 0 0 1 256 41 A 225 225 0 0 1 480.79297 260.14648 A 225 225 0 0 0 481 256 A 225 225 0 0 0 256 31 z"/>
 <path style="opacity:0.3" d="M 480.79297 250.14648 A 225 225 0 0 1 256 471 A 225 225 0 0 1 31.207031 251.85352 A 225 225 0 0 0 31 256 A 225 225 0 0 0 256 481 A 225 225 0 0 0 481 256 A 225 225 0 0 0 480.79297 250.14648 z"/>
</svg>
