<svg xmlns="http://www.w3.org/2000/svg" xmlns:xlink="http://www.w3.org/1999/xlink" width="384pt" height="384pt" version="1.1" viewBox="0 0 384 384">
 <defs>
  <filter id="alpha" width="100%" height="100%" x="0%" y="0%" filterUnits="objectBoundingBox">
   <feColorMatrix in="SourceGraphic" type="matrix" values="0 0 0 0 1 0 0 0 0 1 0 0 0 0 1 0 0 0 1 0"/>
  </filter>
  <mask id="mask0">
   <g filter="url(#alpha)">
    <rect width="384" height="384" x="0" y="0" style="fill:rgb(0%,0%,0%);fill-opacity:0.301961"/>
   </g>
  </mask>
  <clipPath id="clip1">
   <rect width="384" height="384" x="0" y="0"/>
  </clipPath>
  <g id="surface5" clip-path="url(#clip1)">
   <path style="fill:rgb(0%,0%,0%)" d="M 360.425781 94.121094 C 360.425781 101.128906 360.421875 108.511719 360.386719 117.4375 L 360.394531 122.355469 C 360.429688 111.515625 360.441406 102.035156 360.425781 94.121094 Z M 280.488281 178.828125 L 272.546875 178.839844 C 272.300781 178.851562 272.054688 178.859375 271.808594 178.859375 L 263.011719 178.859375 L 208.308594 178.964844 L 208.308594 178.859375 L 200.824219 178.859375 L 200.824219 178.980469 L 200.808594 186.480469 L 280.484375 186.328125 L 360.441406 186.480469 L 360.433594 178.980469 L 360.433594 178.964844 L 287.984375 178.828125 L 284.242188 178.832031 Z M 175.980469 178.859375 L 175.980469 178.980469 L 23.578125 178.980469 L 23.578125 186.480469 L 183.480469 186.480469 L 183.480469 178.859375 Z M 23.261719 282.621094 C 23.164062 328.367188 23.667969 329.261719 28.121094 337.96875 C 31.398438 344.375 38.949219 352.136719 45.183594 355.5 C 54.726562 360.65625 54.054688 360.609375 121.5 360.625 C 145.300781 360.628906 165.75 360.761719 176.105469 360.738281 C 176.105469 360.738281 176.109375 360.738281 176.109375 360.738281 C 180.398438 360.730469 183.394531 360.699219 183.480469 360.609375 C 183.546875 360.542969 183.570312 357.332031 183.585938 353.175781 L 176.101562 353.175781 C 176.101562 353.191406 176.101562 353.222656 176.101562 353.238281 C 165.746094 353.261719 145.296875 353.128906 121.496094 353.125 C 54.050781 353.109375 54.726562 353.15625 45.183594 348 C 38.949219 344.636719 31.398438 336.875 28.121094 330.46875 C 23.941406 322.292969 23.253906 320.5625 23.261719 282.621094 Z M 360.738281 282.910156 C 360.746094 320.851562 360.058594 322.582031 355.878906 330.753906 C 352.601562 337.164062 345.050781 344.921875 338.816406 348.289062 C 329.273438 353.441406 329.949219 353.191406 262.503906 353.203125 C 238.960938 353.210938 218.914062 353.25 208.539062 353.175781 L 200.699219 353.175781 C 200.710938 357.269531 200.738281 360.425781 200.808594 360.503906 C 200.808594 360.503906 200.84375 360.507812 200.847656 360.507812 C 200.894531 360.527344 201.085938 360.546875 201.378906 360.5625 C 201.398438 360.5625 201.417969 360.566406 201.433594 360.566406 C 202.382812 360.617188 204.929688 360.648438 207.976562 360.671875 C 208.058594 360.671875 208.097656 360.671875 208.183594 360.675781 L 208.183594 360.671875 C 218.472656 360.75 238.738281 360.710938 262.5 360.703125 C 329.945312 360.691406 329.273438 360.941406 338.816406 355.789062 C 345.050781 352.421875 352.601562 344.664062 355.878906 338.253906 C 360.332031 329.546875 360.835938 328.65625 360.738281 282.910156 Z M 360.738281 282.910156"/>
  </g>
  <mask id="mask1">
   <g filter="url(#alpha)">
    <rect width="384" height="384" x="0" y="0" style="fill:rgb(0%,0%,0%);fill-opacity:0.301961"/>
   </g>
  </mask>
  <clipPath id="clip2">
   <rect width="384" height="384" x="0" y="0"/>
  </clipPath>
  <g id="surface8" clip-path="url(#clip2)">
   <path style="fill:rgb(100%,100%,100%)" d="M 286.546875 23.253906 C 278.925781 23.242188 270.269531 23.257812 260.621094 23.292969 L 201.214844 23.515625 L 201.011719 105.027344 L 200.808594 186.480469 L 200.824219 186.480469 L 201.011719 112.527344 L 201.214844 31.015625 L 260.621094 30.792969 C 270.269531 30.757812 278.925781 30.742188 286.546875 30.753906 C 309.40625 30.78125 322.910156 31.011719 325.648438 31.433594 C 342.679688 34.050781 356.898438 48.332031 359.699219 65.632812 C 360.15625 68.449219 360.386719 79.777344 360.429688 101.621094 C 360.429688 75.046875 360.203125 61.242188 359.699219 58.132812 C 356.898438 40.832031 342.679688 26.550781 325.648438 23.933594 C 322.910156 23.511719 309.40625 23.28125 286.546875 23.253906 Z M 120.644531 23.507812 C 69.03125 23.507812 57.085938 23.714844 53.777344 24.664062 C 39.828125 28.675781 28.835938 39.550781 24.707031 53.429688 C 23.789062 56.527344 23.585938 68.921875 23.578125 121.949219 L 23.578125 129.449219 C 23.585938 76.421875 23.789062 64.027344 24.707031 60.929688 C 28.835938 47.050781 39.828125 36.175781 53.777344 32.164062 C 57.085938 31.214844 69.03125 31.007812 120.644531 31.007812 L 183.480469 31.007812 L 183.480469 23.507812 Z M 360.394531 129.855469 C 360.390625 130.820312 360.390625 131.449219 360.386719 132.4375 L 360.433594 186.480469 L 360.441406 186.480469 Z M 183.480469 280.527344 L 183.480469 288.027344 C 183.480469 312.410156 183.597656 338.234375 183.597656 353.828125 C 183.648438 340.363281 183.480469 308.824219 183.480469 280.527344 Z M 200.808594 280.714844 C 200.808594 314.074219 200.636719 342.839844 200.691406 354.660156 C 200.695312 340.476562 200.808594 316.507812 200.808594 288.214844 Z M 200.808594 280.714844"/>
  </g>
 </defs>
 <g>
  <path style="fill:rgb(21.176471%,48.235294%,94.117647%)" d="M 200.804688 360.503906 C 200.511719 360.203125 200.804688 324.226562 200.804688 280.714844 L 200.804688 201.175781 L 280.351562 201.808594 L 360.472656 202.015625 L 360.675781 262.226562 C 360.902344 328.757812 360.925781 328.386719 355.878906 338.253906 C 352.597656 344.664062 345.050781 352.421875 338.816406 355.789062 C 329.273438 360.941406 329.949219 360.691406 262.5 360.707031 C 228.839844 360.710938 201.101562 360.804688 200.804688 360.503906 Z M 200.804688 360.503906"/>
  <path style="fill:rgb(83.137255%,10.196078%,10.196078%)" d="M 23.574219 121.949219 C 23.582031 68.917969 23.789062 56.527344 24.710938 53.429688 C 28.835938 39.550781 39.828125 28.675781 53.777344 24.664062 C 57.085938 23.714844 69.027344 23.507812 120.644531 23.507812 L 183.480469 23.507812 L 183.480469 186.480469 L 23.578125 186.480469 Z M 23.574219 121.949219"/>
  <path style="fill:rgb(10.588235%,63.921569%,53.72549%)" d="M 201.011719 105.027344 L 201.214844 23.515625 L 260.621094 23.292969 C 299.210938 23.148438 321.996094 23.371094 325.644531 23.933594 C 342.675781 26.550781 356.898438 40.835938 359.699219 58.132812 C 360.335938 62.0625 360.542969 82.183594 360.386719 124.9375 L 360.441406 186.480469 L 280.484375 186.328125 L 200.804688 186.480469 Z M 201.011719 105.027344"/>
  <path style="fill:rgb(100%,78.431373%,17.647059%)" d="M 183.480469 360.609375 C 183.773438 360.308594 183.480469 317.511719 183.480469 280.53125 L 183.480469 201.175781 L 103.648438 201.519531 L 23.527344 201.730469 L 23.324219 261.9375 C 23.097656 328.46875 23.074219 328.097656 28.121094 337.96875 C 31.402344 344.375 38.949219 352.136719 45.183594 355.5 C 54.726562 360.65625 54.050781 360.609375 121.496094 360.625 C 155.160156 360.628906 183.1875 360.914062 183.480469 360.609375 Z M 183.480469 360.609375"/>
  <use mask="url(#mask0)" xlink:href="#surface5"/>
  <use mask="url(#mask1)" xlink:href="#surface8"/>
 </g>
</svg>
