<svg xmlns="http://www.w3.org/2000/svg" width="512" height="512" version="1.1" viewBox="0 0 512 512">
 <g transform="translate(0,-540.3622)">
  <circle style="fill:#13a0bf" cx="371.226" cy="681.127" r="0"/>
  <circle style="fill:#13a0bf" cx="371.226" cy="681.127" r="0"/>
  <path style="fill:#d41a1a" d="M 330.67668,590.62228 A 115.55535,116.11981 0 0 0 215.11345,706.74833 115.55535,116.11981 0 0 0 330.67668,822.87436 115.55535,116.11981 0 0 0 446.23991,706.74833 115.55535,116.11981 0 0 0 330.67668,590.62228 Z"/>
  <path style="fill-opacity:0.2" d="m 440.88239,625.17929 c -53.47213,-53.47246 -140.58365,-53.47246 -194.05564,0 -50.19412,50.19432 -53.25042,130.03183 -9.20983,183.86106 l -41.97582,41.97496 c -9.13381,-2.42738 -19.24598,-0.16466 -26.42304,7.08045 L 52.784768,974.53066 c -10.750668,10.75104 -10.750668,28.06104 1.78e-4,38.81214 10.750838,10.751 28.060606,10.751 38.811274,0 L 208.02951,896.90922 c 7.19019,-7.19022 9.45861,-17.30181 7.03046,-26.4364 l 41.97581,-41.97634 c 53.82838,44.04146 133.66578,40.98425 183.86026,-9.2087 53.47199,-53.47246 53.47196,-140.58526 -1.6e-4,-194.05772 z m -19.40555,19.40536 c 42.98449,42.98489 42.98442,112.26211 -2e-5,155.24426 -42.98522,42.98626 -112.25987,42.98489 -155.24435,0 -42.98449,-42.98215 -42.98522,-112.258 0,-155.24426 42.98408,-42.98489 112.25989,-42.98352 155.24437,0 z"/>
  <path style="fill:#f2f2f2;fill-rule:evenodd" d="m 396.90411,641.71405 20.63928,21.52126 -121.63356,120.88077 -64.64187,-72.30013 21.43275,-20.20122 44.53442,49.76894 z"/>
  <path style="fill:#3d444d" d="m 427.16059,611.4575 c -53.47212,-53.47246 -140.58364,-53.47246 -194.05563,0 -50.19413,50.19432 -53.25042,130.03183 -9.20983,183.86105 l -41.97582,41.97497 c -9.13382,-2.42739 -19.24598,-0.16466 -26.42304,7.08044 L 39.062979,960.8075 c -10.750676,10.75102 -10.750658,28.0611 1.78e-4,38.8121 5.360821,5.3611 12.352483,8.0492 19.348552,8.0629 7.034162,0 14.072783,-2.673 19.462718,-8.0629 L 194.30772,883.18606 c 7.19019,-7.19022 9.45861,-17.30181 7.03045,-26.43641 l 41.97582,-41.97634 c 53.82837,44.04147 133.66577,40.98425 183.86026,-9.20869 53.47199,-53.47246 53.47196,-140.58389 -1.7e-4,-194.05635 z m -19.40555,19.40536 c 42.98449,42.98489 42.98443,112.26073 -1e-5,155.24425 -42.98522,42.98626 -112.25987,42.98489 -155.24435,0 -42.98449,-42.98352 -42.98522,-112.25799 0,-155.24425 42.98408,-42.98489 112.25988,-42.98352 155.24436,0 z"/>
  <path style="fill:#ffffff;fill-opacity:0.2" d="m 407.75503,630.86286 c 42.86976,42.86963 42.86954,112.37463 0,155.24425 -42.86955,42.86963 -112.3746,42.86963 -155.24437,0 39.37256,-39.37194 106.89781,-106.89688 155.24437,-155.24425 z"/>
  <path style="fill-opacity:0.2" d="m 462.60262,673.056 c 19.61401,73.20028 -23.82662,148.44236 -97.02774,168.05767 -73.2011,19.61393 -148.44294,-23.8279 -168.05695,-97.02818 14.20584,53.0169 91.30439,103.38823 164.50549,83.77292 73.20112,-19.61393 114.78504,-101.78552 100.5792,-154.80241 z"/>
  <path style="fill:#ffffff;fill-opacity:0.2" d="M 462.60262,673.056 C 442.9886,599.85572 367.74677,556.4139 294.54566,576.02783 c -73.20111,19.6153 -116.64174,94.85738 -97.02773,168.05766 -14.20584,-53.01689 27.37808,-135.18848 100.57919,-154.80241 73.20111,-19.6153 150.29965,30.75603 164.5055,83.77292 z"/>
  <path style="fill-opacity:0.2;fill-rule:evenodd" d="m 181.91931,837.29352 19.4375,19.43692 41.95718,-41.95713 -19.41886,-19.45476 z"/>
  <path style="fill:#cce5ff;fill-opacity:0.2" d="m 191.63811,847.01129 c 3.51756,3.51827 6.79117,6.58646 9.76925,9.56409 2.49982,9.17577 0.1331,19.37792 -7.09992,26.61068 L 77.874166,999.6196 c -10.750669,10.751 -28.060421,10.751 -38.811095,0 -10.750673,-10.7497 -10.750673,-28.0597 0,-38.81073 L 155.49635,844.37534 c 7.20722,-7.20669 17.36214,-9.58193 26.51254,-7.12573 3.15166,3.15052 6.08471,6.22009 9.62815,9.76305 z"/>
 </g>
</svg>
