<?xml version="1.0" encoding="UTF-8" standalone="no"?>
<!-- Created with Inkscape (http://www.inkscape.org/) -->

<svg
   xmlns:dc="http://purl.org/dc/elements/1.1/"
   xmlns:cc="http://creativecommons.org/ns#"
   xmlns:rdf="http://www.w3.org/1999/02/22-rdf-syntax-ns#"
   xmlns:svg="http://www.w3.org/2000/svg"
   xmlns="http://www.w3.org/2000/svg"
   xmlns:sodipodi="http://sodipodi.sourceforge.net/DTD/sodipodi-0.dtd"
   xmlns:inkscape="http://www.inkscape.org/namespaces/inkscape"
   id="svg2"
   version="1.1"
   inkscape:version="0.48.5 r10040"
   width="512"
   height="512"
   sodipodi:docname="dropbox.svg">
  <metadata
     id="metadata8">
    <rdf:RDF>
      <cc:Work
         rdf:about="">
        <dc:format>image/svg+xml</dc:format>
        <dc:type
           rdf:resource="http://purl.org/dc/dcmitype/StillImage" />
        <dc:title />
      </cc:Work>
    </rdf:RDF>
  </metadata>
  <defs
     id="defs6" />
  <sodipodi:namedview
     pagecolor="#ffffff"
     bordercolor="#666666"
     borderopacity="1"
     objecttolerance="10"
     gridtolerance="10"
     guidetolerance="10"
     inkscape:pageopacity="0"
     inkscape:pageshadow="2"
     inkscape:window-width="1151"
     inkscape:window-height="591"
     id="namedview4"
     showgrid="false"
     inkscape:zoom="0.4609375"
     inkscape:cx="256"
     inkscape:cy="256"
     inkscape:window-x="15"
     inkscape:window-y="39"
     inkscape:window-maximized="0"
     inkscape:current-layer="svg2" />
  <path
     inkscape:connector-curvature="0"
     id="path2984"
     d="m 183.50001,442.18745 -72,-43.6928 -0.27903,-13.24733 C 111.06752,377.9613 111.32321,372 111.78918,372 c 0.46597,0 9.79481,5.625 20.73076,12.5 10.93594,6.875 20.5855,12.5 21.44346,12.5 0.85796,0 24.05468,-18.88499 51.54827,-41.96665 27.49358,-23.08166 50.21334,-41.96665 50.48834,-41.96665 0.275,0 22.99476,18.88499 50.48834,41.96665 C 333.98194,378.11501 357.17866,397 358.03662,397 c 0.85796,0 10.50752,-5.625 21.44346,-12.5 10.93595,-6.875 20.26479,-12.5 20.73076,-12.5 0.46597,0 0.72166,5.95755 0.5682,13.23901 l -0.27903,13.239 -72,43.70172 c -39.6,24.03594 -72.225,43.70144 -72.5,43.70111 -0.275,-3.3e-4 -32.9,-19.66236 -72.5,-43.69339 z M 81.784944,329.65262 c -38.89328,-25.38394 -70.73078,-46.43254 -70.75,-46.77467 C 10.988544,282.05171 107.66623,204.5 108.74266,204.5 c 1.24801,0 143.23334,87.89038 143.24625,88.67091 0.0173,1.04498 -97.35452,82.84141 -98.48519,82.73171 -0.55204,-0.0536 -32.82549,-20.86606 -71.718776,-46.25 z m 226.965066,5.27709 c -26.8125,-22.60575 -48.74501,-41.40024 -48.7389,-41.76554 0.013,-0.77613 142.0053,-88.66417 143.24625,-88.66417 1.07564,0 97.75376,77.55109 97.70892,78.37795 -0.0376,0.69324 -140.7418,92.46773 -142.41076,92.88758 -0.58053,0.14605 -22.99301,-18.23007 -49.80551,-40.83582 z M 59.374414,159.91368 C 32.493484,138.41621 10.368954,120.47307 10.208794,120.04005 9.8821045,119.15682 148.06366,28.057619 150.82559,27.335359 c 1.21812,-0.31854 17.0585,12.254 51.21897,40.6526 27.2005,22.612576 49.58602,41.482581 49.7456,41.933341 C 252.04168,110.63178 110.16353,199 108.77132,199 108.48395,199 86.255344,181.41116 59.374414,159.91368 z m 272.125596,-4.89222 c -39.05,-24.15993 -71,-44.3716 -71,-44.91483 0,-0.54323 22.25495,-19.492759 49.45545,-42.110061 34.16255,-28.40628 50.00078,-40.97977 51.21897,-40.66121 2.76193,0.72226 140.94348,91.821461 140.61679,92.704691 -0.37102,1.00309 -97.82593,78.96875 -98.66562,78.93425 -0.34408,-0.0141 -32.57559,-19.79292 -71.62559,-43.95284 z"
     style="fill:#3176e2" />
</svg>
