<svg xmlns="http://www.w3.org/2000/svg" width="384pt" height="384pt" version="1.1" viewBox="0 0 384 384">
 <g>
  <path style="fill:rgb(81.960784%,83.529412%,85.882353%)" d="M 63.816406 47.796875 L 63.816406 336.203125 L 344.214844 336.203125 C 357.53125 336.203125 368.25 325.484375 368.25 312.171875 L 368.25 71.828125 C 368.25 58.515625 357.53125 47.796875 344.214844 47.796875 Z M 63.816406 47.796875"/>
  <path style="fill:rgb(0%,0%,0%);fill-opacity:0.2" d="M 283.726562 141.773438 C 281.261719 139.304688 277.375 139.316406 274.910156 141.773438 L 262.730469 154.019531 L 254.355469 162.398438 L 232.414062 184.335938 L 187.996094 228.761719 L 187.996094 252.085938 L 211.316406 252.085938 L 255.738281 207.660156 L 277.675781 185.71875 L 286.050781 177.34375 L 298.296875 165.164062 C 300.765625 162.695312 300.773438 158.808594 298.308594 156.34375 L 283.726562 141.761719 Z M 283.726562 141.773438"/>
  <path style="fill:rgb(23.137255%,25.490196%,29.411765%)" d="M 39.785156 47.796875 C 26.46875 47.796875 15.75 58.515625 15.75 71.828125 L 15.75 312.171875 C 15.75 325.484375 26.46875 336.203125 39.785156 336.203125 L 63.816406 336.203125 L 63.816406 47.796875 Z M 39.785156 47.796875"/>
  <path style="fill:rgb(100%,100%,100%);fill-opacity:0.2" d="M 39.785156 47.796875 C 26.46875 47.796875 15.75 58.515625 15.75 71.828125 L 15.75 79.839844 C 15.75 66.527344 26.46875 55.808594 39.785156 55.808594 L 344.214844 55.808594 C 357.53125 55.808594 368.25 66.527344 368.25 79.839844 L 368.25 71.828125 C 368.25 58.515625 357.53125 47.796875 344.214844 47.796875 Z M 39.785156 47.796875"/>
  <path style="fill:rgb(0%,0%,0%);fill-opacity:0.2" d="M 39.785156 336.203125 C 26.46875 336.203125 15.75 325.484375 15.75 312.171875 L 15.75 304.160156 C 15.75 317.472656 26.46875 328.191406 39.785156 328.191406 L 344.214844 328.191406 C 357.53125 328.191406 368.25 317.472656 368.25 304.160156 L 368.25 312.171875 C 368.25 325.484375 357.53125 336.203125 344.214844 336.203125 Z M 39.785156 336.203125"/>
  <path style="fill:rgb(23.137255%,25.490196%,29.411765%)" d="M 279.722656 137.765625 C 277.253906 135.300781 273.371094 135.308594 270.902344 137.765625 L 258.722656 150.015625 L 250.347656 158.390625 L 228.410156 180.332031 L 183.988281 224.753906 L 183.988281 248.078125 L 207.3125 248.078125 L 251.730469 203.65625 L 282.046875 173.339844 L 294.292969 161.15625 C 296.757812 158.691406 296.769531 154.804688 294.300781 152.339844 L 279.71875 137.753906 Z M 279.722656 137.765625"/>
  <path style="fill:rgb(16.078431%,50.196078%,72.54902%)" d="M 51.800781 296.148438 C 51.800781 289.511719 46.421875 284.128906 39.785156 284.128906 C 33.148438 284.128906 27.765625 289.511719 27.765625 296.148438 C 27.765625 302.785156 33.148438 308.164062 39.785156 308.164062 C 46.421875 308.164062 51.800781 302.785156 51.800781 296.148438 Z M 51.800781 296.148438"/>
 </g>
</svg>
