<svg xmlns="http://www.w3.org/2000/svg" xmlns:xlink="http://www.w3.org/1999/xlink" width="384pt" height="384pt" version="1.1" viewBox="0 0 384 384">
 <defs>
  <filter id="alpha" width="100%" height="100%" x="0%" y="0%" filterUnits="objectBoundingBox">
   <feColorMatrix in="SourceGraphic" type="matrix" values="0 0 0 0 1 0 0 0 0 1 0 0 0 0 1 0 0 0 1 0"/>
  </filter>
  <mask id="mask0">
   <g filter="url(#alpha)">
    <rect width="384" height="384" x="0" y="0" style="fill:rgb(0%,0%,0%);fill-opacity:0.2"/>
   </g>
  </mask>
  <clipPath id="clip1">
   <rect width="384" height="384" x="0" y="0"/>
  </clipPath>
  <g id="surface5" clip-path="url(#clip1)">
   <path style="fill:rgb(0%,0%,0%)" d="M 22.910156 76.113281 L 70.429688 28.59375 C 76.988281 22.035156 87.625 22.035156 94.1875 28.59375 L 141.703125 76.113281 C 148.265625 82.671875 148.265625 93.3125 141.703125 99.871094 L 94.1875 147.390625 C 87.625 153.949219 76.988281 153.949219 70.429688 147.390625 L 22.910156 99.871094 C 16.347656 93.3125 16.347656 82.671875 22.910156 76.113281 Z M 22.910156 76.113281"/>
  </g>
  <mask id="mask1">
   <g filter="url(#alpha)">
    <rect width="384" height="384" x="0" y="0" style="fill:rgb(0%,0%,0%);fill-opacity:0.2"/>
   </g>
  </mask>
  <clipPath id="clip2">
   <rect width="384" height="384" x="0" y="0"/>
  </clipPath>
  <g id="surface8" clip-path="url(#clip2)">
   <path style="fill:rgb(0%,0%,0%)" d="M 366 198.003906 C 366 101.90625 288.097656 24.007812 192.003906 24.007812 C 95.90625 24.007812 18.007812 101.90625 18.007812 198.003906 C 18.007812 294.097656 95.90625 372 192.003906 372 C 288.097656 372 366 294.097656 366 198.003906 Z M 366 198.003906"/>
  </g>
  <mask id="mask2">
   <g filter="url(#alpha)">
    <rect width="384" height="384" x="0" y="0" style="fill:rgb(0%,0%,0%);fill-opacity:0.101961"/>
   </g>
  </mask>
  <clipPath id="clip3">
   <rect width="384" height="384" x="0" y="0"/>
  </clipPath>
  <g id="surface11" clip-path="url(#clip3)">
   <path style="fill:rgb(100%,100%,100%)" d="M 82.335938 17.753906 C 78.042969 17.753906 73.742188 19.386719 70.453125 22.675781 L 22.945312 70.195312 C 18.898438 74.242188 17.394531 79.796875 18.328125 85.007812 C 18.921875 81.789062 20.441406 78.710938 22.945312 76.207031 L 70.453125 28.675781 C 73.742188 25.386719 78.042969 23.753906 82.335938 23.753906 C 86.628906 23.753906 90.925781 25.386719 94.21875 28.675781 L 141.726562 76.207031 C 144.21875 78.703125 145.75 81.773438 146.34375 84.984375 C 147.265625 79.78125 145.761719 74.234375 141.726562 70.195312 L 94.21875 22.675781 C 90.925781 19.386719 86.628906 17.753906 82.335938 17.753906 Z M 82.335938 17.753906"/>
  </g>
  <mask id="mask3">
   <g filter="url(#alpha)">
    <rect width="384" height="384" x="0" y="0" style="fill:rgb(0%,0%,0%);fill-opacity:0.2"/>
   </g>
  </mask>
  <clipPath id="clip4">
   <rect width="384" height="384" x="0" y="0"/>
  </clipPath>
  <g id="surface14" clip-path="url(#clip4)">
   <path style="fill:rgb(0%,0%,0%)" d="M 318 198 C 318 267.585938 261.585938 324 192 324 C 122.414062 324 66 267.585938 66 198 C 66 128.414062 122.414062 72 192 72 C 261.585938 72 318 128.414062 318 198 Z M 318 198"/>
  </g>
  <mask id="mask4">
   <g filter="url(#alpha)">
    <rect width="384" height="384" x="0" y="0" style="fill:rgb(0%,0%,0%);fill-opacity:0.101961"/>
   </g>
  </mask>
  <clipPath id="clip5">
   <rect width="384" height="384" x="0" y="0"/>
  </clipPath>
  <g id="surface17" clip-path="url(#clip5)">
   <path style="fill:rgb(0%,0%,0%)" d="M 209.996094 294 C 209.996094 303.941406 201.9375 312 192 312 C 182.058594 312 174 303.941406 174 294 C 174 284.058594 182.058594 276 192 276 C 201.9375 276 209.996094 284.058594 209.996094 294 Z M 209.996094 294"/>
   <path style="fill:rgb(0%,0%,0%)" d="M 209.996094 102.003906 C 209.996094 111.945312 201.9375 120.003906 192 120.003906 C 182.058594 120.003906 174 111.945312 174 102.003906 C 174 92.0625 182.058594 84.003906 192 84.003906 C 201.9375 84.003906 209.996094 92.0625 209.996094 102.003906 Z M 209.996094 102.003906"/>
   <path style="fill:rgb(0%,0%,0%)" d="M 96 216 C 86.058594 216 78 207.941406 78 198 C 78 188.0625 86.058594 180.003906 96 180.003906 C 105.941406 180.003906 114 188.0625 114 198 C 114 207.941406 105.941406 216 96 216 Z M 96 216"/>
   <path style="fill:rgb(0%,0%,0%)" d="M 287.996094 216 C 278.054688 216 269.996094 207.941406 269.996094 198 C 269.996094 188.0625 278.054688 180.003906 287.996094 180.003906 C 297.9375 180.003906 305.996094 188.0625 305.996094 198 C 305.996094 207.941406 297.9375 216 287.996094 216 Z M 287.996094 216"/>
  </g>
  <mask id="mask5">
   <g filter="url(#alpha)">
    <rect width="384" height="384" x="0" y="0" style="fill:rgb(0%,0%,0%);fill-opacity:0.101961"/>
   </g>
  </mask>
  <clipPath id="clip6">
   <rect width="384" height="384" x="0" y="0"/>
  </clipPath>
  <g id="surface20" clip-path="url(#clip6)">
   <path style="fill:rgb(0%,0%,0%)" d="M 222 198 C 222 214.570312 208.570312 228 192 228 C 175.429688 228 162 214.570312 162 198 C 162 181.429688 175.429688 168 192 168 C 208.570312 168 222 181.429688 222 198 Z M 222 198"/>
  </g>
  <mask id="mask6">
   <g filter="url(#alpha)">
    <rect width="384" height="384" x="0" y="0" style="fill:rgb(0%,0%,0%);fill-opacity:0.2"/>
   </g>
  </mask>
  <clipPath id="clip7">
   <rect width="384" height="384" x="0" y="0"/>
  </clipPath>
  <g id="surface23" clip-path="url(#clip7)">
   <path style="fill:rgb(100%,100%,100%)" d="M 192 18.011719 C 95.605469 18.011719 18 95.605469 18 192 C 18 192.664062 18.070312 193.3125 18.105469 193.96875 C 20.246094 99.460938 96.960938 24.011719 192 24.011719 C 287.039062 24.011719 363.753906 99.460938 365.894531 193.96875 C 365.929688 193.3125 366 192.664062 366 192 C 366 95.605469 288.394531 18.011719 192 18.011719 Z M 192 18.011719"/>
  </g>
 </defs>
 <g>
  <use mask="url(#mask0)" xlink:href="#surface5"/>
  <use mask="url(#mask1)" xlink:href="#surface8"/>
  <path style="fill:rgb(34.901961%,44.313725%,13.72549%)" d="M 22.910156 70.257812 L 70.429688 22.742188 C 76.988281 16.179688 87.625 16.179688 94.1875 22.742188 L 141.703125 70.257812 C 148.265625 76.820312 148.265625 87.457031 141.703125 94.015625 L 94.1875 141.535156 C 87.625 148.09375 76.988281 148.09375 70.429688 141.535156 L 22.910156 94.015625 C 16.347656 87.457031 16.347656 76.820312 22.910156 70.257812 Z M 22.910156 70.257812"/>
  <use mask="url(#mask2)" xlink:href="#surface11"/>
  <path style="fill:rgb(58.823529%,72.941176%,25.882353%)" d="M 366 192.003906 C 366 95.90625 288.097656 18.007812 192.003906 18.007812 C 95.90625 18.007812 18.007812 95.90625 18.007812 192.003906 C 18.007812 288.097656 95.90625 366 192.003906 366 C 288.097656 366 366 288.097656 366 192.003906 Z M 366 192.003906"/>
  <use mask="url(#mask3)" xlink:href="#surface14"/>
  <path style="fill:rgb(80%,80%,80%)" d="M 318 192.007812 C 318 261.59375 261.585938 318.007812 192 318.007812 C 122.414062 318.007812 66 261.59375 66 192.007812 C 66 122.417969 122.414062 66.007812 192 66.007812 C 261.585938 66.007812 318 122.417969 318 192.007812 Z M 318 192.007812"/>
  <use mask="url(#mask4)" xlink:href="#surface17"/>
  <path style="fill:rgb(95.686275%,32.156863%,27.45098%)" d="M 237.605469 113.695312 C 246.214844 118.664062 249.738281 128.679688 245.476562 136.058594 L 206.910156 202.859375 C 202.648438 210.242188 192.214844 212.195312 183.605469 207.226562 C 174.996094 202.253906 171.472656 192.242188 175.734375 184.859375 L 214.300781 118.058594 C 218.5625 110.679688 228.996094 108.722656 237.605469 113.695312 Z M 237.605469 113.695312"/>
  <use mask="url(#mask5)" xlink:href="#surface20"/>
  <path style="fill:rgb(30.196078%,30.196078%,30.196078%)" d="M 222 192.007812 C 222 208.574219 208.570312 222.007812 192 222.007812 C 175.429688 222.007812 162 208.574219 162 192.007812 C 162 175.4375 175.429688 162.007812 192 162.007812 C 208.570312 162.007812 222 175.4375 222 192.007812 Z M 222 192.007812"/>
  <path style="fill:rgb(30.196078%,30.196078%,30.196078%)" d="M 209.996094 288 C 209.996094 297.941406 201.9375 306 192 306 C 182.058594 306 174 297.941406 174 288 C 174 278.0625 182.058594 270 192 270 C 201.9375 270 209.996094 278.0625 209.996094 288 Z M 209.996094 288"/>
  <path style="fill:rgb(30.196078%,30.196078%,30.196078%)" d="M 209.996094 96.003906 C 209.996094 105.945312 201.9375 114.003906 192 114.003906 C 182.058594 114.003906 174 105.945312 174 96.003906 C 174 86.0625 182.058594 78.003906 192 78.003906 C 201.9375 78.003906 209.996094 86.0625 209.996094 96.003906 Z M 209.996094 96.003906"/>
  <path style="fill:rgb(30.196078%,30.196078%,30.196078%)" d="M 96 210.003906 C 86.058594 210.003906 78 201.945312 78 192.003906 C 78 182.0625 86.058594 174.003906 96 174.003906 C 105.941406 174.003906 114 182.0625 114 192.003906 C 114 201.945312 105.941406 210.003906 96 210.003906 Z M 96 210.003906"/>
  <path style="fill:rgb(30.196078%,30.196078%,30.196078%)" d="M 287.996094 210.003906 C 278.054688 210.003906 269.996094 201.945312 269.996094 192.003906 C 269.996094 182.0625 278.054688 174.003906 287.996094 174.003906 C 297.9375 174.003906 305.996094 182.0625 305.996094 192.003906 C 305.996094 201.945312 297.9375 210.003906 287.996094 210.003906 Z M 287.996094 210.003906"/>
  <use mask="url(#mask6)" xlink:href="#surface23"/>
 </g>
</svg>
