<svg xmlns="http://www.w3.org/2000/svg" width="100%" height="100%" version="1.1" viewBox="0 0 512 512">
 <path style="fill:#cd1d31;fill-rule:evenodd" d="m 492.96695,255.72797 c 0,131.68403 -106.75229,238.42542 -238.42543,238.42542 -131.68403,0 -238.425418,-106.75229 -238.425418,-238.42542 0,-131.68403 106.752288,-238.425427 238.425418,-238.425427 131.68403,0 238.42543,106.752287 238.42543,238.425427"/>
 <text style="font-size:129.22999573px;line-height:125%;letter-spacing:0;word-spacing:0;font-family:Gentium Book Basic" x="729.64" y="231.36">
  
 </text>
 <text style="font-size:129.22999573px;line-height:125%;letter-spacing:0;word-spacing:0;font-family:Gentium Book Basic" x="1310.91" y="151.36">
  
 </text>
 <text style="font-size:129.22999573px;line-height:125%;letter-spacing:0;word-spacing:0;font-family:Gentium Book Basic" x="239.33" y="-29.9">
  
 </text>
 <text style="font-size:129.22999573px;line-height:125%;letter-spacing:0;word-spacing:0;font-family:Gentium Book Basic" x="1337.38" y="-246.37">
  
 </text>
 <text style="font-size:129.22999573px;line-height:125%;letter-spacing:0;word-spacing:0;font-family:Gentium Book Basic" x="1918.65" y="-326.38">
  
 </text>
 <text style="font-size:129.22999573px;line-height:125%;letter-spacing:0;word-spacing:0;font-family:Gentium Book Basic" x="1529.53" y="-798.78">
  
 </text>
 <text style="font-size:129.22999573px;line-height:125%;letter-spacing:0;word-spacing:0;font-family:Gentium Book Basic" x="2110.79" y="-878.78">
  
 </text>
 <text style="font-size:208.33000183px;line-height:125%;letter-spacing:0;word-spacing:0;font-family:Gentium Book Basic" x="277.99" y="535.94">
  
 </text>
 <path style="fill:#ffffff" d="m 193.31771,162.17675 c -33.47868,0.757 -66.4084,19.49883 -82.67665,53.06464 -23.953642,49.4278 -4.07687,108.08111 44.55472,131.42263 7.45774,3.5791 18.67975,7.23771 24.94917,8.10144 22.33618,3.07699 43.15838,-1.14257 61.30006,-12.38962 11.93325,-7.39674 24.94917,-19.38446 24.94917,-22.97119 0,-1.21554 -2.57487,-8.12324 -5.75206,-15.3468 l -5.7869,-13.13572 -2.92777,4.76524 c -5.62244,9.19283 -19.41386,21.51166 -29.68064,26.48167 -8.90965,4.31214 -12.81224,5.00377 -27.9107,5.00377 -15.66811,0 -18.76579,-0.60232 -28.59145,-5.58213 -13.63566,-6.91096 -25.98608,-19.73627 -32.26748,-33.52661 -4.14441,-9.09916 -4.76524,-13.03443 -4.76524,-29.58261 0,-17.31389 0.49885,-20.11422 5.41222,-30.12286 6.00148,-12.22733 18.78975,-25.63645 30.08909,-31.58674 11.71542,-6.16921 29.63708,-8.68744 42.44496,-5.95682 25.37068,5.41005 40.62708,19.16661 52.48844,47.34743 28.60234,67.97685 37.53486,86.60213 46.32467,96.53562 13.08128,14.78041 23.59094,19.05769 46.90087,19.09472 16.39243,0.0261 19.73627,-0.57836 29.78303,-5.3436 22.06279,-10.47046 33.09854,-28.19062 32.85021,-52.76075 -0.29191,-28.49342 -12.13476,-40.74799 -52.48845,-54.35752 -29.22862,-9.85723 -35.12663,-14.76407 -35.12663,-29.13604 0,-14.41008 9.22224,-23.35022 24.06038,-23.35022 8.58179,0 13.46684,2.13264 20.66099,9.0545 3.53881,3.40265 6.17249,4.46354 9.22442,3.64228 5.82285,-1.56844 16.3042,-8.39336 16.3042,-10.61968 0,-4.59859 -18.09048,-20.66754 -26.68535,-23.69006 -20.28958,-7.13642 -43.24768,-2.33197 -56.5359,11.81127 -9.23204,9.82457 -12.87977,19.4705 -12.8667,33.86316 0.0294,26.83565 13.34159,40.31121 54.49258,55.07311 27.02518,9.69605 32.3361,14.55387 32.3361,29.58262 0,17.83017 -14.71179,30.5629 -35.36517,30.5629 -12.6227,0 -19.1775,-2.29931 -26.23877,-9.19066 -6.62886,-6.46547 -10.42799,-14.20314 -30.83847,-62.7988 -19.51189,-46.45646 -25.31295,-56.97593 -38.29619,-69.26209 -18.25169,-17.29537 -41.42219,-25.19315 -64.32803,-24.67686"/>
</svg>
