<svg xmlns="http://www.w3.org/2000/svg" xmlns:xlink="http://www.w3.org/1999/xlink" width="384pt" height="384pt" version="1.1" viewBox="0 0 384 384">
 <defs>
  <filter id="alpha" width="100%" height="100%" x="0%" y="0%" filterUnits="objectBoundingBox">
   <feColorMatrix in="SourceGraphic" type="matrix" values="0 0 0 0 1 0 0 0 0 1 0 0 0 0 1 0 0 0 1 0"/>
  </filter>
  <mask id="mask0">
   <g filter="url(#alpha)">
    <rect width="384" height="384" x="0" y="0" style="fill:rgb(0%,0%,0%);fill-opacity:0.2"/>
   </g>
  </mask>
  <clipPath id="clip1">
   <rect width="384" height="384" x="0" y="0"/>
  </clipPath>
  <g id="surface5" clip-path="url(#clip1)">
   <path style="fill:rgb(0%,0%,0%)" d="M 236.074219 206.113281 C 238.234375 203.929688 240 200.25 240 197.945312 C 240 195.640625 238.234375 191.964844 236.078125 189.78125 C 225.011719 178.566406 208.792969 194.777344 219.511719 206.339844 C 224.117188 211.304688 231.046875 211.210938 236.078125 206.113281 Z M 236.074219 206.113281"/>
  </g>
  <mask id="mask1">
   <g filter="url(#alpha)">
    <rect width="384" height="384" x="0" y="0" style="fill:rgb(0%,0%,0%);fill-opacity:0.2"/>
   </g>
  </mask>
  <clipPath id="clip2">
   <rect width="384" height="384" x="0" y="0"/>
  </clipPath>
  <g id="surface8" clip-path="url(#clip2)">
   <path style="fill:rgb(0%,0%,0%)" d="M 305.839844 176.632812 C 306.972656 170.964844 301.886719 163.394531 296.210938 162.183594 C 290.808594 161.027344 283.347656 165.605469 282.183594 170.984375 C 280.929688 176.792969 286.203125 184.683594 292.054688 185.851562 C 297.480469 186.933594 304.753906 182.039062 305.839844 176.632812 Z M 305.839844 176.632812"/>
  </g>
  <mask id="mask2">
   <g filter="url(#alpha)">
    <rect width="384" height="384" x="0" y="0" style="fill:rgb(0%,0%,0%);fill-opacity:0.101961"/>
   </g>
  </mask>
  <clipPath id="clip3">
   <rect width="384" height="384" x="0" y="0"/>
  </clipPath>
  <g id="surface11" clip-path="url(#clip3)">
   <path style="fill:rgb(100%,100%,100%)" d="M 257.929688 12.035156 C 253.921875 11.839844 247.980469 13.066406 238.585938 15.644531 C 228.976562 18.28125 216.179688 22.792969 210.136719 25.664062 C 204.101562 28.535156 198.683594 30.878906 198.109375 30.878906 C 197.527344 30.878906 196.835938 29.328125 196.558594 27.433594 C 196.285156 25.539062 194.742188 23.75 193.132812 23.449219 C 190.015625 22.863281 169.90625 32.480469 164.71875 37.042969 C 160.199219 41.015625 145.378906 49.324219 142.804688 49.324219 C 140.425781 49.324219 130.9375 54.375 124.921875 58.851562 C 122.203125 60.875 119.707031 61.390625 115.96875 60.703125 C 111.277344 59.839844 109.921875 60.550781 101.71875 68.152344 C 96.730469 72.78125 89.742188 78.347656 86.179688 80.519531 C 81.761719 83.214844 75.90625 89.863281 67.746094 101.4375 C 53.796875 121.222656 52.277344 124.476562 52.546875 134.039062 C 52.6875 139.117188 52.070312 141.433594 50.378906 142.066406 C 48.320312 142.84375 47.621094 148.039062 48.269531 152.140625 C 48.613281 150.109375 49.304688 148.46875 50.378906 148.066406 C 52.070312 147.433594 52.6875 145.117188 52.546875 140.039062 C 52.277344 130.476562 53.796875 127.222656 67.746094 107.4375 C 75.90625 95.863281 81.761719 89.214844 86.179688 86.519531 C 89.742188 84.347656 96.730469 78.78125 101.71875 74.152344 C 109.921875 66.550781 111.277344 65.839844 115.96875 66.703125 C 119.707031 67.390625 122.203125 66.875 124.921875 64.855469 C 130.9375 60.371094 140.425781 55.3125 142.804688 55.3125 C 145.378906 55.3125 160.199219 47.015625 164.71875 43.042969 C 169.90625 38.480469 190.015625 28.863281 193.132812 29.449219 C 194.742188 29.75 196.285156 31.539062 196.558594 33.433594 C 196.835938 35.328125 197.527344 36.878906 198.109375 36.878906 C 198.683594 36.878906 204.101562 34.523438 210.136719 31.652344 C 216.179688 28.78125 228.976562 24.28125 238.585938 21.644531 C 257.375 16.488281 262.324219 16.726562 265.734375 22.96875 C 267.269531 25.78125 268.9375 26.121094 281.566406 26.121094 C 296.105469 26.121094 303.640625 28.273438 305.472656 32.953125 C 305.976562 34.238281 310.996094 37.421875 316.625 40.03125 C 324.976562 43.902344 326.875 45.453125 326.875 48.410156 C 326.875 50.699219 328.644531 53.273438 331.660156 55.382812 C 333.070312 56.363281 334.042969 57.304688 334.769531 58.242188 C 337.140625 55.15625 336.035156 52.4375 331.660156 49.382812 C 328.644531 47.273438 326.875 44.699219 326.875 42.410156 C 326.875 39.453125 324.976562 37.914062 316.625 34.042969 C 310.996094 31.433594 305.976562 28.238281 305.472656 26.953125 C 303.640625 22.273438 296.105469 20.121094 281.566406 20.121094 C 268.9375 20.121094 267.269531 19.792969 265.734375 16.980469 C 264.03125 13.859375 261.941406 12.230469 257.929688 12.035156 Z M 319.171875 74.707031 C 318.238281 75.25 316.289062 76.375 315.898438 76.605469 C 313.984375 77.753906 314.347656 78.371094 317.863281 79.96875 C 318.925781 80.453125 319.882812 81.113281 320.632812 81.796875 C 321.535156 80.203125 322.171875 78.855469 322.171875 78.183594 C 322.171875 77.1875 320.898438 75.785156 319.171875 74.707031 Z M 299.472656 113.0625 C 298.277344 115.734375 299.285156 119.550781 302.359375 128.421875 C 304.378906 134.28125 307.625 145.980469 309.574219 154.425781 C 311.519531 162.882812 314.449219 174.292969 316.078125 179.789062 C 317.707031 185.28125 320.179688 196.34375 321.5625 204.371094 C 322.492188 209.757812 322.972656 214.65625 323.152344 219.316406 C 323.386719 212.96875 322.902344 206.136719 321.5625 198.371094 C 320.179688 190.34375 317.707031 179.28125 316.078125 173.789062 C 314.449219 168.292969 311.519531 156.882812 309.574219 148.425781 C 307.625 139.980469 304.378906 128.28125 302.359375 122.421875 C 300.9375 118.332031 300.007812 115.390625 299.472656 113.0625 Z M 50.988281 163.648438 C 50.535156 165.304688 50.507812 167.6875 50.824219 171 C 50.894531 170.550781 50.890625 169.96875 51 169.582031 C 51.847656 166.578125 51.84375 164.898438 50.988281 163.648438 Z M 253.511719 313.277344 L 252.847656 313.769531 L 253.769531 321.445312 C 254.484375 327.367188 255.976562 330.507812 260.347656 335.25 C 266.71875 342.171875 278.058594 364.15625 279.574219 372.011719 L 279.871094 372.011719 L 279.871094 367.671875 C 279.871094 361.644531 267.179688 336.683594 260.347656 329.261719 C 255.976562 324.519531 254.484375 321.367188 253.769531 315.445312 Z M 183.871094 322.207031 C 182.359375 324.015625 180.300781 326.351562 177.640625 329.128906 C 170.28125 336.839844 156.582031 359.476562 153.808594 368.542969 L 153.820312 368.554688 L 152.753906 372.011719 L 154.78125 372.011719 C 158.832031 361.847656 170.863281 342.226562 177.640625 335.128906 C 182.164062 330.402344 185.863281 326.085938 185.863281 325.546875 C 185.863281 324.738281 185.183594 323.632812 183.871094 322.207031 Z M 183.871094 322.207031"/>
  </g>
  <mask id="mask3">
   <g filter="url(#alpha)">
    <rect width="384" height="384" x="0" y="0" style="fill:rgb(0%,0%,0%);fill-opacity:0.2"/>
   </g>
  </mask>
  <clipPath id="clip4">
   <rect width="384" height="384" x="0" y="0"/>
  </clipPath>
  <g id="surface14" clip-path="url(#clip4)">
   <path style="fill:rgb(0%,0%,0%)" d="M 334.757812 58.230469 C 333.355469 60.054688 330.753906 62.007812 326.871094 64.242188 C 322.132812 66.96875 317.195312 69.832031 315.902344 70.605469 C 313.984375 71.75 314.347656 72.371094 317.859375 73.96875 C 318.324219 74.179688 318.75 74.445312 319.171875 74.707031 C 321.363281 73.429688 323.542969 72.15625 326.871094 70.242188 C 335.226562 65.433594 337.636719 61.925781 334.757812 58.230469 Z M 320.636719 81.796875 C 317.03125 88.195312 307.664062 100.097656 303.363281 103.101562 C 299.402344 105.867188 298.226562 107.613281 299.472656 113.0625 C 300.117188 111.617188 301.378906 110.488281 303.363281 109.101562 C 308.734375 105.347656 322.171875 87.554688 322.171875 84.1875 C 322.171875 83.507812 321.558594 82.628906 320.636719 81.796875 Z M 48.265625 152.152344 C 47.625 155.945312 48.230469 161.152344 50.199219 162.757812 C 50.535156 163.03125 50.769531 163.335938 50.984375 163.648438 C 50.992188 163.628906 50.992188 163.597656 50.996094 163.578125 C 52.058594 159.816406 51.855469 158.105469 50.199219 156.761719 C 49.203125 155.953125 48.585938 154.175781 48.265625 152.15625 Z M 50.820312 170.996094 C 50.210938 174.988281 51.085938 181.695312 54.265625 196.671875 L 58.953125 218.75 L 70.238281 233.28125 C 83.582031 250.464844 98.074219 263.058594 124.765625 280.660156 C 163.890625 306.460938 179.066406 317.011719 183.863281 322.203125 C 184.921875 320.929688 185.855469 319.765625 185.855469 319.542969 C 185.855469 315.796875 174.65625 307.558594 124.765625 274.660156 C 98.070312 257.054688 83.582031 244.464844 70.238281 227.28125 L 58.953125 212.75 L 54.265625 190.667969 C 52.277344 181.304688 51.234375 175.304688 50.820312 170.996094 Z M 323.15625 219.3125 C 322.628906 233.765625 317.945312 245.371094 308.132812 257.421875 C 298.648438 269.066406 276.023438 290.488281 262.828125 300.324219 L 252.84375 307.765625 L 253.511719 313.285156 L 262.828125 306.324219 C 276.023438 296.488281 298.648438 275.066406 308.132812 263.421875 C 319.265625 249.75 323.835938 236.671875 323.15625 219.3125 Z M 154.777344 372.007812 C 154.429688 372.882812 154.027344 373.816406 153.804688 374.539062 L 153.816406 374.550781 L 152.75 378.007812 L 279.867188 378.007812 L 279.867188 373.671875 C 279.867188 373.265625 279.683594 372.574219 279.574219 372.007812 Z M 154.777344 372.007812"/>
  </g>
 </defs>
 <g>
  <path style="fill:rgb(30.980392%,30.980392%,30.980392%)" d="M 153.808594 368.542969 C 156.585938 359.480469 170.273438 336.839844 177.636719 329.132812 C 182.160156 324.402344 185.863281 320.085938 185.863281 319.542969 C 185.863281 315.796875 174.652344 307.5625 124.765625 274.664062 C 98.070312 257.058594 83.582031 244.472656 70.238281 227.289062 L 58.957031 212.753906 L 54.269531 190.675781 C 50.730469 174.007812 49.929688 167.371094 51 163.578125 C 52.0625 159.8125 51.863281 158.109375 50.210938 156.765625 C 47.179688 154.296875 47.304688 143.222656 50.378906 142.0625 C 52.070312 141.425781 52.691406 139.125 52.550781 134.042969 C 52.285156 124.480469 53.796875 121.230469 67.746094 101.441406 C 75.90625 89.867188 81.765625 83.214844 86.183594 80.519531 C 89.742188 78.34375 96.734375 72.78125 101.71875 68.160156 C 109.921875 60.554688 111.277344 59.84375 115.96875 60.707031 C 119.707031 61.394531 122.203125 60.878906 124.921875 58.855469 C 130.9375 54.378906 140.429688 49.320312 142.8125 49.320312 C 145.386719 49.320312 160.207031 41.019531 164.722656 37.046875 C 169.914062 32.488281 190.019531 22.867188 193.140625 23.449219 C 194.746094 23.75 196.28125 25.542969 196.558594 27.4375 C 196.832031 29.332031 197.53125 30.878906 198.109375 30.878906 C 198.691406 30.878906 204.105469 28.53125 210.144531 25.660156 C 216.183594 22.789062 228.980469 18.28125 238.585938 15.648438 C 257.378906 10.492188 262.328125 10.734375 265.734375 16.976562 C 267.269531 19.789062 268.945312 20.121094 281.574219 20.121094 C 296.113281 20.121094 303.644531 22.277344 305.476562 26.957031 C 305.976562 28.242188 311 31.425781 316.632812 34.039062 C 324.984375 37.910156 326.875 39.453125 326.875 42.410156 C 326.875 44.699219 328.640625 47.269531 331.660156 49.378906 C 338.621094 54.238281 337.335938 58.230469 326.875 64.246094 C 322.136719 66.972656 317.199219 69.835938 315.90625 70.609375 C 313.992188 71.757812 314.351562 72.378906 317.867188 73.976562 C 320.234375 75.054688 322.175781 76.945312 322.175781 78.183594 C 322.175781 81.550781 308.742188 99.355469 303.367188 103.105469 C 297.710938 107.058594 297.625 108.75 302.355469 122.425781 C 304.382812 128.277344 307.632812 139.984375 309.578125 148.433594 C 311.523438 156.882812 314.449219 168.292969 316.078125 173.785156 C 317.707031 179.28125 320.175781 190.34375 321.5625 198.371094 C 325.957031 223.816406 322.257812 240.082031 308.132812 257.421875 C 298.648438 269.070312 276.03125 290.492188 262.832031 300.328125 L 252.839844 307.777344 L 253.765625 315.445312 C 254.480469 321.363281 255.984375 324.511719 260.351562 329.253906 C 267.1875 336.679688 279.875 361.644531 279.875 367.675781 L 279.875 372.015625 L 152.757812 372.015625 L 153.816406 368.554688 Z M 153.808594 368.542969"/>
  <use mask="url(#mask0)" xlink:href="#surface5"/>
  <path style="fill:rgb(100%,100%,100%)" d="M 236.074219 200.113281 C 238.234375 197.929688 240 194.25 240 191.945312 C 240 189.640625 238.234375 185.964844 236.078125 183.78125 C 225.011719 172.566406 208.792969 188.777344 219.511719 200.339844 C 224.117188 205.304688 231.046875 205.210938 236.078125 200.113281 Z M 236.074219 200.113281"/>
  <use mask="url(#mask1)" xlink:href="#surface8"/>
  <path style="fill:rgb(100%,100%,100%)" d="M 305.839844 170.632812 C 306.972656 164.964844 301.886719 157.394531 296.210938 156.183594 C 290.808594 155.027344 283.347656 159.605469 282.183594 164.984375 C 280.929688 170.792969 286.203125 178.683594 292.054688 179.851562 C 297.480469 180.933594 304.753906 176.039062 305.839844 170.632812 Z M 305.839844 170.632812"/>
  <use mask="url(#mask2)" xlink:href="#surface11"/>
  <use mask="url(#mask3)" xlink:href="#surface14"/>
 </g>
</svg>
