<?xml version="1.0" encoding="UTF-8" standalone="no"?>
<!-- Created with Inkscape (http://www.inkscape.org/) -->

<svg
   xmlns:dc="http://purl.org/dc/elements/1.1/"
   xmlns:cc="http://creativecommons.org/ns#"
   xmlns:rdf="http://www.w3.org/1999/02/22-rdf-syntax-ns#"
   xmlns:svg="http://www.w3.org/2000/svg"
   xmlns="http://www.w3.org/2000/svg"
   xmlns:sodipodi="http://sodipodi.sourceforge.net/DTD/sodipodi-0.dtd"
   xmlns:inkscape="http://www.inkscape.org/namespaces/inkscape"
   id="svg2"
   version="1.1"
   inkscape:version="0.91+devel r14221 custom"
   width="512"
   height="512"
   sodipodi:docname="mintBackup.svg"
   viewBox="0 0 512 512">
  <metadata
     id="metadata8">
    <rdf:RDF>
      <cc:Work
         rdf:about="">
        <dc:format>image/svg+xml</dc:format>
        <dc:type
           rdf:resource="http://purl.org/dc/dcmitype/StillImage" />
        <dc:title></dc:title>
      </cc:Work>
    </rdf:RDF>
  </metadata>
  <defs
     id="defs6" />
  <sodipodi:namedview
     pagecolor="#ffffff"
     bordercolor="#666666"
     borderopacity="1"
     objecttolerance="10"
     gridtolerance="10"
     guidetolerance="10"
     inkscape:pageopacity="0"
     inkscape:pageshadow="2"
     inkscape:window-width="1219"
     inkscape:window-height="658"
     id="namedview4"
     showgrid="false"
     inkscape:zoom="0.65059337"
     inkscape:cx="-24.768778"
     inkscape:cy="319.75799"
     inkscape:window-x="86"
     inkscape:window-y="32"
     inkscape:window-maximized="0"
     inkscape:current-layer="svg2"
     inkscape:document-units="px" />
  <ellipse
     style="fill:#ffffff;fill-opacity:1;fill-rule:nonzero;stroke:none;stroke-width:0.94948572"
     id="path3005"
     cx="256"
     cy="256"
     rx="211.67868"
     ry="211.55168" />
  <path
     inkscape:connector-curvature="0"
     id="path2984"
     d="M 235.16315,480.10846 C 203.74545,477.3508 169.29196,466.17709 141.64927,449.78068 80.995643,413.80371 41.815788,354.17333 32.583285,283.78608 29.462509,259.99368 31.04704,228.45013 36.52641,205.28989 42.309953,180.84396 54.399575,152.35081 67.257068,132.86306 105.03759,75.600135 165.72737,38.823971 234.09282,31.765637 c 15.2574,-1.575236 43.54379,-0.623985 58.75079,1.975762 83.89809,14.342955 151.0229,72.095491 177.62703,152.825911 7.18871,21.8142 10.52936,43.85512 10.52936,69.47064 0,27.27152 -3.79049,49.83309 -12.66484,75.38303 -7.26698,20.92219 -22.97092,49.00594 -36.9182,66.02175 -48.11251,58.69763 -120.74827,89.29317 -196.25381,82.66573 z m 48.33982,-85.62218 c 14.10676,-2.8661 23.16501,-5.98029 36.04376,-12.39174 23.40864,-11.65354 43.64486,-30.31283 57.62773,-53.13706 15.17194,-24.76512 22.57201,-56.70826 19.74633,-85.23702 -3.52927,-35.63222 -17.76939,-65.2985 -43.00353,-89.58874 -19.93518,-19.18951 -43.92319,-31.73926 -71.16044,-37.22884 -12.30191,-2.47941 -41.85195,-2.47427 -53.50961,0.009 -28.88379,6.1535 -53.02431,19.07804 -72.97381,39.06933 -24.23996,24.29074 -38.38863,54.6185 -41.1623,88.23164 l -0.73181,8.86859 -12.3138,0.4927 c -11.078848,0.44329 -12.349546,0.67955 -12.670407,2.35585 -0.476015,2.4874 39.803217,42.97296 42.753527,42.97296 2.54089,0 44.27058,-41.61744 43.63774,-43.52035 -0.33142,-0.99656 -3.82276,-1.38157 -14.4069,-1.58872 l -13.96947,-0.2734 0,-3.2482 c 0,-10.37794 5.74893,-31.95758 11.58974,-43.50415 10.87356,-21.49568 32.55083,-41.76955 54.365,-50.84536 14.697,-6.11471 24.59771,-8.06126 41.51824,-8.16279 16.13793,-0.0969 21.5253,0.67464 35.00267,5.01231 16.65736,5.36117 29.93759,13.64393 42.91289,26.7644 21.48661,21.72701 31.52942,46.08731 31.52942,76.47922 0,19.05246 -3.50795,33.67392 -11.99164,49.98223 -10.9605,21.06955 -27.68569,37.22386 -49.19481,47.51566 -41.72334,19.96398 -89.39571,12.21884 -123.09795,-19.99922 -3.47219,-3.31928 -6.66624,-6.03506 -7.09789,-6.03506 -0.43164,0 -5.68822,4.31166 -11.68125,9.58148 -6.81613,5.99355 -10.89646,10.29569 -10.89646,11.48878 0,4.1873 21.6362,22.2892 36.97466,30.9348 14.19317,8.00006 35.15701,14.8671 51.61188,16.90633 11.47936,1.42262 32.62123,0.51877 44.54849,-1.9045 z"
     style="fill:#0fa15f;fill-opacity:1;stroke-width:0.94948572" />
</svg>
