<?xml version="1.0" encoding="UTF-8" standalone="no"?>
<!-- Created with Inkscape (http://www.inkscape.org/) -->

<svg
   xmlns:dc="http://purl.org/dc/elements/1.1/"
   xmlns:cc="http://creativecommons.org/ns#"
   xmlns:rdf="http://www.w3.org/1999/02/22-rdf-syntax-ns#"
   xmlns:svg="http://www.w3.org/2000/svg"
   xmlns="http://www.w3.org/2000/svg"
   xmlns:sodipodi="http://sodipodi.sourceforge.net/DTD/sodipodi-0.dtd"
   xmlns:inkscape="http://www.inkscape.org/namespaces/inkscape"
   id="svg2"
   version="1.1"
   inkscape:version="0.48.5 r10040"
   width="512"
   height="512"
   sodipodi:docname="nepomuk.svg">
  <metadata
     id="metadata8">
    <rdf:RDF>
      <cc:Work
         rdf:about="">
        <dc:format>image/svg+xml</dc:format>
        <dc:type
           rdf:resource="http://purl.org/dc/dcmitype/StillImage" />
        <dc:title />
      </cc:Work>
    </rdf:RDF>
  </metadata>
  <defs
     id="defs6" />
  <sodipodi:namedview
     pagecolor="#ffffff"
     bordercolor="#666666"
     borderopacity="1"
     objecttolerance="10"
     gridtolerance="10"
     guidetolerance="10"
     inkscape:pageopacity="0"
     inkscape:pageshadow="2"
     inkscape:window-width="1229"
     inkscape:window-height="632"
     id="namedview4"
     showgrid="false"
     inkscape:zoom="0.4609375"
     inkscape:cx="256"
     inkscape:cy="256"
     inkscape:window-x="15"
     inkscape:window-y="39"
     inkscape:window-maximized="0"
     inkscape:current-layer="svg2" />
  <rect
     style="fill:#ffffff;fill-opacity:1;fill-rule:evenodd;stroke:none"
     id="rect3005"
     width="412.2034"
     height="416.54236"
     x="50.576275"
     y="47.559326"
     ry="39.142208" />
  <path
     inkscape:connector-curvature="0"
     id="path2984"
     d="m 65.78422,489.65804 c -20.23285,-4.39632 -38.4857,-22.82918 -42.80909,-43.23129 -2.14377,-10.11644 -2.14377,-369.398096 0,-379.514536 4.37512,-20.646217 22.62985,-38.900947 43.27607,-43.276067 10.11644,-2.14377 369.39811,-2.14377 379.51451,0 20.6463,4.37512 38.901,22.62985 43.2761,43.276067 2.1438,10.11644 2.1438,369.398096 0,379.514536 -4.3751,20.64622 -22.6298,38.90095 -43.2761,43.27607 -9.7822,2.07295 -370.43084,2.03044 -379.98149,-0.0448 z m 92.1827,-80.01975 c 13.62578,-3.54907 25.34862,-12.86409 31.91489,-25.35973 5.50633,-10.47857 12.01228,-15.10908 21.22852,-15.10908 8.39317,0 12.35964,1.85982 19.39814,9.0955 11.02392,11.33275 20.7778,17.56126 35.17669,22.46271 20.67447,7.03768 44.81258,5.46166 64.14435,-4.18809 16.7499,-8.361 29.2199,-20.72277 37.1434,-36.82108 6.0962,-12.3857 8.5766,-21.80509 9.2431,-35.10081 0.8809,-17.5758 -2.6761,-31.50129 -11.9792,-46.89738 -3.906,-6.46419 -4.2283,-7.53321 -4.2283,-14.02422 0,-5.23791 0.5646,-8.17217 2.2182,-11.52669 3.1487,-6.38775 10.6098,-13.59615 16.1435,-15.59669 16.6825,-6.03109 21.5913,-9.62645 26.8832,-19.69016 2.3726,-4.51186 2.7383,-6.35643 2.7193,-13.71308 -0.018,-7.02512 -0.4743,-9.47516 -2.6283,-14.12001 -5.8506,-12.61603 -15.0021,-18.92733 -28.5261,-19.67296 -7.4979,-0.41339 -8.7275,-0.20011 -14.5474,2.52335 -8.7954,4.1159 -13.1104,8.24272 -17.2315,16.48041 -3.3997,6.79558 -3.5318,7.47109 -3.5529,18.17357 -0.025,12.47881 -1.2331,16.41339 -7.0965,23.10635 -5.4651,6.23827 -11.43243,9.51055 -17.32732,9.5017 -7.68159,-0.0115 -21.22098,-1.75362 -27.24935,-3.50611 -6.40909,-1.86318 -12.83496,-7.26813 -15.43921,-12.9863 -2.02419,-4.44453 -2.44655,-13.86895 -0.87504,-19.52559 0.5387,-1.93907 3.19794,-6.14936 5.90942,-9.35619 9.6608,-11.42571 14.41982,-24.83107 14.41982,-40.61822 0,-29.73606 -17.44161,-53.44915 -46.15321,-62.748496 -10.74166,-3.47909 -27.68207,-3.6442 -37.07839,-0.36137 -24.05657,8.404726 -40.67673,26.506056 -45.57682,49.638556 -3.74944,17.70048 0.70696,37.10269 12.08071,52.59684 8.7232,11.88339 24.88609,21.70152 41.09259,24.96168 11.15179,2.24334 11.89062,2.59348 16.69614,7.91261 4.23669,4.68952 5.54418,7.49109 6.7128,14.3836 1.50411,8.87125 -0.31641,13.69835 -8.45819,22.42677 -3.94512,4.2294 -8.12683,9.03981 -9.29267,10.68981 -4.94696,7.00137 -10.60461,20.14382 -13.44282,31.22701 -3.37256,13.16979 -5.56631,16.82104 -12.57386,20.92774 -3.702,2.16951 -5.91734,2.71366 -11.28664,2.77229 -6.16427,0.0673 -7.48654,-0.33814 -17.11002,-5.24651 -9.08914,-4.63583 -11.39334,-5.38804 -17.92948,-5.85315 -16.75036,-1.19196 -33.74755,6.49136 -43.02672,19.44957 -4.89802,6.84 -8.97328,19.13152 -8.97328,27.06456 0,12.09529 5.5477,25.42047 14.17531,34.04808 5.22296,5.22295 16.06381,11.49995 22.45225,13.00014 6.08763,1.42955 15.41703,1.24967 21.83089,-0.42093 z m -21.95845,-22.37157 c -5.04587,-2.34485 -10.91544,-8.42862 -13.03127,-13.50681 -3.47449,-8.33912 -1.38289,-19.83377 4.9785,-27.36004 4.97626,-5.8875 10.82178,-8.54649 18.94541,-8.61785 6.03761,-0.053 7.88356,0.35928 11.7481,2.62405 8.44169,4.94716 13.4186,12.15622 14.44752,20.92728 1.25053,10.6602 -3.89355,20.20181 -13.52444,25.08613 -6.77636,3.43664 -17.18629,3.81093 -23.56382,0.84724 z M 285.0442,377.04556 c -15.98048,-2.29806 -28.53788,-10.01383 -38.09523,-23.40726 -6.8256,-9.56522 -9.62617,-17.9367 -10.19294,-30.46882 -0.42721,-9.44632 -0.20716,-11.30281 2.19279,-18.5 8.34102,-25.01378 31.01958,-40.60514 57.05965,-39.22815 18.5073,0.97866 33.69024,10.12465 44.45414,26.77855 6.2806,9.71722 7.5459,14.57147 7.5459,28.9496 0,14.71541 -1.4106,19.9288 -8.169,30.19128 -12.3313,18.72486 -33.66267,28.72376 -54.79531,25.6848 z m 81.38591,-161.14987 c -5.7916,-3.90301 -8.1665,-8.39515 -7.675,-14.51767 0.7212,-8.98356 7.25,-15.20853 15.9509,-15.20853 6.0288,0 9.8495,1.88402 13.4839,6.64895 2.3711,3.10871 2.7873,4.6039 2.8017,10.06572 0.017,6.35242 -0.029,6.45773 -4.6749,10.85 -4.4615,4.21759 -4.982,4.43533 -10.6021,4.43533 -4.4917,0 -6.7203,-0.5458 -9.2845,-2.2738 z M 217.00847,191.77067 c -10.56122,-3.34008 -20.60208,-12.08597 -25.13067,-21.88958 -2.63268,-5.69929 -2.86933,-7.16008 -2.86933,-17.7116 0,-10.55348 0.22899,-11.9663 2.78218,-17.16545 3.72931,-7.59411 13.69874,-16.89045 21.40079,-19.95589 4.75587,-1.89286 7.73247,-2.32099 16.31703,-2.34693 9.49134,-0.0287 11.04324,0.2351 16.15497,2.74593 7.85648,3.85903 17.92128,14.66276 20.84667,22.37718 8.52728,22.48692 -2.99332,46.32033 -25.79457,53.36292 -7.30586,2.25655 -17.6145,2.51024 -23.70707,0.58342 z"
     style="fill:#c72727" />
</svg>
