<svg xmlns="http://www.w3.org/2000/svg" xmlns:xlink="http://www.w3.org/1999/xlink" width="384pt" height="384pt" version="1.1" viewBox="0 0 384 384">
 <defs>
  <filter id="alpha" width="100%" height="100%" x="0%" y="0%" filterUnits="objectBoundingBox">
   <feColorMatrix in="SourceGraphic" type="matrix" values="0 0 0 0 1 0 0 0 0 1 0 0 0 0 1 0 0 0 1 0"/>
  </filter>
  <mask id="mask0">
   <g filter="url(#alpha)">
    <rect width="384" height="384" x="0" y="0" style="fill:rgb(0%,0%,0%);fill-opacity:0.2"/>
   </g>
  </mask>
  <clipPath id="clip1">
   <rect width="384" height="384" x="0" y="0"/>
  </clipPath>
  <g id="surface5" clip-path="url(#clip1)">
   <path style="fill:rgb(0%,0%,0%)" d="M 48.007812 255.300781 L 48.007812 267.300781 C 48.003906 273.515625 51.246094 279.261719 56.492188 282.371094 L 183.515625 357.671875 C 188.761719 360.777344 195.242188 360.777344 200.484375 357.671875 L 327.511719 282.371094 C 332.757812 279.261719 335.996094 273.515625 335.996094 267.300781 L 335.996094 255.300781 C 335.996094 261.515625 332.757812 267.261719 327.511719 270.371094 L 200.484375 345.671875 C 195.242188 348.777344 188.761719 348.777344 183.515625 345.671875 L 56.492188 270.074219 C 51.246094 266.476562 48.003906 261.675781 48.007812 254.476562 Z M 48.007812 255.300781"/>
  </g>
  <mask id="mask1">
   <g filter="url(#alpha)">
    <rect width="384" height="384" x="0" y="0" style="fill:rgb(0%,0%,0%);fill-opacity:0.501961"/>
   </g>
  </mask>
  <clipPath id="clip2">
   <rect width="384" height="384" x="0" y="0"/>
  </clipPath>
  <g id="surface8" clip-path="url(#clip2)">
   <path style="fill:rgb(96.862745%,55.294118%,55.294118%)" d="M 192 354.894531 C 189.074219 354.894531 186.152344 354.105469 183.53125 352.554688 L 56.46875 277.273438 C 51.226562 274.167969 48 268.414062 48 262.199219 L 48 111.605469 C 48 109.078125 48.535156 106.628906 49.519531 104.402344 L 192.003906 188.398438 Z M 192 354.894531"/>
  </g>
  <mask id="mask2">
   <g filter="url(#alpha)">
    <rect width="384" height="384" x="0" y="0" style="fill:rgb(0%,0%,0%);fill-opacity:0.501961"/>
   </g>
  </mask>
  <clipPath id="clip3">
   <rect width="384" height="384" x="0" y="0"/>
  </clipPath>
  <g id="surface11" clip-path="url(#clip3)">
   <path style="fill:rgb(90.196078%,30.196078%,30.196078%)" d="M 192 354.894531 C 194.925781 354.894531 197.847656 354.105469 200.46875 352.554688 L 327.53125 277.273438 C 332.777344 274.167969 336 268.414062 336 262.199219 L 336 111.605469 C 336 109.078125 335.464844 106.628906 334.480469 104.402344 L 192 188.398438 Z M 192 354.894531"/>
  </g>
  <mask id="mask3">
   <g filter="url(#alpha)">
    <rect width="384" height="384" x="0" y="0" style="fill:rgb(0%,0%,0%);fill-opacity:0.2"/>
   </g>
  </mask>
  <clipPath id="clip4">
   <rect width="384" height="384" x="0" y="0"/>
  </clipPath>
  <g id="surface14" clip-path="url(#clip4)">
   <path style="fill:rgb(100%,100%,100%)" d="M 192.398438 18.9375 C 189.289062 18.816406 186.203125 19.664062 183.515625 21.257812 L 56.484375 96.550781 C 51.242188 99.660156 48.011719 105.40625 48.011719 111.621094 L 48.011719 117.621094 C 48.011719 111.40625 51.242188 105.660156 56.484375 102.550781 L 183.515625 27.257812 C 186.203125 25.664062 189.289062 24.816406 192.398438 24.9375 C 195.242188 25.007812 198.023438 25.800781 200.484375 27.257812 L 327.515625 102.550781 C 332.757812 105.660156 336 111.40625 336 117.621094 L 336 111.621094 C 336 105.40625 332.757812 99.660156 327.515625 96.550781 L 200.484375 21.257812 C 198.023438 19.800781 195.242188 19.007812 192.398438 18.9375 Z M 192.398438 18.9375"/>
  </g>
 </defs>
 <g>
  <use mask="url(#mask0)" xlink:href="#surface5"/>
  <path style="fill:rgb(89.019608%,42.745098%,42.745098%)" d="M 192.394531 18.910156 C 189.289062 18.789062 186.21875 19.640625 183.523438 21.234375 L 56.472656 96.53125 C 51.230469 99.636719 48 105.382812 48 111.601562 L 48 262.195312 C 48 268.410156 51.230469 274.15625 56.472656 277.261719 L 183.523438 352.558594 C 188.769531 355.664062 195.230469 355.664062 200.472656 352.558594 L 327.523438 277.261719 C 332.769531 274.15625 336 268.410156 336 262.195312 L 336 111.601562 C 336 105.382812 332.769531 99.636719 327.523438 96.53125 L 200.472656 21.234375 C 198.011719 19.777344 195.234375 18.976562 192.394531 18.910156 Z M 192.394531 18.910156"/>
  <use mask="url(#mask1)" xlink:href="#surface8"/>
  <use mask="url(#mask2)" xlink:href="#surface11"/>
  <use mask="url(#mask3)" xlink:href="#surface14"/>
 </g>
</svg>
