<?xml version="1.0" encoding="UTF-8" standalone="no"?>
<svg
   xmlns:dc="http://purl.org/dc/elements/1.1/"
   xmlns:cc="http://creativecommons.org/ns#"
   xmlns:rdf="http://www.w3.org/1999/02/22-rdf-syntax-ns#"
   xmlns:svg="http://www.w3.org/2000/svg"
   xmlns="http://www.w3.org/2000/svg"
   xmlns:xlink="http://www.w3.org/1999/xlink"
   xmlns:sodipodi="http://sodipodi.sourceforge.net/DTD/sodipodi-0.dtd"
   xmlns:inkscape="http://www.inkscape.org/namespaces/inkscape"
   version="1.1"
   id="Layer_1"
   x="0px"
   y="0px"
   width="512"
   height="512"
   viewBox="0 0 512 512"
   enable-background="new 0 0 100 100"
   xml:space="preserve"
   inkscape:version="0.91 r13725"
   sodipodi:docname="pinta.svg"><metadata
     id="metadata8"><rdf:RDF><cc:Work
         rdf:about=""><dc:format>image/svg+xml</dc:format><dc:type
           rdf:resource="http://purl.org/dc/dcmitype/StillImage" /><dc:title /></cc:Work></rdf:RDF></metadata><defs
     id="defs6"><linearGradient
       inkscape:collect="always"
       id="linearGradient4386"><stop
         style="stop-color:#000000;stop-opacity:1"
         offset="0"
         id="stop4382" /><stop
         style="stop-color:#367bf0;stop-opacity:1"
         offset="1"
         id="stop4384" /></linearGradient><clipPath
       id="clipPath4275"
       clipPathUnits="userSpaceOnUse"><path
         inkscape:connector-curvature="0"
         id="path4277"
         d="m 63.727539,106.45411 v 26.70507 5.3418 16.02148 251.02344 h 40.578131 96.13672 100.43359 147.39648 V 258.14942 106.45411 H 189.76075 104.30567 Z"
         style="opacity:1;fill:#424242;fill-opacity:1;stroke:none;stroke-width:21.36363602;stroke-linecap:round;stroke-linejoin:round;stroke-miterlimit:4;stroke-dasharray:none;stroke-opacity:0.55" /></clipPath><linearGradient
       inkscape:collect="always"
       xlink:href="#linearGradient4386"
       id="linearGradient4388"
       x1="309.21558"
       y1="316.25388"
       x2="342.32346"
       y2="366.70688"
       gradientUnits="userSpaceOnUse" /></defs><sodipodi:namedview
     pagecolor="#ffffff"
     bordercolor="#666666"
     borderopacity="1"
     objecttolerance="10"
     gridtolerance="10"
     guidetolerance="10"
     inkscape:pageopacity="0"
     inkscape:pageshadow="2"
     inkscape:window-width="1920"
     inkscape:window-height="1046"
     id="namedview4"
     showgrid="false"
     inkscape:zoom="0.80078125"
     inkscape:cx="139.6556"
     inkscape:cy="239.14723"
     inkscape:window-x="0"
     inkscape:window-y="34"
     inkscape:window-maximized="1"
     inkscape:current-layer="Layer_1" /><g
     id="g4190"
     transform="translate(3.3185412,10.351113)"><circle
       r="225"
       cy="245.6489"
       cx="252.68146"
       id="path4894"
       style="opacity:1;fill:#ba174e;fill-opacity:0.99607843;fill-rule:nonzero;stroke:none;stroke-width:2;stroke-miterlimit:4;stroke-dasharray:none;stroke-opacity:0" /><path
       id="path4894-8"
       d="M 477.47443,239.79536 A 225,225 0 0 1 252.68146,460.64888 225,225 0 0 1 27.888491,241.5024 a 225,225 0 0 0 -0.207031,4.14648 225,225 0 0 0 225,225 225,225 0 0 0 225,-225 225,225 0 0 0 -0.20703,-5.85352 z"
       style="opacity:0.3;fill:#000000;fill-opacity:0.99607843;fill-rule:nonzero;stroke:none;stroke-width:2;stroke-miterlimit:4;stroke-dasharray:none;stroke-opacity:0"
       inkscape:connector-curvature="0" /><path
       id="path4894-5"
       d="m 252.68146,20.648879 a 225,225 0 0 0 -225,225.000001 225,225 0 0 0 0.125,3.51172 225,225 0 0 1 224.875,-222.511721 225,225 0 0 1 224.875,221.488281 225,225 0 0 0 0.125,-2.48828 225,225 0 0 0 -225,-225.000001 z"
       style="opacity:0.3;fill:#ffffff;fill-opacity:0.99607843;fill-rule:nonzero;stroke:none;stroke-width:2;stroke-miterlimit:4;stroke-dasharray:none;stroke-opacity:0"
       inkscape:connector-curvature="0" /></g><path
     style="opacity:0.3;fill:#000000;fill-opacity:1;fill-rule:evenodd;stroke:none;stroke-width:1px;stroke-linecap:butt;stroke-linejoin:miter;stroke-opacity:1"
     d="m 144.91107,126.98115 c -1.07317,0.0722 -1.68774,1.41692 -1.16407,2.38086 33.0102,60.76252 145.78826,156.23212 146.66016,152.30859 l 42.61328,41.36718 c -1.78408,24.11563 17.07029,33.32995 25.00781,36.22461 5.9323,2.55675 8.95955,3.26132 15.22852,11.11133 6.36157,7.97975 -8.41211,18.41016 -8.41211,18.41016 0,0 16.97989,4.39766 23.02343,-25.39258 6.04346,-29.79024 -33.76601,-42.80387 -35.63867,-43.30469 -1.87265,-0.50082 -13.47461,-3.04492 -13.47461,-3.04492 L 299.60638,273.02216 C 247.99479,216.59974 199.29641,165.03495 146.11224,127.39521 c -0.43456,-0.32 -0.84345,-0.43812 -1.20117,-0.41406 z"
     id="path4320-3"
     inkscape:connector-curvature="0" /><g
     id="g4380"
     transform="matrix(0.83956718,0,0,0.83956718,85.445211,79.634568)"><path
       sodipodi:nodetypes="scccs"
       inkscape:connector-curvature="0"
       id="path4320"
       d="M 57.282817,56.601611 C 96.600927,128.97524 230.92819,242.68643 231.9667,238.01314 l 10.9569,-10.30116 C 181.44956,160.50781 123.44654,99.090341 60.099407,54.258021 c -2.0704,-1.5246 -3.648248,0.812741 -2.81659,2.34359 z"
       style="fill:#000000;fill-opacity:1;fill-rule:evenodd;stroke:none;stroke-width:1px;stroke-linecap:butt;stroke-linejoin:miter;stroke-opacity:1" /><path
       inkscape:connector-curvature="0"
       id="path4322"
       d="m 231.9667,238.01314 50.757,49.27337 6.8309,-7.14257 -46.631,-52.43196 z"
       style="fill:#ffffff;fill-opacity:1;fill-rule:evenodd;stroke:none;stroke-width:1px;stroke-linecap:butt;stroke-linejoin:miter;stroke-opacity:1" /><path
       sodipodi:nodetypes="cccccscc"
       inkscape:connector-curvature="0"
       id="path4324"
       d="m 282.7237,287.28651 c -2.125,28.72389 20.3326,39.69886 29.7869,43.14666 7.0659,3.04532 10.6722,3.88387 18.1391,13.23394 7.5772,9.5046 -10.0197,21.92782 -10.0197,21.92782 0,0 20.2246,5.23897 27.423,-30.24389 7.1983,-35.48285 -40.218,-50.98245 -42.4485,-51.57897 -2.2305,-0.59652 -16.0499,-3.62813 -16.0499,-3.62813 z"
       style="fill:url(#linearGradient4388);fill-opacity:1;fill-rule:evenodd;stroke:#181818;stroke-width:1px;stroke-linecap:butt;stroke-linejoin:miter;stroke-opacity:0.11764706" /></g></svg>