<svg xmlns="http://www.w3.org/2000/svg" xmlns:xlink="http://www.w3.org/1999/xlink" width="384pt" height="384pt" version="1.1" viewBox="0 0 384 384">
 <defs>
  <filter id="alpha" width="100%" height="100%" x="0%" y="0%" filterUnits="objectBoundingBox">
   <feColorMatrix in="SourceGraphic" type="matrix" values="0 0 0 0 1 0 0 0 0 1 0 0 0 0 1 0 0 0 1 0"/>
  </filter>
  <mask id="mask0">
   <g filter="url(#alpha)">
    <rect width="384" height="384" x="0" y="0" style="fill:rgb(0%,0%,0%);fill-opacity:0.2"/>
   </g>
  </mask>
  <clipPath id="clip1">
   <rect width="384" height="384" x="0" y="0"/>
  </clipPath>
  <g id="surface5" clip-path="url(#clip1)">
   <path style="fill:rgb(0%,0%,0%)" d="M 24 336 L 24 348 C 24 357.972656 32.027344 366 42 366 L 342 366 C 351.972656 366 360 357.972656 360 348 L 360 336 C 360 345.972656 351.972656 354 342 354 L 42 354 C 32.027344 354 24 345.972656 24 336 Z M 24 336"/>
  </g>
  <mask id="mask1">
   <g filter="url(#alpha)">
    <rect width="384" height="384" x="0" y="0" style="fill:rgb(0%,0%,0%);fill-opacity:0.101961"/>
   </g>
  </mask>
  <clipPath id="clip2">
   <rect width="384" height="384" x="0" y="0"/>
  </clipPath>
  <g id="surface8" clip-path="url(#clip2)">
   <path style="fill:rgb(100%,100%,100%)" d="M 42 24 C 32.027344 24 24 32.027344 24 42 L 24 48 C 24 38.027344 32.027344 30 42 30 L 342 30 C 351.972656 30 360 38.027344 360 48 L 360 42 C 360 32.027344 351.972656 24 342 24 Z M 42 24"/>
  </g>
  <mask id="mask2">
   <g filter="url(#alpha)">
    <rect width="384" height="384" x="0" y="0" style="fill:rgb(0%,0%,0%);fill-opacity:0.2"/>
   </g>
  </mask>
  <clipPath id="clip3">
   <rect width="384" height="384" x="0" y="0"/>
  </clipPath>
  <g id="surface11" clip-path="url(#clip3)">
   <path style="fill:rgb(0%,0%,0%)" d="M 62.988281 209.773438 C 62.4375 209.773438 62 210.21875 61.929688 210.855469 L 60 226.203125 L 61.929688 241.285156 C 62.003906 241.921875 62.4375 242.363281 62.992188 242.363281 C 63.523438 242.363281 63.957031 241.925781 64.042969 241.292969 L 66.332031 226.203125 L 64.042969 210.851562 C 63.960938 210.21875 63.523438 209.769531 62.992188 209.769531 Z M 73.847656 201.386719 C 73.75 200.726562 73.304688 200.273438 72.746094 200.273438 C 72.1875 200.273438 71.722656 200.742188 71.648438 201.386719 C 71.648438 201.394531 69.050781 226.203125 69.050781 226.203125 L 71.648438 250.46875 C 71.71875 251.121094 72.183594 251.589844 72.746094 251.589844 C 73.300781 251.589844 73.753906 251.132812 73.84375 250.476562 L 76.796875 226.203125 Z M 114.742188 178.496094 C 113.675781 178.496094 112.796875 179.410156 112.746094 180.566406 L 110.679688 226.222656 L 112.746094 255.726562 C 112.792969 256.878906 113.675781 257.789062 114.742188 257.789062 C 115.800781 257.789062 116.679688 256.878906 116.742188 255.722656 L 116.742188 255.742188 L 119.078125 226.234375 L 116.742188 180.574219 C 116.679688 179.410156 115.800781 178.496094 114.742188 178.496094 Z M 93.578125 194.371094 C 92.757812 194.371094 92.089844 195.054688 92.027344 195.96875 L 89.699219 226.21875 L 92.027344 255.484375 C 92.085938 256.390625 92.757812 257.074219 93.578125 257.074219 C 94.386719 257.074219 95.054688 256.390625 95.125 255.484375 L 97.769531 226.21875 L 95.125 195.960938 C 95.054688 195.050781 94.386719 194.367188 93.578125 194.367188 Z M 136.253906 257.792969 C 137.574219 257.792969 138.644531 256.679688 138.699219 255.253906 L 140.726562 226.246094 L 138.703125 165.460938 C 138.65625 164.035156 137.574219 162.921875 136.253906 162.921875 C 134.921875 162.921875 133.847656 164.039062 133.804688 165.464844 C 133.804688 165.46875 132.007812 226.242188 132.007812 226.242188 L 133.804688 255.261719 C 133.851562 256.675781 134.921875 257.792969 136.253906 257.792969 Z M 180.289062 257.929688 C 182.105469 257.929688 183.601562 256.363281 183.636719 254.4375 L 183.636719 254.457031 L 183.636719 254.4375 L 185.050781 226.261719 L 183.636719 156.0625 C 183.601562 154.140625 182.105469 152.570312 180.289062 152.570312 C 178.46875 152.570312 176.964844 154.136719 176.9375 156.066406 L 175.671875 226.238281 C 175.671875 226.28125 176.9375 254.457031 176.9375 254.457031 C 176.960938 256.363281 178.46875 257.929688 180.289062 257.929688 Z M 158.101562 257.820312 C 159.683594 257.820312 160.957031 256.492188 161 254.796875 L 161 254.816406 L 162.722656 226.246094 L 160.996094 165.023438 C 160.949219 163.332031 159.679688 162.007812 158.097656 162.007812 C 156.507812 162.007812 155.230469 163.332031 155.199219 165.023438 L 153.667969 226.25 L 155.199219 254.8125 C 155.234375 256.488281 156.507812 257.816406 158.101562 257.816406 Z M 104.117188 257.550781 C 105.058594 257.550781 105.820312 256.765625 105.890625 255.726562 L 108.382812 226.21875 L 105.890625 198.140625 C 105.820312 197.101562 105.0625 196.320312 104.121094 196.320312 C 103.164062 196.320312 102.40625 197.109375 102.34375 198.152344 L 100.152344 226.210938 L 102.34375 255.71875 C 102.40625 256.761719 103.164062 257.546875 104.121094 257.546875 Z M 83.121094 255.933594 C 83.808594 255.933594 84.363281 255.363281 84.445312 254.582031 L 87.242188 226.210938 L 84.445312 196.777344 C 84.363281 195.984375 83.808594 195.421875 83.121094 195.421875 C 82.425781 195.421875 81.867188 195.992188 81.796875 196.773438 C 81.796875 196.777344 79.332031 226.21875 79.332031 226.21875 L 81.796875 254.585938 C 81.871094 255.371094 82.421875 255.941406 83.121094 255.941406 Z M 169.152344 164.003906 C 167.4375 164.003906 166.058594 165.433594 166.023438 167.261719 L 164.628906 226.25 L 166.023438 254.636719 C 166.0625 256.445312 167.433594 257.871094 169.152344 257.871094 C 170.867188 257.871094 172.238281 256.445312 172.277344 254.617188 L 172.277344 254.640625 L 173.84375 226.257812 L 172.277344 167.261719 C 172.242188 165.4375 170.867188 164.007812 169.152344 164.007812 Z M 125.460938 257.847656 C 126.644531 257.847656 127.625 256.835938 127.683594 255.542969 L 129.863281 226.234375 L 127.683594 170.136719 C 127.621094 168.839844 126.644531 167.832031 125.460938 167.832031 C 124.261719 167.832031 123.285156 168.84375 123.234375 170.136719 C 123.234375 170.140625 121.300781 226.234375 121.300781 226.234375 L 123.234375 255.554688 C 123.285156 256.835938 124.261719 257.847656 125.460938 257.847656 Z M 149.808594 255.082031 L 149.808594 255.0625 L 151.683594 226.238281 L 149.808594 163.40625 C 149.761719 161.847656 148.585938 160.625 147.136719 160.625 C 145.675781 160.625 144.503906 161.84375 144.460938 163.40625 L 142.796875 226.234375 L 144.464844 255.074219 C 144.5 256.621094 145.679688 257.839844 147.136719 257.839844 C 148.589844 257.839844 149.761719 256.621094 149.808594 255.066406 L 149.808594 255.085938 Z M 291.527344 190.027344 C 287.078125 190.027344 282.835938 190.96875 278.96875 192.664062 C 276.382812 162.03125 251.84375 138.003906 221.90625 138.003906 C 214.582031 138.003906 207.441406 139.515625 201.136719 142.066406 C 198.6875 143.058594 198.03125 144.082031 198.011719 146.0625 L 198.011719 253.933594 C 198.035156 256.011719 199.578125 257.746094 201.515625 257.949219 C 201.601562 257.972656 290.953125 258.007812 291.527344 258.007812 C 309.457031 258.007812 324 242.792969 324 224.027344 C 324 205.253906 309.464844 190.035156 291.53125 190.035156 Z M 191.371094 145.972656 C 189.421875 145.972656 187.820312 147.648438 187.792969 149.707031 L 186.328125 226.269531 L 187.792969 254.054688 C 187.820312 256.085938 189.421875 257.757812 191.371094 257.757812 C 193.316406 257.757812 194.917969 256.085938 194.945312 254.027344 L 194.945312 254.058594 L 196.539062 226.269531 L 194.945312 149.703125 C 194.921875 147.648438 193.316406 145.972656 191.371094 145.972656 Z M 191.371094 145.972656"/>
  </g>
 </defs>
 <g>
  <use mask="url(#mask0)" xlink:href="#surface5"/>
  <path style="fill:rgb(100%,53.333333%,20%)" d="M 360 342 L 360 42 C 360 32.058594 351.941406 24 342 24 L 42 24 C 32.058594 24 24 32.058594 24 42 L 24 342 C 24 351.941406 32.058594 360 42 360 L 342 360 C 351.941406 360 360 351.941406 360 342 Z M 360 342"/>
  <use mask="url(#mask1)" xlink:href="#surface8"/>
  <use mask="url(#mask2)" xlink:href="#surface11"/>
  <path style="fill:rgb(100%,100%,100%)" d="M 62.988281 203.773438 C 62.4375 203.773438 62 204.21875 61.929688 204.855469 L 60 220.203125 L 61.929688 235.285156 C 62.003906 235.921875 62.4375 236.363281 62.992188 236.363281 C 63.523438 236.363281 63.957031 235.925781 64.042969 235.292969 L 66.332031 220.203125 L 64.042969 204.851562 C 63.960938 204.21875 63.523438 203.769531 62.992188 203.769531 Z M 73.847656 195.386719 C 73.75 194.726562 73.304688 194.273438 72.746094 194.273438 C 72.1875 194.273438 71.722656 194.742188 71.648438 195.386719 C 71.648438 195.394531 69.050781 220.203125 69.050781 220.203125 L 71.648438 244.46875 C 71.71875 245.121094 72.183594 245.589844 72.746094 245.589844 C 73.300781 245.589844 73.753906 245.132812 73.84375 244.476562 L 76.796875 220.203125 Z M 114.742188 172.496094 C 113.675781 172.496094 112.796875 173.410156 112.746094 174.566406 L 110.679688 220.222656 L 112.746094 249.726562 C 112.792969 250.878906 113.675781 251.789062 114.742188 251.789062 C 115.800781 251.789062 116.679688 250.878906 116.742188 249.722656 L 116.742188 249.742188 L 119.078125 220.234375 L 116.742188 174.574219 C 116.679688 173.410156 115.800781 172.496094 114.742188 172.496094 Z M 93.578125 188.371094 C 92.757812 188.371094 92.089844 189.054688 92.027344 189.96875 L 89.699219 220.21875 L 92.027344 249.484375 C 92.085938 250.390625 92.757812 251.074219 93.578125 251.074219 C 94.386719 251.074219 95.054688 250.390625 95.125 249.484375 L 97.769531 220.21875 L 95.125 189.960938 C 95.054688 189.050781 94.386719 188.367188 93.578125 188.367188 Z M 136.253906 251.792969 C 137.574219 251.792969 138.644531 250.679688 138.699219 249.253906 L 140.726562 220.246094 L 138.703125 159.460938 C 138.65625 158.035156 137.574219 156.921875 136.253906 156.921875 C 134.921875 156.921875 133.847656 158.039062 133.804688 159.464844 C 133.804688 159.46875 132.007812 220.242188 132.007812 220.242188 L 133.804688 249.261719 C 133.851562 250.675781 134.921875 251.792969 136.253906 251.792969 Z M 180.289062 251.929688 C 182.105469 251.929688 183.601562 250.363281 183.636719 248.4375 L 183.636719 248.457031 L 183.636719 248.4375 L 185.050781 220.261719 L 183.636719 150.0625 C 183.601562 148.140625 182.105469 146.570312 180.289062 146.570312 C 178.46875 146.570312 176.964844 148.136719 176.9375 150.066406 L 175.671875 220.238281 C 175.671875 220.28125 176.9375 248.457031 176.9375 248.457031 C 176.960938 250.363281 178.46875 251.929688 180.289062 251.929688 Z M 158.101562 251.820312 C 159.683594 251.820312 160.957031 250.492188 161 248.796875 L 161 248.816406 L 162.722656 220.246094 L 160.996094 159.023438 C 160.949219 157.332031 159.679688 156.007812 158.097656 156.007812 C 156.507812 156.007812 155.230469 157.332031 155.199219 159.023438 L 153.667969 220.25 L 155.199219 248.8125 C 155.234375 250.488281 156.507812 251.816406 158.101562 251.816406 Z M 104.117188 251.550781 C 105.058594 251.550781 105.820312 250.765625 105.890625 249.726562 L 108.382812 220.21875 L 105.890625 192.140625 C 105.820312 191.101562 105.0625 190.320312 104.121094 190.320312 C 103.164062 190.320312 102.40625 191.109375 102.34375 192.152344 L 100.152344 220.210938 L 102.34375 249.71875 C 102.40625 250.761719 103.164062 251.546875 104.121094 251.546875 Z M 83.121094 249.933594 C 83.808594 249.933594 84.363281 249.363281 84.445312 248.582031 L 87.242188 220.210938 L 84.445312 190.777344 C 84.363281 189.984375 83.808594 189.421875 83.121094 189.421875 C 82.425781 189.421875 81.867188 189.992188 81.796875 190.773438 C 81.796875 190.777344 79.332031 220.21875 79.332031 220.21875 L 81.796875 248.585938 C 81.871094 249.371094 82.421875 249.941406 83.121094 249.941406 Z M 169.152344 158.003906 C 167.4375 158.003906 166.058594 159.433594 166.023438 161.261719 L 164.628906 220.25 L 166.023438 248.636719 C 166.0625 250.445312 167.433594 251.871094 169.152344 251.871094 C 170.867188 251.871094 172.238281 250.445312 172.277344 248.617188 L 172.277344 248.640625 L 173.84375 220.257812 L 172.277344 161.261719 C 172.242188 159.4375 170.867188 158.007812 169.152344 158.007812 Z M 125.460938 251.855469 C 126.648438 251.855469 127.628906 250.84375 127.683594 249.550781 L 129.863281 220.242188 L 127.683594 164.144531 C 127.625 162.847656 126.648438 161.835938 125.460938 161.835938 C 124.265625 161.835938 123.285156 162.851562 123.234375 164.144531 C 123.234375 164.148438 121.304688 220.242188 121.304688 220.242188 L 123.238281 249.5625 C 123.285156 250.84375 124.261719 251.855469 125.460938 251.855469 Z M 149.8125 249.089844 L 149.8125 249.070312 L 151.683594 220.246094 L 149.8125 157.414062 C 149.761719 155.855469 148.589844 154.632812 147.140625 154.632812 C 145.679688 154.632812 144.503906 155.851562 144.464844 157.414062 L 142.800781 220.242188 L 144.46875 249.082031 C 144.503906 250.628906 145.683594 251.847656 147.140625 251.847656 C 148.59375 251.847656 149.761719 250.628906 149.8125 249.074219 L 149.8125 249.09375 Z M 291.53125 184.03125 C 287.082031 184.03125 282.835938 184.972656 278.96875 186.671875 C 276.386719 156.039062 251.84375 132.011719 221.910156 132.011719 C 214.585938 132.011719 207.441406 133.523438 201.136719 136.074219 C 198.6875 137.066406 198.035156 138.089844 198.011719 140.070312 L 198.011719 247.9375 C 198.035156 250.019531 199.578125 251.75 201.519531 251.957031 C 201.601562 251.976562 290.949219 252.011719 291.527344 252.011719 C 309.460938 252.011719 324 236.796875 324 218.023438 C 324 199.253906 309.464844 184.03125 291.53125 184.03125 Z M 191.375 139.976562 C 189.421875 139.976562 187.824219 141.652344 187.792969 143.714844 L 186.328125 220.277344 L 187.796875 248.0625 C 187.820312 250.09375 189.421875 251.765625 191.375 251.765625 C 193.320312 251.765625 194.921875 250.09375 194.949219 248.035156 L 194.949219 248.066406 L 196.542969 220.277344 L 194.949219 143.707031 C 194.925781 141.65625 193.320312 139.980469 191.375 139.980469 Z M 191.375 139.976562"/>
 </g>
</svg>
