<svg xmlns="http://www.w3.org/2000/svg" width="512" height="512" version="1.1" viewBox="0 0 135.47 135.47">
 <g transform="translate(0,-161.53338)">
  <rect style="fill:#367bf0" width="57.076" height="57.553" x="8.2" y="169.74" rx="2.745" ry="2.722"/>
  <rect style="fill:#367bf0" width="57.076" height="57.553" x="70.19" y="169.98" rx="2.745" ry="2.722"/>
  <rect style="fill:#367bf0" width="57.076" height="57.553" x="70.05" y="231.24" rx="2.745" ry="2.722"/>
  <rect style="fill:#1ba389" width="57.076" height="57.553" x="8.84" y="231.08" rx="2.745" ry="2.722"/>
  <path style="opacity:0.3" d="m 8.2020831,221.87393 v 2.69285 c 0,1.50823 1.2242201,2.72232 2.7450249,2.72232 h 51.585887 c 1.520804,0 2.745026,-1.21409 2.745026,-2.72232 v -2.69285 c 0,1.50821 -1.224214,2.72231 -2.745026,2.72231 H 10.947639 c -1.5208121,0 -2.7455559,-1.2141 -2.7455559,-2.72231 z m 61.9865709,0.24719 v 2.69287 c 0,1.50822 1.22422,2.7223 2.745025,2.7223 h 51.585871 c 1.5208,0 2.74503,-1.21408 2.74503,-2.7223 v -2.69287 c 0,1.50822 -1.22476,2.72233 -2.74556,2.72233 H 72.933679 c -1.520802,0 -2.745025,-1.21411 -2.745025,-2.72233 z M 8.8368966,283.21605 v 2.69287 c 0,1.50822 1.2242204,2.72283 2.7450254,2.72283 h 51.585357 c 1.520804,0 2.745026,-1.21461 2.745026,-2.72283 v -2.69287 c 0,1.50823 -1.224214,2.72285 -2.745026,2.72285 H 11.581922 c -1.520812,0 -2.7450254,-1.21462 -2.7450254,-2.72285 z m 61.2075044,0.16673 v 2.69286 c 0,1.50823 1.224221,2.72232 2.745027,2.72232 H 124.3753 c 1.52081,0 2.74502,-1.21409 2.74502,-2.72232 v -2.69286 c 0,1.50823 -1.22421,2.72231 -2.74502,2.72231 H 72.789957 c -1.520802,0 -2.745556,-1.21408 -2.745556,-2.72231 z"/>
  <path style="opacity:0.3;fill:#ffffff" d="m 10.947639,169.73547 c -1.5208052,0 -2.7450253,1.2141 -2.7450253,2.72232 v 2.69338 c 0,-1.50821 1.2236925,-2.72231 2.7444943,-2.72231 h 51.585357 c 1.520802,0 2.713955,1.21442 2.745026,2.72231 l 1.039847,50.46545 c 1.4e-5,-0.004 6e-4,-0.007 5.3e-4,-0.0105 L 65.278021,172.4578 c -0.02951,-1.50794 -1.224751,-2.72232 -2.745556,-2.72232 z m 61.98657,0.2472 c -1.520806,0 -2.745555,1.21409 -2.745555,2.72232 v 2.69338 c 0,-1.50821 1.224742,-2.72232 2.745555,-2.72232 h 51.585341 c 1.5208,0 2.74503,1.21411 2.74503,2.72232 v -2.69338 c 0,-1.50823 -1.22423,-2.72232 -2.74503,-2.72232 z M 11.581922,231.0776 c -1.520805,0 -2.7450254,1.2141 -2.7450254,2.72232 v 2.69338 c 0,-1.50822 1.2236934,-2.72231 2.7444954,-2.72231 h 51.585357 c 1.520802,0 2.746085,1.21409 2.746085,2.72231 v -2.69338 c 0,-1.50822 -1.224751,-2.72232 -2.745555,-2.72232 z m 61.208035,0.1662 c -1.520805,0 -2.745556,1.21462 -2.745556,2.72285 v 2.69338 c 0,-1.50822 1.224743,-2.72284 2.745556,-2.72284 H 124.3753 c 1.52081,0 2.74502,1.21462 2.74502,2.72284 v -2.69338 c 0,-1.50823 -1.22421,-2.72285 -2.74502,-2.72285 z"/>
  <ellipse style="opacity:0.3;fill:#ffffff;fill-opacity:0;stroke:#000000;stroke-width:2.70407081;stroke-linecap:round" cx="98.727" cy="198.76" rx="16.561" ry="16.424"/>
  <ellipse style="opacity:0.3;fill:#ffffff;fill-opacity:0;stroke:#000000;stroke-width:2.70407081;stroke-linecap:round" cx="36.74" cy="198.512" rx="16.561" ry="16.424"/>
  <ellipse style="opacity:0.3;fill:#ffffff;fill-opacity:0;stroke:#000000;stroke-width:2.70407081;stroke-linecap:round" cx="98.582" cy="260.021" rx="16.561" ry="16.424"/>
  <rect style="opacity:0.3;fill:#ffffff;fill-opacity:0;stroke:#000000;stroke-width:2.91069698;stroke-linecap:round" width="32.914" height="32.642" x="20.92" y="243.53" rx="2.898" ry="2.874"/>
 </g>
</svg>
