<svg xmlns="http://www.w3.org/2000/svg" xmlns:xlink="http://www.w3.org/1999/xlink" width="384pt" height="384pt" version="1.1" viewBox="0 0 384 384">
 <defs>
  <filter id="alpha" width="100%" height="100%" x="0%" y="0%" filterUnits="objectBoundingBox">
   <feColorMatrix in="SourceGraphic" type="matrix" values="0 0 0 0 1 0 0 0 0 1 0 0 0 0 1 0 0 0 1 0"/>
  </filter>
  <mask id="mask0">
   <g filter="url(#alpha)">
    <rect width="384" height="384" x="0" y="0" style="fill:rgb(0%,0%,0%);fill-opacity:0.2"/>
   </g>
  </mask>
  <clipPath id="clip1">
   <rect width="384" height="384" x="0" y="0"/>
  </clipPath>
  <g id="surface5" clip-path="url(#clip1)">
   <path style="fill:rgb(0%,0%,0%)" d="M 288.375 38.054688 C 270.941406 38.054688 256.804688 52.007812 256.804688 69.21875 C 256.804688 86.429688 270.941406 100.382812 288.375 100.382812 C 305.8125 100.382812 319.949219 86.429688 319.949219 69.21875 C 319.949219 52.007812 305.8125 38.054688 288.375 38.054688 Z M 221.71875 62.449219 C 202.257812 62.449219 182.59375 67.277344 164.851562 75.9375 C 164.222656 76.25 163.753906 76.808594 163.5625 77.476562 C 163.371094 78.144531 163.476562 78.859375 163.851562 79.445312 L 189.394531 119.484375 C 190.042969 120.5 191.34375 120.902344 192.464844 120.4375 C 201.941406 116.480469 211.785156 114.476562 221.71875 114.476562 C 258.253906 114.476562 290.125 141.234375 295.855469 176.722656 C 296.046875 177.914062 297.085938 178.789062 298.304688 178.789062 L 346.457031 178.859375 C 347.160156 178.859375 347.828125 178.570312 348.300781 178.058594 C 348.773438 177.542969 349 176.863281 348.933594 176.171875 C 346.339844 149.839844 334.992188 124.4375 316.984375 104.65625 C 316.171875 103.757812 314.816406 103.582031 313.789062 104.234375 C 306.53125 108.867188 298.28125 111.320312 289.949219 111.320312 C 265.636719 111.320312 245.863281 91.902344 245.859375 68.03125 C 245.863281 68.019531 245.90625 67.121094 245.90625 67.078125 C 245.90625 65.890625 245.042969 64.867188 243.847656 64.664062 C 236.246094 63.359375 228.804688 62.449219 221.71875 62.449219 Z M 144.953125 88.5 C 144.4375 88.515625 143.933594 88.691406 143.523438 89.007812 C 122.65625 104.882812 106.972656 127.222656 99.351562 151.90625 C 99.054688 152.871094 99.382812 153.917969 100.1875 154.546875 C 110.675781 162.75 116.933594 175.382812 116.933594 188.335938 C 116.933594 201.289062 110.671875 213.925781 100.183594 222.128906 C 99.382812 222.753906 99.050781 223.796875 99.347656 224.765625 C 106.90625 249.246094 122.414062 271.453125 143.023438 287.296875 C 143.574219 287.722656 144.28125 287.894531 144.972656 287.777344 C 145.664062 287.660156 146.269531 287.257812 146.644531 286.675781 L 172.410156 246.734375 C 173.070312 245.714844 172.878906 244.371094 171.957031 243.574219 C 155.78125 229.515625 146.507812 209.378906 146.507812 188.335938 C 146.507812 167.136719 155.882812 146.914062 172.226562 132.851562 C 173.144531 132.054688 173.347656 130.714844 172.695312 129.691406 L 147.140625 89.640625 C 146.765625 89.058594 146.160156 88.652344 145.472656 88.535156 C 145.300781 88.503906 145.128906 88.492188 144.953125 88.5 Z M 73.367188 157.027344 C 55.523438 157.027344 41.054688 171.308594 41.054688 188.921875 C 41.054688 206.539062 55.523438 220.820312 73.367188 220.820312 C 91.210938 220.820312 105.675781 206.539062 105.675781 188.921875 C 105.675781 171.308594 91.210938 157.027344 73.367188 157.027344 Z M 346.40625 198.191406 L 298.261719 198.34375 C 297.046875 198.347656 296.007812 199.222656 295.8125 200.402344 C 290.007812 235.628906 258.152344 262.191406 221.71875 262.191406 C 211.667969 262.191406 201.714844 260.136719 192.132812 256.082031 C 191.011719 255.613281 189.714844 256.007812 189.058594 257.019531 L 163.308594 296.945312 C 162.929688 297.53125 162.824219 298.246094 163.011719 298.917969 C 163.199219 299.585938 163.664062 300.144531 164.292969 300.453125 C 182.171875 309.296875 202.03125 313.96875 221.71875 313.96875 C 229.019531 313.96875 236.621094 313.289062 244.316406 311.9375 C 245.394531 311.75 246.222656 310.882812 246.351562 309.808594 C 248.914062 287.929688 267.660156 271.433594 289.949219 271.433594 C 296.859375 271.433594 303.890625 273.171875 310.28125 276.464844 C 311.25 276.964844 312.433594 276.78125 313.207031 276.003906 C 333.355469 255.703125 346.035156 229.03125 348.890625 200.894531 C 348.960938 200.203125 348.730469 199.515625 348.257812 199 C 347.78125 198.480469 347.109375 198.1875 346.40625 198.191406 Z M 289.601562 282.480469 C 271.757812 282.480469 257.292969 296.6875 257.292969 314.214844 C 257.292969 331.738281 271.757812 345.945312 289.601562 345.945312 C 307.449219 345.945312 321.914062 331.738281 321.914062 314.214844 C 321.914062 296.6875 307.449219 282.480469 289.601562 282.480469 Z M 289.601562 282.480469"/>
  </g>
  <linearGradient id="linear0" x1="104.043" x2="601.609" y1="253.631" y2="256" gradientTransform="matrix(0.75,0,0,0.75,0,0)" gradientUnits="userSpaceOnUse">
   <stop offset="0" style="stop-color:rgb(72.941176%,9.019608%,30.588235%);stop-opacity:0.996078"/>
   <stop offset="1" style="stop-color:rgb(100%,78.431373%,19.215686%)"/>
  </linearGradient>
  <radialGradient id="radial0" cx="278.385" cy="-30.233" r="225" fx="278.385" fy="-30.233" gradientTransform="matrix(0.583603,1.431179,-0.694478,0.283193,69.199176,-445.99941)" gradientUnits="userSpaceOnUse">
   <stop offset="0" style="stop-color:rgb(21.176471%,48.235294%,94.117647%)"/>
   <stop offset="1" style="stop-color:rgb(81.176471%,26.27451%,26.27451%);stop-opacity:0"/>
  </radialGradient>
 </defs>
 <g>
  <use mask="url(#mask0)" xlink:href="#surface5"/>
  <path style="fill:url(#linear0)" d="M 294.355469 23.25 C 275.242188 23.25 259.75 38.542969 259.75 57.410156 C 259.75 76.277344 275.242188 91.570312 294.355469 91.570312 C 313.472656 91.570312 328.964844 76.277344 328.964844 57.410156 C 328.964844 38.542969 313.472656 23.25 294.355469 23.25 Z M 221.285156 49.988281 C 199.953125 49.992188 178.402344 55.28125 158.953125 64.777344 C 158.261719 65.117188 157.746094 65.730469 157.539062 66.460938 C 157.328125 67.195312 157.445312 67.976562 157.855469 68.621094 L 185.855469 112.507812 C 186.566406 113.625 187.992188 114.066406 189.222656 113.554688 C 199.609375 109.21875 210.398438 107.019531 221.285156 107.019531 C 261.339844 107.019531 296.273438 136.351562 302.554688 175.253906 C 302.765625 176.558594 303.90625 177.519531 305.242188 177.519531 L 358.023438 177.597656 C 358.792969 177.597656 359.527344 177.277344 360.042969 176.714844 C 360.5625 176.152344 360.808594 175.40625 360.738281 174.648438 C 357.894531 145.785156 345.457031 117.941406 325.71875 96.257812 C 324.828125 95.273438 323.339844 95.078125 322.214844 95.792969 C 314.257812 100.871094 305.214844 103.5625 296.082031 103.5625 C 269.433594 103.5625 247.753906 82.273438 247.75 56.109375 C 247.753906 56.097656 247.804688 55.109375 247.804688 55.066406 C 247.804688 53.761719 246.855469 52.640625 245.546875 52.414062 C 237.214844 50.988281 229.054688 49.988281 221.285156 49.988281 Z M 137.140625 78.542969 C 136.574219 78.5625 136.019531 78.757812 135.570312 79.101562 C 112.699219 96.503906 95.503906 120.992188 87.152344 148.050781 C 86.828125 149.109375 87.1875 150.257812 88.070312 150.945312 C 99.5625 159.9375 106.425781 173.785156 106.425781 187.984375 C 106.425781 202.183594 99.558594 216.03125 88.0625 225.027344 C 87.1875 225.710938 86.820312 226.855469 87.148438 227.917969 C 95.433594 254.75 112.433594 279.097656 135.023438 296.460938 C 135.628906 296.929688 136.402344 297.121094 137.160156 296.988281 C 137.917969 296.859375 138.582031 296.417969 138.996094 295.78125 L 167.238281 252 C 167.960938 250.878906 167.75 249.410156 166.738281 248.53125 C 149.011719 233.121094 138.84375 211.050781 138.84375 187.984375 C 138.84375 164.746094 149.121094 142.578125 167.035156 127.160156 C 168.042969 126.289062 168.265625 124.820312 167.546875 123.699219 L 139.539062 79.796875 C 139.128906 79.15625 138.464844 78.714844 137.710938 78.582031 C 137.519531 78.550781 137.332031 78.539062 137.140625 78.542969 Z M 58.667969 153.664062 C 39.105469 153.664062 23.25 169.316406 23.25 188.628906 C 23.25 207.9375 39.105469 223.589844 58.667969 223.589844 C 78.230469 223.589844 94.085938 207.9375 94.085938 188.628906 C 94.085938 169.316406 78.230469 153.664062 58.667969 153.664062 Z M 357.96875 198.785156 L 305.191406 198.957031 C 303.859375 198.957031 302.722656 199.917969 302.511719 201.210938 C 296.144531 239.824219 261.226562 268.941406 221.285156 268.941406 C 210.269531 268.941406 199.359375 266.691406 188.859375 262.246094 C 187.628906 261.730469 186.207031 262.164062 185.484375 263.273438 L 157.257812 307.035156 C 156.847656 307.679688 156.730469 308.464844 156.933594 309.199219 C 157.140625 309.929688 157.648438 310.546875 158.339844 310.886719 C 177.9375 320.578125 199.707031 325.699219 221.285156 325.699219 C 229.289062 325.699219 237.625 324.953125 246.058594 323.472656 C 247.242188 323.269531 248.148438 322.316406 248.289062 321.136719 C 251.101562 297.15625 271.648438 279.070312 296.082031 279.070312 C 303.65625 279.070312 311.363281 280.980469 318.367188 284.585938 C 319.433594 285.136719 320.730469 284.933594 321.574219 284.085938 C 343.664062 261.832031 357.558594 232.59375 360.691406 201.75 C 360.769531 200.992188 360.515625 200.238281 359.996094 199.671875 C 359.476562 199.105469 358.738281 198.78125 357.96875 198.785156 Z M 295.703125 291.183594 C 276.140625 291.183594 260.285156 306.757812 260.285156 325.96875 C 260.285156 345.175781 276.140625 360.75 295.703125 360.75 C 315.261719 360.75 331.121094 345.175781 331.121094 325.96875 C 331.121094 306.757812 315.261719 291.183594 295.703125 291.183594 Z M 295.703125 291.183594"/>
  <path style="fill:url(#radial0)" d="M 294.355469 23.25 C 275.242188 23.25 259.75 38.542969 259.75 57.410156 C 259.75 76.277344 275.242188 91.570312 294.355469 91.570312 C 313.472656 91.570312 328.964844 76.277344 328.964844 57.410156 C 328.964844 38.542969 313.472656 23.25 294.355469 23.25 Z M 221.285156 49.988281 C 199.953125 49.992188 178.402344 55.28125 158.953125 64.777344 C 158.261719 65.117188 157.746094 65.730469 157.539062 66.460938 C 157.328125 67.195312 157.445312 67.976562 157.855469 68.621094 L 185.855469 112.507812 C 186.566406 113.625 187.992188 114.066406 189.222656 113.554688 C 199.609375 109.21875 210.398438 107.019531 221.285156 107.019531 C 261.339844 107.019531 296.273438 136.351562 302.554688 175.253906 C 302.765625 176.558594 303.90625 177.519531 305.242188 177.519531 L 358.023438 177.597656 C 358.792969 177.597656 359.527344 177.277344 360.042969 176.714844 C 360.5625 176.152344 360.808594 175.40625 360.738281 174.648438 C 357.894531 145.785156 345.457031 117.941406 325.71875 96.257812 C 324.828125 95.273438 323.339844 95.078125 322.214844 95.792969 C 314.257812 100.871094 305.214844 103.5625 296.082031 103.5625 C 269.433594 103.5625 247.753906 82.273438 247.75 56.109375 C 247.753906 56.097656 247.804688 55.109375 247.804688 55.066406 C 247.804688 53.761719 246.855469 52.640625 245.546875 52.414062 C 237.214844 50.988281 229.054688 49.988281 221.285156 49.988281 Z M 137.140625 78.542969 C 136.574219 78.5625 136.019531 78.757812 135.570312 79.101562 C 112.699219 96.503906 95.503906 120.992188 87.152344 148.050781 C 86.828125 149.109375 87.1875 150.257812 88.070312 150.945312 C 99.5625 159.9375 106.425781 173.785156 106.425781 187.984375 C 106.425781 202.183594 99.558594 216.03125 88.0625 225.027344 C 87.1875 225.710938 86.820312 226.855469 87.148438 227.917969 C 95.433594 254.75 112.433594 279.097656 135.023438 296.460938 C 135.628906 296.929688 136.402344 297.121094 137.160156 296.988281 C 137.917969 296.859375 138.582031 296.417969 138.996094 295.78125 L 167.238281 252 C 167.960938 250.878906 167.75 249.410156 166.738281 248.53125 C 149.011719 233.121094 138.84375 211.050781 138.84375 187.984375 C 138.84375 164.746094 149.121094 142.578125 167.035156 127.160156 C 168.042969 126.289062 168.265625 124.820312 167.546875 123.699219 L 139.539062 79.796875 C 139.128906 79.15625 138.464844 78.714844 137.710938 78.582031 C 137.519531 78.550781 137.332031 78.539062 137.140625 78.542969 Z M 58.667969 153.664062 C 39.105469 153.664062 23.25 169.316406 23.25 188.628906 C 23.25 207.9375 39.105469 223.589844 58.667969 223.589844 C 78.230469 223.589844 94.085938 207.9375 94.085938 188.628906 C 94.085938 169.316406 78.230469 153.664062 58.667969 153.664062 Z M 357.96875 198.785156 L 305.191406 198.957031 C 303.859375 198.957031 302.722656 199.917969 302.511719 201.210938 C 296.144531 239.824219 261.226562 268.941406 221.285156 268.941406 C 210.269531 268.941406 199.359375 266.691406 188.859375 262.246094 C 187.628906 261.730469 186.207031 262.164062 185.484375 263.273438 L 157.257812 307.035156 C 156.847656 307.679688 156.730469 308.464844 156.933594 309.199219 C 157.140625 309.929688 157.648438 310.546875 158.339844 310.886719 C 177.9375 320.578125 199.707031 325.699219 221.285156 325.699219 C 229.289062 325.699219 237.625 324.953125 246.058594 323.472656 C 247.242188 323.269531 248.148438 322.316406 248.289062 321.136719 C 251.101562 297.15625 271.648438 279.070312 296.082031 279.070312 C 303.65625 279.070312 311.363281 280.980469 318.367188 284.585938 C 319.433594 285.136719 320.730469 284.933594 321.574219 284.085938 C 343.664062 261.832031 357.558594 232.59375 360.691406 201.75 C 360.769531 200.992188 360.515625 200.238281 359.996094 199.671875 C 359.476562 199.105469 358.738281 198.78125 357.96875 198.785156 Z M 295.703125 291.183594 C 276.140625 291.183594 260.285156 306.757812 260.285156 325.96875 C 260.285156 345.175781 276.140625 360.75 295.703125 360.75 C 315.261719 360.75 331.121094 345.175781 331.121094 325.96875 C 331.121094 306.757812 315.261719 291.183594 295.703125 291.183594 Z M 295.703125 291.183594"/>
 </g>
</svg>
