<svg xmlns="http://www.w3.org/2000/svg" xmlns:xlink="http://www.w3.org/1999/xlink" width="512" height="512" version="1.1" viewBox="0 0 135.47 135.47">
 <defs>
  <linearGradient id="linearGradient4211" x1="32.987" x2="763.265" y1="976.668" y2="390.876" gradientTransform="matrix(0.92592622,0,0,0.68040007,18.962845,-334.41294)" gradientUnits="userSpaceOnUse" xlink:href="#linearGradient4205"/>
  <linearGradient id="linearGradient4205">
   <stop style="stop-color:#2980b9" offset="0"/>
   <stop style="stop-color:#ba174e;stop-opacity:0.99607843" offset="1"/>
  </linearGradient>
 </defs>
 <g transform="translate(0,-161.53336)">
  <g transform="matrix(0.26458333,0,0,0.26458333,-2.1745826e-6,161.53326)">
   <rect style="fill:#272727" width="90.202" height="77.409" x="210.9" y="357.52" ry="0"/>
   <path style="fill:#181818" d="m 210.76696,358.09369 90.46603,0 0,76.62275 z"/>
   <rect width="469.929" height="295.742" x="21.04" y="62.6" rx="22.737" ry="22.737"/>
   <rect style="fill:url(#linearGradient4211)" width="435.185" height="247.109" x="38.41" y="83.88" rx="17.409" ry="17.409"/>
   <rect style="fill:#1d1d1d" width="171.91" height="16.07" x="170.04" y="433.33" rx="6.219" ry="6.219"/>
   <path style="opacity:0.3;fill:#ffffff" d="m 43.773438,62.597656 c -5.960966,0 -11.371048,2.272278 -15.417969,6 l 455.289061,0 c -4.04692,-3.727722 -9.457,-6 -15.41797,-6 l -424.453122,0 z"/>
   <path style="opacity:0.3;fill:#ffffff" d="m 28.355469,352.33984 c 4.046922,3.72773 9.457003,6 15.417969,6 l 424.453122,0 c 5.96097,0 11.37105,-2.27227 15.41797,-6 l -455.289061,0 z"/>
  </g>
  <path style="opacity:0.3;fill-rule:evenodd" d="m 70.011684,206.16578 c 0,0 6.689927,24.84494 -17.658306,23.87917 -8.169613,-0.32404 -10.203062,-8.37166 -27.801143,-10.87394 l 0,17.97468 c 0,2.07602 1.600744,3.74719 3.588998,3.74719 l 82.536927,0 c 1.98824,0 3.58899,-1.67117 3.58899,-3.74719 l 0,-5.74424 C 97.839636,222.6426 100.79072,202.56294 70.011684,206.16578 Z"/>
  <path style="fill:#ffffff;fill-rule:evenodd" d="m 68.418153,204.48699 c 0,0 6.622876,24.21058 -17.481336,23.26947 -8.087738,-0.31577 -17.663931,-13.2064 -27.52252,-10.5963 l 0,17.51573 c 0,2.02301 1.584701,3.65151 3.553028,3.65151 l 81.709725,0 c 1.96832,0 3.55303,-1.6285 3.55303,-3.65151 l 0,-5.59757 c -9.57242,-3.60789 -13.341365,-28.10218 -43.811927,-24.59133 z"/>
 </g>
</svg>
