<svg xmlns="http://www.w3.org/2000/svg" width="384pt" height="384pt" version="1.1" viewBox="0 0 384 384">
 <g>
  <path style="fill:rgb(0%,0%,0%);fill-opacity:0.0980392" d="M 348.742188 132.574219 C 346.738281 127.714844 344.480469 122.953125 341.960938 118.292969 C 340.546875 115.652344 339.042969 113.03125 337.453125 110.460938 C 330.617188 99.378906 322.28125 88.910156 312.4375 79.066406 C 280.222656 46.851562 241.316406 30.738281 195.746094 30.738281 C 150.175781 30.738281 111.285156 46.851562 79.070312 79.066406 C 46.855469 111.28125 30.738281 150.175781 30.738281 195.742188 C 30.738281 241.3125 46.855469 280.222656 79.070312 312.4375 C 111.285156 344.652344 150.175781 360.75 195.746094 360.75 C 241.316406 360.75 280.222656 344.652344 312.4375 312.4375 C 330.179688 294.675781 343.046875 274.890625 351.015625 253.09375 C 357.5 235.316406 360.753906 216.210938 360.753906 195.742188 C 360.753906 180.046875 358.847656 165.136719 355.019531 151.011719 C 354.582031 149.421875 354.128906 147.832031 353.65625 146.257812 C 352.222656 141.609375 350.578125 137.046875 348.742188 132.574219 Z M 348.742188 132.574219"/>
  <path style="fill:rgb(14.117647%,36.470588%,76.862745%)" d="M 263.984375 41.835938 C 260.945312 40.316406 257.746094 38.8125 254.460938 37.398438 C 251.453125 36.085938 248.464844 34.878906 245.40625 33.761719 C 230.6875 28.253906 215.953125 24.898438 201.199219 23.746094 C 176.9375 21.789062 152.625 25.632812 128.171875 35.28125 C 119.972656 38.53125 112.210938 42.238281 104.886719 46.433594 C 90.449219 54.71875 77.757812 64.839844 66.957031 76.742188 C 54.929688 89.933594 45.078125 105.378906 37.398438 123.082031 C 30.320312 139.390625 25.914062 155.75 24.167969 171.902344 C 24.011719 173.457031 23.871094 174.90625 23.746094 176.359375 C 22.453125 192.300781 23.679688 208.085938 27.332031 223.902344 C 29.324219 232.484375 31.964844 240.945312 35.285156 249.371094 C 44.96875 273.824219 58.792969 294.257812 76.726562 310.582031 C 87.722656 320.597656 100.21875 329.058594 114.238281 336.035156 C 114.292969 336.050781 114.328125 336.070312 114.363281 336.085938 C 115.445312 336.628906 116.492188 337.136719 117.386719 337.539062 C 119.097656 338.359375 120.617188 339.058594 122.140625 339.722656 C 122.523438 339.878906 122.804688 340.019531 123.101562 340.140625 C 126.40625 341.574219 129.707031 342.886719 132.855469 344.058594 C 133.675781 344.355469 134.429688 344.632812 135.160156 344.894531 C 141.820312 347.238281 148.515625 349.144531 155.054688 350.59375 C 157.816406 351.1875 160.578125 351.730469 163.269531 352.183594 C 163.601562 352.253906 163.949219 352.289062 164.214844 352.34375 C 168.285156 352.988281 172.324219 353.480469 176.359375 353.8125 C 200.761719 355.714844 225.023438 351.871094 249.371094 342.257812 C 257.886719 338.902344 265.910156 335.039062 273.425781 330.667969 C 285.695312 323.554688 296.65625 315.109375 306.320312 305.324219 C 307.773438 303.855469 309.1875 302.351562 310.605469 300.8125 C 313.539062 297.578125 316.371094 294.1875 319.082031 290.640625 C 326.089844 281.496094 332.207031 271.378906 337.46875 260.332031 C 338.378906 258.40625 339.269531 256.449219 340.144531 254.441406 C 340.230469 254.230469 340.335938 254.003906 340.421875 253.792969 C 340.476562 253.6875 340.511719 253.582031 340.5625 253.476562 C 341.542969 251.171875 342.46875 248.847656 343.394531 246.488281 C 347.46875 235.773438 350.4375 224.933594 352.257812 213.957031 C 352.503906 212.417969 352.746094 210.757812 352.992188 209.097656 C 353.304688 206.527344 353.601562 203.90625 353.8125 201.195312 C 353.847656 200.691406 353.898438 200.097656 353.953125 199.464844 C 354.40625 192.71875 354.40625 185.9375 353.988281 179.050781 C 353.832031 176.8125 353.636719 174.539062 353.394531 172.199219 C 353.324219 171.550781 353.234375 170.851562 353.148438 170.152344 C 352.449219 164.421875 351.417969 158.667969 350.019531 152.777344 C 348.113281 144.6875 345.527344 136.4375 342.257812 128.167969 C 332.628906 103.785156 318.835938 83.402344 300.796875 66.953125 C 294.242188 60.976562 287.042969 55.488281 279.28125 50.542969 C 274.4375 47.429688 269.386719 44.5625 263.984375 41.835938 Z M 263.984375 41.835938"/>
  <path style="fill:none;stroke-width:25.986183;stroke-linecap:round;stroke-linejoin:round;stroke:rgb(100%,100%,100%)" d="M 432.713542 251.25 C 432.713542 257.0625 432.479167 262.776042 432.015625 268.401042 C 428.333333 311.239583 410.875 348.25 379.572917 379.546875 C 344.151042 414.973958 301.385417 432.6875 251.276042 432.6875 C 201.166667 432.6875 158.401042 414.973958 122.973958 379.546875 C 91.723958 348.296875 74.244792 311.333333 70.5625 268.401042 C 70.072917 262.947917 69.838542 257.145833 69.838542 251.25 C 69.838542 201.140625 87.552083 158.375 122.973958 122.947917 C 158.401042 87.526042 201.166667 69.8125 251.276042 69.8125 C 301.385417 69.8125 344.151042 87.526042 379.572917 122.947917 C 415 158.375 432.713542 201.140625 432.713542 251.25 Z M 432.713542 251.25" transform="matrix(0.75,0,0,0.75,0,0)"/>
  <path style="fill:rgb(56.862745%,69.019608%,90.980392%)" d="M 324.011719 201.300781 C 324.359375 197.082031 324.535156 192.796875 324.535156 188.4375 C 324.535156 150.855469 311.25 118.78125 284.679688 92.210938 C 258.113281 65.644531 226.039062 52.359375 188.457031 52.359375 C 150.875 52.359375 118.800781 65.644531 92.230469 92.210938 C 65.664062 118.78125 52.378906 150.855469 52.378906 188.4375 C 52.378906 192.859375 52.554688 197.210938 52.921875 201.300781 L 103.769531 201.300781 L 126.140625 277.164062 L 163.546875 100.269531 L 194.3125 233.605469 L 220.183594 100.269531 L 250.597656 201.300781 Z M 324.011719 201.300781"/>
  <path style="fill:rgb(21.176471%,48.235294%,94.117647%);stroke-width:25.986183;stroke-linecap:round;stroke-linejoin:round;stroke:rgb(100%,100%,100%)" d="M 432.015625 268.401042 C 432.479167 262.776042 432.713542 257.0625 432.713542 251.25 C 432.713542 201.140625 415 158.375 379.572917 122.947917 C 344.151042 87.526042 301.385417 69.8125 251.276042 69.8125 C 201.166667 69.8125 158.401042 87.526042 122.973958 122.947917 C 87.552083 158.375 69.838542 201.140625 69.838542 251.25 C 69.838542 257.145833 70.072917 262.947917 70.5625 268.401042 L 138.359375 268.401042 L 168.1875 369.552083 L 218.0625 133.692708 L 259.083333 311.473958 L 293.578125 133.692708 L 334.130208 268.401042 Z M 432.015625 268.401042" transform="matrix(0.75,0,0,0.75,0,0)"/>
  <path style="fill:rgb(32.941176%,54.117647%,90.196078%)" d="M 324.011719 201.300781 L 250.597656 201.300781 L 220.183594 100.269531 L 194.3125 233.605469 L 163.546875 100.269531 L 126.140625 277.164062 L 103.769531 201.300781 L 52.921875 201.300781 C 55.683594 233.5 68.792969 261.222656 92.230469 284.660156 C 118.800781 311.230469 150.875 324.515625 188.457031 324.515625 C 226.039062 324.515625 258.113281 311.230469 284.679688 284.660156 C 308.15625 261.1875 321.25 233.429688 324.011719 201.300781 Z M 324.011719 201.300781"/>
  <path style="fill:rgb(14.117647%,36.470588%,76.862745%);stroke-width:25.986;stroke-linecap:round;stroke-linejoin:round;stroke:rgb(100%,100%,100%)" d="M 432.015625 268.401042 L 334.130208 268.401042 L 293.578125 133.692708 L 259.083333 311.473958 L 218.0625 133.692708 L 168.1875 369.552083 L 138.359375 268.401042 L 70.5625 268.401042 C 74.244792 311.333333 91.723958 348.296875 122.973958 379.546875 C 158.401042 414.973958 201.166667 432.6875 251.276042 432.6875 C 301.385417 432.6875 344.151042 414.973958 379.572917 379.546875 C 410.875 348.25 428.333333 311.239583 432.015625 268.401042 Z M 432.015625 268.401042" transform="matrix(0.75,0,0,0.75,0,0)"/>
 </g>
</svg>
