<?xml version="1.0" encoding="UTF-8" standalone="no"?>
<!-- Created with Inkscape (http://www.inkscape.org/) -->

<svg
   xmlns:dc="http://purl.org/dc/elements/1.1/"
   xmlns:cc="http://creativecommons.org/ns#"
   xmlns:rdf="http://www.w3.org/1999/02/22-rdf-syntax-ns#"
   xmlns:svg="http://www.w3.org/2000/svg"
   xmlns="http://www.w3.org/2000/svg"
   xmlns:xlink="http://www.w3.org/1999/xlink"
   xmlns:sodipodi="http://sodipodi.sourceforge.net/DTD/sodipodi-0.dtd"
   xmlns:inkscape="http://www.inkscape.org/namespaces/inkscape"
   id="svg2"
   version="1.1"
   inkscape:version="0.91+devel r14080 custom"
   width="512"
   height="512"
   sodipodi:docname="xfce4-backdrop.svg"
   viewBox="0 0 512 512">
  <metadata
     id="metadata8">
    <rdf:RDF>
      <cc:Work
         rdf:about="">
        <dc:format>image/svg+xml</dc:format>
        <dc:type
           rdf:resource="http://purl.org/dc/dcmitype/StillImage" />
        <dc:title></dc:title>
      </cc:Work>
    </rdf:RDF>
  </metadata>
  <defs
     id="defs6">
    <linearGradient
       gradientTransform="matrix(0.92592622,0,0,0.68040007,18.962864,-334.41292)"
       inkscape:collect="always"
       xlink:href="#linearGradient4205"
       id="linearGradient4211"
       x1="32.986973"
       y1="976.66827"
       x2="763.26489"
       y2="390.87585"
       gradientUnits="userSpaceOnUse" />
    <linearGradient
       inkscape:collect="always"
       id="linearGradient4205">
      <stop
         style="stop-color:#2980b9;stop-opacity:1;"
         offset="0"
         id="stop4207" />
      <stop
         style="stop-color:#ba174e;stop-opacity:0.99607843"
         offset="1"
         id="stop4209" />
    </linearGradient>
  </defs>
  <sodipodi:namedview
     pagecolor="#ffffff"
     bordercolor="#666666"
     borderopacity="1"
     objecttolerance="10"
     gridtolerance="10"
     guidetolerance="10"
     inkscape:pageopacity="0"
     inkscape:pageshadow="2"
     inkscape:window-width="1920"
     inkscape:window-height="1008"
     id="namedview4"
     showgrid="false"
     inkscape:zoom="2.2842864"
     inkscape:cx="354.02201"
     inkscape:cy="239.93526"
     inkscape:window-x="0"
     inkscape:window-y="32"
     inkscape:window-maximized="1"
     inkscape:current-layer="svg2" />
  <rect
     ry="0"
     y="357.5228"
     x="210.89912"
     height="77.408791"
     width="90.201744"
     id="rect4147"
     style="opacity:1;fill:#272727;fill-opacity:1;stroke:none;stroke-width:5.72569084;stroke-linecap:round;stroke-miterlimit:4;stroke-dasharray:22.90276308, 22.90276308;stroke-dashoffset:42;stroke-opacity:1" />
  <path
     id="rect4147-1"
     d="m 210.76698,358.09371 90.46603,0 0,76.62275 z"
     style="opacity:1;fill:#181818;fill-opacity:1;stroke:none;stroke-width:5.70488453;stroke-linecap:round;stroke-miterlimit:4;stroke-dasharray:22.81953984, 22.81953984;stroke-dashoffset:42;stroke-opacity:1"
     inkscape:connector-curvature="0" />
  <rect
     style="opacity:1;fill:#000000;fill-opacity:1;stroke:none;stroke-width:0;stroke-miterlimit:4;stroke-dasharray:none;stroke-opacity:1"
     id="rect4169"
     width="469.92941"
     height="295.74158"
     x="21.035299"
     y="62.597874"
     rx="22.737274"
     ry="22.737274" />
  <rect
     style="fill:url(#linearGradient4211);fill-opacity:1;stroke:none;stroke-width:8.47843456"
     id="rect907"
     width="435.18533"
     height="247.10889"
     x="38.407341"
     y="83.877548"
     rx="17.408871"
     ry="17.408871" />
  <rect
     style="opacity:1;fill:#1d1d1d;fill-opacity:1;stroke:none;stroke-width:0;stroke-miterlimit:4;stroke-dasharray:none;stroke-opacity:1"
     id="rect4186"
     width="171.9104"
     height="16.070213"
     x="170.0448"
     y="433.33286"
     rx="6.2192101"
     ry="6.2192101" />
  <path
     style="opacity:0.3;fill:#ffffff;fill-opacity:1;stroke:none;stroke-width:0;stroke-miterlimit:4;stroke-dasharray:none;stroke-opacity:1"
     d="M 43.773438 62.597656 C 37.812472 62.597656 32.40239 64.869934 28.355469 68.597656 L 483.64453 68.597656 C 479.59761 64.869934 474.18753 62.597656 468.22656 62.597656 L 43.773438 62.597656 z "
     id="rect4169-5" />
  <path
     style="opacity:0.3;fill:#ffffff;fill-opacity:1;stroke:none;stroke-width:0;stroke-miterlimit:4;stroke-dasharray:none;stroke-opacity:1"
     d="M 28.355469 352.33984 C 32.40239 356.06756 37.812472 358.33984 43.773438 358.33984 L 468.22656 358.33984 C 474.18753 358.33984 479.59761 356.06756 483.64453 352.33984 L 28.355469 352.33984 z "
     id="rect4169-7" />
  <path
     style="fill:#000000;fill-opacity:1;stroke-width:13.52937889;opacity:0.4"
     inkscape:connector-curvature="0"
     id="path4156-5"
     d="m 356.70565,278.54109 0,-103.31575 c 0,-9.51386 -7.70566,-17.21885 -17.21924,-17.21885 l -154.97295,0 c -9.51358,0 -17.21911,7.70499 -17.21911,17.21885 l 0,103.31575 c 0,9.51385 7.70553,17.21884 17.21911,17.21884 l 154.97295,0 c 9.51358,0 17.21924,-7.70499 17.21924,-17.21884 z m -124.83936,-47.35283 21.52402,25.87223 30.13372,-38.78737 38.74313,51.65787 -120.53445,0 30.13358,-38.74273 z" />
  <path
     style="fill:#ffffff;fill-opacity:1;stroke-width:13.52937889"
     inkscape:connector-curvature="0"
     id="path4156"
     d="m 350.70565,272.54109 0,-103.31575 c 0,-9.51386 -7.70566,-17.21885 -17.21924,-17.21885 l -154.97295,0 c -9.51358,0 -17.21911,7.70499 -17.21911,17.21885 l 0,103.31575 c 0,9.51385 7.70553,17.21884 17.21911,17.21884 l 154.97295,0 c 9.51358,0 17.21924,-7.70499 17.21924,-17.21884 z m -124.83936,-47.35283 21.52402,25.87223 30.13372,-38.78737 38.74313,51.65787 -120.53445,0 30.13358,-38.74273 z" />
</svg>
