<svg xmlns="http://www.w3.org/2000/svg" width="512" height="512" version="1.1" viewBox="0 0 512 512" xml:space="preserve">
 <g transform="matrix(1.25,0,0,-1.25,0,512)">
  <g transform="matrix(0.7234644,0,0,0.7234644,-34.605998,21.311566)">
   <circle style="fill:#ffffff" cx="330.916" cy="-253.625" r="248.803" transform="scale(1,-1)"/>
   <g style="fill:#d41a1a" transform="matrix(0.8261303,0,0,0.8261303,403.72353,339.52918)">
    <path style="fill:#d41a1a;fill-rule:evenodd" d="m 0,0 c 9.067,-66.741 -61.878,-98.854 -130.405,-82.552 -37.209,8.852 -60.527,47.425 -47.855,89.73 C -117.202,28.167 -65.639,-14.318 0,0"/>
   </g>
   <g transform="matrix(0.8261303,0,0,0.8261303,418.05333,333.62928)">
    <path d="m 0,0 c -2.583,36.064 -13.782,68.898 -27.839,100.917 -1.413,3.225 -7.124,2.153 -11.599,2.319 8.728,-32.798 28.519,-68.27 28.999,-105.556 0.763,-59.234 -43.368,-85.847 -98.935,-88.35 -55.568,2.503 -99.697,29.116 -98.934,88.35 0.48,37.286 20.27,72.758 28.999,105.556 -4.475,-0.166 -10.187,0.906 -11.6,-2.319 C -204.965,68.898 -216.165,36.064 -218.747,0 c -0.552,-7.699 -0.915,-17.338 0,-25.519 6.074,-54.317 61.671,-59.655 88.156,-92.798 15.767,-19.726 16.548,-160.154 9.279,-182.112 -5.589,-16.893 -28.436,-21.778 -47.558,-24.36 -6.972,-0.942 -18.38,1.242 -22.039,-6.961 19.547,-4.205 50.768,-5.571 81.535,-5.45 30.767,-0.121 61.988,1.245 81.535,5.45 -3.658,8.203 -15.067,6.019 -22.039,6.961 -19.122,2.582 -41.968,7.467 -47.558,24.36 -7.269,21.958 -6.487,162.386 9.28,182.112 C -61.672,-85.174 -6.074,-79.836 0,-25.519 0.914,-17.338 0.552,-7.699 0,0"/>
   </g>
   <path style="opacity:0.3" d="M 480.75 248.97461 A 225 225 0 0 1 256 469 A 225 225 0 0 1 31.25 251.02539 A 225 225 0 0 0 31 256 A 225 225 0 0 0 256 481 A 225 225 0 0 0 481 256 A 225 225 0 0 0 480.75 248.97461 z" transform="matrix(1.1057904,0,0,-1.1057904,47.833726,536.70704)"/>
   <path style="opacity:0.3;fill:#ffffff" d="M 256 31 A 225 225 0 0 0 31 256 A 225 225 0 0 0 31.207031 261.85352 A 225 225 0 0 1 256 41 A 225 225 0 0 1 480.79297 260.14648 A 225 225 0 0 0 481 256 A 225 225 0 0 0 256 31 z" transform="matrix(1.1057904,0,0,-1.1057904,47.833726,536.70704)"/>
  </g>
 </g>
</svg>
