<svg xmlns="http://www.w3.org/2000/svg" width="512" height="512" version="1.1">
 <defs>
  <filter id="filter4183" style="color-interpolation-filters:sRGB" width="1.072" height="1.072" x="-.04" y="-.04">
   <feGaussianBlur stdDeviation="3.746"/>
  </filter>
 </defs>
 <g transform="matrix(1.25,0,0,-1.25,-3.6566655e-7,512.00001)">
  <g transform="matrix(0.7234644,0,0,0.7234644,-34.605998,21.311566)">
   <circle style="fill:#fcfeff" cx="330.916" cy="-253.625" r="248.803" transform="scale(1,-1)"/>
   <g style="fill:#d41a1a" transform="matrix(0.8261303,0,0,0.8261303,403.72353,339.52918)">
    <path style="fill:#d41a1a;fill-rule:evenodd" d="m 0,0 c 9.067,-66.741 -61.878,-98.854 -130.405,-82.552 -37.209,8.852 -60.527,47.425 -47.855,89.73 C -117.202,28.167 -65.639,-14.318 0,0"/>
   </g>
   <g transform="matrix(0.8261303,0,0,0.8261303,418.05333,333.62928)">
    <path d="m 0,0 c -2.583,36.064 -13.782,68.898 -27.839,100.917 -1.413,3.225 -7.124,2.153 -11.599,2.319 8.728,-32.798 28.519,-68.27 28.999,-105.556 0.763,-59.234 -43.368,-85.847 -98.935,-88.35 -55.568,2.503 -99.697,29.116 -98.934,88.35 0.48,37.286 20.27,72.758 28.999,105.556 -4.475,-0.166 -10.187,0.906 -11.6,-2.319 C -204.965,68.898 -216.165,36.064 -218.747,0 c -0.552,-7.699 -0.915,-17.338 0,-25.519 6.074,-54.317 61.671,-59.655 88.156,-92.798 15.767,-19.726 16.548,-160.154 9.279,-182.112 -5.589,-16.893 -28.436,-21.778 -47.558,-24.36 -6.972,-0.942 -18.38,1.242 -22.039,-6.961 19.547,-4.205 50.768,-5.571 81.535,-5.45 30.767,-0.121 61.988,1.245 81.535,5.45 -3.658,8.203 -15.067,6.019 -22.039,6.961 -19.122,2.582 -41.968,7.467 -47.558,24.36 -7.269,21.958 -6.487,162.386 9.28,182.112 C -61.672,-85.174 -6.074,-79.836 0,-25.519 0.914,-17.338 0.552,-7.699 0,0"/>
   </g>
   <path style="opacity:0.3" d="M 480.75,248.97461 A 225,225 0 0 1 256,469 225,225 0 0 1 31.25,251.02539 225,225 0 0 0 31,256 225,225 0 0 0 256,481 225,225 0 0 0 481,256 a 225,225 0 0 0 -0.25,-7.02539 z" transform="matrix(1.1057904,0,0,-1.1057904,47.833726,536.70704)"/>
   <path style="opacity:0.3;fill:#ffffff" d="M 256,31 A 225,225 0 0 0 31,256 225,225 0 0 0 31.207031,261.85352 225,225 0 0 1 256,41 225,225 0 0 1 480.79297,260.14648 225,225 0 0 0 481,256 225,225 0 0 0 256,31 Z" transform="matrix(1.1057904,0,0,-1.1057904,47.833726,536.70704)"/>
  </g>
 </g>
 <g transform="translate(11.175091,13.71956)">
  <ellipse style="opacity:0.6;fill:#303030;filter:url(#filter4183)" cx="364.475" cy="362.847" rx="124.736" ry="124.964"/>
  <circle style="fill:#006ab9" cx="364.475" cy="362.847" r="123.171"/>
  <g style="opacity:0.3" transform="translate(-145.43625,-45.821988)">
   <rect style="fill-rule:evenodd" width="25.654" height="171.59" x="548.71" y="326.87" ry="14.58"/>
   <rect style="fill-rule:evenodd" width="25.654" height="171.59" x="501.13" y="326.87" ry="14.58"/>
   <rect style="fill-rule:evenodd" width="25.654" height="171.59" x="453.45" y="326.87" ry="14.58"/>
  </g>
  <g transform="matrix(0.38131159,0,0,0.38131159,301.18978,209.80581)">
   <rect style="fill:#ffffff;fill-rule:evenodd" width="67.279" height="450" x="256.36" y="176.36" ry="38.236"/>
   <ellipse style="opacity:0.3" cx="292.669" cy="315.488" rx="59.954" ry="59.954"/>
   <ellipse style="fill:#d41a1a" cx="292.669" cy="305.488" rx="59.954" ry="59.954"/>
   <rect style="fill:#ffffff;fill-rule:evenodd" width="67.279" height="450" x="131.57" y="176.36" ry="38.236"/>
   <ellipse style="opacity:0.3" cx="164.282" cy="446.511" rx="59.954" ry="59.954"/>
   <ellipse style="fill:#d41a1a" cx="164.282" cy="436.511" rx="59.954" ry="59.954"/>
   <rect style="fill:#ffffff;fill-rule:evenodd" width="67.279" height="450" x="6.55" y="176.36" ry="38.236"/>
   <ellipse style="opacity:0.3" cx="39.263" cy="277.791" rx="59.954" ry="59.954"/>
   <ellipse style="fill:#d41a1a" cx="39.263" cy="267.791" rx="59.954" ry="59.954"/>
  </g>
 </g>
 <path style="opacity:0.1" d="M 256 31 A 225 225 0 0 0 31 256 A 225 225 0 0 0 31.125 259.51172 A 225 225 0 0 1 256 37 A 225 225 0 0 1 480.875 258.48828 A 225 225 0 0 0 481 256 A 225 225 0 0 0 256 31 z"/>
</svg>
