<?xml version="1.0" encoding="UTF-8" standalone="no"?>
<!-- Created with Inkscape (http://www.inkscape.org/) -->

<svg
   xmlns:dc="http://purl.org/dc/elements/1.1/"
   xmlns:cc="http://creativecommons.org/ns#"
   xmlns:rdf="http://www.w3.org/1999/02/22-rdf-syntax-ns#"
   xmlns:svg="http://www.w3.org/2000/svg"
   xmlns="http://www.w3.org/2000/svg"
   xmlns:sodipodi="http://sodipodi.sourceforge.net/DTD/sodipodi-0.dtd"
   xmlns:inkscape="http://www.inkscape.org/namespaces/inkscape"
   id="svg3057"
   version="1.1"
   inkscape:version="0.91 r"
   width="513"
   height="513"
   sodipodi:docname="yakuake.svg">
  <metadata
     id="metadata3063">
    <rdf:RDF>
      <cc:Work
         rdf:about="">
        <dc:format>image/svg+xml</dc:format>
        <dc:type
           rdf:resource="http://purl.org/dc/dcmitype/StillImage" />
        <dc:title />
      </cc:Work>
    </rdf:RDF>
  </metadata>
  <defs
     id="defs3061" />
  <sodipodi:namedview
     pagecolor="#ffffff"
     bordercolor="#666666"
     borderopacity="1"
     objecttolerance="10"
     gridtolerance="10"
     guidetolerance="10"
     inkscape:pageopacity="0"
     inkscape:pageshadow="2"
     inkscape:window-width="1215"
     inkscape:window-height="674"
     id="namedview3059"
     showgrid="false"
     inkscape:zoom="0.65059338"
     inkscape:cx="117.63285"
     inkscape:cy="217.94534"
     inkscape:window-x="15"
     inkscape:window-y="39"
     inkscape:window-maximized="0"
     inkscape:current-layer="svg3057" />
  <rect
     style="fill:#e6e6e6;fill-opacity:1;fill-rule:evenodd;stroke:none"
     id="rect2982"
     width="473.41397"
     height="402.70929"
     x="19.981771"
     y="58.030716" />
  <rect
     style="fill:#4d94a6;fill-opacity:1;fill-rule:evenodd;stroke:none"
     id="rect3752"
     width="413.46872"
     height="339.68991"
     x="50.259968"
     y="88.160713" />
  <path
     style="fill:#ececec;fill-opacity:1;fill-rule:nonzero;stroke:none"
     d="m 99.299812,190.47823 0.45149,-10.0199 6.916758,-2.22024 c 3.80422,-1.22114 8.30011,-2.80816 9.99088,-3.52673 1.69076,-0.71857 5.49498,-2.13778 8.45382,-3.15379 2.95884,-1.01602 6.76306,-2.44491 8.45382,-3.17532 1.69076,-0.7304 5.44794,-1.90281 8.34927,-2.60534 6.34362,-1.53606 7.7578,-4.34253 2.87901,-5.71345 -1.94864,-0.54757 -4.92634,-1.59094 -6.6171,-2.3186 -1.69077,-0.72767 -7.22418,-2.52689 -12.29647,-3.99825 -5.07229,-1.47137 -9.91403,-3.15286 -10.75941,-3.73664 -0.84538,-0.58379 -4.82252,-2.00465 -8.83809,-3.15748 l -7.301018,-2.09604 0,-10.3909 0,-10.39089 4.226908,1.69549 c 7.225,2.89807 10.19292,4.01403 15.75485,5.9239 2.95883,1.01601 6.76305,2.41996 8.45382,3.11987 6.85647,2.83833 28.28359,10.15742 33.95938,11.94626 6.74384,2.12545 9.37404,3.25498 6.93598,2.63028 -1.59414,-0.40845 -4.8397,-2.1754 3.21821,0.74829 2.23747,0.81183 2.76671,1.46896 2.76671,11.99474 l 0,11.99475 -9.60662,3.26454 c -5.28364,1.7955 -15.48586,5.43283 -22.67161,8.08296 -7.18575,2.65013 -19.83909,7.13681 -28.11854,9.9704 l -15.053538,5.15198 z"
     id="path3754"
     inkscape:connector-curvature="0"
     sodipodi:nodetypes="ccsssssssssscccssssssscssscc" />
  <path
     style="fill:#ececec;fill-opacity:1;fill-rule:nonzero;stroke:none"
     d="m 192.74334,207.67844 0,-9.99088 40.73204,0 40.73205,0 0,9.99088 0,9.99088 -40.73205,0 -40.73204,0 0,-9.99088 z"
     id="path3756"
     inkscape:connector-curvature="0" />
</svg>
