<svg xmlns="http://www.w3.org/2000/svg" width="18" height="18" version="1.1">
 <defs>
  <style id="current-color-scheme" type="text/css">
   .ColorScheme-Text { color:#eeeeec; } .ColorScheme-Highlight { color:#367bf0; } .ColorScheme-NeutralText { color:#ffcc44; } .ColorScheme-PositiveText { color:#3db47e; } .ColorScheme-NegativeText { color:#dd4747; }
  </style>
 </defs>
 <g transform="translate(1,1)">
  <path style="fill:currentColor" class="ColorScheme-Text" d="M 2,1 V 2 H 1 V 4 H 2 V 7 H 1 V 9 H 2 V 12 H 1 V 14 H 2 V 15 H 4 V 14 H 7 V 15 H 9 V 14 H 12 V 15 H 14 V 14 H 15 V 12 H 14 V 9 H 15 V 7 H 14 V 4 H 15 V 2 H 14 V 1 H 12 V 2 H 9 V 1 H 7 V 2 H 4 V 1 Z M 4,4 H 7 V 7 H 4 Z M 9,4 H 12 V 7 H 9 Z M 4,9 H 7 V 12 H 4 Z M 9,9 H 12 V 12 H 9 Z"/>
 </g>
</svg>
