<svg xmlns="http://www.w3.org/2000/svg" width="24" height="24" version="1.1">
 <defs>
  <style id="current-color-scheme" type="text/css">
   .ColorScheme-Text { color:#eeeeec; } .ColorScheme-Highlight { color:#367bf0; } .ColorScheme-NeutralText { color:#ffcc44; } .ColorScheme-PositiveText { color:#3db47e; } .ColorScheme-NegativeText { color:#dd4747; }
  </style>
 </defs>
 <path style="fill:currentColor" class="ColorScheme-Text" d="M 12,4 A 8,8 0 0 0 4,12 8,8 0 0 0 11.285156,19.949219 5,5 0 0 1 7,15 5,5 0 0 1 12,10 5,5 0 0 1 17,15 5,5 0 0 1 12.714844,19.949219 8,8 0 0 0 20,12 8,8 0 0 0 12,4 Z m 0,10 a 3,3 0 0 0 -3,3 3,3 0 0 0 3,3 3,3 0 0 0 3,-3 3,3 0 0 0 -3,-3 z"/>
</svg>
