<svg xmlns="http://www.w3.org/2000/svg" width="18pt" height="18pt" version="1.1" viewBox="0 0 18 18"> <g> <path style="fill:rgb(6.666%,17.647%,36.078%)" d="M 16.5 9 C 16.5 13.140625 13.140625 16.5 9 16.5 C 4.859375 16.5 1.5 13.140625 1.5 9 C 1.5 4.859375 4.859375 1.5 9 1.5 C 13.140625 1.5 16.5 4.859375 16.5 9 Z M 16.5 9"/> <path style="fill:rgb(100.000%,100.000%,100.000%)" d="M 4.875 5.25 L 13.125 5.25 L 13.125 6.75 L 4.875 6.75 Z M 4.875 5.25"/> <path style="fill:rgb(100.000%,100.000%,100.000%)" d="M 4.875 8.25 L 13.125 8.25 L 13.125 9.75 L 4.875 9.75 Z M 4.875 8.25"/> <path style="fill:rgb(100.000%,100.000%,100.000%)" d="M 4.875 11.25 L 13.125 11.25 L 13.125 12.75 L 4.875 12.75 Z M 4.875 11.25"/> </g> </svg>
