<svg width="512" height="512" version="1.1" viewBox="0 0 384 384" xmlns="http://www.w3.org/2000/svg"><defs><clipPath><rect width="384" height="384"/></clipPath><clipPath><rect width="384" height="384"/></clipPath><clipPath><rect width="384" height="384"/></clipPath><clipPath><rect width="384" height="384"/></clipPath><clipPath><rect width="384" height="384"/></clipPath><clipPath><rect width="384" height="384"/></clipPath><clipPath><rect width="384" height="384"/></clipPath></defs><path d="m352 240c0 61.855-50.145 112-112 112s-112-50.145-112-112 50.145-112 112-112 112 50.145 112 112z" fill="#3a8ab8"/><path d="m312 247.5c0 39.766-32.234 72-72 72-39.766 0-72-32.234-72-72 0-39.766 32.234-72 72-72 39.766 0 72 32.234 72 72z" opacity=".3"/><path transform="scale(.75)" d="m170.76 315c-0.05467 1.6609-0.09179 3.3258-0.09179 5 0 82.474 66.86 149.33 149.33 149.33 82.474 0 149.33-66.86 149.33-149.33 0-1.6742-0.03712-3.3391-0.09179-5-2.6386 80.158-68.442 144.33-149.24 144.33-80.8 0-146.6-64.176-149.24-144.33z" opacity=".3" stroke-width="1.3333"/><path d="m312 240c0 39.766-32.234 72-72 72-39.766 0-72-32.234-72-72 0-39.766 32.234-72 72-72 39.766 0 72 32.234 72 72z" fill="#fff"/><path transform="scale(.75)" d="m320 170.67c-82.474 0-149.33 66.86-149.33 149.33 0 1.6742 0.03712 3.3391 0.09179 5 2.6386-80.158 68.442-144.33 149.24-144.33 80.8 0 146.6 64.176 149.24 144.33 0.05467-1.6609 0.09179-3.3258 0.09179-5 0-82.474-66.86-149.33-149.33-149.33z" fill="#fff" opacity=".3" stroke-width="1.3333"/><path d="m256 144c0 61.855-50.145 112-112 112-61.855 0-112-50.145-112-112 0-61.855 50.145-112 112-112 61.855 0 112 50.145 112 112z" fill="#4cc7cc"/><path d="m216 151.5c0 39.766-32.234 72-72 72-39.766 0-72-32.234-72-72 0-39.766 32.234-72 72-72 39.766 0 72 32.234 72 72z" opacity=".3"/><path d="m216 144c0 39.766-32.234 72-72 72s-72-32.234-72-72 32.234-72 72-72 72 32.234 72 72z" fill="#fff"/><path d="m240 271.5s-8.875-53.828-35.691-80.109c-26.82-26.285-76.309-39.891-76.309-39.891" fill="none" opacity=".3" stroke="#000" stroke-linecap="round" stroke-width="16"/><path transform="scale(.75)" d="m42.758 187c-0.054673 1.6609-0.091796 3.3258-0.091796 5 0 82.474 66.86 149.33 149.33 149.33 82.474 0 149.33-66.86 149.33-149.33 0-1.6742-0.03712-3.3391-0.09179-5-2.6386 80.158-68.442 144.33-149.24 144.33-80.8 0-146.6-64.176-149.24-144.33z" opacity=".3" stroke-width="1.3333"/><g fill="none" stroke-linecap="round" stroke-width="16"><path d="m240 264s-8.875-53.828-35.691-80.109c-26.82-26.285-76.309-39.891-76.309-39.891" stroke="#fd4747"/><path d="m152.02 127.47s8.875 53.828 35.691 80.113c26.82 26.281 76.309 39.887 76.309 39.887" opacity=".3" stroke="#000"/><path d="m152.02 119.97s8.875 53.828 35.691 80.113c26.82 26.281 76.309 39.887 76.309 39.887" stroke="#fd4747"/></g><path transform="scale(.75)" d="m192 42.666c-82.474 0-149.33 66.86-149.33 149.33 0 1.6742 0.037123 3.3391 0.091796 5 2.6387-80.158 68.442-144.33 149.24-144.33 80.8 0 146.6 64.176 149.24 144.33 0.05467-1.6609 0.09179-3.3258 0.09179-5 0-82.474-66.86-149.33-149.33-149.33z" fill="#fff" opacity=".3" stroke-width="1.3333"/></svg>
