<svg width="512" height="512" version="1.1" viewBox="0 0 384 384" xmlns="http://www.w3.org/2000/svg" xmlns:xlink="http://www.w3.org/1999/xlink"><defs><filter id="g" x="0" y="0" width="1" height="1"><feColorMatrix in="SourceGraphic" values="0 0 0 0 1 0 0 0 0 1 0 0 0 0 1 0 0 0 1 0"/></filter><mask id="c"><g filter="url(#g)"><rect width="384" height="384" fill-opacity=".2"/></g></mask><clipPath id="f"><rect width="384" height="384"/></clipPath><g id="b" clip-path="url(#f)"><path d="m38.316 26.262c-8.3477 0-15.066 6.7227-15.066 15.07v6.0234c0-8.3438 6.7188-15.066 15.066-15.066h307.37c8.3477 0 15.066 6.7227 15.066 15.066v-6.0234c0-8.3477-6.7188-15.07-15.066-15.07z" fill="#fff"/></g><linearGradient id="n" x1="193.02" x2="193.02" y1="260.29" y2="212.18" gradientTransform="translate(-.0011173 -13.301)" gradientUnits="userSpaceOnUse"><stop stop-color="#39c1c8" offset="0"/><stop stop-color="#12715f" offset="1"/></linearGradient><linearGradient id="m" x1="190.99" x2="190.99" y1="247.67" y2="269.22" gradientTransform="translate(-.0011173 -13.301)" gradientUnits="userSpaceOnUse"><stop stop-color="#fff" offset="0"/><stop stop-color="#fff" stop-opacity="0" offset="1"/></linearGradient><radialGradient id="a" cx="182.85" cy="310.03" r="9.6626" gradientTransform="matrix(2.3693,0,0,5.4522,-250.38,-1380.3)" gradientUnits="userSpaceOnUse"><stop stop-color="#b8174c" offset="0"/><stop offset="1"/></radialGradient><clipPath><rect width="384" height="384"/></clipPath><clipPath><rect width="384" height="384"/></clipPath><linearGradient id="d" x1="190.83" x2="190.83" y1="229.45" y2="261.8" gradientUnits="userSpaceOnUse"><stop stop-color="#f9e177" offset="0"/><stop stop-color="#0ca15e" offset="1"/></linearGradient></defs><path d="m297.56 139.31c-1.5422-6e-3 -2.9115 0.92868-3.3851 2.3102l-30.155 87.99-8.2234 2.3809c-1.6786 0.48635-2.7244 2.0574-2.4575 3.6914l1.5376 9.3986c0.27728 1.695 1.8757 2.9145 3.6949 2.8198l13.824-0.72149c1.4298-0.0748 2.6704-0.95434 3.1442-2.2263l27.437-73.666 46.287 71.649 4.2752 25.832c0.13697 0.82861 0.6002 1.5772 1.2983 2.0982l19.612 14.634c3.0755 2.2928 7.2402-1.1248 5.2466-4.3054l-9.5921-15.281-2.897-25.642c-0.0576-0.51032-0.23958-1.001-0.53185-1.4342l-66.143-97.983c-0.64657-0.95734-1.7654-1.5393-2.9705-1.5446zm-211.25 5e-3c-1.1577 0.0453-2.2189 0.61991-2.8408 1.5401l-66.142 97.982c-0.29228 0.4332-0.47425 0.92384-0.53186 1.4342l-2.897 25.642-9.5937 15.281c-1.991 3.1797 2.1712 6.5952 5.2466 4.3054l19.612-14.634c0.6978-0.52109 1.1616-1.2698 1.2983-2.0982l4.2768-25.832 46.285-71.649 27.437 73.666c0.4736 1.2718 1.7148 2.1512 3.1442 2.2263l13.825 0.72149c1.819 0.0948 3.4175-1.1248 3.6949-2.8198l1.5361-9.3971c0.26737-1.6342-0.78007-3.2066-2.459-3.6928l-8.2203-2.3809-30.155-87.99c-0.48875-1.4248-1.9273-2.368-3.5165-2.3059z" color="#000000" color-rendering="auto" dominant-baseline="auto" fill="#087142" image-rendering="auto" shape-rendering="auto" solid-color="#000000" stroke="#000" stroke-linejoin="round" stroke-opacity=".31373" stroke-width="7.7704" style="font-feature-settings:normal;font-variant-alternates:normal;font-variant-caps:normal;font-variant-ligatures:normal;font-variant-numeric:normal;font-variant-position:normal;isolation:auto;mix-blend-mode:normal;shape-padding:0;text-decoration-color:#000000;text-decoration-line:none;text-decoration-style:solid;text-indent:0;text-orientation:mixed;text-transform:none;white-space:normal"/><path d="m272.25 227.21c-1e-5 46.075-37.351 64.199-83.426 64.199s-83.426-18.124-83.426-64.199 37.351-69.503 83.426-69.503 83.426 23.428 83.426 69.503z" fill="#087142" style="paint-order:normal"/><path d="m146.84 178.68c-3.8435-0.0302-7.5385 0.63123-10.63 1.4568 0.019 4.2e-4 0.0254 2e-3 0.0439 3e-3 0.52403 0.0189 0.87275 0.0539 1.1361 0.0971 0.049 7e-3 0.0354 7e-3 0.0764 0.0136 0.19133 0.031 0.35344 0.0622 0.35344 0.0622l-4.4e-4 4.4e-4c-0.18893 0.19042-0.43922 0.46924-0.74065 0.83458-0.30122 0.36509-0.6531 0.81698-1.0457 1.3513h-4.4e-4c-0.39264 0.53391-0.82606 1.1524-1.2883 1.8505-2.6e-4 4.1e-4 -1e-3 3e-3 -1e-3 3e-3 -0.23121 0.34916-0.46986 0.71807-0.71454 1.1072v4.4e-4c-0.24474 0.38918-0.49533 0.7984-0.75084 1.227v4.4e-4c-0.25563 0.42854-0.51641 0.87622-0.78013 1.3435v4.4e-4c-0.26352 0.46691-0.53083 0.95391-0.79988 1.4587-2.6e-4 4e-4 -2e-3 1e-3 -2e-3 2e-3 -0.26929 0.50531-0.53983 1.0287-0.81198 1.5714l-4.4e-4 4.4e-4c-0.27214 0.54264-0.54412 1.1041-0.81643 1.6834l-4.5e-4 4.4e-4c-0.0648 0.13779-0.12892 0.28615-0.1936 0.42603-0.36303 0.78485-0.72346 1.6062-1.0801 2.4545-0.11459 0.2726-0.23103 0.53481-0.34454 0.81386-0.26452 0.65026-0.52529 1.3178-0.78204 2.0026-0.1782 0.47536-0.35144 0.96896-0.52476 1.4607-0.0767 0.2177-0.15617 0.42667-0.23181 0.64747-1.9e-4 4.1e-4 -2.1e-4 1e-3 -1e-3 3e-3 -0.0905 0.26415-0.17547 0.54195-0.2643 0.81063-0.15307 0.463-0.30835 0.92224-0.45598 1.3985-0.38458 1.2409-0.74335 2.5365-1.0826 3.8654-0.0725 0.2839-0.15026 0.55913-0.22035 0.84688v2e-3c-0.17616 0.7234-0.34147 1.4638-0.5012 2.2118-0.0209 0.0975-0.0451 0.19072-0.0656 0.28876-0.17787 0.84863-0.34326 1.712-0.49737 2.5912l-4.5e-4 4.4e-4c-0.30824 1.759-0.56587 3.5774-0.76294 5.4549 0 1e-3 -1e-3 2e-3 -1e-3 3e-3 -0.0984 0.93788-0.18171 1.8901-0.24836 2.8566 0 1e-3 -2.8e-4 2e-3 -1e-3 3e-3 -0.0667 0.96651-0.11497 1.9471-0.14712 2.9414 0 1e-3 -1e-3 2e-3 -1e-3 3e-3 -0.22544 6.9679 0.42688 14.613 2.4124 22.817 0.0626 0.25874 0.1291 0.51071 0.19424 0.76531 0.0517 0.20204 0.1021 0.40589 0.15539 0.60535 0.0712 0.2668 0.14565 0.52901 0.21971 0.7912 0.0641 0.22717 0.12804 0.45356 0.19424 0.67726 0.0725 0.24488 0.14737 0.48631 0.22226 0.72711 0.0667 0.21428 0.13399 0.42727 0.20252 0.63841 0.0775 0.23868 0.15577 0.47749 0.23563 0.7122 0.0313 0.0924 0.0637 0.18206 0.0955 0.27388 0.25478 0.73517 0.51936 1.4537 0.79669 2.1496 3e-3 7e-3 5e-3 0.0124 7e-3 0.0194 2.6e-4 2e-3 2e-3 4e-3 3e-3 6e-3 0.27779 0.69589 0.56715 1.369 0.86611 2.0266 0.0428 0.0941 0.0853 0.18892 0.12864 0.28231 0.30169 0.65166 0.61233 1.2876 0.93362 1.9022 1e-3 2e-3 4e-3 6e-3 6e-3 9e-3 5e-3 8e-3 8e-3 0.0156 0.0121 0.0233 0.33285 0.63543 0.67737 1.2496 1.0298 1.8466 0.0155 0.0251 0.0292 0.0522 0.0439 0.0783 0.34918 0.58852 0.70763 1.158 1.0744 1.71 0.0328 0.0486 0.0652 0.0982 0.0987 0.14569 0.36821 0.54897 0.74291 1.0816 1.1272 1.5954l-1e-3 7e-3c0.37411 0.50057 0.75696 0.98161 1.145 1.4497 0.0415 0.05 0.0828 0.0997 0.12419 0.14957 0.3883 0.46317 0.78207 0.91382 1.1826 1.3461 0.0199 0.0229 0.0418 0.0423 0.0624 0.0641 0.39045 0.41919 0.78635 0.82386 1.1871 1.2147 0.0326 0.0317 0.0648 0.0655 0.0974 0.0971 0.40737 0.39416 0.82012 0.7721 1.2368 1.1382 0.0509 0.0448 0.10183 0.0885 0.15284 0.13273 0.26738 0.23222 0.53812 0.45101 0.8088 0.6721 0.32862 0.26845 0.65987 0.52834 0.99284 0.78081 0.19753 0.14981 0.39463 0.3018 0.59353 0.4461 0.38009 0.27572 0.7639 0.5383 1.1482 0.79445 0.15737 0.10492 0.31265 0.21617 0.47063 0.31791 0.51368 0.3307 1.0312 0.64271 1.5501 0.94077 0.20838 0.1196 0.41772 0.22986 0.62666 0.34446 0.3437 0.18846 0.68744 0.37456 1.0323 0.5497 0.23377 0.11867 0.4677 0.23235 0.7018 0.34509 0.31142 0.1499 0.62261 0.29474 0.93425 0.43443 0.2417 0.10837 0.48316 0.21687 0.72473 0.3192 0.37021 0.15681 0.74075 0.30297 1.11 0.44611 0.16783 0.0651 0.33553 0.13774 0.50311 0.20006 0.5184 0.1929 1.0346 0.37025 1.5488 0.53806 0.22129 0.0722 0.44082 0.13615 0.66104 0.20394 0.33147 0.10204 0.66227 0.20162 0.99093 0.29395 0.21294 0.0598 0.42465 0.11761 0.63621 0.17353 0.32417 0.0856 0.64624 0.16665 0.96673 0.24342 0.22219 0.0533 0.44467 0.10754 0.66487 0.15671 0.32519 0.0726 0.64633 0.13794 0.96673 0.20201 0.18608 0.0372 0.37487 0.0782 0.55915 0.11265 0.0603 0.0114 0.11819 0.02 0.17831 0.0311 0.40306 0.0737 0.80129 0.14275 1.1947 0.20394 0.78956 0.12289 1.5549 0.21869 2.2984 0.2972 0.12242 0.0129 0.24326 0.0258 0.36427 0.0376 0.73371 0.0717 1.4498 0.12819 2.1264 0.16446 0.01 1e-3 0.0171 2.9e-4 0.0267 1e-3 0.82868 0.0437 1.6012 0.0589 2.3277 0.0622 0.28894 2e-3 0.55072-4e-3 0.82153-8e-3 0.42081-6e-3 0.83146-0.0137 1.2049-0.0285 0.27606-0.0109 0.54276-0.0219 0.79096-0.0362 0.21478-0.0125 0.40421-0.026 0.59673-0.0401 0.73832-0.0546 1.3807-0.11593 1.7488-0.1625-2.1433 0.18279-10.771-0.22811-19.961-16.59-6.9478-12.367-12.161-31.488-8.3688-51.103 1.264-6.5381 3.5289-13.131 7.0639-19.546 0.50493-0.91635 1.0358-1.829 1.5934-2.7375 0.27879-0.45411 0.56439-0.90835 0.85655-1.3603 0.29241-0.4523 0.59127-0.902 0.89732-1.3519 0.30592-0.44956 0.61903-0.89899 0.93871-1.3461 0.31955-0.44729 0.64681-0.89228 0.98074-1.3364 0.33395-0.44411 0.67405-0.88663 1.0221-1.328 0.34804-0.44149 0.70292-0.8818 1.0654-1.3202-2.9541-1.1083-6.0328-1.5505-9.0222-1.574zm84.547 0c-2.9894 0.0235-6.0687 0.46569-9.0228 1.574 0.36252 0.43838 0.71739 0.87869 1.0654 1.3202 0.34809 0.44133 0.68883 0.88385 1.0228 1.328 0.33392 0.44407 0.66118 0.88907 0.98073 1.3364 0.31968 0.44709 0.63216 0.89652 0.93808 1.3461 0.30605 0.4499 0.60555 0.89962 0.89795 1.3519 0.29216 0.45197 0.57776 0.90621 0.85656 1.3603 0.55756 0.90847 1.0884 1.8211 1.5934 2.7375 3.535 6.4152 5.7999 13.008 7.0639 19.546 3.792 19.615-1.4216 38.737-8.3694 51.103-9.1904 16.362-17.817 16.773-19.961 16.59 0.36812 0.0466 1.0104 0.10793 1.7488 0.1625 0.19252 0.0141 0.38195 0.0276 0.59672 0.0401 0.24821 0.0143 0.5149 0.0254 0.79096 0.0362 0.37345 0.0148 0.78347 0.0227 1.2043 0.0285 0.27081 4e-3 0.53321 0.01 0.82216 8e-3 0.72651-3e-3 1.499-0.0184 2.3277-0.0622 0.01-8.8e-4 0.0168 3e-5 0.0267-1e-3 0.67662-0.0362 1.3921-0.0928 2.1258-0.16446 0.12102-0.0118 0.24185-0.0246 0.36428-0.0376 0.7435-0.0785 1.5088-0.17431 2.2984-0.2972 0.39343-0.0612 0.79231-0.13028 1.1954-0.20394 0.0601-0.0111 0.11742-0.0197 0.17768-0.0311 0.18428-0.0344 0.37371-0.0755 0.55979-0.11265 0.3204-0.0641 0.64153-0.12941 0.96672-0.20201 0.2202-0.0492 0.44269-0.10343 0.66487-0.15671 0.32049-0.0768 0.64256-0.15779 0.96673-0.24342 0.21157-0.0559 0.42328-0.1137 0.63621-0.17353 0.32866-0.0923 0.65946-0.19191 0.99093-0.29395 0.22023-0.0678 0.43912-0.13174 0.6604-0.20394 0.51422-0.16781 1.0304-0.34516 1.5488-0.53806 0.16757-0.0623 0.33592-0.13492 0.50375-0.20006 0.36928-0.14314 0.73981-0.2893 1.11-0.44611 0.24157-0.10236 0.48303-0.21083 0.72473-0.3192 0.31164-0.13969 0.62282-0.28453 0.93425-0.43443 0.2341-0.11274 0.46803-0.22642 0.7018-0.34509 0.3449-0.17513 0.68863-0.36124 1.0323-0.5497 0.20894-0.1146 0.41828-0.22486 0.62665-0.34446 0.51886-0.29806 1.0358-0.61007 1.5494-0.94077 0.15798-0.10174 0.31388-0.21299 0.47126-0.31791 0.38434-0.25615 0.76815-0.51873 1.1482-0.79445 0.1989-0.1443 0.39599-0.29629 0.59353-0.4461 0.33296-0.25247 0.66358-0.51236 0.99221-0.78081 0.27067-0.22109 0.54141-0.43988 0.80879-0.6721 0.051-0.0443 0.10197-0.088 0.15285-0.13272 0.41662-0.36615 0.83002-0.74409 1.2374-1.1382 0.0326-0.0317 0.0649-0.0654 0.0974-0.0971 0.40072-0.3908 0.79598-0.79547 1.1864-1.2147 0.0206-0.0218 0.0432-0.0412 0.0631-0.0641 0.40055-0.43224 0.7943-0.88289 1.1826-1.3461 0.0414-0.0499 0.0827-0.0996 0.12419-0.14957 0.38807-0.46805 0.77093-0.94909 1.145-1.4497l-8e-3 -7e-3c0.38429-0.51375 0.75965-1.0464 1.1279-1.5954 0.0335-0.0475 0.0652-0.0971 0.0981-0.14569 0.36673-0.55199 0.72518-1.1214 1.0744-1.71 0.0147-0.0261 0.029-0.0532 0.0446-0.0783 0.35241-0.59697 0.69695-1.2111 1.0298-1.8466 4e-3 -8e-3 7e-3 -0.0153 0.0121-0.0233 2e-3 -4e-3 6e-3 -7e-3 6e-3 -9e-3 0.32129-0.6146 0.63129-1.2506 0.93298-1.9022 0.0433-0.0934 0.0865-0.1882 0.12928-0.28231 0.29894-0.65757 0.58833-1.3306 0.86611-2.0266 8.8e-4 -1e-3 3e-3 -4e-3 3e-3 -6e-3 2e-3 -7e-3 4e-3 -0.0122 7e-3 -0.0194 0.27731-0.69585 0.54193-1.4144 0.79669-2.1496 0.0318-0.0918 0.0642-0.18206 0.0955-0.27455 0.0799-0.2347 0.15811-0.47285 0.23563-0.71153 0.0685-0.21114 0.1352-0.42413 0.20188-0.63841 0.0749-0.2408 0.15045-0.48223 0.2229-0.72711 0.0662-0.2237 0.13012-0.45009 0.19424-0.67726 0.0741-0.26219 0.14848-0.5244 0.21971-0.7912 0.0533-0.19946 0.10369-0.40331 0.15539-0.60535 0.0651-0.2546 0.13167-0.50657 0.19423-0.76531 1.9855-8.2044 2.6378-15.849 2.4124-22.817v-3e-3c-0.0321-0.99437-0.0811-1.9743-0.14774-2.9408 2.3e-4 -1e-3 0-2e-3 0-3e-3 -0.0667-0.96656-0.14994-1.9194-0.24837-2.8573v-3e-3c-0.19708-1.8775-0.45406-3.6959-0.76231-5.4549v-4.4e-4c-0.15412-0.87922-0.32012-1.7425-0.49801-2.5912-0.0205-0.098-0.0447-0.19059-0.0656-0.28812-0.15973-0.74794-0.32505-1.489-0.5012-2.2124v-2e-3c-0.0701-0.28774-0.14789-0.56233-0.22034-0.84624-0.33929-1.3289-0.69806-2.6252-1.0826-3.866-0.14761-0.47628-0.30228-0.93552-0.45534-1.3985-0.0888-0.26869-0.17443-0.54583-0.26493-0.80998 1.8e-4 -1e-3 1.8e-4 -3e-3 0-3e-3 -0.0756-0.2208-0.15516-0.42978-0.23181-0.64747-0.17332-0.49172-0.34594-0.98533-0.52412-1.4607-0.25677-0.68485-0.51752-1.3524-0.78205-2.0026-0.11352-0.27905-0.2306-0.54126-0.34517-0.81386-0.35663-0.84834-0.71706-1.669-1.0801-2.4539-0.0647-0.13989-0.1288-0.28889-0.1936-0.42668v-4.4e-4c-0.27231-0.5793-0.54429-1.1408-0.81644-1.6834-0.27213-0.54266-0.54332-1.0667-0.81261-1.572 0-4.4e-4 -2e-3 -1e-3 -3e-3 -2e-3 -0.26904-0.50483-0.53634-0.99182-0.79988-1.4587v-4.5e-4c-0.26372-0.46727-0.52386-0.91495-0.7795-1.3435-0.25549-0.42854-0.50547-0.83842-0.7502-1.2276-0.24469-0.38908-0.48332-0.75864-0.71454-1.1078 0 0-2e-3 -1e-3 -3e-3 -2e-3 -0.46227-0.6981-0.89506-1.3165-1.2877-1.8504h-4.4e-4c-0.3926-0.53429-0.74511-0.98618-1.0463-1.3513-0.30143-0.36534-0.55172-0.64417-0.74065-0.83458v-4.4e-4s0.16212-0.0311 0.35345-0.0622c0.0411-7e-3 0.0267-6e-3 0.0758-0.0136 0.26338-0.0433 0.61209-0.0782 1.1361-0.0971 0.0185-8.8e-4 0.0256-3e-3 0.0446-3e-3 -3.0917-0.82557-6.7867-1.487-10.63-1.4568zm21.127 3.506c-4e-3 2e-3 -7e-3 5e-3 -0.0115 7e-3 -1e-3 0-4e-3 8.8e-4 -4e-3 1e-3 -4e-3 2e-3 -6e-3 5e-3 -0.0102 8e-3 -0.0112 5e-3 -0.0168 0.0122-0.0274 0.0162-0.11327 0.0563-0.20596 0.11991-0.28467 0.18647-3e-3 4e-3 -0.0103 5e-3 -0.0146 9e-3 -0.0258 0.0225-0.0538 0.0443-0.0758 0.068-5e-3 6e-3 -8e-3 0.0111-0.0134 0.0168-8e-3 9e-3 -0.0156 0.018-0.0236 0.0279-4e-3 5e-3 -9e-3 0.0104-0.0127 0.0156-0.0306 0.0393-0.0551 0.0809-0.0771 0.12301-7e-3 0.0116-0.0134 0.0243-0.0198 0.0369-1e-3 2e-3 -4e-3 3e-3 -4e-3 5e-3 -2e-3 5e-3 -4e-3 8e-3 -6e-3 0.0129-0.0259 0.0627-0.0419 0.12855-0.0503 0.19747-3e-3 0.0152 0 0.0324 0 0.0479-4e-3 0.0517-9e-3 0.10342-4e-3 0.15798 0 2e-3 3e-3 8e-3 3e-3 0.01 0.01 0.10024 0.034 0.20466 0.0701 0.31531 2e-3 5e-3 2e-3 9e-3 5e-3 0.0162 0.0112 0.0338 0.026 0.0693 0.0395 0.10424 4e-3 9e-3 8e-3 0.0179 0.0121 0.0272 0.0377 0.0933 0.0837 0.18941 0.13629 0.28942 8.8e-4 4e-3 2e-3 7e-3 4e-3 0.0103 0.0146 0.0273 0.0243 0.0534 0.0401 0.0809 2e-3 4e-3 6e-3 7e-3 6e-3 9e-3 3e-3 0 3e-3 2e-3 3e-3 3e-3v8.9e-4c0.36319 0.30045 0.72861 0.62207 1.0947 0.96925v4.4e-4c1.099 1.0422 2.2075 2.303 3.2963 3.8259v4.4e-4c0.36283 0.50738 0.72317 1.0435 1.0807 1.6109v4.5e-4c0.0356 0.0566 0.0707 0.12094 0.10571 0.1787 0.67881 1.0909 1.3468 2.2865 1.9952 3.6128 0.34125 0.69794 0.67698 1.4296 1.0069 2.1975 5.1508 11.996 9.7603 29.896 4.5878 48.21-0.1293 0.45784-0.26461 0.91694-0.40631 1.3752-3.2591 10.541-9.8283 21.172-21.465 30.851-0.3596 0.28039-0.72326 0.5487-1.0903 0.80804-0.2071 0.14645-0.41736 0.28353-0.62666 0.42343-0.16219 0.10836-0.32243 0.2225-0.48591 0.32699-4e-3 4e-3 -0.0107 6e-3 -0.0153 0.01-0.73861 0.4715-1.4906 0.90454-2.2525 1.3008 0 0-8.9e-4 -3e-5 -1e-3 0-0.0147 8e-3 -0.0285 0.0164-0.0433 0.024 1.0157-0.35633 2.4783-0.92363 4.2064-1.7171 0.31334-0.1439 0.62722-0.29096 0.95781-0.45065 0.30704-0.14827 0.62273-0.30829 0.94317-0.47069 0.30102-0.15252 0.59727-0.30227 0.90877-0.46749 0.66007-0.35023 1.3378-0.72585 2.0366-1.1357 1.3517-0.79265 2.7612-1.6933 4.193-2.7252 0.0357-0.0302 0.0884-0.0767 0.12483-0.10748v-4.4e-4c0.0225-0.019 0.0553-0.048 0.0777-0.068 0.72611-0.61567 1.5638-1.3365 2.4627-2.1386 0.45455-0.4056 0.91698-0.82226 1.3775-1.249 0.13242-0.12276 0.25881-0.2475 0.39039-0.37098 0.32635-0.30641 0.6529-0.61332 0.96736-0.92005 0.22673-0.22109 0.43255-0.43497 0.64895-0.6533 0.21173-0.21385 0.43328-0.43207 0.63174-0.64099 0.22366-0.23517 0.41167-0.45379 0.61392-0.67984 0.16454-0.18362 0.34784-0.37476 0.49546-0.55033 0.059-0.0696 0.10938-0.13541 0.16558-0.20331 0.0997-0.12282 0.20265-0.24584 0.29231-0.36322 0.0296-0.0396 0.0529-0.0744 0.0815-0.11268 0.10453-0.1395 0.20742-0.279 0.29486-0.40984 3e-3 -8.8e-4 3e-3 -1e-3 3e-3 -2e-3 0.10954-0.16366 0.20509-0.32123 0.28531-0.46874 8.8e-4 -8.9e-4 4e-3 -4e-3 4e-3 -6e-3 0.0808-0.14944 0.1468-0.29046 0.19424-0.42084 1.0596-2.9188 3.9357-5.0878 3.9357-5.0878s4e-3 0.0114 4e-3 0.0117l-2e-3 -8e-3c2.9464-5.3434 4.8555-11.647 6.0946-17.764 0.0138-0.0679 0.0264-0.13477 0.0401-0.20265 0.1505-0.75143 0.29135-1.4982 0.42222-2.2415 0.0228-0.12895 0.0433-0.2565 0.0656-0.38524 0.11693-0.67931 0.22814-1.353 0.32989-2.0214 0.0244-0.16062 0.0466-0.31928 0.0701-0.47913 0.0967-0.65486 0.18679-1.302 0.27002-1.9424 0.0147-0.11331 0.0297-0.22579 0.0439-0.33862 2.2536-17.896-5.9386-35.288-16.945-47.87-1.2288-1.0971-2.9804-2.7151-3.1435-2.8657l-3e-3 -3e-3zm-126.8 4.4e-4c-1e-4 9e-5 -2e-3 2e-3 -2e-3 2e-3 -0.16297 0.15049-1.9147 1.7685-3.1435 2.8657-11.007 12.582-19.199 29.974-16.945 47.87 0.0143 0.11283 0.0299 0.22597 0.0446 0.33927 0.0833 0.6404 0.17269 1.2869 0.26939 1.9418 0.0236 0.15984 0.0463 0.31914 0.0707 0.47977 0.10174 0.66835 0.21233 1.3421 0.32925 2.0214 0.0221 0.12873 0.0428 0.25563 0.0656 0.38459 0.13089 0.74335 0.27236 1.4901 0.42286 2.2415 0.0137 0.0679 0.0257 0.13478 0.0395 0.20265 1.239 6.1171 3.1478 12.421 6.094 17.764l1e-3 -3e-3s2.8761 2.1689 3.9357 5.0878c0.0474 0.13037 0.11337 0.27139 0.19424 0.42084 4.2e-4 2e-3 2e-3 5e-3 3e-3 6e-3 0.0802 0.14752 0.17641 0.30509 0.28594 0.46875 2.7e-4 4.3e-4 4.1e-4 8.9e-4 1e-3 2e-3 0.0874 0.13084 0.19034 0.27034 0.29486 0.40984 0.0286 0.0383 0.0525 0.0731 0.0821 0.11267 0.0897 0.11739 0.19262 0.24037 0.29231 0.36323 0.0562 0.0679 0.1066 0.13372 0.16558 0.20331 0.14762 0.17556 0.33094 0.36671 0.49547 0.55032 0.20226 0.22606 0.39027 0.44468 0.61392 0.67985 0.19846 0.20891 0.41938 0.42714 0.63111 0.64099 0.21639 0.21833 0.42285 0.43221 0.64958 0.65329 0.31445 0.30671 0.64102 0.61364 0.96737 0.92005 0.13159 0.12348 0.25797 0.24823 0.39039 0.37099 0.46053 0.4267 0.92231 0.84337 1.3768 1.249 0.89889 0.80211 1.7372 1.5229 2.4633 2.1386 0.0224 0.02 0.0551 0.049 0.0777 0.068v4.4e-4c0.0365 0.0308 0.0891 0.0773 0.12483 0.10748 1.4318 1.0319 2.8413 1.9325 4.193 2.7252 0.69882 0.4098 1.3772 0.78543 2.0373 1.1357 0.31152 0.16522 0.60713 0.31496 0.90815 0.46748 0.32043 0.1624 0.63614 0.32239 0.94316 0.4707 0.33059 0.15969 0.64447 0.30674 0.95782 0.45064 1.7281 0.79349 3.1913 1.3608 4.207 1.7171-0.0148-8e-3 -0.0293-0.0164-0.0439-0.024-2.7e-4 -3e-5 -1e-3 0-1e-3 0-0.76191-0.39625-1.5139-0.82925-2.2525-1.3008-5e-3 -4e-3 -0.0108-6e-3 -0.0153-0.0104-0.16348-0.10449-0.32309-0.21796-0.48528-0.32633-0.2093-0.13989-0.41955-0.27697-0.62666-0.42343-0.36703-0.25936-0.73132-0.52831-1.0909-0.80869-11.636-9.6791-18.205-20.309-21.464-30.85-0.1417-0.45827-0.27765-0.91737-0.40694-1.3752-5.1725-18.314-0.56297-36.215 4.5878-48.21 0.32986-0.76788 0.66623-1.4996 1.0075-2.1975 0.64849-1.3263 1.3158-2.5219 1.9946-3.6128 0.035-0.0577 0.0707-0.12214 0.10636-0.1787l6.1e-4 -4.4e-4c0.35756-0.56742 0.71791-1.1035 1.0807-1.6109v-4.4e-4c1.0888-1.5229 2.1973-2.7836 3.2963-3.8259l4.4e-4 -4.4e-4c0.36613-0.34718 0.73091-0.6688 1.0941-0.96925 0 0 4.4e-4 -4.5e-4 4.4e-4 -4.5e-4l4.5e-4 -4.4e-4c4.2e-4 -3.6e-4 8.8e-4 -2e-3 1e-3 -2e-3 1e-3 -2e-3 4e-3 -6e-3 6e-3 -9e-3 0.0157-0.0275 0.0263-0.0537 0.0408-0.0809 2e-3 -3e-3 3e-3 -6e-3 5e-3 -0.0104 0.0526-0.1 0.0979-0.1961 0.13564-0.28941 4e-3 -9e-3 9e-3 -0.0185 0.0127-0.0272 0.0136-0.0349 0.0282-0.0705 0.0395-0.10424 3e-3 -7e-3 3e-3 -0.0114 5e-3 -0.0162 0.0361-0.11066 0.0598-0.21573 0.0694-0.31596 0-2e-3 3e-3 -7e-3 3e-3 -9e-3 5e-3 -0.0546 4.3e-4 -0.10632-3e-3 -0.15798-8.8e-4 -0.0155 2e-3 -0.0327 0-0.0479-8e-3 -0.0689-0.0243-0.13482-0.0503-0.19747-3e-3 -5e-3 -4e-3 -8e-3 -6e-3 -0.0129-1e-3 -2e-3 -3e-3 -3e-3 -4e-3 -5e-3 -6e-3 -0.0126-0.0127-0.0253-0.0198-0.0369-0.0219-0.0421-0.0471-0.0843-0.0777-0.12366-4e-3 -5e-3 -9e-3 -0.0101-0.0127-0.0156-8e-3 -0.01-0.0146-0.0191-0.0229-0.0279-5e-3 -6e-3 -9e-3 -0.0105-0.0134-0.0162-0.022-0.0237-0.0507-0.0461-0.0764-0.0686-4e-3 -5e-3 -0.0111-5e-3 -0.014-9e-3 -0.0787-0.0666-0.17204-0.12952-0.28531-0.18582-0.0107-4e-3 -0.0156-0.0115-0.0267-0.0162-4e-3 -3e-3 -6e-3 -6e-3 -0.0108-8e-3 -1e-3 -2.5e-4 -2e-3 -2e-3 -4e-3 -2e-3 -5e-3 -3e-3 -7e-3 -5e-3 -0.0108-6e-3zm-12.755 76.113-3e-3 8e-3 3e-3 -8e-3 -6.2e-4 -4.4e-4zm46.864-76.083c0.0238 0.0157 0.0454 0.0329 0.0688 0.0492 0.27673 0.19301 0.54816 0.38928 0.81134 0.59048 0.54115 0.41362 1.0519 0.84022 1.5361 1.2774 0.0406 0.0364 0.0809 0.0729 0.12101 0.10942 0.22978 0.21021 0.45441 0.42042 0.67123 0.63322 0.0449 0.0443 0.0873 0.0885 0.13183 0.13273 0.36579 0.36429 0.71303 0.72755 1.0412 1.0923 0.0762 0.0846 0.15239 0.16768 0.22671 0.25186 0.38876 0.4425 0.75845 0.88318 1.0922 1.3105 0.31859 0.40781 0.60631 0.80018 0.87503 1.1816 0.0877 0.12292 0.16406 0.23815 0.24645 0.3574 0.17841 0.26027 0.34417 0.50911 0.49802 0.74912 0.0654 0.10312 0.13108 0.20215 0.19232 0.30042 0.20218 0.32367 0.38869 0.63177 0.54323 0.90062-2.2345-4.118-5.0062-7.0032-8.0554-8.9363zm58.583 0c-3.0492 1.933-5.8217 4.8179-8.0561 8.9356 0.15449-0.26875 0.34116-0.57647 0.54323-0.89997 0.0613-0.0983 0.12753-0.1973 0.19296-0.30042 0.15385-0.24001 0.3196-0.48885 0.49801-0.74912 0.0824-0.11925 0.15807-0.23448 0.24582-0.3574 0.26874-0.38144 0.55644-0.77381 0.87503-1.1816 0.33374-0.42729 0.70344-0.86797 1.0922-1.3105 0.0743-0.0842 0.15053-0.16724 0.22672-0.25186 0.3282-0.36473 0.67543-0.72799 1.0412-1.0923 0.0445-0.0442 0.0869-0.0884 0.13183-0.13273 0.2168-0.2128 0.44145-0.42301 0.67123-0.63322 0.0401-0.0365 0.0811-0.073 0.12164-0.10942 0.48415-0.43723 0.99491-0.86383 1.5361-1.2774 0.26318-0.2012 0.53461-0.39747 0.81134-0.59048 0.0233-0.0163 0.045-0.0335 0.0688-0.0492zm-50.527 8.9363c0.0814 0.14173 0.11375 0.21286 0.18214 0.33669 0.0739 0.13444 0.16145 0.28808 0.21971 0.39883-0.12968-0.25518-0.26831-0.48919-0.40185-0.73552zm42.471 0c-0.13355 0.24633-0.2728 0.48034-0.40249 0.73552 0.0583-0.11075 0.14642-0.26439 0.22035-0.39883 0.0684-0.12383 0.1007-0.19496 0.18214-0.33669zm-41.71 1.451s-0.15945 0.2552-0.44644 0.72969c-0.96754 1.6004-3.3963 5.7259-6.115 11.078-0.0945 0.18602-0.18572 0.35811-0.28085 0.54711-4.2e-4 2e-3 -2e-3 4e-3 -3e-3 5e-3 -0.10357 0.2058-0.20967 0.42675-0.31397 0.6358-0.30241 0.6066-0.60541 1.2133-0.91132 1.8459-0.82432 1.705-1.6553 3.498-2.4633 5.3468-2.4e-4 4.1e-4 -8.8e-4 3.4e-4 -2e-3 3e-3 -0.40362 0.92361-0.80137 1.8615-1.1896 2.8087-0.3884 0.94761-0.76748 1.9053-1.133 2.8683-0.36546 0.96292-0.71711 1.9312-1.0521 2.9013v2e-3c-0.33483 0.96965-0.65335 1.9411-0.95018 2.9097-1.8e-4 4.1e-4 -1e-3 2e-3 -1e-3 3e-3 -0.24945 0.89057-0.47479 1.7736-0.68779 2.654-0.0294 0.12161-0.0611 0.24374-0.0898 0.36517-0.19777 0.83577-0.37703 1.666-0.54259 2.4914-0.0304 0.15157-0.0618 0.30336-0.0911 0.45453-0.15739 0.81159-0.2993 1.6174-0.42605 2.4176-0.0244 0.15394-0.0468 0.30752-0.0701 0.46099-0.12176 0.80319-0.23201 1.6024-0.32351 2.393-0.0124 0.10694-0.0213 0.21248-0.0331 0.3192-0.086 0.77569-0.15841 1.5451-0.21588 2.3076-6e-3 0.0828-0.0138 0.166-0.0198 0.24862-0.0558 0.77994-0.0932 1.5511-0.11973 2.316-5e-3 0.15137-0.0125 0.30367-0.0166 0.45452-0.0198 0.72671-0.0264 1.4447-0.0204 2.1567 2e-3 0.17751 5e-3 0.35435 8e-3 0.53093 0.0126 0.72035 0.0358 1.4345 0.0745 2.1386 6e-3 0.11002 0.015 0.21868 0.0217 0.32825 0.0439 0.71952 0.0988 1.4314 0.1694 2.1328 8e-3 0.0755 0.0151 0.15067 0.0229 0.22595 0.07 0.66731 0.15467 1.3238 0.24836 1.9735 0.0209 0.14559 0.0402 0.29234 0.0624 0.43704 0.0995 0.64985 0.21281 1.2895 0.33561 1.9204 0.0285 0.1463 0.0569 0.29236 0.0866 0.43769 0.12916 0.63128 0.26888 1.2538 0.42096 1.8647 0.0312 0.12564 0.0646 0.24886 0.0968 0.37357 0.15972 0.61829 0.32861 1.2267 0.51138 1.8226 0.0294 0.0958 0.0617 0.18906 0.0917 0.28423 0.17644 0.56054 0.36211 1.1121 0.55851 1.6517 0.0308 0.0847 0.0604 0.17155 0.0917 0.25575 0.21096 0.56687 0.43475 1.1189 0.66741 1.6614 0.0496 0.11563 0.0984 0.23195 0.14902 0.34642 0.23165 0.52463 0.47497 1.0361 0.72664 1.5364 0.0564 0.11221 0.11326 0.2237 0.17068 0.33475 0.25703 0.49676 0.52211 0.98314 0.7986 1.4542 0.0577 0.0988 0.1178 0.19462 0.17641 0.29202 0.28068 0.46596 0.56932 0.92178 0.86865 1.361 0.0153 0.0223 0.0301 0.0448 0.0452 0.0674 0.0626 0.091 0.12987 0.1748 0.1936 0.26414 0.27126 0.38606 0.54706 0.76517 0.833 1.1285l3e-3 -4e-3c0.12767 0.16261 0.26177 0.31463 0.39229 0.47266 0.23206 0.28065 0.46554 0.55868 0.70627 0.82488 0.58054 0.64155 1.1834 1.2435 1.8125 1.7973 0.0293 0.0252 0.0575 0.0529 0.0866 0.0784 0.34434 0.29991 0.69531 0.58587 1.0533 0.85852 0.0144 9e-3 0.0279 0.0193 0.0414 0.0298 0.71597 0.54241 1.4593 1.0298 2.227 1.4594 0.0512 0.0286 0.10268 0.0573 0.15411 0.0855 0.37446 0.20487 0.75397 0.39784 1.14 0.57496 0.0186 9e-3 0.038 0.0153 0.0567 0.024 0.40017 0.18196 0.80628 0.34963 1.2183 0.50113 5e-3 3e-3 0.0119 5e-3 0.0178 7e-3 0.40195 0.14731 0.80935 0.2773 1.2221 0.39494 0.0528 0.0151 0.1056 0.0295 0.15857 0.044 0.41142 0.11303 0.82732 0.21295 1.2489 0.29589 0.0146 3e-3 0.0298 5e-3 0.0446 8e-3 0.42774 0.083 0.86087 0.15064 1.2985 0.20202 0.0242 3e-3 0.0479 7e-3 0.072 0.01 0.43405 0.0492 0.87369 0.0804 1.317 0.0978 0.049 2e-3 0.0986 3e-3 0.14776 5e-3 0.4498 0.0141 0.90276 0.0149 1.3616-5e-3 0.47298-0.0198 0.95087-0.0599 1.4329-0.11589 0.0197-2e-3 0.0394-3e-3 0.0592-6e-3 0.46093-0.055 0.92602-0.12753 1.3947-0.21624 0.0651-0.0124 0.13088-0.0266 0.19615-0.0395 0.45546-0.0906 0.91394-0.19489 1.3762-0.31792-1.0331 0.2117-2.0087 0.3267-2.9257 0.35289-10.171 0.29019-13.34-10.398-12.571-22.536 3e-3 -0.0375 4e-3 -0.0744 6e-3 -0.11201v-1e-3c0.0361-0.55311 0.0797-1.1105 0.13183-1.6685h4.4e-4c0.0522-0.55842 0.11192-1.1186 0.17959-1.6802l4.4e-4 -4.4e-4c0.0677-0.56159 0.1416-1.1249 0.22417-1.6879h4.4e-4c0.0826-0.56295 0.17189-1.1267 0.26875-1.6892h4.4e-4c0.0969-0.56256 0.20026-1.1245 0.31078-1.6847v-4.5e-4c0.11058-0.56026 0.2278-1.1194 0.35154-1.6756l4.4e-4 -4.4e-4c0.24753-1.113 0.51918-2.2148 0.8158-3.3008 0.0678-0.24803 0.14453-0.48825 0.21398-0.73487 0.22714-0.80675 0.45796-1.6103 0.70117-2.3995 0.088-0.28536 0.18196-0.56132 0.27193-0.8443 0.23971-0.75495 0.48039-1.5081 0.73173-2.2441 0.0846-0.24726 0.17345-0.48523 0.2592-0.73034 0.26946-0.77143 0.54079-1.5361 0.81962-2.2836 0.0608-0.16254 0.12292-0.31832 0.18405-0.47977 0.31296-0.82788 0.62816-1.6411 0.94826-2.4358 0.038-0.094 0.0754-0.18543 0.11336-0.27906 0.34295-0.84532 0.68759-1.6693 1.0336-2.4727 0.0251-0.0582 0.0508-0.11418 0.0758-0.17223 1.8491-4.2761 3.6675-7.8586 5.1559-10.591 0.14528-0.26726 0.26672-0.48255 0.40504-0.73294 0.48788-0.8806 0.91541-1.6418 1.2934-2.2875 0.11282-0.19376 0.18983-0.32586 0.29231-0.49919 0.31918-0.53777 0.5621-0.94569 0.75402-1.2554 0.19392-0.31558 0.27573-0.45236 0.35855-0.58273-3.163-7.7207-9.7584-15.922-10.559-15.904zm40.95 0c-0.80054-0.0181-7.3959 8.1836-10.559 15.904 0.0828 0.13037 0.16463 0.26649 0.35854 0.58207 0.19193 0.30973 0.43421 0.71832 0.75339 1.2561 0.10249 0.17333 0.17949 0.30544 0.29231 0.4992 0.37802 0.64563 0.80617 1.4069 1.2941 2.2875 0.13831 0.25038 0.25976 0.46568 0.40503 0.73293 1.4884 2.732 3.3068 6.3138 5.1559 10.59 0.025 0.058 0.0501 0.11405 0.0752 0.17222 0.346 0.80339 0.69128 1.628 1.0342 2.4733 0.038 0.0936 0.0754 0.1844 0.11336 0.27841 0.3201 0.79462 0.63466 1.6079 0.94763 2.4358 0.0611 0.16145 0.12388 0.31787 0.18468 0.48042 0.27883 0.74747 0.55017 1.5122 0.81962 2.2836 0.0857 0.24511 0.17397 0.48309 0.25856 0.73034 0.25135 0.73603 0.49267 1.4885 0.73237 2.2435 0.09 0.28297 0.18392 0.55958 0.27193 0.84494 0.24321 0.78921 0.47402 1.5928 0.70117 2.3995 0.0695 0.24662 0.14557 0.48684 0.21334 0.73487 0.29663 1.086 0.5689 2.1878 0.81644 3.3008l4.4e-4 4.4e-4c0.12373 0.55628 0.24032 1.1154 0.3509 1.6756l4.4e-4 4.4e-4c0.11052 0.5602 0.21393 1.1215 0.31078 1.6841l4.4e-4 4.4e-4c0.0969 0.56256 0.18619 1.1263 0.26875 1.6892h4.4e-4c0.0826 0.56303 0.1565 1.1264 0.22417 1.688v4.4e-4c0.0677 0.56153 0.12802 1.1218 0.18023 1.6802 0.0521 0.55805 0.0957 1.1154 0.13183 1.6685v1e-3c2e-3 0.0376 4e-3 0.0745 7e-3 0.11201 0.76964 12.138-2.3999 22.826-12.571 22.536-0.91701-0.0262-1.8925-0.14118-2.9257-0.35288 0.46228 0.12302 0.92075 0.22731 1.3762 0.31791 0.0653 0.013 0.13038 0.0271 0.19552 0.0395 0.46866 0.0887 0.93439 0.16125 1.3953 0.21624 0.0198 3e-3 0.0395 3e-3 0.0592 5e-3 0.48204 0.056 0.95992 0.0967 1.4329 0.11655 0.45882 0.0195 0.91176 0.0186 1.3616 5e-3 0.0491-1e-3 0.0981-2e-3 0.14711-5e-3 0.44331-0.0174 0.88358-0.0486 1.3176-0.0977 0.0241-3e-3 0.0478-7e-3 0.072-0.01 0.43766-0.0514 0.87078-0.11897 1.2985-0.20202 0.0148-3e-3 0.03-5e-3 0.0446-8e-3 0.42154-0.0829 0.83681-0.18288 1.2482-0.29589 0.053-0.0145 0.10579-0.0289 0.15857-0.044 0.41276-0.11765 0.82079-0.24763 1.2227-0.39495 6e-3 -2e-3 0.0125-4e-3 0.0179-7e-3 0.41199-0.15149 0.8181-0.31917 1.2183-0.50113 0.0187-9e-3 0.0381-0.0153 0.0567-0.024 0.38598-0.17712 0.7655-0.37008 1.14-0.57495 0.0514-0.0281 0.10228-0.0569 0.15348-0.0855 0.76771-0.42956 1.5117-0.91697 2.2277-1.4594 0.0134-0.0105 0.0263-0.0206 0.0408-0.0298 0.35804-0.27266 0.709-0.55862 1.0533-0.85853 0.0291-0.0255 0.0573-0.0531 0.0866-0.0784 0.62904-0.55388 1.2325-1.1558 1.8131-1.7973 0.24073-0.2662 0.47357-0.54423 0.70562-0.82488 0.13052-0.15802 0.26527-0.31005 0.39294-0.47265l2e-3 3e-3c0.28594-0.36339 0.56174-0.74249 0.83299-1.1285 0.0637-0.0894 0.13161-0.17318 0.19424-0.26417 0.0151-0.0226 0.0299-0.0451 0.0452-0.0673 0.29933-0.43917 0.58797-0.89502 0.86865-1.361 0.0586-0.0974 0.11874-0.19323 0.17641-0.29199 0.27648-0.47106 0.54156-0.95747 0.7986-1.4542 0.0574-0.11106 0.11423-0.22254 0.17067-0.33472 0.25168-0.50034 0.49435-1.0118 0.72601-1.5364 0.0506-0.11444 0.0994-0.23076 0.14902-0.34639 0.23266-0.5425 0.4571-1.0946 0.66805-1.6614 0.0313-0.0842 0.0609-0.17105 0.0917-0.25575 0.19639-0.53955 0.38206-1.0911 0.55851-1.6517 0.03-0.0952 0.0623-0.18783 0.0917-0.28359 0.18276-0.59598 0.35166-1.205 0.51139-1.8233 0.0322-0.12475 0.0649-0.24797 0.0962-0.37361 0.15206-0.61092 0.29179-1.2334 0.42095-1.8647 0.0298-0.14533 0.0581-0.29136 0.0866-0.43768 0.12281-0.63085 0.2367-1.2699 0.33625-1.9197 0.0222-0.14469 0.0415-0.29211 0.0624-0.43767 0.0937-0.64972 0.17839-1.3062 0.24837-1.9735 8e-3 -0.0753 0.0154-0.15043 0.0229-0.22598 0.0706-0.70136 0.12495-1.4132 0.16877-2.1328 7e-3 -0.10957 0.0163-0.21823 0.0223-0.32826 0.0387-0.70404 0.0619-1.4182 0.0745-2.1386 3e-3 -0.17658 6e-3 -0.35343 8e-3 -0.53092 6e-3 -0.71198 1.2e-4 -1.43-0.0198-2.1567-4e-3 -0.15086-0.0113-0.30251-0.0166-0.45388-0.0265-0.76492-0.0639-1.5367-0.11973-2.3166-6e-3 -0.0826-0.0141-0.16586-0.0204-0.24862-0.0575-0.76246-0.12922-1.5319-0.21525-2.3076-0.0119-0.10671-0.0207-0.21227-0.0331-0.31921-0.0915-0.79059-0.20239-1.5898-0.32415-2.393-0.0232-0.15348-0.045-0.3064-0.0694-0.46035-0.12675-0.80019-0.2693-1.6067-0.42669-2.4183-0.0293-0.15118-0.06-0.30295-0.0904-0.45452-0.16556-0.82541-0.34482-1.6557-0.54259-2.4914-0.0287-0.12143-0.0604-0.24356-0.0898-0.36516-0.21298-0.88035-0.43896-1.7634-0.68842-2.654 0-8.9e-4 -8.9e-4 -3e-3 -1e-3 -3e-3 -0.29682-0.96858-0.61471-1.9401-0.94954-2.9097v-1e-3c-0.33494-0.97009-0.68724-1.939-1.0527-2.9019-0.36548-0.963-0.74391-1.9206-1.1323-2.8683h-4.5e-4c-0.38826-0.94717-0.78536-1.8851-1.189-2.8087-8.9e-4 -2e-3 -2e-3 -2e-3 -2e-3 -3e-3 -0.808-1.8488-1.6396-3.6411-2.464-5.3461-0.30591-0.63267-0.60827-1.2393-0.91069-1.8459-0.1043-0.20906-0.21039-0.43-0.31396-0.63581-8.8e-4 -1e-3 -2e-3 -4e-3 -3e-3 -5e-3 -0.0951-0.189-0.18638-0.36172-0.28084-0.54775-2.7187-5.3522-5.1481-9.4778-6.1156-11.078-0.28698-0.4745-0.44579-0.72905-0.44579-0.72905z" fill="url(#n)" stroke-width="5.3015"/><g transform="matrix(1.1886 0 0 1.1886 -32.437 4.4069)"><path d="m288.91 171.06v-46.47c0-4.9373-4.0013-8.9383-8.936-8.9383h-182.31c-4.9349 0-8.936 4.0012-8.936 8.9383v46.47c0 4.9349 4.0013 8.936 8.936 8.936h182.31c4.9349 0 8.936-4.0013 8.936-8.936z" fill="#fff" opacity=".2" stroke="#000" stroke-width="4.4484"/><g stroke-width=".59312"><path d="m126.32 46.955v70.728c0 5.6787-4.6036 10.282-10.282 10.282-5.6786 0-10.282-4.6036-10.282-10.282v-70.728c0-5.6787 4.6036-10.282 10.282-10.282 5.6787 0 10.282 4.6036 10.282 10.282z"/><path d="m288.91 171.06v-46.47c0-4.9373-4.0013-8.9383-8.936-8.9383h-182.31c-4.9349 0-8.936 4.0012-8.936 8.9383v46.47c0 4.9349 4.0013 8.936 8.936 8.936h182.31c4.9349 0 8.936-4.0013 8.936-8.936z" fill="#fff"/></g><g transform="matrix(.59312 0 0 .59312 74.94 -16.376)" stroke="#000" stroke-linecap="round"><path d="m143.79 263.26-24.105 36.16" fill="#070707" opacity=".3" stroke-width="18.08"/><path d="m143.62 249.62a9.0409 9.0409 0 0 0-7.3476 4.1309l-24.104 36.16a9.0409 9.0409 0 1 0 15.043 10.027l24.105-36.16a9.0409 9.0409 0 0 0-7.6973-14.158z" color="#000000" color-rendering="auto" dominant-baseline="auto" image-rendering="auto" shape-rendering="auto" solid-color="#000000" stroke="none" style="font-feature-settings:normal;font-variant-alternates:normal;font-variant-caps:normal;font-variant-ligatures:normal;font-variant-numeric:normal;font-variant-position:normal;isolation:auto;mix-blend-mode:normal;shape-padding:0;text-decoration-color:#000000;text-decoration-line:none;text-decoration-style:solid;text-indent:0;text-orientation:mixed;text-transform:none;white-space:normal"/><path d="m107.62 263.26-24.105 36.16" fill="#070707" opacity=".3" stroke-width="18.08"/><path d="m107.45 249.62a9.0409 9.0409 0 0 0-7.3476 4.1309l-24.105 36.16a9.0409 9.0409 0 1 0 15.045 10.027l24.105-36.16a9.0409 9.0409 0 0 0-7.6973-14.158z" color="#000000" color-rendering="auto" dominant-baseline="auto" image-rendering="auto" shape-rendering="auto" solid-color="#000000" stroke="none" style="font-feature-settings:normal;font-variant-alternates:normal;font-variant-caps:normal;font-variant-ligatures:normal;font-variant-numeric:normal;font-variant-position:normal;isolation:auto;mix-blend-mode:normal;shape-padding:0;text-decoration-color:#000000;text-decoration-line:none;text-decoration-style:solid;text-indent:0;text-orientation:mixed;text-transform:none;white-space:normal"/><path d="m71.465 263.26-24.109 36.16" fill="#070707" opacity=".3" stroke-width="18.08"/><path d="m71.291 249.62a9.0409 9.0409 0 0 0-7.3477 4.1309l-24.109 36.158a9.0409 9.0409 0 1 0 15.043 10.031l24.109-36.16a9.0409 9.0409 0 0 0-7.6953-14.16z" color="#000000" color-rendering="auto" dominant-baseline="auto" image-rendering="auto" shape-rendering="auto" solid-color="#000000" stroke="none" style="font-feature-settings:normal;font-variant-alternates:normal;font-variant-caps:normal;font-variant-ligatures:normal;font-variant-numeric:normal;font-variant-position:normal;isolation:auto;mix-blend-mode:normal;shape-padding:0;text-decoration-color:#000000;text-decoration-line:none;text-decoration-style:solid;text-indent:0;text-orientation:mixed;text-transform:none;white-space:normal"/><path d="m179.95 263.26-24.105 36.16" fill="#070707" opacity=".3" stroke-width="18.08"/><path d="m179.78 249.62a9.0409 9.0409 0 0 0-7.3477 4.1309l-24.105 36.16a9.0409 9.0409 0 1 0 15.045 10.027l24.105-36.16a9.0409 9.0409 0 0 0-7.6973-14.158z" color="#000000" color-rendering="auto" dominant-baseline="auto" image-rendering="auto" shape-rendering="auto" solid-color="#000000" stroke="none" style="font-feature-settings:normal;font-variant-alternates:normal;font-variant-caps:normal;font-variant-ligatures:normal;font-variant-numeric:normal;font-variant-position:normal;isolation:auto;mix-blend-mode:normal;shape-padding:0;text-decoration-color:#000000;text-decoration-line:none;text-decoration-style:solid;text-indent:0;text-orientation:mixed;text-transform:none;white-space:normal"/></g><g stroke-width=".59312"><path d="m224.57 137.98c0 4.9349-4.0012 8.936-8.9383 8.936-4.9349 0-8.936-4.0013-8.936-8.936 0-4.9349 4.0013-8.936 8.936-8.936 4.9373 0 8.9383 4.0012 8.9383 8.936z" fill="#070707" opacity=".3"/><path d="m224.57 135.31c0 4.9349-4.0012 8.936-8.9383 8.936-4.9349 0-8.936-4.0012-8.936-8.936 0-4.935 4.0013-8.936 8.936-8.936 4.9373 0 8.9383 4.0012 8.9383 8.936z" fill="#17a185"/><path d="m253.16 137.98c0 4.9349-3.9989 8.936-8.936 8.936-4.935 0-8.936-4.0013-8.936-8.936 0-4.9349 4.0012-8.936 8.936-8.936 4.9372 0 8.936 4.0012 8.936 8.936z" fill="#070707" opacity=".3"/><path d="m253.16 135.31c0 4.9349-3.9989 8.936-8.936 8.936-4.935 0-8.936-4.0012-8.936-8.936 0-4.935 4.0012-8.936 8.936-8.936 4.9372 0 8.936 4.0012 8.936 8.936z" fill="#b8184a"/><path d="m278.19 137.98c0 4.9349-3.9989 8.936-8.936 8.936-4.935 0-8.936-4.0013-8.936-8.936 0-4.9349 4.0013-8.936 8.936-8.936 4.9373 0 8.936 4.0012 8.936 8.936z" fill="#070707" opacity=".3"/><path d="m278.19 135.31c0 4.9349-3.9989 8.936-8.936 8.936-4.935 0-8.936-4.0012-8.936-8.936 0-4.935 4.0013-8.936 8.936-8.936 4.9373 0 8.936 4.0012 8.936 8.936z" fill="#ffcc42"/></g><use transform="matrix(.59312 0 0 .59312 74.94 100.08)" width="100%" height="100%" mask="url(#c)" xlink:href="#b"/><path d="m88.731 166.61v4.4484c0 4.9351 4.0009 8.936 8.936 8.936h182.3c4.9351 0 8.936-4.001 8.936-8.936v-4.4484c0 4.9351-4.0009 8.936-8.936 8.936h-182.3c-4.9351 0-8.936-4.0009-8.936-8.936z" opacity=".3" stroke-width=".59311"/><path transform="matrix(.75 0 0 .75 1.4979e-6 -50.972)" d="m154.72 116.86c-7.5712 0-13.709 6.1374-13.709 13.709v10c0-7.5716 6.1378-13.711 13.709-13.711 7.5716 0 13.709 6.1397 13.709 13.711v-10c0-7.5712-6.1374-13.709-13.709-13.709z" fill="#ffdbdb" opacity=".1" stroke-width=".79083"/></g><path d="m264.33 163.19c-1.444-7e-3 -2.7276 0.92129-3.1714 2.2954l-28.238 87.538-7.6992 2.3687c-1.5719 0.48384-2.5512 2.0468-2.3013 3.6724l1.4385 9.3501c0.25966 1.6862 1.7565 2.8995 3.46 2.8052l12.945-0.71924c1.3389-0.0744 2.5022-0.94794 2.9458-2.2134l25.693-73.286 43.343 71.279 4.0034 25.699c0.12846 0.82403 0.5637 1.5694 1.2173 2.0874l18.365 14.558c2.8805 2.2832 6.7826-1.1186 4.9131-4.2832l-8.9839-15.204-2.7129-25.507c-0.0538-0.50798-0.22422-0.99699-0.49804-1.4282l-61.938-97.475c-0.60546-0.9524-1.6532-1.5314-2.7817-1.5366zm-144.78 2e-3c-1.0842 0.0452-2.078 0.61932-2.6602 1.5352l-61.938 97.475c-0.27383 0.43123-0.44423 0.92024-0.49805 1.4282l-2.7129 25.507-8.9839 15.204c-1.8671 3.1638 2.0327 6.5633 4.9131 4.2832l18.366-14.558c0.65325-0.5182 1.0876-1.2635 1.2158-2.0874l4.0034-25.699 43.343-71.279 25.695 73.286c0.44348 1.2651 1.6043 2.1386 2.9429 2.2134l12.946 0.71924c1.7034 0.0943 3.2003-1.119 3.46-2.8052l1.4385-9.3501c0.24991-1.6256-0.72941-3.1885-2.3013-3.6724l-7.6992-2.3687-28.238-87.538c-0.45768-1.4174-1.8048-2.3558-3.293-2.294z" color="#000000" color-rendering="auto" dominant-baseline="auto" fill="#087142" image-rendering="auto" shape-rendering="auto" solid-color="#000000" stroke="#000" stroke-linejoin="round" stroke-opacity=".31373" stroke-width="6.63" style="font-feature-settings:normal;font-variant-alternates:normal;font-variant-caps:normal;font-variant-ligatures:normal;font-variant-numeric:normal;font-variant-position:normal;isolation:auto;mix-blend-mode:normal;shape-padding:0;text-decoration-color:#000000;text-decoration-line:none;text-decoration-style:solid;text-indent:0;text-orientation:mixed;text-transform:none;white-space:normal"/><g transform="translate(1.4261)"><path d="m222.36 259.92c-6.1229 15.665-22.335 31.565-31.531 31.531-14.25-0.0528-24.601-18.141-31.531-31.531-8.0044-15.466 14.117-31.531 31.531-31.531s37.871 15.312 31.531 31.531z" fill="url(#d)" style="paint-order:normal"/><ellipse cx="190.57" cy="245.41" rx="21.966" ry="15.051" fill="url(#m)" opacity=".5" style="paint-order:normal"/><g><ellipse transform="translate(-.0011173 -13.301)" cx="185.18" cy="269.76" rx="3.3055" ry="4.0247" style="paint-order:normal"/><ellipse transform="translate(-.0011173 -13.301)" cx="193.67" cy="269.6" rx="3.3055" ry="4.0247" style="paint-order:normal"/><ellipse transform="translate(-.0011173 -13.301)" cx="186.12" cy="278.77" rx="3.3055" ry="4.0247" style="paint-order:normal"/><ellipse transform="translate(-.0011173 -13.301)" cx="193.31" cy="278.77" rx="3.3055" ry="4.0247" style="paint-order:normal"/><ellipse transform="translate(-.0011173 -13.301)" cx="201.05" cy="273.56" rx="3.3055" ry="4.0247" style="paint-order:normal"/></g><path d="m158.12 249.45c-0.89565 3.3923-0.6495 6.9489 1.1763 10.477 6.9302 13.39 17.281 31.478 31.531 31.531 9.1965 0.0341 25.409-15.866 31.532-31.531 1.3216-3.3812 1.4652-6.7202 0.72803-9.8918-0.18594 0.79447-0.41508 1.5914-0.72803 2.392-6.1229 15.665-22.336 31.564-31.532 31.531-14.25-0.0528-24.601-18.14-31.531-31.531-0.51291-0.99105-0.90157-1.985-1.1763-2.9766z" opacity=".3" stroke-width=".75" style="paint-order:normal"/><ellipse cx="177.67" cy="260.8" rx="3.3055" ry="4.0247" style="paint-order:normal"/><path d="m173.4 281.96c3.9649 4.7094 8.866 9.1184 15.03 10.526 2.7405 0.66844 5.6794 0.52904 8.2673-0.6386 4.1628-1.7551 7.7586-4.5963 11.044-7.6524-1.0318-3.5918-5.7481-1.7691-5.4425-9.0408 0.10177-2.4214-3.7761-2.9023-5.878-3.5782-1.5538-0.49961-2.9715 0.6876-4.6055 0.47567-1.9222-0.24929-5.3876-1.0357-7.2568-0.99258-2.1706 0.0501-6.2378 1.0644-5.1578 2.6979 2.5875 3.9139-4.8619 4.6981-6.0011 8.2025z" fill="#b8174c" style="paint-order:normal"/><g id="o" transform="matrix(.87398 0 0 .74264 24.902 57.092)"><path d="m192.49 297.84c0.34361-5.0786-4.1698-11.805-9.8092-9.6155-4.0155 3.556-3.7264 9.8335-4.4195 14.77 0.60989 5.534 0.11157 11.35-3.9738 15.535-2.08 4.2048-1.2976 11.159 2.9931 13.706 2.6061 0.51383-2.6827-4.9556-0.75764-7.6207 0.14977-2.5509 1.4757-7.312 1.8936-1.9744-1.2586 4.5828 7.7798 7.6566 8.6109 5.5008-7.4233-0.64833-7.1456-10.353-0.70437-12.4 5.2304-4.3328 6.1324-11.535 6.1669-17.901z" fill="url(#a)"/><path transform="scale(.75)" d="m256.55 394.67c-0.38936 7.5048-2.1044 15.332-8.1191 20.314-5.4097 1.7191-7.5535 7.4883-5.9297 11.74 0.89143-2.5324 2.8935-4.7754 5.9297-5.7402 6.9739-5.777 8.1766-15.379 8.2227-23.867 0.0536-0.79265 0.0124-1.617-0.10352-2.4473zm-18.604 7.0742c-0.0796 0.76299-0.16164 1.5194-0.26368 2.2461 0.0684 0.62095 0.10877 1.2463 0.1543 1.8711 0.12055-1.36 0.1503-2.7372 0.10938-4.1172zm-0.84961 19.211c-0.71673-0.20897-1.5951 3.523-1.7324 5.8613-0.96254 1.3326-0.5729 3.1907 0.10743 4.957 0.42657-3.4515 1.9134-8.0348 2.418-1.5898-1.6781 6.1104 10.372 10.208 11.48 7.334-4.5068-0.39361-6.8777-3.291-7.3203-6.5879-2.7078-1.4688-4.9472-3.8801-4.1602-6.7461-0.17411-2.224-0.46718-3.1335-0.79296-3.2285zm-5.9219 7.582c-0.93088 5.3325 0.65198 11.742 5.1992 14.441 2.6393 0.52038-0.78591-3.561-1.4648-7.1113-2.0064-1.8215-3.2368-4.4792-3.7344-7.3301z" opacity=".3"/></g><use transform="matrix(-1 0 0 1 383.22 -.47791)" width="100%" height="100%" xlink:href="#o"/><path d="m193.7 253.67a3.3055 4.0247 0 0 0-3.3062 4.0239 3.3055 4.0247 0 0 0 3.3062 4.0254 3.3055 4.0247 0 0 0 3.3047-4.0254 3.3055 4.0247 0 0 0-3.3047-4.0239zm-8.4902 0.15967a3.3055 4.0247 0 0 0-3.3062 4.0254 3.3055 4.0247 0 0 0 3.3062 4.0239 3.3055 4.0247 0 0 0 3.3047-4.0239 3.3055 4.0247 0 0 0-3.3047-4.0254zm15.87 3.7998a3.3055 4.0247 0 0 0-3.3062 4.0254 3.3055 4.0247 0 0 0 3.3062 4.0239 3.3055 4.0247 0 0 0 3.3047-4.0239 3.3055 4.0247 0 0 0-3.3047-4.0254zm-23.38 0.54052a3.3055 4.0247 0 0 0-3.3062 4.0239 3.3055 4.0247 0 0 0 3.3062 4.0254 3.3055 4.0247 0 0 0 3.3062-4.0254 3.3055 4.0247 0 0 0-3.3062-4.0239zm8.4492 4.6699a3.3055 4.0247 0 0 0-3.3047 4.0254 3.3055 4.0247 0 0 0 3.3047 4.0239 3.3055 4.0247 0 0 0 3.3062-4.0239 3.3055 4.0247 0 0 0-3.3062-4.0254zm7.1909 0a3.3055 4.0247 0 0 0-3.3062 4.0254 3.3055 4.0247 0 0 0 3.3062 4.0239 3.3055 4.0247 0 0 0 3.3047-4.0239 3.3055 4.0247 0 0 0-3.3047-4.0254z" opacity=".5" style="paint-order:normal"/><path d="m190.83 228.39c-16.298 0-36.718 14.072-32.707 28.554 3.0307-11.48 19.264-21.054 32.707-21.054 13.784 0 29.462 9.5955 32.26 21.639 3.5809-15.3-15.706-29.139-32.26-29.139z" fill="#fff" opacity=".1" stroke-width=".75" style="paint-order:normal"/><path transform="matrix(.75 0 0 .75 -1.4261 0)" d="m247.98 361.41c-2.8941 0.0668-8.3169 1.4196-6.877 3.5977 3.45 5.2185-6.4831 6.263-8.002 10.936 0.82843 0.98399 1.6984 1.9499 2.5898 2.9004 3.2684-2.4199 7.9453-4.0042 5.4121-7.8359-1.4399-2.1781 3.9828-3.5309 6.877-3.5977 2.4923-0.05748 7.1129 0.98988 9.6758 1.3223 2.1787 0.28257 4.0689-1.299 6.1406-0.63281 2.8025 0.90114 7.9736 1.541 7.8379 4.7695-0.25561 6.0817 2.123 7.393 4.2715 8.707 1.0161-0.86294 2.0126-1.7486 2.9844-2.6523-1.3757-4.789-7.6634-2.3592-7.2559-12.055 0.1357-3.2285-5.0354-3.8684-7.8379-4.7695-2.0717-0.66615-3.9619 0.91538-6.1406 0.63281-2.5629-0.33239-7.1835-1.3798-9.6758-1.3223z" opacity=".3" stroke-width="1.3333" style="paint-order:normal"/></g><path d="m243.09 223.82a4.973 4.973 0 0 0-4.7549 3.4438l-19.519 60.514-4.1279 1.2686a4.973 4.973 0 0 0-3.4526 5.5107l1.0151 6.602a4.973 4.973 0 0 0 5.1914 4.2085l9.1406-0.50829a4.973 4.973 0 0 0 4.4165-3.3193l16.305-46.504 27.445 45.138 2.748 17.631a4.973 4.973 0 0 0 1.8237 3.1318l12.97 10.28a4.973 4.973 0 0 0 7.3696-6.4263l-6.0527-10.244-1.856-17.445a4.973 4.973 0 0 0-0.74854-2.1416l-43.739-68.836a4.973 4.973 0 0 0-4.1748-2.3042zm-102.36 3e-3a4.973 4.973 0 0 0-3.9917 2.3013l-43.739 68.836a4.973 4.973 0 0 0-0.74707 2.1415l-1.856 17.445-6.0527 10.244a4.973 4.973 0 0 0 7.3696 6.4263l12.97-10.28a4.973 4.973 0 0 0 1.8237-3.1318l2.7451-17.631 27.448-45.138 16.302 46.504a4.973 4.973 0 0 0 4.418 3.3193l9.1421 0.50829a4.973 4.973 0 0 0 5.1899-4.2085l1.0151-6.602a4.973 4.973 0 0 0-3.4512-5.5107l-4.1279-1.2686-19.521-60.514a4.973 4.973 0 0 0-4.938-3.4409z" color="#000000" color-rendering="auto" dominant-baseline="auto" fill="#087142" image-rendering="auto" shape-rendering="auto" solid-color="#000000" stroke="#000" stroke-linejoin="round" stroke-opacity=".31373" stroke-width="7.5" style="font-feature-settings:normal;font-variant-alternates:normal;font-variant-caps:normal;font-variant-ligatures:normal;font-variant-numeric:normal;font-variant-position:normal;isolation:auto;mix-blend-mode:normal;shape-padding:0;text-decoration-color:#000000;text-decoration-line:none;text-decoration-style:solid;text-indent:0;text-orientation:mixed;text-transform:none;white-space:normal"/><path transform="scale(.75)" d="m260.14 336.41a4.4073 5.3663 0 0 0-4.4082 5.3652 4.4073 5.3663 0 0 0 0.08007 1.0039 4.4073 5.3663 0 0 1 4.3281-4.3691 4.4073 5.3663 0 0 1 4.3262 4.3613 4.4073 5.3663 0 0 0 0.08008-0.99609 4.4073 5.3663 0 0 0-4.4062-5.3652zm-11.32 0.21289a4.4073 5.3663 0 0 0-4.4082 5.3672 4.4073 5.3663 0 0 0 0.08008 1.002 4.4073 5.3663 0 0 1 4.3281-4.3691 4.4073 5.3663 0 0 1 4.3262 4.3633 4.4073 5.3663 0 0 0 0.08008-0.9961 4.4073 5.3663 0 0 0-4.4062-5.3672zm21.16 5.0664a4.4073 5.3663 0 0 0-4.4082 5.3672 4.4073 5.3663 0 0 0 0.08008 1.002 4.4073 5.3663 0 0 1 4.3281-4.3691 4.4073 5.3663 0 0 1 4.3262 4.3633 4.4073 5.3663 0 0 0 0.08008-0.99609 4.4073 5.3663 0 0 0-4.4062-5.3672zm-31.174 0.72071a4.4073 5.3663 0 0 0-4.4082 5.3652 4.4073 5.3663 0 0 0 0.08008 1.0039 4.4073 5.3663 0 0 1 4.3281-4.3691 4.4073 5.3663 0 0 1 4.3281 4.3633 4.4073 5.3663 0 0 0 0.08008-0.99805 4.4073 5.3663 0 0 0-4.4082-5.3652zm11.227 6.2012a4.4073 5.3663 0 0 0-4.4082 5.3672 4.4073 5.3663 0 0 0 0.08008 1.002 4.4073 5.3663 0 0 1 4.3281-4.3691 4.4073 5.3663 0 0 1 4.3262 4.3633 4.4073 5.3663 0 0 0 0.08008-0.99609 4.4073 5.3663 0 0 0-4.4062-5.3672zm9.627 0.06836a4.4073 5.3663 0 0 0-4.4082 5.3672 4.4073 5.3663 0 0 0 0.08007 1.002 4.4073 5.3663 0 0 1 4.3281-4.3691 4.4073 5.3663 0 0 1 4.3262 4.3633 4.4073 5.3663 0 0 0 0.08008-0.99609 4.4073 5.3663 0 0 0-4.4062-5.3672z" fill="#fff" opacity=".3" stroke-width="1.3333" style="paint-order:normal"/></svg>
