<svg xmlns="http://www.w3.org/2000/svg" width="12pt" height="12pt" version="1.1" viewBox="0 0 12 12">
 <g>
  <path style="fill:rgb(82.745098%,85.490196%,89.019608%)" d="M 10.546875 3.375 C 9.097656 0.863281 5.886719 0.00390625 3.375 1.453125 C 0.863281 2.902344 0.00390625 6.113281 1.453125 8.625 C 2.902344 11.136719 6.113281 11.996094 8.625 10.546875 C 11.136719 9.097656 11.996094 5.886719 10.546875 3.375 Z M 9.246094 4.125 C 10.15625 5.695312 9.796875 7.652344 8.488281 8.808594 L 8.898438 9.523438 L 6.199219 9.347656 L 7.398438 6.925781 L 7.707031 7.453125 C 8.304688 6.75 8.4375 5.722656 7.949219 4.875 C 7.679688 4.410156 7.253906 4.058594 6.75 3.882812 L 6.75 2.332031 C 7.800781 2.542969 8.710938 3.199219 9.246094 4.125 Z M 5.800781 2.652344 L 4.601562 5.074219 L 4.292969 4.546875 C 3.695312 5.25 3.5625 6.277344 4.050781 7.125 C 4.320312 7.589844 4.746094 7.941406 5.25 8.117188 L 5.25 9.667969 C 4.199219 9.457031 3.289062 8.800781 2.753906 7.875 C 1.84375 6.304688 2.203125 4.347656 3.511719 3.191406 L 3.101562 2.476562 Z M 5.800781 2.652344"/>
 </g>
</svg>
