<svg xmlns="http://www.w3.org/2000/svg" width="12pt" height="12pt" version="1.1" viewBox="0 0 12 12">
 <g>
  <path style="fill-rule:evenodd;fill:rgb(82.745098%,85.490196%,89.019608%)" d="M 4.117188 3.75 C 3.75 3.75 3.324219 4.578125 2.875 5.453125 C 2.792969 5.617188 2.710938 5.773438 2.632812 5.921875 C 2.378906 6.449219 2.039062 7.28125 1.707031 7.5 C 1.429688 7.683594 1.132812 7.804688 0.894531 7.804688 C 0.734375 7.804688 0.671875 7.746094 0.652344 7.726562 C 0.542969 7.601562 0.414062 7.5 0.3125 7.5 C 0.171875 7.5 0 7.5 0 7.875 C 0 9 1.917969 9.667969 2.765625 9.738281 C 2.886719 9.746094 3.007812 9.75 3.128906 9.75 L 3.160156 9.75 C 4.074219 9.730469 4.898438 9.222656 5.367188 8.394531 C 5.460938 8.222656 5.601562 8.25 5.625 8.25 C 5.648438 8.25 5.789062 8.222656 5.882812 8.394531 C 6.351562 9.222656 7.175781 9.730469 8.089844 9.75 L 8.121094 9.75 C 8.242188 9.75 8.363281 9.746094 8.484375 9.738281 C 9.332031 9.667969 11.25 9 11.25 7.875 C 11.25 7.5 11.078125 7.5 10.9375 7.5 C 10.835938 7.5 10.707031 7.601562 10.59375 7.726562 C 10.578125 7.746094 10.515625 7.804688 10.355469 7.804688 C 10.117188 7.804688 9.820312 7.683594 9.542969 7.5 C 9.210938 7.28125 8.871094 6.449219 8.617188 5.921875 C 8.539062 5.773438 8.457031 5.617188 8.375 5.453125 C 7.925781 4.578125 7.5 3.75 7.132812 3.75 C 6.875 3.75 6.570312 3.972656 6.28125 4.1875 C 6.039062 4.367188 5.789062 4.5 5.625 4.5 C 5.460938 4.5 5.210938 4.367188 4.96875 4.1875 C 4.679688 3.972656 4.378906 3.75 4.117188 3.75 Z M 4.117188 3.75"/>
 </g>
</svg>
