<svg xmlns="http://www.w3.org/2000/svg" width="12pt" height="12pt" version="1.1" viewBox="0 0 12 12">
 <g>
  <path style="fill:rgb(82.745098%,85.490196%,89.019608%)" d="M 6 2.5 C 4.066406 2.5 2.5 4.066406 2.5 6 L 2.5 6.679688 C 2.179688 7.046875 2 7.515625 2 8 C 2 9.105469 2.894531 10 4 10 L 4.5 10 L 4.5 6 L 4 6 C 3.832031 6 3.664062 6.023438 3.5 6.066406 L 3.5 6 C 3.5 4.613281 4.613281 3.5 6 3.5 C 7.386719 3.5 8.5 4.613281 8.5 6 L 8.5 6.066406 C 8.335938 6.023438 8.167969 6 8 6 L 7.5 6 L 7.5 10 L 8 10 C 9.105469 10 10 9.105469 10 8 C 10 7.515625 9.820312 7.046875 9.5 6.679688 L 9.5 6 C 9.5 4.066406 7.933594 2.5 6 2.5 Z M 6 2.5"/>
 </g>
</svg>
