<svg xmlns="http://www.w3.org/2000/svg" width="12pt" height="12pt" version="1.1" viewBox="0 0 12 12">
 <g>
  <path style="fill:rgb(82.745098%,85.490196%,89.019608%)" d="M 2.0625 0.75 C 1.335938 0.75 0.75 1.335938 0.75 2.0625 L 0.75 9.9375 C 0.75 10.664062 1.335938 11.25 2.0625 11.25 L 9.9375 11.25 C 10.664062 11.25 11.25 10.664062 11.25 9.9375 L 11.25 2.0625 C 11.25 1.335938 10.664062 0.75 9.9375 0.75 Z M 4.5 1.5 L 5.25 1.5 L 5.25 2.25 L 7.5 2.25 L 7.5 3.75 L 5.25 3.75 L 5.25 4.5 L 6 4.5 C 6.5625 4.5 7.078125 4.738281 7.40625 5.101562 C 7.730469 5.46875 7.875 5.925781 7.875 6.375 C 7.875 6.824219 7.730469 7.28125 7.40625 7.648438 C 7.078125 8.015625 6.5625 8.25 6 8.25 L 5.25 8.25 L 5.25 9 L 4.5 9 L 4.5 8.25 L 2.25 8.25 L 2.25 6.75 L 4.5 6.75 L 4.5 6 L 3.75 6 C 3.1875 6 2.671875 5.765625 2.34375 5.398438 C 2.019531 5.03125 1.875 4.574219 1.875 4.125 C 1.875 3.675781 2.019531 3.21875 2.34375 2.851562 C 2.671875 2.488281 3.1875 2.25 3.75 2.25 L 4.5 2.25 Z M 3.75 3.75 C 3.5625 3.75 3.515625 3.792969 3.46875 3.851562 C 3.417969 3.90625 3.375 4.011719 3.375 4.125 C 3.375 4.238281 3.417969 4.34375 3.46875 4.398438 C 3.515625 4.457031 3.5625 4.5 3.75 4.5 L 4.5 4.5 L 4.5 3.75 Z M 5.25 6 L 5.25 6.75 L 6 6.75 C 6.1875 6.75 6.234375 6.707031 6.28125 6.652344 C 6.332031 6.59375 6.375 6.488281 6.375 6.375 C 6.375 6.261719 6.332031 6.15625 6.28125 6.101562 C 6.234375 6.042969 6.1875 6 6 6 Z M 6.75 9 L 9.75 9 L 9.75 9.75 L 6.75 9.75 Z M 6.75 9"/>
 </g>
</svg>
