<svg xmlns="http://www.w3.org/2000/svg" width="12pt" height="12pt" version="1.1" viewBox="0 0 12 12">
 <g>
  <path style="fill:rgb(82.745098%,85.490196%,89.019608%)" d="M 3 3.5 L 3 9.5 C 3 9.777344 3.222656 10 3.5 10 L 8.5 10 C 8.777344 10 9 9.777344 9 9.5 L 9 3.5 Z M 4.25 4.5 L 7.75 4.5 C 7.886719 4.5 8 4.613281 8 4.75 L 8 6.75 C 8 6.886719 7.886719 7 7.75 7 L 4.25 7 C 4.113281 7 4 6.886719 4 6.75 L 4 4.75 C 4 4.613281 4.113281 4.5 4.25 4.5 Z M 4.5 5 L 4.5 5.5 L 7.5 5.5 L 7.5 5 Z M 4.5 6 L 4.5 6.5 L 7.5 6.5 L 7.5 6 Z M 4.5 7.5 L 5 7.5 L 5 8 L 5.5 8 L 5.5 7.5 L 6 7.5 L 6 8 L 6.5 8 L 6.5 7.5 L 7 7.5 L 7 8 L 7.5 8 L 7.5 7.5 L 8 7.5 L 8 8 L 7.5 8 L 7.5 8.5 L 8 8.5 L 8 9 L 7.5 9 L 7.5 8.5 L 7 8.5 L 7 9 L 6.5 9 L 6.5 8.5 L 6 8.5 L 6 9 L 5.5 9 L 5.5 8.5 L 5 8.5 L 5 9 L 4.5 9 L 4.5 8.5 L 4 8.5 L 4 8 L 4.5 8 Z M 4.5 8 L 4.5 8.5 L 5 8.5 L 5 8 Z M 5.5 8.5 L 6 8.5 L 6 8 L 5.5 8 Z M 6.5 8.5 L 7 8.5 L 7 8 L 6.5 8 Z M 6.5 8.5"/>
  <path style="fill-rule:evenodd;fill:rgb(82.745098%,85.490196%,89.019608%)" d="M 3 3 L 4 2 L 8 2 L 9 3 Z M 3 3"/>
 </g>
</svg>
