<svg xmlns="http://www.w3.org/2000/svg" width="12pt" height="12pt" version="1.1" viewBox="0 0 12 12">
 <g>
  <path style="fill:rgb(82.745098%,85.490196%,89.019608%)" d="M 0.75 0.75 L 0.75 2.25 C 1.625 2.25 4.03125 2.777344 6.042969 4.179688 C 8.050781 5.578125 9.75 7.75 9.75 11.25 L 11.25 11.25 C 11.25 7.25 9.199219 4.546875 6.898438 2.945312 C 4.59375 1.347656 2.125 0.75 0.75 0.75 Z M 0.75 4.5 L 0.75 6 C 3.375 6 6 7.898438 6 11.25 L 7.5 11.25 C 7.5 7.101562 4.125 4.5 0.75 4.5 Z M 2.25 8.25 C 1.417969 8.25 0.75 8.921875 0.75 9.75 C 0.75 10.578125 1.417969 11.25 2.25 11.25 C 3.078125 11.25 3.75 10.578125 3.75 9.75 C 3.75 8.921875 3.078125 8.25 2.25 8.25 Z M 2.25 8.25"/>
 </g>
</svg>
