<svg xmlns="http://www.w3.org/2000/svg" width="12pt" height="12pt" version="1.1" viewBox="0 0 12 12">
 <g>
  <path style="fill:rgb(82.745098%,85.490196%,89.019608%)" d="M 7.917969 2.6875 C 8.15625 2.824219 8.238281 3.132812 8.101562 3.371094 C 8.09375 3.382812 8.085938 3.398438 8.074219 3.410156 C 8.949219 4.183594 9.191406 5.484375 8.582031 6.535156 L 8.082031 7.402344 L 7.457031 8.484375 L 7.824219 9.851562 L 7.699219 10.066406 L 6.832031 9.566406 L 2.503906 7.066406 L 1.636719 6.566406 L 1.761719 6.351562 L 3.128906 5.984375 L 4.253906 4.035156 C 4.859375 2.984375 6.105469 2.539062 7.214844 2.914062 C 7.21875 2.898438 7.226562 2.882812 7.234375 2.871094 C 7.375 2.632812 7.679688 2.550781 7.917969 2.6875 Z M 5.167969 9.179688 C 4.859375 9.359375 4.476562 9.359375 4.167969 9.183594 C 3.859375 9.003906 3.667969 8.671875 3.667969 8.316406 Z M 5.167969 9.179688"/>
  <path style="fill:rgb(32.156863%,58.039216%,88.627451%)" d="M 10.5 8.5 C 10.5 9.050781 10.050781 9.5 9.5 9.5 C 8.949219 9.5 8.5 9.050781 8.5 8.5 C 8.5 7.949219 8.949219 7.5 9.5 7.5 C 10.050781 7.5 10.5 7.949219 10.5 8.5 Z M 10.5 8.5"/>
 </g>
</svg>
