<svg xmlns="http://www.w3.org/2000/svg" xmlns:xlink="http://www.w3.org/1999/xlink" width="12pt" height="12pt" version="1.1" viewBox="0 0 12 12">
 <defs>
  <filter id="alpha" width="100%" height="100%" x="0%" y="0%" filterUnits="objectBoundingBox">
   <feColorMatrix in="SourceGraphic" type="matrix" values="0 0 0 0 1 0 0 0 0 1 0 0 0 0 1 0 0 0 1 0"/>
  </filter>
  <mask id="mask0">
   <g filter="url(#alpha)">
    <rect width="12" height="12" x="0" y="0" style="fill:rgb(0%,0%,0%);fill-opacity:0.301961"/>
   </g>
  </mask>
  <clipPath id="clip1">
   <rect width="12" height="12" x="0" y="0"/>
  </clipPath>
  <g id="surface5" clip-path="url(#clip1)">
   <path style="fill:rgb(82.745098%,85.490196%,89.019608%)" d="M 6 2 C 5.167969 2 4.5 2.667969 4.5 3.5 L 4.5 5 L 7.5 5 L 7.5 3.5 C 7.5 2.667969 6.832031 2 6 2 Z M 6 2"/>
  </g>
 </defs>
 <g>
  <path style="fill:rgb(82.745098%,85.490196%,89.019608%)" d="M 4.5 5 L 4.5 6 C 4.5 6.832031 5.167969 7.5 6 7.5 C 6.832031 7.5 7.5 6.832031 7.5 6 L 7.5 5 Z M 4.5 5"/>
  <path style="fill:rgb(82.745098%,85.490196%,89.019608%)" d="M 3 5.5 L 3 6 C 3 7.484375 4 9 5.5 9 L 5.5 10 L 6.5 10 L 6.5 9 C 8 9 9 7.484375 9 6 L 9 5.5 L 8 5.5 L 8 6 C 8 7.117188 7.117188 8 6 8 C 4.882812 8 4 7.117188 4 6 L 4 5.5 Z M 3 5.5"/>
  <use mask="url(#mask0)" xlink:href="#surface5"/>
 </g>
</svg>
