<svg xmlns="http://www.w3.org/2000/svg" width="12pt" height="12pt" version="1.1" viewBox="0 0 12 12">
 <g>
  <path style="fill:rgb(82.745098%,85.490196%,89.019608%)" d="M 3 2.5 C 3 2.5 2 2.5 2 3.53125 L 2 8.5 C 2 9.5 3 9.5 3 9.5 L 9 9.5 C 10 9.5 10 8.5 10 8.5 L 10 3.5 C 10 3.5 10 2.5 9 2.5 Z M 3 3.5 L 4 3.5 L 4 5.5 L 4.5 5.5 L 4.5 3.5 L 5.5 3.5 L 5.5 8.5 L 4.5 8.5 L 4.5 6.5 L 4 6.5 C 3 6.5 3 5.5 3 5.5 Z M 7 3.5 L 8 3.5 C 9 3.5 9 4.5 9 4.5 L 9 5 L 8 5 L 8 4.5 L 7 4.5 L 7 7.5 L 8 7.5 L 8 6.5 L 7.5 6.5 L 7.5 5.515625 L 8.5 5.5 L 9 5.515625 L 9 7.484375 C 9 7.484375 9 8.5 8 8.5 L 7 8.5 C 7 8.5 6 8.5 6 7.5 L 6 4.5 C 6 3.5 7 3.5 7 3.5 Z M 7 3.5"/>
 </g>
</svg>
