<svg xmlns="http://www.w3.org/2000/svg" width="12pt" height="12pt" version="1.1" viewBox="0 0 12 12">
 <g>
  <path style="fill:rgb(82.745098%,85.490196%,89.019608%)" d="M 3 3 C 2.445312 3 2 3.445312 2 4 L 2 8 C 2 8.554688 2.445312 9 3 9 L 8.5 9 C 7.675781 9 7 8.324219 7 7.5 C 7 6.675781 7.675781 6 8.5 6 C 9.324219 6 10 6.675781 10 7.5 L 10 4 C 10 3.445312 9.554688 3 9 3 Z M 3 4 L 6 5.5 L 9 4 L 9 5 L 6 6.5 L 3 5 Z M 3 4"/>
  <path style="fill:rgb(32.156863%,58.039216%,88.627451%)" d="M 8.5 6.5 C 7.949219 6.5 7.5 6.949219 7.5 7.5 C 7.5 8.050781 7.949219 8.5 8.5 8.5 C 9.050781 8.5 9.5 8.050781 9.5 7.5 C 9.5 6.949219 9.050781 6.5 8.5 6.5 Z M 8.5 6.5"/>
 </g>
</svg>
