<svg xmlns="http://www.w3.org/2000/svg" width="12pt" height="12pt" version="1.1" viewBox="0 0 12 12">
 <g>
  <path style="fill:rgb(82.745098%,85.490196%,89.019608%)" d="M 6 0.75 C 3.101562 0.75 0.75 3.101562 0.75 6 C 0.75 8.898438 3.101562 11.25 6 11.25 C 8.898438 11.25 11.25 8.898438 11.25 6 C 11.25 3.101562 8.898438 0.75 6 0.75 Z M 4.125 3 L 7.875 3 C 8.5 3 9 3.5 9 4.125 L 9 7.875 C 9 8.5 8.5 9 7.875 9 L 4.125 9 C 3.5 9 3 8.5 3 7.875 L 3 4.125 C 3 3.5 3.5 3 4.125 3 Z M 4.9375 4.035156 C 4.84375 4.035156 4.746094 4.070312 4.675781 4.144531 L 4.144531 4.675781 C 3.996094 4.820312 3.996094 5.058594 4.144531 5.203125 L 4.9375 6 L 4.144531 6.796875 C 3.996094 6.941406 3.996094 7.179688 4.144531 7.324219 L 4.675781 7.855469 C 4.820312 8.003906 5.058594 8.003906 5.203125 7.855469 L 6 7.0625 L 6.796875 7.855469 C 6.941406 8.003906 7.179688 8.003906 7.324219 7.855469 L 7.855469 7.324219 C 8.003906 7.179688 8.003906 6.941406 7.855469 6.796875 L 7.0625 6 L 7.855469 5.203125 C 8.003906 5.058594 8.003906 4.820312 7.855469 4.675781 L 7.324219 4.144531 C 7.179688 3.996094 6.941406 3.996094 6.796875 4.144531 L 6 4.9375 L 5.203125 4.144531 C 5.132812 4.070312 5.035156 4.035156 4.9375 4.035156 Z M 4.9375 4.035156"/>
 </g>
</svg>
