<svg xmlns="http://www.w3.org/2000/svg" width="12pt" height="12pt" version="1.1" viewBox="0 0 12 12">
 <g>
  <path style="fill:rgb(82.745098%,85.490196%,89.019608%)" d="M 7.828125 0.75 C 7.773438 0.746094 7.6875 0.785156 7.523438 0.859375 C 7.332031 0.949219 6.902344 1.019531 6.5625 1.019531 C 5.359375 1.046875 4.394531 1.480469 3.613281 2.304688 C 2.558594 3.429688 2.222656 4.847656 2.707031 6.160156 C 2.820312 6.464844 2.886719 6.773438 2.859375 6.847656 C 2.828125 6.921875 2.625 7.125 2.40625 7.300781 C 1.929688 7.683594 1.601562 8.300781 1.519531 8.964844 C 1.472656 9.367188 1.503906 9.554688 1.714844 10.03125 C 2.164062 11.050781 3.1875 11.488281 4.273438 11.125 C 4.90625 10.917969 5.535156 10.171875 6.042969 9.046875 C 6.476562 8.070312 6.496094 8.046875 6.964844 7.875 C 7.753906 7.578125 8.25 7.25 8.746094 6.703125 C 9.621094 5.734375 9.945312 4.476562 9.632812 3.277344 C 9.492188 2.738281 9.371094 2.550781 8.734375 1.863281 C 8.328125 1.429688 7.96875 0.988281 7.933594 0.886719 C 7.90625 0.796875 7.882812 0.753906 7.828125 0.75 Z M 7.628906 2.15625 C 7.785156 2.140625 7.976562 2.277344 8.253906 2.5625 C 9.339844 3.695312 9.226562 5.40625 8.003906 6.390625 C 7.480469 6.808594 7.359375 6.835938 6.996094 6.609375 C 6.789062 6.480469 6.75 6.359375 6.75 5.882812 C 6.753906 5.148438 7.035156 3.355469 7.257812 2.675781 C 7.367188 2.347656 7.476562 2.175781 7.628906 2.15625 Z M 6.023438 2.25 C 6.386719 2.25 6.667969 2.363281 6.746094 2.582031 C 6.769531 2.652344 6.664062 2.992188 6.507812 3.332031 C 6.105469 4.210938 5.976562 4.695312 5.734375 6.246094 C 5.433594 8.167969 5.105469 8.996094 4.445312 9.496094 C 4.03125 9.808594 3.515625 9.835938 3.246094 9.558594 C 3.007812 9.316406 2.941406 9.019531 3.050781 8.703125 C 3.136719 8.453125 3.472656 8.414062 4.105469 8.320312 C 4.546875 8.253906 4.859375 7.949219 4.859375 7.546875 C 4.859375 7.296875 4.757812 7.152344 4.414062 6.792969 C 3.882812 6.230469 3.402344 5.691406 3.398438 5.015625 C 3.394531 3.953125 3.917969 3.046875 4.804688 2.574219 C 5.210938 2.355469 5.65625 2.25 6.023438 2.25 Z M 6.023438 2.25"/>
 </g>
</svg>
