<svg xmlns="http://www.w3.org/2000/svg" width="12pt" height="12pt" version="1.1" viewBox="0 0 12 12">
 <g>
  <path style="fill:rgb(82.745098%,85.490196%,89.019608%)" d="M 2.074219 2.5 C 1.757812 2.5 1.503906 2.765625 1.503906 3.097656 L 1.503906 8.902344 C 1.503906 9.234375 1.757812 9.5 2.074219 9.5 L 9.933594 9.5 C 10.25 9.5 10.503906 9.234375 10.503906 8.902344 L 10.503906 3.097656 C 10.503906 2.765625 10.25 2.5 9.933594 2.5 Z M 4.503906 4 C 5.609375 4 6.503906 4.894531 6.503906 6 C 6.503906 7.105469 5.609375 8 4.503906 8 C 3.398438 8 2.503906 7.105469 2.503906 6 C 2.503906 4.894531 3.398438 4 4.503906 4 Z M 7.003906 4 L 9.503906 4 L 9.503906 4.5 L 7.003906 4.5 Z M 4.503906 4.5 C 3.675781 4.5 3.003906 5.171875 3.003906 6 C 3.003906 6.828125 3.675781 7.5 4.503906 7.5 C 5.332031 7.5 6.003906 6.828125 6.003906 6 C 6.003906 5.171875 5.332031 4.5 4.503906 4.5 Z M 7.003906 5.5 L 9.503906 5.5 L 9.503906 6 L 7.003906 6 Z M 7.003906 7 L 9.503906 7 L 9.503906 7.5 L 7.003906 7.5 Z M 7.003906 7"/>
 </g>
</svg>
