<svg xmlns="http://www.w3.org/2000/svg" width="12pt" height="12pt" version="1.1" viewBox="0 0 12 12">
 <g>
  <path style="fill:rgb(82.745098%,85.490196%,89.019608%)" d="M 5.625 0.75 C 3.894531 0.75 2.449219 2.058594 2.269531 3.777344 C 0.96875 3.953125 0 5.0625 0 6.375 C 0 7.703125 0.988281 8.785156 2.265625 8.964844 C 2.164062 9.371094 1.714844 10.132812 1.566406 10.488281 C 1.375 10.953125 2.152344 11.351562 2.648438 11.230469 C 3.863281 10.941406 5.144531 9.839844 6.003906 9 L 8.269531 9 C 9.925781 9 11.269531 7.65625 11.269531 6 C 11.265625 5.035156 10.800781 4.167969 10.070312 3.613281 C 9.847656 3.703125 9.613281 3.75 9.375 3.75 C 8.339844 3.75 7.5 2.910156 7.5 1.875 C 7.5 1.707031 7.523438 1.535156 7.570312 1.371094 C 7.015625 0.980469 6.339844 0.75 5.625 0.75 Z M 6 6 L 8.25 6 C 8.664062 6 9 6.335938 9 6.75 C 9 7.164062 8.664062 7.5 8.25 7.5 L 6 7.5 C 5.585938 7.5 5.25 7.164062 5.25 6.75 C 5.25 6.335938 5.585938 6 6 6 Z M 6 6"/>
  <path style="fill:rgb(32.156863%,58.039216%,88.627451%)" d="M 10.5 1.875 C 10.5 2.496094 9.996094 3 9.375 3 C 8.753906 3 8.25 2.496094 8.25 1.875 C 8.25 1.253906 8.753906 0.75 9.375 0.75 C 9.996094 0.75 10.5 1.253906 10.5 1.875 Z M 10.5 1.875"/>
 </g>
</svg>
