<svg xmlns="http://www.w3.org/2000/svg" width="12pt" height="12pt" version="1.1" viewBox="0 0 12 12">
 <g>
  <path style="fill:rgb(82.745098%,85.490196%,89.019608%)" d="M 4.5 3 L 4.5 3.007812 C 3.671875 3.007812 3 3.679688 3 4.507812 L 3 4.644531 C 2.847656 4.554688 2.675781 4.507812 2.5 4.507812 C 1.949219 4.507812 1.5 4.953125 1.5 5.503906 L 1.25 5.503906 C 1.183594 5.503906 1.121094 5.53125 1.074219 5.578125 C 1.027344 5.625 1 5.691406 1 5.753906 C 1 5.894531 1.113281 6.003906 1.25 6.003906 L 2.78125 6.003906 C 3.128906 5.410156 3.765625 5.007812 4.5 5.007812 C 4.769531 5.007812 5.027344 5.066406 5.269531 5.167969 C 5.433594 4.792969 5.671875 4.464844 5.96875 4.199219 C 5.824219 3.5 5.210938 3 4.5 3 Z M 7.75 4.003906 L 7.75 4.007812 C 6.640625 4.007812 5.695312 4.820312 5.53125 5.914062 C 5.25 5.652344 4.882812 5.507812 4.5 5.503906 C 3.671875 5.503906 3 6.175781 3 7.003906 C 3 7.175781 3.03125 7.34375 3.089844 7.507812 C 3.058594 7.5 3.03125 7.5 3 7.5 C 2.449219 7.5 2 7.949219 2 8.5 C 2 9.050781 2.449219 9.5 3 9.5 L 3.523438 9.5 C 3.707031 9.449219 3.847656 9.398438 4.003906 9.261719 C 4.175781 9.113281 5.753906 6.511719 7.195312 6.511719 C 7.957031 6.511719 8.699219 6.886719 8.957031 7.910156 C 8.980469 8.007812 9.011719 8.191406 9 8.25 C 9 8.664062 8.664062 9 8.25 9 C 7.835938 9 7.5 8.664062 7.5 8.25 C 7.5 7.839844 7.828125 7.507812 8.238281 7.503906 C 8.003906 7.351562 7.71875 7.265625 7.503906 7.265625 C 6.910156 7.257812 6.542969 7.773438 6.492188 8.238281 C 6.441406 8.691406 6.589844 9.222656 7.496094 9.5 L 9.75 9.5 C 10.441406 9.5 11 8.941406 11 8.25 C 11 7.605469 10.507812 7.070312 9.867188 7.007812 C 9.953125 6.765625 10 6.511719 10 6.253906 C 10 5.011719 8.992188 4.007812 7.75 4.007812 Z M 7.75 4.003906"/>
 </g>
</svg>
