<svg xmlns="http://www.w3.org/2000/svg" width="12pt" height="12pt" version="1.1" viewBox="0 0 12 12">
 <g>
  <path style="fill:rgb(82.745098%,85.490196%,89.019608%)" d="M 8 9.464844 C 9.914062 8.359375 10.570312 5.914062 9.464844 4 C 8.359375 2.085938 5.914062 1.429688 4 2.535156 C 2.085938 3.640625 1.429688 6.085938 2.535156 8 C 3.640625 9.914062 6.085938 10.570312 8 9.464844 Z M 7.5 8.597656 C 6.757812 9.027344 5.863281 9.117188 5.050781 8.84375 C 5.019531 8.871094 4.980469 8.898438 4.941406 8.917969 C 4.585938 9.125 4.125 9.003906 3.917969 8.644531 C 3.820312 8.472656 3.792969 8.273438 3.84375 8.082031 C 3.671875 7.90625 3.523438 7.710938 3.402344 7.5 C 3.082031 6.945312 2.949219 6.304688 3.023438 5.667969 C 2.917969 5.601562 2.832031 5.515625 2.773438 5.410156 C 2.566406 5.050781 2.6875 4.59375 3.046875 4.386719 C 3.195312 4.300781 3.367188 4.269531 3.535156 4.292969 C 3.789062 3.929688 4.117188 3.625 4.5 3.402344 C 5.429688 2.867188 6.570312 2.867188 7.5 3.402344 C 7.507812 3.398438 7.515625 3.394531 7.523438 3.386719 C 7.882812 3.179688 8.339844 3.304688 8.546875 3.664062 C 8.683594 3.898438 8.679688 4.183594 8.542969 4.417969 C 8.5625 4.445312 8.582031 4.472656 8.597656 4.5 C 9.425781 5.933594 8.933594 7.769531 7.5 8.597656 Z M 7.25 8.164062 C 8.445312 7.476562 8.855469 5.945312 8.164062 4.75 C 8.164062 4.746094 8.160156 4.742188 8.160156 4.742188 C 7.945312 4.820312 7.703125 4.796875 7.507812 4.675781 L 6.148438 5.78125 C 6.269531 6.121094 6.128906 6.5 5.816406 6.683594 C 5.695312 6.753906 5.558594 6.789062 5.417969 6.78125 L 5.058594 7.703125 C 5.121094 7.757812 5.175781 7.824219 5.21875 7.894531 C 5.304688 8.046875 5.335938 8.226562 5.308594 8.402344 C 5.960938 8.589844 6.660156 8.503906 7.25 8.164062 Z M 4.59375 7.519531 L 4.953125 6.601562 C 4.886719 6.546875 4.835938 6.480469 4.792969 6.410156 C 4.710938 6.269531 4.679688 6.105469 4.699219 5.945312 L 3.945312 5.570312 C 3.898438 5.617188 3.851562 5.652344 3.796875 5.683594 C 3.710938 5.734375 3.613281 5.765625 3.511719 5.777344 C 3.464844 6.289062 3.578125 6.804688 3.835938 7.25 C 3.921875 7.394531 4.019531 7.535156 4.132812 7.660156 C 4.152344 7.644531 4.171875 7.632812 4.191406 7.621094 C 4.3125 7.550781 4.453125 7.515625 4.59375 7.519531 Z M 5.832031 5.394531 L 7.191406 4.289062 C 7.136719 4.132812 7.132812 3.960938 7.1875 3.800781 C 6.425781 3.390625 5.5 3.402344 4.75 3.835938 C 4.445312 4.011719 4.183594 4.25 3.980469 4.535156 C 4.015625 4.574219 4.046875 4.613281 4.070312 4.660156 C 4.152344 4.800781 4.183594 4.964844 4.164062 5.125 L 4.917969 5.496094 C 4.964844 5.453125 5.011719 5.414062 5.066406 5.382812 C 5.304688 5.246094 5.597656 5.25 5.832031 5.394531 Z M 5.832031 5.394531"/>
 </g>
</svg>
