<svg xmlns="http://www.w3.org/2000/svg" width="12pt" height="12pt" version="1.1" viewBox="0 0 12 12">
 <g>
  <path style="fill:rgb(82.745098%,85.490196%,89.019608%)" d="M 2.289062 2.289062 C 0.238281 4.339844 0.238281 7.660156 2.289062 9.710938 C 4.339844 11.761719 7.660156 11.761719 9.710938 9.710938 C 11.761719 7.660156 11.761719 4.339844 9.710938 2.289062 C 7.660156 0.238281 4.339844 0.238281 2.289062 2.289062 Z M 3.347656 3.347656 C 4.621094 2.078125 6.613281 1.886719 8.101562 2.898438 C 8.542969 2.652344 9.089844 2.726562 9.445312 3.082031 C 9.871094 3.507812 9.886719 4.1875 9.488281 4.628906 C 9.832031 5.511719 9.832031 6.492188 9.488281 7.371094 C 9.886719 7.816406 9.867188 8.496094 9.445312 8.917969 C 9.089844 9.273438 8.542969 9.347656 8.101562 9.101562 C 6.613281 10.109375 4.621094 9.921875 3.347656 8.652344 C 3.332031 8.636719 3.320312 8.621094 3.304688 8.605469 C 2.875 8.8125 2.359375 8.722656 2.023438 8.386719 C 1.582031 7.945312 1.582031 7.234375 2.023438 6.796875 C 2.105469 6.714844 2.199219 6.644531 2.300781 6.59375 C 2.109375 5.40625 2.5 4.199219 3.347656 3.347656 Z M 3.878906 3.878906 C 3.195312 4.5625 2.886719 5.535156 3.042969 6.488281 C 3.257812 6.53125 3.457031 6.640625 3.613281 6.796875 C 3.625 6.808594 3.632812 6.816406 3.644531 6.828125 L 5.410156 6.074219 C 5.386719 5.75 5.507812 5.433594 5.734375 5.203125 C 6.070312 4.867188 6.585938 4.78125 7.015625 4.984375 L 7.636719 4.363281 C 7.503906 4.082031 7.492188 3.757812 7.605469 3.46875 C 6.421875 2.71875 4.871094 2.886719 3.878906 3.878906 Z M 3.9375 7.519531 C 3.949219 7.707031 3.914062 7.898438 3.832031 8.070312 C 3.847656 8.089844 3.863281 8.105469 3.878906 8.121094 C 4.871094 9.113281 6.421875 9.285156 7.605469 8.53125 C 7.492188 8.242188 7.503906 7.917969 7.636719 7.636719 L 7.015625 7.015625 C 6.585938 7.21875 6.070312 7.132812 5.734375 6.796875 C 5.722656 6.785156 5.714844 6.773438 5.703125 6.761719 Z M 7.542969 5.515625 C 7.691406 5.824219 7.691406 6.175781 7.542969 6.484375 L 8.167969 7.105469 C 8.371094 7.011719 8.597656 6.976562 8.820312 7.011719 C 9.054688 6.359375 9.054688 5.644531 8.820312 4.988281 C 8.597656 5.023438 8.371094 4.988281 8.167969 4.894531 Z M 7.542969 5.515625"/>
 </g>
</svg>
