<svg xmlns="http://www.w3.org/2000/svg" width="12pt" height="12pt" version="1.1" viewBox="0 0 12 12">
 <g>
  <path style="fill:rgb(82.745098%,85.490196%,89.019608%)" d="M 8 2.535156 C 6.085938 1.429688 3.640625 2.085938 2.535156 4 C 1.429688 5.914062 2.085938 8.359375 4 9.464844 C 5.914062 10.570312 8.359375 9.914062 9.464844 8 C 10.570312 6.085938 9.914062 3.640625 8 2.535156 Z M 7.5 3.402344 C 8.242188 3.832031 8.765625 4.558594 8.9375 5.398438 C 8.976562 5.414062 9.019531 5.433594 9.058594 5.457031 C 9.414062 5.664062 9.539062 6.121094 9.332031 6.480469 C 9.234375 6.652344 9.070312 6.773438 8.878906 6.828125 C 8.8125 7.0625 8.71875 7.289062 8.597656 7.5 C 8.277344 8.054688 7.789062 8.488281 7.203125 8.746094 C 7.195312 8.867188 7.164062 8.984375 7.101562 9.089844 C 6.894531 9.449219 6.4375 9.570312 6.078125 9.363281 C 5.929688 9.277344 5.816406 9.144531 5.753906 8.984375 C 5.3125 8.949219 4.882812 8.816406 4.5 8.597656 C 3.574219 8.0625 3.003906 7.070312 3.003906 6 C 2.992188 5.996094 2.984375 5.992188 2.976562 5.988281 C 2.617188 5.78125 2.496094 5.320312 2.703125 4.960938 C 2.835938 4.730469 3.085938 4.585938 3.355469 4.589844 C 3.371094 4.558594 3.386719 4.527344 3.402344 4.5 C 4.230469 3.066406 6.066406 2.574219 7.5 3.402344 Z M 7.25 3.835938 C 6.054688 3.144531 4.523438 3.554688 3.835938 4.75 C 3.832031 4.753906 3.832031 4.757812 3.828125 4.757812 C 4.007812 4.90625 4.105469 5.125 4.101562 5.355469 L 5.738281 5.980469 C 5.972656 5.703125 6.371094 5.636719 6.683594 5.816406 C 6.804688 5.886719 6.902344 5.988281 6.96875 6.113281 L 7.945312 5.964844 C 7.960938 5.882812 7.992188 5.804688 8.03125 5.730469 C 8.121094 5.578125 8.261719 5.460938 8.425781 5.398438 C 8.261719 4.742188 7.839844 4.175781 7.25 3.835938 Z M 8.019531 6.457031 L 7.042969 6.605469 C 7.027344 6.691406 7 6.769531 6.957031 6.839844 C 6.875 6.980469 6.75 7.09375 6.601562 7.15625 L 6.65625 7.996094 C 6.71875 8.011719 6.773438 8.035156 6.828125 8.066406 C 6.914062 8.117188 6.992188 8.183594 7.054688 8.265625 C 7.519531 8.050781 7.90625 7.695312 8.164062 7.25 C 8.25 7.101562 8.316406 6.949219 8.371094 6.785156 C 8.347656 6.777344 8.328125 6.765625 8.308594 6.753906 C 8.1875 6.683594 8.085938 6.582031 8.019531 6.457031 Z M 5.558594 6.449219 L 3.921875 5.824219 C 3.8125 5.949219 3.667969 6.035156 3.503906 6.070312 C 3.527344 6.9375 4 7.730469 4.75 8.164062 C 5.054688 8.339844 5.390625 8.449219 5.742188 8.484375 C 5.757812 8.433594 5.777344 8.386719 5.804688 8.339844 C 5.886719 8.199219 6.007812 8.089844 6.160156 8.027344 L 6.105469 7.1875 C 6.042969 7.171875 5.988281 7.148438 5.933594 7.117188 C 5.695312 6.976562 5.550781 6.722656 5.558594 6.449219 Z M 5.558594 6.449219"/>
 </g>
</svg>
