<svg xmlns="http://www.w3.org/2000/svg" width="12pt" height="12pt" version="1.1" viewBox="0 0 12 12">
 <g>
  <path style="fill:rgb(82.745098%,85.490196%,89.019608%)" d="M 3.375 0.75 C 1.925781 0.75 0.75 1.925781 0.75 3.375 C 0.75 4.09375 1.046875 4.777344 1.5625 5.273438 C 1.523438 5.511719 1.5 5.757812 1.5 6 C 1.5 8.484375 3.515625 10.5 6 10.5 C 6.242188 10.5 6.488281 10.480469 6.726562 10.4375 C 7.222656 10.957031 7.910156 11.25 8.625 11.25 C 10.074219 11.25 11.25 10.074219 11.25 8.625 C 11.25 7.90625 10.953125 7.222656 10.433594 6.726562 C 10.476562 6.488281 10.5 6.242188 10.5 6 C 10.5 3.515625 8.484375 1.5 6 1.5 C 5.757812 1.5 5.511719 1.519531 5.273438 1.5625 C 4.777344 1.042969 4.089844 0.75 3.375 0.75 Z M 6 3 C 6.269531 2.996094 6.523438 3.136719 6.660156 3.371094 C 6.792969 3.605469 6.792969 3.894531 6.660156 4.128906 C 6.523438 4.363281 6.269531 4.503906 6 4.5 C 5.125 4.5 4.921875 4.796875 4.722656 5.265625 C 4.625 5.484375 4.574219 5.746094 4.542969 6 L 5.25 6 L 3.75 8.25 L 2.25 6 L 3.027344 6 C 3.0625 5.609375 3.140625 5.144531 3.339844 4.671875 C 3.703125 3.828125 4.625 3 6 3 Z M 8.261719 3.75 L 9.761719 6 L 8.972656 6 C 8.941406 6.394531 8.867188 6.847656 8.664062 7.324219 C 8.304688 8.171875 7.386719 9 6.011719 9 C 5.738281 9.003906 5.488281 8.863281 5.351562 8.628906 C 5.214844 8.394531 5.214844 8.105469 5.351562 7.871094 C 5.488281 7.636719 5.738281 7.496094 6.011719 7.5 C 6.886719 7.5 7.085938 7.203125 7.28125 6.738281 C 7.378906 6.515625 7.429688 6.253906 7.460938 6 L 6.761719 6 Z M 8.261719 3.75"/>
 </g>
</svg>
