<svg xmlns="http://www.w3.org/2000/svg" xmlns:xlink="http://www.w3.org/1999/xlink" width="12pt" height="12pt" version="1.1" viewBox="0 0 12 12">
 <defs>
  <filter id="alpha" width="100%" height="100%" x="0%" y="0%" filterUnits="objectBoundingBox">
   <feColorMatrix in="SourceGraphic" type="matrix" values="0 0 0 0 1 0 0 0 0 1 0 0 0 0 1 0 0 0 1 0"/>
  </filter>
  <mask id="mask0">
   <g filter="url(#alpha)">
    <rect width="12" height="12" x="0" y="0" style="fill:rgb(0%,0%,0%);fill-opacity:0.301961"/>
   </g>
  </mask>
  <clipPath id="clip1">
   <rect width="12" height="12" x="0" y="0"/>
  </clipPath>
  <g id="surface5" clip-path="url(#clip1)">
   <path style="fill:rgb(82.745098%,85.490196%,89.019608%)" d="M 6 0.75 C 3.101562 0.75 0.75 3.101562 0.75 6 L 1.5 7.5 L 2.25 6 C 2.25 3.929688 3.929688 2.25 6 2.25 L 4.5 1.5 Z M 6 0.75"/>
  </g>
 </defs>
 <g>
  <use mask="url(#mask0)" xlink:href="#surface5"/>
  <path style="fill:rgb(82.745098%,85.490196%,89.019608%)" d="M 6 0.75 L 4.5 1.5 L 6 2.25 C 8.070312 2.25 9.75 3.929688 9.75 6 L 10.5 4.5 L 11.25 6 C 11.25 3.101562 8.898438 0.75 6 0.75 Z M 0.75 6 C 0.75 8.898438 3.101562 11.25 6 11.25 L 7.5 10.5 L 6 9.75 C 3.929688 9.75 2.25 8.070312 2.25 6 L 1.5 7.5 Z M 0.75 6"/>
  <path style="fill:rgb(82.745098%,85.490196%,89.019608%)" d="M 9.75 6.75 C 8.507812 6.75 7.5 7.757812 7.5 9 C 7.5 10.242188 8.507812 11.25 9.75 11.25 C 10.992188 11.25 12 10.242188 12 9 C 12 7.757812 10.992188 6.75 9.75 6.75 Z M 10.855469 7.496094 C 10.992188 7.488281 11.121094 7.554688 11.191406 7.667969 C 11.265625 7.78125 11.273438 7.921875 11.210938 8.042969 L 10.085938 10.292969 C 10.039062 10.386719 9.949219 10.457031 9.847656 10.484375 C 9.742188 10.515625 9.632812 10.496094 9.542969 10.433594 L 8.417969 9.683594 C 8.304688 9.613281 8.238281 9.484375 8.246094 9.347656 C 8.253906 9.210938 8.332031 9.09375 8.457031 9.03125 C 8.578125 8.972656 8.722656 8.984375 8.832031 9.0625 L 9.605469 9.578125 L 10.539062 7.707031 C 10.597656 7.585938 10.71875 7.503906 10.855469 7.496094 Z M 10.855469 7.496094"/>
 </g>
</svg>
