<svg xmlns="http://www.w3.org/2000/svg" width="12pt" height="12pt" version="1.1" viewBox="0 0 12 12">
 <g>
  <path style="fill:rgb(82.745098%,85.490196%,89.019608%)" d="M 6 2.5 C 5.722656 2.5 5.5 2.722656 5.5 3 L 5.5 5.5 C 5.5 5.777344 5.722656 6 6 6 C 6.277344 6 6.5 5.777344 6.5 5.5 L 6.5 3 C 6.5 2.722656 6.277344 2.5 6 2.5 Z M 7.519531 3.492188 C 7.484375 3.492188 7.453125 3.496094 7.421875 3.5 C 7.21875 3.527344 7.050781 3.675781 7.003906 3.878906 C 6.953125 4.078125 7.035156 4.289062 7.203125 4.40625 C 8.09375 5.070312 8.273438 6.3125 7.609375 7.203125 C 6.945312 8.09375 5.6875 8.257812 4.796875 7.59375 C 3.90625 6.929688 3.742188 5.6875 4.40625 4.796875 C 4.515625 4.652344 4.636719 4.53125 4.78125 4.421875 C 4.925781 4.3125 5 4.136719 4.976562 3.957031 C 4.953125 3.777344 4.835938 3.625 4.671875 3.558594 C 4.503906 3.488281 4.3125 3.515625 4.171875 3.625 C 3.957031 3.789062 3.757812 3.984375 3.59375 4.203125 C 2.605469 5.523438 2.882812 7.417969 4.203125 8.40625 C 5.523438 9.394531 7.417969 9.117188 8.40625 7.796875 C 9.394531 6.476562 9.117188 4.582031 7.796875 3.59375 C 7.714844 3.535156 7.621094 3.5 7.519531 3.492188 Z M 7.519531 3.492188"/>
 </g>
</svg>
