<svg xmlns="http://www.w3.org/2000/svg" width="12pt" height="12pt" version="1.1" viewBox="0 0 12 12">
 <g>
  <path style="fill:rgb(82.745098%,85.490196%,89.019608%)" d="M 3.5 2 C 3.222656 2 3 2.222656 3 2.5 L 3 3.5 C 3 3.222656 3.222656 3 3.5 3 L 8.5 3 C 8.777344 3 9 3.222656 9 3.5 L 9 2.5 C 9 2.222656 8.777344 2 8.5 2 Z M 3.5 3.5 C 3.222656 3.5 3 3.722656 3 4 L 3 4.5 L 9 4.5 L 9 4 C 9 3.722656 8.777344 3.5 8.5 3.5 Z M 2.5 5 C 2.222656 5 2 5.222656 2 5.5 L 2 9.5 C 2 9.777344 2.222656 10 2.5 10 L 9.5 10 C 9.777344 10 10 9.777344 10 9.5 L 10 5.5 C 10 5.222656 9.777344 5 9.5 5 Z M 5.125 7 L 6.875 7 C 6.945312 7 7 7.054688 7 7.125 L 7 7.375 C 7 7.445312 6.945312 7.5 6.875 7.5 L 5.125 7.5 C 5.054688 7.5 5 7.445312 5 7.375 L 5 7.125 C 5 7.054688 5.054688 7 5.125 7 Z M 5.125 7"/>
 </g>
</svg>
