<svg xmlns="http://www.w3.org/2000/svg" width="12pt" height="12pt" version="1.1" viewBox="0 0 12 12">
 <g>
  <path style="fill:rgb(82.745098%,85.490196%,89.019608%)" d="M 6 2 C 3.789062 2 2 3.789062 2 6 C 2 8.210938 3.789062 10 6 10 C 8.210938 10 10 8.210938 10 6 C 10 3.789062 8.210938 2 6 2 Z M 5.5 3.5 L 6.5 3.5 L 6.5 6 L 8 6 L 6 8.5 L 4 6 L 5.5 6 Z M 5.5 3.5"/>
  <path style="fill:rgb(32.156863%,58.039216%,88.627451%)" d="M 11.5 9.5 C 11.5 10.050781 11.050781 10.5 10.5 10.5 C 9.949219 10.5 9.5 10.050781 9.5 9.5 C 9.5 8.949219 9.949219 8.5 10.5 8.5 C 11.050781 8.5 11.5 8.949219 11.5 9.5 Z M 11.5 9.5"/>
 </g>
</svg>
