<svg xmlns="http://www.w3.org/2000/svg" width="12pt" height="12pt" version="1.1" viewBox="0 0 12 12">
 <g>
  <path style="fill:rgb(82.745098%,85.490196%,89.019608%)" d="M 3.484375 3 C 3.484375 3 2.5 3 2.5 4 L 2.5 7 C 2.5 6.171875 3.171875 5.5 4 5.5 C 4.828125 5.5 5.5 6.171875 5.5 7 C 5.5 7.371094 5.363281 7.726562 5.117188 8 L 6 8 L 7 9.503906 L 8 8 L 8.5 8 C 8.5 8 9.5 8 9.5 7 L 9.5 4 C 9.5 3 8.5 3 8.5 3 Z M 3.484375 3"/>
  <path style="fill:rgb(32.156863%,58.039216%,88.627451%)" d="M 5 7 C 5 7.550781 4.550781 8 4 8 C 3.449219 8 3 7.550781 3 7 C 3 6.449219 3.449219 6 4 6 C 4.550781 6 5 6.449219 5 7 Z M 5 7"/>
 </g>
</svg>
