<svg xmlns="http://www.w3.org/2000/svg" width="12pt" height="12pt" version="1.1" viewBox="0 0 12 12">
 <g>
  <path style="fill:rgb(82.745098%,85.490196%,89.019608%)" d="M 6 0 L 5.625 0.773438 C 5.75 0.765625 5.875 0.75 6 0.75 C 6.125 0.75 6.25 0.765625 6.375 0.773438 Z M 6 1.5 C 3.515625 1.5 1.5 3.515625 1.5 6 C 1.5 8.484375 3.515625 10.5 6 10.5 C 8.484375 10.5 10.5 8.484375 10.5 6 C 10.5 3.515625 8.484375 1.5 6 1.5 Z M 1.757812 1.753906 L 2.039062 2.578125 C 2.203125 2.390625 2.390625 2.203125 2.578125 2.039062 Z M 10.242188 1.753906 L 9.421875 2.039062 C 9.609375 2.203125 9.796875 2.390625 9.960938 2.578125 Z M 0.773438 5.625 L 0 6 L 0.773438 6.375 C 0.765625 6.246094 0.75 6.128906 0.75 6 C 0.75 5.871094 0.765625 5.753906 0.773438 5.625 Z M 11.226562 5.625 C 11.234375 5.753906 11.25 5.871094 11.25 6 C 11.25 6.128906 11.234375 6.246094 11.226562 6.375 L 12 6 Z M 2.039062 9.421875 L 1.757812 10.246094 L 2.578125 9.960938 C 2.390625 9.796875 2.203125 9.609375 2.039062 9.421875 Z M 9.960938 9.421875 C 9.796875 9.609375 9.609375 9.796875 9.421875 9.960938 L 10.242188 10.246094 Z M 5.625 11.226562 L 6 12 L 6.375 11.226562 C 6.25 11.234375 6.125 11.25 6 11.25 C 5.875 11.25 5.75 11.234375 5.625 11.226562 Z M 5.625 11.226562"/>
 </g>
</svg>
