<svg xmlns="http://www.w3.org/2000/svg" width="12pt" height="12pt" version="1.1" viewBox="0 0 12 12">
 <g>
  <path style="fill:rgb(82.745098%,85.490196%,89.019608%)" d="M 6 0 C 4.445312 0 3.125 0.949219 2.554688 2.296875 C 1.109375 2.511719 0 3.746094 0 5.25 C 0 6.90625 1.34375 8.25 3 8.25 L 3.890625 8.25 C 4.203125 7.382812 5.03125 6.75 6 6.75 C 6.96875 6.75 7.796875 7.382812 8.109375 8.25 L 9.375 8.25 C 10.824219 8.25 12 7.074219 12 5.625 C 12 4.277344 10.988281 3.171875 9.679688 3.023438 C 9.339844 1.304688 7.820312 0 6 0 Z M 6 7.5 C 5.171875 7.5 4.5 8.171875 4.5 9 C 4.5 9.828125 5.171875 10.5 6 10.5 C 6.828125 10.5 7.5 9.828125 7.5 9 C 7.5 8.171875 6.828125 7.5 6 7.5 Z M 2.25 9 C 1.421875 9 0.75 9.671875 0.75 10.5 C 0.75 11.328125 1.421875 12 2.25 12 C 3.078125 12 3.75 11.328125 3.75 10.5 C 3.75 9.671875 3.078125 9 2.25 9 Z M 9.75 9 C 8.921875 9 8.25 9.671875 8.25 10.5 C 8.25 11.328125 8.921875 12 9.75 12 C 10.578125 12 11.25 11.328125 11.25 10.5 C 11.25 9.671875 10.578125 9 9.75 9 Z M 9.75 9"/>
 </g>
</svg>
