<svg xmlns="http://www.w3.org/2000/svg" width="12pt" height="12pt" version="1.1" viewBox="0 0 12 12">
 <g>
  <path style="fill:rgb(82.745098%,85.490196%,89.019608%)" d="M 5.25 0 L 4.875 0.773438 C 4.996094 0.765625 5.125 0.75 5.25 0.75 L 5.625 0.75 Z M 5.25 1.5 C 3.179688 1.5 1.5 3.179688 1.5 5.25 C 1.5 5.605469 1.558594 5.9375 1.652344 6.261719 C 2.035156 5.863281 2.527344 5.5625 3.085938 5.417969 C 3.703125 4.363281 4.765625 3.585938 6.074219 3.585938 C 7.304688 3.585938 8.367188 4.234375 8.996094 5.199219 C 8.96875 3.152344 7.304688 1.5 5.25 1.5 Z M 1.546875 1.546875 L 1.804688 2.34375 C 1.96875 2.152344 2.148438 1.96875 2.34375 1.804688 Z M 8.953125 1.546875 L 8.132812 1.828125 L 8.085938 1.828125 C 8.191406 1.914062 8.292969 2 8.390625 2.085938 C 8.488281 2.175781 8.582031 2.269531 8.671875 2.367188 Z M 6.074219 4.335938 C 4.910156 4.335938 3.917969 5.050781 3.488281 6.058594 C 2.40625 6.222656 1.574219 7.144531 1.574219 8.273438 C 1.574219 9.515625 2.582031 10.523438 3.824219 10.523438 L 8.605469 10.523438 C 9.691406 10.523438 10.574219 9.644531 10.574219 8.554688 C 10.574219 7.546875 9.8125 6.71875 8.832031 6.605469 C 8.578125 5.316406 7.4375 4.335938 6.074219 4.335938 Z M 0.75 4.875 L 0 5.25 L 0.773438 5.625 C 0.761719 5.5 0.75 5.382812 0.75 5.25 C 0.75 5.230469 0.75 5.1875 0.75 5.132812 C 0.753906 5.046875 0.765625 4.960938 0.773438 4.875 Z M 9.726562 4.875 C 9.738281 5.003906 9.75 5.121094 9.75 5.25 C 9.75 5.273438 9.75 5.316406 9.75 5.367188 C 9.746094 5.457031 9.734375 5.542969 9.726562 5.625 L 9.75 5.625 L 10.5 5.25 Z M 9.726562 4.875"/>
 </g>
</svg>
