<svg xmlns="http://www.w3.org/2000/svg" width="12pt" height="12pt" version="1.1" viewBox="0 0 12 12">
 <g>
  <path style="fill:rgb(82.745098%,85.490196%,89.019608%)" d="M 6 2 C 3.785156 2 2 3.785156 2 6 C 2 8.214844 3.785156 10 6 10 C 8.214844 10 10 8.214844 10 6 C 10 3.785156 8.214844 2 6 2 Z M 3.5 4 L 4 4 L 4 6.707031 C 4 6.707031 4 6.886719 4.140625 7.082031 C 4.28125 7.277344 4.558594 7.5 5.25 7.5 C 5.304688 7.5 5.316406 7.480469 5.367188 7.480469 C 5.332031 7.441406 5.261719 7.414062 5.234375 7.375 C 5 7.050781 5 6.707031 5 6.707031 L 5 4.523438 C 5 4.523438 5.015625 4.449219 5.042969 4.390625 C 5.074219 4.332031 5.125 4.261719 5.203125 4.199219 C 5.363281 4.078125 5.613281 3.996094 6.003906 4 C 6.394531 4.003906 6.636719 4.085938 6.792969 4.203125 C 6.871094 4.261719 6.921875 4.328125 6.953125 4.386719 C 6.984375 4.445312 6.996094 4.519531 6.996094 4.519531 L 7 4.535156 L 7 6.707031 C 7 6.707031 7 7.050781 6.765625 7.375 C 6.738281 7.414062 6.667969 7.441406 6.632812 7.480469 C 6.683594 7.480469 6.695312 7.5 6.75 7.5 C 7.441406 7.5 7.71875 7.277344 7.859375 7.082031 C 8 6.886719 8 6.707031 8 6.707031 L 8 4 L 8.5 4 L 8.5 6.707031 C 8.5 6.707031 8.5 7.050781 8.265625 7.375 C 8.03125 7.699219 7.558594 8 6.75 8 C 6.4375 8 6.21875 7.925781 6 7.851562 C 5.78125 7.925781 5.5625 8 5.25 8 C 4.441406 8 3.96875 7.699219 3.734375 7.375 C 3.5 7.050781 3.5 6.707031 3.5 6.707031 Z M 5.996094 4.5 C 5.675781 4.496094 5.550781 4.5625 5.511719 4.59375 C 5.5 4.601562 5.503906 4.601562 5.5 4.605469 L 5.5 6.707031 C 5.5 6.707031 5.5 6.886719 5.640625 7.082031 C 5.710938 7.183594 5.824219 7.285156 6 7.367188 C 6.175781 7.285156 6.289062 7.183594 6.359375 7.082031 C 6.5 6.886719 6.5 6.707031 6.5 6.707031 L 6.5 4.609375 C 6.496094 4.609375 6.5 4.609375 6.492188 4.605469 C 6.449219 4.574219 6.316406 4.503906 5.996094 4.5 Z M 5.996094 4.5"/>
 </g>
</svg>
