<svg xmlns="http://www.w3.org/2000/svg" width="12pt" height="12pt" version="1.1" viewBox="0 0 12 12">
 <g>
  <path style="fill:rgb(82.745098%,85.490196%,89.019608%)" d="M 2.113281 1.402344 L 1.402344 2.109375 L 9.890625 10.597656 L 10.597656 9.886719 Z M 6 2 C 5.324219 2 4.691406 2.34375 4.324219 2.910156 L 5 3.585938 L 5 3.5 L 5.5 3.5 L 5.5 3 L 6.5 3 L 6.5 3.5 L 7 3.5 L 7 4.5 L 6.5 4.5 L 6.5 5 L 6.414062 5 L 7.089844 5.675781 C 7.65625 5.304688 8 4.675781 8 4 C 8 2.894531 7.105469 2 6 2 Z M 5.601562 7.015625 C 2.011719 7.1875 2 9.570312 2 9.570312 L 2 10 L 8.585938 10 Z M 5.601562 7.015625"/>
 </g>
</svg>
