<svg xmlns="http://www.w3.org/2000/svg" width="12pt" height="12pt" version="1.1" viewBox="0 0 12 12">
 <g>
  <path style="fill:rgb(82.745098%,85.490196%,89.019608%)" d="M 6 2.5 C 6 2.5 4.109375 2.5 2.851562 2.59375 C 2.675781 2.617188 2.292969 2.617188 1.949219 2.988281 C 1.679688 3.273438 1.589844 3.914062 1.589844 3.914062 C 1.589844 3.914062 1.503906 4.671875 1.5 5.425781 L 1.5 6.570312 C 1.5 7.324219 1.589844 8.082031 1.589844 8.082031 C 1.589844 8.082031 1.675781 8.722656 1.945312 9.007812 C 2.289062 9.378906 2.738281 9.367188 2.9375 9.40625 C 3.660156 9.476562 6 9.5 6 9.5 C 6 9.5 6.605469 9.492188 7.203125 9.480469 C 7.074219 9.179688 7 8.847656 7 8.5 C 7 7.125 8.125 6 9.5 6 C 9.855469 6 10.191406 6.078125 10.5 6.210938 L 10.5 5.425781 C 10.5 4.671875 10.410156 3.914062 10.410156 3.914062 C 10.410156 3.914062 10.324219 3.273438 10.054688 2.988281 C 9.710938 2.617188 9.328125 2.617188 9.152344 2.59375 C 7.890625 2.5 6.003906 2.5 6.003906 2.5 Z M 4.5 4 L 7.5 6.007812 L 4.5 8 Z M 4.5 4"/>
  <path style="fill:rgb(82.745098%,85.490196%,89.019608%)" d="M 11.433594 7.980469 C 11.144531 6.914062 10.050781 6.28125 8.984375 6.566406 C 7.914062 6.855469 7.28125 7.949219 7.566406 9.015625 C 7.855469 10.085938 8.949219 10.71875 10.019531 10.429688 C 11.085938 10.144531 11.71875 9.050781 11.433594 7.980469 Z M 10.949219 8.113281 C 11.164062 8.910156 10.6875 9.734375 9.886719 9.949219 L 9.757812 9.464844 C 10.292969 9.324219 10.609375 8.773438 10.464844 8.242188 Z M 9.113281 7.050781 L 9.242188 7.535156 C 8.707031 7.675781 8.390625 8.226562 8.535156 8.757812 L 8.050781 8.886719 C 7.835938 8.085938 8.3125 7.265625 9.113281 7.050781 Z M 9.113281 7.050781"/>
 </g>
</svg>
