<svg xmlns="http://www.w3.org/2000/svg" width="12pt" height="12pt" version="1.1" viewBox="0 0 12 12">
 <g>
  <path style="fill:rgb(36.078431%,38.039216%,42.352941%)" d="M 3.816406 3 L 2.503906 6.5 L 2.910156 6.5 L 3.332031 5.390625 L 4.691406 5.390625 L 5.097656 6.5 L 5.503906 6.5 L 4.222656 3 Z M 7.003906 3 L 7.003906 7.5 L 7.503906 7.5 L 7.503906 3 Z M 8.503906 3 L 8.503906 7.5 L 9.003906 7.5 L 9.003906 3 Z M 4.019531 3.421875 C 4.050781 3.542969 4.238281 4.082031 4.566406 5.046875 L 3.457031 5.046875 Z M 3.003906 7 L 3.003906 7.5 L 3.503906 7.5 L 3.503906 7 Z M 4.503906 7 L 4.503906 7.5 L 5.003906 7.5 L 5.003906 7 Z M 3.003906 8 L 4.003906 9 L 5.003906 8 Z M 7.003906 8 L 8.003906 9 L 9.003906 8 Z M 7.003906 8"/>
 </g>
</svg>
