<svg xmlns="http://www.w3.org/2000/svg" width="12pt" height="12pt" version="1.1" viewBox="0 0 12 12">
 <g>
  <path style="fill:rgb(36.078431%,38.039216%,42.352941%)" d="M 5 2.5 L 2.5 9.5 L 3.75 9.5 L 4.28125 8 L 6.066406 8 C 6.089844 7.960938 6.117188 7.925781 6.148438 7.898438 L 6.5 7.542969 C 6.695312 7.347656 7.011719 7.347656 7.207031 7.542969 L 7.5 7.835938 L 7.5 6.898438 C 7.5 6.808594 7.523438 6.726562 7.566406 6.648438 L 6 2.5 Z M 5.5 4.5 L 6.375 7 L 4.625 7 Z M 8 6.898438 L 8 9.042969 L 6.851562 7.898438 L 6.5 8.25 L 8.25 10 L 10 8.25 L 9.648438 7.898438 L 8.5 9.042969 L 8.5 6.898438 Z M 8 6.898438"/>
 </g>
</svg>
