<svg xmlns="http://www.w3.org/2000/svg" width="12pt" height="12pt" version="1.1" viewBox="0 0 12 12">
 <g>
  <path style="fill:rgb(36.078431%,38.039216%,42.352941%)" d="M 6 2.5 C 4.066406 2.5 2.5 4.066406 2.5 6 C 2.5 7.929688 4.066406 9.5 6 9.5 C 7.933594 9.5 9.5 7.929688 9.5 6 C 9.5 4.066406 7.933594 2.5 6 2.5 Z M 5.75 3.46875 C 5.785156 3.464844 5.824219 3.46875 5.859375 3.46875 C 5.863281 3.484375 5.835938 3.539062 5.796875 3.625 C 5.554688 4.152344 5.539062 4.773438 5.765625 5.109375 C 5.804688 5.167969 5.84375 5.226562 5.84375 5.234375 C 5.84375 5.238281 5.800781 5.25 5.75 5.25 C 5.632812 5.25 5.523438 5.175781 5.296875 5 C 5.195312 4.917969 5.066406 4.851562 5.015625 4.84375 C 4.9375 4.824219 4.914062 4.832031 4.8125 4.9375 C 4.71875 5.03125 4.6875 5.082031 4.6875 5.171875 C 4.6875 5.5 5.082031 5.765625 5.8125 5.921875 C 6.804688 6.128906 7.050781 6.320312 7.078125 6.84375 C 7.113281 7.496094 6.765625 7.992188 6 8.375 C 5.910156 8.417969 5.851562 8.4375 5.8125 8.453125 C 5.796875 8.449219 5.78125 8.453125 5.765625 8.453125 C 5.757812 8.429688 5.75 8.382812 5.75 8.296875 C 5.75 7.945312 5.613281 7.589844 5.40625 7.390625 C 5.351562 7.335938 5.195312 7.222656 5.0625 7.140625 C 4.929688 7.054688 4.796875 6.960938 4.765625 6.921875 C 4.714844 6.851562 4.710938 6.8125 4.75 6.6875 C 4.820312 6.457031 4.902344 6.328125 5.0625 6.1875 C 5.148438 6.109375 5.230469 6.046875 5.25 6.046875 C 5.269531 6.042969 5.140625 6.003906 4.953125 5.96875 C 4.765625 5.929688 4.488281 5.847656 4.34375 5.796875 C 4.082031 5.699219 3.726562 5.5 3.59375 5.359375 C 3.589844 5.351562 3.582031 5.347656 3.578125 5.34375 C 3.769531 4.574219 4.3125 3.941406 5.03125 3.640625 C 5.179688 3.574219 5.335938 3.53125 5.5 3.5 C 5.582031 3.480469 5.664062 3.476562 5.75 3.46875 Z M 8.09375 4.640625 C 8.152344 4.675781 8.375 5.15625 8.4375 5.390625 C 8.519531 5.691406 8.511719 6.214844 8.4375 6.515625 C 8.410156 6.628906 8.371094 6.734375 8.359375 6.75 C 8.347656 6.761719 8.300781 6.683594 8.25 6.59375 C 8.199219 6.5 8.03125 6.300781 7.890625 6.15625 C 7.488281 5.730469 7.425781 5.507812 7.59375 5.171875 C 7.679688 5 8.046875 4.609375 8.09375 4.640625 Z M 8.09375 4.640625"/>
 </g>
</svg>
