<svg xmlns="http://www.w3.org/2000/svg" width="12pt" height="12pt" version="1.1" viewBox="0 0 12 12">
 <g>
  <path style="fill:rgb(36.078431%,38.039216%,42.352941%)" d="M 3 2.5 C 2.484375 2.53125 2.5 3 2.5 3 L 2.5 9 C 2.5 9 2.484375 9.46875 3 9.5 L 9 9.5 C 9.5 9.5 9.5 9 9.5 9 L 9.5 3 C 9.5 3 9.5 2.5 9 2.5 L 7.5 2.5 L 7.5 3.5 L 8.5 3.5 L 8.5 7 L 7 7 C 7 7.554688 6.554688 8 6 8 C 5.449219 8 5 7.554688 5 7 L 3.5 7 L 3.5 3.5 L 4.5 3.5 L 4.5 2.5 Z M 5 2.5 L 5 4.5 L 4 4.5 L 6 7 L 8 4.5 L 7 4.5 L 7 2.5 Z M 5 2.5"/>
 </g>
</svg>
