<svg xmlns="http://www.w3.org/2000/svg" width="12pt" height="12pt" version="1.1" viewBox="0 0 12 12">
 <g>
  <path style="fill:rgb(36.078431%,38.039216%,42.352941%)" d="M 3 3 C 2.5 3 2.5 3.5 2.5 3.5 L 2.5 5.5 L 3.5 5.5 L 3.5 4 L 5 4 L 5 3 Z M 7 3 L 7 4 L 8.5 4 L 8.5 5.5 L 9.5 5.5 L 9.5 3.5 C 9.5 3 9 3 9 3 Z M 4.496094 4.5 L 4.496094 7.5 L 7.496094 7.5 L 7.496094 4.5 Z M 2.5 6.5 L 2.5 8.5 C 2.5 9 3 9 3 9 L 5 9 L 5 8 L 3.5 8 L 3.5 6.5 Z M 8.5 6.5 L 8.5 8 L 7 8 L 7 9 L 9 9 C 9 9 9.5 9 9.5 8.5 L 9.5 6.5 Z M 8.5 6.5"/>
 </g>
</svg>
