<svg xmlns="http://www.w3.org/2000/svg" width="12pt" height="12pt" version="1.1" viewBox="0 0 12 12">
 <g>
  <path style="fill:rgb(36.078431%,38.039216%,42.352941%)" d="M 3.5 3.015625 L 3.5 3.515625 L 4 3.515625 L 4 3.015625 Z M 3.5 4.015625 L 3.5 4.515625 L 4 4.515625 L 4 4.015625 Z M 3.5 5.015625 L 3.5 5.515625 L 4 5.515625 L 4 5.015625 Z M 3.5 6.015625 L 3.5 6.515625 L 4 6.515625 L 4 6.015625 Z M 3.5 7.015625 L 3.5 7.515625 L 4 7.515625 L 4 7.015625 Z M 2.5 8.015625 L 2.5 8.515625 L 3 8.515625 L 3 8.015625 Z M 3.5 8.015625 L 3.5 8.515625 L 4 8.515625 L 4 8.015625 Z M 4.5 8.015625 L 4.5 8.515625 L 5 8.515625 L 5 8.015625 Z M 5.5 8.015625 L 5.5 8.515625 L 6 8.515625 L 6 8.015625 Z M 6.5 8.015625 L 6.5 8.515625 L 7 8.515625 L 7 8.015625 Z M 7.5 8.015625 L 7.5 8.515625 L 8 8.515625 L 8 8.015625 Z M 8.5 8.015625 L 8.5 8.515625 L 9 8.515625 L 9 8.015625 Z M 3.5 9.015625 L 3.5 9.515625 L 4 9.515625 L 4 9.015625 Z M 3.5 9.015625"/>
 </g>
</svg>
