<svg xmlns="http://www.w3.org/2000/svg" width="48" height="48" version="1.1" viewBox="0 0 48 48">
 <defs>
  <filter id="filter4201" style="color-interpolation-filters:sRGB" width="1.12" height="1.12" x="-.06" y="-.06">
   <feGaussianBlur stdDeviation=".283"/>
  </filter>
  <clipPath id="clipPath4157-8" clipPathUnits="userSpaceOnUse">
   <path style="fill:#f9f8f2" d="m 27.642964,3.2951379 13.085584,13.0855841 -11.072418,0 c -0.977824,0 -2.013166,-1.035372 -2.013166,-2.013167 l 0,-11.0724171 z"/>
  </clipPath>
 </defs>
 <path style="fill:#ece9d8" d="M 9.796875 4.203125 C 9.6686291 4.203125 9.5437793 4.2254246 9.4199219 4.2578125 C 8.8140894 4.5419357 8.3476562 5.1775946 8.3476562 5.8417969 L 8.3476562 42.363281 C 8.3476562 42.814537 8.6060931 43.275641 8.9726562 43.611328 C 9.2558714 43.786391 9.572293 43.898438 9.8847656 43.898438 L 29.400391 43.898438 L 29.400391 42.160156 L 25.683594 42.160156 L 25.683594 38.681641 L 29.400391 38.681641 L 29.400391 35.203125 L 25.683594 35.203125 L 25.683594 31.724609 L 29.400391 31.724609 L 29.400391 30.855469 L 29.400391 29.986328 L 29.400391 29.115234 L 29.400391 28.246094 L 25.683594 28.246094 L 25.683594 27.376953 L 25.683594 26.507812 L 25.683594 25.636719 L 25.683594 24.767578 L 29.400391 24.767578 L 29.400391 23.898438 L 29.400391 23.029297 L 29.400391 22.160156 L 29.400391 21.289062 L 25.683594 21.289062 L 25.683594 20.419922 L 25.683594 19.550781 L 25.683594 18.681641 L 25.683594 17.810547 L 29.400391 17.810547 L 29.400391 16.941406 L 29.400391 15.541016 L 29.400391 15.21875 L 29.400391 14.333984 L 28.523438 14.333984 L 25.683594 14.333984 L 25.683594 10.855469 L 28.347656 10.855469 L 29.400391 10.855469 L 29.400391 7.3769531 L 28.347656 7.3769531 L 25.683594 7.3769531 L 25.683594 4.203125 L 9.796875 4.203125 z M 29.400391 7.3769531 L 31.232422 7.3769531 L 29.400391 5.5449219 L 29.400391 7.3769531 z M 29.400391 10.855469 L 29.400391 14.333984 L 33.117188 14.333984 L 33.117188 10.855469 L 29.400391 10.855469 z M 33.117188 10.855469 L 34.710938 10.855469 L 33.117188 9.2617188 L 33.117188 10.855469 z M 29.400391 17.810547 L 29.400391 18.681641 L 29.400391 19.550781 L 29.400391 20.419922 L 29.400391 21.289062 L 33.117188 21.289062 L 33.117188 20.419922 L 33.117188 19.550781 L 33.117188 18.681641 L 33.117188 17.810547 L 29.400391 17.810547 z M 33.117188 21.289062 L 33.117188 22.160156 L 33.117188 23.029297 L 33.117188 23.898438 L 33.117188 24.767578 L 34.046875 24.767578 L 36.832031 24.767578 L 36.832031 21.289062 L 33.117188 21.289062 z M 33.117188 24.767578 L 29.400391 24.767578 L 29.400391 25.636719 L 29.400391 26.507812 L 29.400391 27.376953 L 29.400391 28.246094 L 33.117188 28.246094 L 33.117188 27.376953 L 33.117188 26.507812 L 33.117188 25.636719 L 33.117188 24.767578 z M 29.400391 31.724609 L 29.400391 35.203125 L 33.117188 35.203125 L 33.117188 31.724609 L 29.400391 31.724609 z M 33.117188 35.203125 L 33.117188 38.681641 L 36.832031 38.681641 L 36.832031 35.203125 L 33.117188 35.203125 z M 33.117188 38.681641 L 29.400391 38.681641 L 29.400391 42.160156 L 33.117188 42.160156 L 33.117188 38.681641 z M 33.117188 42.160156 L 33.117188 43.898438 L 36.832031 43.898438 L 36.832031 42.160156 L 33.117188 42.160156 z M 36.832031 14.333984 L 36.832031 15.40625 L 36.832031 15.677734 L 36.832031 17.810547 L 39.363281 17.810547 L 39.363281 15.507812 L 38.189453 14.333984 L 36.832031 14.333984 z M 36.832031 28.246094 L 36.832031 31.724609 L 39.363281 31.724609 L 39.363281 28.246094 L 36.832031 28.246094 z"/>
 <path style="fill-opacity:0.39200003;filter:url(#filter4201)" d="M 29.400391 5.9160156 L 29.400391 7.3769531 L 30.861328 7.3769531 L 29.400391 5.9160156 z M 29.400391 7.3769531 L 28.347656 7.3769531 L 27.958984 7.3769531 L 27.958984 10.855469 L 28.347656 10.855469 L 29.400391 10.855469 L 29.400391 7.3769531 z M 29.400391 10.855469 L 29.400391 14.333984 L 33.117188 14.333984 L 33.117188 10.855469 L 29.400391 10.855469 z M 33.117188 10.855469 L 34.339844 10.855469 L 33.117188 9.6328125 L 33.117188 10.855469 z M 29.400391 14.333984 L 28.523438 14.333984 L 27.996094 14.333984 C 28.145284 14.980857 28.753644 15.58927 29.400391 15.740234 L 29.400391 15.541016 L 29.400391 15.21875 L 29.400391 14.333984 z M 36.832031 14.333984 L 36.832031 15.40625 L 36.832031 15.677734 L 36.832031 15.779297 L 39.263672 15.779297 L 37.818359 14.333984 L 36.832031 14.333984 z" clip-path="url(#clipPath4157-8)"/>
 <path style="fill:#f9f8f2" d="M 29.400391 5.5449219 L 29.400391 7.3769531 L 31.232422 7.3769531 L 29.400391 5.5449219 z M 29.400391 7.3769531 L 28.347656 7.3769531 L 28.058594 7.3769531 L 28.058594 10.855469 L 28.347656 10.855469 L 29.400391 10.855469 L 29.400391 7.3769531 z M 29.400391 10.855469 L 29.400391 14.333984 L 33.117188 14.333984 L 33.117188 10.855469 L 29.400391 10.855469 z M 33.117188 10.855469 L 34.710938 10.855469 L 33.117188 9.2617188 L 33.117188 10.855469 z M 29.400391 14.333984 L 28.523438 14.333984 L 28.1875 14.333984 C 28.406494 14.840344 28.883125 15.280045 29.400391 15.439453 L 29.400391 15.21875 L 29.400391 14.333984 z M 36.832031 14.333984 L 36.832031 15.40625 L 36.832031 15.507812 L 39.363281 15.507812 L 38.189453 14.333984 L 36.832031 14.333984 z"/>
 <path style="fill-opacity:0.35104017" d="M 15.304688 19.652344 L 15.304688 20.521484 L 25.683594 20.521484 L 25.683594 20.419922 L 25.683594 19.652344 L 15.304688 19.652344 z M 29.400391 19.652344 L 29.400391 20.419922 L 29.400391 20.521484 L 32.695312 20.521484 L 32.695312 19.652344 L 29.400391 19.652344 z M 15.304688 23.130859 L 15.304688 24 L 29.400391 24 L 29.400391 23.898438 L 29.400391 23.130859 L 15.304688 23.130859 z M 15.304688 26.609375 L 15.304688 27.478516 L 25.683594 27.478516 L 25.683594 27.376953 L 25.683594 26.609375 L 15.304688 26.609375 z M 29.400391 26.609375 L 29.400391 27.376953 L 29.400391 27.478516 L 32.695312 27.478516 L 32.695312 26.609375 L 29.400391 26.609375 z M 15.304688 30.087891 L 15.304688 30.957031 L 29.400391 30.957031 L 29.400391 30.855469 L 29.400391 30.087891 L 15.304688 30.087891 z M 15.304688 33.564453 L 15.304688 34.435547 L 25.578125 34.435547 L 25.578125 33.564453 L 15.304688 33.564453 z"/>
</svg>
