<svg xmlns="http://www.w3.org/2000/svg" width="48" height="48" version="1.1" viewBox="0 0 48 48">
 <path style="fill:#eeeeee" d="M 6.2854383,4 C 5.1426637,4 3.999778,5.1428857 3.999778,6.2856603 l 0,35.4921237 C 3.999778,42.857148 5.1426637,44 6.221994,44 l 35.555457,0 c 1.079364,0 2.222216,-1.142886 2.222216,-2.222216 l 0,-35.5554568 c 0,-1.0793304 -1.14333,-2.2222161 -2.222216,-2.2222161 z"/>
 <path style="fill:#aaaaaa" d="M 6.7775481,4 C 6.0367723,4 5.3717742,4.3641101 4.8677756,4.8679976 4.3638881,5.3719962 3.999778,6.0369943 3.999778,6.7777701 l 0,34.5132379 c 0,0.721109 0.3403324,1.382218 0.833331,1.87555 0.4929986,0.493332 1.154219,0.833331 1.8749948,0.833331 l 34.5832372,0 c 0.721109,0 1.382218,-0.339999 1.87555,-0.833331 0.493332,-0.493332 0.833331,-1.154441 0.833331,-1.87555 l 0,-34.5821266 C 44.000222,5.98755 43.660223,5.3263296 43.166891,4.833331 42.673559,4.3403324 42.01245,4 41.291341,4 L 6.7781036,4 Z m 0,1.111108 34.5132379,0 c 0.32861,0 0.751442,0.1958884 1.076385,0.5208319 0.325555,0.324888 0.52111,0.7476646 0.52111,1.0763304 l 0,34.5832377 c 0,0.32861 -0.195888,0.751442 -0.520832,1.076385 -0.324443,0.325555 -0.747775,0.52111 -1.076663,0.52111 l -34.5821266,0 c -0.3292213,0 -0.7519979,-0.195555 -1.0768859,-0.52111 C 5.3067744,42.04345 5.110886,41.620118 5.110886,41.29123 l 0,-34.5132377 C 5.110886,6.40766 5.3023299,5.9615501 5.6317735,5.6322177 5.9611059,5.3027742 6.4072158,5.1113302 6.7775481,5.1113302 Z"/>
 <g style="fill:#888888" transform="matrix(0.74074239,-0.74074239,0.74074239,0.74074239,-10.074294,25.481051)">
  <path d="m 15,13 8,0 0,8 -8,0 z"/>
  <path d="m 25,13 8,0 0,8 -8,0 z"/>
  <path d="m 25,23 8,0 0,8 -8,0 z"/>
  <path d="m 15,23 8,0 0,8 -8,0 z"/>
 </g>
</svg>
