<svg width="512" height="512" version="1.1" viewBox="0 0 384 384" xmlns="http://www.w3.org/2000/svg"><defs><clipPath><rect width="36" height="36"/></clipPath><clipPath><rect width="36" height="36"/></clipPath><clipPath><rect width="36" height="36"/></clipPath></defs><g transform="translate(1e-4,-8.5e-4)"><path d="m195.75 18.842-6.2852 5.7617-88.701 81.332h-77.146v172.13h77.146l94.986 87.094zm-7.5 17.055v312.21l-84.568-77.539h-72.564v-157.13h72.564z" color="#000000" color-rendering="auto" dominant-baseline="auto" image-rendering="auto" opacity=".2" shape-rendering="auto" solid-color="#000000" style="font-feature-settings:normal;font-variant-alternates:normal;font-variant-caps:normal;font-variant-ligatures:normal;font-variant-numeric:normal;font-variant-position:normal;isolation:auto;mix-blend-mode:normal;shape-padding:0;text-decoration-color:#000000;text-decoration-line:none;text-decoration-style:solid;text-indent:0;text-orientation:mixed;text-transform:none;white-space:normal"/><g stroke-width="10.976"><g fill="#fff"><path d="m192 27.368-89.777 82.317h-74.856v164.63h74.856l89.777 82.317z"/></g><path d="m27.368 266.82v7.5h74.857l89.775 82.32v-7.5l-89.775-82.32z" opacity=".3"/><path d="m192 27.368-89.775 82.32h-74.857v7.5h74.857l89.775-82.32z" opacity=".1"/></g></g><path d="m324 294c0 49.706-40.294 90-90 90-49.706 0-90-40.294-90-90 0-49.706 40.294-90 90-90 49.706 0 90 40.294 90 90z" fill-rule="evenodd" opacity=".3" stroke-width=".9375"/><path d="m324 286.5c0 49.706-40.294 90-90 90-49.706 0-90-40.294-90-90 0-49.706 40.294-90 90-90 49.706 0 90 40.294 90 90z" fill="#d41717" fill-rule="evenodd" stroke-width=".9375"/><path d="m204.75 253.07-11.675 11.675 29.253 29.254-29.253 29.253 11.675 11.676 29.254-29.254 29.253 29.254 11.676-11.676-29.254-29.253 29.254-29.254-11.676-11.675-29.253 29.253z" opacity=".3" stroke-width="11.029"/><path d="m204.75 245.57-11.675 11.675 29.253 29.254-29.253 29.253 11.675 11.676 29.254-29.254 29.253 29.254 11.676-11.676-29.254-29.253 29.254-29.254-11.676-11.675-29.253 29.253z" fill="#fff" stroke-width="11.029"/></svg>
