<svg xmlns="http://www.w3.org/2000/svg" width="16" viewBox="0 0 16 16" height="16">
 <g transform="matrix(.50001 0 0 .5 -4.00025 -506.1811)" fill="#bebebe">
  <path d="m 14.5625,8 c -1.460083,0 -2.65625,1.19625 -2.65625,2.65625 l 0,26.65625 c 0,1.4601 1.196167,2.6875 2.65625,2.6875 l 18.875,0 c 1.460083,0 2.65625,-1.2274 2.65625,-2.6875 l 0,-26.65625 C 36.09375,9.19625 34.897583,8 33.4375,8 z m 0,2 18.875,0 c 0.386678,0 0.56232,0.26965 0.56232,0.65625 l 0,24.625 c 0,0.3867 -0.175642,0.6875 -0.56232,0.6875 l -18.875,0 c -0.386678,0 -0.56228,-0.3008 -0.56228,-0.6875 l 0,-24.625 C 14.00022,10.26965 14.175822,10 14.5625,10 z M 33,37 c 0.552285,0 1,0.447715 1,1 0,0.552285 -0.447715,1 -1,1 -0.552285,0 -1,-0.447715 -1,-1 0,-0.552285 0.447715,-1 1,-1 z" transform="translate(0,1004.3622)" color="#000000"/>
  <path d="m 13,26 22,0 -0.04473,2 -21.88818,0 z" transform="translate(0,1004.3622)"/>
  <path d="m 18.00014,34 11.99976,0 0,-18 -1.99996,-2 -9.9998,0 z m 1.99996,-8 7.99984,0 0,6 -7.99984,0 z" transform="translate(0,1004.3622)" color="#000000"/>
 </g>
</svg>
