<?xml version="1.0" encoding="UTF-8" standalone="no"?>
<!-- Created with Inkscape (http://www.inkscape.org/) -->
<svg id="svg7384" xmlns:rdf="http://www.w3.org/1999/02/22-rdf-syntax-ns#" style="enable-background:new" xmlns="http://www.w3.org/2000/svg" xmlns:osb="http://www.openswatchbook.org/uri/2009/osb" height="16" width="16" version="1.1" xmlns:cc="http://creativecommons.org/ns#" xmlns:dc="http://purl.org/dc/elements/1.1/">
 <metadata id="metadata90">
  <rdf:RDF>
   <cc:Work rdf:about="">
    <dc:format>image/svg+xml</dc:format>
    <dc:type rdf:resource="http://purl.org/dc/dcmitype/StillImage"/>
    <dc:title>Paper Symbolic Icon Theme</dc:title>
   </cc:Work>
  </rdf:RDF>
 </metadata>
 <title id="title8473">Paper Symbolic Icon Theme</title>
 <defs id="defs7386">
  <filter id="filter7554" color-interpolation-filters="sRGB">
   <feBlend id="feBlend7556" in2="BackgroundImage" mode="darken"/>
  </filter>
 </defs>
 <g id="layer9" transform="translate(-261 308)">
  <path id="path6273" style="fill:#555" d="m262-298.5c0.00097 0.79399 0.0333 0.78071 1.0312 0.53125l4.9688-1.625v4.5l-1.7812 1.2188c-0.20883 0.13925-0.21873 0.1227-0.21875 0.34375v0.21875c0 0.42773 0.4375 0.28125 0.4375 0.28125l2.5625-0.28125 2.5625 0.28125s0.43749 0.13986 0.4375-0.25v-0.25c0-0.21159-0.009-0.20423-0.21875-0.34375l-1.7812-1.2188v-4.5l4.9375 1.625c1.0469 0.26171 1.0625 0.2647 1.0625-0.53125 0-0.43199-0.0117-0.43388-0.5-0.71875l-5.5-3.6875v-3.0938c0-0.554-0.446-1-1-1s-1 0.446-1 1v3.0938l-5.5 3.6875c-0.45685 0.2665-0.49822 0.2833-0.5 0.65625v0.0625z"/>
 </g>
</svg>
