<svg version="1" viewBox="0 0 512 512" xmlns="http://www.w3.org/2000/svg" xmlns:xlink="http://www.w3.org/1999/xlink"><defs><linearGradient id="d" x1="-44" x2="-24" y1="-24" y2="-24" gradientTransform="matrix(2.3855,-2.4201,-2.4201,-2.3855,191.02,67.38)" gradientUnits="userSpaceOnUse"><stop stop-opacity="0" offset="0"/><stop offset="1"/></linearGradient><g id="b" opacity=".3" lip-path="url(#clip3)"><path d="m152.85 144.27c-11.742 10.883-18.426 26.164-18.445 42.172 0 31.805 25.785 57.59 57.59 57.59 16.297-0.0234 31.82-6.9531 42.723-19.066z" fill="url(#d)"/></g><linearGradient id="c" x1="-44" x2="-24" y1="-24" y2="-24" gradientTransform="matrix(-2.4201,-2.3855,2.3855,-2.4201,191.02,67.38)" gradientUnits="userSpaceOnUse"><stop stop-opacity="0" offset="0"/><stop offset="1"/></linearGradient><clipPath id="e"><rect width="384" height="384"/></clipPath><g id="a" clip-path="url(#e)" opacity=".3"><path d="m230.4 143.61-80.684 81.852c10.887 11.816 26.215 18.551 42.281 18.57 31.805 0 57.586-25.785 57.59-57.59-0.0234-16.355-7-31.926-19.188-42.832z" fill="url(#c)"/></g><clipPath><rect width="384" height="384"/></clipPath><clipPath><rect width="384" height="384"/></clipPath><clipPath><rect width="384" height="384"/></clipPath><clipPath><rect width="384" height="384"/></clipPath><clipPath><rect width="384" height="384"/></clipPath><clipPath><rect width="384" height="384"/></clipPath><clipPath><rect width="384" height="384"/></clipPath><clipPath><rect width="384" height="384"/></clipPath><clipPath><rect width="384" height="384"/></clipPath><clipPath><rect width="384" height="384"/></clipPath><clipPath><rect width="384" height="384"/></clipPath><clipPath><rect width="384" height="384"/></clipPath><clipPath><rect width="384" height="384"/></clipPath><clipPath><rect width="384" height="384"/></clipPath><clipPath><rect width="384" height="384"/></clipPath><clipPath><rect width="384" height="384"/></clipPath><clipPath><rect width="384" height="384"/></clipPath><clipPath><rect width="384" height="384"/></clipPath><clipPath><rect width="384" height="384"/></clipPath><clipPath><rect width="384" height="384"/></clipPath><clipPath><rect width="384" height="384"/></clipPath><clipPath><rect width="384" height="384"/></clipPath><clipPath><rect width="384" height="384"/></clipPath><clipPath><rect width="384" height="384"/></clipPath><clipPath><rect width="384" height="384"/></clipPath><clipPath><rect width="384" height="384"/></clipPath><clipPath><rect width="384" height="384"/></clipPath><clipPath><rect width="384" height="384"/></clipPath><clipPath><rect width="384" height="384"/></clipPath><clipPath><rect width="384" height="384"/></clipPath><clipPath><rect width="384" height="384"/></clipPath><clipPath><rect width="384" height="384"/></clipPath><clipPath><rect width="384" height="384"/></clipPath><clipPath><rect width="384" height="384"/></clipPath><clipPath><rect width="384" height="384"/></clipPath><clipPath><rect width="384" height="384"/></clipPath><clipPath><rect width="384" height="384"/></clipPath><clipPath><rect width="384" height="384"/></clipPath><clipPath><rect width="384" height="384"/></clipPath><clipPath><rect width="384" height="384"/></clipPath><clipPath><rect width="384" height="384"/></clipPath><clipPath><rect width="384" height="384"/></clipPath><clipPath><rect width="384" height="384"/></clipPath><clipPath><rect width="384" height="384"/></clipPath><clipPath><rect width="384" height="384"/></clipPath><clipPath><rect width="384" height="384"/></clipPath><clipPath><rect width="384" height="384"/></clipPath><clipPath><rect width="384" height="384"/></clipPath><clipPath><rect width="384" height="384"/></clipPath><clipPath><rect width="384" height="384"/></clipPath><clipPath id="k"><path d="m111 119h177v23h-177z"/></clipPath><clipPath><path d="m368.64 199.88c0-93.234-75.602-168.75-168.75-168.75-93.152 0-168.75 75.516-168.75 168.75s75.598 168.75 168.75 168.75c93.148 0 168.75-75.516 168.75-168.75z"/></clipPath><clipPath id="i"><path d="m177 130h45v89h-45z"/></clipPath><clipPath><path d="m368.64 199.88c0-93.234-75.602-168.75-168.75-168.75-93.152 0-168.75 75.516-168.75 168.75s75.598 168.75 168.75 168.75c93.148 0 168.75-75.516 168.75-168.75z"/></clipPath><clipPath id="g"><path d="m111 207h177v89h-177z"/></clipPath><clipPath><path d="m368.64 199.88c0-93.234-75.602-168.75-168.75-168.75-93.152 0-168.75 75.516-168.75 168.75s75.598 168.75 168.75 168.75c93.148 0 168.75-75.516 168.75-168.75z"/></clipPath><clipPath id="m"><rect width="384" height="384"/></clipPath><g clip-path="url(#m)"><g clip-path="url(#k)"></g><g clip-path="url(#i)"></g><g clip-path="url(#g)"></g></g><clipPath><rect width="384" height="384"/></clipPath><clipPath><rect width="384" height="384"/></clipPath><clipPath><rect width="384" height="384"/></clipPath><clipPath><rect width="384" height="384"/></clipPath><clipPath><rect width="384" height="384"/></clipPath><clipPath><rect width="384" height="384"/></clipPath><clipPath><rect width="384" height="384"/></clipPath><clipPath><rect width="384" height="384"/></clipPath><clipPath><rect width="384" height="384"/></clipPath><clipPath><rect width="384" height="384"/></clipPath><clipPath><rect width="384" height="384"/></clipPath><clipPath><rect width="384" height="384"/></clipPath><clipPath><rect width="384" height="384"/></clipPath><clipPath><rect width="384" height="384"/></clipPath><clipPath><rect width="384" height="384"/></clipPath><clipPath><rect width="384" height="384"/></clipPath><clipPath><rect width="384" height="384"/></clipPath><clipPath><rect width="384" height="384"/></clipPath><clipPath><rect width="384" height="384"/></clipPath><clipPath><rect width="384" height="384"/></clipPath><clipPath><rect width="384" height="384"/></clipPath><clipPath><rect width="384" height="384"/></clipPath><clipPath><rect width="384" height="384"/></clipPath><clipPath><rect width="384" height="384"/></clipPath><clipPath><rect width="384" height="384"/></clipPath><clipPath><rect width="384" height="384"/></clipPath><clipPath><rect width="384" height="384"/></clipPath><clipPath><rect width="384" height="384"/></clipPath><clipPath><rect width="384" height="384"/></clipPath><clipPath><rect width="384" height="384"/></clipPath><clipPath><rect width="384" height="384"/></clipPath><clipPath><rect width="384" height="384"/></clipPath><clipPath><rect width="384" height="384"/></clipPath><clipPath><rect width="384" height="384"/></clipPath><clipPath><rect width="384" height="384"/></clipPath><clipPath><rect width="384" height="384"/></clipPath><clipPath><rect width="384" height="384"/></clipPath><clipPath><rect width="384" height="384"/></clipPath><clipPath><rect width="384" height="384"/></clipPath><clipPath><rect width="384" height="384"/></clipPath><clipPath><rect width="384" height="384"/></clipPath><clipPath><rect width="384" height="384"/></clipPath><clipPath><rect width="384" height="384"/></clipPath><clipPath><rect width="384" height="384"/></clipPath><clipPath><rect width="384" height="384"/></clipPath><clipPath><rect width="384" height="384"/></clipPath><clipPath><rect width="384" height="384"/></clipPath><clipPath><rect width="384" height="384"/></clipPath><clipPath><rect width="384" height="384"/></clipPath><clipPath><rect width="384" height="384"/></clipPath><clipPath><rect width="384" height="384"/></clipPath><clipPath><rect width="384" height="384"/></clipPath><clipPath><rect width="384" height="384"/></clipPath><clipPath><rect width="384" height="384"/></clipPath><clipPath><rect width="384" height="384"/></clipPath><clipPath><rect width="384" height="384"/></clipPath><clipPath><rect width="384" height="384"/></clipPath><clipPath><rect width="384" height="384"/></clipPath><clipPath><rect width="384" height="384"/></clipPath><clipPath><rect width="384" height="384"/></clipPath><clipPath><rect width="384" height="384"/></clipPath><clipPath id="j"><path d="m111 119h177v23h-177z"/></clipPath><clipPath><path d="m368.64 199.88c0-93.234-75.602-168.75-168.75-168.75-93.152 0-168.75 75.516-168.75 168.75s75.598 168.75 168.75 168.75c93.148 0 168.75-75.516 168.75-168.75z"/></clipPath><clipPath id="h"><path d="m177 130h45v89h-45z"/></clipPath><clipPath><path d="m368.64 199.88c0-93.234-75.602-168.75-168.75-168.75-93.152 0-168.75 75.516-168.75 168.75s75.598 168.75 168.75 168.75c93.148 0 168.75-75.516 168.75-168.75z"/></clipPath><clipPath id="f"><path d="m111 207h177v89h-177z"/></clipPath><clipPath><path d="m368.64 199.88c0-93.234-75.602-168.75-168.75-168.75-93.152 0-168.75 75.516-168.75 168.75s75.598 168.75 168.75 168.75c93.148 0 168.75-75.516 168.75-168.75z"/></clipPath><clipPath id="l"><rect width="384" height="384"/></clipPath><g clip-path="url(#l)"><g clip-path="url(#j)"></g><g clip-path="url(#h)"></g><g clip-path="url(#f)"></g></g><clipPath><rect width="384" height="384"/></clipPath><clipPath><rect width="384" height="384"/></clipPath><clipPath><rect width="384" height="384"/></clipPath><clipPath><rect width="384" height="384"/></clipPath><clipPath><rect width="384" height="384"/></clipPath><clipPath><rect width="384" height="384"/></clipPath><clipPath><rect width="384" height="384"/></clipPath><clipPath><rect width="384" height="384"/></clipPath><clipPath><rect width="384" height="384"/></clipPath><clipPath><rect width="384" height="384"/></clipPath><clipPath><rect width="384" height="384"/></clipPath></defs><g><rect x="182" y="133.6" width="303.69" height="219.2" rx="73.568" ry="73.568" fill="#333" style="paint-order:normal"/><path d="m255.56 133.6c-40.757 0-73.568 32.811-73.568 73.568v10.525c0-40.757 32.811-73.568 73.568-73.568h156.55c40.757 0 73.568 32.811 73.568 73.568v-10.525c0-40.757-32.811-73.568-73.568-73.568z" fill="#fff" opacity=".1" style="paint-order:normal"/><rect x="279.02" y="77.614" width="109.64" height="56.311" rx="25.179" ry="20.924" fill="#272a34" stroke="#000" stroke-linecap="round" stroke-linejoin="round" stroke-width="18.119" style="paint-order:normal"/><path d="m69.309 173.67c-33.514 0-48.309 14.795-48.309 48.309v98.106c0 33.514 14.795 48.309 48.309 48.309h188.27c33.514 0 60.933-27.425 60.933-60.939v-72.846c0-33.514-27.419-60.939-60.933-60.939z" color="#000000" color-rendering="auto" dominant-baseline="auto" fill="#4c4c4c" image-rendering="auto" shape-rendering="auto" solid-color="#000000" style="font-feature-settings:normal;font-variant-alternates:normal;font-variant-caps:normal;font-variant-ligatures:normal;font-variant-numeric:normal;font-variant-position:normal;isolation:auto;mix-blend-mode:normal;paint-order:normal;shape-padding:0;text-decoration-color:#000000;text-decoration-line:none;text-decoration-style:solid;text-indent:0;text-orientation:mixed;text-transform:none;white-space:normal"/><path d="m318.52 296.93c0 33.514-27.42 60.938-60.934 60.938h-188.28c-33.514 0-48.308-14.794-48.308-48.308v10.525c0 33.514 14.794 48.308 48.308 48.308h188.28c33.514 0 60.934-27.424 60.934-60.938z" color="#000000" color-rendering="auto" dominant-baseline="auto" image-rendering="auto" opacity=".3" shape-rendering="auto" solid-color="#000000" style="font-feature-settings:normal;font-variant-alternates:normal;font-variant-caps:normal;font-variant-ligatures:normal;font-variant-numeric:normal;font-variant-position:normal;isolation:auto;mix-blend-mode:normal;paint-order:normal;shape-padding:0;text-decoration-color:#000000;text-decoration-line:none;text-decoration-style:solid;text-indent:0;text-orientation:mixed;text-transform:none;white-space:normal"/><path d="m480.48 279c0 86.795-70.36 157.16-157.15 157.16-86.799 0-157.16-70.364-157.16-157.16 0-86.795 70.36-157.15 157.16-157.15 86.795 0 157.15 70.36 157.15 157.15z" fill="#060000" opacity=".3" stroke-width=".97164"/><path d="m69.308 173.67c-33.514 0-48.308 14.794-48.308 48.308v10.525c0-33.514 14.794-48.308 48.308-48.308h188.28c33.514 0 60.934 27.424 60.934 60.938v-10.525c0-33.514-27.42-60.938-60.934-60.938z" color="#000000" color-rendering="auto" dominant-baseline="auto" fill="#fff" image-rendering="auto" opacity=".1" shape-rendering="auto" solid-color="#000000" style="font-feature-settings:normal;font-variant-alternates:normal;font-variant-caps:normal;font-variant-ligatures:normal;font-variant-numeric:normal;font-variant-position:normal;isolation:auto;mix-blend-mode:normal;paint-order:normal;shape-padding:0;text-decoration-color:#000000;text-decoration-line:none;text-decoration-style:solid;text-indent:0;text-orientation:mixed;text-transform:none;white-space:normal"/></g><g transform="matrix(.97164 0 0 .97164 147.29 92.442)"><path d="m353.74 199.5c0 89.328-72.414 161.75-161.74 161.75-89.332 0-161.75-72.418-161.75-161.75 0-89.328 72.414-161.74 161.75-161.74 89.328 0 161.74 72.414 161.74 161.74z" opacity=".3"/><path d="m327.97 192.11c0 75.434-61.148 136.58-136.58 136.58-75.43 0-136.58-61.145-136.58-136.58 0-75.43 61.148-136.58 136.58-136.58 75.43 0 136.58 61.148 136.58 136.58z" fill="#262833"/><path d="m353.74 192c0 89.328-72.414 161.75-161.74 161.75-89.332 0-161.75-72.418-161.75-161.75 0-89.328 72.414-161.74 161.75-161.74 89.328 0 161.74 72.414 161.74 161.74z"/><path d="m322.67 192c0 72.172-58.504 130.68-130.67 130.68-72.172 0-130.68-58.504-130.68-130.68 0-72.168 58.504-130.67 130.68-130.67 72.168 0 130.67 58.504 130.67 130.67z" fill="#193d7a"/><path transform="scale(.75)" d="m256 81.768c-47.254 0-90.104 18.819-121.49 49.359l246.36 246.36c30.54-31.386 49.359-74.236 49.359-121.49 0-96.224-78.007-174.23-174.23-174.23z" opacity=".3" stroke-width="1.3333"/><path d="m282.13 192c0 49.781-40.355 90.137-90.133 90.137-49.781 0-90.137-40.355-90.137-90.137 0-49.777 40.355-90.133 90.137-90.133 49.777 0 90.133 40.355 90.133 90.133z"/><path d="m265.43 192c0 40.555-32.875 73.43-73.426 73.43-40.555 0-73.43-32.875-73.43-73.43 0-40.551 32.875-73.426 73.43-73.426 40.551 0 73.426 32.875 73.426 73.426z" fill="#2359b0"/><use transform="translate(.00586 7.084)" width="100%" height="100%" xlink:href="#b"/><use transform="translate(.00586 7.084)" width="100%" height="100%" xlink:href="#a"/><path transform="scale(.75)" d="m361.85 170.15a26.769 26.769 0 0 0-26.77 26.77 26.769 26.769 0 0 0 26.77 26.768 26.769 26.769 0 0 0 26.77-26.768 26.769 26.769 0 0 0-26.77-26.77zm-51.076 45.537a14.154 14.154 0 0 0-14.154 14.154 14.154 14.154 0 0 0 14.154 14.154 14.154 14.154 0 0 0 14.154-14.154 14.154 14.154 0 0 0-14.154-14.154z" fill="#fff" opacity=".3"/></g><g><circle cx="65.593" cy="219.28" r="14.087" fill="#310000" opacity=".3" style="paint-order:normal"/><circle cx="65.593" cy="215.07" r="14.087" fill="#fd3535" style="paint-order:normal"/><path d="m304.2 68.553c-17.99 0-34.239 12.541-34.239 29.984v10.525c0-17.443 16.249-29.984 34.239-29.984h59.285c17.99 0 34.239 12.541 34.239 29.984v-10.525c0-17.443-16.249-29.984-34.239-29.984z" color="#000000" color-rendering="auto" dominant-baseline="auto" fill="#fff" image-rendering="auto" opacity=".1" shape-rendering="auto" solid-color="#000000" style="font-feature-settings:normal;font-variant-alternates:normal;font-variant-caps:normal;font-variant-ligatures:normal;font-variant-numeric:normal;font-variant-position:normal;isolation:auto;mix-blend-mode:normal;paint-order:normal;shape-padding:0;text-decoration-color:#000000;text-decoration-line:none;text-decoration-style:solid;text-indent:0;text-orientation:mixed;text-transform:none;white-space:normal"/></g></svg>
