<svg width="512" height="512" version="1.1" viewBox="0 0 135.47 135.47" xmlns="http://www.w3.org/2000/svg" xmlns:xlink="http://www.w3.org/1999/xlink"><g transform="matrix(1.1689 0 0 .63056 -11.444 42.517)" stroke-linecap="round" stroke-linejoin="round" stroke-miterlimit="16.8"><path d="m80.597 79.107c-0.54031-0.0076-0.87697 0.04909-0.87697 0.04909a1.9846 1.9846 0 0 0-1.092 3.2598s6.1014 6.9905 5.0701 16.365c-0.16707 1.5187-0.05745 2.8497 0.4589 4.0097 0.51634 1.16 1.4948 2.0466 2.541 2.494 2.0924 0.89466 4.2657 0.53751 6.3734 0.11162s4.1934-1.0518 5.6913-1.3421c0.6895-0.13362 1.1927-0.16212 1.4511-0.15245 1.0427 2.0267 3.2642 5.5486 5.5099 9.0276 2.3634 3.6612 4.529 6.9181 4.529 6.9181a1.9846 1.9846 0 0 0 3.4888-1.8516c-2.3638-5.7677-4.0312-11.915-5.9243-16.332-0.94659-2.2088-1.8717-4.0457-3.4919-5.2675-0.81009-0.61092-1.8938-1.0198-3.002-0.94932-1.1082 0.07049-2.1231 0.55912-3.0371 1.2656-1.2896 0.99686-2.4884 1.6755-3.4433 1.9865-0.95488 0.31097-1.5807 0.28298-2.1095 0.05271-0.5288-0.23026-1.1299-0.74662-1.7384-1.9942-0.6085-1.2476-1.1573-3.1817-1.4961-5.8572-0.75761-5.9837-2.8503-9.1614-5.1192-10.656-1.1344-0.74753-2.2985-1.0181-3.1797-1.1033-0.22032-0.02131-0.42298-0.03106-0.60308-0.03359zm-25.719 1.4842c-0.17992 0.0025-0.38276 0.01228-0.60308 0.03359-0.88126 0.08525-2.0453 0.35786-3.1797 1.1054-2.2689 1.4951-4.3637 4.6707-5.1213 10.654-0.33875 2.6755-0.8855 4.61-1.494 5.8577-0.6085 1.2476-1.2091 1.7635-1.7379 1.9937-0.52879 0.23026-1.1546 0.26033-2.1095-0.0506-0.95488-0.31096-2.1557-0.99118-3.4454-1.988-0.91396-0.70647-1.9289-1.1951-3.0371-1.2656-1.1082-0.07049-2.1898 0.33789-2.9999 0.9488-1.6202 1.2218-2.5479 3.0608-3.4944 5.2696-1.8932 4.4176-3.56 10.562-5.9238 16.33a1.9846 1.9846 0 0 0 3.4903 1.8516s2.1657-3.2569 4.529-6.9181c2.2457-3.479 4.4672-7.0004 5.5099-9.0271 0.25884-0.01 0.76246 0.0185 1.4511 0.15194 1.4978 0.29025 3.582 0.91618 5.6897 1.3421 2.1077 0.42589 4.2825 0.78356 6.375-0.1111 1.0462-0.44733 2.0247-1.3345 2.541-2.4945 0.51634-1.16 0.62597-2.4889 0.4589-4.0076-1.0313-9.3747 5.0706-16.367 5.0706-16.367a1.9846 1.9846 0 0 0-1.094-3.2598s-0.33566-0.05668-0.87542-0.04909zm9.3862 11.21a1.9846 1.9846 0 0 0-0.84286 0.06718 1.9846 1.9846 0 0 0-1.4082 1.9219c0.06875 6.1122-4.8735 11.709-9.3103 17.844-2.2184 3.0675-4.2768 6.2782-5.1838 9.9237-0.90696 3.6454-0.51361 7.7236 1.9317 11.871a1.9846 1.9846 0 0 0 3.6857-0.8284c0.54254-5.9457 0.97382-11.912 4.2262-16.209 1.581-2.0463 4.9227-5.6864 7.2953-9.8498 1.1883-2.0852 2.1567-4.3284 2.4919-6.699 0.33522-2.3706-0.03015-4.9144-1.4904-7.1584a1.9846 1.9846 0 0 0-1.3953-0.88369zm8.3087 0.76276a1.5265 1.5265 0 0 0-0.23772 0.01344 1.5265 1.5265 0 0 0-1.0739 0.67956c-1.1231 1.7259-1.4046 3.683-1.1467 5.5063 0.25783 1.8233 1.0043 3.5505 1.9183 5.1543 1.828 3.2076 4.4054 6.0133 5.6189 7.5858 2.4938 3.3036 2.8254 7.887 3.2423 12.455a1.5265 1.5265 0 0 0 2.834 0.63667c1.8808-3.1902 2.1838-6.3266 1.4863-9.1304-0.69758-2.8039-2.2802-5.2719-3.9864-7.6312-3.4125-4.7187-7.2128-9.0255-7.1599-13.727a1.5265 1.5265 0 0 0-1.495-1.5426zm-2.9544 16.471c-0.34478 0.0127-0.70278 0.17111-0.91573 0.36123-0.48674 0.43455-0.54932 0.8381-0.64649 1.2987-0.09717 0.46056-0.1528 1.0089-0.17777 1.7167a1.1763 1.1763 0 0 0 0 0.0139c-0.0685 2.9745 0.72501 5.7785 1.2341 8.4431 0.50906 2.6646 0.74961 5.1404-0.14211 7.5878a1.1763 1.1763 0 0 0-0.01395 0.0372c-0.24202 0.74075-0.57376 1.4507-0.98653 2.1054a1.1763 1.1763 0 0 0 1.6702 1.5901c3.0339-2.1289 3.9355-5.3663 3.8846-8.4865-0.04975-3.0503-0.88319-6.1307-1.3762-8.6736 0.19498-1.623-0.24919-3.4322-0.8718-4.6954-0.16292-0.33055-0.31597-0.62972-0.67749-0.93382-0.18076-0.15205-0.44816-0.32544-0.83408-0.36122-0.04824-4e-3 -0.09751-5e-3 -0.14676-4e-3zm1.5746 20.189-0.01395 0.0367c0.0014-4e-3 5.81e-4 -8e-3 0.0021-0.0114 0.0029-9e-3 9e-3 -0.0164 0.01189-0.0253z" color="#000000" style="-inkscape-stroke:none;paint-order:stroke fill markers"/><path d="m80.597 75.402c-0.54031-0.0076-0.87697 0.04909-0.87697 0.04909a1.9846 1.9846 0 0 0-1.092 3.2598s6.1014 6.9905 5.0701 16.365c-0.16707 1.5187-0.05745 2.8497 0.4589 4.0097 0.51634 1.16 1.4948 2.0466 2.541 2.494 2.0924 0.89466 4.2657 0.53751 6.3734 0.11162s4.1934-1.0518 5.6913-1.3421c0.6895-0.13362 1.1927-0.16212 1.4511-0.15245 1.0427 2.0267 3.2642 5.5486 5.5099 9.0276 2.3634 3.6612 4.529 6.9181 4.529 6.9181a1.9846 1.9846 0 0 0 3.4888-1.8516c-2.3638-5.7677-4.0312-11.915-5.9243-16.332-0.94659-2.2088-1.8717-4.0457-3.4919-5.2675-0.81009-0.61092-1.8938-1.0198-3.002-0.94932-1.1082 0.07049-2.1231 0.55912-3.0371 1.2656-1.2896 0.99686-2.4884 1.6755-3.4433 1.9865-0.95488 0.31097-1.5807 0.28298-2.1095 0.05271-0.5288-0.23026-1.1299-0.74662-1.7384-1.9942-0.6085-1.2476-1.1573-3.1817-1.4961-5.8572-0.75761-5.9837-2.8503-9.1614-5.1192-10.656-1.1344-0.74753-2.2985-1.0181-3.1797-1.1033-0.22032-0.02131-0.42298-0.03106-0.60308-0.03359zm-25.719 1.4842c-0.17992 0.0025-0.38276 0.01228-0.60308 0.03359-0.88126 0.08525-2.0453 0.35786-3.1797 1.1054-2.2689 1.4951-4.3637 4.6707-5.1213 10.654-0.33875 2.6755-0.8855 4.61-1.494 5.8577-0.6085 1.2476-1.2091 1.7635-1.7379 1.9937-0.52879 0.23026-1.1546 0.26032-2.1095-0.05064-0.95488-0.31097-2.1557-0.99118-3.4454-1.988-0.91396-0.70647-1.9289-1.1951-3.0371-1.2656-1.1082-0.07049-2.1898 0.33789-2.9999 0.9488-1.6202 1.2218-2.5479 3.0608-3.4944 5.2696-1.8932 4.4176-3.56 10.562-5.9238 16.33a1.9846 1.9846 0 0 0 3.4903 1.8516s2.1657-3.2569 4.529-6.9181c2.2457-3.479 4.4672-7.0004 5.5099-9.0271 0.25884-0.01 0.76246 0.0185 1.4511 0.15194 1.4978 0.29025 3.582 0.91618 5.6897 1.3421 2.1077 0.42589 4.2825 0.78356 6.375-0.1111 1.0462-0.44733 2.0247-1.3345 2.541-2.4945 0.51634-1.16 0.62597-2.4889 0.4589-4.0076-1.0313-9.3747 5.0706-16.367 5.0706-16.367a1.9846 1.9846 0 0 0-1.094-3.2598s-0.33566-0.05668-0.87542-0.04909zm9.3862 11.21a1.9846 1.9846 0 0 0-0.84286 0.06718 1.9846 1.9846 0 0 0-1.4082 1.9219c0.06875 6.1122-4.8735 11.709-9.3103 17.844-2.2184 3.0675-4.2768 6.2782-5.1838 9.9237-0.90696 3.6454-0.51361 7.7236 1.9317 11.871a1.9846 1.9846 0 0 0 3.6857-0.8284c0.54254-5.9457 0.97382-11.912 4.2262-16.209 1.581-2.0463 4.9227-5.6864 7.2953-9.8498 1.1883-2.0852 2.1567-4.3284 2.4919-6.699 0.33522-2.3706-0.03015-4.9144-1.4904-7.1584a1.9846 1.9846 0 0 0-1.3953-0.88369zm8.3087 0.76276a1.5265 1.5265 0 0 0-0.23772 0.01344 1.5265 1.5265 0 0 0-1.0739 0.67956c-1.1231 1.7259-1.4046 3.683-1.1467 5.5063 0.25783 1.8233 1.0043 3.5505 1.9183 5.1543 1.828 3.2076 4.4054 6.0133 5.6189 7.5858 2.4938 3.3036 2.8254 7.887 3.2423 12.455a1.5265 1.5265 0 0 0 2.834 0.63667c1.8808-3.1902 2.1838-6.3266 1.4863-9.1304-0.69758-2.8039-2.2802-5.2719-3.9864-7.6312-3.4125-4.7187-7.2128-9.0255-7.1599-13.727a1.5265 1.5265 0 0 0-1.495-1.5426zm-2.9544 16.471c-0.34478 0.0127-0.70278 0.17111-0.91573 0.36123-0.48674 0.43455-0.54932 0.8381-0.64649 1.2987-0.09717 0.46056-0.1528 1.0089-0.17777 1.7167a1.1763 1.1763 0 0 0 0 0.014c-0.0685 2.9745 0.72501 5.7785 1.2341 8.4431 0.50906 2.6646 0.74961 5.1404-0.14211 7.5878a1.1763 1.1763 0 0 0-0.01395 0.0372c-0.24202 0.74075-0.57376 1.4507-0.98653 2.1054a1.1763 1.1763 0 0 0 1.6702 1.5901c3.0339-2.1289 3.9355-5.3663 3.8846-8.4865-0.04975-3.0503-0.88319-6.1307-1.3762-8.6736 0.19498-1.623-0.24919-3.4322-0.8718-4.6954-0.16292-0.33055-0.31597-0.62972-0.67749-0.93382-0.18076-0.15205-0.44816-0.32544-0.83408-0.36122-0.04824-4e-3 -0.09751-5e-3 -0.14676-4e-3zm1.5746 20.189-0.01395 0.0367c0.0014-4e-3 5.81e-4 -8e-3 0.0021-0.0114 0.0029-9e-3 9e-3 -0.0164 0.01189-0.0253z" color="#000000" fill="#367bf0" style="-inkscape-stroke:none;paint-order:stroke fill markers"/></g><path d="m125.29 83.608-2.4e-4 0.0012c0.0819 0.08178 0.16258 0.16478 0.24198 0.24817 0.23793 0.2503 0.46433 0.50725 0.67926 0.77062 0.28681 0.35147 0.55313 0.71408 0.79895 1.0861 0.18423 0.2788 0.35678 0.56306 0.518 0.85187 0.10745 0.19261 0.20997 0.38717 0.30725 0.58376 2.2376 4.5213 1.7672 10.036-1.4124 14.14-1e-4 1.3e-4 -2.4e-4 2.3e-4 -3.4e-4 3.4e-4 -0.1946 0.25105-0.39968 0.49679-0.61451 0.73676l-6e-3 6e-3c-0.0616 0.0695-0.12536 0.13734-0.18937 0.20532-0.024 0.0258-0.0477 0.0516-0.0715 0.0776l-0.01 0.01c-1.2e-4 1.1e-4 -2.3e-4 2.2e-4 -3.3e-4 3.4e-4 -6e-3 6e-3 -0.0127 0.0127-0.0183 0.0186-0.0202 0.0209-0.0406 0.0416-0.0606 0.0626-0.054 0.0558-0.10773 0.11167-0.16289 0.16686-0.0288 0.0288-0.0582 0.0563-0.087 0.085-0.0533 0.0525-0.10674 0.10462-0.16134 0.15537-2.7276 2.5942-6.2738 3.8399-9.7793 3.713-1.8e-4 -1e-5 -3.4e-4 -1.7e-4 -5.1e-4 -1.7e-4 -1.0535-0.0382-2.1032-0.20009-3.126-0.48655-1.8e-4 -6e-5 -3.4e-4 -1.3e-4 -5.1e-4 -1.6e-4 -0.14594-0.0409-0.29129-0.084-0.43606-0.13l3.4e-4 -3.4e-4c-2.8e-4 -7e-5 -5.8e-4 -7e-5 -8e-4 -1.3e-4l-18.005 18.005h3.4e-4l-1.0552 1.0552-6.8266-1.6991c2.4e-4 -2.4e-4 2.97e-4 -3.1e-4 4.94e-4 -4.8e-4h-3.53e-4c0.0028-4e-3 0.0042-6e-3 0.0099-0.01l-1.8194-6.9248 2.2854-2.2854 6.77e-4 -1e-5 4.79e-4 -4.8e-4 3.1073-0.10181v6.7e-4l0.93052-0.0306-0.22672-3.6801 0.6518-0.65178h6.7e-4l6.7e-4 -6.6e-4 3.1532-0.0502v3.2e-4l0.84808-0.0141 0.14237-4.0811 1e-3 -1.8e-4 2e-5 -3.6e-4 3.222-0.11647-2e-5 3.4e-4 0.89582-0.0323-0.021-1.016-0.0596-2.8731-1.7e-4 -1.7e-4 4.1004-4.1006c-0.0477-0.14539-0.0926-0.29157-0.13438-0.43848-1e-3 -0.0028-1e-3 -0.0056-3e-3 -0.0085-0.0389-0.1341-0.0749-0.26873-0.109-0.40377l-0.0127-0.05076c-0.0702-0.28356-0.13212-0.56862-0.18406-0.8553-1e-3 -0.01269-4e-3 -0.02496-7e-3 -0.03694-0.0523-0.29324-0.0952-0.58774-0.1279-0.88329-4.5e-4 -0.0042-4.5e-4 -0.0071-1.8e-4 -0.01128-0.0156-0.14189-0.0288-0.28401-0.0398-0.42629-4.7e-4 -0.0071-1e-3 -0.01636-3e-3 -0.02439-0.0221-0.29046-0.0347-0.58146-0.0379-0.87263-4.1e-4 -0.01791 2.9e-4 -0.03708-2.2e-4 -0.05527-3e-3 -0.28796 4e-3 -0.57592 0.021-0.86355 1e-3 -0.01678 1e-3 -0.03271 3e-3 -0.04921 8e-3 -0.1348 0.0181-0.26966 0.0302-0.40428 1.7e-4 -0.0099 1e-3 -0.01988 3e-3 -0.03017 0.0141-0.14446 0.0292-0.28861 0.0472-0.43263 3e-3 -0.0141 4e-3 -0.02764 6e-3 -0.04117 0.0159-0.12465 0.034-0.24899 0.0534-0.37321 4e-3 -0.02834 8e-3 -0.05654 0.0127-0.08503 0.0451-0.2767 0.0991-0.55229 0.1616-0.82628 6e-3 -0.02623 0.0127-0.05245 0.0185-0.07882 0.0286-0.12253 0.0589-0.24483 0.0912-0.36668 4e-3 -0.01424 7e-3 -0.02961 0.0113-0.04428 0.0372-0.13889 0.077-0.27747 0.11872-0.41544 4e-3 -0.01438 0.01-0.02933 0.0141-0.04399 0.0385-0.12592 0.0791-0.25136 0.12141-0.37629 6e-3 -0.01734 0.0113-0.03412 0.0172-0.05119 0.094-0.27394 0.19731-0.54542 0.3095-0.81407 8e-3 -0.02045 0.0171-0.04075 0.0257-0.0612 0.0517-0.12239 0.10533-0.24415 0.16091-0.36532 6e-3 -0.01128 0.0113-0.02256 0.0159-0.03384 0.0606-0.13099 0.12352-0.26117 0.18856-0.39054 8e-3 -0.01904 0.0192-0.03708 0.0286-0.05584 0.0565-0.11154 0.11478-0.22221 0.17463-0.33236 0.0127-0.02327 0.0257-0.04724 0.0386-0.07093 0.0688-0.12451 0.13931-0.24852 0.21224-0.37135 8e-3 -0.0141 0.0171-0.02707 0.025-0.04103 0.0657-0.10956 0.13339-0.21835 0.20246-0.32651 0.0168-0.02679 0.0337-0.05372 0.0513-0.07995 0.15638-0.24092 0.32103-0.47798 0.49428-0.71068 0.0192-0.0251 0.0384-0.05034 0.0575-0.07544 0.0738-0.09772 0.14902-0.19466 0.22581-0.2908 0.0165-0.02045 0.0328-0.04075 0.0493-0.0612 0.0926-0.11464 0.18754-0.22802 0.28458-0.34022 0.0113-0.01128 0.022-0.02397 0.0326-0.03652 0.0874-0.09927 0.17574-0.19846 0.26599-0.29631 0.0206-0.02214 0.0408-0.04456 0.062-0.06613 0.10251-0.10843 0.20538-0.21736 0.31174-0.32371 0.24614-0.24615 0.50005-0.48011 0.75929-0.70365 0.086-0.07403 0.1727-0.14656 0.2602-0.21794 3.8e-4 -2.82e-4 8.6e-4 -5.78e-4 1e-3 -9.03e-4 0.0874-0.07149 0.17559-0.14165 0.26445-0.21056 3.1e-4 -2.68e-4 6.9e-4 -4.52e-4 1e-3 -6.91e-4 0.0888-0.06895 0.17846-0.13649 0.26862-0.20264 3.8e-4 -2.82e-4 8.3e-4 -5.93e-4 1e-3 -9.17e-4 0.0902-0.06641 0.18098-0.13128 0.27244-0.19504 3.3e-4 -2.39e-4 6.9e-4 -4.65e-4 1e-3 -7.05e-4 0.0209-0.01438 0.0423-0.02848 0.0632-0.04287 0.0711-0.04893 0.1421-0.098 0.21404-0.14524 0.0925-0.06134 0.18585-0.12098 0.27957-0.17973 4.1e-4 -2.54e-4 8.1e-4 -6.06e-4 1e-3 -9.02e-4 0.0938-0.05866 0.18803-0.11577 0.28281-0.17198 4.2e-4 -2.39e-4 8e-4 -6.2e-4 1e-3 -9.02e-4 0.0949-0.05612 0.19033-0.11083 0.28626-0.16444 3.5e-4 -1.97e-4 6.6e-4 -4.65e-4 1e-3 -6.77e-4 0.096-0.05344 0.19237-0.1059 0.2894-0.15681 3.6e-4 -1.83e-4 6.6e-4 -4.79e-4 1e-3 -6.77e-4 5.0611-2.6626 11.458-1.8631 15.716 2.3958zm-2.7804 2.8432c-9.9e-4 -1e-3 -3e-3 -0.0028-6e-3 -0.0042-0.0448-0.04456-0.0902-0.08813-0.13663-0.13001-0.0168-0.01523-0.034-0.02947-0.0509-0.04427-0.0302-0.02651-0.0603-0.05288-0.0911-0.07826-0.022-0.01819-0.0444-0.03553-0.0665-0.0533-0.0281-0.02228-0.0561-0.04442-0.0848-0.06571-0.0233-0.01734-0.0468-0.03412-0.0702-0.0509-0.0264-0.01889-0.0529-0.03737-0.0797-0.0557-0.0254-0.0172-0.0509-0.03441-0.0768-0.0509-0.0293-0.01904-0.0588-0.03737-0.0885-0.05556-0.0223-0.0141-0.0444-0.02707-0.0668-0.04005-0.0283-0.0165-0.057-0.03243-0.0857-0.04822-0.0288-0.01579-0.0574-0.03144-0.0864-0.04667-0.0172-0.0085-0.0347-0.0172-0.052-0.02595-0.13945-0.06952-0.28181-0.13114-0.42678-0.18325-5.9e-4 -2.11e-4 -1e-3 -4.79e-4 -1e-3 -2.96e-4 -0.0396-0.01424-0.0794-0.0275-0.11943-0.04047-0.018-0.0056-0.0365-0.01128-0.055-0.01749-0.0364-0.01128-0.0732-0.02186-0.10984-0.03187-0.0204-0.0056-0.0406-0.01128-0.061-0.01636-0.0408-0.0099-0.0815-0.02045-0.1224-0.02961-0.0127-0.0028-0.0264-0.0056-0.0393-0.0085-0.0447-0.0099-0.0895-0.01861-0.13452-0.02665-0.01-0.0014-0.021-0.0028-0.0322-0.0056-0.99228-0.16867-2.0357 0.04216-2.9009 0.63293 5.8e-4 -8.46e-4 1e-3 -0.0014 1e-3 -0.0014-0.20405 0.13903-0.3987 0.29838-0.57999 0.47967-0.15008 0.15014-0.28539 0.30914-0.40657 0.47517 4.8e-4 -3.24e-4 9.3e-4 -7.05e-4 1e-3 -1e-3 -0.14183 0.19428-0.26391 0.39831-0.36617 0.60936-1.8e-4 3.81e-4 -3.3e-4 8.04e-4 -5.3e-4 0.0012-7e-5 1.83e-4 -9e-5 3.81e-4 -1.4e-4 5.22e-4 -0.0247 0.05062-0.0478 0.10195-0.0699 0.15365-9e-4 0.0014-1e-3 0.0028-3e-3 0.0071-5.5e-4 0.0013-9.2e-4 0.0028-1e-3 0.0028-0.0213 0.04949-0.0413 0.09927-0.0605 0.14948-3e-3 0.0071-4e-3 0.01269-7e-3 0.01833-0.0182 0.04851-0.0354 0.09729-0.0516 0.14625-3e-3 0.0085-6e-3 0.01608-8e-3 0.02397-0.0159 0.04879-0.0307 0.09814-0.0447 0.14728-4.4e-4 0.0014-9.2e-4 0.0028-1e-3 0.0028-1e-3 0.0028-3e-3 7e-3 -3e-3 0.01128-0.0145 0.05259-0.0281 0.10505-0.0406 0.158-0.0527 0.2248-0.0856 0.45318-0.0986 0.68251-3e-3 0.05076-4e-3 0.10195-6e-3 0.15268-2.7e-4 0.0085-8.9e-4 0.01692-7.1e-4 0.0258-5.3e-4 0.04695 9e-5 0.09433 1e-3 0.14141 5.7e-4 0.01269 6.8e-4 0.02595 1e-3 0.03906 1e-3 0.04103 3e-3 0.08221 6e-3 0.12324 1e-3 0.02143 3e-3 0.04258 4e-3 0.06373 3e-3 0.04075 7e-3 0.08122 0.0113 0.12183 1e-3 0.01466 3e-3 0.03003 6e-3 0.04512 6e-3 0.04315 0.0113 0.08644 0.0181 0.1293 3e-3 0.01748 6e-3 0.03497 8e-3 0.05231 7e-3 0.04145 0.0144 0.08277 0.0228 0.1238 3e-3 0.01664 7e-3 0.03285 0.0113 0.04935 8e-3 0.04131 0.0179 0.08277 0.0283 0.1238 4e-3 0.01579 8e-3 0.0313 0.0127 0.0471 0.0392 0.14844 0.087 0.29511 0.14375 0.43915 3e-3 0.0056 3e-3 0.01128 6e-3 0.01636 2.3e-4 5.21e-4 1.2e-4 8.46e-4 4e-4 0.0014 0.0152 0.03821 0.032 0.076 0.0486 0.11379 8e-3 0.01946 0.0165 0.03892 0.0252 0.05824 0.0148 0.03229 0.0307 0.06444 0.0464 0.09659 0.0113 0.02468 0.024 0.04921 0.0365 0.07375 0.0141 0.02665 0.0281 0.05316 0.0426 0.07967 0.0162 0.02989 0.0328 0.06007 0.0499 0.08982 0.0149 0.02594 0.0303 0.05161 0.046 0.07727 0.0152 0.02496 0.031 0.04992 0.047 0.07473 0.0186 0.02919 0.0375 0.05809 0.057 0.08686 0.0171 0.0251 0.0344 0.04992 0.052 0.07473 0.0179 0.0251 0.0358 0.05006 0.0544 0.07501 0.0212 0.02806 0.0429 0.05584 0.0647 0.08376 0.0179 0.02284 0.0355 0.04583 0.054 0.06811 0.0217 0.02637 0.0444 0.05203 0.067 0.07798 0.0204 0.02341 0.0403 0.04738 0.0615 0.07036 0.0405 0.04456 0.0822 0.08827 0.12507 0.13128 1e-3 0.0028 4e-3 0.0042 6e-3 0.0056l3.4e-4 3.38e-4c0.0454 0.0454 0.0918 0.08926 0.13875 0.13184 0.0207 0.01889 0.042 0.0368 0.063 0.05513 0.0286 0.0251 0.0572 0.0502 0.0863 0.07445 0.0196 0.01622 0.0398 0.03173 0.0598 0.04738 0.0307 0.02439 0.0615 0.04865 0.0928 0.07177 0.0214 0.01608 0.0433 0.03144 0.065 0.0471 0.0289 0.02073 0.0581 0.04103 0.0874 0.06091 0.0244 0.0165 0.0491 0.03271 0.0736 0.04865 0.0305 0.0196 0.0612 0.03864 0.0921 0.05739 0.02 0.01269 0.04 0.02397 0.0601 0.03567 0.0364 0.02115 0.073 0.0416 0.10984 0.06148 0.0195 0.0099 0.0389 0.02115 0.0585 0.0313 0.034 0.01762 0.0682 0.03441 0.10251 0.05104 0.0227 0.01128 0.0453 0.02186 0.0682 0.03257 0.0336 0.01537 0.0674 0.02989 0.10111 0.04413 0.0237 0.0099 0.047 0.02073 0.0708 0.03017 0.0479 0.01932 0.0962 0.03737 0.14462 0.05471 7e-3 0.0028 0.0158 0.0056 0.0237 0.0085 0.0594 0.02087 0.11915 0.04005 0.17912 0.05781 8e-3 0.0028 0.0179 0.0056 0.0266 0.0071 0.0492 0.01424 0.0986 0.02806 0.14826 0.04047 0.0237 0.0056 0.0479 0.01128 0.0719 0.01636 0.0345 0.0085 0.0692 0.01593 0.10392 0.02284 0.025 0.0056 0.0501 0.0099 0.075 0.0141 0.0374 0.0071 0.0746 0.01269 0.11195 0.01889 0.023 0.0042 0.0457 0.0071 0.0685 0.0099 0.0371 0.0056 0.0742 0.0099 0.11126 0.0141 0.0228 0.0028 0.0457 0.0042 0.0685 0.0071 0.0398 0.0042 0.0794 0.0056 0.11915 0.0085 0.0223 0.0013 0.0446 0.0028 0.067 0.0028 0.0389 0.0012 0.078 0.0028 0.11718 0.0028 0.0212 1.83e-4 0.0423 3.67e-4 0.0636 6.49e-4 0.0408-7.05e-4 0.0819-0.0014 0.12282-0.0028 0.021-0.0012 0.0423-0.0011 0.0634-0.0028 0.0393-0.0014 0.0784-0.0056 0.11774-0.0085 0.0221-0.0014 0.0441-0.0028 0.0664-0.0042 0.0592-0.0056 0.11831-0.01269 0.17722-0.02129 8.2e-4 -1.41e-4 1e-3 -6.2e-4 3e-3 -5.64e-4 6e-3 -9.87e-4 0.01-0.0014 0.0162-0.0014 0.0532-0.0085 0.10675-0.01692 0.15972-0.02721 0.0272-0.0056 0.0544-0.01128 0.0816-0.01748 0.0326-0.0071 0.0656-0.01269 0.098-0.02186 0.0261-0.0056 0.0515-0.01269 0.0773-0.01988 0.0343-0.0085 0.0684-0.01777 0.10251-0.02764 0.0248-0.0071 0.0491-0.01467 0.0733-0.02256 0.0338-0.0099 0.0678-0.02115 0.10152-0.033 0.0267-0.0085 0.0523-0.01847 0.0783-0.02834 0.032-0.01128 0.0637-0.02439 0.0957-0.03581 0.024-0.0099 0.0485-0.0189 0.0723-0.02961 0.0341-0.01495 0.0682-0.02989 0.10237-0.0447 0.024-0.01128 0.0474-0.02143 0.0711-0.03215 0.0329-0.01467 0.0643-0.03187 0.0965-0.0478 0.0234-0.01128 0.046-0.02256 0.0687-0.03511 0.0347-0.0196 0.0698-0.03849 0.10449-0.05838 0.0197-0.01269 0.0408-0.02256 0.0608-0.03469 0.0381-0.02186 0.0747-0.04597 0.11182-0.06994 0.0163-0.0099 0.0324-0.02045 0.0488-0.03088 1e-3 -0.0012 3e-3 -0.0028 6e-3 -0.0028 0.21737-0.14466 0.42387-0.3126 0.61587-0.50459 0.18597-0.18603 0.34908-0.38599 0.49068-0.59579 0.02-0.02989 0.0393-0.06007 0.0587-0.0901 0.0127-0.02059 0.0254-0.04145 0.0383-0.06148 0.0203-0.03229 0.0393-0.06557 0.0582-0.0987 0.0113-0.01946 0.0219-0.0399 0.0331-0.05922 0.018-0.03398 0.0364-0.06726 0.0537-0.10124 0.0113-0.02101 0.0214-0.04287 0.032-0.06416 0.0154-0.03144 0.0306-0.06303 0.0451-0.09462 0.01-0.02454 0.0213-0.04851 0.0317-0.07262 0.0763-0.1766 0.13918-0.35732 0.18859-0.54101 4e-3 -0.01861 0.01-0.03694 0.0149-0.05542 8e-3 -0.03342 0.0159-0.06684 0.0236-0.1004 6e-3 -0.0275 0.0127-0.05513 0.0182-0.08277 6e-3 -0.03032 0.0113-0.06091 0.0172-0.09137 6e-3 -0.02919 0.01-0.05838 0.0148-0.08756 4e-3 -0.02792 8e-3 -0.0557 0.0127-0.08362 4e-3 -0.03314 8e-3 -0.06627 0.0113-0.09955l8e-3 -0.08376c3e-3 -0.03102 4e-3 -0.06204 7e-3 -0.09306 1e-3 -0.0282 4e-3 -0.0564 6e-3 -0.08474 1e-3 -0.0361 1e-3 -0.07205 3e-3 -0.10815 4.1e-4 -0.02397 1e-3 -0.04808 1e-3 -0.0722-2e-4 -0.05809-1e-3 -0.11605-4e-3 -0.17397-4.2e-4 -0.01269-1e-3 -0.02721-3e-3 -0.04089-3e-3 -0.04879-6e-3 -0.09786-0.01-0.14648-1e-3 -0.01424-3e-3 -0.02792-4e-3 -0.04188-4e-3 -0.04625-0.01-0.0925-0.0166-0.13861-3e-3 -0.01763-6e-3 -0.03511-8e-3 -0.05274-7e-3 -0.04272-0.0141-0.08531-0.0217-0.12775-4e-3 -0.0203-8e-3 -0.04047-0.0127-0.06077-8e-3 -0.03892-0.0165-0.07798-0.0255-0.11661-4e-3 -0.01974-0.01-0.03948-0.0142-0.05922-0.0113-0.0454-0.0238-0.09052-0.0369-0.13551-3e-3 -0.01269-7e-3 -0.0251-0.0113-0.03765-0.0144-0.04752-0.0298-0.09461-0.0458-0.14175-4e-3 -0.01269-8e-3 -0.02566-0.0127-0.03835-0.0616-0.17424-0.13579-0.345-0.22259-0.5111-8e-3 -0.01608-0.0169-0.03173-0.0255-0.04752-0.0223-0.04131-0.0451-0.08235-0.0691-0.12296-8e-3 -0.01269-0.0156-0.02609-0.0235-0.03906-0.0234-0.03878-0.0472-0.07755-0.0721-0.11577-0.0127-0.01889-0.0248-0.03765-0.0374-0.0564-0.0231-0.03426-0.047-0.06811-0.0712-0.10181-0.0127-0.01734-0.0251-0.03483-0.0379-0.05203-0.0254-0.03426-0.0519-0.06797-0.0785-0.10152-0.0141-0.01777-0.0282-0.03539-0.0426-0.05302-0.0296-0.03581-0.0601-0.07121-0.0911-0.10632-0.0113-0.01269-0.0217-0.02524-0.033-0.03779-0.0437-0.04836-0.0888-0.09588-0.13551-0.14243zm3.3008 15.574c-5.5e-4 4.9e-4 -1e-3 9.5e-4 -1e-3 1e-3 4.5e-4 -5.3e-4 1e-3 -1e-3 1e-3 -1e-3z" fill-rule="evenodd" opacity=".3" stroke-width=".16581"/><path d="m125.29 79.878-2.4e-4 0.0012c0.0819 0.08178 0.16258 0.16478 0.24198 0.24817 0.23793 0.2503 0.46433 0.50725 0.67926 0.77062 0.28681 0.35147 0.55313 0.71408 0.79895 1.0861 0.18423 0.2788 0.35678 0.56306 0.518 0.85187 0.10745 0.19261 0.20997 0.38717 0.30725 0.58376 2.2376 4.5213 1.7672 10.036-1.4124 14.14-1e-4 1.27e-4 -2.4e-4 2.26e-4 -3.4e-4 3.38e-4 -0.1946 0.25105-0.39968 0.49679-0.61451 0.73675l-6e-3 0.0056c-0.0616 0.06952-0.12536 0.13734-0.18937 0.20532-0.024 0.0258-0.0477 0.05161-0.0715 0.07755-1e-3 0.0011-3e-3 0.0028-3e-3 0.0028l-7e-3 7e-3c-1.2e-4 1.13e-4 -2.3e-4 2.26e-4 -3.3e-4 3.39e-4 -6e-3 0.0056-0.0127 0.01269-0.0183 0.01861-0.0202 0.02087-0.0406 0.0416-0.0606 0.06261-0.054 0.05584-0.10773 0.11168-0.16289 0.16687-0.0288 0.02877-0.0582 0.05626-0.087 0.08503-0.0533 0.05245-0.10674 0.10463-0.16134 0.15536-2.7276 2.5942-6.2738 3.8399-9.7793 3.713-1.8e-4 -1e-5 -3.4e-4 -1.7e-4 -5.1e-4 -1.7e-4 -1.0535-0.0382-2.1032-0.20009-3.126-0.48655-1.8e-4 -6e-5 -3.4e-4 -1.3e-4 -5.1e-4 -1.6e-4 -0.14594-0.0409-0.29129-0.084-0.43606-0.13001l3.4e-4 -3.3e-4c-2.8e-4 -7e-5 -5.8e-4 -7e-5 -8e-4 -1.3e-4l-18.005 18.005h3.4e-4l-1.0552 1.0552-6.8266-1.6991c2.4e-4 -2.4e-4 2.97e-4 -3.1e-4 4.94e-4 -4.8e-4h-3.53e-4c0.0028-4e-3 0.0042-6e-3 0.0099-0.01l-1.8194-6.9248 2.2854-2.2854 6.77e-4 -1e-5 4.79e-4 -4.8e-4 3.1073-0.10181v6.6e-4l0.93052-0.0306-0.22672-3.6801 0.6518-0.65178h6.7e-4l6.7e-4 -6.6e-4 3.1532-0.0502v3.2e-4l0.84808-0.0141 0.14237-4.0811 1e-3 -1.8e-4 2e-5 -3.6e-4 3.222-0.11647-2e-5 3.4e-4 0.89582-0.0323-0.021-1.016-0.0596-2.8731-1.7e-4 -1.7e-4 4.1004-4.1006c-0.0477-0.14539-0.0926-0.29157-0.13438-0.43848-1e-3 -0.0028-1e-3 -0.0056-3e-3 -0.0085-0.0389-0.1341-0.0749-0.26873-0.109-0.40377l-0.0127-0.05076c-0.0702-0.28356-0.13212-0.56862-0.18406-0.8553-1e-3 -0.01269-4e-3 -0.02496-7e-3 -0.03694-0.0523-0.29324-0.0952-0.58774-0.1279-0.88329-4.5e-4 -0.0042-4.5e-4 -0.0071-1.8e-4 -0.01128-0.0156-0.14189-0.0288-0.28401-0.0398-0.42629-4.7e-4 -7e-3 -1e-3 -0.01636-3e-3 -0.02439-0.0221-0.29046-0.0347-0.58146-0.0379-0.87263-4.1e-4 -0.01791 2.9e-4 -0.03709-2.2e-4 -0.05527-3e-3 -0.28796 4e-3 -0.57592 0.021-0.86355 1e-3 -0.01678 1e-3 -0.03271 3e-3 -0.04921 8e-3 -0.1348 0.0181-0.26966 0.0302-0.40428 1.7e-4 -0.0099 1e-3 -0.01988 3e-3 -0.03017 0.0141-0.14446 0.0292-0.28861 0.0472-0.43263 3e-3 -0.0141 4e-3 -0.02764 6e-3 -0.04117 0.0159-0.12465 0.034-0.24899 0.0534-0.37321 4e-3 -0.02834 8e-3 -0.05654 0.0127-0.08503 0.0451-0.2767 0.0991-0.55229 0.1616-0.82628 6e-3 -0.02623 0.0127-0.05245 0.0185-0.07882 0.0286-0.12253 0.0589-0.24483 0.0912-0.36668 4e-3 -0.01424 7e-3 -0.02961 0.0113-0.04428 0.0372-0.13889 0.077-0.27747 0.11872-0.41544 4e-3 -0.01438 0.01-0.02933 0.0141-0.04399 0.0385-0.12592 0.0791-0.25136 0.12141-0.37629 6e-3 -0.01734 0.0113-0.03412 0.0172-0.05119 0.094-0.27395 0.19731-0.54542 0.3095-0.81407 8e-3 -0.02045 0.0171-0.04075 0.0257-0.0612 0.0517-0.12239 0.10533-0.24415 0.16091-0.36532 6e-3 -0.01128 0.0113-0.02256 0.0159-0.03384 0.0606-0.13099 0.12352-0.26117 0.18856-0.39054 8e-3 -0.01904 0.0192-0.03708 0.0286-0.05584 0.0565-0.11154 0.11478-0.22221 0.17463-0.33236 0.0127-0.02327 0.0257-0.04724 0.0386-0.07093 0.0688-0.12451 0.13931-0.24852 0.21224-0.37135 8e-3 -0.0141 0.0171-0.02707 0.025-0.04103 0.0657-0.10956 0.13339-0.21835 0.20246-0.32651 0.0168-0.02679 0.0337-0.05372 0.0513-0.07995 0.15638-0.24092 0.32103-0.47798 0.49428-0.71068 0.0192-0.0251 0.0384-0.05034 0.0575-0.07544 0.0738-0.09772 0.14902-0.19466 0.22581-0.2908 0.0165-0.02045 0.0328-0.04075 0.0493-0.0612 0.0926-0.11464 0.18754-0.22802 0.28458-0.34022 0.0113-0.01128 0.022-0.02397 0.0326-0.03652 0.0874-0.09927 0.17574-0.19846 0.26599-0.29631 0.0206-0.02214 0.0408-0.04456 0.062-0.06613 0.10251-0.10843 0.20538-0.21736 0.31174-0.32371 0.24614-0.24615 0.50005-0.48011 0.75929-0.70365 0.086-0.07403 0.1727-0.14656 0.2602-0.21794 3.8e-4 -2.82e-4 8.6e-4 -5.78e-4 1e-3 -9.02e-4 0.0874-0.07149 0.17559-0.14166 0.26445-0.21056 3.1e-4 -2.68e-4 6.9e-4 -4.51e-4 1e-3 -6.91e-4 0.0888-0.06895 0.17846-0.13649 0.26862-0.20264 3.8e-4 -2.82e-4 8.3e-4 -5.92e-4 1e-3 -9.17e-4 0.0902-0.06641 0.18098-0.13128 0.27244-0.19504 3.3e-4 -2.4e-4 6.9e-4 -4.66e-4 1e-3 -7.05e-4 0.0209-0.01438 0.0423-0.02848 0.0632-0.04287 0.0711-0.04893 0.1421-0.098 0.21404-0.14524 0.0925-0.06134 0.18585-0.12098 0.27957-0.17973 4.1e-4 -2.53e-4 8.1e-4 -6.06e-4 1e-3 -9.02e-4 0.0938-0.05866 0.18803-0.11576 0.28281-0.17198 4.2e-4 -2.4e-4 8e-4 -6.21e-4 1e-3 -9.03e-4 0.0949-0.05612 0.19033-0.11083 0.28626-0.16444 3.5e-4 -1.97e-4 6.6e-4 -4.65e-4 1e-3 -6.76e-4 0.096-0.05344 0.19237-0.1059 0.2894-0.15681 3.6e-4 -1.83e-4 6.6e-4 -4.79e-4 1e-3 -6.76e-4 5.0611-2.6626 11.458-1.8631 15.716 2.3958zm-2.7804 2.8432c-9.9e-4 -1e-3 -3e-3 -0.0028-6e-3 -0.0042-0.0448-0.04456-0.0902-0.08813-0.13663-0.13001-0.0168-0.01523-0.034-0.02947-0.0509-0.04428-0.0302-0.02651-0.0603-0.05288-0.0911-0.07826-0.022-0.01819-0.0444-0.03553-0.0665-0.0533-0.0281-0.02228-0.0561-0.04442-0.0848-0.06571-0.0233-0.01734-0.0468-0.03412-0.0702-0.0509-0.0264-0.01889-0.0529-0.03737-0.0797-0.0557-0.0254-0.0172-0.0509-0.03441-0.0768-0.0509-0.0293-0.01904-0.0588-0.03737-0.0885-0.05556-0.0223-0.0141-0.0444-0.02707-0.0668-0.04005-0.0283-0.0165-0.057-0.03243-0.0857-0.04822-0.0288-0.01579-0.0574-0.03144-0.0864-0.04667-0.0172-0.0085-0.0347-0.0172-0.052-0.02595-0.13945-0.06952-0.28181-0.13114-0.42678-0.18325-5.9e-4 -2.12e-4 -1e-3 -4.8e-4 -1e-3 -2.96e-4 -0.0396-0.01424-0.0794-0.0275-0.11943-0.04047-0.018-0.0056-0.0365-0.01128-0.055-0.01749-0.0364-0.01128-0.0732-0.02186-0.10984-0.03187-0.0204-0.0056-0.0406-0.01128-0.061-0.01636-0.0408-0.0099-0.0815-0.02045-0.1224-0.02961-0.0127-0.0028-0.0264-0.0056-0.0393-0.0085-0.0447-0.0099-0.0895-0.01861-0.13452-0.02665-0.01-0.0014-0.021-0.0028-0.0322-0.0056-0.99228-0.16867-2.0357 0.04216-2.9009 0.63293 5.8e-4 -8.46e-4 1e-3 -0.0014 1e-3 -0.0014-0.20405 0.13903-0.3987 0.29838-0.57999 0.47967-0.15008 0.15014-0.28539 0.30914-0.40657 0.47518 4.8e-4 -3.25e-4 9.3e-4 -7.06e-4 1e-3 -1e-3 -0.14183 0.19428-0.26391 0.39831-0.36617 0.60936-1.8e-4 3.81e-4 -3.3e-4 8.04e-4 -5.3e-4 0.0012-7e-5 1.83e-4 -9e-5 3.81e-4 -1.4e-4 5.22e-4 -0.0247 0.05062-0.0478 0.10195-0.0699 0.15365-9e-4 0.0014-1e-3 0.0028-3e-3 7e-3 -5.5e-4 0.0013-9.2e-4 0.0028-1e-3 0.0028-0.0213 0.04949-0.0413 0.09927-0.0605 0.14948-3e-3 0.0071-4e-3 0.01269-7e-3 0.01833-0.0182 0.04851-0.0354 0.09729-0.0516 0.14625-3e-3 0.0085-6e-3 0.01607-8e-3 0.02397-0.0159 0.04879-0.0307 0.09814-0.0447 0.14728-4.4e-4 0.0014-9.2e-4 0.0028-1e-3 0.0028-1e-3 0.0028-3e-3 7e-3 -3e-3 0.01128-0.0145 0.0526-0.0281 0.10505-0.0406 0.158-0.0527 0.2248-0.0856 0.45318-0.0986 0.68251-3e-3 0.05076-4e-3 0.10195-6e-3 0.15268-2.7e-4 0.0085-8.9e-4 0.01692-7.1e-4 0.0258-5.3e-4 0.04695 9e-5 0.09433 1e-3 0.14142 5.7e-4 0.01269 6.8e-4 0.02595 1e-3 0.03906 1e-3 0.04103 3e-3 0.08221 6e-3 0.12324 1e-3 0.02143 3e-3 0.04258 4e-3 0.06373 3e-3 0.04075 7e-3 0.08122 0.0113 0.12183 1e-3 0.01467 3e-3 0.03003 6e-3 0.04512 6e-3 0.04315 0.0113 0.08644 0.0181 0.1293 3e-3 0.01749 6e-3 0.03497 8e-3 0.05231 7e-3 0.04146 0.0144 0.08277 0.0228 0.1238 3e-3 0.01664 7e-3 0.03285 0.0113 0.04935 8e-3 0.04131 0.0179 0.08277 0.0283 0.1238 4e-3 0.01579 8e-3 0.0313 0.0127 0.0471 0.0392 0.14844 0.087 0.29511 0.14375 0.43915 3e-3 0.0056 3e-3 0.01128 6e-3 0.01636 2.3e-4 5.22e-4 1.2e-4 8.46e-4 4e-4 0.0014 0.0152 0.03821 0.032 0.076 0.0486 0.11379 8e-3 0.01946 0.0165 0.03892 0.0252 0.05823 0.0148 0.03229 0.0307 0.06444 0.0464 0.09659 0.0113 0.02468 0.024 0.04921 0.0365 0.07375 0.0141 0.02665 0.0281 0.05316 0.0426 0.07967 0.0162 0.02989 0.0328 0.06007 0.0499 0.08982 0.0149 0.02594 0.0303 0.05161 0.046 0.07727 0.0152 0.02496 0.031 0.04992 0.047 0.07473 0.0186 0.02919 0.0375 0.05809 0.057 0.08686 0.0171 0.0251 0.0344 0.04992 0.052 0.07473 0.0179 0.0251 0.0358 0.05006 0.0544 0.07501 0.0212 0.02806 0.0429 0.05584 0.0647 0.08376 0.0179 0.02284 0.0355 0.04583 0.054 0.06811 0.0217 0.02637 0.0444 0.05203 0.067 0.07798 0.0204 0.02341 0.0403 0.04738 0.0615 0.07036 0.0405 0.04456 0.0822 0.08827 0.12507 0.13128 1e-3 0.0028 4e-3 0.0042 6e-3 0.0056l3.4e-4 3.39e-4c0.0454 0.0454 0.0918 0.08926 0.13875 0.13184 0.0207 0.0189 0.042 0.0368 0.063 0.05513 0.0286 0.0251 0.0572 0.0502 0.0863 0.07445 0.0196 0.01622 0.0398 0.03173 0.0598 0.04738 0.0307 0.02439 0.0615 0.04865 0.0928 0.07177 0.0214 0.01607 0.0433 0.03144 0.065 0.04709 0.0289 0.02073 0.0581 0.04103 0.0874 0.06091 0.0244 0.0165 0.0491 0.03271 0.0736 0.04865 0.0305 0.0196 0.0612 0.03863 0.0921 0.05739 0.02 0.01269 0.04 0.02397 0.0601 0.03567 0.0364 0.02115 0.073 0.0416 0.10984 0.06148 0.0195 0.0099 0.0389 0.02115 0.0585 0.0313 0.034 0.01763 0.0682 0.0344 0.10251 0.05104 0.0227 0.01128 0.0453 0.02186 0.0682 0.03257 0.0336 0.01537 0.0674 0.02989 0.10111 0.04414 0.0237 0.0099 0.047 0.02073 0.0708 0.03017 0.0479 0.01932 0.0962 0.03737 0.14462 0.05471 7e-3 0.0028 0.0158 0.0056 0.0237 0.0085 0.0594 0.02087 0.11915 0.04004 0.17912 0.05781 8e-3 0.0028 0.0179 0.0056 0.0266 0.0071 0.0492 0.01424 0.0986 0.02806 0.14826 0.04047 0.0237 0.0056 0.0479 0.01128 0.0719 0.01636 0.0345 0.0085 0.0692 0.01593 0.10392 0.02284 0.025 0.0056 0.0501 0.0099 0.075 0.0141 0.0374 7e-3 0.0746 0.01269 0.11195 0.0189 0.023 0.0042 0.0457 7e-3 0.0685 0.0099 0.0371 0.0056 0.0742 0.0099 0.11126 0.0141 0.0228 0.0028 0.0457 0.0042 0.0685 7e-3 0.0398 0.0042 0.0794 0.0056 0.11915 0.0085 0.0223 0.0013 0.0446 0.0028 0.067 0.0028 0.0389 0.0012 0.078 0.0028 0.11718 0.0028 0.0212 1.83e-4 0.0423 3.66e-4 0.0636 6.48e-4 0.0408-7.05e-4 0.0819-0.0014 0.12282-0.0028 0.021-0.0012 0.0423-0.0011 0.0634-0.0028 0.0393-0.0014 0.0784-0.0056 0.11774-0.0085 0.0221-0.0014 0.0441-0.0028 0.0664-0.0042 0.0592-0.0056 0.11831-0.01269 0.17722-0.02129 8.2e-4 -1.41e-4 1e-3 -6.21e-4 3e-3 -5.64e-4 6e-3 -9.87e-4 0.01-0.0014 0.0162-0.0014 0.0532-0.0085 0.10675-0.01692 0.15972-0.02721 0.0272-0.0056 0.0544-0.01128 0.0816-0.01748 0.0326-0.0071 0.0656-0.01269 0.098-0.02186 0.0261-0.0056 0.0515-0.01269 0.0773-0.01988 0.0343-0.0085 0.0684-0.01777 0.10251-0.02764 0.0248-0.0071 0.0491-0.01467 0.0733-0.02256 0.0338-0.0099 0.0678-0.02115 0.10152-0.03299 0.0267-0.0085 0.0523-0.01847 0.0783-0.02834 0.032-0.01128 0.0637-0.02439 0.0957-0.03582 0.024-0.0099 0.0485-0.01889 0.0723-0.02961 0.0341-0.01495 0.0682-0.02989 0.10237-0.0447 0.024-0.01128 0.0474-0.02143 0.0711-0.03215 0.0329-0.01466 0.0643-0.03187 0.0965-0.0478 0.0234-0.01128 0.046-0.02256 0.0687-0.03511 0.0347-0.0196 0.0698-0.0385 0.10449-0.05838 0.0197-0.01269 0.0408-0.02256 0.0608-0.03469 0.0381-0.02186 0.0747-0.04597 0.11182-0.06994 0.0163-0.0099 0.0324-0.02045 0.0488-0.03088 1e-3 -0.0012 3e-3 -0.0028 6e-3 -0.0028 0.21737-0.14466 0.42387-0.3126 0.61587-0.50459 0.18597-0.18603 0.34908-0.38599 0.49068-0.59579 0.02-0.02989 0.0393-0.06007 0.0587-0.0901 0.0127-0.02059 0.0254-0.04146 0.0383-0.06148 0.0203-0.03229 0.0393-0.06557 0.0582-0.0987 0.0113-0.01946 0.0219-0.0399 0.0331-0.05922 0.018-0.03398 0.0364-0.06726 0.0537-0.10124 0.0113-0.02101 0.0214-0.04287 0.032-0.06416 0.0154-0.03144 0.0306-0.06303 0.0451-0.09461 0.01-0.02454 0.0213-0.04851 0.0317-0.07262 0.0763-0.1766 0.13918-0.35732 0.18859-0.54101 4e-3 -0.01861 0.01-0.03694 0.0149-0.05542 8e-3 -0.03342 0.0159-0.06684 0.0236-0.1004 6e-3 -0.0275 0.0127-0.05513 0.0182-0.08277 6e-3 -0.03032 0.0113-0.06091 0.0172-0.09137 6e-3 -0.02919 0.01-0.05838 0.0148-0.08756 4e-3 -0.02792 8e-3 -0.0557 0.0127-0.08362 4e-3 -0.03314 8e-3 -0.06627 0.0113-0.09955l8e-3 -0.08376c3e-3 -0.03102 4e-3 -0.06204 7e-3 -0.09306 1e-3 -0.0282 4e-3 -0.0564 6e-3 -0.08474 1e-3 -0.0361 1e-3 -0.07205 3e-3 -0.10815 4.1e-4 -0.02397 1e-3 -0.04808 1e-3 -0.0722-2e-4 -0.05809-1e-3 -0.11605-4e-3 -0.17397-4.2e-4 -0.01269-1e-3 -0.02721-3e-3 -0.04089-3e-3 -0.04879-6e-3 -0.09786-0.01-0.14648-1e-3 -0.01424-3e-3 -0.02792-4e-3 -0.04188-4e-3 -0.04625-0.01-0.0925-0.0166-0.13861-3e-3 -0.01763-6e-3 -0.03511-8e-3 -0.05274-7e-3 -0.04273-0.0141-0.08531-0.0217-0.12775-4e-3 -0.02031-8e-3 -0.04047-0.0127-0.06077-8e-3 -0.03892-0.0165-0.07798-0.0255-0.11661-4e-3 -0.01974-0.01-0.03948-0.0142-0.05922-0.0113-0.0454-0.0238-0.09052-0.0369-0.13551-3e-3 -0.01269-7e-3 -0.0251-0.0113-0.03765-0.0144-0.04752-0.0298-0.09462-0.0458-0.14175-4e-3 -0.01269-8e-3 -0.02566-0.0127-0.03835-0.0616-0.17424-0.13579-0.345-0.22259-0.5111-8e-3 -0.01608-0.0169-0.03173-0.0255-0.04752-0.0223-0.04131-0.0451-0.08235-0.0691-0.12296-8e-3 -0.01269-0.0156-0.02609-0.0235-0.03906-0.0234-0.03878-0.0472-0.07755-0.0721-0.11576-0.0127-0.0189-0.0248-0.03765-0.0374-0.0564-0.0231-0.03426-0.047-0.06811-0.0712-0.10181-0.0127-0.01734-0.0251-0.03483-0.0379-0.05203-0.0254-0.03426-0.0519-0.06796-0.0785-0.10152-0.0141-0.01777-0.0282-0.03539-0.0426-0.05302-0.0296-0.03581-0.0601-0.07121-0.0911-0.10632-0.0113-0.01269-0.0217-0.02524-0.033-0.03779-0.0437-0.04837-0.0888-0.09588-0.13551-0.14243zm3.3008 15.574c-5.5e-4 4.94e-4 -1e-3 9.59e-4 -1e-3 0.0014 4.5e-4 -5.21e-4 1e-3 -0.0011 1e-3 -0.0014z" fill="#ffc730" fill-rule="evenodd" stroke-width=".16581"/><g transform="matrix(.62092 0 0 .62092 33.943 35.423)"><g><path d="m50.613 91.408c-4.0405-0.52436-8.2281-2.0234-11.022-3.9456-0.65367-0.44974-2.7811-2.3519-4.7276-4.2271-5.6937-5.485-7.1613-6.2146-12.476-6.2022-3.7688 0.0088-5.1923 0.27308-10.089 1.873l-2.9451 0.96224-1.8576-1.2349c-4.9136-3.2665-6.8424-6.5372-7.1223-12.077-0.16274-3.2211 0.26129-9.9758 0.83071-13.233 1.6208-9.2715 6.347-17.151 14.232-23.728 2.0098-1.6764 2.1592-1.8803 3.6251-4.9502 2.6348-5.518 4.3117-10.658 8.2519-25.295 3.5332-13.125 5.3739-19.057 7.5376-24.292 4.8518-11.738 10.982-17.792 18.957-18.72l1.5214-0.1771v135.53l-1.5214-0.03355c-0.83677-0.01845-2.2743-0.13126-3.1946-0.25069z" fill="#fea44c"/></g><path d="m55.329 23.964v-67.747l1.5214 0.15806c3.6822 0.38255 6.3301 1.3849 9.0042 3.4086 4.3456 3.2887 7.8499 8.8352 11.123 17.605 1.8008 4.8256 2.8598 8.3848 5.5103 18.521 4.5845 17.532 6.5749 23.802 9.3117 29.332 1.2571 2.5401 1.6707 3.1318 2.6703 3.8195 3.0301 2.0848 7.0523 6.9202 9.619 11.564 4.8907 8.8482 7.4115 22.007 5.573 29.091-0.95148 3.6664-2.6754 6.096-5.9567 8.3953-1.1361 0.79609-2.1416 1.5704-2.2345 1.7207-0.10922 0.17671-0.22734 0.18127-0.33427 0.0129-0.27411-0.43162-5.8144-2.0965-8.4804-2.5484-3.0911-0.52397-5.2175-0.53063-7.3702-0.02309-3.0482 0.71866-4.3467 1.5916-9.0539 6.0866-1.528 1.4591-3.2545 3.0216-3.8366 3.4721-3.5913 2.7794-8.2989 4.2981-14.619 4.7159l-2.4475 0.1618z" fill="#aa7a50"/><path d="m35.088 85.807c-9.8055-0.92631-17.563-2.705-23.105-5.2982l-2.2952-1.0738 1.7198-0.65758c2.373-0.90732 7.4275-2.1271 9.6575-2.3306 2.5295-0.23085 5.1818 0.23848 7.4886 1.3251 1.5335 0.72236 2.5436 1.5007 4.8949 3.7719 1.6295 1.5739 3.4134 3.2437 3.9642 3.7107 0.68578 0.58141 0.85257 0.83775 0.52918 0.81326-0.25973-0.01967-1.5438-0.13699-2.8535-0.26072zm40.387-2.291c5.312-5.1084 6.6973-6.0688 9.8135-6.8035 2.1208-0.50001 4.2933-0.50073 7.2466-0.0024 2.5966 0.43814 8.5677 2.2195 8.5677 2.556 0 0.29504-2.2963 1.431-5.0157 2.4812-5.0869 1.9646-12.25 3.3732-21.538 4.2358l-1.8147 0.16853z" fill="#714b2b"/></g><path d="m10.182 83.608 2.39e-4 0.0012c-0.08192 0.08178-0.16258 0.16478-0.24198 0.24817-0.23793 0.2503-0.46433 0.50725-0.67927 0.77062-0.28681 0.35147-0.55312 0.71408-0.79895 1.0861-0.18422 0.2788-0.35677 0.56306-0.518 0.85187-0.10745 0.19261-0.20997 0.38717-0.30725 0.58376-2.2376 4.5213-1.7672 10.036 1.4125 14.14 9.8e-5 1.3e-4 2.39e-4 2.3e-4 3.38e-4 3.4e-4 0.1946 0.25105 0.39968 0.49679 0.61452 0.73676l0.0056 6e-3c0.06162 0.0695 0.12535 0.13734 0.18937 0.20532 0.02397 0.0258 0.04766 0.0516 0.07149 0.0776 0.0011 1e-3 0.0028 3e-3 0.0028 3e-3l7e-3 7e-3c1.13e-4 1.1e-4 2.25e-4 2.2e-4 3.24e-4 3.4e-4 0.0056 6e-3 0.01269 0.0127 0.01833 0.0186 0.02016 0.0209 0.04061 0.0416 0.060629 0.0626 0.05401 0.0558 0.10773 0.11167 0.16289 0.16686 0.02877 0.0288 0.05824 0.0563 0.087 0.085 0.0533 0.0525 0.10674 0.10462 0.16134 0.15537 2.7276 2.5942 6.2738 3.8399 9.7793 3.713 1.83e-4 -1e-5 3.38e-4 -1.7e-4 5.07e-4 -1.7e-4 1.0535-0.0382 2.1032-0.20009 3.126-0.48655 1.84e-4 -6e-5 3.39e-4 -1.3e-4 5.08e-4 -1.6e-4 0.14594-0.0409 0.29129-0.084 0.43606-0.13l-3.39e-4 -3.4e-4c2.82e-4 -7e-5 5.78e-4 -7e-5 8.04e-4 -1.3e-4l18.005 18.005h-3.38e-4l1.0552 1.0552 6.8266-1.6991c-2.39e-4 -2.4e-4 -2.96e-4 -3.1e-4 -4.93e-4 -4.8e-4h3.52e-4c-0.0028-4e-3 -0.0042-6e-3 -0.0099-0.01l1.8194-6.9248-2.2854-2.2854-6.77e-4 -1e-5 -4.8e-4 -4.8e-4 -3.1073-0.10181v6.7e-4l-0.93052-0.0306 0.22672-3.6801-0.6518-0.65178h-6.77e-4l-6.62e-4 -6.6e-4 -3.1532-0.0502v3.2e-4l-0.84808-0.0141-0.14237-4.0811-0.0011-1.8e-4 -1.4e-5 -3.6e-4 -3.222-0.11647 1.4e-5 3.4e-4 -0.89582-0.0323 0.02101-1.016 0.05964-2.8731 1.7e-4 -1.7e-4 -4.1004-4.1006c0.04766-0.14539 0.09264-0.29157 0.13438-0.43848 1e-3 -0.0028 0.0011-0.0056 0.0028-0.0085 0.03892-0.1341 0.07487-0.26873 0.109-0.40377l0.01269-0.05076c0.07022-0.28356 0.13212-0.56862 0.18407-0.8553 0.0014-0.01269 0.0042-0.02496 0.0071-0.03694 0.05231-0.29324 0.09518-0.58774 0.12789-0.88329 4.51e-4 -0.0042 4.51e-4 -0.0071 1.83e-4 -0.01128 0.01565-0.14189 0.02876-0.28401 0.03976-0.42629 4.66e-4 -0.0071 0.0014-0.01636 0.0028-0.02439 0.02214-0.29046 0.03469-0.58146 0.03793-0.87263 4.09e-4 -0.01791-2.96e-4 -0.03708 2.12e-4 -0.05527 0.0028-0.28796-0.0042-0.57592-0.02101-0.86355-0.0013-0.01678-0.0014-0.03271-0.0028-0.04921-0.0085-0.1348-0.01805-0.26966-0.03018-0.40428-1.69e-4 -0.0099-0.0014-0.01988-0.0028-0.03017-0.0141-0.14446-0.02919-0.28861-0.04724-0.43263-0.0028-0.0141-0.0042-0.02764-0.0056-0.04117-0.01593-0.12465-0.03398-0.24899-0.05344-0.37321-0.0042-0.02834-0.0085-0.05654-0.01269-0.08503-0.04512-0.2767-0.09913-0.55229-0.16161-0.82628-0.0056-0.02623-0.01269-0.05245-0.01847-0.07882-0.02862-0.12253-0.05894-0.24483-0.09123-0.36668-0.0042-0.01424-0.0071-0.02961-0.01128-0.04428-0.03722-0.13889-0.07699-0.27747-0.11873-0.41544-0.0042-0.01438-0.0099-0.02933-0.0141-0.04399-0.03849-0.12592-0.0791-0.25136-0.12141-0.37629-0.0056-0.01734-0.01128-0.03412-0.0172-0.05119-0.09405-0.27394-0.19731-0.54542-0.30949-0.81407-0.0085-0.02045-0.01706-0.04075-0.02566-0.0612-0.05175-0.12239-0.10533-0.24415-0.16092-0.36532-0.0056-0.01128-0.01128-0.02256-0.01593-0.03384-0.06063-0.13099-0.12352-0.26117-0.18857-0.39054-0.0085-0.01904-0.01918-0.03708-0.02862-0.05584-0.05654-0.11154-0.11478-0.22221-0.17464-0.33236-0.01269-0.02327-0.02566-0.04724-0.03863-0.07093-0.06881-0.12451-0.13931-0.24852-0.21224-0.37135-0.0085-0.0141-0.01706-0.02707-0.02496-0.04103-0.06571-0.10956-0.13339-0.21835-0.20246-0.32651-0.01678-0.02679-0.0337-0.05372-0.05133-0.07995-0.15638-0.24092-0.32103-0.47798-0.49428-0.71068-0.01918-0.0251-0.03835-0.05034-0.05753-0.07544-0.07374-0.09772-0.14901-0.19466-0.22581-0.2908-0.0165-0.02045-0.03285-0.04075-0.04935-0.0612-0.09264-0.11464-0.18754-0.22802-0.28458-0.34022-0.01128-0.01128-0.022-0.02397-0.03257-0.03652-0.08742-0.09927-0.17574-0.19846-0.26599-0.29631-0.02059-0.02214-0.04075-0.04456-0.06204-0.06613-0.10251-0.10843-0.20539-0.21736-0.31175-0.32371-0.24614-0.24615-0.50005-0.48011-0.75929-0.70365-0.08601-0.07403-0.1727-0.14656-0.2602-0.21794-3.81e-4 -2.82e-4 -8.6e-4 -5.78e-4 -0.0012-9.03e-4 -0.08742-0.07149-0.17559-0.14165-0.26446-0.21056-3.1e-4 -2.68e-4 -6.91e-4 -4.52e-4 -1e-3 -6.91e-4 -0.08883-0.06895-0.17846-0.13649-0.26862-0.20264-3.8e-4 -2.82e-4 -8.32e-4 -5.93e-4 -0.0012-9.17e-4 -0.09024-0.06641-0.18098-0.13128-0.27244-0.19504-3.38e-4 -2.39e-4 -6.91e-4 -4.65e-4 -1e-3 -7.05e-4 -0.02087-0.01438-0.0423-0.02848-0.06317-0.04287-0.07107-0.04893-0.1421-0.098-0.21405-0.14524-0.0925-0.06134-0.18585-0.12098-0.27957-0.17973-4.09e-4 -2.54e-4 -8.04e-4 -6.06e-4 -0.0012-9.02e-4 -0.09377-0.05866-0.18803-0.11577-0.28281-0.17198-4.23e-4 -2.39e-4 -8.04e-4 -6.2e-4 -0.0012-9.02e-4 -0.0949-0.05612-0.19033-0.11083-0.28626-0.16444-3.53e-4 -1.97e-4 -6.63e-4 -4.65e-4 -1e-3 -6.77e-4 -0.09602-0.05344-0.19237-0.1059-0.2894-0.15681-3.66e-4 -1.83e-4 -6.62e-4 -4.79e-4 -1e-3 -6.77e-4 -5.0614-2.663-11.458-1.8634-15.717 2.3955zm2.7803 2.8432c9.87e-4 -1e-3 0.0028-0.0028 0.0056-0.0042 0.04484-0.04456 0.09024-0.08813 0.13663-0.13001 0.01678-0.01523 0.03398-0.02947 0.0509-0.04427 0.03017-0.02651 0.06035-0.05288 0.09109-0.07826 0.022-0.01819 0.04442-0.03553 0.06656-0.0533 0.02806-0.02228 0.05612-0.04442 0.08474-0.06571 0.02327-0.01734 0.04681-0.03412 0.07022-0.0509 0.02637-0.01889 0.05288-0.03737 0.07967-0.0557 0.02538-0.0172 0.0509-0.03441 0.07685-0.0509 0.02933-0.01904 0.0588-0.03737 0.08855-0.05556 0.02228-0.0141 0.04442-0.02707 0.06684-0.04005 0.02834-0.0165 0.05697-0.03243 0.08573-0.04822s0.05739-0.03144 0.08644-0.04667c0.0172-0.0085 0.03469-0.0172 0.05203-0.02595 0.13946-0.06952 0.28181-0.13114 0.42678-0.18325 5.92e-4 -2.11e-4 0.0014-4.79e-4 0.0014-2.96e-4 0.03962-0.01424 0.07939-0.0275 0.11943-0.04047 0.01805-0.0056 0.03652-0.01128 0.05499-0.01749 0.03638-0.01128 0.07318-0.02186 0.10984-0.03187 0.02045-0.0056 0.04061-0.01128 0.06106-0.01636 0.04075-0.0099 0.0815-0.02045 0.12239-0.02961 0.01269-0.0028 0.02637-0.0056 0.03934-0.0085 0.0447-0.0099 0.08954-0.01861 0.13452-0.02665 0.0099-0.0014 0.02101-0.0028 0.03215-0.0056 0.99228-0.16867 2.0357 0.04216 2.9009 0.63293-5.78e-4 -8.46e-4 -0.0013-0.0014-0.0014-0.0014 0.20405 0.13903 0.39869 0.29838 0.57998 0.47967 0.15009 0.15014 0.2854 0.30914 0.40658 0.47517-4.79e-4 -3.24e-4 -9.3e-4 -7.05e-4 -0.0013-1e-3 0.14182 0.19428 0.26391 0.39831 0.36616 0.60936 1.83e-4 3.81e-4 3.38e-4 8.04e-4 5.36e-4 0.0012 7e-5 1.83e-4 8.4e-5 3.81e-4 1.41e-4 5.22e-4 0.02468 0.05062 0.0478 0.10195 0.06994 0.15365 9.02e-4 0.0014 0.0014 0.0028 0.0028 0.0071 5.5e-4 0.0013 9.16e-4 0.0028 0.0014 0.0028 0.02129 0.04949 0.04131 0.09927 0.06049 0.14948 0.0028 0.0071 0.0042 0.01269 7e-3 0.01833 0.01819 0.04851 0.03539 0.09729 0.05161 0.14625 0.0028 0.0085 0.0056 0.01608 0.0085 0.02397 0.01593 0.04879 0.03074 0.09814 0.0447 0.14728 4.37e-4 0.0014 9.16e-4 0.0028 0.0014 0.0028 1e-3 0.0028 0.0028 7e-3 0.0028 0.01128 0.01452 0.05259 0.02806 0.10505 0.04061 0.158 0.05274 0.2248 0.08559 0.45318 0.09856 0.68251 0.0028 0.05076 0.0042 0.10195 0.0056 0.15268 2.68e-4 0.0085 8.89e-4 0.01692 7.05e-4 0.0258 5.36e-4 0.04695-8.4e-5 0.09433-0.0012 0.14141-5.64e-4 0.01269-6.77e-4 0.02595-0.0013 0.03906-0.0014 0.04103-0.0028 0.08221-0.0056 0.12324-0.0014 0.02143-0.0028 0.04258-0.0042 0.06373-0.0028 0.04075-7e-3 0.08122-0.01128 0.12183-0.0013 0.01466-0.0028 0.03003-0.0056 0.04512-0.0056 0.04315-0.01128 0.08644-0.01805 0.1293-0.0028 0.01748-0.0056 0.03497-0.0085 0.05231-0.0071 0.04145-0.01438 0.08277-0.02284 0.1238-0.0028 0.01664-0.0071 0.03285-0.01128 0.04935-0.0085 0.04131-0.01791 0.08277-0.02834 0.1238-0.0042 0.01579-0.0085 0.0313-0.01269 0.0471-0.0392 0.14844-0.087 0.29511-0.14376 0.43915-0.0028 0.0056-0.0028 0.01128-0.0056 0.01636-2.25e-4 5.21e-4 -1.13e-4 8.46e-4 -3.95e-4 0.0014-0.01523 0.03821-0.03201 0.076-0.04865 0.11379-0.0085 0.01946-0.0165 0.03892-0.02524 0.05824-0.01481 0.03229-0.03074 0.06444-0.04639 0.09659-0.01128 0.02468-0.02397 0.04921-0.03652 0.07375-0.0141 0.02665-0.02806 0.05316-0.04258 0.07967-0.01621 0.02989-0.03285 0.06007-0.04992 0.08982-0.01495 0.02594-0.03032 0.05161-0.04597 0.07727-0.01523 0.02496-0.03102 0.04992-0.04696 0.07473-0.01861 0.02919-0.03751 0.05809-0.05697 0.08686-0.01706 0.0251-0.03441 0.04992-0.05203 0.07473-0.01791 0.0251-0.03582 0.05006-0.05443 0.07501-0.02115 0.02806-0.04287 0.05584-0.06472 0.08376-0.01791 0.02284-0.03553 0.04583-0.05401 0.06811-0.02172 0.02637-0.04442 0.05203-0.06698 0.07798-0.02045 0.02341-0.04033 0.04738-0.06148 0.07036-0.04047 0.04456-0.08221 0.08827-0.12507 0.13128-0.0014 0.0028-0.0042 0.0042-0.0056 0.0056l-3.39e-4 3.38e-4c-0.0454 0.0454-0.09179 0.08926-0.13875 0.13184-0.02073 0.01889-0.04202 0.0368-0.06303 0.05513-0.02862 0.0251-0.05725 0.0502-0.08629 0.07445-0.0196 0.01622-0.03976 0.03173-0.05979 0.04738-0.03074 0.02439-0.06148 0.04865-0.09278 0.07177-0.02143 0.01608-0.04329 0.03144-0.065 0.0471-0.02891 0.02073-0.05809 0.04103-0.08742 0.06091-0.02439 0.0165-0.04907 0.03271-0.0736 0.04865-0.03046 0.0196-0.0612 0.03864-0.09208 0.05739-0.02002 0.01269-0.04005 0.02397-0.06007 0.03567-0.03638 0.02115-0.07304 0.0416-0.10984 0.06148-0.01946 0.0099-0.03892 0.02115-0.05852 0.0313-0.03398 0.01762-0.06825 0.03441-0.10251 0.05104-0.0227 0.01128-0.04526 0.02186-0.06825 0.03257-0.03356 0.01537-0.0674 0.02989-0.1011 0.04413-0.02369 0.0099-0.04696 0.02073-0.07079 0.03017-0.04794 0.01932-0.09617 0.03737-0.14462 0.05471-7e-3 0.0028-0.01579 0.0056-0.02369 0.0085-0.05936 0.02087-0.11915 0.04005-0.17912 0.05781-0.0085 0.0028-0.01791 0.0056-0.02665 0.0071-0.04921 0.01424-0.09856 0.02806-0.14825 0.04047-0.02369 0.0056-0.04794 0.01128-0.07191 0.01636-0.03455 0.0085-0.06923 0.01593-0.10392 0.02284-0.02496 0.0056-0.05006 0.0099-0.07501 0.0141-0.03737 0.0071-0.07459 0.01269-0.11196 0.01889-0.02298 0.0042-0.04569 0.0071-0.06853 0.0099-0.03708 0.0056-0.07417 0.0099-0.11125 0.0141-0.02284 0.0028-0.04569 0.0042-0.06853 0.0071-0.03976 0.0042-0.07939 0.0056-0.11915 0.0085-0.02228 0.0013-0.04456 0.0028-0.06698 0.0028-0.03892 0.0012-0.07798 0.0028-0.11718 0.0028-0.02115 1.83e-4 -0.0423 3.67e-4 -0.06359 6.49e-4 -0.04075-7.05e-4 -0.08192-0.0014-0.12282-0.0028-0.02101-0.0012-0.0423-0.0011-0.06345-0.0028-0.03934-0.0014-0.0784-0.0056-0.11774-0.0085-0.02214-0.0014-0.04414-0.0028-0.06641-0.0042-0.05922-0.0056-0.1183-0.01269-0.17722-0.02129-8.17e-4 -1.41e-4 -0.0014-6.2e-4 -0.0028-5.64e-4 -0.0056-9.87e-4 -0.0099-0.0014-0.01622-0.0014-0.05316-0.0085-0.10674-0.01692-0.15972-0.02721-0.02721-0.0056-0.05443-0.01128-0.08164-0.01748-0.03257-0.0071-0.06557-0.01269-0.098-0.02186-0.02609-0.0056-0.05147-0.01269-0.07727-0.01988-0.03426-0.0085-0.06839-0.01777-0.10251-0.02764-0.02482-0.0071-0.04907-0.01467-0.07332-0.02256-0.03384-0.0099-0.06782-0.02115-0.10152-0.033-0.02665-0.0085-0.05231-0.01847-0.07826-0.02834-0.03201-0.01128-0.06373-0.02439-0.09574-0.03581-0.02397-0.0099-0.04851-0.0189-0.07234-0.02961-0.03412-0.01495-0.06825-0.02989-0.10237-0.0447-0.02397-0.01128-0.04738-0.02143-0.07107-0.03215-0.03285-0.01467-0.0643-0.03187-0.09645-0.0478-0.02341-0.01128-0.04597-0.02256-0.06867-0.03511-0.03469-0.0196-0.0698-0.03849-0.10448-0.05838-0.01974-0.01269-0.04075-0.02256-0.06077-0.03469-0.03807-0.02186-0.07473-0.04597-0.11182-0.06994-0.01636-0.0099-0.03243-0.02045-0.04879-0.03088-0.0014-0.0012-0.0028-0.0028-0.0056-0.0028-0.21744-0.14494-0.42394-0.31287-0.61594-0.50487-0.18597-0.18603-0.34909-0.38599-0.49068-0.59579-0.02002-0.02989-0.03934-0.06007-0.05866-0.0901-0.01269-0.02059-0.02538-0.04145-0.03835-0.06148-0.02031-0.03229-0.03934-0.06557-0.05823-0.0987-0.01128-0.01946-0.02186-0.0399-0.03314-0.05922-0.01805-0.03398-0.03638-0.06726-0.05372-0.10124-0.01128-0.02101-0.02143-0.04287-0.03201-0.06416-0.01537-0.03144-0.0306-0.06303-0.04512-0.09462-0.0099-0.02454-0.02129-0.04851-0.03173-0.07262-0.07628-0.1766-0.13917-0.35732-0.18858-0.54101-0.0042-0.01861-0.0099-0.03694-0.01495-0.05542-0.0085-0.03342-0.01593-0.06684-0.02355-0.1004-0.0056-0.0275-0.01269-0.05513-0.01819-0.08277-0.0056-0.03032-0.01128-0.06091-0.0172-0.09137-0.0056-0.02919-0.0099-0.05838-0.01481-0.08756-0.0042-0.02792-0.0085-0.0557-0.01269-0.08362-0.0042-0.03314-0.0085-0.06627-0.01128-0.09955l-0.0085-0.08376c-0.0028-0.03102-0.0042-0.06204-0.0071-0.09306-0.0014-0.0282-0.0042-0.0564-0.0056-0.08474-0.0014-0.0361-0.0014-0.07205-0.0028-0.10815-4.09e-4 -0.02397-0.0014-0.04808-0.0013-0.0722 1.98e-4 -0.05809 0.0014-0.11605 0.0042-0.17397 4.23e-4 -0.01269 0.0014-0.02721 0.0028-0.04089 0.0028-0.04879 0.0056-0.09786 0.0099-0.14648 0.0014-0.01424 0.0028-0.02792 0.0042-0.04188 0.0042-0.04625 0.0099-0.0925 0.01664-0.13861 0.0028-0.01763 0.0056-0.03511 0.0085-0.05274 7e-3 -0.04272 0.0141-0.08531 0.02172-0.12775 0.0042-0.0203 0.0085-0.04047 0.01269-0.06077 0.0085-0.03892 0.0165-0.07798 0.02552-0.11661 0.0042-0.01974 0.0099-0.03948 0.01424-0.05922 0.01128-0.0454 0.02383-0.09052 0.03694-0.13551 0.0028-0.01269 0.0071-0.0251 0.01128-0.03765 0.01438-0.04752 0.02975-0.09461 0.04583-0.14175 0.0042-0.01269 0.0085-0.02566 0.01269-0.03835 0.06162-0.17424 0.13579-0.345 0.22259-0.5111 0.0085-0.01608 0.01692-0.03173 0.02552-0.04752 0.02228-0.04131 0.04512-0.08235 0.06909-0.12296 0.0085-0.01269 0.01565-0.02609 0.02355-0.03906 0.02341-0.03878 0.04724-0.07755 0.07205-0.11577 0.01269-0.01889 0.02482-0.03765 0.03737-0.0564 0.02313-0.03426 0.04696-0.06811 0.07121-0.10181 0.01269-0.01734 0.0251-0.03483 0.03793-0.05203 0.02538-0.03426 0.05189-0.06797 0.07854-0.10152 0.0141-0.01777 0.0282-0.03539 0.04258-0.05302 0.02961-0.03581 0.06007-0.07121 0.09109-0.10632 0.01128-0.01269 0.02171-0.02524 0.03299-0.03779 0.04371-0.04836 0.08883-0.09588 0.13551-0.14243zm-3.3008 15.574c5.5e-4 4.9e-4 0.0012 9.5e-4 0.0014 1e-3 -4.51e-4 -5.3e-4 -0.0011-1e-3 -0.0014-1e-3z" fill-rule="evenodd" opacity=".3" stroke-width=".16581"/><path d="m10.182 79.878 2.39e-4 0.0012c-0.08192 0.08178-0.16258 0.16478-0.24198 0.24817-0.23793 0.2503-0.46433 0.50725-0.67927 0.77062-0.28681 0.35147-0.55312 0.71408-0.79895 1.0861-0.18422 0.2788-0.35677 0.56306-0.518 0.85187-0.10745 0.19261-0.20997 0.38717-0.30725 0.58376-2.2376 4.5213-1.7672 10.036 1.4125 14.14 9.8e-5 1.27e-4 2.39e-4 2.26e-4 3.38e-4 3.38e-4 0.1946 0.25105 0.39968 0.49679 0.61452 0.73675l0.0056 0.0056c0.06162 0.06952 0.12535 0.13734 0.18937 0.20532 0.02397 0.0258 0.04766 0.05161 0.07149 0.07755l0.0098 0.0098c1.13e-4 1.13e-4 2.25e-4 2.26e-4 3.24e-4 3.39e-4 0.0056 0.0056 0.01269 0.01269 0.01833 0.01861 0.02016 0.02087 0.04061 0.0416 0.060629 0.06261 0.05401 0.05584 0.10773 0.11168 0.16289 0.16687 0.02877 0.02877 0.05824 0.05626 0.087 0.08503 0.0533 0.05245 0.10674 0.10463 0.16134 0.15536 2.7276 2.5942 6.2738 3.8399 9.7793 3.713 1.83e-4 -1e-5 3.38e-4 -1.7e-4 5.07e-4 -1.7e-4 1.0535-0.0382 2.1032-0.20009 3.126-0.48655 1.84e-4 -6e-5 3.39e-4 -1.3e-4 5.08e-4 -1.6e-4 0.14594-0.0409 0.29129-0.084 0.43606-0.13001l-3.39e-4 -3.3e-4c2.82e-4 -7e-5 5.78e-4 -7e-5 8.04e-4 -1.3e-4l18.005 18.005h-3.38e-4l1.0552 1.0552 6.8266-1.6991c-2.39e-4 -2.4e-4 -2.96e-4 -3.1e-4 -4.93e-4 -4.8e-4h3.52e-4c-0.0028-4e-3 -0.0042-6e-3 -0.0099-0.01l1.8194-6.9248-2.2854-2.2854-6.77e-4 -1e-5 -4.8e-4 -4.8e-4 -3.1073-0.10181v6.6e-4l-0.93052-0.0306 0.22672-3.6801-0.6518-0.65178h-6.77e-4l-6.62e-4 -6.6e-4 -3.1532-0.0502v3.2e-4l-0.84808-0.0141-0.14237-4.0811-0.0011-1.8e-4 -1.4e-5 -3.6e-4 -3.222-0.11647 1.4e-5 3.4e-4 -0.89582-0.0323 0.02101-1.016 0.05964-2.8731 1.7e-4 -1.7e-4 -4.1004-4.1006c0.04766-0.14539 0.09264-0.29157 0.13438-0.43848 1e-3 -0.0028 0.0011-0.0056 0.0028-0.0085 0.03892-0.1341 0.07487-0.26873 0.109-0.40377l0.01269-0.05076c0.07022-0.28356 0.13212-0.56862 0.18407-0.8553 0.0014-0.01269 0.0042-0.02496 0.0071-0.03694 0.05231-0.29324 0.09518-0.58774 0.12789-0.88329 4.51e-4 -0.0042 4.51e-4 -0.0071 1.83e-4 -0.01128 0.01565-0.14189 0.02876-0.28401 0.03976-0.42629 4.66e-4 -7e-3 0.0014-0.01636 0.0028-0.02439 0.02214-0.29046 0.03469-0.58146 0.03793-0.87263 4.09e-4 -0.01791-2.96e-4 -0.03709 2.12e-4 -0.05527 0.0028-0.28796-0.0042-0.57592-0.02101-0.86355-0.0013-0.01678-0.0014-0.03271-0.0028-0.04921-0.0085-0.1348-0.01805-0.26966-0.03018-0.40428-1.69e-4 -0.0099-0.0014-0.01988-0.0028-0.03017-0.0141-0.14446-0.02919-0.28861-0.04724-0.43263-0.0028-0.0141-0.0042-0.02764-0.0056-0.04117-0.01593-0.12465-0.03398-0.24899-0.05344-0.37321-0.0042-0.02834-0.0085-0.05654-0.01269-0.08503-0.04512-0.2767-0.09913-0.55229-0.16161-0.82628-0.0056-0.02623-0.01269-0.05245-0.01847-0.07882-0.02862-0.12253-0.05894-0.24483-0.09123-0.36668-0.0042-0.01424-0.0071-0.02961-0.01128-0.04428-0.03722-0.13889-0.07699-0.27747-0.11873-0.41544-0.0042-0.01438-0.0099-0.02933-0.0141-0.04399-0.03849-0.12592-0.0791-0.25136-0.12141-0.37629-0.0056-0.01734-0.01128-0.03412-0.0172-0.05119-0.09405-0.27395-0.19731-0.54542-0.30949-0.81407-0.0085-0.02045-0.01706-0.04075-0.02566-0.0612-0.05175-0.12239-0.10533-0.24415-0.16092-0.36532-0.0056-0.01128-0.01128-0.02256-0.01593-0.03384-0.06063-0.13099-0.12352-0.26117-0.18857-0.39054-0.0085-0.01904-0.01918-0.03708-0.02862-0.05584-0.05654-0.11154-0.11478-0.22221-0.17464-0.33236-0.01269-0.02327-0.02566-0.04724-0.03863-0.07093-0.06881-0.12451-0.13931-0.24852-0.21224-0.37135-0.0085-0.0141-0.01706-0.02707-0.02496-0.04103-0.06571-0.10956-0.13339-0.21835-0.20246-0.32651-0.01678-0.02679-0.0337-0.05372-0.05133-0.07995-0.15638-0.24092-0.32103-0.47798-0.49428-0.71068-0.01918-0.0251-0.03835-0.05034-0.05753-0.07544-0.07374-0.09772-0.14901-0.19466-0.22581-0.2908-0.0165-0.02045-0.03285-0.04075-0.04935-0.0612-0.09264-0.11464-0.18754-0.22802-0.28458-0.34022-0.01128-0.01128-0.022-0.02397-0.03257-0.03652-0.08742-0.09927-0.17574-0.19846-0.26599-0.29631-0.02059-0.02214-0.04075-0.04456-0.06204-0.06613-0.10251-0.10843-0.20539-0.21736-0.31175-0.32371-0.24614-0.24615-0.50005-0.48011-0.75929-0.70365-0.08601-0.07403-0.1727-0.14656-0.2602-0.21794-3.81e-4 -2.82e-4 -8.6e-4 -5.78e-4 -0.0012-9.02e-4 -0.08742-0.07149-0.17559-0.14166-0.26446-0.21056-3.1e-4 -2.68e-4 -6.91e-4 -4.51e-4 -1e-3 -6.91e-4 -0.08883-0.06895-0.17846-0.13649-0.26862-0.20264-3.8e-4 -2.82e-4 -8.32e-4 -5.92e-4 -0.0012-9.17e-4 -0.09024-0.06641-0.18098-0.13128-0.27244-0.19504-3.38e-4 -2.4e-4 -6.91e-4 -4.66e-4 -1e-3 -7.05e-4 -0.02087-0.01438-0.0423-0.02848-0.06317-0.04287-0.07107-0.04893-0.1421-0.098-0.21405-0.14524-0.0925-0.06134-0.18585-0.12098-0.27957-0.17973-4.09e-4 -2.53e-4 -8.04e-4 -6.06e-4 -0.0012-9.02e-4 -0.09377-0.05866-0.18803-0.11576-0.28281-0.17198-4.23e-4 -2.4e-4 -8.04e-4 -6.21e-4 -0.0012-9.03e-4 -0.0949-0.05612-0.19033-0.11083-0.28626-0.16444-3.53e-4 -1.97e-4 -6.63e-4 -4.65e-4 -1e-3 -6.76e-4 -0.09602-0.05344-0.19237-0.1059-0.2894-0.15681-3.66e-4 -1.83e-4 -6.62e-4 -4.79e-4 -1e-3 -6.76e-4 -5.0614-2.6623-11.458-1.8628-15.717 2.3961zm2.7803 2.8432c9.87e-4 -1e-3 0.0028-0.0028 0.0056-0.0042 0.04484-0.04456 0.09024-0.08813 0.13663-0.13001 0.01678-0.01523 0.03398-0.02947 0.0509-0.04428 0.03017-0.02651 0.06035-0.05288 0.09109-0.07826 0.022-0.01819 0.04442-0.03553 0.06656-0.0533 0.02806-0.02228 0.05612-0.04442 0.08474-0.06571 0.02327-0.01734 0.04681-0.03412 0.07022-0.0509 0.02637-0.01889 0.05288-0.03737 0.07967-0.0557 0.02538-0.0172 0.0509-0.03441 0.07685-0.0509 0.02933-0.01904 0.0588-0.03737 0.08855-0.05556 0.02228-0.0141 0.04442-0.02707 0.06684-0.04005 0.02834-0.0165 0.05697-0.03243 0.08573-0.04822s0.05739-0.03144 0.08644-0.04667c0.0172-0.0085 0.03469-0.0172 0.05203-0.02595 0.13946-0.06952 0.28181-0.13114 0.42678-0.18325 5.92e-4 -2.12e-4 0.0014-4.8e-4 0.0014-2.96e-4 0.03962-0.01424 0.07939-0.0275 0.11943-0.04047 0.01805-0.0056 0.03652-0.01128 0.05499-0.01749 0.03638-0.01128 0.07318-0.02186 0.10984-0.03187 0.02045-0.0056 0.04061-0.01128 0.06106-0.01636 0.04075-0.0099 0.0815-0.02045 0.12239-0.02961 0.01269-0.0028 0.02637-0.0056 0.03934-0.0085 0.0447-0.0099 0.08954-0.01861 0.13452-0.02665 0.0099-0.0014 0.02101-0.0028 0.03215-0.0056 0.99228-0.16867 2.0357 0.04216 2.9009 0.63293-5.78e-4 -8.46e-4 -0.0013-0.0014-0.0014-0.0014 0.20405 0.13903 0.39869 0.29838 0.57998 0.47967 0.15009 0.15014 0.2854 0.30914 0.40658 0.47518-4.79e-4 -3.25e-4 -9.3e-4 -7.06e-4 -0.0013-1e-3 0.14182 0.19428 0.26391 0.39831 0.36616 0.60936 1.83e-4 3.81e-4 3.38e-4 8.04e-4 5.36e-4 0.0012 7e-5 1.83e-4 8.4e-5 3.81e-4 1.41e-4 5.22e-4 0.02468 0.05062 0.0478 0.10195 0.06994 0.15365 9.02e-4 0.0014 0.0014 0.0028 0.0028 7e-3 5.5e-4 0.0013 9.16e-4 0.0028 0.0014 0.0028 0.02129 0.04949 0.04131 0.09927 0.06049 0.14948 0.0028 0.0071 0.0042 0.01269 7e-3 0.01833 0.01819 0.04851 0.03539 0.09729 0.05161 0.14625 0.0028 0.0085 0.0056 0.01607 0.0085 0.02397 0.01593 0.04879 0.03074 0.09814 0.0447 0.14728 4.37e-4 0.0014 9.16e-4 0.0028 0.0014 0.0028 1e-3 0.0028 0.0028 7e-3 0.0028 0.01128 0.01452 0.0526 0.02806 0.10505 0.04061 0.158 0.05274 0.2248 0.08559 0.45318 0.09856 0.68251 0.0028 0.05076 0.0042 0.10195 0.0056 0.15268 2.68e-4 0.0085 8.89e-4 0.01692 7.05e-4 0.0258 5.36e-4 0.04695-8.4e-5 0.09433-0.0012 0.14142-5.64e-4 0.01269-6.77e-4 0.02595-0.0013 0.03906-0.0014 0.04103-0.0028 0.08221-0.0056 0.12324-0.0014 0.02143-0.0028 0.04258-0.0042 0.06373-0.0028 0.04075-7e-3 0.08122-0.01128 0.12183-0.0013 0.01467-0.0028 0.03003-0.0056 0.04512-0.0056 0.04315-0.01128 0.08644-0.01805 0.1293-0.0028 0.01749-0.0056 0.03497-0.0085 0.05231-0.0071 0.04146-0.01438 0.08277-0.02284 0.1238-0.0028 0.01664-0.0071 0.03285-0.01128 0.04935-0.0085 0.04131-0.01791 0.08277-0.02834 0.1238-0.0042 0.01579-0.0085 0.0313-0.01269 0.0471-0.0392 0.14844-0.087 0.29511-0.14376 0.43915-0.0028 0.0056-0.0028 0.01128-0.0056 0.01636-2.25e-4 5.22e-4 -1.13e-4 8.46e-4 -3.95e-4 0.0014-0.01523 0.03821-0.03201 0.076-0.04865 0.11379-0.0085 0.01946-0.0165 0.03892-0.02524 0.05823-0.01481 0.03229-0.03074 0.06444-0.04639 0.09659-0.01128 0.02468-0.02397 0.04921-0.03652 0.07375-0.0141 0.02665-0.02806 0.05316-0.04258 0.07967-0.01621 0.02989-0.03285 0.06007-0.04992 0.08982-0.01495 0.02594-0.03032 0.05161-0.04597 0.07727-0.01523 0.02496-0.03102 0.04992-0.04696 0.07473-0.01861 0.02919-0.03751 0.05809-0.05697 0.08686-0.01706 0.0251-0.03441 0.04992-0.05203 0.07473-0.01791 0.0251-0.03582 0.05006-0.05443 0.07501-0.02115 0.02806-0.04287 0.05584-0.06472 0.08376-0.01791 0.02284-0.03553 0.04583-0.05401 0.06811-0.02172 0.02637-0.04442 0.05203-0.06698 0.07798-0.02045 0.02341-0.04033 0.04738-0.06148 0.07036-0.04047 0.04456-0.08221 0.08827-0.12507 0.13128-0.0014 0.0028-0.0042 0.0042-0.0056 0.0056l-3.39e-4 3.39e-4c-0.0454 0.0454-0.09179 0.08926-0.13875 0.13184-0.02073 0.0189-0.04202 0.0368-0.06303 0.05513-0.02862 0.0251-0.05725 0.0502-0.08629 0.07445-0.0196 0.01622-0.03976 0.03173-0.05979 0.04738-0.03074 0.02439-0.06148 0.04865-0.09278 0.07177-0.02143 0.01607-0.04329 0.03144-0.065 0.04709-0.02891 0.02073-0.05809 0.04103-0.08742 0.06091-0.02439 0.0165-0.04907 0.03271-0.0736 0.04865-0.03046 0.0196-0.0612 0.03863-0.09208 0.05739-0.02002 0.01269-0.04005 0.02397-0.06007 0.03567-0.03638 0.02115-0.07304 0.0416-0.10984 0.06148-0.01946 0.0099-0.03892 0.02115-0.05852 0.0313-0.03398 0.01763-0.06825 0.0344-0.10251 0.05104-0.0227 0.01128-0.04526 0.02186-0.06825 0.03257-0.03356 0.01537-0.0674 0.02989-0.1011 0.04414-0.02369 0.0099-0.04696 0.02073-0.07079 0.03017-0.04794 0.01932-0.09617 0.03737-0.14462 0.05471-7e-3 0.0028-0.01579 0.0056-0.02369 0.0085-0.05936 0.02087-0.11915 0.04004-0.17912 0.05781-0.0085 0.0028-0.01791 0.0056-0.02665 0.0071-0.04921 0.01424-0.09856 0.02806-0.14825 0.04047-0.02369 0.0056-0.04794 0.01128-0.07191 0.01636-0.03455 0.0085-0.06923 0.01593-0.10392 0.02284-0.02496 0.0056-0.05006 0.0099-0.07501 0.0141-0.03737 7e-3 -0.07459 0.01269-0.11196 0.0189-0.02298 0.0042-0.04569 7e-3 -0.06853 0.0099-0.03708 0.0056-0.07417 0.0099-0.11125 0.0141-0.02284 0.0028-0.04569 0.0042-0.06853 7e-3 -0.03976 0.0042-0.07939 0.0056-0.11915 0.0085-0.02228 0.0013-0.04456 0.0028-0.06698 0.0028-0.03892 0.0012-0.07798 0.0028-0.11718 0.0028-0.02115 1.83e-4 -0.0423 3.66e-4 -0.06359 6.48e-4 -0.04075-7.05e-4 -0.08192-0.0014-0.12282-0.0028-0.02101-0.0012-0.0423-0.0011-0.06345-0.0028-0.03934-0.0014-0.0784-0.0056-0.11774-0.0085-0.02214-0.0014-0.04414-0.0028-0.06641-0.0042-0.05922-0.0056-0.1183-0.01269-0.17722-0.02129-8.17e-4 -1.41e-4 -0.0014-6.21e-4 -0.0028-5.64e-4 -0.0056-9.87e-4 -0.0099-0.0014-0.01622-0.0014-0.05316-0.0085-0.10674-0.01692-0.15972-0.02721-0.02721-0.0056-0.05443-0.01128-0.08164-0.01748-0.03257-0.0071-0.06557-0.01269-0.098-0.02186-0.02609-0.0056-0.05147-0.01269-0.07727-0.01988-0.03426-0.0085-0.06839-0.01777-0.10251-0.02764-0.02482-0.0071-0.04907-0.01467-0.07332-0.02256-0.03384-0.0099-0.06782-0.02115-0.10152-0.03299-0.02665-0.0085-0.05231-0.01847-0.07826-0.02834-0.03201-0.01128-0.06373-0.02439-0.09574-0.03582-0.02397-0.0099-0.04851-0.01889-0.07234-0.02961-0.03412-0.01495-0.06825-0.02989-0.10237-0.0447-0.02397-0.01128-0.04738-0.02143-0.07107-0.03215-0.03285-0.01466-0.0643-0.03187-0.09645-0.0478-0.02341-0.01128-0.04597-0.02256-0.06867-0.03511-0.03469-0.0196-0.0698-0.0385-0.10448-0.05838-0.01974-0.01269-0.04075-0.02256-0.06077-0.03469-0.03807-0.02186-0.07473-0.04597-0.11182-0.06994-0.01636-0.0099-0.03243-0.02045-0.04879-0.03088-0.0014-0.0012-0.0028-0.0028-0.0056-0.0028-0.21744-0.14473-0.42394-0.31266-0.61594-0.50466-0.18597-0.18603-0.34909-0.38599-0.49068-0.59579-0.02002-0.02989-0.03934-0.06007-0.05866-0.0901-0.01269-0.02059-0.02538-0.04146-0.03835-0.06148-0.02031-0.03229-0.03934-0.06557-0.05823-0.0987-0.01128-0.01946-0.02186-0.0399-0.03314-0.05922-0.01805-0.03398-0.03638-0.06726-0.05372-0.10124-0.01128-0.02101-0.02143-0.04287-0.03201-0.06416-0.01537-0.03144-0.0306-0.06303-0.04512-0.09461-0.0099-0.02454-0.02129-0.04851-0.03173-0.07262-0.07628-0.1766-0.13917-0.35732-0.18858-0.54101-0.0042-0.01861-0.0099-0.03694-0.01495-0.05542-0.0085-0.03342-0.01593-0.06684-0.02355-0.1004-0.0056-0.0275-0.01269-0.05513-0.01819-0.08277-0.0056-0.03032-0.01128-0.06091-0.0172-0.09137-0.0056-0.02919-0.0099-0.05838-0.01481-0.08756-0.0042-0.02792-0.0085-0.0557-0.01269-0.08362-0.0042-0.03314-0.0085-0.06627-0.01128-0.09955l-0.0085-0.08376c-0.0028-0.03102-0.0042-0.06204-0.0071-0.09306-0.0014-0.0282-0.0042-0.0564-0.0056-0.08474-0.0014-0.0361-0.0014-0.07205-0.0028-0.10815-4.09e-4 -0.02397-0.0014-0.04808-0.0013-0.0722 1.98e-4 -0.05809 0.0014-0.11605 0.0042-0.17397 4.23e-4 -0.01269 0.0014-0.02721 0.0028-0.04089 0.0028-0.04879 0.0056-0.09786 0.0099-0.14648 0.0014-0.01424 0.0028-0.02792 0.0042-0.04188 0.0042-0.04625 0.0099-0.0925 0.01664-0.13861 0.0028-0.01763 0.0056-0.03511 0.0085-0.05274 7e-3 -0.04273 0.0141-0.08531 0.02172-0.12775 0.0042-0.02031 0.0085-0.04047 0.01269-0.06077 0.0085-0.03892 0.0165-0.07798 0.02552-0.11661 0.0042-0.01974 0.0099-0.03948 0.01424-0.05922 0.01128-0.0454 0.02383-0.09052 0.03694-0.13551 0.0028-0.01269 0.0071-0.0251 0.01128-0.03765 0.01438-0.04752 0.02975-0.09462 0.04583-0.14175 0.0042-0.01269 0.0085-0.02566 0.01269-0.03835 0.06162-0.17424 0.13579-0.345 0.22259-0.5111 0.0085-0.01608 0.01692-0.03173 0.02552-0.04752 0.02228-0.04131 0.04512-0.08235 0.06909-0.12296 0.0085-0.01269 0.01565-0.02609 0.02355-0.03906 0.02341-0.03878 0.04724-0.07755 0.07205-0.11576 0.01269-0.0189 0.02482-0.03765 0.03737-0.0564 0.02313-0.03426 0.04696-0.06811 0.07121-0.10181 0.01269-0.01734 0.0251-0.03483 0.03793-0.05203 0.02538-0.03426 0.05189-0.06796 0.07854-0.10152 0.0141-0.01777 0.0282-0.03539 0.04258-0.05302 0.02961-0.03581 0.06007-0.07121 0.09109-0.10632 0.01128-0.01269 0.02171-0.02524 0.03299-0.03779 0.04371-0.04837 0.08883-0.09588 0.13551-0.14243zm-3.3008 15.574c5.5e-4 4.94e-4 0.0012 9.59e-4 0.0014 0.0014-4.51e-4 -5.21e-4 -0.0011-0.0011-0.0014-0.0014z" fill="#ffc730" fill-rule="evenodd" stroke-width=".16581"/></svg>
