<svg width="512" height="512" version="1.1" viewBox="0 0 384 384" xmlns="http://www.w3.org/2000/svg">
	<defs>
		<clipPath>
			<rect width="384" height="384"/>
		</clipPath>
		<clipPath>
			<rect width="384" height="384"/>
		</clipPath>
		<clipPath>
			<rect width="384" height="384"/>
		</clipPath>
	</defs>
	<path d="m192 24.002c-92.59 0-168 75.41-168 168 0 92.59 75.41 168 168 168 92.594 0 168-75.406 168-168 0-92.59-75.406-168-168-168z" style="fill:#fd7d00"/>
	<path d="m192 79.5c-66.273 0-120 53.727-120 120 0 66.273 53.727 120 120 120 66.273 0 120-53.727 120-120 0-66.273-53.727-120-120-120zm-42 36h39.867l53.613 130.86 28.031-11.262 8.9414 22.277-50.109 20.121v-0.0117l-0.0352 0.0117-35.027-85.395-61.266 91.395-20.016-12.047 70.277-106.2-10.57-25.758h-23.707z" style="opacity:.3"/>
	<path d="m192 72c-66.273 0-120 53.727-120 120s53.727 120 120 120 120-53.727 120-120-53.727-120-120-120zm-42 36h39.867l53.613 130.86 28.031-11.262 8.9414 22.277-50.109 20.121v-0.0117l-0.0352 0.0117-35.027-85.395-61.266 91.395-20.016-12.047 70.277-106.2-10.57-25.758h-23.707z" style="fill:#fff"/>
	<path transform="scale(.75)" d="m32.066 251c-0.036677 1.6631-0.064453 3.3283-0.064453 5 0 123.45 100.55 224 224 224 123.46 0 224-100.54 224-224 0-1.6717-0.02778-3.3369-0.06446-5-2.672 121.16-102.15 219-223.94 219-121.78 0-221.26-97.841-223.93-219z" style="opacity:.3;stroke-width:1.3333"/>
	<path transform="scale(.75)" d="m256 32.002c-123.45 0-224 100.55-224 224 0 1.6717 0.027774 3.3369 0.064453 5 2.672-121.16 102.15-219 223.93-219 121.79 0 221.26 97.845 223.94 219 0.03668-1.6631 0.06446-3.3283 0.06446-5 0-123.45-100.54-224-224-224z" style="fill:#fff;opacity:.3;stroke-width:1.3333"/>
</svg>
