<svg width="512" height="512" version="1.1" viewBox="0 0 384 384" xmlns="http://www.w3.org/2000/svg"><defs><clipPath><rect width="384" height="384"/></clipPath><clipPath><rect width="384" height="384"/></clipPath><clipPath><rect width="384" height="384"/></clipPath><clipPath><rect width="384" height="384"/></clipPath><clipPath><rect width="384" height="384"/></clipPath></defs><path d="m239.63 31.501c-10.073-0.13137-20.078 2.907-28.72 8.9092-5.7891 4.0195-12.227 11.856-15.129 18.415-2.8398 6.418-3.8364 11.614-4.4341 23.125-0.60937 11.684 0.04 29.913 2.1416 60.519 0.35938 5.2305 0.70703 9.5586 0.77344 9.6211 0.0625 0.0625 1.7652 0.36769 3.7808 0.67237 8.9414 1.3594 18.79 6.3008 24.157 12.117 0.75391 0.8203 1.6358 1.4927 1.96 1.4927 0.76173 0 25.168-25.228 31.629-32.692 17.176-19.855 24.481-31.348 27.325-42.984 5.9961-24.531-7.3598-50.07-29.829-57.031-4.4849-1.3892-9.0769-2.1039-13.655-2.1636zm-97.482 11.137c-4.2184 0.0186-8.4851 0.76684-12.842 2.2456-11 3.7305-18.513 10.289-22.942 20.035-2.3281 5.125-2.9951 8.1841-3.2139 14.758-0.21874 6.5586 0.28517 10.359 2.1445 16.125 4.0586 12.598 12.3 23.293 40.39 52.418 8.4746 8.7869 15.636 15.98 15.91 15.98 0.27735 0 1.5508-0.87109 2.8359-1.9336 6.2578-5.1797 13.673-8.4609 21.759-9.6328 1.4297-0.20703 2.7021-0.49267 2.8271-0.63721 0.23829-0.27342-1.0772-12.504-3.706-34.395-2.7852-23.191-4.9619-38.113-6.4541-44.222-2.0859-8.5547-7.21-17.008-13.538-22.329-3.4766-2.9219-9.3633-6.0542-13.395-7.1323-3.2419-0.86816-6.4939-1.2947-9.7749-1.2803zm-65.061 73.318c-3.5151-0.0298-6.9829 0.20019-9.1919 0.70019-11.988 2.707-21.059 9.9888-26.742 21.473-8.375 16.922-6.4141 35.534 5.0156 47.522 6.9805 7.3203 17.32 11.879 29.902 13.211l0.0044 4e-3c3.6055 0.38281 18.547 0.1875 26.965-0.35156 11.34-0.72265 37.144-3 43.179-3.8086l1.5981-0.21534 0.57423-3.6167c1.0547-6.6875 4.0044-14.309 7.3638-19.047 0.78906-1.1133 1.7099-2.4565 2.042-2.9839l0.60645-0.96094-6.3721-5.6807c-12.898-11.496-37.324-31.319-44.89-36.425-6.1758-4.168-13.605-7.4023-20.578-8.9648-2.3984-0.53711-5.9609-0.82715-9.4761-0.85693zm229.57 3.1274c-7.1514 0.0401-14.869 2.1193-22.865 6.2446-5.5312 2.8555-10.016 5.8789-17.747 11.953-11.262 8.8594-38.278 31.817-38.665 32.864-0.0977 0.26954 0.44189 1.4375 1.1997 2.6016 2.9141 4.4688 5.3125 10.492 6.5156 16.378 0.3047 1.4883 0.64404 4.9414 0.75732 7.6758l0.19922 4.9644h0.96533c1.375 0 20.129-1.6943 28.16-2.5459 17.082-1.8047 38.168-4.7666 43.938-6.1611 16.758-4.0625 27.722-14.266 31.292-29.109 1.1523-4.8047 1.0703-12.651-0.1875-17.628-1.9062-7.5547-6.457-15.052-11.848-19.532-6.2339-5.1776-13.611-7.7505-21.716-7.7051zm-159.64 80.518c-3.4782-0.0214-27.001 3.646-39.284 6.1802-21.762 4.4883-31.671 8.6396-39.699 16.644-5.0469 5.0273-8.0972 10.634-9.3823 17.235-0.77344 3.9961-0.54394 10.883 0.50684 14.988 3.9336 15.395 17.153 28.151 30.841 29.769v4e-3c1.5234 0.1836 3.0078 0.3516 3.293 0.375 1.6797 0.14064 7.2031-0.85205 9.9023-1.7856 3.1914-1.1016 7.5771-3.4961 10.104-5.5195 2.1641-1.7344 10.657-9.3672 15.478-13.91 5.0156-4.7344 28.387-28.995 30.434-31.597 0.96098-1.2227 1.2734-1.8833 1.043-2.2075-0.1797-0.25781-1.3008-1.6641-2.4844-3.1289-5.2344-6.4531-8.9844-15.719-9.7031-23.958-0.13281-1.4961-0.41504-2.8633-0.62989-3.0352-0.0444-0.0357-0.18707-0.0528-0.41894-0.0542zm88.255 6.5435-0.37061 1.5117c-2.0234 8.2617-5.0078 14.41-9.7852 20.168-0.92968 1.1172-1.6919 2.1748-1.6919 2.3467 0 0.33594 12.539 13.329 18.968 19.657 7.6367 7.5117 23.724 22.45 29.224 27.133 9.5547 8.1367 20.453 13.012 31.664 14.168 2.6836 0.27734 9.0781-0.18749 12.504-0.90234 8.2266-1.7266 15.148-5.6763 20.914-11.934 3.1719-3.4453 4.5825-5.5117 6.5669-9.6328 6.1836-12.82 6.3193-26.664 0.37793-37.882-5.1758-9.7773-14.8-17.263-26.792-20.833-9.832-2.9297-14.285-3.1831-64.102-3.6401zm-15.614 27.401c-0.10155 0-1.3354 0.82031-2.7378 1.8281s-4.1519 2.6221-6.1128 3.5947c-5.4062 2.6719-8.7583 3.5586-17.266 4.5703l-1.5234 0.17871 0.23437 2.6924c0.99609 11.461 8.3286 57.539 10.657 66.996 5.0039 20.375 15.828 33.145 30.434 35.93v-9e-3c9.7422 1.8476 21.835-1.5186 30.019-8.3584 4.4024-3.6797 7.4214-8.2305 9.1245-13.746 3.6602-11.867 0.51271-27.204-8.3701-40.762-3.0664-4.6758-11.997-15.777-23.09-28.711-7.1524-8.3359-21.161-24.204-21.368-24.204zm-55.737 9e-3c-0.58984 0-19.673 23.472-30.231 37.191-17.414 22.617-22.522 31.536-24.952 43.54-0.91407 4.5234-0.91407 14.582 0 18.961 2.7109 12.996 10.21 23.269 21.284 29.147 5.1367 2.7266 9.8643 4.1524 16.333 4.9336 5.5742 0.67188 13.128-0.66407 19.046-3.3633 8.6562-3.9492 16.157-11.559 20.653-20.953 3.1289-6.5391 5.2026-14.785 5.644-22.46 0.46875-8.1523-0.47168-27.648-2.9092-60.23-0.67188-9.0195-1.3052-16.532-1.3989-16.696-0.0976-0.16016-0.75831-0.38965-1.4692-0.50683-7.039-1.1797-13.465-3.7627-18.879-7.5908-1.5391-1.0859-2.9404-1.9717-3.1201-1.9717z" opacity=".3"/><path d="m146.35 359.83c-6.4688-0.78125-11.195-2.207-16.332-4.9336-11.074-5.8789-18.574-16.152-21.285-29.148-0.91407-4.3789-0.91407-14.438 0-18.961 2.4297-12.004 7.5391-20.922 24.953-43.539 10.559-13.719 29.641-37.191 30.23-37.191 0.17969 0 1.582 0.88672 3.1211 1.9726 5.4141 3.8281 11.84 6.4102 18.879 7.5898 0.71094 0.11718 1.3711 0.34765 1.4688 0.50781 0.0937 0.16406 0.72656 7.6758 1.3984 16.695 2.4375 32.582 3.3789 52.078 2.9102 60.23-0.4414 7.6758-2.5156 15.922-5.6445 22.461-4.4961 9.3945-11.996 17.004-20.652 20.953-5.918 2.6992-13.473 4.0352-19.047 3.3633zm86.988-17.992c-14.605-2.7852-25.43-15.555-30.434-35.93-2.3281-9.457-9.6602-55.535-10.656-66.996l-0.23438-2.6914 1.5234-0.17969c8.5078-1.0117 11.859-1.8984 17.266-4.5703 1.9609-0.97266 4.7109-2.5859 6.1133-3.5938 1.4023-1.0078 2.6367-1.8281 2.7383-1.8281 0.20703 0 14.215 15.867 21.367 24.203 11.094 12.934 20.023 24.035 23.09 28.711 8.8828 13.559 12.031 28.895 8.3711 40.762-1.7031 5.5156-4.7226 10.066-9.125 13.746-8.1836 6.8398-20.277 10.207-30.02 8.3594zm69.938-58.207c-11.211-1.1562-22.109-6.0312-31.664-14.168-5.5-4.6836-21.586-19.621-29.223-27.133-6.4297-6.3281-18.969-19.32-18.969-19.656 0-0.17187 0.76172-1.2305 1.6914-2.3476 4.7773-5.7578 7.7617-11.906 9.7852-20.168l0.37109-1.5117 17.477 0.16016c49.816 0.45703 54.27 0.71093 64.102 3.6406 11.992 3.5703 21.617 11.055 26.793 20.832 5.9414 11.219 5.8047 25.062-0.3789 37.883-1.9844 4.1211-3.3945 6.1875-6.5664 9.6328-5.7656 6.2578-12.688 10.207-20.914 11.934-3.4258 0.71485-9.8203 1.1797-12.504 0.90235zm-67.426-94.328c-0.11328-2.7344-0.45312-6.1875-0.75781-7.6758-1.2031-5.8867-3.6016-11.91-6.5156-16.379-0.75781-1.1641-1.2969-2.332-1.1992-2.6016 0.38671-1.0469 27.402-24.004 38.664-32.863 7.7305-6.0742 12.215-9.0977 17.746-11.953 17.059-8.8008 32.848-8.2852 44.582 1.4609 5.3906 4.4805 9.9414 11.977 11.848 19.531 1.2578 4.9766 1.3398 12.824 0.1875 17.629-3.5703 14.844-14.535 25.047-31.293 29.109-5.7695 1.3945-26.855 4.3555-43.938 6.1602-8.0312 0.85156-26.785 2.5469-28.16 2.5469h-0.96484l-0.19922-4.9688zm-159.79 2.0625c-12.582-1.332-22.922-5.8906-29.902-13.211-11.43-11.988-13.391-30.602-5.0156-47.523 5.6836-11.484 14.754-18.766 26.742-21.473 4.418-1 13.871-0.91797 18.668 0.15625 6.9727 1.5625 14.402 4.7969 20.578 8.9648 7.5664 5.1055 31.992 24.93 44.891 36.426l6.3711 5.6797-0.60547 0.96094c-0.33203 0.52734-1.2539 1.8711-2.043 2.9844-3.3594 4.7383-6.3086 12.359-7.3633 19.047l-0.57422 3.6172-1.5977 0.21484c-6.0352 0.80859-31.84 3.0859-43.18 3.8086-8.418 0.53907-23.359 0.73438-26.965 0.35157zm146.13-33.984c-5.3672-5.8164-15.215-10.758-24.156-12.117-2.0156-0.30469-3.7188-0.60938-3.7812-0.67188-0.0664-0.0625-0.41406-4.3906-0.77344-9.6211-2.1016-30.605-2.75-48.836-2.1406-60.52 0.59766-11.512 1.5938-16.707 4.4336-23.125 2.9024-6.5586 9.3398-14.395 15.129-18.414 12.57-8.7305 28.023-11.191 42.375-6.7461 22.469 6.9609 35.824 32.5 29.828 57.031-2.8438 11.637-10.148 23.129-27.324 42.984-6.4609 7.4648-30.867 32.691-31.629 32.691-0.32422 0-1.207-0.67187-1.9609-1.4922zm-76.516-16.66c-28.09-29.125-36.332-39.82-40.391-52.418-1.8594-5.7656-2.3633-9.5664-2.1445-16.125 0.21875-6.5742 0.88672-9.6328 3.2148-14.758 4.4297-9.7461 11.941-16.305 22.941-20.035 7.7461-2.6289 15.207-2.9492 22.617-0.96484 4.0312 1.0781 9.918 4.2109 13.395 7.1328 6.3281 5.3203 11.453 13.773 13.539 22.328 1.4922 6.1094 3.668 21.031 6.4531 44.223 2.6289 21.891 3.9453 34.121 3.707 34.395-0.125 0.14453-1.3984 0.42969-2.8281 0.63672-8.0859 1.1719-15.5 4.4531-21.758 9.6328-1.2852 1.0625-2.5586 1.9336-2.8359 1.9336-0.27343 0-7.4375-7.1953-15.914-15.984z" fill="#0aa15c"/><path d="m89.996 276.92c-13.688-1.6172-26.906-14.375-30.84-29.77-1.0508-4.1055-1.2812-10.992-0.50781-14.988 1.2852-6.6016 4.3359-12.207 9.3828-17.234 8.0273-8.0039 17.938-12.156 39.699-16.645 13.102-2.7031 38.992-6.6953 39.703-6.125 0.21485 0.17187 0.4961 1.5391 0.62891 3.0352 0.71875 8.2383 4.4688 17.504 9.7031 23.957 1.1836 1.4648 2.3047 2.8711 2.4844 3.1289 0.23047 0.32422-0.082 0.98438-1.043 2.207-2.0469 2.6016-25.418 26.863-30.434 31.598-4.8203 4.543-13.312 12.176-15.477 13.91-2.5274 2.0234-6.9141 4.418-10.105 5.5195-2.6992 0.93359-8.2227 1.9258-9.9023 1.7852-0.28516-0.0234-1.7695-0.1914-3.293-0.375z" fill="#fd4747"/><path transform="scale(.75)" d="m319.5 32c-13.43-0.17516-26.77 3.876-38.293 11.879-7.7187 5.3594-16.302 15.808-20.172 24.553-3.7865 8.5573-5.1152 15.485-5.9121 30.834-0.25644 4.9168-0.3263 10.834-0.24023 17.734 0.04535-2.7676 0.1179-5.389 0.24023-7.7344 0.79688-15.349 2.1256-22.277 5.9121-30.834 3.8698-8.7448 12.453-19.193 20.172-24.553 11.523-8.0029 24.863-12.054 38.293-11.879 6.1046 0.079613 12.227 1.0326 18.207 2.8848 23.541 7.2931 39.57 29.883 41.482 55.096 2.1456-29.042-14.862-56.849-41.482-65.096-5.9798-1.8522-12.102-2.8052-18.207-2.8848zm-129.98 14.85c-5.6246 0.024667-11.313 1.0225-17.123 2.9941-14.667 4.974-24.684 13.718-30.59 26.713-3.1042 6.8333-3.9935 10.912-4.2852 19.678-0.10125 3.036-0.07648 5.6162 0.08985 8.0293 0.36576-7.4194 1.3392-11.42 4.1953-17.707 5.9062-12.995 15.923-21.739 30.59-26.713 5.8096-1.9717 11.498-2.9695 17.123-2.9941 4.3747-0.01924 8.7106 0.54948 13.033 1.707 5.375 1.4375 13.224 5.6139 17.859 9.5098 8.4375 7.0938 15.27 18.365 18.051 29.771 1.9896 8.1458 4.8919 28.041 8.6055 58.963 1.989 16.562 3.3418 28.433 4.1445 36.141 0.41437-0.10811 0.73514-0.20988 0.79687-0.28125 0.31773-0.36456-1.4362-16.672-4.9414-45.859-3.7135-30.922-6.6159-50.817-8.6055-58.963-2.7812-11.406-9.6133-22.678-18.051-29.771-4.6354-3.8958-12.484-8.0723-17.859-9.5098-4.3226-1.1576-8.6585-1.7263-13.033-1.707zm-86.748 97.758c-4.6868-0.03973-9.3105 0.26693-12.256 0.9336-15.984 3.6094-28.078 13.318-35.656 28.631-5.4277 10.967-7.5901 22.464-6.6387 33.223 0.67016-7.7129 2.8644-15.597 6.6387-23.223 7.5781-15.313 19.672-25.021 35.656-28.631 2.9453-0.66667 7.569-0.97333 12.256-0.9336 4.6868 0.03971 9.4369 0.42642 12.635 1.1426 9.2969 2.0833 19.203 6.3958 27.438 11.953 10.089 6.8073 42.656 33.239 59.854 48.566l4.293 3.8262c0.22305-0.33782 0.44579-0.6733 0.67188-0.99218 1.0521-1.4844 2.2799-3.2754 2.7226-3.9785l0.39844-0.63086c-2.2927-2.2772-5.0705-5.0684-8.5723-8.6504-17.309-15.383-49.365-41.392-59.367-48.141-8.2344-5.5573-18.141-9.8698-27.438-11.953-3.1979-0.71615-7.9479-1.1029-12.635-1.1426zm306.1 4.1699c-9.5353 0.05347-19.825 2.8257-30.486 8.3262-7.375 3.8073-13.355 7.8385-23.662 15.938-10.011 7.8756-29.179 23.962-41.117 34.32-4.0442 4.1494-7.5834 7.7272-10.24 10.336 0.26247 0.68207 0.75915 1.6399 1.4043 2.6308 0.65037 0.99735 1.2713 2.0709 1.8789 3.1738 9.22-8.3508 35.672-30.704 48.074-40.461 10.307-8.099 16.287-12.13 23.662-15.938 10.662-5.5005 20.951-8.2727 30.486-8.3262 10.807-0.0606 20.643 3.37 28.955 10.273 7.1875 5.974 13.255 15.97 15.797 26.043 0.55263 2.1865 0.91757 4.8036 1.127 7.5391 0.47282-5.8487 0.09501-12.704-1.127-17.539-2.5417-10.073-8.6094-20.069-15.797-26.043-8.3118-6.9035-18.148-10.334-28.955-10.273zm-211.67 109.77l-0.12305 0.77344-2.1309 0.28711c-6.9377 0.92951-33.419 3.309-50.291 4.5664-0.31961 0.06483-0.71228 0.13542-1.0215 0.19922-29.016 5.9844-42.228 11.52-52.932 22.191-6.7292 6.7031-10.796 14.178-12.51 22.98-0.66065 3.4133-0.76588 8.4036-0.39258 12.992 0.098832-1.0729 0.21988-2.0999 0.39258-2.9922 1.7135-8.8021 5.7806-16.277 12.51-22.98 10.703-10.672 23.916-16.207 52.932-22.191 16.377-3.3789 47.741-8.2689 52.379-8.2402v0.00195c0.30917 0.00187 0.49939 0.0248 0.55859 0.07226 0.28647 0.22918 0.66277 2.0521 0.83985 4.0469 0.94457 10.827 5.8201 22.977 12.643 31.562 1.0963-1.197 1.8813-2.0776 2.2168-2.5039 1.2813-1.6302 1.6979-2.5111 1.3906-2.9434-0.23959-0.34376-1.7344-2.2188-3.3125-4.1719-6.9792-8.6042-11.979-20.959-12.938-31.943-0.05372-0.60514-0.12862-1.1732-0.21094-1.707zm116.49 6.3106l-0.49414 2.0156c-2.6979 11.016-6.6771 19.214-13.047 26.891-1.2396 1.4896-2.2559 2.8997-2.2559 3.1289 0 0.13479 1.7573 2.0364 4.1074 4.5254 5.3022-7.0171 8.77-14.642 11.195-24.545l0.49414-2.0156 23.303 0.21289c66.422 0.60938 72.359 0.94727 85.469 4.8535 15.99 4.7604 28.822 14.741 35.723 27.777 3.1063 5.8654 4.9475 12.274 5.5644 18.922 0.91412-10.189-0.92279-20.157-5.5644-28.922-6.901-13.036-19.733-23.017-35.723-27.777-11.651-3.4717-17.89-4.1242-65.707-4.6543-1.0587 0.11584-2.1505 0.24376-3.1894 0.35352-10.708 1.1354-35.714 3.3945-37.547 3.3945h-1.2871l-0.16602-4.1523-0.875-0.00781zm-20.818 36.535c-0.1354 0-1.7806 1.0938-3.6504 2.4375-1.8698 1.3438-5.5358 3.4961-8.1504 4.793-7.2083 3.5625-11.678 4.7448-23.021 6.0938l-2.0312 0.23828 0.3125 3.5898c0.13885 1.5975 0.38712 3.795 0.69336 6.293l1.0254-0.12109c11.344-1.349 15.813-2.5313 23.021-6.0938 2.6146-1.2969 6.2806-3.4492 8.1504-4.793 1.8698-1.3438 3.515-2.4375 3.6504-2.4375 0.27604 0 18.954 21.157 28.49 32.271 14.792 17.245 26.699 32.047 30.787 38.281 7.4851 11.425 11.906 23.795 12.922 35.348 1.3455-14.144-3.2209-30.54-12.922-45.348-4.0885-6.2341-15.995-21.036-30.787-38.281-5.6825-6.6229-14.265-16.405-20.611-23.559-1.7514-1.8708-2.8574-3.0991-2.8574-3.2129-2.7939-3.1279-4.936-5.5-5.0215-5.5zm-74.316 0.01367c-0.19972 0-2.0106 2.0442-4.8008 5.3555-0.03591 0.50526-0.50576 1.3107-1.4805 2.5508-0.67533 0.85835-3.1092 3.5015-6.4648 7.0645-8.6411 10.573-19.786 24.513-27.562 34.617-23.219 30.156-30.03 42.048-33.27 58.053-0.82406 4.078-1.0774 11.497-0.78711 17.701 0.13907-2.9928 0.39248-5.7483 0.78711-7.7012 3.2396-16.005 10.051-27.896 33.27-58.053 14.078-18.292 39.522-49.588 40.309-49.588 0.23959 0 2.1081 1.181 4.1602 2.6289 7.2188 5.1042 15.786 8.5482 25.172 10.121 0.94792 0.15624 1.8287 0.46222 1.959 0.67578 0.12493 0.21874 0.96939 10.236 1.8652 22.262 2.3844 31.872 3.683 54.267 3.9648 68.273 0.38574-11.888-0.90115-37.321-3.9648-78.273-0.89584-12.026-1.7403-22.043-1.8652-22.262-0.13027-0.21356-1.0111-0.51954-1.959-0.67578-9.3854-1.5729-17.953-5.0169-25.172-10.121-2.0521-1.4479-3.9206-2.6289-4.1602-2.6289z" fill="#fff" opacity=".3" stroke-width="1.3333"/><path d="m240 199.49c0 26.512-21.492 48-48 48s-48-21.488-48-48c0-26.508 21.492-48 48-48s48 21.492 48 48z" opacity=".3"/><path d="m240 191.99c0 26.512-21.492 48-48 48s-48-21.488-48-48c0-26.508 21.492-48 48-48s48 21.492 48 48z" fill="#ffc72e"/></svg>
