<svg width="512" height="512" version="1.1" viewBox="0 0 384 384" xmlns="http://www.w3.org/2000/svg"><defs><radialGradient id="a" cx="298.5" cy="341.51" r="176.25" gradientTransform="matrix(2.316 -.64203 .33358 1.2033 -484.94 133)" gradientUnits="userSpaceOnUse"><stop stop-color="#811035" offset="0"/><stop stop-color="#d41919" offset="1"/></radialGradient></defs><g fill-rule="evenodd"><path d="m37.973 52.07c-12.199 0-22.245 9.9135-22.245 21.953v232.27c0 12.04 10.046 21.953 22.245 21.953h308.06c12.199 0 22.241-9.9158 22.241-21.953v-232.27c0-12.037-10.043-21.953-22.241-21.953zm0 14.355h308.06c4.3347 0 7.6944 3.3175 7.6944 7.5979v232.27c0 4.2804-3.3597 7.5979-7.6944 7.5979h-308.06c-4.3347 0-7.6983-3.3198-7.6983-7.5979v-232.27c0-4.2781 3.3637-7.5979 7.6983-7.5979z" color="#000000" color-rendering="auto" dominant-baseline="auto" fill="#fff" image-rendering="auto" opacity=".2" shape-rendering="auto" solid-color="#000000" stroke="#000" stroke-linejoin="round" stroke-width="7.4519" style="font-feature-settings:normal;font-variant-alternates:normal;font-variant-caps:normal;font-variant-ligatures:normal;font-variant-numeric:normal;font-variant-position:normal;isolation:auto;mix-blend-mode:normal;shape-padding:0;text-decoration-color:#000000;text-decoration-line:none;text-decoration-style:solid;text-indent:0;text-orientation:mixed;text-transform:none;white-space:normal"/><path d="m37.994 59.603c-12.197 0-22.24 10.043-22.24 22.24v235.31c0 12.197 10.043 22.242 22.24 22.242h308.02c12.197 0 22.236-10.047 22.236-22.242v-235.31c0-12.195-10.039-22.24-22.236-22.24z" color="#000000" color-rendering="auto" dominant-baseline="auto" image-rendering="auto" opacity=".3" shape-rendering="auto" solid-color="#000000" style="font-feature-settings:normal;font-variant-alternates:normal;font-variant-caps:normal;font-variant-ligatures:normal;font-variant-numeric:normal;font-variant-position:normal;isolation:auto;mix-blend-mode:normal;shape-padding:0;text-decoration-color:#000000;text-decoration-line:none;text-decoration-style:solid;text-indent:0;text-orientation:mixed;text-transform:none;white-space:normal"/><path d="m37.993 59.366h308.02c8.2656 0 14.965 6.703 14.965 14.969v235.31c0 8.2656-6.699 14.969-14.965 14.969h-308.02c-8.2656 0-14.969-6.703-14.969-14.969v-235.31c0-8.2656 6.703-14.969 14.969-14.969z" fill="url(#a)" stroke="#fff" stroke-linejoin="round" stroke-width="14.544"/></g><path d="m51.716 82.869 0.01 1.655 0.15967 21.006 0.23335 0.0337 41.496 24.576-41.763 25.826 0.04296 0.10753-0.07681 0.0128-0.16274 22.679 56.556-35.28-0.0461-0.12275-0.20572-25.237v-0.218l-0.8966-0.21494 0.0491 0.01 0.84745 0.19344-0.0183-1.7103 0.0644-0.18116z" color="#000000" color-rendering="auto" dominant-baseline="auto" fill="#fff" image-rendering="auto" shape-rendering="auto" solid-color="#000000" style="font-feature-settings:normal;font-variant-alternates:normal;font-variant-caps:normal;font-variant-ligatures:normal;font-variant-numeric:normal;font-variant-position:normal;isolation:auto;mix-blend-mode:normal;shape-padding:0;text-decoration-color:#000000;text-decoration-line:none;text-decoration-style:solid;text-indent:0;text-orientation:mixed;text-transform:none;white-space:normal"/><path d="m120.61 170.98v-8.7387h59.82v17.471h-59.82z" fill="#fff" stroke-width="1.5721"/></svg>
