<svg width="512" height="512" version="1.1" viewBox="0 0 384 384" xmlns="http://www.w3.org/2000/svg"><path d="m192 33.059c-87.781 0-158.95 71.16-158.95 158.94s71.164 158.94 158.95 158.94c87.777 0 158.94-71.16 158.94-158.94s-71.164-158.94-158.94-158.94zm0 115.59c23.941 0 43.348 19.406 43.348 43.348 0 23.941-19.406 43.348-43.348 43.348-23.945 0-43.348-19.406-43.348-43.348 0-23.941 19.402-43.348 43.348-43.348z" fill="#e6e6e6" stroke="#ccc" stroke-width="1.9868"/><path d="m192 124.14c-37.48 0-67.863 30.379-67.863 67.859s30.383 67.859 67.863 67.859c37.477 0 67.859-30.379 67.859-67.859s-30.383-67.859-67.859-67.859zm0 31.848c19.887 0 36.012 16.125 36.012 36.012s-16.125 36.012-36.012 36.012-36.016-16.125-36.016-36.012 16.129-36.012 36.016-36.012z" fill="#fff" stroke="#e6e6e6" stroke-width="3.5188"/><g transform="matrix(.53333 0 0 .53333 191.6 187.6)"><path d="m360.75 199.5c0 93.199-75.551 168.75-168.75 168.75-93.195 0-168.75-75.551-168.75-168.75 0-93.195 75.551-168.75 168.75-168.75s168.75 75.551 168.75 168.75z" fill-rule="evenodd" opacity=".3"/><path d="m360.75 192c0 93.199-75.551 168.75-168.75 168.75-93.195 0-168.75-75.551-168.75-168.75 0-93.195 75.551-168.75 168.75-168.75s168.75 75.551 168.75 168.75z" fill="#353a4a" fill-rule="evenodd"/><path d="m345.46 190.82c0 83.844-67.969 151.81-151.81 151.81-83.844 0-151.81-67.969-151.81-151.81s67.969-151.81 151.81-151.81 151.81 67.969 151.81 151.81" fill="#fff" fill-rule="evenodd"/><path d="m266.05 190.81c-8e-3 39.973-32.414 72.371-72.387 72.371s-72.379-32.398-72.387-72.371c-8e-3 -39.98 32.402-72.398 72.387-72.398 39.98 0 72.395 32.418 72.387 72.398" fill="#357af0"/><path d="m276.3 103.13c-2.0784 0-4.1612 0.79932-5.748 2.3862l-80.127 80.127-6e-3 -6e-3v-1e-3l-71.682-63.33c-3.1045-2.7423-7.8554-2.453-10.598 0.65625-2.7466 3.1043-2.4516 7.8508 0.65625 10.597l71.678 63.328c1.4594 1.2919 3.2904 1.818 5.0947 1.7871 0.36652 0.69082 0.76181 1.3764 1.3447 1.9629l0.2622 0.26221h0.13477c3.1885 2.8329 8.0411 2.7958 11.096-0.25928l83.638-83.637c3.1704-3.1704 3.1704-8.317 0-11.487-1.5869-1.5869-3.6687-2.3862-5.7436-2.3862zm-88.03 104.63c-1.0823 0.0651-2.1035 0.67578-2.6748 1.7256l-51.195 94.285c-0.91406 1.6797-0.33252 3.8516 1.2964 4.8516 1.6289 1.0039 3.6914 0.4492 4.6055-1.2305l51.196-94.285c0.91406-1.6797 0.33106-3.8516-1.2978-4.8516-0.61084-0.37647-1.2813-0.53415-1.9307-0.49512z" color="#000000" color-rendering="auto" dominant-baseline="auto" image-rendering="auto" opacity=".3" shape-rendering="auto" solid-color="#000000" style="font-feature-settings:normal;font-variant-alternates:normal;font-variant-caps:normal;font-variant-ligatures:normal;font-variant-numeric:normal;font-variant-position:normal;isolation:auto;mix-blend-mode:normal;shape-padding:0;text-decoration-color:#000000;text-decoration-line:none;text-decoration-style:solid;text-indent:0;text-orientation:mixed;text-transform:none;white-space:normal"/><path transform="matrix(1.4063 0 0 1.4063 -359.25 -351.75)" d="m451.8 318.16-0.07618 0.0586c-1.3786 0.07045-2.7453 0.58519-3.7988 1.6387l-56.979 56.98-0.00391-0.00586h-0.00195l-50.973-45.033c-2.2073-1.9499-5.5847-1.7435-7.5352 0.4668-1.9532 2.2075-1.7452 5.5826 0.46484 7.5352l50.975 45.033c1.0375 0.91773 2.3386 1.2915 3.6211 1.2695 0.2607 0.49155 0.54034 0.97919 0.95508 1.3965l0.1875 0.1875h0.09766c2.2674 2.0123 5.7166 1.9841 7.8887-0.1875l59.475-59.475c2.2544-2.2544 2.2544-5.9132 0-8.168-1.1285-1.1285-2.6084-1.6973-4.084-1.6973h-0.21289z" color="#000000" color-rendering="auto" dominant-baseline="auto" fill="#30aa93" image-rendering="auto" shape-rendering="auto" solid-color="#000000" stop-color="#000000" style="font-feature-settings:normal;font-variant-alternates:normal;font-variant-caps:normal;font-variant-east-asian:normal;font-variant-ligatures:normal;font-variant-numeric:normal;font-variant-position:normal;font-variation-settings:normal;inline-size:0;isolation:auto;mix-blend-mode:normal;shape-margin:0;shape-padding:0;text-decoration-color:#000000;text-decoration-line:none;text-decoration-style:solid;text-indent:0;text-orientation:mixed;text-transform:none;white-space:normal"/><path transform="scale(.75)" d="m161.83 249.4c-0.0847 1.6613-0.12924 3.3332-0.1289 5.0156 0.0104 53.297 43.219 96.496 96.516 96.496s96.505-43.199 96.516-96.496c3.2e-4 -1.6824-0.0422-3.3544-0.12696-5.0156-2.6033 50.98-44.763 91.512-96.389 91.512s-93.784-40.531-96.387-91.512z" opacity=".3" stroke-width="1.3333"/><path d="m134.49 296.31 51.195-94.285c0.91407-1.6797 2.9766-2.2344 4.6055-1.2305 1.6289 1 2.2109 3.1719 1.2969 4.8516l-51.195 94.285c-0.91406 1.6797-2.9766 2.2344-4.6055 1.2305-1.6289-1-2.2109-3.1719-1.2969-4.8516z" fill="#fd4747"/><path d="m208.14 195.32c-4e-3 7.9922-6.4844 14.473-14.477 14.473-7.9961 0-14.477-6.4805-14.477-14.473-4e-3 -7.9961 6.4805-14.48 14.477-14.48 7.9961 0 14.48 6.4844 14.477 14.48" fill="#030000" opacity=".3"/><path d="m208.14 190.82c-4e-3 7.9922-6.4844 14.473-14.477 14.473-7.9961 0-14.477-6.4805-14.477-14.473-4e-3 -7.9961 6.4805-14.48 14.477-14.48 7.9961 0 14.48 6.4844 14.477 14.48" fill="#fff"/></g></svg>
