<svg width="512" height="512" version="1.1" viewBox="0 0 384 384" xmlns="http://www.w3.org/2000/svg" xmlns:xlink="http://www.w3.org/1999/xlink"><defs><clipPath><rect width="384" height="384"/></clipPath><clipPath><rect width="384" height="384"/></clipPath><clipPath><rect width="384" height="384"/></clipPath><clipPath><rect width="384" height="384"/></clipPath><clipPath><rect width="384" height="384"/></clipPath><clipPath><rect width="384" height="384"/></clipPath><clipPath><rect width="384" height="384"/></clipPath><clipPath><rect width="384" height="384"/></clipPath><clipPath><rect width="384" height="384"/></clipPath><clipPath><rect width="384" height="384"/></clipPath><clipPath><rect width="384" height="384"/></clipPath><clipPath><rect width="384" height="384"/></clipPath><clipPath><rect width="384" height="384"/></clipPath><clipPath><rect width="384" height="384"/></clipPath><clipPath><rect width="384" height="384"/></clipPath><clipPath><rect width="384" height="384"/></clipPath><clipPath><rect width="384" height="384"/></clipPath><clipPath><rect width="384" height="384"/></clipPath><clipPath><rect width="384" height="384"/></clipPath><clipPath><rect width="384" height="384"/></clipPath><clipPath><rect width="384" height="384"/></clipPath><clipPath><rect width="384" height="384"/></clipPath><clipPath><rect width="384" height="384"/></clipPath><clipPath><rect width="384" height="384"/></clipPath><clipPath><rect width="384" height="384"/></clipPath><clipPath><rect width="384" height="384"/></clipPath><clipPath><rect width="384" height="384"/></clipPath><clipPath><rect width="384" height="384"/></clipPath><clipPath><rect width="384" height="384"/></clipPath><clipPath><rect width="384" height="384"/></clipPath><clipPath><rect width="384" height="384"/></clipPath><clipPath><rect width="384" height="384"/></clipPath><clipPath><rect width="384" height="384"/></clipPath><clipPath><rect width="384" height="384"/></clipPath><clipPath><rect width="384" height="384"/></clipPath><clipPath><rect width="384" height="384"/></clipPath><clipPath><rect width="384" height="384"/></clipPath><clipPath><rect width="384" height="384"/></clipPath><clipPath><rect width="384" height="384"/></clipPath><clipPath><rect width="384" height="384"/></clipPath><clipPath><rect width="384" height="384"/></clipPath><clipPath><rect width="384" height="384"/></clipPath><clipPath><rect width="384" height="384"/></clipPath><clipPath><rect width="384" height="384"/></clipPath><clipPath><rect width="384" height="384"/></clipPath><clipPath><rect width="384" height="384"/></clipPath><clipPath><rect width="384" height="384"/></clipPath><clipPath><rect width="384" height="384"/></clipPath><clipPath><rect width="384" height="384"/></clipPath><clipPath><rect width="384" height="384"/></clipPath><clipPath><rect width="384" height="384"/></clipPath><clipPath id="c"><path d="m111 119h177v23h-177z"/></clipPath><clipPath><path d="m368.64 199.88c0-93.234-75.602-168.75-168.75-168.75-93.152 0-168.75 75.516-168.75 168.75s75.598 168.75 168.75 168.75c93.148 0 168.75-75.516 168.75-168.75z"/></clipPath><clipPath id="b"><path d="m177 130h45v89h-45z"/></clipPath><clipPath><path d="m368.64 199.88c0-93.234-75.602-168.75-168.75-168.75-93.152 0-168.75 75.516-168.75 168.75s75.598 168.75 168.75 168.75c93.148 0 168.75-75.516 168.75-168.75z"/></clipPath><clipPath id="a"><path d="m111 207h177v89h-177z"/></clipPath><clipPath><path d="m368.64 199.88c0-93.234-75.602-168.75-168.75-168.75-93.152 0-168.75 75.516-168.75 168.75s75.598 168.75 168.75 168.75c93.148 0 168.75-75.516 168.75-168.75z"/></clipPath><clipPath id="d"><rect width="384" height="384"/></clipPath><g clip-path="url(#d)"><g clip-path="url(#c)"></g><g clip-path="url(#b)"></g><g clip-path="url(#a)"></g></g><clipPath><rect width="384" height="384"/></clipPath><clipPath><rect width="384" height="384"/></clipPath><clipPath><rect width="384" height="384"/></clipPath><clipPath><rect width="384" height="384"/></clipPath><clipPath><rect width="384" height="384"/></clipPath><clipPath><rect width="384" height="384"/></clipPath><clipPath><rect width="384" height="384"/></clipPath><clipPath><rect width="384" height="384"/></clipPath><clipPath><rect width="384" height="384"/></clipPath><clipPath><rect width="384" height="384"/></clipPath><clipPath><rect width="384" height="384"/></clipPath></defs><g stroke-width="1.0045"><path d="m360.75 342.67v-301.34c0-9.9858-8.0946-18.08-18.08-18.08h-301.34c-9.9858 0-18.08 8.0946-18.08 18.08v301.34c0 9.9858 8.0946 18.08 18.08 18.08h301.34c9.9858 0 18.08-8.0946 18.08-18.08z" fill="#333"/><path d="m155.84 66.911 30.134 48.214-30.134 48.214h24.107l18.08-28.933 18.08 28.933h24.107l-30.134-48.214 30.134-48.214h-24.107l-18.08 28.933-18.08-28.933zm-96.429 0h84.375v12.054l-54.241 66.295h54.241v18.08h-84.375v-12.054l54.241-66.295h-54.241z" opacity=".3"/><path d="m59.411 360.75h60.268l241.07-241.07v-60.268z" fill="#fd4747"/><path d="m119.68 360.75h60.268l180.8-180.8v-60.268z" fill="#ffc72e"/><path d="m179.95 360.75h60.268l120.54-120.54v-60.268z" fill="#0aa15c"/><path d="m240.21 360.75h60.268l60.268-60.268v-60.268z" fill="#4a88f1"/><path d="m155.84 59.411 30.134 48.214-30.134 48.214h24.107l18.08-28.933 18.08 28.933h24.107l-30.134-48.214 30.134-48.214h-24.107l-18.08 28.933-18.08-28.933zm-96.429 0h84.375v12.054l-54.241 66.295h54.241v18.08h-84.375v-12.054l54.241-66.295h-54.241z" fill="#fff"/></g><path transform="scale(.75)" d="m31 446.89v10c0 13.314 10.793 24.107 24.107 24.107h401.79c13.314 0 24.107-10.793 24.107-24.107v-10c0 13.314-10.793 24.107-24.107 24.107h-401.79c-13.314 0-24.107-10.793-24.107-24.107z" opacity=".3"/><path transform="scale(.75)" d="m55.107 31c-13.314 0-24.107 10.793-24.107 24.107v10c0-13.314 10.793-24.107 24.107-24.107h401.79c13.314 0 24.107 10.793 24.107 24.107v-10c0-13.314-10.793-24.107-24.107-24.107h-401.79z" fill="#fff" opacity=".1"/></svg>
