<svg width="512" height="512" version="1.1" viewBox="0 0 135.47 135.47" xmlns="http://www.w3.org/2000/svg"><path d="m68.788 8.1435v0.0039c-2.0124-9.95e-4 -5.2737 0.38402-6.8144 0.81055-2.2377 0.61943-7.2286 3.3532-9.0644 5.4004l-1.5371 1.7129c-3.7723-0.04933-7.8826 0.48592-11.932 2.8945-1.7464 1.0389-3.487 0.79889-6.3789 6.5859-2.5743 5.1516-1.3394 4.3926-1.4004 5.0293-0.061 0.63672-0.0819 1.0911-0.10352 1.6172-0.0432 1.0521-0.068 2.3091-0.0879 4.0625-0.0353 3.118-0.0439 8.4843-0.0469 15.287-0.339-0.0319-0.66439-0.15593-1.0039-0.17188-6.1013-0.28648-15.122 2.1625-18.783 10.576-0.70853 1.6284-1.1978 8.6934-0.7754 10.314l0.15625 0.60352 0.2129 0.58594c2.4885 6.8351 6.1843 12.224 9.248 16.635 3.0638 4.4109 5.561 8.3675 5.5625 8.3711l-0.34375-0.91797c5.0417 15.082 16.885 25.53 29.781 28.197s25.915 1.1621 43.334 1.1621c7.502 0 15.314-4.2716 19.236-9.7207 3.9226-5.4492 5.1635-11.047 5.9023-16.332 1.4778-10.57 0.5-21.215 0.5-27.949v-39.336c0-8.1129-4.549-10.472-6.4863-11.766-1.9373-1.2941-3.3715-1.8198-4.8301-2.3008-2.9172-0.96202-5.8378-1.4338-9.2285-1.4551h-0.0938c-1.159 9.79e-4 -2.3775 0.0061-3.6074 0.05664-5.4763-5.6767-10.609-5.5245-15.104-5.3926-0.66566 0.01954-1.3448 0.13023-2.0156 0.19922-1.1045-0.94051-2.1669-1.6877-2.791-2.0078-1.106-0.56722-0.89695-0.45842-0.26367-0.11328-2.8683-1.5632-8.0322-2.6357-11.213-2.6426-8e-3 -1.7e-5 -0.0192 0.0039-0.0273 0.0039v-0.0039zm-24.346 25.053c-9e-3 -0.11702 3e-3 0.03957 0.0117 0.30274 3e-3 0.07978 5e-3 0.33995 8e-3 0.44141-0.0988-0.58248-0.0141-0.67351-0.0195-0.74414z" color="#000000" color-rendering="auto" dominant-baseline="auto" fill="#fff" image-rendering="auto" opacity=".3" shape-rendering="auto" solid-color="#000000" stroke="#000" stroke-linejoin="round" stroke-width="5.2918" style="font-feature-settings:normal;font-variant-alternates:normal;font-variant-caps:normal;font-variant-ligatures:normal;font-variant-numeric:normal;font-variant-position:normal;isolation:auto;mix-blend-mode:normal;shape-padding:0;text-decoration-color:#000000;text-decoration-line:none;text-decoration-style:solid;text-indent:0;text-orientation:mixed;text-transform:none;white-space:normal"/><path d="m69.02 8.2031v0.00391c-2.0124-9.95e-4 -5.2737 0.38402-6.8145 0.81055-2.2377 0.61943-7.2286 3.3532-9.0645 5.4004l-1.5371 1.7129c-3.7723-0.04933-7.8826 0.48592-11.932 2.8945-1.7464 1.0389-3.487 0.79889-6.3789 6.5859-2.5743 5.1516-1.3394 4.3926-1.4004 5.0293-0.06101 0.63672-0.08193 1.0911-0.10352 1.6172-0.04317 1.0521-0.06802 2.3091-0.08789 4.0625-0.03534 3.118-0.04393 8.4843-0.04687 15.287-0.339-0.0319-0.6644-0.15593-1.0039-0.17188-6.1013-0.28648-15.122 2.1625-18.783 10.576-0.70853 1.6284-1.1978 8.6934-0.77539 10.314l0.15625 0.60352 0.21289 0.58594c2.4885 6.8351 6.1843 12.224 9.248 16.635 3.0638 4.4109 5.561 8.3675 5.5625 8.3711l-0.34375-0.91797c5.0417 15.082 16.885 25.53 29.781 28.197 12.897 2.6677 25.915 1.1621 43.334 1.1621 7.502 0 15.314-4.2716 19.236-9.7207 3.9226-5.4492 5.1635-11.047 5.9023-16.332 1.4778-10.57 0.5-21.215 0.5-27.949v-39.336c0-8.1129-4.549-10.472-6.4863-11.766-1.9373-1.2941-3.3715-1.8198-4.8301-2.3008-2.9171-0.96202-5.8378-1.4338-9.2285-1.4551h-0.0938c-1.159 9.66e-4 -2.3775 0.0061-3.6074 0.05664-5.4763-5.6767-10.609-5.5245-15.104-5.3926-0.66566 0.01954-1.3448 0.13023-2.0156 0.19922-1.1045-0.94051-2.1669-1.6877-2.791-2.0078-1.106-0.56722-0.89695-0.45842-0.26367-0.11328-2.8683-1.5632-8.0322-2.6357-11.213-2.6426-0.0081-1.76e-5 -0.01925 0.00391-0.02734 0.00391v-0.00391zm-24.346 25.053c-9e-3 -0.11702 0.0028 0.03957 0.01172 0.30274 0.0027 0.07978 0.0051 0.33995 0.0078 0.44141-0.09878-0.58248-0.01409-0.67351-0.01953-0.74414z" color="#000000" color-rendering="auto" dominant-baseline="auto" fill="#fff" image-rendering="auto" shape-rendering="auto" solid-color="#000000" style="font-feature-settings:normal;font-variant-alternates:normal;font-variant-caps:normal;font-variant-ligatures:normal;font-variant-numeric:normal;font-variant-position:normal;isolation:auto;mix-blend-mode:normal;shape-padding:0;text-decoration-color:#000000;text-decoration-line:none;text-decoration-style:solid;text-indent:0;text-orientation:mixed;text-transform:none;white-space:normal"/><path d="m69.021 21.432c-1.8311-4e-3 -2.1883 0.0324-3.2865 0.33638-1.5225 0.42145-2.0476 0.70474-2.7439 1.4812l-0.5449 0.60769-0.05348 21.124c-0.0295 11.618 0.02406 21.295 0.11937 21.503 0.4341 0.94996-0.56652 1.6549-2.3501 1.6549-1.3808 0-2.3707-0.44033-2.323-1.033 0.01625-0.20046 0.06717-8.0728 0.11316-17.494 0.05895-12.086 0.01711-17.318-0.14107-17.77-0.49138-1.4029-2.8687-2.4398-5.8544-2.5531-2.2856-0.08674-4.1395 0.28493-5.5203 1.1063-0.66893 0.39792-1.1504 0.81305-1.3084 1.1292-0.19205 0.38432-0.24935 5.473-0.24958 21.99-2.11e-4 20.217-0.02174 21.514-0.35965 21.911-3.0267 2.4711-5.1861-6.4196-9.6388-9.3514-1.6139-0.88078-3.2015-1.347-4.8491-1.4244-3.0511-0.14326-5.2364 0.81281-6.0311 2.6393-0.29229 0.67179-0.3082 0.92557-0.1062 1.7007 3.4796 9.5574 12.146 18.607 14.581 24.419 8.2675 24.731 24.651 20.325 60.57 20.325 15.551 0 12.408-25.491 12.408-40.773v-39.335c0-0.97474-3.4788-2.2685-7.3976-2.2931-3.4791 0.0029-5.9948 0.76928-7.0171 2.1356-0.37746 0.50451-0.38974 1.069-0.37361 17.205 9e-3 9.1756-0.0461 16.779-0.12246 16.897-0.33999 0.52387-2.6772 0.76658-3.6717 0.3813-0.64809-0.25107-1.0145-0.80876-0.85728-1.3043 0.0703-0.22159 0.13173-8.886 0.13642-19.255l0.0083-18.852-0.57512-0.7021c-2.156-2.6304-9.7207-2.4083-11.259 0.33043-0.27217 0.4845-0.3114 2.8784-0.31624 19.17-3e-3 10.239 0.05313 18.881 0.12557 19.203 0.15754 0.70223-0.27465 1.3029-1.0658 1.4807-0.95322 0.21428-2.3916 0.13914-3.0167-0.15765l-0.57505-0.27268 0.01399-21.748c0.01492-24.462 0.14885-22.454-1.5575-23.384-1.4852-0.80944-2.5104-1.0241-4.9103-1.0293z" stroke-width="0"/><path d="m50.805 81.785c-1.8257 0.16924-3.0584 1.4886-2.5956 2.6696 0.15317 0.39087 0.43254 0.60229 0.84807 0.94954 0.41554 0.34725 0.97243 0.75702 1.6639 1.2103 1.3829 0.9066 3.2969 1.9885 5.5983 3.0322 2.1275 0.96491 6.7019 2.8994 9.3637 3.6693 10.596 3.0646 13.73 3.5424 23.43 4.2117l0.03947 0.0026 0.03624 3.82e-4c0.88189 0.0146 1.5835 0.01472 2.1399-0.0059 0.55638-0.02066 0.91973-0.02784 1.3943-0.16729 1.9873-0.58421 2.537-2.419 1.0218-3.3382-0.28896-0.17529-0.73228-0.35866-1.2451-0.42488-0.51056-0.06592-1.0916-0.07399-2.0918-0.08685l-0.0096-0.0011c-9.7031-0.19439-12.595-0.83825-23.362-4.4706-5.5693-1.998-8.4476-3.6163-12.69-6.1351-0.79875-0.47425-1.2889-0.76154-1.8371-0.95153-0.54822-0.18999-1.1829-0.21247-1.7046-0.16425z" color="#000000" color-rendering="auto" dominant-baseline="auto" fill="#fff" image-rendering="auto" shape-rendering="auto" solid-color="#000000" style="font-feature-settings:normal;font-variant-alternates:normal;font-variant-caps:normal;font-variant-ligatures:normal;font-variant-numeric:normal;font-variant-position:normal;isolation:auto;mix-blend-mode:normal;shape-padding:0;text-decoration-color:#000000;text-decoration-line:none;text-decoration-style:solid;text-indent:0;text-orientation:mixed;text-transform:none;white-space:normal"/></svg>
