<svg width="512" height="512" version="1.1" viewBox="0 0 384 384" xmlns="http://www.w3.org/2000/svg"><defs><clipPath><rect width="384" height="384"/></clipPath><clipPath><rect width="384" height="384"/></clipPath><clipPath><rect width="384" height="384"/></clipPath><clipPath><rect width="384" height="384"/></clipPath><linearGradient id="b" x1="46.752" x2="76.655" y1="238" y2="238" gradientTransform="translate(2,-22)" gradientUnits="userSpaceOnUse"><stop stop-color="#b3b3b3" offset="0"/><stop stop-color="#e6e6e6" offset=".16809"/><stop stop-color="#ccc" offset=".26651"/><stop stop-color="#ccc" offset=".74269"/><stop stop-color="#e6e6e6" offset=".86174"/><stop stop-color="#b3b3b3" offset="1"/></linearGradient></defs><g transform="translate(424.55 -40.376)"><path d="m-391.25 157.89c-0.60742 0-1.2077 0.0313-1.7988 0.0908-8.572 0.86361-15.284 7.8369-15.722 16.515-0.0152 0.29897-0.022 0.59961-0.022 0.90235v193.24c0 0.30213 7e-3 0.60251 0.022 0.90088 5e-5 9.7e-4 -5e-5 2e-3 0 3e-3 0.43792 8.6776 7.1501 15.651 15.722 16.515 2e-3 1.5e-4 3e-3 -1.5e-4 4e-3 0 0.29417 0.0296 0.59079 0.0524 0.88916 0.0674 0.29994 0.0152 0.60155 0.022 0.90528 0.022h317.41c9.6875 0 17.543-7.8398 17.543-17.508v-193.24c0-2.8024-0.663-5.4477-1.8354-7.7959l0.0132-0.0161c-1.8605-3.7337-5.021-6.6947-8.8931-8.3203-0.4739-0.19896-0.95733-0.37706-1.4517-0.53466-0.0623-0.02-0.12344-0.0422-0.18603-0.0615-0.18825-0.0577-0.3789-0.10962-0.56983-0.16113-0.16744-0.0455-0.33598-0.0883-0.50537-0.12891-0.17039-0.0405-0.34038-0.0816-0.5127-0.11718-0.31773-0.0662-0.63714-0.12554-0.96093-0.17432-0.11448-0.0171-0.23049-0.0291-0.34571-0.0439-0.26852-0.035-0.53932-0.0636-0.81152-0.0864-0.11359-9e-3 -0.2271-0.0192-0.34131-0.0264-0.37823-0.0243-0.7582-0.041-1.1426-0.041z" fill="#f5f5f5" opacity=".2" stroke="#000" stroke-width="7.5"/><path d="m-248.46 74.952-122.19 0.19141c-10.027-1.3906-18.23 9.4219-18.23 21.121v59.879c0.61719-0.0664 1.2383-0.10937 1.8711-0.10937h137.36l33.129-39.477z" fill="#357af0"/><path d="m-217.91 116.58-33.43 39.457h173.22c1.543 0 3.0391 0.19922 4.4844 0.55859l0.0273-20.918c0.0117-8.4297-4.2656-15.711-10.465-19.098z" fill="#306ed7" fill-rule="evenodd"/><path d="m-73.634 135.07-0.0088 6.5244c-1.4453-0.35937-2.9424-0.55811-4.4854-0.55811h-308.89c-0.63281 0-1.2534 0.0435-1.8706 0.10986v15c0.61719-0.0664 1.2378-0.10986 1.8706-0.10986h308.89c1.543 0 3.04 0.19874 4.4854 0.55811l0.02632-20.918c2.85e-4 -0.20404-0.0129-0.4038-0.01755-0.60645z" opacity=".296" stroke-width=".99998"/><path d="m-391.25 154.15h317.41c9.6875 0 17.543 7.8359 17.543 17.508v200.72c0 9.668-7.8555 17.508-17.543 17.508h-317.41c-9.6875 0-17.543-7.8398-17.543-17.508v-200.72c0-9.6719 7.8555-17.508 17.543-17.508z" fill="#f5f5f5"/><path d="m-391.25 154.15c-9.7188 0-17.543 7.8086-17.543 17.508v200.72c0 9.6992 7.8242 17.508 17.543 17.508h152.07l181.06-226.04c-2.8672-5.7539-8.8086-9.6953-15.711-9.6953z" fill="#fff"/><path d="m-408.85 365.02v7.5c0 9.6682 7.8555 17.508 17.543 17.508h317.42c9.6878 0 17.543-7.8398 17.543-17.508v-7.5c0 9.6682-7.8555 17.508-17.543 17.508h-317.42c-9.6878 0-17.543-7.8398-17.543-17.508z" fill="#b3b3b3" stroke-width=".99997"/><path d="m-248.47 74.727-122.19 0.1919c-10.027-1.3906-18.23 9.4222-18.23 21.122v7.5c0-11.699 8.2028-22.512 18.23-21.121l122.19-0.1919 31.94 41.606-0.0161 0.0191h132.46c6.1265 3.3472 10.368 10.501 10.456 18.804l0.0088-7.2056c0.0117-8.43-4.2655-15.712-10.465-19.099h-132.47l0.0161-0.019-31.94-41.606z" fill="#f4f8fe" opacity=".1" stroke-width=".99998"/><g transform="matrix(6.0339 0 0 6.0339 -618.71 -980.38)"><path d="m55 197.24h18c1.662 0 3 1 3 3v3.0112h-3.2005l-0.03125-3.2542h-17.537l0.03125 3.2542h-3.2629v-3.0112c0-1.662 1.338-3 3-3z" fill="url(#b)" style="paint-order:normal"/><rect x="52" y="201.01" width="24" height="4" ry="1.5" opacity=".1"/><path d="m55 200c-1.662 0-3 0.59221-3 2.2542v1h3.2317v-1.2542h17.537v1.2542h3.2317v-1c0-1.662-1.338-2.2542-3-2.2542z" fill="#b3b3b3"/><rect x="55.265" y="201.25" width="17.535" height="2" opacity=".1"/></g><path d="m-391.25 154.15c-9.6878 0-17.543 7.836-17.543 17.508v7.5c0-9.672 7.8555-17.508 17.543-17.508h317.41c9.6878 0 17.543 7.836 17.543 17.508v-7.5c0-9.672-7.8555-17.508-17.543-17.508z" fill="#e6e6e6" stroke-width=".99998"/></g><path d="m384 294c0 49.706-40.294 90-90 90s-90-40.294-90-90 40.294-90 90-90 90 40.294 90 90z" fill-rule="evenodd" opacity=".3" stroke-width=".9375"/><path d="m384 286.5c0 49.706-40.294 90-90 90s-90-40.294-90-90 40.294-90 90-90 90 40.294 90 90z" fill="#0ca15e" fill-rule="evenodd" stroke-width=".9375"/><path d="m282.75 215.25v23.626c-25.675 5.2119-45 27.911-45 55.124 0 20.271 10.727 38.032 26.809 47.932l-4.3094 2.693 45 28.125v-23.626c25.675-5.2119 45-27.911 45-55.124 0-20.271-10.727-38.032-26.809-47.932l4.3094-2.693-22.5-12.375zm0 35.169v21.081l29.681-18.55c15.659 7.0426 26.569 22.769 26.569 41.05 0 20.967-14.342 38.585-33.75 43.581v-21.081l-29.681 18.55c-15.659-7.0426-26.569-22.769-26.569-41.05 0-20.967 14.342-38.585 33.75-43.581z" opacity=".3" stroke-width=".9375"/><path d="m282.75 207.75v23.626c-25.675 5.2119-45 27.911-45 55.124 0 20.271 10.727 38.032 26.809 47.932l-4.3094 2.693 45 28.125v-23.626c25.675-5.2119 45-27.911 45-55.124 0-20.271-10.727-38.032-26.809-47.932l4.3094-2.693-22.5-12.375zm0 35.169v21.081l29.681-18.55c15.659 7.0426 26.569 22.769 26.569 41.05 0 20.967-14.342 38.585-33.75 43.581v-21.081l-29.681 18.55c-15.659-7.0426-26.569-22.769-26.569-41.05 0-20.967 14.342-38.585 33.75-43.581z" fill="#fff" stroke-width=".9375"/></svg>
