<svg width="512" height="512" version="1.1" viewBox="0 0 384 384" xmlns="http://www.w3.org/2000/svg"><defs><linearGradient id="a" x1="235.09" x2="720.48" y1="289.08" y2="-306.19" gradientTransform="matrix(.75 0 0 .75 -.000383 -5e-5)" gradientUnits="userSpaceOnUse"><stop stop-color="#f7dd67" offset="0"/><stop stop-color="#ffc62f" offset="1"/></linearGradient></defs><path d="m81.476 360.27c-2.4726-0.66407-7.4961-3.0586-10.152-4.8438-5.2031-3.4922-10.277-9.9766-12.734-16.273l-1.207-3.0898-0.09375-143.05-0.08984-143.05 0.88672-2.8633c2.8164-9.1016 9.1836-16.453 17.828-20.586 6.0742-2.9023 0.32032-2.668 65.426-2.6602l57.914 4e-3 25.613 25.75c14.086 14.164 37.781 37.977 52.656 52.914 14.875 14.941 27.043 27.246 27.043 27.344 0 0.0977 4.625 4.7969 10.277 10.449l10.277 10.27 0.0781 41.352c0.0391 22.742 0.0781 65.008 0.082 93.922l0.0117 52.574-1.5703 3.2578c-1.9844 4.1367-3.168 5.8398-6.332 9.1562-4.1172 4.3086-8.3516 6.9375-14.488 8.9922l-2.9844 1.0039-108.29-0.0312c-94.418-0.0274-108.53-0.0937-110.15-0.53125z" fill="url(#a)"/><path d="m91.535 58.383c-0.3086 0-0.61719 0.0117-0.92578 0.0352h-0.35157l-0.0352 0.0469c-6.6172 0.6836-11.652 6.3477-11.66 13.113 8e-3 0.53516 0.043 1.0742 0.11328 1.6055l-0.0703 0.0898 0.0781 127.29 0.0742 125.86c-0.0625 0.51172-0.0937 1.0274-0.0977 1.5391 4e-3 6.8398 5.1445 12.543 11.844 13.137l0.0117 8e-3 0.16016 4e-3c0.32031 0.0274 0.63672 0.043 0.95703 0.0469 0.32812 0 0.65234-0.0156 0.97656-0.0391l98.953 0.43359 97.586 0.0273c0.54687 0.0742 1.0976 0.1133 1.6484 0.1172 6.5977-4e-3 12.141-5.0391 12.883-11.707l0.19921-0.16405-4e-3 -51.254c-8e-3 -24.293-0.0391-59.809-0.0742-78.922l-0.0625-34.746-8.6367-8.6289c-4.75-4.75-8.6367-8.6992-8.6367-8.7812s-10.227-10.422-22.723-22.977c-12.5-12.555-32.41-32.563-44.246-44.461l-21.519-21.637h-105.77c-0.22266-0.0195-0.44922-0.0312-0.67188-0.0352z" opacity=".2"/><path d="m245.64 23.164-0.20703 0.95313v8e-3l-0.0156 0.0625c-0.0898 0.41015-0.082 0.82812 0.0312 1.2695 0.0352 0.21875 0.082 0.42578 0.14454 0.59766 0.0195 0.0469 0.0898 0.14843 0.1875 0.27343 0.0117 0.0234 0.0195 0.043 0.0312 0.0664 0.33984 0.65235 5.8516 6.4648 12.246 12.91 6.3945 6.4492 17.441 17.625 24.555 24.836 7.1094 7.2109 18.484 18.746 25.273 25.629 6.7891 6.8867 12.688 12.973 13.102 13.531 0.0859 0.11719 0.1914 0.23047 0.30078 0.33985 0.33594 0.35156 0.68359 0.59765 1.1055 0.77734 0.20312 0.0977 0.41015 0.17969 0.61718 0.23047 1.2148 0.32422 2.0977 0.42969 2.7656 0.32422 0.0703-8e-3 0.14062-0.0195 0.20312-0.0352 0.10157-0.0234 0.19922-0.0508 0.28907-0.0859 0.0273-8e-3 0.0469-0.0312 0.0703-0.0547 0.0195-0.0117 0.043-0.0195 0.0625-0.0312 0.15625-0.0977 0.25-1.1406 0.30469-3.8047 8e-3 -0.33985 0.0156-0.76563 0.0195-1.168 4e-3 -0.15625 8e-3 -0.29687 8e-3 -0.46484 0.0547-3.6016 0.0664-9.4375 0.0625-19.328-4e-3 -14.586-0.14453-25.613-0.34375-27.012-0.0664-0.46093-0.14062-0.91406-0.22266-1.3672-0.0937-0.70313-0.20703-1.2383-0.35156-1.832-0.0508-0.21093-0.125-0.46093-0.1875-0.69921-0.34765-1.3945-0.76953-2.7461-1.2617-4.0547-0.0859-0.23438-0.17578-0.49219-0.2539-0.69531-0.25391-0.66016-0.56641-1.3438-0.92188-2.0391-3.2969-6.8281-8.7734-12.215-16.141-15.762-3-1.4414-4.9844-2.2656-8.8672-2.7383-0.4375-0.0547-0.89844-0.10547-1.418-0.15234h-0.0273c-0.0664-8e-3 -0.14453-0.0117-0.21094-0.0195-0.37109-0.0312-0.76172-0.0586-1.1836-0.0859-4.9531-0.33984-12.539-0.37109-25.949-0.375h-23.816z" fill="#ffc72e"/><path d="m91.535 50.883c-0.3086 0-0.61719 0.0117-0.92578 0.0352h-0.35157l-0.0352 0.0469c-6.6172 0.6836-11.652 6.3477-11.66 13.113 8e-3 0.53516 0.043 1.0742 0.11328 1.6055l-0.0703 0.0898 0.0781 127.29 0.0742 125.86c-0.0625 0.51172-0.0937 1.0274-0.0977 1.5391 4e-3 6.8398 5.1445 12.543 11.844 13.137l0.0117 8e-3 0.16016 4e-3c0.32031 0.0274 0.63672 0.043 0.95703 0.0469 0.32812 0 0.65234-0.0156 0.97656-0.0391l98.953 0.43359 97.586 0.0273c0.54687 0.0742 1.0976 0.11329 1.6484 0.11719 6.5977-4e-3 12.141-5.0391 12.883-11.707l0.19922-0.16406-4e-3 -51.254c-8e-3 -24.293-0.0391-59.809-0.0742-78.922l-0.0625-34.746-8.6367-8.6289c-4.75-4.75-8.6367-8.6992-8.6367-8.7812s-10.227-10.422-22.723-22.977c-12.5-12.555-32.41-32.563-44.246-44.461l-21.519-21.637h-105.77c-0.22266-0.0195-0.44922-0.0312-0.67188-0.0352z" fill="#fff"/><path d="m202.68 145.72c-0.50782 0-5.2378 0.77051-10.507 1.708-5.2734 0.9414-16.426 2.8828-24.785 4.3242-8.3594 1.4375-15.853 2.7891-16.649 3-0.79687 0.21485-8.1836 1.5186-16.418 2.8975-8.2344 1.3828-15.425 2.6606-15.976 2.8403-0.55078 0.1797-3.5396 0.7339-6.6372 1.2378l-5.6367 0.91113v63.012c0 34.656 0.0396 63.011 0.0864 63.015 0.0469 4e-3 3.0347 0.54296 6.6401 1.1953 3.6094 0.65234 13.372 2.3789 21.696 3.832 8.3242 1.4531 15.437 2.7392 15.804 2.8564 0.3711 0.11328 7.7149 1.4248 16.312 2.9092 8.6016 1.4883 20.179 3.5088 25.73 4.4971 5.5508 0.98437 10.356 1.8037 10.68 1.8193 0.55859 0.0351 0.59034-3.9873 0.59034-80.007v-80.048zm5.707 16.638-0.27685 5.7114h66.335v113.91h-66.335l0.28857 7.1572 68.011-0.1963 1.8633-0.83936c2.2852-1.0352 3.2588-2.7739 3.6885-6.5903 0.15624-1.414 0.2412-27.554 0.19042-58.097-0.0937-55.176-0.0972-55.535-0.82763-56.953-0.91016-1.7774-1.6372-2.4414-3.6724-3.3633-1.5703-0.71486-2.187-0.72608-35.433-0.73389zm28.997 14.981c-11.738 0-21.254 9.5156-21.258 21.258 0 11.738 9.5195 21.258 21.258 21.258 11.742 0 21.261-9.5195 21.261-21.258 0-11.742-9.5186-21.258-21.261-21.258zm0 45.168-24.168 24.171h48.34zm-24.422 29.522v22.43h48.851v-22.43z" fill-rule="evenodd" opacity=".1"/><path d="m202.68 138.22c-0.50781 0-5.2378 0.7705-10.507 1.708-5.2734 0.94141-16.426 2.8828-24.785 4.3242-8.3594 1.4375-15.853 2.7891-16.649 3-0.79688 0.21485-8.1836 1.5186-16.418 2.8975-8.2344 1.3828-15.425 2.6606-15.976 2.8403-0.55079 0.17969-3.5396 0.7339-6.6372 1.2378l-5.6367 0.91113v63.012c0 34.656 0.0396 63.011 0.0864 63.015 0.0469 4e-3 3.0347 0.54296 6.6401 1.1953 3.6094 0.65234 13.372 2.3789 21.696 3.832 8.3242 1.4531 15.437 2.7392 15.804 2.8564 0.3711 0.11328 7.7148 1.4248 16.312 2.9092 8.6016 1.4883 20.179 3.5088 25.73 4.4971 5.5508 0.98438 10.356 1.8037 10.68 1.8193 0.55859 0.0351 0.59033-3.9873 0.59033-80.007v-80.048zm5.707 16.638-0.27686 5.7114h66.335v113.91h-66.335l0.28857 7.1572 68.011-0.1962 1.8633-0.83936c2.2852-1.0352 3.2588-2.7739 3.6885-6.5903 0.15625-1.414 0.24121-27.554 0.19043-58.097-0.0937-55.176-0.0972-55.535-0.82763-56.953-0.91016-1.7774-1.6372-2.4414-3.6724-3.3633-1.5703-0.71485-2.187-0.72607-35.433-0.73388zm28.997 14.981c-11.738 0-21.254 9.5156-21.258 21.258 0 11.738 9.5195 21.258 21.258 21.258 11.742 0 21.261-9.5195 21.261-21.258 0-11.742-9.5186-21.258-21.261-21.258zm0 45.168-24.168 24.171h48.34zm-24.422 29.522v22.43h48.851v-22.43z" fill="#f8de66" fill-rule="evenodd"/><g stroke-width="1.3333"><path transform="scale(.75)" d="m76.271 66.598-0.005859 0.019532 0.11914 190.73 0.125 190.73 1.6094 4.1211c3.276 8.3952 10.041 17.041 16.979 21.697 3.5412 2.3803 10.24 5.5716 13.537 6.457l0.00195 0.01562c2.16 0.5834 20.977 0.6705 146.87 0.70703l144.38 0.04102 3.9805-1.3379c8.1819-2.7396 13.827-6.2454 19.316-11.99 4.2187-4.4219 5.7975-6.6914 8.4434-12.207l2.0938-4.3438-0.00196-9.9961-2.0918 4.3398c-2.6459 5.5156-4.2247 7.7852-8.4434 12.207-5.4896 5.7448-11.135 9.2506-19.316 11.99l-3.9805 1.3379-144.38-0.04102c-125.89-0.03653-144.71-0.12363-146.87-0.70703l-0.00195-0.01562c-3.2968-0.88543-9.9959-4.0768-13.537-6.457-6.9375-4.6563-13.703-13.302-16.979-21.697l-1.6094-4.1211-0.125-190.73-0.11328-180.75z" fill="#030303" opacity=".2"/><path transform="scale(.75)" d="m188.45 31.805c-86.808-0.010401-79.135-0.32286-87.234 3.5469-11.526 5.5107-20.016 15.314-23.771 27.449l-1.1816 3.8164 0.005859 9.9805 1.1758-3.7969c3.7552-12.135 12.246-21.939 23.771-27.449 8.0989-3.8697 0.42681-3.5573 87.234-3.5469l77.219 0.005859 34.15 34.334c18.781 18.885 50.376 50.635 70.209 70.551 19.833 19.921 36.057 36.328 36.057 36.459 0 0.13026 6.1671 6.3955 13.703 13.932l13.703 13.693 0.10352 55.137c0.05213 30.323 0.10417 86.677 0.10937 125.23l0.01367 60.104 0.00196-0.00391-0.01563-70.1c-0.0052-38.552-0.05724-94.906-0.10937-125.23l-0.10352-55.137-13.703-13.693c-7.536-7.5361-13.703-13.801-13.703-13.932 0-0.13068-16.223-16.538-36.057-36.459-19.833-19.916-51.428-51.665-70.209-70.551l-34.15-34.334-77.219-0.005859z" fill="#fff" opacity=".3"/><path transform="scale(.75)" d="m327.52 30.885-0.27539 1.2715v0.009766l-0.02148 0.083984c-0.11974 0.54687-0.10797 1.1049 0.04296 1.6934 0.04694 0.29167 0.10802 0.5677 0.19141 0.79688 0.026 0.062534 0.11973 0.19662 0.25 0.36328 0.0156 0.0312 0.02737 0.058643 0.04297 0.089843 0.45312 0.8698 7.8003 8.6193 16.326 17.213 8.526 8.5989 23.255 23.501 32.74 33.115 9.4792 9.6145 24.645 24.995 33.697 34.172 9.0521 9.1823 16.919 17.297 17.471 18.041 0.11453 0.15625 0.25455 0.30728 0.40039 0.45312 0.44792 0.46875 0.91206 0.79752 1.4746 1.0371 0.27082 0.13027 0.54622 0.23893 0.82226 0.30664 1.6197 0.43229 2.797 0.57227 3.6875 0.43164 0.09373-0.01067 0.18815-0.02594 0.27148-0.04687 0.13543-0.0312 0.26497-0.06649 0.38477-0.11329 0.0364-0.01066 0.06255-0.04288 0.09375-0.07421 0.026-0.0156 0.05798-0.02542 0.08398-0.04102 0.20834-0.13027 0.33333-1.5201 0.40626-5.0723 0.01066-0.45313 0.02019-1.0221 0.02539-1.5586 0.00533-0.20833 0.00976-0.39518 0.00976-0.61914 0.07293-4.8021 0.08919-12.584 0.08399-25.771-2.1e-4 -0.75586-0.00511-1.3683-0.00586-2.1094-0.00547 8.0467-0.02314 14.261-0.07813 17.881 0 0.22396-0.00443 0.41081-0.00976 0.61914-0.0052 0.53649-0.01473 1.1055-0.02539 1.5586-0.07293 3.5521-0.19792 4.942-0.40626 5.0723-0.026 0.0156-0.05798 0.02542-0.08398 0.04102-0.0312 0.03133-0.05735 0.06355-0.09375 0.07421-0.1198 0.0468-0.24934 0.08209-0.38477 0.11329-0.08333 0.02093-0.17775 0.0362-0.27148 0.04687-0.89053 0.14063-2.0678 6.5e-4 -3.6875-0.43164-0.27604-0.06771-0.55144-0.17637-0.82226-0.30664-0.56255-0.23959-1.0267-0.56836-1.4746-1.0371-0.14584-0.14584-0.28586-0.29687-0.40039-0.45312-0.552-0.744-8.4186-8.8588-17.471-18.041-9.052-9.1773-24.218-24.557-33.697-34.172-9.4853-9.6147-24.214-24.516-32.74-33.115-4.2696-4.3035-8.2401-8.3934-11.201-11.516h-5.3535l-0.00195-0.005859z" fill="#100c00" opacity=".2"/><path transform="scale(.75)" d="m327.52 30.885-0.27539 1.2715v0.009766l-0.02148 0.083984c-0.11974 0.54687-0.10797 1.1049 0.04296 1.6934 0.04694 0.29167 0.10802 0.5677 0.19141 0.79688 0.026 0.062534 0.11973 0.19662 0.25 0.36328 0.0156 0.0312 0.02737 0.058643 0.04297 0.089843 0.2262 0.43422 2.1732 2.5848 5.125 5.6973h26.4c17.88 0.005213 27.996 0.046893 34.6 0.5 0.56251 0.0364 1.0833 0.071681 1.5781 0.11328 0.08855 0.0104 0.19272 0.016677 0.28126 0.027344h0.03515c0.69275 0.062493 1.3073 0.13019 1.8906 0.20312 5.1771 0.63027 7.8242 1.7285 11.824 3.6504 9.8235 4.7293 17.124 11.911 21.52 21.016 0.47396 0.92707 0.89191 1.8385 1.2305 2.7188 0.10416 0.27083 0.22335 0.61523 0.33789 0.92773 0.65624 1.7448 1.2181 3.5469 1.6816 5.4062 0.08332 0.31771 0.18226 0.6504 0.25 0.93164 0.1927 0.7916 0.34381 1.5059 0.46875 2.4434 0.10937 0.60419 0.20834 1.2077 0.29687 1.8223 0.25529 1.7928 0.43455 15.58 0.45313 33.906 0.00178-2.6267 0.00714-4.6452 0.00586-7.8906-0.00534-19.448-0.19336-34.15-0.45899-36.016-0.08853-0.61457-0.18749-1.2181-0.29687-1.8223-0.12494-0.93751-0.27605-1.6518-0.46875-2.4434-0.06774-0.28124-0.16667-0.61393-0.25-0.93164-0.46354-1.8593-1.0254-3.6614-1.6816-5.4062-0.11454-0.31251-0.23373-0.65691-0.33789-0.92773-0.33855-0.88021-0.75651-1.7917-1.2305-2.7188-4.3958-9.1042-11.696-16.286-21.52-21.016-4-1.9219-6.6472-3.0201-11.824-3.6504-0.58334-0.072933-1.1979-0.14063-1.8906-0.20312h-0.03515c-0.08854-0.010667-0.19271-0.016944-0.28126-0.027344-0.49478-0.0416-1.0156-0.076881-1.5781-0.11328-6.6041-0.45312-16.72-0.49479-34.6-0.5h-31.754l-0.00195-0.005859z" fill="#fff" opacity=".3"/></g></svg>
