<svg enable-background="new 0 0 61.439 61.439" version="1.1" viewBox="0 0 512 512" xmlns="http://www.w3.org/2000/svg" xmlns:xlink="http://www.w3.org/1999/xlink"><defs><linearGradient id="c" x1="246.91" x2="246.91" y1="331.29" y2="199.1" gradientTransform="translate(0 -10.867)" gradientUnits="userSpaceOnUse"><stop stop-color="#fd3535" offset="0"/><stop stop-color="#fd7d00" offset=".6"/><stop stop-color="#f8de68" offset="1"/></linearGradient></defs><g transform="matrix(-.31569 -1.1782 1.1782 -.31569 -243.63 183.49)" stroke-width="6.2093"><path d="m-283.55 188.03c8.724 16.523 17.1 33.225 24.123 50.58 3.6759 9.0904 7.8544 18.026 9.7109 27.719 0.61472 3.1978 1.8624 7.0602-1.7266 9.5625-3.4337 2.3906-6.222-0.0246-8.7988-1.875-8.1776-5.8802-15.821-12.381-22.18-20.285-1.6454-2.0366-3.57-3.7018-6.9726-5.1113 2.0242 3.3592 3.5149 5.8551 5.0176 8.3574 6.8178 11.326 14.982 21.95 18.732 34.891 1.3536 4.6632 6.2e-4 8.9037-3.4766 12.797-10.109-7.7988-20.186-7.0033-29.842 0.0566-10.593 7.743-15.331 17.802-10.221 30.742-4.3651 2.403-9.0901 3.4695-11.754 7.7539-7.5753 12.195-3.5516 24.057 10.016 28.98 2.5023 0.90656 4.4833 1.9435 5.75 4.4707 4.1292 8.2024 3.6081 9.8774-1.707 18.396-2.3036 3.7069-6.4388 6.092-7.9414 10.768 4.0112 0 7.63-0.0187 11.25 6e-3 2.8376 0.0248 6.0292-0.29785 7.1406 3.1856 0.32432 1.0177 0.29748 1.8948 0.0508 2.6738-0.66211 0.93929-1.4783 1.9999-2.3926 3.1211-0.47682 0.41017-0.96928 0.8049-1.4277 1.1895-11.94 10.016-24.842 18.69-37.912 27.129-6.2962 4.0609-12.644 8.2223-19.107 12.457v4.377c20.59-7.656 40.876-16.232 62.217-21.715 2.8811-0.74511 6.2592-2.7307 9.6309-0.0234-9.2146 16.132-23.949 26.991-35.939 40.527 2.4278 1.0618 3.6835-0.32194 5.1055-0.98633 9.8727-4.6507 18.726-11.178 28.748-15.58 4.9115-2.1546 9.6423-4.6999 15.02-5.5195 1.9435-0.29183 3.7381 0.19847 4.6074 2.0488 0.801 1.6889 0.64059 3.3528-0.67578 5.0293-1.5523 1.9808-2.9373 4.1795-3.9805 6.4707-6.4887 14.306 0.64021 34.803 18.324 36.572 2.9122 0.29184 5.9731 0.11172 9.084 1.0059 0.27321 4.1478 1.5461 7.9161 4.6445 10.791 1.6206 1.4964 0.91314 2.8877 0.23633 4.4648-2.4527 5.6815-3.9429 11.469-3.8125 17.834 0.30425 14.921 13.789 25.551 29.797 21.98-2.0178-0.88208-4.0465-1.6567-6.0371-2.4375 8.203 1.054 15.656-0.68398 18.021-1.3438 2.9769-0.83026 8.4998-1.736 12.348-2.3398 0.55638 0.30679 1.1982 0.48536 1.8164 0.71875 12.158 4.5949 24.452-3.0307 26.482-16.592 0.30425-2.0428 0.48364-3.3284 2.9922-3.4961 14.058-0.94381 23.278-8.3995 28.984-21.135 3.2102-7.1531 3.5224-14.599 3.541-22.242 13.636 3.5641 19.801-1.205 19.826-14.896 6e-3 -3.6821 1.2777-7.3268-0.21874-11.406 29.345 10.481 49.992 31.078 69.309 53.742-12.474-22.962-29.166-43.417-39.945-67.738 7.4698-2.7197 13.252 1.8015 19.914 2.4473-3.2661-6.2527-9.3504-9.4704-11.971-16.443 21.012 5.9733 40.074 15.263 60.291 21.51-17.765-13.511-36.845-25.023-53.66-40.068 11.462 3.4772 22.223 3.173 31.816-4.4023 7.9417-6.2838 8.6123-15.989 2.5644-31.115 8.2894-8.8606 10.5-20.578-0.13671-30.5 0.90655-1.3226 1.8743-2.6333 2.7188-4.0117 5.6753-9.2456 2.5461-20.347-7.6309-23.967-4.9177-1.751-5.3837-3.4887-5.334-8.4375 0.12418-12.183-5.9479-21.119-18.379-25.912 8.8482-4.4707 17.008-8.7314 25.291-12.736 8.3453-4.0174 16.803-7.7847 26.061-12.057-3.8082-0.78163-13.372 2.3266-24.805 7.2656l-16.186 2.8867c1.2338-0.5297 2.4671-1.0614 3.7031-1.584 5.0481-2.1422 9.8292-4.919 15.529-7.8125-3.0798-1.1673-4.6389 0.0566-6.2285 0.64649-13.747 5.1289-27.357 10.649-41.576 14.381-3.8746 1.0183-7.8548 2.8057-12.754 0.0488 18.528-22.794 44.314-35.094 67.4-50.891-0.19869-0.42223-0.3963-0.85121-0.60742-1.2734-6.6501 2.552-13.351 4.9927-19.951 7.6875-19.975 8.1652-40.348 15.212-60.969 21.533-4.5514 1.3909-7.1151-1.3781-5.7305-5.9668 0.86309-2.8563 2.1656-5.5809 3.0039-8.4434 4.3589-14.747-3.4446-30.116-17.633-32.363-5.638-0.89414-7.3843-3.1103-9.334-7.5996-3.0053-6.9046-8.5684-10.495-16.436-11.178-14.877-1.2791-29.147 11.245-32.09 23.539-15.151 0.75753-16.597 1.7388-23.396 16.945-15.442-13.263-23.967-30.952-33.529-47.779h-5.209c6.3645 16.275 12.529 32.543 13.299 50.32-2.4527 1.068-3.6573 0.27788-5.1289-0.77148-5.8367-4.2037-10.126-9.8465-14.926-15.031-10.003-10.817-18.61-22.727-27.334-34.543zm-44.994 255.68c-0.97248 0.33946-1.9445 0.68393-2.918 1.0195 0.20308-0.16872 0.41044-0.32905 0.61523-0.49415z" opacity=".3"/><path d="m-175.41 204.85c-0.37876 1.9125-3.5145 6.2714-4.4707 5.9609-0.95002-0.30426-12.474 3.0301-14.902 4.4769-2.4278 1.4344-3.9988 6.3397-4.4707 10.432-0.47811 4.0795-10.432-1.4964-10.432-1.4964l-14.902-20.857-7.4512-10.438 5.9609 34.282-1.4902 4.4707h-7.4512s-14.362-15.89-14.902-16.393c-0.54021-0.50916-25.334-28.321-25.334-28.321s12.307 26.464 29.805 77.492c-0.34772 1.571-5.8864 4.4645-10.432 4.4707-4.5514 6e-3 -14.902-10.432-14.902-10.432l2.9805 8.9414s5.5698 15.306 5.9609 17.883c0.39119 2.5831-5.9609 10.438-5.9609 10.438s-3.5766 0.41602-5.9609-1.4902c-2.3844-1.9125-9.4878-2.5644-11.922-1.4902-2.434 1.0804-8.8545 1.6517-16.393 8.9414-10.264 7.8796-5.9609 25.334-5.9609 25.334l-7.4512 2.9742s-6.1162 7.9169-5.9609 17.883 16.393 14.902 16.393 14.902 5.874 7.1159 5.9609 10.432c0.0869 3.3158-10.432 19.373-10.432 19.373h8.9414s6.6812 2.701 5.9609 5.9609c-0.72028 3.2599-13.791 17.846-17.883 19.373-4.0919 1.5275-25.334 17.883-25.334 17.883l52.158-11.922s3.6449 1.0804 2.9805 2.9805c-0.66439 1.9-17.883 28.314-17.883 28.314l19.373-8.9414 13.412-2.9805 4.4707 5.9609s-2.552 3.1109-8.9414 17.883c1.1922 30.27 28.314 28.314 28.314 28.314s0.16765 4.7315 7.4512 13.412c-2.6079 0.44086-5.9609 22.31-2.9742 31.295 11.885 14.921 32.959 10.14 37.256 8.9414 4.2968-1.1984 16.393-2.9805 16.393-2.9805s3.6076 0.76375 10.432-1.4902c6.824-2.2478 11.922-19.373 11.922-19.373s17.454-1.5399 23.844-7.4512c6.3832-5.9113 11.133-22.9 11.922-35.766 5.6567 1.1425 16.529-1.9249 17.883-5.9609 1.3536-4.036 1.4902-20.863 1.4902-20.863l14.896 7.4512 32.785 17.883-19.373-37.256 2.9805-1.4902 11.922-1.4902-7.4512-8.9414 2.9743-2.9805 29.811 5.9609-29.811-26.824s16.616 3.8808 17.889 4.4707c1.2667 0.58989 15.654-1.9497 22.353-11.922 6.6998-9.9721 0-23.844 0-23.844s4.0112-8.8172 5.9609-14.902c1.9497-6.0851-7.4512-14.896-7.4512-14.896s6.0851-9.761 4.4769-17.889c-1.6206-8.1218-14.902-10.432-14.902-10.432s0.36635-12.201-2.9805-20.857c-3.3406-8.6682-17.883-13.412-17.883-13.412l44.707-20.863-41.733 7.445-16.399 5.9609-11.922 1.4902s-2.8749-2.9184-2.9742-4.4769c-0.0994-1.5585 14.896-14.896 14.896-14.896l28.321-23.844-61.1 19.373-1.4902-4.4707s4.6818-18.199 4.4707-19.373c-0.21112-1.1673-2.9743-11.922-2.9743-11.922l-10.438-10.432-11.922-4.4707s-2.4775-3.9243-2.9742-5.9609c-0.50295-2.0366-3.589-6.1348-16.399-8.9414-12.804-2.8066-24.961 14.48-25.334 16.393z" fill="#b8174c"/><path d="m-195.68 542.07c10.357-24.241 18.64-49.289 30.295-73.133 4.4955 3.0488 5.0047 8.2646 8.9476 11.872-0.52779-6.1658-2.1732-11.096-5.4331-15.238-2.0615-2.6141-4.5514-4.3962-7.2649 0.0621-4.9178 8.1031-8.0473 16.945-11.307 25.744-3.1171 8.4322-6.0168 16.945-9.0718 25.607-1.5523-1.2419-0.77616-2.4154-0.63955-3.502 1.8255-14.325 3.6883-28.637 3.2909-43.124-0.0807-3.0053 0.58368-6.7557-3.0177-7.6871-3.2723-0.85067-5.2531 2.4465-6.8551 4.7998-4.5825 6.7309-8.8607 13.679-13.747 21.31 0.16144-1.8628 0.15523-2.8687 0.36635-3.8311 1.0928-5.0916 2.6017-10.134 2.3533-15.411-0.23595-4.9861-3.086-6.7371-7.476-4.4893-2.6452 1.3536-5.042 3.1792-7.8051 4.955 4.4148-12.965 4.924-23.254 0.58989-27.842 1.4033 15.387-5.0482 28.724-10.5 42.49 6.6874-4.8495 12.139-10.773 20.056-14.989-2.5769 16.927-6.6812 32.543-9.4071 48.501 9.9411-16.02 19.106-32.375 30.419-47.451 0.72649 23.993-2.4899 47.501-3.7939 71.357zm104.17-240.12c1.7945 2.1919 3.3965 1.366 5.3897 0.0186 7.1655-4.837 14.598-9.3015 21.664-14.281 3.3406-2.3595 6.3148-2.0304 8.9724 0.24837 10.835 9.2581 15.269 23.291 6.5446 35.741-0.69545 0.9997-1.7821 1.7759-0.21733 3.4337 1.6455-1.3226 3.5766-2.4899 5.0047-4.1043 3.769-4.2658 8.4384-4.3527 11.773 0.26079 1.9311 2.6638 3.0798 5.7001 3.3654 9.1215 0.59609 7.0227-3.8374 11.5-8.3453 16.262 1.0183 0.40981 1.7634 0.95623 2.0304 0.77616 4.9674-3.3034 6.439 0.4719 7.3953 3.974 1.9249 6.9979 0.7327 13.723-3.4089 19.671-1.4654 2.0988-1.5647 3.44-0.1366 5.5697 2.167 3.2226 3.8622 6.8178 2.906 10.897-3.1481 13.431-11.096 17.684-23.98 19.218-6.29 0.74512-10.301-3.2475-15.12-5.6939-2.0801-1.0556-4.0112-1.4033-5.6753 0.52158-1.6082 1.8566-1.2729 3.8001-0.10556 5.8243 2.1298 3.6573 5.6629 5.7684 8.8917 8.1528 6.4515 4.775 13.064 9.3202 19.609 13.965-8.0845-1.4406-15.362-5.0482-23.39-6.1224-2.1732-0.29183-4.0485-0.0993-5.2344 1.5275-1.4095 1.9249-1.3288 4.272-0.0186 6.3583 1.0556 1.6765 2.8066 2.9122 3.3033 5.1227-8.0597-1.8566-12.214 1.4902-10.283 8.3018 0.88793 3.1109 2.2664 6.1534 3.8808 8.9662 3.738 6.5198 7.743 12.884 11.649 19.305-14.517-9.0532-28.513-18.373-45.104-23.105-1.5399 5.2779 0.75132 9.7921 0.45328 14.455-0.5961 9.345-6.6315 14.84-14.828 12.928-1.6827-0.39119-3.2288-1.5399-5.0668-0.36014-0.16765 13.338-2.4589 25.893-12.853 35.486-10.643 9.8293-23.154 10.14-37.703 5.9361 4.7129 5.9299 10.531 5.34 14.971 7.6312-3.502 12.381-4.8557 13.282-25.98 17.374 0.56505 1.4406 1.8752 1.6827 3.0922 2.1422 12.158 4.5949 24.452-3.0301 26.483-16.591 0.30425-2.0429 0.48432-3.3282 2.9929-3.4958 14.058-0.94382 23.279-8.4012 28.985-21.136 3.2102-7.1531 3.5207-14.598 3.5393-22.242 13.636 3.5641 19.801-1.2046 19.826-14.896 6e-3 -3.6821 1.2791-7.327-0.21733-11.406 29.345 10.481 49.991 31.078 69.308 53.741-12.474-22.962-29.165-43.415-39.944-67.737 7.4698-2.7197 13.251 1.8007 19.913 2.4465-3.2661-6.2528-9.3512-9.4692-11.972-16.442 21.012 5.9733 40.075 15.262 60.292 21.509-17.765-13.511-36.846-25.023-53.661-40.069 11.462 3.4772 22.223 3.173 31.816-4.4024 7.9417-6.2838 8.6123-15.989 2.5644-31.115 8.2894-8.8607 10.5-20.578-0.1366-30.5 0.90655-1.3226 1.8752-2.6327 2.7197-4.0112 5.6753-9.2456 2.5458-20.348-7.6312-23.968-4.9178-1.751-5.3835-3.4896-5.3338-8.4384 0.12419-12.183-5.9485-21.118-18.38-25.911 8.8483-4.4707 17.007-8.7303 25.29-12.735 8.3453-4.0174 16.802-7.7865 26.06-12.058-11.829-2.4278-79.075 32.568-85.962 43.937zm-157.59-89.377c-10.003-10.817-18.609-22.726-27.333-34.542h-7.1159c8.7241 16.523 17.1 33.226 24.123 50.581 3.6759 9.0904 7.8548 18.026 9.7113 27.718 0.61472 3.1978 1.8628 7.06-1.7262 9.5623-3.4338 2.3906-6.2217-0.0248-8.7986-1.8752-8.1776-5.8802-15.821-12.381-22.18-20.286-1.6455-2.0366-3.5704-3.7008-6.973-5.1103 2.0242 3.3592 3.5145 5.8554 5.0171 8.3577 6.8178 11.326 14.983 21.95 18.733 34.89 1.3536 4.6632 0 8.9041-3.4772 12.797-10.109-7.7989-20.186-7.0041-29.842 0.0559-10.593 7.743-15.331 17.802-10.221 30.742-4.3651 2.403-9.0904 3.471-11.754 7.7554-7.5753 12.195-3.5517 24.055 10.016 28.979 2.5023 0.90656 4.4831 1.9435 5.7498 4.4707 4.1292 8.2025 3.6076 9.879-1.7076 18.398-2.3036 3.707-6.439 6.0913-7.9417 10.767 4.0112 0 7.6312-0.0186 11.251 6e-3 2.8376 0.0248 6.0292-0.29805 7.1407 3.1854 1.0804 3.3903-1.6889 5.2406-3.769 6.9855-11.94 10.016-24.843 18.69-37.914 27.128-6.2962 4.0611-12.642 8.2213-19.106 12.456v4.3776c20.59-7.6561 40.876-16.231 62.217-21.714 2.8811-0.74512 6.259-2.7321 9.6306-0.0248-9.2146 16.132-23.949 26.992-35.939 40.528 2.4278 1.0618 3.6821-0.32288 5.104-0.98727 9.8728-4.6508 18.727-11.177 28.749-15.579 4.9116-2.1546 9.643-4.7004 15.02-5.5201 1.9435-0.29183 3.738 0.1987 4.6073 2.0491 0.801 1.6889 0.63956 3.353-0.67682 5.0295-1.5523 1.9808-2.937 4.1789-3.9802 6.4701-6.4887 14.306 0.63956 34.803 18.324 36.573 2.9122 0.29184 5.9734 0.11177 9.0842 1.0059 0.27321 4.1478 1.5461 7.9169 4.6446 10.792 1.6206 1.4964 0.91277 2.8873 0.23596 4.4645-2.4527 5.6815-3.9429 11.469-3.8125 17.833 0.30425 14.921 13.791 25.551 29.798 21.981-8.693-3.8001-17.684-5.6194-22.229-14.424-3.1046-6.0106-2.9432-19.708 1.1487-25.626 2.6017-0.16765 4.6632 2.5769 8.6992 1.0432-11.084-5.874-15.877-14.977-16.548-26.731-2.0801 2.0366-1.6517 4.4769-3.322 5.7684-10.754 0.43465-18.839-4.955-21.913-14.952-2.6017-8.4819-0.85068-16.07 4.8246-23.043 4.2037-5.1661 1.8814-10.767-4.4458-12.735-4.8495-1.5089-8.9849 0.37256-13.275 1.9063-5.5573 1.987-10.587 5.1537-16.014 7.5629 6.0975-5.9423 12.127-11.698 16.312-19.094 1.633-2.8935 2.7756-5.9237 0.70165-8.7862-2.0987-2.8998-5.6132-2.9246-8.7054-2.2167-6.2279 1.4157-12.431 3.0488-18.516 4.9736-8.0535 2.5458-15.989 5.458-23.968 8.2087 3.6324-3.0177 7.5505-5.4331 11.313-8.0721 9.5499-6.6812 19.566-12.804 27.147-21.919 1.9435-2.3409 3.6573-4.6632 2.1236-8.1156-1.5585-3.5083-4.4148-4.775-7.7989-5.1537-2.434-0.267-4.9178-0.0497-8.1901-0.0497 1.5647-1.6579 2.372-2.5334 3.1978-3.3841 11.487-11.804 9.6803-22.118-5.222-29.451-5.5884-2.7507-8.8483-6.8799-8.5254-13.338 0.36014-7.06 2.2291-13.257 9.2022-16.343 2.372 0.62714 2.1981 4.0174 5.3835 4.2596-3.0736-6.6626-5.9423-12.859-3.7442-20.05 3.7194-12.176 21.503-25.812 35.027-15.194 1.9994 1.5648 3.502 0.87552 5.1227-0.64576 6.3459-5.9734 5.9547-13.213 4.1044-20.795-0.69545-2.8501-3.0115-5.1599-3.0798-8.8296 2.0801 1.3723 3.6138 2.5769 5.309 3.4772 9.6554 5.104 17.088 0.0931 16.132-9.3512-1.6641-16.337-8.7862-30.767-15.61-45.291-3.6945-7.8548-7.7554-15.523-11.649-23.279 7.4325 8.3826 14.114 17.194 21.081 25.762 4.8495 5.9734 10.158 11.58 16.554 15.927 4.5638 3.1046 9.7983 1.1984 10.289-3.8187 0.37256-3.8436 0.35393-7.7616-0.29804-11.698-1.1984-7.2276-4.9178-13.629-6.2217-20.888 8.2522 12.058 13.189 27.234 30.426 31.425 1.5523-5.191 2.2167-10.953 7.2214-14.263 4.8557-3.2102 10.134-3.9615 15.666-2.0366 0.44086-2.0553 0.6023-3.5393 1.0804-4.924 3.9864-11.537 13.716-16.995 24.558-17.746 9.4009-0.65198 15.747 4.9426 16.312 13.139-2.4465 1.3164-5.6815 1.1115-8.2832 4.5142 3.1357-0.27942 5.4394-0.16765 7.5816-0.72028 15.716-4.0298 30.531 14.399 26.986 28.041-1.4343 5.5573-4.9178 10.593-4.272 16.746 0.38497 3.6697 2.521 4.6508 5.5201 4.1416 11.76-1.9994 23.13-5.4021 34.12-10.022 6.2466-2.6327 12.443-5.3835 18.665-8.0783-6.3335 5.4145-12.934 10.227-19.541 15.033-6.1224 4.4645-11.438 9.8231-16.529 15.374-1.7945 1.9621-4.0174 4.3838-2.5334 7.5567 1.5337 3.2909 4.5204 4.1602 7.8982 3.9615 1.037-0.0621 2.0677-0.25458 3.0922-0.42223 13.791-2.3036 26.309-8.2584 39.013-13.629 5.0482-2.1422 9.8293-4.9178 15.529-7.8113-3.0798-1.1674-4.6384 0.0559-6.2279 0.64577-13.747 5.1289-27.358 10.649-41.577 14.381-3.8746 1.0183-7.8548 2.8066-12.754 0.0497 18.529-22.794 44.316-35.095 67.402-50.891-0.1987-0.42224-0.3974-0.85068-0.60852-1.2729-6.6502 2.552-13.35 4.9923-19.95 7.6871-19.975 8.1652-40.348 15.213-60.969 21.534-4.5514 1.3909-7.1159-1.3785-5.7312-5.9671 0.8631-2.8563 2.167-5.5822 3.0053-8.4446 4.3589-14.747-3.4462-30.115-17.634-32.363-5.638-0.89414-7.3829-3.1109-9.3326-7.6002-3.0053-6.9047-8.5688-10.494-16.436-11.177-14.877-1.2791-29.146 11.245-32.09 23.539-15.151 0.75754-16.597 1.7386-23.397 16.945-15.443-13.263-23.968-30.953-33.53-47.781h-5.2096c6.3645 16.275 12.53 32.543 13.3 50.32-2.4527 1.068-3.6573 0.27942-5.1289-0.76996-5.8367-4.2037-10.127-9.848-14.927-15.033zm19.615 74.642c-1.2046 6.29-0.57746 12.425 0.11177 18.386-11.878 5.1848-19.274 12.673-16.244 26.433-10.488 1.8628-19.286 6.259-25.868 14.045-7.8858 9.3326-12.946 19.808-9.581 32.586 3.1419 11.934 11.406 20.124 20.503 27.619 2.434 2.0056 4.837 3.2475 3.2661 7.4077-1.453 3.8436-1.037 8.1776-0.24216 12.369 1.7945 9.4506 13.66 16.945 24.483 14.132-7.8299-4.1478-14.946-8.1528-18.075-16.051-3.0798-7.7678 0.80721-15.598 0.98107-24.701-2.1422 2.5955-3.3468 4.0547-4.539 5.5076-10.196-5.371-21.776-20.193-20.168-34.871 1.6827-15.443 14.933-31.227 30.96-34.828 2.0429 2.3347 3.3158 5.607 7.6188 7.6933-3.0364-5.607-5.4021-10.413-4.5328-15.672 1.6951-10.37 8.929-15.48 18.305-18.622 2.968-0.99348 6.4825 0.31047 9.3326-2.2602-3.6324-2.6886-7.6685-1.8317-11.475-2.2291-2.2416-15.61 5.4394-26.185 17.007-34.319 12.586-8.8545 25.452-6.4825 37.976 0.40982 0 2.167-2.9308 2.5272-2.2043 5.104 1.9125-1.0556 3.5082-2.1298 5.2531-2.8687 3.6573-1.5523 7.2028-3.3716 11.524-2.2291 19.64 5.1661 34.226 27.936 21.77 49.917-1.8442 3.2537-4.657 6.0665-5.5325 10.009 18.969 0.62093 24.968 12.953 24.713 27.799-0.0745 4.0671-2.0118 8.0783-0.37877 13.151 6.8489-11.139 8.3329-22.136 4.5142-33.878 9.0656-1.4964 15.958 1.1363 20.689 8.4384 4.57 7.0662 1.1177 13.605-1.5089 20.311-2.9494-0.59609-5.2903-2.8997-8.426-1.2791 11.823 8.5254 9.3015 19.131 3.4958 31.227 7.6126-5.3276 10.456-11.177 9.0097-18.702-0.98728-5.1724-1.1301-9.5561 2.1422-14.505 4.7253-7.1593 4.4086-15.374-0.1304-22.863-4.6011-7.5878-12.288-8.1466-20.075-7.8982-2.7818 0.0869-6.7557 2.0553-8.128 0.84447-5.576-4.955-12.425-5.7064-19.435-6.9358 1.1487-1.6951 1.9994-2.906 2.7818-4.1602 10.438-16.84 10.568-35.256-5.34-48.333-7.9727-6.5508-16.337-12.394-27.11-6.911-3.6759 1.8814-5.7064 0.73891-8.246-1.3474-20.249-16.635-54.238-3.8436-59.199 22.074zm75.306 137.39c10.705-2.9122 18.199-10.73 20.422-21.428 2.0118-9.6679-3.2661-17.212-12.145-22.204 9.8107-10.264 8.2894-19.435 3.1605-26.458-3.8063-5.2158-11.798-6.29-17.715-2.3099 9.6989 1.5772 15.523 6.0789 14.461 16.181-0.96244 9.1836-7.6188 14.021-15.343 19.019 4.1789 0.38497 6.526-1.2853 8.9166-2.6886 2.2229-1.304 3.974-0.88172 5.5387 1.0183 5.5884 6.7992 6.5756 14.673 3.235 22.353-3.3903 7.8113-10.14 11.928-18.895 12.388-4.6135 0.24216-8.7551-1.9932-13.325-2.0801 6.3707 5.1475 13.766 8.3639 21.689 6.2093zm-42.577-98.417c-14.623 2.2167-23.881 19.628-19.795 31.289 1.1922 3.4027 0.0621 5.1661-2.1236 7.3704-8.7986 8.8855-8.4322 21.012 0.95623 28.594 5.756 4.6508 12.673 4.7004 20.05 3.3096-8.575-2.8501-17.2-5.1786-20.217-15.368-3.2288-10.879 3.7939-17.107 9.6865-24.291-1.2791 0.49675-2.5644 0.99349-4.241 1.6393-1.8876-5.905-0.0807-10.916 2.5893-15.561 6.1969-10.792 15.082-15.033 28.221-9.1277-4.7812-6.4018-10.109-8.6123-15.126-7.8548z" clip-rule="evenodd" fill-rule="evenodd"/></g><g shape-rendering="auto"><path d="m57.336 218.87v114.61h28.57v-33.689h9.4121c31.047 0 51.525-17.011 51.525-42.773 0-23.946-17.505-38.148-46.736-38.148h-42.771zm103.21 0v114.61h28.57v-33.689h9.4141c31.047 0 51.525-17.011 51.525-42.773 0-23.946-17.505-38.148-46.736-38.148h-42.773zm92.646 0v25.104h35.342v89.508h28.074v-89.508h35.672v-25.104zm111.97 0v114.61h28.57v-33.689h9.4141c31.047 0 51.525-17.011 51.525-42.773 0-23.946-17.505-38.148-46.736-38.148h-42.773zm-279.26 25.104h11.891c11.56 0 19.322 6.2751 19.322 15.854 0 9.2482-6.4406 14.863-16.68 14.863h-14.533zm103.21 0h11.891c11.56 0 19.322 6.2751 19.322 15.854 0 9.2482-6.4406 14.863-16.68 14.863h-14.533zm204.62 0h11.891c11.56 0 19.322 6.2751 19.322 15.854 0 9.2482-6.4406 14.863-16.68 14.863h-14.533z" color="#000000" color-rendering="auto" dominant-baseline="auto" enable-background="accumulate" fill="#fff" image-rendering="auto" solid-color="#000000" stop-color="#000000" style="font-feature-settings:normal;font-variant-alternates:normal;font-variant-caps:normal;font-variant-east-asian:normal;font-variant-ligatures:normal;font-variant-numeric:normal;font-variant-position:normal;font-variation-settings:normal;inline-size:0;isolation:auto;mix-blend-mode:normal;shape-margin:0;shape-padding:0;text-decoration-color:#000000;text-decoration-line:none;text-decoration-style:solid;text-indent:0;text-orientation:mixed;text-transform:none;white-space:normal"/><path d="m32.336 193.87v164.61h78.57v-34.887c8.751-1.3556 17.052-3.9333 24.641-7.7715v42.658h78.568v-34.885c14.142-2.19 27.168-7.4767 37.791-16.297 4.4837-3.7228 8.3366-8.1596 11.627-13.014v64.197h78.074v-2e-3h77.125v-34.885c14.141-2.1902 27.167-7.4771 37.789-16.297 14.433-11.984 23.15-30.776 23.15-50.281 0-18.065-7.8121-36.185-21.615-47.434-13.803-11.248-31.457-15.715-50.121-15.715h-179.74v3.1328c-7.8982-2.1261-16.267-3.1328-24.873-3.1328h-67.771v6.8555c-10.787-4.7602-22.868-6.8555-35.439-6.8555h-42.771z" color="#000000" color-rendering="auto" dominant-baseline="auto" enable-background="accumulate" image-rendering="auto" solid-color="#000000" stop-color="#000000" style="font-feature-settings:normal;font-variant-alternates:normal;font-variant-caps:normal;font-variant-east-asian:normal;font-variant-ligatures:normal;font-variant-numeric:normal;font-variant-position:normal;font-variation-settings:normal;inline-size:0;isolation:auto;mix-blend-mode:normal;shape-margin:0;shape-padding:0;text-decoration-color:#000000;text-decoration-line:none;text-decoration-style:solid;text-indent:0;text-orientation:mixed;text-transform:none;white-space:normal"/></g><use transform="translate(0,20)" width="100%" height="100%" xlink:href="#d"/><path d="m56.836 227.5v0.5 115.11h29.57v-33.688h8.9121c15.615 0 28.616-4.2786 37.725-11.842s14.301-18.418 14.301-31.432c0-12.095-4.4462-21.804-12.592-28.441-8.1456-6.6378-19.948-10.207-34.645-10.207h-42.771-0.5zm103.21 0v0.5 115.11h29.568v-33.688h8.9141c15.615 0 28.616-4.2786 37.725-11.842 9.109-7.5632 14.301-18.418 14.301-31.432 0-12.095-4.4443-21.804-12.59-28.441-8.1456-6.6378-19.95-10.207-34.646-10.207h-42.771-0.5zm92.645 0v0.5 25.604h35.342v89.508h29.074v-89.508h35.672v-26.104h-100.09zm111.97 0v0.5 115.11h29.57v-33.688h8.9141c15.615 0 28.616-4.2786 37.725-11.842 9.109-7.5632 14.301-18.418 14.301-31.432 0-12.095-4.4462-21.804-12.592-28.441-8.1456-6.6378-19.948-10.207-34.645-10.207h-42.773-0.5zm-278.26 26.104h11.391c5.6895 0 10.403 1.5454 13.68 4.2226 3.2768 2.6773 5.1426 6.4765 5.1426 11.131 0 4.508-1.5527 8.0638-4.332 10.525-2.7793 2.4616-6.8194 3.8379-11.848 3.8379h-14.033v-29.717zm103.21 0h11.393c5.6895 0 10.403 1.5454 13.68 4.2226 3.2768 2.6773 5.1406 6.4765 5.1406 11.131 0 4.508-1.5508 8.0638-4.3301 10.525-2.7793 2.4616-6.8213 3.8379-11.85 3.8379h-14.033v-29.717zm204.62 0h11.391c5.6895 0 10.403 1.5454 13.68 4.2226 3.2768 2.6773 5.1426 6.4765 5.1426 11.131 0 4.508-1.5527 8.0638-4.332 10.525-2.7793 2.4616-6.8194 3.8379-11.848 3.8379h-14.033v-29.717z" color="#000000" color-rendering="auto" dominant-baseline="auto" enable-background="accumulate" image-rendering="auto" opacity=".3" shape-rendering="auto" solid-color="#000000" stop-color="#000000" style="font-feature-settings:normal;font-variant-alternates:normal;font-variant-caps:normal;font-variant-east-asian:normal;font-variant-ligatures:normal;font-variant-numeric:normal;font-variant-position:normal;font-variation-settings:normal;inline-size:0;isolation:auto;mix-blend-mode:normal;shape-margin:0;shape-padding:0;text-decoration-color:#000000;text-decoration-line:none;text-decoration-style:solid;text-indent:0;text-orientation:mixed;text-transform:none;white-space:normal"/><path id="d" d="m57.336 208v114.61h28.57v-33.689h9.4121c31.047 0 51.525-17.011 51.525-42.773 0-23.946-17.505-38.148-46.736-38.148h-42.771zm103.21 0v114.61h28.57v-33.689h9.4141c31.047 0 51.525-17.011 51.525-42.773 0-23.946-17.505-38.148-46.736-38.148h-42.773zm92.646 0v25.104h35.342v89.508h28.074v-89.508h35.672v-25.104zm111.97 0v114.61h28.57v-33.689h9.4141c31.047 0 51.525-17.011 51.525-42.773 0-23.946-17.505-38.148-46.736-38.148h-42.773zm-279.26 25.104h11.891c11.56 0 19.322 6.2751 19.322 15.854 0 9.2482-6.4406 14.863-16.68 14.863h-14.533zm103.21 0h11.891c11.56 0 19.322 6.2751 19.322 15.854 0 9.2482-6.4406 14.863-16.68 14.863h-14.533zm204.62 0h11.891c11.56 0 19.322 6.2751 19.322 15.854 0 9.2482-6.4406 14.863-16.68 14.863h-14.533z" fill="url(#c)"/></svg>
