<svg xmlns="http://www.w3.org/2000/svg" xmlns:xlink="http://www.w3.org/1999/xlink" width="36pt" height="36pt" version="1.1" viewBox="0 0 36 36"> <defs> <filter id="alpha" width="100%" height="100%" x="0%" y="0%" filterUnits="objectBoundingBox"> <feColorMatrix in="SourceGraphic" type="matrix" values="0 0 0 0 1 0 0 0 0 1 0 0 0 0 1 0 0 0 1 0"/> </filter> <clipPath id="clip4-2"> <rect width="36" height="36" x="0" y="0"/> </clipPath> <g id="surface14-9" clip-path="url(#clip4-2)"> <path style="fill:rgb(0%,0%,0%)" d="M 18 8.765625 L 15.515625 11.25 L 12 11.25 L 12 14.765625 L 9.515625 17.25 L 12 19.734375 L 12 23.25 L 15.515625 23.25 L 18 25.734375 L 20.484375 23.25 L 24 23.25 L 24 19.734375 L 26.484375 17.25 L 24 14.761719 L 24 11.25 L 20.484375 11.25 L 18 8.761719 Z M 18 8.765625"/> </g> <linearGradient id="linear0" x1="32.987" x2="763.265" y1="976.668" y2="390.876" gradientTransform="matrix(0.714496,0,0,0.527311,9.089072,-260.11848)" gradientUnits="userSpaceOnUse"> <stop style="stop-color:rgb(23.137%,54.509%,72.156%)" offset="0"/> <stop style="stop-color:rgb(72.156%,9.019%,29.803%);stop-opacity:0.996078" offset="1"/> </linearGradient> <filter id="alpha-3" width="100%" height="100%" x="0%" y="0%" filterUnits="objectBoundingBox"> <feColorMatrix in="SourceGraphic" type="matrix" values="0 0 0 0 1 0 0 0 0 1 0 0 0 0 1 0 0 0 1 0"/> </filter> <mask id="mask0-6"> <g style="filter:url(#alpha-3)" filter="url(#alpha)"> <rect style="fill:rgb(0%,0%,0%);fill-opacity:0.301961" width="384" height="384" x="0" y="0"/> </g> </mask> <clipPath id="clip1-7"> <rect width="384" height="384" x="0" y="0"/> </clipPath> <g id="surface5-5" clip-path="url(#clip1-7)"> <path d="M 223.097656 233.070312 L 208.242188 233.070312 L 208.242188 248.867188 L 223.097656 248.867188 Z M 200.8125 233.070312 L 185.957031 233.070312 L 185.957031 248.867188 L 200.8125 248.867188 Z M 178.53125 233.070312 L 163.675781 233.070312 L 163.675781 248.867188 L 178.53125 248.867188 Z M 178.53125 233.070312" style="fill:rgb(0%,0%,0%)"/> </g> <mask id="mask3-6"> <g style="filter:url(#alpha-1)"> <rect width="36" height="36" x="0" y="0" style="fill-opacity:0.2"/> </g> </mask> <filter id="alpha-1" width="1" height="1" x="0" y="0" filterUnits="objectBoundingBox"> <feColorMatrix in="SourceGraphic" type="matrix" values="0 0 0 0 1 0 0 0 0 1 0 0 0 0 1 0 0 0 1 0"/> </filter> </defs> <g transform="translate(19.525424,47.288136)"> <g transform="translate(-23.77463,-11.20359)"> <g transform="matrix(0.08511959,0,0,0.08511959,5.9059124,-34.427507)"> <path d="m 158.17578,263.76562 h 67.65234 v 54.72266 h -67.65234 z m 0,0" style="fill:rgb(15.294%,16.470%,20.392%)"/> <path d="m 158.07422,264.17187 h 67.85156 v 54.16797 z m 0,0" style="fill:rgb(9.803%,9.803%,9.803%)"/> <path d="M 23.996094,55.28125 H 360.00781 c 4.53906,0 8.21875,3.464844 8.21875,7.742188 V 256.60156 c 0,4.27735 -3.67969,7.7461 -8.21875,7.7461 H 23.996094 c -4.535156,0 -8.214844,-3.46875 -8.214844,-7.7461 V 63.023438 c 0,-4.277344 3.679688,-7.742188 8.214844,-7.742188 z m 0,0"/> <path d="M 31.472656,64.058594 H 352.53906 c 4.07031,0 7.3711,3.316406 7.3711,7.40625 V 248.16406 c 0,4.08985 -3.30079,7.40625 -7.3711,7.40625 H 31.472656 c -4.074218,0 -7.375,-3.3164 -7.375,-7.40625 V 71.464844 c 0,-4.089844 3.300782,-7.40625 7.375,-7.40625 z m 0,0" style="opacity:0.75;fill:url(#linear0)"/> <path d="m 132.19531,317.35937 h 119.60156 c 2.57813,0 4.66407,1.96875 4.66407,4.39844 v 2.56641 c 0,2.42578 -2.08594,4.39453 -4.66407,4.39453 H 132.19531 c -2.57812,0 -4.66406,-1.96875 -4.66406,-4.39453 v -2.56641 c 0,-2.42969 2.08594,-4.39844 4.66406,-4.39844 z m 0,0" style="fill:rgb(9.803%,9.803%,9.803%)"/> <use width="100%" height="100%" x="0" y="0" mask="url(#mask0-6)" xlink:href="#surface5-5"/> <path d="m 220.32422,230.29687 h -14.85547 v 15.79688 h 14.85547 z m -22.28125,0 H 183.1875 v 15.79688 h 14.85547 z m -22.28516,0 h -14.85547 v 15.79688 h 14.85547 z m 0,0" style="fill:rgb(100.000%,100.000%,100.000%)"/> </g> <g transform="translate(-0.16231207,0.13949159)"> <use width="100%" height="100%" x="0" y="0" mask="url(#mask3-6)" transform="matrix(0.6590973,0,0,0.6590973,10.547767,-32.810509)" xlink:href="#surface14-9"/> </g> </g> <path style="fill:rgb(100.000%,100.000%,100.000%)" d="m -1.5254145,-38.591522 -1.637437,1.637437 h -2.317127 v 2.317127 l -1.637436,1.637436 1.637436,1.637437 v 2.317127 h 2.317127 l 1.637437,1.637436 1.63743643,-1.637436 H 2.4291491 v -2.317127 l 1.6374359,-1.637437 -1.6374359,-1.637436 v -2.317127 H 0.11202193 Z m 1.48296123,3.027713 c 0.8856575,0.512343 1.48296137,1.467514 1.48296137,2.564287 0,1.096774 -0.59730387,2.051945 -1.48296137,2.564288 z m 0,0"/> </g> </svg>
