<svg width="36pt" height="36pt" version="1.1" viewBox="0 0 36 36" xmlns="http://www.w3.org/2000/svg"><defs><filter id="a" x="-.192" y="-.192" width="1.384" height="1.384" color-interpolation-filters="sRGB"><feGaussianBlur stdDeviation="0.67843748"/></filter></defs><path d="m7.3477 3.9022c-0.67188 0-1.3047 0.63281-1.3047 1.3047v27.391c0 0.63281 0.67188 1.3047 1.3047 1.3047h20.871c0.63281 0 1.3047-0.67188 1.3047-1.3047v-20.215l-8.4805-8.4805z" opacity=".1"/><path d="m7.3477 3.1523c-0.67188 0-1.3047 0.63281-1.3047 1.3047v27.391c0 0.63281 0.67188 1.3047 1.3047 1.3047h20.871c0.63281 0 1.3047-0.67188 1.3047-1.3047v-20.215l-8.4805-8.4805z" fill="#d31818"/><path d="m20.668 3.5272 8.4805 8.4805h-7.1758c-0.63281 0-1.3047-0.67187-1.3047-1.3047z" filter="url(#a)" opacity=".2"/><path d="m21.043 3.1523 8.4805 8.4805h-7.1758c-0.63281 0-1.3047-0.67187-1.3047-1.3047z" fill="#e05d5d"/><path d="m11.582 13.507c-0.31884 0.03593-0.33232 0.18861-0.33232 0.74996v2.2499h13.499v-2.2499c0-0.74996 0-0.74996-0.74996-0.74996h-12c-0.18413 0-0.31436-9e-3 -0.42214 0zm-0.33232 3.7498v8.9951c0 0.74548 0 0.74548 0.74996 0.74548h12c0.74996 0 0.74996 0 0.74996-0.74548v-8.9951zm9.1883 1.5c0.4895 0 0.92062 0.12125 1.2889 0.35029 0.36824 0.22903 0.64668 0.54788 0.83979 0.98349 0.1976 0.43112 0.30537 0.94757 0.30537 1.5449 0 1.2978-0.26946 2.2679-0.81733 2.9055-0.55237 0.6377-1.3921 0.96104-2.5104 0.96104-0.3907 0-0.6871-0.03144-0.88919-0.07185v-1.1003c0.25598 0.06287 0.51645 0.09431 0.79488 0.09431 0.47154 0 0.84877-0.07634 1.1497-0.21106 0.30537-0.13921 0.5434-0.34131 0.70506-0.6332 0.15718-0.29191 0.25598-0.70506 0.27843-1.217h-0.06736c-0.17963 0.28292-0.38172 0.47154-0.61075 0.5838-0.22903 0.11676-0.49848 0.18861-0.84428 0.18861-0.57932 0-1.0509-0.1976-1.3831-0.56135-0.33232-0.36824-0.4895-0.87122-0.4895-1.5224 0-0.70506 0.20658-1.2799 0.60626-1.6886 0.40867-0.40867 0.94307-0.60626 1.6437-0.60626zm-5.1779 0.06736h1.1676v6.5836h-1.4057v-4.428l0.02695-0.67811c-0.23352 0.22903-0.40417 0.37274-0.49399 0.44459l-0.74996 0.61075-0.67811-0.84428zm5.0118 1.0553c-0.19311 0.03593-0.36824 0.13473-0.4895 0.28292-0.16616 0.1976-0.23801 0.49399-0.23801 0.86674 0 0.31436 0.06287 0.56135 0.21106 0.74548 0.1482 0.18861 0.37722 0.28292 0.68261 0.28292 0.28292 0 0.52093-0.0988 0.72303-0.28292 0.20658-0.18413 0.30537-0.3907 0.30537-0.62872 0-0.35927-0.08982-0.66913-0.27844-0.91614-0.18861-0.24699-0.43561-0.35029-0.72751-0.35029-0.07185 0-0.12125-0.01347-0.18861 0z" fill="#fff" stroke-width="1.1496"/></svg>
