<svg width="36pt" height="36pt" version="1.1" viewBox="0 0 36 36" xmlns="http://www.w3.org/2000/svg"><defs><filter id="a" x="-.192" y="-.192" width="1.384" height="1.384" color-interpolation-filters="sRGB"><feGaussianBlur stdDeviation="0.67843748"/></filter></defs><path d="m7.3477 3.9022c-0.67188 0-1.3047 0.63281-1.3047 1.3047v27.391c0 0.63281 0.67188 1.3047 1.3047 1.3047h20.871c0.63281 0 1.3047-0.67188 1.3047-1.3047v-20.215l-8.4805-8.4805z" opacity=".15"/><path d="m7.3477 3.1523c-0.67188 0-1.3047 0.63281-1.3047 1.3047v27.391c0 0.63281 0.67188 1.3047 1.3047 1.3047h20.871c0.63281 0 1.3047-0.67188 1.3047-1.3047v-20.215l-8.4805-8.4805z" fill="#e5e5e5"/><path d="m20.668 3.5272 8.4805 8.4805h-7.1758c-0.63281 0-1.3047-0.67187-1.3047-1.3047z" filter="url(#a)" opacity=".2"/><path d="m21.043 3.1523 8.4805 8.4805h-7.1758c-0.63281 0-1.3047-0.67187-1.3047-1.3047z" fill="#fff"/><g transform="matrix(.1036 0 0 .1036 1.5579 4.0983)" enable-background="new" fill="#999"><path d="m207.27 108.16h-6.82v6.4053h6.82c0.37232 0 0.61492 0.0296 0.76105 0.0615 0.0133 0.0954 0.0251 0.23211 0.0251 0.41798v26.577c0 1.1966-0.47601 2.1678-0.78625 2.1678h-49.688c-5.0054 0-8.7797 3.0818-8.7797 7.1688v4.0405h6.4017l-5e-3 -4.0261c0.11294-0.21439 1.0173-0.77783 2.3824-0.77783h49.688c4.167 0 7.1916-3.6054 7.1916-8.5731v-26.577c7.9e-4 -4.3108-2.6878-6.8845-7.1908-6.8845z" stroke-width="4.9175"/><path d="m110.22 90.746c-4.0312 0-7.2754 3.2442-7.2754 7.2754v24.896c0 4.0312 3.2442 7.2754 7.2754 7.2754h83.047c4.019 0 7.2559-3.2442 7.2559-7.2754v-24.896c0-4.0312-3.2369-7.2754-7.2559-7.2754h-53.895z" stroke-width=".4978"/><path d="m145.67 154.92a2.7207 2.7207 0 0 0-2.5859 1.875l-5.3262 16.305a9.2459 9.2459 0 0 0-0.45703 2.8711v42.68a2.3987 2.3987 0 0 0 2.3984 2.3984h24.547a2.3251 2.3251 0 0 0 2.3242-2.3242v-42.631a10.024 10.024 0 0 0-0.49609-3.1133l-5.2539-16.084a2.8673 2.8673 0 0 0-2.7266-1.9766h-8.2461z" stroke-width=".50018"/></g></svg>
