<svg width="36pt" height="36pt" version="1.1" viewBox="0 0 36 36" xmlns="http://www.w3.org/2000/svg"><defs><filter id="a" x="-.192" y="-.192" width="1.384" height="1.384" color-interpolation-filters="sRGB"><feGaussianBlur stdDeviation="0.67843748"/></filter></defs><path d="m7.3477 3.9022c-0.67188 0-1.3047 0.63281-1.3047 1.3047v27.391c0 0.63281 0.67188 1.3047 1.3047 1.3047h20.871c0.63281 0 1.3047-0.67188 1.3047-1.3047v-20.215l-8.4805-8.4805z" opacity=".1"/><path d="m7.3477 3.1523c-0.67188 0-1.3047 0.63281-1.3047 1.3047v27.391c0 0.63281 0.67188 1.3047 1.3047 1.3047h20.871c0.63281 0 1.3047-0.67188 1.3047-1.3047v-20.215l-8.4805-8.4805z" fill="#1a3e7b"/><path d="m20.668 3.5272 8.4805 8.4805h-7.1758c-0.63281 0-1.3047-0.67187-1.3047-1.3047z" filter="url(#a)" opacity=".2"/><path d="m21.043 3.1523 8.4805 8.4805h-7.1758c-0.63281 0-1.3047-0.67187-1.3047-1.3047z" fill="#5a729c"/><path d="m15.75 14.25c-1.5001 9e-3 -2.2507 0.0219-3.7507 0.0219v3.7272c0 0.75003-5.57e-4 1.5006 0.74947 1.5006 0.75003 0 0.75116-0.75058 0.75116-1.5006v-2.2501h2.2501c0.75003 0 1.4989 5.57e-4 1.4989-0.74947s-0.74889-0.74947-1.4989-0.74947zm4.5002 0c-0.75005 0-1.4989-5.57e-4 -1.4989 0.74947s0.74892 0.74947 1.4989 0.74947h2.2501v2.2501c0 0.75005 0.0011 1.5006 0.75116 1.5006 0.75003 0 0.74947-0.7506 0.74947-1.5006v-3.7272c-1.5001 0-2.2507-0.01291-3.7507-0.0219zm-7.4998 6.7503c-0.75003 0-0.74947 0.74889-0.74947 1.4989 9e-3 1.5001 0.02189 2.2507 0.02189 3.7507h3.7272c0.75003 0 1.5006 5.57e-4 1.5006-0.74947 0-0.75003-0.75058-0.75116-1.5006-0.75116h-2.2501v-2.2501c0-0.75003 5.57e-4 -1.4989-0.74947-1.4989zm10.499 0c-0.75003 0-0.74947 0.74892-0.74947 1.4989v2.2501h-2.2501c-0.75005 0-1.5006 0.0011-1.5006 0.75116 0 0.75003 0.7506 0.74947 1.5006 0.74947h3.7272c0-1.5001 0.01291-2.2507 0.02189-3.7507 0-0.75005 5.57e-4 -1.4989-0.74947-1.4989z" fill="#fff" stroke-width="1.1498"/></svg>
