<svg xmlns="http://www.w3.org/2000/svg" style="enable-background:new" width="16" height="16" version="1.1">
 <g transform="translate(-484.99997,-20.965446)">
  <path style="fill:#555555" d="m 487.90645,22 c -0.49829,0.0427 -0.8373,0.47989 -0.9375,0.9375 -0.29175,0.89152 -0.5919,1.79344 -0.875,2.6875 l -0.0937,0.375 0,8 c 0,0.554 0.446,1 1,1 l 12,0 c 0.554,0 1,-0.446 1,-1 l 0,-8 -0.125,-0.46875 c -0.33823,-0.98973 -0.64265,-2.01775 -1,-3 C 498.66122,22.09312 498.17335,21.95448 497.71895,22 Z m 0.81836,2 8.5332,0 c 0.10804,0.32301 0.22204,0.66784 0.33203,1 l -9.1914,0 c 0.10875,-0.33377 0.21582,-0.66405 0.32617,-1 z m 3.27539,3 2,0 0,3 1.75,0 -2.75,3 -2.75,-3 1.75,0 z"/>
 </g>
</svg>
