<svg width="36pt" height="36pt" version="1.1" viewBox="0 0 36 36" xmlns="http://www.w3.org/2000/svg"><defs><filter id="a" x="-.192" y="-.192" width="1.384" height="1.384" color-interpolation-filters="sRGB"><feGaussianBlur stdDeviation="0.67843748"/></filter></defs><path d="m7.3477 3.9022c-0.67188 0-1.3047 0.63281-1.3047 1.3047v27.391c0 0.63281 0.67188 1.3047 1.3047 1.3047h20.871c0.63281 0 1.3047-0.67188 1.3047-1.3047v-20.215l-8.4805-8.4805z" opacity=".15"/><path d="m7.3477 3.1523c-0.67188 0-1.3047 0.63281-1.3047 1.3047v27.391c0 0.63281 0.67188 1.3047 1.3047 1.3047h20.871c0.63281 0 1.3047-0.67188 1.3047-1.3047v-20.215l-8.4805-8.4805z" fill="#e6e6e6"/><path d="m20.668 3.5272 8.4805 8.4805h-7.1758c-0.63281 0-1.3047-0.67187-1.3047-1.3047z" filter="url(#a)" opacity=".2"/><path d="m21.043 3.1523 8.4805 8.4805h-7.1758c-0.63281 0-1.3047-0.67187-1.3047-1.3047z" fill="#fff"/><path d="m17.185 26.211c-0.10393-0.04494-0.21628-0.16572-0.26684-0.2865-0.02528-0.0618-0.05056-0.29774-0.07303-0.67694-0.01686-0.32021-0.04213-0.60671-0.05337-0.64042-0.01686-0.03933-0.08988-0.07865-0.27246-0.14325-0.13763-0.04775-0.34549-0.13483-0.46346-0.19381-0.11516-0.05898-0.23594-0.10674-0.26684-0.10674-0.0337 0-0.22471 0.15449-0.49436 0.40167-0.24156 0.2219-0.47751 0.42414-0.52526 0.44942-0.09831 0.05056-0.32021 0.05899-0.43537 0.01404-0.08988-0.0337-1.0477-0.97748-1.1095-1.0955-0.0618-0.11516-0.05618-0.32864 0.01404-0.46065 0.0309-0.05899 0.23314-0.30055 0.44942-0.53649 0.23314-0.2528 0.39605-0.44942 0.39605-0.48032 0-0.0309-0.04775-0.14887-0.10674-0.26684-0.05898-0.11516-0.14606-0.32302-0.19381-0.46065-0.04775-0.13763-0.10674-0.25842-0.13202-0.27246-0.02247-0.01124-0.30617-0.03651-0.62638-0.05337-0.37077-0.02247-0.62357-0.04775-0.6966-0.07303-0.13763-0.05056-0.29774-0.21909-0.32021-0.33987-0.0084-0.05056-0.01124-0.41571-0.0056-0.81457l0.0056-0.72188 0.08427-0.10393c0.14606-0.18258 0.21628-0.20224 0.91569-0.24437 0.39886-0.02528 0.64042-0.05056 0.66008-0.07022 0.01685-0.01966 0.07584-0.15449 0.13202-0.30336 0.05337-0.14887 0.14044-0.35392 0.191-0.45504 0.05056-0.09831 0.09269-0.20224 0.09269-0.23033 0-0.02528-0.16572-0.23033-0.37077-0.45223-0.20224-0.2219-0.39605-0.44099-0.42976-0.48874-0.09831-0.1264-0.12921-0.2837-0.09269-0.43818 0.0309-0.11797 0.08427-0.18258 0.52245-0.62919 0.26965-0.27246 0.53649-0.51964 0.59267-0.54773 0.12921-0.0646 0.33145-0.06741 0.46065-0.0028 0.05337 0.02809 0.2865 0.22752 0.52245 0.44099 0.23314 0.21628 0.44099 0.39886 0.46065 0.41009 0.01966 0.01124 0.14606-0.0309 0.30055-0.10393 0.14325-0.07022 0.36234-0.1601 0.48312-0.19943 0.16291-0.05618 0.22752-0.08988 0.24999-0.13763 0.01685-0.03651 0.04494-0.32864 0.0618-0.64885 0.03651-0.61514 0.05618-0.71345 0.18538-0.84547 0.14044-0.14887 0.2219-0.1601 1.0112-0.15168l0.71907 0.0084 0.11516 0.07303c0.19381 0.12921 0.21628 0.21066 0.26122 0.89603 0.02247 0.33145 0.04775 0.62918 0.05337 0.66008 0.01124 0.04494 0.07023 0.07584 0.26403 0.14325 0.13482 0.04775 0.35672 0.14325 0.48593 0.20786 0.13202 0.0646 0.24999 0.12078 0.26122 0.12078 0.01404 0 0.22471-0.18538 0.46908-0.41009s0.49155-0.42976 0.54492-0.46065c0.13202-0.06741 0.32583-0.06741 0.46908 0.0028 0.06741 0.0337 0.29774 0.24156 0.58705 0.53368 0.49717 0.50279 0.53649 0.56177 0.53649 0.78929 0.0028 0.16011-0.07023 0.26403-0.49717 0.73311-0.23314 0.25561-0.42414 0.4747-0.42414 0.48874 0 0.01124 0.0618 0.14887 0.13482 0.30336 0.07584 0.15449 0.16291 0.37077 0.19662 0.48032 0.04213 0.13763 0.07865 0.20786 0.11797 0.22471 0.02809 0.01124 0.32864 0.03933 0.6657 0.0618 0.6657 0.03933 0.77525 0.06741 0.8876 0.22471 0.10393 0.14887 0.11797 0.26122 0.10674 0.98872l-0.0084 0.69379-0.08146 0.11797c-0.14606 0.20786-0.18258 0.21628-0.92412 0.26684-0.35954 0.02247-0.66289 0.04775-0.67132 0.05618-0.0084 0.0084-0.05337 0.12359-0.09831 0.25561-0.04775 0.13482-0.14044 0.35111-0.20786 0.48312-0.0646 0.13202-0.11516 0.25561-0.11235 0.27527 0.0056 0.01966 0.18538 0.23033 0.40167 0.46627 0.21628 0.23594 0.42133 0.48032 0.45504 0.54773 0.07022 0.14044 0.07584 0.28931 0.01966 0.42976-0.05337 0.12359-0.93254 1.0196-1.0758 1.0926-0.12078 0.0618-0.33706 0.06741-0.46346 0.01404-0.04775-0.01966-0.28931-0.2219-0.53368-0.44661-0.24718-0.22471-0.46627-0.41009-0.49155-0.41009-0.02247 0-0.16291 0.05618-0.30617 0.12359-0.14606 0.06741-0.36234 0.15449-0.48032 0.19381-0.16291 0.05337-0.21628 0.08427-0.22752 0.12921-0.0084 0.0309-0.0309 0.32583-0.05337 0.65727-0.04775 0.7303-0.07584 0.81176-0.33144 0.93816-0.07303 0.03933-0.19381 0.04494-0.81176 0.04494-0.54773-0.0028-0.74716-0.01124-0.80895-0.03933zm1.0702-3.2414c0.65727-0.06741 1.205-0.32864 1.6713-0.79491 0.35392-0.35673 0.58424-0.75558 0.72188-1.2584 0.08708-0.31459 0.08427-1.0112-0.0028-1.3314-0.26403-0.96625-0.95501-1.6797-1.9156-1.969-0.2219-0.06741-0.28369-0.07303-0.71626-0.07584-0.41571-0.0028-0.50279 0.0056-0.70502 0.0618-1.0084 0.27527-1.7808 1.0842-1.9915 2.0898-0.18819 0.90445 0.08708 1.8258 0.74716 2.4887 0.34549 0.3483 0.79491 0.6039 1.278 0.7275 0.14044 0.03652 0.33706 0.0646 0.61514 0.08707 0.02247 0 0.1573-0.0084 0.29774-0.02528zm-0.67132-1.1348c-0.69098-0.18819-1.1741-0.77525-1.2162-1.4803-0.0309-0.49436 0.12921-0.91007 0.47751-1.2584 0.63761-0.6348 1.6572-0.64042 2.2864-0.01404 0.51683 0.51683 0.64323 1.2528 0.32021 1.896-0.27527 0.55054-0.77805 0.87636-1.3988 0.89884-0.21066 0.0084-0.31459 0-0.46908-0.04213zm0.77244-0.68255c0.191-0.07303 0.41852-0.2837 0.51683-0.48032 0.13483-0.31459 0.0618-0.60952-0.01966-0.86513-0.17696-0.32864-0.44099-0.49436-0.81457-0.51402-0.29774-0.01685-0.47751 0.04775-0.69379 0.24437-0.27527 0.2528-0.38481 0.6011-0.29493 0.94378 0.07584 0.29774 0.23594 0.49998 0.5084 0.63761 0.2528 0.12921 0.51402 0.13763 0.79772 0.0337z" fill="#999" stroke-width=".71907"/></svg>
