<svg width="36pt" height="36pt" version="1.1" viewBox="0 0 36 36" xmlns="http://www.w3.org/2000/svg"><defs><filter id="a" x="-.192" y="-.192" width="1.384" height="1.384" color-interpolation-filters="sRGB"><feGaussianBlur stdDeviation="0.67843748"/></filter></defs><path d="m7.3477 3.1523c-0.67188 0-1.3047 0.63281-1.3047 1.3047v27.391c0 0.63281 0.67188 1.3047 1.3047 1.3047h20.871c0.63281 0 1.3047-0.67188 1.3047-1.3047v-20.215l-8.4805-8.4805z" fill="#d31818"/><path d="m20.668 3.5272 8.4805 8.4805h-7.1758c-0.63281 0-1.3047-0.67187-1.3047-1.3047z" filter="url(#a)" opacity=".2"/><path d="m21.043 3.1523 8.4805 8.4805h-7.1758c-0.63281 0-1.3047-0.67187-1.3047-1.3047z" fill="#e05d5d"/><path d="m15.098 11.074c-0.76562-0.015625-1.4297 0.75-1.2656 1.5117 0.10938 1.1641 0.85938 2.1133 1.4453 3.0742 0.066406 0.35938-0.12109 0.70703-0.13281 1.0625-0.38281 2.0938-0.96875 4.1719-1.8633 6.0898-1.1133 0.50781-2.3711 1.0156-3.0195 2.1172-0.41406 0.76562 0.16797 1.7969 1.0195 1.8789 0.78906 0.10547 1.3789-0.57031 1.8086-1.1367 0.45312-0.61328 0.75-1.3398 1.125-1.9961 2.2734-0.91406 4.6641-1.5547 7.1055-1.7969 0.98438 0.70703 2.0312 1.5391 3.2969 1.5898 0.73437-0.011719 1.332-0.72656 1.25-1.4531-0.046876-0.66016-0.63281-1.1211-1.2422-1.2461-0.98047-0.29297-2.0273-0.13281-3.0273-0.125-1.918-1.5352-3.6875-3.2969-5.082-5.3164 0.10156-1.2266 0.30859-2.582-0.32812-3.6992-0.24219-0.35156-0.65625-0.59375-1.0898-0.55469m0.039063 1.1133c0.21484 0.042969 0.23047 0.36328 0.28906 0.53516 0.058594 0.35156 0.050781 0.70703 0.046875 1.0625-0.25781-0.48047-0.58984-0.98438-0.53125-1.5547 0.066406 0 0.12891-0.035157 0.19531-0.042969m1.1914 4.7852c1.1406 1.4219 2.4141 2.7305 3.7969 3.918-1.8281 0.27734-3.6406 0.74609-5.3828 1.375 0.66797-1.7422 1.1758-3.543 1.5117-5.3828 0.023438 0.03125 0.046875 0.058594 0.074219 0.089844m7.1328 4.7773c0.44141 0.042969 0.95312 0.019531 1.3086 0.32422 0.03125 0.27734-0.30469 0.31641-0.48438 0.21484-0.375-0.125-0.74609-0.28125-1.0625-0.51953 0.078125-0.007812 0.15625-0.015625 0.23828-0.019531m-11.082 2.9023c-0.21094 0.39062-0.51562 0.76172-0.83594 1.0391-0.10547 0.17188-0.39844-0.14453-0.26562-0.28125 0.27734-0.43359 0.76172-0.66406 1.1914-0.92578-0.027344 0.058594-0.058594 0.11328-0.089844 0.16797" fill="#fff"/></svg>
