<svg width="36pt" height="36pt" version="1.1" viewBox="0 0 36 36" xmlns="http://www.w3.org/2000/svg"><defs><filter id="a" x="-.192" y="-.192" width="1.384" height="1.384" color-interpolation-filters="sRGB"><feGaussianBlur stdDeviation="0.67843748"/></filter></defs><path d="m7.3477 3.1523c-0.67188 0-1.3047 0.63281-1.3047 1.3047v27.391c0 0.63281 0.67188 1.3047 1.3047 1.3047h20.871c0.63281 0 1.3047-0.67188 1.3047-1.3047v-20.215l-8.4805-8.4805z" fill="#e5e5e5"/><path d="m20.668 3.5272 8.4805 8.4805h-7.1758c-0.63281 0-1.3047-0.67187-1.3047-1.3047z" filter="url(#a)" opacity=".2"/><path d="m21.043 3.1523 8.4805 8.4805h-7.1758c-0.63281 0-1.3047-0.67187-1.3047-1.3047z" fill="#fff"/><path d="m18 12.188c-4.2695 0-7.75 3.4688-7.75 7.75s3.4805 7.75 7.75 7.75 7.75-3.4688 7.75-7.75-3.4805-7.75-7.75-7.75zm0 0.97656c3.7617 0 6.793 3.0352 6.793 6.7734s-3.0312 6.7734-6.793 6.7734-6.793-3.0352-6.793-6.7734 3.0312-6.7734 6.793-6.7734zm0.21875 0.96875c-0.54688 0-1.0938 0.20703-1.5117 0.625l-3.8906 3.8867c-0.83984 0.83594-0.83984 2.1836 0 3.0234 0.83984 0.83594 2.1875 0.83594 3.0273 0l3.8867-3.8867c0.83984-0.83984 0.83984-2.1836 0-3.0234-0.41797-0.41797-0.96484-0.625-1.5117-0.625zm0 0.30469c0.46875 0 0.94141 0.17969 1.2969 0.53516 0.71875 0.71875 0.71875 1.8789 0 2.5938s-1.8789 0.71484-2.5938 0-0.71484-1.875 0-2.5938c0.35938-0.35547 0.82812-0.53516 1.2969-0.53516zm3.457 3.1445c-0.54688 0-1.0938 0.21094-1.5117 0.62891l-3.8906 3.8867c-0.83984 0.83594-0.83984 2.1836 0 3.0195 0.83984 0.83594 2.1875 0.83594 3.0273 0l3.8906-3.8828c0.83594-0.83984 0.83594-2.1875 0-3.0234-0.42188-0.41797-0.96875-0.62891-1.5156-0.62891zm0 0.30859c0.47266 0 0.94141 0.17969 1.3008 0.53516 0.71484 0.72266 0.71484 1.875 0 2.5938-0.71875 0.71484-1.8789 0.71484-2.5938 0-0.71875-0.72266-0.71875-1.875 0-2.5938 0.35547-0.35547 0.82422-0.53516 1.293-0.53516zm-7.3477 0.43359c0.47266 0 0.94141 0.17969 1.3008 0.53516 0.71484 0.71484 0.71484 1.875 0 2.5938-0.72266 0.71484-1.8828 0.71484-2.5938 0-0.71875-0.71875-0.71875-1.875 0-2.5938 0.35547-0.35547 0.82422-0.53516 1.293-0.53516zm3.4609 3.4492c0.46875 0 0.93359 0.17969 1.293 0.53906 0.71484 0.71484 0.71484 1.875 0 2.5898-0.71484 0.72266-1.8789 0.72266-2.5898 0-0.71875-0.71094-0.71875-1.8711 0-2.5898 0.35547-0.35938 0.82812-0.53906 1.2969-0.53906z" fill="#fff"/></svg>
