<svg xmlns="http://www.w3.org/2000/svg" xmlns:xlink="http://www.w3.org/1999/xlink" width="36pt" height="36pt" version="1.1" viewBox="0 0 36 36"> <defs> <clipPath id="clip1"> <path d="M 20 2 L 31 2 L 31 13 L 20 13 Z M 20 2"/> </clipPath> <clipPath id="clip2"> <path d="M 20.515625 2.625 L 30.328125 12.4375 L 22.023438 12.4375 C 21.292969 12.4375 20.515625 11.660156 20.515625 10.929688 Z M 20.515625 2.625"/> </clipPath> <filter id="a" x="-.192" y="-.192" width="1.384" height="1.384" color-interpolation-filters="sRGB"><feGaussianBlur stdDeviation="0.67843748"/></filter> </defs><path d="m7.3477 3.9022c-0.67188 0-1.3047 0.63281-1.3047 1.3047v27.391c0 0.63281 0.67188 1.3047 1.3047 1.3047h20.871c0.63281 0 1.3047-0.67188 1.3047-1.3047v-20.215l-8.4805-8.4805z" opacity=".3"/> <g> <path style="fill:rgb(90.196%,90.196%,90.196%)" d="M 7.347656 3.152344 C 6.675781 3.152344 6.042969 3.785156 6.042969 4.457031 L 6.042969 31.847656 C 6.042969 32.480469 6.714844 33.152344 7.347656 33.152344 L 28.21875 33.152344 C 28.851562 33.152344 29.523438 32.480469 29.523438 31.847656 L 29.523438 11.632812 L 21.042969 3.152344 Z M 7.347656 3.152344"/> <path d="m20.668 3.5272 8.4805 8.4805h-7.1758c-0.63281 0-1.3047-0.67187-1.3047-1.3047z" filter="url(#a)" opacity=".2"/> <path style="fill:rgb(100.000%,100.000%,100.000%)" d="M 21.042969 3.152344 L 29.523438 11.632812 L 22.347656 11.632812 C 21.714844 11.632812 21.042969 10.960938 21.042969 10.328125 Z M 21.042969 3.152344"/> <path style="fill:rgb(0%,0%,0%);fill-opacity:0.352941" d="M 17.558594 11.546875 C 16.253906 11.964844 17.398438 13.910156 15.527344 14.863281 C 13.390625 15.953125 12.328125 13.207031 11.042969 15.167969 C 9.761719 17.128906 12.816406 16.824219 12.730469 19.132812 C 12.644531 21.445312 9.621094 20.953125 10.753906 22.992188 C 11.890625 25.027344 13.148438 22.355469 15.199219 23.574219 C 17.253906 24.796875 15.292969 27.054688 17.710938 27.128906 C 20.128906 27.203125 18.332031 24.835938 20.472656 23.746094 C 22.609375 22.65625 23.671875 25.40625 24.957031 23.441406 C 26.238281 21.480469 23.183594 21.785156 23.269531 19.476562 C 23.355469 17.164062 26.378906 17.65625 25.246094 15.617188 C 24.109375 13.582031 22.851562 16.253906 20.796875 15.035156 C 18.746094 13.816406 20.707031 11.554688 18.289062 11.480469 C 17.988281 11.472656 17.746094 11.488281 17.558594 11.546875 Z M 17.585938 17.429688 C 18.664062 17.207031 19.722656 17.871094 19.953125 18.90625 C 20.183594 19.941406 19.492188 20.960938 18.414062 21.179688 C 17.335938 21.402344 16.277344 20.738281 16.046875 19.703125 C 15.816406 18.667969 16.503906 17.648438 17.585938 17.429688 Z M 17.585938 17.429688"/> </g> </svg>
