<svg width="36pt" height="36pt" version="1.1" viewBox="0 0 36 36" xmlns="http://www.w3.org/2000/svg"><defs><filter id="a" x="-.192" y="-.192" width="1.384" height="1.384" color-interpolation-filters="sRGB"><feGaussianBlur stdDeviation="0.67843748"/></filter></defs><path d="m7.3477 3.9022c-0.67188 0-1.3047 0.63281-1.3047 1.3047v27.391c0 0.63281 0.67188 1.3047 1.3047 1.3047h20.871c0.63281 0 1.3047-0.67188 1.3047-1.3047v-20.215l-8.4805-8.4805z" opacity=".15"/><path d="m7.3477 3.1523c-0.67188 0-1.3047 0.63281-1.3047 1.3047v27.391c0 0.63281 0.67188 1.3047 1.3047 1.3047h20.871c0.63281 0 1.3047-0.67188 1.3047-1.3047v-20.215l-8.4805-8.4805z" fill="#e5e5e5"/><path d="m20.668 3.5272 8.4805 8.4805h-7.1758c-0.63281 0-1.3047-0.67187-1.3047-1.3047z" filter="url(#a)" opacity=".2"/><path d="m21.043 3.1523 8.4805 8.4805h-7.1758c-0.63281 0-1.3047-0.67187-1.3047-1.3047z" fill="#fff"/><path d="m21.114 13.5c-1.986 0-3.5934 1.6205-3.5934 3.6178 0 0.62391 0.15842 1.2101 0.43275 1.7252 0.0039 0 0 0.0043 0 0.0043l-6.6613 6.7081v1.4447h1.4373l0.47912-0.48154v-0.96308h0.95824l0.47912-0.48572h0.95824l0.47912-0.48154v-0.96308l0.47912-0.48154h0.95824v-0.96312l1.8701-1.8843h0.0077c0.51003 0.27636 1.0974 0.43548 1.7156 0.43548 1.986 0 3.5934-1.6163 3.5934-3.6137v-0.01675c-0.0077-1.9932-1.6151-3.6011-3.5934-3.6011zm0.71867 1.9304c0.52935 0 0.95823 0.43129 0.95823 0.96308 0 0.53178-0.42888 0.96308-0.95823 0.96308s-0.95824-0.43129-0.95824-0.96308c0-0.53178 0.42888-0.96308 0.95824-0.96308z" fill="#999" stroke-width="1.0297"/></svg>
