<svg width="36pt" height="36pt" version="1.1" viewBox="0 0 36 36" xmlns="http://www.w3.org/2000/svg"><defs><filter id="a" x="-.192" y="-.192" width="1.384" height="1.384" color-interpolation-filters="sRGB"><feGaussianBlur stdDeviation="0.67843748"/></filter><clipPath id="e"><path d="m19 15h5v9h-5z"/></clipPath><clipPath id="d"><path d="m29.137 19.934c0 6.1523-4.9883 11.137-11.137 11.137s-11.141-4.9844-11.141-11.137c0-6.1562 4.9922-11.141 11.141-11.141s11.137 4.9844 11.137 11.141z"/></clipPath><clipPath id="c"><path d="m12 14h8v12h-8z"/></clipPath><clipPath id="b"><path d="m29.137 19.934c0 6.1523-4.9883 11.137-11.137 11.137s-11.141-4.9844-11.141-11.137c0-6.1562 4.9922-11.141 11.141-11.141s11.137 4.9844 11.137 11.141z"/></clipPath></defs><path d="m7.3477 3.1523c-0.67188 0-1.3047 0.63281-1.3047 1.3047v27.391c0 0.63281 0.67188 1.3047 1.3047 1.3047h20.871c0.63281 0 1.3047-0.67188 1.3047-1.3047v-20.215l-8.4805-8.4805z" fill="#0ba05d"/><path d="m20.668 3.5272 8.4805 8.4805h-7.1758c-0.63281 0-1.3047-0.67187-1.3047-1.3047z" filter="url(#a)" opacity=".2"/><path d="m21.043 3.1523 8.4805 8.4805h-7.1758c-0.63281 0-1.3047-0.67187-1.3047-1.3047z" fill="#077041"/><g clip-path="url(#e)"><g clip-path="url(#d)"><path d="m20.516 22.137v-3.4375h-0.69141v-1.1445c1.0391 0 0.69141 0 1.2148-1.9648h1.3867v1.9648h1.3867v1.1445h-1.3867v2.9453c0 0.30859 0.066407 0.53516 0.19922 0.69141 0.13281 0.15234 0.3125 0.23047 0.53125 0.23047 0.27734 0.027344 0.65625-0.10156 0.65625-0.10156v1.1445c-0.035156 0.023437-1.707 0.50391-2.6016 0-0.86719-0.49219-0.69531-1.4727-0.69531-1.4727" fill="#fff"/></g></g><g clip-path="url(#c)"><g clip-path="url(#b)"><path d="m15.676 14.125c-1.1758 0-2.0508 0.42188-2.625 1.2617-0.57422 0.83203-0.86328 2.0352-0.86328 3.6133 0 1.6133 0.28906 2.8359 0.86328 3.6836 0.39844 0.58984 0.9375 0.97656 1.6133 1.1523 0 0 0.13672-0.007813 0.14844 0.12891 0.23047 1.7852 1.4102 1.7852 2.7539 1.7852 0 0 0.17188 0 0.17188-0.16406v-0.98047c0-0.16406-0.17188-0.16406-0.17188-0.16406-0.67188 0-0.84766 0.042969-1.0234-0.59375 0.23047-0.054687 0.4375-0.125 0.63672-0.21875 0.44141-0.21875 0.80859-0.53516 1.0938-0.95312 0.28906-0.42188 0.5-0.9375 0.64062-1.5547 0.14453-0.61719 0.21094-1.3203 0.21094-2.1211 0-1.5938-0.28906-2.8047-0.875-3.6289-0.58594-0.83203-1.4453-1.2461-2.5742-1.2461m-0.011719 0.92969c0.25 0 0.49609 0.097656 0.65625 0.26562 0.09375 0.097657 0.18359 0.20313 0.25391 0.35938 0.046875 0.10547 0.09375 0.23047 0.12891 0.36328 0.089844 0.35938 0.16797 0.66797 0.20703 1.1875 0.035156 0.51953 0.074219 1.1133 0.074219 1.7734 0 0.66406-0.039063 1.2617-0.074219 1.7891-0.039062 0.52344-0.11719 0.83984-0.20703 1.207-0.035156 0.14062-0.082031 0.26953-0.12891 0.38281-0.007813 0.015626-0.015625 0.03125-0.023438 0.042969-0.070312 0.13281-0.14453 0.23047-0.23047 0.32031-0.15625 0.17578-0.41016 0.27734-0.65625 0.27734-0.24219 0-0.5-0.097657-0.65625-0.27734-0.15625-0.17969-0.29297-0.42578-0.38672-0.78125-0.09375-0.35938-0.16797-0.66797-0.20703-1.1836-0.035156-0.52344-0.082031-1.1172-0.082031-1.7812 0-0.65625 0.042969-1.2422 0.082031-1.7539 0.039063-0.51562 0.11719-0.81641 0.20703-1.168 0.09375-0.34766 0.23438-0.58984 0.38672-0.76172 0.15625-0.16797 0.41016-0.26562 0.65625-0.26562" fill="#fff"/></g></g></svg>
