<svg width="36pt" height="36pt" version="1.1" viewBox="0 0 36 36" xmlns="http://www.w3.org/2000/svg"><defs><filter id="a" x="-.192" y="-.192" width="1.384" height="1.384" color-interpolation-filters="sRGB"><feGaussianBlur stdDeviation="0.67843748"/></filter></defs><path d="m7.3477 3.9022c-0.67188 0-1.3047 0.63281-1.3047 1.3047v27.391c0 0.63281 0.67188 1.3047 1.3047 1.3047h20.871c0.63281 0 1.3047-0.67188 1.3047-1.3047v-20.215l-8.4805-8.4805z" opacity=".3"/><path d="m7.3477 3.1523c-0.67188 0-1.3047 0.63281-1.3047 1.3047v27.391c0 0.63281 0.67188 1.3047 1.3047 1.3047h20.871c0.63281 0 1.3047-0.67188 1.3047-1.3047v-20.215l-8.4805-8.4805z" fill="#f7dd67"/><path d="m20.668 3.5272 8.4805 8.4805h-7.1758c-0.63281 0-1.3047-0.67187-1.3047-1.3047z" filter="url(#a)" opacity=".2"/><path d="m21.043 3.1523 8.4805 8.4805h-7.1758c-0.63281 0-1.3047-0.67187-1.3047-1.3047z" fill="#f9e794"/><path d="m15.617 25.379c-0.6875-0.35156-1.2266-1.2969-0.86719-2.0352 0.30469-0.61719 1.3438-0.78906 1.3945-1.5781 0.054688-0.74609 0.64062-1.3555 1.3906-1.3633 0.78125-0.003906 1.7188-0.097656 2.2969 0.51562 0.44531 0.47266 0.32031 1.5508 1.0117 1.7969 0.59375 0.21094 1.1172 0.80859 0.97266 1.5312-0.15234 0.76562-0.78906 1.1914-1.5039 1.2969-1.5625 0.23438-3.1875 0.37109-4.6914-0.16016m-2.5977-3.7812c-0.77734-0.54297-0.86328-1.6016-0.82813-2.4961 0.011719-0.32812 0.015626-1.4609 0.25781-1.1484 0.25 0.32031 0.18359 0.57812 0.68359 0.48438 0.75781-0.14062 1.043 0.97656 1.6289 1.4141 0.52734 0.39453 0.51172 1.4102-0.13672 1.7461-0.5 0.25781-1.1211 0.29297-1.6016-0.003906m8.4453-0.046875c-0.70312-0.28516-0.69922-1.3242-0.09375-1.7695 0.55859-0.41797 0.77344-1.3984 1.6719-1.3047 0.26953 0.027344 0.21875-1.3008 0.44141-0.63672 0.22656 0.6875 0.26172 1.4336 0.31641 2.1523 0.058594 0.78125-0.43359 1.6797-1.2617 1.7891-0.37109 0.050781-0.76562-0.007812-1.0781-0.23047m-5.7656-3.0781c-0.82812-0.41016-0.99609-1.6484-0.46875-2.3633 0.4375-0.58984 0.29297-1.6875 0.90234-1.9688 0.35547-0.16406-0.25781 0.97656 0.42188 1.0391 0.96094 0.085937 0.4375 1.1875 0.76172 1.7891 0.36719 0.67578 0.23047 1.6016-0.61719 1.6914-0.33984 0.035156-0.70703 0.007813-1-0.1875m2.8633-0.074218c-0.51562-0.375-0.29688-1.082-0.16016-1.5977 0.14062-0.53125-0.30469-1.6953 0.44922-1.6523 0.88672 0.046874 0.11328-1.1328 0.44922-1.0117 0.64453 0.23047 0.64453 1.3516 1.1328 1.9414s0.55469 1.6562-0.078125 2.2227c-0.5 0.44141-1.2461 0.41406-1.793 0.097657" fill="#fff"/></svg>
