<svg width="36pt" height="36pt" version="1.1" viewBox="0 0 36 36" xmlns="http://www.w3.org/2000/svg"><defs><filter id="a" x="-.192" y="-.192" width="1.384" height="1.384" color-interpolation-filters="sRGB"><feGaussianBlur stdDeviation="0.67843748"/></filter></defs><path d="m7.3477 3.9022c-0.67188 0-1.3047 0.63281-1.3047 1.3047v27.391c0 0.63281 0.67188 1.3047 1.3047 1.3047h20.871c0.63281 0 1.3047-0.67188 1.3047-1.3047v-20.215l-8.4805-8.4805z" opacity=".3"/><path d="m7.3477 3.1523c-0.67188 0-1.3047 0.63281-1.3047 1.3047v27.391c0 0.63281 0.67188 1.3047 1.3047 1.3047h20.871c0.63281 0 1.3047-0.67188 1.3047-1.3047v-20.215l-8.4805-8.4805z" fill="#0ba05d" fill-opacity=".99608"/><path d="m16.043 14.086h3.9141v5.2188h1.3047l-3.2617 2.6094-3.2617-2.6094h1.3047z" fill="#fff"/><path d="m12.781 23.871v1.3047c0 0.64844 0 0.64844 0.65234 0.64844h9.1328c0.65234 0 0.65234 0.003906 0.65234-0.64844v-1.3047c0-0.65234 0-0.65234-0.65234-0.65234h-9.1328c-0.65234 0-0.65234 0-0.65234 0.65234zm5.2188 0h4.5664v1.3047h-4.5664z" fill="#fff"/><path d="m20.668 3.5272 8.4805 8.4805h-7.1758c-0.63281 0-1.3047-0.67187-1.3047-1.3047z" filter="url(#a)" opacity=".2"/><path d="m21.043 3.1523 8.4805 8.4805h-7.1758c-0.63281 0-1.3047-0.67187-1.3047-1.3047z" fill="#53bc8d"/></svg>
