<svg width="36pt" height="36pt" version="1.1" viewBox="0 0 36 36" xmlns="http://www.w3.org/2000/svg"><defs><filter id="a" x="-.192" y="-.192" width="1.384" height="1.384" color-interpolation-filters="sRGB"><feGaussianBlur stdDeviation="0.67843748"/></filter><clipPath id="g"><path d="m9 15h7v8h-7z"/></clipPath><clipPath id="f"><path d="m32.855 19.938c0 8.207-6.6562 14.852-14.855 14.852s-14.855-6.6445-14.855-14.852 6.6562-14.855 14.855-14.855 14.855 6.6484 14.855 14.855z"/></clipPath><clipPath id="e"><path d="m15 17h6v8h-6z"/></clipPath><clipPath id="d"><path d="m32.855 19.938c0 8.207-6.6562 14.852-14.855 14.852s-14.855-6.6445-14.855-14.852 6.6562-14.855 14.855-14.855 14.855 6.6484 14.855 14.855z"/></clipPath><clipPath id="c"><path d="m19 15h8v8h-8z"/></clipPath><clipPath id="b"><path d="m32.855 19.938c0 8.207-6.6562 14.852-14.855 14.852s-14.855-6.6445-14.855-14.852 6.6562-14.855 14.855-14.855 14.855 6.6484 14.855 14.855z"/></clipPath></defs><path d="m7.3477 3.9022c-0.67188 0-1.3047 0.63281-1.3047 1.3047v27.391c0 0.63281 0.67188 1.3047 1.3047 1.3047h20.871c0.63281 0 1.3047-0.67188 1.3047-1.3047v-20.215l-8.4805-8.4805z" opacity=".3"/><path d="m7.3477 3.1523c-0.67188 0-1.3047 0.63281-1.3047 1.3047v27.391c0 0.63281 0.67188 1.3047 1.3047 1.3047h20.871c0.63281 0 1.3047-0.67188 1.3047-1.3047v-20.215l-8.4805-8.4805z" fill="#e5e5e5"/><path d="m20.668 3.5272 8.4805 8.4805h-7.1758c-0.63281 0-1.3047-0.67187-1.3047-1.3047z" filter="url(#a)" opacity=".2"/><path d="m21.043 3.1523 8.4805 8.4805h-7.1758c-0.63281 0-1.3047-0.67187-1.3047-1.3047z" fill="#fff"/><g clip-path="url(#g)"><g clip-path="url(#f)"><path d="m15.547 15.43h-5.7734l-0.16797 2.2227h0.17578c0.12891-1.668 0.27344-1.957 1.8242-1.957h0.55078c0.19141 0.027344 0.19141 0.15234 0.19141 0.38281v5.4727c0 0.36328-0.03125 0.47266-0.87109 0.47266h-0.28516v0.24219c0.48047-0.011719 0.98047-0.019531 1.4688-0.019531 0.49219 0 0.99219 0.015625 1.4727 0.019531v-0.24219h-0.28516c-0.83203 0-0.85938-0.10938-0.85938-0.47266v-5.4727c0-0.22266 0-0.33984 0.17969-0.38281h0.54688c1.5312 0 1.6836 0.28906 1.8164 1.957h0.17188" fill="#262933"/></g></g><g clip-path="url(#e)"><g clip-path="url(#d)"><path d="m20.562 21.918h-0.17969c-0.21875 1.4922-0.34766 2.3008-2.1094 2.3008h-1.3867c-0.39844 0-0.41406-0.050781-0.41406-0.39453v-2.8125h0.94141c0.94141 0 1.0312 0.35156 1.0312 1.1992h0.16406v-2.6133h-0.16406c0 0.83203-0.089843 1.1719-1.0312 1.1719h-0.94141v-2.4922c0-0.33594 0.015625-0.38672 0.41406-0.38672h1.3672c1.5469 0 1.7305 0.61719 1.8672 1.9453h0.18359l-0.24219-2.2227h-5.0625v0.27734c0.71094 0 0.82422 0 0.82422 0.44922v5.4258c0 0.44922-0.11328 0.44922-0.82422 0.44922v0.24219h5.1992" fill="#262933"/></g></g><g clip-path="url(#c)"><g clip-path="url(#b)"><path d="m23.258 18.465 1.4766-2.1523c0.14844-0.20703 0.45312-0.64062 1.2734-0.65625v-0.24219c-0.23047 0.019532-0.60937 0.019532-0.85156 0.019532-0.32812 0-0.73828 0-0.98828-0.019532v0.24219c0.32031 0.03125 0.40234 0.23438 0.40234 0.39453 0 0.12109-0.050781 0.20312-0.12109 0.30078l-1.3203 1.9258-1.4805-2.1758c-0.070313-0.11328-0.078126-0.14062-0.078126-0.17187 0-0.089844 0.10938-0.26172 0.44141-0.27344v-0.24219c-0.32031 0.019532-0.80859 0.019532-1.1406 0.019532-0.25781 0-0.75781 0-1-0.019532v0.24219c0.55078 0 0.73047 0.019531 0.94922 0.33203l1.9297 2.8516-1.7422 2.5547c-0.42578 0.62109-1.0742 0.63672-1.2656 0.63672v0.24219c0.22656-0.023438 0.60547-0.023438 0.84766-0.023438 0.26953 0 0.73828 0 0.98828 0.023438v-0.24219c-0.30859-0.03125-0.39844-0.23438-0.39844-0.39453 0-0.13281 0.046874-0.20312 0.097656-0.27344l1.6016-2.3477 1.7383 2.5703c0.078124 0.10937 0.078124 0.14062 0.078124 0.17187 0 0.082032-0.089843 0.25391-0.44141 0.27344v0.24219c0.32031-0.019532 0.80859-0.019532 1.1406-0.019532 0.25781 0 0.75781 0 1 0.019532v-0.24219c-0.64062 0-0.74219-0.050781-0.9375-0.33594" fill="#262933"/></g></g></svg>
