<svg width="36pt" height="36pt" version="1.1" viewBox="0 0 36 36" xmlns="http://www.w3.org/2000/svg"><defs><filter id="a" x="-.192" y="-.192" width="1.384" height="1.384" color-interpolation-filters="sRGB"><feGaussianBlur stdDeviation="0.67843748"/></filter></defs><path d="m7.3477 3.1523c-0.67188 0-1.3047 0.63281-1.3047 1.3047v27.391c0 0.63281 0.67188 1.3047 1.3047 1.3047h20.871c0.63281 0 1.3047-0.67188 1.3047-1.3047v-20.215l-8.4805-8.4805z"/><path d="m20.668 3.5272 8.4805 8.4805h-7.1758c-0.63281 0-1.3047-0.67187-1.3047-1.3047z" filter="url(#a)" opacity=".2"/><path d="m21.043 3.1523 8.4805 8.4805h-7.1758c-0.63281 0-1.3047-0.67187-1.3047-1.3047z" fill="#333"/><path d="m23.812 20.664c0 5.1641-3.293 7.2656-5.8125 7.2656h-5.8125v-14.531h5.8125c2.5195 0 5.8125 2.1016 5.8125 7.2656zm-2.9062 0c0-2.9062-1.4531-4.3594-3.875-4.3594h-1.9375v8.7188h1.9375c2.4219 0 3.875-1.4531 3.875-4.3594z" fill="#fff"/></svg>
