<svg width="36pt" height="36pt" version="1.1" viewBox="0 0 36 36" xmlns="http://www.w3.org/2000/svg"><defs><filter id="a" x="-.192" y="-.192" width="1.384" height="1.384" color-interpolation-filters="sRGB"><feGaussianBlur stdDeviation="0.67843748"/></filter></defs><path d="m7.3477 3.9022c-0.67188 0-1.3047 0.63281-1.3047 1.3047v27.391c0 0.63281 0.67188 1.3047 1.3047 1.3047h20.871c0.63281 0 1.3047-0.67188 1.3047-1.3047v-20.215l-8.4805-8.4805z" opacity=".1"/><path d="m7.3477 3.1523c-0.67188 0-1.3047 0.63281-1.3047 1.3047v27.391c0 0.63281 0.67188 1.3047 1.3047 1.3047h20.871c0.63281 0 1.3047-0.67188 1.3047-1.3047v-20.215l-8.4805-8.4805z"/><path d="m20.668 3.5272 8.4805 8.4805h-7.1758c-0.63281 0-1.3047-0.67187-1.3047-1.3047z" filter="url(#a)" opacity=".2"/><path d="m21.043 3.1523 8.4805 8.4805h-7.1758c-0.63281 0-1.3047-0.67187-1.3047-1.3047z" fill="#333"/><g transform="translate(7.6071 4.4925)" fill="#fff" aria-label="c"><path d="m11.513 22.508c1.5741 0 3.0415-0.34684 4.2688-1.0138l-0.74704-2.3478c-0.9338 0.4002-1.9209 0.61364-2.7747 0.61364-2.4012 0-3.7885-1.4941-3.7885-4.082 0-2.4545 1.254-3.7885 3.5484-3.7885 0.96047 0 2.0543 0.21344 2.9881 0.58696l0.72036-2.6947c-1.1206-0.50692-2.4812-0.77372-3.8152-0.77372-4.1887 0-6.9101 2.7747-6.9101 7.0435 0 4.0553 2.4279 6.4565 6.5099 6.4565z" fill="#fff" stroke-width=".667"/></g></svg>
