<svg width="36pt" height="36pt" version="1.1" viewBox="0 0 36 36" xmlns="http://www.w3.org/2000/svg"><defs><filter id="a" x="-.192" y="-.192" width="1.384" height="1.384" color-interpolation-filters="sRGB"><feGaussianBlur stdDeviation="0.67843748"/></filter></defs><path d="m7.3477 3.9022c-0.67188 0-1.3047 0.63281-1.3047 1.3047v27.391c0 0.63281 0.67188 1.3047 1.3047 1.3047h20.871c0.63281 0 1.3047-0.67188 1.3047-1.3047v-20.215l-8.4805-8.4805z" opacity=".3"/><path d="m7.3477 3.1523c-0.67188 0-1.3047 0.63281-1.3047 1.3047v27.391c0 0.63281 0.67188 1.3047 1.3047 1.3047h20.871c0.63281 0 1.3047-0.67188 1.3047-1.3047v-20.215l-8.4805-8.4805z" fill="#e5e5e5"/><path d="m20.668 3.5272 8.4805 8.4805h-7.1758c-0.63281 0-1.3047-0.67187-1.3047-1.3047z" filter="url(#a)" opacity=".2"/><path d="m21.043 3.1523 8.4805 8.4805h-7.1758c-0.63281 0-1.3047-0.67187-1.3047-1.3047z" fill="#fff"/><path d="m18.777 15.531c-0.75391 0.19141-1.3867 0.88281-1.3867 0.88281l0.023437 0.019532 1.2031 4.4805c-0.86328-0.46875-2.0938-0.35156-3.1094 0.38672-1.3203 0.94922-1.7773 2.5703-1.0156 3.6133 0.76562 1.0469 2.4453 1.1211 3.7617 0.17188 1.0352-0.75391 1.6172-1.9375 1.4062-2.9062-0.007812-0.027344-0.019531-0.058594-0.027344-0.089844l-1.1523-4.4766c0.027343-0.039062 0.36328-0.19141 1.457-0.26953 1.1523-0.074219 1.9375-1.9297 1.9375-1.9297s-1.3008 0.5-2.3242 0.14063c-0.25781-0.089844-0.52344-0.085938-0.77344-0.023438z" fill-opacity=".35294"/></svg>
