<svg width="36pt" height="36pt" version="1.1" viewBox="0 0 36 36" xmlns="http://www.w3.org/2000/svg"><defs><filter id="a" x="-.192" y="-.192" width="1.384" height="1.384" color-interpolation-filters="sRGB"><feGaussianBlur stdDeviation="0.67843748"/></filter></defs><path d="m7.3477 3.1523c-0.67188 0-1.3047 0.63281-1.3047 1.3047v27.391c0 0.63281 0.67188 1.3047 1.3047 1.3047h20.871c0.63281 0 1.3047-0.67188 1.3047-1.3047v-20.215l-8.4805-8.4805z" fill="#e5e5e5"/><path d="m20.668 3.5272 8.4805 8.4805h-7.1758c-0.63281 0-1.3047-0.67187-1.3047-1.3047z" filter="url(#a)" opacity=".2"/><path d="m21.043 3.1523 8.4805 8.4805h-7.1758c-0.63281 0-1.3047-0.67187-1.3047-1.3047z" fill="#fff"/><path d="m16.656 22.098v-0.46484c0-0.67187 0.11719-1.2227 0.35156-1.6562 0.23828-0.4375 0.67578-0.89844 1.3164-1.3789 0.88672-0.66406 1.4453-1.1602 1.6758-1.4922 0.23438-0.33594 0.35156-0.73828 0.35156-1.207 0-0.58984-0.21484-1.0391-0.64453-1.3555-0.42578-0.32422-1.0391-0.48438-1.8438-0.48438-0.51562 0-1.0195 0.054687-1.5117 0.16406-0.48828 0.10547-1.0508 0.29688-1.6875 0.57812l-0.57812-1.1641c1.2344-0.57031 2.5273-0.85547 3.875-0.85547 1.25 0 2.2188 0.26953 2.9102 0.8125 0.69531 0.53906 1.043 1.3008 1.043 2.2852 0 0.42188-0.066406 0.79297-0.19922 1.1133-0.12109 0.31641-0.30859 0.61719-0.55859 0.90625-0.24609 0.28125-0.78516 0.73828-1.6055 1.3711-0.66016 0.49609-1.1016 0.90625-1.3164 1.2344-0.20703 0.32812-0.3125 0.76562-0.3125 1.3086v0.28516h-1.2656m-0.48047 2.5625c0-0.78125 0.39062-1.1719 1.1758-1.1719 0.37891 0 0.67188 0.10156 0.875 0.30078 0.20703 0.20313 0.3125 0.49219 0.3125 0.87109 0 0.37109-0.10547 0.65625-0.3125 0.86328-0.21094 0.20312-0.5 0.30078-0.875 0.30078-0.33984 0-0.62109-0.085938-0.84375-0.26562-0.22266-0.18359-0.33203-0.48438-0.33203-0.89844" fill-opacity=".35294"/></svg>
