<svg xmlns="http://www.w3.org/2000/svg" style="enable-background:new" width="16" height="16" version="1.1">
 <g transform="translate(-504.00018,-206)">
  <path style="fill:#555555;fill-rule:evenodd" d="m 506,207 c -1.0312,0.0625 -1,1 -1,1 l 0,8 0,4 c 0,0 -0.0312,0.9375 1,1 l 12,0 c 1,0 1,-1 1,-1 l 0,-4 0,-8 c 0,0 0,-1 -1,-1 l -3,0 0,2 2,0 0,7 -1,0 -0.15625,0 L 514,216 c 0,1.108 -0.892,2 -2,2 -1.108,0 -2,-0.892 -2,-2 l -1.84375,0 -1.15625,0 0,-7 2,0 0,-2 -3,0 z"/>
  <path style="fill:#555555" d="m 510,207 0,4 -2,0 4,5 4,-5 -2,0 0,-4 z"/>
 </g>
</svg>
