<svg xmlns="http://www.w3.org/2000/svg" width="16" height="16" version="1">
 <path style="fill:#cccccc;opacity:0.3" d="M 9.8125272,0.56878668 V 2.0187794 c 2.2936348,0.76643 3.9874798,3.1381831 3.9874798,5.7999711 0,2.6617875 -1.693845,5.0336495 -3.9874798,5.7999715 v 1.449992 C 12.926749,14.260706 15.25,11.340058 15.25,7.8187505 15.25,4.2974431 12.926749,1.3767951 9.8125272,0.56878668 Z"/>
 <path style="fill:#cccccc" d="M 0.75007245,4.1937686 V 11.443732 H 4.045616 l 3.9544927,3.624982 V 0.56878668 L 4.045616,4.1937686 Z"/>
 <path style="fill:#cccccc" d="m 11.625018,7.8187505 c 0,-1.413743 -0.728984,-2.6317369 -1.8124908,-3.2624837 V 11.081234 C 10.885848,10.450487 11.625018,9.2324934 11.625018,7.8187505 Z"/>
 <path style="opacity:0.2" d="m 11.612983,7.9978246 c -0.06017,1.3361683 -0.773208,2.4798504 -1.8005283,3.0834094 v 0.362498 c 1.0733213,-0.630746 1.8124913,-1.8487404 1.8124913,-3.2624833 0,-0.062277 -0.0092,-0.1218864 -0.01203,-0.1833734 z M 0.74999995,11.443732 v 0.362499 H 4.0458335 l 3.9541303,3.624981 V 15.068714 L 4.0458335,11.443732 Z"/>
 <path style="opacity:0.2;fill:#ffffff" d="M 8.0000363,0.56878668 4.045906,4.1937686 H 0.75007245 V 4.5562668 H 4.045906 L 8.0000363,0.93128487 Z M 9.8125272,4.5562668 V 4.918765 c 1.0356578,0.6028344 1.7396288,1.7447037 1.8005288,3.0790596 0.0025,-0.060175 0.01196,-0.1181744 0.01196,-0.1790741 0,-1.413743 -0.728984,-2.6317369 -1.8124908,-3.2624837 z"/>
</svg>
