<svg xmlns="http://www.w3.org/2000/svg" width="297mm" height="100mm" version="1.1" viewBox="0 0 297 100">
 <defs>
  <filter id="filter4183" width="1.072" height="1.072" x="-.04" y="-.04" style="color-interpolation-filters:sRGB">
   <feGaussianBlur stdDeviation="3.746"/>
  </filter>
 </defs>
 <g transform="translate(0,-110)">
  <g style="opacity:.3;fill:#FFFFFF" transform="translate(-29.628962,1.6933433)">
   <path style="fill:#FFFFFF" d="m50.326454 150.15748h14.216955v-4.94312h-19.597526v30.27117h5.380571v-11.50479h12.467176v-4.94313h-12.467176v-8.88013z"/>
   <path style="fill:#FFFFFF" d="m76.386542 171.59228c-1.706035 0-2.012246-1.70604-2.012246-4.4182v-23.09708h-5.380571v24.1907c0 3.84951 1.137357 7.65528 6.692905 7.65528 1.531057 0 2.974624-0.43745 2.974624-0.43745l-1.049867-4.02449s-0.568678 0.13124-1.224845 0.13124z"/>
   <path style="fill:#FFFFFF" d="m92.970484 170.49866c-1.137357 0.69992-2.405947 1.22485-4.330704 1.22485s-3.499558-0.74366-3.499558-2.49344c0-2.93088 4.59317-2.93088 7.830262-2.93088v4.19947zm0-7.91775c-6.474183 0-13.210832 0.61243-13.210832 7.04286 0 4.0245 3.368324 6.29921 7.567794 6.29921 2.449691 0 4.505681-0.61242 6.124227-1.88101l0.699911 1.44356h4.19947v-12.9921c0-6.08049-3.105858-8.53018-9.667529-8.53018-2.755902 0-6.25546 0.65617-7.305328 1.35608l1.049868 4.02449c1.356079-0.74365 3.762025-1.39982 5.424315-1.39982 3.980747 0 5.118104 0.91863 5.118104 4.63691z"/>
   <path style="fill:#FFFFFF" d="m118.90071 174.74188-0.7874-3.71828c-0.78741 0.21872-2.40595 0.61242-3.89326 0.61242-2.88714 0-3.54331-1.44357-3.54331-3.06211v-9.93h7.26159v-4.19947h-7.26159v-6.60541h-5.38057v6.60541h-3.49955v4.19947h3.49955v10.06123c0 3.71828 0.91864 7.21784 7.61154 7.21784 2.01225 0 4.50568-0.61242 5.993-1.1811z"/>
   <path style="fill:#FFFFFF" d="m135.08343 175.48553h5.38057v-11.76726h4.89938l6.99911 11.76726h6.16798l-7.65529-12.64215c4.50568-1.44357 6.7804-4.37445 6.7804-8.66141 0-5.99299-4.15573-8.96761-12.55467-8.96761h-10.01748v30.27117zm17.06034-21.08483c0 4.06823-4.24321 4.37444-8.96762 4.37444h-2.71215v-8.61766h4.06823c4.06824 0 7.61154 0.52494 7.61154 4.24322z"/>
   <path style="fill:#FFFFFF" d="m172.41182 171.67977c-5.16185 0-6.34295-2.23097-6.56167-4.94313h14.43568v-2.05599c0-6.86788-3.23709-10.7174-9.5363-10.7174-6.25546 0-10.32369 4.89938-10.32369 10.97987 0 6.82413 4.19947 10.97986 11.28607 10.97986 2.79965 0 5.5118-0.48119 8.09273-1.31233l-1.04987-4.0245c-1.92476 0.74366-4.02449 1.09362-6.34295 1.09362zm-6.51792-8.66141c0.26246-2.53718 1.35607-4.89938 4.94312-4.89938 2.62467 0 4.06824 1.53105 4.06824 4.89938h-9.01136z"/>
   <path style="fill:#FFFFFF" d="m196.17805 153.96325c-2.7559 0-4.98687 1.22485-6.82413 1.83727l-0.78741-1.35608h-3.76202v21.04109h5.38057v-15.8355c1.61855-0.69991 2.7559-1.1811 4.54943-1.1811 2.44969 0 3.41207 1.88102 3.41207 4.24322v12.77338h5.38057v-11.89849c0-1.26859-0.13124-2.58093-0.3937-3.80577 1.74977-0.7874 2.93088-1.31234 4.94312-1.31234 2.44969 0 3.28084 1.88102 3.28084 4.24322v12.77338h5.38057v-12.11722c0-5.64303-1.35608-9.40506-7.26159-9.40506-2.27471 0-4.89938 0.74366-7.78651 2.18723-1.26859-1.44357-3.10586-2.18723-5.51181-2.18723z"/>
   <path style="fill:#FFFFFF" d="m224.98038 151.90726c1.70603 0 3.23709-1.53105 3.23709-3.23709 0-1.70603-1.53106-3.23709-3.23709-3.23709s-3.23709 1.53106-3.23709 3.23709c0 1.70604 1.53106 3.23709 3.23709 3.23709zm-2.62467 2.53718v21.04109h5.24934v-21.04109h-5.24934z"/>
   <path style="fill:#FFFFFF" d="m230.79429 154.44444 7.48031 10.67365-7.13035 10.36744h5.77427l4.50568-6.82413 4.59317 6.82413h5.77427l-7.34907-10.36744 7.61154-10.67365h-5.94925l-4.63691 7.21784-4.85564-7.21784h-5.81802z"/>
  </g>
  <g style="fill:#FFFFFF" transform="translate(-29.628962,9.8239242e-6)">
   <path style="fill:#FFFFFF" d="m50.326454 150.15748h14.216955v-4.94312h-19.597526v30.27117h5.380571v-11.50479h12.467176v-4.94313h-12.467176v-8.88013z"/>
   <path style="fill:#FFFFFF" d="m76.386542 171.59228c-1.706035 0-2.012246-1.70604-2.012246-4.4182v-23.09708h-5.380571v24.1907c0 3.84951 1.137357 7.65528 6.692905 7.65528 1.531057 0 2.974624-0.43745 2.974624-0.43745l-1.049867-4.02449s-0.568678 0.13124-1.224845 0.13124z"/>
   <path style="fill:#FFFFFF" d="m92.970484 170.49866c-1.137357 0.69992-2.405947 1.22485-4.330704 1.22485s-3.499558-0.74366-3.499558-2.49344c0-2.93088 4.59317-2.93088 7.830262-2.93088v4.19947zm0-7.91775c-6.474183 0-13.210832 0.61243-13.210832 7.04286 0 4.0245 3.368324 6.29921 7.567794 6.29921 2.449691 0 4.505681-0.61242 6.124227-1.88101l0.699911 1.44356h4.19947v-12.9921c0-6.08049-3.105858-8.53018-9.667529-8.53018-2.755902 0-6.25546 0.65617-7.305328 1.35608l1.049868 4.02449c1.356079-0.74365 3.762025-1.39982 5.424315-1.39982 3.980747 0 5.118104 0.91863 5.118104 4.63691z"/>
   <path style="fill:#FFFFFF" d="m118.90071 174.74188-0.7874-3.71828c-0.78741 0.21872-2.40595 0.61242-3.89326 0.61242-2.88714 0-3.54331-1.44357-3.54331-3.06211v-9.93h7.26159v-4.19947h-7.26159v-6.60541h-5.38057v6.60541h-3.49955v4.19947h3.49955v10.06123c0 3.71828 0.91864 7.21784 7.61154 7.21784 2.01225 0 4.50568-0.61242 5.993-1.1811z"/>
   <path style="fill:#FFFFFF" d="m135.08343 175.48553h5.38057v-11.76726h4.89938l6.99911 11.76726h6.16798l-7.65529-12.64215c4.50568-1.44357 6.7804-4.37445 6.7804-8.66141 0-5.99299-4.15573-8.96761-12.55467-8.96761h-10.01748v30.27117zm17.06034-21.08483c0 4.06823-4.24321 4.37444-8.96762 4.37444h-2.71215v-8.61766h4.06823c4.06824 0 7.61154 0.52494 7.61154 4.24322z"/>
   <path style="fill:#FFFFFF" d="m172.41182 171.67977c-5.16185 0-6.34295-2.23097-6.56167-4.94313h14.43568v-2.05599c0-6.86788-3.23709-10.7174-9.5363-10.7174-6.25546 0-10.32369 4.89938-10.32369 10.97987 0 6.82413 4.19947 10.97986 11.28607 10.97986 2.79965 0 5.5118-0.48119 8.09273-1.31233l-1.04987-4.0245c-1.92476 0.74366-4.02449 1.09362-6.34295 1.09362zm-6.51792-8.66141c0.26246-2.53718 1.35607-4.89938 4.94312-4.89938 2.62467 0 4.06824 1.53105 4.06824 4.89938h-9.01136z"/>
   <path style="fill:#FFFFFF" d="m196.17805 153.96325c-2.7559 0-4.98687 1.22485-6.82413 1.83727l-0.78741-1.35608h-3.76202v21.04109h5.38057v-15.8355c1.61855-0.69991 2.7559-1.1811 4.54943-1.1811 2.44969 0 3.41207 1.88102 3.41207 4.24322v12.77338h5.38057v-11.89849c0-1.26859-0.13124-2.58093-0.3937-3.80577 1.74977-0.7874 2.93088-1.31234 4.94312-1.31234 2.44969 0 3.28084 1.88102 3.28084 4.24322v12.77338h5.38057v-12.11722c0-5.64303-1.35608-9.40506-7.26159-9.40506-2.27471 0-4.89938 0.74366-7.78651 2.18723-1.26859-1.44357-3.10586-2.18723-5.51181-2.18723z"/>
   <path style="fill:#FFFFFF" d="m224.98038 151.90726c1.70603 0 3.23709-1.53105 3.23709-3.23709 0-1.70603-1.53106-3.23709-3.23709-3.23709s-3.23709 1.53106-3.23709 3.23709c0 1.70604 1.53106 3.23709 3.23709 3.23709zm-2.62467 2.53718v21.04109h5.24934v-21.04109h-5.24934z"/>
   <path style="fill:#FFFFFF" d="m230.79429 154.44444 7.48031 10.67365-7.13035 10.36744h5.77427l4.50568-6.82413 4.59317 6.82413h5.77427l-7.34907-10.36744 7.61154-10.67365h-5.94925l-4.63691 7.21784-4.85564-7.21784h-5.81802z"/>
  </g>
  <ellipse style="opacity:.6;filter:url(#filter4183);fill:#333333" cx="354.333" cy="374.829" rx="124.736" ry="124.964" transform="matrix(.19755472 0 0 .19755473 189.56602 85.950695)"/>
  <ellipse style="fill:#D41919" cx="259.566" cy="160" rx="23.975" ry="24.019"/>
  <path style="opacity:.3;fill-rule:evenodd" d="m267.27793 149.089c-1.06488 1.00516-3.52682 3.11932-3.52682 3.11932l5.77007 5.81263s2.49748-2.56644 3.62578-3.63147c0.2804-0.26469 0.24422-0.85776-0.0362-1.12245-0.87489-0.82584-2.3259-2.16666-2.3259-2.16666s-1.36607-1.29876-2.20719-2.09272c-0.30703-0.28981-0.99272-0.20847-1.29976 0.0813zm-6.06253 5.19491-15.42322 14.52912 0.13307 5.74688 6.02063-0.0344 15.25479-14.39564z"/>
  <path style="fill:#FFFFFF;fill-rule:evenodd" d="m267.27793 147.39568c-1.06488 1.00516-3.52682 3.11932-3.52682 3.11932l5.77007 5.81263s2.49748-2.56644 3.62578-3.63147c0.2804-0.26469 0.24422-0.85776-0.0362-1.12245-0.87489-0.82584-2.3259-2.16666-2.3259-2.16666s-1.36607-1.29876-2.20719-2.09272c-0.30703-0.28981-0.99272-0.20847-1.29976 0.0813zm-6.06253 5.19491-15.42322 14.52912 0.13307 5.74688 6.02063-0.0344 15.25479-14.39564z"/>
 </g>
</svg>
