<svg version="1.1" viewBox="0 0 512 512" xmlns="http://www.w3.org/2000/svg"><g fill="#4a88f1"><g transform="matrix(1.4134 0 0 1.4134 14.975 15.536)"><path d="m308 318.23c0-58.604-20.287-120.1-54.79-166.09-10.919-14.554-25.435-30.812-27.51-30.812-2.9192 0-49.967 47.55-64.643 65.333-25.203 30.538-43.402 56.454-62.266 88.667-13.259 22.64-27.249 50.848-26.123 52.67 0.53685 0.86864 41.518 1.3304 118.08 1.3304h117.25zm-275.33-63.234c23.278-11.604 60.421-39.385 102-76.292 25.707-22.819 74.666-70.775 74.672-73.143 9e-3 -3.5115-19.776-21.55-34.462-31.421-27.816-18.696-66.555-34.023-106.45-42.116-22.293-4.5225-46.798-7.6026-50.176-6.3065-2.0898 0.80192-2.2518 9.2472-2.2518 117.35 0 64.067 0.4066 116.89 0.90355 117.39 1.2363 1.2363 4.8131-3e-3 15.763-5.4612zm292.34-147.33-0.34211-96.333-103-0.34156c-56.65-0.18786-103 0.16731-103 0.78926s7.4396 5.1056 16.533 9.9637c74.697 39.909 132.74 87.403 164.71 134.79 7.5106 11.13 17.412 30.508 20.677 40.469 1.2622 3.85 2.8507 7 3.53 7 0.74946 0 1.1005-37.87 0.89285-96.333z" fill="#4a88f1" stroke-width="1.3333"/></g><g transform="matrix(1.4134 0 0 1.4134 14.975 15.536)"><path transform="matrix(.70754 0 0 .70754 -10.596 -10.992)" d="m197.44 31.549c-9.1719 0.17855-14.75 0.39228-14.75 0.63867 0 0.87904 10.516 7.2158 23.367 14.082 105.57 56.405 187.6 123.53 232.79 190.5 10.615 15.731 24.609 43.119 29.225 57.197 1.784 5.4414 4.0303 9.8926 4.9902 9.8926 0.84303 0 1.3204-34.271 1.3359-89.768-0.06675 49.751-0.54293 79.768-1.3359 79.768-0.95998 0-3.2062-4.4512-4.9902-9.8926-4.6156-14.078-18.609-41.466-29.225-57.197-45.19-66.969-127.22-134.1-232.79-190.5-3.0452-1.627-5.9432-3.2187-8.6172-4.7207zm110.01 127.64c-14.237 16.086-70.575 70.894-102.15 98.92-58.766 52.163-111.26 91.428-144.16 107.83-15.476 7.7144-20.532 9.4661-22.279 7.7188-0.6948-0.69478-1.2612-73.829-1.2734-163.06-1.54e-4 2.5918-0.001953 4.465-0.001953 7.1426 0 90.55 0.57302 165.21 1.2754 165.91 1.7474 1.7474 6.803-0.0044 22.279-7.7188 32.901-16.4 85.396-55.665 144.16-107.83 36.333-32.251 105.53-100.03 105.54-103.38 0.00266-1.037-1.2713-3.0056-3.3906-5.543zm-186.73 310.37c-2.2848 5.324-3.4785 8.859-3.0449 9.5606 0.75876 1.2277 58.68 1.8809 166.88 1.8809h165.72v-10h-165.72c-94.495 0-150.62-0.4976-163.84-1.4414z" fill="#000" opacity=".3" stroke-width="1.8845"/></g><g transform="matrix(1.4134 0 0 1.4134 14.975 15.536)"><path transform="matrix(.70754 0 0 .70754 -10.596 -10.992)" d="m299.03 31.006c-66.177-0.069771-116.33 0.41248-116.33 1.1816 0 0.67075 6.1391 4.5246 14.75 9.3613 23.55-0.45843 73.203-0.6696 130.83-0.47852l145.57 0.48438 0.48437 136.15c0.03668 10.329 0.05982 20.203 0.07227 29.574-0.00489-12.37-0.02178-25.357-0.07227-39.574l-0.48437-136.15-145.57-0.48438c-10.008-0.033188-19.79-0.054485-29.244-0.064453zm-255.13 20.475c-1.4655 0.043796-2.5283 0.17532-3.125 0.4043-2.9536 1.1334-3.1816 13.07-3.1816 165.86 0 0.97645 0.00182 1.8828 0.001953 2.8555 0.008643-145.3 0.27788-157.6 3.1797-158.71 4.7737-1.8318 39.408 2.5221 70.916 8.9141 56.385 11.439 111.14 33.101 150.45 59.525 16.42 11.036 37.293 29.26 45.316 38.865 2.146-2.4248 3.3895-4.0187 3.3906-4.457 0.01272-4.9629-27.95-30.457-48.707-44.408-39.314-26.424-94.066-48.087-150.45-59.525-27.569-5.5929-57.533-9.6249-67.791-9.3184zm290.07 135.54c-4.1259 0-70.621 67.204-91.363 92.338-35.62 43.162-61.344 79.791-88.006 125.32-18.739 31.999-38.511 71.864-36.92 74.439 0.09613 0.15554 1.1277 0.30253 3.0449 0.43945 6.102-14.218 20.241-41.598 33.875-64.879 26.662-45.527 52.386-82.157 88.006-125.32 20.742-25.134 87.237-92.338 91.363-92.338 2.9323 0 23.448 22.977 38.881 43.547 48.765 64.996 77.438 151.91 77.438 234.74v-10c0-82.828-28.673-169.74-77.438-234.74-15.433-20.569-35.949-43.547-38.881-43.547z" fill="#fff" opacity=".2" stroke-width="1.8845"/></g></g></svg>
