<svg width="512" height="512" version="1.1" viewBox="0 0 135.47 135.47" xmlns="http://www.w3.org/2000/svg"><path d="m71.039 68.582 9.0121 12.629-25.505 18.407v5.2918l8.2023 10.078-5.7176 6.4072v5.2918h36.119v3e-3h16.084v-3e-3h2.3911c4.0106 0 7.2736-3.335 7.348-7.345v-43.409c0-4.0106-3.3324-7.3506-7.348-7.3506h-2.3911l-16.081-5.29e-4 -22.114-5.2917zm-47.195 0.52918c-4.0156 0-7.3512 3.3366-7.3512 7.3512v43.409c0 4.0146 3.3406 7.345 7.3512 7.345h2.388v3e-3h16.084v-3e-3h-1.6878l5.7176-11.699v-5.2918l-8.2023-4.7854 25.505-23.7v-5.2918l-9.0116-7.3362h-28.405z" fill="#087142" style="font-feature-settings:normal;font-variant-alternates:normal;font-variant-caps:normal;font-variant-east-asian:normal;font-variant-ligatures:normal;font-variant-numeric:normal;font-variant-position:normal;font-variation-settings:normal;inline-size:0;isolation:auto;mix-blend-mode:normal;shape-margin:0;shape-padding:0;text-decoration-color:#000000;text-decoration-line:none;text-decoration-style:solid;text-indent:0;text-orientation:mixed;text-transform:none;white-space:normal"/><path d="m68.313 20.978 2.5944-6.9513 3.1627-2.0819 5.7962 0.12749c-3.3494 5.4463-5.9932 9.6535-8.9898 14.48z" fill="#383c4a"/><path d="m50.311 20.164 10.861-8.8524c1.2582-0.16537 2.5215-0.36108 3.7616-0.41862l-1.1939 12.185-7.6214 1.9729-0.79224 4.9893z" fill="#383c4a"/><path d="m64.934 10.892c-21.612 1.4104-38.702 19.378-38.702 41.348v14.225h28.405l-5.29e-4 -5.3e-4h-12.32v-14.225c0-9.6161 5.2187-17.899 13.01-22.201l-3.4169-8.5315zm14.932 1.1798-11.553 8.9067 2.5632 5.5745c12.633 1.5014 22.277 12.091 22.277 25.158v14.225l16.081 5.29e-4v-14.225c0-18.689-12.371-34.47-29.368-39.639z" fill="#737680" style="font-feature-settings:normal;font-variant-alternates:normal;font-variant-caps:normal;font-variant-east-asian:normal;font-variant-ligatures:normal;font-variant-numeric:normal;font-variant-position:normal;font-variation-settings:normal;inline-size:0;isolation:auto;mix-blend-mode:normal;shape-margin:0;shape-padding:0;text-decoration-color:#000000;text-decoration-line:none;text-decoration-style:solid;text-indent:0;text-orientation:mixed;text-transform:none;white-space:normal"/><path d="m64.934 10.893c-21.612 1.4104-38.702 19.378-38.702 41.348v2.6459c0-20.678 15.14-37.809 34.94-40.928zm14.932 1.1798-2.4692 1.8988c25.611 6.8624 31.476 25.874 31.838 40.387v-2.6459c0-18.689-12.371-34.47-29.368-39.639zm-37.549 54.393v5.16e-4h12.32l-5.16e-4 -5.16e-4z" fill="#fff" opacity=".2" style="font-feature-settings:normal;font-variant-alternates:normal;font-variant-caps:normal;font-variant-east-asian:normal;font-variant-ligatures:normal;font-variant-numeric:normal;font-variant-position:normal;font-variation-settings:normal;inline-size:0;isolation:auto;mix-blend-mode:normal;shape-margin:0;shape-padding:0;text-decoration-color:#000000;text-decoration-line:none;text-decoration-style:solid;text-indent:0;text-orientation:mixed;text-transform:none;white-space:normal"/><path d="m69.211 20.286-0.89816 0.69248 2.5632 5.5745c12.633 1.5014 22.277 12.091 22.277 25.158v-2.6459c0-13.067-9.6442-23.657-22.277-25.158zm-14.744 7.607c-7.3125 4.4238-12.15 12.443-12.15 21.701v2.6459c0-9.6161 5.2187-17.899 13.01-22.201zm38.686 35.397v2.6459l16.081 5.16e-4v-2.6459zm-66.921 0.52918v2.6459h28.405l-5.15e-4 -5.16e-4h-12.32v-2.6454z" fill="#272a34" opacity=".5" style="font-feature-settings:normal;font-variant-alternates:normal;font-variant-caps:normal;font-variant-east-asian:normal;font-variant-ligatures:normal;font-variant-numeric:normal;font-variant-position:normal;font-variation-settings:normal;inline-size:0;isolation:auto;mix-blend-mode:normal;shape-margin:0;shape-padding:0;text-decoration-color:#000000;text-decoration-line:none;text-decoration-style:solid;text-indent:0;text-orientation:mixed;text-transform:none;white-space:normal"/><path d="m71.039 63.29 9.0121 12.629-25.505 23.699 8.2023 10.078-5.7176 11.699h36.119v3e-3h16.084v-3e-3h2.3911c4.0106 0 7.2736-3.335 7.348-7.345v-43.409c0-4.0106-3.3324-7.3506-7.348-7.3506h-2.3911l-16.081-5.29e-4zm-47.195 0.52918c-4.0156 0-7.3512 3.3366-7.3512 7.3512v43.409c0 4.0146 3.3406 7.345 7.3512 7.345h2.388v3e-3h16.084v-3e-3h-1.6878l5.7176-11.699-8.2023-10.077 25.505-23.7-9.0116-12.628h-28.405z" fill="#0ca15e" style="font-feature-settings:normal;font-variant-alternates:normal;font-variant-caps:normal;font-variant-east-asian:normal;font-variant-ligatures:normal;font-variant-numeric:normal;font-variant-position:normal;font-variation-settings:normal;inline-size:0;isolation:auto;mix-blend-mode:normal;shape-margin:0;shape-padding:0;text-decoration-color:#000000;text-decoration-line:none;text-decoration-style:solid;text-indent:0;text-orientation:mixed;text-transform:none;white-space:normal"/><path d="m42.894 81.742c-8.1565 0-13.717 4.2635-13.717 10.752 0 10.937 15.801 7.8329 15.801 12.792 0 1.483-1.3889 2.3172-4.4939 2.3172-2.9197 0-8.6668-0.16155-11.865-1.5055v6.1852c3.2904 1.483 7.5535 2.5505 11.539 2.5505 8.5273 0 13.256-4.078 13.256-10.52 0-11.818-15.897-8.25-15.897-13.023 0-1.622 1.8069-2.5029 4.9583-2.5029 2.5953 0 5.4704 0.46398 7.7413 1.2518l2.2243-6.3951v-6.1852c-2.4137-0.81314-6.8835 4.284-9.5473 4.284zm27.481 0c-8.1565 0-13.718 4.2635-13.718 10.752 0 3.1537 1.3333 5.118 3.2036 6.4668 4.6158 3.3288 12.601 2.7959 12.601 6.3249 0 1.483-1.3912 2.3172-4.4962 2.3172-2.9197 0-6.4425-0.55643-9.6402-1.9004l-2.2243 0.39488v6.1852c1.0747 0.48437 2.2743 0.89925 3.5131 1.2722 2.5543 0.76898 5.3436 1.2782 8.0275 1.2782 8.5273 0 13.254-4.078 13.254-10.52 0-9.8567-11.029-9.0228-14.698-11.24-0.73003-0.44112-1.196-0.99131-1.196-1.7834 0-1.622 1.8061-2.5029 4.9575-2.5029 0.25428 0 0.52342 0.0562 0.78221 0.0649 2.3824 0.0807 4.9085 0.47625 6.9568 1.1869l2.2251-6.3951 0.0096-6.2366c-2.1898-0.62597-7.2378 4.3354-9.5569 4.3354zm15.154 0.46434v32.163h21.319v-7.092h-13.301v-25.071z" opacity=".5"/><path d="m42.894 75.557c-8.1565 0-13.717 4.2635-13.717 10.752 0 10.937 15.801 7.8329 15.801 12.792 0 1.483-1.3889 2.3172-4.4939 2.3172-2.9197 0-6.4417-0.55643-9.6394-1.9004l-2.2251 6.5801c3.2904 1.483 7.5535 2.5505 11.539 2.5505 8.5273 0 13.256-4.078 13.256-10.52 0-11.818-15.897-8.25-15.897-13.023 0-1.622 1.8069-2.5029 4.9583-2.5029 2.5953 0 5.4704 0.46398 7.7413 1.2518l2.2243-6.3951c-2.6879-1.2049-6.2569-1.9012-9.5473-1.9012zm27.481 0c-8.1565 0-13.718 4.2635-13.718 10.752 0 3.1537 1.3333 5.118 3.2036 6.4668 4.6158 3.3288 12.601 2.7959 12.601 6.3249 0 1.483-1.3912 2.3172-4.4962 2.3172-2.9197 0-6.4425-0.55643-9.6402-1.9004l-1.125 3.3281-1.0993 3.2519c1.0747 0.48435 2.2743 0.89925 3.5131 1.2722 2.5543 0.76897 5.3436 1.2782 8.0275 1.2782 8.5273 0 13.254-4.078 13.254-10.52 0-9.8567-11.029-9.0228-14.698-11.24-0.73003-0.44113-1.196-0.99131-1.196-1.7834 0-1.622 1.8061-2.5029 4.9575-2.5029 0.25428 0 0.52342 0.0562 0.78221 0.0649 2.3824 0.0807 4.9085 0.47624 6.9568 1.1869l2.2251-6.3951c-0.79346-0.35569-1.6771-0.65142-2.5943-0.91359-2.1898-0.62596-4.6339-0.98757-6.953-0.98757zm15.154 0.46434v32.163h21.319v-7.092h-13.301v-25.071z" fill="#fff"/><path transform="scale(.26459)" d="m296.8 45.518-36.523 28.154-2.0957 5.6152 43.664-33.658-5.0449-0.11133z" fill="#4c4f5c"/><path transform="scale(.26459)" d="m245.41 41.17-49.225 40.115 1.8106 4.5234 46.775-38.117 0.63867-6.5215z" fill="#4c4f5c"/><path transform="scale(.26459)" d="m268.49 239.2 7.1367 10h76.439l60.777 2e-3h9.0371c15.177 0 27.771 12.623 27.771 27.781v-10c0-15.158-12.595-27.781-27.771-27.781h-9.0371l-60.777-2e-3zm-178.37 2c-15.177 0-27.783 12.61-27.783 27.783v10c0-15.173 12.607-27.783 27.783-27.783l9.0254 6e-3h114.49l-7.1324-10h-107.35z" fill="#fff" opacity=".3" stroke-width="3.7794" style="font-feature-settings:normal;font-variant-alternates:normal;font-variant-caps:normal;font-variant-east-asian:normal;font-variant-ligatures:normal;font-variant-numeric:normal;font-variant-position:normal;font-variation-settings:normal;inline-size:0;isolation:auto;mix-blend-mode:normal;shape-margin:0;shape-padding:0;text-decoration-color:#000000;text-decoration-line:none;text-decoration-style:solid;text-indent:0;text-orientation:mixed;text-transform:none;white-space:normal"/></svg>
