<svg version="1.1" viewBox="0 0 512 512" xmlns="http://www.w3.org/2000/svg"><g opacity=".5" shape-rendering="auto"><path d="m235.2 289.04c-1.0149-2.8e-4 -1.9344 0.59837-2.3448 1.5266l-78.291 171.98c-0.74794 1.6943 0.49279 3.5982 2.3448 3.5981h21.203c0.96899 5.1e-4 1.8554-0.5455 2.2909-1.4111l2.4757-4.9245 70.467-27.884 76.593 29.526 1.6498 3.2824c0.43549 0.86561 1.3219 1.4116 2.2909 1.4111h21.201c1.8533 7.1e-4 3.0947-1.9052 2.3448-3.6l-78.291-171.98c-0.41039-0.92826-1.3299-1.5269-2.3448-1.5266h-20.795zm13.455 30.785h14.681c0.96829 2.3e-4 1.8538 0.54612 2.289 1.4111l5.5367 11.01c0.85604 1.7039-0.3821 3.7127-2.289 3.7136h-25.754c-1.9069-9.2e-4 -3.145-2.0096-2.289-3.7136l5.5367-11.01c0.43517-0.865 1.3207-1.4109 2.289-1.4111zm-9.102 22.02h32.885c1.0292-1.1e-4 1.9587 0.61549 2.3602 1.5632l5.3557 12.642c0.71478 1.6898-0.5255 3.5613-2.3602 3.5615h-43.596c-1.8347-1.9e-4 -3.075-1.8718-2.3602-3.5615l5.3557-12.642c0.40149-0.94771 1.331-1.5633 2.3602-1.5632zm-10.892 23.652h54.67c0.96829 2.2e-4 1.8538 0.54612 2.289 1.4111l6.1527 12.232c0.85846 1.7052-0.38182 3.7165-2.2909 3.7155h-66.971c-1.9091 9.6e-4 -3.1494-2.0103-2.2909-3.7155l6.1527-12.232c0.43517-0.865 1.3207-1.4109 2.289-1.4111zm-11.687 23.242h78.045c0.96899-5.1e-4 1.8554 0.5455 2.2909 1.4111l8.8171 17.534c0.85604 1.7039-0.38208 3.7127-2.289 3.7136h-95.683c-1.9077 5.3e-4 -3.1473-2.0089-2.2909-3.7136l8.819-17.534c0.43548-0.86561 1.3219-1.4116 2.2909-1.4111zm-3.0321 28.544h78.807c2.9937 4e-3 3.5532 4.2607 0.66224 5.0381l-39.402 10.559c-0.43509 0.11673-0.89326 0.11673-1.3283 0l-39.402-10.559c-2.891-0.77734-2.3314-5.0341 0.66225-5.0381zm99.183 7.4098c0.95995 9e-3 1.8345 0.55352 2.2659 1.4111l11.137 22.147c0.99278 1.9759-0.81477 4.1973-2.9512 3.6269l-46.896-12.565c-2.5332-0.6785-2.5332-4.2729 0-4.9514l35.757-9.5814c0.22411-0.0598 0.45531-0.0886 0.68727-0.0866zm-114.85 1.2494c0.22302 6.8e-4 0.44499 0.0305 0.66031 0.0886l31.085 8.3281c2.5332 0.67849 2.5332 4.2729 0 4.9514l-40.767 10.923c-2.1359 0.57122-3.9444-1.6487-2.9532-3.625l9.6815-19.255c0.4358-0.86623 1.3232-1.4121 2.2928-1.4111z" color="#000000" color-rendering="auto" dominant-baseline="auto" image-rendering="auto" solid-color="#000000" stop-color="#000000" style="font-feature-settings:normal;font-variant-alternates:normal;font-variant-caps:normal;font-variant-east-asian:normal;font-variant-ligatures:normal;font-variant-numeric:normal;font-variant-position:normal;font-variation-settings:normal;inline-size:0;isolation:auto;mix-blend-mode:normal;shape-margin:0;shape-padding:0;text-decoration-color:#000000;text-decoration-line:none;text-decoration-style:solid;text-indent:0;text-orientation:mixed;text-transform:none;white-space:normal"/></g><g transform="matrix(1.0624 0 0 1.0624 10.398 441.07)"><g transform="matrix(1.3333,0,0,1.3333,-24.83,-475.56)"><path d="m251.65 84.127-10.758 7.745v13.771c32.512 16.238 53.07 49.441 53.109 85.781-0.015 35.068-22.541 55.241-53.086 72.057v13.771l10.688 21.375c40.637-20.289 66.336-61.781 66.398-107.2-0.0156-45.445-25.703-86.98-66.352-107.3zm-119.25 0.09375c-40.637 20.289-66.336 61.781-66.398 107.2 0.01563 45.445 25.703 86.98 66.352 107.3l10.758-21.516v-13.771c-30.526-16.807-53.071-36.962-53.109-72.01 0.0156-36.352 20.566-69.578 53.086-85.828v-13.771zm97.781 42.82-10.734 7.721v13.771c16.258 8.1172 26.535 24.719 26.555 42.891-7e-3 16.613-12.644 20.427-26.531 29.143v13.771l10.688 21.398c24.383-12.172 39.805-37.062 39.844-64.312-0.0117-27.27-15.426-52.195-39.82-64.383zm-76.336 0.0703c-24.383 12.172-39.805 37.062-39.844 64.312 0.0117 27.27 15.426 52.195 39.82 64.383l10.734-21.492v-13.771c-14.23-8.6409-26.536-12.282-26.555-29.12 8e-3 -18.176 10.277-34.785 26.531-42.914v-13.771zm38.156 34.312c-16.57 0-30 13.43-30 30 0 12.302 8.3624 22.289 18 27.498 7.0379 3.8037 16.963 3.8002 24-5e-3 9.6365-5.2108 18-15.196 18-27.498 0-16.57-13.43-30-30-30z" fill="#0b9155"/><path d="m251.65 84.127-10.758 7.745v13.771c32.512 16.238 53.07 49.441 53.109 85.781-0.015 35.068-22.541 55.241-53.086 72.057v13.771l10.688 21.375c40.637-20.289 66.336-61.781 66.398-107.2-0.0156-45.445-25.703-86.98-66.352-107.3zm-119.25 0.09375c-40.637 20.289-66.336 61.781-66.398 107.2 0.01563 45.445 25.703 86.98 66.352 107.3l10.758-21.516v-13.771c-30.526-16.807-53.071-36.962-53.109-72.01 0.0156-36.352 20.566-69.578 53.086-85.828v-13.771zm97.781 42.82-10.734 7.721v13.771c16.258 8.1172 26.535 24.719 26.555 42.891-7e-3 16.613-12.644 20.427-26.531 29.143v13.771l10.688 21.398c24.383-12.172 39.805-37.062 39.844-64.312-0.0117-27.27-15.426-52.195-39.82-64.383zm-76.336 0.0703c-24.383 12.172-39.805 37.062-39.844 64.312 0.0117 27.27 15.426 52.195 39.82 64.383l10.734-21.492v-13.771c-14.23-8.6409-26.536-12.282-26.555-29.12 8e-3 -18.176 10.277-34.785 26.531-42.914v-13.771zm38.156 34.312c-16.57 0-30 13.43-30 30 0 12.302 8.3624 22.289 18 27.498 7.0379 3.8037 16.963 3.8002 24-5e-3 9.6365-5.2108 18-15.196 18-27.498 0-16.57-13.43-30-30-30z" opacity=".3"/><path d="m251.65 70.356-10.758 21.516c32.512 16.238 53.07 49.441 53.109 85.781-0.0156 36.352-20.566 69.578-53.086 85.828l10.688 21.375c40.637-20.289 66.336-61.781 66.398-107.2-0.0156-45.445-25.703-86.98-66.352-107.3zm-119.25 0.09375c-40.637 20.289-66.336 61.781-66.398 107.2 0.01563 45.445 25.703 86.98 66.352 107.3l10.758-21.516c-32.512-16.238-53.07-49.441-53.109-85.781 0.0156-36.352 20.566-69.578 53.086-85.828zm97.781 42.82-10.734 21.492c16.258 8.1172 26.535 24.719 26.555 42.891-8e-3 18.176-10.277 34.785-26.531 42.914l10.688 21.398c24.383-12.172 39.805-37.062 39.844-64.312-0.0117-27.27-15.426-52.195-39.82-64.383zm-76.336 0.0703c-24.383 12.172-39.805 37.062-39.844 64.312 0.0117 27.27 15.426 52.195 39.82 64.383l10.734-21.492c-16.258-8.1171-26.535-24.719-26.555-42.891 8e-3 -18.176 10.277-34.785 26.531-42.914zm38.156 34.312c-16.57 0-30 13.43-30 30 0 12.302 8.3624 22.289 18 27.498 7.0379 3.8037 16.963 3.8002 24-5e-3 9.6365-5.2108 18-15.196 18-27.498 0-16.57-13.43-30-30-30z" fill="#0b9155"/></g></g><path d="m235.2 279.04c-1.2379-1.7e-4 -2.45 0.18664-3.6035 0.53516-0.2874 0.0868-0.57199 0.18228-0.85157 0.28906-7.7e-4 2.9e-4 -1e-3 2e-3 -2e-3 2e-3 -1.1205 0.42822-2.1738 1.0128-3.127 1.7344-7.3e-4 5.4e-4 -1e-3 1e-3 -2e-3 2e-3 -0.47721 0.36144-0.92883 0.75678-1.3516 1.1836-0.21021 0.21225-0.41418 0.43276-0.60937 0.66016-6e-4 7e-4 -1e-3 1e-3 -2e-3 2e-3 -0.19546 0.22782-0.38314 0.46273-0.5625 0.70508-5.4e-4 7.4e-4 -1e-3 1e-3 -2e-3 2e-3 -0.17932 0.2424-0.34954 0.49179-0.51172 0.74805-4.8e-4 7.7e-4 -1e-3 1e-3 -2e-3 2e-3 -0.16214 0.25632-0.31503 0.51957-0.45899 0.78907-4.2e-4 7.8e-4 -2e-3 1e-3 -2e-3 2e-3 -0.14392 0.26955-0.27764 0.54606-0.40234 0.82812-3.6e-4 8e-4 -2e-3 1e-3 -2e-3 2e-3l-30.266 68.42-48.023 108.55v4e-3c-5.9e-4 1e-3 -1e-3 3e-3 -2e-3 4e-3l-2e-3 2e-3c-0.0428 0.097-0.0773 0.19553-0.11719 0.29297-0.0615 0.15011-0.12698 0.30004-0.18164 0.45117-9e-4 2e-3 -1e-3 5e-3 -2e-3 8e-3 -0.09 0.24938-0.17227 0.5003-0.24414 0.75195-5.6e-4 2e-3 -1e-3 4e-3 -2e-3 6e-3 -0.0719 0.25223-0.13339 0.504-0.1875 0.75781-5.6e-4 3e-3 -1e-3 5e-3 -2e-3 8e-3 -0.0538 0.2532-0.0982 0.50763-0.13477 0.76172-0.0235 0.16289-0.0382 0.32525-0.0547 0.48828-0.01 0.0943-0.024 0.18889-0.0312 0.28321-1.4e-4 2e-3 1.5e-4 4e-3 0 6e-3 -0.0195 0.25565-0.0302 0.51044-0.0332 0.76562-1e-5 1e-3 2e-5 3e-3 0 4e-3 -6e-3 0.51098 0.0204 1.0204 0.0781 1.5254 2.2e-4 2e-3 -2.3e-4 4e-3 0 6e-3 0.058 0.50493 0.14767 1.0047 0.26562 1.498 0.0827 0.34607 0.19786 0.68341 0.30859 1.0215 0.0478 0.14595 0.08 0.29719 0.13282 0.4414 4.9e-4 1e-3 1e-3 3e-3 2e-3 4e-3 0.1752 0.47746 0.37718 0.94371 0.60547 1.3984 2.7e-4 5.3e-4 -2.7e-4 1e-3 0 2e-3 0.22795 0.45391 0.48252 0.89458 0.75976 1.3203 0.17775 0.27297 0.38132 0.52759 0.57813 0.78711 0.11116 0.14659 0.20917 0.30338 0.32617 0.44532 5.8e-4 7e-4 1e-3 1e-3 2e-3 2e-3 0.3235 0.39228 0.66751 0.76618 1.0332 1.1191 6.6e-4 6.4e-4 1e-3 1e-3 2e-3 2e-3 0.36576 0.35288 0.75192 0.68418 1.1562 0.99219 7.3e-4 5.6e-4 1e-3 1e-3 2e-3 2e-3 0.80954 0.61643 1.6924 1.1377 2.6348 1.541 5.4e-4 2.3e-4 1e-3 -2.3e-4 2e-3 0 1.1786 0.50415 2.4497 0.82527 3.7852 0.91797 0.2671 0.0186 0.53657 0.0273 0.80859 0.0273h2e-3 41.201c0.88458 4e-5 1.756-0.0943 2.6035-0.27539 0.5667-0.12097 1.1213-0.2803 1.6621-0.47656 0.21769-0.079 0.43189-0.16713 0.64453-0.25781 0.051-0.0217 0.10362-0.0401 0.1543-0.0625 1e-3 -5.9e-4 3e-3 -1e-3 4e-3 -2e-3 0.26086-0.11543 0.51736-0.24043 0.76953-0.37304 1e-3 -6.8e-4 3e-3 -1e-3 4e-3 -2e-3 0.45538-0.23967 0.89356-0.5096 1.3164-0.80273 0.047-0.0326 0.096-0.0625 0.14258-0.0957 7.4e-4 -5.4e-4 1e-3 -1e-3 2e-3 -2e-3 0.0306-0.0218 0.0594-0.0462 0.0898-0.0684 0.66443-0.48326 1.2844-1.0278 1.8457-1.6348 0.78258-0.8464 1.4552-1.8076 1.9863-2.8633l2e-3 -4e-3 0.0937-0.1875 46.564-40.789 46.562 40.789 0.0937 0.1875 2e-3 4e-3c0.26565 0.52802 0.56613 1.0318 0.89843 1.5098 0.49849 0.71712 1.0678 1.3753 1.6953 1.9668 0.20871 0.19673 0.42338 0.38665 0.64453 0.56836 0.22092 0.18147 0.44923 0.35556 0.68164 0.52148 1e-3 8.4e-4 3e-3 1e-3 4e-3 2e-3 0.4651 0.33174 0.95149 0.63236 1.457 0.89843 1e-3 6.8e-4 3e-3 1e-3 4e-3 2e-3 0.25177 0.13241 0.50911 0.25774 0.76953 0.37304 2e-3 8.3e-4 4e-3 1e-3 6e-3 2e-3 0.52263 0.23096 1.0633 0.42729 1.6152 0.58593 1e-3 3.5e-4 3e-3 -3.4e-4 4e-3 0 0.27764 0.0797 0.55814 0.15039 0.8418 0.21094 0.28114 0.06 0.56346 0.11171 0.84961 0.15234 2e-3 2.8e-4 4e-3 -2.7e-4 6e-3 0 0.28618 0.0405 0.57496 0.0712 0.86523 0.0918 2e-3 1.4e-4 4e-3 -1.4e-4 6e-3 0 0.29031 0.0204 0.58346 0.0313 0.87696 0.0312h6e-3 41.197c0.54359-7e-5 1.0785-0.0386 1.6016-0.11133 0.2611-0.0363 0.52009-0.0814 0.77539-0.13476 0.25601-0.0536 0.51004-0.1155 0.75977-0.18555 1.1991-0.3364 2.31-0.87722 3.334-1.5469 0.68143-0.44561 1.3306-0.93717 1.916-1.502 6.6e-4 -6.4e-4 1e-3 -1e-3 2e-3 -2e-3 0.36569-0.35296 0.71166-0.72686 1.0352-1.1191 5.8e-4 -7e-4 1e-3 -1e-3 2e-3 -2e-3 0.3231-0.39195 0.62495-0.80286 0.90235-1.2285 7.9e-4 -1e-3 1e-3 -3e-3 2e-3 -4e-3 0.27725-0.42573 0.52986-0.8664 0.75781-1.3203 6.5e-4 -1e-3 1e-3 -3e-3 2e-3 -4e-3 0.2278-0.45399 0.43057-0.91986 0.60546-1.3965 5e-4 -1e-3 1e-3 -3e-3 2e-3 -4e-3 0.17453-0.47611 0.32129-0.96384 0.43945-1.457 4.7e-4 -2e-3 1e-3 -4e-3 2e-3 -6e-3 0.11793-0.49326 0.20572-0.99322 0.26368-1.498 0.0493-0.42937 0.0648-0.86283 0.0684-1.2969 6.4e-4 -0.0784 0.0126-0.15587 0.0117-0.23437-2e-5 -2e-3 3e-5 -4e-3 0-6e-3 -3.9e-4 -0.0332-3e-3 -0.0664-4e-3 -0.0996-8e-3 -0.37695-0.038-0.75343-0.082-1.1309-0.0118-0.10101-0.0187-0.20179-0.0332-0.30274-0.0663-0.4629-0.16497-0.92377-0.28906-1.3828-0.0137-0.0507-0.0227-0.10171-0.0371-0.15234-5.6e-4 -2e-3 -1e-3 -4e-3 -2e-3 -6e-3 -0.0728-0.25489-0.15472-0.50719-0.2461-0.75977-0.0901-0.24919-0.18818-0.49788-0.29687-0.74414l-4e-3 -6e-3v-4e-3l-48.023-108.55-30.268-68.422c-0.28917-0.65405-0.63656-1.271-1.0254-1.8555-0.11525-0.17312-0.23026-0.34716-0.35352-0.51368-3.2e-4 -4.3e-4 3.2e-4 -2e-3 0-2e-3 -0.17964-0.24262-0.36867-0.47702-0.56445-0.70508-3.3e-4 -3.8e-4 3.3e-4 -2e-3 0-2e-3 -0.39161-0.45623-0.81564-0.88348-1.2656-1.2773-6.9e-4 -6.1e-4 -1e-3 -1e-3 -2e-3 -2e-3 -0.22469-0.19658-0.45567-0.38443-0.69336-0.56445-0.23919-0.18105-0.48504-0.35396-0.73633-0.51758-2.0039-1.3054-4.3755-2.0453-6.8496-2.0449h-20.795zm20.793 24.221h2e-3l13.785 2e-3c2.0499 8e-5 3.9941 0.76537 5.4883 2.0723 0.29843 0.26115 0.58014 0.54317 0.83985 0.8457 3e-4 3.6e-4 -3.1e-4 2e-3 0 2e-3 0.25961 0.30254 0.49945 0.62452 0.71484 0.96484 0.21601 0.34111 0.40821 0.7007 0.57422 1.0762l11.992 27.109h-66.791l11.992-27.109c2.3e-4 -5.3e-4 -2.4e-4 -1e-3 0-2e-3 1.3267-2.9989 4.3379-4.9588 7.6172-4.959zm-44.377 56.9h88.756l12.184 27.539h-113.12zm-23.166 52.367h56.967l-27.797 24.719h-27.314c-0.72097 3e-5 -1.4184-0.0997-2.0801-0.28516-5.9e-4 -1.6e-4 -1e-3 1.7e-4 -2e-3 0-0.553-0.15525-1.075-0.38252-1.5742-0.64843-0.0986-0.0525-0.20258-0.0959-0.29883-0.15235-0.0573-0.0336-0.10957-0.0744-0.16601-0.10937-0.51736-0.32034-1.0022-0.68948-1.4395-1.1113-0.48566-0.4685-0.91842-0.99288-1.2871-1.5586-1.4748-2.2629-1.9368-5.1865-0.77148-7.8262l2e-3 -4e-3zm78.121 0h56.967l5.7617 13.023 2e-3 4e-3c0.72829 1.6498 0.82075 3.4101 0.42774 5.0508-0.0784 0.32688-0.17528 0.64927-0.29102 0.96484-4.9e-4 1e-3 -1e-3 3e-3 -2e-3 4e-3 -0.2325 0.63346-0.53951 1.2409-0.9082 1.8066-0.18356 0.2814-0.38201 0.55333-0.59571 0.8125-5.8e-4 7e-4 -1e-3 1e-3 -2e-3 2e-3 -0.21435 0.25979-0.44329 0.50841-0.68555 0.74219-6.6e-4 6.4e-4 -1e-3 1e-3 -2e-3 2e-3 -0.0339 0.0327-0.073 0.0596-0.10742 0.0918-0.21211 0.19812-0.4292 0.39055-0.66016 0.5664-0.26819 0.20419-0.54652 0.39175-0.83789 0.5625-1.1677 0.68499-2.5108 1.0858-3.9551 1.0859h-27.314z" color="#000000" color-rendering="auto" dominant-baseline="auto" fill="#fff" image-rendering="auto" shape-rendering="auto" solid-color="#000000" stop-color="#000000" style="font-feature-settings:normal;font-variant-alternates:normal;font-variant-caps:normal;font-variant-east-asian:normal;font-variant-ligatures:normal;font-variant-numeric:normal;font-variant-position:normal;font-variation-settings:normal;inline-size:0;isolation:auto;mix-blend-mode:normal;shape-margin:0;shape-padding:0;text-decoration-color:#000000;text-decoration-line:none;text-decoration-style:solid;text-indent:0;text-orientation:mixed;text-transform:none;white-space:normal"/><path d="m256 423.25-46.564 40.789-0.0937 0.1875-2e-3 4e-3c-0.53115 1.0557-1.2038 2.0169-1.9863 2.8633-0.56125 0.60701-1.1813 1.1515-1.8457 1.6348-0.0304 0.0222-0.0592 0.0466-0.0898 0.0684l-2e-3 2e-3c-0.0466 0.0332-0.0956 0.0631-0.14258 0.0957-0.42285 0.29313-0.86103 0.56307-1.3164 0.80274-9.9e-4 1e-3 -3e-3 1e-3 -4e-3 2e-3 -0.25217 0.13261-0.50867 0.25762-0.76953 0.37305-1e-3 1e-3 -3e-3 1e-3 -4e-3 2e-3 -0.0507 0.0224-0.1033 0.0408-0.1543 0.0625-0.21264 0.0907-0.42684 0.17881-0.64453 0.25781-0.54078 0.19626-1.0954 0.35559-1.6621 0.47656-0.84746 0.18109-1.7189 0.27543-2.6035 0.27539h-41.203c-0.27202 0-0.54149-9e-3 -0.80859-0.0273-1.3354-0.0927-2.6066-0.41382-3.7852-0.91797h-2e-3c-0.9424-0.4033-1.8252-0.92458-2.6348-1.541l-2e-3 -2e-3c-0.40433-0.30801-0.79049-0.6393-1.1562-0.99218-1e-3 -1e-3 -3e-3 -1e-3 -4e-3 -2e-3 -0.36568-0.35296-0.7097-0.72686-1.0332-1.1191l-2e-3 -2e-3c-0.117-0.14194-0.21501-0.29872-0.32617-0.44531-0.19681-0.25952-0.40038-0.51414-0.57813-0.78711-0.27724-0.42573-0.53181-0.86641-0.75976-1.3203v-2e-3c-0.11442-0.2279-0.2016-0.46752-0.30274-0.70117l-0.0937 0.21094v4e-3c-5.9e-4 1e-3 -9.5e-4 3e-3 -2e-3 4e-3l-2e-3 2e-3c-0.0428 0.097-0.0773 0.19553-0.11719 0.29297-0.0615 0.15011-0.12698 0.30004-0.18164 0.45117-9e-4 2e-3 -3e-3 5e-3 -4e-3 8e-3 -0.09 0.24938-0.17227 0.5003-0.24414 0.75195-5.6e-4 2e-3 -9.5e-4 4e-3 -2e-3 6e-3 -0.0719 0.25223-0.13339 0.504-0.1875 0.75781-5.6e-4 3e-3 -9.6e-4 7e-3 -2e-3 0.01-0.0538 0.2532-0.0982 0.50762-0.13476 0.76172-0.0235 0.16289-0.0382 0.32525-0.0547 0.48828-0.01 0.0943-0.0241 0.18888-0.0312 0.2832-1.4e-4 2e-3 1.5e-4 4e-3 0 6e-3 -0.0195 0.25565-0.0302 0.51044-0.0332 0.76562-1e-5 1e-3 2e-5 3e-3 0 4e-3 -6e-3 0.51098 0.0204 1.0204 0.0781 1.5254 2.2e-4 2e-3 -2.3e-4 4e-3 0 6e-3 0.058 0.50493 0.14768 1.0047 0.26563 1.498 0.0827 0.34607 0.19786 0.6834 0.30859 1.0215 0.0478 0.14595 0.08 0.2972 0.13281 0.44141 4.9e-4 1e-3 9.6e-4 3e-3 2e-3 4e-3 0.1752 0.47746 0.37718 0.94371 0.60547 1.3984v2e-3c0.22795 0.45391 0.48252 0.89459 0.75976 1.3203 0.17775 0.27297 0.38132 0.52759 0.57813 0.78711 0.11116 0.14659 0.20917 0.30337 0.32617 0.44531l2e-3 2e-3c0.3235 0.39228 0.66752 0.76618 1.0332 1.1191 6.7e-4 6.4e-4 3e-3 9.6e-4 4e-3 2e-3 0.36576 0.35288 0.75192 0.68417 1.1562 0.99218l2e-3 2e-3c0.80954 0.61643 1.6924 1.1377 2.6348 1.541h2e-3c1.1786 0.50415 2.4497 0.82527 3.7852 0.91797 0.2671 0.0186 0.53657 0.0273 0.80859 0.0273h41.203c0.88458 4e-5 1.756-0.0943 2.6035-0.27539 0.5667-0.12097 1.1213-0.2803 1.6621-0.47656 0.21769-0.079 0.43189-0.16713 0.64453-0.25781 0.051-0.0217 0.10362-0.0401 0.1543-0.0625 1e-3 -5.9e-4 3e-3 -9.5e-4 4e-3 -2e-3 0.26086-0.11543 0.51736-0.24044 0.76953-0.37305 1e-3 -6.8e-4 3e-3 -9.5e-4 4e-3 -2e-3 0.45538-0.23967 0.89356-0.50961 1.3164-0.80274 0.047-0.0326 0.096-0.0625 0.14258-0.0957l2e-3 -2e-3c0.0306-0.0218 0.0594-0.0462 0.0898-0.0684 0.66443-0.48326 1.2844-1.0278 1.8457-1.6348 0.78258-0.8464 1.4552-1.8076 1.9863-2.8633l2e-3 -4e-3 0.0937-0.1875 46.564-40.789 46.562 40.789 0.0937 0.1875 2e-3 4e-3c0.26565 0.52802 0.56613 1.0318 0.89843 1.5098 0.49849 0.71712 1.0678 1.3753 1.6953 1.9668 0.20871 0.19673 0.42338 0.38665 0.64453 0.56836 0.22092 0.18147 0.44923 0.35557 0.68164 0.52149 1e-3 8.3e-4 3e-3 9.5e-4 4e-3 2e-3 0.46511 0.33174 0.95149 0.63237 1.457 0.89844 1e-3 6.8e-4 3e-3 9.5e-4 4e-3 2e-3 0.25177 0.13241 0.50911 0.25775 0.76953 0.37305 2e-3 8.3e-4 4e-3 9.5e-4 6e-3 2e-3 0.52263 0.23096 1.0633 0.4273 1.6152 0.58594 1e-3 3.5e-4 3e-3 -3.4e-4 4e-3 0 0.27764 0.0797 0.55814 0.15038 0.8418 0.21093 0.28114 0.06 0.56346 0.11172 0.84961 0.15235 2e-3 2.8e-4 4e-3 -2.7e-4 6e-3 0 0.28618 0.0405 0.57496 0.0712 0.86523 0.0918 2e-3 1.4e-4 4e-3 -1.4e-4 6e-3 0 0.29031 0.0204 0.58346 0.0313 0.87696 0.0312h41.203c0.54359-7e-5 1.0785-0.0386 1.6016-0.11132 0.2611-0.0363 0.52009-0.0814 0.77539-0.13477 0.25601-0.0536 0.51004-0.1155 0.75977-0.18555 1.1991-0.3364 2.31-0.87722 3.334-1.5469 0.68143-0.44561 1.3306-0.93716 1.916-1.502l2e-3 -2e-3c0.36569-0.35296 0.71166-0.72686 1.0352-1.1191l2e-3 -2e-3c0.3231-0.39195 0.62495-0.80286 0.90235-1.2285 7.9e-4 -1e-3 9.5e-4 -3e-3 2e-3 -4e-3 0.27725-0.42573 0.52986-0.86641 0.75781-1.3203 6.5e-4 -1e-3 9.5e-4 -3e-3 2e-3 -4e-3 0.2278-0.45399 0.43057-0.91986 0.60546-1.3965 5e-4 -1e-3 9.6e-4 -3e-3 2e-3 -4e-3 0.17453-0.47611 0.32129-0.96384 0.43945-1.457 4.7e-4 -2e-3 9.5e-4 -4e-3 2e-3 -6e-3 0.11793-0.49326 0.20571-0.99323 0.26368-1.498 0.0493-0.42937 0.0648-0.86282 0.0684-1.2969 6.4e-4 -0.0784 0.0126-0.15587 0.0117-0.23437-2e-5 -2e-3 3e-5 -6e-3 0-8e-3 -3.9e-4 -0.0332-3e-3 -0.0664-4e-3 -0.0996-8e-3 -0.37695-0.038-0.75343-0.082-1.1309-0.0118-0.10101-0.0187-0.20179-0.0332-0.30274-0.0663-0.4629-0.16497-0.92377-0.28906-1.3828-0.0137-0.0507-0.0227-0.10171-0.0371-0.15234-5.6e-4 -2e-3 -9.5e-4 -4e-3 -2e-3 -6e-3 -0.0728-0.25489-0.15472-0.50719-0.2461-0.75977-0.0901-0.24919-0.18818-0.49788-0.29687-0.74414l-4e-3 -6e-3v-4e-3l-0.0937-0.21289c-0.10143 0.23388-0.19027 0.47314-0.30468 0.70117-1e-3 1e-3 -1e-3 3e-3 -2e-3 4e-3 -0.22795 0.45391-0.48056 0.89459-0.75781 1.3203-1e-3 1e-3 -1e-3 3e-3 -2e-3 4e-3 -0.2774 0.42566-0.57925 0.83657-0.90235 1.2285l-2e-3 2e-3c-0.3235 0.39228-0.66947 0.76618-1.0352 1.1191l-2e-3 2e-3c-0.58539 0.56479-1.2346 1.0563-1.916 1.502-1.024 0.66965-2.1348 1.2105-3.334 1.5469-0.24973 0.0701-0.50376 0.13195-0.75977 0.18555-0.2553 0.0534-0.51429 0.0985-0.77539 0.13477-0.52304 0.0727-1.058 0.11125-1.6016 0.11132h-41.203c-0.2935 1e-4 -0.58665-0.0109-0.87696-0.0312-2e-3 -1.4e-4 -4e-3 1.4e-4 -6e-3 0-0.29027-0.0206-0.57905-0.0513-0.86523-0.0918-2e-3 -2.7e-4 -4e-3 2.8e-4 -6e-3 0-0.28615-0.0406-0.56847-0.0924-0.84961-0.15235-0.28366-0.0605-0.56416-0.13123-0.8418-0.21093-1e-3 -3.4e-4 -3e-3 3.5e-4 -4e-3 0-0.55198-0.15864-1.0926-0.35498-1.6152-0.58594-2e-3 -1e-3 -4e-3 -1e-3 -6e-3 -2e-3 -0.26042-0.1153-0.51776-0.24064-0.76953-0.37305-1e-3 -1e-3 -3e-3 -1e-3 -4e-3 -2e-3 -0.50555-0.26607-0.99193-0.5667-1.457-0.89844-9.9e-4 -1e-3 -3e-3 -1e-3 -4e-3 -2e-3 -0.23241-0.16592-0.46072-0.34002-0.68164-0.52149-0.22115-0.18171-0.43582-0.37163-0.64453-0.56836-0.62757-0.59154-1.1968-1.2497-1.6953-1.9668-0.3323-0.47793-0.63278-0.98174-0.89843-1.5098l-2e-3 -4e-3 -0.0937-0.1875z" color="#000000" color-rendering="auto" dominant-baseline="auto" image-rendering="auto" opacity=".3" shape-rendering="auto" solid-color="#000000" stop-color="#000000" style="font-feature-settings:normal;font-variant-alternates:normal;font-variant-caps:normal;font-variant-east-asian:normal;font-variant-ligatures:normal;font-variant-numeric:normal;font-variant-position:normal;font-variation-settings:normal;inline-size:0;isolation:auto;mix-blend-mode:normal;shape-margin:0;shape-padding:0;text-decoration-color:#000000;text-decoration-line:none;text-decoration-style:solid;text-indent:0;text-orientation:mixed;text-transform:none;white-space:normal"/><path d="m235.2 279.04c-1.2379-1.7e-4 -2.45 0.18664-3.6035 0.53516-0.2874 0.0868-0.57199 0.18228-0.85157 0.28906l-2e-3 2e-3c-1.1205 0.42822-2.1738 1.0128-3.127 1.7344l-2e-3 2e-3c-0.47721 0.36144-0.92883 0.75678-1.3516 1.1836-0.21021 0.21225-0.41418 0.43276-0.60937 0.66016l-2e-3 2e-3c-0.19546 0.22782-0.38314 0.46273-0.5625 0.70508l-2e-3 2e-3c-0.17932 0.2424-0.34954 0.49179-0.51172 0.74805l-2e-3 2e-3c-0.16214 0.25632-0.31503 0.51957-0.45899 0.78907l-2e-3 2e-3c-0.14392 0.26955-0.27764 0.54606-0.40234 0.82812l-2e-3 2e-3 -30.266 68.42-48.023 108.55v4e-3c-5.9e-4 1e-3 -9.5e-4 3e-3 -2e-3 4e-3l-2e-3 2e-3c-0.0428 0.097-0.0773 0.19553-0.11719 0.29297-0.0615 0.15011-0.12698 0.30004-0.18164 0.45117-9e-4 2e-3 -3e-3 5e-3 -4e-3 8e-3 -0.09 0.24938-0.17227 0.5003-0.24414 0.75195-5.6e-4 2e-3 -9.5e-4 4e-3 -2e-3 6e-3 -0.0719 0.25223-0.13339 0.504-0.1875 0.75781-5.6e-4 3e-3 -9.6e-4 7e-3 -2e-3 0.01-0.0538 0.2532-0.0982 0.50762-0.13476 0.76172-0.0235 0.16289-0.0382 0.32525-0.0547 0.48828-0.01 0.0943-0.0241 0.18888-0.0312 0.2832-1.4e-4 2e-3 1.5e-4 4e-3 0 6e-3 -0.0195 0.25565-0.0302 0.51044-0.0332 0.76562-1e-5 1e-3 2e-5 3e-3 0 4e-3 -6e-3 0.51098 0.0204 1.0204 0.0781 1.5254 2.2e-4 2e-3 -2.3e-4 4e-3 0 6e-3 0.058 0.50493 0.14768 1.0047 0.26563 1.498 0.0827 0.34607 0.19786 0.6834 0.30859 1.0215 0.0478 0.14595 0.08 0.2972 0.13281 0.44141 4.9e-4 1e-3 9.6e-4 3e-3 2e-3 4e-3 0.0874 0.23817 0.20207 0.46472 0.30273 0.69727l47.93-108.34 30.266-68.42 2e-3 -2e-3c0.1247-0.28206 0.25842-0.55857 0.40234-0.82812l2e-3 -2e-3c0.14396-0.2695 0.29685-0.53275 0.45899-0.78907l2e-3 -2e-3c0.16218-0.25626 0.3324-0.50565 0.51172-0.74805l2e-3 -2e-3c0.17936-0.24235 0.36704-0.47726 0.5625-0.70508l2e-3 -2e-3c0.19519-0.2274 0.39916-0.44791 0.60937-0.66016 0.42273-0.42681 0.87435-0.82215 1.3516-1.1836l2e-3 -2e-3c0.95314-0.72158 2.0065-1.3062 3.127-1.7344l2e-3 -2e-3c0.27958-0.10678 0.56417-0.20226 0.85157-0.28906 1.1536-0.34852 2.3656-0.53533 3.6035-0.53516h41.588c2.4741-3.4e-4 4.8457 0.73947 6.8496 2.0449 0.25129 0.16362 0.49714 0.33653 0.73633 0.51758 0.23769 0.18002 0.46867 0.36787 0.69336 0.56445l2e-3 2e-3c0.44999 0.39386 0.87402 0.82111 1.2656 1.2773v2e-3c0.19578 0.22806 0.38481 0.46246 0.56445 0.70508v2e-3c0.12326 0.16652 0.23827 0.34056 0.35352 0.51368 0.38883 0.58441 0.73622 1.2014 1.0254 1.8555l30.268 68.422 47.93 108.34c0.10051-0.23176 0.21374-0.45809 0.30078-0.69532 5e-4 -1e-3 9.6e-4 -3e-3 2e-3 -4e-3 0.17453-0.47611 0.32129-0.96384 0.43945-1.457 4.7e-4 -2e-3 9.5e-4 -4e-3 2e-3 -6e-3 0.11793-0.49326 0.20571-0.99323 0.26368-1.498 0.0493-0.42937 0.0648-0.86282 0.0684-1.2969 6.4e-4 -0.0784 0.0126-0.15587 0.0117-0.23437-2e-5 -2e-3 3e-5 -6e-3 0-8e-3 -3.9e-4 -0.0332-3e-3 -0.0664-4e-3 -0.0996-8e-3 -0.37695-0.038-0.75343-0.082-1.1309-0.0118-0.10101-0.0187-0.20179-0.0332-0.30274-0.0663-0.4629-0.16497-0.92377-0.28906-1.3828-0.0137-0.0507-0.0227-0.10171-0.0371-0.15234-5.6e-4 -2e-3 -9.5e-4 -4e-3 -2e-3 -6e-3 -0.0728-0.25489-0.15472-0.50719-0.2461-0.75977-0.0901-0.24919-0.18818-0.49788-0.29687-0.74414l-4e-3 -6e-3v-4e-3l-48.023-108.56-30.268-68.422c-0.28917-0.65405-0.63656-1.271-1.0254-1.8555-0.11525-0.17312-0.23026-0.34716-0.35352-0.51368v-2e-3c-0.17964-0.24262-0.36867-0.47702-0.56445-0.70508v-2e-3c-0.39161-0.45623-0.81564-0.88348-1.2656-1.2773l-2e-3 -2e-3c-0.22469-0.19658-0.45567-0.38443-0.69336-0.56445-0.23919-0.18105-0.48504-0.35396-0.73633-0.51758-2.0039-1.3054-4.3755-2.0453-6.8496-2.0449h-20.795z" color="#000000" color-rendering="auto" dominant-baseline="auto" image-rendering="auto" opacity=".1" shape-rendering="auto" solid-color="#000000" stop-color="#000000" style="font-feature-settings:normal;font-variant-alternates:normal;font-variant-caps:normal;font-variant-east-asian:normal;font-variant-ligatures:normal;font-variant-numeric:normal;font-variant-position:normal;font-variation-settings:normal;inline-size:0;isolation:auto;mix-blend-mode:normal;shape-margin:0;shape-padding:0;text-decoration-color:#000000;text-decoration-line:none;text-decoration-style:solid;text-indent:0;text-orientation:mixed;text-transform:none;white-space:normal"/></svg>
