<svg xmlns="http://www.w3.org/2000/svg" xmlns:xlink="http://www.w3.org/1999/xlink" width="36pt" height="36pt" version="1.1" viewBox="0 0 36 36"> <defs> <filter id="alpha" width="100%" height="100%" x="0%" y="0%" filterUnits="objectBoundingBox"> <feColorMatrix in="SourceGraphic" type="matrix" values="0 0 0 0 1 0 0 0 0 1 0 0 0 0 1 0 0 0 1 0"/> </filter> <mask id="mask0"> <g filter="url(#alpha)"> <rect width="36" height="36" x="0" y="0" style="fill:rgb(0%,0%,0%);fill-opacity:0.2"/> </g> </mask> <clipPath id="clip1"> <rect width="36" height="36" x="0" y="0"/> </clipPath> <g id="surface5" clip-path="url(#clip1)"> <path style="fill:rgb(0%,0%,0%)" d="M 3 25.5 L 3 26.25 L 9.820312 26.25 L 18 33.75 L 18 33 L 9.820312 25.5 Z M 3 25.5"/> </g> <mask id="mask1"> <g filter="url(#alpha)"> <rect width="36" height="36" x="0" y="0" style="fill:rgb(0%,0%,0%);fill-opacity:0.2"/> </g> </mask> <clipPath id="clip2"> <rect width="36" height="36" x="0" y="0"/> </clipPath> <g id="surface8" clip-path="url(#clip2)"> <path style="fill:rgb(100.000%,100.000%,100.000%)" d="M 18 3 L 9.820312 10.5 L 3 10.5 L 3 11.25 L 9.820312 11.25 L 18 3.75 Z M 18 3"/> </g> <mask id="mask2"> <g filter="url(#alpha)"> <rect width="36" height="36" x="0" y="0" style="fill:rgb(0%,0%,0%);fill-opacity:0.2"/> </g> </mask> <clipPath id="clip3"> <rect width="36" height="36" x="0" y="0"/> </clipPath> <g id="surface11" clip-path="url(#clip3)"> <path style="fill:rgb(0%,0%,0%)" d="M 28.484375 27.308594 C 28.316406 31.324219 25.019531 34.496094 21 34.5 C 17.03125 34.5 13.75 31.402344 13.515625 27.441406 C 13.507812 27.542969 13.503906 27.644531 13.5 27.75 C 13.5 31.890625 16.859375 35.25 21 35.25 C 25.140625 35.25 28.5 31.890625 28.5 27.75 C 28.5 27.601562 28.492188 27.457031 28.484375 27.308594 Z M 28.484375 27.308594"/> </g> </defs> <g> <path style="fill:rgb(90.196%,90.196%,90.196%)" d="M 3 10.5 L 3 25.5 L 9.820312 25.5 L 18 33 L 18 3 L 9.820312 10.5 Z M 3 10.5"/> <use mask="url(#mask0)" xlink:href="#surface5"/> <use mask="url(#mask1)" xlink:href="#surface8"/> <path style="fill:rgb(99.215%,28.627%,28.627%)" d="M 28.5 27 C 28.5 31.140625 25.140625 34.5 21 34.5 C 16.859375 34.5 13.5 31.140625 13.5 27 C 13.5 22.859375 16.859375 19.5 21 19.5 C 25.140625 19.5 28.5 22.859375 28.5 27 Z M 28.5 27"/> <use mask="url(#mask2)" xlink:href="#surface11"/> <path style="fill:rgb(100.000%,100.000%,100.000%)" d="M 17.289062 29.847656 L 23.652344 23.484375 L 24.710938 24.542969 L 18.347656 30.90625 Z M 17.289062 29.847656"/> <path style="fill:rgb(100.000%,100.000%,100.000%)" d="M 23.652344 30.90625 L 17.289062 24.542969 L 18.347656 23.484375 L 24.710938 29.847656 Z M 23.652344 30.90625"/> </g> </svg>
