<svg width="512" height="512" version="1.1" viewBox="0 0 384 384" xmlns="http://www.w3.org/2000/svg"><path d="m360 343.2v-302.4c0-9.2773-7.5234-16.801-16.801-16.801h-302.4c-9.2773 0-16.801 7.5234-16.801 16.801v302.4c0 9.2773 7.5234 16.801 16.801 16.801h302.4c9.2773 0 16.801-7.5234 16.801-16.801z" fill="#2656a8"/><path d="m186 151.5c0-12-11.176-77.734 60-78 82.203-0.30468 78.305 120.53 0 120h-120c-80.934 0-76.422 119.4 0 120 65.391 0.51564 60.348-66 60-78" fill="none" opacity=".3" stroke="#000" stroke-linejoin="round" stroke-width="36"/><path d="m186 144c0-12-11.176-77.734 60-78 82.203-0.30468 78.305 120.53 0 120h-120c-80.934 0-76.422 119.4 0 120 65.391 0.51564 60.348-66 60-78" fill="none" stroke="#fff" stroke-linejoin="round" stroke-width="36"/><path transform="scale(.75)" d="m32 447.6v10c0 12.37 10.031 22.4 22.4 22.4h403.2c12.37 0 22.4-10.031 22.4-22.4v-10c0 12.37-10.031 22.4-22.4 22.4h-403.2c-12.37 0-22.4-10.031-22.4-22.4z" fill="#000711" opacity=".3"/><path transform="scale(.75)" d="m54.4 32c-12.37 0-22.4 10.031-22.4 22.4v10c0-12.37 10.031-22.4 22.4-22.4h403.2c12.37 0 22.4 10.031 22.4 22.4v-10c0-12.37-10.031-22.4-22.4-22.4z" fill="#fff" opacity=".1" stroke-width="1.3333"/></svg>
