<svg width="512" height="512" version="1.1" viewBox="0 0 135.47 135.47" xmlns="http://www.w3.org/2000/svg" xmlns:xlink="http://www.w3.org/1999/xlink"><defs><linearGradient id="a"><stop stop-color="#d41919" offset="0"/><stop stop-color="#ffc730" offset="1"/></linearGradient><linearGradient id="b"><stop stop-color="#fff" offset="0"/><stop stop-color="#367bf0" offset="1"/></linearGradient><linearGradient id="h" x1="67.409" x2="67.409" y1="33.952" y2="97.592" gradientTransform="matrix(.85874 0 0 .85874 9.4294 8.4753)" gradientUnits="userSpaceOnUse" xlink:href="#a"/><radialGradient id="d" cx="68.013" cy="82.507" r="7.9693" gradientTransform="matrix(.94576 0 0 1.8155 3.5318 -77.667)" gradientUnits="userSpaceOnUse" xlink:href="#b"/><linearGradient id="g" x1="31.868" x2="120.67" y1="36.409" y2="15.328" gradientTransform="translate(-.12729 -.8882)" gradientUnits="userSpaceOnUse" xlink:href="#a"/><radialGradient id="c" cx="68.013" cy="82.507" r="7.9693" gradientTransform="matrix(.94576 0 0 1.8155 3.5318 -72.717)" gradientUnits="userSpaceOnUse" xlink:href="#b"/><linearGradient id="f" x1="67.409" x2="67.409" y1="33.952" y2="97.592" gradientTransform="matrix(.85874 0 0 .85874 9.4294 13.426)" gradientUnits="userSpaceOnUse" xlink:href="#a"/><linearGradient id="e" x1="-106.59" x2="-106.59" y1="117.02" y2="39.842" gradientTransform="translate(173.86 2.3786)" gradientUnits="userSpaceOnUse"><stop stop-color="#666" offset="0"/><stop stop-color="#ccc" offset="1"/></linearGradient></defs><g><rect x="10.959" y="10.41" width="113.24" height="91.473" rx="4.4658" ry="4.4658" fill="url(#g)"/><rect x="5.2813" y="17.948" width="124.9" height="106.05" rx="7.9375" ry="7.9375" fill="url(#e)"/><rect x="15.729" y="26.819" width="104.01" height="88.309" rx="6.6096" ry="6.6096" fill="#272a34"/><path d="m34.073 103.7h12.518l20.912-50.407 21.819 50.407h11.456v-4.9502l-27.174-62.566h-12.215l-27.316 62.566z" fill="url(#f)"/><path d="m60.531 85.275v-4.9502l7.128-12.739 7.5206 12.311v4.9502l-7.7082 26.608z" fill="url(#c)"/><path d="m60.531 85.275v-4.9502l7.128-12.739 7.5206 12.311v4.9502l-7.7082 26.608z" opacity=".3"/><path d="m60.531 80.325 7.128-17.69 7.5206 17.261-7.7082 26.608z" fill="url(#d)"/><path d="m34.073 103.7h12.518l20.912-50.407 21.819 50.407h11.456v-4.9502l-27.174-62.566h-12.215l-27.316 62.566z" opacity=".3"/><path d="m34.073 98.745h12.518l20.912-50.407 21.819 50.407h11.456l-27.174-67.516h-12.215z" fill="url(#h)"/><path d="m22.339 26.819c-3.6617 0-6.6094 2.9477-6.6094 6.6094v75.089c0 3.6617 2.9477 6.6094 6.6094 6.6094h90.789c3.6617 0 6.6094-2.9477 6.6094-6.6094v-75.089c0-3.6617-2.9477-6.6094-6.6094-6.6094zm2.3756 1.1234h86.038c3.4701 0 6.2637 2.8729 6.2637 6.4415v73.179c0 3.5686-2.7936 6.4415-6.2637 6.4415h-86.038c-3.4701 0-6.2632-2.8729-6.2632-6.4415v-73.179c0-3.5686 2.7931-6.4415 6.2632-6.4415z" opacity=".3"/><path d="m15.73 108.52v2.6458c0 3.6617 2.9477 6.6094 6.6094 6.6094h90.789c3.6617 0 6.6094-2.9477 6.6094-6.6094v-2.6458c0 3.6617-2.9477 6.6094-6.6094 6.6094h-90.789c-3.6617 0-6.6094-2.9477-6.6094-6.6094z" fill="#fff" opacity=".2"/><path d="m22.339 25.231c-3.6617 0-6.6094 2.9477-6.6094 6.6094v1.5875c0-3.6617 2.9477-6.6094 6.6094-6.6094h90.789c3.6617 0 6.6094 2.9477 6.6094 6.6094v-1.5875c0-3.6617-2.9477-6.6094-6.6094-6.6094z" opacity=".1"/><path d="m5.2816 113.42v2.6458c0 4.3974 3.5401 7.9375 7.9375 7.9375h109.03c4.3974 0 7.9375-3.5401 7.9375-7.9375v-2.6458c0 4.3974-3.5401 7.9375-7.9375 7.9375h-109.03c-4.3974 0-7.9375-3.5401-7.9375-7.9375z" opacity=".1"/><path d="m13.219 17.948c-4.3974 0-7.9375 3.5401-7.9375 7.9375v2.6458c0-4.3974 3.5401-7.9375 7.9375-7.9375h109.03c4.3974 0 7.9375 3.5401 7.9375 7.9375v-2.6458c0-4.3974-3.5401-7.9375-7.9375-7.9375z" fill="#fff" opacity=".3"/><path d="m15.424 10.41c-2.4741 0-4.4659 1.9918-4.4659 4.4659v2.6458c0-2.4741 1.9918-4.4659 4.4659-4.4659h104.3c2.4741 0 4.4654 1.9918 4.4654 4.4659v-2.6458c0-2.4741-1.9913-4.4659-4.4654-4.4659z" fill="#fff" opacity=".2"/></g></svg>
