<svg width="512" height="512" version="1.1" viewBox="0 0 384 384" xmlns="http://www.w3.org/2000/svg"><defs><linearGradient id="a" x1="180.61" x2="685.02" y1="209.89" y2="24.409" gradientUnits="userSpaceOnUse"><stop stop-color="#4a88f1" offset="0"/><stop stop-color="#112d5c" offset="1"/></linearGradient></defs><path d="m139.57 84.078c-33.484 1.2383-68.934 19.047-99.445 67.582-5.8438 9.3086-16.184 26.09-16.121 40.883 0.06641 14.469 10.273 30.512 16.121 39.824 75.102 119.47 180.12 52.715 212.17 11.094 6.6406-8.625 18.539-12.23 27.184-7.3398l70.582 39.887c8.6406 4.8828 12.355-0.0469 8.3086-11.008l-31.734-72.457 31.734-73.512c4.0469-10.965 0.33203-15.895-8.3086-11.012l-70.582 39.891c-8.6445 4.8906-20.543 1.2852-27.184-7.3398-19.027-24.715-63.785-58.305-112.72-56.492z" fill="url(#a)"/><path d="m108 154.5c0 9.9414-8.0586 18-18 18s-18-8.0586-18-18 8.0586-18 18-18 18 8.0586 18 18z" opacity=".3"/><path d="m108 150c0 9.9414-8.0586 18-18 18s-18-8.0586-18-18 8.0586-18 18-18 18 8.0586 18 18z" fill="#fff"/><path transform="scale(.75)" d="m192.19 112.01c-2.0273-0.0149-4.0625 0.0143-6.1016 0.0898-44.646 1.651-91.911 25.396-132.59 90.109-7.7917 12.412-21.577 34.788-21.494 54.512 0.0072 1.5759 0.11192 3.1658 0.28906 4.7637 2.0017-18.332 14.096-37.951 21.205-49.275 40.682-64.714 87.948-88.458 132.59-90.109 65.25-2.4167 124.93 42.371 150.3 75.324 8.8542 11.5 24.72 16.306 36.246 9.7852l94.109-53.188c6.3518-3.5894 10.7-3.1941 12.426 0.32617 2.8971-11.49-2.128-16.145-12.426-10.326l-94.109 53.188c-11.526 6.5208-27.392 1.7148-36.246-9.7852-24.577-31.923-81.349-74.953-144.2-75.414z" fill="#fff" opacity=".2" stroke-width="1.3333"/><path transform="scale(.75)" d="m32.289 251.49c-0.19214 1.7597-0.29636 3.5088-0.28906 5.2363 0.08853 19.292 13.697 40.681 21.494 53.098 100.14 159.3 240.17 70.288 282.89 14.793 8.8542-11.5 24.72-16.308 36.246-9.7871l94.109 53.182c10.298 5.8196 15.324 1.1652 12.426-10.322-1.7259 3.518-6.075 3.9111-12.426 0.32227l-94.109-53.182c-11.526-6.5208-27.392-1.7129-36.246 9.7871-42.724 55.495-182.76 144.5-282.89-14.793-7.16-11.402-19.214-30.371-21.205-48.334z" opacity=".3" stroke-width="1.3333"/></svg>
