<svg width="512" height="512" version="1.1" viewBox="0 0 384 384" xmlns="http://www.w3.org/2000/svg" xmlns:xlink="http://www.w3.org/1999/xlink"><defs><filter id="a" x="0%" y="0%" width="100%" height="100%"><feColorMatrix in="SourceGraphic" values="0 0 0 0 1 0 0 0 0 1 0 0 0 0 1 0 0 0 1 0"/></filter><mask id="n"><g filter="url(#a)"><rect width="384" height="384" fill-opacity=".10196"/></g></mask><clipPath id="u"><rect width="384" height="384"/></clipPath><g id="y" clip-path="url(#u)"><path transform="scale(.75)" d="m98.391 49.75c0 4.4792-3.6302 8.1094-8.1094 8.1094s-8.1094-3.6302-8.1094-8.1094 3.6302-8.1094 8.1094-8.1094 8.1094 3.6302 8.1094 8.1094zm0 0" stroke="#fff" stroke-linecap="round" stroke-linejoin="round" stroke-width=".99655"/></g><mask id="o"><g filter="url(#a)"><rect width="384" height="384" fill-opacity=".10196"/></g></mask><clipPath id="t"><rect width="384" height="384"/></clipPath><g id="v" clip-path="url(#t)"><path transform="scale(.75)" d="m429.85 49.75c0 4.4792-3.6302 8.1094-8.1094 8.1094-4.474 0-8.1042-3.6302-8.1042-8.1094s3.6302-8.1094 8.1042-8.1094c4.4792 0 8.1094 3.6302 8.1094 8.1094zm0 0" stroke="#fff" stroke-linecap="round" stroke-linejoin="round" stroke-width=".99655"/></g><mask id="p"><g filter="url(#a)"><rect width="384" height="384" fill-opacity=".10196"/></g></mask><clipPath id="s"><rect width="384" height="384"/></clipPath><g id="w" clip-path="url(#s)"><path transform="scale(.75)" d="m98.391 404.61c0 4.4792-3.6302 8.1094-8.1094 8.1094s-8.1094-3.6302-8.1094-8.1094 3.6302-8.1094 8.1094-8.1094 8.1094 3.6302 8.1094 8.1094zm0 0" stroke="#fff" stroke-linecap="round" stroke-linejoin="round" stroke-width=".99655"/></g><mask id="q"><g filter="url(#a)"><rect width="384" height="384" fill-opacity=".10196"/></g></mask><clipPath id="r"><rect width="384" height="384"/></clipPath><g id="x" clip-path="url(#r)"><path transform="scale(.75)" d="m429.85 404.61c0 4.4792-3.6302 8.1094-8.1094 8.1094-4.474 0-8.1042-3.6302-8.1042-8.1094s3.6302-8.1094 8.1042-8.1094c4.4792 0 8.1094 3.6302 8.1094 8.1094zm0 0" stroke="#fff" stroke-linecap="round" stroke-linejoin="round" stroke-width=".99655"/></g></defs><g transform="translate(.0024 -.45382)"><path d="m69.555 24.285c-8.7146 0-15.781 6.1914-15.781 13.828v2.6162c-0.0011 0.07737-0.0059 0.15381-0.0059 0.23144v303.88c0 8.7146 7.066 15.782 15.781 15.782h244.89c8.7146 0 15.781-7.0674 15.781-15.782v-40.131c2e-3 -0.0851 7e-3 -0.1694 7e-3 -0.25489v-266.34c0-7.6366-7.066-13.828-15.781-13.828z" opacity=".2" stroke="#000" stroke-width="7.5"/><path d="m69.555 24.285h244.89c8.7148 0 15.781 7.0664 15.781 15.777v303.88c0 8.7148-7.0664 15.781-15.781 15.781h-244.89c-8.7148 0-15.781-7.0664-15.781-15.781v-303.88c0-8.7109 7.0664-15.777 15.781-15.777z"/><g fill="#fff"><path d="m74.383 329.47h116.23c2.3945 0 4.3359 1.9414 4.3359 4.3359v8.5664c0 2.3945-1.9414 4.3398-4.3359 4.3398h-116.23c-2.3984 0-4.3398-1.9453-4.3398-4.3398v-8.5664c0-2.3945 1.9414-4.3359 4.3398-4.3359z"/><path d="m69.562 23.387h244.89c8.7148 0 15.781 6.1914 15.781 13.828v266.34c0 7.6406-7.0664 13.832-15.781 13.832h-244.89c-8.7148 0-15.781-6.1914-15.781-13.832v-266.34c0-7.6367 7.0664-13.828 15.781-13.828z"/><path d="m275.97 338.06c0 4.2695-3.4609 7.7305-7.7305 7.7305-4.2734 0-7.7344-3.4609-7.7344-7.7305s3.4609-7.7305 7.7344-7.7305c4.2695 0 7.7305 3.4609 7.7305 7.7305z"/><path d="m299.85 338.06c0 4.2695-3.4648 7.7305-7.7344 7.7305s-7.7305-3.4609-7.7305-7.7305 3.4609-7.7305 7.7305-7.7305 7.7344 3.4609 7.7344 7.7305z"/></g><use width="100%" height="100%" mask="url(#n)" xlink:href="#y"/><use width="100%" height="100%" mask="url(#o)" xlink:href="#v"/><use width="100%" height="100%" mask="url(#p)" xlink:href="#w"/><use width="100%" height="100%" mask="url(#q)" xlink:href="#x"/></g><g transform="matrix(.73127 0 0 .73127 54.315 29.951)" stroke-width=".91838"><path d="m344.81 191.59c0 88.196-71.496 159.69-159.69 159.69-88.196 0-159.69-71.496-159.69-159.69 0-88.196 71.496-159.69 159.69-159.69 88.196 0 159.69 71.496 159.69 159.69z" fill="#fd3535" stroke-width="1.503"/><path d="m186.59 33.25v170.9l115.57 111.29c31.472-30.959 49.202-73.254 49.22-117.39 0-91.014-73.78-164.8-164.8-164.8z" fill="#198388" stroke-width=".97655"/><path d="m186.59 32.191-0.19699 160.65 115.77 105.59c31.472-30.959 49.202-73.254 49.22-117.39 0-91.014-73.78-148.85-164.8-148.85z" fill="#23bac2" stroke-width=".97655"/><path d="m25.193 208.71c1.7686 41.599 19.68 78.295 49.457 107.4l113.95-107.4-2.21-15.87-161.21-0.496z" fill="#ffc730" stroke-width="1.091"/><path d="m25.193 192.34c1.7686 41.599 19.68 80.891 49.457 110l111.74-109.5z" fill="#f8de68" stroke-width="1.091"/><path d="m183.29 200.97v159.78c44.436-0.0132 87.107-14.234 118.87-45.306v-17.009z" fill="#2656a8" stroke-width="1.1336"/><path d="m186.39 192.84-3.0983 154.13c44.436-0.0133 87.107-17.469 118.87-48.541z" fill="#367bf0" stroke-width="1.1336"/><path d="m183.29 211.51-108.64 90.828-1e-6 13.776c28.954 28.553 67.968 44.581 108.64 44.632z" fill="#622e78"/><path d="m186.39 192.84-111.74 109.5c28.954 28.553 67.968 44.581 108.64 44.632z" fill="#8a3fab"/></g><path d="m384 294c0 49.708-40.294 90.002-90.002 90.002-49.708 0-90.002-40.297-90.002-90.002 0-49.705 40.294-89.998 90.002-89.998 49.708 0 90.002 40.297 90.002 89.998z" opacity=".3" stroke-width="1.0376"/><path d="m384 286.5c0 49.708-40.294 90.002-90.002 90.002-49.708 0-90.002-40.297-90.002-90.002 0-49.705 40.294-89.998 90.002-89.998 49.708 0 90.002 40.297 90.002 89.998z" fill="#ffc72e" stroke-width="1.0376"/><path d="m300.15 237.75c-3.4328 0.1095-7.0039 1.7081-9.4358 4.1402-2.432 2.4319-4.1416 5.7273-4.1416 9.442 0 5.9087 4.7106 10.972 10.563 10.972 7.6469 0 13.985-6.3991 13.985-14.124 0-3.2467-1.909-5.9766-4.1579-7.946-1.8186-1.5924-4.3967-2.5616-6.8126-2.4846zm-5.2281 36.984-0.4259 0.0962c-7.7911 1.7769-9.4032 2.1201-18.656 2.9346l-2.9573 0.25582-1.848 10.721 5.4765 0.90445 6e-3 6e-3c2.6128 0.4262 3.9034 1.0744 4.2604 1.3875 0.35703 0.31308 0.44997 0.33378 0.44997 1.6554 0 1.3707 0.0129 1.7129-0.18209 2.5945l-0.0125 0.0677-5.773 31.585c-0.32654 1.8052-0.47255 3.7412-0.47255 5.4838 0 5.0482 1.4892 9.5905 4.5388 12.847 3.0496 3.2569 7.5243 4.9722 12.468 4.9722 8.2439 0 15.917-4.1448 22.563-11.382l2.611-2.8443-8.7256-7.9684-2.599 2.605c-4.0083 4.0114-5.8053 4.7616-7.0025 4.7616-1.2298 0-1.8528-0.34835-2.3943-0.95563-0.5415-0.60726-1.0128-1.6449-1.0128-3.2718 0-1.0785 0.1095-1.8194 0.24521-3.0476l9.6916-53.408z" color="#000000" color-rendering="auto" dominant-baseline="auto" image-rendering="auto" opacity=".3" shape-rendering="auto" solid-color="#000000" stop-color="#000000" stroke-width="2.9121" style="font-feature-settings:normal;font-variant-alternates:normal;font-variant-caps:normal;font-variant-east-asian:normal;font-variant-ligatures:normal;font-variant-numeric:normal;font-variant-position:normal;font-variation-settings:normal;inline-size:0;isolation:auto;mix-blend-mode:normal;shape-margin:0;shape-padding:0;text-decoration-color:#000000;text-decoration-line:none;text-decoration-style:solid;text-indent:0;text-orientation:mixed;text-transform:none;white-space:normal"/><path d="m300.15 230.25c-3.4328 0.1095-7.0039 1.7081-9.4358 4.1402-2.432 2.4319-4.1416 5.7273-4.1416 9.442 0 5.9087 4.7106 10.972 10.563 10.972 7.6469 0 13.985-6.3991 13.985-14.124 0-3.2467-1.909-5.9766-4.1579-7.946-1.8186-1.5924-4.3967-2.5616-6.8126-2.4846zm-5.2281 36.984-0.4259 0.0962c-7.7911 1.7769-9.4032 2.1201-18.656 2.9346l-2.9573 0.25582-1.848 10.721 5.4765 0.90445 6e-3 6e-3c2.6128 0.4262 3.9034 1.0744 4.2604 1.3875 0.35703 0.31308 0.44997 0.33378 0.44997 1.6554 0 1.3707 0.0129 1.7129-0.18209 2.5945l-0.0125 0.0677-5.773 31.585c-0.32654 1.8052-0.47255 3.7412-0.47255 5.4838 0 5.0482 1.4892 9.5905 4.5388 12.847 3.0496 3.2569 7.5243 4.9722 12.468 4.9722 8.2439 0 15.917-4.1448 22.563-11.382l2.611-2.8443-8.7256-7.9684-2.599 2.605c-4.0083 4.0114-5.8053 4.7616-7.0025 4.7616-1.2298 0-1.8528-0.34835-2.3943-0.95563-0.5415-0.60726-1.0128-1.6449-1.0128-3.2718 0-1.0785 0.1095-1.8194 0.24521-3.0476l9.6916-53.408z" color="#000000" color-rendering="auto" dominant-baseline="auto" image-rendering="auto" shape-rendering="auto" solid-color="#000000" stop-color="#000000" stroke-width="2.9121" style="font-feature-settings:normal;font-variant-alternates:normal;font-variant-caps:normal;font-variant-east-asian:normal;font-variant-ligatures:normal;font-variant-numeric:normal;font-variant-position:normal;font-variation-settings:normal;inline-size:0;isolation:auto;mix-blend-mode:normal;shape-margin:0;shape-padding:0;text-decoration-color:#000000;text-decoration-line:none;text-decoration-style:solid;text-indent:0;text-orientation:mixed;text-transform:none;white-space:normal"/></svg>
