<svg width="512" height="512" version="1.1" viewBox="0 0 384 384" xmlns="http://www.w3.org/2000/svg"><defs><clipPath><rect width="384" height="384"/></clipPath><clipPath><rect width="384" height="384"/></clipPath><clipPath><rect width="384" height="384"/></clipPath></defs><path d="m360 342v-300c0-9.9414-8.0586-18-18-18h-300c-9.9414 0-18 8.0586-18 18v300c0 9.9414 8.0586 18 18 18h300c9.9414 0 18-8.0586 18-18z" style="fill:#d41717"/><path d="m167.99 91.5 11.996 71.996h47.997l11.996-71.996zm-83.988 83.996v72l71.988-12v-48zm95.984 0v12h47.997v-12zm0 12h-11.996v48h11.996zm23.985 12.059-11.997 11.997 11.997 12 11.996-12zm33.952 9.6416-33.933 33.938 8.4844 8.4873 33.933-33.94zm16.969 16.969-33.933 33.94 42.417 59.395 50.906-50.911z" style="opacity:.3"/><path d="m167.99 84 11.996 71.996h47.997l11.996-71.996zm-83.988 83.996v72l71.988-12v-48zm95.984 0v12h47.997v-12zm0 12h-11.996v48h11.996zm23.985 12.059-11.997 11.997 11.997 12 11.996-12zm33.952 9.6416-33.933 33.938 8.4844 8.4873 33.933-33.94zm16.969 16.969-33.933 33.94 42.417 59.395 50.906-50.911z" style="fill:#fff"/><path transform="scale(.75)" d="m32 446v10c0 13.255 10.745 24 24 24h400c13.255 0 24-10.745 24-24v-10c0 13.255-10.745 24-24 24h-400c-13.255 0-24-10.745-24-24z" style="opacity:.3;stroke-width:1.3333"/><path transform="scale(.75)" d="m56 32c-13.255 0-24 10.745-24 24v10c0-13.255 10.745-24 24-24h400c13.255 0 24 10.745 24 24v-10c0-13.255-10.745-24-24-24h-400z" style="fill:#fff;opacity:.3;stroke-width:1.3333"/></svg>
