<svg width="512" height="512" version="1.1" viewBox="0 0 135.47 135.47" xmlns="http://www.w3.org/2000/svg"><g transform="translate(0 -161.53)"><g shape-rendering="auto"><path d="m69.592 170.23c-1.1517-0.66566-2.5713-0.66528-3.7226 1e-3l-48.335 27.906c-1.1469 0.66391-1.8536 1.8881-1.8552 3.2133l2.81e-4 55.813c-0.0015 1.3302 0.70796 2.5599 1.8602 3.2245l48.336 27.907c1.1517 0.66569 2.5713 0.66535 3.7226-9e-4l48.335-27.906c1.1468-0.66393 1.8536-1.8881 1.8552-3.2133l-2.7e-4 -55.813c1e-3 -1.3302-0.70798-2.5598-1.8603-3.2245z" color="#000000" color-rendering="auto" dominant-baseline="auto" fill="#f5f5f5" image-rendering="auto" solid-color="#000000" style="font-feature-settings:normal;font-variant-alternates:normal;font-variant-caps:normal;font-variant-ligatures:normal;font-variant-numeric:normal;font-variant-position:normal;isolation:auto;mix-blend-mode:normal;paint-order:normal;shape-padding:0;text-decoration-color:#000000;text-decoration-line:none;text-decoration-style:solid;text-indent:0;text-orientation:mixed;text-transform:none;white-space:normal"/><path d="m67.736 170.13c-0.11177 0.22246-0.22101 0.44718-0.28646 0.68929-0.08453 0.31264-0.12913 0.63877-0.129 0.97133l4.55e-4 55.813c-1.64e-4 0.33256 0.04374 0.65872 0.12823 0.9714 0.08447 0.3127 0.2094 0.61191 0.37016 0.89021s0.35745 0.53552 0.58606 0.76496c0.22863 0.22939 0.48899 0.43074 0.77714 0.59674l48.335 27.907c0.28709 0.16531 0.59083 0.28938 0.90279 0.37204 0.24155 0.064 0.48972 0.0814 0.73736 0.0958 0.25611-0.50977 0.4157-1.0705 0.41545-1.6606l-1e-5 -55.814c6.2e-4 -1.3302-0.70933-2.5591-1.862-3.2231l-48.335-27.907c-0.50942-0.29333-1.0731-0.43451-1.6406-0.46759z" color="#000000" color-rendering="auto" dominant-baseline="auto" fill="#c8c8c8" image-rendering="auto" opacity=".05" solid-color="#000000" style="font-feature-settings:normal;font-variant-alternates:normal;font-variant-caps:normal;font-variant-ligatures:normal;font-variant-numeric:normal;font-variant-position:normal;isolation:auto;mix-blend-mode:normal;paint-order:normal;shape-padding:0;text-decoration-color:#000000;text-decoration-line:none;text-decoration-style:solid;text-indent:0;text-orientation:mixed;text-transform:none;white-space:normal"/><path transform="matrix(.26458 0 0 .26458 0 161.53)" d="m61.639 369.14c0.51696 0.78623 1.0461 1.5684 1.7148 2.2402 0.86358 0.86751 1.8468 1.6298 2.9355 2.2578l182.69 105.47c1.0882 0.629 2.2388 1.1017 3.4219 1.416s2.3986 0.47097 3.6133 0.4707 2.4284-0.15779 3.6113-0.47266c1.183-0.31486 2.334-0.78658 3.4219-1.416l182.69-105.47c1.0836-0.62733 2.0638-1.387 2.9238-2.252 0.66595-0.66969 1.1918-1.4492 1.707-2.2324-1.1846-1.8016-2.7184-3.3837-4.6504-4.498l-182.69-105.47c-4.3529-2.5159-9.7168-2.5143-14.068 0.00391l-182.69 105.47c-1.9228 1.1131-3.4501 2.6914-4.6309 4.4863z" color="#000000" color-rendering="auto" dominant-baseline="auto" fill="#fff" image-rendering="auto" solid-color="#000000" style="font-feature-settings:normal;font-variant-alternates:normal;font-variant-caps:normal;font-variant-ligatures:normal;font-variant-numeric:normal;font-variant-position:normal;isolation:auto;mix-blend-mode:normal;paint-order:normal;shape-padding:0;text-decoration-color:#000000;text-decoration-line:none;text-decoration-style:solid;text-indent:0;text-orientation:mixed;text-transform:none;white-space:normal"/></g><g><path d="m36.03 207.39a3.8106 3.8106 0 0 0-3.8101 3.8101 3.8106 3.8106 0 0 0 3.8101 3.8101 3.8106 3.8106 0 0 0 3.8101-3.8101 3.8106 3.8106 0 0 0-3.8101-3.8101zm16.019 9.8564a3.8106 3.8106 0 0 0-3.8119 3.8119 3.8106 3.8106 0 0 0 3.8119 3.8101 3.8106 3.8106 0 0 0 3.8101-3.8101 3.8106 3.8106 0 0 0-3.8101-3.8119z" opacity=".2" style="paint-order:normal"/><path d="m103.06 214.23a3.8106 3.8106 0 0 0-1.5357-5.1648 3.8106 3.8106 0 0 0-5.1648 1.5357 3.8106 3.8106 0 0 0 1.5357 5.1647 3.8106 3.8106 0 0 0 5.1648-1.5356zm-16.296 9.3916a3.8106 3.8106 0 0 0-1.5364-5.1673 3.8106 3.8106 0 0 0-5.1656 1.5373 3.8106 3.8106 0 0 0 1.5357 5.1648 3.8106 3.8106 0 0 0 5.1664-1.5348z" opacity=".2" style="paint-order:normal"/><path d="m64.064 269.18a3.8106 3.8106 0 0 0 5.2407 1.2524 3.8106 3.8106 0 0 0 1.2524-5.2407 3.8106 3.8106 0 0 0-5.2406-1.2524 3.8106 3.8106 0 0 0-1.2525 5.2407zm0.01475-18.808a3.8106 3.8106 0 0 0 5.2432 1.253 3.8106 3.8106 0 0 0 1.2515-5.2422 3.8106 3.8106 0 0 0-5.2407-1.2524 3.8106 3.8106 0 0 0-1.254 5.2416z" opacity=".2" style="paint-order:normal"/></g><g shape-rendering="auto"><path d="m67.861 191.65a3.7179 3.7179 0 0 0-3.6649 3.7665v35.245l-30.57 17.656a3.7179 3.7179 0 1 0 3.7102 6.4348l30.433-17.567 30.428 17.567a3.7179 3.7179 0 1 0 3.7175-6.4348l-30.283-17.489v-35.412a3.7179 3.7179 0 0 0-3.772-3.7665z" color="#000000" color-rendering="auto" dominant-baseline="auto" image-rendering="auto" opacity=".3" solid-color="#000000" style="font-feature-settings:normal;font-variant-alternates:normal;font-variant-caps:normal;font-variant-ligatures:normal;font-variant-numeric:normal;font-variant-position:normal;isolation:auto;mix-blend-mode:normal;shape-padding:0;text-decoration-color:#000000;text-decoration-line:none;text-decoration-style:solid;text-indent:0;text-orientation:mixed;text-transform:none;white-space:normal"/><path d="m69.592 170.23a3.7179 3.7179 0 0 0-3.7226 1e-3l-48.335 27.906a3.7179 3.7179 0 0 0-1.8552 3.2133l2.82e-4 55.813a3.7179 3.7179 0 0 0 1.8603 3.2245l48.336 27.907a3.7179 3.7179 0 0 0 3.7226-8.9e-4l48.335-27.906a3.7179 3.7179 0 0 0 1.8552-3.2133l-2.7e-4 -55.813a3.7179 3.7179 0 0 0-1.8603-3.2245zm-1.8566 7.5134 44.614 25.758-5e-3 51.525-44.612 25.755-44.614-25.758-0.0017-51.513z" color="#000000" color-rendering="auto" dominant-baseline="auto" fill="#fd3535" image-rendering="auto" solid-color="#000000" style="font-feature-settings:normal;font-variant-alternates:normal;font-variant-caps:normal;font-variant-ligatures:normal;font-variant-numeric:normal;font-variant-position:normal;isolation:auto;mix-blend-mode:normal;paint-order:normal;shape-padding:0;text-decoration-color:#000000;text-decoration-line:none;text-decoration-style:solid;text-indent:0;text-orientation:mixed;text-transform:none;white-space:normal"/><path d="m67.861 189.01a3.7179 3.7179 0 0 0-3.6649 3.7665v35.245l-30.57 17.656a3.7179 3.7179 0 1 0 3.7102 6.4348l30.433-17.567 30.428 17.567a3.7179 3.7179 0 1 0 3.7175-6.4348l-30.283-17.489v-35.412a3.7179 3.7179 0 0 0-3.772-3.7665z" color="#000000" color-rendering="auto" dominant-baseline="auto" fill="#fd3535" image-rendering="auto" solid-color="#000000" style="font-feature-settings:normal;font-variant-alternates:normal;font-variant-caps:normal;font-variant-ligatures:normal;font-variant-numeric:normal;font-variant-position:normal;isolation:auto;mix-blend-mode:normal;shape-padding:0;text-decoration-color:#000000;text-decoration-line:none;text-decoration-style:solid;text-indent:0;text-orientation:mixed;text-transform:none;white-space:normal"/></g><g fill="#fd3535"><path d="m35.5 206.86a3.8106 3.8106 0 0 0-3.8101 3.8101 3.8106 3.8106 0 0 0 3.8101 3.8101 3.8106 3.8106 0 0 0 3.8101-3.8101 3.8106 3.8106 0 0 0-3.8101-3.8101zm16.019 9.8564a3.8106 3.8106 0 0 0-3.8119 3.8119 3.8106 3.8106 0 0 0 3.8119 3.8101 3.8106 3.8106 0 0 0 3.8101-3.8101 3.8106 3.8106 0 0 0-3.8101-3.8119z" style="paint-order:normal"/><path d="m103.59 213.7a3.8106 3.8106 0 0 0-1.5357-5.1648 3.8106 3.8106 0 0 0-5.1648 1.5357 3.8106 3.8106 0 0 0 1.5357 5.1647 3.8106 3.8106 0 0 0 5.1648-1.5356zm-16.296 9.3916a3.8106 3.8106 0 0 0-1.5364-5.1673 3.8106 3.8106 0 0 0-5.1656 1.5373 3.8106 3.8106 0 0 0 1.5357 5.1648 3.8106 3.8106 0 0 0 5.1664-1.5348z" style="paint-order:normal"/><path d="m64.064 270.24a3.8106 3.8106 0 0 0 5.2407 1.2524 3.8106 3.8106 0 0 0 1.2524-5.2407 3.8106 3.8106 0 0 0-5.2406-1.2524 3.8106 3.8106 0 0 0-1.2525 5.2407zm0.01475-18.808a3.8106 3.8106 0 0 0 5.2432 1.253 3.8106 3.8106 0 0 0 1.2515-5.2422 3.8106 3.8106 0 0 0-5.2407-1.2524 3.8106 3.8106 0 0 0-1.254 5.2416z" style="paint-order:normal"/></g><path transform="matrix(.26458 0 0 .26458 0 161.53)" d="m59.258 351.45v10c-0.0054 5.0279 2.6759 9.6755 7.0312 12.188l182.69 105.47c4.3522 2.5159 9.7169 2.5152 14.068-2e-3l182.69-105.47c4.3346-2.5093 7.0058-7.136 7.0117-12.145v-10c-6e-3 5.0085-2.6772 9.6352-7.0117 12.145l-182.69 105.47c-4.3515 2.5171-9.7162 2.5178-14.068 2e-3l-182.69-105.47c-4.3554-2.512-7.0367-7.1596-7.0312-12.188z" color="#000000" color-rendering="auto" dominant-baseline="auto" image-rendering="auto" opacity=".1" shape-rendering="auto" solid-color="#000000" style="font-feature-settings:normal;font-variant-alternates:normal;font-variant-caps:normal;font-variant-ligatures:normal;font-variant-numeric:normal;font-variant-position:normal;isolation:auto;mix-blend-mode:normal;paint-order:normal;shape-padding:0;text-decoration-color:#000000;text-decoration-line:none;text-decoration-style:solid;text-indent:0;text-orientation:mixed;text-transform:none;white-space:normal"/><g fill="#fff"><path transform="matrix(.26458 0 0 .26458 0 161.53)" d="m256.33 31.004a14.052 14.052 0 0 0-7.375 1.8848l-182.69 105.47a14.052 14.052 0 0 0-7.0117 12.145v6a14.052 14.052 0 0 1 7.0117-12.145l182.69-105.47a14.052 14.052 0 0 1 14.07-0.001953l182.69 105.47a14.052 14.052 0 0 1 7.0312 12.186v-6a14.052 14.052 0 0 0-7.0312-12.186l-182.69-105.47a14.052 14.052 0 0 0-6.6953-1.8828zm-168.96 322.36v6l168.62 97.352 168.61-97.34v-6l-168.61 97.34-168.62-97.352z" color="#000000" color-rendering="auto" dominant-baseline="auto" image-rendering="auto" opacity=".3" shape-rendering="auto" solid-color="#000000" style="font-feature-settings:normal;font-variant-alternates:normal;font-variant-caps:normal;font-variant-ligatures:normal;font-variant-numeric:normal;font-variant-position:normal;isolation:auto;mix-blend-mode:normal;paint-order:normal;shape-padding:0;text-decoration-color:#000000;text-decoration-line:none;text-decoration-style:solid;text-indent:0;text-orientation:mixed;text-transform:none;white-space:normal"/><path transform="matrix(.26458 0 0 .26458 0 161.53)" d="m378.82 175.92a14.402 14.402 0 0 0-11.068 5.2695 14.402 14.402 0 0 1 15.98-1.5332 14.402 14.402 0 0 1 5.8027 19.521 14.402 14.402 0 0 1-1.543 2.2734 14.402 14.402 0 0 0 3.543-4.2734 14.402 14.402 0 0 0-5.8027-19.521 14.402 14.402 0 0 0-6.9121-1.7363zm-61.594 35.486a14.402 14.402 0 0 0-11.068 5.2695 14.402 14.402 0 0 1 15.98-1.5332 14.402 14.402 0 0 1 5.8066 19.529 14.402 14.402 0 0 1-1.541 2.2715 14.402 14.402 0 0 0 3.541-4.2715 14.402 14.402 0 0 0-5.8066-19.529 14.402 14.402 0 0 0-6.9121-1.7363z" opacity=".5" style="paint-order:normal"/><path transform="matrix(.26458 0 0 .26458 0 161.53)" d="m134.17 171.31a14.402 14.402 0 0 0-14.4 14.4 14.402 14.402 0 0 0 5.2637 11.113 14.402 14.402 0 0 1-3.2637-9.1133 14.402 14.402 0 0 1 14.4-14.4 14.402 14.402 0 0 1 9.1387 3.2852 14.402 14.402 0 0 0-11.139-5.2852zm60.545 37.252a14.402 14.402 0 0 0-14.406 14.406 14.402 14.402 0 0 0 5.2617 11.115 14.402 14.402 0 0 1-3.2617-9.1152 14.402 14.402 0 0 1 14.406-14.406 14.402 14.402 0 0 1 9.1289 3.2754 14.402 14.402 0 0 0-11.129-5.2754z" opacity=".5" style="paint-order:normal"/><path transform="matrix(.26458 0 0 .26458 0 161.53)" d="m240.21 330.22a14.402 14.402 0 0 0 1.9746 9.5547 14.402 14.402 0 0 0 19.816 4.7363 14.402 14.402 0 0 0 6.709-14.248 14.402 14.402 0 0 1-6.709 10.248 14.402 14.402 0 0 1-19.816-4.7363 14.402 14.402 0 0 1-1.9746-5.5547zm-0.05664 71.084a14.402 14.402 0 0 0 1.9746 9.5586 14.402 14.402 0 0 0 19.809 4.7344 14.402 14.402 0 0 0 6.707-14.256 14.402 14.402 0 0 1-6.707 10.254 14.402 14.402 0 0 1-19.809-4.7324 14.402 14.402 0 0 1-1.9746-5.5586z" opacity=".5" style="paint-order:normal"/></g><path transform="matrix(.26458 0 0 .26458 0 161.53)" d="m256.14 269.95v6l115 66.396c10.536 6.5472 23.768-2.7728 21.152-14.898-2.09 9.4715-12.92 14.027-21.152 8.8984z" color="#000000" color-rendering="auto" dominant-baseline="auto" image-rendering="auto" opacity=".1" shape-rendering="auto" solid-color="#000000" style="font-feature-settings:normal;font-variant-alternates:normal;font-variant-caps:normal;font-variant-ligatures:normal;font-variant-numeric:normal;font-variant-position:normal;isolation:auto;mix-blend-mode:normal;shape-padding:0;text-decoration-color:#000000;text-decoration-line:none;text-decoration-style:solid;text-indent:0;text-orientation:mixed;text-transform:none;white-space:normal"/><path d="m67.771 232.96v1.5875l-30.428 17.567c-2.7877 1.7323-6.2887-0.73364-5.5966-3.9419 0.55299 2.506 3.4184 3.7114 5.5966 2.3544z" color="#000000" color-rendering="auto" dominant-baseline="auto" image-rendering="auto" opacity=".1" shape-rendering="auto" solid-color="#000000" style="font-feature-settings:normal;font-variant-alternates:normal;font-variant-caps:normal;font-variant-ligatures:normal;font-variant-numeric:normal;font-variant-position:normal;isolation:auto;mix-blend-mode:normal;shape-padding:0;text-decoration-color:#000000;text-decoration-line:none;text-decoration-style:solid;text-indent:0;text-orientation:mixed;text-transform:none;white-space:normal"/></g></svg>
