<svg width="512" height="512" version="1.1" viewBox="0 0 135.47 135.47" xmlns="http://www.w3.org/2000/svg" xmlns:xlink="http://www.w3.org/1999/xlink"><defs><linearGradient id="b" x1="66.843" x2="66.843" y1="104.37" y2="145.9" gradientTransform="matrix(3.7795 0 0 3.7795 -.00029441 -18.5)" gradientUnits="userSpaceOnUse"><stop stop-color="#23bac2" offset="0"/><stop stop-color="#0ca15e" offset="1"/></linearGradient></defs><path d="m67.88 9.5606c-11.643 0.099262-23.305 3.5619-32.159 10.451-8.854 6.8892-14.815 17.302-14.815 30.737l-0.32945 53.122h94.313v-53.122c0-13.802-5.9527-24.322-14.821-31.172-8.8681-6.8498-20.545-10.116-32.188-10.017z" color="#000000" color-rendering="auto" dominant-baseline="auto" fill="#fff" image-rendering="auto" shape-rendering="auto" solid-color="#000000" stop-color="#000000" style="font-feature-settings:normal;font-variant-alternates:normal;font-variant-caps:normal;font-variant-east-asian:normal;font-variant-ligatures:normal;font-variant-numeric:normal;font-variant-position:normal;font-variation-settings:normal;inline-size:0;isolation:auto;mix-blend-mode:normal;shape-margin:0;shape-padding:0;text-decoration-color:#000000;text-decoration-line:none;text-decoration-style:solid;text-indent:0;text-orientation:mixed;text-transform:none;white-space:normal"/><path transform="scale(.26458)" d="m236.15 254.09-4.0703 9.5254h50.799l-3.6621-9.5254h-43.066zm-7.4727 17.484-10.307 24.111h76.84l-9.2715-24.111h-57.262zm-15.557 36.391-22.25 52.072h129.07l-20.014-52.072h-86.809z" fill="#265ab1"/><path transform="scale(.26458)" d="m255.44 65.768c-72.719 0.034399-145.44 47.835-145.44 143.29v151.99l110.24-106.09v-41.516c0-41.537 72.283-40.54 72.283 0v42.266l108.35 105.21v-151.86c0-95.598-72.719-143.33-145.44-143.29z" fill="#0f2751"/><path d="m67.885 8.2043c-11.978 0.10212-23.976 3.6644-33.084 10.752-9.1087 7.0874-15.241 17.799-15.241 31.622l-0.33893 54.65h97.025v-54.65c0-14.199-6.1239-25.022-15.247-32.069-9.1232-7.0468-21.136-10.407-33.114-10.305zm0.03625 4.1467c11.126-0.09485 22.216 3.066 30.42 9.4032 8.2045 6.3372 13.633 15.762 13.633 28.823v50.503h-88.457l0.31528-50.497v-0.0062c0-12.651 5.4202-21.989 13.639-28.384 8.219-6.3951 19.324-9.7477 30.45-9.8425z" color="#000000" color-rendering="auto" dominant-baseline="auto" fill="#265ab1" image-rendering="auto" shape-rendering="auto" solid-color="#000000" stop-color="#000000" style="font-feature-settings:normal;font-variant-alternates:normal;font-variant-caps:normal;font-variant-east-asian:normal;font-variant-ligatures:normal;font-variant-numeric:normal;font-variant-position:normal;font-variation-settings:normal;inline-size:0;isolation:auto;mix-blend-mode:normal;shape-margin:0;shape-padding:0;text-decoration-color:#000000;text-decoration-line:none;text-decoration-style:solid;text-indent:0;text-orientation:mixed;text-transform:none;white-space:normal"/><path transform="scale(.26458)" d="m59.867 312.07v95.447c0 20.287 6.8469 39.89 20.832 53.496 13.985 13.606 33.572 19.982 54.006 19.982 18.172 0 35.51-5.088 49.162-15.264v13.582h25.004 41.723c22.576 0 43.636-6.2678 59.977-18.779v18.779h24.996 54.227v-35.604c14.565-2.18 27.97-7.5791 38.865-16.625 14.64-12.155 23.475-31.193 23.475-50.994 0-18.34-7.9149-36.68-21.902-48.078-13.987-11.398-31.905-15.943-50.904-15.943h-68.756v16.25c-15.952-11.235-36.076-16.25-57.777-16.25h-40.549-73.146-5.7441-73.486z" color="#000000" color-rendering="auto" dominant-baseline="auto" image-rendering="auto" shape-rendering="auto" solid-color="#000000" stop-color="#000000" style="font-feature-settings:normal;font-variant-alternates:normal;font-variant-caps:normal;font-variant-east-asian:normal;font-variant-ligatures:normal;font-variant-numeric:normal;font-variant-position:normal;font-variation-settings:normal;inline-size:0;isolation:auto;mix-blend-mode:normal;shape-margin:0;shape-padding:0;text-decoration-color:#000000;text-decoration-line:none;text-decoration-style:solid;text-indent:0;text-orientation:mixed;text-transform:none;white-space:normal"/><use transform="translate(0 2.6458)" width="100%" height="100%" xlink:href="#a"/><path transform="scale(.26458)" d="m84.869 341.07v70.445c0 30.239 18.752 48.484 49.836 48.484 31.929 0 52.539-19.765 52.539-50.174v-68.756h-28.889v72.135c0 13.515-7.6023 21.455-20.441 21.455-15.035 0-23.82-9.2919-23.82-24.834v-68.756h-29.225zm124 0v117.24h41.727c40.207 0 66.73-24.158 66.73-60.986 0-35.308-23.989-56.254-64.533-56.254h-43.924zm126.7 0v117.24h29.227v-34.463h9.6289c31.76 0 52.707-17.4 52.707-43.754 0-24.496-17.907-39.023-47.809-39.023h-43.754zm-97.982 25.17h13.516c22.468 0 35.814 12.839 35.814 34.463 0 20.948-11.658 32.436-32.943 32.436h-16.387v-66.898zm127.21 0.50782h12.162c11.825 0 19.766 6.4186 19.766 16.217 0 9.4604-6.5885 15.205-17.062 15.205h-14.865v-31.422z" opacity=".3"/><path id="a" transform="scale(.26458)" d="m84.869 331.07v70.445c0 30.239 18.752 48.484 49.836 48.484 31.929 0 52.539-19.765 52.539-50.174v-68.756h-28.889v72.135c0 13.515-7.6023 21.455-20.441 21.455-15.035 0-23.82-9.2919-23.82-24.834v-68.756h-29.225zm124 0v117.24h41.727c40.207 0 66.73-24.158 66.73-60.986 0-35.308-23.989-56.254-64.533-56.254h-43.924zm126.7 0v117.24h29.227v-34.463h9.6289c31.76 0 52.707-17.4 52.707-43.754 0-24.496-17.907-39.023-47.809-39.023h-43.754zm-97.982 25.17h13.516c22.468 0 35.814 12.839 35.814 34.463 0 20.948-11.658 32.436-32.943 32.436h-16.387v-66.898zm127.21 0.50782h12.162c11.825 0 19.766 6.4185 19.766 16.217 0 9.4604-6.5885 15.205-17.062 15.205h-14.865v-31.422z" fill="url(#b)"/></svg>
