<svg width="512" height="512" version="1.1" viewBox="0 0 384 384" xmlns="http://www.w3.org/2000/svg">
	<defs>
		<clipPath>
			<rect width="384" height="384"/>
		</clipPath>
		<clipPath>
			<rect width="384" height="384"/>
		</clipPath>
	</defs>
	<path d="m192 24c-92.785 0-168 75.215-168 168 0 92.785 75.215 168 168 168 92.785 0 168-75.215 168-168 0-92.785-75.215-168-168-168z" style="fill:#0ba05d"/>
	<path d="m192 67.5c-39.766 0-72 32.234-72 72 0 32.924 22.098 60.685 52.271 69.262v97.941l23.796 24.797 23.796-24.797v-10.406l7.9321-12-7.9321-12v-12.797l15.864-18-15.864-18v-17.591c25.927-10.892 44.136-36.523 44.136-66.409 0-39.766-32.234-72-72-72zm0 12c19.883 0 36 16.117 36 36 0 19.883-16.117 36-36 36-19.883 0-36-16.117-36-36 0-19.883 16.117-36 36-36zm-11.796 144h7.9321v72h-7.9321z" style="opacity:.3"/>
	<path d="m192 60c-39.766 0-72 32.234-72 72 0 32.924 22.098 60.685 52.271 69.262v97.941l23.796 24.797 23.796-24.797v-10.406l7.9321-12-7.9321-12v-12.797l15.864-18-15.864-18v-17.591c25.927-10.892 44.136-36.523 44.136-66.409 0-39.766-32.234-72-72-72zm0 12c19.883 0 36 16.117 36 36 0 19.883-16.117 36-36 36-19.883 0-36-16.117-36-36 0-19.883 16.117-36 36-36zm-11.796 144h7.9321v72h-7.9321z" style="fill:#fff"/>
	<path transform="scale(.75)" d="m32.062 251c-0.036438 1.6631-0.0625 3.3282-0.0625 5 0 123.71 100.29 224 224 224 123.71 0 224-100.29 224-224 0-1.6718-0.02606-3.3369-0.0625-5-2.66 121.4-101.9 219-223.94 219-122.04 0-221.28-97.597-223.94-219z" style="opacity:.3;stroke-width:1.3333"/>
	<path transform="scale(.75)" d="m256 32c-123.71 0-224 100.29-224 224 0 1.6718 0.026062 3.3369 0.0625 5 2.66-121.4 101.9-219 223.94-219 122.04 0 221.28 97.597 223.94 219 0.03644-1.6631 0.0625-3.3282 0.0625-5 0-123.71-100.29-224-224-224z" style="fill:#fff;opacity:.3;stroke-width:1.3333"/>
</svg>
