<svg width="512" height="512" version="1.1" viewBox="0 0 384 384" xmlns="http://www.w3.org/2000/svg"><path d="m360 342v-300c0-9.9414-8.0586-18-18-18h-300c-9.9414 0-18 8.0586-18 18v300c0 9.9414 8.0586 18 18 18h300c9.9414 0 18-8.0586 18-18z" fill="#23a86e"/><path d="m106.52 106.44c-65.145 65.27-94.316 158.28-78.133 249.11 90.777 16.332 183.8-12.793 249.11-77.988 65.141-65.27 94.312-158.28 78.129-249.11-90.777-16.328-183.8 12.793-249.11 77.988z" opacity=".3"/><path d="m259.37 192c0 37.203-30.164 67.366-67.366 67.366s-67.366-30.164-67.366-67.366 30.164-67.366 67.366-67.366 67.366 30.164 67.366 67.366z" opacity=".3" stroke-width="1.4035"/><path d="m240 192c0 26.508-21.492 48-48 48s-48-21.492-48-48 21.492-48 48-48 48 21.492 48 48z" fill="#ffc72e"/><path d="m323.12 96.004c0 19.398-15.728 35.126-35.126 35.126s-35.126-15.728-35.126-35.126 15.728-35.126 35.126-35.126 35.126 15.728 35.126 35.126z" opacity=".3" stroke-width="1.4636"/><path d="m312 96.004c0 13.254-10.742 24-24 24-13.254 0-24-10.746-24-24s10.746-24 24-24c13.258 0 24 10.746 24 24z" fill="#ffc72e"/><path d="m131.13 288c0 19.398-15.728 35.126-35.126 35.126s-35.126-15.728-35.126-35.126 15.728-35.126 35.126-35.126 35.126 15.728 35.126 35.126z" opacity=".3" stroke-width="1.4636"/><path d="m120 288c0 13.254-10.746 24-24 24s-24-10.746-24-24 10.746-24 24-24 24 10.746 24 24z" fill="#ffc72e"/><path transform="scale(.75)" d="m32 446v10c0 13.255 10.745 24 24 24h400c13.255 0 24-10.745 24-24v-10c0 13.255-10.745 24-24 24h-400c-13.255 0-24-10.745-24-24z" fill="#e9fff5" opacity=".3" stroke-width="1.3333"/><path transform="scale(.75)" d="m56 32c-13.255 0-24 10.745-24 24v10c0-13.255 10.745-24 24-24h400c13.255 0 24 10.745 24 24v-10c0-13.255-10.745-24-24-24h-400z" fill="#f6f6f6" opacity=".3" stroke-width="1.3333"/></svg>
