<svg width="512" height="512" version="1.1" viewBox="0 0 384 384" xmlns="http://www.w3.org/2000/svg"><defs><clipPath><rect width="384" height="384"/></clipPath><clipPath><rect width="384" height="384"/></clipPath></defs><path d="m360.75 192c0-93.199-75.551-168.75-168.75-168.75-93.199 0-168.75 75.551-168.75 168.75 0 93.199 75.551 168.75 168.75 168.75 93.199 0 168.75-75.551 168.75-168.75z" style="fill:#17a185;stroke-width:1.0045"/><path d="m164.17 138.49-4e-3 7e-3c-4.1944 0-7.5806 3.2764-7.5806 7.3374v117.85c0 4.0571 3.3866 7.3652 7.585 7.3652 22.844 0 45.672 0.0308 68.531 0.0308 37.84-0.0117 68.531-29.698 68.531-66.302 0-36.6-30.691-66.287-68.531-66.287zm-59.82 7e-3c-4.4225 4e-3 -8.0288 3.283-8.0288 7.3418v117.87c0 4.065 3.6097 7.3652 8.0317 7.3652h32.147c4.4259 0 8.0347-3.3081 8.0347-7.3652v-117.88c0-4.061-3.6053-7.3374-8.0391-7.3374h-32.139z" style="opacity:.3;stroke-width:1.0045"/><path d="m104.35 130.99h32.147c4.4338 0 8.0396 3.2763 8.0396 7.3373v117.88c0 4.0571-3.6098 7.3648-8.0357 7.3648h-32.147c-4.422 0-8.0318-3.2998-8.0318-7.3648v-117.87c0-4.061 3.6098-7.3412 8.0357-7.3412" style="fill:#fff;stroke-width:1.0045"/><path d="m164.17 130.99c-4.1944 0-7.5806 3.2763-7.5806 7.3373v117.85c0 4.0571 3.3862 7.3648 7.5845 7.3648 22.844 0 45.672 0.0313 68.531 0.0313 37.84-0.0117 68.531-29.698 68.531-66.302 0-36.6-30.691-66.287-68.531-66.287h-68.531z" style="fill:#fff;stroke-width:1.0045"/><path transform="scale(.75)" d="m31.064 251c-0.036282 1.6632-0.064453 3.3281-0.064453 5 0 124.27 100.73 225 225 225s225-100.73 225-225c0-1.6719-0.02817-3.3368-0.06445-5-2.6604 121.96-102.34 220-224.94 220s-222.28-98.045-224.94-220z" style="opacity:.3;stroke-width:1.3393"/><path transform="scale(.75)" d="m256 31c-124.27 0-225 100.73-225 225 0 1.6719 0.028171 3.3368 0.064453 5 2.6604-121.96 102.34-220 224.94-220s222.28 98.045 224.94 220c0.03628-1.6632 0.06445-3.3281 0.06445-5 0-124.27-100.73-225-225-225z" style="fill:#fff;opacity:.3;stroke-width:1.3393"/></svg>
