<svg width="512" height="512" version="1.1" viewBox="0 0 384 384" xmlns="http://www.w3.org/2000/svg"><defs><clipPath><rect width="384" height="384"/></clipPath><clipPath><rect width="384" height="384"/></clipPath></defs><g transform="translate(-18)"><path d="m60.121 24c12.008 16.613 18.145 34.242 0 60-1.9062 22.52 5.9805 35.613 32.93 35.133 6.375-0.42968 16.5-1.6914 21.82-6.7031 8.4336-10.328 5.1641-15.734 1.6875-16.453-3.6133-1.0703-12.352 4.3398-3.9609 8.3437 1.7656 7.2266-18.387 6.4805-22.102 0.39844-13.996-25.055 23.234-43.066 65.625-26.719 8.6875 68.379 18.543 155.51 7.8984 236.91-6.9688 16.164-14.43 25.867-31.898 33.094v12c24-12 84-12 120-12v-12c-15.523-2.7969-27.844-17.211-29.672-31.711-6.0312-80.68-10.441-139.78 5.6719-220.29h59.625c7.4336 0.16797 10.484 6.3398 12.375 24h24c-8.375-19.996-12-36-12-60-89.637 13.855-155.07 1.543-252-24zm247.66 192c-4.5234 0.0195-9.0078 0.45703-13.383 1.2422-8.4609 1.5195-19.156 6.1914-21.305 14.508-1.9688 7.6094-2.4453 18.074 10.594 21.07l4.4297-0.82031v-12c7.2578-14.82 23.992-15.746 34.008-4.6641 12.406 22.523-3.5781 48.75-15.141 65.578-11.352 18.73-27.293 22.078-42.867 35.086v12s53.289 3.2969 72 12c2.6289-10.879 28.609-31.945 23.32-42.375-7.0781-9.0547-23.32-5.625-23.32 6.375l10.5-0.23438c1.9219-4.0508 0.89063-4.8242 3.4219-2.3672 1.4844 7.2773-6.207 10.973-11.227 13.266-14.695 1.3398-38.707 1.3477-38.789 0.70313 32.461-32.379 74.762-72.02 46.148-105.3-11.074-10.312-24.828-14.121-38.391-14.062z" fill="#ffc72e"/></g><path transform="scale(.75)" d="m56.16 32c7.7743 10.756 13.689 21.836 14.961 34.316 1.1865-11.863-1.9126-22.382-7.3145-32.328-2.5663-0.67063-5.0468-1.3032-7.6465-1.9883zm85.568 53.645c-31.223-0.018523-52.84 14.923-48.506 35.121 5.1927-22.402 45.878-34.143 90.938-16.766 7.8077 61.454 16.31 134.27 16.686 208.45 0.39055-77.612-8.5272-154.23-16.686-218.45-15.013-5.7898-29.54-8.3478-42.432-8.3555zm138.43 16.355c-11.446 57.192-15.123 106.28-14.846 155.93 0.25334-46.284 4.1682-92.582 14.846-145.93h79.5c9.9115 0.22396 13.979 8.4531 16.5 32h32c-1.4282-3.4099-2.7485-6.7308-3.9727-10h-28.027c-2.5208-23.547-6.5885-31.776-16.5-32h-79.5zm-224.2 12.848c-1.6374 28.278 9.3292 44.616 44.109 43.996 8.5-0.57289 22-2.2552 29.094-8.9375 7.9261-9.7067 8.0904-16.139 5.8789-19.434-1.082 2.7038-2.9469 5.843-5.8789 9.4336-1.102 1.0381-2.3718 1.9426-3.7402 2.7539-1.281 1.6422-3.9025 2.6551-7.0898 3.0938-6.2444 1.9904-13.155 2.7455-18.264 3.0898-30.447 0.54285-42.641-11.914-44.109-33.996zm69.764 14.037c-2.7171 1.3181-4.9296 3.6613-4.1152 6.1406 3.2476-1.0633 5.2389-3.0032 4.5234-5.9316-0.14509-0.06924-0.27073-0.13914-0.40821-0.20898zm258.92 164.91c-9.596-0.16056-19.039 5.0938-24.482 16.209v10c9.6771-19.76 31.99-20.995 45.344-6.2188 3.3956 6.1647 5.1759 12.539 5.7598 18.969 0.87006-9.7832-0.60796-19.616-5.7598-28.969-5.8424-6.4645-13.398-9.8654-20.861-9.9902zm-45.447 19.672c-1.5051 9.4075 0.11312 20.197 15.059 23.631l5.9062-1.0938v-10l-5.9062 1.0938c-9.7184-2.2331-13.802-7.5788-15.059-13.631zm110.73 20.48c-3.5328 34.846-42.223 71.622-73.895 103.21 0.03697 0.29054 3.8938 0.47066 9.5117 0.52734 32.577-32.474 68.002-69.403 64.383-103.74zm-9.4863 82.73c-0.61728 0.03242-0.70812 1.6938-2.2832 5.0137l-10.174 0.22656c-2.3451 2.5258-3.8262 5.9131-3.8262 10.086l11.938-0.26562c1.1269-0.77809 2.1812-1.6388 3.1211-2.5781 0.80359-2.1752 0.88012-2.9215 1.8223-2.1934 1.5746-2.3272 2.3631-5.0906 1.6816-8.4316-1.2403-1.2039-1.8362-1.82-2.2246-1.8574-0.01823 2.9e-4 -0.03647-3.5e-4 -0.05469 0zm14.623 6.6035c-5.335 14.779-28.099 35.105-30.906 46.723-24.948-11.604-96-16-96-16v10s71.052 4.3958 96 16c3.5052-14.505 38.146-42.594 31.094-56.5-0.06044-0.07731-0.12607-0.14671-0.1875-0.22266zm-142.91 30.723c-48 0-128 0-160 16v10c32-16 112-16 160-16v-10z" opacity=".3" stroke-width="1.3333"/><path transform="scale(.75)" d="m56.16 32c2.844 3.9348 5.4341 7.9149 7.6465 11.988 125.02 32.67 211.24 48.114 328.35 30.012 0 27.907 3.6803 47.708 12.027 70h3.9727c-11.167-26.661-16-48-16-80-119.52 18.474-206.76 2.0573-336-32zm14.961 44.316c-1.0632 10.63-5.5585 22.336-14.961 35.684-0.38797 4.5833-0.4676 8.8697-0.20312 12.848 0.05424-0.93671 0.12163-1.8849 0.20312-2.8477 12.445-17.667 16.309-32.462 14.961-45.684zm59.314 51.484c-5.1367-0.35879-14.515 6.105-4.7148 11.084 1.9547-0.94828 4.163-1.3682 5.6895-0.91602 1.368 0.28283 2.703 1.1243 3.6289 2.5039 3.0676-7.666-0.20212-11.795-3.6289-12.504-0.30111-0.08919-0.62737-0.14371-0.97461-0.16797zm-37.213 2.9648c-1.3208 5.6982-0.34668 12.085 3.4375 18.859 2.9893 4.8941 13.957 7.1903 21.67 6.1289 2.5315-0.80689 4.9436-1.8213 7.0898-3.0938 0.75545-0.96846 1.0552-2.1492 0.70899-3.5664-2.7154-1.2958-4.0747-2.7021-4.5234-4.0684-7.438 2.4353-21.498 0.24437-24.945-5.4004-1.6986-3.0407-2.8243-6.0018-3.4375-8.8594zm172.09 137.17c-0.2564 46.845 3.2382 93.675 7.2832 147.79 2.4375 19.333 18.865 38.552 39.562 42.281v-10c-20.698-3.7292-37.125-22.948-39.562-42.281-3.7573-50.261-7.0403-94.24-7.2832-137.79zm121.06 20.066c-6.0313 0.026-12.01 0.60937-17.844 1.6562-11.281 2.026-25.542 8.2552-28.406 19.344-1.1576 4.4743-1.9248 9.6883-0.9336 14.463 0.24572-1.5358 0.56519-3.039 0.9336-4.4629 2.8646-11.089 17.125-17.318 28.406-19.344 5.8333-1.0469 11.812-1.6302 17.844-1.6562 18.083-0.07812 36.422 5 51.188 18.75 7.547 8.7793 11.383 17.891 12.363 27.193 1.2951-12.774-2.1294-25.288-12.363-37.193-14.766-13.75-33.104-18.828-51.188-18.75zm-185.53 34.445c-0.16396 32.583-1.9577 65.34-6.1543 97.43-9.2917 21.552-19.24 34.49-42.531 44.125v10c23.292-9.6354 33.24-22.573 42.531-44.125 4.6262-35.375 6.3358-71.56 6.1543-107.43zm210.42 20.305c-1.9236 21.629-15.332 43.019-25.947 58.469-15.135 24.974-36.391 29.438-57.156 46.781v10c20.766-17.344 42.021-21.807 57.156-46.781 12.252-17.832 28.208-43.576 25.947-68.469zm30.006 73.916c-8.6487-0.20152-17.109 5.334-17.109 15.334l3.8262-0.08594c3.0956-3.334 7.7045-5.1503 12.457-5.2402 0.01793-9.4e-4 0.03582-0.00182 0.05469 0 5.3467-0.08624 10.854 2.0112 14.568 6.6035 1.326-3.6732 1.5913-7.0091 0.1875-9.7773-3.5391-4.5274-8.7952-6.7131-13.984-6.834zm-0.22851 20.299c-0.52721 0.77906-1.1387 1.5082-1.8223 2.1914-0.26109 0.70672-0.57708 1.5164-1.0586 2.5312l-2.0625 0.04688c-2.7151 1.8747-5.788 3.3169-8.3438 4.4844-12.969 1.1825-31.208 1.5758-42.207 1.4648-3.2094 3.1993-6.398 6.3669-9.5117 9.4727 0.10937 0.85937 32.125 0.84895 51.719-0.9375 6.6927-3.0573 16.948-7.9844 14.969-17.688-0.78834-0.76523-1.3009-1.272-1.6816-1.5664z" fill="#fff" opacity=".2" stroke-width="1.3333"/></svg>
