<svg width="36pt" height="36pt" version="1.1" viewBox="0 0 36 36" xmlns="http://www.w3.org/2000/svg"><defs><filter id="a" x="-.192" y="-.192" width="1.384" height="1.384" color-interpolation-filters="sRGB"><feGaussianBlur stdDeviation="0.67843748"/></filter></defs><path d="m7.3477 3.9022c-0.67188 0-1.3047 0.63281-1.3047 1.3047v27.391c0 0.63281 0.67188 1.3047 1.3047 1.3047h20.871c0.63281 0 1.3047-0.67188 1.3047-1.3047v-20.215l-8.4805-8.4805z" opacity=".1"/><path d="m7.3672 3.1875c-0.67188 0-1.3047 0.63281-1.3047 1.3047v27.391c0 0.63281 0.67188 1.3047 1.3047 1.3047h20.871c0.63281 0 1.3047-0.67188 1.3047-1.3047v-20.219l-8.4805-8.4766z" fill="#1b949a"/><path d="m20.668 3.5272 8.4805 8.4805h-7.1758c-0.63281 0-1.3047-0.67187-1.3047-1.3047z" filter="url(#a)" opacity=".2"/><path d="m21.062 3.1875 8.4805 8.4766h-7.1758c-0.63281 0-1.3047-0.66797-1.3047-1.3047z" fill="#5dbcaa"/><path d="m11.281 3.1875v2.6094h2.6094v2.6094h-2.6094v2.6055h2.6094v2.6094h-2.6094v2.6094h2.6094v3.9141h-2.6094v5.2148h5.2148v-5.2148h-2.6055v-1.3047h2.6055v-2.6094h-2.6055v-2.6094h2.6055v-2.6094h-2.6055v-2.6055h2.6055v-2.6094h-2.6055v-2.6094z" fill="#fff"/></svg>
