<svg width="512" height="512" version="1.1" viewBox="0 0 384 384" xmlns="http://www.w3.org/2000/svg" xmlns:xlink="http://www.w3.org/1999/xlink"><defs><filter id="alpha" x="0" y="0" width="1" height="1"><feColorMatrix in="SourceGraphic" values="0 0 0 0 1 0 0 0 0 1 0 0 0 0 1 0 0 0 1 0"/></filter><mask id="mask1"><g filter="url(#alpha)"><rect width="384" height="384" fill-opacity=".2"/></g></mask><clipPath id="clip2"><rect width="384" height="384"/></clipPath><g id="surface8" clip-path="url(#clip2)"><path d="m324 222.01c-21.879 24.004-46.215 49.652-80.289 47.328-14.074-2.125-29.5-17.898-40.809-33.516-14.312-19.766-26.371-42.91-39.297-64.34-10.836-16.273-24.445-32.172-50.77-12.648-8.9805 6.3242-17.754 17.699-24.555 29.879-10.863 19.43 8.0625 45.457 25.715 45.289 72.852-0.71875 153.75-74.34 198-108-40.035 43.008-61.543 67.684-143.48 115.55-20.18 11.582-37.918 18.953-63.855 25.281-15.527 3.7852-38.387 7.2969-43.395-9.1875-5.2148-17.18 7.2305-43.668 9.8242-49.41 19.566-43.297 48.789-88.25 99.887-81.574 48.727 6.3711 51.027 82.43 87.398 102.42 17.902 9.8242 31.258 10.895 65.613-7.0938z"/></g></defs><path d="m312.95 79.509c-10.773-0.20703-21.301 3.2305-29.887 9.75-11.836 9.0117-27.59 20.418-41.539 31.332-2.3672-3.1172-3-5.8789-5.8516-9-13.02-14.238-33.934-27.871-58.207-31.051-40.375-5.2812-78.023 12.371-101.43 35.34-23.406 22.969-37.293 49.891-48.188 74.027l-0.0234 0.0234c-0.83593 1.8555-6.1367 13-10.133 26.645-4 13.645-9.5195 31.152-1.8476 56.453 4.3359 14.289 15.297 28.266 27.168 35.688 11.875 7.4258 23.137 9.5937 32.32 10.383 18.359 1.5742 31.352-1.8242 41.051-4.1953 25.555-6.2383 46.703-14.996 67.027-25.777 11.566 13.09 26.211 25.008 53.336 29.105 1.2891 0.19532 2.5859 0.33594 3.8867 0.42188 29.727 2.0312 56.406-9.0898 75.336-22.309 18.93-13.223 32.371-28.309 43.531-40.562 17.246-18.957 16.566-48.145-1.5469-66.273-7.2734-7.2539-16.684-11.977-26.844-13.473 5.0898-5.3789 10.77-10.207 16.055-15.891 28.168-30.395 7.1875-79.84-34.215-80.637z" opacity=".3"/><path d="m312.95 72.008c-10.773-0.20703-21.301 3.2305-29.887 9.75-11.836 9.0117-27.59 20.418-41.539 31.332-2.3672-3.1172-3-5.8789-5.8516-9-13.02-14.238-33.934-27.871-58.207-31.051-40.375-5.2812-78.023 12.371-101.43 35.34s-37.293 49.891-48.188 74.027l-0.02344 0.0234c-0.83594 1.8555-6.1367 13-10.133 26.645-4 13.645-9.5195 31.152-1.8477 56.453 4.3359 14.289 15.297 28.266 27.168 35.688 11.875 7.4258 23.137 9.5938 32.32 10.383 18.359 1.5742 31.352-1.8242 41.051-4.1953 25.555-6.2383 46.703-14.996 67.027-25.777 11.566 13.09 26.211 25.008 53.336 29.105 1.2891 0.19531 2.5859 0.33594 3.8867 0.42188 29.727 2.0312 56.406-9.0898 75.336-22.309 18.93-13.223 32.371-28.309 43.531-40.562 17.246-18.957 16.566-48.145-1.5469-66.273-7.2734-7.2539-16.684-11.977-26.844-13.473 5.0898-5.3789 10.77-10.207 16.055-15.891 28.168-30.395 7.1875-79.84-34.215-80.637z" fill="#333"/><use width="100%" height="100%" mask="url(#mask1)" xlink:href="#surface8"/><path d="m324 216.01c-21.879 24.004-46.215 49.652-80.289 47.328-14.074-2.125-29.5-17.898-40.809-33.516-14.312-19.766-26.371-42.91-39.297-64.34-10.836-16.273-24.445-32.172-50.77-12.648-8.9805 6.3242-17.754 17.699-24.555 29.879-10.863 19.43 8.0625 45.457 25.715 45.289 72.852-0.71875 153.75-74.34 198-108-40.035 43.008-61.543 67.684-143.48 115.55-20.18 11.582-37.918 18.953-63.855 25.281-15.527 3.7852-38.387 7.2969-43.395-9.1875-5.2148-17.18 7.2305-43.668 9.8242-49.41 19.566-43.297 48.789-88.25 99.887-81.574 48.727 6.3711 51.027 82.43 87.398 102.42 17.902 9.8242 31.258 10.895 65.613-7.0938z" fill="#23bac2"/><path transform="scale(.75)" d="m417.27 96.01c-14.365-0.27604-28.402 4.3073-39.85 13-15.781 12.016-36.786 27.225-55.385 41.777-3.1562-4.1562-4.0006-7.8385-7.8027-12-17.359-18.984-45.245-37.163-77.609-41.402-53.833-7.0417-104.03 16.496-135.24 47.121-31.208 30.625-49.724 66.521-64.25 98.703l-0.03125 0.0312c-1.1146 2.474-8.1836 17.333-13.512 35.525-3.7095 12.654-8.3911 27.804-7.4609 47.205 0.71215-14.733 4.414-26.812 7.4609-37.205 5.3281-18.193 12.397-33.051 13.512-35.525l0.03125-0.0312c14.526-32.182 33.042-68.078 64.25-98.703s81.405-54.163 135.24-47.121c32.365 4.2396 60.25 22.418 77.609 41.402 3.8021 4.1615 4.6465 7.8438 7.8027 12 18.599-14.552 39.604-29.762 55.385-41.777 11.448-8.6927 25.485-13.276 39.85-13 35.851 0.69001 60.206 28.739 62.598 59.42 2.7455-34.305-22.875-68.655-62.598-69.42zm32.486 130.5c-2.8215 2.6973-5.6144 5.3931-8.2734 8.2031 13.547 1.9948 26.095 8.293 35.793 17.965 11.187 11.197 17.377 25.558 18.523 40.262 1.4028-18.044-4.8043-36.531-18.523-50.262-7.6885-7.6678-17.171-13.205-27.52-16.168z" fill="#fff" opacity=".3" stroke-width="1.3333"/></svg>
