<svg width="512" height="512" version="1.1" viewBox="0 0 384 384" xmlns="http://www.w3.org/2000/svg"><path transform="scale(.75)" d="m252.46 63.85c-13.559 0-18.853 0.45796-28.965 2.5078-24.282 4.9145-40.428 12.9-54.965 27.432-12.617 12.613-19.352 24.608-23.582 41.99-0.79168 3.2507-1.3084 5.1016-1.332 7.3476-0.0236 2.2468 1.0544 4.5708 1.9062 5.8711l0.0039 0.00195c1.3774 2.0988 3.8752 4.2815 6.8535 5.2832s6.4248 1.4399 11.994 2.0625h0.00586c4.9784 0.55272 13.658 1.6537 19.109 2.4199 5.7095 0.80249 12.218 1.4551 15.725 1.4551 2.2729 0 4.0712-0.00334 6.1348-0.74414 2.0636-0.7413 3.6918-2.3188 4.75-3.6621l0.00195-0.00195 0.00391-0.00586c1.9912-2.537 3.2318-5.5334 4.1602-8.6602v-0.0039c1.8129-6.0977 3.2-8.4982 7.6914-13.307 7.0303-7.5103 15.421-11.044 26.604-11.016 7.8811 0.01928 12.238 1.3329 18.252 5.4238 3.6962 2.5205 6.0261 5.4842 7.7422 10.348 1.7169 4.8656 2.6152 11.703 2.6152 21.088 0 6.5443-0.51415 9.289-0.39844 9.4297-0.54486 0.04533-1.0375 0.10368-2.3848 0.10742-3.8429 0.01066-12.109 0.87027-21.406 1.9414-9.2968 1.0711-19.037 2.3479-24.395 3.3125-41.879 7.5367-70.012 24.268-83.266 51.037-7.2419 14.618-8.9962 22.972-8.9805 42.67v0.00196c0.0156 15.351 0.38303 18.565 2.7832 26.424l0.0039 0.0039c3.2181 10.516 6.3164 16.767 12.283 24.705v0.00195c9.2275 12.268 24.746 21.472 41.416 24.99 17.26 3.6392 43.894 1.7186 59.607-4.4629v0.00195c12.441-4.893 25.761-14.137 36.143-24.896l0.00391-0.00196 0.00195-0.00586c0.47099-0.49 0.85764-0.79922 1.3144-1.2285 1.1292 1.3423 2.4186 2.9247 3.8184 4.8301 3.6808 5.0173 9.7273 12.013 14.07 16.271 3.5275 3.4596 5.3952 5.4009 7.8223 6.873s5.2208 1.7226 7.4961 1.7226c2.2589 0 4.7649-0.26029 7.1035-1.4082 2.3387-1.1479 4.3041-2.7444 7.4922-5.3281v0.00195c7.8324-6.344 16.027-13.445 22.432-19.322 3.2022-2.9388 5.95-5.5665 8.0215-7.6875 1.0358-1.0605 1.8984-1.9858 2.6094-2.8301 0.71045-0.84365 1.2582-1.1258 1.9434-3.0762 0.96699-2.7502 0.65078-6.3415-0.78711-9.4316-1.4379-3.0901-3.7273-6.3456-7.3359-11.139-2.6078-3.4664-6.4324-9.9661-7.8262-13.201v-0.00391l-2.6797-6.1914-0.55664-61.158c-0.18501-20.037-0.42931-36.301-0.71875-48.221-0.28942-11.919-0.5334-19.028-1.0332-22.516-2.4857-17.353-8.0569-29.715-18.49-40.449-18.035-18.559-45.516-27.598-80.816-27.598zm34.148 141.81 0.3496 21.082c0.34243 21.217-1.3413 30.703-7.9199 44.27-7.361 15.178-17.486 24.486-31.314 28.088-11.623 3.0248-22.38 0.49371-31.029-7.4141-7.8243-7.1484-11.611-16.087-12.316-28.266-0.66814-11.57 1.0815-21.615 5.7441-30.008 4.6626-8.3929 12.155-14.892 22.008-19.686 11.183-5.4403 21.473-7.4907 38.088-7.7832l16.391-0.2832z" color="#000000" color-rendering="auto" dominant-baseline="auto" image-rendering="auto" opacity=".2" shape-rendering="auto" solid-color="#000000" style="font-feature-settings:normal;font-variant-alternates:normal;font-variant-caps:normal;font-variant-ligatures:normal;font-variant-numeric:normal;font-variant-position:normal;isolation:auto;mix-blend-mode:normal;shape-padding:0;text-decoration-color:#000000;text-decoration-line:none;text-decoration-style:solid;text-indent:0;text-orientation:mixed;text-transform:none;white-space:normal"/><path d="m145.39 262.06c-11.641-2.457-22.617-9.0547-28.84-17.328-4.3047-5.7266-6.2774-9.7031-8.625-17.375-1.7656-5.7812-1.9141-7.2461-1.9258-18.727-0.0117-14.594 1.0352-19.613 6.3476-30.336 9.2852-18.754 28.996-30.715 59.754-36.25 7.5938-1.3672 29.332-3.8711 33.695-3.8828 5.7227-0.0156 5.8281-0.20705 5.8281-10.902 0-14.535-2.6641-22.078-9.4102-26.676-4.9844-3.3906-9.3711-4.7031-15.789-4.7187-9.2422-0.0234-16.77 3.1133-22.703 9.4531-3.5976 3.8516-5.1602 6.5586-6.6211 11.473-0.55078 1.8555-1.6641 4.2148-2.4766 5.25-1.2617 1.6016-2.0234 1.875-5.2188 1.875-2.0547 0-7.1289-0.47265-11.27-1.0547-4.1406-0.58203-10.641-1.4062-14.441-1.8281-8.2461-0.92187-9.8594-1.4648-11.418-3.8398-1.1055-1.6875-1.1016-2.1445 0.0742-6.9727 3.0586-12.57 7.5742-20.609 16.695-29.727 10.43-10.426 21.539-15.953 39.316-19.551 7.457-1.5117 10.883-1.8047 20.98-1.8047 25.84 0 45.297 6.5703 57.922 19.562 7.3203 7.5312 11.051 15.734 12.844 28.254 0.54689 3.8164 1 22.523 1.2774 52.555l0.42578 46.629 2.3086 5.3359c1.2656 2.9375 4.1094 7.7383 6.3164 10.672 5.3203 7.0664 6.4258 9.4414 5.5508 11.93-0.64844 1.8476-13.469 13.613-25.078 23.016-4.7188 3.8242-5.5156 4.2148-8.5859 4.2148-3.2539 0-3.5938-0.20703-8.8633-5.375-3.0156-2.957-7.5859-8.2422-10.156-11.746-2.5742-3.5039-5.0664-6.3711-5.539-6.3711-0.47656 0-2.293 1.4805-4.0352 3.293-7.4062 7.6758-17.121 14.379-25.781 17.785-10.555 4.1523-30.758 5.6562-42.559 3.168zm39.453-33.863c9.3594-2.4375 15.836-8.3047 21.059-19.074 4.7695-9.8359 5.8164-15.773 5.5625-31.504l-0.19922-12.059-8.5391 0.14844c-12.203 0.21484-19.051 1.5977-26.992 5.4609-13.754 6.6914-19.656 17.316-18.711 33.68 0.4961 8.5625 2.7695 13.848 8.0234 18.648 5.75 5.2578 11.977 6.7344 19.797 4.6992z" opacity=".3"/><path d="m168.2 339.9c-29.641-3.5586-57.738-16.629-90.051-41.879-10.129-7.9141-21.277-17.543-22.219-19.188-1.4102-2.457-1.0781-5.3281 0.83203-7.2383 2.9648-2.9688 5.2734-2.3906 17.473 4.3711 37.965 21.043 62.137 30.766 88.625 35.641 10.082 1.8555 41.16 1.8711 53.035 0.0273 24.598-3.8203 42.574-8.7578 67.129-18.43 14.086-5.5508 15.785-5.7344 19.309-2.0547 2.3008 2.4023 2.6523 6.1758 0.83203 8.9531-1.5469 2.3594-10.395 8.5156-20.387 14.188-35.324 20.047-79.215 29.855-114.58 25.609zm141.66-24.492c-0.78124-0.78125-1.4219-2.207-1.4219-3.1641s1.7305-6.9648 3.8476-13.348c4.4727-13.496 5.3594-18.316 3.6719-20.004-1.8164-1.8164-7.2539-2.2266-16.418-1.2383-15.918 1.7148-18.062 1.75-19.609 0.35157-2.1406-1.9375-1.8633-6.0234 0.56641-8.3008 2.5977-2.4336 8.9414-5.9258 13.809-7.6016 9.7539-3.3555 29.836-3.8438 36.516-0.88672 4.8906 2.1641 5.7539 4.082 5.6289 12.523-0.20312 13.797-6.1484 28.844-15.062 38.117-4.2461 4.418-5.0781 4.9766-7.4414 4.9766-1.7109 0-3.168-0.50781-4.0859-1.4258z" opacity=".3"/><path d="m145.39 254.56c-11.641-2.457-22.617-9.0547-28.84-17.328-4.3047-5.7266-6.2773-9.7031-8.625-17.375-1.7656-5.7812-1.9141-7.2461-1.9258-18.727-0.011718-14.594 1.0352-19.613 6.3477-30.336 9.2852-18.754 28.996-30.715 59.754-36.25 7.5938-1.3672 29.332-3.8711 33.695-3.8828 5.7227-0.015625 5.8281-0.20703 5.8281-10.902 0-14.535-2.6641-22.078-9.4102-26.676-4.9844-3.3906-9.3711-4.7031-15.789-4.7188-9.2422-0.023437-16.77 3.1133-22.703 9.4531-3.5977 3.8516-5.1602 6.5586-6.6211 11.473-0.55078 1.8555-1.6641 4.2148-2.4766 5.25-1.2617 1.6016-2.0234 1.875-5.2188 1.875-2.0547 0-7.1289-0.47266-11.27-1.0547s-10.641-1.4062-14.441-1.8281c-8.2461-0.92188-9.8594-1.4648-11.418-3.8398-1.1055-1.6875-1.1016-2.1445 0.074219-6.9727 3.0586-12.57 7.5742-20.609 16.695-29.727 10.43-10.426 21.539-15.953 39.316-19.551 7.457-1.5117 10.883-1.8047 20.98-1.8047 25.84 0 45.297 6.5703 57.922 19.562 7.3203 7.5312 11.051 15.734 12.844 28.254 0.54688 3.8164 1 22.523 1.2773 52.555l0.42578 46.629 2.3086 5.3359c1.2656 2.9375 4.1094 7.7383 6.3164 10.672 5.3203 7.0664 6.4258 9.4414 5.5508 11.93-0.64844 1.8477-13.469 13.613-25.078 23.016-4.7188 3.8242-5.5156 4.2148-8.5859 4.2148-3.2539 0-3.5938-0.20703-8.8633-5.375-3.0156-2.957-7.5859-8.2422-10.156-11.746-2.5742-3.5039-5.0664-6.3711-5.5391-6.3711-0.47656 0-2.293 1.4805-4.0352 3.293-7.4062 7.6758-17.121 14.379-25.781 17.785-10.555 4.1523-30.758 5.6562-42.559 3.168zm39.453-33.863c9.3594-2.4375 15.836-8.3047 21.059-19.074 4.7695-9.8359 5.8164-15.773 5.5625-31.504l-0.19922-12.059-8.5391 0.14844c-12.203 0.21484-19.051 1.5977-26.992 5.4609-13.754 6.6914-19.656 17.316-18.711 33.68 0.49609 8.5625 2.7695 13.848 8.0234 18.648 5.75 5.2578 11.977 6.7344 19.797 4.6992z" fill="#fff"/><path d="m168.2 332.4c-29.641-3.5586-57.738-16.629-90.051-41.879-10.129-7.9141-21.277-17.543-22.219-19.188-1.4102-2.457-1.0781-5.3281 0.83203-7.2383 2.9648-2.9688 5.2734-2.3906 17.473 4.3711 37.965 21.043 62.137 30.766 88.625 35.641 10.082 1.8555 41.16 1.8711 53.035 0.027343 24.598-3.8203 42.574-8.7578 67.129-18.43 14.086-5.5508 15.785-5.7344 19.309-2.0547 2.3008 2.4023 2.6523 6.1758 0.83203 8.9531-1.5469 2.3594-10.395 8.5156-20.387 14.188-35.324 20.047-79.215 29.855-114.58 25.609zm141.66-24.492c-0.78125-0.78125-1.4219-2.207-1.4219-3.1641 0-0.95703 1.7305-6.9648 3.8477-13.348 4.4727-13.496 5.3594-18.316 3.6719-20.004-1.8164-1.8164-7.2539-2.2266-16.418-1.2383-15.918 1.7148-18.062 1.75-19.609 0.35156-2.1406-1.9375-1.8633-6.0234 0.56641-8.3008 2.5977-2.4336 8.9414-5.9258 13.809-7.6016 9.7539-3.3555 29.836-3.8438 36.516-0.88672 4.8906 2.1641 5.7539 4.082 5.6289 12.523-0.20312 13.797-6.1484 28.844-15.062 38.117-4.2461 4.418-5.0781 4.9766-7.4414 4.9766-1.7109 0-3.168-0.50781-4.0859-1.4258z" fill="#e32f2f"/><path transform="scale(.75)" d="m252.46 68.85c-4.661 0-8.219 0.05241-11.34 0.19727 30.165 1.3708 53.179 10.046 68.57 25.885 9.7604 10.042 14.734 20.979 17.125 37.672 0.72919 5.0885 1.3333 30.033 1.7031 70.074l0.56641 62.172 3.0781 7.1133c1.6875 3.9167 5.4792 10.319 8.4219 14.23 7.0938 9.4219 8.569 12.589 7.4023 15.906-0.86458 2.4635-17.958 18.151-33.438 30.688-0.34 0.27555-0.6111 0.48688-0.92187 0.73633 4.8545 4.6707 5.676 4.8828 9.4727 4.8828 4.0938 0 5.1576-0.52018 11.449-5.6191 15.479-12.536 32.573-28.224 33.438-30.688 1.1667-3.3177-0.30858-6.4844-7.4023-15.906-2.9427-3.9114-6.7344-10.314-8.4219-14.23l-3.0781-7.1133-0.56641-62.172c-0.36978-40.042-0.97393-64.986-1.7031-70.074-2.3906-16.693-7.3646-27.63-17.125-37.672-16.833-17.323-42.777-26.082-77.23-26.082z" opacity=".3" stroke-width="1.3333"/><path d="m219.18 233.74c0.0354-0.0223 0.0234 0.0745-0.22852 0.17188 0.07-0.0505 0.20483-0.15692 0.22852-0.17188z" color="#000000" color-rendering="auto" dominant-baseline="auto" image-rendering="auto" shape-rendering="auto" solid-color="#000000" style="font-feature-settings:normal;font-variant-alternates:normal;font-variant-caps:normal;font-variant-ligatures:normal;font-variant-numeric:normal;font-variant-position:normal;isolation:auto;mix-blend-mode:normal;shape-padding:0;text-decoration-color:#000000;text-decoration-line:none;text-decoration-style:solid;text-indent:0;text-orientation:mixed;text-transform:none;white-space:normal"/></svg>
