<svg width="512" height="512" version="1.1" viewBox="0 0 384 384" xmlns="http://www.w3.org/2000/svg"><defs><clipPath id="c"><rect width="384" height="384"/></clipPath></defs><path d="m360 192.01c0-92.781-75.215-168-167.99-168-92.781 0-168 75.215-168 168 0 92.777 75.215 167.99 168 167.99 92.777 0 167.99-75.215 167.99-167.99z" fill="#d41717"/><path d="m120 133.51c-9.9375 0-18 8.0586-18 18 8e-3 9.9375 8.0664 17.988 18 17.988 9.9375 0 17.996-8.0508 18-17.988 4e-3 -9.9414-8.0586-18-18-18zm48 0c-9.9375 0-18 8.0586-18 18 8e-3 9.9375 8.0664 17.988 18 17.988 9.9375 0 17.996-8.0508 18-17.988 4e-3 -9.9414-8.0586-18-18-18zm48 0c-9.9375 0-18 8.0586-18 18 8e-3 9.9375 8.0664 17.988 18 17.988 9.9375 0 17.996-8.0508 18-17.988 4e-3 -9.9414-8.0586-18-18-18zm47.988 0c-9.9375 0-18 8.0586-18 18 8e-3 9.9375 8.0664 17.988 18 17.988 9.9375 0 17.996-8.0508 18-17.988 4e-3 -9.9414-8.0586-18-18-18zm-191.98 47.988c-9.9414 0-18.004 8.0586-18.004 18s8.0625 18 18.004 18c9.9375 0 18-8.0586 18-18s-8.0625-18-18-18zm47.996 0c-9.9375 0-18 8.0586-18 18s8.0625 18 18 18c9.9414 0 18.004-8.0586 18-18 4e-3 -9.9414-8.0586-18-18-18zm48 0c-9.9375 0-18 8.0586-18 18s8.0625 18 18 18c9.9414 0 18.004-8.0586 18-18 4e-3 -9.9414-8.0586-18-18-18zm48 0c-9.9375 0-18 8.0586-18 18s8.0625 18 18 18c9.9414 0 18.004-8.0586 18-18 4e-3 -9.9414-8.0586-18-18-18zm47.988 0c-9.9375 0-18 8.0586-18 18s8.0625 18 18 18c9.9414 0 18.004-8.0586 18-18 4e-3 -9.9414-8.0586-18-18-18zm48 0c-9.9375 0-18 8.0586-18 18s8.0625 18 18 18c9.9414 0 18.004-8.0586 18-18 4e-3 -9.9414-8.0586-18-18-18zm-239.98 48c-9.9414 0-18.004 8.0586-18.004 18s8.0625 18 18.004 18c9.9375 0 18-8.0586 18-18s-8.0625-18-18-18zm47.996 0c-9.9375 0-18 8.0586-18 18s8.0625 18 18 18c9.9414 0 18.004-8.0586 18-18 4e-3 -9.9414-8.0586-18-18-18zm143.99 0c-9.9375 0-18 8.0586-18 18s8.0625 18 18 18c9.9414 0 18.004-8.0586 18-18 4e-3 -9.9414-8.0586-18-18-18zm48 0c-9.9375 0-18 8.0586-18 18s8.0625 18 18 18c9.9414 0 18.004-8.0586 18-18 4e-3 -9.9414-8.0586-18-18-18z" opacity=".3"/><path d="m120 126.01c-9.9375 0-18 8.0586-18 18 8e-3 9.9375 8.0664 17.988 18 17.988 9.9375 0 17.996-8.0508 18-17.988 4e-3 -9.9414-8.0586-18-18-18zm48 0c-9.9375 0-18 8.0586-18 18 8e-3 9.9375 8.0664 17.988 18 17.988 9.9375 0 17.996-8.0508 18-17.988 4e-3 -9.9414-8.0586-18-18-18zm48 0c-9.9375 0-18 8.0586-18 18 8e-3 9.9375 8.0664 17.988 18 17.988 9.9375 0 17.996-8.0508 18-17.988 4e-3 -9.9414-8.0586-18-18-18zm47.988 0c-9.9375 0-18 8.0586-18 18 8e-3 9.9375 8.0664 17.988 18 17.988 9.9375 0 17.996-8.0508 18-17.988 4e-3 -9.9414-8.0586-18-18-18zm-191.98 47.988c-9.9414 0-18.004 8.0586-18.004 18s8.0625 18 18.004 18c9.9375 0 18-8.0586 18-18s-8.0625-18-18-18zm47.996 0c-9.9375 0-18 8.0586-18 18s8.0625 18 18 18c9.9414 0 18.004-8.0586 18-18 4e-3 -9.9414-8.0586-18-18-18zm48 0c-9.9375 0-18 8.0586-18 18s8.0625 18 18 18c9.9414 0 18.004-8.0586 18-18 4e-3 -9.9414-8.0586-18-18-18zm48 0c-9.9375 0-18 8.0586-18 18s8.0625 18 18 18c9.9414 0 18.004-8.0586 18-18 4e-3 -9.9414-8.0586-18-18-18zm47.988 0c-9.9375 0-18 8.0586-18 18s8.0625 18 18 18c9.9414 0 18.004-8.0586 18-18 4e-3 -9.9414-8.0586-18-18-18zm48 0c-9.9375 0-18 8.0586-18 18s8.0625 18 18 18c9.9414 0 18.004-8.0586 18-18 4e-3 -9.9414-8.0586-18-18-18zm-239.98 48c-9.9414 0-18.004 8.0586-18.004 18s8.0625 18 18.004 18c9.9375 0 18-8.0586 18-18s-8.0625-18-18-18zm47.996 0c-9.9375 0-18 8.0586-18 18s8.0625 18 18 18c9.9414 0 18.004-8.0586 18-18 4e-3 -9.9414-8.0586-18-18-18zm143.99 0c-9.9375 0-18 8.0586-18 18s8.0625 18 18 18c9.9414 0 18.004-8.0586 18-18 4e-3 -9.9414-8.0586-18-18-18zm48 0c-9.9375 0-18 8.0586-18 18s8.0625 18 18 18c9.9414 0 18.004-8.0586 18-18 4e-3 -9.9414-8.0586-18-18-18z" fill="#fff"/><path transform="scale(.75)" d="m32.078 251.01c-0.036438 1.663-0.0625 3.3283-0.0625 5 0 123.7 100.29 223.99 223.99 223.99s223.99-100.29 223.99-223.99c0-1.6717-0.02606-3.337-0.0625-5-2.66 121.39-101.9 218.99-223.93 218.99-122.04 0-221.27-97.597-223.93-218.99z" opacity=".3" stroke-width="1.3333"/><path transform="scale(.75)" d="m256.01 32.014c-123.71 0-224 100.29-224 224 0 1.6717 0.026062 3.3371 0.0625 5 2.6601-121.4 101.9-219 223.94-219 122.03 0 221.26 97.602 223.92 219 0.03644-1.6629 0.0625-3.3284 0.0625-5 0-123.71-100.29-224-223.99-224z" fill="#fff" opacity=".3" stroke-width="1.3333"/></svg>
