<svg width="512" height="512" version="1.1" viewBox="0 0 384 384" xmlns="http://www.w3.org/2000/svg" xmlns:xlink="http://www.w3.org/1999/xlink"><defs><clipPath><rect width="384" height="384"/></clipPath><clipPath><rect width="384" height="384"/></clipPath><clipPath><rect width="384" height="384"/></clipPath><clipPath><rect width="384" height="384"/></clipPath><clipPath><rect width="384" height="384"/></clipPath><clipPath><rect width="384" height="384"/></clipPath><clipPath><rect width="384" height="384"/></clipPath><clipPath><rect width="384" height="384"/></clipPath><clipPath><rect width="384" height="384"/></clipPath><clipPath><rect width="384" height="384"/></clipPath><clipPath><rect width="384" height="384"/></clipPath><clipPath><rect width="384" height="384"/></clipPath><clipPath><rect width="384" height="384"/></clipPath><clipPath><rect width="384" height="384"/></clipPath><clipPath><rect width="384" height="384"/></clipPath><clipPath><rect width="384" height="384"/></clipPath><clipPath><rect width="384" height="384"/></clipPath><clipPath><rect width="384" height="384"/></clipPath><clipPath><rect width="384" height="384"/></clipPath><clipPath><rect width="384" height="384"/></clipPath><clipPath><rect width="384" height="384"/></clipPath><clipPath><rect width="384" height="384"/></clipPath><clipPath><rect width="384" height="384"/></clipPath><clipPath><rect width="384" height="384"/></clipPath><clipPath><rect width="384" height="384"/></clipPath><clipPath><rect width="384" height="384"/></clipPath><clipPath><rect width="384" height="384"/></clipPath><clipPath><rect width="384" height="384"/></clipPath><clipPath><rect width="384" height="384"/></clipPath><clipPath><rect width="384" height="384"/></clipPath><clipPath><rect width="384" height="384"/></clipPath><clipPath><rect width="384" height="384"/></clipPath><clipPath><rect width="384" height="384"/></clipPath><clipPath><rect width="384" height="384"/></clipPath><clipPath><rect width="384" height="384"/></clipPath><clipPath><rect width="384" height="384"/></clipPath><clipPath><rect width="384" height="384"/></clipPath><clipPath><rect width="384" height="384"/></clipPath><clipPath><rect width="384" height="384"/></clipPath><clipPath><rect width="384" height="384"/></clipPath><clipPath><rect width="384" height="384"/></clipPath><clipPath><rect width="384" height="384"/></clipPath><clipPath><rect width="384" height="384"/></clipPath><clipPath><rect width="384" height="384"/></clipPath><clipPath><rect width="384" height="384"/></clipPath><clipPath><rect width="384" height="384"/></clipPath><clipPath><rect width="384" height="384"/></clipPath><clipPath><rect width="384" height="384"/></clipPath><clipPath><rect width="384" height="384"/></clipPath><clipPath><rect width="384" height="384"/></clipPath><clipPath id="f"><path d="m111 119h177v23h-177z"/></clipPath><clipPath><path d="m368.64 199.88c0-93.234-75.602-168.75-168.75-168.75-93.152 0-168.75 75.516-168.75 168.75s75.598 168.75 168.75 168.75c93.148 0 168.75-75.516 168.75-168.75z"/></clipPath><clipPath id="d"><path d="m177 130h45v89h-45z"/></clipPath><clipPath><path d="m368.64 199.88c0-93.234-75.602-168.75-168.75-168.75-93.152 0-168.75 75.516-168.75 168.75s75.598 168.75 168.75 168.75c93.148 0 168.75-75.516 168.75-168.75z"/></clipPath><clipPath id="b"><path d="m111 207h177v89h-177z"/></clipPath><clipPath><path d="m368.64 199.88c0-93.234-75.602-168.75-168.75-168.75-93.152 0-168.75 75.516-168.75 168.75s75.598 168.75 168.75 168.75c93.148 0 168.75-75.516 168.75-168.75z"/></clipPath><clipPath id="h"><rect width="384" height="384"/></clipPath><g clip-path="url(#h)"><g clip-path="url(#f)"></g><g clip-path="url(#d)"></g><g clip-path="url(#b)"></g></g><clipPath><rect width="384" height="384"/></clipPath><clipPath><rect width="384" height="384"/></clipPath><clipPath><rect width="384" height="384"/></clipPath><clipPath><rect width="384" height="384"/></clipPath><clipPath><rect width="384" height="384"/></clipPath><clipPath><rect width="384" height="384"/></clipPath><clipPath><rect width="384" height="384"/></clipPath><clipPath><rect width="384" height="384"/></clipPath><clipPath><rect width="384" height="384"/></clipPath><clipPath><rect width="384" height="384"/></clipPath><clipPath><rect width="384" height="384"/></clipPath><clipPath><rect width="384" height="384"/></clipPath><clipPath><rect width="384" height="384"/></clipPath><clipPath><rect width="384" height="384"/></clipPath><clipPath><rect width="384" height="384"/></clipPath><clipPath><rect width="384" height="384"/></clipPath><clipPath><rect width="384" height="384"/></clipPath><clipPath><rect width="384" height="384"/></clipPath><clipPath><rect width="384" height="384"/></clipPath><clipPath><rect width="384" height="384"/></clipPath><clipPath><rect width="384" height="384"/></clipPath><clipPath><rect width="384" height="384"/></clipPath><clipPath><rect width="384" height="384"/></clipPath><clipPath><rect width="384" height="384"/></clipPath><clipPath><rect width="384" height="384"/></clipPath><clipPath><rect width="384" height="384"/></clipPath><clipPath><rect width="384" height="384"/></clipPath><clipPath><rect width="384" height="384"/></clipPath><clipPath><rect width="384" height="384"/></clipPath><clipPath><rect width="384" height="384"/></clipPath><clipPath><rect width="384" height="384"/></clipPath><clipPath><rect width="384" height="384"/></clipPath><clipPath><rect width="384" height="384"/></clipPath><clipPath><rect width="384" height="384"/></clipPath><clipPath><rect width="384" height="384"/></clipPath><clipPath><rect width="384" height="384"/></clipPath><clipPath><rect width="384" height="384"/></clipPath><clipPath><rect width="384" height="384"/></clipPath><clipPath><rect width="384" height="384"/></clipPath><clipPath><rect width="384" height="384"/></clipPath><clipPath><rect width="384" height="384"/></clipPath><clipPath><rect width="384" height="384"/></clipPath><clipPath><rect width="384" height="384"/></clipPath><clipPath><rect width="384" height="384"/></clipPath><clipPath><rect width="384" height="384"/></clipPath><clipPath><rect width="384" height="384"/></clipPath><clipPath><rect width="384" height="384"/></clipPath><clipPath><rect width="384" height="384"/></clipPath><clipPath><rect width="384" height="384"/></clipPath><clipPath><rect width="384" height="384"/></clipPath><clipPath><rect width="384" height="384"/></clipPath><clipPath><rect width="384" height="384"/></clipPath><clipPath><rect width="384" height="384"/></clipPath><clipPath><rect width="384" height="384"/></clipPath><clipPath><rect width="384" height="384"/></clipPath><clipPath><rect width="384" height="384"/></clipPath><clipPath><rect width="384" height="384"/></clipPath><clipPath><rect width="384" height="384"/></clipPath><clipPath><rect width="384" height="384"/></clipPath><clipPath><rect width="384" height="384"/></clipPath><clipPath><rect width="384" height="384"/></clipPath><clipPath id="e"><path d="m111 119h177v23h-177z"/></clipPath><clipPath><path d="m368.64 199.88c0-93.234-75.602-168.75-168.75-168.75-93.152 0-168.75 75.516-168.75 168.75s75.598 168.75 168.75 168.75c93.148 0 168.75-75.516 168.75-168.75z"/></clipPath><clipPath id="c"><path d="m177 130h45v89h-45z"/></clipPath><clipPath><path d="m368.64 199.88c0-93.234-75.602-168.75-168.75-168.75-93.152 0-168.75 75.516-168.75 168.75s75.598 168.75 168.75 168.75c93.148 0 168.75-75.516 168.75-168.75z"/></clipPath><clipPath id="a"><path d="m111 207h177v89h-177z"/></clipPath><clipPath><path d="m368.64 199.88c0-93.234-75.602-168.75-168.75-168.75-93.152 0-168.75 75.516-168.75 168.75s75.598 168.75 168.75 168.75c93.148 0 168.75-75.516 168.75-168.75z"/></clipPath><clipPath id="g"><rect width="384" height="384"/></clipPath><g clip-path="url(#g)"><g clip-path="url(#e)"></g><g clip-path="url(#c)"></g><g clip-path="url(#a)"></g></g><clipPath><rect width="384" height="384"/></clipPath><clipPath><rect width="384" height="384"/></clipPath><clipPath><rect width="384" height="384"/></clipPath><clipPath><rect width="384" height="384"/></clipPath><clipPath><rect width="384" height="384"/></clipPath><clipPath><rect width="384" height="384"/></clipPath><clipPath><rect width="384" height="384"/></clipPath><clipPath><rect width="384" height="384"/></clipPath><clipPath><rect width="384" height="384"/></clipPath><clipPath><rect width="384" height="384"/></clipPath><clipPath><rect width="384" height="384"/></clipPath></defs><path d="m132.84 24.004-29.598 35.363-19.73-3.2148-23.023 22.504 1.6445 16.074-24.664 41.793c-3.2891 6.4297 0 9.6445 0 9.6445l39.465 123.88c3.2891 19.293 23.02 32.152 23.02 32.152l82.219 54.652s6.5781 3.2148 9.8672 3.2148 9.8633-3.2148 9.8633-3.2148l82.219-54.652s19.734-12.859 23.02-32.152l39.465-123.88s3.2891-3.2148 0-9.6445l-24.664-41.793 1.6445-16.074-23.02-22.504-19.734 3.2148-29.598-35.363z" fill="#9755b3" fill-rule="evenodd"/><path d="m205.81 298.41c10.711-9.0859 13.738-12.355 27.035-21.84 7.4805-5.332 8.6602-6.6914 7.4375-8.5781-0.97657-1.5117-23.914-12.141-35.453-16.766-12.137-4.8672-13.41-4.8711-25.188-0.0937-10.555 4.2695-33.113 14.773-35.105 16.691-2.0586 1.9766-1.0234 3.793 4.1641 7.2891 10.688 7.2031 20.32 15.402 29.977 23.602 13.93 11.828 12.848 11.836 27.133-0.27344zm-55.992-44.855c14.488-6.7852 16.652-8.1875 27.727-17.961 9.3086-8.2148 11.031-10.66 9.707-13.773-0.44922-1.0508-7.4453-7.4844-15.547-14.285-19.148-16.082-18.344-13.816-11.059-31.273 4.3281-10.367 5.457-13.836 5.4414-16.707-0.0234-4.3476-1.6406-7.6016-4.8906-9.8555-1.3164-0.91015-12.887-5.5625-25.711-10.328-12.824-4.7695-23.242-8.9883-23.152-9.375 0.20703-0.88281 14.348-2.4141 24.613-2.6719l7.7656-0.17969 14.273 4.9648c12.457 4.332 14.414 5.2227 15.348 6.9805 0.58984 1.1094 1.0625 2.6016 1.0508 3.3125-8e-3 0.71094-2.3164 11.012-5.1289 22.891-4.9258 20.801-5.0625 21.641-3.7812 22.91 2.0312 2.0156 21.941 5.7461 28.156 5.2734 7.1016-0.54297 21.605-3.9062 23.074-5.3516 1.1836-1.168 0.95703-2.4961-3.8672-22.832-2.8164-11.879-5.125-22.18-5.1367-22.891-8e-3 -0.71094 0.46875-2.207 1.0625-3.3242 0.9336-1.7617 2.7734-2.6211 13.867-6.4883 17.883-6.2344 17.52-6.1836 33.77-4.7461 7.5781 0.66797 14.082 1.5039 14.453 1.8516 0.39844 0.36328-0.0625 0.90625-1.1094 1.3086-0.98047 0.36328-11.438 4.2812-23.234 8.6875-11.797 4.4102-22.684 8.8125-24.199 9.7852-3.5586 2.293-5.2852 5.5664-5.3086 10.062-0.0117 2.8438 1.1055 6.2852 5.3164 16.32 2.9336 6.9961 5.332 13.375 5.332 14.18 0 3.2422-2.4258 5.8672-15.887 17.145-7.7344 6.4844-14.602 12.738-15.258 13.906-0.65625 1.1641-1.0312 2.9453-0.83594 3.9492 0.33985 1.7305 9.6055 10.652 19.039 18.34 3.9609 3.2227 27.961 15.016 31.805 15.621 3.2227 0.50781 6.6641-1.0976 12.293-5.75 5.5234-4.5586 8.8164-9.1211 11.051-15.32 2.1016-5.8125 1.5742-9.7305-2.5781-19.152-3.168-7.1875-4.0078-11.133-2.9453-13.828 0.24609-0.61717 8.8125-8.6992 19.043-17.957 22.285-20.168 25.859-23.781 27.078-27.383 1.3594-4.0039 0.40235-9.2695-2.6445-14.57-7.2852-12.676-36.238-53.754-38.805-53.754-13.227 2.1406-23.867 8.1055-37.801 10.301-1.0938 0-5.7539-1.1367-10.352-2.5274-19.637-5.9375-26.008-7.5508-29.809-7.5508-3.8047 0-10.172 1.6172-29.812 7.5508-4.5976 1.3906-9.3086 2.5274-10.465 2.5274-13.727-2.0547-24.801-8.1094-39.008-9.8477-2.2148 1.4727-21.02 29.273-29.164 41.02-9.5781 13.812-10.543 15.59-11.32 20.852-1.0898 7.3594-0.0625 8.5977 28.551 34.441 9.625 8.6914 17.695 16.301 17.934 16.906 1.0742 2.7226 0.22656 6.8359-2.8945 14.031-4.2852 9.8789-4.6719 12.625-2.6016 18.59 2.25 6.4883 6.0625 11.734 11.824 16.266 5.3555 4.2109 7.4258 5.25 10.586 5.3203 1.1328 0.0234 7.4961-2.5039 14.145-5.6133z" opacity=".3"/><path d="m205.81 290.91c10.711-9.0859 13.738-12.355 27.035-21.84 7.4805-5.332 8.6602-6.6914 7.4375-8.5781-0.97657-1.5117-23.914-12.141-35.453-16.766-12.137-4.8672-13.41-4.8711-25.188-0.0937-10.555 4.2695-33.113 14.773-35.105 16.691-2.0586 1.9766-1.0234 3.793 4.1641 7.2891 10.688 7.2031 20.32 15.402 29.977 23.602 13.93 11.828 12.848 11.836 27.133-0.27344zm-55.992-44.855c14.488-6.7852 16.652-8.1875 27.727-17.961 9.3086-8.2148 11.031-10.66 9.707-13.773-0.44922-1.0508-7.4453-7.4844-15.547-14.285-19.148-16.082-18.344-13.816-11.059-31.273 4.3281-10.367 5.457-13.836 5.4414-16.707-0.0234-4.3476-1.6406-7.6016-4.8906-9.8555-1.3164-0.91015-12.887-5.5625-25.711-10.328-12.824-4.7695-23.242-8.9883-23.152-9.375 0.20703-0.88281 14.348-2.4141 24.613-2.6719l7.7656-0.17969 14.273 4.9648c12.457 4.332 14.414 5.2227 15.348 6.9805 0.58984 1.1094 1.0625 2.6016 1.0508 3.3125-8e-3 0.71094-2.3164 11.012-5.1289 22.891-4.9258 20.801-5.0625 21.641-3.7812 22.91 2.0312 2.0156 21.941 5.7461 28.156 5.2734 7.1016-0.54297 21.605-3.9062 23.074-5.3516 1.1836-1.168 0.95703-2.4961-3.8672-22.832-2.8164-11.879-5.125-22.18-5.1367-22.891-8e-3 -0.71094 0.46875-2.207 1.0625-3.3242 0.9336-1.7617 2.7734-2.6211 13.867-6.4883 17.883-6.2344 17.52-6.1836 33.77-4.7461 7.5781 0.66797 14.082 1.5039 14.453 1.8516 0.39844 0.36328-0.0625 0.90625-1.1094 1.3086-0.98047 0.36328-11.438 4.2812-23.234 8.6875-11.797 4.4102-22.684 8.8125-24.199 9.7852-3.5586 2.293-5.2852 5.5664-5.3086 10.062-0.0117 2.8438 1.1055 6.2852 5.3164 16.32 2.9336 6.9961 5.332 13.375 5.332 14.18 0 3.2422-2.4258 5.8672-15.887 17.145-7.7344 6.4844-14.602 12.738-15.258 13.906-0.65625 1.1641-1.0312 2.9453-0.83594 3.9492 0.33985 1.7305 9.6055 10.652 19.039 18.34 3.9609 3.2227 27.961 15.016 31.805 15.621 3.2227 0.50781 6.6641-1.0977 12.293-5.75 5.5234-4.5586 8.8164-9.1211 11.051-15.32 2.1016-5.8125 1.5742-9.7305-2.5781-19.152-3.168-7.1875-4.0078-11.133-2.9453-13.828 0.24609-0.61718 8.8125-8.6992 19.043-17.957 22.285-20.168 25.859-23.781 27.078-27.383 1.3594-4.0039 0.40234-9.2695-2.6445-14.57-7.2852-12.676-36.238-53.754-38.805-53.754-13.227 2.1406-23.867 8.1055-37.801 10.301-1.0938 0-5.7539-1.1367-10.352-2.5273-19.637-5.9375-26.008-7.5508-29.809-7.5508-3.8047 0-10.172 1.6172-29.812 7.5508-4.5976 1.3906-9.3086 2.5273-10.465 2.5273-13.727-2.0547-24.801-8.1094-39.008-9.8477-2.2148 1.4727-21.02 29.273-29.164 41.02-9.5781 13.812-10.543 15.59-11.32 20.852-1.0898 7.3594-0.0625 8.5977 28.551 34.441 9.625 8.6914 17.695 16.301 17.934 16.906 1.0742 2.7226 0.22656 6.8359-2.8945 14.031-4.2852 9.8789-4.6719 12.625-2.6016 18.59 2.25 6.4883 6.0625 11.734 11.824 16.266 5.3555 4.2109 7.4258 5.25 10.586 5.3203 1.1328 0.0234 7.4961-2.5039 14.145-5.6133z" fill="#fff"/><path transform="scale(.75)" d="m81.58 103.96-0.92969 0.91016 1.3203 12.91 0.87305-1.4785-1.2637-12.342zm348.94 0.00196-1.2617 12.34 0.87109 1.4766 1.3203-12.908-0.92969-0.9082zm-381.35 79.801c-2.9927 7.4114 0.78906 11.123 0.78906 11.123l52.619 165.18c4.3854 25.724 30.693 42.869 30.693 42.869l109.62 72.869s8.7708 4.2871 13.156 4.2871c4.3854 0 13.15-4.2871 13.15-4.2871l109.62-72.869s26.313-17.145 30.693-42.869l52.619-165.18s3.7818-3.7117 0.78907-11.123c-0.41644 0.72007-0.78907 1.123-0.78907 1.123l-52.619 165.18c-4.3802 25.724-30.693 42.869-30.693 42.869l-109.62 72.869c1e-5 0-8.765 4.2871-13.15 4.2871-4.3854 0-13.156-4.2871-13.156-4.2871l-109.62-72.869s-26.308-17.145-30.693-42.869l-52.619-165.18s-0.37263-0.40297-0.78906-1.123z" fill-rule="evenodd" opacity=".3" stroke-width="1.3333"/><path transform="scale(.75)" d="m177.12 32.006-39.463 47.15-26.307-4.2871-30.699 30.006 0.92969 9.0898 29.77-29.096 26.307 4.2871 39.463-47.15h157.86l39.465 47.15 26.312-4.2871 29.762 29.098 0.92969-9.0918-30.691-30.006-26.312 4.2871-39.465-47.15h-157.86zm253.01 95.777-0.87109 8.5234 32.885 55.725c0.30791 0.6019 0.56308 1.1767 0.78907 1.7363 1.0204-1.7645 2.3254-5.648-0.78907-11.736l-32.014-54.248zm-348.16 0.00196-32.012 54.246c-3.1145 6.0883-1.8095 9.9718-0.78906 11.736 0.22598-0.55965 0.48116-1.1344 0.78906-1.7363l32.885-55.725-0.87305-8.5215z" fill="#fff" fill-rule="evenodd" opacity=".2" stroke-width="1.3333"/></svg>
