<svg width="512" height="512" version="1.1" viewBox="0 0 384 384" xmlns="http://www.w3.org/2000/svg" xmlns:xlink="http://www.w3.org/1999/xlink"><defs><linearGradient id="d" x1="-44" x2="-24" y1="-24" y2="-24" gradientTransform="matrix(2.3855 -2.4201 -2.4201 -2.3855 191.02 67.38)" gradientUnits="userSpaceOnUse"><stop stop-opacity="0" offset="0"/><stop offset="1"/></linearGradient><g id="b" opacity=".3" lip-path="url(#clip3)"><path d="m152.85 144.27c-11.742 10.883-18.426 26.164-18.445 42.172 0 31.805 25.785 57.59 57.59 57.59 16.297-0.0234 31.82-6.9531 42.723-19.066z" fill="url(#d)"/></g><linearGradient id="c" x1="-44" x2="-24" y1="-24" y2="-24" gradientTransform="matrix(-2.4201 -2.3855 2.3855 -2.4201 191.02 67.38)" gradientUnits="userSpaceOnUse"><stop stop-opacity="0" offset="0"/><stop offset="1"/></linearGradient><clipPath id="e"><rect width="384" height="384"/></clipPath><g id="a" clip-path="url(#e)" opacity=".3"><path d="m230.4 143.61-80.684 81.852c10.887 11.816 26.215 18.551 42.281 18.57 31.805 0 57.586-25.785 57.59-57.59-0.0234-16.355-7-31.926-19.188-42.832z" fill="url(#c)"/></g></defs><g transform="matrix(1.0433 0 0 1.0433 -8.3084 -15.231)"><path d="m353.74 205.25c0 89.328-72.414 161.75-161.74 161.75-89.332 0-161.75-72.418-161.75-161.75 0-89.328 72.414-161.74 161.75-161.74 89.328 0 161.74 72.414 161.74 161.74z" opacity=".3" style="fill:#60636e;opacity:1"/><path d="m327.97 192.11c0 75.434-61.148 136.58-136.58 136.58-75.43 0-136.58-61.145-136.58-136.58 0-75.43 61.148-136.58 136.58-136.58 75.43 0 136.58 61.148 136.58 136.58z" fill="#262833"/><path d="m353.74 192c0 89.328-72.414 161.75-161.74 161.75-89.332 0-161.75-72.418-161.75-161.75 0-89.328 72.414-161.74 161.75-161.74 89.328 0 161.74 72.414 161.74 161.74z"/><path d="m322.67 192c0 72.172-58.504 130.68-130.67 130.68-72.172 0-130.68-58.504-130.68-130.68 0-72.168 58.504-130.67 130.68-130.67 72.168 0 130.67 58.504 130.67 130.67z" fill="#193d7a" style="fill:#367bf0"/><path transform="scale(.75)" d="m256 81.768c-47.254 0-90.104 18.819-121.49 49.359l246.36 246.36c30.54-31.386 49.359-74.236 49.359-121.49 0-96.224-78.007-174.23-174.23-174.23z" opacity=".3" stroke-width="1.3333" style="opacity:.1"/><path d="m282.13 192c0 49.781-40.355 90.137-90.133 90.137-49.781 0-90.137-40.355-90.137-90.137 0-49.777 40.355-90.133 90.137-90.133 49.777 0 90.133 40.355 90.133 90.133z"/><path d="m265.43 192c0 40.555-32.875 73.43-73.426 73.43-40.555 0-73.43-32.875-73.43-73.43 0-40.551 32.875-73.426 73.43-73.426 40.551 0 73.426 32.875 73.426 73.426z" fill="#2359b0" style="fill:#367bf0"/><use transform="translate(.00586 7.084)" width="100%" height="100%" xlink:href="#b"/><use transform="translate(.00586 7.084)" width="100%" height="100%" xlink:href="#a"/><path transform="scale(.75)" d="m361.85 170.15a26.769 26.769 0 0 0-26.77 26.77 26.769 26.769 0 0 0 26.77 26.768 26.769 26.769 0 0 0 26.77-26.768 26.769 26.769 0 0 0-26.77-26.77zm-51.076 45.537a14.154 14.154 0 0 0-14.154 14.154 14.154 14.154 0 0 0 14.154 14.154 14.154 14.154 0 0 0 14.154-14.154 14.154 14.154 0 0 0-14.154-14.154z" fill="#fff" opacity=".3"/><path transform="matrix(.71887 0 0 .71887 7.9652 11.725)" d="m74.291 245.77c-0.04488 1.6616-0.07031 3.3276-0.07031 5 0 100.4 81.387 181.79 181.78 181.79 100.39 0 181.77-81.389 181.77-181.79 0-1.6724-0.0254-3.3385-0.0703-5-2.6484 98.085-82.985 176.79-181.7 176.79-98.724 0-179.06-78.695-181.71-176.79z" style="fill:#010305;opacity:.3;stroke-width:1.3911"/><path transform="matrix(.71887 0 0 .71887 7.9652 11.725)" d="m153.99 245.77c-0.0799 1.657-0.125 3.3232-0.125 5 0 56.415 45.732 102.15 102.15 102.15 56.409 0 102.14-45.732 102.14-102.15 0-1.6768-0.0432-3.343-0.12305-5-2.6069 54.092-47.285 97.146-102.02 97.146-54.738 0-99.415-43.054-102.02-97.146z" style="fill:#fff;opacity:.1;stroke-width:1.3911"/><path transform="matrix(.71887 0 0 .71887 7.9652 11.725)" d="m256.01 148.63c-56.415 0-102.15 45.73-102.15 102.14 0 1.6762 0.0452 3.3435 0.125 5 2.6078-54.086 47.284-97.139 102.02-97.139 54.732 0 99.41 43.052 102.02 97.139 0.0798-1.6565 0.12305-3.3238 0.12305-5 0-56.409-45.731-102.14-102.14-102.14z" style="opacity:.3;stroke-width:1.3911"/></g></svg>
