<?xml version="1.0" encoding="UTF-8" standalone="no"?>
<svg
   xmlns:dc="http://purl.org/dc/elements/1.1/"
   xmlns:cc="http://creativecommons.org/ns#"
   xmlns:rdf="http://www.w3.org/1999/02/22-rdf-syntax-ns#"
   xmlns:svg="http://www.w3.org/2000/svg"
   xmlns="http://www.w3.org/2000/svg"
   xmlns:sodipodi="http://sodipodi.sourceforge.net/DTD/sodipodi-0.dtd"
   xmlns:inkscape="http://www.inkscape.org/namespaces/inkscape"
   width="512"
   height="512"
   version="1.1"
   viewBox="0 0 384 384"
   id="svg69"
   sodipodi:docname="day-of-the-tentacle-remastered.svg"
   inkscape:version="0.92.4 5da689c313, 2019-01-14">
  <metadata
     id="metadata73">
    <rdf:RDF>
      <cc:Work
         rdf:about="">
        <dc:format>image/svg+xml</dc:format>
        <dc:type
           rdf:resource="http://purl.org/dc/dcmitype/StillImage" />
        <dc:title></dc:title>
      </cc:Work>
    </rdf:RDF>
  </metadata>
  <sodipodi:namedview
     pagecolor="#ffffff"
     bordercolor="#666666"
     borderopacity="1"
     objecttolerance="10"
     gridtolerance="10"
     guidetolerance="10"
     inkscape:pageopacity="0"
     inkscape:pageshadow="2"
     inkscape:window-width="1720"
     inkscape:window-height="1382"
     id="namedview71"
     showgrid="false"
     inkscape:zoom="1.3037281"
     inkscape:cx="238.94844"
     inkscape:cy="260.13264"
     inkscape:window-x="1080"
     inkscape:window-y="315"
     inkscape:window-maximized="0"
     inkscape:current-layer="svg69" />
  <defs
     id="defs49">
    <filter
       id="alpha"
       width="100%"
       height="100%"
       x="0%"
       y="0%"
       filterUnits="objectBoundingBox">
      <feColorMatrix
         in="SourceGraphic"
         type="matrix"
         values="0 0 0 0 1 0 0 0 0 1 0 0 0 0 1 0 0 0 1 0"
         id="feColorMatrix2" />
    </filter>
    <mask
       id="mask0">
      <g
         filter="url(#alpha)"
         id="g7">
        <rect
           width="384"
           height="384"
           x="0"
           y="0"
           style="fill:rgb(0%,0%,0%);fill-opacity:0.2"
           id="rect5" />
      </g>
    </mask>
    <clipPath
       id="clip1">
      <rect
         width="384"
         height="384"
         x="0"
         y="0"
         id="rect10" />
    </clipPath>
    <g
       id="surface5"
       clip-path="url(#clip1)">
      <path
         style="fill:rgb(0%,0%,0%)"
         d="M 360 349.199219 C 360 349.199219 360 30 192 30 C 24 30 24 349.199219 24 349.199219 C 24 358.507812 31.492188 366 40.800781 366 L 343.199219 366 C 352.507812 366 360 358.507812 360 349.199219 Z M 360 349.199219"
         id="path13" />
    </g>
    <mask
       id="mask1">
      <g
         filter="url(#alpha)"
         id="g18">
        <rect
           width="384"
           height="384"
           x="0"
           y="0"
           style="fill:rgb(0%,0%,0%);fill-opacity:0.2"
           id="rect16" />
      </g>
    </mask>
    <clipPath
       id="clip2">
      <rect
         width="384"
         height="384"
         x="0"
         y="0"
         id="rect21" />
    </clipPath>
    <g
       id="surface8"
       clip-path="url(#clip2)">
      <path
         style="fill:rgb(100.000%,100.000%,100.000%)"
         d="M 192 24 C 24 24 24 343.195312 24 343.195312 C 24 343.582031 24.070312 343.945312 24.117188 344.320312 C 24.433594 318.414062 31.464844 30 192 30 C 352.535156 30 359.566406 318.414062 359.882812 344.320312 C 359.929688 343.945312 360 343.582031 360 343.195312 C 360 343.195312 360 24 192 24 Z M 192 24"
         id="path24" />
    </g>
    <mask
       id="mask2">
      <g
         filter="url(#alpha)"
         id="g29">
        <rect
           width="384"
           height="384"
           x="0"
           y="0"
           style="fill:rgb(0%,0%,0%);fill-opacity:0.2"
           id="rect27" />
      </g>
    </mask>
    <clipPath
       id="clip3">
      <rect
         width="384"
         height="384"
         x="0"
         y="0"
         id="rect32" />
    </clipPath>
    <g
       id="surface11"
       clip-path="url(#clip3)">
      <path
         style="fill:rgb(0%,0%,0%)"
         d="M 288 198 C 288 251.019531 245.019531 294 192 294 C 138.980469 294 96 251.019531 96 198 C 96 162.4375 115.335938 131.394531 144.066406 114.804688 C 158.171875 106.660156 173.46875 128.773438 190.929688 128.773438 C 209.027344 128.773438 227.023438 107.007812 241.472656 115.710938 C 269.351562 132.511719 288 163.078125 288 198 Z M 288 198"
         id="path35" />
    </g>
    <mask
       id="mask3">
      <g
         filter="url(#alpha)"
         id="g40">
        <rect
           width="384"
           height="384"
           x="0"
           y="0"
           style="fill:rgb(0%,0%,0%);fill-opacity:0.2"
           id="rect38" />
      </g>
    </mask>
    <clipPath
       id="clip4">
      <rect
         width="384"
         height="384"
         x="0"
         y="0"
         id="rect43" />
    </clipPath>
    <g
       id="surface14"
       clip-path="url(#clip4)">
      <path
         style="fill:none;stroke-width:5;stroke-linecap:round;stroke-linejoin:round;stroke:rgb(0%,0%,0%)"
         d="M 10.5 20 C 10.5 20 15.846354 16.476562 19.39974 16.5 C 23.996094 16.530599 27.403646 22.5 32 22.5 C 36.596354 22.5 40.003906 16.530599 44.60026 16.5 C 48.153646 16.476562 53.5 20 53.5 20"
         transform="matrix(6,0,0,6,0,0)"
         id="path46" />
    </g>
  </defs>
  <path
     inkscape:connector-curvature="0"
     id="path53"
     d="M 360,343.19922 C 360,343.19922 360,24 192,24 24,24 24,343.19922 24,343.19922 24,352.50781 31.492188,360 40.800781,360 H 343.19922 C 352.50781,360 360,352.50781 360,343.19922 Z m 0,0"
     style="fill:#8a3fab" />
  <path
     style="fill:#ffffff;stroke-width:1.33333325;fill-opacity:1;opacity:0.3"
     d="M 256 32 C 32.000005 32 32 457.59961 32 457.59961 C 32 458.38952 32.042119 459.16916 32.121094 459.9375 C 33.38328 403.3872 49.513126 42 256 42 C 462.47738 42 478.61736 403.35393 479.88086 459.92969 C 479.95929 459.16393 480 458.38678 480 457.59961 C 480 457.59961 480 32 256 32 z "
     transform="scale(0.75)"
     id="path53-5" />
  <path
     inkscape:connector-curvature="0"
     style="fill:#000000;stroke-width:0.99999994;fill-opacity:1;opacity:0.3"
     d="m 288,199.5 c 0,53.01952 -42.98047,96 -96,96 -53.01953,0 -95.999995,-42.98048 -95.999995,-96 0,-35.5625 19.335935,-66.60547 48.066405,-83.19531 14.10546,-8.14453 29.40234,13.96875 46.86329,13.96875 18.09765,0 36.09375,-21.76563 50.54296,-13.0625 C 269.35157,134.01172 288,164.57812 288,199.5 Z m 0,0"
     id="path59-4" />
  <path
     inkscape:connector-curvature="0"
     id="path59"
     d="m 288,192 c 0,53.01953 -42.98047,96 -96,96 -53.01953,0 -96,-42.98047 -96,-96 0,-35.5625 19.33594,-66.60547 48.06641,-83.19531 14.10546,-8.14453 29.40234,13.96875 46.86328,13.96875 18.09765,0 36.09375,-21.76563 50.54297,-13.0625 C 269.35156,126.51172 288,157.07812 288,192 Z m 0,0"
     style="fill:#3db47e" />
  <path
     inkscape:connector-curvature="0"
     id="path61"
     d="m 252,192 c 0,33.13672 -26.86328,60 -60,60 -33.13672,0 -60,-26.86328 -60,-60 0,-33.13672 26.86328,-60 60,-60 33.13672,0 60,26.86328 60,60 z m 0,0"
     style="fill:#0a814b" />
  <path
     style="color:#000000;font-style:normal;font-variant:normal;font-weight:normal;font-stretch:normal;font-size:medium;line-height:normal;font-family:sans-serif;font-variant-ligatures:normal;font-variant-position:normal;font-variant-caps:normal;font-variant-numeric:normal;font-variant-alternates:normal;font-feature-settings:normal;text-indent:0;text-align:start;text-decoration:none;text-decoration-line:none;text-decoration-style:solid;text-decoration-color:#000000;letter-spacing:normal;word-spacing:normal;text-transform:none;writing-mode:lr-tb;direction:ltr;text-orientation:mixed;dominant-baseline:auto;baseline-shift:baseline;text-anchor:start;white-space:normal;shape-padding:0;clip-rule:nonzero;display:inline;overflow:visible;visibility:visible;opacity:0.3;isolation:auto;mix-blend-mode:normal;color-interpolation:sRGB;color-interpolation-filters:linearRGB;solid-color:#000000;solid-opacity:1;vector-effect:none;fill:#0b0b0b;fill-opacity:1;fill-rule:nonzero;stroke:none;stroke-width:30;stroke-linecap:round;stroke-linejoin:round;stroke-miterlimit:4;stroke-dasharray:none;stroke-dashoffset:0;stroke-opacity:1;color-rendering:auto;image-rendering:auto;shape-rendering:auto;text-rendering:auto;enable-background:accumulate"
     d="M 116.49805,85.5 C 100.83073,85.396658 86.65404,91.78327 75.070312,97.494141 63.486585,103.20501 54.746094,108.97461 54.746094,108.97461 a 15.0015,15.0015 0 1 0 16.507812,25.05078 c 0,0 7.298573,-4.80071 17.083985,-9.625 9.785411,-4.82429 22.307939,-8.93768 27.960939,-8.90039 7.32055,0.0487 16.90229,6.09764 28.91797,15.08203 C 157.23248,139.56642 171.71731,151.5 192,151.5 c 20.28268,0 34.76752,-11.93358 46.7832,-20.91797 12.01568,-8.98439 21.59742,-15.03329 28.91797,-15.08203 5.65301,-0.0373 18.17553,4.0761 27.96094,8.90039 9.78541,4.82429 17.08398,9.625 17.08398,9.625 a 15.0015,15.0015 0 1 0 16.50782,-25.05078 c 0,0 -8.7405,-5.7696 -20.32422,-11.480469 C 297.34596,91.783269 283.16927,85.396658 267.50195,85.5 247.24437,85.634864 232.8144,97.586932 220.81836,106.55664 208.82232,115.52635 199.29543,121.5 192,121.5 c -7.29544,0 -16.82232,-5.97365 -28.81836,-14.94336 C 151.1856,97.586933 136.75563,85.634864 116.49805,85.5 Z"
     id="path65-4"
     inkscape:connector-curvature="0" />
  <path
     style="fill:#010b06;stroke-width:1.33333325;fill-opacity:1;opacity:0.3"
     d="M 256 176 C 211.81771 176 176 211.81771 176 256 C 176 259.38667 176.21256 262.72398 176.62109 266 C 181.54228 226.53736 215.20438 196 256 196 C 296.79562 196 330.45772 226.53736 335.37891 266 C 335.78744 262.72398 336 259.38667 336 256 C 336 211.81771 300.18229 176 256 176 z "
     transform="scale(0.75)"
     id="path61-7" />
  <path
     style="color:#000000;font-style:normal;font-variant:normal;font-weight:normal;font-stretch:normal;font-size:medium;line-height:normal;font-family:sans-serif;font-variant-ligatures:normal;font-variant-position:normal;font-variant-caps:normal;font-variant-numeric:normal;font-variant-alternates:normal;font-feature-settings:normal;text-indent:0;text-align:start;text-decoration:none;text-decoration-line:none;text-decoration-style:solid;text-decoration-color:#000000;letter-spacing:normal;word-spacing:normal;text-transform:none;writing-mode:lr-tb;direction:ltr;text-orientation:mixed;dominant-baseline:auto;baseline-shift:baseline;text-anchor:start;white-space:normal;shape-padding:0;clip-rule:nonzero;display:inline;overflow:visible;visibility:visible;opacity:1;isolation:auto;mix-blend-mode:normal;color-interpolation:sRGB;color-interpolation-filters:linearRGB;solid-color:#000000;solid-opacity:1;vector-effect:none;fill:#000000;fill-opacity:1;fill-rule:nonzero;stroke:none;stroke-width:30;stroke-linecap:round;stroke-linejoin:round;stroke-miterlimit:4;stroke-dasharray:none;stroke-dashoffset:0;stroke-opacity:1;color-rendering:auto;image-rendering:auto;shape-rendering:auto;text-rendering:auto;enable-background:accumulate"
     d="M 116.49805,78 C 100.83073,77.896659 86.654041,84.28327 75.070312,89.994141 63.486584,95.705011 54.746094,101.47461 54.746094,101.47461 a 15.0015,15.0015 0 1 0 16.507812,25.05078 c 0,0 7.298572,-4.80071 17.083985,-9.625 9.785412,-4.82429 22.307929,-8.93768 27.960939,-8.90039 7.32054,0.0487 16.90229,6.09764 28.91797,15.08203 C 157.23248,132.06642 171.71731,144 192,144 c 20.28269,0 34.76752,-11.93358 46.7832,-20.91797 12.01568,-8.98439 21.59743,-15.0333 28.91797,-15.08203 5.65301,-0.0373 18.17553,4.0761 27.96094,8.90039 9.78541,4.82429 17.08398,9.625 17.08398,9.625 a 15.0015,15.0015 0 1 0 16.50782,-25.05078 c 0,0 -8.74049,-5.769599 -20.32422,-11.480469 C 297.34596,84.28327 283.16927,77.896659 267.50195,78 247.24437,78.134859 232.8144,90.086932 220.81836,99.056641 208.82232,108.02635 199.29543,114 192,114 184.70457,114 175.17768,108.02635 163.18164,99.056641 151.1856,90.086933 136.75563,78.134864 116.49805,78 Z"
     id="path65"
     inkscape:connector-curvature="0" />
  <path
     style="fill:#0f0713;stroke-width:1.33333325;fill-opacity:1;opacity:0.3"
     d="M 32.121094 449.9375 C 32.014042 454.7338 32 457.59961 32 457.59961 C 32 470.01106 41.988937 480 54.400391 480 L 457.59961 480 C 470.01106 480 480 470.01106 480 457.59961 C 480 457.59961 479.98596 454.7338 479.87891 449.9375 C 478.71699 461.24169 469.22115 470 457.59961 470 L 54.400391 470 C 42.778843 470 33.283011 461.24169 32.121094 449.9375 z "
     transform="scale(0.75)"
     id="path53-3" />
</svg>
