<svg width="384pt" height="384pt" version="1.1" viewBox="0 0 384 384" xmlns="http://www.w3.org/2000/svg" xmlns:xlink="http://www.w3.org/1999/xlink"><defs><clipPath><rect width="384" height="384"/></clipPath><clipPath><rect width="384" height="384"/></clipPath><clipPath><rect width="384" height="384"/></clipPath><clipPath><rect width="384" height="384"/></clipPath><clipPath><rect width="384" height="384"/></clipPath></defs><g transform="translate(.0038 -.45332)"><path d="m69.555 24.285c-8.7146 0-15.781 6.1914-15.781 13.828v2.5576c-0.0018 0.09687-0.0073 0.19275-0.0073 0.29004v303.88c0 8.7146 7.066 15.781 15.781 15.781h244.89c8.7146 0 15.781-7.066 15.781-15.781v-40.132c2e-3 -0.0851 7e-3 -0.16939 7e-3 -0.25488v-266.34c0-7.6366-7.0674-13.828-15.782-13.828z" opacity=".2" stroke="#000" stroke-width="7.5"/><path d="m69.555 24.285h244.89c8.7148 0 15.781 7.0664 15.781 15.777v303.88c0 8.7148-7.0664 15.781-15.781 15.781h-244.89c-8.7148 0-15.781-7.0664-15.781-15.781v-303.88c0-8.7109 7.0664-15.777 15.781-15.777z"/><g fill="#fff"><path d="m74.383 329.47h116.23c2.3945 0 4.3359 1.9414 4.3359 4.3359v8.5664c0 2.3945-1.9414 4.3398-4.3359 4.3398h-116.23c-2.3984 0-4.3398-1.9453-4.3398-4.3398v-8.5664c0-2.3945 1.9414-4.3359 4.3398-4.3359z"/><path d="m69.562 23.387h244.89c8.7148 0 15.781 6.1914 15.781 13.828v266.34c0 7.6406-7.0664 13.832-15.781 13.832h-244.89c-8.7148 0-15.781-6.1914-15.781-13.832v-266.34c0-7.6367 7.0664-13.828 15.781-13.828z"/><path d="m275.97 338.06c0 4.2695-3.4609 7.7305-7.7305 7.7305-4.2734 0-7.7344-3.4609-7.7344-7.7305s3.4609-7.7305 7.7344-7.7305c4.2695 0 7.7305 3.4609 7.7305 7.7305z"/><path d="m299.85 338.06c0 4.2695-3.4648 7.7305-7.7344 7.7305s-7.7305-3.4609-7.7305-7.7305 3.4609-7.7305 7.7305-7.7305 7.7344 3.4609 7.7344 7.7305z"/></g><circle cx="316.31" cy="303.46" r="5.6089" opacity=".3"/><circle cx="67.882" cy="37.11" r="5.6089" opacity=".3"/><circle cx="316.31" cy="37.312" r="5.6089" opacity=".3"/><circle cx="67.711" cy="303.46" r="5.6089" opacity=".3"/></g><path d="m171.82 243.68v-7.5391h40.461v15.074h-40.461zm0-22.414v-7.3359h40.461v14.676h-40.461zm11.934-16.086c-10.129-2.6523-17.828-10.242-20.719-20.426-1.2812-4.5156-1.2812-12.504 0-17.02 2.9141-10.27 10.668-17.871 20.848-20.445 3.9961-1.0117 11.828-1.0938 15.68-0.16797 8.6289 2.0781 16.52 8.7539 19.926 16.859 2.9922 7.1211 3.082 16.98 0.21876 24.023-3.4648 8.5312-11.102 15.105-20.145 17.348-3.7617 0.9297-11.938 0.84375-15.809-0.17187zm12.051-11.297c6.9375-1.8047 12.23-7.4102 13.93-14.746 0.78516-3.3828 0.33984-6.2383-1.6133-10.352-3.4258-7.2188-11.551-11.758-18.691-10.441-10.637 1.9609-17.816 12.633-14.996 22.293 1.9062 6.5313 6.9766 11.387 13.848 13.262 2.6484 0.72265 4.7109 0.71874 7.5234-0.0156zm-51.262-39.559c-2.6875-2.6953-4.4531-4.7812-4.4531-5.2578 0-1.0898 26.09-27.164 27.18-27.164 1.2266 0 9.707 8.6719 9.707 9.9258 0 1.4453-25.535 26.965-26.98 26.965-0.74219 0-2.1367-1.1445-5.4531-4.4688zm74.383-8.7656c-8.7031-8.5703-11.406-11.457-11.406-12.187 0-0.73438 3.3945-4.3555 14.383-15.34 11.656-11.652 14.578-14.375 15.43-14.375 0.85158 0 3.1602 2.1641 12.293 11.531 7.0039 7.1797 11.293 11.871 11.367 12.438 0.17189 1.293-27.965 28.938-29.59 29.074-0.91797 0.0781-2.7109-1.5195-12.477-11.141zm-91.836-8.293c-3.332-3.3438-4.0586-4.2852-4.0586-5.2578 0-1.0273 1.7305-2.9141 12.992-14.172 10.16-10.156 13.211-12.988 13.992-12.988 1.4102 0 9.5078 8.1133 9.5078 9.5273 0 0.76563-2.8906 3.8789-12.992 13.977-11.305 11.301-13.148 12.988-14.188 12.988-0.98828 0-1.8984-0.70703-5.2539-4.0742z" opacity=".3"/><path d="m171.82 236.18v-7.5391h40.461v15.074h-40.461zm0-22.414v-7.3359h40.461v14.676h-40.461zm11.934-16.086c-10.129-2.6523-17.828-10.242-20.719-20.426-1.2812-4.5156-1.2812-12.504 0-17.02 2.9141-10.27 10.668-17.871 20.848-20.445 3.9961-1.0117 11.828-1.0938 15.68-0.16797 8.6289 2.0781 16.52 8.7539 19.926 16.859 2.9922 7.1211 3.082 16.98 0.21876 24.023-3.4648 8.5312-11.102 15.105-20.145 17.348-3.7617 0.9297-11.938 0.84375-15.809-0.17187zm12.051-11.297c6.9375-1.8047 12.23-7.4102 13.93-14.746 0.78515-3.3828 0.33984-6.2383-1.6133-10.352-3.4258-7.2188-11.551-11.758-18.691-10.441-10.637 1.9609-17.816 12.633-14.996 22.293 1.9062 6.5312 6.9766 11.387 13.848 13.262 2.6484 0.72265 4.7109 0.71875 7.5234-0.0156zm-51.262-39.559c-2.6875-2.6953-4.4531-4.7812-4.4531-5.2578 0-1.0898 26.09-27.164 27.18-27.164 1.2266 0 9.707 8.6719 9.707 9.9258 0 1.4453-25.535 26.965-26.98 26.965-0.74219 0-2.1367-1.1445-5.4531-4.4688zm74.383-8.7656c-8.7031-8.5703-11.406-11.457-11.406-12.187 0-0.73438 3.3945-4.3555 14.383-15.34 11.656-11.652 14.578-14.375 15.43-14.375 0.85157 0 3.1602 2.1641 12.293 11.531 7.0039 7.1797 11.293 11.871 11.367 12.438 0.17188 1.293-27.965 28.938-29.59 29.074-0.91797 0.0781-2.7109-1.5195-12.477-11.141zm-91.836-8.293c-3.332-3.3438-4.0586-4.2852-4.0586-5.2578 0-1.0273 1.7305-2.9141 12.992-14.172 10.16-10.156 13.211-12.988 13.992-12.988 1.4102 0 9.5078 8.1133 9.5078 9.5273 0 0.76563-2.8906 3.8789-12.992 13.977-11.305 11.301-13.148 12.988-14.188 12.988-0.98828 0-1.8984-0.70703-5.2539-4.0742z"/></svg>
