<svg width="384pt" height="384pt" version="1.1" viewBox="0 0 384 384" xmlns="http://www.w3.org/2000/svg"><g transform="translate(.0038 -.45332)"><path d="m69.555 24.285c-8.7146 0-15.781 6.1914-15.781 13.828v2.5576c-0.0018 0.09687-0.0073 0.19275-0.0073 0.29004v303.88c0 8.7146 7.066 15.781 15.781 15.781h244.89c8.7146 0 15.781-7.066 15.781-15.781v-40.132c2e-3 -0.0851 7e-3 -0.16939 7e-3 -0.25488v-266.34c0-7.6366-7.0674-13.828-15.782-13.828z" opacity=".2" stroke="#000" stroke-width="7.5"/><path d="m69.555 24.285h244.89c8.7148 0 15.781 7.0664 15.781 15.777v303.88c0 8.7148-7.0664 15.781-15.781 15.781h-244.89c-8.7148 0-15.781-7.0664-15.781-15.781v-303.88c0-8.7109 7.0664-15.777 15.781-15.777z"/><g fill="#fff"><path d="m69.562 23.387h244.89c8.7148 0 15.781 6.1914 15.781 13.828v266.34c0 7.6406-7.0664 13.832-15.781 13.832h-244.89c-8.7148 0-15.781-6.1914-15.781-13.832v-266.34c0-7.6367 7.0664-13.828 15.781-13.828z"/></g><circle cx="316.31" cy="303.46" r="5.6089" opacity=".3"/><circle cx="67.882" cy="37.11" r="5.6089" opacity=".3"/><circle cx="316.31" cy="37.312" r="5.6089" opacity=".3"/><circle cx="67.711" cy="303.46" r="5.6089" opacity=".3"/></g><path d="m192.01 116.79c-0.87441 0-1.7531 0.37442-2.4252 1.119l-50.227 55.818c-1.241 1.3823-1.3337 3.536-0.27977 5.0366h105.87c1.0538-1.5006 0.96228-3.6544-0.27861-5.0366l-50.232-55.818c-0.67204-0.74459-1.5459-1.119-2.4241-1.119zm-46.837 78.039c-3.7802 0-6.8235 1.7-6.8235 3.8116v22.345c0 2.1116 3.0433 3.815 6.8235 3.815h93.671c3.7803 0 6.8234-1.7034 6.8234-3.815v-22.345c0-2.1116-3.0432-3.8116-6.8234-3.8116z" fill="#fff" stroke="#000" stroke-linecap="round" stroke-linejoin="round" stroke-miterlimit="2" stroke-width="11.551"/><path d="m192.01 116.79c-2.523 0-5.008 1.1362-6.7125 3.0246a5.7761 5.7761 0 0 0-8e-3 8e-3l-50.228 55.818a5.7761 5.7761 0 0 0-8e-3 5e-3c-3.1378 3.495-3.3477 8.4561-0.70846 12.214a5.7761 5.7761 0 0 0 4.7272 2.4561h105.87a5.7761 5.7761 0 0 0 4.7272-2.4561c2.6377-3.7562 2.4305-8.718-0.70839-12.214a5.7761 5.7761 0 0 0-8e-3 -5e-3l-50.232-55.819a5.7761 5.7761 0 0 0-8e-3 -6e-3c-1.6954-1.8784-4.1913-3.0246-6.7111-3.0246zm0 12.836 44.222 49.139h-88.442zm48.355 53.732 9e-3 9e-3 -8e-3 -5e-3v-5e-3zm-95.196 11.472c-2.7559 0-5.3151 0.54544-7.6451 1.8469-2.3299 1.3015-4.9543 3.9093-4.9543 7.74v22.346c0 3.8305 2.6217 6.4368 4.9513 7.74 2.3297 1.303 4.8905 1.85 7.6481 1.85h93.671c2.7576 0 5.3184-0.547 7.648-1.85 2.3297-1.303 4.9498-3.9095 4.9498-7.74v-22.346c0-3.8303-2.6229-6.4382-4.9529-7.74-2.3299-1.3016-4.8891-1.8469-7.645-1.8469zm0 11.551h93.671c0.53289 0 0.68374 0.10877 1.0468 0.19853v18.023c-0.36278 0.0899-0.51402 0.19853-1.0468 0.19853h-93.671c-0.53351 0-0.68544-0.10846-1.0484-0.19853v-18.023c0.36325-0.0899 0.51472-0.19853 1.0484-0.19853z" color="#000000" color-rendering="auto" dominant-baseline="auto" image-rendering="auto" opacity=".3" shape-rendering="auto" solid-color="#000000" stroke-width=".77007" style="font-feature-settings:normal;font-variant-alternates:normal;font-variant-caps:normal;font-variant-ligatures:normal;font-variant-numeric:normal;font-variant-position:normal;isolation:auto;mix-blend-mode:normal;shape-padding:0;text-decoration-color:#000000;text-decoration-line:none;text-decoration-style:solid;text-indent:0;text-orientation:mixed;text-transform:none;white-space:normal"/><path d="m131.19 194.47" fill="#fff" stroke="#000" stroke-linecap="round" stroke-linejoin="round" stroke-miterlimit="2" stroke-width="15"/></svg>
