<svg width="512" height="512" version="1.1" viewBox="0 0 384 384" xmlns="http://www.w3.org/2000/svg"><g transform="translate(.0058008 -.0019651)"><path d="m161.97 65.215c0 11.645-9.4492 21.094-21.09 21.094s-21.09-9.4492-21.09-21.094c0-11.645 9.4492-21.094 21.09-21.094s21.09 9.4492 21.09 21.094" fill="#fff"/><path d="m189.97 23.25c-13.891 0.05469-27.191 1.2656-38.887 3.2891-34.43 6.0469-40.699 18.621-40.699 41.867v30.715h81.387v10.223h-111.93c-23.676 0-44.367 14.062-50.852 40.809-7.4648 30.66-7.8594 49.824 0 81.789 5.7656 23.84 19.559 40.812 43.219 40.812h23.941v-40.754c0-26.539 23.281-49.824 50.91-49.824h85.195c22.621 0 44.047-18.465 44.047-40.926v-72.676c0-21.812-21.918-38.238-44.047-41.863-13.945-2.3086-28.441-3.3477-42.316-3.293m-43.992 24.5c8.4102 0 15.27 6.918 15.27 15.438 0 8.4688-6.8594 15.273-15.27 15.273-8.4609 0-15.324-6.8047-15.324-15.273 0-8.5078 6.8047-15.438 15.324-15.438" fill="#357aef"/><path d="m260.44 318.34c0 11.645-9.4492 21.098-21.09 21.098-11.695 0-21.145-9.4531-21.145-21.098 0-11.641 9.4492-21.094 21.145-21.094 11.641 0 21.09 9.4531 21.09 21.094" fill="#fff"/><path d="m287.89 109.32v35.762c0 27.688-23.773 47.742-50.852 47.742h-89.305c-22.238 0-40.699 22.191-40.699 44.227v76.688c0 21.809 19.164 34.609 40.699 40.867 25.758 7.4648 53.82 8.8984 84.637 0 20.484-5.8789 40.699-17.691 40.699-40.867v-30.715h-81.273v-10.223h122.03c23.621 0 32.461-16.371 40.699-40.812 8.5078-25.215 8.0703-49.5 0-81.789-5.875-23.344-17.023-40.809-40.699-40.809m-76.285 194.14c8.4102 0 15.27 6.8047 15.27 15.273 0 8.4648-6.8047 15.441-15.27 15.441-8.4609 0-15.324-6.9766-15.324-15.441 0-8.4688 6.8633-15.273 15.324-15.273" fill="#ffc62f"/><path transform="scale(.75)" d="m253.3 31c-18.521 0.07293-36.256 1.6888-51.85 4.3867-45.906 8.0625-54.266 24.827-54.266 55.822v10c0-30.995 8.3594-47.76 54.266-55.822 15.594-2.6979 33.329-4.3138 51.85-4.3867l-0.0371 0.22461c18.5-0.07292 37.828 1.3125 56.422 4.3906 29.505 4.8333 58.73 26.735 58.73 55.818v-10c0-29.083-29.225-50.985-58.73-55.818-18.594-3.0781-37.922-4.4635-56.422-4.3906zm130.56 114.76v10l34.584 0.0937c31.568 0 46.432 23.287 54.266 54.412 4.9456 19.787 7.7349 37.317 8.2109 53.752 0.58384-19.326-2.2492-39.899-8.2109-63.752-7.8333-31.125-22.698-54.412-54.266-54.412zm-277.4 0.0371c-31.568 0-59.155 18.749-67.801 54.41-5.5365 22.74-8.1511 40.738-7.582 59.568 0.45752-15.383 3.0301-30.872 7.582-49.568 8.6458-35.661 36.233-54.41 67.801-54.41h149.23v-10zm277.4 47.645c0 36.917-31.699 63.656-67.803 63.656h-119.07c-29.651 0-54.266 29.589-54.266 58.969v10c0-29.38 24.615-58.969 54.266-58.969h119.07c36.104 0 67.803-26.74 67.803-63.656zm-128.12 183.92v10h108.37v-10z" fill="#fff" opacity=".3" stroke-width="1.3333"/><path transform="scale(.75)" d="m147.18 122.16v10h108.52v-10zm221.23 56.172c0 29.948-28.569 54.568-58.73 54.568h-113.59c-36.839 0-67.879 31.046-67.879 66.432v10c0-35.385 31.04-66.432 67.879-66.432h113.59c30.161 0 58.73-24.62 58.73-54.568zm-337.33 71.438c-0.5429 18.253 1.8953 36.356 7.582 59.484 7.6875 31.786 26.078 54.416 57.625 54.416h31.922v-10h-31.922c-31.547 0-49.938-22.63-57.625-54.416-4.6501-18.912-7.1281-34.463-7.582-49.484zm449.84 4.2188c-0.46796 15.565-3.1495 30.322-8.2109 45.322-10.984 32.589-22.771 54.418-54.266 54.418h-162.71v10h162.71c31.495 0 43.281-21.829 54.266-54.418 6.1325-18.175 8.7735-35.99 8.2109-55.322zm-338.2 154.32v10c0 29.078 25.552 46.146 54.266 54.49 34.344 9.9531 71.761 11.865 112.85 0 27.312-7.8385 54.266-23.589 54.266-54.49v-10c0 30.901-26.953 46.652-54.266 54.49-41.089 11.865-78.506 9.9531-112.85 0-28.714-8.3439-54.266-25.412-54.266-54.49z" fill="#26477e" opacity=".3" stroke-width="1.3333"/></g><path d="m384 294c0 49.706-40.294 90-90 90-49.706 0-90-40.294-90-90 0-49.706 40.294-90 90-90 49.706 0 90 40.294 90 90z" opacity=".3" stroke-width=".97425"/><path d="m384 286.5c0 49.706-40.294 90-90 90-49.706 0-90-40.294-90-90 0-49.706 40.294-90 90-90 49.706 0 90 40.294 90 90z" fill="#b8174a" stroke-width=".97425"/><path d="m287 249-2.2283 11.635c-2.7476 0.76001-5.3613 1.9034-7.7906 3.2818l-10.012-6.5535-9.7008 9.6697 6.5174 9.9983c-1.3772 2.4217-2.4159 4.9609-3.1799 7.704l-11.61 2.2973v13.936l11.61 2.2939c0.75732 2.7464 1.8028 5.4444 3.1799 7.8695l-6.5174 9.8351 9.7008 9.8352 10.012-6.7192c2.4293 1.3715 5.043 2.5184 7.7906 3.2784l2.2283 11.638h13.99l2.2283-11.638c2.7476-0.76003 5.3647-1.9 7.7906-3.2784l10.016 6.7192 9.7009-9.8352-6.5207-9.8351c1.3772-2.4217 2.4193-5.1232 3.1832-7.8695l11.607-2.2939v-13.936l-11.607-2.2973c-0.76065-2.743-1.8061-5.2822-3.1832-7.704l6.5207-9.9983-9.7009-9.6697-10.016 6.5535c-2.426-1.3715-5.043-2.5219-7.7906-3.2818l-2.2283-11.635zm6.9999 29.174c8.431 0 15.263 7.044 15.263 15.736 0 8.6952-6.8323 15.736-15.263 15.736-8.434 0-15.267-7.0405-15.267-15.736 0-8.6922 6.8323-15.736 15.267-15.736z" opacity=".3" stroke-width=".871"/><path d="m287 241.5-2.2283 11.635c-2.7476 0.76001-5.3613 1.9034-7.7906 3.2818l-10.012-6.5535-9.7008 9.6697 6.5174 9.9983c-1.3772 2.4217-2.4159 4.9609-3.1799 7.704l-11.61 2.2973v13.936l11.61 2.2939c0.7573 2.7464 1.8028 5.4444 3.1799 7.8695l-6.5174 9.8351 9.7008 9.8352 10.012-6.7192c2.4293 1.3715 5.043 2.5184 7.7906 3.2784l2.2283 11.638h13.99l2.2283-11.638c2.7476-0.76002 5.3646-1.9 7.7906-3.2784l10.016 6.7192 9.7009-9.8352-6.5207-9.8351c1.3772-2.4217 2.4192-5.1232 3.1832-7.8695l11.607-2.2939v-13.936l-11.607-2.2973c-0.76065-2.743-1.8061-5.2822-3.1832-7.704l6.5207-9.9983-9.7009-9.6697-10.016 6.5535c-2.426-1.3715-5.043-2.5219-7.7906-3.2818l-2.2283-11.635zm6.9999 29.174c8.431 0 15.263 7.044 15.263 15.736 0 8.6952-6.8323 15.736-15.263 15.736-8.434 0-15.267-7.0405-15.267-15.736 0-8.6922 6.8323-15.736 15.267-15.736z" fill="#fff" stroke-width=".871"/></svg>
