<svg width="512" height="512" version="1.1" viewBox="0 0 384 384" xmlns="http://www.w3.org/2000/svg"><defs><clipPath><rect width="384" height="384"/></clipPath><clipPath><rect width="384" height="384"/></clipPath><clipPath><rect width="384" height="384"/></clipPath></defs><path d="m360 343.2v-302.39c0-9.2773-7.5234-16.797-16.801-16.797h-302.39c-9.2773 0-16.797 7.5195-16.797 16.797v302.39c0 9.2773 7.5195 16.801 16.797 16.801h302.39c9.2773 0 16.801-7.5234 16.801-16.801z" fill="#fd4747"/><path d="m130.92 103.55c-1.3086-0.0742-2.6367-0.0664-3.9844 0.0234-27.703 1.7695-58.02 36.883-71.809 83.184-15.656 52.551-4.668 100.86 24.539 107.9 18.531 4.418 40.891-8.9219 58.945-35.16h108c18.047 26.223 40.391 39.559 58.918 35.16 29.223-7.0195 40.223-55.336 24.562-107.9-15.648-52.562-52.027-89.465-81.238-82.41-13.566 3.3164-23.805 15.902-28.594 35.156h-55.332c-4.7891-19.254-15.027-31.84-28.594-35.156-1.7617-0.42579-3.5664-0.69141-5.4141-0.79688zm37.078 59.953h48v35.996h12l-36 36-35.996-36h11.996z" opacity=".3"/><path d="m130.92 96.047c-1.3086-0.07422-2.6367-0.06641-3.9844 0.02344-27.703 1.7695-58.02 36.883-71.809 83.184-15.656 52.551-4.668 100.86 24.539 107.9 18.531 4.418 40.891-8.9219 58.945-35.16h108c18.047 26.223 40.391 39.559 58.918 35.16 29.223-7.0195 40.223-55.336 24.562-107.9-15.648-52.562-52.027-89.465-81.238-82.41-13.566 3.3164-23.805 15.902-28.594 35.156h-55.332c-4.7891-19.254-15.027-31.84-28.594-35.156-1.7617-0.42578-3.5664-0.69141-5.4141-0.79688zm37.078 59.953h48v35.996h12l-36 36-35.996-36h11.996z" fill="#fff"/><path transform="scale(.75)" d="m32.01 447.6v10c0 12.37 10.027 22.4 22.396 22.4h403.19c12.37 0 22.4-10.031 22.4-22.4v-10c0 12.37-10.031 22.4-22.4 22.4h-403.19c-12.37 0-22.396-10.031-22.396-22.4z" opacity=".3" stroke-width="1.3333"/><path transform="scale(.75)" d="m54.406 32.01c-12.37 0-22.396 10.027-22.396 22.396v10c0-12.37 10.027-22.396 22.396-22.396h403.19c12.37 0 22.4 10.027 22.4 22.396v-10c0-12.37-10.031-22.396-22.4-22.396h-403.19z" fill="#fff" opacity=".3" stroke-width="1.3333"/></svg>
