<svg xmlns="http://www.w3.org/2000/svg" xmlns:xlink="http://www.w3.org/1999/xlink" width="512" height="512" version="1.1" viewBox="0 0 384 384"> <defs> <filter id="alpha" width="100%" height="100%" x="0%" y="0%" filterUnits="objectBoundingBox"> <feColorMatrix in="SourceGraphic" type="matrix" values="0 0 0 0 1 0 0 0 0 1 0 0 0 0 1 0 0 0 1 0"/> </filter> <mask id="mask0"> <g filter="url(#alpha)"> <rect width="384" height="384" x="0" y="0" style="fill:rgb(0%,0%,0%);fill-opacity:0.2"/> </g> </mask> <clipPath id="clip1"> <rect width="384" height="384" x="0" y="0"/> </clipPath> <g id="surface5" clip-path="url(#clip1)"> <path style="fill:rgb(0%,0%,0%)" d="M 347.746094 191.039062 C 345.03125 275.125 276.128906 341.90625 192 342 C 108.59375 341.941406 39.984375 276.285156 36.265625 192.960938 C 36.148438 194.636719 36.0625 196.320312 36 198 C 36 284.15625 105.84375 354 192 354 C 278.15625 354 348 284.15625 348 198 C 347.96875 195.679688 347.882812 193.359375 347.746094 191.039062 Z M 347.746094 191.039062"/> </g> <mask id="mask1"> <g filter="url(#alpha)"> <rect width="384" height="384" x="0" y="0" style="fill:rgb(0%,0%,0%);fill-opacity:0.2"/> </g> </mask> <clipPath id="clip2"> <rect width="384" height="384" x="0" y="0"/> </clipPath> <g id="surface8" clip-path="url(#clip2)"> <path style="fill:rgb(0%,0%,0%)" d="M 177.265625 36.835938 C 157.578125 38.667969 138.417969 44.226562 120.804688 53.214844 C 121.589844 55.710938 120.675781 58.527344 117.804688 61.015625 C 115.863281 62.695312 114.269531 65.320312 114.269531 66.847656 C 114.269531 71.527344 118.5 78.707031 121.871094 79.753906 C 126.359375 81.140625 124.851562 85.925781 119.082031 88.574219 C 116.417969 89.800781 113.136719 93.320312 111.792969 96.402344 C 110.445312 99.488281 108.460938 102.535156 107.386719 103.167969 C 106.316406 103.800781 105.4375 106.214844 105.4375 108.53125 C 105.4375 111.765625 106.914062 113.335938 111.777344 115.28125 C 115.257812 116.671875 119.421875 117.6875 121.039062 117.535156 C 130.324219 116.660156 130.976562 122.070312 122.851562 132.648438 C 118.539062 138.261719 116.464844 139.675781 113.527344 138.96875 C 110.785156 138.3125 109.289062 139.085938 108.042969 141.804688 C 106.726562 144.675781 104.578125 145.652344 98.796875 146.054688 C 93.113281 146.445312 90.566406 147.601562 88.4375 150.714844 C 86.882812 152.984375 84.636719 154.828125 83.441406 154.828125 C 82.242188 154.828125 79.433594 156.351562 77.195312 158.210938 C 72.636719 161.996094 70.855469 162.378906 69.257812 159.902344 C 67.144531 156.625 62.585938 158.28125 55.804688 164.773438 C 49.808594 170.523438 49.078125 172.058594 49.984375 177.039062 C 51.59375 185.90625 56.40625 193.777344 61.898438 196.523438 C 66.691406 198.917969 66.785156 199.175781 63.878906 202.25 C 62.207031 204.019531 59.339844 205.914062 57.511719 206.46875 C 52.230469 208.074219 55.203125 210.085938 64.625 211.285156 C 74.269531 212.507812 77.265625 216.007812 72.761719 220.777344 C 70.246094 223.433594 70.390625 223.929688 74.421875 226.457031 C 82.300781 231.414062 88.5625 228.378906 81.171875 223.207031 C 76.417969 219.882812 79.742188 218.527344 86.714844 220.9375 C 92.273438 222.863281 93.375 222.753906 96.664062 219.902344 C 103.40625 214.058594 110.738281 222.699219 104.570312 229.226562 C 100.644531 233.378906 101.835938 238.390625 106.917969 239.082031 C 109.160156 239.386719 113.828125 241.476562 117.292969 243.730469 C 120.757812 245.980469 124.53125 247.828125 125.671875 247.828125 C 126.808594 247.828125 130.023438 250.109375 132.816406 252.898438 C 138.476562 258.558594 141.621094 259.277344 143.21875 255.292969 C 145.140625 250.5 144.367188 248.027344 139.199219 242.386719 C 135.082031 237.898438 128.398438 225.960938 128.398438 223.101562 C 128.398438 221.332031 135.195312 222.832031 139 225.433594 C 141.382812 227.058594 145.234375 229.15625 147.5625 230.109375 C 150.046875 231.125 152.617188 234.277344 153.792969 237.726562 C 155.632812 243.132812 156.359375 243.605469 162.84375 243.605469 L 169.894531 243.605469 L 170.960938 256.28125 C 172.246094 271.527344 173.46875 274.613281 178.699219 275.871094 C 182.554688 276.800781 186.667969 282.769531 186.667969 287.433594 C 186.667969 288.675781 183.894531 291.714844 180.515625 294.183594 C 176.316406 297.25 174.507812 299.855469 174.785156 302.410156 C 175.132812 305.601562 174.414062 306.097656 169.894531 305.761719 C 166.980469 305.546875 161.933594 306.566406 158.683594 308.03125 C 154.839844 309.765625 150.675781 310.316406 146.769531 309.617188 C 142.277344 308.808594 140.753906 309.121094 140.753906 310.882812 C 140.753906 312.175781 139.183594 314.597656 137.261719 316.257812 C 132.515625 320.371094 134.476562 322.546875 141.757812 321.242188 C 146.28125 320.429688 148.046875 320.789062 148.828125 322.734375 C 150.488281 326.878906 146.277344 332.808594 142.367188 331.828125 C 139.890625 331.210938 138.703125 332.054688 137.933594 334.980469 C 137.660156 336.019531 137.175781 336.898438 136.59375 337.648438 C 144.605469 340.757812 152.859375 343.195312 161.273438 344.945312 C 160.492188 343.449219 159.609375 342.097656 158.742188 341.488281 C 154.722656 338.644531 157.414062 331.269531 162.949219 329.941406 C 168.582031 328.585938 167.695312 324.925781 161.5625 324.226562 C 156.195312 323.613281 150.472656 318.175781 152.269531 315.390625 C 153.472656 313.523438 158.617188 313.796875 169.011719 316.257812 C 173.707031 317.371094 176.917969 315.140625 187.796875 303.234375 C 194.09375 296.339844 198.933594 293.46875 204.25 293.46875 C 206.273438 293.46875 213.5 291.605469 220.320312 289.324219 C 233.195312 285.019531 238.222656 285.175781 237.75 289.875 C 236.761719 299.652344 243.0625 299.328125 253.320312 289.082031 C 257.59375 284.808594 261.496094 281.726562 262.003906 282.210938 C 263.964844 284.089844 260.433594 293.238281 256.320312 296.941406 C 251.105469 301.632812 250.84375 304.597656 255.4375 306.949219 C 257.953125 308.238281 259.019531 310.859375 259.414062 316.730469 L 259.945312 324.746094 L 266.464844 324.746094 C 268.753906 324.746094 270.644531 325.058594 272.179688 325.644531 C 317.605469 298.351562 346.066406 249.863281 347.753906 196.894531 C 345.371094 191.796875 345.539062 188.714844 347.753906 185.242188 C 347.605469 182.320312 347.371094 179.402344 347.054688 176.496094 C 345.632812 176.433594 344.183594 176.367188 342.515625 176.433594 C 334.65625 176.761719 327.921875 173.664062 327.921875 169.71875 C 327.921875 168.886719 325.132812 165.449219 321.71875 162.085938 C 317.855469 158.273438 315.867188 154.910156 316.449219 153.15625 C 316.976562 151.566406 315.839844 149.003906 313.828125 147.261719 C 311.871094 145.566406 310.265625 142.835938 310.265625 141.199219 C 310.265625 138.585938 308.601562 138.257812 296.585938 138.546875 L 282.902344 138.882812 L 283.132812 152.363281 C 283.539062 175.984375 287.054688 182.113281 297.910156 178.15625 C 302.878906 176.34375 315.082031 177.714844 318.550781 180.472656 C 319.808594 181.46875 321.625 185.085938 322.589844 188.515625 C 323.554688 191.945312 327.128906 197.875 330.542969 201.691406 C 337.457031 209.429688 337.992188 212.445312 334.03125 221.527344 C 330.570312 229.453125 326.847656 228.539062 327.585938 219.941406 L 328.132812 213.542969 L 322.285156 214.640625 C 319.046875 215.25 314.992188 217.644531 313.175781 220.003906 C 310.585938 223.367188 309.371094 223.863281 307.429688 222.320312 C 306.078125 221.246094 304.976562 218.976562 304.976562 217.292969 C 304.976562 215.609375 303.308594 213.734375 301.277344 213.117188 C 299.246094 212.5 296.460938 209.433594 295.089844 206.292969 C 292.898438 201.269531 292.953125 199.734375 295.503906 193.632812 C 298.089844 187.445312 298.113281 186.425781 295.730469 184.140625 C 293.546875 182.050781 292.417969 181.984375 289.546875 183.699219 C 286.65625 185.429688 285.296875 185.300781 281.867188 183 C 279.574219 181.460938 275.578125 180.195312 272.984375 180.195312 C 267.71875 180.195312 266.128906 177.636719 266.128906 169.167969 C 266.128906 161.34375 261.464844 158.503906 250.363281 159.523438 C 242.652344 160.234375 240.953125 159.726562 234.730469 154.9375 C 230.890625 151.984375 224.824219 144.867188 221.234375 139.109375 C 217.644531 133.351562 213.78125 127.335938 212.65625 125.75 C 211.03125 123.449219 211.425781 121.246094 214.609375 114.976562 L 218.613281 107.101562 L 210.144531 108.242188 C 195.070312 110.28125 192.023438 112.234375 198.503906 115.707031 C 201.027344 117.0625 201.140625 117.757812 199.191406 120.003906 C 197.914062 121.476562 197.3125 123.808594 197.863281 125.183594 C 198.417969 126.5625 197.71875 129.804688 196.3125 132.390625 C 194.902344 134.976562 193.722656 138.605469 193.675781 140.464844 C 193.527344 146.28125 183.570312 150.902344 172.484375 150.289062 C 155.683594 149.363281 154.320312 149.628906 148.355469 155.164062 C 140.894531 162.085938 139.933594 165.316406 143.402344 171.738281 C 146.769531 177.976562 152.738281 180.464844 163.085938 179.953125 C 172.335938 179.492188 173.382812 180.308594 171.265625 186.425781 C 169.46875 191.617188 163.425781 193.621094 159.335938 190.371094 C 156.1875 187.867188 145.320312 189.804688 141.984375 193.464844 C 140.589844 195 138.515625 199.019531 137.382812 202.390625 C 135.433594 208.210938 134.867188 208.566406 126.125 209.414062 C 117.40625 210.261719 116.570312 209.980469 110.296875 204.203125 C 103.296875 197.753906 102.113281 192.832031 105.484375 184.339844 C 106.976562 180.578125 108.089844 179.96875 112.082031 180.699219 C 119.992188 182.144531 123.109375 179.394531 123.109375 170.949219 C 123.109375 166.851562 122.316406 163.023438 121.34375 162.445312 C 120.371094 161.871094 119.578125 159.703125 119.578125 157.617188 C 119.578125 155.535156 118.582031 152.855469 117.367188 151.675781 C 115.597656 149.957031 115.855469 149.039062 118.675781 147.042969 C 120.613281 145.675781 123.800781 144.753906 125.746094 144.988281 C 127.691406 145.222656 133.0625 144.382812 137.691406 143.128906 C 144.375 141.320312 146.339844 139.957031 147.242188 136.441406 C 148.957031 129.765625 153.144531 124.40625 156.65625 124.40625 C 162.203125 124.40625 162.316406 111.363281 156.929688 92.398438 C 156.128906 89.597656 153.941406 87.8125 150.066406 86.851562 C 146.933594 86.074219 143.527344 83.9375 142.496094 82.097656 C 141.476562 80.261719 139.589844 78.761719 138.320312 78.761719 C 137.046875 78.761719 134.5625 77.238281 132.804688 75.378906 C 131.035156 73.507812 127.375 72 124.59375 72 C 118.003906 72 117.894531 67.460938 124.425781 65.066406 C 131.332031 62.535156 142.074219 65.851562 144.671875 71.3125 C 148.195312 78.714844 152.097656 75.625 153.355469 64.441406 C 154.910156 50.609375 159.679688 46.632812 174.730469 46.632812 L 185.546875 46.632812 L 180.808594 41.894531 C 179.332031 40.417969 178.109375 38.609375 177.257812 36.835938 Z M 233.339844 41.742188 C 233.039062 42.019531 232.746094 42.242188 232.441406 42.550781 C 228.824219 46.242188 227.128906 46.769531 221.535156 45.917969 C 211.769531 44.429688 213.027344 48.359375 223.835938 53.109375 C 229.679688 55.675781 233.433594 58.601562 234.710938 61.5625 C 240.875 75.847656 245.117188 83.539062 247.25 84.324219 C 251.558594 85.90625 254.125 82.726562 255.082031 74.605469 C 256.175781 65.285156 259.332031 63.308594 264.996094 68.402344 C 267.195312 70.378906 270.265625 72 271.824219 72 C 276.660156 72 280.246094 73.941406 280.246094 76.570312 C 280.246094 77.953125 281.878906 81.289062 283.886719 83.988281 C 286.839844 87.957031 288.847656 88.910156 294.371094 88.910156 C 301.144531 88.910156 305.304688 90.175781 313.792969 94.867188 C 313.925781 94.9375 314.058594 94.964844 314.191406 95.035156 C 293.582031 69.144531 265.273438 50.484375 233.359375 41.742188 Z M 36.039062 191.324219 C 36.027344 191.546875 36.015625 191.769531 36.007812 191.996094 C 36.054688 202.058594 37.074219 212.09375 39.054688 221.960938 C 44.707031 224.261719 46.265625 223.347656 46.855469 218.089844 C 47.15625 215.371094 48.578125 212.285156 50.023438 211.21875 C 52.253906 209.574219 51.851562 208.734375 47.28125 205.613281 C 44.320312 203.597656 41.40625 200.070312 40.804688 197.777344 C 40.226562 195.570312 38.261719 193.148438 36.035156 191.324219 Z M 85.136719 242.890625 C 83.683594 242.738281 81.921875 243.523438 79.972656 245.390625 C 75.847656 249.339844 76.46875 257.277344 81.144531 260.410156 C 86.5 264.003906 88.574219 262.957031 89.25 256.328125 C 90.085938 248.152344 88.339844 243.230469 85.136719 242.894531 Z M 111.613281 266.472656 C 110.019531 266.527344 108.265625 267.671875 106.511719 270.070312 C 104.648438 272.617188 104.136719 275.898438 104.851562 280.886719 C 105.726562 287.015625 105.34375 288.324219 102.136719 289.964844 C 98.019531 292.078125 97.136719 298.347656 100.507812 301.574219 C 103.867188 304.789062 107.0625 303.949219 108.21875 299.546875 C 109.859375 293.28125 119.035156 292.539062 125.308594 298.175781 C 127.980469 300.574219 130.167969 301.792969 130.167969 300.875 C 130.167969 299.953125 127.382812 296.609375 123.984375 293.453125 C 118.777344 288.621094 117.816406 286.5625 117.816406 280.335938 C 117.816406 271.550781 115.121094 266.363281 111.613281 266.472656 Z M 68.136719 286.613281 C 69.3125 288.15625 70.515625 289.671875 71.746094 291.167969 C 70.683594 289.535156 69.46875 287.953125 68.136719 286.621094 Z M 120.710938 310.5625 C 119.917969 310.835938 119.582031 311.824219 119.582031 313.5625 C 119.582031 315.324219 118.457031 317.171875 117.085938 317.675781 C 115.261719 318.347656 114.839844 320.460938 115.546875 325.507812 C 115.679688 326.453125 115.714844 327.210938 115.757812 327.992188 C 117.894531 329.152344 120.058594 330.265625 122.25 331.328125 C 122.140625 328.628906 122.636719 325.453125 124.046875 321.46875 C 126.441406 314.71875 126.527344 313.023438 124.578125 311.84375 C 122.75 310.730469 121.503906 310.289062 120.710938 310.5625 Z M 120.710938 310.5625"/> </g> <mask id="mask2"> <g filter="url(#alpha)"> <rect width="384" height="384" x="0" y="0" style="fill:rgb(0%,0%,0%);fill-opacity:0.2"/> </g> </mask> <clipPath id="clip3"> <rect width="384" height="384" x="0" y="0"/> </clipPath> <g id="surface11" clip-path="url(#clip3)"> <path style="fill:rgb(100.000%,100.000%,100.000%)" d="M 191.988281 36 C 105.835938 36.007812 36 105.847656 36 192 C 36.027344 192.972656 36.0625 193.945312 36.105469 194.917969 C 37.785156 110.011719 107.066406 42.046875 191.988281 42 L 192 42 C 276.945312 42.074219 346.214844 110.09375 347.835938 195.023438 C 347.898438 194.015625 347.949219 193.007812 347.988281 192 C 347.988281 105.847656 278.152344 36.007812 192 36 Z M 191.988281 36"/> </g> </defs> <g> <use mask="url(#mask0)" xlink:href="#surface5"/> <path style="fill:rgb(100.000%,78.039%,18.823%)" d="M 348 192 C 348 278.15625 278.15625 348 192 348 C 105.84375 348 36 278.15625 36 192 C 36 105.84375 105.84375 36 192 36 C 278.15625 36 348 105.84375 348 192 Z M 348 192"/> <use mask="url(#mask1)" xlink:href="#surface8"/> <use mask="url(#mask2)" xlink:href="#surface11"/> </g> </svg>
