<svg width="512" height="512" version="1.1" viewBox="0 0 384 384" xmlns="http://www.w3.org/2000/svg" xmlns:xlink="http://www.w3.org/1999/xlink"><defs><clipPath><rect width="384" height="384"/></clipPath><clipPath><rect width="384" height="384"/></clipPath><clipPath><rect width="384" height="384"/></clipPath><clipPath><rect width="384" height="384"/></clipPath><clipPath><rect width="384" height="384"/></clipPath><clipPath><rect width="384" height="384"/></clipPath><clipPath><rect width="384" height="384"/></clipPath><clipPath><rect width="384" height="384"/></clipPath><clipPath><rect width="384" height="384"/></clipPath><clipPath><rect width="384" height="384"/></clipPath><clipPath><rect width="384" height="384"/></clipPath><clipPath><rect width="384" height="384"/></clipPath><clipPath><rect width="384" height="384"/></clipPath><clipPath><rect width="384" height="384"/></clipPath><clipPath><rect width="384" height="384"/></clipPath><clipPath><rect width="384" height="384"/></clipPath><clipPath><rect width="384" height="384"/></clipPath><clipPath><rect width="384" height="384"/></clipPath><clipPath><rect width="384" height="384"/></clipPath><clipPath><rect width="384" height="384"/></clipPath><clipPath><rect width="384" height="384"/></clipPath><clipPath><rect width="384" height="384"/></clipPath><clipPath><rect width="384" height="384"/></clipPath><clipPath><rect width="384" height="384"/></clipPath><clipPath><rect width="384" height="384"/></clipPath><clipPath><rect width="384" height="384"/></clipPath><clipPath><rect width="384" height="384"/></clipPath><clipPath><rect width="384" height="384"/></clipPath><clipPath><rect width="384" height="384"/></clipPath><clipPath><rect width="384" height="384"/></clipPath><clipPath><rect width="384" height="384"/></clipPath><clipPath><rect width="384" height="384"/></clipPath><clipPath><rect width="384" height="384"/></clipPath><clipPath><rect width="384" height="384"/></clipPath><clipPath><rect width="384" height="384"/></clipPath><clipPath><rect width="384" height="384"/></clipPath><clipPath><rect width="384" height="384"/></clipPath><clipPath><rect width="384" height="384"/></clipPath><clipPath><rect width="384" height="384"/></clipPath><clipPath><rect width="384" height="384"/></clipPath><clipPath><rect width="384" height="384"/></clipPath><clipPath><rect width="384" height="384"/></clipPath><clipPath><rect width="384" height="384"/></clipPath><clipPath><rect width="384" height="384"/></clipPath><clipPath><rect width="384" height="384"/></clipPath><clipPath><rect width="384" height="384"/></clipPath><clipPath><rect width="384" height="384"/></clipPath><clipPath><rect width="384" height="384"/></clipPath><clipPath><rect width="384" height="384"/></clipPath><clipPath><rect width="384" height="384"/></clipPath><clipPath><rect width="384" height="384"/></clipPath><clipPath><rect width="384" height="384"/></clipPath><clipPath><rect width="384" height="384"/></clipPath><clipPath><rect width="384" height="384"/></clipPath><clipPath><rect width="384" height="384"/></clipPath><clipPath><rect width="384" height="384"/></clipPath><clipPath><rect width="384" height="384"/></clipPath><clipPath><rect width="384" height="384"/></clipPath><clipPath><rect width="384" height="384"/></clipPath><clipPath><rect width="384" height="384"/></clipPath><clipPath><rect width="384" height="384"/></clipPath><clipPath><rect width="384" height="384"/></clipPath><clipPath id="c"><path d="m111 119h177v23h-177z"/></clipPath><clipPath><path d="m368.64 199.88c0-93.234-75.602-168.75-168.75-168.75-93.152 0-168.75 75.516-168.75 168.75s75.598 168.75 168.75 168.75c93.148 0 168.75-75.516 168.75-168.75z"/></clipPath><clipPath id="b"><path d="m177 130h45v89h-45z"/></clipPath><clipPath><path d="m368.64 199.88c0-93.234-75.602-168.75-168.75-168.75-93.152 0-168.75 75.516-168.75 168.75s75.598 168.75 168.75 168.75c93.148 0 168.75-75.516 168.75-168.75z"/></clipPath><clipPath id="a"><path d="m111 207h177v89h-177z"/></clipPath><clipPath><path d="m368.64 199.88c0-93.234-75.602-168.75-168.75-168.75-93.152 0-168.75 75.516-168.75 168.75s75.598 168.75 168.75 168.75c93.148 0 168.75-75.516 168.75-168.75z"/></clipPath><clipPath id="d"><rect width="384" height="384"/></clipPath><g clip-path="url(#d)"><g clip-path="url(#c)"></g><g clip-path="url(#b)"></g><g clip-path="url(#a)"></g></g><clipPath><rect width="384" height="384"/></clipPath><clipPath><rect width="384" height="384"/></clipPath><clipPath><rect width="384" height="384"/></clipPath><clipPath><rect width="384" height="384"/></clipPath><clipPath><rect width="384" height="384"/></clipPath><clipPath><rect width="384" height="384"/></clipPath><clipPath><rect width="384" height="384"/></clipPath><clipPath><rect width="384" height="384"/></clipPath><clipPath><rect width="384" height="384"/></clipPath><clipPath><rect width="384" height="384"/></clipPath><clipPath><rect width="384" height="384"/></clipPath></defs><path d="m87.352 101.12c-39.544 0-71.602 32.057-71.602 71.602 0 39.544 32.057 71.602 71.602 71.602 39.544 0 71.602-32.057 71.602-71.602 0-39.544-32.057-71.602-71.602-71.602z" fill="#7f5430" stroke-width=".91797"/><path transform="scale(.75)" d="m21.131 225.3c-0.08547 1.6562-0.13086 3.3226-0.13086 5 0 52.726 42.743 95.469 95.469 95.469 52.726 0 95.469-42.743 95.469-95.469 0-1.6774-0.04539-3.3438-0.13086-5-2.601 50.401-44.29 90.469-95.338 90.469-51.048 0-92.737-40.067-95.338-90.469z" fill="#070300" opacity=".3" stroke-width="1.224"/><path d="m87.352 141.67c-21.293 0-38.555 17.262-38.555 38.555s17.262 38.555 38.555 38.555c21.293 0 38.555-17.262 38.555-38.555s-17.262-38.555-38.555-38.555z" opacity=".3" stroke-width=".91797"/><path d="m87.352 134.17c-21.293 0-38.555 17.262-38.555 38.555s17.262 38.555 38.555 38.555c21.293 0 38.555-17.262 38.555-38.555s-17.262-38.555-38.555-38.555z" fill="#a1683a" stroke-width=".91797"/><path transform="scale(.75)" d="m116.47 134.83c-52.726 0-95.469 42.743-95.469 95.469 0 1.6774 0.045389 3.3438 0.13086 5 2.6011-50.401 44.29-90.469 95.338-90.469 51.048 1e-5 92.737 40.067 95.338 90.469 0.08547-1.6562 0.13086-3.3226 0.13086-5 0-52.726-42.743-95.469-95.469-95.469z" fill="#fff" opacity=".1" stroke-width="1.224"/><path d="m296.65 101.12c-39.544 0-71.602 32.057-71.602 71.602 0 39.544 32.057 71.602 71.602 71.602 39.544 0 71.602-32.057 71.602-71.602 0-39.544-32.057-71.602-71.602-71.602z" fill="#7f5430" stroke-width=".91797"/><path transform="scale(.75)" d="m300.19 225.3c-0.08547 1.6562-0.13086 3.3226-0.13086 5 0 52.726 42.743 95.469 95.469 95.469 52.726 0 95.469-42.743 95.469-95.469 0-1.6774-0.04539-3.3438-0.13086-5-2.601 50.401-44.29 90.469-95.338 90.469-51.048 1e-5 -92.737-40.067-95.338-90.469z" opacity=".3" stroke-width="1.224"/><path d="m296.65 141.67c-21.293 0-38.555 17.262-38.555 38.555s17.262 38.555 38.555 38.555 38.555-17.262 38.555-38.555-17.262-38.555-38.555-38.555z" opacity=".3" stroke-width=".91797"/><path d="m296.65 134.17c-21.293 0-38.555 17.262-38.555 38.555s17.262 38.555 38.555 38.555 38.555-17.262 38.555-38.555-17.262-38.555-38.555-38.555z" fill="#a1683a" stroke-width=".91797"/><path transform="scale(.75)" d="m395.53 134.83c-52.726 0-95.469 42.743-95.469 95.469 0 1.6774 0.04539 3.3438 0.13086 5 2.601-50.401 44.289-90.469 95.338-90.469 51.048 1e-5 92.737 40.067 95.338 90.469 0.08547-1.6562 0.13086-3.3226 0.13086-5 0-52.726-42.743-95.469-95.469-95.469z" fill="#fff" opacity=".1" stroke-width="1.224"/><path d="m192 68.074c3.1053 0.01076 6.207 0.13985 9.298 0.39085-3.091-0.25101-6.1927-0.3801-9.298-0.39085zm0 0c-44.518 0.046615-85.421 24.502-106.54 63.691 21.12-39.189 62.024-63.645 106.54-63.691zm15.118 1.1008c2.1228 0.22949 4.242 0.51994 6.3505 0.8606-2.1085-0.34065-4.2277-0.6311-6.3505-0.8606zm11.249 1.9614c2.3523 0.48767 4.6867 1.0435 7.0031 1.671-2.3164-0.62752-4.6508-1.1833-7.0031-1.671zm11.263 3.091c2.4348 0.76378 4.8444 1.6029 7.2254 2.5208-2.381-0.91797-4.7906-1.757-7.2254-2.5208zm10.732 4.0807c2.6069 1.1008 5.1743 2.2949 7.6988 3.5751-2.5244-1.2801-5.0919-2.4742-7.6988-3.5751zm9.9542 4.8695c2.7934 1.5096 5.5222 3.1232 8.1864 4.8444-2.6643-1.7212-5.3931-3.3348-8.1864-4.8444zm10.248 6.3218c2.6678 1.8073 5.264 3.7221 7.7812 5.7337-2.5172-2.0116-5.1134-3.9265-7.7812-5.7337zm9.1725 6.9601c2.6428 2.1873 5.1958 4.4859 7.6414 6.8919-2.4455-2.4061-4.9986-4.7046-7.6414-6.8919zm8.7279 8.0609c2.485 2.5137 4.8588 5.1313 7.1143 7.8529-2.2555-2.7216-4.6293-5.3393-7.1143-7.8529zm-147.05 6.3218c-17.825-4e-3 -34.747 7.8422-46.261 21.45-0.0036 7e-3 -0.01076 0.0107-0.01435 0.0143-9.3661 17.52-14.279 37.074-14.311 56.939 0 66.922 54.25 121.17 121.17 121.17s121.17-54.25 121.17-121.17c-0.0251-19.736-4.8695-39.168-14.117-56.606-4e-3 -7e-3 -7e-3 -0.0179-0.0143-0.0251-11.496-13.78-28.507-21.755-46.454-21.773-33.459 0-60.586 27.123-60.586 60.586 0.0251 1.1869 0.086 2.3774 0.17929 3.5643h-0.30479c0.0753-1.1869 0.11833-2.3774 0.1255-3.5643 0-33.463-27.127-60.586-60.586-60.586zm167.63 21.773c-1.8539-3.5105-3.8798-6.9242-6.0672-10.234 2.1874 3.3097 4.2133 6.7234 6.0672 10.234zm-12.834-19.421c2.3559 2.8973 4.5755 5.9023 6.6553 9.0076-2.0798-3.1053-4.2994-6.1102-6.6553-9.0076z" fill="#fda34a" stroke-width=".91797"/><g stroke-width=".91797"><path d="m169.97 196.75c0 12.167-9.8646 22.031-22.031 22.031-12.167 0-22.031-9.8646-22.031-22.031 0-12.167 9.8646-22.031 22.031-22.031 12.167 0 22.031 9.8646 22.031 22.031z" fill="#020100" opacity=".3"/><path d="m192 75.574c-44.747 0.03586-90.334 24.731-111.36 64.233 11.514-13.615 32.943-21.468 50.775-21.465 33.459 0 60.586 27.123 60.586 60.586 0-33.463 27.127-60.586 60.586-60.586 17.954 0.0215 39.476 8.0071 50.969 21.798-20.97-39.691-66.664-64.534-111.55-64.566zm0 103.35c-7e-3 1.1869-0.0502 2.3774-0.1255 3.5607h0.30839c-0.0968-1.1833-0.15779-2.3738-0.18289-3.5607z" fill="#060300" opacity=".3"/><path d="m258.09 196.75c0 12.167-9.8646 22.031-22.031 22.031-12.167 0-22.031-9.8646-22.031-22.031 0-12.167 9.8646-22.031 22.031-22.031 12.167 0 22.031 9.8646 22.031 22.031z" fill="#020100" opacity=".3"/></g><path d="m192 68.074c-44.747 0.03586-85.834 24.731-106.86 64.233 11.514-13.615 28.443-21.468 46.275-21.465 33.459 0 60.586 27.123 60.586 60.586 0-33.463 27.127-60.586 60.586-60.586 17.954 0.0215 34.976 8.0071 46.469 21.798-20.97-39.691-62.164-64.534-107.05-64.566zm0 103.35c-7e-3 1.1869-0.0502 2.3774-0.1255 3.5607h0.30838c-0.0968-1.1833-0.15778-2.3738-0.18288-3.5607z" fill="#a1683a" stroke-width=".91797"/><path d="m137.05 251.72a11.017 11.017 0 0 0-7.3008 19.479s27.363 24.684 62.246 24.684c34.883 0 62.246-24.684 62.246-24.684a11.017 11.017 0 1 0-14.336-16.727s-24.043 19.379-47.91 19.379c-23.867 0-47.91-19.379-47.91-19.379a11.017 11.017 0 0 0-7.0352-2.752z" color="#000000" color-rendering="auto" dominant-baseline="auto" fill="#020100" image-rendering="auto" opacity=".3" shape-rendering="auto" solid-color="#000000" style="font-feature-settings:normal;font-variant-alternates:normal;font-variant-caps:normal;font-variant-ligatures:normal;font-variant-numeric:normal;font-variant-position:normal;isolation:auto;mix-blend-mode:normal;shape-padding:0;text-decoration-color:#000000;text-decoration-line:none;text-decoration-style:solid;text-indent:0;text-orientation:mixed;text-transform:none;white-space:normal"/><g fill="#493525"><path d="m169.97 189.25c0 12.167-9.8646 22.031-22.031 22.031s-22.031-9.8646-22.031-22.031c0-12.167 9.8646-22.031 22.031-22.031s22.031 9.8646 22.031 22.031z" stroke-width=".91797"/><path d="m258.09 189.25c0 12.167-9.8646 22.031-22.031 22.031s-22.031-9.8646-22.031-22.031c0-12.167 9.8646-22.031 22.031-22.031s22.031 9.8646 22.031 22.031z" stroke-width=".91797"/><path d="m137.05 244.22a11.017 11.017 0 0 0-7.3008 19.479s27.363 24.684 62.246 24.684 62.246-24.684 62.246-24.684a11.017 11.017 0 1 0-14.336-16.727s-24.043 19.379-47.91 19.379-47.91-19.379-47.91-19.379a11.017 11.017 0 0 0-7.0352-2.752z" color="#000000" color-rendering="auto" dominant-baseline="auto" image-rendering="auto" shape-rendering="auto" solid-color="#000000" style="font-feature-settings:normal;font-variant-alternates:normal;font-variant-caps:normal;font-variant-ligatures:normal;font-variant-numeric:normal;font-variant-position:normal;isolation:auto;mix-blend-mode:normal;shape-padding:0;text-decoration-color:#000000;text-decoration-line:none;text-decoration-style:solid;text-indent:0;text-orientation:mixed;text-transform:none;white-space:normal"/></g><path transform="scale(.75)" d="m256 90.766c-59.663 0.047813-114.44 32.976-142.48 85.645 4.7316-5.5952 10.151-10.458 16.078-14.512 30.285-38.165 76.638-61.093 126.4-61.133 49.871 0.03586 96.306 23.051 126.59 61.336 5.9682 4.121 11.415 9.065 16.154 14.752-27.96-52.922-82.886-86.045-142.74-86.088zm0.20898 142.02c-0.01245 0.17607-0.02188 0.35292-0.0332 0.5293h0.06836c-0.0144-0.1761-0.02194-0.35298-0.03516-0.5293z" fill="#fff" opacity=".1" stroke-width="1.224"/></svg>
