<svg version="1.1" viewBox="0 0 512 512" xmlns="http://www.w3.org/2000/svg"><g><path d="m256 40.783c-30.663 4.25e-4 -55.52 24.859-55.518 55.522 4.2e-4 30.662 24.856 55.518 55.518 55.518 30.663 2e-3 55.521-24.855 55.522-55.518 2e-3 -30.664-24.857-55.523-55.522-55.522z" fill="#2656a8" style="paint-order:stroke fill markers"/><path d="m256 31c-30.663 4.26e-4 -55.52 24.859-55.518 55.522 4.2e-4 30.662 24.856 55.518 55.518 55.518 30.663 2e-3 55.521-24.855 55.522-55.518 0.00196-30.664-24.857-55.523-55.522-55.522zm-104.47 131.22c-13.392-2.7e-4 -24.248 10.856-24.248 24.248v124.34c-2.7e-4 13.392 10.856 24.248 24.248 24.248 13.392 3e-4 24.248-10.856 24.248-24.248v-86.327h16.109c0.27361 0 0.55617-0.0433 0.83228-0.0541v229.88c-3.1e-4 14.741 11.949 26.695 26.691 26.694 14.741 3.3e-4 26.691-11.953 26.691-26.694v-117.16h19.798v117.16c-3.1e-4 14.741 11.949 26.695 26.691 26.694 14.741 3.1e-4 26.691-11.953 26.691-26.694v-229.88c0.27612 0.0111 0.55868 0.0541 0.83229 0.0541h16.109v86.327c-2.7e-4 13.392 10.856 24.248 24.248 24.248 13.392 2.8e-4 24.248-10.856 24.248-24.248v-124.34c2.8e-4 -13.392-10.856-24.248-24.248-24.248z" fill="#367bf0" style="paint-order:stroke fill markers"/><path d="m192.72 204.86c-0.27612 0.0108-0.55753 0.0535-0.83114 0.0535h-16.109v19.565h16.109c0.27361 0 0.55502-0.0427 0.83114-0.0535zm126.56 0v19.565c0.27611 0.0111 0.55753 0.0535 0.83114 0.0535h16.109v-19.565h-16.109c-0.27361 0-0.55503-0.0425-0.83114-0.0535zm-192 86.381v19.565c-2.8e-4 13.392 10.856 24.247 24.248 24.246 13.392 3.1e-4 24.249-10.854 24.248-24.246v-19.565c2.7e-4 13.392-10.856 24.247-24.248 24.246-13.392 2.8e-4 -24.249-10.854-24.248-24.246zm208.94 0v19.565c-2.6e-4 13.392 10.856 24.247 24.248 24.246 13.392 2.9e-4 24.249-10.854 24.248-24.246v-19.565c2.8e-4 13.392-10.856 24.247-24.248 24.246-13.392 3e-4 -24.249-10.854-24.248-24.246zm-90.12 26.333v19.565h19.798v-19.565zm-53.382 117.16v19.565c-3.2e-4 14.741 11.951 26.694 26.692 26.694 14.741 3.3e-4 26.69-11.952 26.69-26.694v-19.565c3.1e-4 14.741-11.949 26.694-26.69 26.694-14.741 3.2e-4 -26.692-11.952-26.692-26.694zm73.18 0v19.565c-3.1e-4 14.741 11.949 26.694 26.69 26.694 14.741 3.1e-4 26.692-11.952 26.692-26.694v-19.565c3.1e-4 14.741-11.951 26.694-26.692 26.694-14.741 3.2e-4 -26.69-11.952-26.69-26.694z" opacity=".3" style="paint-order:stroke fill markers"/><path d="m256 31c-30.663 4.26e-4 -55.52 24.859-55.518 55.522 3e-5 1.6496 0.0864 3.2783 0.22737 4.8913 2.4769-28.37 26.277-50.63 55.291-50.631 29.015-0.0015 52.818 22.259 55.295 50.631 0.14095-1.613 0.22735-3.2417 0.22738-4.8913 2e-3 -30.664-24.858-55.524-55.522-55.522zm-104.47 131.22c-13.392-2.8e-4 -24.248 10.856-24.248 24.248v9.7826c-2.5e-4 -13.392 10.856-24.249 24.248-24.248h208.94c13.392-2.7e-4 24.249 10.856 24.248 24.248v-9.7826c2.8e-4 -13.392-10.856-24.249-24.248-24.248z" fill="#fff" opacity=".2" style="paint-order:stroke fill markers"/></g></svg>
