<svg xmlns="http://www.w3.org/2000/svg" xmlns:xlink="http://www.w3.org/1999/xlink" width="512" height="512" version="1.1" viewBox="0 0 384 384"> <defs> <filter id="alpha" width="100%" height="100%" x="0%" y="0%" filterUnits="objectBoundingBox"> <feColorMatrix in="SourceGraphic" type="matrix" values="0 0 0 0 1 0 0 0 0 1 0 0 0 0 1 0 0 0 1 0"/> </filter> <mask id="mask0"> <g filter="url(#alpha)"> <rect width="384" height="384" x="0" y="0" style="fill:rgb(0%,0%,0%);fill-opacity:0.2"/> </g> </mask> <clipPath id="clip1"> <rect width="384" height="384" x="0" y="0"/> </clipPath> <g id="surface5" clip-path="url(#clip1)"> <path style="fill:rgb(0%,0%,0%)" d="M 192 42.003906 C 154.699219 42.003906 120.679688 53.347656 95.585938 72.394531 C 70.488281 91.445312 60 118.699219 60 149.015625 L 60 162 C 35.085938 174.296875 12 204.527344 12 242.332031 C 12 290.726562 47.578125 330 84 330 L 84 149.015625 C 84 126.3125 88.753906 107.8125 109.46875 92.085938 C 130.1875 76.355469 159.445312 66 192 66 C 224.554688 66 253.8125 76.359375 274.53125 92.082031 C 295.25 107.808594 300 126.308594 300 149.015625 L 300 329.996094 C 336.425781 329.996094 372 290.722656 372 242.332031 C 372 204.523438 348.914062 174.296875 324 162 L 324 149.015625 C 324 118.695312 313.511719 91.441406 288.417969 72.390625 C 263.324219 53.34375 229.304688 42 192.003906 42 Z M 192 42.003906"/> </g> <mask id="mask1"> <g filter="url(#alpha)"> <rect width="384" height="384" x="0" y="0" style="fill:rgb(0%,0%,0%);fill-opacity:0.2"/> </g> </mask> <clipPath id="clip2"> <rect width="384" height="384" x="0" y="0"/> </clipPath> <g id="surface8" clip-path="url(#clip2)"> <path style="fill:rgb(0%,0%,0%)" d="M 324 222 C 324 294.902344 264.902344 354 192 354 C 119.097656 354 60 294.902344 60 222 C 60 149.097656 119.097656 90 192 90 C 264.902344 90 324 149.097656 324 222 Z M 324 222"/> </g> <mask id="mask2"> <g filter="url(#alpha)"> <rect width="384" height="384" x="0" y="0" style="fill:rgb(0%,0%,0%);fill-opacity:0.101961"/> </g> </mask> <clipPath id="clip3"> <rect width="384" height="384" x="0" y="0"/> </clipPath> <g id="surface11" clip-path="url(#clip3)"> <path style="fill:rgb(0%,0%,0%)" d="M 240 270 C 240 296.507812 218.507812 318 192 318 C 165.492188 318 144 296.742188 144 270.230469 Z M 240 270"/> </g> <mask id="mask3"> <g filter="url(#alpha)"> <rect width="384" height="384" x="0" y="0" style="fill:rgb(0%,0%,0%);fill-opacity:0.101961"/> </g> </mask> <clipPath id="clip4"> <rect width="384" height="384" x="0" y="0"/> </clipPath> <g id="surface14" clip-path="url(#clip4)"> <path style="fill:rgb(100.000%,100.000%,100.000%)" d="M 192 84 C 119.097656 84 60 143.097656 60 216 C 60.023438 216.980469 60.058594 217.960938 60.105469 218.941406 C 61.765625 147.277344 120.316406 90.039062 192 90 C 263.664062 90.0625 322.1875 147.296875 323.847656 218.941406 C 323.910156 217.960938 323.960938 216.980469 324 216 C 324 143.097656 264.902344 84 192 84 Z M 192 84"/> </g> <mask id="mask4"> <g filter="url(#alpha)"> <rect width="384" height="384" x="0" y="0" style="fill:rgb(0%,0%,0%);fill-opacity:0.101961"/> </g> </mask> <clipPath id="clip5"> <rect width="384" height="384" x="0" y="0"/> </clipPath> <g id="surface17" clip-path="url(#clip5)"> <path style="fill:rgb(0%,0%,0%)" d="M 276 186 C 276 199.253906 265.253906 210 252 210 C 238.746094 210 228 199.253906 228 186 C 228 172.746094 238.746094 162 252 162 C 265.253906 162 276 172.746094 276 186 Z M 276 186"/> </g> <mask id="mask5"> <g filter="url(#alpha)"> <rect width="384" height="384" x="0" y="0" style="fill:rgb(0%,0%,0%);fill-opacity:0.101961"/> </g> </mask> <clipPath id="clip6"> <rect width="384" height="384" x="0" y="0"/> </clipPath> <g id="surface20" clip-path="url(#clip6)"> <path style="fill:rgb(0%,0%,0%)" d="M 156 186 C 156 199.253906 145.253906 210 132 210 C 118.746094 210 108 199.253906 108 186 C 108 172.746094 118.746094 162 132 162 C 145.253906 162 156 172.746094 156 186 Z M 156 186"/> </g> <mask id="mask6"> <g filter="url(#alpha)"> <rect width="384" height="384" x="0" y="0" style="fill:rgb(0%,0%,0%);fill-opacity:0.101961"/> </g> </mask> <clipPath id="clip7"> <rect width="384" height="384" x="0" y="0"/> </clipPath> <g id="surface23" clip-path="url(#clip7)"> <path style="fill:rgb(100.000%,100.000%,100.000%)" d="M 192 36 C 154.699219 36 120.671875 47.351562 95.578125 66.398438 C 70.480469 85.449219 60 112.699219 60 143.015625 L 60 149.015625 C 60 118.699219 70.480469 91.449219 95.578125 72.398438 C 120.671875 53.351562 154.699219 42 192 42 C 229.300781 42 263.328125 53.351562 288.421875 72.398438 C 313.515625 91.445312 324 118.695312 324 149.015625 L 324 143.015625 C 324 112.695312 313.515625 85.445312 288.421875 66.398438 C 263.328125 47.351562 229.300781 36 192 36 Z M 60 156 C 35.085938 168.296875 12 198.535156 12 236.34375 C 12 237.292969 12.082031 238.21875 12.117188 239.15625 C 13.378906 202.851562 35.792969 173.945312 60 162 Z M 324 156 L 324 162 C 348.203125 173.945312 370.621094 202.828125 371.882812 239.132812 C 371.917969 238.191406 372 237.269531 372 236.320312 C 372 198.511719 348.914062 168.296875 324 156 Z M 324 156"/> </g> </defs> <g> <use mask="url(#mask0)" xlink:href="#surface5"/> <use mask="url(#mask1)" xlink:href="#surface8"/> <path style="fill:rgb(100.000%,78.039%,18.823%)" d="M 324 216 C 324 288.902344 264.902344 348 192 348 C 119.097656 348 60 288.902344 60 216 C 60 143.097656 119.097656 84 192 84 C 264.902344 84 324 143.097656 324 216 Z M 324 216"/> <use mask="url(#mask2)" xlink:href="#surface11"/> <use mask="url(#mask3)" xlink:href="#surface14"/> <path style="fill:rgb(29.803%,29.803%,29.803%)" d="M 192 36.003906 C 154.699219 36.003906 120.679688 47.347656 95.585938 66.394531 C 70.488281 85.445312 60 112.699219 60 143.015625 L 60 156 C 35.085938 168.296875 12 198.527344 12 236.332031 C 12 284.726562 47.578125 324 84 324 L 84 143.015625 C 84 120.3125 88.753906 101.8125 109.46875 86.085938 C 130.1875 70.355469 159.445312 60 192 60 C 224.554688 60 253.8125 70.359375 274.53125 86.082031 C 295.25 101.808594 300 120.308594 300 143.015625 L 300 323.996094 C 336.425781 323.996094 372 284.722656 372 236.332031 C 372 198.523438 348.914062 168.296875 324 156 L 324 143.015625 C 324 112.695312 313.511719 85.441406 288.417969 66.390625 C 263.324219 47.34375 229.304688 36 192.003906 36 Z M 192 36.003906"/> <use mask="url(#mask4)" xlink:href="#surface17"/> <path style="fill:rgb(29.803%,29.803%,29.803%)" d="M 276 180 C 276 193.253906 265.253906 204 252 204 C 238.746094 204 228 193.253906 228 180 C 228 166.746094 238.746094 156 252 156 C 265.253906 156 276 166.746094 276 180 Z M 276 180"/> <use mask="url(#mask5)" xlink:href="#surface20"/> <path style="fill:rgb(29.803%,29.803%,29.803%)" d="M 156 180 C 156 193.253906 145.253906 204 132 204 C 118.746094 204 108 193.253906 108 180 C 108 166.746094 118.746094 156 132 156 C 145.253906 156 156 166.746094 156 180 Z M 156 180"/> <path style="fill:rgb(29.803%,29.803%,29.803%)" d="M 240 264 C 240 290.507812 218.507812 312 192 312 C 165.492188 312 144 290.742188 144 264.230469 Z M 240 264"/> <use mask="url(#mask6)" xlink:href="#surface23"/> </g> </svg>
