<svg xmlns="http://www.w3.org/2000/svg" xmlns:xlink="http://www.w3.org/1999/xlink" width="512" height="512" version="1.1" viewBox="0 0 384 384"> <defs> <filter id="alpha" width="100%" height="100%" x="0%" y="0%" filterUnits="objectBoundingBox"> <feColorMatrix in="SourceGraphic" type="matrix" values="0 0 0 0 1 0 0 0 0 1 0 0 0 0 1 0 0 0 1 0"/> </filter> <mask id="mask0"> <g filter="url(#alpha)"> <rect width="384" height="384" x="0" y="0" style="fill:rgb(0%,0%,0%);fill-opacity:0.2"/> </g> </mask> <clipPath id="clip1"> <rect width="384" height="384" x="0" y="0"/> </clipPath> <g id="surface5" clip-path="url(#clip1)"> <path style="fill:rgb(0%,0%,0%)" d="M 347.746094 191.039062 C 345.03125 275.125 276.128906 341.90625 192 342 C 108.59375 341.941406 39.984375 276.285156 36.265625 192.960938 C 36.148438 194.636719 36.0625 196.320312 36 198 C 36 284.15625 105.84375 354 192 354 C 278.15625 354 348 284.15625 348 198 C 347.96875 195.679688 347.882812 193.359375 347.746094 191.039062 Z M 347.746094 191.039062"/> </g> <mask id="mask1"> <g filter="url(#alpha)"> <rect width="384" height="384" x="0" y="0" style="fill:rgb(0%,0%,0%);fill-opacity:0.2"/> </g> </mask> <clipPath id="clip2"> <rect width="384" height="384" x="0" y="0"/> </clipPath> <g id="surface8" clip-path="url(#clip2)"> <path style="fill:rgb(0%,0%,0%)" d="M 177.371094 36.601562 C 157.667969 38.433594 138.492188 43.996094 120.867188 52.992188 C 121.652344 55.492188 120.734375 58.308594 117.863281 60.800781 C 115.917969 62.484375 114.324219 65.109375 114.324219 66.640625 C 114.324219 71.320312 118.558594 78.511719 121.933594 79.554688 C 126.425781 80.945312 124.914062 85.738281 119.144531 88.386719 C 116.476562 89.613281 113.191406 93.136719 111.84375 96.222656 C 110.496094 99.3125 108.511719 102.359375 107.4375 102.996094 C 106.367188 103.628906 105.488281 106.042969 105.488281 108.363281 C 105.488281 111.601562 106.964844 113.171875 111.828125 115.117188 C 115.3125 116.511719 119.480469 117.527344 121.101562 117.375 C 130.394531 116.5 131.042969 121.914062 122.914062 132.5 C 118.597656 138.121094 116.523438 139.535156 113.582031 138.828125 C 110.839844 138.171875 109.339844 138.945312 108.09375 141.664062 C 106.777344 144.539062 104.625 145.519531 98.839844 145.921875 C 93.152344 146.3125 90.605469 147.46875 88.472656 150.585938 C 86.917969 152.859375 84.667969 154.703125 83.472656 154.703125 C 82.273438 154.703125 79.460938 156.226562 77.21875 158.089844 C 72.65625 161.878906 70.875 162.257812 69.277344 159.78125 C 67.164062 156.503906 62.601562 158.160156 55.8125 164.65625 C 49.8125 170.410156 49.082031 171.949219 49.988281 176.933594 C 51.601562 185.8125 56.414062 193.691406 61.910156 196.4375 C 66.707031 198.835938 66.800781 199.09375 63.894531 202.171875 C 62.21875 203.941406 59.351562 205.835938 57.519531 206.394531 C 52.234375 208 55.210938 210.015625 64.640625 211.210938 C 74.292969 212.4375 77.292969 215.941406 72.78125 220.710938 C 70.269531 223.375 70.410156 223.867188 74.445312 226.398438 C 82.328125 231.359375 88.597656 228.320312 81.199219 223.144531 C 76.441406 219.816406 79.769531 218.460938 86.75 220.875 C 92.3125 222.800781 93.414062 222.691406 96.707031 219.839844 C 103.453125 213.988281 110.789062 222.640625 104.617188 229.171875 C 100.691406 233.328125 101.882812 238.34375 106.964844 239.035156 C 109.214844 239.34375 113.882812 241.433594 117.351562 243.6875 C 120.816406 245.941406 124.59375 247.789062 125.734375 247.789062 C 126.875 247.789062 130.09375 250.074219 132.886719 252.867188 C 138.554688 258.53125 141.699219 259.25 143.300781 255.261719 C 145.222656 250.464844 144.449219 247.992188 139.273438 242.34375 C 135.15625 237.851562 128.464844 225.902344 128.464844 223.039062 C 128.464844 221.269531 135.269531 222.773438 139.074219 225.375 C 141.460938 227.003906 145.316406 229.101562 147.644531 230.054688 C 150.132812 231.070312 152.707031 234.226562 153.878906 237.679688 C 155.722656 243.09375 156.449219 243.566406 162.9375 243.566406 L 169.996094 243.566406 L 171.0625 256.253906 C 172.347656 271.511719 173.570312 274.601562 178.808594 275.863281 C 182.667969 276.789062 186.78125 282.765625 186.78125 287.4375 C 186.78125 288.675781 184.007812 291.71875 180.625 294.191406 C 176.421875 297.257812 174.609375 299.867188 174.890625 302.425781 C 175.238281 305.617188 174.515625 306.117188 169.996094 305.78125 C 167.082031 305.5625 162.027344 306.585938 158.773438 308.050781 C 154.929688 309.785156 150.761719 310.339844 146.851562 309.636719 C 142.355469 308.828125 140.828125 309.144531 140.828125 310.902344 C 140.828125 312.199219 139.257812 314.621094 137.339844 316.285156 C 132.585938 320.402344 134.550781 322.582031 141.835938 321.273438 C 146.363281 320.460938 148.128906 320.820312 148.910156 322.765625 C 150.574219 326.914062 146.359375 332.851562 142.445312 331.871094 C 139.96875 331.25 138.777344 332.09375 138.007812 335.027344 C 137.738281 336.066406 137.25 336.945312 136.667969 337.695312 C 144.683594 340.808594 152.945312 343.25 161.367188 345 C 160.585938 343.503906 159.703125 342.152344 158.835938 341.539062 C 154.8125 338.691406 157.503906 331.3125 163.042969 329.980469 C 168.683594 328.625 167.792969 324.960938 161.65625 324.261719 C 156.285156 323.648438 150.554688 318.207031 152.355469 315.417969 C 153.5625 313.546875 158.707031 313.820312 169.113281 316.285156 C 173.808594 317.402344 177.023438 315.167969 187.910156 303.25 C 194.214844 296.347656 199.054688 293.476562 204.375 293.476562 C 206.402344 293.476562 213.636719 291.609375 220.460938 289.328125 C 233.347656 285.015625 238.378906 285.171875 237.902344 289.875 C 236.917969 299.664062 243.222656 299.339844 253.488281 289.082031 C 257.765625 284.808594 261.667969 281.71875 262.175781 282.207031 C 264.140625 284.085938 260.609375 293.246094 256.488281 296.949219 C 251.269531 301.648438 251.011719 304.613281 255.605469 306.96875 C 258.125 308.257812 259.191406 310.878906 259.585938 316.757812 L 260.117188 324.78125 L 266.644531 324.78125 C 268.933594 324.78125 270.828125 325.09375 272.363281 325.679688 C 317.824219 298.359375 346.308594 249.828125 348 196.808594 C 345.613281 191.707031 345.785156 188.621094 348 185.144531 C 347.847656 182.222656 347.613281 179.300781 347.296875 176.390625 C 345.875 176.328125 344.425781 176.261719 342.753906 176.332031 C 334.890625 176.65625 328.148438 173.554688 328.148438 169.605469 C 328.148438 168.773438 325.359375 165.332031 321.945312 161.964844 C 318.074219 158.152344 316.085938 154.785156 316.667969 153.03125 C 317.195312 151.4375 316.054688 148.871094 314.046875 147.128906 C 312.089844 145.433594 310.476562 142.699219 310.476562 141.058594 C 310.476562 138.445312 308.8125 138.117188 296.785156 138.40625 L 283.097656 138.742188 L 283.324219 152.238281 C 283.730469 175.878906 287.25 182.015625 298.113281 178.054688 C 303.085938 176.238281 315.300781 177.613281 318.773438 180.371094 C 320.027344 181.371094 321.847656 184.992188 322.8125 188.421875 C 323.777344 191.851562 327.355469 197.792969 330.773438 201.613281 C 337.691406 209.355469 338.230469 212.375 334.261719 221.464844 C 330.800781 229.398438 327.078125 228.480469 327.8125 219.878906 L 328.363281 213.476562 L 322.507812 214.574219 C 319.269531 215.183594 315.207031 217.578125 313.390625 219.941406 C 310.800781 223.304688 309.585938 223.800781 307.640625 222.257812 C 306.289062 221.183594 305.1875 218.910156 305.1875 217.226562 C 305.1875 215.542969 303.515625 213.667969 301.484375 213.046875 C 299.449219 212.429688 296.664062 209.359375 295.292969 206.21875 C 293.097656 201.1875 293.152344 199.652344 295.703125 193.546875 C 298.292969 187.351562 298.316406 186.328125 295.933594 184.046875 C 293.746094 181.949219 292.617188 181.882812 289.742188 183.601562 C 286.851562 185.332031 285.492188 185.203125 282.058594 182.902344 C 279.761719 181.363281 275.765625 180.09375 273.167969 180.09375 C 267.898438 180.09375 266.308594 177.53125 266.308594 169.054688 C 266.308594 161.226562 261.640625 158.378906 250.527344 159.402344 C 242.8125 160.113281 241.109375 159.605469 234.886719 154.8125 C 231.042969 151.855469 224.96875 144.730469 221.375 138.96875 C 217.785156 133.207031 213.917969 127.1875 212.792969 125.59375 C 211.167969 123.296875 211.5625 121.085938 214.746094 114.8125 L 218.753906 106.929688 L 210.277344 108.074219 C 195.191406 110.113281 192.140625 112.070312 198.628906 115.546875 C 201.15625 116.898438 201.265625 117.597656 199.316406 119.847656 C 198.035156 121.320312 197.4375 123.652344 197.988281 125.03125 C 198.542969 126.410156 197.84375 129.65625 196.433594 132.242188 C 195.023438 134.832031 193.84375 138.464844 193.796875 140.324219 C 193.648438 146.148438 183.683594 150.773438 172.585938 150.160156 C 155.773438 149.234375 154.410156 149.5 148.4375 155.039062 C 140.972656 161.96875 140.007812 165.199219 143.480469 171.632812 C 146.851562 177.871094 152.824219 180.363281 163.179688 179.851562 C 172.441406 179.390625 173.488281 180.207031 171.367188 186.332031 C 169.570312 191.527344 163.519531 193.53125 159.429688 190.28125 C 156.273438 187.773438 145.398438 189.710938 142.0625 193.375 C 140.664062 194.914062 138.589844 198.9375 137.460938 202.3125 C 135.507812 208.136719 134.9375 208.492188 126.191406 209.339844 C 117.464844 210.1875 116.628906 209.910156 110.351562 204.125 C 103.34375 197.671875 102.15625 192.742188 105.535156 184.242188 C 107.027344 180.476562 108.140625 179.867188 112.136719 180.597656 C 120.050781 182.046875 123.171875 179.292969 123.171875 170.835938 C 123.171875 166.738281 122.378906 162.902344 121.40625 162.328125 C 120.433594 161.753906 119.636719 159.582031 119.636719 157.496094 C 119.636719 155.410156 118.640625 152.726562 117.425781 151.546875 C 115.65625 149.828125 115.910156 148.910156 118.738281 146.910156 C 120.675781 145.542969 123.863281 144.621094 125.8125 144.851562 C 127.761719 145.085938 133.132812 144.246094 137.765625 142.992188 C 144.457031 141.183594 146.421875 139.816406 147.324219 136.300781 C 149.042969 129.617188 153.234375 124.253906 156.746094 124.253906 C 162.300781 124.253906 162.414062 111.199219 157.019531 92.214844 C 156.214844 89.410156 154.03125 87.621094 150.152344 86.660156 C 147.015625 85.882812 143.605469 83.746094 142.574219 81.90625 C 141.554688 80.0625 139.667969 78.566406 138.394531 78.566406 C 137.121094 78.566406 134.632812 77.042969 132.875 75.179688 C 131.105469 73.304688 127.441406 71.792969 124.65625 71.792969 C 118.0625 71.792969 117.953125 67.25 124.488281 64.855469 C 131.398438 62.324219 142.152344 65.644531 144.753906 71.109375 C 148.277344 78.519531 152.183594 75.425781 153.441406 64.230469 C 155 50.382812 159.773438 46.40625 174.835938 46.40625 L 185.660156 46.40625 L 180.917969 41.664062 C 179.441406 40.183594 178.214844 38.375 177.363281 36.601562 Z M 233.492188 41.511719 C 233.191406 41.785156 232.894531 42.007812 232.59375 42.320312 C 228.972656 46.015625 227.277344 46.542969 221.675781 45.6875 C 211.902344 44.199219 213.160156 48.132812 223.980469 52.886719 C 229.828125 55.457031 233.585938 58.386719 234.867188 61.347656 C 241.035156 75.648438 245.28125 83.347656 247.414062 84.132812 C 251.726562 85.714844 254.292969 82.53125 255.25 74.402344 C 256.347656 65.074219 259.507812 63.097656 265.175781 68.195312 C 267.375 70.175781 270.445312 71.796875 272.003906 71.796875 C 276.847656 71.796875 280.4375 73.742188 280.4375 76.371094 C 280.4375 77.753906 282.070312 81.09375 284.082031 83.796875 C 287.035156 87.769531 289.046875 88.722656 294.570312 88.722656 C 301.351562 88.722656 305.515625 89.988281 314.011719 94.683594 C 314.144531 94.757812 314.273438 94.78125 314.40625 94.851562 C 293.78125 68.941406 265.449219 50.257812 233.511719 41.507812 Z M 36.03125 191.230469 C 36.019531 191.457031 36.007812 191.679688 36 191.90625 C 36.046875 201.976562 37.066406 212.023438 39.050781 221.898438 C 44.707031 224.203125 46.269531 223.289062 46.855469 218.023438 C 47.160156 215.304688 48.582031 212.214844 50.027344 211.148438 C 52.257812 209.5 51.855469 208.660156 47.28125 205.539062 C 44.320312 203.519531 41.402344 199.988281 40.800781 197.695312 C 40.222656 195.484375 38.257812 193.058594 36.03125 191.230469 Z M 85.171875 242.851562 C 83.714844 242.695312 81.953125 243.480469 80 245.351562 C 75.871094 249.304688 76.496094 257.246094 81.175781 260.386719 C 86.535156 263.980469 88.609375 262.933594 89.285156 256.300781 C 90.121094 248.113281 88.375 243.1875 85.171875 242.851562 Z M 111.667969 266.453125 C 110.074219 266.507812 108.316406 267.652344 106.5625 270.054688 C 104.695312 272.601562 104.183594 275.890625 104.898438 280.878906 C 105.777344 287.015625 105.394531 288.324219 102.183594 289.96875 C 98.0625 292.082031 97.179688 298.359375 100.554688 301.589844 C 103.914062 304.804688 107.113281 303.964844 108.269531 299.558594 C 109.914062 293.285156 119.09375 292.546875 125.375 298.1875 C 128.046875 300.589844 130.238281 301.808594 130.238281 300.886719 C 130.238281 299.964844 127.449219 296.617188 124.046875 293.460938 C 118.839844 288.625 117.875 286.558594 117.875 280.332031 C 117.875 271.535156 115.175781 266.34375 111.667969 266.453125 Z M 68.15625 286.613281 C 69.332031 288.15625 70.535156 289.675781 71.769531 291.171875 C 70.703125 289.539062 69.488281 287.953125 68.15625 286.621094 Z M 120.769531 310.585938 C 119.976562 310.855469 119.644531 311.847656 119.644531 313.589844 C 119.644531 315.351562 118.515625 317.199219 117.144531 317.707031 C 115.320312 318.375 114.894531 320.492188 115.601562 325.542969 C 115.734375 326.488281 115.769531 327.246094 115.816406 328.027344 C 117.953125 329.191406 120.121094 330.304688 122.3125 331.367188 C 122.203125 328.667969 122.699219 325.488281 124.109375 321.503906 C 126.507812 314.746094 126.59375 313.046875 124.644531 311.867188 C 122.8125 310.753906 121.566406 310.3125 120.769531 310.585938 Z M 120.769531 310.585938"/> </g> <mask id="mask2"> <g filter="url(#alpha)"> <rect width="384" height="384" x="0" y="0" style="fill:rgb(0%,0%,0%);fill-opacity:0.2"/> </g> </mask> <clipPath id="clip3"> <rect width="384" height="384" x="0" y="0"/> </clipPath> <g id="surface11" clip-path="url(#clip3)"> <path style="fill:rgb(100.000%,100.000%,100.000%)" d="M 191.992188 36 C 107.871094 36.101562 38.976562 102.882812 36.257812 186.960938 C 36.191406 185.613281 36.140625 184.265625 36.105469 182.917969 C 36.058594 183.945312 36.023438 184.972656 36 186 C 36.035156 188.320312 36.121094 190.640625 36.257812 192.960938 C 38.976562 108.882812 107.871094 42.101562 191.992188 42 C 275.410156 42.046875 344.03125 107.707031 347.753906 191.039062 C 347.863281 189.359375 347.945312 187.679688 348 186 C 347.957031 185.007812 347.90625 184.015625 347.847656 183.023438 C 347.820312 183.695312 347.789062 184.367188 347.753906 185.039062 C 344.03125 101.707031 275.410156 36.046875 191.992188 36 Z M 191.992188 36"/> </g> </defs> <g> <use mask="url(#mask0)" xlink:href="#surface5"/> <path style="fill:rgb(29.019%,68.235%,90.196%)" d="M 348 192 C 348 278.15625 278.15625 348 192 348 C 105.84375 348 36 278.15625 36 192 C 36 105.84375 105.84375 36 192 36 C 278.15625 36 348 105.84375 348 192 Z M 348 192"/> <use mask="url(#mask1)" xlink:href="#surface8"/> <use mask="url(#mask2)" xlink:href="#surface11"/> </g> </svg>
