<svg width="512" height="512" version="1.1" viewBox="0 0 384 384" xmlns="http://www.w3.org/2000/svg"><defs><clipPath><rect width="384" height="384"/></clipPath><clipPath><rect width="384" height="384"/></clipPath><clipPath><rect width="384" height="384"/></clipPath></defs><path d="m54.598 24.012c-8.0273-0.21094-15.812 2.4688-21.578 7.4336-5.7656 4.9648-9.0195 11.789-9.0195 18.914v283.27c-0.0039 9.4219 5.6602 18.133 14.859 22.844s20.535 4.707 29.73-8e-3l138.27-70.836 138.28-70.812c9.1992-4.707 14.867-13.414 14.867-22.836 0-9.4219-5.668-18.125-14.867-22.836l-138.28-70.797-138.27-70.832c-4.2656-2.1797-9.0742-3.3867-13.992-3.5117z" fill="#2861bf"/><path d="m178.89 127.5c3.4414-0.0898 6.7773 1.0586 9.25 3.1875 2.4688 2.125 3.8633 5.0508 3.8633 8.1055v121.4c4e-3 4.039-2.4258 7.7695-6.3672 9.7891-3.9414 2.0195-8.8008 2.0195-12.742 0l-59.262-30.359-59.262-30.352c-3.9453-2.0156-6.375-5.7461-6.375-9.7852s2.4297-7.7695 6.375-9.7852l59.262-30.348 59.258-30.355c1.8242-0.93359 3.8867-1.4531 5.9961-1.5039z" opacity=".3"/><path d="m178.89 120c3.4414-0.0898 6.7773 1.0586 9.25 3.1875 2.4688 2.125 3.8633 5.0508 3.8633 8.1055v121.4c4e-3 4.0391-2.4258 7.7695-6.3672 9.7891-3.9414 2.0195-8.8008 2.0195-12.742 0l-59.262-30.359-59.262-30.352c-3.9453-2.0156-6.375-5.7461-6.375-9.7852s2.4297-7.7695 6.375-9.7852l59.262-30.348 59.258-30.355c1.8242-0.93359 3.8867-1.4531 5.9961-1.5039z" fill="#fff"/><path transform="scale(.75)" d="m479.59 250.98c-1.7141 10.583-8.7914 20.015-19.408 25.447l-184.37 94.416-184.35 94.447c-12.26 6.2867-27.375 6.293-39.641 0.01171s-19.818-17.896-19.812-30.459v10c-0.005333 12.563 7.5469 24.178 19.812 30.459s27.38 6.275 39.641-0.01171l184.35-94.447 184.37-94.416c12.266-6.276 19.822-17.887 19.822-30.449 0-1.6881-0.14806-3.3552-0.41406-4.998z" fill="#001a46" opacity=".3" stroke-width="1.3333"/><path transform="scale(.75)" d="m70.795 32.008c-9.9877 0.18503-19.562 3.7139-26.77 9.9199-7.6875 6.6198-12.025 15.719-12.025 25.219v10c0-9.5 4.3379-18.599 12.025-25.219 7.6875-6.6198 18.068-10.193 28.771-9.9121v-0.005859c6.5573 0.16667 12.969 1.7773 18.656 4.6836l184.35 94.441 184.37 94.396c10.617 5.4372 17.695 14.866 19.408 25.449 0.2662-1.6436 0.41406-3.3132 0.41406-5.002 0-12.562-7.5566-24.166-19.822-30.447l-184.37-94.396-184.35-94.441c-5.6875-2.9063-12.099-4.5169-18.656-4.6836v0.005859c-0.66894-0.017578-1.3361-0.020148-2.002-0.007813z" fill="#fff" opacity=".3" stroke-width="1.3333"/></svg>
