<svg width="512" height="512" version="1.1" viewBox="0 0 384 384" xmlns="http://www.w3.org/2000/svg"><defs><clipPath id="f"><rect width="384" height="384"/></clipPath><clipPath id="e"><rect width="384" height="384"/></clipPath></defs><path d="m353.33 174.08-143.4-143.4c-9.9011-9.9011-25.95-9.9011-35.851 0l-143.4 143.4c-9.9011 9.9011-9.9011 25.95 0 35.851l143.4 143.4c9.9011 9.897 25.95 9.897 35.851 0l143.4-143.4c9.897-9.9011 9.897-25.95 0-35.851z" fill="#0aa15c" stroke-width="1.0548"/><path transform="scale(.75)" d="m31.373 251c-1.5224 10.231 1.6508 21.024 9.5273 28.9l191.2 191.2c13.201 13.196 34.6 13.196 47.801 0l191.2-191.2c7.8733-7.8766 11.045-18.67 9.5234-28.9-1.0288 6.9163-4.2007 13.576-9.5234 18.9l-191.2 191.2c-13.2 13.196-34.599 13.196-47.801 0l-191.2-191.2c-5.3253-5.3249-8.4984-11.984-9.5273-18.9z" opacity=".3" stroke-width="1.4064"/><path transform="scale(.75)" d="m256 31c-8.65 0-17.3 3.2996-23.9 9.9004l-191.2 191.2c-7.8761 7.8761-11.049 18.67-9.5273 28.9 1.0292-6.9163 4.2024-13.575 9.5273-18.9l191.2-191.2c13.2-13.201 34.599-13.201 47.801 0l191.2 191.2c5.3227 5.3245 8.4946 11.984 9.5234 18.9 1.5218-10.231-1.6501-21.024-9.5234-28.9l-191.2-191.2c-6.6007-6.6007-15.25-9.9004-23.9-9.9004z" fill="#f8f8f8" opacity=".3" stroke-width="1.4064"/><path d="m205.15 61.515c-67.063 0-112.79 35.055-112.79 88.398 0 89.925 129.93 64.396 129.93 105.17 0 12.193-11.431 19.051-36.961 19.051-24.005 0-52.963-4.5726-79.253-15.623l-6.1758 18.27 54.823 54.823c9.3429 1.2666 18.732 1.9731 27.942 1.9731 20.227 0 37.845-0.45899 52.686-5.7034l52.848-52.848c2.2773-7.9094 3.4441-18.804 3.4441-27.945 0-97.163-130.7-67.825-130.7-107.08 0-13.336 14.86-20.577 40.771-20.577 21.338 0 44.963 3.8113 63.635 10.289l9.2353-26.55-39.45-39.45c-9.994-1.441-20.142-2.2065-29.989-2.2065z" opacity=".3" stroke-width=".7911"/><path d="m205.15 53.604c-67.063 0-112.79 35.055-112.79 88.401 0 89.925 129.93 64.396 129.93 105.17 0 12.194-11.431 19.052-36.961 19.052-24.005 0-52.964-4.5726-79.256-15.623l-8.7516 25.891 45.245 45.245c13.287 2.5019 26.877 3.9292 40.096 3.9292 24.714 0 45.539 0.48101 62.154-7.234l40.337-40.337c4.2867-10.202 6.4864-26.339 6.4864-38.925 0-97.165-130.7-67.825-130.7-107.07 0-13.336 14.86-20.576 40.771-20.576 21.339 0 44.963 3.8113 63.634 10.289l9.2352-26.549-39.45-39.45c-9.9936-1.441-20.142-2.2064-29.989-2.2064z" fill="#fff" stroke-width="1.0548"/></svg>
