<svg width="512" height="512" version="1.1" viewBox="0 0 135.47 135.47" xmlns="http://www.w3.org/2000/svg"><defs><clipPath><rect width="384" height="384"/></clipPath></defs><g transform="matrix(1.1717 0 0 1.1717 -14.801 -11.632)"><path d="m67.824 16.95c-18.455 1.2044-33.048 16.547-33.048 35.308v12.147h-2.0392c-3.429 0-6.2773 2.8491-6.2773 6.2773v41.586c0 3.4281 2.8526 6.272 6.2773 6.272h2.0392v3e-3h13.734v-3e-3h30.756v3e-3h26.839v-3e-3h2.0418c3.4247 0 6.2111-2.8478 6.2746-6.272v-41.587c0-3.4247-2.8456-6.2768-6.2746-6.2768h-2.0418v-12.147c0-15.959-10.564-29.434-25.078-33.848l-4.52e-4 -4.52e-4c-3.8179-0.94412-7.9935-1.6151-13.202-1.4589zm5.5258 13.825c10.788 1.2821 19.023 10.325 19.023 21.483v12.147l-43.862-4.51e-4v-12.147c0-8.2113 4.4563-15.284 11.109-18.958 4.4651-2.6142 9.0563-2.9083 13.73-2.525z" fill="#0ca15e" stroke-width=".85392" style="font-feature-settings:normal;font-variant-alternates:normal;font-variant-caps:normal;font-variant-east-asian:normal;font-variant-ligatures:normal;font-variant-numeric:normal;font-variant-position:normal;font-variation-settings:normal;inline-size:0;isolation:auto;mix-blend-mode:normal;shape-margin:0;shape-padding:0;text-decoration-color:#000000;text-decoration-line:none;text-decoration-style:solid;text-indent:0;text-orientation:mixed;text-transform:none;white-space:normal"/><path transform="scale(.26459)" d="m263.54 63.982c-2.3436-0.01981-4.7444 0.0063-7.2051 0.08008l-2e-3 -2e-3c-69.749 4.552-124.9 62.539-124.9 133.45v45.908l51.91-2e-3v-45.908c0-31.034 16.843-57.765 41.986-71.65 12.657-7.4102 25.58-9.8881 38.703-10.053 4.3744-0.0549 8.7715 0.1476 13.188 0.50977v2e-3c40.773 4.8456 71.896 39.022 71.896 81.193v45.908l51.9-2e-3v-45.908c0-60.316-39.927-111.24-94.781-127.93l-2e-3 -2e-3c-12.626-3.1222-26.286-5.4551-42.691-5.5938z" fill="#737680" style="font-feature-settings:normal;font-variant-alternates:normal;font-variant-caps:normal;font-variant-east-asian:normal;font-variant-ligatures:normal;font-variant-numeric:normal;font-variant-position:normal;font-variation-settings:normal;inline-size:0;isolation:auto;mix-blend-mode:normal;shape-margin:0;shape-padding:0;text-decoration-color:#000000;text-decoration-line:none;text-decoration-style:solid;text-indent:0;text-orientation:mixed;text-transform:none;white-space:normal"/><path d="m49.229 80.559c-6.965 0-11.713 3.6407-11.713 9.1813 0 9.3393 13.493 6.6886 13.493 10.923 0 1.2664-1.186 1.9787-3.8374 1.9787-2.4932 0-7.4007-0.13795-10.132-1.2856v5.2816c2.8097 1.2664 6.45 2.1779 9.8533 2.1779 7.2816 0 11.32-3.4823 11.32-8.9832 0-10.092-13.575-7.0448-13.575-11.121 0-1.3851 1.5429-2.1373 4.234-2.1373 2.2162 0 4.6713 0.3962 6.6104 1.0689l1.8994-5.4609v-5.2816c-2.0611-0.69435-5.8779 3.6582-8.1526 3.6582zm23.466 0c-6.965 0-11.714 3.6407-11.714 9.1813 0 2.693 1.1385 4.3703 2.7356 5.5221 3.9415 2.8425 10.76 2.3875 10.76 5.4009 0 1.2664-1.188 1.9787-3.8394 1.9787-2.4932 0-5.5014-0.47514-8.2319-1.6228l-1.8994 0.3372v5.2816c0.9177 0.41361 1.9421 0.76789 2.9999 1.0864 2.1812 0.65664 4.563 1.0915 6.8548 1.0915 7.2816 0 11.318-3.4823 11.318-8.9832 0-8.4168-9.4178-7.7047-12.551-9.598-0.62338-0.37668-1.0213-0.8465-1.0213-1.5229 0-1.3851 1.5423-2.1373 4.2333-2.1373 0.21713 0 0.44696 0.04799 0.66794 0.05542 2.0344 0.06891 4.1914 0.40668 5.9405 1.0135l1.9-5.4609 0.0082-5.3255c-1.8699-0.53452-6.1804 3.7021-8.1608 3.7021zm12.94 0.39651v27.464h18.205v-6.056h-11.358v-21.409z" fill="#087142" stroke-width=".85392"/><path transform="scale(.26459)" d="m263.54 63.986c-2.3437-0.01965-4.7423 0.0043-7.2031 0.07813-69.749 4.552-124.9 62.537-124.9 133.44v6.832c0-70.906 55.155-128.89 124.9-133.44 19.686-0.59054 35.466 1.9454 49.895 5.5137h4e-3c54.855 16.682 94.777 67.612 94.777 127.93v-6.832c0-60.316-39.923-111.24-94.777-127.93l-4e-3 -2e-3c-12.626-3.1222-26.285-5.4535-42.691-5.5918zm-134.49 179.43v4e-3h-5.3223c-12.96 0-23.725 10.768-23.725 23.725v6.832c0-12.956 10.765-23.725 23.725-23.725h7.707v-4e-3l269.58 2e-3v2e-3h7.7188c12.96 0 23.713 10.779 23.713 23.723v-6.832c0-12.943-10.753-23.723-23.713-23.723h-6.5508v-2e-3l-273.13-2e-3z" fill="#fff" opacity=".2" stroke-width="3.7794" style="font-feature-settings:normal;font-variant-alternates:normal;font-variant-caps:normal;font-variant-east-asian:normal;font-variant-ligatures:normal;font-variant-numeric:normal;font-variant-position:normal;font-variation-settings:normal;inline-size:0;isolation:auto;mix-blend-mode:normal;shape-margin:0;shape-padding:0;text-decoration-color:#000000;text-decoration-line:none;text-decoration-style:solid;text-indent:0;text-orientation:mixed;text-transform:none;white-space:normal"/><path d="m26.459 107.75v4.5187c0 3.4281 2.8526 6.272 6.2773 6.272h2.0392v3e-3h13.734v-3e-3h30.755v3e-3h26.839v-3e-3h2.0423c3.4247 0 6.2106-2.8478 6.2742-6.272v-4.5187c-0.0636 3.4241-2.8495 6.272-6.2742 6.272h-2.0423v3e-3h-26.839v-3e-3h-30.755v3e-3h-13.734v-3e-3h-2.0392c-3.4247 0-6.2773-2.8438-6.2773-6.272z" opacity=".3" stroke-width=".85391" style="font-feature-settings:normal;font-variant-alternates:normal;font-variant-caps:normal;font-variant-east-asian:normal;font-variant-ligatures:normal;font-variant-numeric:normal;font-variant-position:normal;font-variation-settings:normal;inline-size:0;isolation:auto;mix-blend-mode:normal;shape-margin:0;shape-padding:0;text-decoration-color:#000000;text-decoration-line:none;text-decoration-style:solid;text-indent:0;text-orientation:mixed;text-transform:none;white-space:normal"/><path d="m69.86 28.381c-3.4723 0.04356-6.892 0.69894-10.241 2.6596-6.653 3.6735-11.109 10.746-11.109 18.958v2.2594c0-8.2113 4.4563-15.284 11.109-18.958 4.4651-2.6142 9.0559-2.9083 13.73-2.525 10.788 1.2821 19.023 10.325 19.023 21.483v-2.2594c0-11.158-8.2354-20.201-19.023-21.483-1.1685-0.09582-2.3313-0.14911-3.4888-0.13459zm-43.401 81.628v2.2594c0 3.4281 2.8526 6.272 6.2773 6.272h2.0392v3e-3h13.734v-3e-3h30.755v3e-3h26.839v-3e-3h2.0423c3.4247 0 6.2106-2.8478 6.2742-6.272v-2.2594c-0.0636 3.4241-2.8495 6.272-6.2742 6.272h-2.0423v3e-3h-26.839v-3e-3h-30.755v3e-3h-13.734v-3e-3h-2.0392c-3.4247 0-6.2773-2.8438-6.2773-6.272z" opacity=".3" stroke-width=".85391" style="font-feature-settings:normal;font-variant-alternates:normal;font-variant-caps:normal;font-variant-east-asian:normal;font-variant-ligatures:normal;font-variant-numeric:normal;font-variant-position:normal;font-variation-settings:normal;inline-size:0;isolation:auto;mix-blend-mode:normal;shape-margin:0;shape-padding:0;text-decoration-color:#000000;text-decoration-line:none;text-decoration-style:solid;text-indent:0;text-orientation:mixed;text-transform:none;white-space:normal"/><path d="m49.229 80.559c-6.965 0-11.713 3.6407-11.713 9.1813 0 9.3393 13.493 6.6886 13.493 10.923 0 1.2664-1.186 1.9787-3.8374 1.9787-2.4932 0-7.4007-0.13795-10.132-1.2856v5.2816c2.8097 1.2664 6.45 2.1779 9.8533 2.1779 7.2816 0 11.32-3.4823 11.32-8.9832 0-10.092-13.575-7.0448-13.575-11.121 0-1.3851 1.5429-2.1373 4.234-2.1373 2.2162 0 4.6713 0.3962 6.6104 1.0689l1.8994-5.4609v-5.2816c-2.0611-0.69435-5.8779 3.6582-8.1526 3.6582zm23.466 0c-6.965 0-11.714 3.6407-11.714 9.1813 0 2.693 1.1385 4.3703 2.7356 5.5221 3.9415 2.8425 10.76 2.3875 10.76 5.4009 0 1.2664-1.188 1.9787-3.8394 1.9787-2.4932 0-5.5014-0.47514-8.2319-1.6228l-1.8994 0.3372v5.2816c0.9177 0.41361 1.9421 0.76789 2.9999 1.0864 2.1812 0.65664 4.563 1.0915 6.8548 1.0915 7.2816 0 11.318-3.4823 11.318-8.9832 0-8.4168-9.4178-7.7047-12.551-9.598-0.62338-0.37668-1.0213-0.8465-1.0213-1.5229 0-1.3851 1.5423-2.1373 4.2333-2.1373 0.21713 0 0.44696 0.04799 0.66794 0.05542 2.0344 0.06891 4.1914 0.40668 5.9405 1.0135l1.9-5.4609 0.0082-5.3255c-1.8699-0.53452-6.1804 3.7021-8.1608 3.7021zm12.94 0.39651v27.464h18.205v-6.056h-11.358v-21.409z" opacity=".3" stroke-width=".85392"/><path d="m49.229 75.278c-6.965 0-11.713 3.6407-11.713 9.1813 0 9.3393 13.493 6.6886 13.493 10.923 0 1.2664-1.186 1.9787-3.8374 1.9787-2.4932 0-5.5007-0.47514-8.2312-1.6228l-1.9 5.6189c2.8097 1.2664 6.45 2.1779 9.8533 2.1779 7.2816 0 11.32-3.4823 11.32-8.9832 0-10.092-13.575-7.0448-13.575-11.121 0-1.385 1.5429-2.1373 4.234-2.1373 2.2162 0 4.6713 0.3962 6.6104 1.0689l1.8994-5.4609c-2.2952-1.0289-5.3429-1.6235-8.1526-1.6235zm23.466 0c-6.965 0-11.714 3.6407-11.714 9.1813 0 2.693 1.1385 4.3703 2.7356 5.5221 3.9415 2.8425 10.76 2.3875 10.76 5.4009 0 1.2664-1.188 1.9787-3.8394 1.9787-2.4932 0-5.5014-0.47514-8.2319-1.6228l-0.96065 2.8419-0.93871 2.7769c0.9177 0.41359 1.9421 0.76788 2.9999 1.0863 2.1812 0.65664 4.563 1.0915 6.8548 1.0915 7.2816 0 11.318-3.4823 11.318-8.9832 0-8.4168-9.4178-7.7047-12.551-9.598-0.62338-0.37669-1.0213-0.8465-1.0213-1.5229 0-1.3851 1.5423-2.1373 4.2333-2.1373 0.21713 0 0.44696 0.048 0.66794 0.05542 2.0344 0.06892 4.1914 0.40667 5.9405 1.0135l1.9-5.4609c-0.67755-0.30373-1.4321-0.55626-2.2153-0.78012-1.8699-0.53452-3.957-0.8433-5.9373-0.8433zm12.94 0.39651v27.464h18.205v-6.056h-11.358v-21.409z" fill="#fff" stroke-width=".85392"/></g><g transform="matrix(-.039146 1.1279 -1.1279 -.039146 145.69 12.141)"><g transform="matrix(.97942 .20712 -.20712 .97942 -284.03 -122.77)"><path d="m331 110.57c7.6434 14.232 21.129 17.086 31.558 9.5634 1.1844-0.6838 1.5024-2.5877 2.5098-3.4426-33.967-0.0906-29.156-32.279-21.282-39.035-1.6074 0.4867-3.1873 1.1617-4.705 2.0379-10.728 6.1971-14.348 20.02-8.0806 30.876z" fill="#acc0c7" opacity=".5" stroke-width="2.6001"/><ellipse cx="351.89" cy="100.83" rx="25.27" ry="24.98" fill="#fff" opacity=".5" stroke-width="2.8949"/><path d="m429.25 139.7-37.085-25.476c-2.6391-1.8097-5.8944-2.0281-8.6427-0.87363 7.0592-14.277 2.7743-31.939-10.725-41.222-14.875-10.218-35.387-6.4612-45.728 8.3723-5.0052 7.1866-6.9058 15.876-5.3484 24.472 1.5574 8.5907 6.378 16.04 13.578 20.983 7.1944 4.9428 15.92 6.7992 24.566 5.2158 7.0384-1.287 13.328-4.7296 18.123-9.8413-0.10661 2.9563 1.2454 5.897 3.8715 7.6937l37.072 25.476c4.0925 2.8211 9.7321 1.7837 12.574-2.3011 2.8497-4.0873 1.8383-9.6775-2.2543-12.499zm-56.396-27.727c-7.2152 10.348-21.521 12.964-31.89 5.8346-10.369-7.119-12.943-21.339-5.7358-31.692 7.2152-10.346 21.526-12.961 31.893-5.8294 5.0182 3.4451 8.3775 8.6401 9.4617 14.631 1.0868 5.9906-0.23921 12.049-3.7285 17.057z" opacity=".3" stroke-width="2.6001"/><path d="m427.09 140.51-37.082-25.478c-2.6417-1.8097-5.897-2.0281-8.6427-0.87363 7.0592-14.277 2.7743-31.939-10.725-41.222-14.878-10.218-35.39-6.4586-45.728 8.3749-5.0078 7.1866-6.9058 15.876-5.3484 24.472 1.5574 8.5881 6.3806 16.037 13.578 20.983 7.1944 4.9454 15.92 6.8018 24.566 5.2132 7.041-1.287 13.331-4.727 18.125-9.8413-0.1092 2.9563 1.2454 5.8944 3.8689 7.6911l37.072 25.478c4.0951 2.8185 9.7321 1.7837 12.574-2.3011 2.8497-4.0847 1.8357-9.6775-2.2569-12.496zm-56.396-27.727c-7.2152 10.346-21.521 12.961-31.89 5.832-10.369-7.1216-12.943-21.339-5.7358-31.692 7.2152-10.343 21.526-12.961 31.893-5.8294 5.0182 3.4477 8.3775 8.6401 9.4617 14.631 1.0868 5.9932-0.23661 12.051-3.7285 17.059z" fill="#367bf0" stroke-width="2.6001"/><path d="m352.36 67.189c-10.55-0.08951-20.986 4.8559-27.448 14.127-4.1188 5.9111-6.1318 12.839-5.8508 19.895 0.25508-6.1312 2.2483-12.079 5.8508-17.249 10.338-14.834 30.851-18.593 45.728-8.3746 8.7779 6.0357 13.658 15.614 14.059 25.501 0.4378-10.8-4.4993-21.574-14.059-28.147-5.579-3.832-11.95-5.6984-18.281-5.7521zm22.395 33.952c-0.24127 4.1416-1.6208 8.1511-4.0593 11.648-7.2152 10.346-21.521 12.962-31.89 5.8322-6.0188-4.1339-9.4049-10.659-9.7825-17.431-0.46556 7.6833 2.9819 15.406 9.7825 20.077 10.369 7.1295 24.675 4.5136 31.89-5.8322 2.9549-4.2376 4.3564-9.2277 4.0593-14.294zm10.414 12.315c-0.83449-0.0248-1.6664 0.0701-2.4733 0.27131-0.38714 1.0418-0.82873 2.0715-1.3291 3.0835 2.7456-1.1544 6.0013-0.93634 8.6429 0.87334l37.082 25.479c2.1285 1.4659 3.4219 3.6822 3.7746 6.0468 0.49044-3.2737-0.86082-6.6861-3.7746-8.6927l-37.082-25.479c-1.486-1.0179-3.1663-1.5325-4.8406-1.5824z" fill="#fff" opacity=".2" stroke-width="2.6001"/></g></g></svg>
