<svg width="512" height="512" version="1.1" viewBox="0 0 384 384" xmlns="http://www.w3.org/2000/svg" xmlns:xlink="http://www.w3.org/1999/xlink"><defs><clipPath><rect width="384" height="384"/></clipPath><clipPath><rect width="384" height="384"/></clipPath><clipPath><rect width="384" height="384"/></clipPath><clipPath><rect width="384" height="384"/></clipPath><clipPath><rect width="384" height="384"/></clipPath><clipPath><rect width="384" height="384"/></clipPath><clipPath><rect width="384" height="384"/></clipPath><clipPath><rect width="384" height="384"/></clipPath><clipPath><rect width="384" height="384"/></clipPath><clipPath><rect width="384" height="384"/></clipPath><clipPath><rect width="384" height="384"/></clipPath><clipPath><rect width="384" height="384"/></clipPath><clipPath><rect width="384" height="384"/></clipPath><clipPath><rect width="384" height="384"/></clipPath><clipPath><rect width="384" height="384"/></clipPath><clipPath><rect width="384" height="384"/></clipPath><clipPath><rect width="384" height="384"/></clipPath><clipPath><rect width="384" height="384"/></clipPath><clipPath><rect width="384" height="384"/></clipPath><clipPath><rect width="384" height="384"/></clipPath><clipPath><rect width="384" height="384"/></clipPath><clipPath><rect width="384" height="384"/></clipPath><clipPath><rect width="384" height="384"/></clipPath><clipPath><rect width="384" height="384"/></clipPath><clipPath><rect width="384" height="384"/></clipPath><clipPath><rect width="384" height="384"/></clipPath><clipPath><rect width="384" height="384"/></clipPath><clipPath><rect width="384" height="384"/></clipPath><clipPath><rect width="384" height="384"/></clipPath><clipPath><rect width="384" height="384"/></clipPath><clipPath><rect width="384" height="384"/></clipPath><clipPath><rect width="384" height="384"/></clipPath><clipPath><rect width="384" height="384"/></clipPath><clipPath><rect width="384" height="384"/></clipPath><clipPath><rect width="384" height="384"/></clipPath><clipPath><rect width="384" height="384"/></clipPath><clipPath><rect width="384" height="384"/></clipPath><clipPath><rect width="384" height="384"/></clipPath><clipPath><rect width="384" height="384"/></clipPath><clipPath><rect width="384" height="384"/></clipPath><clipPath><rect width="384" height="384"/></clipPath><clipPath><rect width="384" height="384"/></clipPath><clipPath><rect width="384" height="384"/></clipPath><clipPath><rect width="384" height="384"/></clipPath><clipPath><rect width="384" height="384"/></clipPath><clipPath><rect width="384" height="384"/></clipPath><clipPath><rect width="384" height="384"/></clipPath><clipPath><rect width="384" height="384"/></clipPath><clipPath><rect width="384" height="384"/></clipPath><clipPath><rect width="384" height="384"/></clipPath><clipPath><rect width="384" height="384"/></clipPath><clipPath><rect width="384" height="384"/></clipPath><clipPath><rect width="384" height="384"/></clipPath><clipPath id="c"><path d="m111 119h177v23h-177z"/></clipPath><clipPath><path d="m368.64 199.88c0-93.234-75.602-168.75-168.75-168.75-93.152 0-168.75 75.516-168.75 168.75s75.598 168.75 168.75 168.75c93.148 0 168.75-75.516 168.75-168.75z"/></clipPath><clipPath id="b"><path d="m177 130h45v89h-45z"/></clipPath><clipPath><path d="m368.64 199.88c0-93.234-75.602-168.75-168.75-168.75-93.152 0-168.75 75.516-168.75 168.75s75.598 168.75 168.75 168.75c93.148 0 168.75-75.516 168.75-168.75z"/></clipPath><clipPath id="a"><path d="m111 207h177v89h-177z"/></clipPath><clipPath><path d="m368.64 199.88c0-93.234-75.602-168.75-168.75-168.75-93.152 0-168.75 75.516-168.75 168.75s75.598 168.75 168.75 168.75c93.148 0 168.75-75.516 168.75-168.75z"/></clipPath><clipPath id="d"><rect width="384" height="384"/></clipPath><g clip-path="url(#d)"><g clip-path="url(#c)"></g><g clip-path="url(#b)"></g><g clip-path="url(#a)"></g></g><clipPath><rect width="384" height="384"/></clipPath><clipPath><rect width="384" height="384"/></clipPath><clipPath><rect width="384" height="384"/></clipPath><clipPath><rect width="384" height="384"/></clipPath><clipPath><rect width="384" height="384"/></clipPath><clipPath><rect width="384" height="384"/></clipPath><clipPath><rect width="384" height="384"/></clipPath><clipPath><rect width="384" height="384"/></clipPath><clipPath><rect width="384" height="384"/></clipPath><clipPath><rect width="384" height="384"/></clipPath><clipPath><rect width="384" height="384"/></clipPath></defs><path d="m191.99 23.25-27.018 28.384-37.555-15.555-5e-3 0.01268-16.196 39.081h-36.055l-1.3516 36.617-37.732 15.639 15.153 36.588-27.981 27.984 27.983 27.983-15.154 36.59 37.737 15.641 1.3516 36.601h36.043l16.203 39.094 37.56-15.555 27.026 28.396 27.019-28.388 37.541 15.547 16.202-39.089h36.059l1.3611-36.615 37.715-15.631-15.14-36.573 27.999-28-28.414-27.042 15.543-37.553-39.06-16.189v-36.045h-36.058l-16.207-39.094-37.545 15.549-27.015-28.377z" fill="#ffc72e" stroke-width="1.0817"/><g><g stroke-width="1.0817"><path d="m321.79 200.11c0-71.688-58.116-129.8-129.8-129.8-71.688 0-129.8 58.116-129.8 129.8 0 71.688 58.116 129.8 129.8 129.8 71.688 0 129.8-58.116 129.8-129.8z" fill="#040000" opacity=".3"/><path d="m345.01 126.22-12.676 30.629 2.4085 2.2928 13.134-31.733zm-306.07 0.0222-2.868 1.1884 12.778 30.852 2.3752-2.3768zm-11.64 61.705-4.0564 4.0564 25.606 25.606 2.3768-5.736zm329.29 0.0998-23.842 23.844 2.3752 5.7376 25.623-25.625zm-317.65 61.605-2.868 6.9244 37.737 15.641 1.3516 36.601h36.043l16.203 39.094 37.56-15.555 27.026 28.396 27.019-28.388 37.541 15.547 16.202-39.089h36.059l1.3611-36.615 37.715-15.631-2.8664-6.9244-34.849 14.443-1.3611 36.615h-36.059l-16.202 39.089-37.541-15.547-27.019 28.388-27.026-28.396-37.56 15.555-16.203-39.093h-36.043l-1.3516-36.601z" opacity=".3"/><path d="m191.99 23.25-27.018 28.384-37.555-15.555-5e-3 0.01268-16.197 39.081h-36.054l-1.3516 36.617-37.732 15.639 2.868 6.9244 34.864-14.451 1.3516-36.617h36.054l16.197-39.081v-0.01268l37.555 15.555 27.018-28.384h0.0127l27.015 28.377 37.545-15.549 16.207 39.094h36.058v-8.1128h-36.058l-16.207-39.094-37.545 15.549-27.015-28.377zm116.83 87.967v8.1128l36.194 15.001 2.8664-6.9244zm-259.97 55.176-25.606 25.608 4.0564 4.0564 23.925-23.928zm285.89 0.85882-2.4085 5.82 24.258 23.085 4.1562-4.1562zm-285.89 58.468-12.778 30.854 2.868 1.1884 12.286-29.666zm286.28 0.019-2.3752 2.3752 12.274 29.648 2.8664-1.1884z" fill="#fff" opacity=".3"/><path d="m321.79 192c0-71.688-58.116-129.8-129.8-129.8-71.688 0-129.8 58.116-129.8 129.8 0 71.688 58.116 129.8 129.8 129.8 71.688 0 129.8-58.116 129.8-129.8z" fill="#5e4530"/></g><path transform="scale(.75)" d="m255.98 82.922c-95.584 0-173.07 77.488-173.07 173.07 0 1.6729 0.029021 3.3385 0.076172 5 2.647-93.271 79.085-168.07 173-168.07 93.912 0 170.35 74.801 173 168.07 0.04715-1.6615 0.07617-3.3271 0.07617-5 0-95.584-77.49-173.07-173.07-173.07z" fill="#fff" opacity=".1" stroke-width="1.4423"/></g></svg>
