<svg width="512" height="512" version="1.1" viewBox="0 0 384 384" xmlns="http://www.w3.org/2000/svg"><defs><clipPath><rect width="384" height="384"/></clipPath><clipPath><rect width="384" height="384"/></clipPath><clipPath><rect width="384" height="384"/></clipPath><clipPath><rect width="384" height="384"/></clipPath><clipPath><rect width="384" height="384"/></clipPath><clipPath><rect width="384" height="384"/></clipPath></defs><path d="m331.2 326.95c-0.0274 24.656-6.1289 32.875-83.645 32.875-22.035 0-48.863 1.9375-62.984-6.9219-13.336-8.3633-8.5273-20.637-8.5273-33.125 0-25.719 25.199-43.773 68.043-43.773 42.848 0 87.145 25.199 87.113 50.945z" fill="#fd7d00"/><path transform="scale(.75)" d="m325.45 368c-57.125 0-90.723 24.074-90.723 58.365 0 8.5969-1.702 17.115-0.9082 24.881 0.32638-4.8446 0.9082-9.8478 0.9082-14.881 0-34.292 33.598-58.365 90.723-58.365 55.316 0 112.44 31.499 115.98 64.66 0.11834-2.1383 0.17121-4.3723 0.17383-6.7324 0.04167-34.328-59.022-67.928-116.15-67.928z" fill="#fff" opacity=".3" stroke-width="1.3333"/><path d="m192 24c-86.156 0-156 69.844-156 156s69.844 156 156 156 156-69.844 156-156-69.844-156-156-156z" fill="#ffc72e"/><path transform="scale(.75)" d="m441.43 432.66c-1.53 27.646-15.419 37.1-111.35 37.1-29.38 0-65.15 2.584-83.979-9.2285-8.6008-5.3938-11.534-12.009-12.277-19.285-0.75342 11.183-0.12928 21.505 12.277 29.285 18.828 11.812 54.598 9.2285 83.979 9.2285 103.35 0 111.49-10.957 111.53-43.832 0.00132-1.0903-0.05786-2.1798-0.17383-3.2676z" opacity=".3" stroke-width="1.3333"/><path transform="scale(.75)" d="m48.064 235c-0.039214 1.6621-0.064453 3.3285-0.064453 5 0 114.88 93.125 208 208 208s208-93.125 208-208c0-1.6715-0.02524-3.3379-0.06445-5-2.6558 112.56-94.732 203-207.94 203-113.2 0-205.28-90.435-207.94-203z" opacity=".3" stroke-width="1.3333"/><path d="m204 326.95c-0.0312 24.656-6.1289 32.875-83.645 32.875-22.039 0-48.863 1.9375-62.984-6.9219-13.336-8.3633-8.5273-20.637-8.5273-33.125 0-25.719 25.199-43.773 68.043-43.773 42.848 0 87.145 25.199 87.113 50.945z" fill="#fd7d00"/><path d="m192 163.5c0-19.883-10.746-36-24-36s-24 16.117-24 36 10.746 36 24 36 24-16.117 24-36z" opacity=".3"/><path d="m192 156c0-19.883-10.746-36-24-36s-24 16.117-24 36 10.746 36 24 36 24-16.117 24-36z" fill="#4a4a4a"/><path d="m264 163.5c0-19.883-10.746-36-24-36s-24 16.117-24 36 10.746 36 24 36 24-16.117 24-36z" opacity=".3"/><path d="m264 156c0-19.883-10.746-36-24-36s-24 16.117-24 36 10.746 36 24 36 24-16.117 24-36z" fill="#4a4a4a"/><g stroke-width="1.3333"><path transform="scale(.75)" d="m256 32c-114.87 0-208 93.125-208 208 0 1.6715 0.025239 3.3379 0.064453 5 2.6558-112.56 94.732-203 207.94-203 113.2 0 205.28 90.435 207.94 203 0.03921-1.6621 0.06445-3.3285 0.06445-5 0-114.87-93.125-208-208-208z" fill="#fff" opacity=".3"/><path transform="scale(.75)" d="m271.83 432.66c-1.5335 27.646-15.417 37.1-111.35 37.1-29.385 0-65.152 2.584-83.98-9.2285-8.6032-5.3952-11.535-12.013-12.277-19.291-0.75402 11.185-0.13142 21.509 12.277 29.291 18.828 11.812 54.595 9.2285 83.98 9.2285 103.35 0 111.48-10.957 111.53-43.832 0.00132-1.0903-0.05786-2.1798-0.17383-3.2676z" opacity=".3"/><path transform="scale(.75)" d="m155.85 368c-57.125 0-90.725 24.074-90.725 58.365 0 8.5947-1.7005 17.111-0.9082 24.875 0.32646-4.8428 0.9082-9.844 0.9082-14.875 0-34.292 33.6-58.365 90.725-58.365 55.316 0 112.44 31.499 115.98 64.66 0.1186-2.1383 0.17084-4.3723 0.17383-6.7324 0.04165-34.328-59.02-67.928-116.15-67.928z" fill="#fff" opacity=".3"/></g></svg>
