<svg xmlns="http://www.w3.org/2000/svg" xmlns:xlink="http://www.w3.org/1999/xlink" width="512" height="512" version="1.1" viewBox="0 0 384 384"> <defs> <filter id="alpha" width="100%" height="100%" x="0%" y="0%" filterUnits="objectBoundingBox"> <feColorMatrix in="SourceGraphic" type="matrix" values="0 0 0 0 1 0 0 0 0 1 0 0 0 0 1 0 0 0 1 0"/> </filter> <mask id="mask0"> <g filter="url(#alpha)"> <rect width="384" height="384" x="0" y="0" style="fill:rgb(0%,0%,0%);fill-opacity:0.0509804"/> </g> </mask> <clipPath id="clip1"> <rect width="384" height="384" x="0" y="0"/> </clipPath> <g id="surface5" clip-path="url(#clip1)"> <path style="fill:rgb(0%,0%,0%)" d="M 283.914062 43.589844 C 329.242188 75.019531 358.867188 127.386719 358.867188 186.722656 C 358.867188 282.859375 280.957031 360.800781 184.789062 360.800781 C 125.457031 360.800781 73.085938 331.183594 41.65625 285.847656 C 49.679688 299.941406 59.5 312.917969 70.910156 324.289062 C 102.515625 353.007812 144.519531 370.472656 190.589844 370.472656 C 288.871094 370.472656 368.539062 290.796875 368.539062 192.523438 C 368.539062 146.460938 351.085938 104.449219 322.355469 72.84375 C 310.992188 61.433594 298.007812 51.613281 283.914062 43.589844 Z M 322.355469 72.84375 C 352.175781 104.664062 370.472656 147.402344 370.472656 194.457031 C 370.472656 292.738281 290.804688 372.40625 192.527344 372.40625 C 145.476562 372.40625 102.730469 354.117188 70.910156 324.289062 C 103.097656 356.351562 147.375 376.273438 196.394531 376.273438 C 294.675781 376.273438 374.339844 296.601562 374.339844 198.328125 C 374.339844 149.3125 354.417969 105.019531 322.355469 72.84375 Z M 322.355469 72.84375"/> </g> <mask id="mask1"> <g filter="url(#alpha)"> <rect width="384" height="384" x="0" y="0" style="fill:rgb(0%,0%,0%);fill-opacity:0.101961"/> </g> </mask> <clipPath id="clip2"> <rect width="384" height="384" x="0" y="0"/> </clipPath> <g id="surface8" clip-path="url(#clip2)"> <path style="fill:rgb(0%,0%,0%)" d="M 322.363281 72.84375 C 351.085938 104.449219 368.546875 146.453125 368.546875 192.523438 C 368.546875 290.804688 288.878906 370.472656 190.597656 370.472656 C 144.535156 370.472656 102.523438 353.015625 70.917969 324.289062 C 102.738281 354.109375 145.476562 372.40625 192.535156 372.40625 C 290.8125 372.40625 370.480469 292.730469 370.480469 194.457031 C 370.480469 147.410156 352.191406 104.664062 322.363281 72.84375 Z M 322.363281 72.84375"/> </g> <mask id="mask2"> <g filter="url(#alpha)"> <rect width="384" height="384" x="0" y="0" style="fill:rgb(0%,0%,0%);fill-opacity:0.2"/> </g> </mask> <clipPath id="clip3"> <rect width="384" height="384" x="0" y="0"/> </clipPath> <g id="surface11" clip-path="url(#clip3)"> <path style="fill:rgb(0%,0%,0%)" d="M 244.765625 23.28125 C 311.417969 47.683594 358.882812 111.613281 358.882812 186.761719 C 358.882812 282.898438 280.972656 360.839844 184.804688 360.839844 C 109.695312 360.839844 45.765625 313.375 21.402344 246.722656 C 48.394531 329.828125 131.734375 381.042969 218.074219 367.574219 C 304.410156 354.109375 368.195312 279.945312 368.59375 192.5625 C 368.480469 115.246094 318.453125 46.851562 244.804688 23.320312 Z M 244.765625 23.28125"/> </g> <linearGradient id="linear0" x1="0" x2="0" y1="47" y2="1" gradientTransform="matrix(7.736825,0,0,7.736825,2.988995,4.906583)" gradientUnits="userSpaceOnUse"> <stop offset="0" style="stop-color:rgb(100.000%,78.039%,18.823%)"/> <stop offset="1" style="stop-color:rgb(100.000%,78.039%,18.823%)"/> </linearGradient> <clipPath id="clip4"> <path d="M 36 33 L 342 33 L 342 327 L 36 327 Z M 36 33"/> </clipPath> <clipPath id="clip5"> <path d="M 469.988281 180.445312 C 469.988281 335.621094 344.164062 461.304688 189.128906 461.304688 C 34.09375 461.304688 -91.734375 335.621094 -91.734375 180.445312 C -91.734375 25.269531 34.09375 -100.417969 189.128906 -100.417969 C 344.164062 -100.417969 469.988281 25.269531 469.988281 180.445312 Z M 469.988281 180.445312"/> </clipPath> </defs> <g> <use mask="url(#mask0)" xlink:href="#surface5"/> <use mask="url(#mask1)" xlink:href="#surface8"/> <use mask="url(#mask2)" xlink:href="#surface11"/> <path style="fill:url(#linear0)" d="M 188.671875 12.644531 C 286.953125 12.644531 366.621094 92.308594 366.621094 190.589844 C 366.621094 288.871094 286.953125 368.539062 188.671875 368.539062 C 90.390625 368.539062 10.726562 288.871094 10.726562 190.589844 C 10.726562 92.308594 90.390625 12.644531 188.671875 12.644531 Z M 188.671875 12.644531"/> <g clip-path="url(#clip4)"> <g clip-path="url(#clip5)"> <path style="fill:rgb(6.666%,17.647%,36.078%)" d="M 186.453125 33.90625 C 163.226562 34.433594 137.890625 41.636719 110.132812 57.953125 L 164.707031 148.390625 C 182.742188 138.082031 199.140625 140.035156 215.078125 148.390625 L 268.5 57.953125 C 243.027344 43.359375 216.324219 33.199219 186.453125 33.90625 M 189.507812 161.371094 C 173.523438 161.371094 160.503906 174.730469 160.503906 191.140625 C 160.503906 207.554688 173.523438 220.914062 189.507812 220.914062 C 205.492188 220.914062 218.507812 207.554688 218.507812 191.140625 C 218.507812 174.730469 205.492188 161.371094 189.507812 161.371094 M 36.484375 183.886719 C 35.863281 246.042969 59.859375 292.738281 108.605469 323.941406 L 163.9375 233.878906 C 147 221.71875 141.46875 206.074219 141.796875 187.710938 M 341.757812 185.035156 L 237.960938 188.859375 C 237.679688 210.082031 228.132812 223.488281 213.160156 233.503906 L 266.207031 326.992188 C 330.511719 285.535156 342.003906 236.078125 341.769531 185.035156 M 341.769531 185.035156"/> </g> </g> </g> </svg>
