<svg xmlns="http://www.w3.org/2000/svg" width="36pt" height="36pt" version="1.1" viewBox="0 0 36 36"> <g transform="matrix(0.08888869,0,0,0.08888869,0.93332761,0.93342419)"> <path style="fill:rgb(90.196%,90.196%,90.196%)" d="m 177.625,360.38281 c -36.92188,-2.53125 -66.98047,-12.61328 -79.96875,-26.82422 -4.625,-5.0625 -5.875,-7.76953 -7.246094,-15.6914 C 86.628906,296.01172 49.464844,96.070312 48.496094,92.351562 41.839844,66.863281 68.988281,43.78125 120.49219,31.132812 c 11.79297,-2.894531 29.71484,-5.761718 43.9375,-7.03125 12.76562,-1.136718 42.40234,-1.136718 55.17187,0 62.30469,5.554688 108.94141,27.03125 115.96875,53.402344 1.35938,5.09375 1.24219,8.984375 -0.47656,16.027344 -1.85547,7.61719 -41.92578,224.8125 -41.92578,227.26562 0,0.9961 -1.01563,3.83985 -2.25781,6.32422 -6.29297,12.59766 -27.40235,23.76172 -55.91016,29.57032 -15.86719,3.23437 -40.72266,4.83203 -57.375,3.6914 z m 0,0"/> <path style="fill:rgb(80.000%,80.000%,80.000%)" d="M 175.39844,128.16406 C 130.46484,125.92578 88.945312,113.48047 71.015625,96.882812 66.464844,92.667969 62.839844,86.660156 62.851562,83.355469 62.871094,77.761719 69.75,69.40625 79.394531,63.25 120.67969,36.898438 206.11719,29.882812 268.74609,47.699219 c 21.63282,6.152343 37.98047,14.539062 47.01172,24.113281 6.10156,6.472656 7.25391,10.582031 4.60156,16.425781 -6.23437,13.730469 -33.99218,27.710939 -68.92187,34.710939 -14.05859,2.81641 -27.44141,4.41406 -44.02344,5.25781 -14.51562,0.74219 -16.35547,0.73828 -32.01562,-0.043 z m 0,0"/> </g> </svg>
