<svg xmlns="http://www.w3.org/2000/svg" width="12pt" height="12pt" version="1.1" viewBox="0 0 12 12">
 <g>
  <path style="fill:rgb(19.215686%,21.176471%,23.137255%)" d="M 3.453125 2.515625 C 3.207031 2.539062 3.035156 2.757812 2.984375 2.984375 C 2.839844 3.433594 2.691406 3.882812 2.546875 4.328125 L 2.5 4.515625 L 2.5 8.515625 C 2.5 8.792969 2.726562 9.015625 3 9.015625 L 9 9.015625 C 9.277344 9.015625 9.5 8.792969 9.5 8.515625 L 9.5 4.515625 L 9.4375 4.28125 C 9.269531 3.789062 9.117188 3.273438 8.9375 2.78125 C 8.832031 2.5625 8.589844 2.496094 8.359375 2.515625 Z M 3.863281 3.515625 L 8.132812 3.515625 C 8.183594 3.679688 8.242188 3.851562 8.296875 4.015625 L 3.703125 4.015625 C 3.753906 3.851562 3.808594 3.6875 3.863281 3.515625 Z M 5.5 5.015625 L 6.5 5.015625 L 6.5 6.515625 L 7.375 6.515625 L 6 8.015625 L 4.625 6.515625 L 5.5 6.515625 Z M 5.5 5.015625"/>
 </g>
</svg>
