<svg xmlns="http://www.w3.org/2000/svg" width="12pt" height="12pt" version="1.1" viewBox="0 0 12 12">
 <g>
  <path style="fill:rgb(19.215686%,21.176471%,23.137255%)" d="M 6 2 L 4.75 4 L 5.5 4 L 5.5 6.5 L 4 6.5 L 4 5.863281 C 4.308594 5.6875 4.5 5.355469 4.5 5 C 4.5 4.449219 4.050781 4 3.5 4 C 2.949219 4 2.5 4.449219 2.5 5 C 2.5 5.355469 2.691406 5.6875 3 5.867188 L 3 6.5 C 3 7.5 4 7.5 4 7.5 L 5.5 7.5 L 5.5 8.136719 C 5.191406 8.3125 5 8.644531 5 9 C 5 9.550781 5.449219 10 6 10 C 6.550781 10 7 9.550781 7 9 C 7 8.644531 6.808594 8.3125 6.5 8.132812 L 6.5 7.5 L 8 7.5 C 8 7.5 9 7.5 9 6.5 L 9 6 C 9 6 9.5625 5.90625 9.5 5.5 L 9.5 4.5 C 9.5625 3.9375 9 4 9 4 L 8 4 C 7.46875 4 7.5 4.5 7.5 4.5 L 7.5 5.5 C 7.5 6 8 6 8 6 L 8 6.5 L 6.5 6.5 L 6.5 4 L 7.25 4 Z M 6 2"/>
 </g>
</svg>
