<svg xmlns="http://www.w3.org/2000/svg" width="16" height="16" version="1.1" viewBox="0 0 16 16">
 <defs>
  <style id="current-color-scheme" type="text/css">
   .ColorScheme-Text { color:#5c616c; } .ColorScheme-Highlight { color:#5294e2; }
  </style>
 </defs>
 <path style="color:#5c616c;fill:currentColor" class="ColorScheme-Text" d="M 2.0028655,-0.0043394 V 6.6633694 H 0.67062608 V 7.9930045 H 0.33724063 0.0038552 V 8.6597754 H 0.33724063 0.67062608 V 9.9972237 H 1.6981304 C 1.5504207,10.970376 1.4046641,11.934851 1.2227957,12.784118 0.95686749,14.025779 0.58065742,15.009257 0.11975872,15.404319 A 0.33323208,0.33330543 0 0 0 -5.1668292e-5,15.668683 0.33323208,0.33330543 0 0 0 0.55342025,15.910909 C 1.2588638,15.306147 1.5997984,14.209663 1.8752414,12.923462 2.0704053,12.011987 2.2205579,11.003381 2.372715,9.9972237 H 4.0031781 V 8.6597754 H 6.0034908 V 9.9972237 H 6.963276 c 4.374e-4,0.00267 8.668e-4,0.00513 0.00133,0.00781 0.2309768,1.40682 0.5326059,2.818874 1.1225714,3.938116 0.5899656,1.119241 1.52233,1.955913 2.8910776,2.047194 0.543392,0.03601 1.027409,-0.165227 1.384331,-0.522217 0.356876,-0.356989 0.604098,-0.849762 0.798301,-1.43512 0.358723,-1.080169 0.532594,-2.49888 0.673283,-4.0357869 h 1.501505 V 8.659776 h 0.664166 V 8.3263906 7.9930052 H 15.66646 15.335678 V 6.6633694 h -1.211126 c 0.06917,-0.7395156 0.145923,-1.4708653 0.250039,-2.1683077 A 0.33323208,0.33330543 0 0 0 14.002137,4.1056779 v -4.1100173 h -0.666771 v 1.6669272 5.0007816 h -1.33224 V 7.9930045 H 9.3360428 V 6.6633694 H 8.002501 V 1.6625878 -0.0043394 H 7.3357302 V 1.6625878 6.6633694 H 7.1091321 C 7.0637917,6.4269991 7.0185559,6.1913247 6.965881,5.9731574 6.829193,5.4068022 6.663669,4.9075741 6.4254318,4.5041778 6.1872611,4.1007814 5.8555614,3.780598 5.4161594,3.6707142 4.8580055,3.5312256 4.3405642,3.5985112 3.9198318,3.842616 3.4990993,4.0867875 3.1825645,4.4847789 2.9287915,4.9651873 2.8324431,5.1475491 2.7507157,5.3538334 2.6696364,5.5603324 V 1.6625878 -0.0043394 Z M 2.6696364,1.6625878 4.0031781,2.6835807 V 1.9959732 H 6.0034908 V 2.6627441 L 7.3357302,1.6625878 6.0034908,0.66243147 V 1.3292023 H 4.0031781 V 0.68326806 Z m 5.3328646,0 1.3335418,1.0209929 V 1.9959732 h 2.6670832 v 0.6667709 l 1.33224,-1.0001563 -1.33224,-1.00015633 V 1.3292023 H 9.3360428 V 0.68326806 Z M 4.9577545,4.2671615 c 0.092548,0.00778 0.1906648,0.024235 0.2969214,0.050789 0.2270954,0.056675 0.4155011,0.21624 0.5977496,0.5248215 0.1822419,0.3086484 0.3375653,0.754443 0.4662187,1.2866595 0.04014,0.1658258 0.074755,0.3528426 0.1106944,0.5339376 H 6.0034908 V 7.9930045 H 4.0031781 V 6.6633694 H 3.0108356 C 3.1562583,6.1298193 3.3208299,5.6512258 3.5187275,5.2764339 3.7356947,4.865703 3.9826104,4.5772871 4.2545195,4.4195291 4.4584181,4.3011106 4.6801111,4.2438245 4.9577545,4.2671615 Z m 4.3782883,4.3926139 h 2.6670832 v 1.3374483 h 1.160338 c -0.139462,1.4994343 -0.315517,2.8653683 -0.634213,3.8261183 -0.175121,0.527883 -0.393417,0.92859 -0.638122,1.173361 -0.244704,0.244838 -0.49768,0.352847 -0.868625,0.328176 C 9.8919944,15.249534 9.2000655,14.627897 8.6757836,13.633209 8.1643703,12.663057 7.8658337,11.346101 7.6404651,9.9972237 h 1.6955777 z"/>
</svg>
