<svg xmlns="http://www.w3.org/2000/svg" width="12pt" height="12pt" version="1.1" viewBox="0 0 12 12">
 <g>
  <path style="fill:rgb(19.215686%,21.176471%,23.137255%)" d="M 2.5 2.5 L 2.5 3.589844 C 5.761719 3.589844 8.410156 6.234375 8.410156 9.5 L 9.5 9.5 C 9.5 5.632812 6.363281 2.5 2.5 2.5 Z M 2.5 4.679688 L 2.5 5.773438 C 4.558594 5.773438 6.226562 7.441406 6.226562 9.5 L 7.320312 9.5 C 7.320312 6.839844 5.160156 4.679688 2.5 4.679688 Z M 3.546875 7.410156 C 2.96875 7.410156 2.5 7.878906 2.5 8.457031 C 2.5 9.03125 2.96875 9.5 3.546875 9.5 C 4.121094 9.5 4.589844 9.03125 4.589844 8.457031 C 4.589844 7.878906 4.121094 7.410156 3.546875 7.410156 Z M 3.546875 7.410156"/>
 </g>
</svg>
