<svg xmlns="http://www.w3.org/2000/svg" width="12pt" height="12pt" version="1.1" viewBox="0 0 12 12">
 <g>
  <path style="fill:rgb(19.215686%,21.176471%,23.137255%)" d="M 7.539062 2.5 C 6.632812 2.5 5.898438 3.289062 5.898438 4.265625 C 5.898438 4.40625 5.914062 4.539062 5.941406 4.671875 C 4.578125 4.597656 3.367188 3.890625 2.554688 2.824219 C 2.414062 3.085938 2.335938 3.386719 2.335938 3.710938 C 2.335938 4.324219 2.625 4.867188 3.0625 5.183594 C 2.796875 5.171875 2.542969 5.09375 2.320312 4.960938 C 2.320312 4.96875 2.320312 4.976562 2.320312 4.984375 C 2.320312 5.839844 2.886719 6.554688 3.636719 6.71875 C 3.5 6.757812 3.355469 6.777344 3.203125 6.777344 C 3.097656 6.777344 2.996094 6.769531 2.898438 6.746094 C 3.105469 7.449219 3.710938 7.960938 4.429688 7.972656 C 3.867188 8.449219 3.160156 8.730469 2.390625 8.730469 C 2.257812 8.730469 2.128906 8.722656 2 8.707031 C 2.726562 9.207031 3.589844 9.5 4.515625 9.5 C 7.535156 9.5 9.1875 6.808594 9.1875 4.472656 C 9.1875 4.394531 9.183594 4.320312 9.179688 4.242188 C 9.503906 3.992188 9.78125 3.683594 10 3.328125 C 9.707031 3.46875 9.390625 3.5625 9.058594 3.605469 C 9.394531 3.386719 9.65625 3.042969 9.78125 2.628906 C 9.460938 2.832031 9.109375 2.976562 8.738281 3.058594 C 8.4375 2.714844 8.011719 2.5 7.539062 2.5 Z M 7.539062 2.5"/>
 </g>
</svg>
