<svg xmlns="http://www.w3.org/2000/svg" width="12pt" height="12pt" version="1.1" viewBox="0 0 12 12">
 <g>
  <path style="fill:rgb(19.215686%,21.176471%,23.137255%)" d="M 3.125 4 C 3.054688 4 3 4.058594 3 4.125 L 3 4.875 C 3 4.945312 3.054688 5 3.125 5 L 3.875 5 C 3.945312 5 4 4.945312 4 4.875 L 4 4.125 C 4 4.058594 3.945312 4 3.875 4 Z M 4.625 4 C 4.554688 4 4.5 4.058594 4.5 4.125 L 4.5 4.875 C 4.5 4.945312 4.554688 5 4.625 5 L 5.375 5 C 5.445312 5 5.5 4.945312 5.5 4.875 L 5.5 4.125 C 5.5 4.058594 5.445312 4 5.375 4 Z M 6.125 4 C 6.054688 4 6 4.058594 6 4.125 L 6 4.875 C 6 4.945312 6.054688 5 6.125 5 L 6.875 5 C 6.945312 5 7 4.945312 7 4.875 L 7 4.125 C 7 4.058594 6.945312 4 6.875 4 Z M 7.625 4 C 7.554688 4 7.5 4.058594 7.5 4.125 L 7.5 4.875 C 7.5 4.945312 7.554688 5 7.625 5 L 8.375 5 C 8.445312 5 8.5 4.945312 8.5 4.875 L 8.5 4.125 C 8.5 4.058594 8.445312 4 8.375 4 Z M 3.125 5.5 C 3.054688 5.503906 3 5.558594 3 5.625 L 3 6.375 C 3 6.445312 3.054688 6.5 3.125 6.5 L 3.875 6.5 C 3.945312 6.5 4 6.445312 4 6.375 L 4 5.625 C 4 5.558594 3.945312 5.5 3.875 5.5 Z M 4.625 5.5 C 4.554688 5.503906 4.5 5.558594 4.5 5.625 L 4.5 6.375 C 4.5 6.445312 4.554688 6.5 4.625 6.5 L 5.375 6.5 C 5.445312 6.5 5.5 6.445312 5.5 6.375 L 5.5 5.625 C 5.5 5.558594 5.445312 5.5 5.375 5.5 Z M 6.125 5.5 C 6.054688 5.503906 6 5.558594 6 5.625 L 6 6.375 C 6 6.445312 6.054688 6.5 6.125 6.5 L 6.875 6.5 C 6.945312 6.5 7 6.445312 7 6.375 L 7 5.625 C 7 5.558594 6.945312 5.5 6.875 5.5 Z M 7.625 5.5 C 7.554688 5.503906 7.5 5.558594 7.5 5.625 L 7.5 6.375 C 7.5 6.445312 7.554688 6.5 7.625 6.5 L 8.375 6.5 C 8.445312 6.5 8.5 6.445312 8.5 6.375 L 8.5 5.625 C 8.5 5.558594 8.445312 5.5 8.375 5.5 Z M 3.125 7 C 3.054688 7 3 7.058594 3 7.125 L 3 7.875 C 3 7.945312 3.054688 8 3.125 8 L 3.875 8 C 3.945312 8 4 7.945312 4 7.875 L 4 7.125 C 4 7.058594 3.945312 7 3.875 7 Z M 4.625 7 C 4.554688 7 4.5 7.058594 4.5 7.125 L 4.5 7.875 C 4.5 7.945312 4.554688 8 4.625 8 L 5.375 8 C 5.445312 8 5.5 7.945312 5.5 7.875 L 5.5 7.125 C 5.5 7.058594 5.445312 7 5.375 7 Z M 6.125 7 C 6.054688 7 6 7.058594 6 7.125 L 6 7.875 C 6 7.945312 6.054688 8 6.125 8 L 6.875 8 C 6.945312 8 7 7.945312 7 7.875 L 7 7.125 C 7 7.058594 6.945312 7 6.875 7 Z M 7.625 7 C 7.554688 7 7.5 7.058594 7.5 7.125 L 7.5 7.875 C 7.5 7.945312 7.554688 8 7.625 8 L 8.375 8 C 8.445312 8 8.5 7.945312 8.5 7.875 L 8.5 7.125 C 8.5 7.058594 8.445312 7 8.375 7 Z M 7.625 7"/>
 </g>
</svg>
