<svg xmlns="http://www.w3.org/2000/svg" width="12pt" height="12pt" version="1.1" viewBox="0 0 12 12">
 <g>
  <path style="fill:rgb(19.215686%,21.176471%,23.137255%)" d="M 2 2.5 L 2 9.5 C 3.5 9.496094 5 9.496094 6.5 9.5 L 6.5 6.5 L 10 6.5 L 10 2.5 C 7.332031 2.503906 4.667969 2.5 2 2.5 Z M 6.5 3.5 L 9.5 3.5 L 9.5 4 L 6.5 4 Z M 3.75 4 C 4.164062 4 4.5 4.332031 4.5 4.75 L 4.5 5.5 L 5 5.5 L 5 7 L 2.5 7 L 2.5 5.5 L 3 5.5 L 3 4.75 C 3 4.332031 3.335938 4 3.75 4 Z M 3.75 4.5 C 3.613281 4.5 3.5 4.609375 3.5 4.75 L 3.5 5.5 L 4 5.5 L 4 4.75 C 4 4.609375 3.886719 4.5 3.75 4.5 Z M 6.5 5 L 9.5 5 L 9.5 5.5 L 6.5 5.5 Z M 8 7 L 8 7.292969 L 7.792969 7.085938 L 7.085938 7.792969 L 7.292969 8 L 7 8 L 7 9 L 7.292969 9 L 7.085938 9.207031 L 7.792969 9.914062 L 8 9.707031 L 8 10 L 9 10 L 9 9.707031 L 9.207031 9.914062 L 9.914062 9.207031 L 9.707031 9 L 10 9 L 10 8 L 9.707031 8 L 9.914062 7.792969 L 9.207031 7.085938 L 9 7.292969 L 9 7 Z M 8.5 8 C 8.777344 8 9 8.222656 9 8.5 C 9 8.777344 8.777344 9 8.5 9 C 8.222656 9 8 8.777344 8 8.5 C 8 8.222656 8.222656 8 8.5 8 Z M 8.5 8"/>
 </g>
</svg>
