<?xml version="1.0" encoding="UTF-8" standalone="no"?>
<!-- Created with Inkscape (http://www.inkscape.org/) -->
<svg id="svg7384" xmlns:rdf="http://www.w3.org/1999/02/22-rdf-syntax-ns#" style="enable-background:new" xmlns="http://www.w3.org/2000/svg" xmlns:osb="http://www.openswatchbook.org/uri/2009/osb" height="16" width="16" version="1.1" xmlns:cc="http://creativecommons.org/ns#" xmlns:dc="http://purl.org/dc/elements/1.1/">
 <metadata id="metadata90">
  <rdf:RDF>
   <cc:Work rdf:about="">
    <dc:format>image/svg+xml</dc:format>
    <dc:type rdf:resource="http://purl.org/dc/dcmitype/StillImage"/>
    <dc:title>Paper Symbolic Icon Theme</dc:title>
   </cc:Work>
  </rdf:RDF>
 </metadata>
 <title id="title8473">Paper Symbolic Icon Theme</title>
 <defs id="defs7386">
  <filter id="filter7554" color-interpolation-filters="sRGB">
   <feBlend id="feBlend7556" in2="BackgroundImage" mode="darken"/>
  </filter>
 </defs>
 <g id="layer12" transform="translate(-445.03 37.938)">
  <path id="path8974" style="block-progression:tb;text-indent:0;color:#000000;enable-background:accumulate;text-transform:none;fill:#555" d="m450.25-36.938-0.3125 0.28125-3.625 3.625-0.28125 0.3125v0.40625 4.75 0.40625l0.28125 0.3125 3.625 3.625 0.3125 0.28125h0.40625 4.75 0.40625l0.3125-0.28125 3.625-3.625 0.28125-0.3125v-0.40625-4.75-0.40625l-0.28125-0.3125-3.625-3.625-0.3125-0.28125h-0.40625-4.75-0.40625zm0.78125 2h4l3 3v4l-3 3h-4l-3-3v-4l3-3zm0.4375 1-2.4375 2.4375v3.125l2.4375 2.4375h3.125l2.4375-2.4375v-3.125l-2.4375-2.4375h-3.125z"/>
 </g>
</svg>
