<svg width="512" height="512" version="1.1" viewBox="0 0 384 384" xmlns="http://www.w3.org/2000/svg"><defs><clipPath><rect width="384" height="384"/></clipPath><clipPath><rect width="384" height="384"/></clipPath><clipPath><rect width="384" height="384"/></clipPath></defs><path d="m360 192c0 92.785-75.215 168-168 168-92.785 0-168-75.215-168-168 0-92.785 75.215-168 168-168 92.785 0 168 75.215 168 168z" fill="#fd4747"/><path d="m192 79.5c-38.102 0.05469-73.914 18.199-96.492 48.891l36.984 64.031c0.0625-0.5625 0.13281-1.125 0.21093-1.6875 0.29297-1.9805 0.6836-3.9414 1.1719-5.8828 0.49219-1.9336 1.0781-3.8438 1.7578-5.7187 0.58594-1.6211 1.2422-3.2188 1.9688-4.7812 0.16016-0.36328 0.32422-0.72265 0.49219-1.0781 0.66797-1.3555 1.3867-2.6836 2.1562-3.9844 0.23828-0.41797 0.48047-0.83203 0.72656-1.2422 0.86719-1.3906 1.7891-2.7422 2.7656-4.0547 0.18359-0.27735 0.37109-0.55078 0.5625-0.82032 0.94531-1.2266 1.9375-2.4141 2.9766-3.5625 0.32422-0.3789 0.65234-0.7539 0.98437-1.125 0.89063-0.9375 1.8164-1.8438 2.7656-2.7188 0.56641-0.55078 1.1445-1.0898 1.7344-1.6172 0.80469-0.67188 1.625-1.3203 2.4609-1.9453 0.76563-0.62109 1.5469-1.2226 2.3438-1.8047 0.82813-0.57032 1.6719-1.1172 2.5312-1.6406 0.625-0.41797 1.2578-0.82422 1.8984-1.2188 0.24219-0.1289 0.48437-0.2539 0.72656-0.375 0.46485-0.25781 0.9336-0.50781 1.4062-0.75 0.98438-0.51172 1.9883-0.99609 3-1.4531 0.97266-0.44922 1.957-0.8711 2.9531-1.2656 0.82031-0.32422 1.6484-0.6289 2.4844-0.91406 1.0469-0.35938 2.1016-0.6875 3.1641-0.98438 0.92969-0.25781 1.8711-0.49218 2.8125-0.70312 0.98046-0.22656 1.9648-0.42969 2.9531-0.60938 0.95703-0.17187 1.918-0.32031 2.8828-0.44531 1.043-0.1289 2.0899-0.23047 3.1406-0.30469 0.91406-0.0664 1.8281-0.11328 2.7422-0.14062 0.57813-0.0391 1.1602-0.0742 1.7383-0.0977h103.73c-21.398-37.066-60.926-59.93-103.73-60zm-103.85 60.098c-10.539 18.207-16.109 38.863-16.148 59.902 0 66.273 53.727 120 120 120 16.531-0.0508 32.871-3.5156 48-10.176v-73.852c-0.22266 0.28906-0.44922 0.57812-0.67969 0.86718-0.5039 0.62892-1.0195 1.2461-1.5469 1.8516-0.7461 0.90625-1.5195 1.7891-2.3203 2.6484-0.60546 0.61329-1.2226 1.2148-1.8516 1.8047-0.82031 0.80469-1.6641 1.5859-2.5312 2.3438-0.66797 0.55469-1.3476 1.0938-2.0391 1.6172-0.84766 0.68749-1.7148 1.3516-2.6016 1.9922-0.82814 0.5664-1.6758 1.1133-2.5312 1.6406-0.62501 0.41798-1.2578 0.82422-1.8984 1.2188-0.24218 0.125-0.48437 0.25-0.72655 0.375-0.46485 0.25781-0.9336 0.50781-1.4062 0.75-0.98829 0.51173-1.9883 0.99609-3 1.4531-0.97266 0.44922-1.957 0.87109-2.9531 1.2656-0.8203 0.32423-1.6484 0.62891-2.4844 0.91406-1.0469 0.35547-2.1016 0.68361-3.1641 0.98439-0.9336 0.2578-1.8711 0.49218-2.8125 0.70311-0.98046 0.22657-1.9648 0.42969-2.9531 0.60939-0.95703 0.17187-1.918 0.3203-2.8828 0.4453-1.043 0.12891-2.0899 0.23048-3.1406 0.3047-0.91405 0.0664-1.8281 0.11328-2.7422 0.14061-0.57421 0.0391-1.1523 0.0703-1.7266 0.0937-0.73828-8e-3 -1.4726-0.0312-2.2109-0.0703-0.32812-0.0117-0.65625-0.0273-0.98437-0.0469-1.3125-0.082-2.625-0.20705-3.9336-0.3711-0.72657-0.0781-1.4492-0.16406-2.1719-0.26562-1.2344-0.21095-2.4648-0.45704-3.6836-0.7461-0.73828-0.14843-1.4766-0.3125-2.2109-0.48828-1.1797-0.3164-2.3516-0.67187-3.5156-1.0586-0.75-0.2422-1.5-0.4961-2.2422-0.76563-1.0039-0.39062-1.9961-0.8086-2.9766-1.25-0.91015-0.38282-1.8086-0.78515-2.6992-1.2109-0.79688-0.41406-1.5859-0.84765-2.3633-1.2969-0.96093-0.51562-1.9023-1.0547-2.832-1.6211-0.76562-0.48828-1.5156-0.9961-2.2578-1.5234-0.9375-0.6289-1.8594-1.2852-2.7578-1.9688-0.63281-0.5039-1.2539-1.0195-1.8633-1.5469-0.90235-0.74609-1.7812-1.5195-2.6367-2.3164-0.61719-0.60157-1.2227-1.2188-1.8125-1.8477-0.80469-0.82031-1.5859-1.6641-2.3398-2.5312-0.55468-0.66797-1.0976-1.3476-1.6211-2.0391-0.6875-0.85156-1.3516-1.7188-1.9922-2.6055-0.57031-0.82812-1.1172-1.6758-1.6445-2.5312-0.41406-0.625-0.82031-1.2578-1.2109-1.8984l-0.70703-1.246-51.184-88.656zm139.82 11.902c0.28906 0.22266 0.57813 0.44922 0.86718 0.67969 0.62892 0.5039 1.2461 1.0195 1.8516 1.5469 0.90625 0.7461 1.7891 1.5195 2.6484 2.3203 0.61329 0.60547 1.2148 1.2227 1.8047 1.8516 0.80469 0.82031 1.5859 1.6641 2.3438 2.5312 0.55469 0.66797 1.0938 1.3476 1.6172 2.0391 0.68749 0.84766 1.3516 1.7148 1.9922 2.6016 0.5664 0.82813 1.1133 1.6758 1.6406 2.5312 0.41798 0.625 0.82422 1.2578 1.2188 1.8984 0.125 0.24219 0.25001 0.48438 0.375 0.72657 0.25781 0.46485 0.50781 0.9336 0.75 1.4062 0.51173 0.98828 0.99609 1.9883 1.4531 3 0.44922 0.97266 0.87109 1.957 1.2656 2.9531 0.32423 0.8203 0.62891 1.6484 0.91406 2.4844 0.35547 1.0469 0.68361 2.1016 0.98439 3.1641 0.2578 0.9336 0.49218 1.8711 0.70311 2.8125 0.22657 0.98046 0.42969 1.9648 0.60939 2.9531 0.17187 0.95703 0.32031 1.918 0.4453 2.8828 0.0859 0.53907 0.16406 1.0781 0.23438 1.6172 0.0312 0.50781 0.0547 1.0156 0.0703 1.5234 0.0664 0.91406 0.11328 1.8281 0.14062 2.7422 0.0391 0.57421 0.0742 1.1523 0.0977 1.7266v103.73c37.066-21.398 59.93-60.926 60-103.73-0.0508-16.531-3.5156-32.871-10.176-48z" opacity=".3"/><path d="m192 72c-38.102 0.05469-73.914 18.199-96.492 48.891l36.984 64.031c0.0625-0.5625 0.13281-1.125 0.21093-1.6875 0.29297-1.9805 0.6836-3.9414 1.1719-5.8828 0.49219-1.9336 1.0781-3.8438 1.7578-5.7188 0.58594-1.6211 1.2422-3.2188 1.9688-4.7812 0.16016-0.36328 0.32422-0.72265 0.49219-1.0781 0.66797-1.3555 1.3867-2.6836 2.1562-3.9844 0.23828-0.41797 0.48047-0.83203 0.72656-1.2422 0.86719-1.3906 1.7891-2.7422 2.7656-4.0547 0.18359-0.27735 0.37109-0.55078 0.5625-0.82032 0.94531-1.2266 1.9375-2.4141 2.9766-3.5625 0.32422-0.3789 0.65234-0.7539 0.98437-1.125 0.89063-0.9375 1.8164-1.8438 2.7656-2.7188 0.56641-0.55078 1.1445-1.0898 1.7344-1.6172 0.80469-0.67188 1.625-1.3203 2.4609-1.9453 0.76563-0.62109 1.5469-1.2226 2.3438-1.8047 0.82813-0.57032 1.6719-1.1172 2.5312-1.6406 0.625-0.41797 1.2578-0.82422 1.8984-1.2188 0.24219-0.1289 0.48437-0.2539 0.72656-0.375 0.46485-0.25781 0.9336-0.50781 1.4062-0.75 0.98438-0.51172 1.9883-0.99609 3-1.4531 0.97266-0.44922 1.957-0.8711 2.9531-1.2656 0.82031-0.32422 1.6484-0.6289 2.4844-0.91406 1.0469-0.35938 2.1016-0.6875 3.1641-0.98438 0.92969-0.25781 1.8711-0.49218 2.8125-0.70312 0.98047-0.22656 1.9648-0.42969 2.9531-0.60938 0.95703-0.17187 1.918-0.32031 2.8828-0.44531 1.043-0.1289 2.0898-0.23047 3.1406-0.30469 0.91406-0.0664 1.8281-0.11328 2.7422-0.14062 0.57813-0.0391 1.1602-0.0742 1.7383-0.0977h103.73c-21.398-37.066-60.926-59.93-103.73-60zm-103.85 60.098c-10.539 18.207-16.109 38.863-16.148 59.902 0 66.273 53.727 120 120 120 16.531-0.0508 32.871-3.5156 48-10.176v-73.852c-0.22266 0.28906-0.44922 0.57812-0.67969 0.86718-0.5039 0.62891-1.0195 1.2461-1.5469 1.8516-0.7461 0.90625-1.5195 1.7891-2.3203 2.6484-0.60546 0.61328-1.2226 1.2148-1.8516 1.8047-0.82031 0.80469-1.6641 1.5859-2.5312 2.3438-0.66797 0.55469-1.3476 1.0938-2.0391 1.6172-0.84766 0.6875-1.7148 1.3516-2.6016 1.9922-0.82813 0.5664-1.6758 1.1133-2.5312 1.6406-0.625 0.41797-1.2578 0.82422-1.8984 1.2188-0.24219 0.125-0.48438 0.25-0.72656 0.375-0.46485 0.25781-0.9336 0.50781-1.4062 0.75-0.98828 0.51172-1.9883 0.99609-3 1.4531-0.97266 0.44921-1.957 0.87109-2.9531 1.2656-0.82031 0.32422-1.6484 0.62891-2.4844 0.91406-1.0469 0.35547-2.1016 0.6836-3.1641 0.98438-0.93359 0.25781-1.8711 0.49219-2.8125 0.70312-0.98046 0.22657-1.9648 0.42969-2.9531 0.60938-0.95703 0.17187-1.918 0.32031-2.8828 0.44531-1.043 0.12891-2.0898 0.23047-3.1406 0.30469-0.91406 0.0664-1.8281 0.11328-2.7422 0.14062-0.57421 0.0391-1.1523 0.0703-1.7266 0.0937-0.73828-8e-3 -1.4726-0.0312-2.2109-0.0703-0.32812-0.0117-0.65625-0.0273-0.98437-0.0469-1.3125-0.082-2.625-0.20704-3.9336-0.3711-0.72657-0.0781-1.4492-0.16406-2.1719-0.26562-1.2344-0.21094-2.4648-0.45703-3.6836-0.7461-0.73828-0.14843-1.4766-0.3125-2.2109-0.48828-1.1797-0.3164-2.3516-0.67187-3.5156-1.0586-0.75-0.24219-1.5-0.4961-2.2422-0.76563-1.0039-0.39062-1.9961-0.80859-2.9766-1.25-0.91015-0.38281-1.8086-0.78515-2.6992-1.2109-0.79688-0.41407-1.5859-0.84766-2.3633-1.2969-0.96093-0.51562-1.9023-1.0547-2.832-1.6211-0.76562-0.48828-1.5156-0.9961-2.2578-1.5234-0.9375-0.62891-1.8594-1.2852-2.7578-1.9688-0.63281-0.50391-1.2539-1.0195-1.8633-1.5469-0.90235-0.74609-1.7812-1.5195-2.6367-2.3164-0.61719-0.60156-1.2227-1.2188-1.8125-1.8477-0.80469-0.82031-1.5859-1.6641-2.3398-2.5312-0.55468-0.66797-1.0976-1.3476-1.6211-2.0391-0.6875-0.85156-1.3516-1.7188-1.9922-2.6055-0.57031-0.82812-1.1172-1.6758-1.6445-2.5312-0.41406-0.625-0.82031-1.2578-1.2109-1.8984l-0.70703-1.246-51.184-88.656zm139.82 11.902c0.28906 0.22266 0.57812 0.44922 0.86718 0.67969 0.62891 0.5039 1.2461 1.0195 1.8516 1.5469 0.90625 0.7461 1.7891 1.5195 2.6484 2.3203 0.61328 0.60547 1.2148 1.2227 1.8047 1.8516 0.80469 0.82031 1.5859 1.6641 2.3438 2.5312 0.55469 0.66797 1.0938 1.3476 1.6172 2.0391 0.6875 0.84766 1.3516 1.7148 1.9922 2.6016 0.5664 0.82813 1.1133 1.6758 1.6406 2.5312 0.41797 0.625 0.82422 1.2578 1.2188 1.8984 0.125 0.24219 0.25 0.48437 0.375 0.72656 0.25781 0.46485 0.50781 0.9336 0.75 1.4062 0.51172 0.98828 0.99609 1.9883 1.4531 3 0.44921 0.97266 0.87109 1.957 1.2656 2.9531 0.32422 0.82031 0.62891 1.6484 0.91406 2.4844 0.35547 1.0469 0.6836 2.1016 0.98438 3.1641 0.25781 0.9336 0.49219 1.8711 0.70312 2.8125 0.22657 0.98047 0.42969 1.9648 0.60938 2.9531 0.17187 0.95703 0.32031 1.918 0.44531 2.8828 0.0859 0.53906 0.16406 1.0781 0.23438 1.6172 0.0312 0.50781 0.0547 1.0156 0.0703 1.5234 0.0664 0.91406 0.11328 1.8281 0.14062 2.7422 0.0391 0.57422 0.0742 1.1524 0.0977 1.7266v103.73c37.066-21.398 59.93-60.926 60-103.73-0.0508-16.531-3.5156-32.871-10.176-48z" fill="#fff"/><path transform="scale(.75)" d="m32.062 251c-0.036438 1.6631-0.0625 3.3282-0.0625 5 0 123.71 100.29 224 224 224 123.71 0 224-100.29 224-224 0-1.6718-0.02606-3.3369-0.0625-5-2.66 121.4-101.9 219-223.94 219-122.04 0-221.28-97.597-223.94-219z" fill="#121212" opacity=".3" stroke-width="1.3333"/><path transform="scale(.75)" d="m256 32c-123.71 0-224 100.29-224 224 0 1.6718 0.026062 3.3369 0.0625 5 2.66-121.4 101.9-219 223.94-219 122.04 0 221.28 97.597 223.94 219 0.03644-1.6631 0.0625-3.3282 0.0625-5 0-123.71-100.29-224-224-224z" fill="#fff" opacity=".3" stroke-width="1.3333"/></svg>
