<svg width="512" height="512" version="1.1" viewBox="0 0 384 384" xmlns="http://www.w3.org/2000/svg"><g stroke-width="1.0045"><path d="m251.32 23.25c-12.458 0.24719-24.339 5.3087-33.147 14.125l-65.588 65.565-27.427-21.329c-14.654-11.394-34.552-13.364-51.157-5.0615l-24.106 12.054c-16.334 8.169-26.649 24.864-26.649 43.129v120.54c0 18.265 10.315 34.96 26.649 43.129l24.106 12.054c16.605 8.3024 36.502 6.3327 51.157-5.0615l27.427-21.329 65.588 65.565c13.634 13.643 34.093 17.849 52.004 10.688l60.268-24.106c18.304-7.3293 30.302-25.06 30.298-44.777v-192.86c4e-3 -19.716-11.995-37.448-30.298-44.777l-60.268-24.106c-5.9914-2.3973-12.407-3.5665-18.857-3.4371z" fill="#0aa15c"/><path d="m252.27 79.097-95.675 95.675-61.021-47.461-24.106 12.054v120.54l24.106 12.054 61.021-47.461 95.675 95.675 60.268-24.106v-192.86zm0 70.979v99.111l-63.704-49.555zm-156.69 13.395 36.16 36.16-36.16 36.16z" fill-rule="evenodd" opacity=".3"/><path d="m252.27 71.462-95.675 95.675-61.021-47.461-24.106 12.054v120.54l24.106 12.054 61.021-47.461 95.675 95.675 60.268-24.106v-192.86zm0 70.979v99.111l-63.704-49.555zm-156.69 13.395 36.16 36.16-36.16 36.16z" fill="#fff" fill-rule="evenodd"/></g><path d="m23.254 244.63v7.6341c0 18.265 10.315 34.959 26.649 43.128l24.107 12.053c16.605 8.3021 36.501 6.3322 51.156-5.0621l27.426-21.328 65.588 65.564c13.634 13.643 34.093 17.849 52.004 10.688l60.267-24.107c18.304-7.3294 30.302-25.06 30.298-44.775v-7.6341c4e-3 19.717-11.994 37.447-30.298 44.775l-60.267 24.107c-17.911 7.1606-38.37 2.9548-52.004-10.688l-65.588-65.564-27.426 21.328c-14.655 11.395-34.551 13.364-51.156 5.0621l-24.107-12.053c-16.334-8.1692-26.649-24.863-26.649-43.128z" opacity=".3" stroke-width=".76341"/><path d="m251.33 23.25c-12.457 0.24719-24.338 5.3081-33.147 14.125l-65.588 65.564-27.426-21.329c-14.655-11.395-34.551-13.363-51.156-5.0606l-24.107 12.053c-16.334 8.1692-26.649 24.863-26.649 43.128v7.6341c0-18.265 10.315-34.959 26.649-43.128l24.107-12.053c16.605-8.3021 36.501-6.3337 51.156 5.0606l27.426 21.329 65.588-65.564c8.8082-8.8166 20.69-13.877 33.147-14.125 6.4505-0.12948 12.866 1.0395 18.857 3.4369l60.267 24.107c18.304 7.3294 30.302 25.06 30.298 44.775v-7.6341c4e-3 -19.717-11.994-37.447-30.298-44.775l-60.267-24.107c-5.9914-2.3973-12.407-3.5663-18.857-3.4369z" fill="#fff" opacity=".3" stroke-width="1.0044"/></svg>
