<svg version="1.1" viewBox="0 0 512 512" xmlns="http://www.w3.org/2000/svg"><rect x="31" y="31" width="450" height="450" rx="30" ry="30" fill="#2b62c0" style="paint-order:normal"/><path d="m226.07 120v125.33h152v-125.33h-76zm-10.711 61.299-88.623 0.70117-0.3457 90 0.29101 91.668 283.91-0.44336-0.32616-181.61-11.646-5e-3 -10.551 0.39258-0.35546 36.344-0.35548 36.344-171.29-0.6875-0.35546-36.352zm-113.96 48.701v96h16v-96zm52.366 141.02v13.646h40.967v-13.646zm202.67 0v13.646h40.967v-13.646zm-202.67 17.332v13.646h40.967v-13.646zm202.67 0v13.646h40.967v-13.646z" opacity=".3" stroke-width="1.3333"/><path d="m226.07 110v125.33h152v-125.33h-76zm43.332 22h38.43v26.838h28.564v51.344h-66.994zm45.705 3.334 17.312 18.803h-17.312zm-32.988 35.207v3.8359h41.42v-3.8359zm-66.76 0.75781-88.623 0.70117-0.3457 90 0.29101 91.668 283.91-0.44336-0.32616-181.61-11.646-5e-3 -10.551 0.39258-0.35546 36.344-0.35548 36.344-171.29-0.6875-0.35546-36.352zm66.76 5.8477v3.8359h41.42v-3.8359zm0 6.6055v3.8359h41.42v-3.8359zm0 6.6055v3.834h41.42v-3.834zm-129.12 4.4727h43.465v7.9707h-43.465zm0 13.457h43.465v7.9707h-43.465zm-51.6 11.713v96h16v-96zm51.6 1.7441h43.465v7.9707h-43.465zm116.14 31.346c2.1433 0 2.9668 2.0218 2.9668 4.5898-0.0669 12.378 0.01 17.914 4e-3 30.963h17.789c5.999 0 5.6809 4.5841 2.9844 8.9023-2.6966 4.3167-16.042 25.987-23.744 38.584-1.4603 2.3867-3.7927 5.9355-5.9375 5.9355-2.1433 0-2.9668-2.0218-2.9668-4.5898 0.0669-12.378-0.01-23.912-4e-3 -36.961h-17.789c-5.9991 0-5.6809-4.5861-2.9844-8.9043 2.6966-4.3167 16.042-19.987 23.744-32.584 1.4603-2.3867 3.7927-5.9355 5.9375-5.9355zm-117.19 32.576h43.465v7.9707h-43.465zm0 13.457h43.465v7.9707h-43.465zm0 13.457h43.465v7.9707h-43.465zm0 13.457h43.465v7.9707h-43.465zm1.8164 34.984v13.646h40.967v-13.646zm202.67 0v13.646h40.967v-13.646zm-202.67 17.332v13.646h40.967v-13.646zm202.67 0v13.646h40.967v-13.646z" fill="#fff" stroke-width="1.3333"/><path d="m31 441v10c0 16.62 13.38 30 30 30h390c16.62 0 30-13.38 30-30v-10c0 16.62-13.38 30-30 30h-390c-16.62 0-30-13.38-30-30z" opacity=".3" style="paint-order:normal"/><path d="m61 31c-16.62 0-30 13.38-30 30v10c0-16.62 13.38-30 30-30h390c16.62 0 30 13.38 30 30v-10c0-16.62-13.38-30-30-30h-390z" fill="#fff" opacity=".1" style="paint-order:normal"/><path d="m315.11 154.14v4.7012h16.117l-4.3301-4.7012h-11.787zm-32.988 16.404v3.8359h41.42v-3.8359zm0 9.8359v0.60547h41.42v-0.60547zm0 6.6055v0.60547h41.42v-0.60547zm0 6.6055v0.60352h41.42v-0.60352zm-129.12 9.2129v5.4863h43.465v-5.4863zm116.4 7.3809v6h66.994v-6zm-116.4 6.0762v5.4863h43.465v-5.4863zm0 13.457v6h43.465v-6zm119.1 33.77c-8e-3 4.1001-0.0193 8.5203-0.01 12.225-4e-3 -3.6382-9e-3 -7.1412 0.0176-12.029 0-0.0671-7e-3 -0.12894-8e-3 -0.19531zm-120.15 30.152v5.4863h43.465v-5.4863zm141.85 2.2168c-0.26189 0.56101-0.57048 1.1287-0.92187 1.6914-2.6966 4.3167-16.042 25.987-23.744 38.584-1.4603 2.3867-3.7927 5.9355-5.9375 5.9355-2.0962 0-2.9234-1.9384-2.959-4.4258-4e-3 1.9478 3e-3 3.8546-8e-3 5.8359 0 2.568 0.82352 4.5898 2.9668 4.5898 2.1448 0 4.4772-3.5489 5.9375-5.9355 7.7024-12.597 21.048-34.267 23.744-38.584 1.8486-2.9603 2.5779-6.0438 0.92187-7.6914zm-55.271 3.4492c-1.7466 3.7436-1.308 7.2109 3.9082 7.2109h17.789c-3e-3 5.5522 0.0115 10.756 0.0215 15.941-8e-3 -7.1051-0.025-14.269-0.0215-21.941h-17.789c-1.8871 0-3.1487-0.45441-3.9082-1.2109zm-86.582 7.791v5.4863h43.465v-5.4863zm0 13.457v5.4863h43.465v-5.4863zm0 13.457v6h43.465v-6z" opacity=".2" stroke-width="1.3333"/><path d="m269.4 132h38.43v26.838h28.564v51.344h-66.994zm45.705 3.334 17.312 18.803h-17.312zm-32.988 35.207v3.8359h41.42v-3.8359zm0 6.6055v3.8359h41.42v-3.8359zm0 6.6055v3.8359h41.42v-3.8359zm0 6.6055v3.834h41.42v-3.834zm-129.12 4.4727h43.465v7.9707h-43.465zm0 13.457h43.465v7.9707h-43.465zm0 13.457h43.465v7.9707h-43.465zm116.14 31.346c2.1433 0 2.9668 2.0218 2.9668 4.5898-0.0669 12.378 0.01 17.914 4e-3 30.963h17.789c5.999 0 5.6809 4.5841 2.9844 8.9023-2.6966 4.3167-16.042 25.987-23.744 38.584-1.4603 2.3867-3.7927 5.9355-5.9375 5.9355-2.1433 0-2.9668-2.0218-2.9668-4.5898 0.0669-12.378-0.01-23.912-4e-3 -36.961h-17.789c-5.9991 0-5.6809-4.5861-2.9844-8.9043 2.6966-4.3167 16.042-19.987 23.744-32.584 1.4603-2.3867 3.7927-5.9355 5.9375-5.9355zm-117.19 32.576h43.465v7.9707h-43.465zm0 13.457h43.465v7.9707h-43.465zm0 13.457h43.465v7.9707h-43.465zm0 13.457h43.465v7.9707h-43.465z" fill="#2b62c0" stroke-width="1.3333"/></svg>
