<svg width="512" height="512" version="1.1" viewBox="0 0 384 384" xmlns="http://www.w3.org/2000/svg"><path d="m360 342v-300c0-9.9414-8.0586-18-18-18h-300c-9.9414 0-18 8.0586-18 18v300c0 9.9414 8.0586 18 18 18h300c9.9414 0 18-8.0586 18-18z" fill="#4aaee6"/><path transform="scale(.75)" d="m96 202c-26.51 0-48 21.49-48 48s21.49 48 48 48 48-21.49 48-48-21.49-48-48-48zm288 0c-26.51 0-48 21.49-48 48s21.49 48 48 48 48-21.49 48-48-21.49-48-48-48zm-211.84 96.004c-7.7172-0.15006-12.162 2.1379-12.162 9.4551 0 21.286 37.609 38.541 84 38.541s84-17.255 84-38.541-37.609 0-84 0c-30.444 0-57.105-9.1686-71.838-9.4551z" opacity=".3" stroke-width="1.3333"/><g><path d="m108 180c0 19.883-16.117 36-36 36s-36-16.117-36-36 16.117-36 36-36 36 16.117 36 36z" opacity=".5"/><path d="m324 180c0 19.883-16.117 36-36 36s-36-16.117-36-36 16.117-36 36-36 36 16.117 36 36z" opacity=".5"/><path d="m246 223.09c0 15.965-28.207 28.906-63 28.906s-63-12.941-63-28.906 28.207 0 63 0 63-15.965 63 0z" opacity=".5"/></g><path d="m96 171c0 4.9688-4.0312 9-9 9s-9-4.0312-9-9 4.0312-9 9-9 9 4.0312 9 9z" fill="#fff"/><path d="m312 171c0 4.9688-4.0312 9-9 9s-9-4.0312-9-9 4.0312-9 9-9 9 4.0312 9 9z" fill="#fff"/><path transform="scale(.75)" d="m32 446v10c0 13.255 10.745 24 24 24h400c13.255 0 24-10.745 24-24v-10c0 13.255-10.745 24-24 24h-400c-13.255 0-24-10.745-24-24z" opacity=".3" stroke-width="1.3333"/><path transform="scale(.75)" d="m56 32c-13.255 0-24 10.745-24 24v10c0-13.255 10.745-24 24-24h400c13.255 0 24 10.745 24 24v-10c0-13.255-10.745-24-24-24h-400z" fill="#fff" opacity=".3" stroke-width="1.3333"/></svg>
