<svg xmlns="http://www.w3.org/2000/svg" xmlns:xlink="http://www.w3.org/1999/xlink" width="512" height="512" version="1.1" viewBox="0 0 384 384"> <defs> <filter id="alpha" width="100%" height="100%" x="0%" y="0%" filterUnits="objectBoundingBox"> <feColorMatrix in="SourceGraphic" type="matrix" values="0 0 0 0 1 0 0 0 0 1 0 0 0 0 1 0 0 0 1 0"/> </filter> <mask id="mask0"> <g filter="url(#alpha)"> <rect width="384" height="384" x="0" y="0" style="fill:rgb(0%,0%,0%);fill-opacity:0.2"/> </g> </mask> <clipPath id="clip1"> <rect width="384" height="384" x="0" y="0"/> </clipPath> <g id="surface5" clip-path="url(#clip1)"> <path style="fill:rgb(0%,0%,0%)" d="M 335.996094 338.898438 L 335.996094 153.390625 L 312.535156 129.757812 C 306.78125 123.960938 271.164062 92.359375 263.320312 90.839844 L 194.175781 39.414062 L 116.136719 93.222656 C 109.472656 97.820312 75.515625 126.144531 69.949219 132.140625 L 48.003906 155.773438 L 48.003906 338.898438 C 48.003906 347.265625 54.425781 354 62.402344 354 L 321.597656 354 C 329.574219 354 335.996094 347.265625 335.996094 338.898438 Z M 335.996094 338.898438"/> </g> <mask id="mask1"> <g filter="url(#alpha)"> <rect width="384" height="384" x="0" y="0" style="fill:rgb(0%,0%,0%);fill-opacity:0.14902"/> </g> </mask> <clipPath id="clip2"> <rect width="384" height="384" x="0" y="0"/> </clipPath> <g id="surface8" clip-path="url(#clip2)"> <path style="fill:rgb(0%,0%,0%)" d="M 48 144 L 336 144 L 336 162 L 48 162 Z M 48 144"/> </g> <mask id="mask2"> <g filter="url(#alpha)"> <rect width="384" height="384" x="0" y="0" style="fill:rgb(0%,0%,0%);fill-opacity:0.2"/> </g> </mask> <clipPath id="clip3"> <rect width="384" height="384" x="0" y="0"/> </clipPath> <g id="surface11" clip-path="url(#clip3)"> <path style="fill:rgb(0%,0%,0%)" d="M 150 261 C 150 265.96875 145.96875 270 141 270 C 136.03125 270 132 265.96875 132 261 C 132 256.03125 136.03125 252 141 252 C 145.96875 252 150 256.03125 150 261 Z M 150 261"/> </g> <mask id="mask3"> <g filter="url(#alpha)"> <rect width="384" height="384" x="0" y="0" style="fill:rgb(0%,0%,0%);fill-opacity:0.0509804"/> </g> </mask> <clipPath id="clip4"> <rect width="384" height="384" x="0" y="0"/> </clipPath> <g id="surface14" clip-path="url(#clip4)"> <path style="fill:rgb(0%,0%,0%)" d="M 74.535156 122 C 69.632812 126.074219 65.605469 129.527344 63.996094 131.175781 L 40.972656 154.808594 L 40.972656 146.628906 L 74.535156 146.628906 Z M 74.535156 122"/> </g> <mask id="mask4"> <g filter="url(#alpha)"> <rect width="384" height="384" x="0" y="0" style="fill:rgb(0%,0%,0%);fill-opacity:0.14902"/> </g> </mask> <clipPath id="clip5"> <rect width="384" height="384" x="0" y="0"/> </clipPath> <g id="surface17" clip-path="url(#clip5)"> <path style="fill:rgb(0%,0%,0%)" d="M 102 92.839844 C 93.671875 98.558594 77.703125 110.304688 66 119.371094 L 66 144.003906 L 102 144.003906 Z M 102 92.839844"/> </g> <mask id="mask5"> <g filter="url(#alpha)"> <rect width="384" height="384" x="0" y="0" style="fill:rgb(0%,0%,0%);fill-opacity:0.0509804"/> </g> </mask> <clipPath id="clip6"> <rect width="384" height="384" x="0" y="0"/> </clipPath> <g id="surface20" clip-path="url(#clip6)"> <path style="fill:rgb(0%,0%,0%)" d="M 138 70.421875 L 106.65625 89.628906 C 105.820312 90.144531 103.519531 91.796875 102 92.839844 L 102 144.003906 L 138 144.003906 Z M 138 70.421875"/> </g> <mask id="mask6"> <g filter="url(#alpha)"> <rect width="384" height="384" x="0" y="0" style="fill:rgb(0%,0%,0%);fill-opacity:0.14902"/> </g> </mask> <clipPath id="clip7"> <rect width="384" height="384" x="0" y="0"/> </clipPath> <g id="surface23" clip-path="url(#clip7)"> <path style="fill:rgb(0%,0%,0%)" d="M 174 48.347656 L 138 70.421875 L 138 144.003906 L 174 144.003906 Z M 174 48.347656"/> </g> <mask id="mask7"> <g filter="url(#alpha)"> <rect width="384" height="384" x="0" y="0" style="fill:rgb(0%,0%,0%);fill-opacity:0.0509804"/> </g> </mask> <clipPath id="clip8"> <rect width="384" height="384" x="0" y="0"/> </clipPath> <g id="surface26" clip-path="url(#clip8)"> <path style="fill:rgb(0%,0%,0%)" d="M 194.441406 35.8125 L 174 48.347656 L 174 144.003906 L 209.996094 144.003906 L 209.996094 46.105469 Z M 194.441406 35.8125"/> </g> <mask id="mask8"> <g filter="url(#alpha)"> <rect width="384" height="384" x="0" y="0" style="fill:rgb(0%,0%,0%);fill-opacity:0.14902"/> </g> </mask> <clipPath id="clip9"> <rect width="384" height="384" x="0" y="0"/> </clipPath> <g id="surface29" clip-path="url(#clip9)"> <path style="fill:rgb(0%,0%,0%)" d="M 209.996094 46.105469 L 209.996094 144.003906 L 245.996094 144.003906 L 245.996094 69.898438 Z M 209.996094 46.105469"/> </g> <mask id="mask9"> <g filter="url(#alpha)"> <rect width="384" height="384" x="0" y="0" style="fill:rgb(0%,0%,0%);fill-opacity:0.0509804"/> </g> </mask> <clipPath id="clip10"> <rect width="384" height="384" x="0" y="0"/> </clipPath> <g id="surface32" clip-path="url(#clip10)"> <path style="fill:rgb(0%,0%,0%)" d="M 245.996094 69.898438 L 245.996094 144.003906 L 281.996094 144.003906 L 281.996094 92.136719 C 277.757812 89.511719 274.171875 87.585938 272.242188 87.253906 Z M 245.996094 69.898438"/> </g> <mask id="mask10"> <g filter="url(#alpha)"> <rect width="384" height="384" x="0" y="0" style="fill:rgb(0%,0%,0%);fill-opacity:0.14902"/> </g> </mask> <clipPath id="clip11"> <rect width="384" height="384" x="0" y="0"/> </clipPath> <g id="surface35" clip-path="url(#clip11)"> <path style="fill:rgb(0%,0%,0%)" d="M 281.996094 92.136719 L 281.996094 144.003906 L 317.996094 144.003906 L 317.996094 118.289062 C 307.789062 110.1875 292.558594 98.675781 281.996094 92.136719 Z M 281.996094 92.136719"/> </g> <mask id="mask11"> <g filter="url(#alpha)"> <rect width="384" height="384" x="0" y="0" style="fill:rgb(0%,0%,0%);fill-opacity:0.0509804"/> </g> </mask> <clipPath id="clip12"> <rect width="384" height="384" x="0" y="0"/> </clipPath> <g id="surface38" clip-path="url(#clip12)"> <path style="fill:rgb(0%,0%,0%)" d="M 309.464844 120.917969 L 309.464844 146.628906 L 343.027344 146.628906 L 343.027344 152.429688 L 318.414062 128.785156 C 316.984375 127.414062 313.601562 124.4375 309.464844 120.917969 Z M 309.464844 120.917969"/> </g> <mask id="mask12"> <g filter="url(#alpha)"> <rect width="384" height="384" x="0" y="0" style="fill:rgb(0%,0%,0%);fill-opacity:0.101961"/> </g> </mask> <clipPath id="clip13"> <rect width="384" height="384" x="0" y="0"/> </clipPath> <g id="surface41" clip-path="url(#clip13)"> <path style="fill:rgb(100.000%,100.000%,100.000%)" d="M 68.554688 36 C 63.816406 36 60 40.097656 60 45.1875 L 60 51.1875 C 60 46.097656 63.816406 42 68.554688 42 L 99.445312 42 C 104.183594 42 108 46.097656 108 51.1875 L 108 45.1875 C 108 40.097656 104.183594 36 99.445312 36 Z M 68.554688 36"/> </g> <mask id="mask13"> <g filter="url(#alpha)"> <rect width="384" height="384" x="0" y="0" style="fill:rgb(0%,0%,0%);fill-opacity:0.101961"/> </g> </mask> <clipPath id="clip14"> <rect width="384" height="384" x="0" y="0"/> </clipPath> <g id="surface44" clip-path="url(#clip14)"> <path style="fill-rule:evenodd;fill:rgb(100.000%,100.000%,100.000%)" d="M 191.601562 11.847656 C 186.589844 11.910156 181.828125 14.058594 178.464844 17.777344 L 30.761719 135.949219 C 25.550781 140.023438 22.996094 146.628906 24.105469 153.152344 C 24.847656 148.71875 27.222656 144.722656 30.761719 141.949219 L 178.464844 23.777344 C 181.828125 20.058594 186.589844 17.910156 191.601562 17.847656 C 191.65625 17.851562 191.710938 17.855469 191.765625 17.859375 C 191.796875 17.855469 191.828125 17.851562 191.859375 17.847656 C 197.066406 17.753906 202.054688 19.914062 205.546875 23.777344 L 353.238281 141.949219 C 356.78125 144.722656 359.15625 148.726562 359.894531 153.164062 C 361.011719 146.636719 358.453125 140.027344 353.238281 135.949219 L 205.546875 17.777344 C 202.054688 13.914062 197.066406 11.753906 191.859375 11.847656 C 191.828125 11.851562 191.796875 11.855469 191.765625 11.859375 C 191.710938 11.855469 191.65625 11.851562 191.601562 11.847656 Z M 191.601562 11.847656"/> </g> </defs> <g> <use mask="url(#mask0)" xlink:href="#surface5"/> <path style="fill:rgb(80.000%,80.000%,80.000%)" d="M 335.996094 332.898438 L 335.996094 147.390625 L 312.535156 123.757812 C 306.78125 117.960938 271.164062 86.359375 263.320312 84.839844 L 194.175781 33.414062 L 116.136719 87.222656 C 109.472656 91.820312 75.515625 120.144531 69.949219 126.140625 L 48.003906 149.773438 L 48.003906 332.898438 C 48.003906 341.265625 54.425781 348 62.402344 348 L 321.597656 348 C 329.574219 348 335.996094 341.265625 335.996094 332.898438 Z M 335.996094 332.898438"/> <use mask="url(#mask1)" xlink:href="#surface8"/> <path style="fill:rgb(29.803%,29.803%,29.803%)" d="M 68.550781 36 L 99.449219 36 C 104.171875 36 108 40.113281 108 45.1875 L 108 110.8125 C 108 115.886719 104.171875 120 99.449219 120 L 68.550781 120 C 63.828125 120 60 115.886719 60 110.8125 L 60 45.1875 C 60 40.113281 63.828125 36 68.550781 36 Z M 68.550781 36"/> <path style="fill:rgb(40.784%,29.803%,20.784%)" d="M 90.601562 192 L 149.398438 192 C 156.359375 192 162 197.539062 162 204.371094 L 162 311.628906 C 162 318.460938 156.359375 324 149.398438 324 L 90.601562 324 C 83.640625 324 78 318.460938 78 311.628906 L 78 204.371094 C 78 197.539062 83.640625 192 90.601562 192 Z M 90.601562 192"/> <path style="fill:rgb(40.784%,29.803%,20.784%)" d="M 225.25 192 C 213.625 192 204 201.625 204 213.25 L 204 272.75 C 204 284.375 213.625 294 225.25 294 L 284.75 294 C 296.375 294 306 284.375 306 272.75 L 306 213.25 C 306 201.625 296.375 192 284.75 192 Z M 225.25 192"/> <path style="fill:rgb(90.196%,90.196%,90.196%)" d="M 226.125 210 C 223.695312 210 222 211.699219 222 214.125 L 222 271.875 C 222 274.304688 223.695312 276 226.125 276 L 283.875 276 C 286.304688 276 288 274.304688 288 271.875 L 288 214.125 C 288 211.699219 286.304688 210 283.875 210 Z M 226.125 210"/> <use mask="url(#mask2)" xlink:href="#surface11"/> <path style="fill:rgb(100.000%,100.000%,100.000%)" d="M 150 255 C 150 259.96875 145.96875 264 141 264 C 136.03125 264 132 259.96875 132 255 C 132 250.03125 136.03125 246 141 246 C 145.96875 246 150 250.03125 150 255 Z M 150 255"/> <use mask="url(#mask3)" xlink:href="#surface14"/> <use mask="url(#mask4)" xlink:href="#surface17"/> <use mask="url(#mask5)" xlink:href="#surface20"/> <use mask="url(#mask6)" xlink:href="#surface23"/> <use mask="url(#mask7)" xlink:href="#surface26"/> <use mask="url(#mask8)" xlink:href="#surface29"/> <use mask="url(#mask9)" xlink:href="#surface32"/> <use mask="url(#mask10)" xlink:href="#surface35"/> <use mask="url(#mask11)" xlink:href="#surface38"/> <path style="fill:none;stroke-width:6;stroke-linecap:round;stroke-linejoin:round;stroke:rgb(29.803%,29.803%,29.803%)" d="M 32 5.000651 L 7.000651 25.000651" transform="matrix(6,0,0,6,0,0)"/> <path style="fill:none;stroke-width:6;stroke-linecap:round;stroke-linejoin:round;stroke:rgb(29.803%,29.803%,29.803%)" d="M 32 5.000651 L 56.999349 25.000651" transform="matrix(6,0,0,6,0,0)"/> <use mask="url(#mask12)" xlink:href="#surface41"/> <use mask="url(#mask13)" xlink:href="#surface44"/> </g> </svg>
