<svg xmlns="http://www.w3.org/2000/svg" width="512" height="512" version="1.1" viewBox="0 0 384 384">
 <path d="m 140.03906,67.84375 c -0.50781,0.008 -1.05078,0.0781 -1.57031,0.19531 -2.19531,0.51172 -67.105465,13.94532 -68.117185,14.21485 -1.574217,0.41797 -3.953123,2.05078 -4.703123,3.52734 -1,1.95703 -32.191406,92.75392 -32.445312,95.07031 -0.105469,0.99219 0.1875,2.67579 0.492187,3.62501 0.9375,2.92969 1.175782,3.0664 40.67578,27.05077 19.386716,11.76953 32.550783,19.28516 36.949213,22.05469 1.14063,0.71875 2.57032,1.10547 3.23438,1.07813 2.85937,-0.11329 10.625,-0.74219 35.38281,-3.23438 19.92577,-1.99609 35.98828,-3.88672 36.75391,-4.11718 1.48437,-0.44532 2.73828,-1.45313 3.33202,-2.0586 0.62501,-0.63281 1.46876,-2.05859 1.66406,-2.54688 0.19923,-0.49218 6.62109,-21.78514 14.3125,-47.24217 9.85937,-32.63673 13.22267,-43.37892 13.82031,-47.82814 0.43361,-3.27343 -0.89062,-5.21093 -3.03906,-7.2539 -2.88672,-2.74219 -71.38671,-50.34375 -72.53125,-51.16406 -1.23438,-0.88672 -2.6953,-1.39454 -4.21093,-1.3711 z m 0,0" style="fill:#171717;opacity:0.3"/>
 <path d="m 144.53906,63.34375 c -0.50781,0.0078 -1.05078,0.07813 -1.57031,0.195312 -2.19531,0.511719 -67.105469,13.945313 -68.117188,14.214844 -1.574218,0.417969 -3.953124,2.050782 -4.703124,3.527344 -1,1.957031 -32.191407,92.75391 -32.445313,95.07031 -0.105469,0.99219 0.1875,2.67578 0.492187,3.625 0.9375,2.92969 1.175782,3.06641 40.675782,27.05078 19.386718,11.76953 32.550786,19.28516 36.949216,22.05469 1.14063,0.71875 2.57032,1.10547 3.23438,1.07813 2.85937,-0.11329 10.625,-0.74219 35.38281,-3.23438 19.92578,-1.99609 35.98828,-3.88672 36.75391,-4.11719 1.48437,-0.44531 2.73828,-1.45312 3.33203,-2.05859 0.625,-0.63281 1.46875,-2.05859 1.66406,-2.54688 0.19922,-0.49218 6.62109,-21.78515 14.3125,-47.24218 9.85937,-32.63672 13.22266,-43.37891 13.82031,-47.82813 0.4336,-3.27343 -0.89062,-5.21093 -3.03906,-7.2539 -2.88672,-2.74219 -71.38672,-50.343754 -72.53125,-51.164066 -1.23438,-0.886719 -2.69531,-1.394532 -4.21094,-1.371094 z m 0,0" style="fill:#b8174a"/>
 <path style="opacity:0.3" d="m 250.32422,146.23828 c -3.9375,0.43359 -13.47657,3.28516 -43.71486,12.15234 -33.34374,9.75 -41.94531,12.38282 -43.02733,13.13282 -0.71876,0.52343 -1.37109,1.04687 -1.37109,1.27343 -0.41016,-0.29296 -0.57813,-0.17578 -1.27344,0.88282 -0.46094,0.6875 -1.01172,1.69922 -1.17578,2.2539 -0.19922,0.52344 -4.14453,21.35938 -8.82422,46.35938 -6.47656,34.42578 -8.58984,45.83593 -8.42578,46.85155 0.1289,0.75392 0.65234,2.08985 1.07812,3.03906 0.75,1.53516 3.86719,4.36328 35.77343,31.85157 19.20703,16.55859 35.61328,30.32421 36.26172,30.77734 1.44141,1 2.48048,1.49609 4.3125,1.46875 2.12891,-0.0312 3.85937,-0.69531 42.9297,-15.28906 26.05077,-9.75 41.29686,-15.51953 42.24609,-16.17188 0.84765,-0.55469 1.95702,-1.82812 2.44921,-2.64844 0.68751,-1.14453 3.54687,-11.30859 12.74219,-46.65234 6.47656,-24.93358 11.41797,-43.9453 11.66016,-46.74999 0.12109,-1.35547 -0.1211,-2.76562 -0.87891,-3.92187 -0.69921,-1.0625 -2.75391,-3.8125 -38.42187,-29.99219 -20.22265,-14.82031 -37.63672,-27.40625 -38.6172,-27.9336 -0.8242,-0.41406 -1.34764,-0.61718 -2.35155,-0.68359 -0.375,-0.0273 -0.80859,-0.0625 -1.37109,0 z m 0,0"/>
 <path d="m 125.32813,75.890625 c 0.55468,-0.01563 1.02734,0.179687 1.76171,0.488281 3.24219,1.34375 3.07813,7.507813 -0.29296,13.234375 -1.63672,2.746094 -5.32032,6.335938 -7.54688,7.347657 -3.27344,1.507812 -5.97656,0.953124 -6.95703,-1.371094 -2.39063,-5.726563 3.84375,-16.691406 10.78125,-19.113282 1.03125,-0.34375 1.69531,-0.570312 2.25391,-0.585937 z m 0,0" style="fill:#ffffff"/>
 <path d="m 81.710938,85.003906 c 1.539062,0 1.863281,0.128906 2.648437,0.980469 2.222656,2.390625 1.3125,7.832031 -2.15625,13.035156 -2.847656,4.289059 -6.5625,7.023439 -9.605469,7.058599 -1.570312,0 -1.828125,-0.0312 -2.648437,-0.98047 -1.210938,-1.34375 -1.4375,-3.06641 -0.980469,-5.683598 0.886719,-5.238281 4.863281,-10.875 9.507812,-13.527343 1.082032,-0.621094 1.992188,-0.882813 3.234376,-0.882813 z m 0,0" style="fill:#ffffff"/>
 <path d="m 171.09766,130.58203 c 0.30078,-0.0547 0.51171,-0.0117 0.78515,0 0.54297,0.0156 1.17578,0.0937 2.15625,0.39063 3.3711,0.98046 6.53125,5.08984 7.44922,9.50781 0.22656,1.04687 0.35938,3.13281 0.29297,4.70312 -0.29297,6.1836 -4.04297,10.55469 -8.72266,10.09375 -3.73047,-0.35937 -6.66015,-3.09375 -8.52734,-7.9375 -1.11328,-2.84765 -1.07813,-7.96875 0,-10.78125 0.94922,-2.45312 3.58984,-5.16015 5.48828,-5.68359 0.44922,-0.11719 0.77734,-0.24219 1.07813,-0.29297 z m 0,0" style="fill:#ffffff"/>
 <path d="m 104.94141,136.46094 c 1.58593,-0.008 3.08593,0.63672 3.82031,1.86328 1.34375,2.28906 0.98437,6.07031 -0.98047,10.28906 -3.59766,7.82031 -11.460938,12.71484 -14.699219,9.11719 -1.769531,-1.96485 -1.863281,-4.96094 -0.492187,-9.11719 1.734375,-5.13672 6.789062,-10.74609 10.781246,-11.95703 0.55079,-0.16406 1.03907,-0.19531 1.57032,-0.19531 z m 0,0" style="fill:#ffffff"/>
 <path d="m 61.128906,143.61719 c 3.371094,-0.28907 5.261719,3.08203 4.117188,8.03515 -2.324219,9.91407 -13.195313,17.84766 -16.074219,11.76172 -0.425781,-0.94922 -0.488281,-1.89062 -0.390625,-3.82422 0.390625,-6.21484 5.609375,-13.68359 10.878906,-15.58203 0.539063,-0.1914 0.988282,-0.35156 1.46875,-0.39062 z m 0,0" style="fill:#ffffff"/>
 <path d="m 104.54688,180.07422 c 4.51171,-0.17969 12,1.92578 16.46875,4.90234 5.16796,3.4375 4.58203,6.3711 -1.375,6.3711 -6.14844,0 -14.5,-3 -17.73829,-6.46875 -2.226559,-2.39063 -1.93359,-3.91797 0.98047,-4.60547 0.50782,-0.12891 1.02344,-0.17188 1.66407,-0.19922 z m 0,0" style="fill:#ffffff"/>
 <path d="m 109.05859,215.35937 c 0.71485,0.004 1.51563,0.0977 2.9375,0.29297 7.33204,1.01563 15.58594,5.25782 15.58594,8.03907 0,1.66796 -1.36719,2.08984 -5.39062,1.86328 -3.82813,-0.19922 -7.83594,-1.20703 -11.56641,-3.03907 -2.61719,-1.27734 -5.48828,-3.52734 -5.78125,-4.60546 -0.23047,-0.91797 0.71484,-2.02735 2.05859,-2.35547 0.81641,-0.17969 1.4375,-0.19922 2.15625,-0.19532 z m 0,0" style="fill:#ffffff"/>
 <path d="m 254.82422,144.73828 c -3.9375,0.43359 -13.47656,3.28516 -43.71485,12.15234 -33.34375,9.75 -41.94531,12.38282 -43.02734,13.13282 -0.71875,0.52343 -1.37109,1.04687 -1.37109,1.27343 -0.41016,-0.29296 -0.57813,-0.17578 -1.27344,0.88282 -0.46094,0.6875 -1.01172,1.69922 -1.17578,2.2539 -0.19922,0.52344 -4.14453,21.35938 -8.82422,46.35938 -6.47656,34.42578 -8.58984,45.83594 -8.42578,46.85156 0.1289,0.75391 0.65234,2.08984 1.07812,3.03906 0.75,1.53516 3.86719,4.36328 35.77344,31.85157 19.20703,16.55859 35.61328,30.32421 36.26172,30.77734 1.44141,1 2.48047,1.49609 4.3125,1.46875 2.12891,-0.0312 3.85937,-0.69531 42.92969,-15.28906 26.05078,-9.75 41.29687,-15.51953 42.24609,-16.17188 0.84766,-0.55469 1.95703,-1.82812 2.44922,-2.64844 0.6875,-1.14453 3.54687,-11.30859 12.74219,-46.65234 6.47656,-24.93359 11.41797,-43.94531 11.66015,-46.75 0.1211,-1.35547 -0.12109,-2.76562 -0.8789,-3.92187 -0.69922,-1.0625 -2.75391,-3.8125 -38.42188,-29.99219 -20.22265,-14.82031 -37.63672,-27.40625 -38.61719,-27.9336 -0.82421,-0.41406 -1.34765,-0.61718 -2.35156,-0.68359 -0.375,-0.0273 -0.80859,-0.0625 -1.37109,0 z m 0,0" style="fill:#17a185"/>
 <path d="m 251.09766,152.14062 c -0.6875,-0.0117 -1.35157,0 -1.95704,0.0469 -0.80859,0.0547 -1.52343,0.14453 -2.0625,0.29297 -3.46875,0.98047 -5.22265,2.87109 -4.79687,5.09765 0.55469,2.64844 5.21484,6.00782 10.1875,7.25 3.17578,0.82032 8.10156,0.85547 10.58984,0.10157 2.19141,-0.65625 4.21094,-2.57813 4.21094,-3.91797 0,-3.14453 -4.26562,-6.57031 -10.19141,-8.14063 -1.61718,-0.4414 -3.91406,-0.70312 -5.98046,-0.73047 z m -54.30079,15.53125 c -0.8164,0.0273 -1.48046,0.1875 -1.95312,0.29297 -2.78516,0.6211 -4.80469,2.1211 -5.39063,3.92188 -1.05078,3.17187 3.58204,7.34765 10.09375,9.01562 3.20704,0.85157 8.09766,0.85157 10.6836,0.0977 1.99609,-0.58594 4.01172,-2.02344 4.5039,-3.33203 1.21094,-3.17578 -3.61718,-7.67578 -10.09375,-9.3086 -1.79296,-0.46875 -5.38281,-0.77343 -7.84375,-0.6875 z m 75.27735,1.46875 c -0.41406,0.0117 -0.65235,0.0273 -0.98047,0.10157 -4.67578,1.04687 -6.59766,3.35937 -5.39063,6.46875 0.78907,2.0625 5.28516,5.03125 9.21485,6.17578 8.01562,2.32422 15.67578,0.42578 15.67578,-3.92578 0,-2.32422 -3.54688,-5.71094 -7.64063,-7.2461 -2.69921,-1.00781 -6.5625,-1.5664 -9.40625,-1.57422 -0.47656,0 -1.05859,-0.008 -1.47265,0 z m -50.96485,15.98047 c -0.91406,0.0117 -1.78906,0.0547 -2.64843,0.19141 -0.88282,0.16406 -2.44532,0.72266 -3.42969,1.17969 -5.10156,2.51953 -3.44141,7.47656 3.42969,10.78125 3.10937,1.5039 6.16797,2.21875 9.89843,2.25 3.92579,0.0312 6.4375,-0.67969 8.23438,-2.35157 1.08203,-1.04687 1.27344,-1.40234 1.27344,-2.64453 0,-3.07812 -2.96094,-5.8789 -8.13282,-7.74218 -2.89453,-1.05469 -5.8789,-1.70313 -8.625,-1.66407 z m 75.5625,1.3711 c -0.74609,0.0117 -1.33203,0.19531 -1.85937,0.29297 -3.82813,0.6875 -5.87891,2.21484 -5.87891,4.50781 0,1.63281 0.61719,2.80469 2.25391,4.3125 3.59766,3.43359 9.72656,5.35547 15.38672,4.99609 3.5664,-0.23047 5.03125,-0.68359 6.57031,-2.15625 1.01172,-0.94922 1.26953,-1.46875 1.26953,-2.44922 0,-3.5 -4.14062,-6.85937 -10.48828,-8.625 -2.0625,-0.5664 -5.01562,-0.91797 -7.25391,-0.8789 z m -124.17578,6.76172 c -1.41015,0 -1.86328,0.19531 -2.84375,1.07812 -1.53906,1.33984 -2.32422,2.96484 -2.74609,5.58594 -0.82031,5.19922 1.26562,11.7539 5.09375,15.58203 3.76562,3.76562 7.87109,3.73437 10,-0.19141 2.74609,-5.07031 1.21875,-13.84765 -3.42969,-19.01953 -1.89844,-2.09375 -3.8164,-3.03515 -6.07422,-3.03515 z m 72.42578,10.19531 c -1.83203,0 -3.95312,0.15625 -4.70312,0.38672 -3.14453,0.98047 -4.70313,2.58203 -4.70313,4.90234 0,1.63672 0.7461,2.80859 2.7461,4.60547 3.5,3.14453 7.96094,4.60937 14.01562,4.60937 3.56641,0 4.24219,-0.13281 5.67969,-0.78515 4.51953,-2.03125 4.97266,-5.51953 1.07813,-9.01953 -3.36719,-3.01172 -8.55079,-4.73047 -14.11329,-4.69922 z m 75.375,18.03125 c -0.67578,0.0352 -1.45703,0.20703 -2.25781,0.48828 -8.27734,2.94531 -15.26562,15.60937 -11.26953,20.38672 3.33594,3.96094 12.11328,-0.80078 16.36719,-8.91797 3.52344,-6.69922 1.88672,-12.20703 -2.83985,-11.95703 z m -101.9375,8.42969 c -0.84765,0 -1.88671,0.0977 -2.25,0.29296 -2.48437,1.33985 -3.78906,3.88282 -4.01562,7.7461 -0.36328,5.07031 1.66016,10.48047 5.09375,14.20703 2.19531,2.35937 3.85156,3.23437 6.26953,3.23437 2.39063,0 3.89063,-0.97265 5.10156,-3.42578 3.85938,-7.88672 -2.70312,-22.08593 -10.19922,-22.05468 z m -29.59375,10.88281 c -0.63281,0.0586 -1.36718,0.27344 -1.96484,0.58203 -1.10937,0.58984 -1.69531,1.17578 -2.44531,2.55078 -1.9336,3.56641 -1.41016,10.25 1.17578,15.09375 2.94531,5.53125 7.89844,8.23438 11.07422,6.07422 2.48828,-1.66797 3.42969,-4.03906 3.23437,-8.81641 -0.23047,-5.07031 -1.92578,-9.40625 -5.19922,-12.64453 -1.98437,-2.01172 -3.98046,-3.01953 -5.875,-2.83984 z M 161.125,251.17969 c -0.35547,-0.0195 -0.62109,0.21093 -1.27734,0.39453 -2.51954,0.75 -4.01954,3.875 -4.01954,8.03125 0,3.20703 0.48829,5.67969 2.15625,9.01953 2.78516,5.72266 7.60938,8.46484 10.88282,6.27344 3.66406,-2.39063 3.86328,-10.67578 0.49218,-17.05469 -1.53906,-2.84766 -4.24609,-5.55469 -6.375,-6.17578 -0.96484,-0.29688 -1.5,-0.46875 -1.85937,-0.48828 z M 286.96875,260 c -1.11719,0.0781 -2.31641,0.4375 -3.42578,0.97656 -4.91016,2.32422 -9.375,7.76953 -10.78125,13.13672 -0.65625,2.35547 -0.6211,3.75391 0.0976,5.39063 0.81641,1.80078 2.17969,2.54687 4.40625,2.35156 4.8086,-0.39453 10.38672,-5.1211 13.32813,-11.46875 1.93359,-4.125 1.64062,-8.71875 -0.68359,-9.89844 -0.76954,-0.40625 -1.82422,-0.57031 -2.94141,-0.48828 z m -82.625,28.8125 c -0.38281,0.0508 -0.71484,0.28125 -0.97656,0.39453 -0.98047,0.39453 -2.45313,1.79297 -3.03907,3.23438 -2.55468,6.12109 1.6875,17.47265 7.54688,20.38281 4.41406,2.19531 7.80469,-0.0195 8.72266,-5.58203 1.07812,-6.57813 -3.32422,-15.71094 -8.625,-17.9336 -0.90625,-0.37109 -2.47657,-0.63672 -3.62891,-0.49609 z m 48.91016,9.51172 c -1.00391,0.0391 -1.58985,0.24219 -3.23438,1.07812 -6.51172,3.23828 -12.125,12.07813 -10.87891,17.25 0.71875,3.01172 3.19922,4.04688 6.76563,2.9375 7.625,-2.39062 14.83594,-13.22265 12.44531,-18.8164 -0.71875,-1.73438 -1.66015,-2.32032 -3.91797,-2.44922 -0.46093,-0.0234 -0.84375,-0.0117 -1.17968,0 z m 0,0" style="fill:#ffffff"/>
 <path style="opacity:0.3;fill:#ffffff" d="m 192.71875,84.458984 c -0.67708,0.01067 -1.40106,0.103459 -2.09375,0.259766 -2.92708,0.682293 -89.47331,18.59375 -90.822266,18.95313 -2.098946,0.55729 -5.271484,2.73436 -6.271484,4.70312 -1.333333,2.60936 -42.921219,123.6732 -43.259766,126.76172 -0.140613,1.32292 0.25001,3.56639 0.65625,4.83203 0.147948,0.46233 0.287878,0.87215 0.498047,1.28906 6.52123,-20.55323 40.893538,-120.51102 42.105469,-122.88281 1,-1.96875 4.172528,-4.14582 6.271484,-4.70312 1.348956,-0.35938 87.895186,-18.270837 90.822266,-18.95313 0.69269,-0.156307 1.41667,-0.249099 2.09375,-0.259766 2.02085,-0.03124 3.96939,0.645832 5.61523,1.828125 1.52607,1.093747 92.86003,64.562501 96.70899,68.218751 1.35264,1.28624 2.44652,2.54679 3.17773,3.97266 0.429,-1.79021 0.73041,-3.23887 0.87305,-4.30079 0.57816,-4.36456 -1.18618,-6.94791 -4.05078,-9.67187 -3.84896,-3.65625 -95.18292,-67.125017 -96.70899,-68.218751 -1.64584,-1.182306 -3.59438,-1.859378 -5.61523,-1.828125 z" transform="scale(0.75)"/>
 <path style="fill:#ffffff;opacity:0.3" d="M 340.77344 192.93945 C 340.47266 192.93359 340.14062 192.94271 339.76562 192.98438 C 334.51562 193.5625 321.79624 197.36459 281.47852 209.1875 C 237.0202 222.1875 225.55208 225.69727 224.10938 226.69727 C 223.15104 227.39517 222.28125 228.0944 222.28125 228.39648 C 221.73437 228.00587 221.51106 228.1608 220.58398 229.57227 C 219.9694 230.48893 219.23437 231.83855 219.01562 232.57812 C 218.75 233.27604 213.48959 261.05729 207.25 294.39062 C 198.61459 340.29167 195.79688 355.50522 196.01562 356.85938 C 196.18749 357.86459 196.88542 359.64648 197.45312 360.91211 C 197.58064 361.17312 197.7632 361.46402 198.06641 361.8457 C 198.50018 357.72865 201.57076 341.2092 209.25 300.39062 C 215.48959 267.05729 220.75 239.27604 221.01562 238.57812 C 221.23437 237.83855 221.9694 236.48893 222.58398 235.57227 C 223.51106 234.1608 223.73437 234.00587 224.28125 234.39648 C 224.28125 234.0944 225.15104 233.39517 226.10938 232.69727 C 227.55208 231.69727 239.02018 228.1875 283.47852 215.1875 C 323.79622 203.36459 336.51562 199.5625 341.76562 198.98438 C 342.51563 198.90104 343.09375 198.94797 343.59375 198.98438 C 344.9323 199.07292 345.62958 199.3444 346.72852 199.89648 C 348.03581 200.59962 371.2552 217.38021 398.21875 237.14062 C 438.30597 266.56398 446.46413 273.72629 448.62305 276.11914 C 448.73622 274.38608 448.41317 272.60461 447.44727 271.13086 C 446.51499 269.71419 443.77603 266.04688 396.21875 231.14062 C 369.2552 211.38021 346.03581 194.59962 344.72852 193.89648 C 343.62958 193.3444 342.9323 193.07292 341.59375 192.98438 C 341.34375 192.96617 341.07422 192.94532 340.77344 192.93945 z" transform="scale(0.75)"/>
</svg>
