<svg width="512" height="512" version="1.1" viewBox="0 0 384 384" xmlns="http://www.w3.org/2000/svg"><defs><linearGradient id="b" x1="166.47" x2="283.56" y1="270.99" y2="370.27" gradientTransform="matrix(.68313 0 0 .62199 17.814 50.385)" gradientUnits="userSpaceOnUse"><stop stop-color="#e5e5e5" offset="0"/><stop stop-color="#fff" offset="1"/></linearGradient><clipPath id="c"><rect width="384" height="384"/></clipPath><linearGradient id="a" x1="166.47" x2="283.56" y1="270.99" y2="370.27" gradientTransform="matrix(.68313 0 0 .62199 17.814 50.385)" gradientUnits="userSpaceOnUse"><stop stop-color="#e5e5e5" offset="0"/><stop stop-color="#fff" offset="1"/></linearGradient><clipPath id="d"><rect width="384" height="384"/></clipPath></defs><g transform="matrix(.3777 .1012 -.1012 .3777 229.29 22.899)"><g stroke-width="1.0243"><path d="m339.23 63.08-39.822-39.83h-244.75c-2.7407 0-5.1013 0.96824-7.0498 2.9128-1.9285 1.9445-2.8887 4.3011-2.8887 7.0378v317.6c0 0.37608 0 0.73618 0.07602 1.0763 0.23206 2.2806 1.1763 4.2611 2.8327 5.9455 1.9524 1.9444 4.3131 2.9248 7.0538 2.9248h274.63c2.7487 0 5.0852-0.98025 7.0138-2.9248 1.6964-1.6844 2.6446-3.6649 2.8727-5.9455 0-0.34009 0.076-0.70019 0.076-1.0763v-287.72z" fill="#272a34"/><path d="m273.77 124.95c3.857 0 5.8414-1.8485 5.9615-5.5814v-95.94h-139.3v101.52z" fill="#fff"/><path d="m309.78 202.85c0-4.4331-2.0005-6.6617-5.9856-6.6617h-223.65c-3.989 0-5.9695 2.2286-5.9695 6.6617v157.9h235.6z" fill="#fff"/><path d="m140.43 124.95v-101.52h-64.764v95.94c0.12803 3.7329 2.1125 5.5814 5.9655 5.5814z"/><path d="m256.78 50.925c0-3.977-1.9845-5.9655-5.9615-5.9655h-13.531c-3.981 0-5.9815 1.9845-5.9815 5.9655v48.556c0 3.981 2.0005 5.9815 5.9815 5.9815h13.531c3.981 0 5.9615-2.0005 5.9615-5.9815z"/><path d="m55.88 34.217c-2.3726 0-3.5689 1.1963-3.5689 3.5689v29.279c0 2.3726 1.1963 3.5689 3.5689 3.5689h6.7857c2.3766 0 3.5689-1.1963 3.5689-3.5689v-29.279c0-2.3726-1.1923-3.5689-3.5689-3.5689zm3.5369 289.26c-2.3566 0-4.3731 0.84021-6.0335 2.5006-1.6604 1.6564-2.5006 3.6769-2.5006 6.0335s0.84021 4.3731 2.5006 6.0335c1.6604 1.6604 3.6769 2.4966 6.0335 2.4966s4.3731-0.83621 6.0335-2.4966c1.6604-1.6604 2.5006-3.6769 2.4966-6.0335 0-2.3566-0.83622-4.3771-2.4966-6.0335-1.6604-1.6604-3.6769-2.5006-6.0335-2.5006zm264.71 0c-2.3566 0-4.3771 0.84021-6.0375 2.5006-1.6564 1.6564-2.4966 3.6769-2.4966 6.0335s0.84021 4.3731 2.4966 6.0335c1.6604 1.6604 3.681 2.4966 6.0375 2.4966 2.3566 0 4.3731-0.83621 6.0335-2.4966 1.6604-1.6604 2.4966-3.6769 2.4966-6.0335s-0.83622-4.3771-2.4966-6.0335c-1.6604-1.6604-3.6769-2.5006-6.0335-2.5006z" fill="#fff"/></g><g transform="matrix(1.0243 0 0 1.0243 -.56992 -.38376)" stroke-width="1.3333"><path transform="scale(.75)" d="m68.838 81.803v6c0 3.0885 1.5579 4.6445 4.6465 4.6445h8.834c3.0937 0 4.6445-1.556 4.6445-4.6445v-6c0 3.0885-1.5508 4.6445-4.6445 4.6445h-8.834c-3.0885 0-4.6465-1.556-4.6465-4.6445zm-1.4629 347.89c-0.25708 0.94907-0.39648 1.9481-0.39648 3.002 0 3.0677 1.0944 5.692 3.2559 7.8535s4.7858 3.25 7.8535 3.25 5.694-1.0885 7.8555-3.25 3.2552-4.7858 3.25-7.8535c0-1.0524-0.13894-2.0501-0.39453-2.998-0.49011 1.8112-1.4374 3.4335-2.8555 4.8516-2.1615 2.1615-4.7878 3.25-7.8555 3.25s-5.6921-1.0885-7.8535-3.25c-1.4191-1.4191-2.3681-3.0427-2.8594-4.8555zm344.59 0c-0.25687 0.94907-0.39453 1.9481-0.39453 3.002 0 3.0677 1.0938 5.692 3.25 7.8535 2.1614 2.1614 4.7917 3.25 7.8594 3.25s5.692-1.0886 7.8535-3.25c2.1614-2.1615 3.25-4.7858 3.25-7.8535 0-1.0538-0.13826-2.0529-0.39453-3.002-0.48971 1.8128-1.4364 3.4364-2.8555 4.8555-2.1615 2.1614-4.7858 3.25-7.8535 3.25s-5.6979-1.0886-7.8594-3.25c-1.4157-1.4191-2.3646-3.0427-2.8555-4.8555z" opacity=".3"/><path transform="scale(.75)" d="m404 257.8v10c0.0152 0.26537 0.0254 0.53393 0.0254 0.81445v-10c0-0.28052-0.0101-0.54908-0.0254-0.81445zm-345.03 189.36v10c0 0.48957 6.76e-4 0.95767 0.09961 1.4004 0.30209 2.9687 1.5313 5.5475 3.6875 7.7402 2.5417 2.5312 5.6139 3.8066 9.1816 3.8066h332.06v-10h-332.06c-3.5677 0-6.64-1.2754-9.1816-3.8066-2.1563-2.1927-3.3854-4.7715-3.6875-7.7402-0.098921-0.44272-0.09961-0.9108-0.09961-1.4004zm383.43 0c0 0.48959-0.0996 0.95767-0.0996 1.4004-0.29689 2.9687-1.5319 5.5475-3.7402 7.7402-2.5104 2.5312-5.5508 3.8066-9.1289 3.8066h-25.402v10h25.402c3.5782 0 6.6185-1.2754 9.1289-3.8066 2.2083-2.1927 3.4434-4.7715 3.7402-7.7402 0-0.44273 0.0996-0.91082 0.0996-1.4004z" opacity=".3"/><path transform="scale(.75)" d="m71.906 30.766c-3.5677 0-6.6413 1.2598-9.1777 3.791-2.5104 2.5312-3.7598 5.5996-3.7598 9.1621v10c0-3.5625 1.2493-6.6309 3.7598-9.1621 2.5365-2.5313 5.61-3.791 9.1777-3.791h318.59l51.838 51.85h0.0586v-10h-0.0586l-51.838-51.85h-291.26z" fill="#fff" opacity=".1"/></g></g><g transform="matrix(.39796 0 0 .39796 113.77 16.773)"><path d="m192 33.059c-87.781 0-158.95 71.16-158.95 158.94s71.164 158.94 158.95 158.94c87.777 0 158.94-71.16 158.94-158.94s-71.164-158.94-158.94-158.94zm0 115.59c23.941 0 43.348 19.406 43.348 43.348 0 23.941-19.406 43.348-43.348 43.348-23.945 0-43.348-19.406-43.348-43.348 0-23.941 19.402-43.348 43.348-43.348z" fill="#80c6ed"/><path d="m192 124.14c-37.48 0-67.863 30.379-67.863 67.859s30.383 67.859 67.863 67.859c37.477 0 67.859-30.379 67.859-67.859s-30.383-67.859-67.859-67.859zm0 31.848c19.887 0 36.012 16.125 36.012 36.012s-16.125 36.012-36.012 36.012-36.016-16.125-36.016-36.012 16.129-36.012 36.016-36.012z" fill="#fff" stroke="#e6e6e6" stroke-width="3.5188"/></g><path d="m190.17 29.929c-34.933 0-63.256 28.319-63.256 63.252s28.32 63.252 63.256 63.252c34.932 0 63.252-28.319 63.252-63.252s-28.32-63.252-63.252-63.252zm0 46c9.5276 0 17.251 7.7228 17.251 17.251 0 9.5276-7.7228 17.251-17.251 17.251-9.5292 0-17.251-7.7228-17.251-17.251 0-9.5276 7.7212-17.251 17.251-17.251z" fill="#fff" opacity=".8" stroke="#000" stroke-opacity=".15686" stroke-width="3.75"/><g transform="matrix(.38522 -.10322 -.10322 -.38522 49.539 208.21)"><path d="m69.555 24.285c-8.7146 0-15.781 6.1914-15.781 13.828v2.5576c-0.0018 0.09687-0.0073 0.19275-0.0073 0.29004v303.88c0 8.7146 7.066 15.781 15.781 15.781h244.89c8.7146 0 15.781-7.066 15.781-15.781v-40.132c2e-3 -0.0851 7e-3 -0.16939 7e-3 -0.25488v-266.34c0-7.6366-7.0674-13.828-15.782-13.828z" opacity=".2" stroke="#000" stroke-width="7.5"/><path d="m69.555 24.285h244.89c8.7148 0 15.781 7.0664 15.781 15.777v303.88c0 8.7148-7.0664 15.781-15.781 15.781h-244.89c-8.7148 0-15.781-7.0664-15.781-15.781v-303.88c0-8.7109 7.0664-15.777 15.781-15.777z"/><g fill="#fff"><path d="m74.383 329.47h116.23c2.3945 0 4.3359 1.9414 4.3359 4.3359v8.5664c0 2.3945-1.9414 4.3398-4.3359 4.3398h-116.23c-2.3984 0-4.3398-1.9453-4.3398-4.3398v-8.5664c0-2.3945 1.9414-4.3359 4.3398-4.3359z"/><path d="m69.562 23.387h244.89c8.7148 0 15.781 6.1914 15.781 13.828v266.34c0 7.6406-7.0664 13.832-15.781 13.832h-244.89c-8.7148 0-15.781-6.1914-15.781-13.832v-266.34c0-7.6367 7.0664-13.828 15.781-13.828z"/><path d="m275.97 338.06c0 4.2695-3.4609 7.7305-7.7305 7.7305-4.2734 0-7.7344-3.4609-7.7344-7.7305s3.4609-7.7305 7.7344-7.7305c4.2695 0 7.7305 3.4609 7.7305 7.7305z"/><path d="m299.85 338.06c0 4.2695-3.4648 7.7305-7.7344 7.7305s-7.7305-3.4609-7.7305-7.7305 3.4609-7.7305 7.7305-7.7305 7.7344 3.4609 7.7344 7.7305z"/></g><path transform="scale(.75)" d="m350.6 227.18c0 52.24-42.349 94.589-94.589 94.589s-94.589-42.349-94.589-94.589 42.349-94.589 94.589-94.589 94.589 42.349 94.589 94.589zm0 0" fill="none" stroke="#000" stroke-linecap="round" stroke-linejoin="round" stroke-width="21.924"/><path d="m192.01 98.725c-43.623 0-79.162 35.539-79.162 79.162s35.539 79.162 79.162 79.162 79.162-35.539 79.162-79.162-35.539-79.162-79.162-79.162zm0 16.441c34.736 0 62.721 27.984 62.721 62.721s-27.984 62.721-62.721 62.721c-34.736 0-62.721-27.984-62.721-62.721s27.984-62.721 62.721-62.721z" color="#000000" color-rendering="auto" dominant-baseline="auto" image-rendering="auto" opacity=".3" shape-rendering="auto" solid-color="#000000" style="font-feature-settings:normal;font-variant-alternates:normal;font-variant-caps:normal;font-variant-ligatures:normal;font-variant-numeric:normal;font-variant-position:normal;isolation:auto;mix-blend-mode:normal;shape-padding:0;text-decoration-color:#000000;text-decoration-line:none;text-decoration-style:solid;text-indent:0;text-orientation:mixed;text-transform:none;white-space:normal"/><circle cx="316.31" cy="303.46" r="5.6089" opacity=".3"/><circle cx="67.882" cy="37.11" r="5.6089" opacity=".3"/><circle cx="316.31" cy="37.312" r="5.6089" opacity=".3"/><circle cx="67.711" cy="303.46" r="5.6089" opacity=".3"/></g><path d="m42.81 124.34c-1.8088 0.54851-3.2314 1.935-3.819 3.7064v205.76c0.08837 0.26778 0.19603 0.52705 0.32123 0.77565 0.02052 0.0406 0.0489 0.0765 0.07035 0.11658 0.11049 0.20688 0.2268 0.41053 0.36106 0.60138 0.15961 0.22687 0.33541 0.44072 0.52566 0.64197 0.19034 0.20137 0.39548 0.38952 0.61327 0.56205 0.43538 0.34501 0.92249 0.62761 1.4482 0.83851 0.51112 0.205 1.0575 0.34359 1.63 0.39832h297.11c1.2752-0.12195 2.4265-0.64792 3.3265-1.4451 8e-3 -7e-3 0.0163-0.0128 0.0239-0.0197 8.9e-4 -8.6e-4 2e-3 -2e-3 3e-3 -3e-3 0.12936-0.11598 0.25334-0.23733 0.37167-0.36425 0.0798-0.0857 0.15379-0.1769 0.22832-0.26724 0.0393-0.0476 0.0818-0.0927 0.11946-0.14155 2e-3 -2e-3 3e-3 -4e-3 5e-3 -6e-3 0.10281-0.13355 0.19983-0.27167 0.2907-0.41402 3e-3 -4e-3 6e-3 -0.01 0.01-0.0144 0.0911-0.14369 0.1753-0.29094 0.25353-0.44287 1.8e-4 -3.4e-4 -1.8e-4 -8.8e-4 0-8.8e-4 0.0493-0.096 0.0927-0.1958 0.13672-0.29481 0.0278-0.0623 0.0594-0.12262 0.085-0.18603 2e-3 -4e-3 3e-3 -7e-3 3e-3 -0.0104 0.0644-0.16114 0.12148-0.32608 0.17125-0.49398 8.8e-4 -3e-3 2e-3 -6e-3 3e-3 -9e-3 0.0499-0.16937 0.0919-0.34203 0.12611-0.51751 3.3e-4 -2e-3 8.9e-4 -4e-3 8.9e-4 -5e-3 0.0342-0.17615 0.0607-0.35566 0.0784-0.53718 1.2e-4 -8.8e-4 -1.4e-4 -3e-3 0-4e-3 0.0175-0.18286 0.0266-0.36793 0.0266-0.55549v-202.16c0-2.5993-1.7278-4.7835-4.1137-5.5067z" fill="url(#a)" opacity=".2" stroke="#000" stroke-width="6.7521"/><g stroke-width=".90027"><path d="m42.813 124.34c-1.8088 0.54851-3.2318 1.9356-3.8194 3.7068v205.76c0.70441 2.1347 2.63 3.7104 4.9699 3.934h297.11c2.9592-0.283 5.2636-2.7321 5.2636-5.7333v-202.16c0-2.5993-1.7274-4.783-4.1132-5.5061z" fill="url(#b)"/><path d="m38.991 266.97v66.836c0.7115 2.1486 2.6584 3.7314 5.023 3.934h297c2.9876-0.25854 5.3168-2.7147 5.3168-5.7333v-65.037z" fill="#fff"/><path d="m346.33 325.3c0 3.0186-2.3287 5.4747-5.3163 5.7333h-297c-2.3646-0.20265-4.3114-1.7858-5.023-3.9344v6.708c0.7115 2.1486 2.6584 3.7317 5.023 3.9344h297c2.9876-0.25855 5.3163-2.7147 5.3163-5.7333z" fill="#010101" opacity=".3"/></g><g transform="matrix(.90618 0 0 .8944 24.718 44.914)" clip-path="url(#c)"><path d="m15.75 102.66c0-3.375 2.5703-6.1211 5.8672-6.4102h327.75c2.6055 0.23047 4.7578 1.9961 5.543 4.3984v-7.5c-0.78516-2.4023-2.9375-4.168-5.543-4.3984h-327.75c-3.2969 0.28906-5.8672 3.0352-5.8672 6.4102z" fill="#fff"/></g><path d="m378.54 324.8c-17.007 46.664-68.6 70.725-115.27 53.757-46.675-16.962-70.779-68.537-53.854-115.23 16.925-46.689 68.478-70.834 115.18-53.949 46.703 16.889 70.894 68.422 54.046 115.14" fill="#02090d" fill-rule="evenodd" opacity=".3" stroke-width="1.0449"/><path d="m378.54 317.3c-17.007 46.664-68.6 70.725-115.27 53.757-46.675-16.962-70.779-68.537-53.854-115.23 16.925-46.689 68.478-70.834 115.18-53.949 46.703 16.889 70.894 68.422 54.046 115.14" fill="#0ca15e" fill-rule="evenodd" stroke-width="1.0449"/><g transform="translate(444.4 -113.44)" opacity=".3" aria-label="G"><path d="m-145.23 452.44c13.866 0 25.714-4.1597 35.546-12.479v-40.588h-39.328v18.403h18.529v13.235c-3.0252 1.6386-7.1849 2.521-12.101 2.521-15.756 0-25.588-10.21-25.588-26.849 0-16.261 9.4538-24.958 27.227-24.958 7.437 0 16.134 1.3866 21.933 3.4034l6.0504-17.143c-7.437-3.5294-17.395-5.5462-27.353-5.5462-31.008 0-50.798 18.655-50.798 46.008 0 26.345 18.403 43.992 45.882 43.992z" stroke-width="3.1513"/></g><g transform="translate(444.4 -120.94)" fill="#fff" aria-label="G"><path d="m-145.23 452.44c13.866 0 25.714-4.1597 35.546-12.479v-40.588h-39.328v18.403h18.529v13.235c-3.0252 1.6386-7.1849 2.521-12.101 2.521-15.756 0-25.588-10.21-25.588-26.849 0-16.261 9.4538-24.958 27.227-24.958 7.437 0 16.134 1.3866 21.933 3.4034l6.0504-17.143c-7.437-3.5294-17.395-5.5462-27.353-5.5462-31.008 0-50.798 18.655-50.798 46.008 0 26.345 18.403 43.992 45.882 43.992z" fill="#fff" stroke-width="3.1513"/></g></svg>
