<svg width="512" height="512" version="1.1" viewBox="0 0 384 384" xmlns="http://www.w3.org/2000/svg"><path d="m192 85.75c-58.68 0-106.25 47.57-106.25 106.25s47.57 106.25 106.25 106.25 106.25-47.57 106.25-106.25-47.57-106.25-106.25-106.25zm0 12.5c51.777 0 93.75 41.973 93.75 93.75s-41.973 93.75-93.75 93.75-93.75-41.973-93.75-93.75 41.973-93.75 93.75-93.75z" fill="#e6e6e6"/><path d="m104.5 23.25c-45.012 0-81.25 36.238-81.25 81.25v175c0 45.012 36.238 81.25 81.25 81.25h175c45.012 0 81.25-36.238 81.25-81.25v-175c0-45.012-36.238-81.25-81.25-81.25zm3.2461 6.25h168.51c43.344 0 78.246 34.891 78.246 78.234v168.52c0 43.344-34.902 78.246-78.246 78.246h-168.51c-43.344 0-78.246-34.902-78.246-78.246v-168.52c0-43.344 34.902-78.234 78.246-78.234z" fill="#e15e5e"/><path d="m192 23.25c-93.199 0-168.75 75.551-168.75 168.75 0 93.199 75.551 168.75 168.75 168.75 93.199 0 168.75-75.551 168.75-168.75 0-93.199-75.551-168.75-168.75-168.75zm0 68.75c55.23 0 100 44.773 100 100s-44.77 100-100 100-100-44.773-100-100 44.77-100 100-100z" fill="#e6e6e6"/><path d="m192 60.75c-72.488 0-131.25 58.762-131.25 131.25s58.762 131.25 131.25 131.25 131.25-58.762 131.25-131.25-58.762-131.25-131.25-131.25zm0 31.25c55.227 0 100 44.773 100 100s-44.773 100-100 100-100-44.773-100-100 44.773-100 100-100z" fill="#fff"/><g fill="#bd9775"><path d="m29.5 173.25c3.4531 0 6.25 2.7969 6.25 6.25v25c0 3.4531-2.7969 6.25-6.25 6.25s-6.25-2.7969-6.25-6.25v-25c0-3.4531 2.7969-6.25 6.25-6.25z"/><path d="m354.5 173.25c3.4531 0 6.25 2.7969 6.25 6.25v25c0 3.4531-2.7969 6.25-6.25 6.25-3.4492 0-6.25-2.7969-6.25-6.25v-25c0-3.4531 2.8008-6.25 6.25-6.25z"/><path d="m179.5 23.25c-3.4609 0-6.25 2.7891-6.25 6.25s2.7891 6.25 6.25 6.25h25c3.4609 0 6.25-2.7891 6.25-6.25s-2.7891-6.25-6.25-6.25zm0 325c-3.4609 0-6.25 2.7891-6.25 6.25s2.7891 6.25 6.25 6.25h25c3.4609 0 6.25-2.7891 6.25-6.25s-2.7891-6.25-6.25-6.25z"/></g><path d="m185.75 23.25v6.25h12.5v-6.25zm-162.5 162.5v12.5h6.25v-12.5zm331.25 0v12.5h6.25v-12.5zm-168.75 168.75v6.25h12.5v-6.25z" fill="#a1683a"/><path transform="scale(.75)" d="m256 112.67c-73.641 0-133.33 59.699-133.33 133.33 0 1.6749 0.0423 3.3401 0.10351 5 2.6306-71.318 61.265-128.33 133.23-128.33 71.966 0 130.6 57.016 133.23 128.33 0.0612-1.6599 0.10351-3.3251 0.10351-5 0-73.635-59.693-133.33-133.33-133.33zm-224.94 138.33c-0.036282 1.6632-0.064453 3.3281-0.064453 5 0 124.27 100.73 225 225 225 124.27 0 225-100.73 225-225 0-1.6719-0.0282-3.3368-0.0645-5-2.6603 121.96-102.34 220-224.94 220s-222.28-98.045-224.94-220z" opacity=".3"/><path transform="scale(.75)" d="m256 31c-124.27 0-225 100.73-225 225 0 1.6719 0.02817 3.3368 0.06445 5 2.6604-121.96 102.34-220 224.94-220 122.59 0 222.28 98.045 224.94 220 0.03628-1.6632 0.06445-3.3281 0.06445-5 0-124.27-100.73-225-225-225zm-133.23 230c-0.0612 1.6599-0.10351 3.3251-0.10351 5 0 73.635 59.693 133.33 133.33 133.33 73.641 0 133.33-59.699 133.33-133.33 0-1.6749-0.0423-3.3401-0.10351-5-2.6306 71.318-61.265 128.33-133.23 128.33-71.966 0-130.6-57.016-133.23-128.33z" fill="#fff" opacity=".3"/><path d="m86.164 54.5c-6.1484 0-12.293 2.3555-17.004 7.0664l-1.3438 1.332c-9.4219 9.4219-9.4219 24.598 0 34.02l25.516 25.516c9.4219 9.4219 24.598 9.4219 34.02 0l1.3438-1.3438c9.4219-9.4219 9.4219-24.586 0-34.008l-25.516-25.516c-4.7109-4.7109-10.867-7.0664-17.016-7.0664zm211.67 0c-6.1484 0-12.293 2.3555-17.004 7.0664l-25.516 25.516c-9.4219 9.4219-9.4219 24.586 0 34.008l1.3438 1.3438c9.4219 9.4219 24.586 9.4219 34.008 0l25.516-25.516c9.4219-9.4219 9.4219-24.598 0-34.02l-1.332-1.332c-4.7109-4.7109-10.867-7.0664-17.016-7.0664zm-187.49 193.75c-6.1484 0-12.305 2.3555-17.016 7.0664l-25.516 25.516c-9.4219 9.4219-9.4219 24.586 0 34.008l1.3438 1.3438c9.4219 9.4219 24.598 9.4219 34.02 0l25.516-25.516c9.4219-9.4219 9.4219-24.598 0-34.02l-1.3438-1.332c-4.7109-4.7109-10.855-7.0664-17.004-7.0664zm163.32 0c-6.1484 0-12.293 2.3555-17.004 7.0664l-1.3438 1.332c-9.4219 9.4219-9.4219 24.598 0 34.02l25.516 25.516c9.4219 9.4219 24.598 9.4219 34.02 0l1.332-1.3438c9.4219-9.4219 9.4219-24.586 0-34.008l-25.516-25.516c-4.7109-4.7109-10.855-7.0664-17.004-7.0664z" fill="#fd4747"/></svg>
