<svg width="512" height="512" version="1.1" viewBox="0 0 384 384" xmlns="http://www.w3.org/2000/svg"><defs><clipPath><rect width="384" height="384"/></clipPath><clipPath><rect width="384" height="384"/></clipPath><clipPath><rect width="384" height="384"/></clipPath></defs><g transform="translate(-544.77 41.895)"><g stroke-width="6.0268"><rect transform="matrix(0,-1,-1,0,0,0)" x="-318.85" y="-905.52" width="337.49" height="337.49" rx="168.75" ry="168.75" fill="#672168"/><path d="m736.76 37.071a120.53 120.53 0 0 0-120.53 120.53 120.53 120.53 0 0 0 120.53 120.53 120.53 120.53 0 0 0 120.53-120.53 120.53 120.53 0 0 0-120.53-120.53zm-40.536 48.214a7.5324 8.0356 0 0 1 3.5799 1.0607l105.47 64.269a7.5324 8.0356 0 0 1 0 13.982l-105.47 64.269a7.5324 8.0356 0 0 1-11.258-6.991v-128.54a7.5324 8.0356 0 0 1 7.678-8.0517z" opacity=".3"/><path d="m736.76 29.571a120.53 120.53 0 0 0-120.53 120.53 120.53 120.53 0 0 0 120.53 120.53 120.53 120.53 0 0 0 120.53-120.53 120.53 120.53 0 0 0-120.53-120.53zm-40.536 48.214a7.5324 8.0356 0 0 1 3.5799 1.0607l105.47 64.269a7.5324 8.0356 0 0 1 0 13.982l-105.47 64.269a7.5324 8.0356 0 0 1-11.258-6.991v-128.54a7.5324 8.0356 0 0 1 7.678-8.0517z" fill="#fff"/></g><path transform="scale(.75)" d="m982.36-24.855c-124.65 0-225 100.35-225 225 0 1.672 0.0285 3.3369 0.0644 5 2.6425-122.32 101.96-220 224.93-220 122.98 0 222.29 97.677 224.93 220 0.036-1.6631 0.062-3.328 0.062-5 0-124.65-100.35-225-225-225z" fill="#fff" opacity=".3" stroke-width="8.0357"/><path transform="scale(.75)" d="m757.43 195.14c-0.0359 1.6631-0.0644 3.328-0.0644 5 0 124.65 100.35 225 225 225 124.65 0 225-100.35 225-225 0-1.672-0.027-3.3369-0.062-5-2.6425 122.32-101.96 220-224.93 220-122.98 0-222.29-97.677-224.93-220z" opacity=".3" stroke-width="8.0357"/></g></svg>
