<svg width="512" height="512" version="1.1" viewBox="0 0 384 384" xmlns="http://www.w3.org/2000/svg"><defs><clipPath><rect width="384" height="384"/></clipPath><clipPath><rect width="384" height="384"/></clipPath><clipPath><rect width="384" height="384"/></clipPath><clipPath><rect width="384" height="384"/></clipPath><clipPath><rect width="384" height="384"/></clipPath><clipPath><rect width="384" height="384"/></clipPath><clipPath><rect width="384" height="384"/></clipPath><clipPath><rect width="384" height="384"/></clipPath><clipPath><rect width="384" height="384"/></clipPath><clipPath><rect width="384" height="384"/></clipPath><clipPath><rect width="384" height="384"/></clipPath><clipPath><rect width="384" height="384"/></clipPath></defs><g fill="#151012"><path d="m180 289.5c0 43.078-34.922 78-78 78-43.078 0-78-34.922-78-78s34.922-78 78-78c43.078 0 78 34.922 78 78z" opacity=".3"/><path d="m270 109.5c0 43.078-34.922 78-78 78-43.078 0-78-34.922-78-78 0-43.078 34.922-78 78-78 43.078 0 78 34.922 78 78z" opacity=".3"/><path d="m360 289.5c0 43.078-34.922 78-78 78s-78-34.922-78-78 34.922-78 78-78 78 34.922 78 78z" opacity=".3"/></g><path d="m180 282c0 43.078-34.922 78-78 78-43.078 0-78-34.922-78-78 0-43.078 34.922-78 78-78 43.078 0 78 34.922 78 78z" fill="#ca2828"/><path d="m270 102c0 43.078-34.922 78-78 78-43.078 0-78-34.922-78-78 0-43.078 34.922-78 78-78 43.078 0 78 34.922 78 78z" fill="#23a86e"/><path d="m360 282c0 43.078-34.922 78-78 78-43.078 0-78-34.922-78-78 0-43.078 34.922-78 78-78 43.078 0 78 34.922 78 78z" fill="#9754b3"/><path d="m192 55.5c-29.824 0-54 24.176-54 54 0 29.824 24.176 54 54 54 29.824 0 54-24.176 54-54 0-29.824-24.176-54-54-54zm-90 180c-29.824 0-54 24.176-54 54 0 29.824 24.176 54 54 54 29.824 0 54-24.176 54-54 0-29.824-24.176-54-54-54zm180 0c-29.824 0-54 24.176-54 54 0 29.824 24.176 54 54 54 29.824 0 54-24.176 54-54 0-29.824-24.176-54-54-54z" opacity=".3"/><path d="m336 282c0 29.824-24.176 54-54 54s-54-24.176-54-54 24.176-54 54-54 54 24.176 54 54z" fill="#ae78c2"/><path transform="scale(.75)" d="m256 32c-57.437-1.3e-5 -104 46.562-104 104 0 1.6767 0.04263 3.3428 0.12109 5 2.6095-55.115 48.118-99 103.88-99 55.761 0 101.27 43.885 103.88 99 0.07846-1.6572 0.12109-3.3233 0.12109-5 0-57.438-46.562-104-104-104zm-120 240c-57.437 0-104 46.563-104 104 0 1.6767 0.042628 3.3428 0.12109 5 2.6095-55.115 48.118-99 103.88-99 55.761 0 101.27 43.885 103.88 99 0.07846-1.6572 0.12109-3.3233 0.12109-5 0-57.437-46.563-104-104-104zm240 0c-57.437 0-104 46.563-104 104 0 1.6767 0.04263 3.3428 0.12109 5 2.6095-55.115 48.118-99 103.88-99s101.27 43.885 103.88 99c0.07846-1.6572 0.12109-3.3233 0.12109-5 0-57.437-46.563-104-104-104z" fill="#fff" opacity=".3" stroke-width="1.3333"/><path d="m156 282c0 29.824-24.176 54-54 54-29.824 0-54-24.176-54-54s24.176-54 54-54c29.824 0 54 24.176 54 54z" fill="#fd7070"/><path d="m246 102c0 29.824-24.176 54-54 54s-54-24.176-54-54c0-29.824 24.176-54 54-54s54 24.176 54 54z" fill="#51bd8c"/><path transform="scale(.75)" d="m256 64c-39.766 0-72 32.234-72 72 0 1.6821 0.07792 3.3467 0.19141 5 2.5703-37.43 33.726-67 71.809-67 38.083 0 69.238 29.57 71.809 67 0.11349-1.6533 0.19141-3.3179 0.19141-5 0-39.766-32.234-72-72-72zm-120 240c-39.766 0-72 32.234-72 72 0 1.6828 0.07783 3.3461 0.19141 5 2.5694-37.431 33.725-67 71.809-67 38.084 0 69.239 29.569 71.809 67 0.11358-1.6539 0.19141-3.3172 0.19141-5 0-39.766-32.234-72-72-72zm240 0c-39.766 0-72 32.234-72 72 0 1.6828 0.07783 3.3461 0.19141 5 2.5694-37.431 33.725-67 71.809-67 38.084 0 69.239 29.569 71.809 67 0.11358-1.6539 0.19141-3.3172 0.19141-5 0-39.766-32.234-72-72-72z" fill="#fff" opacity=".3" stroke-width="1.3333"/></svg>
