<svg width="512" height="512" version="1.1" viewBox="0 0 384 384" xmlns="http://www.w3.org/2000/svg" xmlns:xlink="http://www.w3.org/1999/xlink"><defs><linearGradient id="c" x1="235.09" x2="720.48" y1="289.08" y2="-306.19" gradientTransform="matrix(.75 0 0 .75 -71.594 -759.86)" gradientUnits="userSpaceOnUse"><stop stop-color="#4b4e5b" offset="0"/><stop stop-color="#262933" offset="1"/></linearGradient><filter id="e" x="0%" y="0%" width="100%" height="100%"><feColorMatrix in="SourceGraphic" values="0 0 0 0 1 0 0 0 0 1 0 0 0 0 1 0 0 0 1 0"/></filter><mask id="b"><g filter="url(#e)"><rect width="384" height="384" fill-opacity=".30196"/></g></mask><clipPath id="d"><rect width="384" height="384"/></clipPath><g id="a" clip-path="url(#d)"><path d="m91.535 58.078c-0.30859 0-0.61719 0.011719-0.92578 0.035156h-0.35156l-0.035156 0.046875c-6.6172 0.6875-11.652 6.3477-11.66 13.113 0.007812 0.53906 0.042969 1.0742 0.11328 1.6094l-0.070312 0.089844 0.078125 127.28 0.074218 125.87c-0.0625 0.50781-0.09375 1.0234-0.097656 1.5352 0.003906 6.8398 5.1445 12.543 11.844 13.137l0.011719 0.007812 0.16016 0.003907c0.32031 0.027343 0.63672 0.042968 0.95703 0.046874 0.32813 0 0.65234-0.011718 0.97656-0.039062l98.953 0.43359 97.586 0.027344c0.54687 0.074218 1.0977 0.11328 1.6484 0.12109 6.5977-0.003906 12.141-5.043 12.883-11.711l0.19922-0.16406-0.003906-51.25c-0.007812-24.297-0.039062-59.812-0.074219-78.922l-0.0625-34.75-8.6367-8.6289c-4.75-4.75-8.6367-8.6992-8.6367-8.7812s-10.227-10.422-22.723-22.977c-12.5-12.551-32.41-32.559-44.246-44.461l-21.52-21.637h-105.77c-0.22266-0.019531-0.44922-0.03125-0.67578-0.035156z"/></g></defs><path d="m245.64 30.664-0.20703 0.95313v8e-3l-0.0156 0.0625c-0.0898 0.41015-0.082 0.82812 0.0312 1.2695 0.0352 0.21875 0.082 0.42578 0.14454 0.59766 0.0195 0.0469 0.0898 0.14843 0.1875 0.27343 0.0117 0.0234 0.0195 0.043 0.0312 0.0664 0.33984 0.65235 5.8516 6.4648 12.246 12.91 6.3945 6.4492 17.441 17.625 24.555 24.836 7.1094 7.2109 18.484 18.746 25.273 25.629 6.7891 6.8867 12.688 12.973 13.102 13.531 0.0859 0.11719 0.1914 0.23047 0.30078 0.33985 0.33594 0.35156 0.68359 0.59765 1.1055 0.77734 0.20312 0.0977 0.41015 0.17969 0.61718 0.23047 1.2148 0.32422 2.0977 0.42969 2.7656 0.32422 0.0703-8e-3 0.14062-0.0195 0.20312-0.0352 0.10157-0.0234 0.19922-0.0508 0.28907-0.0859 0.0273-8e-3 0.0469-0.0312 0.0703-0.0547 0.0195-0.0117 0.043-0.0195 0.0625-0.0312 0.15626-0.0977 0.25001-1.1406 0.3047-3.8047 8e-3 -0.33985 0.0156-0.76563 0.0195-1.168 4e-3 -0.15625 8e-3 -0.29687 8e-3 -0.46484 0.0547-3.6016 0.0664-9.4375 0.0625-19.328-4e-3 -14.586-0.14453-25.613-0.34376-27.012-0.0664-0.46093-0.14061-0.91406-0.22266-1.3672-0.0937-0.70313-0.20703-1.2383-0.35155-1.832-0.0508-0.21093-0.125-0.46093-0.1875-0.69921-0.34766-1.3945-0.76953-2.7461-1.2617-4.0547-0.0859-0.23438-0.17577-0.49219-0.25389-0.69531-0.25392-0.66016-0.56641-1.3438-0.92188-2.0391-3.2968-6.8282-8.7734-12.215-16.141-15.762-3-1.4414-4.9844-2.2656-8.8672-2.7383-0.4375-0.0547-0.89844-0.10547-1.418-0.15234h-0.0273c-0.0664-8e-3 -0.14453-0.0117-0.21094-0.0195-0.37109-0.0312-0.76172-0.0586-1.1836-0.0859-4.9531-0.33984-12.539-0.37109-25.949-0.375h-23.816z" opacity=".3"/><g transform="translate(71.593 759.86)"><path d="m9.883-399.59c-2.4727-0.66407-7.4961-3.0586-10.152-4.8438-5.2031-3.4922-10.277-9.9766-12.734-16.273l-1.207-3.0898-0.09375-143.05-0.08984-143.05 0.88672-2.8633c2.8164-9.1016 9.1836-16.453 17.828-20.586 6.0742-2.9023 0.32031-2.668 65.426-2.6602l57.914 4e-3 25.613 25.75c14.086 14.164 37.781 37.977 52.656 52.914 14.875 14.941 27.043 27.246 27.043 27.344 0 0.0977 4.625 4.7969 10.277 10.449l10.277 10.27 0.0781 41.352c0.0391 22.742 0.0781 65.008 0.082 93.922l0.0117 52.574-1.5703 3.2578c-1.9844 4.1367-3.168 5.8398-6.332 9.1562-4.1172 4.3086-8.3516 6.9375-14.488 8.9922l-2.9844 1.0039-108.29-0.0312c-94.418-0.0274-108.53-0.0937-110.15-0.53125z" fill="url(#c)"/><path d="m174.05-736.7-0.20703 0.95313v8e-3l-0.0156 0.0625c-0.0898 0.41015-0.082 0.82812 0.0312 1.2695 0.0352 0.21875 0.082 0.42578 0.14454 0.59766 0.0195 0.0469 0.0898 0.14843 0.1875 0.27343 0.0117 0.0234 0.0195 0.043 0.0312 0.0664 0.33984 0.65235 5.8516 6.4648 12.246 12.91 6.3945 6.4492 17.441 17.625 24.555 24.836 7.1094 7.2109 18.484 18.746 25.273 25.629 6.7891 6.8867 12.688 12.973 13.102 13.531 0.0859 0.11719 0.1914 0.23047 0.30078 0.33985 0.33594 0.35156 0.68359 0.59765 1.1055 0.77734 0.20312 0.0977 0.41015 0.17969 0.61718 0.23047 1.2148 0.32422 2.0977 0.42969 2.7656 0.32422 0.0703-8e-3 0.14062-0.0195 0.20312-0.0352 0.10157-0.0234 0.19922-0.0508 0.28907-0.0859 0.0273-8e-3 0.0469-0.0312 0.0703-0.0547 0.0195-0.0117 0.043-0.0195 0.0625-0.0312 0.15625-0.0977 0.25-1.1406 0.30469-3.8047 8e-3 -0.33985 0.0156-0.76563 0.0195-1.168 4e-3 -0.15625 8e-3 -0.29687 8e-3 -0.46484 0.0547-3.6016 0.0664-9.4375 0.0625-19.328-4e-3 -14.586-0.14453-25.613-0.34375-27.012-0.0664-0.46093-0.14062-0.91406-0.22266-1.3672-0.0937-0.70313-0.20703-1.2383-0.35156-1.832-0.0508-0.21093-0.125-0.46093-0.1875-0.69921-0.34765-1.3945-0.76953-2.7461-1.2617-4.0547-0.0859-0.23438-0.17578-0.49219-0.2539-0.69531-0.25391-0.66016-0.56641-1.3438-0.92188-2.0391-3.2969-6.8281-8.7734-12.215-16.141-15.762-3-1.4414-4.9844-2.2656-8.8672-2.7383-0.4375-0.0547-0.89844-0.10547-1.418-0.15234h-0.0273c-0.0664-8e-3 -0.14453-0.0117-0.21094-0.0195-0.37109-0.0312-0.76172-0.0586-1.1836-0.0859-4.9531-0.33984-12.539-0.37109-25.949-0.375h-23.816z" fill="#262933"/><use transform="translate(-71.594 -759.86)" width="100%" height="100%" mask="url(#b)" xlink:href="#a"/><path d="m19.942-708.98c-0.30859 0-0.61719 0.0117-0.92578 0.0352h-0.35156l-0.03516 0.0469c-6.6172 0.6836-11.652 6.3477-11.66 13.113 0.0078 0.53516 0.04297 1.0742 0.11328 1.6055l-0.07031 0.0898 0.07813 127.29 0.07422 125.86c-0.0625 0.51172-0.09375 1.0274-0.09766 1.5391 0.0039 6.8398 5.1445 12.543 11.844 13.137l0.01172 8e-3 0.16016 4e-3c0.32031 0.0274 0.63672 0.043 0.95703 0.0469 0.32813 0 0.65234-0.0156 0.97656-0.0391l98.953 0.43359 97.586 0.0273c0.54687 0.0742 1.0976 0.11329 1.6484 0.11719 6.5977-4e-3 12.141-5.0391 12.883-11.707l0.19922-0.16406-4e-3 -51.254c-8e-3 -24.293-0.0391-59.809-0.0742-78.922l-0.0625-34.746-8.6367-8.6289c-4.75-4.75-8.6367-8.6992-8.6367-8.7812 0-0.082-10.227-10.422-22.723-22.977-12.5-12.555-32.41-32.563-44.246-44.461l-21.519-21.637h-105.77c-0.22266-0.0195-0.44922-0.0312-0.67188-0.0352z" fill="#fff"/><path d="m131.33-617.19-0.0806 72.328-0.0908 82.833-0.35889 0.0703c-0.1953 0.0391-21.797-3.7314-48.004-8.376-26.207-4.6406-47.929-8.5508-48.272-8.6836l-0.62549-0.2417v7.5l0.62549 0.2417c0.34374 0.13281 22.065 4.043 48.272 8.6836 26.207 4.6445 47.809 8.415 48.004 8.376l0.35889-0.0703 0.0908-82.833 0.0893-79.828z" opacity=".3"/><path d="m131.08-621.64c-0.50782 0-5.2383 0.76953-10.508 1.707-5.2734 0.94141-16.426 2.8828-24.785 4.3242-8.3594 1.4375-15.852 2.7891-16.648 3-0.79688 0.21485-8.1836 1.5195-16.418 2.8984-8.2344 1.3828-15.426 2.6602-15.977 2.8398s-3.5391 0.73438-6.6367 1.2383l-5.6367 0.91016v63.012c0 34.656 0.0391 63.012 0.0859 63.016 0.0469 4e-3 3.0352 0.54297 6.6406 1.1953 3.6094 0.65234 13.371 2.3789 21.695 3.832 8.3242 1.4531 15.438 2.7383 15.805 2.8555 0.3711 0.11328 7.7148 1.4258 16.312 2.9102 8.6016 1.4883 20.18 3.5078 25.73 4.4961 5.5508 0.98437 10.355 1.8047 10.68 1.8203 0.55859 0.0351 0.58984-3.9883 0.58984-80.008v-80.047z" fill="#4b4e5b" fill-rule="evenodd"/><path d="m136.79-605.01-0.27246 5.7114h66.335v113.92h-66.335l0.28858 7.1558 34.003-0.0981 34.008-0.0967 1.8603-0.84082c2.2891-1.0352 3.2612-2.7724 3.687-6.5889 0.16016-1.4141 0.2456-27.556 0.19483-58.099-0.0976-55.176-0.10108-55.535-0.82764-56.953-0.91017-1.7773-1.6372-2.4414-3.6724-3.3633-1.5742-0.71484-2.187-0.72607-35.433-0.73389zm38.899 29.969c-12.324-0.0156-24.621 0.10644-24.792 0.38379-0.12109 0.1953-1.333 7.7773-2.6924 16.852-1.3594 9.0703-2.5224 16.647-2.581 16.831-0.0625 0.1875-0.80908-1.8125-1.6567-4.4414-0.84375-2.6289-1.6992-4.9844-1.8984-5.2266-0.23047-0.28516-1.3203-0.44824-3-0.44824h-2.5503v13.854l2.1753 8.2852c1.2148 4.6172 2.3511 8.6138 2.5269 8.8872 0.25781 0.40234 1.2461 0.46143 5.1328 0.29737 2.75-0.11328 4.9844-0.37207 5.2148-0.59473 0.21876-0.21875 2.6572-9.831 5.4111-21.366l5.0112-20.969 5.7026-0.21826c3.1328-0.12109 11.735-0.24316 19.11-0.2666 9.8984-0.0391 13.523-0.16406 13.835-0.48047 0.29297-0.29297 0.4292-2.0195 0.4292-5.4609 0-3.4414-0.13623-5.1709-0.4292-5.4639-0.27735-0.27735-12.625-0.43457-24.949-0.4541zm17.454 18.902c-1.2891-0.0195-2.4189 0.0401-2.7861 0.16113-0.55469 0.17578-2.1006 1.9014-4.0811 4.5498-1.75 2.3438-3.2861 4.2656-3.4072 4.2656-0.1211 0-1.7148-1.9292-3.5391-4.2847-1.8945-2.4453-3.6484-4.3716-4.0898-4.481-0.42578-0.10936-2.0625-0.14798-3.6328-0.0893-2.582 0.0977-2.8667 0.17529-2.9604 0.85108-0.0586 0.41406 0.87549 2.4844 2.0903 4.6406 1.2109 2.1445 2.6636 4.7236 3.23 5.7275l1.0356 1.8281-3.4028 4.2422c-4.4336 5.5352-4.4219 5.6357 0.6211 5.7686l3.8276 0.10548 6.8057-6.148 3.6123 3.2856 3.6182 3.2842 3.4292-0.24902c1.8828-0.14063 3.5508-0.33252 3.7031-0.42627 0.67969-0.41798 0.0698-1.4844-3.1099-5.4492-1.8672-2.3242-3.394-4.312-3.394-4.4136 0-0.10548 1.6177-2.794 3.5903-5.9736 1.9766-3.1836 3.5386-6.0508 3.4761-6.375-0.0898-0.48438-0.70361-0.625-3.3208-0.77344-0.44141-0.0234-0.88574-0.0391-1.3154-0.0469z" fill="#4b4e5b"/><path d="m136.79-597.51-0.27246 5.7114h66.335v113.92h-66.335l0.28858 7.1558 34.003-0.0981 34.008-0.0967 1.8603-0.84083c2.2891-1.0352 3.2612-2.7724 3.687-6.5889 0.16016-1.4141 0.2456-27.556 0.19483-58.099-0.0976-55.176-0.10108-55.535-0.82764-56.953-0.91017-1.7773-1.6372-2.4414-3.6724-3.3633-1.5742-0.71484-2.187-0.72607-35.433-0.73389zm38.899 29.969c-12.324-0.0156-24.621 0.10644-24.792 0.38379-0.12109 0.1953-1.333 7.7773-2.6924 16.852-1.3594 9.0703-2.5224 16.647-2.581 16.831-0.0625 0.1875-0.80908-1.8125-1.6567-4.4414-0.84375-2.6289-1.6992-4.9844-1.8984-5.2266-0.23047-0.28516-1.3203-0.44824-3-0.44824h-2.5503v13.854l2.1753 8.2852c1.2148 4.6172 2.3511 8.6138 2.5269 8.8872 0.25781 0.40234 1.2461 0.46143 5.1328 0.29737 2.75-0.11328 4.9844-0.37207 5.2148-0.59473 0.21876-0.21875 2.6572-9.831 5.4111-21.366l5.0112-20.969 5.7026-0.21826c3.1328-0.12109 11.735-0.24316 19.11-0.2666 9.8984-0.0391 13.523-0.16406 13.835-0.48047 0.29297-0.29297 0.4292-2.0195 0.4292-5.4609 0-3.4414-0.13623-5.1709-0.4292-5.4639-0.27735-0.27735-12.625-0.43457-24.949-0.4541zm17.454 18.902c-1.2891-0.0195-2.4189 0.0401-2.7861 0.16113-0.55469 0.17578-2.1006 1.9014-4.0811 4.5498-1.75 2.3438-3.2861 4.2656-3.4072 4.2656-0.1211 0-1.7148-1.9292-3.5391-4.2847-1.8945-2.4453-3.6484-4.3716-4.0898-4.481-0.42578-0.10936-2.0625-0.14798-3.6328-0.0893-2.582 0.0977-2.8667 0.17529-2.9604 0.85108-0.0586 0.41406 0.87549 2.4844 2.0903 4.6406 1.2109 2.1445 2.6636 4.7236 3.23 5.7275l1.0356 1.8281-3.4028 4.2422c-4.4336 5.5352-4.4219 5.6357 0.6211 5.7686l3.8276 0.10548 6.8057-6.148 3.6123 3.2856 3.6182 3.2842 3.4292-0.24902c1.8828-0.14063 3.5508-0.33252 3.7031-0.42627 0.67969-0.41798 0.0698-1.4844-3.1099-5.4492-1.8672-2.3242-3.394-4.312-3.394-4.4136 0-0.10548 1.6177-2.794 3.5903-5.9736 1.9766-3.1836 3.5386-6.0508 3.4761-6.375-0.0898-0.48438-0.70361-0.625-3.3208-0.77344-0.44141-0.0234-0.88574-0.0391-1.3154-0.0469z" opacity=".3"/></g></svg>
