<svg version="1.1" viewBox="0 0 512 512" xmlns="http://www.w3.org/2000/svg" xmlns:xlink="http://www.w3.org/1999/xlink"><defs><radialGradient id="a" cx="365.9" cy="-121.31" r="77.057" gradientTransform="matrix(2.2708 0 .0005712 2.526 -464.29 747.29)" gradientUnits="userSpaceOnUse"><stop style="stop-color:#ffc730" offset="0"/><stop style="stop-color:#fd3535" offset="1"/></radialGradient><linearGradient id="f" x1="369.24" x2="369.24" y1="-117.55" y2="-183.12" gradientTransform="translate(0 564.67)" gradientUnits="userSpaceOnUse"><stop style="stop-color:#e5dfdd" offset="0"/><stop style="stop-color:#fff" offset="1"/></linearGradient><clipPath id="d"><path d="m111 119h177v23h-177z"/></clipPath><clipPath id="c"><path d="m177 130h45v89h-45z"/></clipPath><clipPath id="b"><path d="m111 207h177v89h-177z"/></clipPath><clipPath id="e"><rect width="384" height="384"/></clipPath><g clip-path="url(#e)"></g><linearGradient id="g" x1="332.25" x2="332.25" y1="411.79" y2="555.69" gradientUnits="userSpaceOnUse"><stop style="stop-color:#a16b3d" offset="0"/><stop style="stop-color:#714b2b" offset="1"/></linearGradient></defs><g transform="matrix(2.1456 0 0 2.1675 -542.26 -884.51)"><g transform="translate(5.8771 91.426)"><path d="m421.13 370.6-0.22191 7.9368-59.069 4.6472-44.514 28.901-10.548 48.313s7.1704 31.227 13.289 37.556c6.1185 6.3295 18.771 24.483 34.384 27.648s28.905 6.7415 41.564 3.5768c12.659-3.1648 21.108-6.9578 21.108-6.9578l5.2738-2.5325s-1.2979 1.1368-3.381 2.5977c25.191-16.15 41.877-44.403 41.877-76.548 0-31.236-15.756-58.786-39.762-75.138z" style="fill:url(#a)"/><path d="m407.74 341.56s2.2263-5.4915 4.3042-5.6399 3.2652 1.1874 4.601 2.6716c1.3358 1.4842 4.0073 3.7105 4.0073 3.7105s12.17-4.1557 25.825 3.2652 15.584 9.6473 18.256 14.842 1.4842 18.256 1.4842 18.256l1.5955 7.792-3.3766 4.3784-23.747-4.0073-28.348-20.927z" style="fill:#a16b3d"/><path d="m421.14 370.6-4.7188 6.4375-54.562 6.125-44.531 28.906-10.531 48.312s7.1627 31.233 13.281 37.562c6.1185 6.3295 18.762 24.492 34.375 27.656s28.904 6.7272 41.562 3.5625c12.659-3.1648 21.125-6.9375 21.125-6.9375l5.2812-2.5312s-1.3232 1.1328-3.4062 2.5938c2.8528-1.829 5.596-3.8413 8.2188-5.9688-14.618 9.149-32.447 13.748-42.562 13.75-37.585 0-68.062-30.446-68.062-68.031 0-13.269 3.2036-26.229 9.7188-36.781 4.5882 1.9701 9.419 5.3197 12.469 10.219 0.49071 0.70737 0.82821 1.5184 1.375 2.1875 2.6922 3.2942 5.6 4.1465 8.5312 4.2812 6.2637 0.18237 9.221-4.494 9.5-10.781 8e-3 -0.4932 0.0453-0.24655 0.0107-0.67835-0.19809-4.1901-6.3732-19.672-16.636-21.447 1.7962-1.3822 3.668-2.6739 5.625-3.8438 6.6097-3.9511 20.654-8.4351 40.125-5.5 9.8747 1.4885 17.965 3.6168 30.438 7.5938 14.475 4.6156 22.519 11.062 33.656 12.344 1.8741 0.21564 3.7659 0.12973 5.5938-0.21875-6.0727-20.1-18.904-37.252-35.875-48.812z" style="fill-opacity:.15686"/><path d="m364.27 330.98c-56.867 0-102.97 46.101-102.97 102.97 0 56.867 46.312 104.54 102.97 104.54 36.962 1.0986 71.25-16.112 82.552-44.152-4.1701 1.9244-8.7572 6.5597-12.216 9.5936-6.5212 5.7205-13.596 6.8798-22.59 11.564-17.433 9.0804-36.288 7.8744-53.877 4.0099-14.297-3.1411-29.978-10.133-38.393-21.316s-13.355-37.742-13.355-37.742l10.6-48.552 44.734-29.044 59.361-4.6702 0.22301-7.9761c8.9613 6.1042 16.776 13.767 23.062 22.59h14.299c-15.883-36.38-52.168-61.815-94.401-61.815z" style="fill:url(#g)"/><path d="m402.89 361.82c-19.941 0.10177-31.554 2.4131-52.246 11.247-26.251 12.212-52.607 35.077-52.755 72.449-0.17297 43.553 35.315 78.856 78.869 78.856 22.506 0 46.742-8.2215 61.108-23.342-15.462 12.947-40.943 17.048-52.974 17.051-37.585 0-68.309-27.961-68.309-65.546 0-23.748 11.64-41.243 30.606-52.58 6.6097-3.9511 20.645-8.4449 40.117-5.5098 9.8747 1.4885 17.963 3.6187 30.435 7.5956 14.475 4.6156 22.538 11.063 33.675 12.345 12.684 1.4594 26.083-10.493 16.188-29.084 0 0-1.7935 1.7897-3.2928 2.6893s-3.5926-0.28861-9.5897-2.3876c-5.9971-2.099-6.9004-4.509-15.296-10.206-8.3959-5.6972-8.3921-11.987-32.98-13.486-1.1526-0.0703-2.3448-0.10399-3.5551-0.0918z" style="fill:url(#f)"/><circle transform="matrix(.43552 0 0 .43552 200.99 207.89)" cx="542.14" cy="384.51" r="17.857"/><circle transform="matrix(.22577 0 0 .28084 343.48 272.83)" cx="542.14" cy="384.51" r="17.857"/><path d="m334.29 381.21c-5.0673 1.234-17.416 4.2329-24.752 14.19-7.0462 9.5628-6.4744 20.712-6.6314 23.681 2.0405-3.2847 7.6266-2.8188 11.478-2.223 9.0808 1.4048 18.393 3.8222 24.215 13.174 0.49071 0.70737 0.83913 1.5244 1.3859 2.1935 2.6922 3.2942 5.6018 4.1391 8.5331 4.2738 6.2637 0.18237 9.2212-4.4931 9.5003-10.78 8e-3 -0.4932 2e-3 -0.25694-0.0327-0.68874-0.20697-4.378-6.9274-21.079-18.013-21.593-0.12354-4e-3 -0.24871-3e-3 -0.37117-0.0108-6.149-0.3757-10.928-5.6133-10.749-11.865 0.61735-4.0502 2.5082-7.2531 6.2185-9.8523z" style="fill:#a16b3d"/><path d="m463.83 388.19s-1.0096 1.7448-3.187 2.7905c-0.89408 0.42937-2.4642-0.6477-3.9379 0.84949-3.1291 6.281 4.5148 11.525 8.0769 11.377 3.5621-0.14842 6.3723-3.7375 6.2239-6.8543-0.14844-4.8236-7.1759-8.1623-7.1759-8.1623z"/><circle cx="437.11" cy="378.73" r="7.7772" style="opacity:.3"/><path d="m364.27 330.98c-56.867 0-102.97 46.101-102.97 102.97 0 0.88855 0.0168 1.766 0.0395 2.65 1.4302-55.62 46.963-100.27 102.93-100.27 15.678 0 30.543 3.5046 43.842 9.7733 0.70651-1.5265 2.3542-4.7147 3.9356-4.8276 2.0778-0.14841 3.2557 1.192 4.5915 2.6762 1.3358 1.4842 4.0143 3.7126 4.0143 3.7126s12.163-4.1545 25.817 3.2665c13.655 7.421 15.589 9.6424 18.261 14.837 1.1117 2.1616 1.5538 5.6859 1.6923 9.0649 0.14458-4.2719 0.0599-11.01-1.6923-14.417-2.6716-5.1947-4.6064-7.4161-18.261-14.837-13.655-7.421-25.817-3.2665-25.817-3.2665s-2.6785-2.2284-4.0143-3.7126c-1.3358-1.4842-2.5136-2.8246-4.5915-2.6762-1.5814 0.11296-3.2291 3.3012-3.9356 4.8276-13.299-6.2687-28.164-9.7733-43.842-9.7733z" style="fill:#fff;opacity:.1"/><ellipse cx="465.88" cy="384.2" rx="4.0316" ry="5.015" style="opacity:.3"/><path d="m463.83 391.57s-1.0096 1.7448-3.187 2.7905c-0.89408 0.42937-2.4642-0.6477-3.9379 0.84949-3.1291 6.281 4.5148 11.525 8.0769 11.377 3.5621-0.14842 6.3723-3.7375 6.2239-6.8543-0.14844-4.8236-7.1759-8.1623-7.1759-8.1623z" style="opacity:.3"/><path transform="matrix(.46608 0 0 .46135 258.92 328.6)" d="m5.1855 223.27c-0.037144 1.6844-0.064453 3.371-0.064453 5.0645 0 123.26 99.367 226.58 220.93 226.6 79.305 2.3812 152.87-34.924 177.12-95.701-2.1829 1.0177-4.4189 2.3892-6.6602 3.9707-29.264 52.457-97.429 83.923-170.46 81.73-119.93-0.01347-218.25-100.59-220.86-221.66z" style="opacity:.3"/></g></g></svg>
