<svg xmlns="http://www.w3.org/2000/svg" width="512" height="512" version="1.1" viewBox="0 0 384 384"> <g transform="matrix(1.1111111,0,0,1.1111111,-21.333331,-21.333331)"> <g> <path style="fill:rgb(20.000%,20.000%,20.000%)" d="M 343.875,192 C 343.875,275.87891 275.87891,343.875 192,343.875 108.12109,343.875 40.125,275.87891 40.125,192 40.125,108.12109 108.12109,40.125 192,40.125 c 83.87891,0 151.875,67.99609 151.875,151.875 z m 0,0"/> <path style="fill:rgb(29.803%,29.803%,29.803%)" d="m 255.28125,192 c 0,34.94922 -28.33203,63.28125 -63.28125,63.28125 -34.94922,0 -63.28125,-28.33203 -63.28125,-63.28125 0,-34.94922 28.33203,-63.28125 63.28125,-63.28125 34.94922,0 63.28125,28.33203 63.28125,63.28125 z m 0,0"/> <path style="fill:rgb(12.549%,65.882%,68.627%)" d="m 238.40625,192 c 0,25.62891 -20.77734,46.40625 -46.40625,46.40625 -25.62891,0 -46.40625,-20.77734 -46.40625,-46.40625 0,-25.62891 20.77734,-46.40625 46.40625,-46.40625 25.62891,0 46.40625,20.77734 46.40625,46.40625 z m 0,0"/> <path style="fill:rgb(20.000%,20.000%,20.000%)" d="m 196.21875,192 c 0,2.32812 -1.89063,4.21875 -4.21875,4.21875 -2.32813,0 -4.21875,-1.89063 -4.21875,-4.21875 0,-2.33203 1.89062,-4.21875 4.21875,-4.21875 2.32812,0 4.21875,1.88672 4.21875,4.21875 z m 0,0"/> <path style="fill:none;stroke:rgb(29.803%,29.803%,29.803%);stroke-width:1.12499905" d="m 457.79687,796.3622 c 0,111.44792 -90.34895,201.79688 -201.79687,201.79688 -111.44792,0 -201.796875,-90.34896 -201.796875,-201.79688 0,-111.44792 90.348955,-201.79687 201.796875,-201.79687 111.44792,0 201.79687,90.34895 201.79687,201.79687 z m 0,0" transform="matrix(0.75,0,0,0.75,0,-405.27165)"/> <path style="fill:none;stroke:rgb(29.803%,29.803%,29.803%);stroke-width:1.125" d="m 446.55208,796.3622 c 0,105.23958 -85.3125,190.55208 -190.55208,190.55208 -105.23958,0 -190.552083,-85.3125 -190.552083,-190.55208 0,-105.23958 85.312503,-190.55208 190.552083,-190.55208 105.23958,0 190.55208,85.3125 190.55208,190.55208 z m 0,0" transform="matrix(0.75,0,0,0.75,0,-405.27165)"/> <path style="fill:none;stroke:rgb(29.803%,29.803%,29.803%);stroke-width:1.125" d="m 440.92708,796.3622 c 0,102.13021 -82.79687,184.92708 -184.92708,184.92708 -102.13021,0 -184.927083,-82.79687 -184.927083,-184.92708 0,-102.13021 82.796873,-184.92708 184.927083,-184.92708 102.13021,0 184.92708,82.79687 184.92708,184.92708 z m 0,0" transform="matrix(0.75,0,0,0.75,0,-405.27165)"/> <path style="fill:none;stroke:rgb(29.803%,29.803%,29.803%);stroke-width:1.125" d="m 435.30208,796.3622 c 0,99.02604 -80.27604,179.30208 -179.30208,179.30208 -99.02604,0 -179.302083,-80.27604 -179.302083,-179.30208 0,-99.02604 80.276043,-179.30208 179.302083,-179.30208 99.02604,0 179.30208,80.27604 179.30208,179.30208 z m 0,0" transform="matrix(0.75,0,0,0.75,0,-405.27165)"/> <path style="fill:none;stroke:rgb(29.803%,29.803%,29.803%);stroke-width:1.125" d="m 429.67708,796.3622 c 0,95.91667 -77.76041,173.67708 -173.67708,173.67708 -95.91667,0 -173.677083,-77.76041 -173.677083,-173.67708 0,-95.91667 77.760413,-173.67708 173.677083,-173.67708 95.91667,0 173.67708,77.76041 173.67708,173.67708 z m 0,0" transform="matrix(0.75,0,0,0.75,0,-405.27165)"/> <path style="fill:none;stroke:rgb(29.803%,29.803%,29.803%);stroke-width:1.125" d="m 424.05208,796.3622 c 0,92.8125 -75.23958,168.05208 -168.05208,168.05208 -92.8125,0 -168.052083,-75.23958 -168.052083,-168.05208 0,-92.8125 75.239583,-168.05208 168.052083,-168.05208 92.8125,0 168.05208,75.23958 168.05208,168.05208 z m 0,0" transform="matrix(0.75,0,0,0.75,0,-405.27165)"/> <path style="fill:none;stroke:rgb(29.803%,29.803%,29.803%);stroke-width:5.62499714" d="m 418.42708,796.3622 c 0,89.70833 -72.71875,162.42708 -162.42708,162.42708 -89.70833,0 -162.427083,-72.71875 -162.427083,-162.42708 0,-89.70833 72.718753,-162.42708 162.427083,-162.42708 89.70833,0 162.42708,72.71875 162.42708,162.42708 z m 0,0" transform="matrix(0.75,0,0,0.75,0,-405.27165)"/> <path style="fill:none;stroke:rgb(29.803%,29.803%,29.803%);stroke-width:1.125" d="m 412.80208,796.3622 c 0,86.59896 -70.20312,156.80208 -156.80208,156.80208 -86.59896,0 -156.802083,-70.20312 -156.802083,-156.80208 0,-86.59896 70.203123,-156.80208 156.802083,-156.80208 86.59896,0 156.80208,70.20312 156.80208,156.80208 z m 0,0" transform="matrix(0.75,0,0,0.75,0,-405.27165)"/> <path style="fill:none;stroke:rgb(29.803%,29.803%,29.803%);stroke-width:1.125" d="m 407.17708,796.3622 c 0,83.49479 -67.68229,151.17708 -151.17708,151.17708 -83.49479,0 -151.17708,-67.68229 -151.17708,-151.17708 0,-83.49479 67.68229,-151.17708 151.17708,-151.17708 83.49479,0 151.17708,67.68229 151.17708,151.17708 z m 0,0" transform="matrix(0.75,0,0,0.75,0,-405.27165)"/> <path style="fill:none;stroke:rgb(29.803%,29.803%,29.803%);stroke-width:1.125" d="m 401.55208,796.3622 c 0,80.38542 -65.16666,145.55208 -145.55208,145.55208 -80.38542,0 -145.55208,-65.16666 -145.55208,-145.55208 0,-80.38542 65.16666,-145.55208 145.55208,-145.55208 80.38542,0 145.55208,65.16666 145.55208,145.55208 z m 0,0" transform="matrix(0.75,0,0,0.75,0,-405.27165)"/> <path style="fill:none;stroke:rgb(29.803%,29.803%,29.803%);stroke-width:1.125" d="m 395.92708,796.3622 c 0,77.28125 -62.64583,139.92708 -139.92708,139.92708 -77.28125,0 -139.92708,-62.64583 -139.92708,-139.92708 0,-77.28125 62.64583,-139.92708 139.92708,-139.92708 77.28125,0 139.92708,62.64583 139.92708,139.92708 z m 0,0" transform="matrix(0.75,0,0,0.75,0,-405.27165)"/> <path style="fill:none;stroke:rgb(29.803%,29.803%,29.803%);stroke-width:1.125" d="m 390.30208,796.3622 c 0,74.17188 -60.13021,134.30208 -134.30208,134.30208 -74.17188,0 -134.30208,-60.1302 -134.30208,-134.30208 0,-74.17187 60.1302,-134.30208 134.30208,-134.30208 74.17187,0 134.30208,60.13021 134.30208,134.30208 z m 0,0" transform="matrix(0.75,0,0,0.75,0,-405.27165)"/> <path style="fill:none;stroke:rgb(29.803%,29.803%,29.803%);stroke-width:1.12499905" d="m 384.67708,796.3622 c 0,71.06771 -57.60937,128.67708 -128.67708,128.67708 -71.06771,0 -128.67708,-57.60937 -128.67708,-128.67708 0,-71.06771 57.60937,-128.67708 128.67708,-128.67708 71.06771,0 128.67708,57.60937 128.67708,128.67708 z m 0,0" transform="matrix(0.75,0,0,0.75,0,-405.27165)"/> <path style="fill:none;stroke:rgb(29.803%,29.803%,29.803%);stroke-width:5.62499809" d="m 379.05208,796.3622 c 0,67.95833 -55.09375,123.05208 -123.05208,123.05208 -67.95833,0 -123.05208,-55.09375 -123.05208,-123.05208 0,-67.95833 55.09375,-123.05208 123.05208,-123.05208 67.95833,0 123.05208,55.09375 123.05208,123.05208 z m 0,0" transform="matrix(0.75,0,0,0.75,0,-405.27165)"/> <path style="fill:none;stroke:rgb(29.803%,29.803%,29.803%);stroke-width:1.125" d="m 373.42708,796.3622 c 0,64.85417 -52.57291,117.42708 -117.42708,117.42708 -64.85417,0 -117.42708,-52.57291 -117.42708,-117.42708 0,-64.85417 52.57291,-117.42708 117.42708,-117.42708 64.85417,0 117.42708,52.57291 117.42708,117.42708 z m 0,0" transform="matrix(0.75,0,0,0.75,0,-405.27165)"/> <path style="fill:none;stroke:rgb(29.803%,29.803%,29.803%);stroke-width:1.125" d="m 367.80208,796.3622 c 0,61.75 -50.05208,111.80208 -111.80208,111.80208 -61.75,0 -111.80208,-50.05208 -111.80208,-111.80208 0,-61.75 50.05208,-111.80208 111.80208,-111.80208 61.75,0 111.80208,50.05208 111.80208,111.80208 z m 0,0" transform="matrix(0.75,0,0,0.75,0,-405.27165)"/> <path style="fill:none;stroke:rgb(29.803%,29.803%,29.803%);stroke-width:1.125" d="m 362.17708,796.3622 c 0,58.64063 -47.53646,106.18229 -106.17708,106.18229 -58.64063,0 -106.17708,-47.54166 -106.17708,-106.18229 0,-58.64062 47.53645,-106.17708 106.17708,-106.17708 58.64062,0 106.17708,47.53646 106.17708,106.17708 z m 0,0" transform="matrix(0.75,0,0,0.75,0,-405.27165)"/> <path style="fill:none;stroke:rgb(29.803%,29.803%,29.803%);stroke-width:1.125" d="m 356.5625,796.3622 c 0,55.53646 -45.02604,100.5625 -100.5625,100.5625 -55.53646,0 -100.5625,-45.02604 -100.5625,-100.5625 0,-55.53646 45.02604,-100.5625 100.5625,-100.5625 55.53646,0 100.5625,45.02604 100.5625,100.5625 z m 0,0" transform="matrix(0.75,0,0,0.75,0,-405.27165)"/> <path style="fill:none;stroke:rgb(29.803%,29.803%,29.803%);stroke-width:1.125" d="m 350.93229,796.3622 c 0,52.42708 -42.50521,94.93229 -94.93229,94.93229 -52.42708,0 -94.93229,-42.50521 -94.93229,-94.93229 0,-52.42708 42.50521,-94.93229 94.93229,-94.93229 52.42708,0 94.93229,42.50521 94.93229,94.93229 z m 0,0" transform="matrix(0.75,0,0,0.75,0,-405.27165)"/> <path style="fill:none;stroke:rgb(29.803%,29.803%,29.803%);stroke-width:1.125" d="m 345.30729,796.3622 c 0,49.32292 -39.98437,89.30729 -89.30729,89.30729 -49.32292,0 -89.30729,-39.98437 -89.30729,-89.30729 0,-49.32292 39.98437,-89.30729 89.30729,-89.30729 49.32292,0 89.30729,39.98437 89.30729,89.30729 z m 0,0" transform="matrix(0.75,0,0,0.75,0,-405.27165)"/> <path style="fill:none;stroke:rgb(29.803%,29.803%,29.803%);stroke-width:5.62499809" d="m 455.6875,796.3622 c 0,110.28646 -89.40104,199.6875 -199.6875,199.6875 -110.28646,0 -199.6875,-89.40104 -199.6875,-199.6875 0,-110.28646 89.40104,-199.6875 199.6875,-199.6875 110.28646,0 199.6875,89.40104 199.6875,199.6875 z m 0,0" transform="matrix(0.75,0,0,0.75,0,-405.27165)"/> <path d="M 31.064453 251 C 31.028171 252.66321 31 254.32808 31 256 C 31 380.26505 131.73495 481 256 481 C 380.26505 481 481 380.26505 481 256 C 481 254.32808 480.97183 252.66321 480.93555 251 C 478.27514 372.9547 378.59313 471 256 471 C 133.40687 471 33.72486 372.9547 31.064453 251 z" transform="matrix(0.67500001,0,0,0.67500001,19.199998,19.199998)" style="fill:rgb(9.803%,9.803%,9.803%)"/> <path style="fill:rgb(100.000%,100.000%,100.000%);opacity:0.3" d="m 40.168504,195.375 c -0.02449,-1.12266 -0.04351,-2.24645 -0.04351,-3.375 0,-83.87891 67.996096,-151.875 151.875006,-151.875 83.87891,0 151.875,67.99609 151.875,151.875 0,1.12855 -0.019,2.25234 -0.0435,3.375 C 342.03572,113.05558 274.75036,46.875 192,46.875 c -82.75036,0 -150.035725,66.18058 -151.8315,148.5 z"/> </g> </g> </svg>
