<svg xmlns="http://www.w3.org/2000/svg" xmlns:xlink="http://www.w3.org/1999/xlink" width="512" height="512" version="1.1" viewBox="0 0 384 384"> <defs> <filter id="alpha" width="100%" height="100%" x="0%" y="0%" filterUnits="objectBoundingBox"> <feColorMatrix in="SourceGraphic" type="matrix" values="0 0 0 0 1 0 0 0 0 1 0 0 0 0 1 0 0 0 1 0"/> </filter> <mask id="mask0"> <g filter="url(#alpha)"> <rect width="384" height="384" x="0" y="0" style="fill:rgb(0%,0%,0%);fill-opacity:0.2"/> </g> </mask> <clipPath id="clip1"> <rect width="384" height="384" x="0" y="0"/> </clipPath> <g id="surface5" clip-path="url(#clip1)"> <path style="fill:rgb(0%,0%,0%)" d="M 360 198 C 360 105.214844 284.785156 30 192 30 C 99.214844 30 24 105.214844 24 198 C 24 290.785156 99.214844 366 192 366 C 284.785156 366 360 290.785156 360 198 Z M 360 198"/> </g> <mask id="mask1"> <g filter="url(#alpha)"> <rect width="384" height="384" x="0" y="0" style="fill:rgb(0%,0%,0%);fill-opacity:0.2"/> </g> </mask> <clipPath id="clip2"> <rect width="384" height="384" x="0" y="0"/> </clipPath> <g id="surface8" clip-path="url(#clip2)"> <path style="fill:rgb(0%,0%,0%)" d="M 219.851562 315.261719 C 225.917969 313.6875 237.445312 310.453125 242.382812 308.074219 C 252.414062 303.234375 264 297.269531 264 294.003906 C 257.625 282.960938 249.511719 269.886719 240 264.007812 C 247.0625 259.453125 253.441406 255.363281 252 247.203125 C 252 247.203125 249.636719 245.328125 254.75 241.382812 C 275.75 220.308594 306.792969 194.605469 318 169.589844 C 318 163.136719 314.332031 161.738281 304.660156 162.003906 C 299.964844 162.132812 284.304688 161.832031 269.867188 162.003906 C 243.773438 162.308594 234.0625 162.003906 234.0625 162.003906 C 234.0625 162.003906 206.792969 161.492188 198.476562 168.066406 C 177.449219 184.691406 167.992188 183.671875 150.386719 189.535156 C 133.984375 195 133.199219 187.203125 133.199219 226.207031 C 129.640625 248.285156 136.046875 270.300781 120.996094 289.921875 C 119.167969 292.332031 119.605469 293.453125 124.425781 298.660156 C 133.964844 308.957031 150.464844 312.957031 168.808594 316.53125 C 181.226562 318.953125 208.191406 318.277344 219.851562 315.261719 Z M 219.851562 315.261719"/> </g> <mask id="mask2"> <g filter="url(#alpha)"> <rect width="384" height="384" x="0" y="0" style="fill:rgb(0%,0%,0%);fill-opacity:0.2"/> </g> </mask> <clipPath id="clip3"> <rect width="384" height="384" x="0" y="0"/> </clipPath> <g id="surface11" clip-path="url(#clip3)"> <path style="fill:rgb(0%,0%,0%)" d="M 162 113.871094 C 132 113.871094 108 141.308594 108 171.464844 C 108 184.4375 112.550781 201.136719 120.109375 210.503906 C 121.773438 214.773438 120.046875 218.304688 120 219.25 C 119.839844 222.464844 126.859375 223.855469 145.652344 217.789062 C 167.382812 210.773438 176.609375 204.558594 199.21875 186.402344 C 207.675781 179.613281 215.613281 170.792969 225.070312 166.460938 C 233.269531 162.707031 240 162.066406 240 161.261719 C 240 152.863281 229.191406 151.242188 223.199219 150.464844 L 216.453125 150.464844 C 208.207031 130.769531 192 113.871094 162 113.871094 Z M 162 113.871094"/> </g> <mask id="mask3"> <g filter="url(#alpha)"> <rect width="384" height="384" x="0" y="0" style="fill:rgb(0%,0%,0%);fill-opacity:0.2"/> </g> </mask> <clipPath id="clip4"> <rect width="384" height="384" x="0" y="0"/> </clipPath> <g id="surface14" clip-path="url(#clip4)"> <path style="fill:rgb(0%,0%,0%)" d="M 336 168 C 336 177.941406 327.941406 186 318 186 C 308.058594 186 300 177.941406 300 168 C 300 158.058594 308.058594 150 318 150 C 327.941406 150 336 158.058594 336 168 Z M 336 168"/> </g> <mask id="mask4"> <g filter="url(#alpha)"> <rect width="384" height="384" x="0" y="0" style="fill:rgb(0%,0%,0%);fill-opacity:0.2"/> </g> </mask> <clipPath id="clip5"> <rect width="384" height="384" x="0" y="0"/> </clipPath> <g id="surface17" clip-path="url(#clip5)"> <path style="fill:rgb(0%,0%,0%)" d="M 205.828125 255.96875 C 199 253.679688 190.210938 247.460938 183.410156 240.109375 C 179.601562 235.992188 179.222656 235.015625 181.089844 234.125 C 182.480469 233.460938 186.707031 235.550781 192.292969 239.664062 C 202.375 247.085938 211.910156 251.535156 218.273438 251.777344 C 220.628906 251.867188 224.050781 252.492188 225.878906 253.167969 C 229.023438 254.324219 228.917969 254.492188 223.882812 256.300781 C 217.324219 258.65625 213.640625 258.585938 205.828125 255.96875 Z M 205.828125 255.96875"/> </g> <mask id="mask5"> <g filter="url(#alpha)"> <rect width="384" height="384" x="0" y="0" style="fill:rgb(0%,0%,0%);fill-opacity:0.101961"/> </g> </mask> <clipPath id="clip6"> <rect width="384" height="384" x="0" y="0"/> </clipPath> <g id="surface20" clip-path="url(#clip6)"> <path style="fill:rgb(100.000%,100.000%,100.000%)" d="M 192 24 C 98.929688 24 24 98.929688 24 192 C 24 192.679688 24.066406 193.34375 24.105469 194.015625 C 26.214844 102.804688 100.265625 30 192 30 C 283.734375 30 357.785156 102.804688 359.894531 194.015625 C 359.933594 193.34375 360 192.679688 360 192 C 360 98.929688 285.070312 24 192 24 Z M 192 24"/> </g> </defs> <g> <use mask="url(#mask0)" xlink:href="#surface5"/> <path style="fill:rgb(37.647%,38.823%,43.137%)" d="M 360 192 C 360 99.214844 284.785156 24 192 24 C 99.214844 24 24 99.214844 24 192 C 24 284.785156 99.214844 360 192 360 C 284.785156 360 360 284.785156 360 192 Z M 360 192"/> <use mask="url(#mask1)" xlink:href="#surface8"/> <path style="fill:rgb(70.588%,53.725%,39.215%)" d="M 219.851562 309.257812 C 225.917969 307.6875 237.445312 304.453125 242.382812 302.070312 C 252.414062 297.234375 264 291.265625 264 288 C 257.625 276.957031 249.511719 263.886719 240 258.003906 C 247.0625 253.449219 253.441406 249.363281 252 241.199219 C 252 241.199219 249.636719 239.328125 254.75 235.378906 C 275.75 214.308594 306.792969 188.601562 318 163.589844 C 318 157.136719 314.332031 155.734375 304.660156 156 C 299.964844 156.128906 284.304688 155.832031 269.867188 156 C 243.773438 156.304688 234.0625 156 234.0625 156 C 234.0625 156 206.792969 155.492188 198.476562 162.066406 C 177.449219 178.691406 167.992188 177.667969 150.386719 183.535156 C 133.984375 189 133.199219 181.199219 133.199219 220.203125 C 129.640625 242.285156 136.046875 264.300781 120.996094 283.917969 C 119.167969 286.332031 119.605469 287.449219 124.425781 292.65625 C 133.964844 302.957031 150.464844 306.957031 168.808594 310.53125 C 181.226562 312.949219 208.191406 312.277344 219.851562 309.257812 Z M 219.851562 309.257812"/> <path style="fill:rgb(100.000%,100.000%,100.000%)" d="M 205.828125 249.964844 C 199 247.675781 190.210938 241.460938 183.410156 234.109375 C 179.601562 229.992188 179.222656 229.011719 181.089844 228.121094 C 182.480469 227.457031 186.707031 229.546875 192.292969 233.664062 C 202.375 241.085938 211.910156 245.53125 218.273438 245.777344 C 220.628906 245.867188 224.050781 246.492188 225.878906 247.164062 C 229.023438 248.320312 228.917969 248.488281 223.882812 250.296875 C 217.324219 252.652344 213.640625 252.585938 205.828125 249.964844 Z M 205.828125 249.964844"/> <use mask="url(#mask2)" xlink:href="#surface11"/> <path style="fill:rgb(100.000%,80.000%,26.666%)" d="M 162 108 C 132 108 108 135.4375 108 165.59375 C 108 178.566406 112.550781 195.265625 120.109375 204.632812 C 121.773438 208.902344 120.046875 212.4375 120 213.378906 C 119.839844 216.59375 126.859375 217.984375 145.652344 211.917969 C 167.382812 204.902344 176.609375 198.6875 199.21875 180.535156 C 207.675781 173.742188 215.613281 164.921875 225.070312 160.59375 C 233.269531 156.839844 240 156.195312 240 155.390625 C 240 146.992188 229.191406 145.371094 223.199219 144.59375 L 216.453125 144.59375 C 208.207031 124.898438 192 108 162 108 Z M 162 108"/> <use mask="url(#mask3)" xlink:href="#surface14"/> <path style="fill:rgb(97.647%,88.235%,46.666%)" d="M 336 162 C 336 171.941406 327.941406 180 318 180 C 308.058594 180 300 171.941406 300 162 C 300 152.058594 308.058594 144 318 144 C 327.941406 144 336 152.058594 336 162 Z M 336 162"/> <use mask="url(#mask4)" xlink:href="#surface17"/> <use mask="url(#mask5)" xlink:href="#surface20"/> </g> </svg>
