<svg width="512" height="512" version="1.1" viewBox="0 0 384 384" xmlns="http://www.w3.org/2000/svg"><defs><clipPath><rect width="384" height="384"/></clipPath><clipPath><rect width="384" height="384"/></clipPath><clipPath><rect width="384" height="384"/></clipPath><clipPath><rect width="384" height="384"/></clipPath></defs><path d="m135.45 24c12.406 9.918 20.555 24.984 20.555 42 0 29.68-24.324 54-54 54-17.016 0-32.082-8.1445-42-20.555v224.55c0 22.309 19.684 36 42 36 22.32 0 42-13.68 42-36v-84h17.531l-7.5938-10.848v-0.023438l-0.027344-0.023437c-6.4297-9.0977-9.8867-19.945-9.9102-31.082v-0.023438c0-29.676 24.324-54 54-54 18.562 0.011719 35.867 9.5898 45.73 25.309l33.469 47.797c28.32-22.453 46.789-57.266 46.801-85.105 0-59.645-48.348-108-108-108z" fill="#18a086"/><path d="m144 66c0 23.195-18.805 42-42 42s-42-18.805-42-42 18.805-42 42-42 42 18.805 42 42z" fill="#8b41aa"/><path d="m198 156c-23.195 0-42 18.805-42 42 0.015625 8.6172 2.6836 17.02 7.6406 24.07l84 120c7.8477 11.219 20.668 17.91 34.363 17.93 23.195 0 42-18.805 42-42-0.019531-8.6172-2.6875-17.023-7.6406-24.07l-84-120c-7.8477-11.223-20.672-17.91-34.363-17.93z" fill="#8b41aa"/><path transform="scale(.75)" d="m136 32c-30.927 0-56 25.073-56 56 0 1.6867 0.088341 3.3512 0.23438 5 2.5316-28.583 26.525-51 55.766-51s53.234 22.417 55.766 51c0.14604-1.6488 0.23438-3.3133 0.23438-5 0-30.927-25.073-56-56-56zm44.594 0c3.7479 2.9962 7.2 6.3486 10.305 10h97.102c77.632 0 140.89 61.426 143.88 138.32 0.07241-1.4503 0.12049-2.8921 0.12109-4.3164 0-79.526-64.464-144-144-144h-107.41zm27.217 60.934c-2.5637 37.296-33.902 67.066-71.811 67.066-22.688 0-42.776-10.859-56-27.406v10c13.224 16.547 33.312 27.406 56 27.406 39.568 0 72-32.427 72-72 0-1.7048-0.06897-3.3928-0.18945-5.0664zm56.189 115.07c-30.927 0-56 25.073-56 56 0.00301 1.6602 0.08711 3.3134 0.23633 4.957 2.5518-28.562 26.538-50.957 55.764-50.957 18.255 0.02604 35.355 8.9427 45.818 23.906l112 160c5.6527 8.0421 9.0646 17.413 9.9492 27.15 0.14935-1.6671 0.23828-3.3507 0.23828-5.0566-0.026-11.49-3.5833-22.698-10.188-32.094l-112-160c-10.464-14.964-27.563-23.88-45.818-23.906zm-71.809 61.033c-0.11375 1.6434-0.19141 3.2961-0.19141 4.9668v0.03125c0.03125 14.849 4.6399 29.311 13.213 41.441l0.03711 0.03125v0.03125l3.125 4.4648h7l-10.125-14.465v-0.03125l-0.03711-0.03125c-7.6069-10.763-12.085-23.363-13.021-36.439z" fill="#fff" opacity=".3" stroke-width="1.3333"/><path transform="scale(.75)" d="m180.59 32c15.297 12.229 25.73 30.33 27.215 50.926 0.11188-1.6302 0.19141-3.2687 0.19141-4.9258 0-17.547-6.5038-33.536-17.102-46h-10.305zm-100.36 51c-0.14603 1.6488-0.23438 3.3133-0.23438 5 0 30.927 25.073 56 56 56 30.927 0 56-25.073 56-56 0-1.6867-0.0903-3.3512-0.23633-5-2.5316 28.583-26.523 51-55.764 51-29.24 0-53.234-22.417-55.766-51zm351.64 87.311c-1.8126 36.346-25.964 80.372-62.277 109.16l-44.625-63.729c-13.151-20.958-36.225-33.729-60.975-33.744-39.568 0-72 32.432-72 72v0.03125c0.00352 1.6734 0.07249 3.3412 0.1914 5.002 2.5801-37.277 33.912-67.033 71.809-67.033 24.75 0.0156 47.824 12.786 60.975 33.744l44.625 63.729c37.76-29.938 62.385-76.353 62.4-113.47 0-1.9063-0.04965-3.8012-0.12305-5.6894zm-223.64 88.646c-0.14855 1.6626-0.23633 3.3417-0.23633 5.043 0.0208 11.49 3.5781 22.693 10.188 32.094l112 160c10.464 14.958 27.558 23.88 45.818 23.906 30.927 0 55.998-25.073 55.998-56-0.00375-1.6567-0.08914-3.3068-0.23828-4.9473-2.5564 28.558-26.537 50.947-55.76 50.947-18.26-0.02604-35.355-8.9479-45.818-23.906l-112-160c-5.6544-8.0427-9.0677-17.405-9.9512-27.137zm-16.236 51.043v10h23.375l-7-10h-16.375zm-112 112v10c0 29.745 26.245 48 56 48 29.76 0 56-18.24 56-48v-10c0 29.76-26.24 48-56 48-29.755 0-56-18.255-56-48z" opacity=".3" stroke-width="1.3333"/></svg>
