<svg width="512" height="512" version="1.1" viewBox="0 0 384 384" xmlns="http://www.w3.org/2000/svg"><defs><clipPath><rect width="384" height="384"/></clipPath></defs><path d="m192 33.059c-87.781 0-158.95 71.16-158.95 158.94s71.164 158.94 158.95 158.94c87.777 0 158.94-71.16 158.94-158.94s-71.164-158.94-158.94-158.94zm0 115.59c23.941 0 43.348 19.406 43.348 43.348s-19.406 43.348-43.348 43.348c-23.945 0-43.348-19.406-43.348-43.348s19.402-43.348 43.348-43.348z" fill="#e6e6e6" stroke="#ccc" stroke-width="1.9868"/><path d="m310.82 187.5c-21.434 30.008-94.262 114.62-63.242 163.55 24.004 37.848 105.59 38.043 129.31 0 30.875-49.488-47.82-133.55-66.059-163.55z" fill="#271d00" opacity=".3"/><path d="m192 124.14c-37.48 0-67.863 30.379-67.863 67.859s30.383 67.859 67.863 67.859c37.477 0 67.859-30.379 67.859-67.859s-30.383-67.859-67.859-67.859zm0 31.848c19.887 0 36.012 16.125 36.012 36.012s-16.125 36.012-36.012 36.012c-19.887 0-36.016-16.125-36.016-36.012s16.129-36.012 36.016-36.012z" fill="#fff" stroke="#e6e6e6" stroke-width="3.5188"/><path d="m310.82 180c-21.434 30.008-94.262 114.62-63.242 163.55 24.004 37.848 105.59 38.043 129.31 0 30.875-49.488-47.82-133.55-66.059-163.55z" fill="#ffc62f"/><path transform="scale(.75)" d="m414.43 240c-24.287 34.003-98.049 120.59-94.27 185.87 3.5146-63.851 71.204-143.57 94.27-175.87h0.01563c19.888 32.713 93.673 113.63 97.385 178.12 4.1849-65.872-76.455-153.69-97.385-188.12h-0.01563z" fill="#fff" opacity=".3" stroke-width="1.3333"/></svg>
