<svg width="512" height="512" version="1.1" viewBox="0 0 384 384" xmlns="http://www.w3.org/2000/svg" xmlns:xlink="http://www.w3.org/1999/xlink"><defs><symbol id="b" overflow="visible"/><symbol id="a" overflow="visible"/></defs><path d="m151.61 135.5a3.7504 3.7504 0 0 0-3.75 3.75v3.69a3.7504 3.7504 0 0 0 3.75 3.75h1.7799v9.7646a3.7504 3.7504 0 0 0 3.75 3.75h3.6892a3.7504 3.7504 0 0 0 3.75-3.75v-9.7646h2.3276v10.378a3.7504 3.7504 0 0 0 2.398 3.4966 3.7504 3.7504 0 0 0 0.71484 0.19922 3.7504 3.7504 0 0 0 6e-3 1e-3 3.7504 3.7504 0 0 0 0.36621 0.0439 3.7504 3.7504 0 0 0 0.271 0.0102h3.6855a3.7504 3.7504 0 0 0 3.75-3.75v-3.5273c0.11671 0.0112 0.26868 0.031 0.48048 0.0557v1.7036c0 1.5243 0.0217 2.6969 0.1538 3.7808 0.0661 0.54195 0.14441 1.0604 0.38672 1.7256 0.24001 0.65888 0.68714 1.6904 2.0215 2.4199 0.66771 0.36416 1.3838 0.49886 1.8911 0.50829 1.9693 0.0367 2.7148-0.83993 3.271-1.3462 0.55515-0.50525 0.95259-0.99076 1.3887-1.5454l3e-3 -3e-3 1.2715-1.6157a3.7504 3.7504 0 0 0 0.8042-2.3203v-0.542c1.095 1.2117 2.2965 2.2043 3.7998 2.9707 0.93134 0.47484 1.8688 0.79287 2.8286 1.0444 8e-3 2e-3 -5e-4 2.1e-4 4e-3 1e-3 0.37575 0.0986 0.4503 0.10626 0.21094 0.0469a3.7504 3.7504 0 0 0 3e-3 0c0.36069 0.0892 0.76639 0.18584 1.2422 0.26074 0.47696 0.0751 0.95914 0.13038 1.5161 0.13038h2.0062a3.7504 3.7504 0 0 0 3.75-3.75v-3.5244a3.7504 3.7504 0 0 0-2.5723-3.5552 3.7504 3.7504 0 0 0 0.11426-0.90527v-3.5347a3.7504 3.7504 0 0 0 1.8428-3.2226v-2.4609a3.7504 3.7504 0 0 0-3.75-3.75h-11.83a3.7504 3.7504 0 0 0-0.75586 0.0776 3.7504 3.7504 0 0 0-1e-3 0 3.7504 3.7504 0 0 0-0.1377-0.0981 3.7504 3.7504 0 0 0-0.3208-0.18603 3.7504 3.7504 0 0 0-4e-3 -1e-3 3.7504 3.7504 0 0 0-0.33838-0.15088 3.7504 3.7504 0 0 0-4e-3 -1e-3 3.7504 3.7504 0 0 0-0.35157-0.11719 3.7504 3.7504 0 0 0-4e-3 -1e-3 3.7504 3.7504 0 0 0-0.36035-0.0806 3.7504 3.7504 0 0 0-0.6416-0.0557h-3.687a3.7504 3.7504 0 0 0-3.75 3.75v3.1904c-0.11676-0.0137-0.18639-0.027-0.31495-0.0395-0.38676-0.0376-0.77281-0.0712-1.1499-0.0952-4e-3 -2.5e-4 -2e-3 2.4e-4 -6e-3 0-9.7e-4 -6e-5 -4.9e-4 6e-5 -1e-3 0-0.37012-0.0234-0.7125-0.0379-1.0474-0.0396l2.0391 6e-3v-3.0205a3.7504 3.7504 0 0 0-1.7285-3.1567 3.7504 3.7504 0 0 0-0.3208-0.18603 3.7504 3.7504 0 0 0-4e-3 -1e-3 3.7504 3.7504 0 0 0-0.33837-0.15088 3.7504 3.7504 0 0 0-4e-3 -1e-3 3.7504 3.7504 0 0 0-0.35156-0.11719 3.7504 3.7504 0 0 0-4e-3 -1e-3 3.7504 3.7504 0 0 0-0.36035-0.0806 3.7504 3.7504 0 0 0-0.6416-0.0557h-5.7202a3.7504 3.7504 0 0 0-0.82764 0.0967 3.7504 3.7504 0 0 0-0.82324-0.0967h-15.357zm-53.312 14.931a3.7504 3.7504 0 0 0-0.43212 0.0381c-0.16781 0.0145-0.33104 0.0655-0.52296 0.1128a3.7504 3.7504 0 0 0-0.78076 0.32373c-0.14593 0.0726-0.26369 0.0723-0.41748 0.17285-0.49487 0.32678-0.78456 0.66946-0.85547 0.75439a3.7504 3.7504 0 0 0-0.063 0.0776c0.0633-0.0801-0.18011 0.20457-0.42921 0.69434-0.19812 0.40314-0.36752 0.92989-0.39989 1.478a3.7504 3.7504 0 0 0-1e-3 0.0542c-0.0348 0.78322 4e-3 0.67994 0 0.28564 0.0445 1.6747 0.36175 1.5466 0.32373 1.4546a3.7504 3.7504 0 0 0 9e-3 0.0205c0.0416 0.0988 0.16013 0.35734 0.30177 0.59327 2e-3 3e-3 1e-3 5e-3 3e-3 7e-3 0.13294 0.22048 0.24013 0.36712 0.3413 0.50098a3.7504 3.7504 0 0 0 6e-3 7e-3c0.0762 0.1003 0.12748 0.16185 0.16406 0.20655 0.32716 0.40089 0.65081 0.73026 1.0327 1.0986a3.7504 3.7504 0 0 0 1e-3 1e-3c0.37902 0.36514 0.77403 0.70912 1.1646 1.0518 0.0548 0.0481 0.17101 0.16595 0.44092 0.39697 3.1214 2.6725 5.6819 4.6949 8.5415 7.0752h-7.3414a3.7504 3.7504 0 0 0-3.3779 2.1284 3.7504 3.7504 0 0 0-0.76611-1.0708 3.7504 3.7504 0 0 0-0.27832-0.24462 3.7504 3.7504 0 0 0-3e-3 -1e-3 3.7504 3.7504 0 0 0-0.30176-0.21679 3.7504 3.7504 0 0 0-3e-3 -1e-3 3.7504 3.7504 0 0 0-0.32226-0.18603 3.7504 3.7504 0 0 0-3e-3 -1e-3 3.7504 3.7504 0 0 0-0.33984-0.15088 3.7504 3.7504 0 0 0-3e-3 -1e-3 3.7504 3.7504 0 0 0-0.35302-0.11719 3.7504 3.7504 0 0 0-3e-3 -1e-3 3.7504 3.7504 0 0 0-0.36181-0.0806 3.7504 3.7504 0 0 0-0.6416-0.0557l-6.6006 1e-3h-3e-3a3.7504 3.7504 0 0 0-1e-3 0l-6.605 3e-3a3.7504 3.7504 0 0 0-1.6787 7.103l-0.13623-0.0688 2.0581 1.2554v35.334a3.7504 3.7504 0 0 0 2.0493 3.3428l-0.34277-0.17139 3.8247 3.1099a3.7504 3.7504 0 0 0 3e-3 3e-3l9e-3 6e-3c0.58134 0.47237 1.1517 0.9293 1.6919 1.3506l3e-3 1e-3a3.7504 3.7504 0 0 0 3e-3 1e-3c2e-5 1e-5 3e-3 1e-3 3e-3 1e-3 5e-5 2e-5 1e-3 1e-3 1e-3 1e-3 0.53424 0.41654 1.0326 0.7963 1.481 1.1279 1e-5 1e-5 4e-3 3e-3 4e-3 3e-3 4.9e-4 3.7e-4 9.7e-4 1e-3 1e-3 1e-3a3.7504 3.7504 0 0 0 3e-3 3e-3c0.44069 0.32578 0.82112 0.5982 1.1836 0.83789 0 0 3e-3 1e-3 3e-3 1e-3 5e-5 2e-5 3e-3 3e-3 3e-3 3e-3a3.7504 3.7504 0 0 0 0.0132 7e-3c0.18056 0.11903 0.34839 0.22649 0.57715 0.35303 0.21131 0.11688 0.17665 0.35587 1.4971 0.49365-0.13976-0.0343-0.35046-0.0858-0.60351-0.14795 0.31621 0.0724 0.80661 0.18416 0.82763 0.18897 1.6142 0.11728 2.7801-0.86831 3.1934-1.3755 0.41415-0.50825 0.507-0.79777 0.5918-1.0122 0.16958-0.42887 0.18632-0.59499 0.2168-0.75146 0.0609-0.31296 0.0759-0.49332 0.0967-0.70898 0.0415-0.43134 0.0706-0.92177 0.0996-1.544 0.058-1.2444 0.1071-2.9739 0.14942-5.105 0.0846-4.2621 0.13769-10.11 0.13769-16.55v-13.12a3.7504 3.7504 0 0 0 3.0029 1.5103h12.836v34.956a3.7504 3.7504 0 0 0 3.75 3.75h9.2183a3.7504 3.7504 0 0 0 0.3794-0.0205 3.7504 3.7504 0 0 0 0.36621-0.0542 3.7504 3.7504 0 0 0 4e-3 -1e-3 3.7504 3.7504 0 0 0 0.35888-0.0908 3.7504 3.7504 0 0 0 4e-3 -1e-3 3.7504 3.7504 0 0 0 0.34717-0.12744 3.7504 3.7504 0 0 0 4e-3 -1e-3 3.7504 3.7504 0 0 0 0.33252-0.1626 3.7504 3.7504 0 0 0 1.957-3.2915v-19.298c0-5.7737 0.0577-10.182 0.14941-13.424 2.1234 1.5852 4.263 3.3064 6.4175 4.8589 3.3437 2.4097 5.9529 4.2621 8.2339 5.8359-0.46827-0.19068-1.1079-0.47779-1.522-0.64013-0.84941-0.33305-1.5677-0.60109-2.1724-0.80273-0.30235-0.10084-0.56578-0.18456-0.88623-0.26368-0.16022-0.0396-0.32807-0.08-0.60498-0.11572-0.22226-0.0287-0.56368-0.0948-1.2774 0.063 0.1084-0.0157 0.12614-0.018 0.24463-0.0352-0.24938 0.0459-0.46759 0.0859-0.61376 0.1128l9e-3 -6e-3c-0.0602 0.0185-0.0663 5e-3 -0.13184 0.0264a3.7504 3.7504 0 0 0-7e-3 3e-3c-2.2e-4 4e-5 -7e-3 1e-3 -7e-3 1e-3 -0.0169 6e-3 2e-3 2e-3 -0.0146 7e-3a3.7504 3.7504 0 0 0-0.80273 0.39258c0.037-0.0221-0.11414 0.0626-0.0645 0.0308a3.7504 3.7504 0 0 0-0.0586 0.0381c0.0954-0.0637-0.16326 0.13716-0.11719 0.0952a3.7504 3.7504 0 0 0-0.2622 0.21533c-0.11827 0.0808 0.0706-0.10248-0.21094 0.17285-0.66772 0.66775-0.89134 1.3524-0.95216 1.5366a3.7504 3.7504 0 0 0-0.0293 0.0923c0.0222-0.0736-0.0638 0.20238-0.12305 0.58595-0.21026 1.4916 0.29359 2.2149 0.55811 2.6528 0.26676 0.44163 0.48445 0.6778 0.68554 0.89209a3.7504 3.7504 0 0 0 6e-3 6e-3c0.23461 0.24897 0.34574 0.33651 0.3955 0.38232 0.56703 0.52288 1.1595 0.95895 1.8882 1.4634 0.0372 0.0258 0.10216 0.071 0.19775 0.13623 0.56067 0.38271 1.1903 0.7931 1.8955 1.2349 0.84754 0.53111 1.7964 1.1031 2.8198 1.7051 0.40705 0.23938 0.83199 0.48222 1.2246 0.70898 0.78613 0.45429 1.6052 0.92043 2.4785 1.4106a3.7504 3.7504 0 0 0 0 1e-3c0.4016 0.22533 0.80556 0.45136 1.2305 0.68701 1.14 0.63249 2.3268 1.28 3.5654 1.9482a3.7504 3.7504 0 0 0 1e-3 0c0.16046 0.0865 0.32981 0.18065 0.53614 0.2915 0.87425 0.46991 1.8086 0.9588 2.7188 1.4399 0.15516 0.29539 0.31845 0.63993 0.43652 0.78223a3.7504 3.7504 0 0 0 1e-3 1e-3c1.3426 1.6152 3.024 2.7447 5.0156 3.9097s4.2426 2.2265 6.4907 2.9912c0.74927 0.25543 1.4085 0.46899 2.0054 0.65479 0.54523 0.16972 1.0354 0.3149 1.4839 0.43506 0.29091 0.0782 0.49272 0.11863 0.57275 0.13769a3.7504 3.7504 0 0 0 9e-3 3e-3c0.1439 0.0339 0.33508 0.0883 0.70166 0.15382l-0.0205-3e-3c0.37606 0.0693 0.76086 0.1613 1.4956 0.0806 0.0934 0.0452 0.16911 0.0819 0.26807 0.12891 1.3642 0.64852 2.711 1.2783 4.0327 1.8882 2.6893 1.241 5.28 2.3982 7.6846 3.4175 1.468 0.62292 2.6683 1.1045 3.6577 1.4604 0.98686 0.35501 1.5154 0.62997 2.8154 0.71924 0.67281 0.041 1.2495-0.0636 0.69727-0.0161-0.0484 3e-3 -0.17887 0.0125-0.0937 9e-3 0.14062-6e-3 0.39781 0.14762 1.4766-0.36621 0.65336-0.30782 1.541-1.0351 1.9468-2.0405 0.4127-1.0225 0.2879-1.9721 0.12304-2.5386-0.32973-1.1329-0.70167-1.4027-0.96973-1.7051-0.30668-0.34593-0.607-0.55683-0.89795-0.7998a3.7504 3.7504 0 0 0 0.11279 4e-3h8.6045a3.7504 3.7504 0 0 0 1.1104-0.16845 3.7504 3.7504 0 0 0 0.3501-0.12744 3.7504 3.7504 0 0 0 1e-3 -1e-3 3.7504 3.7504 0 0 0 0.33545-0.1626 3.7504 3.7504 0 0 0 1e-3 -1e-3 3.7504 3.7504 0 0 0 0.31933-0.19335 3.7504 3.7504 0 0 0 1e-3 -1e-3 3.7504 3.7504 0 0 0 0.29589-0.22558 3.7504 3.7504 0 0 0 1e-3 -1e-3 3.7504 3.7504 0 0 0 0.27392-0.25488 3.7504 3.7504 0 0 0 1e-3 -1e-3 3.7504 3.7504 0 0 0 0.24463-0.27979 3.7504 3.7504 0 0 0 1e-3 -1e-3 3.7504 3.7504 0 0 0 0.2168-0.30323 3.7504 3.7504 0 0 0 1e-3 -1e-3 3.7504 3.7504 0 0 0 0.18604-0.32373 3.7504 3.7504 0 0 0 1e-3 -1e-3 3.7504 3.7504 0 0 0 0.15089-0.34131 3.7504 3.7504 0 0 0 1e-3 -1e-3 3.7504 3.7504 0 0 0 0.11719-0.3545 3.7504 3.7504 0 0 0 0.13769-1.0034v-10.443c0-2.4882 0.0606-4.6001 0.13477-6.3384 4.1392 0.38986 12.905 1.2787 15.71 1.6421v10.56c0 4.525 0.0538 8.005 0.16406 10.44 0.0551 1.2174 0.11891 2.1549 0.22412 2.9546 0.0526 0.39985 0.0957 0.74049 0.25341 1.2627 0.0789 0.2611 0.15487 0.56671 0.50391 1.1104 0.34905 0.54365 1.3644 1.7798 3.23 1.7798-0.0157 0 0.01 5e-5 0.0264 0 0.61258-4e-3 0.38309-0.0312 0.52295-0.0747 3.8e-4 -1.2e-4 1e-3 1.2e-4 1e-3 0 0.0498-0.0156 0.17797-0.0164 0.1875-0.0278-0.0199 5e-3 -0.10049 0.0248-0.10108 0.0249 2e-3 -7e-5 0.022-1e-3 0.022-1e-3 1e-5 0 0.0902-0.022 0.11425-0.0278 5e-3 -0.0167 0.37077-0.0589 0.31055-0.0439-0.36043 0.0933-0.0457 0.0468 0.47754-0.14355-0.0167 4e-3 -0.2277 0.0535-0.45557 0.10693 0.25084-0.0609 0.49916-0.12189 0.5039-0.12305 0.3813-0.1466 0.63576-0.28613 0.85841-0.41455 0.46938-0.27073 0.85365-0.557 1.248-0.86572-0.0436 0.0265-0.21002 0.12878-0.3955 0.2417 0.21205-0.13271 0.47654-0.29799 0.48486-0.30323 2.5083-1.982 5.3442-4.7209 6.9507-7.8677a3.7504 3.7504 0 0 0 1e-3 -3e-3l1.1763-2.3086a3.7504 3.7504 0 0 0 0.40869-1.7022v-44.329a3.7504 3.7504 0 0 0 1.5249 1.5498l1.6816 0.91259c0.0543 0.0295 0.028 0.0152 0.0659 0.0366-0.0294-0.0537-0.0842-0.23592-0.0102 0.22998 0.22142 1.3946 0.34427 5.0868 0.46435 12.126l0.20508 11.981a3.7504 3.7504 0 0 0 0.26221 1.311l1.3814 3.5024c1.1616 2.9453 3.0105 5.6358 5.2573 7.9951 0.74472 0.78204 1.5365 1.531 2.3686 2.2368l4e-3 3e-3c5.4e-4 4.5e-4 9.4e-4 1e-3 1e-3 1e-3 4e-5 4e-5 3e-3 1e-3 3e-3 1e-3 0.0118 8e-3 0.3136 0.20237 0.55664 0.35889-0.22316-0.13919-0.44429-0.27756-0.47607-0.29736 0.80734 0.67988 1.648 1.3244 2.5239 1.9204 0 0 3e-3 1e-3 3e-3 1e-3a3.7504 3.7504 0 0 0 0 1e-3c0.89685 0.61011 1.8263 1.1733 2.7847 1.6816l1e-3 1e-3c5e-5 2e-5 0.01 4e-3 0.0103 4e-3a3.7504 3.7504 0 0 0 4e-3 1e-3c0.012 5e-3 0.17074 0.0697 0.30762 0.12891-0.13373-0.0577-0.29679-0.12312-0.30322-0.12598 0.47414 0.25103 0.95595 0.48934 1.4458 0.71338 1e-3 6.3e-4 3e-3 8.3e-4 4e-3 1e-3 2.3e-4 7e-5 4e-3 1e-3 4e-3 1e-3 0.0361 0.0133 0.55687 0.20393 0.56104 0.20508 4e-3 1e-3 -0.5184-0.18835-0.54052-0.19629 0.47403 0.21613 0.95576 0.42001 1.4429 0.60791a3.7504 3.7504 0 0 0 1e-3 0c9e-3 3e-3 0.0174 8e-3 0.0264 0.0117a3.7504 3.7504 0 0 0 4e-3 1e-3c0.49979 0.19198 1.007 0.36932 1.5205 0.52881 0.31028 0.0964 0.44324 0.12403 0.38965 0.1084 0.31798 0.0927 0.70251 0.20655 1.1572 0.31348a3.7504 3.7504 0 0 0 6e-3 1e-3c1e-3 2.4e-4 2e-3 -2.6e-4 3e-3 0 2e-3 4.4e-4 4e-3 1e-3 6e-3 1e-3a3.7504 3.7504 0 0 0 4e-3 1e-3c2e-3 4.3e-4 4e-3 -4.2e-4 6e-3 0 0.48209 0.11294 0.9754 0.1991 1.5161 0.27833 0 0 1e-3 -1e-5 1e-3 0 3e-3 1.6e-4 0.8763 0.0268 0.88183 0.0264 5e-3 -4.8e-4 -0.82283-0.0215-0.84521-0.022 0.53527 0.0778 1.1126 0.14904 1.7168 0.20948 0.69912 0.0709 0.71309 0.0693 0.0176 1e-3l-7e-3 -1e-3c0.6131 0.0612 1.2453 0.11224 1.8706 0.15087a3.7504 3.7504 0 0 0 1e-3 0c2e-3 1.3e-4 1e-3 -1.1e-4 3e-3 0 0.62378 0.0385 1.2454 0.0664 1.8442 0.0762 0.13187 2e-3 0.13297 2e-3 3e-3 0a3.7504 3.7504 0 0 0 1e-3 0l3.8394 0.0615a3.7504 3.7504 0 0 0 0.06 0h3e-3a3.7504 3.7504 0 0 0 3.75-3.75v-7.9863a3.7504 3.7504 0 0 0-3.75-3.75h-2.7452c-0.40876 0-0.80749-0.0149-1.1953-0.0425-2e-5 0-0.0198 5e-5 -0.022 0-0.0394-8.2e-4 -0.39781-7e-3 -0.40284-7e-3 -5e-3 1.9e-4 0.39307 6e-3 0.39258 6e-3 0.11076 7e-3 0.0619-3e-3 -0.23731-0.0293-0.71436-0.0635-1.3725-0.16349-1.9585-0.30029-0.34605-0.0808-0.67884-0.17304-0.99903-0.27686-0.96854-0.3142-1.8392-0.73247-2.6367-1.2568 1e-5 0-1e-3 -1e-3 -1e-3 -1e-3 -1.6164-1.0633-2.9553-2.6272-4.0093-4.7212h7.6684a3.7504 3.7504 0 0 0 3.75-3.75v-8.603a3.7504 3.7504 0 0 0-1.1411-2.6924 3.7504 3.7504 0 0 0-0.27831-0.24463 3.7504 3.7504 0 0 0-3e-3 -1e-3 3.7504 3.7504 0 0 0-0.30175-0.21679 3.7504 3.7504 0 0 0-3e-3 -1e-3 3.7504 3.7504 0 0 0-0.32227-0.18604 3.7504 3.7504 0 0 0-3e-3 -1e-3 3.7504 3.7504 0 0 0-0.33984-0.15088 3.7504 3.7504 0 0 0-3e-3 -1e-3 3.7504 3.7504 0 0 0-0.35303-0.11719 3.7504 3.7504 0 0 0-3e-3 -1e-3 3.7504 3.7504 0 0 0-0.36181-0.0806 3.7504 3.7504 0 0 0-0.64014-0.0557h-9.1365v-1.7139h15.296a3.7504 3.7504 0 0 0 3.75-3.75v-4.1543a3.7504 3.7504 0 0 0 1.0152 0.75294l-0.13477-0.0688 1.8633 1.1352 0.19776 0.12012v42.148a3.7504 3.7504 0 0 0 3.75 3.75h9.2144a3.7504 3.7504 0 0 0 3.75-3.75v-14.121l1.0459 1.103c0.82491 0.86903 1.712 1.7717 2.6426 2.6968 0.93049 0.92496 1.9086 1.8746 2.915 2.8316a3.7504 3.7504 0 0 0 1e-3 0 3.7504 3.7504 0 0 0 0.0176 0.0161c0.99881 0.94946 2.0247 1.9076 3.0601 2.855a3.7504 3.7504 0 0 0 1e-3 0 3.7504 3.7504 0 0 0 0.0176 0.0146c1.0328 0.94487 2.0738 1.8828 3.1084 2.7949a3.7504 3.7504 0 0 0 1e-3 0 3.7504 3.7504 0 0 0 0.0249 0.022c2.0669 1.8217 4.0904 3.5384 5.9282 5.0186a3.7504 3.7504 0 0 0 1e-3 0 3.7504 3.7504 0 0 0 0.0483 0.0351c1.8224 1.4661 3.45 2.7018 4.8369 3.6138a3.7504 3.7504 0 0 0 1e-3 0 3.7504 3.7504 0 0 0 0.0176 0.0117c0.6526 0.42887 1.299 0.83899 1.916 1.2173 4.3e-4 2.7e-4 0.42229 0.2238 0.42627 0.22558 4e-3 2e-3 -0.39455-0.20668-0.39991-0.20946 0.61244 0.37506 1.1952 0.72016 1.7314 1.021a3.7504 3.7504 0 0 0 0.0586 0.0293c0.51475 0.28768 0.98039 0.53547 1.4268 0.74414 0.22432 0.10487 0.34506 0.14907 0.26807 0.11572 0.0212 9e-3 0.0994 0.0613 0.4834 0.19776 0.27544 0.0979 0.43993 0.27832 1.5073 0.27832h0.79887a3.7504 3.7504 0 0 0 3.75-3.7793l-0.0352-4.4561-0.0337-4.4517a3.7504 3.7504 0 0 0-0.30321-1.4473 3.7504 3.7504 0 0 0 0.14062 3e-3h28.43a3.7504 3.7504 0 0 0 0.74853-0.0762 3.7504 3.7504 0 0 0 0.36035-0.0908 3.7504 3.7504 0 0 0 3e-3 -1e-3 3.7504 3.7504 0 0 0 0.34863-0.12744 3.7504 3.7504 0 0 0 3e-3 -1e-3 3.7504 3.7504 0 0 0 0.33398-0.1626 3.7504 3.7504 0 0 0 3e-3 -1e-3 3.7504 3.7504 0 0 0 0.31787-0.19337 3.7504 3.7504 0 0 0 3e-3 -1e-3 3.7504 3.7504 0 0 0 0.29444-0.22559 3.7504 3.7504 0 0 0 3e-3 -1e-3 3.7504 3.7504 0 0 0 0.27246-0.25489 3.7504 3.7504 0 0 0 1.062-2.6133v-7.3711a3.7504 3.7504 0 0 0-3.75-3.75h-9.527c-0.45029 0-0.83546-0.01-1.2686-0.0132 0.50235-0.42826 1.0202-0.86734 1.582-1.3301 8.7e-4 -7.1e-4 2e-3 -7.5e-4 3e-3 -1e-3a3.7504 3.7504 0 0 0 4e-3 -4e-3 3.7504 3.7504 0 0 0 3e-3 -1e-3c0.65575-0.54001 1.355-1.1054 2.0933-1.6934a3.7504 3.7504 0 0 0 1e-3 0c7.4421-5.9313 9.6839-8.6151 14.317-17.164 1.3658-2.5205 2.3007-4.2612 2.9048-5.5957 0.30204-0.66727 0.57364-1.0508 0.7207-2.25 0.0735-0.59963 0.30698-1.911-1.0972-3.3296-0.70208-0.7093-1.732-1.0776-2.4463-1.1352-0.71426-0.0576-1.1785 0.0642-1.5234 0.16992-0.50873 0.15593-0.81835 0.32859-1.0986 0.49512 0.23805-0.14152 0.32021-0.19086-7e-3 4e-3 -0.25188 0.15009-0.45719 0.29361-0.66064 0.44238-9.6e-4 5.7e-4 -0.0176 0.0102-0.0176 0.0103a3.7504 3.7504 0 0 0-9e-3 7e-3 3.7504 3.7504 0 0 0-3e-3 3e-3 3.7504 3.7504 0 0 0-1e-3 0c-0.426 0.31296-0.83508 0.65289-1.3008 1.0503-1e-3 1e-3 -3e-3 2e-3 -4e-3 3e-3 -1e-5 0-1e-3 1e-3 -1e-3 1e-3l-6e-3 3e-3a3.7504 3.7504 0 0 0-3e-3 4e-3 3.7504 3.7504 0 0 0-3e-3 1e-3c-0.47769 0.40792-0.99954 0.86995-1.5835 1.3901-9e-5 8e-5 0.18981-0.12244 0.36035-0.2329-0.17784 0.11619-0.36572 0.23848-0.3706 0.24169-9e-5 5e-5 -6e-3 4e-3 -6e-3 4e-3l-0.13916 0.12452c-0.0386-0.0631-0.0976-0.16074-0.082-0.13477-0.20989-0.34972-0.42974-0.68698-0.65772-1.0122h1e-3c-0.0579-0.0826-0.11577-0.16228-0.17139-0.23877-0.22908-0.31486-0.46467-0.61521-0.70606-0.90234 6e-3 7e-3 -0.0512-0.0672-0.18017-0.21534-0.28353-0.32561-0.59282-0.66005-0.9375-0.99315-0.34549-0.3339-0.69785-0.64198-1.0518-0.92725h-1e-3c-0.14178-0.11428-0.18647-0.1456-0.1245-0.0967a3.7504 3.7504 0 0 0 0-1e-3c-0.29763-0.23488-0.60469-0.45979-0.9214-0.67382h-1e-3c-0.13825-0.0935-0.24577-0.16235-0.31933-0.20948a3.7504 3.7504 0 0 0-1e-3 0c-0.27812-0.17807-0.55332-0.34124-0.82471-0.49219h-1e-3c-0.0503-0.028-0.14675-0.0853-0.2959-0.16406a3.7504 3.7504 0 0 0-1e-3 0c-0.32818-0.17328-0.66765-0.33857-1.021-0.49365 0.0973 0.0427 0.0532 0.0186-0.13769-0.063a3.7504 3.7504 0 0 0-1e-3 0c-0.39742-0.16989-0.81174-0.32919-1.2451-0.47314h4e-3c6e-3 2e-3 -2e-3 4e-4 -0.0161-4e-3h-1e-3c-0.26514-0.0877-0.29854-0.0964-0.0703-0.022-0.37428-0.12208-0.7479-0.22825-1.1191-0.3208h-1e-3c-0.21822-0.0544-0.34341-0.0774-0.3706-0.0835a3.7504 3.7504 0 0 0-1e-3 -1e-3c-0.27883-0.0627-0.56598-0.11944-0.86132-0.16993h-1e-3c-0.13821-0.0236-0.28038-0.0464-0.4248-0.0674a3.7504 3.7504 0 0 0-1e-3 0c-0.312-0.0453-0.61529-0.0799-0.90966-0.10693h-1e-3c-0.0138-1e-3 -0.12255-0.0157-0.32958-0.0308a3.7504 3.7504 0 0 0-1e-3 0c-0.38635-0.0281-0.80289-0.0499-1.248-0.0513-0.0168-9e-5 -0.0127-1e-5 -0.0146 0h-9e-3c-0.51414-9.5e-4 -1.0047 0.024-1.4707 0.0601-0.30028 0.0233-0.47961 0.0492-0.54052 0.0557-0.27915 0.0296-0.60174 0.0658-0.96534 0.12305a3.7504 3.7504 0 0 0-1e-3 0c-0.23756 0.0374-0.43156 0.0748-0.58594 0.10401-0.2922 0.0551-0.59063 0.11835-0.89502 0.19042-0.19085 0.0452-0.39617 0.096-0.61523 0.15528-0.3226 0.0872-0.61759 0.1769-0.88916 0.26367a3.7504 3.7504 0 0 0 0 1e-3c-0.12377 0.0396-0.31064 0.0958-0.55517 0.18164v-1e-3c-0.37584 0.13188-0.71249 0.26774-1.0166 0.39258a3.7504 3.7504 0 0 0-1e-3 0c-7e-3 3e-3 -0.14944 0.0517-0.4204 0.16992-0.46388 0.20226-0.9165 0.4217-1.3594 0.65333-0.24826 0.12985-0.3828 0.21117-0.41162 0.22705-0.29155 0.16065-0.61159 0.34179-0.95362 0.55371-0.21608 0.13391-0.37102 0.23866-0.47167 0.30469-0.28739 0.18851-0.57827 0.38858-0.87158 0.60205a3.7504 3.7504 0 0 0-1e-3 0c-0.13509 0.0983-0.27567 0.20305-0.42187 0.31494-0.30709 0.23501-0.597 0.47147-0.87305 0.70606-0.0808 0.0687-0.21331 0.17833-0.38964 0.33544-0.32458 0.2892-0.62208 0.57455-0.89795 0.84961 0.0145-0.0145-0.0832 0.0738-0.27832 0.27539-0.38264 0.39533-0.75718 0.80947-1.1191 1.2451-0.16303 0.19622-0.18763 0.23271-0.082 0.104-0.32195 0.3922-0.62716 0.7938-0.91846 1.2026-0.16397 0.23017-0.26116 0.3839-0.30762 0.45263-0.20053 0.29659-0.4117 0.61957-0.62549 0.97412-0.11792 0.19558-0.21709 0.36925-0.30175 0.51856-0.19321 0.34068-0.37834 0.68772-0.55518 1.0415a3.7504 3.7504 0 0 0 0 1e-3c-0.0697 0.13935-0.15508 0.30913-0.25049 0.51269-0.19539 0.4169-0.36355 0.81764-0.51562 1.1968-8e-3 0.019-0.0743 0.16281-0.17871 0.43945-0.20574 0.54526-0.40327 1.1203-0.58008 1.7285-0.42649 1.4668-0.71267 2.6341-0.85547 3.7178-0.0714 0.54182-0.12817 1.0448-0.0454 1.7798 0.0826 0.73338 0.25177 2.3406 2.2427 3.3237 0.91911 0.45395 1.9229 0.46264 2.5854 0.32227a3.7504 3.7504 0 0 0 0.0132-3e-3c1.3244-0.28571 1.251-0.46334 0.78076-0.26221-2e-3 1e-3 8e-3 -2e-3 6e-3 -1e-3 -0.28185 0.12328 0.11078 7e-3 0.63574-0.33106a3.7504 3.7504 0 0 0 9e-3 -6e-3c0.74908-0.48414 0.70375-0.48092 0.10107-0.0703l1e-3 -1e-3c5e-3 -4e-3 6e-3 -7e-3 0.0117-0.0103a3.7504 3.7504 0 0 0 0.50683-0.42041l-0.41454 0.33545c1.3684-0.97022 1.7265-1.7413 2.4609-2.9033 0.0759-0.11999 0.0446-0.061 0.11572-0.16846 1.0264 0.6299 2.152 1.1011 3.9331 0.77198-0.79261 0.14626-0.63783 0.15714 0.21534-0.0381 3.6e-4 -9e-5 1e-3 8e-5 1e-3 0 0.53154-0.12345 1.1459-0.37137 1.7051-0.7998 1.1086-0.84948 1.7065-2.4107 1.7065-3.5244 0-0.0958 0.0669-0.41828 0.65625-0.92578l1e-3 -1e-3c9e-3 -8e-3 5e-3 -4e-3 0.0132-0.0117-0.15481 0.13302-0.2212 0.19154 0.0454-0.0293l1e-3 -1e-3c0.4317-0.357 1.0704-0.70683 1.7446-0.92138 0.28445-0.0905 0.30302-0.0987 0.16406-0.0601-0.0121 3e-3 0.03-9e-3 0.0146-4e-3a3.7504 3.7504 0 0 0 1e-3 -1e-3c-0.0687 0.0193 0.0316-2e-3 0.30762-0.063 0.16477-0.0361 0.28636-0.0591 0.36475-0.0703 0.35613-0.0508 0.65073-0.0593 0.84961-0.0439h1e-3c3e-3 1e-4 0.42105 9e-3 0.42627 9e-3 5e-3 -1.8e-4 -0.39745-6e-3 -0.39697-6e-3l-0.0293-3e-3c0.54294 0.0425 0.74051 0.18094 0.82324 0.26367a3.7504 3.7504 0 0 0 1e-3 3e-3c0.64665 0.64571 0.42629 0.14842 0.32959 0.50977-0.0967 0.36133-0.89136 1.7793-2.8711 3.6782-0.25706 0.24656-0.54271 0.51228-0.84668 0.78663v-1e-3c-0.0756 0.0682-0.0945 0.0872-0.0659 0.0615a3.7504 3.7504 0 0 0-3e-3 3e-3c0.0222-0.02-7e-4 -1e-3 -0.0674 0.0586a3.7504 3.7504 0 0 0 0 1e-3c-0.3025 0.27077-0.62511 0.55082-0.97265 0.84668-1.2491 1.0622-2.3949 2.068-3.4482 3.0278-0.52561 0.47894-1.0323 0.94862-1.522 1.4165-0.48765 0.46589-0.95022 0.92143-1.3901 1.3667-0.4058 0.41071-0.79108 0.81601-1.166 1.2202l-1e-3 1e-3c-7e-3 7e-3 -0.0151 0.0145-0.022 0.022a3.7504 3.7504 0 0 0-0.085 0.0879c-0.40301 0.43737-0.78628 0.87032-1.1514 1.3008-8.7e-4 1e-3 -2e-3 2e-3 -3e-3 3e-3a3.7504 3.7504 0 0 0-1e-3 1e-3c-0.95442 1.1256-1.7311 2.2434-2.4448 3.3735a3.7504 3.7504 0 0 0-0.37207 0.51416 3.7504 3.7504 0 0 0-1e-3 1e-3c-0.78248 1.3111-1.4042 2.6496-1.8706 4.0181-0.62294 1.8281-0.96584 3.7025-1.1206 5.6382l-0.30908 3.8496a3.7504 3.7504 0 0 0 0.0234 0.80273l-0.73388-0.53174a3.7504 3.7504 0 0 0-0.0161-0.0102c-0.3061-0.22166-0.76062-0.57755-1.2378-0.95362-0.23425-0.18464-0.33316-0.25228-0.39111-0.29882-0.61947-0.49754-1.3045-1.0681-2.0317-1.689a3.7504 3.7504 0 0 0-1e-3 0c-4e-3 -3e-3 -8e-3 -7e-3 -0.0117-0.0102-0.6226-0.53178-1.2912-1.1187-1.9717-1.7227-0.14044-0.12465-0.23023-0.19991-0.28858-0.25195-0.78013-0.69589-1.5779-1.4233-2.3745-2.1606a3.7504 3.7504 0 0 0-1e-3 0c-3e-3 -3e-3 -7e-3 -6e-3 -0.0103-9e-3 -1.5866-1.469-3.1581-2.9789-4.5527-4.374-1.3971-1.3977-2.6195-2.6871-3.4629-3.6606l-0.62695-0.72363 0.97851-0.81592c2.6142-2.1763 4.8519-4.4184 6.148-7.1045l1.2539-2.5913a3.7504 3.7504 0 0 0 0.37354-1.6333v-11.282a3.7504 3.7504 0 0 0-3.75-3.75h-17.972l-17.972 3e-3a3.7504 3.7504 0 0 0-3.2212 1.8413 3.7504 3.7504 0 0 0-3.2241-1.8442h-3e-3a3.7504 3.7504 0 0 0-6e-3 0l-16.128 0.0234-16.122 0.0264a3.7504 3.7504 0 0 0-3.5229 2.4756 3.7504 3.7504 0 0 0-3.5405-2.5254h-9.2184a3.7504 3.7504 0 0 0-3.75 3.75v15.53c-0.70844-0.0847-1.2458-0.15579-2.1914-0.25927h-4e-3c-1.6573-0.18134-3.572-0.38022-5.3599-0.55518h-3e-3c-1.7587-0.17399-3.6546-0.37066-5.2852-0.54639a3.7504 3.7504 0 0 0-3e-3 0 3.7504 3.7504 0 0 0-1e-3 -1e-3c-2e-3 -2e-4 -2e-3 2.1e-4 -4e-3 0-4e-3 -3.9e-4 -5e-3 3.9e-4 -9e-3 0-1.329-0.14329-2.2552-0.25293-2.9839-0.3413v-13.827a3.7504 3.7504 0 0 0-3.75-3.75h-12.383a3.7504 3.7504 0 0 0-3.6357 2.8535 3.7504 3.7504 0 0 0-2.2866-2.6001 3.7504 3.7504 0 0 0-0.34863-0.11719 3.7504 3.7504 0 0 0-7e-3 -1e-3 3.7504 3.7504 0 0 0-0.35742-0.0806 3.7504 3.7504 0 0 0-7e-3 -1e-3 3.7504 3.7504 0 0 0-0.36474-0.0439 3.7504 3.7504 0 0 0-0.27246-0.0103h-34.5a3.7504 3.7504 0 0 0-3.022 1.5396 3.7504 3.7504 0 0 0-1.6714-1.2847 3.7504 3.7504 0 0 0-0.3501-0.11719 3.7504 3.7504 0 0 0-6e-3 -1e-3 3.7504 3.7504 0 0 0-0.35888-0.0806 3.7504 3.7504 0 0 0-6e-3 -1e-3 3.7504 3.7504 0 0 0-0.36621-0.0439 3.7504 3.7504 0 0 0-0.27099-0.0103h-15.108c-0.45376-0.30781-0.91541-0.62954-1.3667-0.93311-0.4341-0.29202-0.83564-0.55648-1.2305-0.82031-1.4441-0.96485-2.8577-1.8987-4.2451-2.8037-0.39989-0.26089-0.81422-0.53471-1.2349-0.80713a3.7504 3.7504 0 0 0-1e-3 0c-1.5613-1.011-3.0625-1.9687-4.5015-2.8726-0.51691-0.32473-0.98994-0.61596-1.4678-0.91259-1.1026-0.68439-2.1503-1.3239-3.1465-1.9233-0.33023-0.19874-0.70733-0.4317-1.0854-0.65625-1.2045-0.71539-2.2845-1.3378-3.2798-1.894-0.55705-0.31129-1.1104-0.61818-1.6304-0.89356h-1e-3c-0.0553-0.0293-0.1287-0.0697-0.20802-0.11133-0.7299-0.38302-1.3756-0.70323-1.9717-0.96972l-4e-3 -1e-3c-0.27909-0.12502-0.54553-0.2387-0.81446-0.34132a3.7504 3.7504 0 0 0-6e-3 -1e-3c-0.14844-0.0563-0.32539-0.12809-0.63135-0.21971l-1e-3 -1e-3c0.22918 0.0685 0.0757 0.0232-0.0352-0.0103-0.35303-0.10462-0.75395-0.14291-0.76171-0.14356-8e-3 -6.3e-4 0.37939 0.0348 0.72802 0.13477-0.20669-0.0597-0.41935-0.16187-1.0972-0.21386a3.7504 3.7504 0 0 0-0.375-9e-3zm99.645 6.3267c0.18929 0.0422 0.36643 0.0855 0.60644 0.12451l-0.62842-0.10254zm-100.26 1.0986c6.8e-4 2e-4 7.9e-4 -1.9e-4 1e-3 0a3.7504 3.7504 0 0 0 1e-3 1e-3h-3e-3zm-81.951 8.981a3.7504 3.7504 0 0 0-3.75 3.8086l0.39698 25.496a3.7504 3.7504 0 0 0 0.38378 1.5952l1.7505 3.564c1.2708 2.5911 3.3607 5.4603 5.4419 7.5366a3.7504 3.7504 0 0 0 2.6484 1.0957h-1.5542l1.8721 1.875a3.7504 3.7504 0 0 0 2.6543 1.1016h-0.87012l7.3945 3.6299a3.7504 3.7504 0 0 0 3e-3 1e-3c4.5e-4 2.2e-4 1e-3 -2.2e-4 1e-3 0 2.2855 1.1204 4.464 2.1429 6.1728 2.9033 0.8546 0.38028 1.5865 0.69388 2.1943 0.93457 0.3039 0.12035 0.57315 0.22158 0.85546 0.31494 0.2814 0.0931 0.30422 0.2326 1.3843 0.27393 1e-3 5e-5 2e-3 -5e-5 3e-3 0 0.64582 0.025 1.1009-0.12959 1.519-0.27686 0.10385-0.0452 0.13012-0.0563 0.23291-0.10107-0.10284 0.0451-0.12793 0.057-0.22851 0.10107 0.0838-0.0296 0.22898-0.0246 0.30468-0.0557a3.7504 3.7504 0 0 0 0.0147-6e-3c3e-3 -1e-3 3e-3 -2e-3 6e-3 -3e-3 0.15725-0.0654 0.22379-0.12898 0.34863-0.19482 3.9e-4 -2.2e-4 1e-3 2.1e-4 1e-3 0 0.22696-0.11981 0.47205-0.24099 0.63428-0.35449 9e-3 -6e-3 0.0586-0.0352 0.0586-0.0352 0.28293-0.2009 0.50548-0.3918 0.70606-0.57569 1.3863-1.271 2.375-2.7756 3.3164-4.4326 0.2099-0.36947 0.37967-0.71788 0.58008-1.0635 1.6475 0.86414 3.6945 1.8883 5.7422 2.8828 2.0525 0.99684 4.0966 1.958 5.7319 2.688 0.81767 0.36499 1.5269 0.67053 2.1284 0.9082 0.30077 0.11884 0.57029 0.22034 0.8628 0.31495 0.29249 0.0946 0.31421 0.26513 1.5029 0.26513 1e-5 0 9e-3 -1e-3 9e-3 -1e-3 8e-3 0 8e-3 -3e-3 0.0161-3e-3 0.0303-5e-3 0.41228-0.0702 0.76611-0.13037-0.27413 0.0509-0.44594 0.0827-0.56836 0.10546 1.0229-0.044 1.2765-0.27567 1.4048-0.33544 0.0911-0.0425-0.0272 0.01-0.0937 0.0395-0.51336 0.21498 0.0254 0.0527 0.61083-0.30615 0.35102-0.21786 0.56589-0.40218 0.75733-0.57275 1.1549-1.029 1.9783-2.1719 2.9854-3.6694l1e-3 -1e-3 1.9614-2.9136-0.25488 0.25489a3.7504 3.7504 0 0 0 1.0986-2.6514v-40.257a3.7504 3.7504 0 0 0-3.75-3.75h-12.361a3.7504 3.7504 0 0 0-2.458 6.5815l1.5894 1.3799 0.27832 0.24317-0.15381 14.386-0.10693 10.096c-2.4701-1.5806-4.328-3.5706-5.127-5.3086l-1e-3 -1e-3c-1.5e-4 -3.4e-4 1.6e-4 -1e-3 0-1e-3l-0.94043-2.0552-0.21093-10.436-0.22413-11.209a3.7504 3.7504 0 0 0-3.7485-3.6753h-8.4858a3.7504 3.7504 0 0 0-0.3794 0.0205 3.7504 3.7504 0 0 0-0.3662 0.0542 3.7504 3.7504 0 0 0-4e-3 1e-3 3.7504 3.7504 0 0 0-0.71045 0.21973 3.7504 3.7504 0 0 0-4e-3 1e-3 3.7504 3.7504 0 0 0-0.33251 0.1626 3.7504 3.7504 0 0 0-1.957 3.2915v17.509c0 4.6201-0.0324 8.737-0.0806 11.849-1.3087-0.90371-2.697-1.9529-3.7793-3.0747-1.1766-1.2194-1.9881-2.503-2.1284-2.8828l-0.85107-2.3071-0.52002-21.188a3.7504 3.7504 0 0 0-3.7485-3.6577h-8.5737zm349.33 0.90527c-2e-3 5.3e-4 -0.41033 0.15859-0.41309 0.15967 8e-5 -5e-5 6e-3 -4e-3 6e-3 -4e-3 -2.5e-4 1.2e-4 0.40889-0.1558 0.40723-0.15527zm-173.57 0.68555h0.26513l-4e-3 0.0132a3.7504 3.7504 0 0 0-0.26073-0.0132zm156.46 1.1133a3.7504 3.7504 0 0 0 0.0102 0c-8.1e-4 -1e-5 9e-3 0 4e-3 0 0.21725 6.5e-4 0.45879 0.0113 0.72802 0.0308-0.0333-2e-3 0.0294 4e-3 0.19043 0.019a3.7504 3.7504 0 0 0 1e-3 0c0.18384 0.0168 0.35606 0.0367 0.5171 0.0601 0.0776 0.0113 0.15624 0.024 0.23877 0.0381a3.7504 3.7504 0 0 0 1e-3 0c0.15481 0.0265 0.31372 0.0595 0.47901 0.0967l-1e-3 -1e-3c0.16503 0.0372 0.23378 0.0526 0.20508 0.0454a3.7504 3.7504 0 0 0 1e-3 0c0.21059 0.0525 0.41342 0.11088 0.60792 0.17432 0.26925 0.0878 0.28261 0.0908 0.0395 0.0103a3.7504 3.7504 0 0 0 1e-3 0v1e-3a3.7504 3.7504 0 0 0 4e-3 0c0.2124 0.0706 0.43223 0.15581 0.66065 0.25342-0.11978-0.0512-0.0949-0.0401 0.0732 0.0337 0.17317 0.076 0.35127 0.16324 0.53321 0.25927 2e-3 1e-3 0.0536 0.0292 0.1538 0.085a3.7504 3.7504 0 0 0 1e-3 0c0.15199 0.0845 0.29398 0.17021 0.42627 0.25488 0.0891 0.0571 0.14371 0.0922 0.16552 0.10694a3.7504 3.7504 0 0 0 1e-3 0c0.15941 0.10771 0.31623 0.22364 0.4746 0.34863v-1e-3c0.12556 0.0991 0.14607 0.11562 0.0645 0.0498a3.7504 3.7504 0 0 0 1e-3 0c0.1942 0.15652 0.37634 0.3176 0.54638 0.48194 0.14981 0.14478 0.31387 0.31963 0.49219 0.52441-0.0352-0.0404-3e-3 -8.6e-4 0.0952 0.11573 0.13353 0.15883 0.26215 0.32206 0.38379 0.48925 0.0332 0.0456 0.063 0.0885 0.0923 0.13037a3.7504 3.7504 0 0 0 1e-3 0c0.12763 0.18207 0.24977 0.37042 0.36768 0.5669 0.0921 0.15361 0.1159 0.19108 0.0747 0.12012a3.7504 3.7504 0 0 0 0 1e-3c0.15729 0.27086 0.2926 0.52061 0.40723 0.76172l1.4575 3.0747a3.7504 3.7504 0 0 0 1.7783 1.7769c-2.5814 4.3667-4.2494 5.9215-9.9023 10.427-0.76312 0.60779-1.4886 1.1958-2.1782 1.7637-1.4e-4 1.1e-4 0.28999-0.1822 0.52441-0.32959-0.23334 0.14768-0.51991 0.32794-0.53174 0.33545-6e-5 4e-5 -3e-3 1e-3 -3e-3 1e-3 -1e-3 9.2e-4 -2e-3 2e-3 -3e-3 3e-3 -2e-5 1e-5 -3e-3 1e-3 -3e-3 1e-3 -0.68787 0.56655-1.3352 1.1112-1.9394 1.6289-1.4e-4 1.1e-4 0.3333-0.21443 0.58592-0.37647-0.25014 0.16154-0.57882 0.37298-0.59325 0.38232-7e-5 5e-5 -3e-3 1e-3 -3e-3 1e-3 -2e-3 1e-3 -3e-3 3e-3 -4e-3 4e-3 -2e-5 1e-5 -3e-3 1e-3 -3e-3 1e-3 -0.60648 0.51982-1.1705 1.0175-1.6934 1.4883-1e-4 8e-5 -7e-3 4e-3 -7e-3 4e-3a3.7504 3.7504 0 0 0-1e-3 3e-3 3.7504 3.7504 0 0 0-3e-3 1e-3 3.7504 3.7504 0 0 0-7e-3 7e-3c-0.52548 0.47343-1.0114 0.92396-1.456 1.352-0.8953 0.86185-1.6197 1.6144-2.2222 2.3701-0.1332 0.16707-0.27784 0.34362-0.42481 0.49366 0.42983-0.63091 0.82334-1.245 1.4209-1.9497a3.7504 3.7504 0 0 0 1e-3 -1e-3c0.29448-0.34728 0.61021-0.70436 0.94922-1.0723a3.7504 3.7504 0 0 0 0-1e-3c0.33872-0.36755 0.7035-0.74859 1.0928-1.1426 0.39078-0.39553 0.8005-0.79937 1.2349-1.2144 0.43418-0.41485 0.89883-0.84605 1.3931-1.2964 0.98137-0.8942 2.0632-1.8448 3.2564-2.8594a3.7504 3.7504 0 0 0 1e-3 -1e-3c0.38254-0.32566 0.75236-0.64666 1.1133-0.96973v1e-3c-0.0204 0.0183 8e-3 -7e-3 0.0806-0.0718a3.7504 3.7504 0 0 0 1e-3 -1e-3l1e-3 -1e-3c0.0753-0.0677 0.1013-0.0915 0.0762-0.0688a3.7504 3.7504 0 0 0 0-1e-3c0.34618-0.31245 0.68592-0.62461 1.0137-0.93898 2.4311-2.3318 4.1954-4.4287 4.9248-7.1543 0.72913-2.7245-0.39753-5.8787-2.2734-7.7534-1.5795-1.5796-3.6371-2.2887-5.54-2.4375a3.7504 3.7504 0 0 0-4e-3 0h-1e-3c-0.88914-0.0691-1.7196-0.0135-2.4917 0.0967-0.34684 0.0495-0.64735 0.11022-0.90674 0.16698a3.7504 3.7504 0 0 0-1e-3 0c-0.0681 0.0149-0.31997 0.0558-0.72364 0.16846-4e-5 2e-5 -6e-3 1e-3 -6e-3 1e-3a3.7504 3.7504 0 0 0-1e-3 1e-3 3.7504 3.7504 0 0 0-3e-3 0 3.7504 3.7504 0 0 0-4e-3 1e-3c-0.39361 0.11085-0.5279 0.17236-0.41894 0.1377-1.4223 0.45256-2.7624 1.1592-3.9712 2.102 0.17099-0.14367 0.33845-0.28216 0.49805-0.40429 0.0852-0.0652 0.17734-0.1341 0.27685-0.20654 0.18179-0.13231 0.37267-0.26281 0.57275-0.39405 0.15891-0.10423 0.26091-0.1732 0.30762-0.20215 0.1774-0.10991 0.38461-0.22842 0.62403-0.36035a3.7504 3.7504 0 0 0 1e-3 0c0.19745-0.10882 0.28527-0.1614 0.26514-0.15088 0.29593-0.15477 0.58994-0.2946 0.88183-0.42188-0.041 0.0179 0.0506-0.0173 0.27247-0.1084 0.24973-0.10251 0.46882-0.1872 0.65332-0.25195a3.7504 3.7504 0 0 0 0-1e-3c0.0573-0.0201 0.17342-0.0568 0.35303-0.11426v1e-3c0.2119-0.0677 0.40001-0.12563 0.56396-0.16993 0.1147-0.031 0.24277-0.0626 0.38672-0.0967 0.17956-0.0425 0.36498-0.0807 0.5581-0.11719 0.16167-0.0305 0.28245-0.0534 0.36182-0.0659 0.15533-0.0245 0.35201-0.0478 0.5918-0.0732a3.7504 3.7504 0 0 0 1e-3 0c0.22842-0.0243 0.33798-0.039 0.32666-0.0381 0.31925-0.0247 0.61041-0.0371 0.87598-0.0366zm0.15527 0.53613a3.7504 3.7504 0 0 0-0.0234-3e-3c-4.8e-4 -3e-5 -0.40415-6e-3 -0.3999-6e-3 4e-3 -1.5e-4 0.42092 9e-3 0.42334 9e-3zm-162.03 1.7856a3.7504 3.7504 0 0 0 1.1074 1.5923l1.8896 1.5908a3.7504 3.7504 0 0 0 2.4155 0.88184h-1.3667l-0.49512-0.41748v41.769a3.7504 3.7504 0 0 0 0.22706 1.2715c-0.45412-0.30896-0.81028-0.56881-1.3433-0.91992a3.7504 3.7504 0 0 0 0.019-0.35157v-8.6016a3.7504 3.7504 0 0 0-3.75-3.75h-11.198l-0.75146-0.38086a3.7504 3.7504 0 0 0 0.0879-0.1538 3.7504 3.7504 0 0 0 0.063-0.10987 3.7504 3.7504 0 0 0 0.11133-0.23584 3.7504 3.7504 0 0 0 0.0439-0.0967 3.7504 3.7504 0 0 0 0.0908-0.25635 3.7504 3.7504 0 0 0 0.0337-0.10107 3.7504 3.7504 0 0 0 0.0674-0.27246 3.7504 3.7504 0 0 0 0.019-0.085 3.7504 3.7504 0 0 0 0.041-0.28565 3.7504 3.7504 0 0 0 0.0117-0.0879 3.7504 3.7504 0 0 0 0.0117-0.28125 3.7504 3.7504 0 0 0 1e-3 -0.0937 3.7504 3.7504 0 0 0-0.019-0.31934 3.7504 3.7504 0 0 0-1e-3 -0.0337 3.7504 3.7504 0 0 0-1e-3 -9e-3 3.7504 3.7504 0 0 0-0.0513-0.32666 3.7504 3.7504 0 0 0-9e-3 -0.0454 3.7504 3.7504 0 0 0-0.0908-0.34717 3.7504 3.7504 0 0 0-1e-3 -4e-3 3.7504 3.7504 0 0 0 0-1e-3 3.7504 3.7504 0 0 0-0.13183-0.35011 3.7504 3.7504 0 0 0-0.16553-0.3369 3.7504 3.7504 0 0 0-0.19775-0.31788 3.7504 3.7504 0 0 0-0.2168-0.28272 3.7504 3.7504 0 0 0-0.0117-0.0146 3.7504 3.7504 0 0 0-4e-3 -4e-3 3.7504 3.7504 0 0 0-0.16114-0.17431 3.7504 3.7504 0 0 0-0.0396-0.0425l-1e-3 -1e-3 -1e-3 1e-3a3.7504 3.7504 0 0 0-0.42919-0.37207l-7.9585-5.8096-1e-3 -1e-3c-0.0761-0.0556-0.15784-0.11829-0.23437-0.17431l0.13476-6.6196 0.0952-4.5762h18.413a3.7504 3.7504 0 0 0 3.75-3.75zm152.8 1.519c-0.62353 0.57603-1.1721 1.2712-1.6524 2.0317-0.0281-0.0121-0.0705-0.0174-0.0996-0.0293 0.17989-0.24912 0.36174-0.49105 0.54785-0.71777 0.15173-0.18494 0.16934-0.20919 0.0527-0.0688 0.23492-0.28274 0.48077-0.55719 0.73829-0.82324a3.7504 3.7504 0 0 0 1e-3 0c-0.0445 0.046 0.0175-0.0106 0.18604-0.17871 0.0802-0.08 0.1492-0.14026 0.22558-0.21387zm-193.35 0.17285 1.7681 1.4898a3.7504 3.7504 0 0 0 6e-3 4e-3l0.55225 0.46435v6.1318c-0.75529-0.5345-1.6384-1.2636-2.2339-1.6392a3.7504 3.7504 0 0 0-0.0102-6e-3c-0.0489-0.0306-0.23738-0.16666-0.29296-0.20214a3.7504 3.7504 0 0 0 0.21093-1.2246zm-8.1138 0.78076h0.61377v0.35596c-1e-3 -2.9e-4 -3e-3 -1e-3 -4e-3 -1e-3a3.7504 3.7504 0 0 0-1e-3 0c-0.13914-0.0309-0.18685-0.0432-0.14502-0.0322a3.7504 3.7504 0 0 0-1e-3 0c-0.0796-0.0209-0.10234-0.0299-0.13916-0.0425a3.7504 3.7504 0 0 0-0.25927-0.23291c-0.0165-0.0132-0.0462-0.0335-0.063-0.0469zm17.94 0h23.227v0.4878h-18.335a3.7504 3.7504 0 0 0-3.7485 3.6724l-0.17139 8.2485a3.7504 3.7504 0 0 0 0 1e-3l-0.0395 1.9321a3.7504 3.7504 0 0 0-0.93165 0.0249zm-135.81 1e-3h1.1074l0.44531 18.152a3.7504 3.7504 0 0 0 0.23144 1.207l1.0679 2.8916c0.79447 2.1503 2.1645 3.8332 3.7661 5.4932 1.76 1.8241 3.8303 3.5049 5.9385 4.8252s4.0475 2.4483 6.7793 2.4507a3.7504 3.7504 0 0 0 0.19189-4e-3c6.2e-4 -3e-5 1.3324-0.31761 1.333-0.31788s0.6654-0.36775 0.8877-0.55371c0.44459-0.37191 0.64644-0.68042 0.78955-0.9126 0.28621-0.46435 0.33922-0.68916 0.39405-0.86425 0.10963-0.35019 0.12095-0.48028 0.14062-0.60498 0.0393-0.24942 0.0484-0.3913 0.0615-0.55811 0.0263-0.33362 0.0449-0.70545 0.063-1.1763 0.0361-0.94164 0.0661-2.2418 0.0923-3.8438 0.0524-3.204 0.085-7.5937 0.085-12.423v-13.761h1.0649l0.15088 7.5337 0.22559 11.215a3.7504 3.7504 0 0 0 0.33984 1.4868l1.2671 2.7656a3.7504 3.7504 0 0 0 1e-3 3e-3c2.0268 4.4143 6.0362 7.9248 10.941 10.198l3.1099 1.4414a3.7504 3.7504 0 0 0 5.3276-3.3633l0.17138-16.11 0.1626-15.17h1.6934v34.954l1.0972-1.0972a3.7504 3.7504 0 0 0-0.4585 0.55664l-2.165 3.2153a3.7504 3.7504 0 0 0-1e-3 1e-3c-0.31061 0.4619-0.39191 0.51488-0.69727 0.89795-0.15604-0.0685-0.23732-0.0977-0.40576-0.17286-1.5188-0.67793-3.5155-1.6157-5.5122-2.5854-1.9967-0.96973-4.0024-1.9756-5.5474-2.7861-0.77245-0.40528-1.4322-0.76329-1.8911-1.0268-0.45891-0.26355-0.92484-0.68261-0.38526-0.1919a3.7504 3.7504 0 0 0-9e-3 -9e-3l-1.1074-1.0005a3.7504 3.7504 0 0 0-6.2637 2.7832v1.6362c0-1.015-0.25392 0.6504-0.91553 1.8149-0.39325 0.69221-0.71435 1.0368-1.1089 1.5513-0.24494-0.10588-0.39286-0.16208-0.67383-0.28711-1.5907-0.70781-3.7088-1.7017-5.9209-2.7861a3.7504 3.7504 0 0 0-1.6509-0.38232h0.87011l-7.3945-3.6299a3.7504 3.7504 0 0 0-1.6524-0.38379h1.5542l-1.8721-1.875a3.7504 3.7504 0 0 0-7e-3 -6e-3c-7.1e-4 -6.9e-4 -2e-3 -2e-3 -3e-3 -3e-3 -1.1923-1.1905-3.35-4.2-4.002-5.5298a3.7504 3.7504 0 0 0-1e-3 -3e-3l-1.3799-2.8096zm67.614 0h1.7212v19.598c0 6.2556-0.0534 11.87-0.1333 16.034l-2.9692-2.4141a3.7504 3.7504 0 0 0-0.68848-0.44532l2.0698 1.0356zm15.974 0h12.264l0.61669 0.48779a3.7504 3.7504 0 0 0-0.0439-1e-3h-12.836zm94.002 0h1.106v13.377a3.7504 3.7504 0 0 0 3.2593 3.7178l2.6074 0.34423a3.7504 3.7504 0 0 0 0.0103 1e-3c0.79721 0.10358 2.1664 0.25696 3.8189 0.43507a3.7504 3.7504 0 0 0 3e-3 0c5e-3 5.4e-4 0.0111 9.3e-4 0.0161 1e-3 1.6487 0.17764 3.5547 0.37744 5.3364 0.55371a3.7504 3.7504 0 0 0 0.0102 0c1.7573 0.17197 3.6507 0.36866 5.2749 0.54638h4e-3c1.6228 0.17759 3.0064 0.34191 3.627 0.42773a3.7504 3.7504 0 0 0 0.0117 1e-3h3e-3c5e-5 0 6e-3 -2e-5 6e-3 0l2.5957 0.35742a3.7504 3.7504 0 0 0 4.2612-3.7148v-16.049h1.7183v41.474l-0.76758 1.5073c-0.0425 0.0827-0.58297 0.69616-0.86426 1.0415-0.033-1.8179-0.0864-3.159-0.0864-5.6616v-13.796a3.7504 3.7504 0 0 0-3.1333-3.6987l-1.9863-0.33105s-0.01-1e-3 -0.0103-1e-3a3.7504 3.7504 0 0 0-1e-3 0 3.7504 3.7504 0 0 0-0.063-0.0103c-1e-5 0-0.0394-4e-3 -0.0484-4e-3 -0.23586-0.0361-0.34525-0.0472-0.50537-0.0659-0.1982-0.0231-0.42318-0.0486-0.45411-0.0527-3.6196-0.4836-16.637-1.8625-19.541-2.0391h-1e-3c0.13852 8e-3 -0.0738-7e-3 -0.20362-0.019-0.0654-6e-3 -0.13057-0.0119-0.19775-0.0176-0.0672-6e-3 0.15242-0.0202-0.41162-0.0205a3.7504 3.7504 0 0 0-3e-3 0c-1.2581 0-2.2263 0.65942-2.6777 1.1104-0.45142 0.45093-0.60982 0.77434-0.73096 1.0166-0.24228 0.48453-0.28512 0.71734-0.33838 0.93165-0.10652 0.42863-0.14149 0.72114-0.18311 1.0664-0.0832 0.69051-0.14094 1.5059-0.19189 2.5005-0.1019 1.9892-0.1626 4.642-0.1626 7.5674v6.6943h-1.106zm112.76 0h2.6191v6.6724l-0.88183 1.8223a3.7504 3.7504 0 0 0-1e-3 4e-3c-0.17677 0.36635-2.2035 2.9451-4.1909 4.5996a3.7504 3.7504 0 0 0-1e-3 0l-3.9155 3.2622a3.7504 3.7504 0 0 0-0.43359 5.3364l3.1289 3.6138c1.0357 1.1956 2.3476 2.574 3.8262 4.0532 1.4776 1.4782 3.117 3.0511 4.7739 4.585a3.7504 3.7504 0 0 0 1e-3 0 3.7504 3.7504 0 0 0 0.0176 0.0161c0.82091 0.75966 1.6463 1.51 2.4595 2.2354 0.14477 0.12913 0.24166 0.21195 0.30323 0.2666 0.70451 0.62529 1.4102 1.2447 2.0918 1.8267a3.7504 3.7504 0 0 0 1e-3 0 3.7504 3.7504 0 0 0 0.019 0.0161c0.76236 0.65066 1.4944 1.2613 2.1855 1.8164 0.24875 0.19983 0.38378 0.29544 0.44385 0.34278 0.48797 0.38458 0.99532 0.78419 1.5015 1.1499a3.7504 3.7504 0 0 0 2.1958 0.71046h-1.2129l2.0742 1.5015a3.7504 3.7504 0 0 0 2.1987 0.71191h-2.4873c-0.49981-0.30882-1.0207-0.63697-1.5557-0.98877a3.7504 3.7504 0 0 0-1e-3 0c-1e-3 -9.2e-4 -4e-3 -3e-3 -6e-3 -4e-3 -1.0388-0.68351-2.5636-1.8242-4.2964-3.2197a3.7504 3.7504 0 0 0-1e-3 0c-3e-3 -2e-3 -6e-3 -5e-3 -9e-3 -7e-3 -1.7322-1.3953-3.6864-3.0503-5.6894-4.8164a3.7504 3.7504 0 0 0-1e-3 0c-4e-3 -3e-3 -8e-3 -7e-3 -0.0117-0.0102-0.99693-0.87911-2.007-1.7892-3.0117-2.7085a3.7504 3.7504 0 0 0-1e-3 0c-4e-3 -4e-3 -8e-3 -7e-3 -0.0117-0.0102-1.0018-0.91676-1.995-1.8433-2.9605-2.7612a3.7504 3.7504 0 0 0-1e-3 0l-0.0117-0.0117c-0.9625-0.91533-1.8975-1.8251-2.7832-2.7056-0.89008-0.88481-1.7277-1.7367-2.4902-2.54a3.7504 3.7504 0 0 0 0-1e-3l-3.8511-4.0562a3.7504 3.7504 0 0 0-2.7202-1.1675h-3.665a3.7504 3.7504 0 0 0-3.75 3.75v15.907h-1.7153v-39.189h3.23a3.7504 3.7504 0 0 0-1.5147 3.0059v11.672a3.7504 3.7504 0 0 0 3.75 3.75h4.4443a3.7504 3.7504 0 0 0 2.54-0.99169l3.769-3.4717a3.7504 3.7504 0 0 0 1e-3 -1e-3c0.50768-0.46807 0.99123-0.92272 1.4487-1.3667 1.9821-1.9236 3.3484-3.48 4.3682-5.1475a3.7504 3.7504 0 0 0 0.50098-0.72363 3.7504 3.7504 0 0 0 3e-3 -4e-3c0.20961-0.40114 0.39265-0.81945 0.53613-1.2788a3.7504 3.7504 0 0 0 0-1e-3c0.14577-0.46736 0.26271-1.0016 0.2666-1.645a3.7504 3.7504 0 0 0 0-7e-3l3e-3 -0.76758a3.7504 3.7504 0 0 0-1.5176-3.022zm-57.341 0.0322a3.7504 3.7504 0 0 0-1.4751 2.9751v9.2139a3.7504 3.7504 0 0 0 3.75 3.75h9.1494v1.1045h-9.2344a3.7504 3.7504 0 0 0-3.6138 4.7505l0.38232 1.3814c1.4697 5.3063 4.3312 9.6567 8.4346 12.356 4e-5 1e-5 6e-3 3e-3 6e-3 3e-3 1.3675 0.89888 2.8588 1.6096 4.4399 2.1226 0.52827 0.17128 1.0653 0.32 1.6084 0.44678 0.99998 0.23344 2.0017 0.37872 2.9985 0.46728-0.10617-9e-3 0.0184 0.0138 0.375 0.0396a3.7504 3.7504 0 0 0 4e-3 0 3.7504 3.7504 0 0 0 0.0103 1e-3c7e-5 0 0.0395 1e-3 0.0513 1e-3 0.22503 0.0156 0.45648 0.0141 0.68408 0.0234v0.46143h-0.0322c-5e-4 0-0.0665-1e-3 -1e-3 0-0.45348-7e-3 -0.97123-0.0286-1.5044-0.0615-3e-3 -1.8e-4 -2e-3 1.8e-4 -4e-3 0-4.8e-4 -3e-5 -9.8e-4 3e-5 -1e-3 0-0.01-6e-4 -5e-3 -8.8e-4 -0.0146-1e-3 -0.52615-0.0327-1.0648-0.0754-1.5718-0.12598a3.7504 3.7504 0 0 0-1e-3 0 3.7504 3.7504 0 0 0-4e-3 0c-0.50843-0.0508-0.98998-0.10962-1.4033-0.16992a3.7504 3.7504 0 0 0-6e-3 -1e-3 3.7504 3.7504 0 0 0-3e-3 0c-5e-3 -7.8e-4 -6e-3 -2e-3 -0.0117-3e-3h-6e-3c-0.3932-0.058-0.72075-0.12042-0.88184-0.15821-1e-5 0-0.0142-1e-3 -0.0146-1e-3 -0.0153-2e-3 -0.25529-0.0265-0.50684-0.0527 0.24794 0.0247 0.4967 0.0498 0.49658 0.0498-0.18764-0.0443-0.44362-0.11837-0.76612-0.2124-0.27154-0.0792-0.35616-0.0991-0.26366-0.0703a3.7504 3.7504 0 0 0-1e-3 0c-0.34727-0.10782-0.70042-0.23102-1.0562-0.36767 0.0294 0.0114-0.0433-0.0164-4e-3 -1e-3 -0.34888-0.13409-0.70022-0.28133-1.0532-0.44238 2e-5 1e-5 -0.01-4e-3 -0.0102-4e-3a3.7504 3.7504 0 0 0-4e-3 -1e-3c-2e-3 -7.2e-4 -3e-3 -2e-3 -4e-3 -3e-3 -1e-5 0-6e-3 -1e-3 -6e-3 -1e-3 -0.34747-0.15909-0.69532-0.33089-1.0444-0.51562-1e-3 -6.3e-4 -2e-3 -2e-3 -3e-3 -3e-3l-4e-3 -1e-3a3.7504 3.7504 0 0 0-3e-3 -1e-3c-0.70536-0.37378-1.4054-0.79777-2.0889-1.2627v1e-3s-3e-3 -1e-3 -3e-3 -1e-3c-5.6e-4 -3.9e-4 -9e-4 -1e-3 -1e-3 -1e-3 -0.6778-0.46129-1.3385-0.96472-1.9702-1.5l-3e-3 -3e-3a3.7504 3.7504 0 0 0-3e-3 -1e-3l-9e-3 -9e-3c-0.62617-0.53146-1.2233-1.0942-1.7827-1.6816-1.6847-1.7691-2.9884-3.7369-3.7134-5.5752l-1.1309-2.8711-0.19336-11.301c-0.11485-6.733-0.15953-10.167-0.52148-12.734zm-132.95 3.3193c0.89272 0.72046 1.64 1.3613 2.1958 1.8706-0.0858 1.0064-0.14937 2.3159-0.20214 4.0049-0.10632 3.4027-0.16113 8.2708-0.16113 14.416v15.549h-1.7227v-34.956a3.7504 3.7504 0 0 0-0.10986-0.88477zm177.67 3.4058h3.6284c-0.21125 0.21514-0.16542 0.23237-0.39844 0.4585-0.40073 0.38888-0.83747 0.80095-1.3081 1.2349l-1.9219 1.7695zm-92.682 3.2139h0.24317l0.22119 0.0293a3.7504 3.7504 0 0 0-0.46436-0.0293zm-66.686 9.0908c-6e-5 0 0.11649 6e-3 0.23291 0.0117-0.12026-4e-3 -0.20017-7e-3 -0.25781-9e-3 1e-3 -1.8e-4 0.0249-3e-3 0.0249-3e-3zm0.45556 0.022c8.9e-4 5e-5 0.0147 1e-3 0.0147 1e-3 -1.3e-4 -1e-5 0.11776 0.0207 0.21533 0.0366-0.10514-0.0166-0.20494-0.0344-0.22998-0.0381zm85.049 1.4004c7e-3 9e-5 0.0249 0 0.0249 0-2e-5 0 0.0869 9e-3 0.14502 0.0146-0.0783-7e-3 -0.16989-0.0146-0.16992-0.0146zm115.32 5.0625c-0.23332 0.46846-0.41163 1.0901-0.41163 2.1665 0 1.182 0.60263 2.1483 1.0576 2.6221 0.45498 0.47377 0.80492 0.65347 1.0693 0.78516a3.7504 3.7504 0 0 0 0.0117 6e-3c0.417 0.20573 0.66562 0.26663 0.90235 0.3252a3.7504 3.7504 0 0 0 4e-3 1e-3l9e-3 1e-3c7e-3 2e-3 0.0106 1e-3 0.0176 3e-3a3.7504 3.7504 0 0 0 0.43946 0.0762c0.17177 0.0287 0.36206 0.0703 0.5332 0.0908h6e-3a3.7504 3.7504 0 0 0 6e-3 1e-3c0.64155 0.0768 1.3868 0.12951 2.2969 0.17578a3.7504 3.7504 0 0 0 7e-3 0c6e-3 3.2e-4 0.0156 1e-3 0.022 1e-3 0.15473 8e-3 0.36868 0.0103 0.53174 0.0176h-8.4639c0.12188-1.355 0.33187-2.5244 0.70459-3.6182 0.29466-0.86465 0.6793-1.7017 1.21-2.5913 6.1e-4 -1e-3 8.6e-4 -2e-3 1e-3 -3e-3a3.7504 3.7504 0 0 0 1e-3 -1e-3c0.0111-0.0186 0.0327-0.0414 0.0439-0.06zm-200.46 0.9785c-0.0479 9e-3 -0.17433 0.0322-0.17431 0.0322 1e-5 0-0.0339-1e-3 -0.0396-1e-3 0.0165-2e-3 0.13071-0.0187 0.21387-0.0308zm84.444 1.4062c0.0215 2e-3 0.18458 0.0177 0.33105 0.0322-0.1316-0.0112-0.26808-0.022-0.26806-0.022zm122.96 0.90089c-0.0987 0.27344-0.18203 0.22345-0.0249 0.0264 4e-3 -5e-3 0.0206-0.0211 0.0249-0.0264zm-187.14 0.27832c0.22535 0.0819 0.60009 0.26201 0.79541 0.32666h-3e-3c-0.43634-0.14491 1.0058 0.86409 1.0898 0.99609 1.129 1.7736 2.6918 2.9157 4.4312 3.958-0.0442-0.0227-0.0692-0.0356-0.12012-0.0615-1.5543-0.78946-3.0836-1.5742-4.5747-2.3511-0.0991-0.0516-0.18274-0.0951-0.24463-0.12744-0.53592-0.27961-1.0277-0.54591-1.5513-0.82178a3.7504 3.7504 0 0 0 0.17725-1.9189zm96.97 4.5601c2e-3 8.1e-4 0.0176 7e-3 0.0176 7e-3 -6e-5 -3e-5 0.12364 0.0805 0.19189 0.12451-0.0837-0.0522-0.2034-0.12806-0.20947-0.13183zm-89.837 1.2041c0.47363 0.26161 0.87087 0.55444 1.3799 0.81299a3.7504 3.7504 0 0 0 3e-3 3e-3l0.64746 0.32812a3.7504 3.7504 0 0 0-0.37939 1.3154c-0.0669-0.0274-0.12924-0.0613-0.19629-0.0894a3.7504 3.7504 0 0 0-1.4546-2.3701zm-11.739 0.0147c-6e-3 0.0312 0.0114 0.0511 6e-3 0.082-0.0347 0.14344-0.0367 0.037-0.063 0.28565zm175.16 2.1533h0.1421a3.7504 3.7504 0 0 0 1e-3 4e-3 3.7504 3.7504 0 0 0-0.14356-4e-3zm-148.51 1.0474h0.4497v0.20361c-0.12107-0.0511-0.3195-0.14733-0.4497-0.20361zm83.112 0.41894h6e-3c-0.0191 1e-3 -0.28735 0.0188-0.29004 0.019-3e-3 2.9e-4 0.28443-0.019 0.28418-0.019zm-198.44 0.83936c-0.13973 0.0259-0.32725 0.0612-0.33692 0.063 1e-3 -5.7e-4 0.019-9e-3 0.019-9e-3 -3e-5 1e-5 0.19665-0.0336 0.31788-0.0542zm28.27 9e-3c0.20133 0.0824 0.25334 0.1474 0.26513 0.17432 7.9e-4 3.5e-4 6.9e-4 1e-3 1e-3 1e-3 1e-3 2e-3 5e-3 0.0132 7e-3 0.0146 0.045 0.0249-0.0103-7e-3 -0.0615-0.0396 0.0262 0.0121 0.0295 0.0127 0.0527 0.0234-0.0252-0.0118-0.0273-0.0123-0.0542-0.0249l-1e-3 -1e-3c-6e-4 -2.8e-4 -8.7e-4 2.8e-4 -1e-3 0-8.8e-4 -4.1e-4 -5.8e-4 -1e-3 -1e-3 -1e-3 -6e-4 -2.8e-4 -8.7e-4 2.8e-4 -1e-3 0-8.8e-4 -4e-4 -6e-4 -1e-3 -1e-3 -1e-3 -2e-3 -1e-3 2e-4 -3.9e-4 -1e-3 -1e-3l-7e-3 -4e-3a3.7504 3.7504 0 0 0-1e-3 -1e-3c-0.0364-0.024-0.1425-0.1027-0.19335-0.13769zm-0.16114 0.0234c0.0547 0.0125 0.19338 0.0439 0.19336 0.0439 0 0 0.0147 7e-3 0.0161 7e-3 -2e-3 -5.7e-4 -0.14195-0.0347-0.20947-0.0513zm-28.494 0.0454c-0.0758 0.0304-0.0138 7e-3 -0.0586 0.0264-0.0231 0.01 0.048-0.0231 0.0205-0.0117zm187.49 1.0503c0.0434 0.0183 0.26036 0.10955 0.26514 0.11132 5e-3 2e-3 -0.25953-0.1085-0.25928-0.10839l-6e-3 -3e-3zm-207.11 5.436c-0.0954 0.0558-0.16583 0.10125-0.20801 0.12158 0.0112-5e-3 6e-3 -3e-3 0.019-9e-3 0.0383-0.0185 0.10405-0.0624 0.18896-0.11279zm218.32 0.0601c0.15596 0.0155 0.33421 0.0333 0.33837 0.0337-3.3e-4 3e-5 -7e-3 0-7e-3 0 8e-5 0-0.18157-0.0181-0.33106-0.0337zm-195.28 0.0703c3e-3 -2e-3 -0.29321 0.18032-0.29296 0.18018 0 0-0.0139 6e-3 -0.0147 6e-3 0.0121-7e-3 0.30494-0.18421 0.30761-0.18604zm-0.42187 0.23878c-0.1487 0.0675-0.40731 0.1846-0.40722 0.18457 0 0-0.0129 3e-3 -0.0132 3e-3 0.0397-0.0176 0.28847-0.12889 0.4204-0.1875zm-23.858 0.17139c-5e-3 6.9e-4 -0.2371 0.0325-0.43213 0.06 0.1872-0.0253 0.42476-0.0571 0.4248-0.0571l7e-3 -3e-3zm147.02 0.20508c-0.0321 3e-3 0.0502-2e-3 0.0234 0-0.052 4e-3 0.0118-3e-3 -0.0776 6e-3zm-99.735 15.88c-0.31566 0-0.34642 4e-3 -0.0908 3e-3a3.7504 3.7504 0 0 0-1e-3 0c-0.56275 3e-3 -1.1044 0.0364-1.6231 0.0937-0.39003 0.043-0.8055 0.10014-1.2495 0.19043-2.0706 0.42105-4.0106 1.336-5.4756 2.874-1.359 1.4269-2.1176 3.4121-2.231 5.4346l-2.0903-5.8228 0.0102 0.0322a3.7504 3.7504 0 0 0-3.5566-2.5635h-2.9575a3.7504 3.7504 0 0 0-3.5024 2.4097l-7.1177 18.605a3.7504 3.7504 0 0 0-0.23291 1.0459 3.7504 3.7504 0 0 0-0.0102 0.375 3.7504 3.7504 0 0 0 0.0234 0.35449 3.7504 3.7504 0 0 0 1e-3 0.022 3.7504 3.7504 0 0 0 0.0645 0.36622 3.7504 3.7504 0 0 0 0.085 0.30908 3.7504 3.7504 0 0 0 0.019 0.063 3.7504 3.7504 0 0 0 0.0864 0.22413 3.7504 3.7504 0 0 0 0.0542 0.13477 3.7504 3.7504 0 0 0 0.0703 0.13769 3.7504 3.7504 0 0 0 0.11133 0.2124 3.7504 3.7504 0 0 0 0.0337 0.0527 3.7504 3.7504 0 0 0 0.17431 0.26221 3.7504 3.7504 0 0 0 0.019 0.0234 3.7504 3.7504 0 0 0 0.22119 0.271 3.7504 3.7504 0 0 0 2.7847 1.2437h2.3818a3.7504 3.7504 0 0 0 3.52-2.458l1.125-3.0645h2.6118l1.0195 2.9795a3.7504 3.7504 0 0 0 0.0659 0.17871l3e-3 7e-3a3.7504 3.7504 0 0 0 3.4819 2.3569h2.5459a3.7504 3.7504 0 0 0 2.4712-0.93457c0.64991 0.22835 1.293 0.51032 1.9497 0.67089-0.0672-0.0164 3e-3 5e-3 0.20947 0.0527 0.19966 0.0466 0.30362 0.0644 0.31055 0.0659a3.7504 3.7504 0 0 0 1e-3 1e-3c0.52694 0.11342 1.0787 0.21311 1.6567 0.28271h9e-3c0.32355 0.0388 0.65047 0.069 0.98145 0.0894 0.33838 0.0209 0.67218 0.0308 1.0005 0.0308 0.68375 0 1.3546-0.0417 2.0098-0.12892a3.7504 3.7504 0 0 0 1e-3 0c0.3332-0.0444 0.65693-0.10147 0.9712-0.16698 1.5756-0.32798 2.9931-1.1396 4.2451-2.1445a3.7504 3.7504 0 0 0 1.0166 0.66944c0.30485 0.13568 0.619 0.26902 0.94483 0.39697a3.7504 3.7504 0 0 0 1e-3 0 3.7504 3.7504 0 0 0 0.0146 6e-3c0.30945 0.12125 0.62289 0.23672 0.93897 0.34423 0.32855 0.11179 0.65162 0.21133 0.9668 0.30177 0.60187 0.17268 1.198 0.31049 1.7856 0.4204-0.1336-0.025-0.078-9e-3 0.16846 0.0352a3.7504 3.7504 0 0 0 0.0103 1e-3c0.32846 0.0581 0.65461 0.1062 0.97705 0.14502a3.7504 3.7504 0 0 0 1e-3 0 3.7504 3.7504 0 0 0 0.43066 0.0264 3.7504 3.7504 0 0 0 0.0161 0c0.51242 0.0481 1.0254 0.0937 1.5381 0.0937 0.68308 0 1.3557-0.0423 2.0156-0.13038 0.65529-0.0875 1.2948-0.21843 1.9175-0.3999a3.7504 3.7504 0 0 0 1e-3 0c0.62532-0.18232 1.2268-0.41458 1.8018-0.69727a3.7504 3.7504 0 0 0 1e-3 0c0.22111-0.10873 0.41673-0.26482 0.62988-0.38964a3.7504 3.7504 0 0 0 2.8828 1.3579h2.3818a3.7504 3.7504 0 0 0 3.4819-2.3569l3e-3 -7e-3a3.7504 3.7504 0 0 0 0.0381-0.10107l0.91553-2.4961 0.20654-0.56104h2.6118l1.0225 2.9868a3.7504 3.7504 0 0 0 3.5479 2.5356h2.5459a3.7504 3.7504 0 0 0 2.4741-0.9375c0.66542 0.23384 1.3243 0.52135 1.9966 0.68408-0.10531-0.0255-0.0486-7e-3 0.16553 0.0425 0.22079 0.0515 0.34686 0.0732 0.375 0.0791a3.7504 3.7504 0 0 0 1e-3 1e-3c0.1345 0.0285 0.33689 0.0745 0.61084 0.12304 0.32552 0.0576 0.65246 0.10687 0.98145 0.14648h9e-3c0.32189 0.0386 0.64814 0.0689 0.97998 0.0894 0.33926 0.021 0.67308 0.0307 1.0005 0.0308h1e-3c0.6831-9e-5 1.3542-0.0417 2.0098-0.12892a3.7504 3.7504 0 0 0 1e-3 0c0.33327-0.0445 0.6571-0.10152 0.97119-0.16698 1.4434-0.30046 2.7466-1.018 3.9302-1.894a3.7504 3.7504 0 0 0 0.71338 0.41894c1.2542 0.55819 2.5382 0.99759 3.8408 1.3008 0.11387 0.0264 0.32233 0.0754 6e-3 1e-3a3.7504 3.7504 0 0 0 4e-3 1e-3c0.65053 0.15102 1.3078 0.26799 1.9688 0.34716 0.31706 0.038 0.64228 0.0687 0.97705 0.0894 0.34286 0.0213 0.6788 0.0308 1.0064 0.0308 0.68415 0 1.3534-0.0423 2.0054-0.12892 2.0098-0.26682 3.8491-1.0556 5.3994-2.2778a3.7504 3.7504 0 0 0 3.3852 2.1475h2.272a3.7504 3.7504 0 0 0 2.8462-1.3169 3.7504 3.7504 0 0 0 2.852 1.3169h2.1358a3.7504 3.7504 0 0 0 3.75-3.75v-3.6431l4.0093 5.7803a3.7504 3.7504 0 0 0 3.082 1.6128h2.5195a3.7504 3.7504 0 0 0 2.9399-1.4238c0.86393 0.37307 1.7378 0.70636 2.625 0.96094 0.64275 0.18442 1.2952 0.33837 1.9556 0.45556 0.33483 0.0594 0.66421 0.10756 0.9873 0.14648 0.33011 0.0398 0.66004 0.0691 0.99023 0.0894a3.7504 3.7504 0 0 0 1e-3 0c0.0769 5e-3 0.15317 4e-3 0.22998 7e-3 0.25486 0.012 0.51007 0.0234 0.76319 0.0234h1e-3c0.68242-8e-5 1.3553-0.0422 2.0156-0.13038 1.6421-0.21917 3.1957-0.71748 4.5659-1.563l1e-3 -1e-3c0.54865-0.33862 1.0664-0.73283 1.5366-1.1821 0.4687-0.44799 0.89485-0.95362 1.2583-1.5102a3.7504 3.7504 0 0 0 0.37939-0.77052c0.17382-0.33658 0.37617-0.65539 0.50391-1.0166h-1e-3c0.0575-0.16271 0.0669-0.33672 0.11425-0.50245 0.7833 3.1266 3.1203 5.8347 6.3091 6.4395 0.53858 0.10216 1.1035 0.1582 1.686 0.1582 0.31679 0 0.57133-0.0191 0.75586-0.0337 0.28558-0.0225 0.60989-0.0572 0.97558-0.12598 1.0175-0.19093 1.9564-0.59444 2.7993-1.147a3.7504 3.7504 0 0 0 2.7495 1.207h1.2022a3.7504 3.7504 0 0 0 3.75-3.75v-0.81885h0.87112a3.7504 3.7504 0 0 0 3.75-3.75v-1.021a3.7504 3.7504 0 0 0-0.19482-1.1836 3.7504 3.7504 0 0 0 0.61377-2.0508v-1.021a3.7504 3.7504 0 0 0-3.75-3.75h-6.2432a3.7504 3.7504 0 0 0-2.7202 1.1719c-0.59583-0.38007-1.2041-0.74877-1.897-0.94922-0.26226-0.0759-0.53934-0.14286-0.82764-0.19629-0.26996-0.0501-0.54512-0.0888-0.82178-0.11425a3.7504 3.7504 0 0 0-3e-3 0 3.7504 3.7504 0 0 0-9e-3 -1e-3 3.7504 3.7504 0 0 0-4e-3 0c-3e-3 -2.9e-4 -7e-3 2.9e-4 -0.0102 0-0.27093-0.0241-0.5523-0.0381-0.84228-0.0381-0.8767 0-1.7403 0.12121-2.5591 0.36328-2.7789 0.82159-4.7816 3.2165-5.5606 5.9897-0.062-0.24229-0.04-0.50761-0.12451-0.74121-0.11451-0.31669-0.29529-0.58407-0.44678-0.87597a3.7504 3.7504 0 0 0-0.41455-0.81153 3.7504 3.7504 0 0 0-1e-3 -3e-3c-0.35099-0.51486-0.75002-0.9604-1.1616-1.3403a3.7504 3.7504 0 0 0-3e-3 -3e-3c-0.42009-0.38738-0.855-0.7076-1.2832-0.97852-0.21243-0.13439-0.41839-0.20376-0.62989-0.31786a3.7504 3.7504 0 0 0 3.0322-3.6782v0.70899l0.4248-1.0811a3.7504 3.7504 0 0 0-2.0054-4.8149c-1.0583-0.45664-2.1626-0.79639-3.2915-1.0269-1.1286-0.2304-2.2849-0.35156-3.4497-0.35156h-1e-3c-3e-3 0-0.0137-3e-5 -0.0308 0-0.67214 1e-3 -1.3306 0.0422-1.9731 0.12598-0.32993 0.043-0.65171 0.0984-0.9668 0.1626-0.31502 0.0642-0.62953 0.13899-0.94335 0.22852a3.7504 3.7504 0 0 0-1e-3 0c-0.30223 0.0863-0.60657 0.18495-0.91261 0.30029-0.30906 0.11646-0.60206 0.24456-0.88183 0.37939a3.7504 3.7504 0 0 0-1e-3 0c-0.83332 0.40185-1.5755 0.9831-2.2603 1.6333a3.7504 3.7504 0 0 0-0.10693-0.29004 3.7504 3.7504 0 0 0-3.457-2.2983h-2.1357a3.7504 3.7504 0 0 0-3.75 3.75v3.5669l-3.9199-5.6938a3.7504 3.7504 0 0 0-3.0894-1.623h-2.6016a3.7504 3.7504 0 0 0-2.8447 1.3154 3.7504 3.7504 0 0 0-2.8506-1.3154h-2.272a3.7504 3.7504 0 0 0-2.7847 1.2466 3.7504 3.7504 0 0 0-0.22267-0.10986c-2.1143-0.91232-4.4165-1.3784-6.7427-1.3784h-9e-3c-0.24973 0-0.31125 6e-3 -0.18164 4e-3a3.7504 3.7504 0 0 0-3e-3 0c-0.24183 3e-3 -0.51729 8e-3 -0.83056 0.0278-0.26255 0.0167-0.40324 0.0371-0.41456 0.0381-2.2033 0.19968-4.2418 0.94682-5.9399 2.2529a3.7504 3.7504 0 0 0-1.3096-0.94482c-1.0622-0.45832-2.169-0.79686-3.2974-1.0269-1.1245-0.22918-2.2785-0.35156-3.4438-0.35156h-6e-3c-0.24313 0-0.2848 4e-3 -0.12158 3e-3a3.7504 3.7504 0 0 0-1e-3 0c-0.54837 4e-3 -1.0703 0.0388-1.563 0.0923-0.39369 0.0426-0.8185 0.0983-1.2788 0.19189-2.0705 0.42108-4.011 1.3357-5.4756 2.874-1.3587 1.427-2.1162 3.4125-2.2295 5.4346l-2.1079-5.8711a3.7504 3.7504 0 0 0-3.5288-2.4829h-2.956a3.7504 3.7504 0 0 0-0.17285 9e-3h0.16846a3.7504 3.7504 0 0 0-3.1553 1.7241 3.7504 3.7504 0 0 0-0.18604 0.3208 3.7504 3.7504 0 0 0-1e-3 4e-3 3.7504 3.7504 0 0 0-0.14795 0.33398 3.7504 3.7504 0 0 0-0.0615 0.17139l0.0381-0.11426-3.7602 9.8291c-0.0868-0.11146-0.14884-0.24966-0.24023-0.35449-0.20496-0.23508-0.40989-0.43985-0.60792-0.62256a3.7504 3.7504 0 0 0 0-1e-3c-0.41414-0.38208-0.84903-0.70436-1.2847-0.97999-0.18725-0.11845-0.37567-0.22637-0.56396-0.32958a3.7504 3.7504 0 0 0 2.707-2.2969l0.68408-1.7432a3.7504 3.7504 0 0 0-2.0317-4.8179l0.0249 4e-3c-0.0363-0.0157-0.0749-0.0256-0.11133-0.041a3.7504 3.7504 0 0 0-0.18164-0.0674c-0.43577-0.17805-0.87384-0.3489-1.3242-0.48926-0.55243-0.17218-1.1114-0.31434-1.6743-0.4292-1.128-0.23014-2.2847-0.35156-3.4497-0.35156h-1e-3c-0.46296 0-0.47421 2e-3 -0.0308 1e-3 -0.63948 1e-3 -1.2652 0.0387-1.8765 0.11425-2.1844 0.26977-4.213 1.0804-5.8521 2.4873a3.7504 3.7504 0 0 0-1.5352-1.2246c-0.53614-0.23134-1.078-0.42832-1.6216-0.59766h-1e-3c-0.5442-0.16954-1.0991-0.31137-1.6597-0.42627a3.7504 3.7504 0 0 0-3e-3 -1e-3h-3e-3c-2e-5 -1e-5 -3e-3 0-3e-3 0a3.7504 3.7504 0 0 0-1e-3 -1e-3 3.7504 3.7504 0 0 0-3e-3 0c-1.1258-0.22958-2.2816-0.35156-3.4468-0.35156zm204.59 0c-3.7969 0-7.3249 1.2655-9.8408 3.7046-0.35989 0.34889-0.64171 0.76386-0.95362 1.1543v-0.8584a3.7504 3.7504 0 0 0-0.3003-1.4692 3.7504 3.7504 0 0 0-0.15966-0.32813 3.7504 3.7504 0 0 0-4e-3 -9e-3 3.7504 3.7504 0 0 0-0.19043-0.31201 3.7504 3.7504 0 0 0-3.0996-1.6406h-2.1357a3.7504 3.7504 0 0 0-3.75 3.75v3.5654l-3.9185-5.6924a3.7504 3.7504 0 0 0-3.0894-1.623h-2.6016a3.7504 3.7504 0 0 0-2.8447 1.3154 3.7504 3.7504 0 0 0-2.8506-1.3154h-2.272a3.7504 3.7504 0 0 0-1.916 0.53174 3.7504 3.7504 0 0 0-0.0132-7e-3 3.7504 3.7504 0 0 0-0.31055-0.16406 3.7504 3.7504 0 0 0-7e-3 -4e-3 3.7504 3.7504 0 0 0-0.0234-0.0103 3.7504 3.7504 0 0 0-1.5615-0.34424h-2.7656a3.7504 3.7504 0 0 0-2.7349 1.185l-1.856 1.979a3.7504 3.7504 0 0 0-0.83643-1.8296 3.7504 3.7504 0 0 0-0.25048-0.26954 3.7504 3.7504 0 0 0-6e-3 -6e-3 3.7504 3.7504 0 0 0-0.27539-0.24024 3.7504 3.7504 0 0 0-2.3335-0.81884l-2.272-1e-3a3.7504 3.7504 0 0 0-3.7529 3.75v18.605a3.7504 3.7504 0 0 0 0.66065 2.1255 3.7504 3.7504 0 0 0 0.22265 0.29151 3.7504 3.7504 0 0 0 4e-3 6e-3 3.7504 3.7504 0 0 0 0.2505 0.26807 3.7504 3.7504 0 0 0 2.6177 1.0664h2.272a3.7504 3.7504 0 0 0 3.7354-3.4394l1.8574 2.1079-0.0615-0.0776a3.7504 3.7504 0 0 0 0.18604 0.21093 3.7504 3.7504 0 0 0 0.12451 0.12745 3.7504 3.7504 0 0 0 0.1333 0.12304 3.7504 3.7504 0 0 0 0.1582 0.13331 3.7504 3.7504 0 0 0 0.12012 0.0908 3.7504 3.7504 0 0 0 0.20801 0.14063 3.7504 3.7504 0 0 0 0.0806 0.0498 3.7504 3.7504 0 0 0 0.26513 0.14354 3.7504 3.7504 0 0 0 0.0483 0.022 3.7504 3.7504 0 0 0 0.31641 0.13331 3.7504 3.7504 0 0 0 6e-3 3e-3 3.7504 3.7504 0 0 0 0.3501 0.1084 3.7504 3.7504 0 0 0 9e-3 3e-3 3.7504 3.7504 0 0 0 0.91698 0.11279h-0.14208a3.7504 3.7504 0 0 0 0.14941 7e-3h3.0117a3.7504 3.7504 0 0 0 1.7036-0.41455 3.7504 3.7504 0 0 0 1.7124 0.41455h2.272a3.7504 3.7504 0 0 0 2.8462-1.3169 3.7504 3.7504 0 0 0 2.852 1.3169h2.1343a3.7504 3.7504 0 0 0 3.75-3.75v-3.646l3.936 5.6748-0.0586-0.0996a3.7504 3.7504 0 0 0 3.2153 1.8208h2.5181a3.7504 3.7504 0 0 0 3.75-3.75v-0.66065c0.26751 0.32997 0.49794 0.68929 0.80127 0.98878a3.7504 3.7504 0 0 0 4e-3 3e-3c-0.0402-0.0396-0.0393-0.0386 3e-3 3e-3 0.29581 0.29163 0.51397 0.46505 0.61378 0.55078a3.7504 3.7504 0 0 0 3e-3 3e-3c-0.0655-0.0561 0.0395 0.0531 0.33985 0.2915 0.32164 0.25561 0.58398 0.42888 0.76465 0.55079a3.7504 3.7504 0 0 0 4e-3 3e-3c-0.13903-0.0936-0.0538-0.0175 0.27686 0.19189-7.7e-4 0-0.195-0.12304 9e-3 6e-3 0.35936 0.22718 0.72908 0.43368 1.106 0.62109 1.929 0.96103 4.1268 1.4385 6.438 1.4385 2.8551 0 5.6186-0.76765 8.0039-2.2339a3.7504 3.7504 0 0 0 0.79249 0.48194c1.2599 0.56073 2.5477 1.0009 3.8525 1.3037 0.97425 0.22607 1.9622 0.376 2.9575 0.43652 0.33388 0.0205 0.66556 0.0308 0.99463 0.0308 2.7454 0 5.325-0.66457 7.3799-2.2427 2.0548-1.5781 3.3779-4.2033 3.3779-6.895 0-2.658-1.43-5.1638-3.1494-6.4658-0.45342-0.34335-0.89731-0.51151-1.3477-0.7544a3.7504 3.7504 0 0 0 2.8418-2.3203l0.68408-1.7432a3.7504 3.7504 0 0 0-2.0054-4.8135c-2.1136-0.91199-4.415-1.3784-6.7412-1.3784h-9e-3c-0.24971 0-0.31128 6e-3 -0.18164 4e-3a3.7504 3.7504 0 0 0-3e-3 0c-0.24183 3e-3 -0.51728 8e-3 -0.83057 0.0278-0.26253 0.0167-0.40321 0.0371-0.41454 0.0381-2.4094 0.21834-4.6753 0.99769-6.4512 2.5576-0.13617 0.11961-0.23962 0.27498-0.36767 0.4043a3.7504 3.7504 0 0 0-0.19044-0.28125 3.7504 3.7504 0 0 0-0.22412-0.27392 3.7504 3.7504 0 0 0-0.0132-0.0147 3.7504 3.7504 0 0 0-0.2505-0.25049 3.7504 3.7504 0 0 0-7e-3 -6e-3 3.7504 3.7504 0 0 0-0.89062-0.60205c-2.2539-1.0854-4.7806-1.604-7.377-1.604zm-198.6 3.0923c2e-3 8.1e-4 9.1e-4 6.4e-4 3e-3 1e-3 -1e-3 -5.4e-4 -3e-3 5.5e-4 -4e-3 0zm50.64 0c2e-3 8.1e-4 9.1e-4 6.4e-4 3e-3 1e-3 -1e-3 -5.4e-4 -3e-3 5.5e-4 -4e-3 0zm91.308 0.90673a3.7504 3.7504 0 0 0 6e-3 0.11573v3.6255h-6e-3zm-135.12 5.3247h1e-3c-0.0199-0.0339 0.0137 0.0252 0 1e-3 -4.5e-4 -7.6e-4 -1e-3 -6.8e-4 -1e-3 -1e-3zm150.02 0.0147v7.2744l-3.3691-3.7602zm-113.43 0.19042c-3e-3 6.8e-4 6e-3 -6.4e-4 3e-3 0l-4e-3 1e-3a3.7504 3.7504 0 0 0 1e-3 -1e-3zm22.668 0.50098v0.66064c-0.26257-0.17222-0.51865-0.29599-0.77929-0.43652a3.7504 3.7504 0 0 0 0.77929-0.22412zm-66.668 0.19043c2e-3 0.0129 3e-3 0.0267 4e-3 0.0396a3.7504 3.7504 0 0 0 4e-3 0.10108c-0.0639-0.0361-0.12672-0.0726-0.19043-0.10694a3.7504 3.7504 0 0 0 0.18164-0.0337zm-14.035 4.0605c0.58242 0.67229 1.2015 1.2313 1.8516 1.648a3.7504 3.7504 0 0 0-1.1733 0.2417zm50.733 0.26368c0.3007 0.3276 0.60448 0.65192 0.93164 0.89795 0 0 3e-3 1e-3 3e-3 1e-3 5.2e-4 3.9e-4 9.3e-4 1e-3 1e-3 1e-3a3.7504 3.7504 0 0 0 4e-3 3e-3 3.7504 3.7504 0 0 0 0.0176 0.0147c3e-5 3e-5 0.0669 0.0402 0.0879 0.0527 0.21795 0.15868 0.43788 0.28335 0.65771 0.41748a3.7504 3.7504 0 0 0-1.1206 0.23731zm60.936 0.70751c0.31003 0.24733 0.61969 0.48944 0.93457 0.68262a3.7504 3.7504 0 0 0-0.93457 0.17139zm111.8 0.55519c0.0717 0.0458 0.14085 0.0767 0.21241 0.12011a3.7504 3.7504 0 0 0-0.21241 0.0146zm-52.085 4.043 0.0776 0.0967v0.0293a3.7504 3.7504 0 0 0-0.0937-0.0864zm-165.44 4.6728c7e-3 8.4e-4 0.0147 6.3e-4 0.022 1e-3 -8.1e-4 -3e-5 -0.0161 0-0.0161 0z" color="#000000" color-rendering="auto" dominant-baseline="auto" image-rendering="auto" opacity=".3" shape-rendering="auto" solid-color="#000000" style="font-feature-settings:normal;font-variant-alternates:normal;font-variant-caps:normal;font-variant-ligatures:normal;font-variant-numeric:normal;font-variant-position:normal;isolation:auto;mix-blend-mode:normal;shape-padding:0;text-decoration-color:#000000;text-decoration-line:none;text-decoration-style:solid;text-indent:0;text-orientation:mixed;text-transform:none;white-space:normal"/><path d="m151.61 131.76v3.6899h5.5298v13.515h3.6856v-13.515h6.1435v-3.6899zm17.014 0 1.0151 1.1265 1.0181 1.1206v15.571h3.687v-7.3711h2.0713c1.1408 0 2.9377 0.17246 3.9946 0.38232l1.919 0.38526v4.8379c0 5.1968 0.42087 5.7533 2.4126 3.2197l1.2744-1.6172v-17.655h-3.687v7.5366l-2.3042-0.38232c-1.2668-0.20986-3.0645-0.38418-3.9917-0.38818l-1.689-4e-3v-6.7617zm20.314 0.61523 0.6255 0.77052c0.34339 0.4197 0.72546 3.0286 0.84375 5.7949l0.22118 5.0259 1.27 1.7314c0.69825 0.95009 2.2165 2.2138 3.3765 2.8052 1.16 0.59141 3.0065 1.0752 4.1016 1.0752h1.9995v-3.5244l-2.228-0.36328c-4.2811-0.69445-6.257-4.0972-2.3804-4.0972h2.1518v-3.6856h-4.919v-3.0718h6.7617v-2.4609zm-90.551 14.316c-0.65272-0.0501-0.03887 0.78217 2.2397 2.7319 14.228 12.183 25.228 20.92 37.08 29.459 14.152 10.199 15.938 11.252 24.347 14.38 2.5335 0.94245 5.2878 1.7286 6.1157 1.7476l1.5073 0.0352-7.96-5.811c-1.897-1.3859-3.9201-2.8997-5.8096-4.3228l3.9976 2.6704 0.16845-8.25 0.1714-8.2485h22.084v-7.9863h-34.5l1.8882 1.5908 1.8926 1.5879v15.359c-0.57559-0.44868-1.1579-0.90393-1.5366-1.2114-2.0261-1.6483-4.9296-3.7767-6.4482-4.7344-1.4347-0.89895-4.695-3.1503-7.4722-5.1475 0.72299 0.3162 1.8983 0.54199 2.9927 0.54199h2.6323v-7.9863h-16.194l4.5674 3.1216c2.0844 1.4276 4.0678 2.8634 4.9834 3.5991-16.31-11.752-34.439-22.95-36.747-23.127zm249.59 11.61c-6.8371-0.0166-14.269 4.793-16.723 13.232-1.4079 4.842-0.88869 5.831 1.2671 2.4199 1.9536-3.0906 2.4611-3.3166 4.2964-1.9277 1.4385 1.0874 2.8008 1.1725 2.8008 0.17285 0-4.6474 8.0664-7.8491 11.394-4.522 2.8846 2.8808 1.5446 6.1233-4.7168 11.454-9.7793 8.3141-12.752 12.661-13.293 19.437l-0.30908 3.8496h28.43v-7.3711h-9.523c-5.2388 0-9.5244-0.21778-9.5244-0.48486 0-0.99969 3.5834-4.4494 9.6006-9.2417 7.3488-5.8569 8.7792-7.5704 13.358-16.018 4.3459-8.0203 4.3228-8.2984-0.35888-4.1279l-3.8232 3.4043-1.4604-3.0791c-2.336-4.9137-6.7361-7.1854-11.414-7.1968zm-332.24 4.7959 0.39697 25.496 1.7505 3.564c0.96152 1.9612 3.0872 4.9031 4.7241 6.5361l2.9722 2.9766 8.1768 4.0137c4.4986 2.2054 8.5965 4.0298 9.104 4.0488 1.2591 0.0496 4.9145-5.6858 4.9145-7.708v-1.6406l1.1104 1.0034c1.179 1.0722 16.277 8.4023 17.295 8.4023 0.33578 0 1.584-1.4464 2.7744-3.2168l2.168-3.2168v-40.258h-12.359l1.5908 1.3813 1.5879 1.3814-0.17284 16.118-0.17139 16.112-3.1128-1.4414c-4.2315-1.9612-7.5904-5.0441-9.1128-8.3599l-1.2656-2.7671-0.22559-11.213-0.22558-11.21h-8.4858v17.509c0 9.6305-0.1292 17.511-0.28564 17.511-3.5943 0-11.477-6.27-12.973-10.318l-1.0693-2.8916-0.5332-21.81zm70.286 0-6.605 4e-3 3.9917 2.4346v37.438l4.147 3.3721c2.2817 1.8544 4.3542 3.3881 4.6099 3.4072 0.25183 0.0191 0.46142-10.469 0.46142-23.309v-23.348zm13.362 0v7.9863h16.586v38.706h9.2183v-19.299c0-12.244 0.22166-19.379 0.61083-19.509 0.33576-0.11065-1.5757-1.9306-4.2466-4.0444l-4.8574-3.8394zm90.223 0 1.8896 1.5908 1.8882 1.5879v43.513h8.6045v-10.444c0-5.7462 0.23941-10.443 0.5332-10.443 1.1409 0 18.925 1.8577 20.814 2.1782l1.9995 0.33252v13.797c0 8.9895 0.21722 13.797 0.62549 13.797 1.137 0 6.2117-5.1209 7.4136-7.4751l1.1763-2.3086v-46.126h-9.2153v19.799l-2.6133-0.35888c-1.4346-0.19841-5.513-0.64448-9.0615-0.9917-3.5485-0.35104-7.6245-0.79009-9.063-0.97705l-2.6089-0.34278v-17.128zm84.267 0-16.128 0.0234-16.128 0.0264 1.6816 0.9126c2.1863 1.1866 2.2411 1.5369 2.4814 15.624l0.20508 11.981 1.3814 3.5024c2.5145 6.3758 9.52 12.316 16.441 13.938 1.3088 0.30906 4.1126 0.58817 6.2227 0.62256l3.8423 0.0615v-7.9863h-2.7422c-8.0623 0-13.725-4.5107-16.006-12.749l-0.38232-1.3814h12.984v-8.603h-12.901v-9.2153h19.047zm24.42 0-17.972 4e-3 1.9995 1.2173 1.9966 1.2173v44.253h9.2139v-19.658h3.6665l3.8511 4.0562c6.3491 6.6887 17.066 16.139 21.946 19.348 2.5183 1.656 4.9372 3.0146 5.376 3.0146h0.79834l-0.0352-4.4561-0.0337-4.4531-3.0601-2.2134c-4.2353-3.0601-13.229-11.385-16.988-15.724l-3.1289-3.6138 3.9155-3.2622c2.3008-1.9154 4.433-4.3258 5.1694-5.8521l1.2554-2.5957v-11.282zm-4.7622 6.7573h14.133l-3e-3 0.76758c-8e-3 1.3202-2.0041 3.8269-5.915 7.4326l-3.769 3.4717h-4.4458zm-142.07 18.998 0.42041 2.2398c0.64015 3.4098 1.19 4.5763 2.9927 5.5019-1.4031-0.56621-4.4756-1.8887-7.9336-3.4189-4.613-2.0413-8.6546-3.6239-8.9751-3.5171-1.5749 0.52581 11.215 7.8449 25.541 15.103-3.732-1.7352-6.34-2.7385-5.8447-2.1416 1.5415 1.8544 5.9143 4.415 9.8291 5.7466 5.2751 1.7985 6.3838 1.7117 3.041-0.11133 5.4518 2.6552 10.831 5.1482 15.45 7.106 7.5892 3.2203 7.4176 2.3722-0.56836-2.7978-2.3077-1.4917-8.418-4.8552-14.505-8.0889 6.0316 3.0864 10.757 5.1845 11.88 5.231l1.9951 0.085v-8.6016h-12.095l-3.9375-1.9951c-2.3962-1.2172-4.4157-2.7506-5.1636-3.9258-0.67536-1.0607-2.0592-2.2057-3.0703-2.5415-1.015-0.33577-3.4689-1.3422-5.4492-2.2427zm-60.166 44.284c-4.2436 0-7.0093 2.0634-7.0093 5.3071 0 6.3802 10.623 3.9943 10.623 8.7393 0 1.8765-1.6429 3.0835-4.5176 3.0835-1.7248 0-3.86-0.45641-5.7217-1.207l-0.68408 1.7432c2.1081 0.93826 4.2436 1.4473 6.2695 1.4473 4.2436 0 7.0078-2.1172 7.0078-5.3877 0-6.5947-10.649-3.9671-10.649-8.7656 0-1.957 1.6155-3.0293 4.5176-3.0293 1.6153 0 3.3669 0.32033 4.7358 0.88329l0.68554-1.7417c-1.6153-0.697-3.4504-1.0723-5.2573-1.0723zm16.042 0c-4.2436 0-7.0078 2.0634-7.0078 5.3071 0 6.3802 10.622 3.9943 10.622 8.7393 0 1.8765-1.6429 3.0835-4.5176 3.0835-1.7248 0-3.86-0.45641-5.7217-1.207l-0.68408 1.7432c2.1081 0.93826 4.2436 1.4473 6.2695 1.4473 4.2436 0 7.0093-2.1172 7.0093-5.3877 0-6.5947-10.651-3.9671-10.651-8.7656 0-1.957 1.6155-3.0293 4.5176-3.0293 1.6153 0 3.3684 0.32033 4.7373 0.88329l0.68408-1.7417c-1.6153-0.697-3.4504-1.0723-5.2573-1.0723zm34.597 0c-4.2436 0-7.0078 2.0634-7.0078 5.3071 0 6.3802 10.623 3.9943 10.623 8.7393 0 1.8765-1.6429 3.0835-4.5176 3.0835-1.7248 0-3.8614-0.45641-5.7231-1.207l-0.68408 1.7432c2.1081 0.93826 4.2436 1.4473 6.2695 1.4473 4.2436 0 7.0093-2.1172 7.0093-5.3877 0-6.5947-10.651-3.9671-10.651-8.7656 0-1.957 1.6155-3.0293 4.5176-3.0293 1.6153 0 3.3684 0.32033 4.7373 0.88329l0.68408-1.7417c-1.6153-0.697-3.4504-1.0723-5.2573-1.0723zm15.426 0c-4.2436 0-7.0078 2.0634-7.0078 5.3071 0 6.3802 10.623 3.9943 10.623 8.7393 0 1.8765-1.6429 3.0835-4.5176 3.0835-1.7248 0-3.8614-0.45641-5.7232-1.207l-0.68408 1.7432c2.1081 0.93826 4.2436 1.4473 6.2695 1.4473 4.2436 0 7.0093-2.1172 7.0093-5.3877 0-6.5947-10.651-3.9671-10.651-8.7656 0-1.957 1.6155-3.0293 4.5176-3.0293 1.6153 0 3.3684 0.32033 4.7373 0.88329l0.68408-1.7417c-1.6153-0.697-3.4504-1.0723-5.2573-1.0723zm44.758 0c-4.2436 0-7.0078 2.0634-7.0078 5.3071 0 6.3802 10.622 3.9943 10.622 8.7393 0 1.8765-1.6414 3.0835-4.5161 3.0835-1.7248 0-3.8614-0.45641-5.7231-1.207l-0.68409 1.7432c2.1081 0.93826 4.2436 1.4473 6.2695 1.4473 4.2436 0 7.0093-2.1172 7.0093-5.3877 0-6.5947-10.651-3.9671-10.651-8.7656 0-1.957 1.6155-3.0293 4.5176-3.0293 1.6153 0 3.3684 0.32033 4.7373 0.88329l0.68408-1.7417c-1.6153-0.697-3.4504-1.0723-5.2573-1.0723zm93.77 0c-5.9958 0-9.9653 3.8327-9.9653 9.6768 0 5.6832 3.778 9.4102 9.5274 9.4102 2.6283 0 5.0093-0.75065 6.9258-2.2251v-7.8808h-7.6655v1.9292h5.3936v5.2016c-1.3415 0.67019-2.8199 1.0181-4.3257 1.0181-4.5721 0-7.5293-3.0828-7.5293-7.8545 0-4.6377 2.7105-7.3184 7.3374-7.3184 1.7248 0 3.7235 0.37511 5.3936 0.9917l0.65772-1.7153c-1.6701-0.80422-3.6688-1.2334-5.7495-1.2334zm17.202 0c-4.2436 0-7.0093 2.0634-7.0093 5.3071 0 6.3802 10.623 3.9943 10.623 8.7393 0 1.8765-1.6429 3.0835-4.5176 3.0835-1.7248 0-3.86-0.45641-5.7217-1.207l-0.68555 1.7432c2.1081 0.93826 4.2436 1.4473 6.2695 1.4473 4.2436 0 7.0093-2.1172 7.0093-5.3877 0-6.5947-10.649-3.9671-10.649-8.7656 0-1.957 1.614-3.0293 4.5161-3.0293 1.6153 0 3.3684 0.32033 4.7373 0.88329l0.68408-1.7417c-1.6153-0.697-3.4489-1.0723-5.2558-1.0723zm-241.06 0.2417-7.1177 18.604h2.3818l2.0259-5.5225h7.9116l1.8896 5.5225h2.5459l-6.6797-18.604zm50.64 0-7.1191 18.604h2.3818l2.0259-5.5225h7.9131l1.8882 5.5225h2.5459l-6.6797-18.604zm44.449 0v18.604h2.272v-18.604zm7.9673 0v18.604h2.1357v-15.628l10.841 15.628h2.5195v-18.604h-2.1357v15.628l-10.759-15.628zm65.626 0v18.604h2.272v-9.5962l8.4595 9.5962h3.0117l-8.8154-9.8379 8.4053-8.7656h-2.7656l-8.2954 8.8462v-8.8462zm17.165 0v18.604h2.272v-18.604zm7.9673 0v18.604h2.1343v-15.628l10.843 15.628h2.5181v-18.604h-2.1357v15.628l-10.759-15.628zm-192.47 1.9028 3.1758 9.249h-6.5435zm50.638 0 3.1758 9.249h-6.5435zm95.584 6.8174c-2.854 0-4.7505 2.042-4.7505 5.0918 0 2.9931 1.8399 4.979 4.6069 4.979 2.8974 0 4.8384-2.0565 4.8384-5.1489 0-2.9505-1.8843-4.9219-4.6948-4.9219zm7.1323 0.12744v9.8452h1.2026v-4.5688h4.6216v-1.021h-4.6216v-3.2344h5.0405v-1.021zm-7.2759 0.90821c2.1586 0 3.6064 1.6163 3.6064 4.0562 0 2.369-1.3912 3.958-3.4629 3.958-2.1151 0-3.52-1.6455-3.52-4.1279 0-2.3264 1.3483-3.8862 3.3765-3.8862z" fill="#bd1717" stroke="#000" stroke-linejoin="round" stroke-width="7.5"/><use transform="matrix(.97679 0 0 .97679 4.3605 4.1569)" x="200.71001" y="248.64999" width="100%" height="100%" fill="#73757f" xlink:href="#b"/><use transform="matrix(.97679 0 0 .97679 4.3605 4.1569)" x="228.61" y="248.64999" width="100%" height="100%" fill="#73757f" xlink:href="#b"/><path d="m225.34 205.21v-13.797l-1.9994-0.33195c-1.8887-0.32052-19.673-2.1787-20.814-2.1787-0.2938 0-0.53418 4.697-0.53418 10.443v10.443h-8.6041v-43.513l-1.8887-1.5873-1.8887-1.5911h12.382v17.128l2.6098 0.3434c1.4385 0.18696 5.5135 0.62575 9.062 0.97679 3.5485 0.34722 7.6273 0.79364 9.062 0.99204l2.6137 0.35867v-19.799h9.2146v46.126l-1.1752 2.3084c-1.2019 2.3542-6.2766 7.4747-7.4136 7.4747-0.40827 0-0.62575-4.8076-0.62575-13.797zm97.659 8.3256c-4.8801-3.2089-15.598-12.66-21.947-19.349l-3.8499-4.0559h-3.6668v19.658h-9.2146v-44.253l-1.9955-1.2172-1.9994-1.2172 17.971-4e-3h17.971v11.283l-1.2553 2.5946c-0.7364 1.5262-2.8693 3.9377-5.1701 5.8531l-3.9148 3.2623 3.1288 3.6133c3.7583 4.3383 12.752 12.664 16.987 15.724l3.0601 2.213 0.0343 4.4528 0.0344 4.4566h-0.79746c-0.43879 0-2.8579-1.3583-5.3761-3.0143zm-21.249-35.481c3.911-3.6057 5.9065-6.1125 5.9141-7.4327l4e-3 -0.76693h-14.133v11.672h4.4451zm-267.99 27.629-8.1768-4.014-2.9723-2.9761c-1.6369-1.6331-3.7622-4.5749-4.7237-6.5361l-1.7513-3.5637-0.39682-25.496h8.5736l0.53418 21.81 1.0684 2.8922c1.4957 4.0483 9.3787 10.317 12.973 10.317 0.15644 0 0.28617-7.8791 0.28617-17.51v-17.51h8.4858l0.22512 11.21 0.22512 11.214 1.2668 2.7663c1.5224 3.3157 4.8801 6.3987 9.1116 8.3599l3.1135 1.4423 0.1717-16.113 0.1717-16.117-1.5873-1.3812-1.5911-1.3812h12.359v40.258l-2.1672 3.2165c-1.1905 1.7704-2.4381 3.2165-2.7739 3.2165-1.0188 0-16.117-7.3297-17.296-8.4019l-1.1103-1.0035v1.6407c0 2.0222-3.6553 7.7571-4.9145 7.7075-0.50747-0.019-4.6054-1.8429-9.1039-4.0483zm53.8 0.6639-4.1475-3.373v-37.438l-3.9911-2.4343 6.6048-4e-3h6.6048v23.347c0 12.839-0.20986 23.328-0.46168 23.309-0.25564-0.0191-2.3275-1.5529-4.6092-3.4073zm28.415-15.911v-19.353h-16.586v-7.986h17.311l4.8572 3.8385c2.6709 2.1138 4.5825 3.9338 4.2467 4.0445-0.38918 0.12973-0.61049 7.2648-0.61049 19.509v19.299h-9.2184zm51.522 17.929c-3.9148-1.3316-8.2874-3.8919-9.8289-5.7462-0.74404-0.89666 5.4562 1.778 12.069 5.2006 4.3612 2.2588 3.4455 2.4839-2.2397 0.54562zm2.2397-4.4871c-6.082-3.1555-12.259-6.2079-13.725-6.7764-2.7548-1.0722-3.3653-1.965-4.1246-6.0095l-0.41972-2.2397 3.6057 1.6292c1.9803 0.90047 4.4337 1.9078 5.4486 2.2436 1.0111 0.33577 2.3962 1.4804 3.0715 2.5412 0.74786 1.1752 2.7663 2.7091 5.1625 3.9262l3.9377 1.9955h12.095v8.6003l-1.9956-0.0839c-1.1981-0.0496-6.433-2.3885-13.057-5.8264zm94.077 5.2273c-6.9214-1.6216-13.927-7.5625-16.441-13.938l-1.3812-3.5027-0.20604-11.981c-0.24038-14.087-0.2938-14.438-2.4801-15.625l-1.6827-0.91192 16.128-0.0267 16.128-0.0228v6.7574h-19.047v9.2146h12.9v8.6041h-12.984l0.38155 1.3812c2.2817 8.2378 7.944 12.748 16.006 12.748h2.7434v7.986l-3.8423-0.0611c-2.11-0.0344-4.9144-0.31288-6.2232-0.62194zm-108.05-24.294-4.1475-2.7739v-15.762l-1.8925-1.5873-1.8887-1.5911h34.5v7.986h-22.085l-0.1717 8.2493-0.16788 8.2493zm-20.146-14.598c-0.4922-0.48076-2.9532-2.2779-5.4601-3.9949l-4.5672-3.1211h16.193v7.986h-2.6327c-1.4461 0-3.0372-0.393-3.5332-0.86994zm46.718-22.401v-4.8381l-1.9192-0.38537c-1.0569-0.20986-2.854-0.38156-3.9949-0.38156h-2.0718v7.3717h-3.6858v-15.571l-1.0188-1.1218-1.0149-1.1256h5.7195v6.7612l1.6903 4e-3c0.92718 4e-3 2.7243 0.17933 3.9911 0.38919l2.3046 0.38156v-7.5358h3.6858v17.655l-1.2744 1.6178c-1.9917 2.5335-2.4114 1.9765-2.4114-3.2203zm12.946 0.69061c-1.1599-0.59141-2.6785-1.8544-3.3768-2.8044l-1.2706-1.7323-0.2213-5.0251c-0.11829-2.7663-0.49984-5.3761-0.84324-5.7958l-0.62575-0.77076h11.824v2.461h-6.7612v3.0715h4.9183v3.6858h-2.152c-3.8766 0-1.9002 3.4035 2.3809 4.0979l2.2283 0.36247v3.5256h-1.9994c-1.0951 0-2.9418-0.48458-4.1017-1.076zm-38.137-6.2957v-6.7574h-5.5288v-3.6896h15.358v3.6896h-6.1431v13.515h-3.6858z" fill="#fff" stroke-width=".97679"/><use transform="matrix(.97679 0 0 .97679 4.3605 4.1569)" x="200.71001" y="247.12" width="100%" height="100%" fill="#ffffff" xlink:href="#a"/><use transform="matrix(.97679 0 0 .97679 4.3605 4.1569)" x="228.61" y="247.12" width="100%" height="100%" fill="#ffffff" xlink:href="#a"/><g fill="#fff"><path d="m64.919 251.99h2.3819l2.026-5.5224h7.9123l1.8891 5.5224h2.5462l-6.6803-18.604h-2.9568zm5.0923-7.4525 3.3675-9.2486 3.1759 9.2486z"/><path d="m90.264 252.25c4.2436 0 7.0088-2.1178 7.0088-5.3883 0-6.5947-10.65-3.9675-10.65-8.7661 0-1.957 1.6153-3.0293 4.5174-3.0293 1.6153 0 3.3675 0.3217 4.7364 0.88466l0.68445-1.7425c-1.6153-0.697-3.4496-1.0723-5.2566-1.0723-4.2436 0-7.0088 2.0642-7.0088 5.3079 0 6.3802 10.623 3.9943 10.623 8.7393 0 1.8765-1.6427 3.0829-4.5174 3.0829-1.7248 0-3.8603-0.45572-5.722-1.2063l-0.68445 1.7425c2.1081 0.93826 4.2436 1.4476 6.2696 1.4476z"/><path d="m106.3 252.25c4.2436 0 7.0088-2.1178 7.0088-5.3883 0-6.5947-10.65-3.9675-10.65-8.7661 0-1.957 1.6153-3.0293 4.5174-3.0293 1.6153 0 3.3675 0.3217 4.7364 0.88466l0.68445-1.7425c-1.6153-0.697-3.4496-1.0723-5.2566-1.0723-4.2436 0-7.0088 2.0642-7.0088 5.3079 0 6.3802 10.623 3.9943 10.623 8.7393 0 1.8765-1.6427 3.0829-4.5174 3.0829-1.7248 0-3.8603-0.45572-5.722-1.2063l-0.68446 1.7425c2.1081 0.93826 4.2436 1.4476 6.2696 1.4476z"/><path d="m115.55 251.99h2.3819l2.026-5.5224h7.9123l1.8891 5.5224h2.5462l-6.6802-18.604h-2.9568zm5.0923-7.4525 3.3675-9.2486 3.1759 9.2486z"/><path d="m140.9 252.25c4.2436 0 7.0088-2.1178 7.0088-5.3883 0-6.5947-10.65-3.9675-10.65-8.7661 0-1.957 1.6153-3.0293 4.5174-3.0293 1.6153 0 3.3675 0.3217 4.7364 0.88466l0.68445-1.7425c-1.6153-0.697-3.4496-1.0723-5.2566-1.0723-4.2436 0-7.0088 2.0642-7.0088 5.3079 0 6.3802 10.623 3.9943 10.623 8.7393 0 1.8765-1.6427 3.0829-4.5174 3.0829-1.7248 0-3.8603-0.45572-5.722-1.2063l-0.68445 1.7425c2.1081 0.93826 4.2436 1.4476 6.2696 1.4476z"/><path d="m167.12 251.99h2.2724v-18.604h-2.2724z"/><path d="m175.09 251.99h2.1355v-15.629l10.842 15.629h2.5188v-18.604h-2.1355v15.629l-10.76-15.629h-2.6009z"/><path d="m201.08 252.25c4.2436 0 7.0088-2.1178 7.0088-5.3883 0-6.5947-10.65-3.9675-10.65-8.7661 0-1.957 1.6153-3.0293 4.5174-3.0293 1.6153 0 3.3675 0.3217 4.7364 0.88466l0.68445-1.7425c-1.6153-0.697-3.4496-1.0723-5.2566-1.0723-4.2436 0-7.0088 2.0642-7.0088 5.3079 0 6.3802 10.623 3.9943 10.623 8.7393 0 1.8765-1.6427 3.0829-4.5174 3.0829-1.7248 0-3.8603-0.45572-5.722-1.2063l-0.68446 1.7425c2.1081 0.93826 4.2436 1.4476 6.2696 1.4476z"/><path d="m219.45 252.17c2.8974 0 4.8387-2.0569 4.8387-5.1493 0-2.9505-1.8833-4.9223-4.6938-4.9223-2.854 0-4.7518 2.0427-4.7518 5.0925 0 2.9931 1.8399 4.979 4.6069 4.979zm0.14487-1.0213c-2.1151 0-3.5204-1.6455-3.5204-4.1279 0-2.3264 1.3473-3.8868 3.3755-3.8868 2.1586 0 3.6073 1.6171 3.6073 4.057 0 2.3689-1.3908 3.9577-3.4624 3.9577z"/><path d="m226.73 252.07h1.2024v-4.5677h4.6214v-1.0213h-4.6214v-3.2342h5.0415v-1.0213h-6.244z"/><path d="m240.72 251.99h2.2724v-9.5971l8.4598 9.5971h3.0116l-8.8157-9.8384 8.4051-8.7661h-2.7652l-8.2956 8.8465v-8.8465h-2.2724z"/><path d="m257.88 251.99h2.2724v-18.604h-2.2724z"/><path d="m265.85 251.99h2.1355v-15.629l10.842 15.629h2.5188v-18.604h-2.1355v15.629l-10.76-15.629h-2.6009z"/><path d="m295.46 252.23c2.6283 0 5.0102-0.7506 6.9266-2.225v-7.8814h-7.6659v1.9301h5.3935v5.2007c-1.3415 0.67019-2.8199 1.0187-4.3257 1.0187-4.5721 0-7.529-3.0829-7.529-7.8546 0-4.6377 2.7104-7.3185 7.3373-7.3185 1.7248 0 3.7234 0.37531 5.3935 0.99188l0.65707-1.7157c-1.6701-0.80423-3.6687-1.2332-5.7494-1.2332-5.9958 0-9.9656 3.8335-9.9656 9.6775 0 5.6832 3.7782 9.4094 9.5276 9.4094z"/><path d="m312.06 252.25c4.2436 0 7.0088-2.1178 7.0088-5.3883 0-6.5947-10.65-3.9675-10.65-8.7661 0-1.957 1.6153-3.0293 4.5174-3.0293 1.6153 0 3.3675 0.3217 4.7364 0.88466l0.68445-1.7425c-1.6153-0.697-3.4496-1.0723-5.2566-1.0723-4.2436 0-7.0088 2.0642-7.0088 5.3079 0 6.3802 10.623 3.9943 10.623 8.7393 0 1.8765-1.6427 3.0829-4.5174 3.0829-1.7248 0-3.8603-0.45572-5.722-1.2063l-0.68445 1.7425c2.1081 0.93826 4.2436 1.4476 6.2696 1.4476z"/><path d="m156.33 252.25c4.2436 0 7.0088-2.1178 7.0088-5.3883 0-6.5947-10.65-3.9675-10.65-8.7661 0-1.957 1.6153-3.0293 4.5174-3.0293 1.6153 0 3.3675 0.3217 4.7364 0.88466l0.68445-1.7425c-1.6153-0.697-3.4496-1.0723-5.2566-1.0723-4.2436 0-7.0088 2.0642-7.0088 5.3079 0 6.3802 10.623 3.9943 10.623 8.7393 0 1.8765-1.6427 3.0829-4.5174 3.0829-1.7248 0-3.8603-0.45572-5.722-1.2063l-0.68445 1.7425c2.1081 0.93826 4.2436 1.4476 6.2696 1.4476z"/></g><path d="m185.99 215.36c-18.887-8.0051-50.438-24.893-48.015-25.702 0.32051-0.10684 4.3612 1.4766 8.9742 3.518 4.613 2.0413 8.5431 3.7126 8.7338 3.7126 1.1523 0 24.656 12.389 29.739 15.674 7.986 5.1701 8.1577 6.0172 0.56853 2.7968zm147.01-16.792c0.5418-6.7764 3.5141-11.122 13.293-19.437 6.2614-5.3304 7.6006-8.5736 4.716-11.454-3.3272-3.3272-11.393-0.12591-11.393 4.5215 0 0.99967-1.3622 0.91573-2.8006-0.17171-1.8353-1.3889-2.3428-1.1638-4.2963 1.9269-2.1558 3.4111-2.6747 2.4229-1.2668-2.4191 4.1323-14.213 22.386-18.132 28.136-6.0362l1.4614 3.0792 3.8232-3.4035c4.6817-4.1704 4.7046-3.8919 0.35867 4.1284-4.5787 8.4477-6.0095 10.161-13.358 16.018-6.0171 4.7924-9.6 8.2416-9.6 9.2413 0 0.26709 4.2849 0.48458 9.5237 0.48458h9.5236v7.3717h-28.43zm-170.95-5.3036c-8.4095-3.1288-10.195-4.1819-24.347-14.381-11.851-8.5392-22.851-17.277-37.08-29.46-10.417-8.9132 13.969 5.544 35.008 20.753 2.8731 2.0795 6.4674 4.5596 7.9898 5.5135 1.5186 0.95771 4.4222 3.0868 6.4483 4.7351 2.0299 1.6483 7.2687 5.6127 11.645 8.8102l7.9593 5.8111-1.5072-0.0344c-0.82797-0.019-3.5828-0.80508-6.1164-1.7475z" fill="#bd1717" stroke="#000" stroke-width="7.5"/><path d="m185.99 215.36c-18.887-8.0051-50.438-24.893-48.015-25.702 0.32051-0.10684 4.3612 1.4766 8.9742 3.518 4.613 2.0413 8.5431 3.7126 8.7338 3.7126 1.1523 0 24.656 12.389 29.739 15.674 7.986 5.1701 8.1577 6.0172 0.56852 2.7968zm147.01-16.792c0.5418-6.7764 3.5141-11.122 13.293-19.437 6.2614-5.3304 7.6006-8.5736 4.716-11.454-3.3272-3.3272-11.393-0.12591-11.393 4.5215 0 0.99967-1.3622 0.91573-2.8006-0.17171-1.8353-1.3889-2.3428-1.1638-4.2963 1.9269-2.1558 3.4111-2.6747 2.4229-1.2668-2.4191 4.1323-14.213 22.386-18.132 28.136-6.0362l1.4614 3.0792 3.8232-3.4035c4.6817-4.1704 4.7046-3.8919 0.35867 4.1284-4.5787 8.4477-6.0095 10.161-13.358 16.018-6.0171 4.7924-9.6 8.2416-9.6 9.2413 0 0.26709 4.2849 0.48458 9.5237 0.48458h9.5237v7.3717h-28.43zm-170.95-5.3036c-8.4095-3.1288-10.195-4.1819-24.347-14.381-11.851-8.5392-22.851-17.277-37.08-29.46-10.417-8.9132 13.969 5.544 35.008 20.753 2.8731 2.0795 6.4674 4.5596 7.9898 5.5135 1.5186 0.95771 4.4222 3.0868 6.4483 4.7351 2.0299 1.6483 7.2687 5.6127 11.645 8.8102l7.9593 5.8111-1.5072-0.0344c-0.82797-0.019-3.5828-0.80508-6.1164-1.7475z" fill="#bd1717" stroke-width=".97679"/><use transform="matrix(.97679 0 0 .97679 203.54 256.85)" x="200.71001" y="248.64999" width="100%" height="100%" fill="#73757f" xlink:href="#b"/><use transform="matrix(.97679 0 0 .97679 203.54 256.85)" x="228.61" y="248.64999" width="100%" height="100%" fill="#73757f" xlink:href="#b"/><use transform="matrix(.97679 0 0 .97679 203.54 256.85)" x="200.71001" y="247.12" width="100%" height="100%" fill="#ffffff" xlink:href="#a"/><use transform="matrix(.97679 0 0 .97679 203.54 256.85)" x="228.61" y="247.12" width="100%" height="100%" fill="#ffffff" xlink:href="#a"/></svg>
