<svg width="512" height="512" version="1.1" viewBox="0 0 384 384" xmlns="http://www.w3.org/2000/svg" xmlns:xlink="http://www.w3.org/1999/xlink"><defs><filter id="alpha" x="0%" y="0%" width="100%" height="100%"><feColorMatrix in="SourceGraphic" values="0 0 0 0 1 0 0 0 0 1 0 0 0 0 1 0 0 0 1 0"/></filter><clipPath><rect width="384" height="384"/></clipPath><clipPath><rect width="384" height="384"/></clipPath><mask id="b"><g filter="url(#alpha)"><rect width="384" height="384" fill-opacity=".30196"/></g></mask><clipPath id="c"><rect width="384" height="384"/></clipPath><g id="a" clip-path="url(#c)"><path d="m192 23.25c-93.199 0-168.75 75.551-168.75 168.75 0.03125 1.4375 0.082031 2.875 0.15234 4.3125 1.6641-91.941 76.641-165.62 168.6-165.69 91.48 0.050781 166.26 72.984 168.6 164.43 0.058594-1.0156 0.10938-2.0352 0.15234-3.0547 0-93.199-75.551-168.75-168.75-168.75z" fill="#fff"/></g><clipPath><rect width="384" height="384"/></clipPath><clipPath><rect width="384" height="384"/></clipPath><clipPath><rect width="384" height="384"/></clipPath></defs><path d="m360.75 192c0-93.199-75.551-168.75-168.75-168.75-93.199 0-168.75 75.551-168.75 168.75 0 93.199 75.551 168.75 168.75 168.75 93.199 0 168.75-75.551 168.75-168.75z" fill="#fff"/><path d="m199.79 111.7c-91.875 0-107.39 15.453-107.39 34.52 0 16.832 12.098 30.84 78.266 33.887l6.1094 42.816h46.023l6.1133-42.816c66.164-3.0469 78.262-17.055 78.262-33.887 0-19.066-15.512-34.52-107.39-34.52z" fill-opacity=".2"/><path d="m192 46.262-76.703 76.703h46.02v138.07h-46.02l76.703 76.703 76.703-76.703h-46.023v-138.07h46.023z" fill="#353a4a"/><path d="m161.32 161.32 7.6719 53.691h46.023l7.668-53.691z" fill="#b3b3b3"/><path transform="scale(.75)" d="m256 61.682-102.27 102.27h10l92.271-92.271 92.271 92.271h10l-102.27-102.27zm-102.27 286.37 10 10h51.359v-10h-61.359zm143.18 0v10h51.365l10-10h-61.365z" fill="#090a0c" opacity=".3" stroke-width="1.3333"/><path transform="scale(.75)" d="m215.09 215.09 10.23 71.588h61.363l10.225-71.588h-1.4277l-8.7969 61.588h-61.363l-8.8008-61.588h-1.4297z" fill="#020202" opacity=".3" stroke-width="1.3333"/><path d="m299.39 138.31c0 19.062-15.391 34.516-107.39 34.516s-107.39-15.453-107.39-34.516c0-19.066 15.512-34.52 107.39-34.52s107.39 15.453 107.39 34.52z" fill="#d41717"/><use width="100%" height="100%" mask="url(#b)" xlink:href="#a"/><g stroke-width="1.3333"><path transform="scale(.75)" d="m113.12 179.42c-0.2061 1.6408-0.30469 3.3062-0.30469 4.9941 0 25.417 20.52 46.02 143.18 46.02s143.18-20.603 143.18-46.02c0-1.6879-0.09859-3.3534-0.30469-4.9941-2.8884 23.061-28.382 41.014-142.88 41.014-114.49 0-139.99-17.953-142.88-41.014z" opacity=".3"/><path transform="scale(.75)" d="m256 138.38c-122.5 0-143.18 20.605-143.18 46.027 0 1.6923 0.09866 3.3609 0.30469 5.0059 2.898-23.072 28.51-41.033 142.88-41.033s139.98 17.961 142.88 41.033c0.20603-1.6449 0.30469-3.3136 0.30469-5.0059 0-25.422-20.682-46.027-143.18-46.027z" fill="#fff" opacity=".3"/><path transform="scale(.75)" d="m31.064 251c-0.036282 1.6632-0.064453 3.3281-0.064453 5 0 124.27 100.73 225 225 225s225-100.73 225-225c0-1.6719-0.02817-3.3368-0.06445-5-2.6604 121.96-102.34 220-224.94 220s-222.28-98.045-224.94-220z" fill="#080808" opacity=".3"/><path transform="scale(.75)" d="m256 31c-124.27 0-225 100.73-225 225 0 1.6719 0.028171 3.3368 0.064453 5 2.6604-121.96 102.34-220 224.94-220 122.59 0 222.28 98.045 224.94 220 0.03628-1.6632 0.06445-3.3281 0.06445-5 0-124.27-100.73-225-225-225z" opacity=".1"/></g></svg>
