<svg width="384pt" height="384pt" version="1.1" viewBox="0 0 384 384" xmlns="http://www.w3.org/2000/svg"><defs><clipPath id="f"><rect width="384" height="384"/></clipPath><clipPath id="e"><rect width="384" height="384"/></clipPath></defs><path d="m101.34 27.037h181.33c0.23829 0 0.43359 0.17184 0.43359 0.38186v329.16c0 0.21383-0.1953 0.38187-0.43359 0.38187h-181.33c-0.23828 0-0.4336-0.16804-0.4336-0.38187v-329.16c0-0.21002 0.19532-0.38186 0.4336-0.38186z" fill="#fff" fill-rule="evenodd" opacity=".2" stroke="#000" stroke-width="7.4155"/><path d="m101.34 23.254h181.33c0.23828 0 0.43359 0.17578 0.43359 0.39062v336.71c0 0.21875-0.19531 0.39063-0.43359 0.39063h-181.33c-0.23828 0-0.43359-0.17188-0.43359-0.39063v-336.71c0-0.21484 0.19531-0.39062 0.43359-0.39062z" fill="#fff" fill-rule="evenodd"/><g fill="#d41717"><path d="m181.43 279.58h3.7734v7.2969c0 0.72266-0.11328 1.4062-0.33985 2.0547-0.22265 0.63672-0.57812 1.1992-1.0625 1.6836-0.47656 0.48047-0.98046 0.81641-1.5117 1.0117-0.73438 0.27344-1.6172 0.41016-2.6445 0.41016-0.59765 0-1.2461-0.043-1.9531-0.12891-0.70313-0.082-1.2891-0.24609-1.7617-0.49219-0.47266-0.25-0.90625-0.60156-1.3008-1.0586-0.39063-0.45703-0.66016-0.92578-0.80469-1.4102-0.23047-0.78125-0.34765-1.4688-0.34765-2.0703v-7.2969h3.7734v7.4727c0 0.66797 0.1836 1.1914 0.55078 1.5664 0.3711 0.375 0.88672 0.5625 1.543 0.5625 0.65235 0 1.1602-0.1836 1.5274-0.55078 0.375-0.375 0.55859-0.89844 0.55859-1.5781z"/><path d="m187.7 279.58h6.2891c1.3672 0 2.3906 0.32422 3.0703 0.97657 0.68359 0.65234 1.0273 1.5781 1.0273 2.7812 0 1.2344-0.375 2.1992-1.1211 2.8945-0.73828 0.69531-1.8711 1.043-3.3945 1.043h-2.0703v4.543h-3.8008zm3.8008 5.2188h0.92578c0.73047 0 1.2422-0.125 1.5352-0.375 0.29688-0.25781 0.44141-0.58203 0.44141-0.97656 0-0.38672-0.125-0.71094-0.38281-0.98047-0.25391-0.26562-0.73828-0.39843-1.4453-0.39843h-1.0742z"/><path d="m199.42 287.77 3.5976-0.22656c0.0781 0.58203 0.23438 1.0273 0.47657 1.3359 0.38672 0.49609 0.94531 0.74218 1.668 0.74218 0.53906 0 0.95312-0.125 1.2422-0.375 0.29688-0.25781 0.44532-0.55078 0.44532-0.88672 0-0.3164-0.14063-0.60156-0.41797-0.85156-0.27735-0.25-0.92578-0.48437-1.9375-0.70703-1.6602-0.375-2.8398-0.87109-3.5469-1.4883-0.71484-0.61719-1.0703-1.4062-1.0703-2.3633 0-0.62891 0.17969-1.2188 0.54297-1.7774 0.36719-0.5625 0.91406-1 1.6445-1.3164 0.73437-0.32422 1.7383-0.48438 3.0156-0.48438 1.5625 0 2.7539 0.28907 3.5703 0.875 0.82422 0.57813 1.3125 1.5039 1.4688 2.7734l-3.5625 0.20703c-0.0937-0.55078-0.29688-0.95312-0.60157-1.2031-0.30078-0.25-0.71875-0.375-1.2539-0.375-0.4375 0-0.76953 0.0937-0.99219 0.28515-0.22266 0.1836-0.33203 0.40625-0.33203 0.67578 0 0.19532 0.0898 0.3711 0.27344 0.52344 0.17968 0.16406 0.60156 0.3125 1.2695 0.45313 1.6523 0.35547 2.8359 0.71875 3.5469 1.0859 0.71875 0.35938 1.2383 0.8125 1.5625 1.3516 0.32813 0.53906 0.49219 1.1445 0.49219 1.8125 0 0.78125-0.21875 1.5078-0.65234 2.168-0.4336 0.66406-1.0391 1.168-1.8203 1.5117-0.77734 0.33985-1.7617 0.50782-2.9453 0.50782-2.082 0-3.5234-0.39844-4.3242-1.1992s-1.2539-1.8203-1.3594-3.0547z"/></g><g fill-rule="evenodd"><path d="m144.58 86.605h94.82c5.3945 0 9.7656 4.3711 9.7656 9.7617v4.2148c0 5.3945-4.3711 9.7656-9.7656 9.7656h-94.82c-5.3945 0-9.7656-4.3711-9.7656-9.7656v-4.2148c0-5.3906 4.3711-9.7617 9.7656-9.7617z" opacity=".3"/><path d="m207.68 245.7c0 8.6641-7.0234 15.687-15.688 15.687-8.668 0-15.691-7.0234-15.691-15.687 0-8.6641 7.0234-15.691 15.691-15.691 8.6641 0 15.688 7.0273 15.688 15.691z" opacity=".3"/><path d="m158.75 125.1h66.484c3.7813 0 6.8477 3.0625 6.8477 6.8438v2.9609c0 3.7812-3.0664 6.8438-6.8477 6.8438h-66.484c-3.7812 0-6.8438-3.0625-6.8438-6.8438v-2.9609c0-3.7812 3.0625-6.8438 6.8438-6.8438z" opacity=".3"/><path d="m158.75 151.38h66.484c3.7813 0 6.8477 3.0625 6.8477 6.8438v2.9609c0 3.7812-3.0664 6.8438-6.8477 6.8438h-66.484c-3.7812 0-6.8438-3.0625-6.8438-6.8438v-2.9609c0-3.7812 3.0625-6.8438 6.8438-6.8438z" opacity=".3"/><path d="m144.58 82.105h94.82c5.3945 0 9.7656 4.3711 9.7656 9.7617v4.2148c0 5.3945-4.3711 9.7656-9.7656 9.7656h-94.82c-5.3945 0-9.7656-4.3711-9.7656-9.7656v-4.2148c0-5.3906 4.3711-9.7617 9.7656-9.7617z" fill="#0aa15c"/><path d="m207.68 241.2c0 8.6641-7.0234 15.688-15.688 15.688-8.668 0-15.691-7.0234-15.691-15.688 0-8.6641 7.0234-15.691 15.691-15.691 8.6641 0 15.688 7.0273 15.688 15.691z" fill="#4a4a4a"/><path d="m158.75 120.6h66.484c3.7812 0 6.8477 3.0625 6.8477 6.8438v2.9609c0 3.7812-3.0664 6.8438-6.8477 6.8438h-66.484c-3.7812 0-6.8438-3.0625-6.8438-6.8438v-2.9609c0-3.7812 3.0625-6.8438 6.8438-6.8438z" fill="#e6e6e6"/><path d="m158.75 146.88h66.484c3.7812 0 6.8477 3.0625 6.8477 6.8438v2.9609c0 3.7812-3.0664 6.8438-6.8477 6.8438h-66.484c-3.7812 0-6.8438-3.0625-6.8438-6.8438v-2.9609c0-3.7812 3.0625-6.8438 6.8438-6.8438z" fill="#e6e6e6"/><path transform="scale(.75)" d="m134.54 470.47v10c0 0.29166 0.26041 0.52148 0.57812 0.52148h241.77c0.31769 0 0.57812-0.22982 0.57812-0.52148v-10c0 0.29166-0.26043 0.52148-0.57812 0.52148h-241.77c-0.31771 0-0.57812-0.22982-0.57812-0.52148z" fill="#040404" opacity=".3" stroke-width="1.3333"/><path transform="scale(.75)" d="m135.12 31.006c-0.31771 0-0.57812 0.23308-0.57812 0.51953v10c0-0.28645 0.26041-0.51953 0.57812-0.51953h241.77c0.31769 0 0.57812 0.23308 0.57812 0.51953v-10c0-0.28645-0.26043-0.51953-0.57812-0.51953h-241.77z" opacity=".1" stroke-width="1.3333"/></g></svg>
