<svg width="512" height="512" version="1.1" viewBox="0 0 384 384" xmlns="http://www.w3.org/2000/svg"><g stroke-width="1.0817"><path d="m192 23.25c-48.678 0-81.13 33.753-81.13 83.141v51.809h-34.1s-14.578 0.0507-14.578 16.923v168.75c0 16.877 14.578 16.877 14.578 16.877h230.46s14.578 0 14.578-16.877v-168.75c0-16.872-14.578-16.923-14.578-16.923l-34.053 0.0971-0.0929-52.451c0.0507-48.851-32.401-82.592-81.079-82.592z" fill="#4a4a4a"/><path d="m192 69.692c28.674 0 51.923 22.792 51.923 51.467 0 34.624-36.775 77.885-45.433 78.341 0 0 3.6508-26.418-6.4904-26.418-28.674 0-51.923-23.249-51.923-51.927 0-28.674 23.249-51.467 51.923-51.467z" opacity=".3"/><path d="m192 62.192c28.674 0 51.923 22.792 51.923 51.467 0 34.624-36.775 77.885-45.433 78.341 0 0 3.6508-26.418-6.4904-26.418-28.674 0-51.923-23.249-51.923-51.927 0-28.674 23.249-51.467 51.923-51.467z" fill="#fff"/><path d="m192 225.47c16.129 0 29.207 13.074 29.207 29.207 0 13.665-9.4187 25.049-22.095 28.235h2.624c9.7356 0 15.694 8.8862 21.525 16.75 5.4551 7.3482 7.6862 17.549 7.6862 21.263v6.7101c-0.0211 0.20704 0 0.41832 0 0.6296 0 7.7496-6.3087 14.033-14.109 14.033h-49.65c-7.8045 0-14.126-6.296-14.126-14.058 0-0.20704 0.0295-0.40142 0.0381-0.60847-0.0169 0-0.0295-3.3593-0.0381-6.7143-4e-3 -3.71 1.7113-14.088 6.9214-21.601 5.5143-7.944 12.55-16.408 22.285-16.408h2.624c-12.668-3.1818-22.091-14.565-22.091-28.231 0-16.137 13.07-29.207 29.207-29.207z" opacity=".3"/><path d="m192 217.97c16.129 0 29.207 13.074 29.207 29.207 0 13.665-9.4187 25.049-22.095 28.235h2.624c9.7356 0 15.694 8.8862 21.525 16.75 5.4551 7.3482 7.6862 17.549 7.6862 21.263v6.7101c-0.0211 0.20704 0 0.41833 0 0.6296 0 7.7496-6.3087 14.033-14.109 14.033h-49.65c-7.8045 0-14.126-6.296-14.126-14.058 0-0.20704 0.0295-0.40142 0.0381-0.60847-0.0169 0-0.0295-3.3593-0.0381-6.7143-4e-3 -3.71 1.7113-14.088 6.9214-21.601 5.5143-7.944 12.55-16.408 22.285-16.408h2.624c-12.668-3.1818-22.091-14.565-22.091-28.231 0-16.137 13.07-29.207 29.207-29.207z" fill="#fff"/></g><path transform="scale(.75)" d="m82.924 448.5v10c0 22.502 19.438 22.502 19.438 22.502h307.28s19.438 3e-4 19.438-22.502v-10c0 22.502-19.438 22.502-19.438 22.502h-307.28s-19.438 3e-4 -19.438-22.502z" opacity=".3" stroke-width="1.4423"/><path transform="scale(.75)" d="m256 31c-64.904 0-108.17 45.005-108.17 110.86v10c0-65.85 43.27-110.86 108.17-110.86l0.00586 0.005859c64.904 0 108.17 44.988 108.11 110.12l0.12305 69.934 45.404-0.12891s19.438 0.06783 19.438 22.564v-10c0-22.497-19.438-22.564-19.438-22.564l-45.404 0.12891-0.12305-69.934c0.0676-65.135-43.202-110.12-108.11-110.12l-0.00586-0.005859zm-153.64 179.93s-19.438 0.06783-19.438 22.564v10c0-22.497 19.438-22.564 19.438-22.564h45.465v-10h-45.465z" fill="#fff" opacity=".1" stroke-width="1.4423"/></svg>
