<svg width="512" height="512" version="1.1" viewBox="0 0 384 384" xmlns="http://www.w3.org/2000/svg"><defs><clipPath><rect width="384" height="384"/></clipPath><clipPath><rect width="384" height="384"/></clipPath><clipPath><rect width="384" height="384"/></clipPath></defs><path d="m48 360 54-47.996h208.58c14.09 0 25.418-11.246 25.418-25.203v-237.6c0-13.957-11.328-25.199-25.418-25.199h-237.16c-14.082 0-25.418 11.242-25.418 25.199v310.8z" fill="#8a3fab"/><path d="m208.49 79.52c-4.2148 0-7.7148 3.3672-7.7539 7.4492-0.0273 4.0977 3.4766 7.5469 7.7227 7.5664 18.324 0.13672 33.395 5.9297 45.543 17.352 12.008 11.312 18.27 26.992 18.43 47.449v0.0195c0.043 4.0664 3.543 7.4297 7.7695 7.4297 0 0 0.082-0.0156 0.0859-0.0195 4.2383-0.0391 7.7578-3.4531 7.7226-7.5508v-0.0156c-0.0976-11.941-2.0391-22.906-5.832-32.555-3.8398-9.75-9.6719-18.371-17.281-25.547-15.035-14.137-34.234-21.438-56.34-21.594h-0.0703zm-78.715 17.641c-2.957-0.50391-6.1602 0.0469-9.3594 1.5859h-0.2539l-0.35938 0.20313c-5.9258 3.3711-11.48 7.8867-16.684 13.551l-0.41016 0.44141v0.41015c-3.6016 4.4883-5.9805 9.0078-6.5273 13.535-0.17578 0.76562-0.17188 1.457-0.17188 2.1992 0 2.0586 0.30079 4.1484 0.9375 6.2031l0.17188 0.57813 0.35547 0.20703c2.0547 7.0508 6.7226 18.023 16.926 36.609 6.8008 12.316 13.746 22.605 20.645 31.273 3.6328 4.5586 7.75 9.3008 12.527 14.078 0.0586 0.0586 0.25781 0.26562 0.47656 0.46093 0.0781 0.0781 0.1836 0.23438 0.44532 0.4961l0.47656 0.47656h0.0352c0.16796 0.16797 0.28125 0.28906 0.30468 0.32422l0.0859 0.10156 0.0859 0.0859c4.7773 4.7266 9.4922 8.8672 14.098 12.477 8.6562 6.8984 18.945 13.898 31.262 20.707 18.605 10.266 29.684 14.906 36.699 16.926l0.25391 0.3086 0.42578 0.15234c1.9883 0.66016 4.0547 0.96875 6.1055 0.9375 0.82812 0.043 1.5625-0.0117 2.2656-0.17187 4.8047-0.5625 9.5625-2.8359 14.266-6.7812l0.0508-0.0703 0.0547-0.0312c0.0703-0.0742 0.0273-0.0391 0.0664-0.0898 0.043-0.0352 0.0625-0.0781 0.10546-0.11719 5.5703-5.0859 10.066-10.613 13.445-16.531l0.22266-0.375v-0.35937c3.1094-6.4688 1.875-13.074-3.168-17.281-0.12499-0.10547-2.5508-2.1328-5.5586-4.5859-3.0781-2.5078-6.7266-5.4531-9.1875-7.2617-4.664-3.4492-11.867-7.9062-15.973-10.191h-0.0195c-7.8867-4.418-16.129-1.8516-19.754 2.8477l-6.3594 7.957c-2.5625 3.2305-7.6875 2.9219-7.8242 2.9141-43.125-11.094-54.719-54.453-54.801-54.762-8e-3 -0.13282-0.31641-5.2656 2.9141-7.8711l7.9259-6.3399c4.707-3.6055 7.3555-11.848 2.9141-19.754-2.3164-4.0898-6.793-11.348-10.191-15.973h-0.0156c-1.8359-2.4727-4.7773-6.1406-7.2852-9.2227-1.25-1.5391-2.3867-2.9453-3.2148-3.9531-0.42187-0.5039-0.75781-0.90624-0.99609-1.1914-0.12109-0.14453-0.22266-0.24219-0.29297-0.32422-0.0352-0.0391-0.0508-0.0664-0.082-0.10156-2.1992-2.6094-4.9922-4.1992-8.0781-4.7227zm79.176 17.281c-4.1562-0.29297-7.8945 2.8242-8.1992 6.8359-0.30078 4.0156 2.9375 7.5977 7.0937 7.8906 10.273 0.72656 17.203 3.7461 22.414 9.2578v0.0156c5.3164 5.6133 7.7383 12.02 7.5352 20.777v0.0312c-0.0898 4.0312 3.2891 7.4453 7.4648 7.5352h0.1875c4.1133 0 7.5469-3.25 7.6367-7.2266 0.28125-12.039-3.6406-22.777-11.539-31.105-7.957-8.3672-19.203-13.055-32.605-14.008z" opacity=".3"/><path d="m208.49 72.02c-4.2148 0-7.7148 3.3672-7.7539 7.4492-0.0273 4.0977 3.4766 7.5469 7.7227 7.5664 18.324 0.13672 33.395 5.9297 45.543 17.352 12.008 11.312 18.27 26.992 18.43 47.449v0.0195c0.043 4.0664 3.543 7.4297 7.7695 7.4297 0 0 0.082-0.0156 0.0859-0.0195 4.2383-0.0391 7.7578-3.4531 7.7226-7.5508v-0.0156c-0.0976-11.941-2.0391-22.906-5.832-32.555-3.8398-9.75-9.6719-18.371-17.281-25.547-15.035-14.137-34.234-21.438-56.34-21.594h-0.0703zm-78.715 17.641c-2.957-0.50391-6.1602 0.04687-9.3594 1.5859h-0.2539l-0.35938 0.20312c-5.9258 3.3711-11.48 7.8867-16.684 13.551l-0.41016 0.44141v0.41015c-3.6016 4.4883-5.9805 9.0078-6.5273 13.535-0.17578 0.76562-0.17188 1.457-0.17188 2.1992 0 2.0586 0.30078 4.1484 0.9375 6.2031l0.17188 0.57813 0.35547 0.20703c2.0547 7.0508 6.7227 18.023 16.926 36.609 6.8008 12.316 13.746 22.605 20.645 31.273 3.6328 4.5586 7.75 9.3008 12.527 14.078 0.0586 0.0586 0.25781 0.26562 0.47656 0.46093 0.0781 0.0781 0.1836 0.23438 0.44532 0.4961l0.47656 0.47656h0.0352c0.16796 0.16797 0.28125 0.28906 0.30468 0.32422l0.0859 0.10156 0.0859 0.0859c4.7773 4.7266 9.4922 8.8672 14.098 12.477 8.6562 6.8984 18.945 13.898 31.262 20.707 18.605 10.266 29.684 14.906 36.699 16.926l0.25391 0.3086 0.42578 0.15234c1.9883 0.66016 4.0547 0.96875 6.1055 0.9375 0.82812 0.043 1.5625-0.0117 2.2656-0.17187 4.8047-0.5625 9.5625-2.8359 14.266-6.7812l0.0508-0.0703 0.0547-0.0312c0.0703-0.0742 0.0273-0.0391 0.0664-0.0898 0.043-0.0352 0.0625-0.0781 0.10547-0.11719 5.5703-5.0859 10.066-10.613 13.445-16.531l0.22266-0.375v-0.35937c3.1094-6.4688 1.875-13.074-3.168-17.281-0.125-0.10547-2.5508-2.1328-5.5586-4.5859-3.0781-2.5078-6.7266-5.4531-9.1875-7.2617-4.6641-3.4492-11.867-7.9062-15.973-10.191h-0.0195c-7.8867-4.418-16.129-1.8516-19.754 2.8477l-6.3594 7.957c-2.5625 3.2305-7.6875 2.9219-7.8242 2.9141-43.125-11.094-54.719-54.453-54.801-54.762-8e-3 -0.13282-0.31641-5.2656 2.9141-7.8711l7.9258-6.3398c4.707-3.6055 7.3555-11.848 2.9141-19.754-2.3164-4.0898-6.793-11.348-10.191-15.973h-0.0156c-1.8359-2.4727-4.7773-6.1406-7.2852-9.2227-1.25-1.5391-2.3867-2.9453-3.2148-3.9531-0.42187-0.50391-0.75781-0.90625-0.99609-1.1914-0.12109-0.14453-0.22266-0.24219-0.29297-0.32422-0.0352-0.03906-0.0508-0.06641-0.082-0.10156-2.1992-2.6094-4.9922-4.1992-8.0781-4.7227zm79.176 17.281c-4.1562-0.29297-7.8945 2.8242-8.1992 6.8359-0.30078 4.0156 2.9375 7.5977 7.0938 7.8906 10.273 0.72656 17.203 3.7461 22.414 9.2578v0.0156c5.3164 5.6133 7.7383 12.02 7.5352 20.777v0.0312c-0.0898 4.0312 3.2891 7.4453 7.4648 7.5352h0.1875c4.1133 0 7.5469-3.25 7.6367-7.2266 0.28125-12.039-3.6406-22.777-11.539-31.105-7.957-8.3672-19.203-13.055-32.605-14.008z" fill="#fff"/><path transform="scale(.75)" d="m448 372.4c0 18.609-15.104 33.605-33.891 33.605h-278.11l-71.994 63.988v0.00586 9.9941l71.994-63.988h278.11c18.786 0 33.891-14.996 33.891-33.605v-10zm-383.99 107.59-0.005859 0.00586h0.005859v-0.00586z" fill="#000900" opacity=".3" stroke-width="1.3333"/><path transform="scale(.75)" d="m97.896 32c-18.776 0-33.891 14.99-33.891 33.6v10c0-18.609 15.115-33.6 33.891-33.6h316.21c18.786 0 33.891 14.99 33.891 33.6v-10c0-18.609-15.104-33.6-33.891-33.6h-316.21zm-33.891 447.99-0.005859 0.00586h0.005859v-0.00586z" fill="#fff" opacity=".3" stroke-width="1.3333"/></svg>
