<svg width="512" height="512" version="1.1" viewBox="0 0 384 384" xmlns="http://www.w3.org/2000/svg"><path d="m37.441 26.652c-13.441 13.711-13.441 79.32-13.441 120.86 0 150.8 87.359 212.48 168 212.48s168-61.691 168-212.48c0-41.133 0-107.15-13.441-120.86-13.441-13.707-102.48 28.84-129.36 56.258h-50.398c-26.883-27.418-115.92-69.965-129.36-56.258z" fill="#272a34" fill-rule="evenodd"/><path d="m120 115.5c-33.137 0-60 32.234-60 72s26.863 72 60 72 60-32.234 60-72-26.863-72-60-72zm144 0c-33.137 0-60 32.234-60 72s26.863 72 60 72 60-32.234 60-72-26.863-72-60-72zm-144 24c19.883 0 36 21.492 36 48 0 26.512-16.117 48-36 48s-36-21.488-36-48c0-26.508 16.117-48 36-48zm144 0c19.883 0 36 21.492 36 48 0 26.512-16.117 48-36 48s-36-21.488-36-48c0-26.508 16.117-48 36-48zm-72 127.4c-18 0-36 5.1354-36 15.407 0 20.544 16.117 37.192 36 37.192s36-16.649 36-37.192c0-10.272-18-15.407-36-15.407z" fill="#0d0f16"/><g fill="#fff"><path d="m228 274.81c0 20.544-16.117 37.192-36 37.192s-36-16.648-36-37.192 72-20.544 72 0z"/><g fill-rule="evenodd"><path d="m120 108c-33.137 0-60 32.234-60 72s26.863 72 60 72 60-32.234 60-72-26.863-72-60-72zm0 24c19.883 0 36 21.492 36 48 0 26.512-16.117 48-36 48s-36-21.488-36-48c0-26.508 16.117-48 36-48z"/><path d="m264 108c-33.137 0-60 32.234-60 72s26.863 72 60 72 60-32.234 60-72-26.863-72-60-72zm0 24c19.883 0 36 21.492 36 48 0 26.512-16.117 48-36 48s-36-21.488-36-48c0-26.508 16.117-48 36-48z"/><path transform="scale(.75)" d="m62.949 32.012c-5.9955-0.13177-10.508 0.95532-13.027 3.5254-17.922 18.281-17.922 105.76-17.922 161.15 0 0.50599 0.012199 0.99942 0.013672 1.5039 0.039474-55.442 0.84842-135.25 17.908-152.65 17.917-18.276 136.63 38.452 172.48 75.01h67.199c35.839-36.557 154.56-93.286 172.48-75.01 17.055 17.397 17.868 97.648 17.908 152.66 0.00149-0.50771 0.01367-1.0044 0.01367-1.5137 0-54.844 1e-5 -142.87-17.922-161.15-17.922-18.276-136.64 38.452-172.48 75.01h-67.199c-30.803-31.416-122.81-77.73-159.45-78.535z" opacity=".1" stroke-width="1.3333"/></g></g><path transform="scale(.75)" d="m32.014 188.19c-0.001995 2.8016-0.013672 5.8317-0.013672 8.4961 0 201.07 116.48 283.31 224 283.31s224-82.255 224-283.31c0-2.6541-0.01164-5.6885-0.01367-8.4863-0.58774 199.95-116.74 281.8-223.99 281.8s-223.4-81.838-223.99-281.81z" fill-rule="evenodd" stroke-width="1.3333"/></svg>
