<svg width="512" height="512" version="1.1" viewBox="0 0 384 384" xmlns="http://www.w3.org/2000/svg"><defs><clipPath><rect width="384" height="384"/></clipPath><clipPath><rect width="384" height="384"/></clipPath><clipPath><rect width="384" height="384"/></clipPath></defs><path d="m360 343.2v-302.39c0-9.2773-7.5234-16.797-16.801-16.797h-302.39c-9.2773 0-16.797 7.5195-16.797 16.797v302.39c0 9.2773 7.5195 16.801 16.797 16.801h302.39c9.2774 0 16.801-7.5234 16.801-16.801z" fill="#d41717"/><path d="m239.23 67.387c-2.8242 0.16406-5.5742 0.99219-8.0156 2.4141l-141.94 79.469-65.277-30.719v39.793l58.336 27.441c5.2539 2.4766 11.383 2.2617 16.453-0.57421l150-84.004c7.1172-3.8477 10.793-11.973 8.9883-19.859-1.8086-7.8867-8.6562-13.598-16.738-13.961-0.60158-0.03125-1.2031-0.03125-1.8008 0zm0 60c-2.8242 0.16016-5.5703 0.98828-8.0156 2.4102l-141.94 79.473-65.277-30.719v39.793l58.336 27.441c5.2539 2.4726 11.383 2.2617 16.453-0.57421l150-84c7.125-3.8438 10.805-11.973 8.9961-19.863-1.8086-7.8906-8.6602-13.602-16.746-13.961-0.60158-0.0312-1.2031-0.0312-1.8008 0zm0 59.996c-2.8242 0.16406-5.5703 0.98828-8.0156 2.4102l-141.94 79.477-65.277-30.719v39.789l58.336 27.445c5.2539 2.4727 11.383 2.2578 16.453-0.57422l150-84c7.125-3.8438 10.809-11.973 9-19.863-1.8086-7.8945-8.6641-13.605-16.75-13.965-0.60158-0.0312-1.2031-0.0312-1.8008 0z" fill-rule="evenodd" opacity=".3"/><path d="m239.23 59.887c-2.8242 0.16406-5.5742 0.99219-8.0156 2.4141l-141.94 79.469-65.277-30.719v39.793l58.336 27.441c5.2539 2.4766 11.383 2.2617 16.453-0.57422l150-84.004c7.1172-3.8477 10.793-11.973 8.9883-19.859-1.8086-7.8867-8.6562-13.598-16.738-13.961-0.60157-0.03125-1.2031-0.03125-1.8008 0zm0 60c-2.8242 0.16016-5.5703 0.98828-8.0156 2.4102l-141.94 79.473-65.277-30.719v39.793l58.336 27.441c5.2539 2.4726 11.383 2.2617 16.453-0.57422l150-84c7.125-3.8438 10.805-11.973 8.9961-19.863-1.8086-7.8906-8.6602-13.602-16.746-13.961-0.60157-0.0312-1.2031-0.0312-1.8008 0zm0 59.996c-2.8242 0.16406-5.5703 0.98828-8.0156 2.4102l-141.94 79.477-65.277-30.719v39.789l58.336 27.445c5.2539 2.4726 11.383 2.2578 16.453-0.57422l150-84c7.125-3.8438 10.809-11.973 9-19.863-1.8086-7.8945-8.6641-13.605-16.75-13.965-0.60157-0.0312-1.2031-0.0312-1.8008 0z" fill="#fff" fill-rule="evenodd"/><path transform="scale(.75)" d="m54.4 32.006c-12.37 0-22.395 10.025-22.395 22.395v10c0-12.37 10.025-22.395 22.395-22.395h403.19c12.37 0 22.4 10.025 22.4 22.395v-10c0-12.37-10.031-22.395-22.4-22.395h-403.19z" fill="#fff" opacity=".3" stroke-width="1.3333"/><path transform="scale(.75)" d="m32.006 447.59v10c0 12.37 10.025 22.4 22.395 22.4h403.19c12.37 0 22.4-10.031 22.4-22.4v-10c0 12.37-10.031 22.4-22.4 22.4h-403.19c-12.37 0-22.395-10.031-22.395-22.4z" opacity=".3" stroke-width="1.3333"/></svg>
