<svg width="512" height="512" version="1.1" viewBox="0 0 135.47 135.47" xmlns="http://www.w3.org/2000/svg" xmlns:xlink="http://www.w3.org/1999/xlink"><defs><linearGradient id="a" x1="-23.82" x2="165.08" y1="-12.879" y2="-12.879" gradientTransform="matrix(.6583 0 0 .6583 21.237 76.4)" gradientUnits="userSpaceOnUse"><stop stop-color="#fd3535" offset="0"/><stop stop-color="#fd7d00" offset="1"/></linearGradient><clipPath><rect width="384" height="384"/></clipPath><linearGradient id="c" x1="69.041" x2="69.041" y1="82.652" y2="59.832" gradientTransform="translate(0 -2.5972)" gradientUnits="userSpaceOnUse" xlink:href="#a"/><linearGradient id="b" x1="69.041" x2="69.041" y1="82.652" y2="59.832" gradientTransform="translate(0 2.6946)" gradientUnits="userSpaceOnUse" xlink:href="#a"/></defs><path d="m68.36 10.804a6.615 6.615 0 0 0-1.1855 0.10955c-10.681 0.28432-20.885 4.2608-28.847 11.277-7.94e-4 6.35e-4 -7.94e-4 0.0014-0.0016 0.0021-7.94e-4 6.08e-4 -0.0013 0.0014-0.0021 0.0021-3.4327 3.0252-3.6078 8.5581-0.37105 11.794a6.615 6.615 0 0 0 0 0.0021l3.3006 3.299c0.32758 0.32755 0.74905 0.49069 1.1193 0.74982-0.15021 1.7634 0.35324 3.4806 1.3239 5.008-1.3269-0.8647-2.8109-1.4657-4.4198-1.4495-0.0027 2.9e-5 -0.0051-0.0016-0.0078-0.0016a6.615 6.615 0 0 0-0.6697 0.04083c-0.24037-0.33221-0.38298-0.71717-0.67955-1.0139a6.615 6.615 0 0 0-0.0021-0.0021l-3.303-3.2985a6.615 6.615 0 0 0-0.0016-0.0041c-0.91857-0.91735-2.0617-1.4937-3.2752-1.8825a6.615 6.615 0 0 0-2.5316-0.48265c-0.1572 0.0016-0.29509 0.09099-0.45114 0.1018l-0.0036-0.0801a6.615 6.615 0 0 0-2.1957 0.57205c-1.2562 0.45796-2.4256 1.1205-3.3279 2.1425a6.615 6.615 0 0 0-0.0036 0.0041c-7.281 8.261-11.391 18.918-11.391 30.038 1.1e-5 11.117 4.1079 21.775 11.387 30.035 6.35e-4 7.94e-4 0.0014 0.0013 0.0021 0.0021 6.09e-4 7.94e-4 0.0014 0.0013 0.0021 0.0021 3.0249 3.4324 8.5607 3.6052 11.794 0.37102a6.615 6.615 0 0 0 0-0.0021l3.299-3.3012c0.32755-0.3276 0.49072-0.74839 0.74982-1.1188 1.7876 0.15226 3.5303-0.36554 5.0704-1.3653-0.99781 1.5378-1.5156 3.2776-1.3653 5.0622-0.37017 0.26093-0.79078 0.42965-1.1172 0.75601a6.615 6.615 0 0 0-0.0021 0.0021l-3.3006 3.3006c-3.2332 3.2342-3.0591 8.7666 0.36896 11.791a6.615 6.615 0 0 0 0.0021 2e-3c8.2605 7.2804 18.918 11.393 30.038 11.393 10.631 0 20.772-3.8472 28.858-10.527l0.14831-0.10955c0.38253-0.24256 0.73638-0.49593 1.0351-0.75964 1.731-1.5272 2.7291-3.7282 2.7384-6.0353-5e-5 -0.12154-2.7e-4 -0.23444 0-0.21704-0.0475-2.078-0.89868-4.0653-2.3673-5.535a6.615 6.615 0 0 0 0-2e-3l-3.3025-3.3006a6.615 6.615 0 0 0 0-0.0021c-0.32352-0.32338-0.74032-0.48345-1.1054-0.74006 0.01767-0.19599 0.12956-0.36824 0.13281-0.56636a6.615 6.615 0 0 0 0-0.03927c5.29e-4 -0.06288 5.29e-4 -0.12138 0-0.17983a6.615 6.615 0 0 0 0-0.03307c-0.02307-1.5325-0.60951-2.9392-1.4299-4.205 1.5222 0.95982 3.2284 1.4599 4.9826 1.3105 0.25907 0.37028 0.42238 0.79125 0.74982 1.1188a6.615 6.615 0 0 0 0 0.0021l3.303 3.3012c3.2345 3.2334 8.7642 3.0612 11.791-0.36949a6.615 6.615 0 0 0 2e-3 -0.0021c7.2807-8.2605 11.391-18.918 11.391-30.038 0-10.631-3.8459-20.772-10.525-28.858l-0.10956-0.14883c-0.23328-0.36856-0.48121-0.71931-0.75394-1.0289l-2e-3 -0.0021c-0.90481-1.0267-2.0772-1.6938-3.3377-2.1523a6.615 6.615 0 0 0-2.621-0.59015c-0.073-0.0013-0.045-2.03e-4 -0.092 0-5.3e-4 -2e-6 -5.3e-4 3e-6 -2e-3 0-0.10268 5.3e-4 -0.2238 0.0024-0.20361 0.0021-2.072 0.04739-4.0594 0.89053-5.535 2.3652a6.615 6.615 0 0 0-2e-3 0.0021l-3.3025 3.3006a6.615 6.615 0 0 0 0 0.0021c-0.30106 0.3012-0.44608 0.69172-0.68936 1.0294a6.615 6.615 0 0 0-0.59583-0.05271 6.615 6.615 0 0 0-0.0057 0c-0.0055-1.01e-4 -0.01003-4e-3 -0.0155-0.0041a6.615 6.615 0 0 0-0.03927 0c-0.05329-5.29e-4 -0.10606-2.64e-4 -0.15606 0a6.615 6.615 0 0 0-0.02376 0 6.615 6.615 0 0 0-0.02326 0h-0.0021a6.615 6.615 0 0 0-0.0078 0c-5.29e-4 1.1e-5 -0.0013-1e-5 -0.0021 0a6.615 6.615 0 0 0-2.3223 0.4904c-0.65428 0.21016-1.2344 0.52532-1.8164 0.89452 0.83076-1.3113 1.411-2.7643 1.3947-4.3362v-0.0016c-0.0021-0.21301-0.12167-0.39915-0.14056-0.60978 0.36827-0.25808 0.7871-0.41986 1.1131-0.74569a6.615 6.615 0 0 0 0.0021-0.0021l3.3012-3.3012a6.615 6.615 0 0 0 0.0016-0.0021c1.534-1.5361 2.3908-3.6322 2.3673-5.8062-0.0245-2.2832-1.0179-4.4632-2.7363-5.9806a6.615 6.615 0 0 0-0.0057-0.0041c-8.2612-7.281-18.919-11.39-30.038-11.39zm17.33 69.95 0.12299 0.12712c-0.08677-0.09149-0.07163-0.07264-0.11524-0.11524-0.0034-0.0034-0.0043-0.0085-0.0078-0.01188z" color="#000000" color-rendering="auto" dominant-baseline="auto" image-rendering="auto" shape-rendering="auto" solid-color="#000000" stop-color="#000000" stroke-width=".26458" style="font-feature-settings:normal;font-variant-alternates:normal;font-variant-caps:normal;font-variant-east-asian:normal;font-variant-ligatures:normal;font-variant-numeric:normal;font-variant-position:normal;font-variation-settings:normal;inline-size:0;isolation:auto;mix-blend-mode:normal;shape-margin:0;shape-padding:0;text-decoration-color:#000000;text-decoration-line:none;text-decoration-style:solid;text-indent:0;text-orientation:mixed;text-transform:none;white-space:normal"/><path d="m68.361 18.478c-9.4902 9e-6 -18.592 3.5047-25.663 9.7376-0.64086 0.56397-0.67246 1.5522-0.06881 2.1558l3.3015 3.3c0.54825 0.54818 1.4269 0.57973 2.0131 0.07232 5.6507-4.8913 12.896-7.6096 20.419-7.6096 7.5229 2.8e-5 14.766 2.718 20.418 7.6096 0.58613 0.50716 1.4644 0.4756 2.0126-0.07232l3.3-3.3015c0.28075-0.28113 0.43675-0.66349 0.43245-1.0608-0.0045-0.41874-0.18585-0.81627-0.49977-1.0935-7.0716-6.2327-16.175-9.7376-25.664-9.7376zm0 13.217c-6.9859 2.3e-5 -13.704 2.4937-18.997 6.9646-0.66156 0.55864-0.7035 1.5639-0.09092 2.1759l3.0819 3.0814c0.53725 0.53666 1.3934 0.57891 1.981 0.09795 3.9382-3.2228 8.8902-5.0078 14.024-5.0078h0.0016c5.1336 0 10.086 1.7848 14.024 5.0078 0.58762 0.48095 1.4442 0.4387 1.9815-0.09795l3.0829-3.0814c0.28114-0.28126 0.43685-0.66418 0.43245-1.0618-0.0044-0.42983-0.19566-0.83646-0.52388-1.114-5.2933-4.4708-12.011-6.9646-18.997-6.9646zm39.467 10.932c-0.0119-1.95e-4 -0.024 2.25e-4 -0.0361 5.15e-4 -0.38038 0.0087-0.74298 0.16303-1.0121 0.43196l-3.3015 3.3015c-0.54795 0.5482-0.57997 1.4265-0.0729 2.0126 4.8913 5.6507 7.6111 12.894 7.6111 20.418-3e-5 7.5229-2.7193 14.767-7.6111 20.418-0.50716 0.5861-0.47517 1.4644 0.0729 2.0126l3.3015 3.3015c0.6031 0.6029 1.5901 0.5722 2.1543-0.06726 6.2327-7.0716 9.7386-16.174 9.7386-25.663 0-9.4015-3.4589-18.41-9.583-25.453-0.0452-0.0753-0.0975-0.14614-0.15571-0.21196-0.27983-0.31776-0.68262-0.50024-1.106-0.50127zm-78.95 5.15e-4c-0.41874 0.0045-0.81578 0.18586-1.093 0.49978-6.2327 7.0716-9.7376 16.174-9.7376 25.664 1e-5 9.4902 3.5047 18.592 9.7376 25.664 0.56397 0.64086 1.5517 0.67198 2.1553 0.06833l3.3-3.3015c0.54818-0.54825 0.57973-1.4264 0.07232-2.0126-4.8913-5.6507-7.6096-12.896-7.6096-20.419 2.7e-5 -7.5229 2.718-14.766 7.6096-20.418 0.50716-0.58613 0.4756-1.4644-0.07232-2.0126l-3.3015-3.3005c-0.28113-0.28075-0.66349-0.43626-1.0608-0.43196zm10.464 6.6431v5.14e-4c-0.42983 0.0043-0.83697 0.19516-1.1146 0.52338-4.4708 5.2933-6.9646 12.011-6.9646 18.997 2e-5 6.9859 2.4937 13.704 6.9646 18.997 0.55864 0.66156 1.5639 0.7035 2.1759 0.09088l3.0814-3.0814c0.53666-0.53724 0.5794-1.3938 0.09844-1.9815-3.2228-3.9382-5.0083-8.8902-5.0083-14.024v-0.0019c0-5.1336 1.7853-10.086 5.0083-14.024 0.48095-0.58763 0.43821-1.4437-0.09844-1.981l-3.0814-3.0829c-0.28126-0.28113-0.6637-0.43736-1.0613-0.43296zm57.999 5.14e-4c-0.38544 0.0058-0.75368 0.16176-1.0257 0.43497l-3.0806 3.0791c-0.53699 0.53696-0.5796 1.3936-0.09895 1.9815 3.2233 3.9388 5.0076 8.8905 5.0078 14.025-1.3e-4 5.1343-1.7844 10.086-5.0078 14.025-0.48064 0.5879-0.43803 1.4445 0.09895 1.9815l3.0819 3.0814c0.6118 0.61149 1.6158 0.56957 2.1744-0.09088 4.4708-5.2932 6.9661-12.011 6.9661-18.997-3e-5 -6.9859-2.4953-13.704-6.9661-18.997-0.2755-0.32573-0.67846-0.51639-1.105-0.52338-0.0152-1.57e-4 -0.03-1.51e-4 -0.0452 0zm-28.979 15.188c-2.3912 0-4.3297 1.9385-4.3297 4.3297 5.5e-5 2.3912 1.9385 4.3296 4.3297 4.3296s4.3296-1.9384 4.3297-4.3296c0-2.3912-1.9385-4.3297-4.3297-4.3297zm5.14e-4 12.976c-0.37832 0-0.75656 0.14438-1.0452 0.43296l-5.1122 5.1122c-0.26457 0.26488-0.40298 0.59948-0.42695 0.93824-0.36196-0.21093-0.71574-0.43749-1.0573-0.68308-0.5884-0.42248-1.3962-0.35669-1.9081 0.1557l-3.1019 3.1019c-0.62898 0.62872-0.56425 1.6664 0.13762 2.2125 3.5589 2.7674 7.9506 4.3096 12.514 4.3096 4.5632-1.26e-4 8.9553-1.5423 12.514-4.3096 0.36055-0.28032 0.57137-0.71161 0.57109-1.1683-2.57e-4 -0.3918-0.15633-0.76728-0.43348-1.0443-0.0092-0.0097-0.0187-0.01857-0.02812-0.0276l-3.0739-3.0744c-0.51199-0.51238-1.3198-0.5782-1.9081-0.15571-0.34121 0.24534-0.69476 0.47136-1.0563 0.68211-0.026-0.35242-0.17625-0.68573-0.42795-0.93724l-5.1122-5.1122c-0.2887-0.28859-0.66694-0.43296-1.0453-0.43296zm-15.035 15.799c-0.35471 0.01779-0.70294 0.16297-0.9714 0.43145l-3.0819 3.0819c-0.61149 0.61179-0.56957 1.6158 0.09092 2.1744 5.2933 4.4708 12.011 6.9656 18.997 6.9656 6.9859-3e-5 13.704-2.4953 18.997-6.9661 0.32573-0.2755 0.51688-0.67795 0.52387-1.1045 1.57e-4 -0.01516 1.52e-4 -0.03052 0-0.04569-0.0058-0.38544-0.16226-0.75319-0.43548-1.0251l-3.0791-3.0806c-0.53696-0.53699-1.3936-0.58012-1.9815-0.09945-3.9388 3.2233-8.8905 5.0075-14.025 5.0078-5.1343-1.4e-4 -10.086-1.7844-14.025-5.0078-0.29397-0.24033-0.65485-0.34977-1.0096-0.332zm-6.404 10.243c-0.36137 0.013-0.71791 0.15795-0.99199 0.43196l-3.3015 3.302c-0.6029 0.60311-0.57171 1.5896 0.0678 2.1538 7.0716 6.2327 16.173 9.7392 25.663 9.7392 9.4015 0 18.41-3.4589 25.453-9.5831 0.07531-0.0452 0.14614-0.098 0.21196-0.15621 0.31763-0.27972 0.50011-0.68229 0.50127-1.1055v-5.1e-4c1.8e-4 -0.0117-2.26e-4 -0.0241-5.14e-4 -0.0362-0.0087-0.38037-0.16353-0.74247-0.43245-1.0116l-3.301-3.302c-0.5482-0.54795-1.4265-0.57945-2.0126-0.0723-5.6507 4.8913-12.895 7.6111-20.418 7.6111-7.5229-1e-5 -14.767-2.7193-20.418-7.6111-0.29307-0.25359-0.65927-0.37265-1.0206-0.35963z" color="#000000" color-rendering="auto" dominant-baseline="auto" fill="#517bc1" image-rendering="auto" shape-rendering="auto" solid-color="#000000" stop-color="#000000" stroke-width=".25717" style="font-feature-settings:normal;font-variant-alternates:normal;font-variant-caps:normal;font-variant-east-asian:normal;font-variant-ligatures:normal;font-variant-numeric:normal;font-variant-position:normal;font-variation-settings:normal;inline-size:0;isolation:auto;mix-blend-mode:normal;shape-margin:0;shape-padding:0;text-decoration-color:#000000;text-decoration-line:none;text-decoration-style:solid;text-indent:0;text-orientation:mixed;text-transform:none;white-space:normal"/><path d="m68.361 18.478c-9.4902 9e-6 -18.592 3.5047-25.663 9.7376-0.64086 0.56397-0.67246 1.5522-0.06881 2.1558l3.3015 3.3c0.54825 0.54818 1.4269 0.57973 2.0131 0.07232 5.6507-4.8913 12.896-7.6096 20.419-7.6096 7.5229 2.8e-5 14.766 2.718 20.418 7.6096 0.58613 0.50716 1.4644 0.4756 2.0126-0.07232l3.3-3.3015c0.28075-0.28113 0.43675-0.66349 0.43245-1.0608-0.0045-0.41874-0.18585-0.81627-0.49977-1.0935-7.0716-6.2327-16.175-9.7376-25.664-9.7376zm0 13.217c-6.9859 2.3e-5 -13.704 2.4937-18.997 6.9646-0.66156 0.55864-0.7035 1.5639-0.09092 2.1759l3.0819 3.0814c0.53725 0.53666 1.3934 0.57891 1.981 0.09795 3.9382-3.2228 8.8902-5.0078 14.024-5.0078h0.0016c5.1336 0 10.086 1.7848 14.024 5.0078 0.58762 0.48095 1.4442 0.4387 1.9815-0.09795l3.0829-3.0814c0.28114-0.28126 0.43685-0.66418 0.43245-1.0618-0.0044-0.42983-0.19566-0.83646-0.52388-1.114-5.2933-4.4708-12.011-6.9646-18.997-6.9646zm39.467 10.932c-0.0119-1.95e-4 -0.024 2.25e-4 -0.0361 5.15e-4 -0.38038 0.0087-0.74298 0.16303-1.0121 0.43196l-3.3015 3.3015c-0.54795 0.5482-0.57997 1.4265-0.0729 2.0126 4.8913 5.6507 7.6111 12.894 7.6111 20.418-3e-5 7.5229-2.7193 14.767-7.6111 20.418-0.50716 0.5861-0.47517 1.4644 0.0729 2.0126l3.3015 3.3015c0.6031 0.6029 1.5901 0.5722 2.1543-0.06726 6.2327-7.0716 9.7386-16.174 9.7386-25.663 0-9.4015-3.4589-18.41-9.583-25.453-0.0452-0.0753-0.0975-0.14614-0.15571-0.21196-0.27983-0.31776-0.68262-0.50024-1.106-0.50127zm-78.95 5.15e-4c-0.41874 0.0045-0.81578 0.18586-1.093 0.49978-6.2327 7.0716-9.7376 16.174-9.7376 25.664 1e-5 9.4902 3.5047 18.592 9.7376 25.664 0.56397 0.64086 1.5517 0.67198 2.1553 0.06833l3.3-3.3015c0.54818-0.54825 0.57973-1.4264 0.07232-2.0126-4.8913-5.6507-7.6096-12.896-7.6096-20.419 2.7e-5 -7.5229 2.718-14.766 7.6096-20.418 0.50716-0.58613 0.4756-1.4644-0.07232-2.0126l-3.3015-3.3005c-0.28113-0.28075-0.66349-0.43626-1.0608-0.43196zm10.464 6.6431v5.14e-4c-0.42983 0.0043-0.83697 0.19516-1.1146 0.52338-4.4708 5.2933-6.9646 12.011-6.9646 18.997 2e-5 6.9859 2.4937 13.704 6.9646 18.997 0.55864 0.66156 1.5639 0.7035 2.1759 0.09088l3.0814-3.0814c0.53666-0.53724 0.5794-1.3938 0.09844-1.9815-3.2228-3.9382-5.0083-8.8902-5.0083-14.024v-0.0019c0-5.1336 1.7853-10.086 5.0083-14.024 0.48095-0.58763 0.43821-1.4437-0.09844-1.981l-3.0814-3.0829c-0.28126-0.28113-0.6637-0.43736-1.0613-0.43296zm57.999 5.14e-4c-0.38544 0.0058-0.75368 0.16176-1.0257 0.43497l-3.0806 3.0791c-0.53699 0.53696-0.5796 1.3936-0.09895 1.9815 3.2233 3.9388 5.0076 8.8905 5.0078 14.025-1.3e-4 5.1343-1.7844 10.086-5.0078 14.025-0.48064 0.5879-0.43803 1.4445 0.09895 1.9815l3.0819 3.0814c0.6118 0.61149 1.6158 0.56957 2.1744-0.09088 4.4708-5.2932 6.9661-12.011 6.9661-18.997-3e-5 -6.9859-2.4953-13.704-6.9661-18.997-0.2755-0.32573-0.67846-0.51639-1.105-0.52338-0.0152-1.57e-4 -0.03-1.51e-4 -0.0452 0zm-28.979 15.188c-2.3912 0-4.3297 1.9385-4.3297 4.3297 5.5e-5 2.3912 1.9385 4.3296 4.3297 4.3296s4.3296-1.9384 4.3297-4.3296c0-2.3912-1.9385-4.3297-4.3297-4.3297zm5.14e-4 12.976c-0.37832 0-0.75656 0.14438-1.0452 0.43296l-5.1122 5.1122c-0.26457 0.26488-0.40298 0.59948-0.42695 0.93824-0.36196-0.21093-0.71574-0.43749-1.0573-0.68308-0.5884-0.42248-1.3962-0.35669-1.9081 0.1557l-3.1019 3.1019c-0.62898 0.62872-0.56425 1.6664 0.13762 2.2125 3.5589 2.7674 7.9506 4.3096 12.514 4.3096 4.5632-1.26e-4 8.9553-1.5423 12.514-4.3096 0.36055-0.28032 0.57137-0.71161 0.57109-1.1683-2.57e-4 -0.3918-0.15633-0.76728-0.43348-1.0443-0.0092-0.0097-0.0187-0.01857-0.02812-0.0276l-3.0739-3.0744c-0.51199-0.51238-1.3198-0.5782-1.9081-0.15571-0.34121 0.24534-0.69476 0.47136-1.0563 0.68211-0.026-0.35242-0.17625-0.68573-0.42795-0.93724l-5.1122-5.1122c-0.2887-0.28859-0.66694-0.43296-1.0453-0.43296zm-15.035 15.799c-0.35471 0.01779-0.70294 0.16297-0.9714 0.43145l-3.0819 3.0819c-0.61149 0.61179-0.56957 1.6158 0.09092 2.1744 5.2933 4.4708 12.011 6.9656 18.997 6.9656 6.9859-3e-5 13.704-2.4953 18.997-6.9661 0.32573-0.2755 0.51688-0.67795 0.52387-1.1045 1.57e-4 -0.01516 1.52e-4 -0.03052 0-0.04569-0.0058-0.38544-0.16226-0.75319-0.43548-1.0251l-3.0791-3.0806c-0.53696-0.53699-1.3936-0.58012-1.9815-0.09945-3.9388 3.2233-8.8905 5.0075-14.025 5.0078-5.1343-1.4e-4 -10.086-1.7844-14.025-5.0078-0.29397-0.24033-0.65485-0.34977-1.0096-0.332zm-6.404 10.243c-0.36137 0.013-0.71791 0.15795-0.99199 0.43196l-3.3015 3.302c-0.6029 0.60311-0.57171 1.5896 0.0678 2.1538 7.0716 6.2327 16.173 9.7392 25.663 9.7392 9.4015 0 18.41-3.4589 25.453-9.5831 0.07531-0.0452 0.14614-0.098 0.21196-0.15621 0.31763-0.27972 0.50011-0.68229 0.50127-1.1055v-5.1e-4c1.8e-4 -0.0117-2.26e-4 -0.0241-5.14e-4 -0.0362-0.0087-0.38037-0.16353-0.74247-0.43245-1.0116l-3.301-3.302c-0.5482-0.54795-1.4265-0.57945-2.0126-0.0723-5.6507 4.8913-12.895 7.6111-20.418 7.6111-7.5229-1e-5 -14.767-2.7193-20.418-7.6111-0.29307-0.25359-0.65927-0.37265-1.0206-0.35963z" color="#000000" color-rendering="auto" dominant-baseline="auto" image-rendering="auto" opacity=".3" shape-rendering="auto" solid-color="#000000" stop-color="#000000" stroke-width=".25717" style="font-feature-settings:normal;font-variant-alternates:normal;font-variant-caps:normal;font-variant-east-asian:normal;font-variant-ligatures:normal;font-variant-numeric:normal;font-variant-position:normal;font-variation-settings:normal;inline-size:0;isolation:auto;mix-blend-mode:normal;shape-margin:0;shape-padding:0;text-decoration-color:#000000;text-decoration-line:none;text-decoration-style:solid;text-indent:0;text-orientation:mixed;text-transform:none;white-space:normal"/><path d="m68.361 15.832c-9.4902 9e-6 -18.592 3.5047-25.663 9.7376-0.64086 0.56397-0.67246 1.5522-0.06881 2.1558l3.3015 3.3c0.54825 0.54818 1.4269 0.57973 2.0131 0.07232 5.6507-4.8913 12.896-7.6096 20.419-7.6096 7.5229 2.8e-5 14.766 2.718 20.418 7.6096 0.58613 0.50716 1.4644 0.4756 2.0126-0.07232l3.3-3.3015c0.28075-0.28113 0.43675-0.66349 0.43245-1.0608-0.0045-0.41874-0.18585-0.81627-0.49977-1.0935-7.0716-6.2327-16.175-9.7376-25.664-9.7376zm0 13.217c-6.9859 2.3e-5 -13.704 2.4937-18.997 6.9646-0.66156 0.55864-0.7035 1.5639-0.09092 2.1759l3.0819 3.0814c0.53725 0.53666 1.3934 0.57891 1.981 0.09795 3.9382-3.2228 8.8902-5.0078 14.024-5.0078h0.0016c5.1336 0 10.086 1.7848 14.024 5.0078 0.58762 0.48095 1.4442 0.4387 1.9815-0.09795l3.0829-3.0814c0.28114-0.28126 0.43685-0.66418 0.43245-1.0618-0.0044-0.42983-0.19566-0.83646-0.52388-1.114-5.2933-4.4708-12.011-6.9646-18.997-6.9646zm39.467 10.932c-0.0119-1.95e-4 -0.024 2.25e-4 -0.0361 5.15e-4 -0.38038 0.0087-0.74298 0.16303-1.0121 0.43196l-3.3015 3.3015c-0.54795 0.5482-0.57997 1.4265-0.0729 2.0126 4.8913 5.6507 7.6111 12.894 7.6111 20.418-3e-5 7.5229-2.7193 14.767-7.6111 20.418-0.50716 0.5861-0.47517 1.4644 0.0729 2.0126l3.3015 3.3015c0.6031 0.6029 1.5901 0.5722 2.1543-0.06726 6.2327-7.0716 9.7386-16.174 9.7386-25.663 0-9.4015-3.4589-18.41-9.583-25.453-0.0452-0.0753-0.0975-0.14614-0.15571-0.21196-0.27983-0.31776-0.68262-0.50024-1.106-0.50127zm-78.95 5.15e-4c-0.41874 0.0045-0.81578 0.18586-1.093 0.49978-6.2327 7.0716-9.7376 16.174-9.7376 25.664 1e-5 9.4902 3.5047 18.592 9.7376 25.664 0.56397 0.64086 1.5517 0.67198 2.1553 0.06833l3.3-3.3015c0.54818-0.54825 0.57973-1.4264 0.07232-2.0126-4.8913-5.6507-7.6096-12.896-7.6096-20.419 2.7e-5 -7.5229 2.718-14.766 7.6096-20.418 0.50716-0.58613 0.4756-1.4644-0.07232-2.0126l-3.3015-3.3005c-0.28113-0.28075-0.66349-0.43626-1.0608-0.43196zm10.464 6.6431v5.14e-4c-0.42983 0.0043-0.83697 0.19516-1.1146 0.52338-4.4708 5.2933-6.9646 12.011-6.9646 18.997 2e-5 6.9859 2.4937 13.704 6.9646 18.997 0.55864 0.66156 1.5639 0.7035 2.1759 0.09088l3.0814-3.0814c0.53666-0.53724 0.5794-1.3938 0.09844-1.9815-3.2228-3.9382-5.0083-8.8902-5.0083-14.024v-0.0019c0-5.1336 1.7853-10.086 5.0083-14.024 0.48095-0.58763 0.43821-1.4437-0.09844-1.981l-3.0814-3.0829c-0.28126-0.28113-0.6637-0.43736-1.0613-0.43296zm57.999 5.14e-4c-0.38544 0.0058-0.75368 0.16176-1.0257 0.43497l-3.0806 3.0791c-0.53699 0.53696-0.5796 1.3936-0.09895 1.9815 3.2233 3.9388 5.0076 8.8905 5.0078 14.025-1.3e-4 5.1343-1.7844 10.086-5.0078 14.025-0.48064 0.5879-0.43803 1.4445 0.09895 1.9815l3.0819 3.0814c0.6118 0.61149 1.6158 0.56957 2.1744-0.09088 4.4708-5.2932 6.9661-12.011 6.9661-18.997-3e-5 -6.9859-2.4953-13.704-6.9661-18.997-0.2755-0.32573-0.67846-0.51639-1.105-0.52338-0.0152-1.57e-4 -0.03-1.51e-4 -0.0452 0zm-28.979 15.188c-2.3912 0-4.3297 1.9385-4.3297 4.3297 5.5e-5 2.3912 1.9385 4.3296 4.3297 4.3296s4.3296-1.9384 4.3297-4.3296c0-2.3912-1.9385-4.3297-4.3297-4.3297zm5.14e-4 12.976c-0.37832 0-0.75656 0.14438-1.0452 0.43296l-5.1122 5.1122c-0.26457 0.26488-0.40298 0.59948-0.42695 0.93824-0.36196-0.21093-0.71574-0.43749-1.0573-0.68308-0.5884-0.42248-1.3962-0.35669-1.9081 0.1557l-3.1019 3.1019c-0.62898 0.62872-0.56425 1.6664 0.13762 2.2125 3.5589 2.7674 7.9506 4.3096 12.514 4.3096 4.5632-1.26e-4 8.9553-1.5423 12.514-4.3096 0.36055-0.28032 0.57137-0.71161 0.57109-1.1683-2.57e-4 -0.3918-0.15633-0.76728-0.43348-1.0443-0.0092-0.0097-0.0187-0.01857-0.02812-0.0276l-3.0739-3.0744c-0.51199-0.51238-1.3198-0.5782-1.9081-0.15571-0.34121 0.24534-0.69476 0.47136-1.0563 0.68211-0.026-0.35242-0.17625-0.68573-0.42795-0.93724l-5.1122-5.1122c-0.2887-0.28859-0.66694-0.43296-1.0453-0.43296zm-15.035 15.799c-0.35471 0.01779-0.70294 0.16297-0.9714 0.43145l-3.0819 3.0819c-0.61149 0.61179-0.56957 1.6158 0.09092 2.1744 5.2933 4.4708 12.011 6.9656 18.997 6.9656 6.9859-3e-5 13.704-2.4953 18.997-6.9661 0.32573-0.2755 0.51688-0.67795 0.52387-1.1045 1.57e-4 -0.01516 1.52e-4 -0.03052 0-0.04569-0.0058-0.38544-0.16226-0.75319-0.43548-1.0251l-3.0791-3.0806c-0.53696-0.53699-1.3936-0.58012-1.9815-0.09945-3.9388 3.2233-8.8905 5.0075-14.025 5.0078-5.1343-1.36e-4 -10.086-1.7844-14.025-5.0078-0.29397-0.24033-0.65485-0.34977-1.0096-0.332zm-6.404 10.243c-0.36137 0.013-0.71791 0.15795-0.99199 0.43196l-3.3015 3.302c-0.6029 0.60311-0.57171 1.5896 0.0678 2.1538 7.0716 6.2327 16.173 9.7392 25.663 9.7392 9.4015 0 18.41-3.4589 25.453-9.5831 0.07531-0.0452 0.14614-0.098 0.21196-0.15621 0.31763-0.27972 0.50011-0.68229 0.50127-1.1055v-5.1e-4c1.8e-4 -0.0117-2.26e-4 -0.0241-5.14e-4 -0.0362-0.0087-0.38037-0.16353-0.74247-0.43245-1.0116l-3.301-3.302c-0.5482-0.54795-1.4265-0.57945-2.0126-0.0723-5.6507 4.8913-12.895 7.6111-20.418 7.6111-7.5229-1e-5 -14.767-2.7193-20.418-7.6111-0.29307-0.25359-0.65927-0.37265-1.0206-0.35963z" color="#000000" color-rendering="auto" dominant-baseline="auto" fill="#517bc1" image-rendering="auto" shape-rendering="auto" solid-color="#000000" stop-color="#000000" stroke-width=".25717" style="font-feature-settings:normal;font-variant-alternates:normal;font-variant-caps:normal;font-variant-east-asian:normal;font-variant-ligatures:normal;font-variant-numeric:normal;font-variant-position:normal;font-variation-settings:normal;inline-size:0;isolation:auto;mix-blend-mode:normal;shape-margin:0;shape-padding:0;text-decoration-color:#000000;text-decoration-line:none;text-decoration-style:solid;text-indent:0;text-orientation:mixed;text-transform:none;white-space:normal"/><g transform="scale(.26459)" shape-rendering="auto"><path d="m258.25 238.79c-10.259 0-17.213 6.9559-17.213 17.389 0 10.259 6.954 17.213 17.213 17.213 10.259 0 17.215-6.954 17.215-17.213 0-10.432-6.956-17.389-17.215-17.389zm-227.25 2.9531v128.49h29.559v-55.119c3.4775-3.6514 7.3033-5.043 11.824-5.043 8.6938 0 12.344 4.5205 12.344 14.084v46.08h30.082v-51.119c0-22.082-11.651-35.123-31.125-35.123-8.8677 0-16.866 2.7815-23.125 8.8672v-51.121zm105.02 7.8301-2e-3 120.67h30.08v-35.471h9.9121c32.689 0 54.25-17.909 54.25-45.031 0-25.212-18.432-40.164-49.209-40.164zm30.078 26.426h12.52c12.171 0 20.344 6.6067 20.344 16.691 0 9.737-6.7801 15.65-17.561 15.65h-15.303zm267.25 7.3223c-23.473 0-48.541 19.4-39.643 45.205 5.7195 16.586 22.365 40.637 36.396 58.059-6.8615-0.0739-14.991-1.79-21.965-4.6816l-5.7383 22.256c9.5631 4.3467 19.128 6.4336 29.561 6.4336l-4e-3 4e-3c6.6463 0 12.789-0.84426 18.324-2.4199 1.1501 0.69797 1.718 0.58697 1.5703-0.46484 18.019-5.7066 29.141-19.49 29.141-37.801v-84.852h-21.387l-2.957 7.8242c-5.3902-6.2595-13.214-9.5625-23.299-9.5625zm-84.85 0.67578c-10.78 0-20.344 4.3454-27.299 12.17l-4.6953-11.127h-21.734v85.199h30.082v-55.641c3.6514-2.9559 7.6489-4.5215 12.344-4.5215 8.1723 0 11.824 4.5205 11.824 14.084v46.078h30.08v-49.381c0-23.299-11.302-36.861-30.602-36.861zm-105.37 1.043v85.199h30.08v-85.199zm208.65 78.26v6.6074c0 8.1343-4.6159 13.597-12.801 15.707-2.6794-3.9629-5.7945-8.4603-9.4551-13.621-5.0297-7.0912 16.344-3.1293 22.256-8.6934z" color="#000000" color-rendering="auto" dominant-baseline="auto" image-rendering="auto" solid-color="#000000" stop-color="#000000" style="font-feature-settings:normal;font-variant-alternates:normal;font-variant-caps:normal;font-variant-east-asian:normal;font-variant-ligatures:normal;font-variant-numeric:normal;font-variant-position:normal;font-variation-settings:normal;inline-size:0;isolation:auto;mix-blend-mode:normal;shape-margin:0;shape-padding:0;text-decoration-color:#000000;text-decoration-line:none;text-decoration-style:solid;text-indent:0;text-orientation:mixed;text-transform:none;white-space:normal"/><path d="m258.25 213.79c-10.78 0-22.166 4.0821-30.195 12.17-2.319 2.336-4.2035 4.9922-5.8496 7.7812-12.194-6.4322-26.329-9.168-41.158-9.168h-45.031c-13.807 1e-3 -24.999 11.193-25 25v16.115c-7.8402-4.1246-16.693-6.3207-25.461-6.5996v-17.346c-0.0014-13.807-11.193-24.999-25-25h-29.559c-13.807 1e-3 -24.999 11.193-25 25v128.49c0.00138 13.807 11.193 24.999 25 25h29.559c4.2259-6.8e-4 8.3827-1.0725 12.082-3.1152 3.7003 2.0441 7.8586 3.1166 12.086 3.1172h30.082c3.6655-1.8e-4 7.2861-0.80632 10.605-2.3613 3.3187 1.5547 6.9387 2.3608 10.604 2.3613h30.08c13.807-1e-3 24.999-11.193 25-25v-11.529c9.6409-1.3794 18.756-4.1736 27.029-8.4121v19.941c1e-3 13.807 11.193 24.999 25 25h30.08c3.7305-7.3e-4 7.4136-0.83624 10.779-2.4453 3.3657 1.6091 7.0488 2.4446 10.779 2.4453h30.082c4.2267-9.5e-4 8.3842-1.0734 12.084-3.1172 3.6998 2.0438 7.8573 3.1162 12.084 3.1172h29.859l-0.68945 2.6777c-3.0291 11.751 2.8166 23.98 13.863 29.002 11.7 5.3178 24.34 8.1559 37.164 8.5254 57.91 0 75.944-32.527 76.773-65.533v-84.852c-1e-3 -13.807-11.193-24.999-25-25h-21.387c-2.6355-9e-5 -5.2544 0.41651-7.7598 1.2344-6.0117-1.9448-12.31-2.9726-18.496-2.9726-16.857 0-32.845 5.6777-45.666 16.66-10.125-10.335-24.914-15.984-39.184-15.984-7.1237 0-14.144 1.3304-20.768 3.707-3.4833-1.7512-7.3278-2.6635-11.227-2.6641h-16.393c0.11442-1.2895 0.36133-2.5808 0.36133-3.8613 0-10.773-3.9903-22.134-12.02-30.221-8.0292-8.0871-19.415-12.168-30.195-12.168z" color="#000000" color-rendering="auto" dominant-baseline="auto" image-rendering="auto" solid-color="#000000" stop-color="#000000" style="font-feature-settings:normal;font-variant-alternates:normal;font-variant-caps:normal;font-variant-east-asian:normal;font-variant-ligatures:normal;font-variant-numeric:normal;font-variant-position:normal;font-variation-settings:normal;inline-size:0;isolation:auto;mix-blend-mode:normal;shape-margin:0;shape-padding:0;text-decoration-color:#000000;text-decoration-line:none;text-decoration-style:solid;text-indent:0;text-orientation:mixed;text-transform:none;white-space:normal"/></g><path d="m68.331 60.584c-2.6815 0-4.5098 1.7963-4.5536 4.5013-5.35e-4 0.03305-8.03e-4 5.358-8.03e-4 5.3914 0 2.7143 1.84 4.5544 4.5544 4.5544 2.7143 0 4.5549-1.84 4.5549-4.5544 0-0.05176-6.47e-4 -5.395-0.0019-5.4461-0.06739-2.6744-1.8894-4.4466-4.5529-4.4466zm-60.129 6.0732v33.998h7.8209v-14.584c0.92011-0.96612 1.9324-1.3343 3.1286-1.3343 2.3003 0 3.266 1.1961 3.266 3.7265v12.192h7.9594v-13.526c0-5.8427-3.0828-9.2932-8.2354-9.2932-2.3463 0-4.4624 0.73596-6.1186 2.3462v-13.526zm27.787 2.0718-5.3e-4 31.927h7.9589v-9.3852h2.6226c8.6491 0 14.354-4.7384 14.354-11.915 0-6.6708-4.8768-10.627-13.02-10.627zm7.9584 6.992h3.3125c3.2204 0 5.3827 1.7481 5.3827 4.4164 0 2.5763-1.7939 4.1409-4.6463 4.1409h-4.0489zm70.711 1.9374c-6.2108 0-10.489 4.7384-10.489 11.961 0 6.9929 4.0025 11.501 9.4772 11.501 2.3003 0 4.3245-0.82798 5.8887-2.3002v1.7483c0 2.8063-2.0703 4.4164-5.6127 4.4164-1.8402 0-5.5668 0.13668-7.453-0.64546v5.2918c2.5303 1.1501 5.061 1.7023 7.8214 1.7023l-1e-3 1e-3c7.775 0 12.974-4.3245 12.974-10.765v-22.451h-5.6587l-0.7824 2.0702c-1.4262-1.6562-3.4962-2.5301-6.1646-2.5301zm-22.45 0.1788c-2.8524 0-5.3828 1.1497-7.223 3.22l-1.2423-2.9441h-5.7507v22.543h7.9594v-14.722c0.96611-0.7821 2.0238-1.1963 3.266-1.1963 2.1623 0 3.1286 1.1961 3.1286 3.7265v12.192h7.9589v-13.066c0-6.1648-2.9903-9.7531-8.0969-9.7531zm-27.879 0.27596v22.543h7.9589v-22.543zm51.755 6.1698c1.4262 0 2.6224 0.59813 3.4505 1.7483v7.085c-0.7821 0.87411-1.9323 1.3803-3.3585 1.3803-2.4383 0-3.9104-1.9324-3.9104-5.2448 0-3.1284 1.4262-4.9688 3.8185-4.9688z" fill="url(#b)"/><path d="m68.331 60.584c-2.683 0-4.5117 1.7982-4.5536 4.5056-4.9e-4 0.03163-7.35e-4 5.3552-7.35e-4 5.3871 0 2.7143 1.84 4.5544 4.5544 4.5544 2.7143 0 4.5549-1.84 4.5549-4.5544 0-0.02993-2.16e-4 -5.3516-6.48e-4 -5.3813-0.03937-2.7105-1.8693-4.5114-4.5542-4.5114zm-60.129 6.0732v33.998h7.8209v-14.584c0.92011-0.96612 1.9324-1.3343 3.1286-1.3343 2.3003 0 3.266 1.1961 3.266 3.7265v12.192h7.9594v-13.526c0-5.8427-3.0828-9.2932-8.2354-9.2932-2.3463 0-4.4624 0.73596-6.1186 2.3462v-13.526zm27.787 2.0718-5.3e-4 31.927h7.9589v-9.3852h2.6226c8.6491 0 14.354-4.7384 14.354-11.915 0-6.6708-4.8768-10.627-13.02-10.627zm7.9584 6.992h3.3125c3.2204 0 5.3827 1.7481 5.3827 4.4164 0 2.5763-1.7939 4.1409-4.6463 4.1409h-4.0489zm70.711 1.9374c-6.2108 0-10.489 4.7384-10.489 11.961 0 6.9929 4.0025 11.501 9.4772 11.501 2.3003 0 4.3245-0.82798 5.8887-2.3002v1.7483c0 2.8063-2.0703 4.4164-5.6127 4.4164-1.8402 0-5.5668 0.13668-7.453-0.64546v5.2918c2.5303 1.1501 5.061 1.7023 7.8214 1.7023l-1e-3 1e-3c7.775 0 12.974-4.3245 12.974-10.765v-22.451h-5.6587l-0.7824 2.0702c-1.4262-1.6562-3.4962-2.5301-6.1646-2.5301zm-22.45 0.1788c-2.8524 0-5.3828 1.1497-7.223 3.22l-1.2423-2.9441h-5.7507v22.543h7.9594v-14.722c0.96611-0.7821 2.0238-1.1963 3.266-1.1963 2.1623 0 3.1286 1.1961 3.1286 3.7265v12.192h7.9589v-13.066c0-6.1648-2.9903-9.7531-8.0969-9.7531zm-27.879 0.27596v22.543h7.9589v-22.543zm51.755 6.1698c1.4262 0 2.6224 0.59813 3.4505 1.7483v7.085c-0.7821 0.87411-1.9323 1.3803-3.3585 1.3803-2.4383 0-3.9104-1.9324-3.9104-5.2448 0-3.1284 1.4262-4.9688 3.8185-4.9688z" opacity=".3"/><path d="m68.331 60.584c-2.7143 0-4.5544 1.8405-4.5544 4.6009 0 2.7143 1.84 4.5544 4.5544 4.5544 2.7143 0 4.5549-1.84 4.5549-4.5544 0-2.7603-1.8405-4.6009-4.5549-4.6009zm-60.129 0.78136v33.998h7.8209v-14.584c0.92011-0.96612 1.9324-1.3343 3.1286-1.3343 2.3003 0 3.266 1.1961 3.266 3.7265v12.192h7.9594v-13.526c0-5.8427-3.0828-9.2932-8.2354-9.2932-2.3463 0-4.4624 0.73596-6.1186 2.3462v-13.526zm27.787 2.0718-5.3e-4 31.927h7.9589v-9.3852h2.6226c8.6491 0 14.354-4.7384 14.354-11.915 0-6.6708-4.8768-10.627-13.02-10.627zm7.9584 6.992h3.3125c3.2204 0 5.3827 1.7481 5.3827 4.4164 0 2.5763-1.7939 4.1409-4.6463 4.1409h-4.0489zm70.711 1.9374c-6.2108 0-10.489 4.7384-10.489 11.961 0 6.9929 4.0025 11.501 9.4772 11.501 2.3003 0 4.3245-0.82798 5.8887-2.3002v1.7483c0 2.8063-2.0703 4.4164-5.6127 4.4164-1.8402 0-4.0485-0.46019-5.9347-1.2423l-1.5183 5.8887c2.5303 1.1501 5.061 1.7023 7.8214 1.7023l-1e-3 1e-3c7.775 0 12.974-4.3245 12.974-10.765v-22.451h-5.6587l-0.7824 2.0702c-1.4262-1.6562-3.4962-2.5301-6.1646-2.5301zm-22.45 0.1788c-2.8524 0-5.3828 1.1497-7.223 3.22l-1.2423-2.9441h-5.7507v22.543h7.9594v-14.722c0.96611-0.7821 2.0238-1.1963 3.266-1.1963 2.1623 0 3.1286 1.1961 3.1286 3.7265v12.192h7.9589v-13.066c0-6.1648-2.9903-9.7531-8.0969-9.7531zm-27.879 0.27596v22.543h7.9589v-22.543zm51.755 6.1698c1.4262 0 2.6224 0.59813 3.4505 1.7483v7.085c-0.7821 0.87411-1.9323 1.3803-3.3585 1.3803-2.4383 0-3.9104-1.9324-3.9104-5.2448 0-3.1284 1.4262-4.9688 3.8185-4.9688z" fill="url(#c)"/></svg>
