<svg version="1.1" viewBox="0 0 512 512" xmlns="http://www.w3.org/2000/svg" xmlns:xlink="http://www.w3.org/1999/xlink"><defs><linearGradient id="a" x1="817.7" x2="767.68" y1="190.1" y2="376.77" gradientTransform="translate(-544.85 -25.002)" gradientUnits="userSpaceOnUse"><stop stop-color="#e43030" offset="0"/><stop stop-color="#b22525" offset="1"/></linearGradient></defs><g><path d="m237.35 31c-8.4421 0-9.3571 1.2004-10.889 14.272-1.2391 10.57-7.354 49.455-9.3564 59.501l-1.0596 5.3239h-6.4825c-11.448 0-21.769 5.4865-21.769 11.573 0 4.9668 5.776 9.3902 13.829 10.59l4.389 0.6536-10.244 13.183 0.51892 15.718c0.28506 8.645 0.83265 17.428 1.2161 19.519l0.69718 3.8008-9.0058-0.62984c-13.428-0.94042-13.103-1.5669-12.908 24.835 0.0852 11.509 0.44904 23.536 0.80809 26.728l0.48921 4.3395-48.685 25.678 25.28 136.79 255.12 8.7801 33.049-43.983c-0.0329-4.1951-1.442-9.3474-5.6843-20.788-5.8815-15.862-17.274-46.704-32.644-88.377-4.9681-13.47-10.132-25.886-11.476-27.592-2.7215-3.4559-11.269-8.2552-14.702-8.2552-1.2252 0-2.5036-0.72206-2.8422-1.6043-0.33855-0.88222-0.61597-8.8293-0.61597-17.661 0-8.8317-0.35727-16.21-0.79423-16.395-0.7573-0.3222-14.332-16.228-19.329-22.648-2.287-2.9383-2.7203-3.063-12.672-3.6225l-10.303-0.57834-9.2276-6.1181c-5.0757-3.3647-10.494-6.4351-12.04-6.8232-2.6794-0.67249-2.7897-0.93539-2.3391-5.6249 0.31432-3.2713 2.5994-9.2866 6.8172-17.95 21.957-45.101 23.627-48.925 22.947-52.549-0.97224-5.1825-5.0041-8.5045-18.156-14.967-31.238-15.35-63.096-25.116-81.936-25.116zm66.334 133.64 4.0702 0.65161c2.238 0.35789 4.4309 0.87474 4.8743 1.1488 0.44339 0.27404 0.53961 2.7611 0.21193 5.5279-0.57147 4.8252-0.42615 5.2176 3.5988 9.5842 3.7196 4.0353 4.1969 5.1114 4.1969 9.4831 0 9.5659 4.4483 18.779 14.288 29.592 8.001 8.7929 8.5986 11.155 2.8243 11.155-3.7588 0-6.5864 1.4431-7.9977 4.08-1.1993 2.2409-0.25891 4.6595 3.6285 9.3346 1.2652 1.5216 3.4514 5.1998 4.8584 8.174 4.029 8.5166 13.835 38.275 13.835 41.985 0 1.8455-0.44223 3.3552-0.98238 3.3552-0.54014 0-2.7734-2.4247-4.9634-5.3892-5.6584-7.6595-16.736-17.49-24.46-21.707-15.97-8.7191-25.374-15.677-27.966-20.689-1.4778-2.8578-1.451-2.9005 10.159-16.328 15.459-17.88 15.461-18.995 0.095-28.362l-5.0208-3.06 3.2621-1.3726c1.7941-0.75434 3.5215-2.046 3.8384-2.8719 0.31694-0.82592-1.0594-5.1238-3.0581-9.5505-4.074-9.023-4.3502-10.898-1.9925-13.504 0.90257-0.99733 1.8787-3.933 2.1707-6.5241zm24.625 7.3124c1.8427 0 4.496 2.3802 4.496 4.0325 0 2.9534-1.7073 3.3607-3.4799 0.82988-1.5758-2.2498-2.1214-4.8624-1.0161-4.8624z" fill="url(#a)"/><path d="m237.35 31c-8.4421 0-9.3564 1.2016-10.889 14.273-1.2391 10.57-7.355 49.454-9.3574 59.5l-1.0586 5.3242h-6.4824c-11.448 0-21.77 5.4861-21.77 11.572 0 1.846 0.8007 3.6155 2.2168 5.1738 3.6302-3.8808 11.287-6.7461 19.553-6.7461h6.4824l1.0586-5.3242c2.0024-10.046 8.1184-48.93 9.3574-59.5 1.5324-13.072 2.4466-14.273 10.889-14.273 18.84 0 50.698 9.767 81.936 25.117 10.065 4.946 14.78 8.054 16.879 11.562 1.4414-3.7638 1.538-5.206 1.2774-6.5957-0.9723-5.1825-5.0042-8.5039-18.156-14.967-31.238-15.35-63.095-25.117-81.936-25.117zm-38.215 110.76-3.3672 4.334 0.31641 9.5938 4.8047-6.1856 5.1211-6.5918-4.3887-0.65235c-0.85806-0.12787-1.6842-0.30022-2.4863-0.49805zm109.69 5.0859c-0.64896 1.9455-1.0346 3.5291-1.1504 4.7344-0.4506 4.6895-0.34151 4.9525 2.3379 5.625 1.546 0.38804 6.9653 3.4576 12.041 6.8223l9.2266 6.1191 10.305 0.57813c9.9516 0.55957 10.385 0.68473 12.672 3.623 4.997 6.4202 18.571 22.326 19.328 22.648 0.437 0.18592 0.79493 7.5628 0.79493 16.395-1e-5 8.8317 0.27673 16.778 0.61523 17.66 0.3385 0.88223 1.6166 1.6055 2.8418 1.6055 3.4332 0 11.982 4.798 14.703 8.2539 1.3432 1.7056 6.5065 14.124 11.475 27.594 15.37 41.673 26.763 72.513 32.645 88.375 2.0276 5.4681 3.3929 9.4732 4.2852 12.65l1.3984-1.8613c-0.033-4.1951-1.4413-9.348-5.6836-20.789-5.8815-15.862-17.274-46.702-32.645-88.375-4.9682-13.47-10.131-25.888-11.475-27.594-2.7215-3.4559-11.27-8.2539-14.703-8.2539-1.2252 0-2.5032-0.72324-2.8418-1.6055-0.3385-0.88222-0.61524-8.8284-0.61523-17.66 0-8.8317-0.35793-16.209-0.79493-16.395-0.7573-0.3222-14.331-16.228-19.328-22.648-2.287-2.9383-2.7203-3.0635-12.672-3.623l-10.305-0.57813-9.2266-6.1191c-5.0757-3.3647-10.495-6.4342-12.041-6.8223-0.48487-0.1217-0.859-0.23585-1.1875-0.35938zm19.48 35.107c-1.1053 0-0.56029 2.6115 1.0156 4.8613 1.7726 2.5308 3.4805 2.1233 3.4805-0.83008 0-1.6523-2.6534-4.0312-4.4961-4.0312zm-145.31 2.2285c-6.7696 0.09-6.8707 3.6189-6.7285 22.402 0.24486-13.347 2.1762-12.835 12.924-12.082l9.0059 0.62891-0.69726-3.8008c-0.17052-0.92977-0.37238-3.3107-0.57032-6.2871l-7.7383-0.54102c-2.5178-0.17633-4.553-0.34215-6.1953-0.32031zm118.28 1.291c-0.0998 0.15303-0.19982 0.29294-0.29883 0.40234-2.3577 2.6053-2.0818 4.4809 1.9922 13.504 0.25599 0.56696 0.4659 1.1064 0.69922 1.6621 1.175-0.69938 2.1332-1.5217 2.3594-2.1113 0.3169-0.82592-1.0598-5.1241-3.0586-9.5508-0.68199-1.5105-1.2188-2.7594-1.6934-3.9062zm4.625 21.965c0.15914 0.7196 0.21708 1.2573 0.12696 1.4922-0.3169 0.82592-2.0439 2.1187-3.8379 2.873l-3.2637 1.3711 5.0215 3.0605c4.3544 2.6544 7.4713 4.6465 9.3555 6.5449 4.4026-6.8893 1.9317-9.5503-7.4024-15.342zm30.145 24.465c-2.9087 0.37807-5.112 1.7397-6.3008 3.9609-1.0335 1.9312-0.46428 4.0015 2.1973 7.5273 1.4991-1.0508 3.4695-1.6074 5.8008-1.6074 5.4678 0 5.1381-2.1898-1.6973-9.8809zm-159.27 8.9258-47.879 25.254 1.6836 9.1113 47-24.789-0.48828-4.3398c-0.1086-0.96554-0.21475-2.9126-0.3164-5.2363zm119.12 13.15c-3.4173 4.2867-3.1956 5.028-2.2031 6.9473 2.5918 5.0119 11.996 11.97 27.967 20.689 7.7241 4.217 18.803 14.048 24.461 21.707 2.1899 2.9645 4.4227 5.3887 4.9629 5.3887 0.5401 0 0.98242-1.51 0.98242-3.3555 0-0.93586-0.62917-3.5394-1.627-7.0312-0.94839-0.79153-2.6423-2.7331-4.3184-5.002-5.6584-7.6595-16.737-17.49-24.461-21.707-12.95-7.0698-21.58-12.981-25.764-17.637z" fill="#ffd4d4" opacity=".2"/><path d="m65.249 193.67v29.501h18.172c1.1516 0 2.1036 0.25378 3.1452 0.71301 0.14908 1.4409 0.55258 4.4414 0.55258 9.3762v103.85c0 2.3389-0.3222 3.9094-0.54268 4.9436-2.4474 0.59173-5.4964 1.2542-8.4453 1.8717-1.7608 0.3687-3.3534 0.70334-4.8901 1.0992-0.76838 0.19795-1.4607 0.36711-2.6342 0.81404-0.58677 0.22346-1.2598 0.43355-2.6421 1.3131-0.69114 0.43979-1.6054 1.0165-2.854 2.454-1.2487 1.4374-3.1373 4.264-3.1373 8.3799 0 0.36391-0.2127 2.0102 0.64171 4.8743 0.85442 2.8641 3.5158 6.443 6.2112 8.1462 5.3907 3.4064 8.8296 2.959 13.585 2.959 16.183 0 28.717-2.8349 38.057-9.903 3.1713-2.3998 5.7041-5.3175 7.7264-8.4928v86.41c0 3.7252-0.67965 6.758-1.0042 8.3542-0.0363 0.0287 0.57999 0.0792-1.2933 0.0792h-17.978v29.198h85.764v-29.198h-18.186c-1.9614 0-1.5577-0.0791-1.5706-0.12874-0.272-1.6473-0.51892-4.4632-0.51892-8.3047v-15.712c9.5735 12.029 19.37 23.987 30.343 33.894 16.266 14.686 37.236 25.223 60.395 19.018 5.0138-1.3435 7.9366-3.2639 11.242-5.617 1.6526-1.1766 3.1561-2.2097 5.106-4.6346 0.97497-1.2125 2.4237-2.678 3.1016-6.738 0.33959-2.0338-0.32873-4.9056-1.5548-7.5422v-20.979c1.146-0.3512 2.3033-0.66123 3.4066-1.1329v24.401h50.729v-23.268c5.757-1.7642 11.114-4.9277 15.07-9.4138l0.0119-0.0119 0.0101-0.0119c0.39707-0.45253 0.66769-0.99062 1.0418-1.4597 0.40528 0.50415 0.6979 1.0829 1.1349 1.5647l0.0337 0.0376 0.0356 0.0376c6.1554 6.6771 15.189 10.85 24.28 10.85 3.8656 0 7.7393-0.88124 11.379-2.3431v0.86355h50.147v-27.255h-8.4592v-12.006c0.62026 0.0662 1.1933 0.19212 1.8618 0.19212 4.4418 0 9.4659-2.2543 12.408-5.31 3.0273-3.1438 4.9198-8.0903 4.9198-12.282 0-4.9781-2.6435-10.278-5.9557-13.349-3.5614-3.321-8.762-5.1241-13.234-5.1753v-0.0198h-17.36l-2.2856 0.92494-13.252 5.3575c-5.4416-4.0429-12.236-6.336-18.952-6.336-9.4806 0-18.958 4.106-25.362 11.091l-2e-3 2e-3h-2e-3c-0.0872 0.0952-0.13985 0.21287-0.22579 0.30897-0.29913-0.38204-0.50739-0.82218-0.82393-1.1923-5.2728-6.1831-13.634-10.157-21.801-10.157-0.52078 0-1.0352 0.0951-1.5548 0.12874 2.0393-4.5907 2.217-10.013 1.9826-15.08-0.16022-5.2636-2.1098-11.147-6.1419-15.276-4.0247-4.1337-10.242-6.5142-15.732-6.5142-1.4061 0-2.84 0.1948-4.2662 0.47733v-20.729h-7.76v-18.477c0-5.3293-0.20677-9.6912-1.9925-14.561l-0.0101-0.0277-0.0101-0.0297c-1.7808-4.7858-4.6533-9.5146-9.4316-12.811-4.2458-2.9611-9.4889-4.3692-14.369-4.3692-1.4935 0-2.9339 0.14706-4.3415 0.38226v-0.38226h-17.532l-2.2916 0.93088-15.167 6.1537c-0.7092-0.7159-1.3997-1.4465-2.2242-2.0796-4.3253-3.3212-9.9384-5.005-15.148-5.005-1.4568 0-2.8628 0.33676-4.286 0.57834v-27.13h-17.715l-2.3054 0.94277-26.839 10.973 8.6691 21.648c-6.1803-4.4146-13.679-7.0113-21.325-7.0113-5.9132 0-11.777 1.5912-17 4.3712v-22.42c0-4.1452 0.23113-7.3339 0.52287-9.2058 0.0584-0.37487 0.10918-0.40205 0.1842-0.65756 0.44872-0.1169 1.1725-0.22578 2.8798-0.22578h18.17v-29.501zm67.436 62.668c-0.0125 7e-3 -0.0232 0.0165-0.0357 0.0237-0.0148 9e-3 -0.0308 0.0151-0.0455 0.0237zm89.5 5.1852 0.20797 0.14459c-0.0357-0.0252-0.077-0.0405-0.1129-0.0654-0.0343-0.0236-0.0605-0.0559-0.095-0.0792zm62.409 6.0052 0.1327 0.22976c-0.0148-0.0263-0.0425-0.0451-0.0574-0.0713-0.0312-0.0537-0.0435-0.10458-0.0752-0.15845zm32.825 59.018 0.0991 0.0634c-0.0167-0.0109-0.0407-0.0149-0.0574-0.0258-0.0154-0.0101-0.0262-0.0278-0.0416-0.0376zm-94.772 2.3846h19.531v9.1821c-3.1823-2.9001-7.9448-4.8584-12.145-4.8584-0.97874 0-1.9952 0.13962-3.0125 0.33076-0.11719-0.1409-0.19776-0.30616-0.3169-0.44563-1.2601-1.5034-2.6478-2.8686-4.0563-4.2088zm19.949 9.4732 0.30501 0.30303c-0.0499-0.0516-0.12134-0.0895-0.17231-0.14062-0.0483-0.0481-0.084-0.11532-0.1327-0.16241zm-65.538 8.1145c6.5005 0 9.8017 1.4965 12.816 4.5494l0.1129 0.1129c3.1291 3.09 4.5494 6.2587 4.5494 12.401 0 5.7928-1.4158 8.8507-5.819 12.587l-0.0258 0.0218-0.0237 0.0198c-2.8575 2.4493-7.751 4.4951-15.259 5.2922v-34.712c1.3268-0.11892 2.7824-0.27134 3.6483-0.27134zm-69.553 10.965-0.14855 0.20797c0.0293-0.0404 0.0403-0.0804 0.0694-0.12082 0.0226-0.0318 0.0569-0.0552 0.0792-0.0871zm280.82 8.4889 0.0991 0.0634c-0.0118-8e-3 -0.0278-0.0101-0.0396-0.0179-0.0209-0.0135-0.0385-0.0321-0.0594-0.0455zm33.058 52.856-0.0277 0.095c9e-3 -0.0328 4e-3 -0.0352 0.0139-0.0673 3e-3 -9e-3 0.0113-0.0188 0.0139-0.0277zm-7.152 9.8575-0.0534 0.0337c7e-3 -5e-3 0.0126-0.0113 0.0198-0.0158 0.0116-7e-3 0.0221-0.0104 0.0337-0.0179zm-96.515 15.316-0.24759 0.57438c0.0744-0.16234 0.0561-0.21139 0.12281-0.36444 0.0286-0.0685 0.0975-0.14191 0.12478-0.20994zm-189.52 6.1577-0.0416 0.0594-0.0397 0.0614c-5.4e-4 8e-4 -0.0154 1e-3 -0.0158 2e-3 0.0529-0.0773 0.0391-0.0372 0.097-0.12279z" color="#000000" color-rendering="auto" dominant-baseline="auto" image-rendering="auto" shape-rendering="auto" solid-color="#000000" style="font-feature-settings:normal;font-variant-alternates:normal;font-variant-caps:normal;font-variant-ligatures:normal;font-variant-numeric:normal;font-variant-position:normal;isolation:auto;mix-blend-mode:normal;shape-padding:0;text-decoration-color:#000000;text-decoration-line:none;text-decoration-style:solid;text-indent:0;text-orientation:mixed;text-transform:none;white-space:normal"/><path d="m77.924 200.35v10.148h5.498c3.5888 0 6.9901 0.89699 10.205 2.6914 2.3926 1.3458 3.9613 2.955 4.709 4.8242 0.97197 2.4674 1.459 7.5489 1.459 15.25v103.85c0 6.2805-0.89698 2.6539-2.6914 5.1211-1.7197 2.4675-3.4441 3.1215-5.6074 3.7012-6.2533 1.6756-16.848 3.3695-16.848 4.0527 0 1.7394-0.0587 11.305 7.7617 11.305 29.199 0 38.918-10.943 38.918-25.861v-102.17c0-9.1216 0.89697-14.879 2.6914-17.271 2.8412-3.6636 7.3646-5.4941 13.57-5.4941h5.4941v-10.148zm117.37 29.088-15.189 6.209 0.77734 9.9394c1.7368-0.59126 2.9935-0.88672 3.7695-0.88672 0.96079 0 1.7191 0.23835 2.2734 0.71875 0.59126 0.4804 1.0148 1.3884 1.2734 2.7188 0.29563 1.3304 0.44336 4.8955 0.44336 10.697v37.951c0 3.178-0.22256 5.2856-0.66602 6.3203-0.44343 1.0347-1.0324 1.7359-1.7715 2.1055-1.2934 0.70211-3.0681 1.0547-5.3223 1.0547v9.9941h25.166v-9.9941c-2.5868 0-4.4166-0.27774-5.4883-0.83203-1.0347-0.59128-1.7556-1.3122-2.1621-2.1621-0.36955-0.84994-0.55469-3.0127-0.55469-6.4863v-18.826c2.7346-2.9194 5.0805-4.8615 7.0391-5.8223 1.9586-0.96085 3.8455-1.4414 5.6562-1.4414 1.7738 0 3.2885 0.44316 4.5449 1.3301 1.2564 0.84993 2.1605 2.144 2.7148 3.8809 0.59126 1.7368 0.88672 5.3769 0.88672 10.92v9.959c0 2.8824-0.0551 4.6197-0.16602 5.2109-0.36952 1.4042-1.0156 2.4757-1.9394 3.2148-0.92384 0.70211-3.7435 3.0985-4.9336 1.0547h-1.1641v9.9941h24.943v-9.9941c-2.365 0-3.9901-0.25995-4.877-0.77735-0.88689-0.51732-1.5152-1.2186-1.8848-2.1055-0.51735-1.1825-0.77539-3.3827-0.77539-6.5977v-9.959c0-6.2821-0.35256-18.606-1.0547-20.971-0.99775-3.3998-2.5302-5.8954-4.5996-7.4844-2.0694-1.589-4.5453-2.3828-7.4277-2.3828-2.402 0-4.8031 0.64609-7.2051 1.9395-2.402 1.2565-5.6559 4.1401-9.7578 8.6484v-37.139zm-44.289 26.551c-4.2127 0-8.2034 1.1089-11.973 3.3262-3.7693 2.1803-6.8184 13.58-9.1465 18.199-2.2911 4.5823-3.4375 9.2013-3.4375 13.857 0 6.393 1.9047 12.158 5.7109 17.295 4.5084 6.0973 10.585 9.1465 18.234 9.1465 4.6931 0 8.9438-1.1819 12.75-3.5469 3.8432-2.3651 6.8549-5.8771 9.0352-10.533 2.1803-4.6562 3.2695-9.2555 3.2695-13.801 0-6.4669-1.9756-20.195-5.9297-25.184-4.6562-5.8387-10.827-8.7598-18.514-8.7598zm101.11 0-15.299 6.207 0.83008 9.998c1.4412-0.55431 2.6801-0.83203 3.7148-0.83203 0.96079 0 1.7191 0.24028 2.2734 0.7207 0.59127 0.48042 1.0167 1.3846 1.2754 2.7148 0.29563 1.3304 0.44336 5.0452 0.44336 11.143v10.846c0 3.6954-0.46288 6.2087-1.3867 7.5391-0.8869 1.2934-3.9564 4.2036-5.2109 1.9414h-1.1094v9.9941h25.109v-9.9941c-2.7715 0-4.6172-0.24224-5.541-0.72266-0.8869-0.51733-1.5901-1.3111-2.1074-2.3828-0.40648-0.81296-0.60937-2.9383-0.60937-6.375v-18.771c4.3606-4.8039 8.7392-7.207 13.137-7.207 2.8454 0 4.8605 1.0538 6.043 3.1602 1.2195 2.0694 1.8281 5.414 1.8281 10.033v12.785c0 2.9194-0.0748 4.6566-0.22265 5.2109-0.36953 1.4042-1.0333 2.4757-1.9941 3.2148-0.92384 0.70211-3.8312 3.1471-4.9336 1.0547h-1.0527v9.9941h3.8457l-1.5293 0.625 0.36914 4.9199c0.8245-0.28069 1.4226-0.41797 1.791-0.41797 0.4561 0 0.815 0.11181 1.0781 0.33985 0.28068 0.22805 0.48268 0.65753 0.60547 1.2891 0.14035 0.63152 0.20899 2.324 0.20899 5.0781v17.814c0 1.5086-0.10394 2.5088-0.31446 3-0.2105 0.49119-0.49095 0.82653-0.84179 1.002-0.61399 0.33331-1.4572 0.49805-2.5274 0.49805v4.9473h11.947v-4.9473c-1.228 0-2.0967-0.13141-2.6055-0.39454-0.49119-0.28068-0.83242-0.62191-1.0254-1.0254-0.17542-0.40347-0.26367-1.4311-0.26367-3.0801v-8.7344c1.2981-1.3859 2.412-2.3076 3.3418-2.7637 0.92975-0.45611 1.824-0.68359 2.6836-0.68359 0.84204 0 1.5618 0.20983 2.1582 0.63086 0.59644 0.40348 1.0259 1.0173 1.2891 1.8418 0.28066 0.82449 0.41992 2.5542 0.41992 5.1856v4.5234c0 1.3683-0.0255 2.1939-0.0781 2.4746-0.17542 0.66661-0.48331 1.1765-0.92187 1.5273-0.43857 0.33331-1.2171 0.49805-2.3398 0.49805h-0.55273v4.9473h11.842v-4.9473c-1.1227 0-1.8973-0.12356-2.3184-0.36914-0.42101-0.2456-0.71716-0.57898-0.89258-1-0.24559-0.56136-0.36914-1.6047-0.36914-3.1309v-4.5234c0-2.9822-0.16669-9.0355-0.5-10.158-0.47364-1.6139-1.2012-2.7984-2.1836-3.5527-0.98238-0.75433-2.159-1.1309-3.5273-1.1309-1.1403 0-2.2797 0.30594-3.4199 0.91992-1.1403 0.59644-2.6836 1.9653-4.6309 4.1055v-15.309h14.371v-9.9941c-2.4389 0-4.1191-0.25995-5.043-0.77735-0.8869-0.51732-1.533-1.2364-1.9394-2.1602-0.51736-1.1456-0.77734-3.328-0.77734-6.543v-13.674c0-4.5823-0.40577-15.98-1.2188-18.197-1.1825-3.178-2.7701-5.4531-4.7656-6.8203-1.9955-1.4043-4.3808-2.1055-7.1523-2.1055-5.3952 0-11.068 3.5848-17.018 10.754v-10.754zm-102.82 11.604c4.0649 0 7.4095 1.7747 10.033 5.3223 3.8801 5.1735 5.8203 12.268 5.8203 21.285 0 7.206-1.1641 4.2859-3.4922 7.2422-2.3281 2.9563-5.2846 4.4356-8.8691 4.4356-4.804 0-8.6824-2.6788-11.639-8.0371-2.9194-5.3583-4.3808-3.7343-4.3808-11.125 0-4.5823 0.60864-8.3326 1.8281-11.252 1.2195-2.9193 2.809-4.9501 4.7676-6.0957 1.9955-1.1825 3.9731-1.7754 5.9316-1.7754zm-22.605 50.354v9.8203s3.6504 1.1046 5.3027 2.0273c2.1906 1.2233 4.6739 2.4298 5.9766 4.5742 2.9054 4.7824 2.9121 7.6602 2.9121 16.533v91.086c0 8.0411-0.72787 7.1382-2.1836 9.2871-2.5648 3.8819-6.8295 5.8223-12.791 5.8223h-5.3008v9.8457h60.412v-9.8457h-5.5098c-5.2683 0-9.2213-1.5261-11.855-4.5762-1.941-2.1489-2.9102-1.6602-2.9102-10.533v-40.967c1.1091 0.0693 2.1828 0.13768 3.2227 0.20704h2.9102c2.2182 0-0.98844-0.0685 2.5469-0.20704 28.583 35.016 55.153 75.648 91.451 65.922 3.9657-1.0626 11.843-14.328 9.9492-15.422-1.894-1.0935-4.6174 3.8708-9.9492 3.5762-7.7276-0.42705-13.934-2.7722-18.717-5.8223-17.793-11.702-35.068-37.097-52.355-50.957 11.854-2.6342 20.588-7.1401 26.203-13.518 1.7898-2.0081 3.2952-4.1323 4.5215-6.3672 0.47203-0.0877 0.91843-0.14257 1.3203-0.14257 0.91636 0 1.6393 0.22932 2.168 0.6875 0.52868 0.42293 0.9154 1.1983 1.1621 2.3262 0.31721 1.5508 0.47656 4.9516 0.47656 10.203v18.664c0 2.9958-0.2468-0.97924-0.74023 0.0781-0.45818 1.0573-1.0917 1.8153-1.9024 2.2734s-2.3984 0.6875-4.7598 0.6875v7.9043h23.525v-7.9043c-2.2909 0-3.8747-0.24681-4.7559-0.74024-0.84587-0.49342-1.4988-1.2338-1.957-2.2207-0.42294-1.0221-0.63477 2.9529-0.63477-0.0781v-44.91h-2.3242l-10.102 4.0977c1.682-4.0366 2.5293-2.4096 2.5293-7.123 0-8.1105-2.4953-15.078-7.4863-20.9-4.9217-5.8922-10.954-9.9136-18.094-12.062-7.0706-2.2182-18.091-11.326-33.064-11.326zm135.52 1.3867c-0.71925 1.7718-1.2801 2.9896-1.6836 3.6562-0.78942 1.263-1.6954 2.3613-2.7129 3.291-0.99993 0.91221-1.9824 1.5613-2.9473 1.9473v4.8691h3.8164v16.209c0 1.7367 0.18435 3.0252 0.55274 3.8672 0.3684 0.8245 0.93906 1.4658 1.7109 1.9219 0.77187 0.43856 1.5602 0.65821 2.3672 0.65821 1.1929 0 2.3519-0.42948 3.4746-1.2891 1.1227-0.87712 1.9915-6.1773 2.6055-7.8965h-1.0274c-0.29821 0.70169-0.71985 1.2371-1.2637 1.6055-0.54381 0.35085-1.1047 0.52734-1.6836 0.52734-0.70169 0-1.2802-0.27258-1.7363-0.8164-0.43856-0.54382-0.6582-1.5969-0.6582-3.1582v-11.629h5.6309v-5.8418h-5.6309v-7.9219zm47.154 8.575c-3.1927 0-5.852 1.157-7.9746 3.4726-2.1051 2.2981-3.1582 8.1169-3.1582 12.239 0 3.8067 1.0256 6.8425 3.0781 9.1055 2.07 2.2454 4.5528 3.3672 7.4473 3.3672 2.6665 0 4.8864-0.98252 6.6582-2.9473 1.7718-1.9823 2.8406-4.1748 3.209-6.5781l-0.8125-4.5254c-0.7894 2.1051-1.7719 3.5955-2.9473 4.4726-1.1578 0.85958-2.5285 1.291-4.1074 1.291-2.3682 0-4.4294-1.0178-6.1836-3.0527-1.7543-2.0349-2.621-0.84322-2.6035-4.4219h16.654c0-2.9822-0.86682-7.9676-2.6035-9.7394-1.7367-1.7893-3.9548-2.6836-6.6562-2.6836zm-1.4746 4.4777c0.9473 0 1.8494 0.28045 2.709 0.8418 0.8771 0.56136 1.536 1.3321 1.9746 2.3144 0.2806 0.63153 0.46503-0.88863 0.55273 0.65511h-11.156c0.193-2.0174 0.85785-0.9777 1.998-2.1004 1.1578-1.1403 2.4659-1.7109 3.9219-1.7109zm-130.82 1.4629c9.0809 0 16.36 2.7728 21.836 8.3184 5.5456 5.4763 8.3184 12.616 8.3184 21.42 0 9.0116-3.4322 16.429-10.295 22.252-6.7934 5.8229-16.913 6.7344-30.361 6.7344h-2.3926c-0.97048-0.0694-2.1126-0.10547-3.4297-0.10547v-56.643c6.8627-1.3171 12.304-1.9766 16.324-1.9766zm52.975 4.0879c-1.5155 0-2.802 0.5286-3.8594 1.5859-1.0221 1.0221-1.5332 10.274-1.5332 11.754 0 1.4803 0.5286 2.7493 1.5859 3.8066 1.0574 1.0573 2.3264 1.5859 3.8066 1.5859s2.7318-0.5286 3.7539-1.5859c1.0573-1.0573 1.5859-2.3264 1.5859-3.8066 0-1.4803-0.5286-10.732-1.5859-11.754-1.0221-1.0573-2.2736-1.5859-3.7539-1.5859zm185.93 25.322-14.645 5.9219 0.52929 9.9023c1.3746-0.52867 2.6066-0.79296 3.6992-0.79296 0.91636 0 1.6743 0.24875 2.2734 0.74218 0.6344 0.49341 1.0581 1.2863 1.2695 2.3789 0.24672 1.0573 0.37109 4.4038 0.37109 10.043v18.768c-1e-5 2.8196-0.0893-1.4702-0.26562-0.8711-0.35245 1.2336-0.9685 2.1333-1.8496 2.6973-1.1983 0.77538-3.0309 1.1621-5.498 1.1621v7.9043h24.795v-7.9043c-2.1852 0-3.8604-0.31874-5.0234-0.95313-1.1631-0.63441-1.9735-1.4273-2.4316-2.3789-0.66965-1.3745-1.0039 2.6005-1.0039-0.0781v-23.209c1.6917-3.313 3.33-5.6917 4.916-7.1367 0.74014-0.70489 1.4261-1.0586 2.0606-1.0586 0.74014 0 1.8692 0.618 3.3848 1.8516 1.5508 1.1983 2.9422 1.7969 4.1758 1.7969 1.2688 0 2.361-0.47613 3.2773-1.4277s1.375-2.1137 1.375-3.4883c0-1.5508-0.63548-10.909-1.9043-12.072-1.2688-1.1983-2.8721-1.7969-4.8106-1.7969-4.2646 0-8.4215 3.6322-12.475 10.893v-10.893zm-156.8 0.21289-14.908 6.0273 0.63476 9.6914c1.3041-0.49343 2.3768-0.74024 3.2227-0.74024 1.0573 0 1.8872 0.20987 2.4863 0.63281 0.6344 0.42293 1.093 1.0584 1.375 1.9043 0.28196 0.84588 0.42187 2.8378 0.42187 5.9746v45.781c0 3.5245-0.19238-0.28924-0.58008 0.55664-0.35245 0.88111-0.86355 1.5147-1.5332 1.9023-1.3746 0.77538-3.0303 1.1446-4.9688 1.1094h-1.3242v7.957h25.377v-7.957c-2.6434 0-4.4759-0.26234-5.498-0.79102-0.98685-0.52866-1.6923-1.2516-2.1152-2.168-0.3877-0.88113-0.58203 3.022-0.58203-0.29102v-14.75c1.7622 1.586 3.35 2.6432 4.7598 3.1719 1.9032 0.74013 4.1575 1.1094 6.7656 1.1094 5.9916 0 10.963-2.2388 14.91-6.7148 4.7933-5.4629 7.1894-12.37 7.1894-20.723 0-7.4719-1.99-19.533-5.9726-24.186-3.2425-3.8064-7.2984-5.7109-12.162-5.7109-2.7843 0-5.4428 0.8648-7.9805 2.5918-2.5024 1.6917-5.0074 4.669-7.5098 8.9336v-13.312zm54.137 0-14.908 6.0273 0.63282 9.6914c1.3041-0.49343 2.3787-0.74024 3.2246-0.74024 1.0573 0 1.8872 0.20987 2.4863 0.63281 0.6344 0.42293 1.0911 1.0584 1.373 1.9043 0.28195 0.84588 0.42188 2.8378 0.42188 5.9746v45.781c0 3.5245-0.19239-0.28924-0.58008 0.55664-0.35244 0.88111-0.86355 1.5147-1.5332 1.9023-1.3745 0.77538-3.0303 1.1446-4.9687 1.1094h-1.3223v7.957h25.377v-7.957c-2.6434 0-4.4759-0.26234-5.498-0.79102-0.98685-0.52866-1.6923-1.2516-2.1152-2.168-0.38769-0.88113-0.58203 3.022-0.58203-0.29102v-14.75c1.7622 1.586 3.35 2.6432 4.7598 3.1719 1.9032 0.74013 4.1575 1.1094 6.7656 1.1094 5.9916 0 10.963-2.2388 14.91-6.7148 4.7933-5.4629 7.1894-18.37 7.1894-26.723 0-7.4719-1.992-13.533-5.9746-18.186-3.2425-3.8064-7.2964-5.7109-12.16-5.7109-2.7843 0-5.4448 0.8648-7.9824 2.5918-2.5024 1.6917-5.0054 4.669-7.5078 8.9336v-13.312zm65.713 1.7344c-6.4146 0-11.753 2.3282-16.018 6.9805-4.2294 4.6171-6.3438 17.065-6.3438 25.348 0 7.6481 2.06 13.746 6.1836 18.293 4.1589 4.5113 9.1475 6.7656 14.963 6.7656 5.3572 0 9.8153-1.9725 13.375-5.9199 3.5597-3.9827 5.7091-8.3883 6.4492-13.217v-8l-1.6387-1.0566c-1.586 4.2294-3.5605 7.2241-5.9219 8.9863-2.3261 1.727-5.076 2.5898-8.248 2.5898-4.758 0-8.8974 5.9556-12.422 1.8672-3.5245-4.0884-5.2697-9.728-5.2344-16.918h33.465c0-5.9916-1.7451-16.766-5.2344-20.326-3.4892-3.595-7.9473-5.3926-13.375-5.3926zm-2.9609 9.7539c1.9032 0 3.7183 0.56553 5.4453 1.6934 1.7622 1.1278 3.0838 2.6767 3.9648 4.6504 0.56393 1.2688 0.9351-2.5469 1.1113 0.55469h-22.416c0.38769-4.0531-0.57821 1.1329 4.0176-3.4629 2.3262-2.2909 4.9516-3.4355 7.877-3.4355zm-103.56 3.9648c3.1015 0 5.7795 1.374 8.0352 4.123 3.2425 3.9827 4.8633 9.6748 4.8633 17.076 0 6.5203-1.4284 5.5789-4.2832 9.1738-2.1852 2.7491-5.04 4.123-8.5644 4.123-2.9253 0-5.3564-0.7754-7.2949-2.3262-1.9032-1.5508-3.1003-3.3464-3.5938-5.3906-0.3172-1.2336-0.47852 2.1934-0.47852-1.7188v-18.082c2.9253-3.172 5.0242-5.0746 6.293-5.709 1.6565-0.84587 3.3317-1.2695 5.0234-1.2695zm54.135 0c3.1015 0 5.7795 1.374 8.0352 4.123 3.2425 3.9827 4.8652 9.6748 4.8652 17.076 0 6.5203-1.4303 5.5789-4.2852 9.1738-2.1852 2.7491-5.038 4.123-8.5625 4.123-2.9253 0-5.3565-0.7754-7.2949-2.3262-1.9032-1.5508-3.1023-3.3464-3.5957-5.3906-0.3172-1.2336-0.47656-3.8066-0.47656-7.7188v-12.082c2.9253-3.172 5.0242-5.0746 6.293-5.709 1.6565-0.84587 3.3297-1.2695 5.0215-1.2695z" fill="#fc4"/><path d="m77.924 200.35v10.148h5.498c3.5888 0 6.9901 0.897 10.205 2.6914 2.3926 1.3458 3.9613 2.955 4.709 4.8242 0.97196 2.4673 1.459 7.5489 1.459 15.25v103.85c0 6.2805-0.89698 2.6539-2.6914 5.1211-1.7197 2.4675-3.4441 3.1215-5.6074 3.7012-6.2533 1.6756-16.848 3.3695-16.848 4.0527 0 1.7394-0.0587 11.305 7.7617 11.305 29.199 0 38.918-10.943 38.918-25.861v-102.17c0-9.1216 0.89697-14.879 2.6914-17.271 2.8412-3.6636 7.3646-5.4941 13.57-5.4941h5.4941v-10.148zm117.37 29.088-15.189 6.209 0.77734 9.9394c1.7368-0.59127 2.9935-0.88672 3.7695-0.88672 0.96079 0 1.7191 0.23834 2.2734 0.71875 0.59126 0.48039 1.0148 1.3884 1.2734 2.7188 0.29563 1.3304 0.44336 4.8956 0.44336 10.697v37.951c0 3.178-0.22257 5.2856-0.66602 6.3203-0.44343 1.0347-1.0324 1.7359-1.7715 2.1055-1.2934 0.70211-3.0681 1.0547-5.3223 1.0547v9.9941h25.166v-9.9941c-2.5868 0-4.4166-0.27774-5.4883-0.83203-1.0347-0.59127-1.7556-1.3122-2.1621-2.1621-0.36954-0.84993-0.55469-3.0127-0.55469-6.4863v-18.826c2.7346-2.9194 5.0805-4.8615 7.0391-5.8223 1.9586-0.96084 3.8455-1.4414 5.6562-1.4414 1.7738 0 3.2885 0.44317 4.5449 1.3301 1.2564 0.84994 2.1605 2.144 2.7148 3.8809 0.59126 1.7368 0.88672 5.3769 0.88672 10.92v9.959c0 2.8824-0.0551 4.6197-0.16602 5.2109-0.36953 1.4042-1.0156 2.4758-1.9394 3.2148-0.92384 0.70211-2.5686 1.0547-4.9336 1.0547h-1.1641v9.9941h24.943v-9.9941c-2.365 0-3.9901-0.25995-4.877-0.77735-0.88689-0.51732-1.5152-1.2186-1.8848-2.1055-0.51735-1.1825-0.77539-3.3826-0.77539-6.5977v-9.959c0-6.2821-0.35255-18.606-1.0547-20.971-0.99774-3.3998-2.5302-5.8954-4.5996-7.4844-2.0694-1.589-4.5453-2.3828-7.4277-2.3828-2.402 0-4.8031 0.64608-7.2051 1.9395-2.402 1.2565-5.6559 4.1401-9.7578 8.6484v-37.139zm-44.289 26.551c-4.2127 0-8.2034 1.1089-11.973 3.3262-3.7693 2.1803-6.8184 13.58-9.1465 18.199-2.2911 4.5823-3.4375 9.2013-3.4375 13.857 0 6.393 1.9047 12.158 5.7109 17.295 4.5084 6.0973 10.585 9.1465 18.234 9.1465 4.6931 0 8.9438-1.1819 12.75-3.5469 3.8432-2.3651 6.8549-5.8771 9.0352-10.533 2.1803-4.6562 3.2695-9.2555 3.2695-13.801 0-6.4669-1.9756-20.195-5.9297-25.184-4.6562-5.8387-10.827-8.7598-18.514-8.7598zm101.11 0-15.299 6.207 0.83008 9.998c1.4412-0.5543 2.6801-0.83203 3.7148-0.83203 0.96079 0 1.7191 0.24029 2.2734 0.7207 0.59126 0.48043 1.0167 1.3846 1.2754 2.7148 0.29563 1.3304 0.44336 5.0452 0.44336 11.143v10.846c0 3.6954-0.46288 6.2087-1.3867 7.5391-0.8869 1.2934-3.9564 4.2036-5.2109 1.9414h-1.1094v9.9941h25.109v-9.9941c-2.7715 0-4.6172-0.24224-5.541-0.72266-0.8869-0.51733-1.5901-1.3111-2.1074-2.3828-0.40648-0.81296-0.60937-2.9383-0.60937-6.375v-18.771c4.3605-4.804 8.7392-7.207 13.137-7.207 2.8454 0 4.8605 1.0538 6.043 3.1602 1.2195 2.0694 1.8281 5.414 1.8281 10.033v12.785c0 2.9194-0.0748 4.6566-0.22265 5.2109-0.36954 1.4042-1.0333 2.4758-1.9941 3.2148-0.92384 0.70211-2.5686 1.0547-4.9336 1.0547h-1.0527v9.9941h3.8457l-1.5293 0.625 0.36914 4.9199c0.8245-0.28068 1.4226-0.41797 1.791-0.41797 0.4561 0 0.81499 0.11181 1.0781 0.33985 0.28068 0.22806 0.48268 0.65753 0.60547 1.2891 0.14035 0.63152 0.20899 2.324 0.20899 5.0781v17.814c0 1.5087-0.10395 2.5088-0.31446 3-0.2105 0.49119-0.49094 0.82652-0.84179 1.002-0.61399 0.3333-1.4572 0.49805-2.5274 0.49805v4.9473h11.947v-4.9473c-1.228 0-2.0967-0.1314-2.6055-0.39454-0.49118-0.28068-0.83242-0.62191-1.0254-1.0254-0.17542-0.40348-0.26367-1.4311-0.26367-3.0801v-8.7344c1.2982-1.3858 2.412-2.3076 3.3418-2.7637 0.92975-0.45611 1.824-0.68359 2.6836-0.68359 0.84203 0 1.5618 0.20982 2.1582 0.63086 0.59645 0.40347 1.0259 1.0173 1.2891 1.8418 0.28067 0.82449 0.41992 2.5542 0.41992 5.1856v4.5234c0 1.3683-0.0255 2.1939-0.0781 2.4746-0.17542 0.66662-0.4833 1.1765-0.92187 1.5273-0.43856 0.3333-2.0408-0.58412-2.3398 0.49805h-0.55273v4.9473h11.842v-4.9473c-1.1227 0-1.8973-0.12355-2.3184-0.36914-0.42101-0.2456-0.71715-0.57898-0.89258-1-0.24558-0.56136-0.36914-1.6047-0.36914-3.1309v-4.5234c0-2.9822-0.16669-9.0355-0.5-10.158-0.47364-1.6139-1.2012-2.7984-2.1836-3.5527s-2.159-1.1309-3.5273-1.1309c-1.1403 0-2.2797 0.30593-3.4199 0.91992-1.1403 0.59643-2.6836 1.9653-4.6309 4.1055v-15.309h14.371v-9.9941c-2.4389 0-4.1191-0.25995-5.043-0.77735-0.8869-0.51732-1.533-1.2363-1.9394-2.1602-0.51736-1.1456-0.77734-3.328-0.77734-6.543v-13.674c0-4.5823-0.40577-15.98-1.2188-18.197-1.1825-3.178-2.7701-5.4531-4.7656-6.8203-1.9955-1.4043-4.3808-2.1055-7.1523-2.1055-5.3952 0-11.068 3.5848-17.018 10.754v-10.754zm-102.82 11.604c4.0649 0 7.4095 1.7747 10.033 5.3223 3.8802 5.1735 5.8203 12.268 5.8203 21.285 0 7.206-1.1641 4.2859-3.4922 7.2422-2.3281 2.9563-5.2846 4.4356-8.8691 4.4356-4.804 0-8.6824-2.6788-11.639-8.0371-2.9194-5.3583-4.3808-3.7343-4.3808-11.125 0-4.5823 0.60864-8.3326 1.8281-11.252 1.2195-2.9193 2.809-4.9501 4.7676-6.0957 1.9955-1.1825 3.9731-1.7754 5.9316-1.7754zm-22.605 50.354v9.8203s3.6504 1.1046 5.3027 2.0273c2.1907 1.2233 4.6739 2.4298 5.9766 4.5742 2.9054 4.7824 2.9121 7.6602 2.9121 16.533v91.086c0 8.0411-0.72787 7.1382-2.1836 9.2871-2.5648 3.8819-6.8295 5.8223-12.791 5.8223h-5.3008v9.8457h60.412v-9.8457h-5.5098c-5.2683 0-9.2213-1.5261-11.855-4.5762-1.941-2.1489-2.9102-1.6602-2.9102-10.533v-40.967c1.1091 0.0693 2.1829 0.13767 3.2227 0.20704h2.9102c2.2182 0-0.98844-0.0685 2.5469-0.20704 28.583 35.016 55.153 75.648 91.451 65.922 3.9657-1.0626 11.843-14.328 9.9492-15.422-1.894-1.0935-4.6174 3.8708-9.9492 3.5762-7.7276-0.42705-13.934-2.7722-18.717-5.8223 18.039 7.8526 16.35 3.7119 6.6719-5.0059h20.545v-7.957c-2.6434 0-4.4759-0.26234-5.498-0.79102-0.98685-0.52866-1.6923-1.2516-2.1152-2.168-0.3877-0.88113-0.58203 3.022-0.58203-0.29102v-14.75c1.7622 1.586 3.35 2.6432 4.7598 3.1719 1.9032 0.74013 4.1575 1.1094 6.7656 1.1094 5.9916 0 10.963-2.2388 14.91-6.7148 4.7933-5.4629 7.1894-12.37 7.1894-20.723 0-7.4719-1.99-19.533-5.9726-24.186-3.2425-3.8064-7.2984-5.7109-12.162-5.7109-2.7844 0-5.4428 0.8648-7.9805 2.5918-2.5024 1.6917-5.0074 4.669-7.5098 8.9336v-13.312h-2.0078l-14.908 6.0273 0.63476 9.6914c1.304-0.49343 2.3768-0.74024 3.2227-0.74024 1.0573 0 1.8872 0.20988 2.4863 0.63281 0.6344 0.42293 1.093 1.0584 1.375 1.9043 0.28196 0.84588 0.42187 2.8378 0.42187 5.9746v45.781c0 3.5245-0.19238-0.28924-0.58008 0.55664-0.35245 0.88111-0.86355 1.5146-1.5332 1.9023-1.3746 0.77536-3.0303 1.1446-4.9688 1.1094h-1.3242v3.7852c-6.731-5.6585-15.428-12.409-24.092-18.982h21.871v-7.9043c-2.2909 0-3.8747-0.24681-4.7559-0.74024-0.84588-0.49342-1.4988-1.2338-1.957-2.2207-0.42294-1.0221-0.63477 2.9529-0.63477-0.0781v-44.91h-2.3242l-10.102 4.0977c1.682-4.0366 2.5293-2.4096 2.5293-7.123 0-8.1105-2.4953-15.078-7.4863-20.9-4.9217-5.8922-10.954-9.9136-18.094-12.062-7.0706-2.2182-18.091-11.326-33.064-11.326zm135.52 1.3867c-0.71925 1.7718-1.2801 2.9896-1.6836 3.6562-0.78942 1.263-1.6954 2.3613-2.7129 3.291-0.99992 0.91221-1.9824 1.5613-2.9473 1.9473v4.8691h3.8164v16.209c0 1.7367 0.18434 3.0252 0.55274 3.8672 0.3684 0.8245 0.93906 1.4658 1.7109 1.9219 0.77187 0.43856 1.5602 0.65821 2.3672 0.65821 1.1929 0 2.3519-0.42948 3.4746-1.2891 1.1227-0.87712 1.9915-6.1773 2.6055-7.8965h-1.0274c-0.29822 0.70169-0.71986 1.2371-1.2637 1.6055-0.54382 0.35085-1.1047 0.52734-1.6836 0.52734-0.7017 0-1.2802-0.27258-1.7363-0.8164-0.43857-0.54382-0.6582-1.5969-0.6582-3.1582v-11.629h5.6309v-5.8418h-5.6309v-7.9219zm47.154 8.575c-3.1927 0-5.852 1.157-7.9746 3.4726-2.1051 2.2981-3.1582 8.1169-3.1582 12.239 0 3.8067 1.0256 6.8425 3.0781 9.1055 2.07 2.2454 4.5528 3.3672 7.4473 3.3672 2.6665 0 4.8864-0.98252 6.6582-2.9473 1.7718-1.9823 2.8406-4.1748 3.209-6.5781l5.8e-4 -3.9992-0.81308-0.52617c-0.7894 2.1051-1.7719 3.5955-2.9473 4.4726-1.1578 0.85958-2.5285 1.291-4.1074 1.291-2.3682 0-4.4294-1.0178-6.1836-3.0527-1.7543-2.0349-2.621-0.84322-2.6035-4.4219h16.654c0-2.9822-0.86682-7.9676-2.6035-9.7394-1.7367-1.7893-3.9548-2.6836-6.6562-2.6836zm-1.4746 4.4777c0.9473 0 1.8494 0.28045 2.709 0.8418 0.8771 0.56136 1.536 1.3321 1.9746 2.3144 0.2806 0.63153 0.46503-0.88863 0.55273 0.65511h-11.156c0.193-2.0174 0.85785-0.9777 1.998-2.1004 1.1578-1.1403 2.4659-1.7109 3.9219-1.7109zm-130.82 1.4629c9.0809 0 16.36 2.7728 21.836 8.3184 5.5456 5.4763 8.3184 12.616 8.3184 21.42 0 9.0116-3.4322 16.429-10.295 22.252-6.7934 5.8229-16.913 6.7344-30.361 6.7344h-2.3926c-0.97049-0.0694-2.1126-0.10547-3.4297-0.10547v-56.643c6.8627-1.3171 12.304-1.9766 16.324-1.9766zm52.975 4.0879c-1.5155 0-2.802 0.5286-3.8594 1.5859-1.0221 1.0221-1.5332 10.274-1.5332 11.754s0.5286 2.7493 1.5859 3.8066c1.0574 1.0573 2.3264 1.5859 3.8066 1.5859 1.4803 0 2.7318-0.5286 3.7539-1.5859 1.0573-1.0573 1.5859-2.3264 1.5859-3.8066 0-0.66581-0.10631-2.9038-0.32032-5.2578-0.26179-2.8797-0.68386-5.9337-1.2656-6.4961-1.0221-1.0573-2.2736-1.5859-3.7539-1.5859zm185.93 25.322-14.645 5.9219 0.52929 9.9023c1.3746-0.52867 2.6066-0.79296 3.6992-0.79296 0.91636 0 1.6743 0.24875 2.2734 0.74218 0.63441 0.49341 1.0581 1.2863 1.2695 2.3789 0.24671 1.0573 0.37109 4.4038 0.37109 10.043v18.768c-1e-5 2.8196-0.0893-1.4702-0.26562-0.8711-0.35245 1.2336-0.96851 2.1334-1.8496 2.6973-1.1983 0.77538-3.0309 1.1621-5.498 1.1621v7.9043h24.795v-7.9043c-2.1852 0-3.8604-0.31873-5.0234-0.95313-1.1631-0.63441-1.9735-1.4273-2.4316-2.3789-0.66965-1.3745-1.0039 2.6005-1.0039-0.0781v-23.209c1.6918-3.313 3.33-5.6917 4.916-7.1367 0.74014-0.70489 1.4261-1.0586 2.0606-1.0586 0.74014 0 1.8692 0.61801 3.3848 1.8516 1.5508 1.1983 2.9422 1.7969 4.1758 1.7969 1.2688 0 2.361-0.47612 3.2773-1.4277 0.9164-0.9516 1.375-2.1137 1.375-3.4883 0-1.5508-0.6355-10.909-1.9043-12.072-1.2688-1.1983-2.8721-1.7969-4.8106-1.7969-4.2646 0-8.4215 3.6322-12.475 10.893v-10.893zm-102.67 0.21289-14.908 6.0273 0.63282 9.6914c1.304-0.49343 2.3787-0.74024 3.2246-0.74024 1.0573 0 1.8872 0.20988 2.4863 0.63281 0.6344 0.42293 1.0911 1.0584 1.373 1.9043 0.28195 0.84588 0.42188 2.8378 0.42188 5.9746v45.781c0 3.5245-0.19239-0.28924-0.58008 0.55664-0.35244 0.88111-0.86354 1.5146-1.5332 1.9023-1.3745 0.77536-3.0303 1.1446-4.9687 1.1094h-1.3223v7.957h25.377v-7.957c-2.6433 0-4.4759-0.26234-5.498-0.79102-0.98686-0.52866-1.6923-1.2516-2.1152-2.168-0.38769-0.88113-0.58203 3.022-0.58203-0.29102v-14.75c1.7622 1.586 3.35 2.6432 4.7598 3.1719 1.9032 0.74013 4.1575 1.1094 6.7656 1.1094 5.9916 0 10.963-2.2388 14.91-6.7148 4.7933-5.4629 7.1894-18.37 7.1894-26.723 0-7.4719-1.992-13.533-5.9746-18.186-3.2425-3.8064-7.2964-5.7109-12.16-5.7109-2.7843 0-5.4448 0.8648-7.9824 2.5918-2.5024 1.6917-5.0054 4.669-7.5078 8.9336v-13.312zm65.713 1.7344c-6.4145 0-11.753 2.3282-16.018 6.9805-4.2294 4.6171-6.3438 17.065-6.3438 25.348 0 7.6481 2.06 13.746 6.1836 18.293 4.1589 4.5113 9.1475 6.7656 14.963 6.7656 5.3572 0 9.8153-1.9725 13.375-5.9199 3.5597-3.9827 5.7091-8.3883 6.4492-13.217v-8l-1.6387-1.0566c-1.586 4.2294-3.5605 7.2241-5.9219 8.9863-2.3261 1.727-5.076 2.5898-8.248 2.5898-4.758 0-8.8974 5.9556-12.422 1.8672-3.5245-4.0884-5.2697-9.728-5.2344-16.918h33.465c0-5.9916-1.7451-16.766-5.2344-20.326-3.4892-3.595-7.9473-5.3926-13.375-5.3926zm-2.9609 9.7539c1.9032 0 3.7183 0.56554 5.4453 1.6934 1.7622 1.1278 3.0838 2.6767 3.9648 4.6504 0.56393 1.2688 0.9351-2.5468 1.1113 0.55469h-22.416c0.38769-4.0531 1.103 1.5854 4.0176-3.4629 2.3262-2.2909 4.9516-3.4355 7.877-3.4355zm-154.21 3.3301c0.91636 0 1.6393 0.22932 2.168 0.6875 0.52868 0.42294 0.91541 1.1983 1.1621 2.3262 0.31721 1.5508 0.47656 4.9516 0.47656 10.203v18.664c0 2.9958-0.2468-0.97924-0.74023 0.0781-0.45819 1.0573-1.0917 1.8152-1.9024 2.2734-0.81063 0.45817-2.3984 0.6875-4.7598 0.6875v6.6484c-11.799-8.9294-23.129-17.277-28.449-21.541 11.854-2.6342 20.588-7.1401 26.203-13.518 1.7898-2.0081 3.2952-4.1323 4.5215-6.3672 0.47203-0.0877 0.91842-0.14257 1.3203-0.14257zm50.648 0.63476c3.1015 0 5.7795 1.374 8.0352 4.123 3.2425 3.9827 4.8633 9.6748 4.8633 17.076 0 6.5203-1.4284 5.5789-4.2832 9.1738-2.1852 2.7491-5.04 4.123-8.5644 4.123-2.9253 0-5.3564-0.7754-7.2949-2.3262-1.9032-1.5508-3.1003-3.3464-3.5938-5.3906-0.3172-1.2336-0.47852 2.1934-0.47852-1.7188v-18.082c2.9253-3.172 5.0242-5.0746 6.293-5.709 1.6565-0.84587 3.3317-1.2695 5.0234-1.2695zm54.135 0c3.1015 0 5.7795 1.374 8.0352 4.123 3.2425 3.9827 4.8652 9.6748 4.8652 17.076 0 6.5203-1.4303 5.5789-4.2852 9.1738-2.1852 2.7491-5.038 4.123-8.5625 4.123-2.9253 0-5.3565-0.7754-7.2949-2.3262-1.9032-1.5508-3.1023-3.3464-3.5957-5.3906-0.3172-1.2336-0.47656-3.8066-0.47656-7.7188v-12.082c2.9253-3.172 5.0242-5.0746 6.293-5.709 1.6565-0.84587 3.3297-1.2695 5.0215-1.2695z" opacity=".3"/><path d="m77.925 198.35v4.1494h5.4962c3.5888 0 6.991 0.89722 10.206 2.6916 2.3926 1.3458 3.9622 2.9536 4.7099 4.8228 0.97197 2.4673 1.4577 7.5496 1.4577 15.251v103.85c0 6.2805-0.89723 10.654-2.6916 13.122-1.7197 2.4675-3.4438 3.1221-5.6071 3.7018-6.2533 1.6756-16.847 3.3691-16.847 4.0523 0 1.7394-0.0584 3.3037 7.762 3.3037 29.199 0 38.917-10.942 38.917-25.861v-102.17c0-9.1216 0.89721-14.878 2.6916-17.271 2.8412-3.6636 7.3654-5.4942 13.571-5.4942h5.4942v-4.1494zm117.37 31.088-15.189 6.2092 0.77641 1.939c1.7368-0.59127 2.9931-0.88534 3.7691-0.88534 0.96079 0 1.7194 0.23855 2.2737 0.71896 0.59126 0.4804 1.0149 1.3871 1.2735 2.7174 0.29563 1.3304 0.44365 4.8955 0.44365 10.697v45.952c0 3.178-0.22203 5.2854-0.66548 6.3201-0.44343 1.0347-1.0336 1.7358-1.7726 2.1054-1.2934 0.70211-3.0677 1.0537-5.3219 1.0537v1.9945h25.166v-1.9945c-2.5868 0-4.4166-0.27756-5.4882-0.83185-1.0347-0.59127-1.7544-1.3109-2.1608-2.1608-0.36954-0.84993-0.55457-3.0128-0.55457-6.4865v-26.827c2.7346-2.9194 5.0805-4.8602 7.0391-5.821 1.9586-0.96084 3.8439-1.4419 5.6546-1.4419 1.7738 0 3.2891 0.44406 4.5455 1.331 1.2564 0.84993 2.1611 2.1432 2.7154 3.88 0.59126 1.7368 0.88731 5.376 0.88731 10.919v17.96c0 2.8824-0.0555 4.6197-0.16638 5.211-0.36953 1.4042-1.0152 2.4754-1.939 3.2145-0.92384 0.70211-2.5686 1.0537-4.9337 1.0537h-1.1646v1.9945h24.944v-1.9945c-2.365 0-3.9914-0.259-4.8782-0.7764-0.88689-0.51732-1.514-1.2185-1.8836-2.1054-0.51735-1.1825-0.77641-3.3824-0.77641-6.5974v-17.96c0-6.2821-0.35154-10.604-1.0537-12.969-0.99774-3.3998-2.5315-5.8957-4.6009-7.4847-2.0694-1.589-4.5449-2.3827-7.4273-2.3827-2.402 0-4.8034 0.64564-7.2054 1.939-2.402 1.2565-5.6546 4.139-9.7565 8.6473v-37.138zm-44.29 26.552c-4.2127 0-8.2035 1.1082-11.973 3.3254-3.7693 2.1803-6.8184 5.5809-9.1464 10.2-2.2911 4.5823-3.4364 9.2002-3.4364 13.856 0 6.393 1.9038 12.158 5.7101 17.295 4.5084 6.0973 10.586 9.1464 18.235 9.1464 4.6931 0 8.9429-1.1823 12.749-3.5473 3.8432-2.3651 6.8553-5.8767 9.0355-10.533 2.1803-4.6562 3.27-9.2556 3.27-13.801 0-6.4669-1.9759-12.195-5.9299-17.184-4.6562-5.8387-10.828-8.7582-18.515-8.7582zm101.11 0-15.298 6.2072 0.82988 1.9964c1.4412-0.5543 2.6809-0.83185 3.7156-0.83185 0.96079 0 1.7174 0.24052 2.2718 0.72093 0.59126 0.48043 1.0168 1.3851 1.2755 2.7154 0.29563 1.3304 0.44365 5.0456 0.44365 11.143v18.845c0 3.6954-0.46257 6.2078-1.3864 7.5382-0.8869 1.2934-2.6242 1.941-5.211 1.941h-1.1091v1.9945h25.11v-1.9945c-2.7715 0-4.6179-0.24052-5.5417-0.72094-0.8869-0.51733-1.59-1.311-2.1074-2.3827-0.40649-0.81296-0.61003-2.9389-0.61003-6.3756v-26.772c4.3605-4.804 8.7399-7.2074 13.137-7.2074 2.8454 0 4.8603 1.0547 6.0428 3.161 1.2195 2.0694 1.8281 5.4125 1.8281 10.032v20.786c0 2.9194-0.074 4.6567-0.22183 5.211-0.36954 1.4042-1.0337 2.4754-1.9945 3.2145-0.92384 0.70211-2.5686 1.0537-4.9337 1.0537h-1.0537v1.9945h25.11v-1.9945c-2.4389 0-4.1188-0.259-5.0426-0.7764-0.8869-0.51732-1.5345-1.237-1.941-2.1608-0.51736-1.1456-0.77641-3.3269-0.77641-6.542v-21.674c0-4.5822-0.40509-7.9809-1.2181-10.198-1.1825-3.178-2.7718-5.452-4.7673-6.8192-1.9955-1.4043-4.3804-2.1054-7.152-2.1054-5.3952 0-11.068 3.5836-17.017 10.753v-10.753zm-102.82 3.6027c4.0649 0 7.408 1.7743 10.032 5.3219 3.8801 5.1735 5.821 12.269 5.821 21.286 0 7.206-1.1637 12.286-3.4918 15.243-2.3281 2.9563-5.2846 4.4346-8.8691 4.4346-4.804 0-8.6837-2.679-11.64-8.0373-2.9193-5.3583-4.3791-11.734-4.3791-19.125 0-4.5823 0.60863-8.3324 1.8281-11.252 1.2195-2.9193 2.8088-4.9507 4.7673-6.0963 1.9955-1.1825 3.9734-1.7746 5.9319-1.7746zm127.54 54.346-7.2114 2.9471 0.36839 0.92098c0.8245-0.28068 1.4221-0.41988 1.7905-0.41988 0.4561 0 0.8163 0.11261 1.0794 0.34065 0.28068 0.22806 0.48129 0.65785 0.60408 1.2894 0.14035 0.63152 0.20995 2.3241 0.20995 5.0783v21.814c0 1.5087-0.10441 2.5094-0.31492 3.0006s-0.49091 0.82478-0.84176 1.0002c-0.61399 0.3333-1.4572 0.49911-2.5272 0.49911v0.94673h11.947v-0.94673c-1.228 0-2.0958-0.13101-2.6045-0.39414-0.49118-0.28068-0.83298-0.62247-1.026-1.026-0.17542-0.40348-0.26342-1.4309-0.26342-3.0798v-12.735c1.2982-1.3858 2.4115-2.3068 3.3413-2.7629 0.92975-0.45611 1.8241-0.68331 2.6837-0.68331 0.84203 0 1.5624 0.2088 2.1588 0.62983 0.59645 0.40347 1.0262 1.0175 1.2894 1.842 0.28068 0.82449 0.41989 2.5539 0.41989 5.1852v8.5245c0 1.3683-0.0266 2.1931-0.0792 2.4738-0.17542 0.66662-0.48241 1.1762-0.92098 1.527-0.43856 0.3333-1.2184 0.49911-2.3411 0.49911h-0.55259v0.94673h11.842v-0.94673c-1.1227 0-1.8963-0.1228-2.3173-0.36839-0.42101-0.2456-0.71783-0.57919-0.89326-1.0002-0.24558-0.56136-0.36839-1.6051-0.36839-3.1313v-8.5245c0-2.9822-0.16778-5.035-0.50109-6.1577-0.47364-1.6139-1.2002-2.7989-2.1826-3.5532s-2.1592-1.1309-3.5275-1.1309c-1.1403 0-2.2802 0.307-3.4205 0.92099-1.1403 0.59643-2.6834 1.9656-4.6307 4.1058v-17.631zm-150.15 4.0068v1.8202s3.6497 1.1054 5.3021 2.0281c2.1906 1.2233 4.6748 2.4308 5.9775 4.5752 2.9054 4.7824 2.9115 7.6591 2.9115 16.532v91.086c0 8.0411-0.72689 13.137-2.1826 15.286-2.5648 3.8819-6.8292 5.823-12.791 5.823h-5.3021v3.8463h60.412v-3.8463h-5.51c-5.2683 0-9.2198-1.5251-11.854-4.5752-1.941-2.1489-2.9115-7.6611-2.9115-16.534v-40.967c1.1091 0.0693 2.1826 0.1386 3.2224 0.20797h2.9115c2.2182 0-0.98827-0.0694 2.547-0.20797 28.583 35.016 55.152 75.649 91.451 65.922 3.9657-1.0626 11.843-6.3298 9.9486-7.4233-1.894-1.0935-4.6168 3.8716-9.9486 3.577-7.7276-0.42705-13.934-2.7729-18.717-5.823-17.793-11.702-35.068-45.097-52.355-58.957 11.854-2.6342 20.588-7.1402 26.203-13.518 1.7898-2.0081 3.2955-4.1308 4.5217-6.3657 0.47203-0.0877 0.91719-0.1426 1.3191-0.1426 0.91636 0 1.6401 0.22909 2.1688 0.68727 0.52868 0.42294 0.91591 1.1974 1.1626 2.3252 0.31721 1.5508 0.47535 4.9526 0.47535 10.204v18.663c0 2.9958-0.24731 5.0211-0.74074 6.0785-0.45819 1.0573-1.0908 1.8156-1.9014 2.2737-0.81063 0.45817-2.398 0.68726-4.7594 0.68726v1.9034h23.526v-1.9034c-2.2909 0-3.8763-0.24732-4.7574-0.74075-0.84588-0.49342-1.4986-1.2334-1.9568-2.2202-0.42294-1.0221-0.63379-3.0474-0.63379-6.0785v-38.911h-2.3252l-10.101 4.0979c1.682-4.0366 2.5292-8.408 2.5292-13.122 0-8.1105-2.4956-15.078-7.4867-20.901-4.9217-5.8922-10.953-9.913-18.093-12.062-7.0706-2.2182-18.091-3.3274-33.064-3.3274zm135.52 1.3884c-0.71925 1.7718-1.28 2.9896-1.6835 3.6562-0.78942 1.263-1.694 2.36-2.7115 3.2898-0.99992 0.91221-1.9823 1.561-2.9471 1.9469v0.86948h3.8166v16.209c0 1.7367 0.18419 3.0261 0.55259 3.8681 0.3684 0.8245 0.93739 1.4651 1.7093 1.9212 0.77187 0.43856 1.5618 0.65756 2.3688 0.65756 1.1929 0 2.3513-0.42979 3.474-1.2894 1.1227-0.87712 1.9905-2.1767 2.6045-3.8958h-1.026c-0.29822 0.70169-0.71981 1.2379-1.2636 1.6063-0.54382 0.35085-1.1046 0.52684-1.6835 0.52684-0.7017 0-1.2809-0.27218-1.737-0.816-0.43857-0.54382-0.65756-1.5978-0.65756-3.1591v-15.629h5.6309v-1.842h-5.6309v-7.9204zm-85.138 6.5142c9.0809 0 16.36 2.7729 21.836 8.3185 5.5456 5.4763 8.3185 12.617 8.3185 21.42 0 9.0116-3.4325 16.429-10.295 22.252-6.7934 5.8229-16.913 8.7345-30.361 8.7345h-2.3926c-0.97048-0.0694-2.1133-0.10498-3.4304-0.10498v-58.644c6.8627-1.3171 12.304-1.9766 16.324-1.9766zm132.29 0.66944c-3.1927 0-5.8513 1.1564-7.9739 3.472-2.1051 2.2981-3.1571 5.5092-3.1571 9.6317 0 3.8067 1.0254 6.8419 3.0779 9.1048 2.07 2.2454 4.5526 3.367 7.4471 3.367 2.6665 0 4.887-0.98239 6.6588-2.9471 1.7718-1.9823 2.8402-4.1743 3.2086-6.5776l-0.81403-0.52684c-0.7894 2.1051-1.7718 3.5971-2.9471 4.4742-1.1578 0.85958-2.527 1.2894-4.1058 1.2894-2.3682 0-4.4292-1.0172-6.1834-3.0521s-2.622-4.8429-2.6045-8.4215h16.655c0-2.9822-0.86779-5.3584-2.6045-7.1302-1.7367-1.7893-3.9553-2.6837-6.6568-2.6837zm-1.4736 1.8677c0.94729 0 1.8499 0.2804 2.7095 0.84175 0.87712 0.56136 1.5361 1.333 1.9747 2.3153 0.28068 0.63153 0.46488 1.7203 0.55259 3.264h-11.157c0.19297-2.0174 0.85817-3.5872 1.9984-4.7099 1.1578-1.1403 2.4656-1.7112 3.9216-1.7112zm-77.844 9.5505c-1.5155 0-2.8029 0.52912-3.8602 1.5865-1.0221 1.0221-1.533 2.273-1.533 3.7532s0.52912 2.7494 1.5865 3.8067c1.0574 1.0573 2.3264 1.5865 3.8067 1.5865 1.4803 0 2.7312-0.52912 3.7532-1.5865 1.0573-1.0573 1.5865-2.3264 1.5865-3.8067s-0.52912-2.7312-1.5865-3.7532c-1.0221-1.0573-2.273-1.5865-3.7532-1.5865zm148.98 25.271c-6.4145 0-11.755 2.3274-16.019 6.9796-4.2294 4.6171-6.3439 11.066-6.3439 19.349 0 7.6481 2.0618 13.746 6.1854 18.293 4.1589 4.5113 9.1461 6.7658 14.962 6.7658 5.3572 0 9.8153-1.9726 13.375-5.92 3.5597-3.9827 5.7087-8.3881 6.4488-13.217l-1.638-1.0576c-1.586 4.2294-3.5606 7.2238-5.922 8.986-2.3261 1.727-5.0752 2.5906-8.2472 2.5906-4.758 0-8.8979-2.0436-12.422-6.132-3.5245-4.0884-5.27-9.7284-5.2347-16.918h33.464c0-5.9916-1.7435-10.766-5.2328-14.326-3.4892-3.595-7.9473-5.3932-13.375-5.3932zm-102.35 0.0534c-2.7844 0-5.4442 0.86365-7.9818 2.5906-2.5024 1.6917-5.0061 4.6699-7.5085 8.9345v-11.313h-2.0083l-14.908 6.027 0.63379 1.6914c1.304-0.49343 2.3785-0.74075 3.2244-0.74075 1.0573 0 1.8865 0.21086 2.4857 0.63379 0.6344 0.42293 1.0926 1.0575 1.3745 1.9034 0.28196 0.84588 0.42187 2.8387 0.42187 5.9755v45.782c0 3.5245-0.19262 5.7099-0.58032 6.5558-0.35245 0.88111-0.86333 1.5157-1.533 1.9034-1.3746 0.77536-3.0309 1.1444-4.9693 1.1091h-1.323v1.9568h25.378v-1.9568c-2.6434 0-4.4761-0.26357-5.4982-0.79225-0.98685-0.52866-1.6924-1.2504-2.1153-2.1668-0.3877-0.88113-0.5823-2.9794-0.5823-6.2924v-14.75c1.7622 1.586 3.3496 2.6442 4.7594 3.1729 1.9032 0.74013 4.1576 1.1091 6.7657 1.1091 5.9916 0 10.963-2.2382 14.91-6.7143 4.7933-5.4629 7.1896-12.37 7.1896-20.723 0-7.4719-1.9908-13.534-5.9735-18.186-3.2425-3.8064-7.2972-5.7101-12.161-5.7101zm54.136 0c-2.7843 0-5.4442 0.86365-7.9818 2.5906-2.5024 1.6917-5.0061 4.6699-7.5085 8.9345v-11.313h-2.0083l-14.908 6.027 0.63379 1.6914c1.304-0.49343 2.3786-0.74075 3.2244-0.74075 1.0573 0 1.8865 0.21086 2.4857 0.63379 0.6344 0.42293 1.0926 1.0575 1.3745 1.9034 0.28195 0.84588 0.42187 2.8387 0.42187 5.9755v45.782c0 3.5245-0.19263 5.7099-0.58032 6.5558-0.35244 0.88111-0.86333 1.5157-1.533 1.9034-1.3745 0.77536-3.0309 1.1444-4.9693 1.1091h-1.323v1.9568h25.378v-1.9568c-2.6433 0-4.476-0.26357-5.4982-0.79225-0.98686-0.52866-1.6924-1.2504-2.1153-2.1668-0.38769-0.88113-0.5823-2.9794-0.5823-6.2924v-14.75c1.7622 1.586 3.3496 2.6442 4.7594 3.1729 1.9032 0.74013 4.1576 1.1091 6.7658 1.1091 5.9916 0 10.963-2.2382 14.91-6.7143 4.7933-5.4629 7.1896-12.37 7.1896-20.723 0-7.4719-1.9909-13.534-5.9735-18.186-3.2425-3.8064-7.2971-5.7101-12.161-5.7101zm85.17 0-14.645 5.92 0.52881 1.9034c1.3746-0.52867 2.6072-0.79224 3.6998-0.79224 0.91636 0 1.6746 0.24732 2.2737 0.74075 0.63441 0.49341 1.0581 1.2861 1.2696 2.3787 0.24671 1.0573 0.37038 4.4045 0.37038 10.044v18.768c-1e-5 2.8196-0.0891 4.5286-0.2654 5.1278-0.35245 1.2336-0.96879 2.1337-1.8499 2.6976-1.1983 0.77538-3.031 1.1626-5.4982 1.1626v1.9034h24.795v-1.9034c-2.1852 0-3.8597-0.31827-5.0228-0.95267-1.1631-0.63441-1.974-1.4271-2.4322-2.3787-0.66965-1.3745-1.0042-3.3999-1.0042-6.0785v-23.209c1.6918-3.313 3.3299-5.6931 4.9159-7.1381 0.74014-0.70489 1.4274-1.0576 2.0618-1.0576 0.74014 0 1.8693 0.61831 3.3848 1.8519 1.5508 1.1983 2.9416 1.7964 4.1751 1.7964 1.2688 0 2.3615-0.47641 3.2779-1.428 0.91636-0.9516 1.3745-2.1133 1.3745-3.4878 0-1.5508-0.63455-2.909-1.9034-4.0721-1.2688-1.1983-2.8724-1.7964-4.8109-1.7964-4.2646 0-8.4227 3.6309-12.476 10.891v-10.891zm-39.915 3.6998c1.9032 0 3.7177 0.56559 5.4447 1.6934 1.7622 1.1278 3.0841 2.6768 3.9652 4.6505 0.56393 1.2688 0.9349 3.4543 1.1111 6.5558h-22.416c0.38769-4.0531 1.7277-7.2077 4.0186-9.4633 2.3262-2.2909 4.9516-3.4364 7.8769-3.4364zm-103.57 3.9652c3.1015 0 5.7796 1.3745 8.0353 4.1236 3.2425 3.9827 4.8644 9.6754 4.8644 17.077 0 6.5203-1.4292 11.578-4.284 15.173-2.1852 2.7491-5.0397 4.1236-8.5641 4.1236-2.9253 0-5.3561-0.77643-7.2946-2.3272-1.9032-1.5508-3.1014-3.347-3.5948-5.3912-0.3172-1.2336-0.47732-3.8063-0.47732-7.7184v-18.081c2.9253-3.172 5.0236-5.0757 6.2924-5.7101 1.6565-0.84587 3.3311-1.2696 5.0228-1.2696zm54.136 0c3.1015 0 5.7796 1.3745 8.0353 4.1236 3.2425 3.9827 4.8644 9.6754 4.8644 17.077 0 6.5203-1.4292 11.578-4.284 15.173-2.1852 2.7491-5.0397 4.1236-8.5641 4.1236-2.9253 0-5.3561-0.77643-7.2946-2.3272-1.9032-1.5508-3.1014-3.347-3.5948-5.3912-0.3172-1.2336-0.47733-3.8063-0.47733-7.7184v-18.081c2.9253-3.172 5.0236-5.0757 6.2924-5.7101 1.6565-0.84587 3.3311-1.2696 5.0228-1.2696z" fill="#fc4"/><path d="m301.21 157.57c0.56739-1.0602 1.1539-4.5968 1.3033-7.859l0.27164-5.9314-9.1266-4.7821c-19.394-10.162-57.514-24.861-69.404-26.762-3.8785-0.6202-4.116-0.51371-4.116 1.8464 0 2.1721 0.97593 2.8813 7.352 5.3426 17.802 6.872 42.554 21.057 62.619 35.886 6.1217 4.5243 9.5189 5.2158 11.101 2.2598z" fill="#fc4" stroke-width="1.0141"/><path d="m221.25 111.92c-1.0165 0.08721-1.1094 0.68313-1.1094 2.1582 0 0.79607 0.13332 1.3957 0.61329 1.957 0.54619-0.23939 1.572-0.11135 3.502 0.19727 11.89 1.9013 50.011 16.6 69.404 26.762l8.9473 4.6875 0.17969-3.9062-9.127-4.7812c-19.394-10.162-57.514-24.86-69.404-26.762-1.4544-0.23258-2.396-0.36483-3.0059-0.3125z" opacity=".2" stroke-width="1.0141"/></g></svg>
