<svg width="512" height="512" version="1.1" viewBox="0 0 384 384" xmlns="http://www.w3.org/2000/svg"><defs><clipPath><rect width="384" height="384"/></clipPath><clipPath><rect width="384" height="384"/></clipPath></defs><g transform="matrix(1.0045 0 0 1.0045 -.85715 -.85715)"><path d="m360 192c0 92.785-75.215 168-168 168-92.785 0-168-75.215-168-168 0-92.785 75.215-168 168-168 92.785 0 168 75.215 168 168z" fill="#4aaee6"/></g><path transform="scale(.75)" d="m31.064 251c-0.036282 1.6632-0.064453 3.3281-0.064453 5 0 124.27 100.73 225 225 225 124.27 0 225-100.73 225-225 0-1.6719-0.02817-3.3368-0.06445-5-2.6604 121.96-102.34 220-224.94 220-122.59 0-222.28-98.045-224.94-220z" opacity=".3" stroke-width="1.3393"/><path transform="scale(.75)" d="m256 31c-124.27 0-225 100.73-225 225 0 1.6719 0.028171 3.3368 0.064453 5 2.6604-121.96 102.34-220 224.94-220s222.28 98.045 224.94 220c0.03628-1.6632 0.06445-3.3281 0.06445-5 0-124.27-100.73-225-225-225z" fill="#f4fafd" opacity=".3" stroke-width="1.3393"/></svg>
