<svg xmlns="http://www.w3.org/2000/svg" xmlns:xlink="http://www.w3.org/1999/xlink" width="512" height="512" version="1.1" viewBox="0 0 384 384"> <defs> <filter id="alpha" width="100%" height="100%" x="0%" y="0%" filterUnits="objectBoundingBox"> <feColorMatrix in="SourceGraphic" type="matrix" values="0 0 0 0 1 0 0 0 0 1 0 0 0 0 1 0 0 0 1 0"/> </filter> <mask id="mask0"> <g filter="url(#alpha)"> <rect width="384" height="384" x="0" y="0" style="fill:rgb(0%,0%,0%);fill-opacity:0.2"/> </g> </mask> <clipPath id="clip1"> <rect width="384" height="384" x="0" y="0"/> </clipPath> <g id="surface5" clip-path="url(#clip1)"> <path style="fill:rgb(0%,0%,0%)" d="M 24 336 L 24 348 C 24 357.972656 32.027344 366 42 366 L 342 366 C 351.972656 366 360 357.972656 360 348 L 360 336 C 360 345.972656 351.972656 354 342 354 L 42 354 C 32.027344 354 24 345.972656 24 336 Z M 24 336"/> </g> <mask id="mask1"> <g filter="url(#alpha)"> <rect width="384" height="384" x="0" y="0" style="fill:rgb(0%,0%,0%);fill-opacity:0.501961"/> </g> </mask> <clipPath id="clip2"> <rect width="384" height="384" x="0" y="0"/> </clipPath> <g id="surface8" clip-path="url(#clip2)"> <path style="fill-rule:evenodd;fill:rgb(6.666%,17.647%,36.078%)" d="M 60 108 L 60 120 L 324 120 L 324 108 Z M 60 144 L 60 156 L 324 156 L 324 144 Z M 60 180 L 60 192 L 324 192 L 324 180 Z M 60 216 L 60 228 L 324 228 L 324 216 Z M 60 252 L 60 264 L 324 264 L 324 252 Z M 60 252"/> </g> <mask id="mask2"> <g filter="url(#alpha)"> <rect width="384" height="384" x="0" y="0" style="fill:rgb(0%,0%,0%);fill-opacity:0.101961"/> </g> </mask> <clipPath id="clip3"> <rect width="384" height="384" x="0" y="0"/> </clipPath> <g id="surface11" clip-path="url(#clip3)"> <path style="fill:rgb(100.000%,100.000%,100.000%)" d="M 42 24 C 32.027344 24 24 32.027344 24 42 L 24 48 C 24 38.027344 32.027344 30 42 30 L 342 30 C 351.972656 30 360 38.027344 360 48 L 360 42 C 360 32.027344 351.972656 24 342 24 Z M 42 24"/> </g> </defs> <g> <use mask="url(#mask0)" xlink:href="#surface5"/> <path style="fill:rgb(100.000%,100.000%,100.000%)" d="M 360 342 L 360 42 C 360 32.058594 351.941406 24 342 24 L 42 24 C 32.058594 24 24 32.058594 24 42 L 24 342 C 24 351.941406 32.058594 360 42 360 L 342 360 C 351.941406 360 360 351.941406 360 342 Z M 360 342"/> <use mask="url(#mask1)" xlink:href="#surface8"/> <use mask="url(#mask2)" xlink:href="#surface11"/> <path style="fill:rgb(6.666%,17.647%,36.078%)" d="M 170.347656 184.652344 C 163.25 177.207031 153.105469 172.558594 140.933594 173.488281 C 139.917969 171.628906 135.859375 153.023438 135.859375 153.023438 C 135.859375 153.023438 150.0625 133.488281 153.105469 129.765625 C 168.320312 107.441406 169.335938 89.765625 160.207031 72.09375 C 157.164062 65.582031 149.046875 60 140.933594 60 C 134.847656 60 129.773438 64.652344 126.730469 70.234375 C 116.589844 86.046875 116.589844 115.8125 121.660156 136.277344 C 121.660156 136.277344 116.589844 140.929688 111.515625 146.511719 C 101.375 156.742188 90.214844 167.90625 86.160156 182.789062 C 81.085938 199.535156 85.144531 215.347656 96.300781 227.441406 C 108.472656 241.394531 126.730469 247.90625 149.046875 246.046875 C 153.105469 263.71875 156.148438 274.882812 150.0625 285.113281 C 148.035156 288.835938 143.976562 292.558594 136.875 292.558594 C 134.847656 292.558594 133.832031 292.558594 131.804688 291.625 C 137.890625 288.835938 142.960938 283.253906 142.960938 276.742188 C 142.960938 267.441406 134.847656 260 124.703125 260 C 107.460938 260.929688 106.445312 276.742188 106.445312 276.742188 C 106.445312 282.324219 108.472656 287.90625 112.53125 291.625 C 117.601562 296.277344 125.71875 300 134.847656 300 C 146.003906 300 157.164062 296.277344 161.21875 281.394531 C 165.277344 269.300781 158.175781 249.765625 157.164062 243.253906 C 168.320312 238.605469 178.464844 224.648438 179.476562 215.347656 C 181.507812 205.117188 177.449219 193.023438 170.347656 184.652344 Z M 137.890625 81.394531 C 138.902344 79.535156 140.933594 78.605469 142.960938 78.605469 C 143.976562 78.605469 146.003906 79.535156 147.019531 80.464844 C 151.078125 82.324219 152.089844 86.046875 152.089844 91.628906 C 151.078125 105.582031 137.890625 122.324219 130.789062 127.90625 C 127.746094 114.882812 129.773438 90.699219 137.890625 81.394531 Z M 108.472656 227.441406 C 101.375 220.929688 98.332031 211.628906 99.34375 202.324219 C 101.375 187.441406 112.53125 175.347656 121.660156 166.046875 C 123.6875 164.183594 125.71875 162.324219 126.730469 160.464844 C 127.746094 165.117188 130.789062 172.558594 131.804688 176.277344 C 119.632812 180.929688 112.53125 195.8125 113.546875 207.90625 C 113.546875 213.488281 115.574219 217.207031 118.617188 220.929688 C 119.632812 221.859375 120.644531 222.789062 121.660156 222.789062 C 122.675781 222.789062 124.703125 221.859375 124.703125 220.929688 C 125.71875 220 125.71875 218.140625 124.703125 217.207031 C 123.6875 216.277344 123.6875 215.347656 123.6875 213.488281 C 122.675781 205.117188 128.761719 198.605469 135.859375 195.8125 C 136.875 201.394531 143.976562 230.230469 144.992188 236.742188 C 131.804688 240.464844 117.601562 236.742188 108.472656 227.441406 Z M 154.121094 233.023438 C 152.089844 226.511719 151.078125 219.070312 149.046875 210.695312 C 148.035156 205.117188 147.019531 198.605469 144.992188 193.023438 C 158.175781 193.023438 162.234375 203.253906 163.25 206.976562 C 166.292969 217.207031 163.25 227.441406 154.121094 233.023438 Z M 154.121094 233.023438"/> </g> </svg>
