<svg width="512" height="512" version="1.1" viewBox="0 0 384 384" xmlns="http://www.w3.org/2000/svg"><defs><clipPath id="d"><rect width="384" height="384"/></clipPath></defs><path d="m38.525 38.303h76.973c5.34 0 9.6212 3.9881 9.6212 8.9675v71.736c0 4.9797-4.2816 8.9675-9.6212 8.9675h-76.973c-5.34 0-9.6212-3.9882-9.6212-8.9675v-71.736c0-4.9797 4.2816-8.9675 9.6212-8.9675zm115.46 0h76.973c5.34 0 9.6212 3.9881 9.6212 8.9675v71.736c0 4.9797-4.2816 8.9675-9.6212 8.9675h-76.973c-5.34 0-9.6212-3.9882-9.6212-8.9675v-71.736c0-4.9797 4.2816-8.9675 9.6212-8.9675zm115.46 0h76.973c5.34 0 9.6212 3.9881 9.6212 8.9675v71.736c0 4.9797-4.2816 8.9675-9.6212 8.9675h-76.973c-5.34 0-9.6212-3.9882-9.6212-8.9675v-71.736c0-4.9797 4.2816-8.9675 9.6212-8.9675zm-7e-3 115.14h76.973c5.34 0 9.6212 3.9881 9.6212 8.9675v71.736c0 4.9796-4.2816 8.9675-9.6212 8.9675h-76.973c-5.34 0-9.6212-3.9881-9.6212-8.9675v-71.736c0-4.9796 4.2816-8.9675 9.6212-8.9675z" fill="#b22525" stroke-width=".66055"/><path d="m153.91 153.58h76.973c5.3398 0 9.6215 3.9881 9.6215 8.9678v71.738c0 4.9799-4.2816 8.9678-9.6215 8.9678h-76.973c-5.3398 0-9.6215-3.9882-9.6215-8.9678v-71.738c0-4.9799 4.2816-8.9678 9.6215-8.9678zm115.46 117.4h76.973c5.3398 0 9.6215 3.9881 9.6215 8.9678v71.738c0 4.9794-4.2816 8.9678-9.6215 8.9678h-76.973c-5.3398 0-9.6216-3.9882-9.6216-8.9678v-71.738c0-4.9799 4.2816-8.9678 9.6216-8.9678zm-230.92 0.10204h76.973c5.3398 0 9.6216 3.9882 9.6216 8.9678v71.738c0 4.9794-4.2816 8.9678-9.6216 8.9678h-76.973c-5.3398 0-9.6215-3.9882-9.6215-8.9678v-71.738c0-4.9799 4.2816-8.9678 9.6215-8.9678zm115.46 0h76.973c5.3398 0 9.6215 3.9882 9.6215 8.9678v71.738c0 4.9794-4.2816 8.9678-9.6215 8.9678h-76.973c-5.3398 0-9.6215-3.9882-9.6215-8.9678v-71.738c0-4.9799 4.2816-8.9678 9.6215-8.9678z" fill="#2656a8" stroke-width=".49541"/><path d="m38.525 23.25h76.973c5.34 0 9.6212 3.9882 9.6212 8.9675v71.736c0 4.9796-4.2816 8.9675-9.6212 8.9675h-76.973c-5.34 0-9.6212-3.9882-9.6212-8.9675v-71.736c0-4.9796 4.2816-8.9675 9.6212-8.9675zm115.46 0h76.973c5.34 0 9.6212 3.9882 9.6212 8.9675v71.736c0 4.9796-4.2816 8.9675-9.6212 8.9675h-76.973c-5.34 0-9.6212-3.9882-9.6212-8.9675v-71.736c0-4.9796 4.2816-8.9675 9.6212-8.9675zm115.46 0h76.973c5.34 0 9.6212 3.9882 9.6212 8.9675v71.736c0 4.9796-4.2816 8.9675-9.6212 8.9675h-76.973c-5.34 0-9.6212-3.9882-9.6212-8.9675v-71.736c0-4.9796 4.2816-8.9675 9.6212-8.9675zm-9.7e-4 115.13h76.973c5.34 0 9.6212 3.9882 9.6212 8.9675v71.736c0 4.9796-4.2816 8.9675-9.6212 8.9675h-76.973c-5.34 0-9.6212-3.9882-9.6212-8.9675v-71.736c0-4.9796 4.2816-8.9675 9.6212-8.9675z" fill="#fd3535" stroke-width=".66055"/><path d="m153.91 138.52h76.973c5.3398 0 9.6212 3.9882 9.6212 8.9675v71.736c0 4.9799-4.2816 8.9675-9.6212 8.9675h-76.973c-5.3399 0-9.6212-3.9882-9.6212-8.9675v-71.736c0-4.9799 4.2816-8.9675 9.6212-8.9675zm115.46 117.4h76.973c5.3399 0 9.6212 3.9882 9.6212 8.9675v71.736c0 4.9794-4.2816 8.9675-9.6212 8.9675h-76.973c-5.3398 0-9.6212-3.9882-9.6212-8.9675v-71.736c0-4.9799 4.2816-8.9675 9.6212-8.9675zm-230.92 0.10204h76.973c5.3398 0 9.6212 3.9882 9.6212 8.9675v71.736c0 4.9794-4.2816 8.9675-9.6212 8.9675h-76.973c-5.3398 0-9.6212-3.9882-9.6212-8.9675v-71.736c0-4.9799 4.2816-8.9675 9.6212-8.9675zm115.46 0h76.973c5.3398 0 9.6212 3.9882 9.6212 8.9675v71.736c0 4.9794-4.2816 8.9675-9.6212 8.9675h-76.973c-5.3399 0-9.6212-3.9882-9.6212-8.9675v-71.736c0-4.9799 4.2816-8.9675 9.6212-8.9675z" fill="#367bf0" stroke-width=".49541"/></svg>
