<svg width="512" height="512" version="1.1" viewBox="0 0 384 384" xmlns="http://www.w3.org/2000/svg"><defs><clipPath><rect width="384" height="384"/></clipPath><clipPath><rect width="384" height="384"/></clipPath><clipPath><rect width="384" height="384"/></clipPath><clipPath><rect width="384" height="384"/></clipPath><clipPath><rect width="384" height="384"/></clipPath><clipPath><rect width="384" height="384"/></clipPath><clipPath><rect width="384" height="384"/></clipPath><clipPath><rect width="384" height="384"/></clipPath><clipPath><rect width="384" height="384"/></clipPath></defs><g><rect x="23.25" y="23.25" width="337.5" height="337.5" rx="15" ry="15" fill="#39c1c8" style="paint-order:fill markers stroke"/><path d="m135.75 23.25h112.5v337.5h-112.5z" opacity=".1" style="paint-order:fill markers stroke"/><path d="m345.75 23.25c8.31 0 15 6.69 15 15v307.5c0 8.31-6.69 15-15 15h-97.5v-337.5z" fill="#000b11" opacity=".2" style="paint-order:fill markers stroke"/><path d="m360.75 135.75v112.5h-337.5v-112.5z" opacity=".1" style="paint-order:fill markers stroke"/><path d="m360.75 345.75c0 8.31-6.69 15-15 15h-307.5c-8.31 0-15-6.69-15-15v-97.5h337.5z" fill="#000b11" opacity=".2" style="paint-order:fill markers stroke"/><path d="m38.25 23.25c-8.31 0-15 6.69-15 15v7.5c0-8.31 6.69-15 15-15h307.5c8.31 0 15 6.69 15 15v-7.5c0-8.31-6.69-15-15-15z" fill="#fff" opacity=".2" style="paint-order:fill markers stroke"/><path d="m23.25 338.25v7.5c0 8.31 6.69 15 15 15h307.5c8.31 0 15-6.69 15-15v-7.5c0 8.31-6.69 15-15 15h-307.5c-8.31 0-15-6.69-15-15z" fill="#00080d" opacity=".3" style="paint-order:fill markers stroke"/><path d="m23.25 135.75v7.5h337.5v-7.5z" opacity=".3" style="paint-order:fill markers stroke"/><path d="m23.25 248.25v7.5h337.5v-7.5z" opacity=".3" style="paint-order:fill markers stroke"/></g><g transform="translate(-134.77 -30.721)"><path d="m516.9 317.22c0 49.706-40.294 90-90 90s-90-40.294-90-90 40.294-90 90-90 90 40.294 90 90z" fill="#fff" opacity=".2" stroke="#000" stroke-width="3.75"/><path d="m516.9 324.72c0 49.706-40.294 90-90 90s-90-40.294-90-90 40.294-90 90-90 90 40.294 90 90z" opacity=".3" stroke-width=".97425"/><path d="m516.9 317.22c0 49.706-40.294 90-90 90s-90-40.294-90-90 40.294-90 90-90 90 40.294 90 90z" fill="#fff" stroke-width=".97425"/><path d="m449.07 296.52c-0.52417-7.3079-2.7941-13.963-5.6412-20.452-0.28633-0.65351-1.4455-0.43643-2.3507-0.47107 1.7688 6.6479 5.7797 13.837 5.8767 21.394 0.15471 12.003-8.7906 17.397-20.052 17.905-11.261-0.50802-20.205-5.9022-20.05-17.905 0.097-7.5575 4.1079-14.746 5.8767-21.394-0.90513 0.0347-2.0643-0.18242-2.3507 0.47107-2.8472 6.4888-5.1169 13.143-5.6412 20.452-0.11083 1.561-0.18472 3.5144 0 5.1724 1.2307 11.007 12.499 12.091 17.866 18.805 3.1958 3.9994 3.3552 32.459 1.8819 36.909-1.1338 3.4244-5.7636 4.4128-9.6381 4.9369-1.4132 0.19165-3.727-0.25169-4.4682 1.4108 3.9624 0.85209 10.29 1.1292 16.524 1.1038 6.237 0.0254 12.564-0.25169 16.526-1.1038-0.74121-1.6625-3.055-1.2192-4.4682-1.4108-3.8747-0.52418-8.5046-1.5125-9.6381-4.9369-1.4732-4.4497-1.3139-32.91 1.8819-36.909 5.3664-6.7148 16.635-7.7982 17.866-18.805 0.18474-1.658 0.11084-3.6115 0-5.1724" opacity=".3" stroke-width=".59113"/><path d="m449.07 293.51c-0.52416-7.3079-2.7941-13.963-5.6412-20.452-0.28632-0.65351-1.4455-0.43643-2.3507-0.47107 1.7688 6.6479 5.7797 13.837 5.8767 21.394 0.15471 12.003-8.7906 17.397-20.052 17.905-11.261-0.50802-20.205-5.9022-20.05-17.905 0.097-7.5575 4.1079-14.746 5.8767-21.394-0.90513 0.0347-2.0643-0.18242-2.3507 0.47107-2.8472 6.4888-5.1169 13.143-5.6412 20.452-0.11083 1.561-0.18472 3.5144 0 5.1724 1.2307 11.007 12.499 12.091 17.866 18.805 3.1958 3.9994 3.3552 32.459 1.8819 36.909-1.1338 3.4244-5.7636 4.4128-9.6381 4.9369-1.4132 0.19166-3.727-0.25169-4.4682 1.4108 3.9624 0.85208 10.29 1.1292 16.524 1.1038 6.237 0.0254 12.564-0.25169 16.526-1.1038-0.74121-1.6625-3.055-1.2192-4.4682-1.4108-3.8747-0.52417-8.5046-1.5125-9.6381-4.9369-1.4732-4.4497-1.3139-32.91 1.8819-36.909 5.3664-6.7148 16.635-7.7982 17.866-18.805 0.18473-1.658 0.11082-3.6115 0-5.1724" stroke-width=".59113"/><path d="m445.89 291.48c1.8508 13.638-12.643 20.197-26.645 16.869-7.6034-1.8089-12.366-9.6913-9.7774-18.336 12.476-4.2881 23.012 4.3928 36.423 1.4665" fill="#d31818" fill-rule="evenodd" stroke-width=".59596"/></g></svg>
