<svg version="1.1" viewBox="0 0 512 512" xmlns="http://www.w3.org/2000/svg" xmlns:xlink="http://www.w3.org/1999/xlink"><defs><linearGradient id="a" x1="-1221.5" x2="-1690.3" y1="-381.81" y2="93.888" gradientTransform="translate(1775.7 374.92)" gradientUnits="userSpaceOnUse"><stop stop-color="#fd4949" offset="0"/><stop stop-color="#fd7d00" offset=".6"/><stop stop-color="#f8de68" offset="1"/></linearGradient><clipPath><rect width="384" height="384"/></clipPath></defs><circle cx="256" cy="256" r="225" fill="url(#a)" style="paint-order:stroke fill markers"/><ellipse cx="180.41" cy="323.47" rx="17.858" ry="19.612" opacity=".3" stroke-width="1.023" style="paint-order:stroke fill markers"/><g shape-rendering="auto"><path d="m181.01 192.06c-12.641 0-25.968 3.6338-37.1 9.7789-2.8813 1.5908-4.2409 4.9552-3.2596 8.0664l3.2342 10.244c1.2809 4.0574 5.9399 6.0162 9.7917 4.1167 8.3862-4.1385 16.558-6.158 23.762-6.158 5.9674 0 10.037 1.4254 12.291 3.1221 2.2539 1.6967 3.1833 3.4489 3.1833 6.6104 0 5.4901-4.3545 9.7904-11.011 16.706-6.656 6.9151-14.852 16.539-14.852 30.989v8.8994c3.8e-4 3.8073 3.1275 6.8937 6.985 6.894h12.931c3.8575-3.8e-4 6.9846-3.0867 6.985-6.894v-8.8994c0-5.7583 4.7397-10.553 11.747-17.748 7.0075-7.1955 15.648-16.928 15.648-31.458 0-10.058-4.3214-19.128-11.664-25.158-7.3422-6.03-17.35-9.1113-28.671-9.1113z" color="#000000" color-rendering="auto" dominant-baseline="auto" image-rendering="auto" opacity=".3" solid-color="#000000" stroke-width=".96977" style="font-feature-settings:normal;font-variant-alternates:normal;font-variant-caps:normal;font-variant-ligatures:normal;font-variant-numeric:normal;font-variant-position:normal;isolation:auto;mix-blend-mode:normal;shape-padding:0;text-decoration-color:#000000;text-decoration-line:none;text-decoration-style:solid;text-indent:0;text-orientation:mixed;text-transform:none;white-space:normal"/><path d="m382.43 210.09c-3.7857 0.10764-6.8038 3.5084-6.8049 7.6673v15.51c-3.5e-4 2.9088 1.4972 5.5677 3.8672 6.8663l48.64 26.634-48.543 25.549c-2.4236 1.2762-3.9655 3.9664-3.9655 6.9182v14.576c9.4e-4 5.6891 5.4421 9.398 10.085 6.8742l75.889-41.3c2.3788-1.2948 3.8836-3.9586 3.8836-6.8742v-11.959c-1.6e-4 -2.8761-1.465-5.5105-3.7945-6.8243l-75.887-42.795c-1.0414-0.58671-2.2005-0.8766-3.3706-0.84305z" color="#000000" color-rendering="auto" dominant-baseline="auto" image-rendering="auto" opacity=".3" solid-color="#000000" stroke-width="1.023" style="font-feature-settings:normal;font-variant-alternates:normal;font-variant-caps:normal;font-variant-ligatures:normal;font-variant-numeric:normal;font-variant-position:normal;isolation:auto;mix-blend-mode:normal;shape-padding:0;text-decoration-color:#000000;text-decoration-line:none;text-decoration-style:solid;text-indent:0;text-orientation:mixed;text-transform:none;white-space:normal"/><path d="m126.46 211.02c-1.0412 0.0334-2.0622 0.3222-2.9887 0.84504l-73.166 41.3c-2.3275 1.3147-3.7907 3.9478-3.7908 6.8223v11.961c3.81e-4 2.8345 1.4238 5.4379 3.7017 6.7704l73.166 42.793c4.6524 2.72 10.267-0.98199 10.268-6.7703v-15.51c5e-5 -2.8617-1.4502-5.4856-3.7618-6.8064l-46.725-26.696 46.625-25.603c2.3668-1.2996 3.8618-3.9562 3.8618-6.8622v-14.576c-7.5e-4 -4.3248-3.2545-7.7942-7.1906-7.6673z" color="#000000" color-rendering="auto" dominant-baseline="auto" image-rendering="auto" opacity=".3" solid-color="#000000" stroke-width="1.023" style="font-feature-settings:normal;font-variant-alternates:normal;font-variant-caps:normal;font-variant-ligatures:normal;font-variant-numeric:normal;font-variant-position:normal;isolation:auto;mix-blend-mode:normal;shape-padding:0;text-decoration-color:#000000;text-decoration-line:none;text-decoration-style:solid;text-indent:0;text-orientation:mixed;text-transform:none;white-space:normal"/><path d="m236.95 210.92c-4.8508 9.4e-4 -8.2242 5.5569-6.5612 10.806l29.948 94.476c1.0064 3.1745 3.6274 5.2865 6.5612 5.2867h12.931c3.0365-6e-5 5.7252-2.2598 6.6521-5.5906l14.747-53.005 15.364 53.094c0.95075 3.2858 3.62 5.5023 6.6266 5.5026h13.783c2.9619-6.3e-4 5.6015-2.1529 6.5866-5.3706l28.928-94.476c1.6018-5.2351-1.7699-10.722-6.5885-10.722h-13.611c-3.0403-3.1e-4 -5.7316 2.2646-6.6557 5.6011l-14.749 53.26-14.474-52.845c-0.91769-3.3479-3.6136-5.6239-6.6612-5.6242h-15.315c-3.0674 1e-3 -5.7754 2.3071-6.6757 5.6849l-14.03 52.624-14.665-53.094c-0.92224-3.339-3.6141-5.6068-6.6557-5.6073z" color="#000000" color-rendering="auto" dominant-baseline="auto" image-rendering="auto" opacity=".3" solid-color="#000000" stroke-width="1.0477" style="font-feature-settings:normal;font-variant-alternates:normal;font-variant-caps:normal;font-variant-ligatures:normal;font-variant-numeric:normal;font-variant-position:normal;isolation:auto;mix-blend-mode:normal;shape-padding:0;text-decoration-color:#000000;text-decoration-line:none;text-decoration-style:solid;text-indent:0;text-orientation:mixed;text-transform:none;white-space:normal"/></g><g fill="#191919"><g shape-rendering="auto"><path d="m181.01 182.42c-12.641 0-25.968 3.6338-37.1 9.7788-2.8813 1.5908-4.2409 4.9552-3.2596 8.0664l3.2342 10.244c1.2809 4.0574 5.9399 6.0162 9.7917 4.1167 8.3862-4.1385 16.558-6.158 23.762-6.158 5.9674 0 10.037 1.4254 12.291 3.1221 2.2539 1.6967 3.1833 3.4489 3.1833 6.6104 0 5.4901-4.3545 9.7904-11.011 16.706-6.656 6.9151-14.852 16.539-14.852 30.989v8.8994c3.8e-4 3.8073 3.1275 6.8936 6.985 6.894h12.931c3.8575-3.8e-4 6.9846-3.0868 6.985-6.894v-8.8994c0-5.7583 4.7397-10.553 11.747-17.748 7.0075-7.1955 15.648-16.928 15.648-31.458 0-10.058-4.3214-19.128-11.664-25.158-7.3422-6.03-17.35-9.1113-28.671-9.1113z" color="#000000" color-rendering="auto" dominant-baseline="auto" image-rendering="auto" solid-color="#000000" stroke-width=".96977" style="font-feature-settings:normal;font-variant-alternates:normal;font-variant-caps:normal;font-variant-ligatures:normal;font-variant-numeric:normal;font-variant-position:normal;isolation:auto;mix-blend-mode:normal;shape-padding:0;text-decoration-color:#000000;text-decoration-line:none;text-decoration-style:solid;text-indent:0;text-orientation:mixed;text-transform:none;white-space:normal"/><path d="m382.43 199.37c-3.7857 0.10763-6.8038 3.5084-6.8049 7.6673v15.51c-3.5e-4 2.9088 1.4972 5.5677 3.8672 6.8663l48.64 26.634-48.543 25.549c-2.4236 1.2762-3.9655 3.9664-3.9655 6.9182v14.576c9.4e-4 5.6891 5.4421 9.398 10.085 6.8742l75.889-41.3c2.3788-1.2948 3.8836-3.9586 3.8836-6.8742v-11.959c-1.6e-4 -2.8761-1.465-5.5105-3.7945-6.8243l-75.887-42.795c-1.0414-0.58671-2.2005-0.87661-3.3706-0.84305z" color="#000000" color-rendering="auto" dominant-baseline="auto" image-rendering="auto" solid-color="#000000" stroke-width="1.023" style="font-feature-settings:normal;font-variant-alternates:normal;font-variant-caps:normal;font-variant-ligatures:normal;font-variant-numeric:normal;font-variant-position:normal;isolation:auto;mix-blend-mode:normal;shape-padding:0;text-decoration-color:#000000;text-decoration-line:none;text-decoration-style:solid;text-indent:0;text-orientation:mixed;text-transform:none;white-space:normal"/><path d="m126.46 200.3c-1.0412 0.0334-2.0622 0.32219-2.9887 0.84503l-73.166 41.3c-2.3275 1.3147-3.7907 3.9478-3.7908 6.8223v11.961c3.78e-4 2.8345 1.4238 5.4379 3.7017 6.7703l73.166 42.793c4.6524 2.72 10.267-0.98199 10.268-6.7704v-15.51c5e-5 -2.8617-1.4502-5.4856-3.7618-6.8064l-46.725-26.696 46.625-25.603c2.3668-1.2995 3.8618-3.9562 3.8618-6.8622v-14.576c-7.5e-4 -4.3248-3.2545-7.7942-7.1906-7.6673z" color="#000000" color-rendering="auto" dominant-baseline="auto" image-rendering="auto" solid-color="#000000" stroke-width="1.023" style="font-feature-settings:normal;font-variant-alternates:normal;font-variant-caps:normal;font-variant-ligatures:normal;font-variant-numeric:normal;font-variant-position:normal;isolation:auto;mix-blend-mode:normal;shape-padding:0;text-decoration-color:#000000;text-decoration-line:none;text-decoration-style:solid;text-indent:0;text-orientation:mixed;text-transform:none;white-space:normal"/><path d="m236.95 199.67c-4.8508 9.4e-4 -8.2242 5.5569-6.5612 10.806l29.948 94.476c1.0064 3.1745 3.6274 5.2865 6.5612 5.2867h12.931c3.0365-5e-5 5.7252-2.2597 6.6521-5.5906l14.747-53.005 15.364 53.094c0.95075 3.2858 3.62 5.5023 6.6266 5.5026h13.783c2.9619-6.3e-4 5.6015-2.1529 6.5866-5.3706l28.928-94.476c1.6018-5.2351-1.7699-10.722-6.5885-10.722h-13.611c-3.0403-3e-4 -5.7316 2.2646-6.6557 5.6011l-14.749 53.26-14.474-52.845c-0.91769-3.3479-3.6136-5.624-6.6612-5.6242h-15.315c-3.0674 1e-3 -5.7754 2.3071-6.6757 5.6849l-14.03 52.624-14.665-53.094c-0.92224-3.339-3.6141-5.6069-6.6557-5.6073z" color="#000000" color-rendering="auto" dominant-baseline="auto" image-rendering="auto" solid-color="#000000" stroke-width="1.0477" style="font-feature-settings:normal;font-variant-alternates:normal;font-variant-caps:normal;font-variant-ligatures:normal;font-variant-numeric:normal;font-variant-position:normal;isolation:auto;mix-blend-mode:normal;shape-padding:0;text-decoration-color:#000000;text-decoration-line:none;text-decoration-style:solid;text-indent:0;text-orientation:mixed;text-transform:none;white-space:normal"/></g><ellipse cx="180.41" cy="313.36" rx="17.858" ry="19.612" stroke-width="1.023" style="paint-order:stroke fill markers"/></g><path d="m480.79 250.15a225 225 0 0 1-224.79 220.85 225 225 0 0 1-224.79-219.15 225 225 0 0 0-0.20703 4.1465 225 225 0 0 0 225 225 225 225 0 0 0 225-225 225 225 0 0 0-0.20703-5.8535z" opacity=".3" style="paint-order:stroke fill markers"/><path d="m256 31a225 225 0 0 0-225 225 225 225 0 0 0 0.20703 5.8535 225 225 0 0 1 224.79-220.85 225 225 0 0 1 224.79 219.15 225 225 0 0 0 0.20703-4.1465 225 225 0 0 0-225-225z" fill="#fff" opacity=".2" style="paint-order:stroke fill markers"/></svg>
