<svg width="256" xmlns="http://www.w3.org/2000/svg" height="256" viewBox="0 0 256 256" xmlns:xlink="http://www.w3.org/1999/xlink">
<path style="fill:#6c71c4" d="M 58.589844 36.511719 C 48.519531 72.722656 48.285156 122.855469 66.257812 147.585938 C 73.808594 159.316406 84.117188 174.742188 76.039062 188.78125 C 61.105469 210.683594 36.210938 222.496094 13.546875 234.429688 C 5.847656 235.226562 8.628906 242.457031 8.113281 247.789062 C 8.097656 252.03125 6.851562 257.570312 13.003906 255.582031 L 230.367188 255.582031 C 236.515625 257.570312 235.269531 252.03125 235.257812 247.789062 C 234.742188 242.457031 237.523438 235.226562 229.824219 234.429688 C 207.15625 222.496094 182.261719 210.683594 167.332031 188.78125 C 159.253906 174.742188 169.558594 159.316406 177.113281 147.585938 C 196.09375 120.667969 198.5625 62.09375 184.71875 35.691406 C 172.210938 12.800781 159.578125 0.878906 121.683594 0 C 83.730469 1.546875 71.15625 12.800781 58.589844 36.511719 Z "/>
<path style="fill:#859900" d="M 256 160 L 208 160 L 208 112 L 160 112 L 160 160 L 112 160 L 112 208 L 160 208 L 160 256 L 208 256 L 208 208 L 256 208 Z "/>
</svg>
