<svg width="256" xmlns="http://www.w3.org/2000/svg" height="256" viewBox="0 0 256 256" xmlns:xlink="http://www.w3.org/1999/xlink">
<path style="fill:#fff;fill-rule:evenodd" d="M 59.429688 0 L 196.570312 0 C 224 0 224 0 224 28.445312 L 224 227.554688 C 224 256 224 256 196.570312 256 L 59.429688 256 C 32 256 32 256 32 227.554688 L 32 28.445312 C 32 0 32 0 59.429688 0 Z "/>
<g style="fill:#aaa;stroke:#aaa;stroke-linecap:round;stroke-width:2">
<path d="M 15 35 L 15 38 L 18 38 " transform="matrix(8 0 0 8 -64 -80)"/>
<path d="M 33 35 L 33 38 L 30 38 " transform="matrix(8 0 0 8 -64 -80)"/>
<path d="M 30 14 L 33 14 L 33 17 " transform="matrix(8 0 0 8 -64 -80)"/>
<path d="M 15 17 L 15 14 L 18 14 " transform="matrix(8 0 0 8 -64 -80)"/>
</g>
</svg>
