<?xml version="1.0" encoding="UTF-8" standalone="no"?>
<svg
   xmlns:dc="http://purl.org/dc/elements/1.1/"
   xmlns:cc="http://creativecommons.org/ns#"
   xmlns:rdf="http://www.w3.org/1999/02/22-rdf-syntax-ns#"
   xmlns:svg="http://www.w3.org/2000/svg"
   xmlns="http://www.w3.org/2000/svg"
   xmlns:sodipodi="http://sodipodi.sourceforge.net/DTD/sodipodi-0.dtd"
   xmlns:inkscape="http://www.inkscape.org/namespaces/inkscape"
   width="256"
   height="256"
   viewBox="0 0 256 256"
   id="svg2"
   version="1.1"
   inkscape:version="0.48.5 r10040"
   sodipodi:docname="package-purge.svg">
  <metadata
     id="metadata18">
    <rdf:RDF>
      <cc:Work
         rdf:about="">
        <dc:format>image/svg+xml</dc:format>
        <dc:type
           rdf:resource="http://purl.org/dc/dcmitype/StillImage" />
      </cc:Work>
    </rdf:RDF>
  </metadata>
  <defs
     id="defs16" />
  <sodipodi:namedview
     pagecolor="#ffffff"
     bordercolor="#666666"
     borderopacity="1"
     objecttolerance="10"
     gridtolerance="10"
     guidetolerance="10"
     inkscape:pageopacity="0"
     inkscape:pageshadow="2"
     inkscape:window-width="640"
     inkscape:window-height="480"
     id="namedview14"
     showgrid="true"
     inkscape:zoom="0.921875"
     inkscape:cx="191.89347"
     inkscape:cy="174.94053"
     inkscape:window-x="0"
     inkscape:window-y="0"
     inkscape:window-maximized="0"
     inkscape:current-layer="svg2">
    <inkscape:grid
       type="xygrid"
       id="grid3043" />
  </sodipodi:namedview>
  <path
     style="fill:#c19553"
     inkscape:connector-curvature="0"
     id="path6"
     d="M 16,0 C 9.03125,0 0,9.03125 0,16 l 0,208 c 0,6.59375 9.40625,16 16,16 l 208,0 c 6.59375,0 16,-9.40625 16,-16 L 240,16 C 240,9.40625 230.59375,0 224,0 z" />
  <path
     style="fill:#ffffff;fill-opacity:0.19599998"
     inkscape:connector-curvature="0"
     id="path8"
     d="M 16,0 C 9.03125,0 0,9.03125 0,16 l 0,64 c 27.09375,0 212.90625,0 240,0 l 0,-64 C 240,9.40625 230.59375,0 224,0 z" />
  <path
     style="fill:#ffffff;fill-opacity:0.39200003"
     inkscape:connector-curvature="0"
     id="path10"
     d="m 96,32 0,96 48,0 0,-96 z" />
  <g
     style="fill-rule:evenodd"
     id="g4"
     transform="matrix(0.49549099,0,0,0.49549099,128.25567,127.97086)">
    <path
       inkscape:connector-curvature="0"
       style="fill:#dc322f"
       d="M 256,128.01562 C 255.99219,198.70312 198.6875,256 128,256 57.3125,256 0.0078125,198.70312 0,128.01562 -0.0078125,57.316406 57.300781,0 128,0 198.69922,0 256.00781,57.316406 256,128.01562 z"
       id="path6-7" />
    <path
       inkscape:connector-curvature="0"
       style="fill:#ffffff;fill-opacity:0.9020004"
       d="m 64.066406,64.003906 0,21.332032 c -0.464844,5.980468 1.539063,12.089843 6.027344,16.234372 l 27.347656,26.89453 -27.347656,26.89844 c -4.007812,4.00781 -6.027344,9.65625 -6.027344,15.30469 l 0,21.33203 21.320313,0 c 5.648437,0 11.292969,-2.01953 15.296871,-6.02734 l 27.34766,-27.36329 27.35156,27.36329 C 159.38672,189.97656 165.03125,192 170.67578,192 L 192,192 l 0,-21.33203 c 0,-5.64844 -2.01953,-11.29688 -6.02734,-15.30469 L 159.08984,128.46484 186.4375,101.57031 C 191.02734,97.324219 192,91.4375 192,85.335938 l 0,-21.332032 -21.32422,0 c -5.125,0.148438 -9.17578,2.046875 -14.83203,6.957032 l -27.8125,26.898437 -27.34766,-26.898437 c -3.781246,-3.917969 -8.941402,-6.71875 -14.367184,-6.957032 -0.222656,-0.0078 -0.707031,0 -0.929687,0 z"
       id="path8-5" />
  </g>
</svg>
