<svg xmlns="http://www.w3.org/2000/svg" width="18pt" height="18pt" version="1.1" viewBox="0 0 18 18"> <g> <path style="fill:rgb(6.666%,17.647%,36.078%)" d="M 16.5 9 C 16.5 13.140625 13.140625 16.5 9 16.5 C 4.859375 16.5 1.5 13.140625 1.5 9 C 1.5 4.859375 4.859375 1.5 9 1.5 C 13.140625 1.5 16.5 4.859375 16.5 9 Z M 16.5 9"/> <path style="fill:rgb(100.000%,100.000%,100.000%)" d="M 9.75 14.25 L 8.25 14.25 L 8.25 12.75 L 9.75 12.75 Z M 11.300781 8.4375 L 10.628906 9.128906 C 10.085938 9.675781 9.75 10.125 9.75 11.25 L 8.25 11.25 L 8.25 10.875 C 8.25 10.050781 8.585938 9.300781 9.128906 8.753906 L 10.058594 7.808594 C 10.335938 7.539062 10.5 7.164062 10.5 6.75 C 10.5 5.925781 9.824219 5.25 9 5.25 C 8.175781 5.25 7.5 5.925781 7.5 6.75 L 6 6.75 C 6 5.09375 7.34375 3.75 9 3.75 C 10.65625 3.75 12 5.09375 12 6.75 C 12 7.410156 11.730469 8.011719 11.300781 8.4375 Z M 11.300781 8.4375"/> </g> </svg>
