<svg width="512" height="512" version="1.1" viewBox="0 0 384 384" xmlns="http://www.w3.org/2000/svg" xmlns:xlink="http://www.w3.org/1999/xlink"><defs><filter id="alpha" x="0%" y="0%" width="100%" height="100%"><feColorMatrix in="SourceGraphic" values="0 0 0 0 1 0 0 0 0 1 0 0 0 0 1 0 0 0 1 0"/></filter><mask id="b"><g filter="url(#alpha)"><rect width="384" height="384" fill-opacity=".30196"/></g></mask><clipPath id="c"><rect width="384" height="384"/></clipPath></defs><path d="m264.85 110.31h56.926c6.6602 0 12.062 5.4024 12.062 12.062v34.043c0 6.6641-5.4023 12.062-12.062 12.062h-56.926c-6.6641 0-12.062-5.3984-12.062-12.062v-34.043c0-6.6602 5.3984-12.062 12.062-12.062z" fill="#0aa15c"/><path d="m264.85 168.47h56.926c6.6602 0 12.062 5.3984 12.062 12.062v34.043c0 6.6602-5.4023 12.062-12.062 12.062h-56.926c-6.6641 0-12.062-5.4023-12.062-12.062v-34.043c0-6.6641 5.3984-12.062 12.062-12.062z" fill="#357af0"/><g stroke-width="1.3333"><path transform="scale(.75)" d="m353.13 147.08c-8.8854 0-16.082 7.2038-16.082 16.084v10c0-8.8802 7.1966-16.084 16.082-16.084h75.902c8.8802 0 16.082 7.2038 16.082 16.084v-10c0-8.8802-7.2018-16.084-16.082-16.084h-75.902z" fill="#fff" opacity=".3"/><path transform="scale(.75)" d="m337.05 198.55v10c0 8.8854 7.1966 16.082 16.082 16.082h75.902c8.8802 0 16.082-7.1966 16.082-16.082v-10c0 8.8854-7.2018 16.082-16.082 16.082h-75.902c-8.8854 0-16.082-7.1966-16.082-16.082z" opacity=".3"/><path transform="scale(.75)" d="m353.13 224.63c-8.8854 0-16.082 7.1966-16.082 16.082v10c0-8.8854 7.1966-16.082 16.082-16.082h75.902c8.8802 0 16.082 7.1966 16.082 16.082v-10c0-8.8854-7.2018-16.082-16.082-16.082h-75.902z" fill="#fff" opacity=".3"/></g><path d="m264.85 52.141h56.926c6.6602 0 12.062 5.3984 12.062 12.062v34.043c0 6.6602-5.4023 12.062-12.062 12.062h-56.926c-6.6641 0-12.062-5.4023-12.062-12.062v-34.043c0-6.6641 5.3984-12.062 12.062-12.062z" fill="#fd7d00"/><path transform="scale(.75)" d="m353.13 69.521c-8.8854 0-16.082 7.1966-16.082 16.082v10c0-8.8854 7.1966-16.082 16.082-16.082h75.902c8.8802 0 16.082 7.1966 16.082 16.082v-10c0-8.8854-7.2018-16.082-16.082-16.082h-75.902z" fill="#fff" opacity=".3" stroke-width="1.3333"/><path transform="scale(.75)" d="m337.05 276.1v10c0 8.8802 7.1966 16.084 16.082 16.084h75.902c8.8802 0 16.082-7.2038 16.082-16.084v-10c0 8.8802-7.2018 16.084-16.082 16.084h-75.902c-8.8854 0-16.082-7.2038-16.082-16.084z" opacity=".3" stroke-width="1.3333"/><path d="m75.281 50.797h233.43c5.0898 0 9.2188 4.5117 9.2188 10.082v289.79c0 5.5664-4.1289 10.078-9.2188 10.078h-233.43c-5.0898 0-9.2148-4.5117-9.2148-10.078v-289.79c0-5.5703 4.125-10.082 9.2148-10.082z" fill="#d41717"/><path transform="scale(.75)" d="m337.05 120.99v10c0 8.8802 7.1966 16.084 16.082 16.084h75.902c8.8802 0 16.082-7.2038 16.082-16.084v-10c0 8.8802-7.2018 16.084-16.082 16.084h-75.902c-8.8854 0-16.082-7.2038-16.082-16.084z" opacity=".3" stroke-width="1.3333"/><path d="m107.16 23.25v309.95h201.55c5.1055 0 9.2148-4.4961 9.2148-10.082v-289.79c0-5.582-4.1094-10.078-9.2148-10.078z" fill="#d41717"/><path d="m75.285 23.25c-5.1055 0-9.2148 4.4961-9.2148 10.078v317.34c0 5.5156 4.0078 9.957 9.0195 10.07h32.074v-337.49z" fill="#0f2b5c"/><path d="m317.93 323.12c0 5.5859-4.1094 10.082-9.2148 10.082h-233.43c-1.0859 0-2.125-0.21485-3.0938-0.58985v20.664c0.96875 0.375 2.0078 0.58984 3.0938 0.58984h233.43c5.1055 0 9.2148-4.4961 9.2148-10.082z" fill="#fff"/><use width="100%" height="100%" mask="url(#b)" xlink:href="#a"/><path d="m226.26 123.11c-0.87152 0.0522-2.2183-0.74235-4.7598 2.2227l-8e-3 8e-3 -6e-3 8e-3c-0.77192 0.90714-0.69658 0.99995-0.80273 1.2031s-0.17654 0.35237-0.24805 0.50781c-0.14302 0.31087-0.28123 0.63365-0.44531 1.0254-0.32817 0.78348-0.74429 1.819-1.2578 3.1211-1.027 2.6043-2.43 6.2508-4.1191 10.697-3.3783 8.8929-7.8947 20.977-12.742 34.131-9.6818 26.272-18.127 49.148-18.236 49.438-5e-4 1e-3 5e-4 3e-3 0 4e-3l-2e-3 4e-3c-0.7777 2.0598-0.31697 4.1453 0.28516 5.3926 0.60291 1.2489 1.3168 2.0071 2.0254 2.6523 1.4173 1.2905 2.9505 2.111 4.7207 2.7539 1.3927 0.50579 2.7661 0.91227 4.0469 1.2012 0.64041 0.14446 1.2497 0.26073 1.916 0.33789 0.66316 0.0768 1.1918 0.27159 2.834-0.11718 2.84-0.66706 2.8564-1.584 3.166-1.9531 0.31092-0.37076 0.42442-0.56429 0.52539-0.72656 0.20193-0.32454 0.28596-0.49702 0.37695-0.67774 0.18199-0.36143 0.33213-0.69393 0.51368-1.1055 0.36309-0.82307 0.81862-1.9123 1.3808-3.2871 1.1245-2.7496 2.6584-6.6114 4.4746-11.244 3.6324-9.2654 8.3838-21.599 13.113-34.004 4.7295-12.405 9.4359-24.877 12.975-34.422 1.7694-4.7723 3.2444-8.8084 4.2949-11.764 0.52528-1.4776 0.94364-2.6807 1.25-3.6094 0.15317-0.46436 0.27813-0.85416 0.38672-1.2285 0.10777-0.37157 0.2494-0.17966 0.33984-1.8027v-2e-3c0.13425-2.3862-1.0155-3.8379-1.6738-4.5391-0.65856-0.70142-1.138-0.98869-1.5488-1.2363-0.82169-0.49527-1.4298-0.72741-2.084-0.9707-1.3083-0.48657-2.7051-0.86948-4.1582-1.2031-1.4531-0.33365-2.9011-0.60231-4.2988-0.74415-0.69889-0.0709-1.3629-0.12247-2.2344-0.0703zm0.69922 11.678c-0.19307 0.0115 0.0305 4.2e-4 0.35352 0.0332 0.0304 3e-3 0.10224 0.0198 0.13476 0.0234-0.16807-0.0417-0.43605-0.0598-0.48828-0.0566zm-57.16 1.5449-22.639 22.691-22.713 22.768 22.74 22.791v2e-3c5.1476 5.1594 9.9216 9.8465 13.504 13.275 1.7912 1.7144 3.279 3.1084 4.4082 4.127 0.56458 0.50928 1.0276 0.91683 1.4746 1.2812 0.22349 0.18221 0.4285 0.34904 0.75977 0.57618 0.16563 0.11357 0.35088 0.24195 0.72266 0.43554 0.37177 0.1936 0.64317 0.68555 2.7715 0.68555 3.219 0 3.1843-0.82731 3.7715-1.207 0.58719-0.37972 1.0534-0.74583 1.5449-1.1562 0.98307-0.82084 2.0105-1.8017 3.0449-2.9023v-2e-3l7.0996-7.5644-18.172-18.096c-3.8329-3.8175-7.323-7.4611-9.793-10.182-0.48639-0.53576-0.70707-0.81714-1.1074-1.2734 0.40988-0.47051 0.64011-0.76536 1.1406-1.3203 2.4835-2.7536 5.9907-6.442 9.8418-10.307l18.428-18.5zm85.492 0-16.828 16.123 18.428 18.5c3.8495 3.8649 7.3547 7.5509 9.8379 10.305 0.50046 0.55499 0.73078 0.84977 1.1406 1.3203-0.40058 0.45666-0.62067 0.73914-1.1074 1.2754-2.4696 2.7207-5.9578 6.3639-9.7891 10.182l-18.178 18.098 7.1016 7.5606c6.8e-4 7.2e-4 1e-3 1e-3 2e-3 2e-3l2e-3 2e-3c1.0324 1.1006 2.059 2.0799 3.041 2.9004 0.49165 0.41078 0.95557 0.77826 1.543 1.1582s0.55434 1.207 3.7734 1.207c2.1283 0 2.3998-0.49205 2.7715-0.68555 0.37169-0.1935 0.55704-0.32202 0.72266-0.43554 0.33124-0.22706 0.53622-0.39203 0.75976-0.57422 0.44709-0.36439 0.90984-0.77389 1.4746-1.2832 1.1296-1.0186 2.6167-2.4124 4.4082-4.127 3.5828-3.4289 8.3582-8.1179 13.504-13.277l22.74-22.791-22.707-22.768zm-97.801 28.9c-2.8748 2.9433-5.7826 5.93-7.8223 8.1914-1.3354 1.4806-2.4292 2.7448-3.2793 3.8086-0.42506 0.53192-0.78449 0.9995-1.1445 1.5449-0.18002 0.27271-0.36195 0.55449-0.58399 1.0059s-0.67383 0.86484-0.67383 2.8086c0 1.9345 0.45253 2.3574 0.67579 2.8106 0.0448 0.091 0.0753 0.12456 0.11718 0.20313l-3.8047-3.8145 14.467-14.506zm110.12 8e-3 2.041 2.0449 14.465 14.506-3.8047 3.8145c0.0419-0.0787 0.0723-0.11197 0.11718-0.20313 0.22324-0.45317 0.67579-0.87604 0.67579-2.8106 0-1.9438-0.45181-2.3572-0.67383-2.8086-0.22203-0.45136-0.40398-0.73317-0.58399-1.0059-0.36-0.54539-0.71758-1.013-1.1426-1.5449-0.84999-1.0638-1.9462-2.3261-3.2812-3.8066-2.0374-2.2593-4.9422-5.2454-7.8125-8.1856zm-98.887 48.311c-0.0186 0.0157-0.0544 0.0534-0.0723 0.0684-0.25114 0.20969-0.4484 0.34676-0.39844 0.31445 0.0279-0.018 0.0696-0.20429 0.47071-0.38281zm87.648 0c0.40118 0.17858 0.44457 0.36464 0.47266 0.38281 0.0503 0.0325-0.1479-0.10317-0.39844-0.3125-0.0184-0.0154-0.0551-0.0541-0.0742-0.0703z" color="#000000" color-rendering="auto" dominant-baseline="auto" image-rendering="auto" opacity=".3" shape-rendering="auto" solid-color="#000000" style="font-feature-settings:normal;font-variant-alternates:normal;font-variant-caps:normal;font-variant-ligatures:normal;font-variant-numeric:normal;font-variant-position:normal;isolation:auto;mix-blend-mode:normal;shape-padding:0;text-decoration-color:#000000;text-decoration-line:none;text-decoration-style:solid;text-indent:0;text-orientation:mixed;text-transform:none;white-space:normal"/><path d="m226.26 115.61c-0.87152 0.0522-2.2183-0.74236-4.7598 2.2227l-8e-3 8e-3 -6e-3 8e-3c-0.77192 0.90714-0.69658 0.99995-0.80273 1.2031s-0.17654 0.35237-0.24805 0.50781c-0.14302 0.31087-0.28123 0.63365-0.44531 1.0254-0.32817 0.78348-0.74429 1.819-1.2578 3.1211-1.027 2.6043-2.43 6.2508-4.1191 10.697-3.3783 8.8929-7.8947 20.977-12.742 34.131-9.6818 26.272-18.127 49.147-18.236 49.438-5e-4 1e-3 5e-4 3e-3 0 4e-3l-2e-3 4e-3c-0.7777 2.0598-0.31697 4.1453 0.28516 5.3926 0.60292 1.2489 1.3168 2.0071 2.0254 2.6523 1.4173 1.2905 2.9505 2.111 4.7207 2.7539 1.3927 0.5058 2.7661 0.91226 4.0469 1.2012 0.64041 0.14446 1.2497 0.26073 1.916 0.33789 0.66317 0.0768 1.1918 0.27158 2.834-0.11718 2.84-0.66706 2.8564-1.584 3.166-1.9531 0.31092-0.37076 0.42442-0.56429 0.52539-0.72656 0.20193-0.32454 0.28596-0.49702 0.37695-0.67774 0.18199-0.36143 0.33213-0.69393 0.51368-1.1055 0.36309-0.82307 0.81862-1.9123 1.3808-3.2871 1.1245-2.7496 2.6584-6.6114 4.4746-11.244 3.6324-9.2654 8.3838-21.599 13.113-34.004 4.7295-12.405 9.4359-24.877 12.975-34.422 1.7694-4.7723 3.2444-8.8084 4.2949-11.764 0.52528-1.4776 0.94364-2.6807 1.25-3.6094 0.15317-0.46436 0.27813-0.85416 0.38672-1.2285 0.10777-0.37157 0.24939-0.17968 0.33984-1.8027v-2e-3c0.13425-2.3862-1.0155-3.8379-1.6738-4.5391-0.65856-0.70142-1.138-0.98869-1.5488-1.2363-0.82169-0.49527-1.4298-0.72741-2.084-0.9707-1.3083-0.48657-2.7051-0.86948-4.1582-1.2031-1.4531-0.33365-2.9011-0.60231-4.2988-0.74415-0.69889-0.0709-1.3629-0.12247-2.2344-0.0703zm0.69922 11.678c-0.19307 0.0115 0.0305 4.2e-4 0.35352 0.0332 0.0304 3e-3 0.10224 0.0198 0.13476 0.0234-0.16807-0.0417-0.43605-0.0598-0.48828-0.0566zm-57.16 1.5449-22.639 22.691-22.713 22.768 22.74 22.791v2e-3c5.1476 5.1594 9.9216 9.8465 13.504 13.275 1.7912 1.7144 3.279 3.1084 4.4082 4.127 0.56458 0.50928 1.0276 0.91683 1.4746 1.2812 0.22349 0.18221 0.4285 0.34904 0.75977 0.57618 0.16563 0.11357 0.35088 0.24195 0.72266 0.43554 0.37177 0.1936 0.64317 0.68555 2.7715 0.68555 3.2191 0 3.1843-0.82731 3.7715-1.207 0.58719-0.37972 1.0534-0.74583 1.5449-1.1562 0.98307-0.82084 2.0105-1.8017 3.0449-2.9023v-2e-3l7.0996-7.5644-18.172-18.096c-3.8329-3.8175-7.323-7.4611-9.793-10.182-0.48639-0.53576-0.70707-0.81714-1.1074-1.2734 0.40988-0.47051 0.64011-0.76536 1.1406-1.3203 2.4835-2.7536 5.9906-6.442 9.8418-10.307l18.428-18.5zm85.492 0-16.828 16.123 18.428 18.5c3.8495 3.8649 7.3547 7.5509 9.8379 10.305 0.50046 0.55499 0.73078 0.84977 1.1406 1.3203-0.40058 0.45666-0.62067 0.73914-1.1074 1.2754-2.4696 2.7207-5.9578 6.3639-9.7891 10.182l-18.178 18.098 7.1016 7.5606c6.8e-4 7.2e-4 1e-3 1e-3 2e-3 2e-3l2e-3 2e-3c1.0324 1.1006 2.059 2.0799 3.041 2.9004 0.49165 0.41078 0.95557 0.77825 1.543 1.1582 0.58741 0.37994 0.5544 1.207 3.7734 1.207 2.1283 0 2.3998-0.49205 2.7715-0.68555 0.37169-0.1935 0.55704-0.32202 0.72266-0.43554 0.33124-0.22706 0.53622-0.39203 0.75976-0.57422 0.44709-0.36439 0.90984-0.77389 1.4746-1.2832 1.1296-1.0186 2.6167-2.4124 4.4082-4.127 3.5828-3.4289 8.3582-8.1179 13.504-13.277l22.74-22.791-22.707-22.768z" color="#000000" color-rendering="auto" dominant-baseline="auto" fill="#fff" image-rendering="auto" shape-rendering="auto" solid-color="#000000" style="font-feature-settings:normal;font-variant-alternates:normal;font-variant-caps:normal;font-variant-ligatures:normal;font-variant-numeric:normal;font-variant-position:normal;isolation:auto;mix-blend-mode:normal;shape-padding:0;text-decoration-color:#000000;text-decoration-line:none;text-decoration-style:solid;text-indent:0;text-orientation:mixed;text-transform:none;white-space:normal"/><path transform="scale(.75)" d="m100.38 31c-6.8073 0-12.287 5.9948-12.287 13.438v10c0-7.4427 5.4798-13.438 12.287-13.438h311.23c6.8073 0 12.287 5.9948 12.287 13.438v-10c0-7.4427-5.4798-13.438-12.287-13.438h-311.23z" fill="#fcfcfc" opacity=".3" stroke-width="1.3333"/><g id="a" clip-path="url(#c)"><path d="m66.07 316.23v34.438c0 4.3984 2.5508 8.1055 6.1211 9.4922 0.003906 0 0.007813 0 0.011719 0.003906 0.21875 0.085938 0.44531 0.16016 0.67188 0.22656 0.046875 0.015625 0.09375 0.027344 0.14062 0.039063 0.19922 0.058593 0.40625 0.10937 0.61328 0.14844 0.10938 0.023437 0.22266 0.039063 0.33203 0.054687 0.15234 0.027344 0.30078 0.050782 0.45703 0.070313 0.28516 0.027344 0.57422 0.046875 0.86719 0.046875h233.43c2.5508 0 4.8555-1.125 6.5195-2.9453 1.668-1.8242 2.6953-4.3438 2.6953-7.1328v-6.8906c0 5.5859-4.1094 10.082-9.2148 10.082h-233.43c-1.0859 0-2.125-0.21484-3.0938-0.58984v-13.777c0.96875 0.375 2.0078 0.58984 3.0938 0.58984h233.43c5.1055 0 9.2148-4.4961 9.2148-10.078v-13.777c0 5.5859-4.1094 10.082-9.2148 10.082h-233.43c-5.1055 0-9.2148-4.4961-9.2148-10.082zm9.1523 16.965c1.8984 0 3.8086 0 5.707 0.003907h-5.6445c-0.023437 0-0.042968-0.003907-0.0625-0.003907z" fill="#010000" opacity=".3"/></g></svg>
