<svg width="512" height="512" version="1.1" viewBox="0 0 135.47 135.47" xmlns="http://www.w3.org/2000/svg" xmlns:xlink="http://www.w3.org/1999/xlink"><defs><linearGradient id="a"><stop stop-color="#ffd86e" offset="0"/><stop stop-color="#fd7d00" offset="1"/></linearGradient><radialGradient id="c" cx="41.722" cy="86.226" r="64.152" gradientTransform="matrix(1 0 0 .66209 0 29.137)" gradientUnits="userSpaceOnUse" xlink:href="#a"/><radialGradient id="b" cx="41.722" cy="86.226" r="64.152" gradientTransform="matrix(.9445 -.32852 .21751 .62534 9.5721 38.103)" gradientUnits="userSpaceOnUse" xlink:href="#a"/></defs><g fill-rule="evenodd" stroke-linecap="round" stroke-linejoin="round" stroke-miterlimit="16.8" stroke-width="1.4"><path d="m85.945 33.037a42.474 64.152 70.821 0 0-32.165 5.1635 42.474 64.152 70.821 0 0-46.637 61.192 42.474 64.152 70.821 0 0 74.545 19.041 42.474 64.152 70.821 0 0 46.637-61.192 42.474 64.152 70.821 0 0-42.38-24.205zm-3.2329 19.486a11.261 29.738 68.917 0 1 8.5163 2.2515 11.261 29.738 68.917 0 1-16.177 20.651 11.261 29.738 68.917 0 1-36.207 4.8183 11.261 29.738 68.917 0 1 16.177-20.65 11.261 29.738 68.917 0 1 27.69-7.0704z" fill="url(#b)"/><path d="m85.945 33.037a42.474 64.152 70.821 0 0-32.165 5.1635 42.474 64.152 70.821 0 0-46.637 61.192 42.474 64.152 70.821 0 0 74.545 19.041 42.474 64.152 70.821 0 0 46.637-61.192 42.474 64.152 70.821 0 0-42.38-24.205zm-3.2329 19.486a11.261 29.738 68.917 0 1 8.5163 2.2515 11.261 29.738 68.917 0 1-16.177 20.651 11.261 29.738 68.917 0 1-36.207 4.8183 11.261 29.738 68.917 0 1 16.177-20.65 11.261 29.738 68.917 0 1 27.69-7.0704z" opacity=".24712" style="mix-blend-mode:overlay"/><path transform="rotate(-19.179)" d="m73.798 49.442a64.152 42.474 0 0 0-32.076-5.69 64.152 42.474 0 0 0-64.152 42.474 64.152 42.474 0 0 0 64.152 42.474 64.152 42.474 0 0 0 64.152-42.474 64.152 42.474 0 0 0-32.076-36.784zm-9.4551 17.343a11.261 29.738 88.096 0 1 7.3039 4.9244 11.261 29.738 88.096 0 1-22.063 14.19 11.261 29.738 88.096 0 1-35.78-7.3438 11.261 29.738 88.096 0 1 22.063-14.19 11.261 29.738 88.096 0 1 28.476 2.419z" fill="url(#c)"/><path transform="rotate(-19.179)" d="m73.798 49.442a64.152 42.474-180 0 0-32.076-5.69 64.152 42.474-180 0 0-62.922 34.197 64.152 42.474 0 0 1 62.053-31.698 64.152 42.474 0 0 1 32.076 5.69 64.152 42.474 0 0 1 32.076 36.784 64.152 42.474 0 0 1-1.2314 8.2782 64.152 42.474-180 0 0 2.1006-10.777 64.152 42.474-180 0 0-32.076-36.784zm-2.225 27.583a11.261 29.738 88.096 0 1-21.989 8.8737 11.261 29.738 88.096 0 1-35.78-7.3438 11.261 29.738 88.096 0 1-0.79493-2.8174 11.261 29.738 88.096 0 0-0.074287 5.3164 11.261 29.738 88.096 0 0 35.78 7.3438 11.261 29.738 88.096 0 0 22.859-11.373z" fill="#fff" opacity=".3"/></g></svg>
