<svg width="512" height="512" version="1.1" viewBox="0 0 384 384" xmlns="http://www.w3.org/2000/svg"><path d="m27.063 30.75c-2.1055 0-3.813 2.0039-3.813 4.4766v66.051c0 2.4688 1.7075 4.4722 3.813 4.4722h67.372c2.1094 0 3.813-2.0034 3.813-4.4722v-66.051c0-2.4727-1.7036-4.4766-3.813-4.4766zm87.497 0c-2.1055 0-3.813 2.0039-3.813 4.4766v66.051c0 2.4688 1.7075 4.4722 3.813 4.4722h67.375c2.1055 0 3.813-2.0034 3.813-4.4722v-66.051c0-2.4727-1.7075-4.4766-3.813-4.4766zm87.5 0c-2.1055 0-3.813 2.0039-3.813 4.4766v66.051c0 2.4688 1.7075 4.4722 3.813 4.4722h67.376c2.1055 0 3.8116-2.0034 3.8116-4.4722v-66.051c0-2.4727-1.706-4.4766-3.8116-4.4766zm87.5 0c-2.1055 0-3.8116 2.0039-3.8116 4.4766v66.051c0 2.4688 1.7061 4.4722 3.8116 4.4722h67.376c2.1055 0 3.813-2.0034 3.813-4.4722v-66.051c0-2.4727-1.7075-4.4766-3.813-4.4766zm-262.5 87.501c-2.1055 0-3.813 2.0039-3.813 4.4766v66.047c0 2.4726 1.7075 4.4766 3.813 4.4766h67.372c2.1094 0 3.813-2.0039 3.813-4.4766v-66.047c0-2.4726-1.7036-4.4766-3.813-4.4766zm87.497 0c-2.1055 0-3.813 2.0039-3.813 4.4766v66.047c0 2.4726 1.7075 4.4766 3.813 4.4766h67.375c2.1055 0 3.813-2.0039 3.813-4.4766v-66.047c0-2.4726-1.7075-4.4766-3.813-4.4766zm87.5 0c-2.1055 0-3.813 2.0039-3.813 4.4766v66.047c0 2.4726 1.7075 4.4766 3.813 4.4766h67.376c2.1055 0 3.8116-2.0039 3.8116-4.4766v-66.047c0-2.4726-1.706-4.4766-3.8116-4.4766zm87.5 0c-2.1055 0-3.8116 2.0039-3.8116 4.4766v66.047c0 2.4726 1.7061 4.4766 3.8116 4.4766h67.376c2.1055 0 3.813-2.0039 3.813-4.4766v-66.047c0-2.4726-1.7075-4.4766-3.813-4.4766zm-262.5 87.5c-2.1055 0-3.813 2.0039-3.813 4.4766v66.047c0 2.4727 1.7075 4.4766 3.813 4.4766h67.372c2.1094 0 3.813-2.0039 3.813-4.4766v-66.047c0-2.4726-1.7036-4.4766-3.813-4.4766zm87.497 0c-2.1055 0-3.813 2.0039-3.813 4.4766v66.047c0 2.4727 1.7075 4.4766 3.813 4.4766h67.375c2.1055 0 3.813-2.0039 3.813-4.4766v-66.047c0-2.4726-1.7075-4.4766-3.813-4.4766zm87.5 0c-2.1055 0-3.813 2.0039-3.813 4.4766v66.047c0 2.4727 1.7075 4.4766 3.813 4.4766h67.376c2.1055 0 3.8116-2.0039 3.8116-4.4766v-66.047c0-2.4726-1.706-4.4766-3.8116-4.4766zm87.5 0c-2.1055 0-3.8116 2.0039-3.8116 4.4766v66.047c0 2.4727 1.7061 4.4766 3.8116 4.4766h67.376c2.1055 0 3.813-2.0039 3.813-4.4766v-66.047c0-2.4726-1.7075-4.4766-3.813-4.4766zm-262.5 87.5c-2.1055 0-3.813 2.0049-3.813 4.4736v66.05c0 2.4726 1.7075 4.4766 3.813 4.4766h67.372c2.1094 0 3.813-2.0039 3.813-4.4766v-66.05c0-2.4688-1.7036-4.4736-3.813-4.4736zm87.497 0c-2.1055 0-3.813 2.0049-3.813 4.4736v66.05c0 2.4726 1.7075 4.4766 3.813 4.4766h67.375c2.1055 0 3.813-2.0039 3.813-4.4766v-66.05c0-2.4688-1.7075-4.4736-3.813-4.4736zm87.5 0c-2.1055 0-3.813 2.0049-3.813 4.4736v66.05c0 2.4726 1.7075 4.4766 3.813 4.4766h67.376c2.1055 0 3.8116-2.0039 3.8116-4.4766v-66.05c0-2.4688-1.706-4.4736-3.8116-4.4736zm87.5 0c-2.1055 0-3.8116 2.0049-3.8116 4.4736v66.05c0 2.4726 1.7061 4.4766 3.8116 4.4766h67.376c2.1055 0 3.813-2.0039 3.813-4.4766v-66.05c0-2.4688-1.7075-4.4736-3.813-4.4736z" opacity=".3"/><path d="m27.063 23.25h67.372c2.1094 0 3.8125 2.0039 3.8125 4.4766v66.051c0 2.4688-1.7031 4.4727-3.8125 4.4727h-67.372c-2.1055 0-3.8125-2.0039-3.8125-4.4727v-66.051c0-2.4727 1.7071-4.4766 3.8125-4.4766z" fill="#353a4a"/><path d="m114.56 23.25h67.376c2.1055 0 3.8125 2.0039 3.8125 4.4766v66.051c0 2.4688-1.707 4.4727-3.8125 4.4727h-67.376c-2.1055 0-3.8126-2.0039-3.8126-4.4727v-66.051c0-2.4727 1.707-4.4766 3.8126-4.4766z" fill="#fff"/><path d="m202.06 23.25h67.376c2.1055 0 3.8125 2.0039 3.8125 4.4766v66.051c0 2.4688-1.707 4.4727-3.8125 4.4727h-67.376c-2.1055 0-3.8126-2.0039-3.8126-4.4727v-66.051c0-2.4727 1.707-4.4766 3.8126-4.4766z" fill="#fd4747" fill-opacity=".99608"/><g fill="#fff"><path d="m289.56 23.25h67.376c2.1055 0 3.8125 2.0039 3.8125 4.4766v66.051c0 2.4688-1.707 4.4727-3.8125 4.4727h-67.376c-2.1055 0-3.8125-2.0039-3.8125-4.4727v-66.051c0-2.4727 1.707-4.4766 3.8125-4.4766z"/><path d="m27.063 110.75h67.372c2.1094 0 3.8125 2.0039 3.8125 4.4766v66.047c0 2.4726-1.7031 4.4766-3.8125 4.4766h-67.372c-2.1055 0-3.8125-2.0039-3.8125-4.4766v-66.047c0-2.4726 1.7071-4.4766 3.8125-4.4766z"/><path d="m114.56 110.75h67.376c2.1055 0 3.8125 2.0039 3.8125 4.4766v66.047c0 2.4726-1.707 4.4766-3.8125 4.4766h-67.376c-2.1055 0-3.8126-2.0039-3.8126-4.4766v-66.047c0-2.4726 1.707-4.4766 3.8126-4.4766z"/></g><path d="m202.06 110.75h67.376c2.1055 0 3.8125 2.0039 3.8125 4.4766v66.047c0 2.4726-1.707 4.4766-3.8125 4.4766h-67.376c-2.1055 0-3.8126-2.0039-3.8126-4.4766v-66.047c0-2.4726 1.707-4.4766 3.8126-4.4766z" fill="#fd4747" fill-opacity=".99608"/><path d="m289.56 110.75h67.376c2.1055 0 3.8125 2.0039 3.8125 4.4766v66.047c0 2.4726-1.707 4.4766-3.8125 4.4766h-67.376c-2.1055 0-3.8125-2.0039-3.8125-4.4766v-66.047c0-2.4726 1.707-4.4766 3.8125-4.4766z" fill="#fff"/><path d="m27.063 198.25h67.372c2.1094 0 3.8125 2.0039 3.8125 4.4766v66.047c0 2.4726-1.7031 4.4766-3.8125 4.4766h-67.372c-2.1055 0-3.8125-2.0039-3.8125-4.4766v-66.047c0-2.4726 1.7071-4.4766 3.8125-4.4766z" fill="#fff"/><path d="m114.56 198.25h67.376c2.1055 0 3.8125 2.0039 3.8125 4.4766v66.047c0 2.4726-1.707 4.4766-3.8125 4.4766h-67.376c-2.1055 0-3.8126-2.0039-3.8126-4.4766v-66.047c0-2.4726 1.707-4.4766 3.8126-4.4766z" fill="#353a4a"/><path d="m202.06 198.25h67.376c2.1055 0 3.8125 2.0039 3.8125 4.4766v66.047c0 2.4726-1.707 4.4766-3.8125 4.4766h-67.376c-2.1055 0-3.8126-2.0039-3.8126-4.4766v-66.047c0-2.4726 1.707-4.4766 3.8126-4.4766z" fill="#fff"/><path d="m289.56 198.25h67.376c2.1055 0 3.8125 2.0039 3.8125 4.4766v66.047c0 2.4726-1.707 4.4766-3.8125 4.4766h-67.376c-2.1055 0-3.8125-2.0039-3.8125-4.4766v-66.047c0-2.4726 1.707-4.4766 3.8125-4.4766z" fill="#21b8c2"/><g fill="#fff"><path d="m27.063 285.75h67.372c2.1094 0 3.8125 2.0039 3.8125 4.4727v66.051c0 2.4726-1.7031 4.4766-3.8125 4.4766h-67.372c-2.1055 0-3.8125-2.0039-3.8125-4.4766v-66.051c0-2.4688 1.7071-4.4727 3.8125-4.4727z"/><path d="m114.56 285.75h67.376c2.1055 0 3.8125 2.0039 3.8125 4.4727v66.051c0 2.4726-1.707 4.4766-3.8125 4.4766h-67.376c-2.1055 0-3.8126-2.0039-3.8126-4.4766v-66.051c0-2.4688 1.707-4.4727 3.8126-4.4727z"/><path d="m202.06 285.75h67.376c2.1055 0 3.8125 2.0039 3.8125 4.4727v66.051c0 2.4726-1.707 4.4766-3.8125 4.4766h-67.376c-2.1055 0-3.8126-2.0039-3.8126-4.4766v-66.051c0-2.4688 1.707-4.4727 3.8126-4.4727z"/><path d="m289.56 285.75h67.376c2.1055 0 3.8125 2.0039 3.8125 4.4727v66.051c0 2.4726-1.707 4.4766-3.8125 4.4766h-67.376c-2.1055 0-3.8125-2.0039-3.8125-4.4766v-66.051c0-2.4688 1.707-4.4727 3.8125-4.4727z"/><path transform="scale(.75)" d="m36.084 31c-2.8073 0-5.084 2.6719-5.084 5.9688v10c0-3.2969 2.2767-5.9688 5.084-5.9688h89.828c2.8125 0 5.084 2.6719 5.084 5.9688v-10c0-3.2969-2.2715-5.9688-5.084-5.9688z" opacity=".3" stroke-width="1.3333" style="opacity:.1"/></g><path transform="scale(.75)" d="m152.75 31c-2.8073 0-5.084 2.6719-5.084 5.9688v10c0-3.2969 2.2767-5.9688 5.084-5.9688h89.832c2.8073 0 5.084 2.6719 5.084 5.9688v-10c0-3.2969-2.2767-5.9688-5.084-5.9688z" opacity=".1" stroke-width="1.3333"/><path d="m201.65 23.25c-2.1055 0-3.813 2.0039-3.813 4.4766v7.5c0-2.4727 1.7075-4.4766 3.813-4.4766h67.375c2.1055 0 3.8115 2.0039 3.8115 4.4766v-7.5c0-2.4726-1.706-4.4766-3.8115-4.4766z" fill="#fff" opacity=".3"/><g stroke-width="1.3333"><path transform="scale(.75)" d="m386.08 31c-2.8073 0-5.082 2.6719-5.082 5.9688v10c0-3.2969 2.2747-5.9688 5.082-5.9688h89.834c2.8073 0 5.084 2.6719 5.084 5.9688v-10c0-3.2969-2.2767-5.9688-5.084-5.9688z" opacity=".1"/><path transform="scale(.75)" d="m36.084 147.67c-2.8073 0-5.084 2.6719-5.084 5.9688v10c0-3.2968 2.2767-5.9688 5.084-5.9688h89.828c2.8125 0 5.084 2.6719 5.084 5.9688v-10c0-3.2968-2.2715-5.9688-5.084-5.9688z" opacity=".1"/><path transform="scale(.75)" d="m152.75 147.67c-2.8073 0-5.084 2.6719-5.084 5.9688v10c0-3.2968 2.2767-5.9688 5.084-5.9688h89.832c2.8073 0 5.084 2.6719 5.084 5.9688v-10c0-3.2968-2.2767-5.9688-5.084-5.9688z" opacity=".1"/><path transform="scale(.75)" d="m269.41 147.67c-2.8073 0-5.084 2.6719-5.084 5.9688v10c0-3.2968 2.2767-5.9688 5.084-5.9688h89.834c2.8073 0 5.082 2.6719 5.082 5.9688v-10c0-3.2968-2.2747-5.9688-5.082-5.9688z" fill="#fff" opacity=".3"/><path transform="scale(.75)" d="m386.08 147.67c-2.8073 0-5.082 2.6719-5.082 5.9688v10c0-3.2968 2.2747-5.9688 5.082-5.9688h89.834c2.8073 0 5.084 2.6719 5.084 5.9688v-10c0-3.2968-2.2767-5.9688-5.084-5.9688z" opacity=".1"/><path transform="scale(.75)" d="m36.084 264.33c-2.8073 0-5.084 2.6719-5.084 5.9688v10c0-3.2968 2.2767-5.9688 5.084-5.9688h89.828c2.8125 0 5.084 2.6719 5.084 5.9688v-10c0-3.2969-2.2715-5.9688-5.084-5.9688z" opacity=".1"/><path transform="scale(.75)" d="m152.75 264.33c-2.8073 0-5.084 2.6719-5.084 5.9688v10c0-3.2968 2.2767-5.9688 5.084-5.9688h89.832c2.8073 0 5.084 2.6719 5.084 5.9688v-10c0-3.2969-2.2767-5.9688-5.084-5.9688z" fill="#fff" opacity=".3" style="opacity:.1"/><path transform="scale(.75)" d="m269.41 264.33c-2.8073 0-5.084 2.6719-5.084 5.9688v10c0-3.2968 2.2767-5.9688 5.084-5.9688h89.834c2.8073 0 5.082 2.6719 5.082 5.9688v-10c0-3.2969-2.2747-5.9688-5.082-5.9688z" opacity=".1"/><path transform="scale(.75)" d="m386.08 264.33c-2.8073 0-5.082 2.6719-5.082 5.9688v10c0-3.2968 2.2747-5.9688 5.082-5.9688h89.834c2.8073 0 5.084 2.6719 5.084 5.9688v-10c0-3.2969-2.2767-5.9688-5.084-5.9688z" fill="#fff" opacity=".3"/><path transform="scale(.75)" d="m36.084 381c-2.8073 0-5.084 2.6732-5.084 5.9648v10c0-3.2917 2.2767-5.9648 5.084-5.9648h89.828c2.8125 0 5.084 2.6732 5.084 5.9648v-10c0-3.2917-2.2715-5.9648-5.084-5.9648z" opacity=".1"/><path transform="scale(.75)" d="m152.75 381c-2.8073 0-5.084 2.6732-5.084 5.9648v10c0-3.2917 2.2767-5.9648 5.084-5.9648h89.832c2.8073 0 5.084 2.6732 5.084 5.9648v-10c0-3.2917-2.2767-5.9648-5.084-5.9648z" opacity=".1"/><path transform="scale(.75)" d="m269.41 381c-2.8073 0-5.084 2.6732-5.084 5.9648v10c0-3.2917 2.2767-5.9648 5.084-5.9648h89.834c2.8073 0 5.082 2.6732 5.082 5.9648v-10c0-3.2917-2.2747-5.9648-5.082-5.9648z" opacity=".1"/><path transform="scale(.75)" d="m386.08 381c-2.8073 0-5.082 2.6732-5.082 5.9648v10c0-3.2917 2.2747-5.9648 5.082-5.9648h89.834c2.8073 0 5.084 2.6732 5.084 5.9648v-10c0-3.2917-2.2767-5.9648-5.084-5.9648z" opacity=".1"/></g></svg>
