<svg width="512" height="512" version="1.1" viewBox="0 0 384 384" xmlns="http://www.w3.org/2000/svg"><defs><clipPath><rect width="384" height="384"/></clipPath><clipPath><rect width="384" height="384"/></clipPath><clipPath><rect width="384" height="384"/></clipPath></defs><path d="m192 32c-88.367 0-160 71.633-160 160s71.633 160 160 160 160-71.633 160-160-71.633-160-160-160z" fill="#4a4a4a"/><path transform="scale(.75)" d="m256 106c-88.365 0-160 71.635-160 160s71.635 160 160 160c88.365 0 160-71.635 160-160 0-88.365-71.635-160-160-160zm-37.635 32h91.426l-21.369 76.662 27.469-9.6152-14.178 56.381-29.582 10.359-13.146 47.547h103.68l-14.176 53.332h-199.16l21.4-65.391-21.4 7.4844 14.176-56.379 23.496-8.2305 31.359-112.15z" opacity=".5" stroke-width="1.3333"/><path transform="scale(.75)" d="m256 96c-88.365 0-160 71.635-160 160s71.635 160 160 160 160-71.635 160-160-71.635-160-160-160zm-37.635 32h91.426l-21.369 76.662 27.469-9.6152-14.178 56.381-29.582 10.359-13.146 47.547h103.68l-14.176 53.332h-199.16l21.4-65.391-21.4 7.4844 14.176-56.379 23.496-8.2305 31.359-112.15z" fill="#fff" stroke-width="1.3333"/><path transform="scale(.75)" d="m42.73 251c-0.038251 1.6626-0.064453 3.3282-0.064453 5 0 117.82 95.511 213.33 213.33 213.33s213.33-95.511 213.33-213.33c0-1.6718-0.0262-3.3374-0.06445-5-2.6575 115.51-97.118 208.33-213.27 208.33s-210.61-92.822-213.27-208.33z" opacity=".5" stroke-width="1.3333"/><path transform="scale(.75)" d="m256 42.666c-117.82 0-213.33 95.511-213.33 213.33 0 1.6718 0.026202 3.3374 0.064453 5 2.6575-115.51 97.118-208.33 213.27-208.33s210.61 92.822 213.27 208.33c0.03825-1.6626 0.06445-3.3282 0.06445-5 0-117.82-95.511-213.33-213.33-213.33z" fill="#fff" opacity=".1" stroke-width="1.3333"/></svg>
