<svg version="1.1" viewBox="0 0 512 512" xmlns="http://www.w3.org/2000/svg" xmlns:xlink="http://www.w3.org/1999/xlink"><defs><linearGradient id="a" x1="21.002" x2="491" y1="-191.99" y2="-191.99" gradientTransform="translate(-.0034936 447.99)" gradientUnits="userSpaceOnUse"><stop stop-color="#fd3535" offset="0"/><stop stop-color="#951212" offset="1"/></linearGradient></defs><g><path d="m392.93 92.93c-4.6962 0-8.4957 3.8053-8.4957 8.4986 0 4.6934 3.7995 8.4986 8.4957 8.4986 53.486 0 96.85 43.358 96.85 96.85 0 4.6934 3.8024 8.4986 8.4986 8.4986 4.6905 0 8.4986-3.8053 8.4986-8.4986 0-62.876-50.974-113.85-113.85-113.85z" fill="#fff" opacity=".2" stroke="#000" stroke-width="10"/><path d="m50.653 79.164h410.7c11.021 0 19.953 8.9323 19.953 19.953v313.76c0 11.021-8.9323 19.958-19.953 19.958h-410.7c-11.021 0-19.958-8.9375-19.958-19.958v-313.76c0-11.021 8.9375-19.953 19.958-19.953z" fill="url(#a)" fill-rule="evenodd"/><path d="m81.649 199.59v15.381c-6.4424 1.0816-11.88 3.2298-15.986 6.7676l-2e-3 2e-3c-5.198 4.4892-7.873 10.908-7.873 18.375 0 6.9306 2.4888 12.918 7.3184 17.074l4e-3 4e-3 6e-3 8e-3c3.9314 3.3471 9.6279 5.5375 16.533 7.1289v22.809c-2.3554-0.31275-4.7263-0.54873-7.002-1.2383-4.0485-1.2919-8.0907-3.1844-12.131-5.7188l-4.7285-2.9668v18.865l1.8828 0.79883c4.5796 1.9426 9.1519 3.4122 13.711 4.4141l0.0117 4e-3 0.0156 4e-3c2.7479 0.57537 5.4942 0.81967 8.2402 1.0762v19.268h17.365v-19.619c6.8332-1.1101 12.568-3.3347 16.859-7.0156l2e-3 -4e-3c5.4084-4.6526 8.1875-11.28 8.1875-19.002 0-7.1999-2.6548-13.408-7.7734-17.719l-2e-3 -4e-3 -4e-3 -2e-3c-4.1519-3.4863-10.093-5.7438-17.27-7.3359v-20.906c1.6142 0.25422 3.2543 0.42046 4.8203 0.83594l4e-3 2e-3h4e-3c3.4458 0.90389 6.7963 2.1727 10.051 3.8242l4.4883 2.2754v-18.196l-2.1309-0.69532c-3.5931-1.1731-7.2713-2.0741-11.033-2.7226-2.0152-0.36944-4.1159-0.56202-6.2031-0.78125v-14.99zm3.0918 26.93v2e-3h-0.01c3e-3 -6.3e-4 6e-3 -1e-3 0.01-2e-3zm-3.0918 4.123v16.4c-1.6129-0.6184-2.9578-1.2828-3.7891-1.9785-1.6304-1.407-2.4082-3.1088-2.4082-6.0078 0-2.9382 0.84684-4.8142 2.7402-6.4648l2e-3 -2e-3c1e-3 -8.8e-4 3e-3 -2e-3 4e-3 -4e-3 0.87535-0.75811 2.0641-1.3925 3.4512-1.9434zm17.365 37.807c1.9285 0.72556 3.5557 1.5108 4.5449 2.3516l0.016 0.016c1.9207 1.6094 2.7637 3.435 2.7637 6.373 0 2.9948-0.89143 4.9353-2.9609 6.6895l-8e-3 8e-3 -0.01 6e-3c-1.0296 0.88378-2.5618 1.6265-4.3457 2.2812zm28.213 48.859v15.1h72.57v-15.1h-3.0879z" opacity=".5"/><path d="m81.649 189.59v15.381c-6.4424 1.0816-11.88 3.2298-15.986 6.7676l-0.0019 2e-3c-5.198 4.4892-7.873 10.908-7.873 18.375 0 6.9306 2.4888 12.918 7.3184 17.074l0.0039 4e-3 0.0059 8e-3c3.9314 3.3471 9.6279 5.5375 16.533 7.1289v22.809c-2.3554-0.31275-4.7263-0.54873-7.002-1.2383-4.0485-1.2919-8.0907-3.1844-12.131-5.7188l-4.7285-2.9668v18.865l1.8828 0.79883c4.5796 1.9426 9.1519 3.4122 13.711 4.4141l0.01172 4e-3 0.01562 4e-3c2.7479 0.57537 5.4942 0.81967 8.2402 1.0762v19.268h17.365v-19.619c6.8332-1.1101 12.568-3.3347 16.859-7.0156l2e-3 -4e-3c5.4084-4.6526 8.1875-11.28 8.1875-19.002 0-7.1999-2.6548-13.408-7.7734-17.719l-2e-3 -4e-3 -4e-3 -2e-3c-4.1519-3.4863-10.093-5.7438-17.27-7.3359v-20.906c1.6142 0.25422 3.2543 0.42046 4.8203 0.83594l4e-3 2e-3h4e-3c3.4458 0.90389 6.7963 2.1727 10.051 3.8242l4.4883 2.2754v-18.196l-2.1309-0.69532c-3.5931-1.1731-7.2713-2.0741-11.033-2.7226-2.0152-0.36944-4.1159-0.56202-6.2031-0.78125v-14.99zm3.0918 26.93v2e-3h-0.0098c0.0033-6.3e-4 0.0064-1e-3 0.0098-2e-3zm-3.0918 4.123v16.4c-1.6129-0.6184-2.9578-1.2828-3.7891-1.9785-1.6304-1.407-2.4082-3.1088-2.4082-6.0078 0-2.9382 0.84684-4.8142 2.7402-6.4648l2e-3 -2e-3c1e-3 -8.8e-4 0.0029-2e-3 0.0039-4e-3 0.87535-0.75811 2.0641-1.3925 3.4512-1.9434zm17.365 37.807c1.9285 0.72556 3.5557 1.5108 4.5449 2.3516l0.016 0.016c1.9207 1.6094 2.7637 3.435 2.7637 6.373 0 2.9948-0.89143 4.9353-2.9609 6.6895l-8e-3 8e-3 -0.01 6e-3c-1.0296 0.88378-2.5618 1.6265-4.3457 2.2812zm28.213 48.859v15.1h72.57v-15.1h-3.0879z" fill="#fff"/><path d="m392.93 102.51c-4.6962 0-8.4961 3.8047-8.4961 8.498s3.7999 8.5 8.4961 8.5c53.486 0 96.852 43.358 96.852 96.85 0 4.6934 3.8018 8.498 8.498 8.498 4.6905 0 8.498-3.8047 8.498-8.498 0-62.876-50.975-113.85-113.85-113.85zm0 33.992c-4.6962 0-8.4961 3.8047-8.4961 8.498s3.7999 8.498 8.4961 8.498c34.716 0 62.859 28.143 62.859 62.861 0 4.6934 3.8047 8.5 8.498 8.5 4.6934 0 8.498-3.8066 8.498-8.5 0-44.105-35.756-79.857-79.855-79.857zm-113.95 12.18c-28.157 0-50.986 22.828-50.986 50.988v131.02c0 28.16 22.829 50.984 50.986 50.984h131.02c28.16 0 50.988-22.824 50.988-50.984v-70.002c0-4.6934-3.8076-8.498-8.498-8.498-4.6962 0-8.498 3.8057-8.498 8.502v70c0 18.771-15.219 33.988-33.992 33.988h-131.02c-18.773 0-33.992-15.218-33.992-33.988v-131.02c0-18.773 15.219-33.992 33.992-33.992h69.482c4.6934 0 8.5-3.8047 8.5-8.498s-3.8066-8.502-8.5-8.502h-69.482zm113.95 21.811c-4.6962 0-8.4961 3.8066-8.4961 8.5s3.7999 8.498 8.4961 8.498c15.945-3e-3 28.867 12.922 28.867 28.867 0 4.6934 3.8066 8.498 8.5 8.498s8.498-3.8047 8.498-8.498c0-25.332-20.536-45.865-45.865-45.865zm-116.9 9.2344c-9.3838 0-16.994 7.6085-16.994 16.998v136.92c0 9.3896 7.6074 16.996 16.994 16.996h93.51c4.9693 0 8.5006-1.4625 12.016-4.9746 14.474-14.471 28.943-28.945 43.414-43.416 3.5179-3.515 4.9785-7.0435 4.9785-12.016v-16.549c0-9.3896-7.6114-16.998-16.998-16.998h-39.186v-9.3262c0-6.3114-5.1378-11.447-11.449-11.447h-35.65c-6.3114-3e-3 -11.447 5.1339-11.447 11.445v35.648c0 6.3114 5.1358 11.451 11.447 11.451h35.652c6.3114 0 11.451-5.1397 11.451-11.451v-9.3262h39.184v16.549c-14.474 14.474-28.941 28.946-43.412 43.414h-93.51v-72.363-64.555h72.438c4.6934 0 8.498-3.8047 8.498-8.498s-3.8047-8.5-8.498-8.5h-72.438zm116.9 24.758a11.873 11.873 0 0 0-11.873 11.873 11.873 11.873 0 0 0 11.873 11.873 11.873 11.873 0 0 0 11.873-11.873 11.873 11.873 0 0 0-11.873-11.873z" opacity=".3" stroke-width="2.8741"/><path d="m392.93 92.93c-4.6962 0-8.4961 3.8047-8.4961 8.498 0 4.6934 3.7999 8.5 8.4961 8.5 53.486 0 96.852 43.358 96.852 96.85 0 4.6934 3.8018 8.498 8.498 8.498 4.6905 0 8.498-3.8047 8.498-8.498 0-62.876-50.975-113.85-113.85-113.85zm0 33.992c-4.6962 0-8.4961 3.8047-8.4961 8.498s3.7999 8.498 8.4961 8.498c34.716 0 62.859 28.143 62.859 62.861 0 4.6934 3.8047 8.5 8.498 8.5s8.498-3.8066 8.498-8.5c0-44.105-35.756-79.857-79.855-79.857zm-113.95 12.18c-28.157 0-50.986 22.828-50.986 50.988v131.02c0 28.16 22.829 50.986 50.986 50.986h131.02c28.16 0 50.988-22.826 50.988-50.986v-70c0-4.6934-3.8076-8.498-8.498-8.498-4.6962 0-8.498 3.8057-8.498 8.502v70c0 18.771-15.219 33.988-33.992 33.988h-131.02c-18.773 0-33.992-15.218-33.992-33.988v-131.02c0-18.773 15.219-33.992 33.992-33.992h69.482c4.6934 0 8.5-3.8047 8.5-8.498s-3.8066-8.502-8.5-8.502h-69.482zm113.95 21.811c-4.6962 0-8.4961 3.8066-8.4961 8.5s3.7999 8.498 8.4961 8.498c15.945-3e-3 28.867 12.922 28.867 28.867 0 4.6934 3.8066 8.498 8.5 8.498s8.498-3.8047 8.498-8.498c0-25.332-20.536-45.865-45.865-45.865zm-116.9 9.2344c-9.3838 0-16.994 7.6085-16.994 16.998v136.92c0 9.3896 7.6074 16.996 16.994 16.996h93.51c4.9693 0 8.5006-1.4625 12.016-4.9746 14.474-14.471 28.943-28.945 43.414-43.416 3.5179-3.515 4.9785-7.0435 4.9785-12.016v-16.549c0-9.3896-7.6114-16.998-16.998-16.998h-39.186v-9.3262c0-6.3114-5.1378-11.447-11.449-11.447h-35.65c-6.3114-3e-3 -11.447 5.1339-11.447 11.445v35.648c0 6.3114 5.1358 11.451 11.447 11.451h35.652c6.3114 0 11.451-5.1397 11.451-11.451v-9.3262h39.184v16.549c-14.474 14.474-28.941 28.946-43.412 43.414h-93.51v-72.363-64.555h72.438c4.6934 0 8.498-3.8047 8.498-8.498s-3.8047-8.5-8.498-8.5h-72.438zm116.9 24.758a11.873 11.873 0 0 0-11.873 11.873 11.873 11.873 0 0 0 11.873 11.873 11.873 11.873 0 0 0 11.873-11.873 11.873 11.873 0 0 0-11.873-11.873z" fill="#fff" stroke-width="2.8741"/><path d="m50.652 79.164c-11.02 1e-6 -19.957 8.9321-19.957 19.953v10c0-11.021 8.9365-19.953 19.957-19.953h410.7c11.021 0 19.953 8.9324 19.953 19.953v-10c0-11.021-8.9321-19.953-19.953-19.953h-410.7z" fill="#fff" fill-rule="evenodd" opacity=".2"/><path d="m30.695 402.88v10c0 11.02 8.936 19.959 19.957 19.959h410.7c11.021 0 19.953-8.938 19.953-19.959v-10c0 11.021-8.9324 19.959-19.953 19.959h-410.7c-11.021 0-19.957-8.9385-19.957-19.959z" fill-rule="evenodd" opacity=".3"/></g></svg>
