<svg width="512" height="512" version="1.1" viewBox="0 0 384 384" xmlns="http://www.w3.org/2000/svg"><defs><clipPath><rect width="384" height="384"/></clipPath><clipPath><rect width="384" height="384"/></clipPath><clipPath><rect width="384" height="384"/></clipPath><clipPath><rect width="384" height="384"/></clipPath></defs><path d="m12 24c14.154 19.816 24.485 57.766 30.042 101.62-18.976 19.013-30.042 41.835-30.042 66.384 0 25.256 11.714 48.684 31.704 68.017-4.6768 43.158-14.93 80.413-31.704 99.983 48.807 0 92.743-20.819 123.44-54.053 17.789 3.9227 36.802 6.0527 56.563 6.0527 99.41 0 180-53.727 180-120s-80.59-120-180-120c-19.762 0-38.775 2.13-56.563 6.0527-30.693-33.233-74.63-54.053-123.44-54.053z" fill="#d41717"/><path d="m192 103.5c-45.383 0-86.09 12.535-113.98 31.125-27.875 18.586-42.016 41.449-42.023 64.852 0.0586 16.906 7.5156 34.18 24.305 50.484 5.3047 5.1484 7.9414 12.453 7.1484 19.805-2.5938 24.027-6.4727 46.465-12.844 66.516 24.34-7.6289 46.137-20.887 63.094-39.258 5.8047-6.293 14.52-9.0156 22.875-7.1484 16.492 3.6836 33.922 5.5898 51.469 5.625 45.363-8e-3 86.055-12.543 113.93-31.125 27.887-18.59 42.023-41.465 42.023-64.875 0-23.41-14.137-46.285-42.023-64.875-27.887-18.59-68.594-31.125-113.98-31.125z" opacity=".3"/><path d="m192 96c-45.383 0-86.09 12.535-113.98 31.125-27.875 18.586-42.016 41.449-42.023 64.852 0.05859 16.906 7.5156 34.18 24.305 50.484 5.3047 5.1484 7.9414 12.453 7.1484 19.805-2.5938 24.027-6.4727 46.465-12.844 66.516 24.34-7.6289 46.137-20.887 63.094-39.258 5.8047-6.293 14.52-9.0156 22.875-7.1484 16.492 3.6836 33.922 5.5898 51.469 5.625 45.363-8e-3 86.055-12.543 113.93-31.125 27.887-18.59 42.023-41.465 42.023-64.875s-14.137-46.285-42.023-64.875-68.594-31.125-113.98-31.125z" fill="#fff"/><path d="m120 175.5c-13.254 0-24 10.746-24 24s10.746 24 24 24 24-10.746 24-24-10.746-24-24-24zm72 0c-13.254 0-24 10.746-24 24s10.746 24 24 24 24-10.746 24-24-10.746-24-24-24zm72 0c-13.254 0-24 10.746-24 24s10.746 24 24 24 24-10.746 24-24-10.746-24-24-24z" opacity=".3"/><path d="m120 168c-13.254 0-24 10.746-24 24s10.746 24 24 24 24-10.746 24-24-10.746-24-24-24zm72 0c-13.254 0-24 10.746-24 24s10.746 24 24 24 24-10.746 24-24-10.746-24-24-24zm72 0c-13.254 0-24 10.746-24 24s10.746 24 24 24 24-10.746 24-24-10.746-24-24-24z" fill="#d41717"/><path transform="scale(.75)" d="m16 32c17.918 25.085 31.23 71.981 38.873 126.7 0.39445-0.40304 0.78386-0.80848 1.1836-1.209-6.5558-51.727-18.096-97.283-33.738-125.4-2.0991-0.058159-4.2052-0.089844-6.3184-0.089844zm0.125 218.99c-0.076803 1.6635-0.125 3.3319-0.125 5.0078 0 33.226 15.213 64.076 41.219 89.652 0.36766-2.9691 0.72607-5.9484 1.0527-8.9629-25.33-24.498-40.684-53.93-42.146-85.697zm479.75 0.00781c-3.9643 86.05-109.84 155-239.87 155-26.349 0-51.699-2.8401-75.418-8.0703-39.344 42.6-95.012 69.889-157.08 71.934-2.3851 3.6822-4.8838 7.0775-7.5059 10.137 65.076 0 123.66-27.759 164.58-72.07 23.719 5.2302 49.069 8.0703 75.418 8.0703 132.55 0 240-71.635 240-160 0-1.6736-0.05042-3.3387-0.12695-5z" fill="#050101" opacity=".3" stroke-width="1.3333"/><path transform="scale(.75)" d="m16 32c2.1755 3.0457 4.2803 6.4266 6.3184 10.09 62.543 1.7329 118.67 29.108 158.26 71.98 23.719-5.2303 49.069-8.0703 75.418-8.0703 130.04 0 235.91 68.95 239.87 155 0.07653-1.6613 0.12695-3.3264 0.12695-5 0-88.365-107.45-160-240-160-26.349 0-51.699 2.84-75.418 8.0703-40.925-44.311-99.506-72.07-164.58-72.07zm38.873 136.7c-24.572 25.107-38.873 55.088-38.873 87.303 0 1.6706 0.048677 3.3339 0.125 4.9922 1.4232-30.825 15.926-59.452 39.932-83.504-0.37465-2.9561-0.77657-5.8773-1.1836-8.791zm2.3457 186.96c-6.6506 53.708-20.026 99.622-41.219 124.35 2.5129 0 5.013-0.05458 7.5059-0.13672 17.958-27.724 29.261-72.376 34.766-123.17-0.35534-0.34366-0.70133-0.69151-1.0527-1.0371z" fill="#fff" opacity=".3" stroke-width="1.3333"/></svg>
