<svg preserveAspectRatio="xMidYMid" version="1.1" viewBox="0 0 512 512" xmlns="http://www.w3.org/2000/svg"><circle cx="256" cy="256" r="225" fill="#fff"/><path d="m62.982 265.99c0 76.401 44.399 142.43 108.78 173.72v-10l-92.07-242.27c-10.709 24.005-16.711 50.571-16.711 78.553zm323.31-9.7402c0-23.855-8.5683-40.375-15.917-53.233-9.784-15.899-18.955-29.364-18.955-45.263 0-17.743 13.457-34.26 32.411-34.26 0.85572 0 1.6674 0.10651 2.5011 0.15425l-1e-5 -10c-33.453-27.851-83.401-40.67-130.34-40.67-64.972 0-126.31 27.762-161.28 76.982l0.01632 10.019c4.5284 0.13589 8.796 0.23138 12.421 0.23138 20.189 0 51.439-2.4497 51.439-2.4497 10.405-0.61336 11.631 14.669 1.2377 15.899 0 0-10.456 1.2304-22.091 1.8401l70.287 209.07 42.239-126.69-30.072-82.395c-10.394-0.60969-20.24-1.8401-20.24-1.8401-10.401-0.60968-9.1816-16.513 1.2193-15.899 0 0 31.875 2.4497 50.841 2.4497 20.185 0 51.439-2.4497 51.439-2.4497 10.412-0.61335 11.635 14.669 1.2377 15.899 0 0-10.478 1.2304-22.091 1.8401l69.751 207.49 19.252-64.336c8.3443-26.697 14.694-45.873 14.694-62.397zm-126.91 26.624-57.91 158.28v10c17.291 5.0831 35.577 7.8634 54.524 7.8634 22.477 0 44.032-3.8858 64.095-10.941-0.51784-0.82637-0.98795-1.7042-1.3736-2.6591l1.3736-7.3409zm165.97-109.49c0.83002 6.1482 1.3001 12.748 1.3001 19.848 0 19.587-3.658 41.605-14.676 69.136l-58.957 160.46 1e-5 10c57.382-33.463 95.978-95.632 95.978-166.84 4e-3 -33.558-8.5683-65.115-23.645-92.609z" opacity=".3" stroke-width="1.7646"/><g transform="matrix(1.7646 0 0 1.7647 31 31)" fill="#333"><path d="m18.124 127.5c0 43.295 25.161 80.711 61.646 98.441l-52.176-142.96c-6.0691 13.603-9.4699 28.657-9.4699 44.515zm183.22-5.5196c0-13.518-4.8557-22.88-9.0204-30.166-5.5446-9.01-10.742-16.64-10.742-25.65 0-10.055 7.6259-19.414 18.367-19.414 0.48494 0 0.94491 0.06036 1.4174 0.08741-19.46-17.828-45.387-28.714-73.863-28.714-38.213 0-71.832 19.606-91.39 49.302 2.5662 0.07701 4.9847 0.13112 7.039 0.13112 11.441 0 29.151-1.3882 29.151-1.3882 5.8963-0.34758 6.5915 8.3127 0.7014 9.01 0 0-5.9255 0.69724-12.519 1.0427l39.832 118.48 23.937-71.79-17.042-46.692c-5.8901-0.3455-11.47-1.0427-11.47-1.0427-5.8942-0.3455-5.2033-9.3575 0.69099-9.01 0 0 18.064 1.3882 28.811 1.3882 11.439 0 29.151-1.3882 29.151-1.3882 5.9005-0.34758 6.5936 8.3127 0.7014 9.01 0 0-5.938 0.69724-12.519 1.0427l39.528 117.58 10.91-36.458c4.7287-15.129 8.3273-25.995 8.3273-35.359zm-71.921 15.087-32.818 95.363c9.7988 2.8805 20.162 4.4561 30.899 4.4561 12.738 0 24.953-2.202 36.323-6.2002-0.29346-0.46829-0.55987-0.96572-0.7784-1.5069zm94.058-62.046c0.47037 3.4841 0.73678 7.2242 0.73678 11.247 0 11.1-2.073 23.577-8.3169 39.178l-33.411 96.599c32.518-18.963 54.391-54.193 54.391-94.545 2e-3 -19.017-4.8557-36.899-13.399-52.48zm-95.977-75.023c-70.304 0-127.5 57.196-127.5 127.5 0 70.313 57.2 127.51 127.5 127.51 70.302 0 127.51-57.194 127.51-127.51-0.00208-70.304-57.209-127.5-127.51-127.5zm0 249.16c-67.08 0-121.66-54.578-121.66-121.66 0-67.08 54.576-121.65 121.66-121.65 67.078 0 121.65 54.574 121.65 121.65 0 67.084-54.574 121.66-121.65 121.66z" fill="#2656a8"/></g></svg>
