<svg width="512" height="512" version="1.1" viewBox="0 0 384 384" xmlns="http://www.w3.org/2000/svg"><defs><clipPath><rect width="384" height="384"/></clipPath><clipPath><rect width="384" height="384"/></clipPath><clipPath><rect width="384" height="384"/></clipPath></defs><path d="m360 343.2v-302.39c0-9.2773-7.5234-16.797-16.801-16.797h-302.39c-9.2773 0-16.797 7.5195-16.797 16.797v302.39c0 9.2773 7.5195 16.801 16.797 16.801h302.39c9.2773 0 16.801-7.5234 16.801-16.801z" fill="#bd2e5c"/><path d="m95.996 55.504v192l95.997 96 96-96h-95.997v-3e-3l95.997-95.994h-95.997v-3e-3l95.997-95.997h-95.997v-0.0029z" opacity=".3"/><path d="m288 240h-96v96z" fill="#fff"/><path d="m288 144h-96v95.996z" fill="#fff"/><path d="m288 48.004h-96v96z" fill="#cc5c7f"/><path d="m96 240h95.996v96z" fill="#e6e6e6"/><path d="m96 48h96v192h-96z" fill="#e6e6e6"/><path transform="scale(.75)" d="m32.01 447.6v10c0 12.37 10.027 22.4 22.396 22.4h403.19c12.37 0 22.4-10.031 22.4-22.4v-10c0 12.37-10.031 22.4-22.4 22.4h-403.19c-12.37 0-22.396-10.031-22.396-22.4z" opacity=".3" stroke-width="1.3333"/><path transform="scale(.75)" d="m54.406 32.01c-12.37 0-22.396 10.027-22.396 22.396v10c0-12.37 10.027-22.396 22.396-22.396h403.19c12.37 0 22.4 10.027 22.4 22.396v-10c0-12.37-10.031-22.396-22.4-22.396h-403.19z" fill="#fff" opacity=".3" stroke-width="1.3333"/></svg>
