<svg version="1.1" viewBox="0 0 512 512" xmlns="http://www.w3.org/2000/svg" xmlns:xlink="http://www.w3.org/1999/xlink"><defs><linearGradient id="a" x1="242.98" x2="242.98" y1="-94.222" y2="278.6" gradientUnits="userSpaceOnUse"><stop stop-color="#fd7d00" offset="0"/><stop stop-color="#a16b3d" offset="1"/></linearGradient></defs><g stroke-width=".024343"><path d="m85.537 61.7c-7.1568 0.6816-15.044 3.408-21.982 7.5949-7.6193 4.6008-16.164 13.121-21.908 21.884-6.4021 9.7371-8.8607 19.669-9.9562 39.995-0.85195 15.409-0.92498 43.671-0.17038 50.998 0.87634 8.6903 2.0204 13.608 6.0857 26.607l1.5823 5.0633-1.8014 6.4995c-4.5278 16.407-5.5014 22.054-6.2074 36.392-0.46249 9.518 0.5112 25.755 2.0935 34.494 0.55991 3.2132 3.4566 14.143 4.6251 17.575 1.2902 3.7974 2.8481 7.2784 5.6962 12.756 9.0068 17.429 16.334 25.365 50.876 55.014 8.6904 7.4489 17.235 14.557 24.586 20.424 23.223 18.525 36.952 26.947 51.996 31.84 6.5726 2.1422 10.394 3.554 18.963 6.9377 13.559 5.3554 23.393 8.593 35.297 11.587 11.368 2.8725 14.484 3.1889 30.672 3.1646 10.054 0 12.756-0.0731 15.458-0.41381 12.78-1.631 35.565-8.3009 51.582-15.068 5.7692-2.4343 9.1042-3.7001 12.78-4.8442 1.7527-0.53554 4.4547-1.3632 5.9883-1.85 16.553-5.0876 38.145-19.961 75.341-51.899 31.743-27.264 40.847-36.782 48.831-51.022 5.7205-10.248 9.6397-21.202 11.758-32.984 1.6066-8.9581 2.1665-16.261 2.1665-28.724 0.0243-18.573-1.4849-29.382-6.1587-44.547-0.80332-2.6047-1.4606-4.8929-1.4606-5.0633 0-0.19475 0.87633-3.1889 1.9474-6.6942 2.2395-7.4489 2.9211-10.029 3.7488-14.606 3.2132-17.283 3.8948-40.336 1.9474-63.705-1.7283-20.764-5.6719-32.936-14.167-43.573-2.2152-2.7751-7.4489-8.1792-10.151-10.467-8.666-7.3272-17.697-11.392-28.846-12.926-3.2863-0.46251-12.244-0.38948-15.944 0.09737-9.518 1.3145-17.162 5.2093-34.81 17.819-6.0613 4.333-7.3028 5.2337-18.5 13.486l-6.7186 4.9416-2.2395-0.14605c-1.2415-0.0974-3.7731-0.3408-5.6475-0.53554-10.37-1.0711-13.656-1.4119-21.3-2.1665-15.239-1.5092-25.56-2.2882-40.652-3.0428-13.997-0.73028-39.119-0.55988-56.11 0.36514-18.014 0.99805-45.764 3.4567-61.806 5.4771l-1.8987 0.24342-8.9337-6.5482c-32.035-23.491-39.338-27.726-51.193-29.698-5.5989-0.94937-10.808-1.1928-15.458-0.73028z" fill="#493525"/><path d="m85.537 61.7c-7.1568 0.6816-15.044 3.408-21.982 7.5949-7.6193 4.6008-16.164 13.121-21.908 21.884-6.4021 9.7371-8.8607 19.669-9.9562 39.995-0.85195 15.409-0.92498 43.671-0.17038 50.998 0.87634 8.6903 2.0204 13.608 6.0857 26.607l1.5823 5.0633-1.8014 6.4995c-4.5278 16.407-5.5014 22.054-6.2074 36.392-0.46249 9.518 0.5112 25.755 2.0935 34.494 0.55991 3.2132 3.4566 14.143 4.6251 17.575 1.2902 3.7974 2.8481 7.2784 5.6962 12.756 9.0068 17.429 16.334 25.365 50.876 55.014 8.6904 7.4489 17.235 14.557 24.586 20.424 23.223 18.525 36.952 26.947 51.996 31.84 6.5726 2.1422 10.394 3.554 18.963 6.9377 13.559 5.3554 23.393 8.593 35.297 11.587 11.368 2.8725 14.484 3.1889 30.672 3.1646 10.054 0 12.756-0.0731 15.458-0.41381 12.78-1.631 35.565-8.3009 51.582-15.068 5.7692-2.4343 9.1042-3.7001 12.78-4.8442 1.7527-0.53554 4.4547-1.3632 5.9883-1.85 16.553-5.0876 38.145-19.961 75.341-51.899 31.743-27.264 40.847-36.782 48.831-51.022 5.7205-10.248 9.6397-21.202 11.758-32.984 1.6066-8.9581 2.1665-16.261 2.1665-28.724 0.0243-18.573-1.4849-29.382-6.1587-44.547-0.80332-2.6047-1.4606-4.8929-1.4606-5.0633 0-0.19475 0.87633-3.1889 1.9474-6.6942 2.2395-7.4489 2.9211-10.029 3.7488-14.606 3.2132-17.283 3.8948-40.336 1.9474-63.705-1.7283-20.764-5.6719-32.936-14.167-43.573-2.2152-2.7751-7.4489-8.1792-10.151-10.467-8.666-7.3272-17.697-11.392-28.846-12.926-3.2863-0.46251-12.244-0.38948-15.944 0.09737-9.518 1.3145-17.162 5.2093-34.81 17.819-6.0613 4.333-7.3028 5.2337-18.5 13.486l-6.7186 4.9416-2.2395-0.14605c-1.2415-0.0974-3.7731-0.3408-5.6475-0.53554-10.37-1.0711-13.656-1.4119-21.3-2.1665-15.239-1.5092-25.56-2.2882-40.652-3.0428-13.997-0.73028-39.119-0.55988-56.11 0.36514-18.014 0.99805-45.764 3.4567-61.806 5.4771l-1.8987 0.24342-8.9337-6.5482c-32.035-23.491-39.338-27.726-51.193-29.698-5.5989-0.94937-10.808-1.1928-15.458-0.73028zm8.8363 14.849c5.5258 0.53555 10.638 1.9718 14.849 4.1383 7.0837 3.6758 21.714 13.364 37.463 24.878 8.1792 5.9883 16.967 12.634 16.845 12.756-0.1947 0.19473-6.5482-2.483-10.516-4.4547-8.7391-4.2843-17.332-9.6154-29.041-18.038-9.8101-7.035-16.091-10.979-21.835-13.729-4.5521-2.1665-5.9639-2.5316-9.7371-2.5073-5.5258 0.0243-13.291 1.4119-20.229 3.5784-2.2882 0.73028-4.5764 1.3875-5.112 1.4849l-0.94937 0.14606 0.80331-0.70594c1.85-1.5823 8.5929-4.8442 12.926-6.2074 4.26-1.3388 9.5666-1.8257 14.533-1.3388zm328.97 0.0974c2.7507 0.19474 6.3534 0.92502 8.8121 1.85 2.8481 1.0224 8.666 3.9435 9.6884 4.8198l0.85201 0.73028-0.77897 0.0243c-0.41382 0-1.9961-0.38948-3.5297-0.87634-9.0555-2.8481-18.671-4.2843-23.442-3.5297-6.2804 1.0224-12.561 4.5764-28.359 16.042-10.613 7.741-20.326 13.705-31.767 19.523-5.5745 2.8481-8.6904 3.9679-8.0331 2.9455 0.26777-0.46251 3.3106-2.7994 6.6942-5.1363 4.479-3.0915 13.364-9.4693 19.839-14.24 22.736-16.699 31.986-21.568 42.478-22.274 2.5073-0.1704 3.3593-0.14605 7.5462 0.12172zm-194.62 106.74c4.406 4.333 9.7371 9.5667 11.806 11.611l3.7731 3.7244 4.7955-9.5423c5.4284-10.808 6.5969-12.804 7.1324-12.366 0.43817 0.36514 5.1363 9.8588 8.5443 17.235l2.3856 5.185 10.224-10.2c10.979-10.93 15.628-15.385 16.115-15.385 0.46251 0 0.92501 3.2619 1.5579 11.198 0.34081 4.0896 0.90068 8.3739 1.2658 9.4693 0.24342 0.77897 0.2921 0.80331 1.2902 0.6816 1.4606-0.21908 5.0633-1.6796 11.125-4.5764 11.441-5.4528 14.557-6.889 17.527-8.1548 1.6796-0.73028 3.1402-1.3145 3.2132-1.3145 0.41382 0 0 1.2902-1.1928 3.8948-0.73028 1.5823-1.3388 3.0185-1.3388 3.1402 0 0.31646 0.85198 0.3408 2.9211 0.0243 4.2356-0.60856 17.697 1.631 26.972 4.5277 6.2804 1.9474 13.291 5.112 18.5 8.3739 3.0428 1.8987 8.2522 5.7692 10.759 7.9844 6.8646 6.0857 16.796 16.358 16.796 17.381 0 0.41384-1.5093 0.1704-4.1383-0.65725-2.483-0.77896-3.8948-1.0467-3.8948-0.73028 0 0.1704 1.85 3.1646 3.408 5.4771 2.9698 4.4304 5.964 10.394 8.6417 17.162 3.5297 8.9581 4.7712 14.046 5.258 21.762 0.2921 4.5521 0.17039 34.275-0.14607 35.735-0.14606 0.63291-0.2921 0.8033-0.73027 0.8033-0.73028 0-2.9698-1.704-5.2337-3.9922-0.99804-1.0224-1.8744-1.85-1.9718-1.85-0.0974 0-0.21908 1.8987-0.29211 4.187-0.12171 4.333-0.53552 6.6699-1.9231 10.906-2.1665 6.6699-6.6212 14.606-11.125 19.791-2.2396 2.5803-6.4508 6.2561-8.4956 7.4002-1.1441 0.65725-1.6553 0.80331-2.8481 0.80331-2.5803-0.0243-3.8948-0.82765-12.171-7.5462-3.2133-2.6047-7.8627-6.3778-10.346-8.3739l-4.5034-3.6271-0.073 5.1606-0.0487 5.1607-1.2902-1.0224c-8.8851-7.1568-22.006-15.336-32.327-20.107-9.2015-4.26-17.746-7.0837-17.746-5.8666 0 0.48685 1.704 3.2619 4.0409 6.5238 2.0448 2.8724 3.5053 5.1606 3.5053 5.4528 0 0.29212-3.7731-1.8257-9.8588-5.5258-3.0672-1.8744-8.1061-4.9416-11.198-6.816-3.0672-1.85-6.3291-3.7488-7.2298-4.2113l-1.631-0.82764-1.0711 1.8987c-0.58422 1.0224-2.1422 3.9192-3.481 6.4265-1.3145 2.5073-2.483 4.5521-2.5803 4.5034-0.0974-0.0244-1.9718-2.8968-4.1626-6.3778-6.3778-10.151-10.93-17.259-11.246-17.6-0.21908-0.24343-1.85 2.1422-7.9357 11.733-4.2113 6.6455-7.6923 12.074-7.7653 12.074-0.0731 0-1.704-2.8238-3.6271-6.2804-1.9231-3.4323-3.5297-6.2804-3.5784-6.3291-0.12173-0.17042-2.8968 1.3875-8.8121 4.9902-15.092 9.1528-17.551 10.638-19.231 11.587l-1.8014 0.9737 0.48683-0.94937c0.26779-0.51119 1.7527-2.7507 3.2863-4.9659 1.5579-2.2152 3.0915-4.5764 3.4567-5.2337l0.63291-1.2171-0.73029-0.0731c-2.1178-0.21908-12.366 3.5784-20.253 7.5219-8.3252 4.1382-22.59 13.121-27.921 17.575l-2.6046 2.1665-0.0731-5.1363c-0.0246-2.8238-0.12174-5.1363-0.17045-5.1363-0.0731 0-3.5297 2.7751-7.6923 6.1344-13.023 10.589-14.533 11.782-16.042 12.585-3.6514 1.9474-5.7692 1.0711-12.098-4.9416-4.6008-4.406-7.7896-8.7634-10.784-14.873-3.0672-6.2074-4.6495-12.001-5.0633-18.452-0.12174-1.85-0.29219-3.408-0.34083-3.4567-0.0731-0.0731-1.1441 0.82766-2.4099 2.0204-3.7244 3.4566-4.7955 3.8948-5.1607 2.1178-0.34075-1.6796-0.48681-28.457-0.1947-34.201 0.46249-9.0311 1.4849-13.802 4.6008-21.543 3.1888-7.9844 7.8384-17.064 11.563-22.614 1.0224-1.5336 1.3144-2.1178 0.998-2.0204-0.26772 0.073-1.7283 0.58422-3.2619 1.1198-2.629 0.94937-4.6252 1.2658-4.6252 0.77897 0-1.1685 10.297-11.855 17.04-17.697 11.392-9.8588 23.223-15.409 40.044-18.817 6.4751-1.3145 10.954-1.8014 15.165-1.6553 2.8238 0.0974 3.7001 0.0487 3.7001-0.17041 0-0.17039-0.41384-1.1684-0.92503-2.2395-1.0711-2.1908-1.8744-4.4304-1.6553-4.6494 0.36513-0.36514 6.4752 2.483 21.373 9.9318 6.1344 3.0672 11.246 5.5745 11.368 5.5745 0.26775 0 0.90068-4.0896 1.3632-9.0068 0.19476-2.2152 0.48686-5.2824 0.63293-6.816 0.26777-2.8724 0.85199-6.7186 1.0954-7.1081 0.21909-0.36514 2.3369 1.5823 10.686 9.7858zm57.644 161.05c3.3349 0.80331 7.035 3.0428 9.5423 5.7449 4.5764 4.9416 6.0613 11.465 4.3817 19.377-0.80331 3.8218-1.4362 5.4771-2.4586 6.3778-1.2171 1.0711-2.3612 1.1198-6.7673 0.38948-7.4489-1.2658-11.027-0.58423-13.048 2.483-0.77898 1.1928-1.4606 3.1402-1.4606 4.1626 0 0.80331 0.51119 2.629 1.3145 4.7225 0.34079 0.90069 0.6329 1.8014 0.6329 1.9961 0 1.0711-2.556 2.1908-5.9883 2.5803-2.8968 0.34081-6.11 0.0243-9.9562-0.97371-1.4849-0.3895-2.702-0.68159-2.7264-0.65724-0.17041 0.14605 0.99803 5.5014 1.3632 6.3534 0.87634 1.9474 3.5784 3.8461 10.54 7.3271 13.583 6.816 20.959 9.3963 30.404 10.686 3.9922 0.53555 12.853 0.73029 18.354 0.3895 9.3476-0.58423 14.046-1.2171 21.3-2.8238 2.6047-0.58422 5.3067-1.1198 5.964-1.2172l1.2171-0.14605-0.90067 0.5112c-1.4362 0.77897-8.2522 3.481-12.001 4.7225-10.419 3.5054-19.328 4.9172-29.576 4.6982-6.4508-0.14605-9.0311-0.48685-14.484-1.8744-7.1081-1.8014-13.34-4.3574-26.655-10.954l-9.1042-4.5277-9.0311 4.5277c-17.868 9.0068-28.603 12.463-41.017 13.291-9.1772 0.58423-28.822-3.8948-38.534-8.812-2.8724-1.4362-3.0185-1.6066-0.97368-1.0467 4.5277 1.2658 9.4206 2.2152 14.508 2.7751 7.3515 0.8033 22.955 0.99802 30.234 0.34078 7.035-0.6329 16.748-4.1139 29.698-10.686 7.1568-3.6271 8.8121-4.6981 9.7614-6.2804 0.80331-1.3388 1.4362-3.4567 1.704-5.6962l0.14605-1.3632-3.2376 0.60858c-6.11 1.0954-11.417 1.0224-13.632-0.21908-1.1684-0.65725-1.5336-1.3632-1.3632-2.6777 0.0731-0.58421 0.31647-2.4099 0.53553-4.0652 0.5112-3.7975 0.31647-4.8442-1.1684-6.3048-0.55989-0.5599-1.5579-1.2415-2.2395-1.558-1.1198-0.5112-1.5579-0.55988-5.2337-0.55988-3.2376 0.0243-4.7712 0.14606-7.887 0.6816-2.1422 0.36513-3.9679 0.58423-4.0652 0.48686-0.29212-0.3408-2.1421-7.1568-2.5316-9.4206-0.70594-4.187-0.36513-8.4956 0.97372-11.758 1.0954-2.7264 2.3369-4.5278 4.7225-6.889 2.556-2.5316 4.5034-3.7488 7.3272-4.5521 2.483-0.68159 11.368-0.60856 18.257 0.1704 7.4489 0.852 16.066 0.82766 27.142-0.0731 11.782-0.9737 13.121-0.9737 16.017-0.26775z" fill="url(#a)"/><path d="m139.38 224.43c-0.94937 0.19473-2.8238 0.90066-4.26 1.6066-2.2639 1.0954-2.8238 1.5092-4.8929 3.5784-6.3048 6.2804-11.441 18.208-11.465 26.582 0 2.1422 0.14606 3.0915 0.77899 5.4771 1.9231 7.2298 4.9902 13.315 8.6173 17.089 2.4099 2.5316 6.3778 4.9903 10.37 6.4265 1.3875 0.48686 2.0205 0.55989 5.2337 0.55989 4.8928-0.0243 9.9562-0.9737 18.014-3.408 3.8218-1.1441 13.997-5.2093 14.167-5.6475 0.17038-0.46251-0.60854-13.656-1.0467-17.308-1.4606-12.61-5.5745-20.716-13.875-27.312-8.0817-6.4508-15.214-8.9581-21.641-7.6436zm14.338 9.6884c1.6553 0.80331 5.8179 4.7712 6.7916 6.4752 1.2415 2.1908 1.4119 5.9396 0.41385 8.9094-2.0448 5.9396-7.741 9.8344-13.023 8.9338-3.1645-0.53555-7.4975-3.2863-9.0311-5.6962-1.0954-1.7527-1.8501-4.5277-1.8744-6.7916-0.0239-5.5988 3.262-10.224 8.4226-11.904 2.0935-0.6816 2.4342-0.73027 4.8199-0.65724 1.7284 0.0487 2.3369 0.1704 3.481 0.73027z"/><path d="m364.65 224.31c-4.7468 0.5112-8.9338 2.4343-13.729 6.2561-4.3087 3.4323-8.7634 7.9844-10.711 10.881-1.7527 2.6533-3.4567 7.814-4.7468 14.362-1.0954 5.6475-1.4606 9.5667-1.4606 15.701v5.5014l4.333 1.777c11.198 4.6008 19.474 6.5969 27.434 6.5969 7.8627 0 12.171-1.9231 16.529-7.3272 3.1402-3.8948 5.3797-7.9844 7.0594-12.829 1.9474-5.6232 2.1178-10.2 0.55988-16.115-2.1178-8.0818-5.5745-15.092-9.3719-18.939-4.3817-4.4304-10.054-6.5238-15.896-5.8666zm-3.4323 9.3476c7.9114 1.8744 11.563 10.492 7.741 18.281-1.5579 3.1402-4.5277 5.3554-8.52 6.3534-1.4362 0.34079-1.9231 0.36514-3.3349 0.12171-4.9172-0.85199-9.6397-5.0876-10.662-9.5667-0.94937-4.0652 0.46249-8.9581 3.4566-11.928 2.9942-3.0185 7.2054-4.2356 11.319-3.2619z"/></g><g><ellipse cx="148.25" cy="246.24" rx="1.7552" ry="1.0847" fill="#916137" opacity=".4"/><circle cx="146.8" cy="244.79" r="14.825" fill="#fff"/><circle cx="359.41" cy="245.88" r="14.825" fill="#fff"/></g><g stroke-width=".024343"><path d="m480.95 149.82c-0.21432 12.141-1.2124 23.446-2.9863 32.988-0.82765 4.5764-1.5085 7.1566-3.748 14.605-1.0711 3.5053-1.9473 6.4986-1.9473 6.6934 0 0.1687 0.64894 2.4235 1.4414 4.9961 0.17974-0.59642 0.30866-1.0441 0.50586-1.6894 2.2395-7.4489 2.9204-10.029 3.748-14.605 2.253-12.118 3.2561-27.077 2.9863-42.988z" opacity=".3"/><path d="m31.023 157.28c-0.06763 10.848 0.09048 20.935 0.49805 24.893 0.87634 8.6903 2.0187 13.608 6.084 26.607l0.11328 0.36328 1.4707-5.3008-1.584-5.0625c-4.0653-12.999-5.2076-17.917-6.084-26.607-0.27707-2.6904-0.44172-8.2299-0.49805-14.893z" opacity=".3"/><path d="m218.1 163.56c-0.0296 4e-3 -0.0508 0.0182-0.0645 0.041-0.24342 0.38948-0.82794 4.235-1.0957 7.1074-0.14607 1.5336-0.43805 4.6012-0.63281 6.8164-0.46249 4.9172-1.0955 9.0059-1.3633 9.0059-0.12171 0-5.2348-2.507-11.369-5.5742-14.898-7.4489-21.008-10.297-21.373-9.9316-0.21909 0.21908 0.58519 2.4595 1.6562 4.6504 0.51119 1.0711 0.92578 2.0679 0.92578 2.2383 0 0.21911-0.87742 0.26927-3.7012 0.17187-4.2112-0.14606-8.6909 0.3398-15.166 1.6543-16.821 3.408-28.651 8.9576-40.043 18.816-6.7429 5.8422-17.039 16.529-17.039 17.697 0 0.48685 1.996 0.17203 4.625-0.77734 1.5336-0.53554 2.994-1.0481 3.2617-1.1211 0.31643-0.0974 0.0244 0.48791-0.99804 2.0215-1.0086 1.5029-2.0868 3.2783-3.1836 5.207 3.6118-3.9237 9.1522-9.4042 13.334-13.027 11.392-9.8588 23.222-15.408 40.043-18.816 6.4751-1.3145 10.955-1.8004 15.166-1.6543 2.8238 0.0974 3.7012 0.0472 3.7012-0.17187 0-0.17039-0.41459-1.1672-0.92578-2.2383-1.0711-2.1908-1.8753-4.4313-1.6562-4.6504 0.36513-0.36514 6.4753 2.4828 21.373 9.9316 6.1344 3.0672 11.247 5.5742 11.369 5.5742 0.26775 0 0.90079-4.0886 1.3633-9.0059 0.19476-2.2152 0.48674-5.2828 0.63281-6.8164 0.26777-2.8724 0.85229-6.7179 1.0957-7.1074 0.21909-0.36514 2.336 1.5817 10.686 9.7852 4.406 4.333 9.7375 9.5665 11.807 11.611l3.7734 3.7246 4.7949-9.541c5.4284-10.808 6.5973-12.805 7.1328-12.367 0.43817 0.36514 5.135 9.8585 8.543 17.234l2.3867 5.1856 10.225-10.199c10.979-10.93 15.626-15.385 16.113-15.385 0.46251 0 0.92569 3.2616 1.5586 11.197 0.34081 4.0896 0.90047 8.3733 1.2656 9.4688 0.24342 0.77897 0.29297 0.80335 1.291 0.68164 1.4606-0.21908 5.0617-1.6794 11.123-4.5762 11.441-5.4528 14.558-6.8885 17.527-8.1543 1.6796-0.73028 3.1399-1.3144 3.2129-1.3144 0.41382 0 1e-3 1.2899-1.1914 3.8945-0.73028 1.5823-1.3398 3.0189-1.3398 3.1406 0 0.31646 0.85273 0.33994 2.9219 0.0234 4.2356-0.60856 17.696 1.6325 26.971 4.5293 6.2804 1.9474 13.291 5.1111 18.5 8.373 3.0428 1.8987 8.2525 5.7692 10.76 7.9844 4.1617 3.6895 9.4254 8.8968 12.945 12.67-0.25746-0.40641-0.51613-0.81535-0.77344-1.1992-1.5579-2.3126-3.4082-5.3081-3.4082-5.4785 0-0.31645 1.4116-0.0485 3.8945 0.73047 2.629 0.82765 4.1387 1.072 4.1387 0.6582 0-1.0224-9.9322-11.295-16.797-17.381-2.5073-2.2152-7.7169-6.0856-10.76-7.9844-5.2094-3.2619-12.22-6.4256-18.5-8.373-9.2746-2.8968-22.735-5.1379-26.971-4.5293-2.0691 0.3165-2.9219 0.29302-2.9219-0.0234 0-0.12171 0.60956-1.5584 1.3398-3.1406 1.1928-2.6047 1.6052-3.8945 1.1914-3.8945-0.073 0-1.5332 0.58417-3.2129 1.3144-2.9698 1.2658-6.0863 2.7015-17.527 8.1543-6.0613 2.8968-9.6625 4.3571-11.123 4.5762-0.99805 0.12171-1.0476 0.0973-1.291-0.68164-0.36515-1.0954-0.92481-5.3792-1.2656-9.4688-0.63291-7.9357-1.0961-11.197-1.5586-11.197-0.48686 0-5.1347 4.4549-16.113 15.385l-10.225 10.199-2.3867-5.1856c-3.408-7.3758-8.1048-16.869-8.543-17.234-0.53553-0.43817-1.7044 1.559-7.1328 12.367l-4.7949 9.541-3.7734-3.7246c-2.0691-2.0448-7.4006-7.2783-11.807-11.611-7.8277-7.6908-10.177-9.883-10.621-9.8262z" opacity=".3"/><path d="m116.81 224.35c-0.0203-0.01-0.0503-8e-3 -0.0899 4e-3 -0.26772 0.073-1.7281 0.58556-3.2617 1.1211-1.4574 0.5263-2.7048 0.84878-3.541 0.95703-2.0892 4.0582-4.117 8.4484-5.7578 12.557-3.1159 7.741-4.1391 12.512-4.6016 21.543-0.13884 2.7306-0.17362 10.251-0.14062 17.531 0.02206-3.3445 0.0676-6.095 0.14062-7.5312 0.4625-9.0311 1.4857-13.802 4.6016-21.543 3.1888-7.9844 7.8381-17.063 11.562-22.613 0.89459-1.3419 1.23-1.9578 1.0879-2.0254z" opacity=".3"/><path d="m395.12 224.76c-0.17116 7e-3 -0.25976 0.0498-0.25976 0.12891 0 0.1704 1.8503 3.166 3.4082 5.4785 2.9698 4.4304 5.9649 10.393 8.6426 17.16 3.5297 8.9581 4.771 14.047 5.2578 21.764 0.0889 1.3855 0.12807 5.3071 0.14648 9.8496 0.0405-8.445 5e-3 -17.49-0.14648-19.85-0.48686-7.7166-1.7281-12.806-5.2578-21.764-1.6008-4.0456-3.3161-7.794-5.0703-11.109-0.70653-0.1094-1.7508-0.3785-3.0859-0.79883-1.8622-0.58422-3.1213-0.88106-3.6348-0.85938z" opacity=".3"/><path d="m31.162 257.39c-0.3928 9.5894 0.56289 25.28 2.1113 33.832 0.55991 3.2132 3.4565 14.144 4.625 17.576 1.2902 3.7974 2.8472 7.2788 5.6953 12.756 9.0068 17.429 16.335 25.364 50.877 55.014 8.6904 7.4489 17.234 14.557 24.586 20.424 23.223 18.525 36.952 26.947 51.996 31.84 6.5726 2.1422 10.394 3.5539 18.963 6.9375 13.559 5.3554 23.393 8.5938 35.297 11.588 11.368 2.8725 14.484 3.1884 30.672 3.1641 10.054 0 12.755-0.0734 15.457-0.41406 12.78-1.631 35.566-8.2992 51.584-15.066 5.7692-2.4343 9.1036-3.7016 12.779-4.8457 1.7527-0.53554 4.4547-1.3628 5.9883-1.8496 16.553-5.0876 38.144-19.961 75.34-51.898 31.743-27.264 40.848-36.781 48.832-51.021 5.7205-10.248 9.64-21.203 11.758-32.984 1.6066-8.9581 2.166-16.261 2.166-28.725 2e-3 -1.629-0.0243-3.1307-0.0469-4.6484-0.15479 9.3535-0.75838 15.786-2.1191 23.373-2.1178 11.782-6.0373 22.736-11.758 32.984-7.9844 14.24-17.089 23.758-48.832 51.021-37.196 31.938-58.787 46.811-75.34 51.898-1.5336 0.48686-4.2356 1.3141-5.9883 1.8496-3.6757 1.1441-7.0101 2.4114-12.779 4.8457-16.017 6.7672-38.804 13.435-51.584 15.066-2.702 0.34071-5.4035 0.41406-15.457 0.41406-16.188 0.0243-19.304-0.2916-30.672-3.1641-11.904-2.9941-21.738-6.2325-35.297-11.588-8.5686-3.3836-12.39-4.7954-18.963-6.9375-15.044-4.8929-28.773-13.315-51.996-31.84-7.3515-5.8666-15.896-12.975-24.586-20.424-34.542-29.649-41.87-37.584-50.877-55.014-2.8481-5.4771-4.4051-8.9584-5.6953-12.756-1.1685-3.4323-4.0651-14.363-4.625-17.576-1.0803-5.9662-1.8618-15.4-2.1113-23.832z" opacity=".3"/><path d="m305.84 307.59c1.6724 0.93634 2.6074 1.3907 2.6074 1.2461 0-0.0531-0.0981-0.23938-0.18945-0.41601-0.86495-0.31196-1.6737-0.59182-2.418-0.83008z" opacity=".3"/><path d="m205.74 307.66c-0.67938 0.2182-1.4054 0.46652-2.1738 0.74023l-0.33398 0.65039 1.8008-0.97266c0.12938-0.0731 0.56298-0.33522 0.70703-0.41796z" opacity=".3"/></g><path d="m281.69 343.95c-2.1695 0.0335-5.4489 0.27682-11.34 0.76367-11.076 0.90076-19.694 0.92427-27.143 0.0723-6.889-0.77896-15.775-0.85151-18.258-0.16992-2.8238 0.80331-4.7702 2.0192-7.3262 4.5508-2.3856 2.3612-3.6272 4.1642-4.7226 6.8906-1.3388 3.2619-1.6806 7.5689-0.97461 11.756 0.0328 0.19086 0.12399 0.55379 0.17578 0.80274 0.20715-0.90373 0.4721-1.7626 0.79883-2.5586 1.0954-2.7264 2.3371-4.5294 4.7226-6.8906 2.556-2.5316 4.5024-3.7475 7.3262-4.5508 2.483-0.68159 11.369-0.60904 18.258 0.16992 7.4489 0.852 16.067 0.82849 27.143-0.0723 11.782-0.9737 13.121-0.97352 16.018-0.26757 3.3349 0.80331 7.0337 3.0421 9.541 5.7441 2.2868 2.4692 3.8013 5.3333 4.5352 8.5684 1.4113-7.5463-0.11641-13.797-4.5352-18.568-2.5073-2.702-6.2061-4.9408-9.541-5.7441-1.4484-0.35298-2.5082-0.52957-4.6777-0.4961z" fill="#fff" opacity=".05" stroke-width=".024343"/><g stroke-width=".024343"><path d="m278.18 378.59c-0.0544 0.0762-0.11177 0.14717-0.16407 0.22656-0.42742 0.6545-0.81366 1.528-1.0859 2.3594 0.97884-0.44819 1.5723-0.96819 1.5723-1.4785 0-0.1263-0.14294-0.57986-0.32226-1.1074z" opacity=".3"/><path d="m234.49 378.87c-0.0543 0.85546 0.1707 1.4369 0.76367 1.9316-0.0905-0.78588-0.33345-1.3729-0.76367-1.9316z" opacity=".3"/><path d="m259.83 402.64c-0.1423 0.12196 0.62793 3.7432 1.1055 5.4746l4.4219 2.1992c13.315 6.5969 19.546 9.1518 26.654 10.953 5.4528 1.3875 8.0336 1.729 14.484 1.875 10.248 0.21909 19.158-1.1938 29.576-4.6992 3.7488-1.2415 10.564-3.9417 12-4.7207l0.90234-0.51172-1.2188 0.14649c-0.65725 0.0974-3.3582 0.63257-5.9629 1.2168-7.2541 1.6066-11.953 2.24-21.301 2.8242-5.5014 0.34079-14.361 0.14493-18.354-0.39062-9.445-1.2902-16.821-3.8696-30.404-10.686-1.5069-0.75346-2.7797-1.4212-3.9121-2.043-1.627-0.16357-3.3687-0.48825-5.2656-0.98047-1.4849-0.3895-2.7022-0.68255-2.7266-0.6582z" opacity=".3"/><path d="m252.75 402.84-3.2383 0.60742c-1.4706 0.26365-2.8908 0.45766-4.2363 0.58594-1.135 0.60897-2.4605 1.296-4.1387 2.1465-12.95 6.5725-22.662 10.053-29.697 10.686-7.2785 0.65724-22.883 0.46346-30.234-0.33984-5.0876-0.55991-9.9801-1.5096-14.508-2.7754-2.0448-0.55989-1.8978-0.38936 0.97461 1.0469 9.7128 4.9172 29.356 9.3967 38.533 8.8125 12.415-0.82764 23.15-4.2842 41.018-13.291l4.4883-2.252c0.40377-1.1425 0.72559-2.4667 0.89258-3.8633z" opacity=".3"/></g><g fill="#fff" stroke-width=".024343"><path d="m90.994 61.479c-1.892-0.0251-3.7135 0.04726-5.457 0.2207-7.1568 0.6816-15.043 3.4088-21.98 7.5957-7.6193 4.6008-16.165 13.121-21.91 21.885-6.4021 9.7371-8.8597 19.668-9.9551 39.994-0.53913 9.7511-0.76504 24.623-0.66797 36.105 0.05759-9.2367 0.27617-19.019 0.66797-26.105 1.0954-20.326 3.553-30.257 9.9551-39.994 5.7449-8.7634 14.291-17.284 21.91-21.885 6.9377-4.1869 14.824-6.9141 21.98-7.5957 4.6494-0.46251 9.8582-0.2189 15.457 0.73047 11.855 1.9718 19.158 6.2085 51.193 29.699l8.9336 6.5469 1.8984-0.24219c16.042-2.0204 43.793-4.4785 61.807-5.4766 16.991-0.92502 42.112-1.0955 56.109-0.36523 15.092 0.75462 25.414 1.5337 40.652 3.043 7.6436 0.75462 10.931 1.0949 21.301 2.166 1.8744 0.19474 4.405 0.43776 5.6465 0.53516l2.2402 0.14648 6.7188-4.9414c11.198-8.2522 12.439-9.1533 18.5-13.486 17.648-12.61 25.293-16.504 34.811-17.818 3.7001-0.48685 12.657-0.56017 15.943-0.09766 11.149 1.5336 20.182 5.5986 28.848 12.926 2.702 2.2882 7.9352 7.6917 10.15 10.467 8.4956 10.638 12.44 22.81 14.168 43.574 0.582 6.984 0.92213 13.935 1.0371 20.717 0.17388-9.8504-0.16483-20.249-1.0371-30.717-1.7283-20.764-5.6724-32.936-14.168-43.574-2.2152-2.7751-7.4484-8.1786-10.15-10.467-8.666-7.3272-17.699-11.392-28.848-12.926-3.2863-0.46251-12.243-0.3892-15.943 0.09766-9.518 1.3145-17.162 5.2088-34.811 17.818-6.0613 4.333-7.3024 5.2341-18.5 13.486l-6.7188 4.9414-2.2402-0.14648c-1.2415-0.0974-3.7721-0.34042-5.6465-0.53516-10.37-1.0711-13.657-1.4114-21.301-2.166-15.239-1.5092-25.56-2.2883-40.652-3.043-13.997-0.73028-39.118-0.55979-56.109 0.36523-18.014 0.99805-45.765 3.4561-61.807 5.4766l-1.8984 0.24219-8.9336-6.5469c-32.035-23.491-39.339-27.727-51.193-29.699-3.4993-0.59336-6.8466-0.90933-10-0.95117z" opacity=".2"/><path d="m473.71 219.11c-0.79653 2.6431-1.4414 4.845-1.4414 5.0039 0 0.17039 0.65762 2.4598 1.4609 5.0644 4.2638 13.835 5.8766 24.112 6.1113 39.898 0.028-1.69 0.0469-3.4442 0.0469-5.3516 0.0243-18.573-1.4844-29.381-6.1582-44.547-8e-3 -0.0258-0.0116-0.0427-0.0195-0.0684z" opacity=".2"/><path d="m37.719 219.14-0.33203 1.1992c-4.5278 16.407-5.5011 22.055-6.207 36.393-0.14674 3.0199-0.13357 6.7416-0.01758 10.66 0.0086-0.20972 0.0077-0.45645 0.01758-0.66015 0.70596-14.338 1.6793-19.986 6.207-36.393l1.8027-6.5z" opacity=".2"/><path d="m399.04 231.57c0.93759 1.48 1.873 3.1017 2.7988 4.8516 0.68467 0.10601 1.0527 0.063 1.0527-0.14063 0-0.40256-1.5655-2.2604-3.8516-4.7109z" opacity=".2"/><path d="m112.54 231.59c-2.2121 2.4032-3.7051 4.2261-3.7051 4.6699 0 0.21695 0.41183 0.2667 1.084 0.17969 0.87164-1.6932 1.7516-3.3206 2.6211-4.8496z" opacity=".2"/><path d="m412.31 289.14c-0.0376 7.8442-0.14057 15.181-0.29297 15.885-0.14606 0.63291-0.29229 0.80273-0.73046 0.80273-0.73028 0-2.9705-1.704-5.2344-3.9922-0.99804-1.0224-1.8733-1.8496-1.9707-1.8496-0.0974 0-0.21994 1.8993-0.29297 4.1875-0.12171 4.333-0.53434 6.6706-1.9219 10.906-2.1665 6.6699-6.6216 14.604-11.125 19.789-2.2396 2.5803-6.4513 6.2563-8.4961 7.4004-1.1441 0.65725-1.6549 0.80469-2.8477 0.80468-2.5803-0.0243-3.8954-0.82828-12.172-7.5469-3.2133-2.6047-7.8628-6.3789-10.346-8.375l-4.5039-3.627-0.0723 5.1621-0.0488 5.1602-1.2891-1.0234c-8.8851-7.1567-22.007-15.334-32.328-20.105-9.2015-4.26-17.746-7.0843-17.746-5.8672 0 0.48685 1.7041 3.2615 4.041 6.5234 1.673 2.3501 2.9055 4.2424 3.3164 5.0371 3.0049 1.0838 6.6231 2.5633 10.389 4.3066 10.321 4.7712 23.443 12.949 32.328 20.105l1.2891 1.0234 0.0488-5.1602 0.0723-5.1621 4.5039 3.627c2.483 1.9961 7.1324 5.7703 10.346 8.375 8.2765 6.7186 9.5916 7.5226 12.172 7.5469 1.1928 1e-5 1.7036-0.14743 2.8477-0.80468 2.0448-1.1441 6.2565-4.8201 8.4961-7.4004 4.5034-5.185 8.9585-13.119 11.125-19.789 1.3875-4.2356 1.8002-6.5732 1.9219-10.906 0.073-2.2882 0.19557-4.1875 0.29297-4.1875s0.97266 0.82723 1.9707 1.8496c2.2639 2.2882 4.5041 3.9922 5.2344 3.9922 0.43817 0 0.5844-0.16982 0.73046-0.80273 0.22014-1.016 0.33505-15.503 0.29297-25.885z" opacity=".2"/><path d="m99.418 289.16c-0.0506 10.023 0.08879 24.358 0.33594 25.576 0.36514 1.777 1.4357 1.3375 5.1602-2.1191 1.2658-1.1928 2.3371-2.0926 2.4102-2.0195 0.0486 0.0487 0.2181 1.607 0.33984 3.457 0.41378 6.4508 1.9973 12.244 5.0645 18.451 2.9942 6.11 6.1824 10.467 10.783 14.873 6.3291 6.0126 8.4462 6.8888 12.098 4.9414 1.5093-0.80331 3.0196-1.9949 16.043-12.584 4.1626-3.3593 7.6183-6.1348 7.6914-6.1348 0.0487 0 0.14532 2.313 0.16992 5.1367l0.0742 5.1348 2.6035-2.166c5.3311-4.4547 19.597-13.438 27.922-17.576 4.3681-2.184 9.4208-4.2955 13.455-5.7324l0.15234-0.29883c0.26779-0.51119 1.7535-2.7497 3.2871-4.9648 1.5579-2.2152 3.0899-4.5771 3.4551-5.2344l0.63477-1.2168-0.73047-0.0742c-2.1178-0.21908-12.367 3.578-20.254 7.5215-8.3252 4.1382-22.591 13.121-27.922 17.576l-2.6035 2.166-0.0742-5.1348c-0.0246-2.8238-0.12121-5.1367-0.16992-5.1367-0.0731 0-3.5288 2.7755-7.6914 6.1348-13.023 10.589-14.534 11.781-16.043 12.584-3.6514 1.9474-5.7686 1.0712-12.098-4.9414-4.6008-4.406-7.789-8.763-10.783-14.873-3.0672-6.2074-4.6507-12-5.0645-18.451-0.12174-1.85-0.2912-3.4083-0.33984-3.457-0.0731-0.0731-1.1444 0.82674-2.4102 2.0195-3.7244 3.4566-4.795 3.8961-5.1602 2.1191-0.17038-0.83982-0.29334-7.9539-0.33594-15.576z" opacity=".2"/><path d="m255.93 290.29c-0.38198 0.0966-2.1716 2.7545-7.877 11.746-4.2113 6.6455-7.6926 12.074-7.7656 12.074-0.0731 0-1.7039-2.8246-3.627-6.2813-1.9231-3.4323-3.5294-6.2794-3.5781-6.3281-0.12173-0.17042-2.8972 1.3875-8.8125 4.9902-13.93 8.4478-16.797 10.178-18.523 11.17 2.1939-0.70465 3.9035-1.1235 4.625-1.0488l0.73047 0.0742-0.63477 1.2168c-0.36515 0.65724-1.8972 3.0192-3.4551 5.2344-1.5336 2.2152-3.0193 4.4536-3.2871 4.9648l-0.48632 0.94922 1.8008-0.97266c1.6796-0.94936 4.138-2.435 19.23-11.588 5.9153-3.6027 8.6908-5.1606 8.8125-4.9902 0.0487 0.0487 1.6551 2.8958 3.5781 6.3281 1.9231 3.4567 3.5538 6.2813 3.627 6.2813 0.073-1e-5 3.5543-5.4287 7.7656-12.074 6.0857-9.591 7.7165-11.976 7.9356-11.732 0.31645 0.34079 4.8683 7.4487 11.246 17.6 2.1909 3.481 4.0667 6.3526 4.1641 6.377 0.0974 0.0487 1.2656-1.9947 2.5801-4.502 1.3389-2.5073 2.8962-5.4053 3.4805-6.4277l1.0703-1.8984 1.6309 0.82813c0.90068 0.46253 4.1633 2.3609 7.2305 4.2109 3.0915 1.8744 8.1301 4.942 11.197 6.8164 6.0857 3.7001 9.8594 5.8175 9.8594 5.5254 0-0.29211-1.4611-2.5807-3.5059-5.4531-2.3369-3.2619-4.041-6.0366-4.041-6.5234 0-0.57567 1.9512-0.22618 4.9395 0.73047-1.7056-0.95493-4.1792-2.4111-7.252-4.2793-3.0672-1.8744-8.1058-4.942-11.197-6.8164-3.0672-1.85-6.3298-3.7484-7.2305-4.2109l-1.6309-0.82813-1.0703 1.8984c-0.58422 1.0224-2.1416 3.9204-3.4805 6.4277-1.3145 2.5073-2.4827 4.5506-2.5801 4.502-0.0974-0.0244-1.9732-2.896-4.1641-6.377-6.3778-10.151-10.93-17.259-11.246-17.6-0.0137-0.0152-0.0331-0.0201-0.0586-0.0137z" opacity=".2"/></g><path d="m212.1 358.61c-0.64168 2.7995-0.70944 6.0321-0.17578 9.1973 0.3895 2.2639 2.2391 9.0811 2.5312 9.4219 0.0974 0.0974 1.9242-0.1212 4.0664-0.48633 3.1158-0.53554 4.6491-0.65734 7.8867-0.68164 3.6757 0 4.1146 0.0474 5.2344 0.55859 0.68161 0.31646 1.6784 0.9987 2.2383 1.5586 0.23877 0.23486 0.43294 0.46088 0.60742 0.6875 7e-3 -0.10357 0.0109-0.2063 0.0254-0.31836 0.0731-0.58421 0.31805-2.4092 0.53711-4.0644 0.5112-3.7975 0.31499-4.8441-1.1699-6.3047-0.55989-0.5599-1.5567-1.2421-2.2383-1.5586-1.1198-0.5112-1.5586-0.55859-5.2344-0.55859-3.2376 0.0243-4.7709 0.1461-7.8867 0.68164-2.1422 0.36513-3.969 0.5837-4.0664 0.48633-0.2675-0.31207-1.793-5.9151-2.3555-8.6191zm88.342 0.14258c-0.0504 0.26924-0.0945 0.53604-0.15235 0.80859-0.80331 3.8218-1.4366 5.4763-2.459 6.377-1.2171 1.0711-2.3615 1.1209-6.7676 0.39063-7.4489-1.2658-11.026-0.58476-13.047 2.4824-0.77897 1.1928-1.4609 3.1397-1.4609 4.1621 0 0.80331 0.51114 2.6292 1.3144 4.7227 0.11978 0.31656 0.21337 0.60275 0.31055 0.88867 2.0482-2.8678 5.6267-3.4889 12.883-2.2559 4.406 0.73028 5.5504 0.68045 6.7676-0.39063 1.0224-0.90067 1.6557-2.5552 2.459-6.377 0.84035-3.9582 0.8871-7.5695 0.15235-10.809zm-40.611 21.889c-0.17041 0.14605 0.99814 5.5015 1.3633 6.3535 0.68666 1.5259 2.5294 3.0344 6.6289 5.2852 1.6718 0.16808 3.2233 0.1651 4.6914-8e-3 3.4323-0.38948 5.9883-1.509 5.9883-2.5801 0-0.19474-0.29202-1.0954-0.63281-1.9961-0.80331-2.0935-1.3144-3.9194-1.3144-4.7227 0-0.46141 0.15106-1.1189 0.375-1.8027-1.0755 0.49243-2.6191 0.89765-4.416 1.1016-2.8968 0.34081-6.1109 0.0254-9.957-0.97266-1.4849-0.3895-2.7022-0.68255-2.7266-0.6582zm-24.578 0.15625c0.1011 0.87752 0.0251 2.0043-0.20117 3.6856-0.21906 1.6553-0.46401 3.4802-0.53711 4.0644-0.1704 1.3145 0.19483 2.0205 1.3633 2.6777 1.682 0.94268 5.1513 1.2094 9.3965 0.80469 3.7054-1.988 4.8963-2.9235 5.623-4.1348 0.80331-1.3388 1.4373-3.4558 1.7051-5.6953l0.14649-1.3633-3.2383 0.60742c-6.11 1.0954-11.418 1.0227-13.633-0.21875-0.24601-0.13838-0.4477-0.2798-0.625-0.42773z" opacity=".2" stroke-width=".024343"/></svg>
