<svg width="512" height="512" version="1.1" viewBox="0 0 384 384" xmlns="http://www.w3.org/2000/svg"><path d="m65.469 40.77c0-5.4258 6.457-11.125 11.883-11.125h181.88l77.637 77.18v224.2c0 5.2422-5.832 11.16-11.07 11.16h-260.33z" opacity=".3"/><path d="m46.93 68.793c0-5.9805 7.3789-11.977 13.359-11.977h180.41l77.633 77.18s0.0859 149.2 0.0859 221.34c0 5.2773-9.164 14.012-14.441 14.012h-243.04c-6.0742 0-14.012-5.582-14.012-11.66z" opacity=".3"/><path d="m65.469 33.27c0-5.4258 6.457-11.125 11.883-11.125h181.88l77.637 77.18v224.2c0 5.2422-5.832 11.16-11.07 11.16h-260.33z" fill="#1a3e7b"/><path d="m65.617 31.82c0-5.3438 7.4336-9.6836 12.777-9.6836h7.5078v312.52h-20.285v-302.84z" fill-opacity=".16863"/><path d="m46.93 61.293c0-5.9805 7.3789-11.977 13.359-11.977h180.41l77.633 77.18s0.085938 149.2 0.085938 221.34c0 5.2773-9.1641 14.012-14.441 14.012h-243.04c-6.0742 0-14.012-5.582-14.012-11.66z" fill="#b7164b"/><path d="m88.453 286.87c-3.3359 0-3.3359-10 0-10h107.2c3.3359 0 3.3359 10 0 10zm0.042969-39.988c-3.3359 0-3.3359-10.004 0-10.004h193.7c3.3359 0 3.3359 10.004 0 10.004zm0-39.992c-3.3359 0-3.3359-10.004 0-10.004h193.7c3.3359 0 3.3359 10.004 0 10.004zm0-40.012c-3.3281 0-3.3281-9.9805 0-9.9805h193.7c3.3281 0 3.3281 9.9805 0 9.9805z" fill="#fff"/><path d="m46.82 60.445c0-5.6367 6.9922-11.254 12.629-11.254 25.684 0 7.7148 0.082032 7.7148 0.082032v312.52h-6.9453c-5.8086 0-13.34-5.4023-13.34-11.211 0-88.199-0.058594-193.35-0.058594-290.15z" fill-opacity=".16863"/><path d="m243.84 122.99 57.316-58.73 35.637 35.352 0.15625 115.59z" fill-opacity=".24706"/><path d="m240.38 49.332 78.195 77.473s-44.375 0.28906-67.477 0c-5.4023-0.09375-10.539-6.7578-10.719-12.16-0.76953-22.887 0-65.312 0-65.312z" fill="#cc5b80"/><path d="m263.11 97.508 44.953-27.219 28.492 29.078 0.41016 73.539z" fill-opacity=".24706"/><path d="m259.21 22.23 77.898 77.406s-44.375 0.28516-67.477 0c-5.4023-0.097657-10.539-6.7617-10.723-12.164-0.76562-22.887 0.30078-65.242 0.30078-65.242z" fill="#435f8e"/></svg>
