<svg width="512" height="512" version="1.1" viewBox="0 0 384 384" xmlns="http://www.w3.org/2000/svg" xmlns:xlink="http://www.w3.org/1999/xlink"><defs><filter id="alpha" x="0%" y="0%" width="100%" height="100%"><feColorMatrix in="SourceGraphic" values="0 0 0 0 1 0 0 0 0 1 0 0 0 0 1 0 0 0 1 0"/></filter><mask id="e"><g filter="url(#alpha)"><rect width="384" height="384" fill-opacity=".2"/></g></mask><clipPath id="g"><rect width="384" height="384"/></clipPath><g id="a" clip-path="url(#g)"><path d="m22.91 76.113 47.52-47.52c6.5586-6.5586 17.195-6.5586 23.758 0l47.516 47.52c6.5625 6.5586 6.5625 17.199 0 23.758l-47.516 47.52c-6.5625 6.5586-17.199 6.5586-23.758 0l-47.52-47.52c-6.5625-6.5586-6.5625-17.199 0-23.758z"/></g><filter id="i" x="0%" y="0%" width="100%" height="100%"><feColorMatrix in="SourceGraphic" values="0 0 0 0 1 0 0 0 0 1 0 0 0 0 1 0 0 0 1 0"/></filter><clipPath><rect width="384" height="384"/></clipPath><mask id="c"><g filter="url(#i)"><rect width="384" height="384" fill-opacity=".30196"/></g></mask><clipPath id="f"><rect width="384" height="384"/></clipPath><g id="b" clip-path="url(#f)"><path d="m208.14 195.32c-0.003907 7.9922-6.4844 14.473-14.477 14.473-7.9961 0-14.477-6.4805-14.477-14.473-0.003906-7.9961 6.4766-14.48 14.477-14.48 7.9961 0 14.48 6.4844 14.477 14.48"/></g><mask id="d"><g filter="url(#h)"><rect width="384" height="384" fill-opacity=".2"/></g></mask><filter id="h" x="0" y="0" width="1" height="1"><feColorMatrix in="SourceGraphic" values="0 0 0 0 1 0 0 0 0 1 0 0 0 0 1 0 0 0 1 0"/></filter></defs><g fill-rule="evenodd"><path d="m346.33 213.92c0 85.237-69.096 154.33-154.33 154.33-85.233-1e-5 -154.33-69.096-154.33-154.33 0-85.233 69.096-154.33 154.33-154.33 85.237 0 154.33 69.096 154.33 154.33z" fill="#0d0e12" opacity=".3" stroke-width=".91457"/><path d="m346.33 206.42c0 85.237-69.096 154.33-154.33 154.33-85.233 0-154.33-69.096-154.33-154.33 0-85.233 69.096-154.33 154.33-154.33 85.237 0 154.33 69.096 154.33 154.33z" fill="#353a4a" stroke-width=".91457"/><path d="m332.35 212.84c0 76.681-62.162 138.84-138.84 138.84-76.681 0-138.84-62.162-138.84-138.84s62.162-138.84 138.84-138.84 138.84 62.162 138.84 138.84" opacity=".5" stroke-width=".91457"/></g><use transform="matrix(-.90713 .11642 .11642 .90713 338.3 10.694)" width="100%" height="100%" mask="url(#d)" xlink:href="#a"/><path d="m325.7 77.094-48.638-37.57c-6.7135-5.1895-16.362-3.9511-21.551 2.7659l-37.571 48.634c-5.189 6.717-3.9507 16.366 2.7659 21.551l48.635 37.574c6.7166 5.1855 16.365 3.9472 21.551-2.7659l37.574-48.638c5.1895-6.7135 3.9511-16.362-2.7659-21.551z" stroke-width=".91457"/><use transform="matrix(.90713 .11642 -.11642 .90713 41.909 10.694)" width="100%" height="100%" mask="url(#e)" xlink:href="#a"/><g stroke-width=".91457"><path d="m54.512 77.094 48.638-37.57c6.7135-5.1895 16.362-3.9511 21.551 2.7659l37.571 48.634c5.189 6.717 3.9507 16.366-2.7659 21.551l-48.635 37.574c-6.7166 5.1855-16.365 3.9472-21.551-2.7659l-37.574-48.638c-5.1895-6.7135-3.9511-16.362 2.7659-21.551z"/><path d="m190.1 24.109c-5.3968 0-10.287 1.5192-14.053 4.2213-1.8827 1.351-3.4952 2.9803-4.7758 5.1529-1.2806 2.1726-2.2953 5.1954-2.2953 8.7175 0 0.09416 7.3e-4 28.688 2e-3 28.781 0.0523 3.4017 1.0468 6.3215 2.2932 8.4361 1.2806 2.1726 2.8931 3.8019 4.7758 5.1529 3.7655 2.702 8.6561 4.2213 14.053 4.2213 5.3968 0 10.287-1.5193 14.053-4.2213 1.8828-1.351 3.4968-2.9803 4.7774-5.1529 1.2401-2.1038 2.2293-5.0048 2.2907-8.3845 2e-3 -0.11049 3e-3 -28.721 3e-3 -28.833 0-3.5221-1.0131-6.5449-2.2937-8.7175-1.2806-2.1726-2.8947-3.8019-4.7774-5.1529-3.7655-2.7021-19.45-4.2213-14.053-4.2213z" opacity=".3" style="paint-order:markers stroke fill"/><path d="m332.35 205.34c0 76.681-62.162 138.84-138.84 138.84-76.681 0-138.84-62.162-138.84-138.84s62.162-138.84 138.84-138.84 138.84 62.162 138.84 138.84" fill="#fff" fill-rule="evenodd"/><path d="m259.72 205.33c-7e-3 36.558-29.645 66.188-66.202 66.188-36.558 0-66.195-29.63-66.202-66.188-7e-3 -36.565 29.634-66.213 66.202-66.213 36.565 0 66.21 29.648 66.202 66.213" fill="#357af0"/></g><path transform="scale(.75)" d="m258.03 185.5c-48.758 0-88.279 39.53-88.27 88.283 2e-4 0.99622 0.0237 1.9864 0.05664 2.9746 1.5871-47.352 40.468-85.258 88.213-85.258 47.746 0 86.635 37.916 88.213 85.275 0.03333-0.99406 0.05645-1.99 0.05665-2.9922 0.00953-48.753-39.517-88.283-88.27-88.283z" fill="#fff" opacity=".3" stroke-width="1.2194"/><path d="m269.18 125.18c-1.9008 0-3.8039 0.73148-5.2552 2.1828l-73.982 73.98-4.1727 10.484 0.14111 0.31438c0.35898 0.79771 0.862 1.5546 1.5201 2.2168l0.23758 0.23936h0.12503c2.9161 2.5907 7.3537 2.5564 10.148-0.23758l76.491-76.491c2.8995-2.8995 2.8995-7.6055 0-10.505-1.4513-1.4513-3.3557-2.1828-5.2534-2.1828z" opacity=".3" stroke-width=".91457"/><path d="m269.18 119.14c-1.6934 0-3.3832 0.64662-4.68 1.9434l-73.862 73.862-3.9834 10.007c0.32153 0.71451 0.7681 1.3861 1.354 1.9756h4e-3c2.5901 2.5901 6.7628 2.5901 9.3529 0l76.491-76.491c2.5901-2.5901 2.5901-6.7628 0-9.3529-1.2968-1.2968-2.9866-1.9434-4.6764-1.9434z" fill="#fd4747" stroke-width=".91457"/><use transform="matrix(.91457 0 0 .91457 16.405 30.824)" width="100%" height="100%" mask="url(#c)" xlink:href="#b"/><path d="m206.76 205.34c-4e-3 7.3094-5.9304 13.236-13.24 13.236-7.313 0-13.24-5.9268-13.24-13.236-4e-3 -7.313 5.9268-13.243 13.24-13.243 7.313 0 13.243 5.9304 13.24 13.243" fill="#fff" stroke-width=".91457"/><path d="m190.1 23.25c-5.3968 0-10.287 1.5192-14.053 4.2213-1.8827 1.351-3.4952 2.9803-4.7758 5.1529-1.2806 2.1726-2.2953 5.1954-2.2953 8.7175 0 3.5221 1.0147 6.5449 2.2953 8.7175 1.2806 2.1726 2.8931 3.8019 4.7758 5.1529 3.7655 2.702 8.6561 4.2213 14.053 4.2213 5.3968 0 10.287-1.5193 14.053-4.2213 1.8828-1.351 3.4968-2.9803 4.7774-5.1529 1.2806-2.1726 2.2937-5.1954 2.2937-8.7175 0-3.5221-1.0131-6.5449-2.2937-8.7175-1.2806-2.1726-2.8947-3.8019-4.7774-5.1529-3.7655-2.7021-8.6561-4.2213-14.053-4.2213z" stroke-width=".91457" style="paint-order:markers stroke fill"/><path transform="scale(.75)" d="m169.81 270.75c-0.03368 1.005-0.05683 2.0121-0.05664 3.0254 0.00952 48.744 39.526 88.25 88.27 88.25 48.743 0 88.26-39.506 88.27-88.25 1.9e-4 -1.0074-0.02335-2.0086-0.05665-3.0078-1.5877 47.357-40.472 85.258-88.213 85.258-47.747-2e-5 -86.634-37.91-88.213-85.275z" opacity=".3" stroke-width="1.2194"/><path transform="scale(.75)" d="m150.7 48.432c-4.5888-0.14769-9.2537 1.2404-13.17 4.2676l-64.852 50.094c-6.658 5.1434-9.2684 13.571-7.332 21.236 1.0775-4.3107 3.5417-8.3082 7.332-11.236l64.852-50.094c3.9162-3.0272 8.5812-4.4153 13.17-4.2676 5.8998 0.18989 11.673 2.9173 15.564 7.9551l50.096 64.846c1.7748 2.2974 2.9783 4.8526 3.6465 7.498 1.4676-5.8734 0.34322-12.333-3.6465-17.498l-50.096-64.846c-3.8918-5.0378-9.6646-7.7652-15.564-7.9551zm205.54 0c-5.8998 0.18989-11.673 2.9173-15.564 7.9551l-50.094 64.846c-3.9906 5.1658-5.1131 11.627-3.6445 17.502 0.66814-2.6467 1.8689-5.2034 3.6445-7.502l50.094-64.846c3.8918-5.0378 9.6646-7.7652 15.564-7.9551 4.5888-0.14769 9.2537 1.2404 13.17 4.2676l64.852 50.094c3.7904 2.9281 6.2565 6.9256 7.334 11.236 1.9363-7.6648-0.67595-16.093-7.334-21.236l-64.852-50.094c-3.9162-3.0272-8.5812-4.4153-13.17-4.2676z" fill="#fff" opacity=".1" stroke-width="1.2194"/></svg>
