<svg width="512" height="512" version="1.1" viewBox="0 0 384 384" xmlns="http://www.w3.org/2000/svg" xmlns:xlink="http://www.w3.org/1999/xlink"><defs><filter id="a" x="0%" y="0%" width="100%" height="100%"><feColorMatrix in="SourceGraphic" values="0 0 0 0 1 0 0 0 0 1 0 0 0 0 1 0 0 0 1 0"/></filter><mask id="m"><g filter="url(#a)"><rect width="384" height="384" fill-opacity=".10196"/></g></mask><clipPath id="f"><rect width="384" height="384"/></clipPath><g id="b" clip-path="url(#f)"><path transform="scale(.75)" d="m98.391 49.75c0 4.4792-3.6302 8.1094-8.1094 8.1094s-8.1094-3.6302-8.1094-8.1094 3.6302-8.1094 8.1094-8.1094 8.1094 3.6302 8.1094 8.1094zm0 0" stroke="#fff" stroke-linecap="round" stroke-linejoin="round" stroke-width=".99655"/></g><mask id="l"><g filter="url(#a)"><rect width="384" height="384" fill-opacity=".10196"/></g></mask><clipPath id="g"><rect width="384" height="384"/></clipPath><g id="e" clip-path="url(#g)"><path transform="scale(.75)" d="m429.85 49.75c0 4.4792-3.6302 8.1094-8.1094 8.1094-4.474 0-8.1042-3.6302-8.1042-8.1094s3.6302-8.1094 8.1042-8.1094c4.4792 0 8.1094 3.6302 8.1094 8.1094zm0 0" stroke="#fff" stroke-linecap="round" stroke-linejoin="round" stroke-width=".99655"/></g><mask id="k"><g filter="url(#a)"><rect width="384" height="384" fill-opacity=".10196"/></g></mask><clipPath id="h"><rect width="384" height="384"/></clipPath><g id="d" clip-path="url(#h)"><path transform="scale(.75)" d="m98.391 404.61c0 4.4792-3.6302 8.1094-8.1094 8.1094s-8.1094-3.6302-8.1094-8.1094 3.6302-8.1094 8.1094-8.1094 8.1094 3.6302 8.1094 8.1094zm0 0" stroke="#fff" stroke-linecap="round" stroke-linejoin="round" stroke-width=".99655"/></g><mask id="j"><g filter="url(#a)"><rect width="384" height="384" fill-opacity=".10196"/></g></mask><clipPath id="i"><rect width="384" height="384"/></clipPath><g id="c" clip-path="url(#i)"><path transform="scale(.75)" d="m429.85 404.61c0 4.4792-3.6302 8.1094-8.1094 8.1094-4.474 0-8.1042-3.6302-8.1042-8.1094s3.6302-8.1094 8.1042-8.1094c4.4792 0 8.1094 3.6302 8.1094 8.1094zm0 0" stroke="#fff" stroke-linecap="round" stroke-linejoin="round" stroke-width=".99655"/></g></defs><g transform="translate(.0024 -.45382)"><path d="m69.555 24.285c-8.7146 0-15.781 6.1914-15.781 13.828v2.6162c-0.0011 0.07737-0.0059 0.15381-0.0059 0.23144v303.88c0 8.7146 7.066 15.782 15.781 15.782h244.89c8.7146 0 15.781-7.0674 15.781-15.782v-40.131c2e-3 -0.0851 7e-3 -0.1694 7e-3 -0.25489v-266.34c0-7.6366-7.066-13.828-15.781-13.828z" opacity=".2" stroke="#000" stroke-width="7.5"/><path d="m69.555 24.285h244.89c8.7148 0 15.781 7.0664 15.781 15.777v303.88c0 8.7148-7.0664 15.781-15.781 15.781h-244.89c-8.7148 0-15.781-7.0664-15.781-15.781v-303.88c0-8.7109 7.0664-15.777 15.781-15.777z"/><g fill="#fff"><path d="m74.383 329.47h116.23c2.3945 0 4.3359 1.9414 4.3359 4.3359v8.5664c0 2.3945-1.9414 4.3398-4.3359 4.3398h-116.23c-2.3984 0-4.3398-1.9453-4.3398-4.3398v-8.5664c0-2.3945 1.9414-4.3359 4.3398-4.3359z"/><path d="m69.562 23.387h244.89c8.7148 0 15.781 6.1914 15.781 13.828v266.34c0 7.6406-7.0664 13.832-15.781 13.832h-244.89c-8.7148 0-15.781-6.1914-15.781-13.832v-266.34c0-7.6367 7.0664-13.828 15.781-13.828z"/><path d="m275.97 338.06c0 4.2695-3.4609 7.7305-7.7305 7.7305-4.2734 0-7.7344-3.4609-7.7344-7.7305s3.4609-7.7305 7.7344-7.7305c4.2695 0 7.7305 3.4609 7.7305 7.7305z"/><path d="m299.85 338.06c0 4.2695-3.4648 7.7305-7.7344 7.7305s-7.7305-3.4609-7.7305-7.7305 3.4609-7.7305 7.7305-7.7305 7.7344 3.4609 7.7344 7.7305z"/></g><use width="100%" height="100%" mask="url(#m)" xlink:href="#b"/><use width="100%" height="100%" mask="url(#l)" xlink:href="#e"/><use width="100%" height="100%" mask="url(#k)" xlink:href="#d"/><use width="100%" height="100%" mask="url(#j)" xlink:href="#c"/></g><path d="m309.01 87.398h-234v-23.419c0-9.341 7.52-16.861 16.861-16.861h200.28c9.341 0 16.861 7.52 16.861 16.861z" fill="#367bf0"/><path d="m309.01 119.25h-232.14c-0.63521 0-1.2358-0.11829-1.8524-0.18606v-41.787h234z" opacity=".3"/><path d="m309.01 127.69h-232.14c-0.63521 0-1.2358-0.1183-1.8524-0.18605v-41.787h234z" fill="#8a3fab"/><path d="m309.01 152.87h-234v-35.485c0.61658 0.0678 1.2172 0.18605 1.8524 0.18605h232.14z" opacity=".3"/><path d="m309.01 161.3h-234v-35.485c0.61658 0.0678 1.2172 0.18606 1.8524 0.18606h232.14z" fill="#f8de68"/><path d="m309.01 210.42h-234v-59.241h234z" opacity=".2"/><path d="m309.01 218.85h-234v-59.241h234z" fill="#fd3535"/><path d="m91.872 284.32c-9.341 0-16.861-7.52-16.861-16.861v-58.72h234v58.72c0 9.341-7.52 16.861-16.861 16.861z" opacity=".3"/><path d="m91.872 292.75c-9.341 0-16.861-7.52-16.861-16.861v-58.72h234v58.72c0 9.341-7.52 16.861-16.861 16.861z" fill="#23bac2"/><path d="m75.011 267.46v8.4305c0 9.341 7.52 16.861 16.861 16.861h200.28c9.341 0 16.861-7.52 16.861-16.861v-8.4305c0 9.341-7.52 16.861-16.861 16.861h-200.28c-9.341 0-16.861-7.52-16.861-16.861z" opacity=".3"/><path d="m91.872 47.118c-9.341 0-16.861 7.52-16.861 16.861v8.4305c0-9.341 7.52-16.861 16.861-16.861h200.28c9.341 0 16.861 7.52 16.861 16.861v-8.4305c0-9.341-7.52-16.861-16.861-16.861z" fill="#fff" opacity=".2"/></svg>
