<svg width="512" height="512" version="1" xmlns="http://www.w3.org/2000/svg"><defs><clipPath id="c"><path d="m111 119h177v23h-177z"/></clipPath><clipPath id="b"><path d="m177 130h45v89h-45z"/></clipPath><clipPath id="a"><path d="m111 207h177v89h-177z"/></clipPath><clipPath id="d"><rect width="384" height="384"/></clipPath><g clip-path="url(#d)"></g></defs><rect x="31" y="31" width="450" height="450" rx="22.5" ry="22.5" fill="#622e78" stroke-width="8.0357"/><path d="m232.5 168.47c-8.2953 44.072-17.922 94.924-26.218 138.95h27.733c4.7789-25.28 9.4911-54.308 14.216-79.294 9.4357 0 18.385-0.32946 27.305 0.0804 8.7704 0.39215 12.103 4.793 10.623 13.691-2.0365 12.136-4.4211 28.209-6.6613 40.317-1.5477 8.352-3.1288 16.716-4.758 25.46 9.0828 0 17.781 0.0161 26.47-0.11652 0.70634-8e-3 1.8354-1.1738 2.0391-2.0003 0.77384-3.111 1.2418-6.3296 1.8256-9.4967 3.3398-17.993 6.9138-37.954 9.9821-55.989 2.7017-15.919-3.6573-26.037-18.741-29.344-7.1413-1.5695-14.614-1.761-21.945-2.0974-7.2499-0.3367-14.527-0.0563-22.062-0.0563 2.213-11.841 5.7183-28.374 7.9042-40.103zm-124.17 39.812c-0.88707 0-1.7809 0.12857-2.7383 0.21375-8.603 44.047-19.964 94.893-28.568 138.95h28.975c2.1825-11.068 7.1812-25.776 9.1665-36.549 0.38009-2.0735 1.2084-2.5775 3.1655-2.5636 9.5183 0.0402 19.058 0.2459 28.548-0.17437 5.9841-0.26679 12.013-1.0515 17.828-2.4663 21.782-5.2958 43.835-31.411 41.385-64.165-1.2532-16.798-10.803-27.183-27.305-31.189-5.0267-1.2328-10.291-1.9108-15.459-1.9809-18.333-0.2242-36.666-0.0804-54.999-0.0804zm228.7 0c-0.88706 0-1.7809 0.12857-2.7383 0.21375-8.603 44.047-19.964 94.893-28.568 138.95h28.975c2.1824-11.068 7.1811-25.776 9.1664-36.549 0.38009-2.0735 1.2084-2.5775 3.1656-2.5636 9.5183 0.0402 19.058 0.2459 28.548-0.17437 5.9841-0.26679 12.013-1.0515 17.828-2.4663 21.782-5.2958 43.835-31.411 41.385-64.165-1.2532-16.798-10.803-27.182-27.305-31.189-5.0267-1.2328-10.291-1.9108-15.459-1.9809-18.333-0.2242-36.666-0.0804-54.999-0.0804zm-206.32 20.217c10.954 0.64447 21.752 0.65411 32.355 2.0974 9.279 1.275 13.231 6.6137 12.837 15.944-0.25312 5.688-1.2973 14.423-2.8742 19.887-3.506 12.16-12.159 18.922-24.606 20.197-9.293 0.95247-18.717 0.83105-28.742 1.2235 3.7313-19.081 7.3136-40.324 11.031-59.349zm228.7 0c10.955 0.64447 21.752 0.65411 32.355 2.0974 9.2789 1.275 13.231 6.6137 12.837 15.944-0.25313 5.688-1.2974 14.423-2.8743 19.887-3.506 12.16-12.159 18.922-24.606 20.197-9.293 0.95247-18.717 0.83105-28.742 1.2235 3.7313-19.081 7.3137-40.324 11.031-59.349z" fill-rule="evenodd" opacity=".3" stroke-width="9.9433" style="isolation:isolate"/><path d="m232.5 158.47c-8.2953 44.072-17.922 94.924-26.218 138.95h27.733c4.7789-25.28 9.4911-54.308 14.216-79.294 9.4357 0 18.385-0.32946 27.305 0.0804 8.7704 0.39215 12.103 4.793 10.623 13.691-2.0365 12.136-4.4211 28.209-6.6613 40.317-1.5477 8.352-3.1288 16.716-4.758 25.46 9.0828 0 17.781 0.0241 26.47-0.11652 0.70634-0.0161 1.8354-1.1738 2.0391-2.0003 0.77384-3.111 1.2418-6.3296 1.8256-9.4966 3.3398-17.993 6.9138-37.954 9.9821-55.989 2.7017-15.919-3.6573-26.037-18.741-29.344-7.1413-1.5695-14.614-1.761-21.945-2.0974-7.2499-0.3367-14.527-0.0563-22.062-0.0563 2.213-11.841 5.7183-28.374 7.9042-40.103zm-124.17 39.812c-0.88707 0-1.7809 0.12857-2.7383 0.21375-8.603 44.047-19.964 94.893-28.568 138.95h28.975c2.1825-11.068 7.1812-25.776 9.1665-36.549 0.38009-2.0735 1.2084-2.5775 3.1655-2.5635 9.5183 0.0402 19.058 0.2459 28.548-0.17437 5.9841-0.26598 12.013-1.0515 17.828-2.4665 21.782-5.2957 43.835-31.41 41.385-64.165-1.2532-16.798-10.803-27.182-27.305-31.189-5.0267-1.2329-10.291-1.9109-15.459-1.981-18.333-0.2242-36.666-0.0804-54.999-0.0804zm228.7 0c-0.88706 0-1.7809 0.12857-2.7383 0.21375-8.603 44.047-19.964 94.893-28.568 138.95h28.975c2.1824-11.068 7.1811-25.776 9.1664-36.549 0.38009-2.0735 1.2084-2.5775 3.1656-2.5635 9.5183 0.0402 19.058 0.2459 28.548-0.17437 5.9841-0.26598 12.013-1.0515 17.828-2.4665 21.782-5.2957 43.835-31.41 41.385-64.165-1.2532-16.798-10.803-27.182-27.305-31.189-5.0267-1.2329-10.291-1.9109-15.459-1.9809-18.333-0.2242-36.666-0.0804-54.999-0.0804zm-206.32 20.217c10.954 0.64447 21.752 0.65411 32.355 2.0974 9.279 1.275 13.231 6.6137 12.837 15.944-0.25312 5.688-1.2973 14.423-2.8742 19.887-3.506 12.16-12.159 18.922-24.606 20.197-9.293 0.95263-18.717 0.83113-28.742 1.2234 3.7313-19.081 7.3136-40.324 11.031-59.349zm228.7 0c10.955 0.64447 21.752 0.65411 32.355 2.0974 9.2789 1.275 13.231 6.6137 12.837 15.944-0.25313 5.688-1.2974 14.423-2.8743 19.887-3.506 12.16-12.159 18.922-24.606 20.197-9.293 0.95263-18.717 0.83113-28.742 1.2234 3.7313-19.081 7.3137-40.324 11.031-59.349z" fill="#fff" fill-rule="evenodd" stroke-width="9.9433" style="isolation:isolate"/><path d="m31 448.5v10c0 12.465 10.035 22.5 22.5 22.5h405c12.465 0 22.5-10.035 22.5-22.5v-10c0 12.465-10.035 22.5-22.5 22.5h-405c-12.465 0-22.5-10.035-22.5-22.5z" opacity=".3" stroke-width="8.0357"/><path d="m53.5 31c-12.465 0-22.5 10.035-22.5 22.5v10c0-12.465 10.035-22.5 22.5-22.5h405c12.465 0 22.5 10.035 22.5 22.5v-10c0-12.465-10.035-22.5-22.5-22.5h-405z" fill="#fff" opacity=".1" stroke-width="8.0357"/></svg>
