<svg enable-background="new" version="1.0" viewBox="0 0 512 512" xmlns="http://www.w3.org/2000/svg" xmlns:xlink="http://www.w3.org/1999/xlink"><title>Adwaita Icon Template</title><g transform="matrix(5 0 0 5 -2535.6 -1638)" enable-background="new"><g transform="translate(70.997 -49)" enable-background="new" fill="#2e3436"><rect x="442.31" y="386.26" width="90" height="86.538" rx="6.9231" ry="6.9231" enable-background="new" fill="#622e78" style="paint-order:normal"/><path d="m487.31 472.8v-43.269h-45v36.346c0 3.8353 3.0877 6.923 6.9231 6.923z" enable-background="new" fill="#2656a8" style="paint-order:normal"/><rect x="442.31" y="382.8" width="90" height="86.538" rx="6.9231" ry="6.9231" enable-background="new" fill="#8c42ab" style="paint-order:normal"/><path d="m449.24 382.8c-3.8354 0-6.9231 3.0877-6.9231 6.9231v36.346h45v-43.269z" enable-background="new" fill="#d41919" style="paint-order:normal"/><path d="m487.31 382.8v43.269h45v-36.346c0-3.8354-3.0877-6.9231-6.9231-6.9231z" enable-background="new" fill="#0ca15e" style="paint-order:normal"/><path d="m487.31 469.34v-43.269h-45v36.346c0 3.8353 3.0877 6.923 6.9231 6.923z" enable-background="new" fill="#367bf0" style="paint-order:normal"/><rect x="454.43" y="394.05" width="20.769" height="20.769" color="#bebebe" enable-background="new" fill="none"/><path d="m464.81 400.34v13.475l-3.0426-2.9702-1.7387 3.5498c-0.42577 0.9601-2.6399 0.18822-2.0103-1.0957l1.7206-3.6856h-3.8396z" color="#000000" display="block" enable-background="accumulate" fill="#fff"/><path d="m463.72 395.43c-4.9672 0.5972-8.5398 5.1374-7.9101 10.101 0.17048 1.3432 0.3812 1.7937 0.3812 1.7937l2.1742-2.1182c-0.42966-3.5742 2.1049-6.7908 5.6791-7.2206 3.5742-0.42967 6.7908 2.1049 7.2206 5.6791 0.40716 3.3853-1.806 6.5228-5.1518 7.18l0.0389 2.5962s0.67613-0.13759 0.80944-0.17004c4.4337-1.0824 7.4072-5.3576 6.8574-9.9307-0.5972-4.9672-5.1335-8.5073-10.101-7.9101z" color="#000000" enable-background="accumulate" fill="#fff" style="text-decoration-line:none;text-indent:0;text-transform:none"/><path d="m459.77 404.19v-0.26697l-0.25745 0.026c0.0216-0.17005 0.0433-0.33966 0.0645-0.50962h-0.15014l-0.15015 0.19427-0.15014 0.0727-0.21462-0.12116-0.0216-0.26697 0.0433-0.2912 0.32192-0.24274h0.25745l0.0433-0.14582 0.32192 0.0727 0.23582 0.29164 0.0433-0.4857 0.4076-0.33966 0.15014-0.36433 0.30029-0.12115 0.17178-0.24274 0.38596-0.0731 0.19298-0.2912h-0.57924l0.36475-0.17005h0.25746l0.36476-0.12158 0.0433-0.14539-0.12895-0.12159-0.15014-0.0485 0.0433-0.14538-0.10731-0.21851-0.25745 0.0969 0.0433-0.19384-0.30029-0.17005-0.23582 0.41235 0.0216 0.14582-0.23582 0.0974-0.15014 0.31543-0.0645-0.2912-0.40759-0.17005-0.0645-0.21851 0.53632-0.31587 0.23582-0.2185 0.0216-0.26698-0.12851-0.0731-0.17134-0.026-0.10731 0.26697s-0.17957 0.0346-0.22543 0.0463c-0.58907 0.54268-1.7792 1.7141-2.0558 3.9255 9e-3 0.0515 0.20034 0.34875 0.20034 0.34875l0.45043 0.26697 0.45043 0.12158m5.1483-5.5822-0.55791-0.21851-0.6432 0.0727-0.7939 0.21851-0.15015 0.14582 0.4934 0.33966v0.19428l-0.19298 0.19428 0.25745 0.5101 0.17135-0.0974 0.21505-0.33966c0.33144-0.10255 0.62853-0.21851 0.94353-0.36433l0.25745-0.65526m3.2832 0.44385-0.48678 0.12159-0.28385 0.20293v0.16226l-0.48677 0.32452 0.12158 0.44623 0.28385-0.20293 0.16226 0.20293 0.20293 0.12159 0.12159-0.36519-0.0813-0.20293 0.0813-0.12159 0.28384-0.24317h0.12159l-0.12159 0.28384v0.24318c0.11597-0.0303 0.20597-0.0662 0.32452-0.0813l-0.32452 0.24361v0.16225l-0.40543 0.28385-0.36519-0.0813v-0.20293l-0.16226 0.0814 0.0809 0.20293h-0.28384l-0.16226 0.28385-0.20294 0.20293-0.12158 0.0389v0.24317l0.0389 0.20294h-0.0389v0.68962l0.0813-0.0389 0.12159-0.28385 0.24317-0.16226 0.0389-0.12158 0.36519-0.0813 0.20293 0.24361 0.24317 0.12158-0.12158 0.24361 0.20293-0.0389 0.0809-0.28385-0.24317-0.28384h0.0814l0.28384 0.20293 0.0389 0.28384 0.20294 0.28385 0.0813-0.40543 0.12159-0.0389c0.12462 0.12937 0.21981 0.30072 0.32452 0.44619h0.36519l0.24361 0.16226-0.12159 0.12158-0.20293 0.20294h-0.32452l-0.44624-0.12159h-0.2436l-0.16226 0.20293-0.44619-0.48678-0.32452-0.0813-0.48678 0.0813-0.20293 0.12159v3.1235l0.0389 0.0389 0.32452-0.20293 0.12158 0.12158h0.3652l0.16226 0.20294-0.12159 0.40543 0.2436 0.24317v0.48678l0.16226 0.32452-0.12158 0.32452c-0.013 0.20986 0 0.39851 0 0.60845 0.10298 0.28428 0.18649 0.56566 0.28384 0.85189l0.0809 0.44619v0.2436h0.16226l0.28384-0.16226h0.32452l0.48678-0.5679-0.0389-0.20294 0.32452-0.28384-0.24318-0.24361 0.28385-0.24317 0.28385-0.16226 0.12158-0.16226-0.0813-0.32452v-0.77071l0.2436-0.48678 0.24318-0.32452 0.32451-0.73017v-0.20293c-0.15144 0.0173-0.29812 0.0303-0.44623 0.0389-0.0939 9e-3 -0.18736 0-0.28385 0-0.16053-0.33706-0.28341-0.66158-0.40543-1.0141l-0.20293-0.2436-0.12159-0.40544 0.0813-0.0813 0.28384 0.32452 0.32452 0.73016 0.20294 0.20294-0.0813 0.28384 0.20293 0.20294 0.32452-0.32452 0.40543-0.28385 0.20294-0.2436v-0.28385c-0.0506-0.0952-0.071-0.18865-0.12159-0.28385l-0.20293 0.24318-0.16226-0.20294-0.24361-0.16226v-0.36519l0.28385 0.28385 0.28384-0.0389c0.13198 0.11985 0.24923 0.26956 0.3652 0.40543l0.20293-0.24361c0-0.22673-0.25918-1.3246-0.8113-2.2716-0.55203-0.94669-1.5009-1.8254-1.5009-1.8254l-0.0809 0.12159-0.28384 0.28384-0.32452-0.32452h0.32452l0.16226-0.16226-0.6085-0.12158-0.32452-0.12159z" color="#000000" enable-background="accumulate" fill="#fff" opacity=".5"/><rect x="498.72" y="394.76" width="20.769" height="20.769" enable-background="new" fill="none"/><path d="m509.37 394.06a10.394 10.394 0 0 0-8.3209 4.7968 10.396 10.396 0 0 0 0.95582 12.428 10.392 10.392 0 0 0 12.197 2.5581 1.2981 1.2981 0 1 0-1.0978-2.3528 7.7794 7.7794 0 0 1-9.1499-1.9192 7.7755 7.7755 0 0 1-0.71493-9.3198 7.7755 7.7755 0 0 1 8.7468-3.2934 7.7768 7.7768 0 0 1 5.6106 7.4766 1.2981 1.2981 0 0 0 0 0.0532v1.2448c0 0.46601-0.24534 0.89079-0.64904 1.1231-0.4024 0.23365-0.89438 0.23365-1.2981 0a1.2916 1.2916 0 0 1-0.64904-1.1231v-1.2981c0-2.8519-2.3404-5.1923-5.1923-5.1923-2.8519 0-5.1923 2.3404-5.1923 5.1923 0 2.8519 2.3404 5.1923 5.1923 5.1923 1.3546 0 2.5836-0.53944 3.5114-1.3995 0.28818 0.34443 0.63161 0.64623 1.0318 0.8772a3.8994 3.8994 0 0 0 3.8942 0 3.8981 3.8981 0 0 0 1.9471-3.3719v-1.2981a10.395 10.395 0 0 0-7.4791-9.9714 10.363 10.363 0 0 0-3.3441-0.40327zm0.43858 7.7783c1.45 0 2.5962 1.1475 2.5962 2.5962 0 1.4486-1.1462 2.5962-2.5962 2.5962-1.4487 0-2.5962-1.1475-2.5962-2.5962 0-1.4487 1.1475-2.5962 2.5962-2.5962z" color="#000000" fill="#fff" solid-color="#000000" style="font-feature-settings:normal;font-variant-alternates:normal;font-variant-caps:normal;font-variant-ligatures:normal;font-variant-numeric:normal;font-variant-position:normal;isolation:auto;mix-blend-mode:normal;shape-padding:0;text-decoration-color:#000000;text-decoration-line:none;text-decoration-style:solid;text-indent:0;text-orientation:mixed;text-transform:none;white-space:normal"/><path d="m503.57 437.32c-1.5643 0-2.8395 1.3214-2.8395 2.8801v15.009c0 1.5587 1.2752 2.8801 2.8395 2.8801h12.494c1.5643 0 2.8395-1.3214 2.8395-2.8801v-15.009c0-1.5587-1.2752-2.8801-2.8395-2.8801zm-0.24361 3.8942h12.981v14.279h-12.981zm1.2981 1.2981v5.1923h10.425v-5.1923zm3.0424 1.866a0.6491 0.6491 0 0 1 0.0813 0 0.6491 0.6491 0 0 1 0.77072 0.64904v0.0811h2.5962v-0.0809a0.6491 0.6491 0 1 1 1.2981 0v0.0809c0 0.70789-0.59019 1.2981-1.2981 1.2981h-2.5962c-0.70789 0-1.2981-0.59019-1.2981-1.2981v-0.0809a0.6491 0.6491 0 0 1 0.44623-0.64904zm-3.0016 4.6244v5.1923h10.425v-5.1923zm3.0018 1.866a0.6491 0.6491 0 0 1 0.0813 0 0.6491 0.6491 0 0 1 0.77071 0.64903v0.0811h2.5962v-0.0809a0.6491 0.6491 0 1 1 1.2981 0v0.0809c0 0.70789-0.59019 1.2981-1.2981 1.2981h-2.5962c-0.70788 0-1.2981-0.59019-1.2981-1.2981v-0.0809a0.6491 0.6491 0 0 1 0.44624-0.64904z" color="#000000" enable-background="accumulate" fill="#fff" fill-rule="evenodd"/><path d="m457.28 437.32c-1.5649 0-2.8535 1.3088-2.8535 2.8691v13.734c0 1.5603 1.2886 2.8691 2.8535 2.8691h15.061c1.5649 0 2.8555-1.3088 2.8555-2.8691v-13.734c0-1.5603-1.2906-2.8691-2.8555-2.8691h-15.061zm0 2.5977h15.061c0.15942 0 0.25781 0.09254 0.25781 0.27148v13.734c0 0.17893-0.09839 0.27148-0.25781 0.27148h-15.061c-0.15941 0-0.25781-0.09255-0.25781-0.27148v-13.734c0-0.17894 0.0984-0.27148 0.25781-0.27148z" color="#bebebe" color-rendering="auto" dominant-baseline="auto" enable-background="accumulate" fill="#fff" image-rendering="auto" shape-rendering="auto" solid-color="#000000" stop-color="#000000" style="font-feature-settings:normal;font-variant-alternates:normal;font-variant-caps:normal;font-variant-east-asian:normal;font-variant-ligatures:normal;font-variant-numeric:normal;font-variant-position:normal;font-variation-settings:normal;inline-size:0;isolation:auto;mix-blend-mode:normal;shape-margin:0;shape-padding:0;text-decoration-color:#000000;text-decoration-line:none;text-decoration-style:solid;text-indent:0;text-orientation:mixed;text-transform:none;white-space:normal"/><rect x="454.43" y="437.32" width="20.769" height="20.769" rx="0" ry="0" fill="none"/><path d="m460.29 444.98a0.77885 0.77885 0 0 0-0.56836 0.22851 0.77885 0.77885 0 0 0 0 1.0996l2.0449 2.0469-2.0449 2.0449a0.77885 0.77885 0 0 0 0 1.1016 0.77885 0.77885 0 0 0 1.0996 0l2.5977-2.5957a0.77892 0.77892 0 0 0 0-1.1016l-2.5977-2.5957a0.77885 0.77885 0 0 0-0.53125-0.22851z" color="#bebebe" color-rendering="auto" dominant-baseline="auto" enable-background="accumulate" fill="#fff" image-rendering="auto" shape-rendering="auto" solid-color="#000000" stop-color="#000000" style="font-feature-settings:normal;font-variant-alternates:normal;font-variant-caps:normal;font-variant-east-asian:normal;font-variant-ligatures:normal;font-variant-numeric:normal;font-variant-position:normal;font-variation-settings:normal;inline-size:0;isolation:auto;mix-blend-mode:normal;shape-margin:0;shape-padding:0;text-decoration-color:#000000;text-decoration-line:none;text-decoration-style:solid;text-indent:0;text-orientation:mixed;text-transform:none;white-space:normal"/><path d="m464.16 450.85v1.3977h5.1934v-1.3977z" color="#bebebe" color-rendering="auto" dominant-baseline="auto" enable-background="accumulate" fill="#fff" image-rendering="auto" shape-rendering="auto" solid-color="#000000" stop-color="#000000" style="font-feature-settings:normal;font-variant-alternates:normal;font-variant-caps:normal;font-variant-east-asian:normal;font-variant-ligatures:normal;font-variant-numeric:normal;font-variant-position:normal;font-variation-settings:normal;inline-size:0;isolation:auto;mix-blend-mode:normal;shape-margin:0;shape-padding:0;text-decoration-color:#000000;text-decoration-line:none;text-decoration-style:solid;text-indent:0;text-orientation:mixed;text-transform:none;white-space:normal"/><rect x="1.9727e-5" y="4.002" width="104" height="100" rx="8" ry="8" enable-background="new" fill="#758087" style="paint-order:normal"/><rect x="1.9727e-5" y=".0016285" width="104" height="100" rx="8" ry="8" enable-background="new" fill="#6acfec" style="paint-order:normal"/><path d="m8 0c-4.432 0-8 3.568-8 8v42h52v-50z" enable-background="new" fill="#00aade" style="paint-order:normal"/><path d="m52 0v50h52v-42c0-4.432-3.568-8-8-8z" enable-background="new" fill="#d2d8dc" style="paint-order:normal"/><path d="m52 100v-50h-52v42c0 4.432 3.568 8 8 8z" enable-background="new" fill="#bcc5ca" style="paint-order:normal"/><g transform="matrix(1.5 0 0 1.5 -258.5 -783.51)" enable-background="new"><rect x="183" y="529" width="16" height="16" color="#bebebe" enable-background="new" fill="none"/><path d="m191 533.85v10.38l-2.344-2.2882-1.3394 2.7346c-0.32808 0.73962-2.0337 0.14492-1.5487-0.84412l1.3255-2.8393h-2.9579z" color="#000000" display="block" enable-background="accumulate" fill="#003445"/><path d="m190.16 530.06c-3.8266 0.46006-6.5788 3.9578-6.0938 7.7812 0.13127 1.0347 0.29377 1.3818 0.29377 1.3818l1.675-1.6318c-0.33104-2.7534 1.6216-5.2315 4.375-5.5625s5.2315 1.6216 5.5625 4.375c0.31355 2.608-1.3913 5.0249-3.9688 5.5312l0.0312 2s0.52086-0.1059 0.62354-0.13097c3.4156-0.83385 5.7063-4.1273 5.2827-7.6503-0.46006-3.8266-3.9547-6.5538-7.7812-6.0938z" color="#000000" enable-background="accumulate" fill="#003445" style="text-decoration-line:none;text-indent:0;text-transform:none"/><path d="m187.11 536.81v-0.20574l-0.19826 0.0186c0.0165-0.13095 0.0329-0.26167 0.0496-0.3926h-0.11578l-0.11556 0.14959-0.11578 0.0559-0.1653-0.0932-0.0165-0.20575 0.0331-0.22438 0.24798-0.18688h0.19826l0.0329-0.11229 0.24786 0.0559 0.18183 0.2246 0.0331-0.37419 0.31401-0.26167 0.11567-0.28055 0.23133-0.0934 0.1322-0.18688 0.29738-0.0564 0.14885-0.22415h-0.44623l0.28094-0.13095h0.19814l0.28106-0.0937 0.0331-0.11186-0.0992-0.0937-0.11567-0.0375 0.0331-0.11208-0.0826-0.16822-0.19837 0.0746 0.0331-0.14947-0.23134-0.13096-0.18171 0.3177 0.0165 0.11229-0.18171 0.075-0.11578 0.24302-0.0495-0.22438-0.31402-0.13095-0.0496-0.16822 0.41315-0.24325 0.18182-0.16822 0.0165-0.20563-0.0991-0.0562-0.13219-0.0188-0.0826 0.20575s-0.1382 0.0271-0.17373 0.0358c-0.45378 0.41804-1.3707 1.3204-1.5837 3.024 8e-3 0.0395 0.15441 0.26854 0.15441 0.26854l0.347 0.20552 0.347 0.0937m3.9661-4.3003-0.4298-0.16833-0.49552 0.0561-0.61161 0.16822-0.11567 0.11229 0.38008 0.26167v0.14959l-0.14875 0.14959 0.19846 0.39294 0.13188-0.075 0.16561-0.26168c0.2553-0.0789 0.4842-0.16833 0.72686-0.28053l0.19846-0.5048m2.5292 0.34192-0.375 0.0937-0.21875 0.15625v0.125l-0.375 0.25 0.0937 0.34375 0.21875-0.15625 0.125 0.15625 0.15625 0.0937 0.0937-0.28125-0.0625-0.15625 0.0625-0.0937 0.21875-0.1875h0.0937l-0.0937 0.21875v0.1875c0.0892-0.0242 0.1588-0.051 0.25-0.0625l-0.25 0.1875v0.125l-0.3125 0.21875-0.28125-0.0625v-0.15625l-0.125 0.0625 0.0625 0.15625h-0.21875l-0.125 0.21875-0.15625 0.15625-0.0937 0.0312v0.1875l0.0312 0.15625h-0.0312v0.53125l0.0625-0.0312 0.0937-0.21875 0.1875-0.125 0.0312-0.0937 0.28125-0.0625 0.15625 0.1875 0.1875 0.0937-0.0937 0.1875 0.15625-0.0312 0.0625-0.21875-0.1875-0.21875h0.0625l0.21875 0.15625 0.0312 0.21875 0.15625 0.21875 0.0625-0.3125 0.0937-0.0312c0.0959 0.0996 0.1692 0.23163 0.25 0.34375h0.28125l0.1875 0.125-0.0937 0.0937-0.15625 0.15625h-0.25l-0.34375-0.0937h-0.1875l-0.125 0.15625-0.34375-0.375-0.25-0.0625-0.375 0.0625-0.15625 0.0937v2.4062l0.0312 0.0312 0.25-0.15625 0.0937 0.0937h0.28125l0.125 0.15625-0.0937 0.3125 0.1875 0.1875v0.375l0.125 0.25-0.0937 0.25c-9e-3 0.16159 0 0.30714 0 0.46875 0.0795 0.21894 0.14355 0.43575 0.21875 0.65625l0.0625 0.34375v0.1875h0.125l0.21875-0.125h0.25l0.375-0.4375-0.0312-0.15625 0.25-0.21875-0.1875-0.1875 0.21875-0.1875 0.21875-0.125 0.0937-0.125-0.0625-0.25v-0.59375l0.1875-0.375 0.1875-0.25 0.25-0.5625v-0.15625c-0.11654 0.0146-0.22972 0.0231-0.34375 0.0312-0.0722 5e-3 -0.14446 0-0.21875 0-0.12359-0.25961-0.2183-0.50966-0.3125-0.78125l-0.15625-0.1875-0.0937-0.3125 0.0625-0.0625 0.21875 0.25 0.25 0.5625 0.15625 0.15625-0.0625 0.21875 0.15625 0.15625 0.25-0.25 0.3125-0.21875 0.15625-0.1875v-0.21875c-0.0389-0.0732-0.0547-0.14545-0.0937-0.21875l-0.15625 0.1875-0.125-0.15625-0.1875-0.125v-0.28125l0.21875 0.21875 0.21875-0.0312c0.10166 0.0923 0.19205 0.20751 0.28125 0.3125l0.15625-0.1875c0-0.17463-0.19976-1.0204-0.625-1.75-0.42526-0.72932-1.1562-1.4062-1.1562-1.4062l-0.0625 0.0937-0.21875 0.21875-0.25-0.25h0.25l0.125-0.125-0.46875-0.0937-0.25-0.0937z" color="#000000" enable-background="accumulate" fill="#2e3436" opacity=".3"/></g><g transform="matrix(1.5 0 0 1.5 -115 -535)" enable-background="new"><rect x="122" y="398" width="16" height="16" rx="0" ry="0" fill="none"/><path transform="translate(-80,17)" d="m205.19 381c-1.2051 0-2.1875 1.018-2.1875 2.2188v11.562c0 1.2008 0.98238 2.2188 2.1875 2.2188h9.625c1.2051 0 2.1875-1.018 2.1875-2.2188v-11.562c0-1.2008-0.98238-2.2188-2.1875-2.2188zm-0.1875 3h10v11h-10zm1 1v4h8.0312v-4zm2.3438 1.4375a0.50005 0.50005 0 0 1 0.0625 0 0.50005 0.50005 0 0 1 0.59375 0.5v0.0625h2v-0.0625a0.50005 0.50005 0 1 1 1 0v0.0625c0 0.54535-0.45465 1-1 1h-2c-0.54535 0-1-0.45465-1-1v-0.0625a0.50005 0.50005 0 0 1 0.34375-0.5zm-2.3125 3.5625v4h8.0312v-4zm2.3125 1.4375a0.50005 0.50005 0 0 1 0.0625 0 0.50005 0.50005 0 0 1 0.59375 0.5v0.0625h2v-0.0625a0.50005 0.50005 0 1 1 1 0v0.0625c0 0.54535-0.45465 1-1 1h-2c-0.54535 0-1-0.45465-1-1v-0.0625a0.50005 0.50005 0 0 1 0.34375-0.5z" color="#000000" enable-background="accumulate" fill="#003445" fill-rule="evenodd"/></g><g transform="matrix(1.5 0 0 1.5 -169 -535)" enable-background="new"><path d="m124.2 399h11.602c0.66417 0 1.1989 0.53934 1.1989 1.2093v10.581c0 0.66994-0.53471 1.2093-1.1989 1.2093h-11.602c-0.66417 0-1.1989-0.53933-1.1989-1.2093v-10.581c0-0.66994 0.5347-1.2093 1.1989-1.2093z" color="#bebebe" fill="none" stroke="#003445" stroke-width="2"/><rect x="122" y="398" width="16" height="16" rx="0" ry="0" fill="none"/><path d="m126.5 408.5 2-2-2-2" color="#bebebe" fill="none" stroke="#003445" stroke-linecap="round" stroke-linejoin="round" stroke-width="1.2"/><rect x="130" y="408" width="3" height="1" color="#bebebe" enable-background="accumulate" fill="#2e3436" stroke="#003445"/></g><path d="m54.001 19.968c2.1344 0 9.0155 17.169 10.742 18.422 1.7268 1.2531 20.201 2.4844 20.86 4.5119 0.6595 2.0276-13.562 13.87-14.221 15.897-0.65955 2.0276 3.8768 19.957 2.1501 21.21-1.7267 1.2532-17.397-8.5968-19.531-8.5968-2.1344 0-17.805 9.8499-19.531 8.5968-1.7267-1.2531 2.8096-19.183 2.1501-21.21-0.6596-2.0275-14.881-13.87-14.221-15.897 0.65955-2.0275 19.133-3.2588 20.86-4.5119 1.7268-1.2531 8.6079-18.422 10.742-18.422z" enable-background="new" fill="#f9da02" stroke="#dcb102" stroke-linejoin="round" stroke-width="6"/><rect x="1.9727e-5" y="4.002" width="104" height="100" rx="8" ry="8" enable-background="new" fill="#758087" style="paint-order:normal"/><rect x="1.9727e-5" y=".0016285" width="104" height="100" rx="8" ry="8" enable-background="new" fill="#6acfec" style="paint-order:normal"/><path d="m8 0c-4.432 0-8 3.568-8 8v42h52v-50z" enable-background="new" fill="#00aade" style="paint-order:normal"/><path d="m52 0v50h52v-42c0-4.432-3.568-8-8-8z" enable-background="new" fill="#d2d8dc" style="paint-order:normal"/><path d="m52 100v-50h-52v42c0 4.432 3.568 8 8 8z" enable-background="new" fill="#bcc5ca" style="paint-order:normal"/><g transform="matrix(1.5 0 0 1.5 -258.5 -783.51)" enable-background="new"><rect x="183" y="529" width="16" height="16" color="#bebebe" enable-background="new" fill="none"/><path d="m191 533.85v10.38l-2.344-2.2882-1.3394 2.7346c-0.32808 0.73962-2.0337 0.14492-1.5487-0.84412l1.3255-2.8393h-2.9579z" color="#000000" display="block" enable-background="accumulate" fill="#003445"/><path d="m190.16 530.06c-3.8266 0.46006-6.5788 3.9578-6.0938 7.7812 0.13127 1.0347 0.29377 1.3818 0.29377 1.3818l1.675-1.6318c-0.33104-2.7534 1.6216-5.2315 4.375-5.5625s5.2315 1.6216 5.5625 4.375c0.31355 2.608-1.3913 5.0249-3.9688 5.5312l0.0312 2s0.52086-0.1059 0.62354-0.13097c3.4156-0.83385 5.7063-4.1273 5.2827-7.6503-0.46006-3.8266-3.9547-6.5538-7.7812-6.0938z" color="#000000" enable-background="accumulate" fill="#003445" style="text-decoration-line:none;text-indent:0;text-transform:none"/><path d="m187.11 536.81v-0.20574l-0.19826 0.0186c0.0165-0.13095 0.0329-0.26167 0.0496-0.3926h-0.11578l-0.11556 0.14959-0.11578 0.0559-0.1653-0.0932-0.0165-0.20575 0.0331-0.22438 0.24798-0.18688h0.19826l0.0329-0.11229 0.24786 0.0559 0.18183 0.2246 0.0331-0.37419 0.31401-0.26167 0.11567-0.28055 0.23133-0.0934 0.1322-0.18688 0.29738-0.0564 0.14885-0.22415h-0.44623l0.28094-0.13095h0.19814l0.28106-0.0937 0.0331-0.11186-0.0992-0.0937-0.11567-0.0375 0.0331-0.11208-0.0826-0.16822-0.19837 0.0746 0.0331-0.14947-0.23134-0.13096-0.18171 0.3177 0.0165 0.11229-0.18171 0.075-0.11578 0.24302-0.0495-0.22438-0.31402-0.13095-0.0496-0.16822 0.41315-0.24325 0.18182-0.16822 0.0165-0.20563-0.0991-0.0562-0.13219-0.0188-0.0826 0.20575s-0.1382 0.0271-0.17373 0.0358c-0.45378 0.41804-1.3707 1.3204-1.5837 3.024 8e-3 0.0395 0.15441 0.26854 0.15441 0.26854l0.347 0.20552 0.347 0.0937m3.9661-4.3003-0.4298-0.16833-0.49552 0.0561-0.61161 0.16822-0.11567 0.11229 0.38008 0.26167v0.14959l-0.14875 0.14959 0.19846 0.39294 0.13188-0.075 0.16561-0.26168c0.2553-0.0789 0.4842-0.16833 0.72686-0.28053l0.19846-0.5048m2.5292 0.34192-0.375 0.0937-0.21875 0.15625v0.125l-0.375 0.25 0.0937 0.34375 0.21875-0.15625 0.125 0.15625 0.15625 0.0937 0.0937-0.28125-0.0625-0.15625 0.0625-0.0937 0.21875-0.1875h0.0937l-0.0937 0.21875v0.1875c0.0892-0.0242 0.1588-0.051 0.25-0.0625l-0.25 0.1875v0.125l-0.3125 0.21875-0.28125-0.0625v-0.15625l-0.125 0.0625 0.0625 0.15625h-0.21875l-0.125 0.21875-0.15625 0.15625-0.0937 0.0312v0.1875l0.0312 0.15625h-0.0312v0.53125l0.0625-0.0312 0.0937-0.21875 0.1875-0.125 0.0312-0.0937 0.28125-0.0625 0.15625 0.1875 0.1875 0.0937-0.0937 0.1875 0.15625-0.0312 0.0625-0.21875-0.1875-0.21875h0.0625l0.21875 0.15625 0.0312 0.21875 0.15625 0.21875 0.0625-0.3125 0.0937-0.0312c0.0959 0.0996 0.1692 0.23163 0.25 0.34375h0.28125l0.1875 0.125-0.0937 0.0937-0.15625 0.15625h-0.25l-0.34375-0.0937h-0.1875l-0.125 0.15625-0.34375-0.375-0.25-0.0625-0.375 0.0625-0.15625 0.0937v2.4062l0.0312 0.0312 0.25-0.15625 0.0937 0.0937h0.28125l0.125 0.15625-0.0937 0.3125 0.1875 0.1875v0.375l0.125 0.25-0.0937 0.25c-9e-3 0.16159 0 0.30714 0 0.46875 0.0795 0.21894 0.14355 0.43575 0.21875 0.65625l0.0625 0.34375v0.1875h0.125l0.21875-0.125h0.25l0.375-0.4375-0.0312-0.15625 0.25-0.21875-0.1875-0.1875 0.21875-0.1875 0.21875-0.125 0.0937-0.125-0.0625-0.25v-0.59375l0.1875-0.375 0.1875-0.25 0.25-0.5625v-0.15625c-0.11654 0.0146-0.22972 0.0231-0.34375 0.0312-0.0722 5e-3 -0.14446 0-0.21875 0-0.12359-0.25961-0.2183-0.50966-0.3125-0.78125l-0.15625-0.1875-0.0937-0.3125 0.0625-0.0625 0.21875 0.25 0.25 0.5625 0.15625 0.15625-0.0625 0.21875 0.15625 0.15625 0.25-0.25 0.3125-0.21875 0.15625-0.1875v-0.21875c-0.0389-0.0732-0.0547-0.14545-0.0937-0.21875l-0.15625 0.1875-0.125-0.15625-0.1875-0.125v-0.28125l0.21875 0.21875 0.21875-0.0312c0.10166 0.0923 0.19205 0.20751 0.28125 0.3125l0.15625-0.1875c0-0.17463-0.19976-1.0204-0.625-1.75-0.42526-0.72932-1.1562-1.4062-1.1562-1.4062l-0.0625 0.0937-0.21875 0.21875-0.25-0.25h0.25l0.125-0.125-0.46875-0.0937-0.25-0.0937z" color="#000000" enable-background="accumulate" fill="#2e3436" opacity=".3"/></g><g transform="matrix(1.5 0 0 1.5 -115 -535)" enable-background="new"><rect x="122" y="398" width="16" height="16" rx="0" ry="0" fill="none"/><path transform="translate(-80,17)" d="m205.19 381c-1.2051 0-2.1875 1.018-2.1875 2.2188v11.562c0 1.2008 0.98238 2.2188 2.1875 2.2188h9.625c1.2051 0 2.1875-1.018 2.1875-2.2188v-11.562c0-1.2008-0.98238-2.2188-2.1875-2.2188zm-0.1875 3h10v11h-10zm1 1v4h8.0312v-4zm2.3438 1.4375a0.50005 0.50005 0 0 1 0.0625 0 0.50005 0.50005 0 0 1 0.59375 0.5v0.0625h2v-0.0625a0.50005 0.50005 0 1 1 1 0v0.0625c0 0.54535-0.45465 1-1 1h-2c-0.54535 0-1-0.45465-1-1v-0.0625a0.50005 0.50005 0 0 1 0.34375-0.5zm-2.3125 3.5625v4h8.0312v-4zm2.3125 1.4375a0.50005 0.50005 0 0 1 0.0625 0 0.50005 0.50005 0 0 1 0.59375 0.5v0.0625h2v-0.0625a0.50005 0.50005 0 1 1 1 0v0.0625c0 0.54535-0.45465 1-1 1h-2c-0.54535 0-1-0.45465-1-1v-0.0625a0.50005 0.50005 0 0 1 0.34375-0.5z" color="#000000" enable-background="accumulate" fill="#003445" fill-rule="evenodd"/></g><g transform="matrix(1.5 0 0 1.5 -169 -535)" enable-background="new"><path d="m124.2 399h11.602c0.66417 0 1.1989 0.53934 1.1989 1.2093v10.581c0 0.66994-0.53471 1.2093-1.1989 1.2093h-11.602c-0.66417 0-1.1989-0.53933-1.1989-1.2093v-10.581c0-0.66994 0.5347-1.2093 1.1989-1.2093z" color="#bebebe" fill="none" stroke="#003445" stroke-width="2"/><rect x="122" y="398" width="16" height="16" rx="0" ry="0" fill="none"/><path d="m126.5 408.5 2-2-2-2" color="#bebebe" fill="none" stroke="#003445" stroke-linecap="round" stroke-linejoin="round" stroke-width="1.2"/><rect x="130" y="408" width="3" height="1" color="#bebebe" enable-background="accumulate" fill="#2e3436" stroke="#003445"/></g><path d="m54.001 19.968c2.1344 0 9.0155 17.169 10.742 18.422 1.7268 1.2531 20.201 2.4844 20.86 4.5119 0.6595 2.0276-13.562 13.87-14.221 15.897-0.65955 2.0276 3.8768 19.957 2.1501 21.21-1.7267 1.2532-17.397-8.5968-19.531-8.5968-2.1344 0-17.805 9.8499-19.531 8.5968-1.7267-1.2531 2.8096-19.183 2.1501-21.21-0.6596-2.0275-14.881-13.87-14.221-15.897 0.65955-2.0275 19.133-3.2588 20.86-4.5119 1.7268-1.2531 8.6079-18.422 10.742-18.422z" enable-background="new" fill="#f9da02" stroke="#dcb102" stroke-linejoin="round" stroke-width="6"/><path d="m489.15 390.76v2.8" enable-background="new" fill="#070c0f" stroke="#070c0f" stroke-width=".02"/><path d="m490.55 392.16h-2.8" enable-background="new" fill="#070c0f" stroke="#070c0f" stroke-width=".02"/><rect x="486.45" y="382.8" width=".86538" height="42.404" ry="0" fill="#951212" style="paint-order:normal"/><rect x="487.31" y="382.8" width=".86538" height="42.404" ry="0" enable-background="new" fill="#087142" style="paint-order:normal"/><rect x="487.31" y="426.93" width=".86538" height="42.404" ry="0" enable-background="new" fill="#622e78" style="paint-order:normal"/><rect x="486.45" y="426.93" width=".86538" height="42.404" ry="0" enable-background="new" fill="#2656a8" style="paint-order:normal"/><rect transform="rotate(90)" x="426.07" y="-487.31" width=".86538" height="45" ry="0" enable-background="new" fill="#2656a8" style="paint-order:normal"/><rect transform="rotate(90)" x="425.2" y="-487.31" width=".86538" height="45" ry="0" enable-background="new" fill="#951212" style="paint-order:normal"/><rect transform="rotate(90)" x="425.2" y="-532.31" width=".86538" height="45" ry="0" enable-background="new" fill="#087142" style="paint-order:normal"/><rect transform="rotate(90)" x="426.07" y="-532.31" width=".86538" height="45" ry="0" enable-background="new" fill="#622e78" style="paint-order:normal"/></g></g><rect width="0" height="0" fill="#471d57" style="paint-order:normal"/></svg>
