<svg width="512" height="512" version="1.1" viewBox="0 0 384 384" xmlns="http://www.w3.org/2000/svg"><path d="m69.559 23.832c-8.7146 0-15.781 6.1914-15.781 13.828v2.5576c-0.0018 0.09687-0.0073 0.19275-0.0073 0.29004v303.88c0 8.7146 7.066 15.781 15.781 15.781h244.89c8.7146 0 15.781-7.066 15.781-15.781v-40.132c2e-3 -0.0851 7e-3 -0.16939 7e-3 -0.25488v-266.34c0-7.6366-7.0674-13.828-15.782-13.828z" opacity=".2" stroke="#000" stroke-width="7.5"/><path d="m69.559 23.832h244.89c8.7148 0 15.781 7.0664 15.781 15.777v303.88c0 8.7148-7.0664 15.781-15.781 15.781h-244.89c-8.7148 0-15.781-7.0664-15.781-15.781v-303.88c0-8.7109 7.0664-15.777 15.781-15.777z"/><path d="m74.387 329.02h116.23c2.3945 0 4.3359 1.9414 4.3359 4.3359v8.5664c0 2.3945-1.9414 4.3398-4.3359 4.3398h-116.23c-2.3984 0-4.3398-1.9453-4.3398-4.3398v-8.5664c0-2.3945 1.9414-4.3359 4.3398-4.3359z" fill="#fff"/><path d="m69.566 22.934h244.89c8.7148 0 15.781 6.1914 15.781 13.828v266.34c0 7.6406-7.0664 13.832-15.781 13.832h-244.89c-8.7148 0-15.781-6.1914-15.781-13.832v-266.34c0-7.6367 7.0664-13.828 15.781-13.828z" fill="#fff"/><path d="m275.97 337.61c0 4.2695-3.4609 7.7305-7.7305 7.7305-4.2734 0-7.7344-3.4609-7.7344-7.7305s3.4609-7.7305 7.7344-7.7305c4.2695 0 7.7305 3.4609 7.7305 7.7305z" fill="#fff"/><path d="m299.85 337.61c0 4.2695-3.4648 7.7305-7.7344 7.7305s-7.7305-3.4609-7.7305-7.7305 3.4609-7.7305 7.7305-7.7305 7.7344 3.4609 7.7344 7.7305z" fill="#fff"/><path d="m262.95 169.93c0 39.18-31.762 70.942-70.942 70.942s-70.942-31.762-70.942-70.942 31.762-70.942 70.942-70.942 70.942 31.762 70.942 70.942zm0 0" fill="none" stroke="#000" stroke-linecap="round" stroke-linejoin="round" stroke-width="16.443"/><path d="m192.01 98.272c-43.623 0-79.162 35.539-79.162 79.162s35.539 79.162 79.162 79.162 79.162-35.539 79.162-79.162-35.539-79.162-79.162-79.162zm0 16.441c34.736 0 62.721 27.984 62.721 62.721s-27.984 62.721-62.721 62.721c-34.736 0-62.721-27.984-62.721-62.721s27.984-62.721 62.721-62.721z" color="#000000" color-rendering="auto" dominant-baseline="auto" image-rendering="auto" opacity=".3" shape-rendering="auto" solid-color="#000000" style="font-feature-settings:normal;font-variant-alternates:normal;font-variant-caps:normal;font-variant-ligatures:normal;font-variant-numeric:normal;font-variant-position:normal;isolation:auto;mix-blend-mode:normal;shape-padding:0;text-decoration-color:#000000;text-decoration-line:none;text-decoration-style:solid;text-indent:0;text-orientation:mixed;text-transform:none;white-space:normal"/><circle cx="316.31" cy="303.01" r="5.6089" opacity=".3"/><circle cx="67.886" cy="36.657" r="5.6089" opacity=".3"/><circle cx="316.31" cy="36.859" r="5.6089" opacity=".3"/><circle cx="67.715" cy="303.01" r="5.6089" opacity=".3"/><path d="m384 294c0 49.706-40.294 90-90 90s-90-40.294-90-90 40.294-90 90-90 90 40.294 90 90z" fill="#04121a" fill-rule="evenodd" opacity=".3" stroke-width=".9375"/><path d="m384 286.5c0 49.706-40.294 90-90 90s-90-40.294-90-90 40.294-90 90-90 90 40.294 90 90z" fill="#fd3535" fill-rule="evenodd" stroke-width=".9375"/><path d="m259.59 338.27c-4.0394 0-7.3933 3.3539-7.3933 7.3933 0 4.0394 3.3539 7.3934 7.3933 7.3934h36.16c4.0394 0 7.3934-3.3539 7.3934-7.3934 0-4.0394-3.3539-7.3933-7.3934-7.3933z" color="#000000" color-rendering="auto" dominant-baseline="auto" image-rendering="auto" opacity=".3" shape-rendering="auto" solid-color="#000000" stop-color="#000000" style="font-feature-settings:normal;font-variant-alternates:normal;font-variant-caps:normal;font-variant-east-asian:normal;font-variant-ligatures:normal;font-variant-numeric:normal;font-variant-position:normal;font-variation-settings:normal;inline-size:0;isolation:auto;mix-blend-mode:normal;shape-margin:0;shape-padding:0;text-decoration-color:#000000;text-decoration-line:none;text-decoration-style:solid;text-indent:0;text-orientation:mixed;text-transform:none;white-space:normal"/><path d="m316.56 252.71-1.5127 1.6305-66.046 71.2 4.5324 1.4719c11.841 3.845 30.749 4.3159 49.89-10.677l0.12347-0.0955 26.862-25.895-2.7994-13.403 9.3842-11.826zm-14.161 26.609c0.94866-7e-3 1.8617 0.36087 2.5398 1.0243 1.4184 1.3891 1.441 3.6654 0.0505 5.0824l-27.889 28.463c-1.3888 1.4165-3.6629 1.4391-5.0796 0.0505-1.4169-1.3884-1.4401-3.6625-0.0519-5.0796l27.887-28.463c0.67009-0.68366 1.5853-1.0716 2.5426-1.0776z" color="#000000" color-rendering="auto" dominant-baseline="auto" image-rendering="auto" opacity=".3" shape-rendering="auto" solid-color="#000000" stop-color="#000000" stroke-width=".95792" style="font-feature-settings:normal;font-variant-alternates:normal;font-variant-caps:normal;font-variant-east-asian:normal;font-variant-ligatures:normal;font-variant-numeric:normal;font-variant-position:normal;font-variation-settings:normal;inline-size:0;isolation:auto;mix-blend-mode:normal;shape-margin:0;shape-padding:0;text-decoration-color:#000000;text-decoration-line:none;text-decoration-style:solid;text-indent:0;text-orientation:mixed;text-transform:none;white-space:normal"/><path d="m316.56 245.21-1.5127 1.6305-66.046 71.2 4.5324 1.4719c11.841 3.845 30.749 4.3159 49.89-10.677l0.12347-0.0955 26.862-25.895-2.7994-13.403 9.3842-11.826zm-14.161 26.609c0.94866-7e-3 1.8617 0.36087 2.5398 1.0243 1.4184 1.3891 1.441 3.6654 0.0505 5.0824l-27.889 28.463c-1.3888 1.4165-3.6629 1.4391-5.0796 0.0505-1.4169-1.3884-1.4401-3.6625-0.0519-5.0796l27.887-28.463c0.67009-0.68366 1.5853-1.0716 2.5426-1.0776z" color="#000000" color-rendering="auto" dominant-baseline="auto" fill="#fff" image-rendering="auto" shape-rendering="auto" solid-color="#000000" stop-color="#000000" stroke-width=".95792" style="font-feature-settings:normal;font-variant-alternates:normal;font-variant-caps:normal;font-variant-east-asian:normal;font-variant-ligatures:normal;font-variant-numeric:normal;font-variant-position:normal;font-variation-settings:normal;inline-size:0;isolation:auto;mix-blend-mode:normal;shape-margin:0;shape-padding:0;text-decoration-color:#000000;text-decoration-line:none;text-decoration-style:solid;text-indent:0;text-orientation:mixed;text-transform:none;white-space:normal"/><path d="m257 338.74h36.682" color="#000000" color-rendering="auto" dominant-baseline="auto" image-rendering="auto" opacity=".3" shape-rendering="auto" solid-color="#000000" stop-color="#000000" style="font-feature-settings:normal;font-variant-alternates:normal;font-variant-caps:normal;font-variant-east-asian:normal;font-variant-ligatures:normal;font-variant-numeric:normal;font-variant-position:normal;font-variation-settings:normal;inline-size:0;isolation:auto;mix-blend-mode:normal;shape-margin:0;shape-padding:0;text-decoration-color:#000000;text-decoration-line:none;text-decoration-style:solid;text-indent:0;text-orientation:mixed;text-transform:none;white-space:normal"/><path d="m369.56 245.21c-0.32366-0.50019-0.59544-1.036-0.92871-1.5293-1.6174-2.394-3.347-4.7062-5.1811-6.9287-1.8342-2.2225-3.7723-4.3553-5.8081-6.3911-2.0358-2.0358-4.1686-3.974-6.3911-5.8081-2.1294-1.7574-4.3514-3.4057-6.6387-4.9644-6.8818 7.55-13.764 15.099-20.646 22.649a2.894 2.894 0 0 0-0.64307 1.1514c0.0891-0.3111 0.011-0.14978-0.17285 0.43066-0.12981 0.41263-0.17536 1.3831 0.12745 2.272 1e-3 5e-3 6e-3 0.0106 9e-3 0.019 0.11134 0.32147 0.26116 0.63138 0.48046 0.89941 0.38994 0.55226 0.86211 0.95973 1.1602 1.1367 0.47133 0.28002 0.55037 0.34794 0.24608 0.104a2.894 2.894 0 0 0 0.31348 0.21826c7.9455 4.8032 15.89 9.6081 23.836 14.411a2.894 2.894 0 0 0 1.4502 0.41602c-0.0599-9.9e-4 0.27638 0.078 1.0005-0.0337 0.62736-0.0969 1.5738-0.57598 2.1694-1.2363l-0.0439 0.0557c5.2203-5.624 10.44-11.248 15.661-16.872z" opacity=".3" stroke-width=".75" style="font-feature-settings:normal;font-variant-alternates:normal;font-variant-caps:normal;font-variant-east-asian:normal;font-variant-ligatures:normal;font-variant-numeric:normal;font-variant-position:normal;font-variation-settings:normal;inline-size:0;isolation:auto;mix-blend-mode:normal;shape-margin:0;shape-padding:0;text-decoration-color:#000000;text-decoration-line:none;text-decoration-style:solid;text-indent:0;text-orientation:mixed;text-transform:none;white-space:normal"/><path transform="scale(.75)" d="m492.74 316.95c-0.43156-0.66692-0.79393-1.3813-1.2383-2.0391-2.1565-3.192-4.4627-6.275-6.9082-9.2383s-5.0297-5.807-7.7441-8.5215c-2.7145-2.7144-5.5582-5.2986-8.5215-7.7441-2.8393-2.3432-5.8019-4.5409-8.8516-6.6191-9.1757 10.067-18.352 20.133-27.527 30.199a3.8587 3.8587 0 0 0-0.85742 1.5352c0.1188-0.41479 0.01467-0.1997-0.23047 0.57422-0.17308 0.55018-0.23382 1.8441 0.16993 3.0293 0.00133 0.00667 0.00772 0.01419 0.01172 0.02539 0.14845 0.42862 0.34821 0.84184 0.64062 1.1992 0.51991 0.73634 1.1495 1.2796 1.5469 1.5156 0.62845 0.37336 0.73383 0.46392 0.32812 0.13867a3.8587 3.8587 0 0 0 0.41797 0.29102c10.594 6.4042 21.187 12.811 31.781 19.215a3.8587 3.8587 0 0 0 1.9336 0.55469c-0.07986-0.00132 0.36851 0.10401 1.334-0.04493 0.83648-0.1292 2.0984-0.76798 2.8926-1.6484l-0.0586 0.07422c6.9604-7.4987 13.92-14.998 20.881-22.496z" fill="#fff" style="font-feature-settings:normal;font-variant-alternates:normal;font-variant-caps:normal;font-variant-east-asian:normal;font-variant-ligatures:normal;font-variant-numeric:normal;font-variant-position:normal;font-variation-settings:normal;inline-size:0;isolation:auto;mix-blend-mode:normal;shape-margin:0;shape-padding:0;text-decoration-color:#000000;text-decoration-line:none;text-decoration-style:solid;text-indent:0;text-orientation:mixed;text-transform:none;white-space:normal"/><path d="m315.78 338.27c-4.0394 1e-5 -7.3926 3.3551-7.3926 7.3945 0 4.0394 3.3531 7.3926 7.3926 7.3926h18.998c4.0394 1e-5 7.3926-3.3531 7.3926-7.3926 0-4.0394-3.3531-7.3945-7.3926-7.3945z" color="#000000" color-rendering="auto" dominant-baseline="auto" image-rendering="auto" opacity=".3" shape-rendering="auto" solid-color="#000000" stop-color="#000000" style="font-feature-settings:normal;font-variant-alternates:normal;font-variant-caps:normal;font-variant-east-asian:normal;font-variant-ligatures:normal;font-variant-numeric:normal;font-variant-position:normal;font-variation-settings:normal;inline-size:0;isolation:auto;mix-blend-mode:normal;shape-margin:0;shape-padding:0;text-decoration-color:#000000;text-decoration-line:none;text-decoration-style:solid;text-indent:0;text-orientation:mixed;text-transform:none;white-space:normal"/><path d="m309.5 338.74h19.271" color="#000000" color-rendering="auto" dominant-baseline="auto" image-rendering="auto" opacity=".3" shape-rendering="auto" solid-color="#000000" stop-color="#000000" style="font-feature-settings:normal;font-variant-alternates:normal;font-variant-caps:normal;font-variant-east-asian:normal;font-variant-ligatures:normal;font-variant-numeric:normal;font-variant-position:normal;font-variation-settings:normal;inline-size:0;isolation:auto;mix-blend-mode:normal;shape-margin:0;shape-padding:0;text-decoration-color:#000000;text-decoration-line:none;text-decoration-style:solid;text-indent:0;text-orientation:mixed;text-transform:none;white-space:normal"/><path d="m259.59 330.77c-4.0394 0-7.3933 3.3539-7.3933 7.3934s3.3539 7.3933 7.3933 7.3933h36.16c4.0394 0 7.3934-3.3539 7.3934-7.3933s-3.3539-7.3934-7.3934-7.3934z" color="#000000" color-rendering="auto" dominant-baseline="auto" fill="#fff" image-rendering="auto" shape-rendering="auto" solid-color="#000000" stop-color="#000000" style="font-feature-settings:normal;font-variant-alternates:normal;font-variant-caps:normal;font-variant-east-asian:normal;font-variant-ligatures:normal;font-variant-numeric:normal;font-variant-position:normal;font-variation-settings:normal;inline-size:0;isolation:auto;mix-blend-mode:normal;shape-margin:0;shape-padding:0;text-decoration-color:#000000;text-decoration-line:none;text-decoration-style:solid;text-indent:0;text-orientation:mixed;text-transform:none;white-space:normal"/><path d="m361.81 353.05c0.53451-0.61322 1.1226-1.177 1.6406-1.8047 1.8341-2.2225 3.5638-4.5347 5.1811-6.9287 1.2968-1.9196 2.4665-3.9291 3.6152-5.9502-0.17463-0.0127-0.32494-0.10401-0.50244-0.10401h-18.998c-4.0394 1e-5 -7.3931 3.3551-7.3931 7.3945 0 4.0394 3.3536 7.3931 7.3931 7.3931z" color="#000000" color-rendering="auto" dominant-baseline="auto" image-rendering="auto" opacity=".3" shape-rendering="auto" solid-color="#000000" stop-color="#000000" style="font-feature-settings:normal;font-variant-alternates:normal;font-variant-caps:normal;font-variant-east-asian:normal;font-variant-ligatures:normal;font-variant-numeric:normal;font-variant-position:normal;font-variation-settings:normal;inline-size:0;isolation:auto;mix-blend-mode:normal;shape-margin:0;shape-padding:0;text-decoration-color:#000000;text-decoration-line:none;text-decoration-style:solid;text-indent:0;text-orientation:mixed;text-transform:none;white-space:normal"/><path d="m347 338.74h19.271" color="#000000" color-rendering="auto" dominant-baseline="auto" image-rendering="auto" opacity=".3" shape-rendering="auto" solid-color="#000000" stop-color="#000000" style="font-feature-settings:normal;font-variant-alternates:normal;font-variant-caps:normal;font-variant-east-asian:normal;font-variant-ligatures:normal;font-variant-numeric:normal;font-variant-position:normal;font-variation-settings:normal;inline-size:0;isolation:auto;mix-blend-mode:normal;shape-margin:0;shape-padding:0;text-decoration-color:#000000;text-decoration-line:none;text-decoration-style:solid;text-indent:0;text-orientation:mixed;text-transform:none;white-space:normal"/><path d="m305.77 331.24h19.271" color="#000000" color-rendering="auto" dominant-baseline="auto" fill="#fff" image-rendering="auto" shape-rendering="auto" solid-color="#000000" stop-color="#000000" style="font-feature-settings:normal;font-variant-alternates:normal;font-variant-caps:normal;font-variant-east-asian:normal;font-variant-ligatures:normal;font-variant-numeric:normal;font-variant-position:normal;font-variation-settings:normal;inline-size:0;isolation:auto;mix-blend-mode:normal;shape-margin:0;shape-padding:0;text-decoration-color:#000000;text-decoration-line:none;text-decoration-style:solid;text-indent:0;text-orientation:mixed;text-transform:none;white-space:normal"/><path d="m315.78 330.77c-4.0394 1e-5 -7.3926 3.3551-7.3926 7.3945 0 4.0394 3.3531 7.3926 7.3926 7.3926h18.998c4.0394 1e-5 7.3926-3.3531 7.3926-7.3926 0-4.0394-3.3531-7.3945-7.3926-7.3945z" color="#000000" color-rendering="auto" dominant-baseline="auto" fill="#fff" image-rendering="auto" shape-rendering="auto" solid-color="#000000" stop-color="#000000" style="font-feature-settings:normal;font-variant-alternates:normal;font-variant-caps:normal;font-variant-east-asian:normal;font-variant-ligatures:normal;font-variant-numeric:normal;font-variant-position:normal;font-variation-settings:normal;inline-size:0;isolation:auto;mix-blend-mode:normal;shape-margin:0;shape-padding:0;text-decoration-color:#000000;text-decoration-line:none;text-decoration-style:solid;text-indent:0;text-orientation:mixed;text-transform:none;white-space:normal"/><path d="m343.27 331.24h19.271" color="#000000" color-rendering="auto" dominant-baseline="auto" fill="#fff" image-rendering="auto" shape-rendering="auto" solid-color="#000000" stop-color="#000000" style="font-feature-settings:normal;font-variant-alternates:normal;font-variant-caps:normal;font-variant-east-asian:normal;font-variant-ligatures:normal;font-variant-numeric:normal;font-variant-position:normal;font-variation-settings:normal;inline-size:0;isolation:auto;mix-blend-mode:normal;shape-margin:0;shape-padding:0;text-decoration-color:#000000;text-decoration-line:none;text-decoration-style:solid;text-indent:0;text-orientation:mixed;text-transform:none;white-space:normal"/><path d="m361.81 345.55c0.53451-0.61322 1.1226-1.177 1.6406-1.8047 1.8341-2.2225 3.5638-4.5347 5.1812-6.9287 1.2968-1.9196 2.4665-3.9291 3.6152-5.9502-0.17463-0.0127-0.32494-0.10401-0.50244-0.10401h-18.998c-4.0394 1e-5 -7.3931 3.3551-7.3931 7.3945 0 4.0394 3.3536 7.3931 7.3931 7.3931z" color="#000000" color-rendering="auto" dominant-baseline="auto" fill="#fff" image-rendering="auto" shape-rendering="auto" solid-color="#000000" stop-color="#000000" style="font-feature-settings:normal;font-variant-alternates:normal;font-variant-caps:normal;font-variant-east-asian:normal;font-variant-ligatures:normal;font-variant-numeric:normal;font-variant-position:normal;font-variation-settings:normal;inline-size:0;isolation:auto;mix-blend-mode:normal;shape-margin:0;shape-padding:0;text-decoration-color:#000000;text-decoration-line:none;text-decoration-style:solid;text-indent:0;text-orientation:mixed;text-transform:none;white-space:normal"/></svg>
