<svg width="512" height="512" version="1.1" viewBox="0 0 384 384" xmlns="http://www.w3.org/2000/svg"><defs><clipPath><rect width="384" height="384"/></clipPath><clipPath><rect width="384" height="384"/></clipPath><clipPath><rect width="384" height="384"/></clipPath><clipPath><rect width="384" height="384"/></clipPath></defs><g><path d="m266.2 133.49c-29.002-0.14513-61.863 3.6512-95.789 11.798-98.691 23.703-169.03 75.246-157.11 115.12 8.2252 27.513 53.461 42.285 113.13 41.019 13.806 12.616 48.057 16.007 85.699 7.0137 35.906-8.5785 64.319-25.898 73.068-42.771 58.636-26.222 94.255-61.803 85.499-91.093-7.8237-26.171-49.132-40.815-104.5-41.092z" opacity=".3"/><path d="m180 78c-84 0-64.461 74.051-107.47 97.164-43.633 24.754-19.594 46.914-12.531 70.836 11.918 39.883 45.301 11.703 144-12 98.695-23.699 119.92-20.117 108-60-7.1445-23.652 16.309-45.574-34.695-47.66-41.453 2.2695-37.305-48.34-97.305-48.34z"/><path transform="scale(.75)" d="m240 104c-112 0-85.947 98.735-143.29 129.55-29.253 16.596-35.687 32.317-33.662 47.902 1.7618-12.333 10.649-24.846 33.662-37.902 57.344-30.818 31.291-129.55 143.29-129.55 80 0 74.469 67.479 129.74 64.453 35.293 1.4434 43.827 10.02 45.223 22.336 1.2157-17.521-1.0281-30.528-45.223-32.336-55.271 3.026-49.74-64.453-129.74-64.453zm174.16 117.57c-0.37602 6.5186-0.2763 13.414 1.8418 20.426 1.8565 6.2126 3.1002 11.625 3.6562 16.406 1.0223-6.8782-0.36656-15.397-3.6562-26.406-1.0622-3.5165-1.5999-7.0002-1.8418-10.426z" fill="#fff" opacity=".3" stroke-width="1.3333"/></g><path d="m370.7 167.08c-11.922-39.879-101.59-52.992-200.29-29.293-98.691 23.703-169.03 75.246-157.11 115.12 11.922 39.879 101.59 52.996 200.29 29.293 98.695-23.703 169.04-75.246 157.11-115.12z" fill="#357af0"/><path d="m287.6 244.03c-4.4961-20.406-45.566-28.004-91.738-16.973-46.176 11.031-79.961 36.516-75.469 56.918 4.4922 20.406 45.566 28.004 91.738 16.973 46.172-11.031 79.961-36.516 75.469-56.918z" fill="#fff"/><path transform="scale(.75)" d="m354.93 167.99c-38.67-0.19351-82.483 4.8683-127.72 15.73-125.79 30.212-217.03 94.345-210.94 146.39 5.5837-50.012 93.093-108.08 210.94-136.39 131.59-31.599 251.16-14.115 267.05 39.057 0.70014 2.342 1.1763 4.7155 1.457 7.1133 0.65101-5.8332 0.20329-11.559-1.457-17.113-10.432-34.894-65.51-54.418-139.33-54.787z" fill="#fff" opacity=".3" stroke-width="1.3333"/></svg>
