<svg xmlns="http://www.w3.org/2000/svg" width="512" height="512" version="1.1" viewBox="0 0 512 512">
 <defs>
  <filter id="filter4187" style="color-interpolation-filters:sRGB" width="1.215" height="1.084" x="-.11" y="-.04">
   <feGaussianBlur stdDeviation="8.192"/>
  </filter>
 </defs>
 <rect style="fill:#e6e6e6;fill-rule:evenodd" width="398.398" height="448.398" x="56.8" y="32.88" rx="19.537" ry="19.537"/>
 <path style="opacity:0.2;filter:url(#filter4187)" d="m 406.96168,9.8140836 c 7.68971,0 17.46522,7.5066454 17.46522,20.6860944 l 0.34919,456.223542 c 0,10.06653 -11.1385,19.09686 -24.10153,19.09686 l -145.47536,-23.7367 0,-450.000004 z" transform="matrix(0.97685263,0,0,0.94533771,21.624009,14.092875)"/>
 <path style="fill:#ffffff" d="m 407.98305,10.480214 c 7.68971,0 17.46522,7.506645 17.46522,20.686094 l 0.34919,454.891292 c 0,10.06653 -11.1385,19.09686 -24.10153,19.09686 l -146.49673,-23.07058 0,-450.000002 z"/>
 <path style="fill:#ba174e;fill-rule:evenodd" d="m 205.41992,27.132812 c -2.87334,0 -5.1875,2.31416 -5.1875,5.1875 l 0,183.611328 c 0,0.0954 0.009,0.18913 0.0137,0.2832 l 20.38086,-20.41796 20.46094,20.42187 c 0.005,-0.0954 0.0137,-0.19041 0.0137,-0.28711 l 0,-183.611328 c 0,-2.87334 -2.3122,-5.1875 -5.18554,-5.1875 l -30.4961,0 z"/>
</svg>
