<?xml version="1.0" encoding="UTF-8" standalone="no"?>
<svg
   xmlns:dc="http://purl.org/dc/elements/1.1/"
   xmlns:cc="http://creativecommons.org/ns#"
   xmlns:rdf="http://www.w3.org/1999/02/22-rdf-syntax-ns#"
   xmlns:svg="http://www.w3.org/2000/svg"
   xmlns="http://www.w3.org/2000/svg"
   xmlns:sodipodi="http://sodipodi.sourceforge.net/DTD/sodipodi-0.dtd"
   xmlns:inkscape="http://www.inkscape.org/namespaces/inkscape"
   height="512"
   id="Layer_1"
   version="1.1"
   viewBox="0 0 512 512"
   width="512"
   xml:space="preserve"
   inkscape:version="0.91 r13725"
   sodipodi:docname="audacity.svg"><metadata
     id="metadata52"><rdf:RDF><cc:Work
         rdf:about=""><dc:format>image/svg+xml</dc:format><dc:type
           rdf:resource="http://purl.org/dc/dcmitype/StillImage" /><dc:title /></cc:Work></rdf:RDF></metadata><defs
     id="defs50" /><sodipodi:namedview
     pagecolor="#ffffff"
     bordercolor="#666666"
     borderopacity="1"
     objecttolerance="10"
     gridtolerance="10"
     guidetolerance="10"
     inkscape:pageopacity="0"
     inkscape:pageshadow="2"
     inkscape:window-width="1026"
     inkscape:window-height="2036"
     id="namedview48"
     showgrid="false"
     inkscape:zoom="0.62769538"
     inkscape:cx="72.578986"
     inkscape:cy="-520.73639"
     inkscape:window-x="2"
     inkscape:window-y="68"
     inkscape:window-maximized="0"
     inkscape:current-layer="Layer_1" /><path
     style="fill:#000000;fill-opacity:1;fill-rule:nonzero;stroke:none;stroke-width:1.33069301;stroke-linecap:round;stroke-linejoin:round;stroke-miterlimit:4;stroke-dasharray:none;stroke-opacity:0.99607843;opacity:0.3"
     d="m 255.61942,43.019654 c -21.67785,-0.0685 -43.27058,3.48212 -64.98243,10.64844 C 125.4699,75.177336 77.749615,127.71985 59.814735,197.72083 c -6.63014,25.87988 -6.78731,28.31791 -6.66602,103.33788 0.10161,62.8836 0.25195,68.28872 2.10547,77.40039 6.59452,32.41685 27.83274,57.84297 57.996085,70.37305 3.26643,1.35689 6.625,2.71285 10.09375,3.75586 1.32014,0.39699 2.85974,0.63415 4.18946,1.17383 2.91381,1.18254 5.41914,2.83468 6.63086,3.88476 3.03261,2.62809 6.79923,2.70194 10.54492,1.33789 2.24222,0.20672 4.94478,0.35792 7.53516,0.38477 0.84007,0.009 1.64501,-0.0194 2.45117,-0.0449 0.51875,0.0141 1.04018,0.0396 1.55078,0.0449 9.26967,0.0961 16.64054,-1.93768 18.44922,-5.08789 0.62354,-1.08592 1.06611,-15.16567 1.07812,-33.91211 0.006,-15.34335 0.39891,-48.77944 0.90235,-79.28516 0.45139,0.57642 0.94096,1.32863 1.38476,2.31641 1.76019,3.97182 1.75838,10.65401 2.39844,17.0293 0.61339,6.4364 0.61386,13.28014 2.80078,19.10547 0.53337,2.79048 2.72016,4.68499 5.09375,7.16992 2.72029,2.22015 6.4548,3.58398 10.61523,3.58398 2.80031,0 5.20103,-0.32616 7.28125,-1.75195 1.68017,-1.28319 2.7204,-3.6663 3.86719,-5.41797 1.76017,-3.42188 2.80013,-7.5572 3.54688,-12.48633 1.76018,-10.0212 3.01303,-22.99497 3.75976,-35.80664 0.5334,-12.81169 0.61305,-25.78684 2.61328,-35.01367 0.61339,-4.68471 2.50629,-7.71819 3.75977,-9.77539 0.61339,0.54995 0.72162,0.95563 1.76172,1.75 1.36013,3.89034 2.8001,9.77817 3.54687,17.02929 1.76018,14.86889 1.76032,34.05606 2.40039,53.93555 0.72006,19.73691 1.86707,39.47266 3.94727,54.58594 0.5334,7.55665 1.68028,14.07477 3.86719,18.86133 0.6134,2.46456 1.7584,4.68387 3.94531,6.43554 1.76018,1.75167 4.80066,3.58594 8.42773,3.58594 2.0802,0 3.54687,-0.95814 5.01368,-1.83398 1.36014,-0.79436 2.80162,-1.58818 3.76171,-2.62696 1.7602,-2.13866 2.8005,-4.21595 3.94727,-7.23046 1.7602,-5.49943 2.72049,-13.85102 3.94727,-23.32227 1.68019,-19.10549 2.71965,-44.15734 3.75976,-68.98633 0.53337,-24.99193 1.97366,-49.8013 3.86719,-68.27539 0.61341,-6.76228 0.61299,-11.46708 1.75976,-16.07031 1.46685,5.56055 2.72048,12.017 3.94727,20.77539 1.68018,19.89984 3.86686,46.94947 5.01367,73.36719 1.0401,26.80472 1.76036,53.46536 3.94727,73.50781 0.53338,9.93973 2.18699,18.14928 3.86719,24.11719 0.61339,3.09599 1.2536,5.09178 2.40039,7.23047 0.61339,0.95729 1.1462,2.5452 2.29297,3.58398 1.7602,0.95733 3.94787,1.83342 6.13476,1.75195 3.86708,-0.24441 6.05441,-1.91376 7.20118,-3.58398 1.7602,-1.58871 2.80047,-3.25892 3.94726,-5.41797 1.68018,-4.13477 2.61346,-9.6339 3.54688,-16.07031 1.76018,-12.81167 2.80047,-29.83957 3.94726,-46.62305 0.61339,-16.70204 2.6647,-33.34319 4.85157,-45.66601 l 3.94726,-14.23829 -0.57226,-11.71093 c -3.86708,0 -8.3083,1.99525 -9.45508,3.58398 -1.7602,1.67018 -1.75873,3.34039 -2.79883,5.41797 -1.68021,4.13476 -2.7204,9.71594 -3.86719,16.15234 -1.7602,12.81166 -3.94696,29.83901 -5.09375,46.54102 -1.0401,16.7835 -1.76037,33.42463 -3.94726,45.66601 -0.5334,4.6236 -1.68061,7.72043 -2.72071,10.81641 -1.76019,-5.41798 -2.72045,-12.97403 -3.94726,-22.44531 -1.68018,-19.65542 -2.72042,-45.99301 -3.86719,-72.63477 -0.93343,-26.58066 -1.76038,-53.0594 -3.94727,-73.42773 -0.5334,-10.18415 -1.6803,-18.86074 -3.86719,-25.05273 -0.6134,-3.17745 -1.14726,-5.88589 -2.80078,-8.04492 -0.53338,-1.20175 -1.46574,-1.75223 -2.50586,-2.79102 -0.93342,-0.95731 -3.54775,-2.30107 -6.05469,-2.62695 l -2.24023,-0.10156 c -2.40026,-0.32591 -4.58594,0.87415 -6.05273,1.75 -1.36016,0.95732 -1.76033,1.75168 -2.4004,2.70898 -1.14679,1.91462 -1.68152,4.37946 -2.29492,7.16992 -1.46683,5.64202 -2.90561,13.13892 -3.65234,22.44726 -1.46683,18.61664 -2.72013,43.36382 -3.54688,68.11133 -0.82677,24.82899 -1.68076,49.65763 -3.65429,68.11133 -0.93342,9.22686 -1.97336,17.35322 -3.54688,22.44531 -0.21334,0.63142 -1.04054,0.46958 -1.2539,0.87695 -1.36014,-3.82925 -2.80013,-9.71707 -3.54688,-17.02929 -1.76018,-14.64483 -1.76032,-34.05411 -2.40039,-53.79102 -0.72006,-19.81838 -1.86705,-39.61772 -3.94727,-54.66992 -0.5334,-7.55665 -1.76076,-14.01369 -3.65429,-18.86133 -0.82676,-2.46458 -2.08007,-4.45982 -3.54688,-6.29297 -1.76019,-1.75168 -3.94561,-3.58398 -7.27929,-3.58398 -2.90698,0 -6.56087,1.34375 -8.42774,2.62695 -1.76019,1.3443 -2.50677,2.79074 -3.54687,4.46094 -1.97356,3.50336 -2.72088,7.5558 -3.6543,12.56641 -1.7602,9.93973 -2.9068,22.99691 -3.54688,35.80859 -0.61338,12.81168 -0.82689,25.62331 -2.40039,34.93164 -0.82675,4.6236 -2.80049,8.5943 -3.94726,10.81445 -0.53341,1.03879 -1.04054,1.58903 -1.25391,1.75196 -0.32003,0 -0.82717,-0.54913 -1.2539,-0.875 -0.72006,-0.54995 -1.76031,-2.3019 -2.4004,-4.46094 -1.76017,-4.21625 -1.86627,-10.51145 -2.29296,-17.0293 -0.61339,-6.43639 -0.61386,-13.27845 -2.80078,-18.85937 -1.04013,-2.79046 -2.18523,-5.01088 -4.79883,-7.16992 -1.77388,-1.35477 -4.39561,-2.49349 -7.16211,-3.10743 0.019,-1.06497 0.0355,-2.23172 0.0547,-3.28125 1.25774,-68.66699 1.75776,-64.09602 -7.43554,-67.88672 -3.06409,-1.2634 -7.24145,-1.86071 -11.58399,-1.91601 -0.87915,-0.0112 -1.76545,0.007 -2.65039,0.0391 -0.44833,-0.0177 -0.8966,-0.0333 -1.34961,-0.0391 -2.21821,-0.0283 -4.47725,0.0919 -6.65625,0.33008 -2.50839,0.10831 -4.29883,0.41148 -6.22851,1.08984 -3.06112,0.77123 -5.55466,1.82708 -6.96289,3.09961 -3.54735,1.56113 -8.15419,3.28681 -11.40821,4.22656 -11.00333,3.17771 -24.149785,10.22727 -34.072255,18.26172 -4.87753,3.94943 -9.12021,7.17578 -9.42578,7.17578 -0.11891,0 -0.20036,-1.9626 -0.25977,-4.70703 l 0.54102,-0.55469 -0.29297,-20.45117 -0.13867,-9.71288 0.08593,-7.47266 2.8418,0 0.44727,-0.0488 c 1.67772,-0.18283 2.99598,-0.87562 3.36328,-1.25195 0.36727,-0.37634 1.76992,-5.71218 2.68164,-12.14258 C 100.57795,149.647 151.09693,95.883578 231.31279,83.461088 c 15.0803,-2.335409 43.1925,-2.33526 56.43165,0 50.64529,8.933351 95.11667,42.796052 118.96484,90.589842 10.32516,20.69255 15.40149,38.22471 18.08985,62.52539 0.89376,8.07899 1.56196,10.18623 2.56836,11.07617 0.39572,0.35 0.6537,0.76491 1.33593,0.85352 0.79285,0.10296 1.45003,0.24562 2.00977,0.49805 l 1.16797,0 -0.24805,16.74023 -0.32422,20.19531 1.64063,1.68555 c -0.129,1.74816 -0.27469,2.93404 -0.42774,3.17578 -0.71785,1.13389 -2.20265,0.26773 -7.02734,-4.09766 -8.95728,-8.10489 -21.81137,-15.37101 -33.95313,-19.1914 -5.41135,-1.70271 -11.92652,-4.10497 -15.14453,-5.56055 l -1.84961,-1.45312 c -3.67484,-2.88908 -10.18851,-4.12864 -16.69726,-3.9668 -0.32047,0.008 -0.64084,0.0263 -0.96094,0.041 -1.00735,-0.0442 -2.02107,-0.0663 -3.03906,-0.041 -8.3684,0.20807 -16.72999,2.73352 -19.04492,7.05664 -0.88441,1.65044 -0.8756,17.68588 0.0332,63.86719 0.66738,33.9144 1.29955,76.50544 1.4043,94.64843 l 0.1914,32.98829 2.71289,2.02539 c 1.74384,1.30095 4.28676,2.42324 6.20899,2.91015 l 0.28711,0.0547 c 0.47993,0.12164 0.85967,0.17141 1.64843,0.26172 2.18505,0.25008 5.31559,0.35902 8.16407,0.27734 0.29917,0.009 0.60617,0.008 0.91015,0.0137 1.68759,1.52586 -1.62337,2.37085 4.24024,2.36133 9.00739,-0.0146 11.91854,-2.01794 16.63867,-5.82617 0.73031,-0.68259 4.91913,-2.36735 7.42578,-3.49414 2.2922,-1.03038 5.13954,-1.48848 7.88086,-2.41797 15.19892,-5.15357 25.26295,-11.52183 37.36133,-23.6582 12.012,-12.04965 18.45732,-22.1713 23.80078,-37.36719 7.88054,-27.05762 3.77067,-57.03723 3.94141,-85.11328 0.10007,-25.40537 0.16011,-43.06627 0.0156,-56.11523 l 0.11524,0 c -0.0366,-2.18993 -0.0916,-4.07545 -0.14454,-6 l -0.0644,0 c -0.4461,-23.91998 -1.8756,-30.41009 -5.75591,-46.29887 -9.06876,-37.13338 -27.1976,-69.19225 -54.07617,-95.64062 -21.82111,-21.472104 -47.92176,-37.475184 -76.63281,-46.984376 -22.05465,-7.30462 -43.81439,-10.99208 -65.49219,-11.06055 z"
     id="path55-6"
     inkscape:connector-curvature="0" /><g
     id="g4208"><path
       sodipodi:nodetypes="ccccccccccccccsccccccccccccccccccccsccccccccccccscccccccccccccccccccccccccccccccccc"
       id="path55"
       d="m 275.13434,229.27861 c -2.40026,-0.32591 -4.58717,0.87582 -6.05397,1.75167 -1.36016,0.95732 -1.7602,1.75169 -2.40027,2.70899 -1.14679,1.91462 -1.68018,4.37919 -2.29358,7.16965 -1.46683,5.64202 -2.90697,13.13756 -3.6537,22.4459 -1.46683,18.61664 -2.72031,43.36415 -3.54706,68.11166 -0.82677,24.82899 -1.68019,49.65797 -3.65372,68.11167 -0.93342,9.22686 -1.97354,17.35381 -3.54706,22.4459 -0.21334,0.63142 -1.0401,0.46847 -1.25346,0.87584 -1.36014,-3.82925 -2.80029,-9.7157 -3.54704,-17.02792 -1.76018,-14.64483 -1.76018,-34.05583 -2.40025,-53.79274 -0.72006,-19.81838 -1.86687,-39.61639 -3.94709,-54.66859 -0.5334,-7.55665 -1.76018,-14.01341 -3.65371,-18.86105 -0.82676,-2.46458 -2.08024,-4.46067 -3.54705,-6.29382 -1.76019,-1.75168 -3.94708,-3.58482 -7.28076,-3.58482 -2.90698,0 -6.5607,1.34431 -8.42757,2.62751 -1.76019,1.3443 -2.50694,2.79046 -3.54704,4.46066 -1.97356,3.50336 -2.72031,7.55665 -3.65373,12.56726 -1.7602,9.93973 -2.90697,22.99582 -3.54705,35.8075 -0.61338,12.81168 -0.82675,25.62335 -2.40025,34.93168 -0.82675,4.6236 -2.80031,8.59543 -3.94708,10.81558 -0.53341,1.03879 -1.0401,1.58874 -1.25347,1.75167 -0.32003,0 -0.82675,-0.54995 -1.25348,-0.87582 -0.72006,-0.54995 -1.76017,-2.30163 -2.40025,-4.46067 -1.76018,-4.21625 -1.86687,-10.51007 -2.29356,-17.02792 -0.61339,-6.43639 -0.61339,-13.28015 -2.80031,-18.86107 -1.04012,-2.79046 -2.18691,-5.0106 -4.80051,-7.16965 -2.80029,-2.13867 -7.70747,-3.74777 -11.97461,-3.58483 l -2.00021,10.36748 2.61362,-1.75167 2.80031,0.87582 c 0.53338,0.40738 1.68015,1.50726 2.6136,3.58485 1.76019,3.97182 1.76019,10.65261 2.40025,17.0279 0.61339,6.4364 0.61339,13.28015 2.80031,19.10548 0.53337,2.79048 2.72027,4.68473 5.09386,7.16966 2.72029,2.22015 6.45403,3.58483 10.61446,3.58483 2.80031,0 5.20056,-0.3259 7.28078,-1.75169 1.68017,-1.28319 2.72029,-3.66629 3.86708,-5.41796 1.76017,-3.42188 2.80029,-7.55665 3.54704,-12.48578 1.76018,-10.0212 3.01366,-22.99584 3.76039,-35.80751 0.5334,-12.81169 0.6134,-25.78632 2.61363,-35.01315 0.61339,-4.68471 2.50691,-7.7196 3.76039,-9.7768 0.61339,0.54995 0.72008,0.95731 1.76018,1.75168 1.36013,3.89034 2.80029,9.77679 3.54706,17.02791 1.76018,14.86889 1.76018,34.05584 2.40025,53.93533 0.72006,19.73691 1.86687,39.47382 3.94707,54.5871 0.5334,7.55665 1.68017,14.07452 3.86708,18.86108 0.6134,2.46456 1.76019,4.68471 3.9471,6.43638 1.76018,1.75167 4.8005,3.58481 8.42757,3.58481 2.0802,0 3.54704,-0.9573 5.01385,-1.83314 1.36014,-0.79436 2.8003,-1.58873 3.76039,-2.62751 1.7602,-2.13866 2.80031,-4.21625 3.94708,-7.23076 1.7602,-5.49943 2.72031,-13.85047 3.94709,-23.32172 1.68019,-19.10549 2.72031,-44.15853 3.76042,-68.98752 0.53337,-24.99193 1.97353,-49.80053 3.86706,-68.27462 0.61341,-6.76228 0.61341,-11.46736 1.76018,-16.07059 1.46685,5.56055 2.72031,12.01729 3.9471,20.77568 1.68018,19.89984 3.86706,46.94897 5.01387,73.36669 1.0401,26.80472 1.76018,53.46685 3.94709,73.5093 0.53338,9.93973 2.18688,18.14816 3.86708,24.11607 0.61339,3.09599 1.25346,5.09209 2.40025,7.23078 0.61339,0.95729 1.14679,2.54602 2.29356,3.5848 1.7602,0.95733 3.9471,1.83316 6.13399,1.75169 3.86708,-0.24441 6.05399,-1.91462 7.20076,-3.58484 1.7602,-1.58871 2.80031,-3.25891 3.9471,-5.41796 1.68018,-4.13477 2.61362,-9.63421 3.54704,-16.07062 1.76018,-12.81167 2.8003,-29.83959 3.94709,-46.62307 0.61339,-16.70204 2.66589,-33.34295 4.85276,-45.66578 l 3.9471,-14.23747 -0.57286,-11.71179 c -3.86708,0 -8.307,1.99611 -9.45378,3.58484 -1.7602,1.67018 -1.7602,3.3404 -2.8003,5.41798 -1.68021,4.13476 -2.72029,9.71568 -3.86708,16.15208 -1.7602,12.81166 -3.9471,29.83959 -5.09389,46.5416 -1.0401,16.7835 -1.76018,33.42442 -3.94707,45.6658 -0.5334,4.6236 -1.68019,7.71958 -2.72029,10.81556 -1.76019,-5.41798 -2.72029,-12.97461 -3.9471,-22.44589 -1.68018,-19.65542 -2.72029,-45.99168 -3.86706,-72.63344 -0.93343,-26.58066 -1.7602,-53.05948 -3.94709,-73.42781 -0.5334,-10.18415 -1.68019,-18.86106 -3.86708,-25.05305 -0.6134,-3.17745 -1.14679,-5.88643 -2.80031,-8.04546 -0.53338,-1.20175 -1.46681,-1.75169 -2.50693,-2.79048 -0.93342,-0.95731 -3.54704,-2.30162 -6.05398,-2.6275"
       style="fill:#ffffff;fill-opacity:1;fill-rule:nonzero;stroke:none;stroke-width:1.33069301;stroke-linecap:round;stroke-linejoin:round;stroke-miterlimit:4;stroke-dasharray:none;stroke-opacity:0.99607843"
       inkscape:connector-curvature="0" /><g
       transform="matrix(3.6420732,0,0,3.6420732,20.80247,267.53564)"
       id="g18" /><g
       transform="matrix(3.6420732,0,0,3.6420732,20.80247,267.53564)"
       id="g20" /><g
       transform="matrix(3.6420732,0,0,3.6420732,20.80247,267.53564)"
       id="g22" /><g
       transform="matrix(3.6420732,0,0,3.6420732,20.80247,267.53564)"
       id="g24" /><g
       transform="matrix(3.6420732,0,0,3.6420732,20.80247,267.53564)"
       id="g26" /><g
       transform="matrix(3.6420732,0,0,3.6420732,20.80247,267.53564)"
       id="g28" /><g
       transform="matrix(3.6420732,0,0,3.6420732,20.80247,267.53564)"
       id="g30" /><g
       transform="matrix(3.6420732,0,0,3.6420732,20.80247,267.53564)"
       id="g32" /><g
       transform="matrix(3.6420732,0,0,3.6420732,20.80247,267.53564)"
       id="g34" /><g
       transform="matrix(3.6420732,0,0,3.6420732,20.80247,267.53564)"
       id="g36" /><g
       transform="matrix(3.6420732,0,0,3.6420732,20.80247,267.53564)"
       id="g38" /><g
       transform="matrix(3.6420732,0,0,3.6420732,20.80247,267.53564)"
       id="g40" /><g
       transform="matrix(3.6420732,0,0,3.6420732,20.80247,267.53564)"
       id="g42" /><g
       transform="matrix(3.6420732,0,0,3.6420732,20.80247,267.53564)"
       id="g44" /><g
       transform="matrix(3.6420732,0,0,3.6420732,20.80247,267.53564)"
       id="g46" /><path
       style="fill:#ffffff;fill-opacity:1;stroke-width:3.64207315"
       clip-path="none"
       d="m 255.64282,32.346767 c -21.67784,-0.06847 -43.26929,3.482478 -64.98114,10.648798 -65.16709,21.50925 -112.888112,74.052965 -130.822992,144.053945 -6.63014,25.87988 -6.78657,28.31675 -6.66528,103.33672 0.10161,62.8836 0.25203,68.28949 2.10555,77.40116 6.59452,32.41685 27.8324,57.84308 57.995752,70.37316 3.26643,1.35689 6.62522,2.71287 10.09397,3.75588 1.32014,0.39699 2.86008,0.63402 4.1898,1.1737 2.91381,1.18254 5.41799,2.83386 6.62971,3.88394 8.6859,7.52726 23.39971,-5.86625 26.36589,-14.13842 0.0907,-0.25312 0.18392,-3.28471 0.27024,-6.76486 -0.91263,-5.0317 -1.44918,-10.21168 -1.42267,-15.51435 l 0.65467,-130.93061 c 0.0328,-6.26698 0.69166,-12.36767 1.95619,-18.24591 l -1.99178,-1.87082 c -4.12716,-3.87681 -0.0182,-12.15375 -8.83866,-12.19465 -7.29315,-0.0328 -9.06491,0.34891 -14.74611,3.16548 -3.55076,1.76021 -9.75492,4.14959 -13.78582,5.31371 -11.00333,3.17771 -24.150842,10.2257 -34.073312,18.26015 -4.87753,3.94943 -9.11971,7.17747 -9.42528,7.17747 -0.30484,0 -0.43457,-10.63019 -0.28445,-23.63083 l 0.27024,-23.63789 3.0517,-0.33434 c 1.67772,-0.18283 2.99732,-0.87563 3.36462,-1.25196 0.36726,-0.37634 1.77005,-5.7122 2.68177,-12.1426 12.181162,-85.9137 62.699962,-139.676755 142.915832,-152.099245 15.0803,-2.33541 43.19164,-2.33526 56.43079,0 50.64529,8.93335 95.11675,42.795635 118.96492,90.589435 10.32516,20.69255 15.40109,38.22632 18.08945,62.527 0.89376,8.07899 1.5615,10.18568 2.56791,11.07562 0.39571,0.35 0.6551,0.76498 1.33733,0.85359 4.73699,0.61515 4.95494,2.24847 4.93673,24.61248 -0.007,11.4958 -0.43108,21.54512 -0.93187,22.33614 -0.71785,1.13389 -2.20338,0.26806 -7.02807,-4.09733 -8.95728,-8.10489 -21.81059,-15.37163 -33.95235,-19.19202 -5.74064,-1.80632 -12.85879,-4.43619 -15.81317,-5.84724 -10.42489,-4.97911 -18.64764,-7.33662 -25.00098,-1.40245 l -3.14416,2.93784 0.007,0.4766 c 1.07063,5.43103 1.6432,11.04761 1.6432,16.80191 l 0,151.87962 c 0,4.79596 -0.40981,9.49296 -1.15949,14.07035 0.17591,4.98334 0.46935,7.59532 0.93896,8.50766 0.7196,1.39787 3.52403,3.63738 6.23137,4.97937 3.99419,1.97991 -1.37073,3.09129 5.36084,3.08036 9.00739,-0.0146 11.91815,-2.01767 16.63828,-5.8259 0.73031,-0.68259 4.91977,-2.36592 7.42642,-3.49271 2.2922,-1.03038 5.14037,-1.48906 7.88169,-2.41855 15.19892,-5.15357 25.26131,-11.52287 37.35969,-23.65924 12.012,-12.04965 18.45807,-22.17094 23.80153,-37.36683 7.88054,-27.05762 3.77017,-57.03607 3.94091,-85.11212 0.32269,-81.91944 0.24001,-83.54839 -5.833,-108.4157 C 442.77643,148.8989 424.6475,116.84068 397.76893,90.392305 375.94782,68.920205 349.84734,52.917345 321.13629,43.408145 299.08164,36.103525 277.3208,32.415238 255.643,32.346767 Z"
       id="path2992-7"
       inkscape:connector-curvature="0"
       sodipodi:nodetypes="cscsssccsccssccsssssccccssssssccsssscccssccsccsssccssssc" /><path
       sodipodi:nodetypes="ccscccccccccccsccccscsssccsss"
       id="path2991-8"
       d="m 357.87303,245.85939 c -8.3684,0.20807 -16.73,2.73352 -19.04493,7.05664 -0.88441,1.65044 -0.8756,17.68587 0.0332,63.86718 0.66738,33.91439 1.29954,76.50544 1.40429,94.64843 l 0.19141,32.98828 2.71289,2.02539 c 1.74384,1.30095 4.28676,2.42325 6.20899,2.91016 l 0.28711,0.0547 c 0.47993,0.12164 0.85967,0.17141 1.64843,0.26172 2.37052,0.27131 5.86826,0.38772 8.89453,0.26171 8.85576,-0.36865 14.79341,-2.91913 16.00196,-6.84961 0.0229,-0.075 0.0462,-0.15086 0.0645,-0.22656 0.003,-0.007 0.005,-0.0166 0.008,-0.0312 0.012,-0.0652 0.0262,-0.17232 0.0371,-0.31836 0.38284,-4.49425 0.73762,-46.73991 0.80274,-96.52148 l 0.12304,-94.05663 -2.67578,-2.10352 c -3.67484,-2.88907 -10.18851,-4.12863 -16.69726,-3.96679 z m -203.96875,1.1875 c -9.55361,-0.12167 -19.9117,2.38053 -21.01172,6.1875 -1.01078,3.49893 -1.13416,71.76569 -0.23242,129.22459 1.0594,67.50568 0.53152,63.19214 7.98242,65.27344 1.72589,0.48211 6.95825,0.91645 11.62695,0.96485 9.26967,0.0961 16.64054,-1.93768 18.44922,-5.08789 0.62354,-1.08592 1.06612,-15.16567 1.07813,-33.91211 0.007,-17.63088 0.51463,-59.41277 1.12695,-92.84765 1.25773,-68.66699 1.75775,-64.09602 -7.43555,-67.88672 -3.06409,-1.2634 -7.24144,-1.86071 -11.58398,-1.91601 z"
       style="opacity:0.3;fill:#000000;fill-opacity:0.99607843;stroke:#000000;stroke-width:7.36515903;stroke-miterlimit:4;stroke-dasharray:none;stroke-opacity:0.99607843"
       inkscape:connector-curvature="0" /><path
       id="path2991"
       d="m 431.95898,234.63477 -0.30273,20.4375 -0.32422,20.19531 5.44141,5.58984 c 6.14578,6.31215 12.80411,15.25088 15.58203,21.62305 1.02852,2.3593 1.29066,3.9282 2.39453,4.43164 0.0109,0.004 0.0221,0.008 0.0293,0.008 0.002,0 0.003,-3.5e-4 0.004,-0.002 0.26551,-0.66518 0.34994,-16.37419 0.1875,-36.14063 l 0.002,0 -0.29688,-36.14257 -11.35742,0 -11.35938,0 z m -374.974605,0.42968 -0.195313,11.9375 -0.08984,24.23243 c -0.156368,19.89311 0.0922,35.93159 0.185547,36.16796 0.833987,2.11123 1.307786,-1.99841 2.332031,-4.4414 2.673431,-6.37694 8.959525,-15.44748 14.996094,-21.63867 l 5.21875,-5.35352 -0.292969,-20.45117 -0.291016,-20.45313 -10.93164,0 -10.931641,0 z m 296.888675,10.79493 c -8.3684,0.20807 -16.73,2.73352 -19.04493,7.05664 -0.88441,1.65044 -0.8756,17.68587 0.0332,63.86718 0.66738,33.9144 1.29954,76.50545 1.40429,94.64844 l 0.19141,32.98828 2.71289,2.02539 c 1.74384,1.30095 4.28676,2.42325 6.20899,2.91016 l 0.28711,0.0547 c 0.47993,0.12164 0.85967,0.17141 1.64843,0.26172 2.37052,0.27131 5.86826,0.38772 8.89453,0.26171 8.85576,-0.36865 14.79341,-2.91913 16.00196,-6.84961 0.0229,-0.075 0.0462,-0.15086 0.0645,-0.22656 0.003,-0.007 0.005,-0.0166 0.008,-0.0312 0.012,-0.0652 0.0262,-0.17232 0.0371,-0.31836 0.38284,-4.49425 0.73794,-46.73991 0.80274,-96.52148 l 0.12304,-94.05664 -2.67578,-2.10352 c -3.67484,-2.88907 -10.18851,-4.12863 -16.69726,-3.96679 z m -195.96875,1.1875 c -9.55361,-0.12167 -19.9117,2.38053 -21.01172,6.1875 -1.01078,3.49893 -1.13416,71.76569 -0.23242,129.2246 1.0594,67.50568 0.53152,63.19214 7.98242,65.27344 1.72589,0.48211 6.95825,0.91645 11.62695,0.96485 9.26967,0.0961 16.64054,-1.93768 18.44922,-5.08789 0.62354,-1.08592 1.06612,-15.16567 1.07813,-33.91211 0.007,-17.63088 0.51463,-59.41277 1.12695,-92.84766 1.25773,-68.66699 1.75775,-64.09602 -7.43555,-67.88672 -3.06409,-1.2634 -7.24144,-1.86071 -11.58398,-1.91601 z"
       style="fill:#2c99d8;fill-opacity:0.99607843;stroke:#2c99d8;stroke-width:7.36515903;stroke-miterlimit:4;stroke-dasharray:none;stroke-opacity:0.99607843"
       inkscape:connector-curvature="0" /><path
       id="path2992-2-2"
       d="M 260.24219 65.037109 C 249.67421 65.037091 238.87609 65.621359 231.33594 66.789062 C 151.12008 79.211556 100.60109 132.97497 88.419922 218.88867 C 87.508202 225.31907 86.105547 230.65491 85.738281 231.03125 C 85.370978 231.40758 84.052721 232.10037 82.375 232.2832 L 81.927734 232.33203 L 53.816406 232.33203 C 53.743903 234.2435 53.671742 236.15611 53.619141 238.33203 L 81.927734 238.33203 L 82.375 238.2832 C 84.05272 238.10037 85.370981 237.40758 85.738281 237.03125 C 86.105551 236.65491 87.508202 231.31907 88.419922 224.88867 C 100.60109 138.97497 151.12008 85.211552 231.33594 72.789062 C 246.41624 70.453653 274.52843 70.453802 287.76758 72.789062 C 338.41287 81.722413 382.88425 115.58511 406.73242 163.37891 C 417.05758 184.07146 422.13391 201.60362 424.82227 225.9043 C 425.71603 233.98329 426.38422 236.09053 427.39062 236.98047 C 427.78634 237.33047 428.04433 237.74537 428.72656 237.83398 C 429.51941 237.93694 430.17659 238.0796 430.73633 238.33203 L 457.80859 238.33203 C 457.77195 236.1421 457.71694 234.25658 457.66406 232.33203 L 430.73633 232.33203 C 430.17659 232.0796 429.51941 231.93694 428.72656 231.83398 C 428.04433 231.74537 427.78634 231.33047 427.39062 230.98047 C 426.38421 230.09053 425.71603 227.98329 424.82227 219.9043 C 422.13391 195.60362 417.05758 178.07146 406.73242 157.37891 C 382.88425 109.58511 338.41287 75.722415 287.76758 66.789062 C 281.148 65.621432 270.81017 65.037128 260.24219 65.037109 z "
       clip-path="none"
       style="fill:#000000;fill-opacity:1;stroke-width:3.64207315;opacity:0.3" /></g></svg>