<svg xmlns="http://www.w3.org/2000/svg" width="512" height="512" version="1.1" viewBox="0 0 512 512">
 <path style="fill:#51c3ad" d="M 103.65791,31.374316 C 77.519519,31.406642 55.55062,47.803975 50.164065,67.905009 l -3.313665,12.365622 0,334.032499 0,11.6171 c 0,20.8603 21.043742,37.65348 47.182156,37.65348 l 323.934884,0 c 26.13842,0 47.18216,-16.79318 47.18216,-37.65348 l 0,-11.6171 0,-334.032499 -4.41824,-15.359677 C 454.98047,44.918402 432.42917,30.967732 406.29076,31.000056 Z"/>
 <path style="fill:#098970" d="m 94.032556,48.426344 c -26.138416,0 -47.182156,16.79317 -47.182156,37.653479 l 0,11.617087 0,334.0325 0,11.61711 C 46.8504,464.20683 67.89414,481 94.032556,481 l 323.934884,0 c 26.13842,0 47.18216,-16.79317 47.18216,-37.65348 l 0,-11.61711 0,-334.0325 0,-11.617087 c 0,-20.860309 -21.04374,-37.653479 -47.18216,-37.653479 l -323.934884,0 z"/>
 <rect style="fill:#1ba389" width="418.299" height="420.957" x="46.85" y="49.59" rx="47.181" ry="37.654"/>
 <path style="fill-opacity:0.19607843;fill-rule:evenodd" d="m 170.17518,51.104639 c 61.266,89.216391 74.89583,170.501651 75.01532,247.042081 l 22.29167,-0.60813 c 4.27245,-134.28376 31.94415,-184.7857 73.84262,-249.04502 z"/>
 <path style="fill:#ffffff" d="m 255.76162,289.86121 c -3.13092,0 -9.53373,0.0502 -14.23012,0.1105 l -8.5389,0.10843 0,4.65093 0,4.65094 c 0,0 -2.75631,3.08561 -3.39385,4.99493 -5.47382,16.39259 -6.25443,34.92402 -2.47455,51.78793 0.57976,2.58657 3.73367,7.02125 3.73367,7.02125 l 0.71088,-12.21631 c 1.47368,-8.70958 0.67508,-18.19519 8.57852,-18.19519 l 2.04925,0 0,-8.50762 c 0,-7.00684 5.40809,-12.64783 12.12457,-12.64783 l 1.33838,0 c 6.71649,0 12.12247,5.64099 12.12247,12.64783 l 0,8.50762 2.17226,0 c 8.47655,0.16469 8.37698,14.50175 8.57851,18.19519 l 0.71088,12.21631 c 0,0 3.53027,-4.86406 4.18813,-7.71546 3.74497,-16.23165 3.22878,-34.1738 -2.18891,-49.92629 -0.50658,-1.4729 -2.7101,-3.80665 -2.7101,-3.80665 l 0,-5.8288 0,-5.82878 -8.5389,-0.10843 c -4.69641,-0.0603 -11.10125,-0.1105 -14.23219,-0.1105 z m -1.36548,24.8808 c -5.85951,0 -10.57775,4.92147 -10.57775,11.03427 l 0,25.51247 c 0,6.11281 4.71824,11.03219 10.57775,11.03219 l 1.16742,0 c 5.85953,0 10.57773,-4.91938 10.57773,-11.03219 l 0,-25.51247 c 0,-6.1128 -4.7182,-11.03427 -10.57773,-11.03427 z m -12.24758,20.88028 c -0.4428,0 -2.04455,0.66153 -3.55856,1.47179 l -2.75178,1.47388 0,40.27208 0,40.27208 0.82967,1.30502 1.14869,0.67334 34.50373,-0.64832 1.31128,-1.10489 0.3002,-39.59874 0.37941,-40.55975 -2.43076,-1.77824 c -1.33668,-0.97843 -2.94835,-1.77825 -3.58148,-1.77825 l -0.51702,0 0,17.88875 c 0,7.00683 -5.40598,12.64782 -12.12247,12.64782 l -1.33838,0 c -6.71648,0 -12.12457,-5.64099 -12.12457,-12.64782 l 0,-17.88875 z m 12.25174,54.11236 c 6.56423,9.6e-4 11.88502,5.3227 11.88483,11.8869 2.1e-4,6.56424 -5.3206,11.88597 -11.88483,11.88694 -6.56505,1.8e-4 -11.8871,-5.32189 -11.88691,-11.88694 -1.8e-4,-6.56503 5.32186,-11.8871 11.88691,-11.8869 z"/>
 <path style="fill:none;stroke:#ffffff;stroke-width:10.67362309;stroke-miterlimit:0;stroke-dasharray:10.67362447, 10.67362447" d="M 172.70442,49.998336 C 253.59545,177.38201 239.12744,222.47216 246.51684,286.42492"/>
 <path style="fill:none;stroke:#ffffff;stroke-width:10.67362309;stroke-dasharray:10.67362447, 10.67362447;stroke-dashoffset:11" d="M 266.95506,290.52244 C 273.63403,130.81128 308.03835,103.6083 336.6787,48.857483"/>
</svg>
