<svg xmlns="http://www.w3.org/2000/svg" xmlns:xlink="http://www.w3.org/1999/xlink" width="384pt" height="384pt" version="1.1" viewBox="0 0 384 384">
 <defs>
  <filter id="alpha" width="100%" height="100%" x="0%" y="0%" filterUnits="objectBoundingBox">
   <feColorMatrix in="SourceGraphic" type="matrix" values="0 0 0 0 1 0 0 0 0 1 0 0 0 0 1 0 0 0 1 0"/>
  </filter>
  <mask id="mask0">
   <g filter="url(#alpha)">
    <rect width="384" height="384" x="0" y="0" style="fill:rgb(0%,0%,0%);fill-opacity:0.2"/>
   </g>
  </mask>
  <clipPath id="clip1">
   <rect width="384" height="384" x="0" y="0"/>
  </clipPath>
  <g id="surface5" clip-path="url(#clip1)">
   <path style="fill:rgb(0%,0%,0%)" d="M 192 30 C 98.929688 30 24 104.929688 24 198 C 24 291.070312 98.929688 366 192 366 C 285.070312 366 360 291.070312 360 198 C 360 104.929688 285.070312 30 192 30 Z M 192 30"/>
  </g>
  <mask id="mask1">
   <g filter="url(#alpha)">
    <rect width="384" height="384" x="0" y="0" style="fill:rgb(0%,0%,0%);fill-opacity:0.2"/>
   </g>
  </mask>
  <clipPath id="clip2">
   <rect width="384" height="384" x="0" y="0"/>
  </clipPath>
  <g id="surface8" clip-path="url(#clip2)">
   <path style="fill:rgb(100%,100%,100%)" d="M 192 24 C 98.929688 24 24 98.929688 24 192 C 24 192.679688 24.066406 193.34375 24.105469 194.015625 C 26.214844 102.804688 100.265625 30 192 30 C 283.734375 30 357.785156 102.804688 359.894531 194.015625 C 359.933594 193.34375 360 192.679688 360 192 C 360 98.929688 285.070312 24 192 24 Z M 192 24"/>
  </g>
 </defs>
 <g>
  <use mask="url(#mask0)" xlink:href="#surface5"/>
  <path style="fill:rgb(80%,80%,80%)" d="M 192 24 C 98.929688 24 24 98.929688 24 192 C 24 285.070312 98.929688 360 192 360 C 285.070312 360 360 285.070312 360 192 C 360 98.929688 285.070312 24 192 24 Z M 192 24"/>
  <path style="fill:rgb(25.098039%,25.098039%,25.098039%)" d="M 202.429688 108 C 180.234375 108 166.742188 132.828125 158.25 154.898438 L 147.585938 187.3125 L 134.015625 230.765625 C 129.804688 242.992188 126.835938 262.429688 114 264 C 108.386719 264.6875 108.628906 252 102 252 C 95.371094 252 90 257.371094 90 264 C 90 270.628906 95.371094 276 102 276 L 109.570312 276 C 135.238281 276 149.875 243.710938 160.875 208.171875 L 167.039062 188.109375 L 176.882812 156.445312 C 181.964844 143.355469 184.078125 121.820312 198 120 C 203.609375 119.265625 203.371094 132 210 132 C 216.628906 132 222 126.628906 222 120 C 222 113.371094 216.628906 108 210 108 Z M 202.429688 108"/>
  <path style="fill:rgb(25.098039%,25.098039%,25.098039%)" d="M 114 168 L 210 168 L 210 180 L 114 180 Z M 114 168"/>
  <path style="fill:rgb(25.098039%,25.098039%,25.098039%)" d="M 274.429688 108 C 252.234375 108 238.742188 132.828125 230.25 154.898438 L 219.585938 187.3125 L 206.015625 230.765625 C 201.804688 242.992188 198.835938 262.429688 186 264 C 180.386719 264.6875 180.628906 252 174 252 C 167.371094 252 162 257.371094 162 264 C 162 270.628906 167.371094 276 174 276 L 181.570312 276 C 207.238281 276 221.875 243.710938 232.875 208.171875 L 239.039062 188.109375 L 248.882812 156.445312 C 253.964844 143.355469 256.078125 121.820312 270 120 C 275.609375 119.265625 275.371094 132 282 132 C 288.628906 132 294 126.628906 294 120 C 294 113.371094 288.628906 108 282 108 Z M 274.429688 108"/>
  <path style="fill:rgb(25.098039%,25.098039%,25.098039%)" d="M 186 168 L 282 168 L 282 180 L 186 180 Z M 186 168"/>
  <use mask="url(#mask1)" xlink:href="#surface8"/>
 </g>
</svg>
