<svg xmlns="http://www.w3.org/2000/svg" xmlns:xlink="http://www.w3.org/1999/xlink" width="384pt" height="384pt" version="1.1" viewBox="0 0 384 384">
 <defs>
  <filter id="alpha" width="100%" height="100%" x="0%" y="0%" filterUnits="objectBoundingBox">
   <feColorMatrix in="SourceGraphic" type="matrix" values="0 0 0 0 1 0 0 0 0 1 0 0 0 0 1 0 0 0 1 0"/>
  </filter>
  <mask id="mask0">
   <g filter="url(#alpha)">
    <rect width="384" height="384" x="0" y="0" style="fill:rgb(0%,0%,0%);fill-opacity:0.301961"/>
   </g>
  </mask>
  <clipPath id="clip1">
   <rect width="384" height="384" x="0" y="0"/>
  </clipPath>
  <g id="surface5" clip-path="url(#clip1)">
   <path style="fill:rgb(0%,0%,0%)" d="M 70.105469 52.402344 L 145.144531 52.402344 C 155.464844 52.402344 163.875 60.8125 163.875 71.132812 L 163.875 146.171875 C 163.875 156.492188 155.464844 164.902344 145.144531 164.902344 L 70.105469 164.902344 C 59.785156 164.902344 51.375 156.492188 51.375 146.171875 L 51.375 71.132812 C 51.375 60.8125 59.785156 52.402344 70.105469 52.402344 M 70.105469 52.402344"/>
   <path style="fill:rgb(0%,0%,0%)" d="M 238.855469 221.152344 L 313.894531 221.152344 C 324.273438 221.152344 332.625 229.5625 332.625 239.882812 L 332.625 314.921875 C 332.625 325.300781 324.273438 333.652344 313.894531 333.652344 L 238.855469 333.652344 C 228.535156 333.652344 220.125 325.300781 220.125 314.921875 L 220.125 239.882812 C 220.125 229.5625 228.535156 221.152344 238.855469 221.152344 M 238.855469 221.152344"/>
   <path style="fill:rgb(0%,0%,0%)" d="M 51.375 193.027344 C 35.78125 193.027344 23.25 205.558594 23.25 221.152344 L 23.25 333.652344 C 23.25 349.25 35.78125 361.777344 51.375 361.777344 L 163.875 361.777344 C 179.46875 361.777344 192 349.25 192 333.652344 L 192 221.152344 C 192 205.558594 179.46875 193.027344 163.875 193.027344 M 51.375 207.089844 L 163.875 207.089844 C 171.679688 207.089844 177.9375 213.347656 177.9375 221.152344 L 177.9375 333.652344 C 177.9375 341.457031 171.679688 347.714844 163.875 347.714844 L 51.375 347.714844 C 43.570312 347.714844 37.3125 341.457031 37.3125 333.652344 L 37.3125 221.152344 C 37.3125 213.347656 43.570312 207.089844 51.375 207.089844 M 51.375 207.089844"/>
   <path style="fill:rgb(0%,0%,0%)" d="M 65.4375 221.152344 L 149.8125 221.152344 C 157.5625 221.152344 163.875 227.46875 163.875 235.214844 L 163.875 319.589844 C 163.875 327.339844 157.5625 333.652344 149.8125 333.652344 L 65.4375 333.652344 C 57.6875 333.652344 51.375 327.339844 51.375 319.589844 L 51.375 235.214844 C 51.375 227.46875 57.6875 221.152344 65.4375 221.152344 M 65.4375 221.152344"/>
   <path style="fill:rgb(0%,0%,0%)" d="M 220.125 24.277344 C 204.53125 24.277344 192 36.808594 192 52.402344 L 192 164.902344 C 192 180.5 204.53125 193.027344 220.125 193.027344 L 332.625 193.027344 C 348.21875 193.027344 360.75 180.5 360.75 164.902344 L 360.75 52.402344 C 360.75 36.808594 348.21875 24.277344 332.625 24.277344 M 220.125 38.339844 L 332.625 38.339844 C 340.429688 38.339844 346.6875 44.597656 346.6875 52.402344 L 346.6875 164.902344 C 346.6875 172.707031 340.429688 178.964844 332.625 178.964844 L 220.125 178.964844 C 212.320312 178.964844 206.0625 172.707031 206.0625 164.902344 L 206.0625 52.402344 C 206.0625 44.597656 212.320312 38.339844 220.125 38.339844 M 220.125 38.339844"/>
   <path style="fill:rgb(0%,0%,0%)" d="M 234.1875 52.402344 L 318.5625 52.402344 C 326.3125 52.402344 332.625 58.71875 332.625 66.464844 L 332.625 150.839844 C 332.625 158.589844 326.3125 164.902344 318.5625 164.902344 L 234.1875 164.902344 C 226.4375 164.902344 220.125 158.589844 220.125 150.839844 L 220.125 66.464844 C 220.125 58.71875 226.4375 52.402344 234.1875 52.402344 M 234.1875 52.402344"/>
  </g>
 </defs>
 <g>
  <use mask="url(#mask0)" xlink:href="#surface5"/>
  <path style="fill:rgb(21.176471%,48.235294%,94.117647%)" d="M 70.105469 44.34375 L 145.144531 44.34375 C 155.464844 44.34375 163.875 52.757812 163.875 63.082031 L 163.875 138.117188 C 163.875 148.441406 155.464844 156.851562 145.144531 156.851562 L 70.105469 156.851562 C 59.785156 156.851562 51.375 148.441406 51.375 138.117188 L 51.375 63.082031 C 51.375 52.757812 59.785156 44.34375 70.105469 44.34375 M 70.105469 44.34375"/>
  <path style="fill:rgb(21.176471%,48.235294%,94.117647%)" d="M 238.855469 213.101562 L 313.894531 213.101562 C 324.273438 213.101562 332.625 221.511719 332.625 231.824219 L 332.625 306.871094 C 332.625 317.25 324.273438 325.59375 313.894531 325.59375 L 238.855469 325.59375 C 228.535156 325.59375 220.125 317.25 220.125 306.871094 L 220.125 231.824219 C 220.125 221.511719 228.535156 213.101562 238.855469 213.101562 M 238.855469 213.101562"/>
  <path style="fill:rgb(97.647059%,87.058824%,41.176471%)" d="M 51.375 184.976562 C 35.78125 184.976562 23.25 197.496094 23.25 213.101562 L 23.25 325.59375 C 23.25 341.199219 35.78125 353.71875 51.375 353.71875 L 163.875 353.71875 C 179.46875 353.71875 192 341.199219 192 325.59375 L 192 213.101562 C 192 197.496094 179.46875 184.976562 163.875 184.976562 M 51.375 199.039062 L 163.875 199.039062 C 171.679688 199.039062 177.9375 205.292969 177.9375 213.101562 L 177.9375 325.59375 C 177.9375 333.402344 171.679688 339.65625 163.875 339.65625 L 51.375 339.65625 C 43.570312 339.65625 37.3125 333.402344 37.3125 325.59375 L 37.3125 213.101562 C 37.3125 205.292969 43.570312 199.039062 51.375 199.039062 M 51.375 199.039062"/>
  <path style="fill:rgb(97.647059%,87.058824%,41.176471%)" d="M 65.4375 213.101562 L 149.8125 213.101562 C 157.5625 213.101562 163.875 219.40625 163.875 227.164062 L 163.875 311.535156 C 163.875 319.277344 157.5625 325.59375 149.8125 325.59375 L 65.4375 325.59375 C 57.6875 325.59375 51.375 319.277344 51.375 311.535156 L 51.375 227.164062 C 51.375 219.40625 57.6875 213.101562 65.4375 213.101562 M 65.4375 213.101562"/>
  <path style="fill:rgb(97.647059%,87.058824%,41.176471%)" d="M 220.125 16.222656 C 204.53125 16.222656 192 28.753906 192 44.34375 L 192 156.851562 C 192 172.441406 204.53125 184.976562 220.125 184.976562 L 332.625 184.976562 C 348.21875 184.976562 360.75 172.441406 360.75 156.851562 L 360.75 44.34375 C 360.75 28.753906 348.21875 16.222656 332.625 16.222656 M 220.125 30.285156 L 332.625 30.285156 C 340.429688 30.285156 346.6875 36.539062 346.6875 44.34375 L 346.6875 156.851562 C 346.6875 164.648438 340.429688 170.914062 332.625 170.914062 L 220.125 170.914062 C 212.320312 170.914062 206.0625 164.648438 206.0625 156.851562 L 206.0625 44.34375 C 206.0625 36.539062 212.320312 30.285156 220.125 30.285156 M 220.125 30.285156"/>
  <path style="fill:rgb(97.647059%,87.058824%,41.176471%)" d="M 234.1875 44.34375 L 318.5625 44.34375 C 326.3125 44.34375 332.625 50.664062 332.625 58.40625 L 332.625 142.777344 C 332.625 150.535156 326.3125 156.851562 318.5625 156.851562 L 234.1875 156.851562 C 226.4375 156.851562 220.125 150.535156 220.125 142.777344 L 220.125 58.40625 C 220.125 50.664062 226.4375 44.34375 234.1875 44.34375 M 234.1875 44.34375"/>
 </g>
</svg>
