<svg xmlns="http://www.w3.org/2000/svg" width="512" height="512" version="1.1" viewBox="0 0 512 512">
 <path style="fill:#ffffff" d="M 68.5,31 C 47.70625,31 31,47.70625 31,68.5 l 0,150 C 31,239.21875 47.70625,256 68.5,256 47.70625,256 31,272.70625 31,293.5 l 0,150 c 0,20.71875 16.70625,37.5 37.5,37.5 l 150,0 c 20.71875,0 37.5,-16.78125 37.5,-37.5 0,20.71875 16.70625,37.5 37.5,37.5 l 150,0 c 20.71875,0 37.5,-16.78125 37.5,-37.5 l 0,-150 C 481,272.70625 464.21875,256 443.5,256 464.21875,256 481,239.21875 481,218.5 l 0,-150 C 481,47.70625 464.21875,31 443.5,31 l -150,0 C 272.70625,31 256,47.70625 256,68.5 256,47.70625 239.21875,31 218.5,31 Z"/>
 <g transform="matrix(17.498941,0,0,17.498941,-163.97458,-163.97458)">
  <g>
   <g>
    <path style="fill:#333333" d="m 33.799232,24.301152 c 1.049537,0 1.899616,0.846279 1.899616,1.899616 l 0,7.598464 c 0,1.049537 -0.850079,1.899616 -1.899616,1.899616 l -7.598464,0 c -1.053337,0 -1.899616,-0.850079 -1.899616,-1.899616 l 0,-7.598464 c 0,-1.053337 0.846279,-1.899616 1.899616,-1.899616 m 7.598464,0.949808 -7.598464,0 c -0.527143,0 -0.949808,0.422665 -0.949808,0.949808 l 0,7.598464 c 0,0.527143 0.422665,0.949808 0.949808,0.949808 l 7.598464,0 c 0.527143,0 0.949808,-0.422665 0.949808,-0.949808 l 0,-7.598464 c 0,-0.527143 -0.422665,-0.949808 -0.949808,-0.949808 m 0,0"/>
    <path style="fill:#333333" d="m 32.849424,26.200768 -5.698848,0 c -0.527143,0 -0.949808,0.422665 -0.949808,0.949808 l 0,5.698848 c 0,0.523344 0.422665,0.949808 0.949808,0.949808 l 5.698848,0 c 0.523344,0 0.949808,-0.426464 0.949808,-0.949808 l 0,-5.698848 c 0,-0.527143 -0.426464,-0.949808 -0.949808,-0.949808 m 0,0"/>
    <path style="fill:#333333" d="m 21.799232,12.301153 c 1.049537,0 1.899615,0.846278 1.899615,1.899615 l 0,7.598464 c 0,1.049537 -0.850078,1.899615 -1.899615,1.899615 l -7.598464,0 c -1.053337,0 -1.899615,-0.850078 -1.899615,-1.899615 l 0,-7.598464 c 0,-1.053337 0.846278,-1.899615 1.899615,-1.899615 m 7.598464,0.949808 -7.598464,0 c -0.527143,0 -0.949807,0.422664 -0.949807,0.949807 l 0,7.598464 c 0,0.527143 0.422664,0.949807 0.949807,0.949807 l 7.598464,0 c 0.527143,0 0.949807,-0.422664 0.949807,-0.949807 l 0,-7.598464 c 0,-0.527143 -0.422664,-0.949807 -0.949807,-0.949807 m 0,0"/>
    <path style="fill:#333333" d="m 20.849424,14.200768 -5.698848,0 c -0.527143,0 -0.949808,0.422665 -0.949808,0.949808 l 0,5.698848 c 0,0.523344 0.422665,0.949808 0.949808,0.949808 l 5.698848,0 c 0.523344,0 0.949808,-0.426464 0.949808,-0.949808 l 0,-5.698848 c 0,-0.527143 -0.426464,-0.949808 -0.949808,-0.949808 m 0,0"/>
    <path style="fill:#268bcf" d="m 33.799232,23.698847 c 1.049537,0 1.899615,-0.850078 1.899615,-1.899615 l 0,-7.598464 c 0,-1.053337 -0.850078,-1.899615 -1.899615,-1.899615 l -7.598464,0 c -1.053337,0 -1.899615,0.846278 -1.899615,1.899615 l 0,7.598464 c 0,1.049537 0.846278,1.899615 1.899615,1.899615 m 7.598464,-0.949808 -7.598464,0 c -0.527143,0 -0.949807,-0.422664 -0.949807,-0.949807 l 0,-7.598464 c 0,-0.527143 0.422664,-0.949807 0.949807,-0.949807 l 7.598464,0 c 0.527143,0 0.949807,0.422664 0.949807,0.949807 l 0,7.598464 c 0,0.527143 -0.422664,0.949807 -0.949807,0.949807 m 0,0"/>
    <path style="fill:#268bcf" d="m 32.849424,21.799232 -5.698848,0 c -0.527143,0 -0.949808,-0.426464 -0.949808,-0.949808 l 0,-5.698848 c 0,-0.527143 0.422665,-0.949808 0.949808,-0.949808 l 5.698848,0 c 0.523344,0 0.949808,0.422665 0.949808,0.949808 l 0,5.698848 c 0,0.523344 -0.426464,0.949808 -0.949808,0.949808 m 0,0"/>
    <path style="fill:#268bcf" d="m 21.799232,35.698848 c 1.049537,0 1.899616,-0.850079 1.899616,-1.899616 l 0,-7.598464 c 0,-1.053337 -0.850079,-1.899616 -1.899616,-1.899616 l -7.598464,0 c -1.053337,0 -1.899616,0.846279 -1.899616,1.899616 l 0,7.598464 c 0,1.049537 0.846279,1.899616 1.899616,1.899616 m 7.598464,-0.949808 -7.598464,0 c -0.527143,0 -0.949808,-0.422665 -0.949808,-0.949808 l 0,-7.598464 c 0,-0.527143 0.422665,-0.949808 0.949808,-0.949808 l 7.598464,0 c 0.527143,0 0.949808,0.422665 0.949808,0.949808 l 0,7.598464 c 0,0.527143 -0.422665,0.949808 -0.949808,0.949808 m 0,0"/>
    <path style="fill:#268bcf" d="m 20.849424,33.799232 -5.698848,0 c -0.527143,0 -0.949808,-0.426464 -0.949808,-0.949808 l 0,-5.698848 c 0,-0.527143 0.422665,-0.949808 0.949808,-0.949808 l 5.698848,0 c 0.523344,0 0.949808,0.422665 0.949808,0.949808 l 0,5.698848 c 0,0.523344 -0.426464,0.949808 -0.949808,0.949808 m 0,0"/>
   </g>
  </g>
 </g>
</svg>
