<svg xmlns="http://www.w3.org/2000/svg" xmlns:xlink="http://www.w3.org/1999/xlink" width="384pt" height="384pt" version="1.1" viewBox="0 0 384 384">
 <defs>
  <filter id="alpha" width="100%" height="100%" x="0%" y="0%" filterUnits="objectBoundingBox">
   <feColorMatrix in="SourceGraphic" type="matrix" values="0 0 0 0 1 0 0 0 0 1 0 0 0 0 1 0 0 0 1 0"/>
  </filter>
  <mask id="mask0">
   <g filter="url(#alpha)">
    <rect width="384" height="384" x="0" y="0" style="fill:rgb(0%,0%,0%);fill-opacity:0.2"/>
   </g>
  </mask>
  <clipPath id="clip1">
   <rect width="384" height="384" x="0" y="0"/>
  </clipPath>
  <g id="surface5" clip-path="url(#clip1)">
   <path style="fill:rgb(0%,0%,0%)" d="M 360 348 L 360 48 C 360 38.058594 351.941406 30 342 30 L 42 30 C 32.058594 30 24 38.058594 24 48 L 24 348 C 24 357.941406 32.058594 366 42 366 L 342 366 C 351.941406 366 360 357.941406 360 348 Z M 360 348"/>
  </g>
  <mask id="mask1">
   <g filter="url(#alpha)">
    <rect width="384" height="384" x="0" y="0" style="fill:rgb(0%,0%,0%);fill-opacity:0.101961"/>
   </g>
  </mask>
  <clipPath id="clip2">
   <rect width="384" height="384" x="0" y="0"/>
  </clipPath>
  <g id="surface8" clip-path="url(#clip2)">
   <path style="fill:rgb(100%,100%,100%)" d="M 42 24 C 32.027344 24 24 32.027344 24 42 L 24 48 C 24 38.027344 32.027344 30 42 30 L 342 30 C 351.972656 30 360 38.027344 360 48 L 360 42 C 360 32.027344 351.972656 24 342 24 Z M 42 24"/>
  </g>
  <mask id="mask2">
   <g filter="url(#alpha)">
    <rect width="384" height="384" x="0" y="0" style="fill:rgb(0%,0%,0%);fill-opacity:0.2"/>
   </g>
  </mask>
  <clipPath id="clip3">
   <rect width="384" height="384" x="0" y="0"/>
  </clipPath>
  <g id="surface11" clip-path="url(#clip3)">
   <path style="fill:rgb(0%,0%,0%)" d="M 112.277344 293.65625 C 112.277344 292.46875 152.347656 244.246094 153.203125 244.441406 C 153.679688 244.570312 171.605469 252.167969 192.976562 261.355469 C 229.53125 277.054688 229.570312 277.992188 230.542969 276.679688 C 232.042969 274.644531 237.199219 264.484375 239.914062 257.675781 L 242.226562 251.886719 L 238.355469 249.757812 C 232.828125 246.757812 227.128906 240.03125 222.070312 234.246094 C 217.445312 228.960938 209.105469 216.234375 209.105469 214.445312 C 209.105469 213.859375 211.757812 216.546875 215.011719 220.421875 C 224.101562 231.238281 242.671875 248.257812 243.976562 245.84375 C 245.539062 242.96875 246.570312 234.523438 246.503906 224.699219 C 246.445312 212.730469 244.882812 204.007812 240.757812 191.152344 L 238.445312 186 C 230.527344 181.265625 224.226562 178.710938 215.503906 175.960938 C 210.570312 174.394531 213.664062 174.484375 220.847656 176.117188 C 229.46875 178.054688 240.054688 179.652344 245.460938 180.335938 C 250.273438 180.929688 251.296875 179.992188 251.800781 174.707031 C 252.457031 167.921875 248.117188 150.367188 243.679688 141.070312 C 241.925781 137.351562 241.117188 136.511719 237.582031 134.910156 C 225.863281 129.4375 187.308594 124.433594 171.714844 126.066406 C 164.964844 126.757812 158.058594 128.410156 155.875 129.785156 C 155.285156 130.261719 159.625 131.316406 167.089844 132.695312 C 173.808594 133.945312 178.710938 135.035156 177.988281 135.222656 C 177.175781 135.347656 166.679688 134.789062 154.46875 133.230469 C 133.097656 130.476562 130.511719 131.824219 128.957031 133.199219 C 125.824219 136.019531 121.398438 139.265625 120.449219 143.386719 C 119.578125 147.359375 119.640625 147.828125 121.613281 151.867188 C 124.984375 158.773438 133.097656 163.804688 147.371094 171.035156 C 154.121094 174.539062 159.496094 177.414062 159.304688 177.628906 C 159.089844 177.816406 153.304688 175.660156 146.496094 172.8125 L 134.023438 167.652344 L 115.746094 172.78125 C 105.71875 175.566406 97.15625 177.882812 96.75 177.882812 C 96.246094 177.882812 96 165.742188 96 145.171875 C 96 113.683594 96.066406 112.367188 97.625 109.152344 C 98.554688 107.179688 100.402344 105.085938 102.058594 104.082031 L 104.933594 102.300781 L 188.605469 102.046875 C 234.59375 101.921875 274.175781 102.046875 276.402344 102.300781 C 281.53125 102.925781 286.152344 106.675781 287.371094 111.203125 C 287.898438 113.179688 288.089844 142.980469 287.957031 199.660156 L 287.742188 285.058594 L 285.960938 287.898438 C 284.929688 289.589844 282.835938 291.433594 280.894531 292.375 C 277.621094 293.96875 276.960938 294 195.011719 294 C 149.578125 294 112.375 293.71875 112.375 293.40625"/>
  </g>
 </defs>
 <g>
  <use mask="url(#mask0)" xlink:href="#surface5"/>
  <path style="fill:rgb(29.019608%,33.333333%,47.45098%)" d="M 360 342 L 360 42 C 360 32.058594 351.941406 24 342 24 L 42 24 C 32.058594 24 24 32.058594 24 42 L 24 342 C 24 351.941406 32.058594 360 42 360 L 342 360 C 351.941406 360 360 351.941406 360 342 Z M 360 342"/>
  <use mask="url(#mask1)" xlink:href="#surface8"/>
  <use mask="url(#mask2)" xlink:href="#surface11"/>
  <path style="fill:rgb(100%,100%,100%)" d="M 112.277344 287.65625 C 112.277344 286.472656 152.347656 238.25 153.203125 238.441406 C 153.675781 238.570312 171.609375 246.167969 192.980469 255.359375 C 229.53125 271.054688 229.574219 271.992188 230.542969 270.679688 C 232.046875 268.644531 237.195312 258.488281 239.914062 251.675781 L 242.226562 245.890625 L 238.355469 243.761719 C 232.828125 240.757812 227.132812 234.035156 222.070312 228.246094 C 217.445312 222.964844 209.105469 210.234375 209.105469 208.449219 C 209.105469 207.859375 211.757812 210.546875 215.007812 214.421875 C 224.101562 225.246094 242.667969 242.253906 243.980469 239.847656 C 245.539062 236.972656 246.570312 228.527344 246.507812 218.703125 C 246.441406 206.730469 244.882812 198.011719 240.753906 185.15625 L 238.445312 180 C 230.523438 175.269531 224.226562 172.710938 215.503906 169.960938 C 210.566406 168.402344 213.664062 168.488281 220.847656 170.121094 C 229.46875 172.058594 240.054688 173.652344 245.460938 174.339844 C 250.273438 174.933594 251.296875 173.996094 251.800781 168.710938 C 252.457031 161.925781 248.117188 144.371094 243.675781 135.078125 C 241.925781 131.355469 241.117188 130.515625 237.582031 128.914062 C 225.863281 123.4375 187.308594 118.433594 171.710938 120.066406 C 164.960938 120.753906 158.058594 122.414062 155.875 123.789062 C 155.285156 124.261719 159.625 125.320312 167.089844 126.695312 C 173.808594 127.945312 178.710938 129.039062 177.992188 129.226562 C 177.175781 129.351562 166.679688 128.792969 154.46875 127.234375 C 133.097656 124.480469 130.515625 125.824219 128.957031 127.203125 C 125.828125 130.019531 121.398438 133.265625 120.453125 137.390625 C 119.582031 141.359375 119.636719 141.832031 121.613281 145.867188 C 124.988281 152.773438 133.097656 157.808594 147.371094 165.039062 C 154.125 168.542969 159.5 171.417969 159.304688 171.632812 C 159.089844 171.816406 153.308594 169.664062 146.492188 166.816406 L 134.023438 161.652344 L 115.746094 166.78125 C 105.71875 169.570312 97.160156 171.882812 96.75 171.882812 C 96.246094 171.882812 96 159.746094 96 139.175781 C 96 107.683594 96.0625 106.371094 97.625 103.152344 C 98.558594 101.183594 100.40625 99.085938 102.0625 98.085938 L 104.933594 96.300781 L 188.605469 96.050781 C 234.59375 95.921875 274.179688 96.050781 276.402344 96.300781 C 281.53125 96.921875 286.152344 100.679688 287.367188 105.207031 C 287.894531 107.179688 288.089844 136.980469 287.960938 193.664062 L 287.746094 279.0625 L 285.960938 281.902344 C 284.929688 283.589844 282.832031 285.433594 280.898438 286.378906 C 277.617188 287.96875 276.960938 288.003906 195.011719 288.003906 C 149.582031 288.003906 112.371094 287.722656 112.371094 287.410156"/>
 </g>
</svg>
