<svg xmlns="http://www.w3.org/2000/svg" width="100%" height="100%" version="1.1" viewBox="0 0 512 512">
 <path style="fill:#ffffff;fill-rule:evenodd" d="m 462.04631,253.18576 c 0,115.33448 -93.49819,208.82312 -208.82312,208.82312 -115.33447,0 -208.823126,-93.49819 -208.823126,-208.82312 0,-115.33447 93.498196,-208.823122 208.823126,-208.823122 115.33447,0 208.82312,93.498192 208.82312,208.823122"/>
 <path style="fill:#0fa15f;fill-rule:evenodd" d="m 256.03467,30.999875 c -82.278,0 -154.206,44.199 -193.446001,110.106005 -20.0241,33.633 -31.554,72.9 -31.554,114.894 0,124.26299 100.737001,225 225.000001,225 0.1323,0 0.2619,0 0.3942,0 l 0,-450.000005 c -0.1314,0 -0.2628,0 -0.3942,0 m 24.417,1.3221 c 0.8442,0.0909 1.6902,0.1809 2.5317,0.2817 -0.8388,-0.0999 -1.6902,-0.1908 -2.5317,-0.2817 m 17.775,2.6154 c 1.8,0.342 3.5847,0.7398 5.3721,1.125 -1.7901,-0.3852 -3.5667,-0.7821 -5.3721,-1.125 m 8.154,1.7442 c 0.7398,0.1692 1.485,0.3294 2.2221,0.5067 -0.7353,-0.1764 -1.4841,-0.3375 -2.2221,-0.5067 m 41.427,13.8375 c 0.6975,0.3123 1.3878,0.6372 2.0817,0.9567 -0.693,-0.3186 -1.3851,-0.6444 -2.0817,-0.9567 m 6.1596,2.8971 c 1.4463,0.7011 2.9025,1.4067 4.3317,2.1375 -1.4301,-0.7317 -2.8836,-1.4355 -4.3317,-2.1375 m 61.281,361.547995 c -2.5398,2.54431 -5.1318,5.03191 -7.7904,7.4529 2.6568,-2.41919 5.2524,-4.91039 7.7904,-7.4529 m -81.594,52.28101 c -1.7199,0.6327 -3.4353,1.2366 -5.175,1.8279 1.7334,-0.5895 3.4605,-1.1979 5.175,-1.8279 m -5.175,1.8279 c -1.3761,0.468 -2.7747,0.90899 -4.1625,1.35 1.3914,-0.4428 2.7828,-0.8811 4.1625,-1.35 m -5.5404,1.8 c -3.4254,1.0656 -6.885,2.0493 -10.3779,2.9529 3.4893,-0.9 6.957,-1.8891 10.3779,-2.9529 m -37.917,8.2692 c -1.8738,0.2412 -3.7368,0.4518 -5.625,0.6471 1.8819,-0.1944 3.7575,-0.4068 5.625,-0.6471 m -5.625,0.6471 c -1.5894,0.1638 -3.1824,0.3195 -4.7817,0.45 1.6011,-0.1314 3.1896,-0.2853 4.7817,-0.45"/>
 <path style="fill:#223656;fill-rule:evenodd" d="m 256.43067,30.999875 0,450.000005 c 124.083,-0.2133 224.604,-100.872 224.604,-225 0,-41.9877 -11.5326,-81.252 -31.554,-114.894 -39.1743,-65.808005 -110.934,-109.971005 -193.05,-110.106005"/>
 <text style="font-size:198.73970032px;line-height:125%;font-family:'Gentium Book Basic';letter-spacing:0;word-spacing:0" x="-1095.24" y="536.01">
  
 </text>
 <text style="font-size:123.28100586px;line-height:125%;font-family:'Gentium Book Basic';letter-spacing:0;word-spacing:0" x="707.87" y="232.49">
  
 </text>
 <text style="font-size:123.28100586px;line-height:125%;font-family:'Gentium Book Basic';letter-spacing:0;word-spacing:0" x="1262.39" y="156.18">
  
 </text>
 <text style="font-size:123.28100586px;line-height:125%;font-family:'Gentium Book Basic';letter-spacing:0;word-spacing:0" x="240.13" y="-16.74">
  
 </text>
 <text style="font-size:123.28100586px;line-height:125%;font-family:'Gentium Book Basic';letter-spacing:0;word-spacing:0" x="1287.64" y="-223.24">
  
 </text>
 <text style="font-size:123.28100586px;line-height:125%;font-family:'Gentium Book Basic';letter-spacing:0;word-spacing:0" x="1842.15" y="-299.57">
  
 </text>
 <text style="font-size:123.28100586px;line-height:125%;font-family:'Gentium Book Basic';letter-spacing:0;word-spacing:0" x="1470.94" y="-750.22">
  
 </text>
 <text style="font-size:123.28100586px;line-height:125%;font-family:'Gentium Book Basic';letter-spacing:0;word-spacing:0" x="2025.44" y="-826.54">
  
 </text>
 <text style="font-size:198.73970032px;line-height:125%;font-family:'Gentium Book Basic';letter-spacing:0;word-spacing:0" x="277.01" y="523.05">
  
 </text>
 <path style="opacity:0.3;fill-rule:evenodd" d="m 262.60023,148.69078 0,2.80275 c 0,-0.93203 0.0744,-1.83448 0.14882,-2.74265 -0.0429,-0.0143 -0.10685,-0.0458 -0.14882,-0.0601 m 9.77815,25.90971 c -1.21535,0.008 -2.43834,0.0181 -3.66705,0.0601 -2.04148,0.0696 -4.08106,0.26044 -6.1111,0.41785 -0.0162,0.002 -0.0134,-9.6e-4 -0.0296,0 -69.15299,5.56925 -128.96665,64.1542 -128.96665,64.1542 0,0 33.86102,98.01044 128.99526,106.9968 4.56664,0.44073 9.29354,0.83472 14.1311,0.83472 50.18528,0 138.70663,-25.70652 176.69356,-57.50506 -5.57403,-5.65033 -32.73057,-18.5451 -39.3511,-23.84915 -39.94732,34.48587 -81.24927,63.61998 -138.29643,63.61998 -4.57045,0 -8.95201,-0.29859 -13.17713,-0.83472 -69.81122,-8.78411 -93.6699,-85.77107 -93.6699,-85.77107 0,0 31.22521,-46.11471 93.6699,-50.88453 2.00906,-0.14024 4.04387,-0.2032 6.11111,-0.26807 0.88337,-0.0277 1.74957,-0.0572 2.62341,-0.0601 55.05909,-0.17171 91.07512,48.56259 91.07512,48.56259 0,0 -40.06466,55.72114 -83.02365,55.72114 -6.18266,0 -11.79484,-1.12472 -16.78408,-2.80275 -29.74465,-9.9947 -39.35109,-44.5979 -39.35109,-44.5979 0,0 17.26678,-20.65623 39.35109,-18.00611 22.00799,2.65966 26.56414,12.43018 39.7985,34.49541 l 29.36403,-24.95575 c 0,0 -21.43657,-28.11242 -57.6577,-28.11242 -3.93988,0 -7.80916,0.29001 -11.50483,0.6859 -42.07943,4.54946 -67.34045,32.55886 -67.34045,32.55886 0,0 14.58042,54.90073 67.34045,64.30684 4.94059,0.87383 10.18168,1.40138 15.80054,1.40138 61.30184,0 120.14246,-71.51787 120.14246,-71.51787 0,0 -49.60623,-65.12724 -126.16199,-64.63118"/>
 <path style="fill:#ffffff;fill-rule:evenodd" d="m 256.60023,138.69078 0,2.80275 c 0,-0.93203 0.0744,-1.83448 0.14882,-2.74265 -0.0429,-0.0143 -0.10685,-0.0458 -0.14882,-0.0601 m 9.77815,25.90971 c -1.21535,0.008 -2.43834,0.0181 -3.66705,0.0601 -2.04148,0.0696 -4.08106,0.26044 -6.1111,0.41785 -0.0162,0.002 -0.0134,-9.6e-4 -0.0296,0 -69.15299,5.56925 -128.96665,64.1542 -128.96665,64.1542 0,0 33.86102,98.01044 128.99526,106.9968 4.56664,0.44073 9.29354,0.83472 14.1311,0.83472 50.18528,0 138.70663,-25.70652 176.69356,-57.50506 -5.57403,-5.65033 -32.73057,-18.5451 -39.3511,-23.84915 -39.94732,34.48587 -81.24927,63.61998 -138.29643,63.61998 -4.57045,0 -8.95201,-0.29859 -13.17713,-0.83472 -69.81122,-8.78411 -93.6699,-85.77107 -93.6699,-85.77107 0,0 31.22521,-46.11471 93.6699,-50.88453 2.00906,-0.14024 4.04387,-0.2032 6.11111,-0.26807 0.88337,-0.0277 1.74957,-0.0572 2.62341,-0.0601 55.05909,-0.17171 91.07512,48.56259 91.07512,48.56259 0,0 -40.06466,55.72114 -83.02365,55.72114 -6.18266,0 -11.79484,-1.12472 -16.78408,-2.80275 -29.74465,-9.9947 -39.35109,-44.5979 -39.35109,-44.5979 0,0 17.26678,-20.65623 39.35109,-18.00611 22.00799,2.65966 26.56414,12.43018 39.7985,34.49541 l 29.36403,-24.95575 c 0,0 -21.43657,-28.11242 -57.6577,-28.11242 -3.93988,0 -7.80916,0.29001 -11.50483,0.6859 -42.07943,4.54946 -67.34045,32.55886 -67.34045,32.55886 0,0 14.58042,54.90073 67.34045,64.30683 4.94059,0.87384 10.18168,1.40138 15.80054,1.40138 61.30184,0 120.14246,-71.51787 120.14246,-71.51787 0,0 -49.60623,-65.12724 -126.16199,-64.63118"/>
 <path style="opacity:0.3;fill-rule:evenodd" d="M 480.90283,250.95301 C 478.27076,372.79428 378.7899,470.78944 256.36182,470.99988 l 0,10 c 124.08301,-0.2133 224.60351,-100.872 224.60351,-225 0,-1.68748 -0.0254,-3.36838 -0.0625,-5.04687 z m -449.874999,0.01 c -0.03691,1.67548 -0.0625,3.35267 -0.0625,5.03711 0,124.263 100.737029,225 224.999999,225 l 0.39453,0 0,-10 -0.39453,0 c -122.60405,0 -222.297296,-98.06636 -224.937499,-220.03711 z"/>
 <path style="opacity:0.3;fill:#ffffff;fill-rule:evenodd" d="m 255.96533,30.999887 c -82.27798,0 -154.20531,44.198461 -193.445311,110.105473 -20.024095,33.633 -31.554687,72.90053 -31.554688,114.89453 0,1.65892 0.02678,3.31255 0.0625,4.96289 0.883226,-40.09511 12.27129,-77.57349 31.492188,-109.85743 C 101.76002,85.198348 173.68732,40.999887 255.96533,40.999887 l 0.39453,0 0,-10 -0.39453,0 z m 0.39649,0 0,10 c 32.83877,0.05398 64.0184,7.154475 92.12304,19.859375 3.29132,1.48787 6.53953,3.053929 9.74414,4.693359 37.85762,19.36743 69.5081,49.143819 91.18164,85.552739 19.21677,32.28993 30.60713,69.762 31.49219,109.84766 0.0356,-1.647 0.0625,-3.2976 0.0625,-4.95313 0,-41.9877 -11.5333,-81.25253 -31.55469,-114.89453 C 427.7371,104.69644 396.08662,74.920051 358.229,55.552621 c -3.20461,-1.63943 -6.4528,-3.205489 -9.74414,-4.693359 -28.10464,-12.7049 -59.28426,-19.805395 -92.12304,-19.859375 z"/>
</svg>
