<svg xmlns="http://www.w3.org/2000/svg" xmlns:xlink="http://www.w3.org/1999/xlink" width="384pt" height="384pt" version="1.1" viewBox="0 0 384 384">
 <defs>
  <filter id="alpha" width="100%" height="100%" x="0%" y="0%" filterUnits="objectBoundingBox">
   <feColorMatrix in="SourceGraphic" type="matrix" values="0 0 0 0 1 0 0 0 0 1 0 0 0 0 1 0 0 0 1 0"/>
  </filter>
  <mask id="mask0">
   <g filter="url(#alpha)">
    <rect width="384" height="384" x="0" y="0" style="fill:rgb(0%,0%,0%);fill-opacity:0.2"/>
   </g>
  </mask>
  <clipPath id="clip1">
   <rect width="384" height="384" x="0" y="0"/>
  </clipPath>
  <g id="surface5" clip-path="url(#clip1)">
   <path style="fill:rgb(0%,0%,0%)" d="M 48 341.992188 L 48 353.992188 C 48 373.9375 68.378906 377.78125 84 377.992188 C 98.417969 378.191406 120 373.9375 120 353.992188 C 120 373.9375 141.578125 377.992188 156 377.992188 C 170.421875 377.992188 191.519531 370.707031 192 353.992188 C 192 373.9375 213.578125 377.992188 228 377.992188 C 242.421875 377.992188 263.519531 370.707031 264 353.992188 C 264 373.9375 285.582031 377.992188 300.003906 377.992188 C 314.425781 377.992188 336.003906 373.9375 336.003906 353.992188 L 336.003906 341.992188 C 336.003906 361.9375 314.425781 365.992188 300.003906 365.992188 C 285.582031 365.992188 264 361.9375 264 341.992188 C 263.519531 358.703125 242.421875 365.992188 228 365.992188 C 213.578125 365.992188 192 361.9375 192 341.992188 C 191.519531 358.703125 170.421875 365.992188 156 365.992188 C 141.578125 365.992188 120 361.9375 120 341.992188 C 120 361.9375 98.417969 366.1875 84 365.992188 C 68.378906 365.78125 48 361.9375 48 341.992188 Z M 48 341.992188"/>
  </g>
  <mask id="mask1">
   <g filter="url(#alpha)">
    <rect width="384" height="384" x="0" y="0" style="fill:rgb(0%,0%,0%);fill-opacity:0.2"/>
   </g>
  </mask>
  <clipPath id="clip2">
   <rect width="384" height="384" x="0" y="0"/>
  </clipPath>
  <g id="surface8" clip-path="url(#clip2)">
   <path style="fill:rgb(0%,0%,0%)" d="M 144 114 C 163.882812 114 180 130.121094 180 150.003906 C 180 169.882812 163.882812 186.003906 144 186.003906 C 124.117188 186.003906 108 169.882812 108 150.003906 C 108 130.121094 124.117188 114 144 114 Z M 144 114"/>
   <path style="fill:rgb(0%,0%,0%)" d="M 168 138.003906 C 174.628906 138.003906 180 143.375 180 150.003906 C 180 156.628906 174.628906 162.003906 168 162.003906 C 161.371094 162.003906 156 156.628906 156 150.003906 C 156 143.375 161.371094 138.003906 168 138.003906 Z M 168 138.003906"/>
  </g>
  <mask id="mask2">
   <g filter="url(#alpha)">
    <rect width="384" height="384" x="0" y="0" style="fill:rgb(0%,0%,0%);fill-opacity:0.2"/>
   </g>
  </mask>
  <clipPath id="clip3">
   <rect width="384" height="384" x="0" y="0"/>
  </clipPath>
  <g id="surface11" clip-path="url(#clip3)">
   <path style="fill:rgb(0%,0%,0%)" d="M 276.003906 114 C 295.882812 114 312.003906 130.121094 312.003906 150.003906 C 312.003906 169.882812 295.882812 186.003906 276.003906 186.003906 C 256.121094 186.003906 240 169.882812 240 150.003906 C 240 130.121094 256.121094 114 276.003906 114 Z M 276.003906 114"/>
   <path style="fill:rgb(0%,0%,0%)" d="M 300.003906 138.003906 C 306.628906 138.003906 312.003906 143.375 312.003906 150.003906 C 312.003906 156.628906 306.628906 162.003906 300.003906 162.003906 C 293.375 162.003906 288.003906 156.628906 288.003906 150.003906 C 288.003906 143.375 293.375 138.003906 300.003906 138.003906 Z M 300.003906 138.003906"/>
  </g>
  <mask id="mask3">
   <g filter="url(#alpha)">
    <rect width="384" height="384" x="0" y="0" style="fill:rgb(0%,0%,0%);fill-opacity:0.2"/>
   </g>
  </mask>
  <clipPath id="clip4">
   <rect width="384" height="384" x="0" y="0"/>
  </clipPath>
  <g id="surface14" clip-path="url(#clip4)">
   <path style="fill:rgb(100%,100%,100%)" d="M 170.8125 12 C 103.058594 12 48.503906 69.730469 48.046875 141.609375 L 48 141.609375 L 48 147.609375 L 48.046875 147.609375 C 48.503906 75.730469 103.058594 18 170.8125 18 L 213.1875 18 C 280.941406 18 335.496094 75.730469 335.953125 147.609375 L 336 147.609375 L 336 141.609375 L 335.953125 141.609375 C 335.496094 69.730469 280.941406 12 213.1875 12 Z M 170.8125 12"/>
  </g>
 </defs>
 <g>
  <use mask="url(#mask0)" xlink:href="#surface5"/>
  <path style="fill:rgb(24.705882%,78.039216%,47.058824%)" d="M 170.820312 12 C 103.058594 12 48.503906 69.726562 48.046875 141.601562 L 47.996094 141.601562 L 47.996094 348.003906 C 47.996094 367.949219 68.378906 371.785156 83.996094 372 C 98.417969 372.195312 120 367.949219 120 348.003906 C 120 367.949219 141.578125 372 156 372 C 170.421875 372 191.519531 364.714844 192 348.003906 C 192 367.949219 213.578125 372 228 372 C 242.421875 372 263.519531 364.714844 264 348.003906 C 264 367.949219 285.578125 372 300 372 C 314.421875 372 336 367.949219 336 348.003906 L 336 141.601562 L 335.953125 141.601562 C 335.496094 69.726562 280.929688 12 213.179688 12 Z M 170.820312 12"/>
  <use mask="url(#mask1)" xlink:href="#surface8"/>
  <path style="fill:rgb(92.54902%,94.117647%,94.509804%)" d="M 144 108 C 163.882812 108 180 124.121094 180 144.003906 C 180 163.882812 163.882812 180.003906 144 180.003906 C 124.117188 180.003906 108 163.882812 108 144.003906 C 108 124.121094 124.117188 108 144 108 Z M 144 108"/>
  <path style="fill:rgb(28.627451%,28.627451%,28.627451%)" d="M 168 132 C 174.628906 132 180 137.375 180 144.003906 C 180 150.628906 174.628906 156.003906 168 156.003906 C 161.371094 156.003906 156 150.628906 156 144.003906 C 156 137.375 161.371094 132 168 132 Z M 168 132"/>
  <use mask="url(#mask2)" xlink:href="#surface11"/>
  <path style="fill:rgb(92.54902%,94.117647%,94.509804%)" d="M 276.003906 108 C 295.882812 108 312.003906 124.121094 312.003906 144.003906 C 312.003906 163.882812 295.882812 180.003906 276.003906 180.003906 C 256.121094 180.003906 240 163.882812 240 144.003906 C 240 124.121094 256.121094 108 276.003906 108 Z M 276.003906 108"/>
  <path style="fill:rgb(28.627451%,28.627451%,28.627451%)" d="M 300.003906 132 C 306.628906 132 312.003906 137.375 312.003906 144.003906 C 312.003906 150.628906 306.628906 156.003906 300.003906 156.003906 C 293.375 156.003906 288.003906 150.628906 288.003906 144.003906 C 288.003906 137.375 293.375 132 300.003906 132 Z M 300.003906 132"/>
  <use mask="url(#mask3)" xlink:href="#surface14"/>
 </g>
</svg>
