<svg xmlns="http://www.w3.org/2000/svg" width="512" height="512" version="1.1" viewBox="0 0 512 512">
 <path style="fill:#ffffff;stroke:#080808;stroke-width:21.29999924" d="m 285.30974,31.000097 c -11.87242,0.0096 -14.16851,0.240281 -21.47493,2.184101 -31.22092,8.306083 -52.86858,26.931532 -71.16799,61.226852 -2.30438,4.31873 -4.30726,7.85088 -4.44955,7.85088 -0.14227,0 -3.64627,-3.35308 -7.78831,-7.45036 -11.58449,-11.45929 -21.69089,-16.52472 -34.51384,-17.30071 -8.781,-0.5314 -14.4925,0.67764 -22.77037,4.81879 -12.15226,6.07937 -22.01234,18.78161 -25.24235,32.51747 -3.51347,14.94132 0.98514,31.86482 12.01884,45.21845 l 3.08527,3.73301 -2.2811,1.58019 c -5.66651,3.92758 -13.74817,13.11414 -16.39329,18.63372 -5.32948,11.12104 -3.96268,24.62004 3.52021,34.77981 4.01589,5.45246 9.90047,9.71635 14.40006,10.4355 1.69277,0.27055 3.20816,0.71791 3.36691,0.99194 0.15877,0.27405 -0.0434,2.935 -0.45058,5.91396 -0.94676,6.92627 0.20293,9.36923 5.98593,12.71037 9.03993,15.39898 235.99869,27.32326 270.89454,-3.54213 0.70538,-2.00472 0.51887,-2.50768 -1.58333,-4.31502 l -2.3781,-2.04643 1.99322,-1.29231 c 1.09657,-0.7096 3.75217,-2.91434 5.90146,-4.90015 14.21716,-13.13582 10.96591,-36.87574 -6.58986,-48.13163 -2.36052,-1.51345 -4.1052,-3.17705 -3.88006,-3.69545 7.8682,-18.11681 9.46433,-24.77395 9.9724,-41.61062 0.43981,-14.57385 -0.4966,-21.95449 -4.23053,-33.38736 -10.45225,-32.00362 -38.79276,-59.31378 -72.60423,-69.963274 -12.78861,-4.027998 -19.13097,-4.97067 -33.34042,-4.959599 z"/>
 <path style="fill:#ffffff" d="m 293.30974,27.000098 c -11.87242,0.01 -14.16851,0.24028 -21.47493,2.1841 -31.22092,8.30608 -52.86858,26.93153 -71.16799,61.22685 -2.30438,4.31873 -4.30726,7.85088 -4.44955,7.85088 -0.14227,0 -3.64627,-3.35308 -7.78831,-7.45036 -11.58449,-11.45929 -21.69089,-16.52472 -34.51384,-17.30071 -8.781,-0.5314 -14.4925,0.67764 -22.77037,4.81879 -12.15226,6.07937 -22.01234,18.78161 -25.24235,32.517472 -3.51347,14.94132 0.98514,31.86482 12.01884,45.21845 l 3.08527,3.73301 -2.2811,1.58019 c -5.66651,3.92758 -13.74817,13.11414 -16.39329,18.63372 -5.32948,11.12104 -3.96268,24.62004 3.52021,34.77981 4.01589,5.45246 9.90047,9.71635 14.40006,10.4355 1.69277,0.27055 3.20816,0.71791 3.36691,0.99194 0.15877,0.27405 -0.0434,2.935 -0.45058,5.91396 -0.94676,6.92627 0.20293,9.36923 5.98593,12.71037 9.03993,15.39898 235.99869,27.32326 270.89454,-3.54213 0.70538,-2.00472 0.51887,-2.50768 -1.58333,-4.31502 l -2.3781,-2.04643 1.99322,-1.29231 c 1.09657,-0.7096 3.75217,-2.91434 5.90146,-4.90015 14.21716,-13.13582 10.96591,-36.87574 -6.58986,-48.13163 -2.36052,-1.51345 -4.1052,-3.17705 -3.88006,-3.69545 7.8682,-18.11681 9.46433,-24.77395 9.9724,-41.61062 0.43981,-14.57385 -0.4966,-21.95449 -4.23053,-33.38736 -10.45225,-32.003622 -38.79276,-59.313782 -72.60423,-69.963272 -12.78861,-4.028 -19.13097,-4.97067 -33.34042,-4.9596 z"/>
 <path style="stroke:#585858;stroke-width:0" d="m 289.30974,41.000089 c -11.87242,0.01 -14.16851,0.24029 -21.47494,2.1841 -31.22091,8.30609 -52.86857,26.93154 -71.16798,61.226861 -2.30439,4.31873 -4.30726,7.85087 -4.44956,7.85087 -0.14226,0 -3.64626,-3.35308 -7.7883,-7.45035 -11.58449,-11.459292 -21.69089,-16.524721 -34.51384,-17.300711 -8.78101,-0.5314 -14.4925,0.67763 -22.77037,4.818788 -12.15226,6.079366 -22.01234,18.781603 -25.24235,32.517463 -3.51347,14.94131 0.98514,31.86483 12.01884,45.21846 l 3.08527,3.73301 -2.2811,1.58019 c -5.66651,3.92758 -13.74817,13.11414 -16.39329,18.63372 -5.329479,11.12104 -3.962679,24.62004 3.52021,34.77981 4.01589,5.45246 9.90047,9.71635 14.40006,10.4355 1.69277,0.27055 3.20816,0.71791 3.36691,0.99194 0.15877,0.27405 -0.0434,2.935 -0.45059,5.91396 -0.94675,6.92627 0.20294,9.36923 5.98594,12.71037 19.69156,11.37675 89.25393,17.85286 164.13005,15.28246 64.33313,-2.20845 103.33766,-9.08528 106.76449,-18.82459 0.70538,-2.00472 0.51887,-2.50768 -1.58334,-4.31502 l -2.37809,-2.04643 1.99322,-1.29231 c 1.09657,-0.7096 3.75217,-2.91434 5.90146,-4.90015 14.21716,-13.13582 10.96591,-36.87574 -6.58986,-48.13163 -2.36052,-1.51345 -4.1052,-3.17705 -3.88006,-3.69545 7.8682,-18.11681 9.46433,-24.77395 9.9724,-41.61062 0.43981,-14.57387 -0.4966,-21.9545 -4.23053,-33.38737 -10.45225,-32.003611 -38.79276,-59.313771 -72.60423,-69.963271 -12.78861,-4.028 -19.13098,-4.97067 -33.34042,-4.9596 z m 44.58011,116.164261 c 3.23833,-0.0912 6.58824,0.60072 9.78778,2.16533 15.85526,7.75339 13.72986,31.23352 -3.29179,36.35375 -4.92957,1.48283 -7.02799,1.41122 -12.39746,-0.43182 -10.82648,-3.71616 -15.96426,-16.36602 -10.98622,-27.05097 3.18828,-6.84332 9.76334,-10.83566 16.88769,-11.03629 z m -135.55522,0.16271 c 4.83251,0.0969 9.1237,1.89505 12.86681,5.39455 5.795,5.41785 7.76684,12.83205 5.46026,20.52682 -2.19095,7.30916 -10.86093,13.56146 -18.80582,13.56146 -2.54007,0 -5.53288,-0.70087 -8.10121,-1.89622 -9.2984,-4.32769 -13.63509,-14.17112 -10.64828,-24.16908 1.35062,-4.52112 8.0637,-11.33889 12.30356,-12.49445 2.41955,-0.65942 4.72809,-0.96714 6.92468,-0.92308 z m 5.47591,4.93145 c -2.06798,0.0247 -4.16735,1.07452 -5.59169,3.37941 -4.18178,6.76697 4.13321,13.58015 10.20395,8.36092 1.50427,-1.29326 2.19351,-2.66441 2.19351,-4.36508 0,-4.6064 -3.35914,-7.41628 -6.80577,-7.37525 z m 137.49212,0.32542 c -1.79973,-0.0976 -3.47448,0.7335 -5.05661,2.50327 -3.07833,3.44344 -1.77262,9.08007 2.50327,10.80474 2.53607,1.0229 3.07935,0.9523 5.93588,-0.78854 4.54223,-2.76814 4.54223,-8.53564 0,-11.3398 -1.17853,-0.72758 -2.3027,-1.12115 -3.38254,-1.17967 z m -76.86605,35.44943 c 27.28771,0 28.26808,0.0543 29.43221,1.61148 0.95577,1.27847 1.1403,3.60324 0.90117,11.27411 -0.25064,8.04143 -0.61063,10.30083 -2.14968,13.46134 -2.97174,6.10273 -7.64963,10.78516 -13.62718,13.63657 -4.64796,2.21714 -6.40538,2.59677 -13.03891,2.82869 -5.02593,0.17571 -8.83533,-0.11311 -11.06133,-0.84173 -8.07407,-2.64315 -14.63573,-8.2453 -18.50542,-15.79564 -2.12348,-4.14319 -2.27172,-5.06404 -2.27172,-14.25299 0,-6.98599 0.30335,-10.12797 1.04825,-10.87358 0.82041,-0.82122 7.16507,-1.04825 29.27261,-1.04825 z m 143.21415,58.56714 c -0.6919,-0.13057 -1.70247,0.59202 -2.24668,1.60835 -4.10841,7.67283 -35.75208,13.44874 -78.4702,17.21624 -19.38915,1.71003 -83.39691,2.41501 -107.7251,1.18593 -51.13443,-2.58331 -84.07662,-7.90767 -96.11619,-15.53593 -2.12189,-1.34442 -4.08391,-2.22106 -4.35883,-1.94628 -0.2749,0.27477 4.65637,42.63294 10.95808,94.12923 l 11.45871,93.63169 2.97264,3.08528 c 3.81271,3.9574 15.55478,11.83697 23.87807,16.02406 48.59874,30.08514 160.72807,36.51255 217.94085,-7.85224 0.43247,-0.8077 6.74712,-52.6835 12.9691,-102.85489 11.70236,-94.36296 12.03029,-98.0705 8.73955,-98.69144 z m -49.16316,20.93986 c 0.37845,0.0128 0.61998,0.0537 0.68841,0.12208 0.67976,0.67944 -10.1719,182.49187 -11.01752,184.59116 -0.78259,1.94286 -12.01499,6.51406 -23.70283,9.64384 -7.75349,2.07622 -9.85866,2.35276 -10.41049,1.36742 -0.41426,-0.73972 4.96241,-191.22473 5.41019,-191.67229 0.17562,-0.17554 6.2457,-0.8349 13.4895,-1.46441 7.2438,-0.62951 15.99903,-1.55249 19.45354,-2.05268 2.59087,-0.37515 4.9539,-0.57488 6.0892,-0.53507 z m -195.59301,0.025 c 1.92077,0.0582 5.84968,0.41055 10.11634,0.92622 5.6889,0.68755 13.89112,1.49557 18.22693,1.79296 4.33579,0.2974 8.11013,0.91001 8.38909,1.36116 44.18755,147.38722 -13.81364,279.91151 -30.67132,89.24471 -6.15202,-69.59583 -7.9708,-93.0017 -7.2501,-93.27811 0.13234,-0.0508 0.5488,-0.0663 1.18906,-0.0469 z m 76.45926,5.40394 19.53802,0.2159 19.54115,0.21591 0.70091,97.3115 c 0.39923,55.31665 0.39923,97.60354 0,97.99365 -0.83235,0.8133 -19.30754,1.53399 -27.12918,1.05764 -3.26883,-0.19906 -5.61769,-0.72356 -5.82324,-1.3017 -0.37008,-1.04101 -6.83677,-180.95436 -6.8308,-190.04204 z"/>
 <path style="fill:#fafafa" d="m 401.44001,256.05007 c -50.58696,17.43223 -156.32525,26.17192 -273.37589,3.7643 l 24.2786,181.54342 c 35.36352,39.76024 171.39229,54.744 228.01037,-3.77055 z"/>
 <path style="stroke:#585858;stroke-width:0" d="m 299.30974,27.000091 c -11.87242,0.01 -14.16851,0.24029 -21.47494,2.1841 -31.22091,8.30609 -52.86857,26.93154 -71.16798,61.226859 -2.30439,4.31873 -4.30726,7.85088 -4.44956,7.85088 -0.14226,0 -3.64626,-3.35309 -7.7883,-7.45036 -11.58449,-11.45929 -21.69089,-16.524719 -34.51384,-17.300709 -8.78101,-0.5314 -14.4925,0.67763 -22.77037,4.818788 -12.15226,6.079366 -22.01234,18.781611 -25.24235,32.517471 -3.51347,14.94131 0.98514,31.86482 12.01884,45.21845 l 3.08527,3.73301 -2.2811,1.58019 c -5.66651,3.92758 -13.74817,13.11414 -16.39329,18.63372 -5.32948,11.12104 -3.96268,24.62004 3.52021,34.77981 4.01589,5.45246 9.90047,9.71635 14.40006,10.4355 1.69277,0.27055 3.20816,0.71791 3.36691,0.99194 0.15877,0.27405 -0.0434,2.935 -0.45059,5.91396 -0.94675,6.92627 0.20294,15.36923 5.98594,18.71037 19.69156,11.37675 89.25393,17.85286 164.13005,15.28246 64.33313,-2.20845 103.33766,-15.08528 106.76449,-24.82459 0.70538,-2.00472 0.51887,-2.50768 -1.58334,-4.31502 l -2.37809,-2.04643 1.99322,-1.29231 c 1.09657,-0.7096 3.75217,-2.91434 5.90146,-4.90015 14.21716,-13.13582 10.96591,-36.87574 -6.58986,-48.13163 -2.36052,-1.51345 -4.1052,-3.17705 -3.88006,-3.69545 7.8682,-18.11681 9.46433,-24.77395 9.9724,-41.61062 0.43981,-14.57386 -0.4966,-21.95449 -4.23053,-33.38736 -10.45225,-32.003619 -38.79276,-59.313779 -72.60423,-69.963279 -12.78861,-4.028 -19.13098,-4.97067 -33.34042,-4.9596 z m 44.58011,116.164259 c 3.23833,-0.0912 6.58824,0.60072 9.78778,2.16533 15.85526,7.75339 13.72986,31.23352 -3.29179,36.35375 -4.92957,1.48283 -7.02799,1.41122 -12.39746,-0.43182 -10.82648,-3.71616 -15.96426,-16.36602 -10.98622,-27.05097 3.18828,-6.84332 9.76334,-10.83566 16.88769,-11.03629 z m -135.55522,0.16271 c 4.83251,0.0969 9.1237,1.89505 12.86681,5.39455 5.795,5.41785 7.76684,12.83205 5.46026,20.52682 -2.19095,7.30916 -10.86093,13.56146 -18.80582,13.56146 -2.54007,0 -5.53288,-0.70087 -8.10121,-1.89622 -9.2984,-4.32769 -13.63509,-14.17112 -10.64828,-24.16908 1.35062,-4.52112 8.0637,-11.33889 12.30356,-12.49445 2.41955,-0.65942 4.72809,-0.96714 6.92468,-0.92308 z m 5.47591,4.93145 c -2.06798,0.0247 -4.16735,1.07452 -5.59169,3.37941 -4.18178,6.76697 4.13321,13.58015 10.20395,8.36092 1.50427,-1.29326 2.19351,-2.66441 2.19351,-4.36508 0,-4.6064 -3.35914,-7.41628 -6.80577,-7.37525 z m 137.49212,0.32542 c -1.79973,-0.0976 -3.47448,0.7335 -5.05661,2.50327 -3.07833,3.44344 -1.77262,9.08007 2.50327,10.80474 2.53607,1.0229 3.07935,0.9523 5.93588,-0.78854 4.54223,-2.76814 4.54223,-8.53564 0,-11.3398 -1.17853,-0.72758 -2.3027,-1.12115 -3.38254,-1.17967 z m -76.86605,35.44943 c 27.28771,0 28.26808,0.0543 29.43221,1.61148 0.95577,1.27847 1.1403,3.60324 0.90117,11.27411 -0.25064,8.04143 -0.61063,10.30083 -2.14968,13.46134 -2.97174,6.10273 -7.64963,10.78516 -13.62718,13.63657 -4.64796,2.21714 -6.40538,2.59677 -13.03891,2.82869 -5.02593,0.17571 -8.83533,-0.11311 -11.06133,-0.84173 -8.07407,-2.64315 -14.63573,-8.2453 -18.50542,-15.79564 -2.12348,-4.14319 -2.27172,-5.06404 -2.27172,-14.25299 0,-6.98599 0.30335,-10.12797 1.04825,-10.87358 0.82041,-0.82122 7.16507,-1.04825 29.27261,-1.04825 z m 123.21415,64.56714 c -0.6919,-0.13057 -1.70247,0.59202 -2.24668,1.60835 -4.10841,7.67283 -15.75208,13.44874 -58.4702,17.21624 -19.38915,1.71003 -83.39691,2.41501 -107.7251,1.18593 -51.13443,-2.58331 -84.07662,-7.90767 -96.11619,-15.53593 -2.12189,-1.34442 -4.08391,-2.22106 -4.35883,-1.94628 -0.2749,0.27477 4.65637,42.63294 10.95808,94.12923 l 11.45871,93.63169 2.97264,3.08528 c 3.81271,3.9574 15.55478,11.83697 23.87807,16.02406 48.59874,30.08514 140.72807,38.51255 197.94085,-5.85224 0.43247,-0.8077 6.74712,-54.6835 12.9691,-104.85489 11.70236,-94.36296 12.03029,-98.0705 8.73955,-98.69144 z m -29.16316,20.93986 c 0.37845,0.0128 0.61998,0.0537 0.68841,0.12208 0.67976,0.67944 -10.1719,182.49187 -11.01752,184.59116 -0.78259,1.94286 -12.01499,6.51406 -23.70283,9.64384 -7.75349,2.07622 -9.85866,2.35276 -10.41049,1.36742 -0.41426,-0.73972 4.96241,-191.22473 5.41019,-191.67229 0.17562,-0.17554 6.2457,-0.8349 13.4895,-1.46441 7.2438,-0.62951 15.99903,-1.55249 19.45354,-2.05268 2.59087,-0.37515 4.9539,-0.57488 6.0892,-0.53507 z m -195.59301,0.025 c 1.92077,0.0582 5.84968,0.41055 10.11634,0.92622 5.6889,0.68755 13.89112,1.49557 18.22693,1.79296 4.33579,0.2974 8.11013,0.91001 8.38909,1.36116 0.66704,1.07872 13.18966,191.48619 12.65089,192.35754 -0.48897,0.79077 -1.25585,0.75729 -5.55726,-0.2378 -7.19865,-1.66533 -29.04506,-8.94353 -29.48226,-9.82221 -0.0391,-0.0785 -3.76559,-41.95206 -8.28269,-93.05282 -6.15202,-69.59583 -7.9708,-93.0017 -7.2501,-93.27811 0.13234,-0.0508 0.5488,-0.0663 1.18906,-0.0469 z m 76.45926,5.40394 19.53802,0.2159 19.54115,0.21591 0.70091,97.3115 c 0.39923,55.31665 0.39923,97.60354 0,97.99365 -0.83235,0.8133 -19.30754,1.53399 -27.12918,1.05764 -3.26883,-0.19906 -5.61769,-0.72356 -5.82324,-1.3017 -0.37008,-1.04101 -6.83677,-180.95436 -6.8308,-190.04204 z"/>
 <ellipse style="fill-rule:evenodd" cx="272.292" cy="182.792" rx="103.62" ry="57.567"/>
 <path style="fill:#d41a1a" d="m 330.93389,265.42509 c -19.38916,1.71003 -83.39692,2.41501 -107.7251,1.18593 -51.13444,-2.58331 -84.07663,-7.90767 -96.1162,-15.53593 -2.12189,-1.34442 -4.08391,-2.22106 -4.35883,-1.94628 -0.2749,0.27477 4.65637,42.63294 10.95808,94.12923 l 11.45871,93.63169 2.97264,3.08528 c 3.81271,3.9574 15.55478,11.83697 23.87807,16.02406 48.59874,30.08514 152.72807,38.51255 209.94085,-5.85224 0.43247,-0.8077 6.74712,-54.6835 12.9691,-104.85489 19.24029,-128.04478 19.46795,-87.50602 -63.97732,-79.86685 z m 31.55372,2.11527 c 0.37844,0.0128 0.61997,0.0537 0.6884,0.12208 0.67977,0.67944 -10.1719,182.49187 -11.01752,184.59116 -0.78259,1.94286 -12.01499,6.51406 -23.70283,9.64384 -7.75349,2.07622 -9.85866,2.35276 -10.41048,1.36742 -0.41427,-0.73972 4.9624,-191.22473 5.41018,-191.67229 0.17563,-0.17554 6.2457,-0.8349 13.4895,-1.46441 7.2438,-0.62951 15.99903,-1.55249 19.45354,-2.05268 2.59087,-0.37515 4.9539,-0.57488 6.08921,-0.53507 z m -195.59302,0.025 c 1.92077,0.0582 5.84968,0.41055 10.11634,0.92622 5.6889,0.68755 13.89112,1.49557 18.22693,1.79296 4.33579,0.2974 8.11013,0.91001 8.38909,1.36116 0.66704,1.07872 13.18966,191.48619 12.65089,192.35753 -0.48897,0.79078 -1.25585,0.7573 -5.55726,-0.23779 -7.19865,-1.66533 -29.04506,-8.94353 -29.48226,-9.82221 -0.0391,-0.0785 -3.76559,-41.95206 -8.28269,-93.05282 -6.15202,-69.59583 -7.9708,-93.0017 -7.2501,-93.27811 0.13234,-0.0508 0.5488,-0.0663 1.18906,-0.0469 z m 76.45926,5.40394 19.53803,0.2159 19.54114,0.21591 0.70092,97.3115 c 0.39922,55.31665 0.39922,97.60354 0,97.99365 -0.83236,0.8133 -19.30755,1.53399 -27.12919,1.05764 -3.26883,-0.19906 -5.61769,-0.72356 -5.82324,-1.3017 -0.37008,-1.04101 -6.83677,-180.95436 -6.8308,-190.04204 z"/>
 <path style="fill:#ffffff" d="m 293.30974,27.000096 c -11.87242,0.0096 -14.16851,0.240281 -21.47493,2.184101 -31.22092,8.306083 -52.86858,26.931536 -71.16799,61.226852 -2.30438,4.31873 -4.30726,7.850881 -4.44955,7.850881 -0.14227,0 -3.64627,-3.353085 -7.78831,-7.450358 -11.58449,-11.459291 -21.69089,-16.524724 -34.51384,-17.300714 -8.781,-0.531398 -14.4925,0.677637 -22.77037,4.818791 -12.15226,6.079366 -22.01234,18.781611 -25.24235,32.517471 -3.51347,14.94132 0.98514,31.86482 12.01884,45.21845 l 3.08527,3.73301 -2.2811,1.58019 c -5.66651,3.92758 -13.74817,13.11414 -16.39329,18.63372 -5.329479,11.12104 -3.962679,24.62004 3.52021,34.77981 4.01589,5.45246 9.90047,9.71635 14.40006,10.4355 1.69277,0.27055 3.20816,0.71791 3.36691,0.99194 0.15877,0.27405 -0.0434,2.935 -0.45058,5.91396 -0.94676,6.92627 0.20293,9.36923 5.98593,12.71037 9.03993,15.39898 235.99869,27.32326 270.89454,-3.54213 0.70538,-2.00472 0.51887,-2.50768 -1.58333,-4.31502 l -2.3781,-2.04643 1.99322,-1.29231 c 1.09657,-0.7096 3.75217,-2.91434 5.90146,-4.90015 14.21716,-13.13582 10.96591,-36.87574 -6.58986,-48.13163 -2.36052,-1.51345 -4.1052,-3.17705 -3.88006,-3.69545 7.8682,-18.11681 9.46433,-24.77395 9.9724,-41.61062 0.43981,-14.57385 -0.4966,-21.95449 -4.23053,-33.38736 -10.45225,-32.00362 -38.79276,-59.313779 -72.60423,-69.963275 -12.78861,-4.027998 -19.13097,-4.97067 -33.34042,-4.959599 z m 44.58011,116.164254 c 3.23833,-0.0912 6.58824,0.60072 9.78778,2.16533 15.85526,7.75339 13.72986,31.23352 -3.29179,36.35375 -4.92957,1.48283 -7.02799,1.41121 -12.39746,-0.43182 -10.82648,-3.71616 -15.96426,-16.36602 -10.98622,-27.05097 3.18828,-6.84332 9.76335,-10.83566 16.88769,-11.03629 z m -135.55522,0.16271 c 4.83251,0.0969 9.1237,1.89505 12.86681,5.39455 5.795,5.41785 7.76684,12.83205 5.46026,20.52682 -2.19094,7.30916 -10.86093,13.56146 -18.80582,13.56146 -2.54007,0 -5.53287,-0.70087 -8.10121,-1.89622 -9.2984,-4.32769 -13.63509,-14.17112 -10.64828,-24.16908 1.35062,-4.52112 8.06371,-11.33889 12.30357,-12.49445 2.41954,-0.65942 4.72808,-0.96714 6.92467,-0.92308 z m 5.47591,4.93145 c -2.06798,0.0247 -4.16735,1.07452 -5.59169,3.37941 -4.18178,6.76697 4.13321,13.58015 10.20396,8.36092 1.50427,-1.29326 2.1935,-2.66441 2.1935,-4.36508 0,-4.6064 -3.35914,-7.41628 -6.80577,-7.37525 z m 137.49212,0.32542 c -1.79973,-0.0976 -3.47448,0.7335 -5.05661,2.50327 -3.07832,3.44344 -1.77262,9.08007 2.50327,10.80474 2.53607,1.0229 3.07935,0.9523 5.93589,-0.78854 4.54222,-2.76814 4.54222,-8.53564 0,-11.3398 -1.17854,-0.72758 -2.30271,-1.12115 -3.38255,-1.17967 z m -76.86605,35.44943 c 27.28771,0 28.26808,0.0543 29.43221,1.61148 0.95577,1.27847 1.1403,3.60324 0.90118,11.27411 -0.25065,8.04143 -0.61064,10.30083 -2.14969,13.46134 -2.97174,6.10273 -7.64963,10.78516 -13.62718,13.63657 -4.64796,2.21713 -6.40538,2.59677 -13.03891,2.82869 -5.02592,0.17571 -8.83533,-0.11311 -11.06133,-0.84173 -8.07407,-2.64315 -14.63573,-8.2453 -18.50542,-15.79564 -2.12348,-4.14319 -2.27172,-5.06404 -2.27172,-14.25299 0,-6.98599 0.30335,-10.12797 1.04825,-10.87358 0.82041,-0.82122 7.16507,-1.04825 29.27261,-1.04825 z"/>
</svg>
