<svg xmlns="http://www.w3.org/2000/svg" xmlns:xlink="http://www.w3.org/1999/xlink" width="384pt" height="384pt" version="1.1" viewBox="0 0 384 384">
 <defs>
  <filter id="alpha" width="100%" height="100%" x="0%" y="0%" filterUnits="objectBoundingBox">
   <feColorMatrix in="SourceGraphic" type="matrix" values="0 0 0 0 1 0 0 0 0 1 0 0 0 0 1 0 0 0 1 0"/>
  </filter>
  <mask id="mask0">
   <g filter="url(#alpha)">
    <rect width="384" height="384" x="0" y="0" style="fill:rgb(0%,0%,0%);fill-opacity:0.2"/>
   </g>
  </mask>
  <clipPath id="clip1">
   <rect width="384" height="384" x="0" y="0"/>
  </clipPath>
  <g id="surface5" clip-path="url(#clip1)">
   <path style="fill:rgb(0%,0%,0%)" d="M 360 198 C 360 290.785156 284.785156 366 192 366 C 99.214844 366 24 290.785156 24 198 C 24 105.214844 99.214844 30 192 30 C 284.785156 30 360 105.214844 360 198 Z M 360 198"/>
  </g>
  <mask id="mask1">
   <g filter="url(#alpha)">
    <rect width="384" height="384" x="0" y="0" style="fill:rgb(0%,0%,0%);fill-opacity:0.2"/>
   </g>
  </mask>
  <clipPath id="clip2">
   <rect width="384" height="384" x="0" y="0"/>
  </clipPath>
  <g id="surface8" clip-path="url(#clip2)">
   <path style="fill:rgb(0%,0%,0%)" d="M 144 126 L 144 138 L 180 138 L 180 150 L 132 150 L 132 186 L 120 186 L 120 150 L 108 150 L 108 234 L 120 234 L 120 198 L 132 198 L 132 234 L 156 258 L 234 258 L 246 246 L 264 246 L 264 258 L 276 258 L 288 246.003906 L 288 174.003906 L 276 162 L 264 162 L 264 174 L 253.5 174.003906 L 229.5 150.003906 L 192 150.003906 L 192 138.003906 L 228 138 L 228 126 Z M 144 162 L 222 162 L 246 186 L 276 186 L 276 234 L 240 234 L 228 246 L 163.5 246 L 144 225.601562 Z M 144 162"/>
  </g>
  <mask id="mask2">
   <g filter="url(#alpha)">
    <rect width="384" height="384" x="0" y="0" style="fill:rgb(0%,0%,0%);fill-opacity:0.101961"/>
   </g>
  </mask>
  <clipPath id="clip3">
   <rect width="384" height="384" x="0" y="0"/>
  </clipPath>
  <g id="surface11" clip-path="url(#clip3)">
   <path style="fill:rgb(100%,100%,100%)" d="M 191.988281 24 C 99.210938 24.007812 24 99.222656 24 192 C 24.027344 192.984375 24.0625 193.96875 24.105469 194.953125 C 25.765625 103.40625 100.425781 30.046875 191.988281 30 L 192 30 C 283.5625 30.074219 358.199219 103.453125 359.835938 195 C 359.894531 194 359.945312 193 359.988281 192 C 359.988281 99.222656 284.777344 24.007812 192 24 Z M 191.988281 24"/>
  </g>
  <mask id="mask3">
   <g filter="url(#alpha)">
    <rect width="384" height="384" x="0" y="0" style="fill:rgb(0%,0%,0%);fill-opacity:0.2"/>
   </g>
  </mask>
  <clipPath id="clip4">
   <rect width="384" height="384" x="0" y="0"/>
  </clipPath>
  <g id="surface14" clip-path="url(#clip4)">
   <path style="fill:rgb(0%,0%,0%)" d="M 383.746094 275.089844 C 381.046875 326.011719 338.996094 365.9375 288 366 C 237.664062 366 195.875 327.117188 192.253906 276.910156 C 192.121094 278.605469 192.039062 280.300781 192 282 C 192 335.019531 234.980469 378 288 378 C 341.019531 378 384 335.019531 384 282 C 383.996094 279.691406 383.910156 277.386719 383.742188 275.085938 Z M 383.746094 275.089844"/>
  </g>
 </defs>
 <g>
  <use mask="url(#mask0)" xlink:href="#surface5"/>
  <path style="fill:rgb(30.980392%,30.980392%,30.980392%)" d="M 360 192 C 360 284.785156 284.785156 360 192 360 C 99.214844 360 24 284.785156 24 192 C 24 99.214844 99.214844 24 192 24 C 284.785156 24 360 99.214844 360 192 Z M 360 192"/>
  <use mask="url(#mask1)" xlink:href="#surface8"/>
  <path style="fill:rgb(100%,66.27451%,17.254902%)" d="M 144 120 L 144 132 L 180 132 L 180 144 L 132 144 L 132 180 L 120 180 L 120 144 L 108 144 L 108 228 L 120 228 L 120 192 L 132 192 L 132 228 L 156 252 L 234 252 L 246 240 L 264 240 L 264 252 L 276 252 L 288 240.003906 L 288 168.003906 L 276 156 L 264 156 L 264 168 L 253.5 168.003906 L 229.5 144.003906 L 192 144.003906 L 192 132.003906 L 228 132 L 228 120 Z M 144 156 L 222 156 L 246 180 L 276 180 L 276 228 L 240 228 L 228 240 L 163.5 240 L 144 219.601562 Z M 144 156"/>
  <use mask="url(#mask2)" xlink:href="#surface11"/>
  <use mask="url(#mask3)" xlink:href="#surface14"/>
  <path style="fill-rule:evenodd;fill:rgb(24.705882%,57.254902%,90.588235%)" d="M 384 276 C 384 329.019531 341.019531 372 288 372 C 234.980469 372 192 329.019531 192 276 C 192 222.980469 234.980469 180 288 180 C 341.019531 180 384 222.980469 384 276 Z M 384 276"/>
  <path style="fill:rgb(100%,100%,100%)" d="M 276 228 L 274.941406 240.644531 C 270.933594 242.128906 267.207031 244.285156 263.917969 247.019531 L 252.429688 241.609375 L 240.429688 262.394531 L 250.859375 269.636719 C 250.488281 271.738281 250.296875 273.867188 250.285156 276 C 250.285156 278.140625 250.46875 280.277344 250.832031 282.386719 L 240.425781 289.605469 L 252.425781 310.390625 L 263.890625 304.996094 C 267.1875 307.71875 270.925781 309.859375 274.941406 311.328125 L 276 324 L 300 324 L 301.058594 311.355469 C 305.066406 309.871094 308.792969 307.714844 312.078125 304.980469 L 323.570312 310.390625 L 335.570312 289.605469 L 325.136719 282.359375 C 325.507812 280.261719 325.703125 278.132812 325.714844 276 C 325.710938 273.859375 325.527344 271.722656 325.164062 269.609375 L 335.570312 262.390625 L 323.570312 241.605469 L 312.105469 247.003906 C 308.808594 244.28125 305.070312 242.136719 301.054688 240.667969 L 300 227.996094 L 276 227.996094 Z M 288 262.285156 C 295.574219 262.285156 301.714844 268.425781 301.714844 276.003906 C 301.714844 283.578125 295.574219 289.71875 288 289.71875 C 280.425781 289.71875 274.285156 283.578125 274.285156 276.003906 C 274.285156 268.425781 280.425781 262.285156 288 262.285156 Z M 288 262.285156"/>
 </g>
</svg>
