<?xml version="1.0" encoding="UTF-8" standalone="no"?>
<!-- Created with Inkscape (http://www.inkscape.org/) -->

<svg
   xmlns:dc="http://purl.org/dc/elements/1.1/"
   xmlns:cc="http://creativecommons.org/ns#"
   xmlns:rdf="http://www.w3.org/1999/02/22-rdf-syntax-ns#"
   xmlns:svg="http://www.w3.org/2000/svg"
   xmlns="http://www.w3.org/2000/svg"
   xmlns:sodipodi="http://sodipodi.sourceforge.net/DTD/sodipodi-0.dtd"
   xmlns:inkscape="http://www.inkscape.org/namespaces/inkscape"
   width="512"
   height="512"
   viewBox="0 0 511.99999 511.99999"
   id="svg2"
   version="1.1"
   inkscape:version="0.92.1 r"
   sodipodi:docname="steam_icon_20920.svg">
  <defs
     id="defs4">
    <filter
       inkscape:collect="always"
       style="color-interpolation-filters:sRGB"
       id="filter1402"
       x="-0.029934996"
       width="1.05987"
       y="-0.085915609"
       height="1.1718312">
      <feGaussianBlur
         inkscape:collect="always"
         stdDeviation="5.212558"
         id="feGaussianBlur1404" />
    </filter>
  </defs>
  <sodipodi:namedview
     id="base"
     pagecolor="#ffffff"
     bordercolor="#666666"
     borderopacity="1.0"
     inkscape:pageopacity="0.0"
     inkscape:pageshadow="2"
     inkscape:zoom="2.4334416"
     inkscape:cx="260.33187"
     inkscape:cy="269.76581"
     inkscape:document-units="px"
     inkscape:current-layer="layer1"
     showgrid="false"
     units="px"
     showguides="false"
     inkscape:window-width="1920"
     inkscape:window-height="1014"
     inkscape:window-x="1920"
     inkscape:window-y="34"
     inkscape:window-maximized="1" />
  <metadata
     id="metadata7">
    <rdf:RDF>
      <cc:Work
         rdf:about="">
        <dc:format>image/svg+xml</dc:format>
        <dc:type
           rdf:resource="http://purl.org/dc/dcmitype/StillImage" />
        <dc:title />
      </cc:Work>
    </rdf:RDF>
  </metadata>
  <g
     inkscape:label="Capa 1"
     inkscape:groupmode="layer"
     id="layer1"
     transform="translate(0,-540.36219)">
    <g
       id="g4508"
       transform="matrix(1.0237629,0,0,1.0237629,-5.9509099,-18.909315)">
      <path
         inkscape:connector-curvature="0"
         transform="matrix(1.015249,0,0,1.015249,-3.5065838,536.4678)"
         id="text4269-5"
         d="m 202.16211,182.58203 v 2.45703 2.45703 h 3.68555 3.6875 v 9.01172 9.01172 h 2.45703 2.45703 v -9.01172 -9.01172 h 4.0957 4.09766 v -2.45703 -2.45703 h -10.24024 z m 22.68359,0 1.35547,1.49805 1.35547,1.49804 v 10.37891 10.38086 h 2.45703 2.45899 v -4.91601 -4.91407 h 2.76367 c 1.52064,0 3.91817,0.23012 5.32617,0.51172 l 2.55859,0.51172 v 6.45117 c 0,6.92648 0.56038,7.67256 3.21875,4.29297 l 1.69727,-2.1582 v -11.76758 -11.76758 h -2.45703 -2.45899 v 5.02149 5.02148 l -3.07226,-0.50586 c -1.6896,-0.27926 -4.08518,-0.51258 -5.32422,-0.51758 l -2.25195,-0.01 v -4.50586 -4.50391 h -3.81446 z m 27.08594,0.81836 0.83398,1.02344 c 0.45831,0.5632 0.96495,4.04181 1.12696,7.72851 l 0.29492,6.70313 1.69336,2.30664 c 0.93119,1.26944 2.95703,2.95245 4.50195,3.74023 1.54494,0.78777 4.00639,1.43289 5.47071,1.4336 l 2.66406,0.002 v -2.34961 -2.35156 l -2.96875,-0.48047 c -5.70711,-0.92614 -8.345,-5.46875 -3.17578,-5.46875 h 2.86718 v -2.45703 -2.45703 h -3.27734 -3.27734 v -2.04883 -2.04688 h 4.50586 4.50586 v -1.63867 -1.63867 h -7.88282 z M 21,224.36133 l 0.263672,16.99805 0.263672,16.99804 2.333984,4.75196 c 1.28336,2.61358 4.116755,6.53472 6.296875,8.71484 l 3.964844,3.96484 10.90625,5.35352 c 5.99827,2.94418 11.458925,5.37429 12.134765,5.40039 1.67868,0.065 6.552735,-7.58297 6.552735,-10.28125 v -2.1836 l 1.480469,1.3379 c 1.57654,1.42675 21.70175,11.20312 23.0625,11.20312 0.44444,0 2.108335,-1.92963 3.697265,-4.28906 l 2.888672,-4.29102 v -26.83984 -26.83789 h -8.236328 -8.238281 l 2.11914,1.84179 2.117188,1.84376 -0.228516,21.48632 -0.230468,21.48633 L 78,269.09766 c -5.64287,-2.61495 -10.122237,-6.72662 -12.148438,-11.15039 l -1.689453,-3.68555 -0.300781,-14.95117 -0.300781,-14.94922 h -5.65625 -5.65625 v 23.3457 c 0,12.84095 -0.174289,23.34766 -0.386719,23.34766 -4.78994,0 -15.297559,-8.35939 -17.292969,-13.75781 l -1.423828,-3.85547 -0.359375,-14.54102 -0.357422,-14.53906 h -5.71289 z m 102.51758,0 -8.80469,0.002 -8.80664,0.004 2.66211,1.62304 2.66211,1.62305 v 24.95899 24.96093 l 5.5293,4.4961 c 3.04129,2.47324 5.8066,4.51747 6.14453,4.54297 0.33793,0.0256 0.61328,-13.96076 0.61328,-31.08204 z m 9.01172,0 v 5.32422 5.32422 h 11.06054 11.0586 v 25.80468 25.80469 h 6.14453 6.14258 v -25.73633 c 0,-16.32361 0.29802,-25.83656 0.81445,-26.00976 0.44782,-0.15018 -2.09874,-2.57659 -5.66016,-5.39258 l -6.47656,-5.11914 h -11.54101 z m 34.93359,0 6.08594,4.16211 c 3.34678,2.29001 6.6254,4.68752 7.28515,5.32617 0.65974,0.63864 2.77802,1.16016 4.70899,1.16016 h 3.51172 v -5.32422 -5.32422 h -10.79492 z m 29.6582,0 2.51953,2.11914 2.52149,2.12109 v 10.50782 10.50976 l 5.5293,3.69336 5.52929,3.69531 0.22852,-11 0.22656,-10.99804 h 14.72266 14.72265 v -5.32422 -5.32422 h -23 z m 55.70508,0 2.52149,2.11914 2.51953,2.12109 v 29.00977 29.00781 h 5.73437 5.73438 v -13.92578 c 0,-7.65953 0.32059,-13.92578 0.71289,-13.92578 1.52,0 25.2347,2.48161 27.7539,2.9043 l 2.66211,0.44531 v 18.39453 c 0,11.98513 0.29221,18.39648 0.83789,18.39648 1.51234,0 8.27799,-6.8249 9.88086,-9.96679 l 1.57032,-3.07618 v -30.75195 -30.75195 h -6.14453 -6.14454 v 13.19922 13.20117 l -3.48046,-0.48047 c -1.91488,-0.26418 -7.3531,-0.86086 -12.08399,-1.32422 -4.73087,-0.46338 -10.16714,-1.04842 -12.08203,-1.30078 l -3.48242,-0.45898 V 235.7793 224.36133 h -8.25391 z m 112.35547,0 -21.50391,0.0312 -21.5039,0.0332 2.24219,1.2168 c 2.91543,1.58188 2.99011,2.04982 3.31054,20.83594 l 0.27344,15.9746 1.8418,4.66993 c 3.35071,8.49692 12.69351,16.41993 21.91992,18.58593 1.74918,0.41065 5.48477,0.78283 8.30078,0.82813 l 5.11914,0.082 v -5.32422 -5.32422 h -3.6543 c -10.75085,0 -18.3012,-6.016 -21.33984,-17 l -0.50977,-1.84179 h 8.65625 8.65625 v -5.73438 -5.73437 h -8.60156 -8.60156 v -6.14454 -6.14453 h 12.69727 12.69726 v -4.50586 z m 56.52539,0 -23.96094,0.002 -23.96289,0.004 2.66407,1.62304 2.66211,1.62305 v 29.50391 29.50195 h 6.14257 6.14453 V 273.51172 260.4043 h 2.44532 2.44336 l 5.13476,5.41015 c 8.46344,8.91955 22.75406,21.52197 29.25977,25.80078 3.35835,2.20877 6.58392,4.01563 7.16797,4.01563 h 1.0625 l -0.0449,-5.93945 -0.0449,-5.93946 -4.08008,-2.94922 c -5.64718,-4.08306 -17.63675,-15.18174 -22.64843,-20.96679 l -4.17188,-4.81641 5.2207,-4.34765 c 3.06832,-2.55616 5.9087,-5.77419 6.89258,-7.80665 l 1.67383,-3.45703 v -7.52343 z m -30.31055,9.00976 h 9.41993 9.42187 l -0.006,1.02539 c -0.009,1.75857 -2.67136,5.10164 -7.88672,9.90821 l -5.02343,4.63086 h -2.96289 -2.9629 v -7.78125 z m -189.42968,25.33008 0.56054,2.98828 c 1.0118,5.39328 1.82974,6.58459 5.5,8.01172 1.95515,0.76024 10.1907,4.82661 18.30078,9.03711 8.82993,4.58421 15.81393,7.70018 17.40821,7.76758 l 2.66211,0.11328 v -5.73437 -5.73438 h -8.06446 -8.06445 l -5.24805,-2.66211 c -3.1944,-1.62085 -5.88731,-3.66826 -6.88476,-5.23437 -0.90113,-1.41486 -2.74402,-2.93871 -4.0957,-3.38672 -1.35168,-0.44799 -4.62139,-1.79382 -7.26563,-2.99024 z m 8.3164,18.125 c -0.14824,0.008 -0.16903,0.0848 -0.0449,0.23438 2.05233,2.47289 7.88515,5.88274 13.10547,7.66211 7.57632,2.58244 8.79819,2.28381 2.98437,-0.72852 -7.71369,-3.99674 -15.00721,-7.22503 -16.04492,-7.16797 z m -105.61132,28.75977 c -2.38374,0 -4.25701,0.55489 -5.619146,1.66406 -1.352407,1.10917 -2.029296,2.62628 -2.029296,4.55273 -10e-7,1.66376 0.491924,2.96245 1.474609,3.89649 0.982684,0.93404 2.572603,1.62076 4.771483,2.05859 l 1.79492,0.34961 c 1.49835,0.30162 2.57469,0.75419 3.22657,1.35742 0.66161,0.60324 0.99218,1.43952 0.99218,2.50977 0,1.22592 -0.45847,2.17042 -1.37304,2.83203 -0.91458,0.66161 -2.21328,0.99219 -3.89649,0.99219 -1.10917,0 -2.23668,-0.17119 -3.38476,-0.51172 -1.148091,-0.34053 -2.320847,-0.84624 -3.517582,-1.51758 v 3.03711 c 1.245383,0.45729 2.447652,0.80165 3.605472,1.03516 1.16754,0.23351 2.26554,0.34961 3.29687,0.34961 2.73401,0 4.80601,-0.54506 6.2168,-1.63477 1.42051,-1.08971 2.13086,-2.68947 2.13086,-4.80078 0,-1.77078 -0.52538,-3.18163 -1.57617,-4.23242 -1.04107,-1.06052 -2.6605,-1.80038 -4.85938,-2.21875 l -1.7793,-0.36328 c -1.6151,-0.30162 -2.71505,-0.69712 -3.29882,-1.1836 -0.57405,-0.4962 -0.861332,-1.22623 -0.861332,-2.18945 0,-1.14809 0.432902,-2.03356 1.298832,-2.65625 0.87566,-0.62269 2.11532,-0.93359 3.7207,-0.93359 0.92431,0 1.88259,0.13183 2.875,0.39453 0.99241,0.26269 2.04907,0.66214 3.16797,1.19726 v -2.875 c -1.10917,-0.36972 -2.19339,-0.64717 -3.25391,-0.83203 -1.06052,-0.18486 -2.10144,-0.27734 -3.12304,-0.27734 z m 22.11132,0 c -2.38374,0 -4.257,0.55489 -5.61914,1.66406 -1.3524,1.10917 -2.02929,2.62628 -2.02929,4.55273 0,1.66376 0.49192,2.96245 1.47461,3.89649 0.98268,0.93404 2.57455,1.62076 4.77343,2.05859 l 1.79492,0.34961 c 1.49836,0.30162 2.57273,0.75419 3.22461,1.35742 0.66161,0.60324 0.99219,1.43952 0.99219,2.50977 0,1.22592 -0.45651,2.17042 -1.37109,2.83203 -0.91458,0.66161 -2.21327,0.99219 -3.89649,0.99219 -1.10917,0 -2.23863,-0.17119 -3.38672,-0.51172 -1.14808,-0.34053 -2.32084,-0.84624 -3.51757,-1.51758 v 3.03711 c 1.24538,0.45729 2.44765,0.80165 3.60546,1.03516 1.16755,0.23351 2.2675,0.34961 3.29883,0.34961 2.73401,0 4.80602,-0.54506 6.2168,-1.63477 1.42051,-1.08971 2.13086,-2.68947 2.13086,-4.80078 0,-1.77078 -0.52538,-3.18163 -1.57617,-4.23242 -1.04106,-1.06052 -2.6605,-1.80038 -4.85938,-2.21875 l -1.78125,-0.36328 c -1.6151,-0.30162 -2.71505,-0.69712 -3.29883,-1.1836 -0.57404,-0.4962 -0.86132,-1.22623 -0.86132,-2.18945 0,-1.14809 0.43289,-2.03356 1.29882,-2.65625 0.87566,-0.62269 2.11728,-0.93359 3.72266,-0.93359 0.92431,0 1.88259,0.13183 2.875,0.39453 0.99241,0.26269 2.04712,0.66214 3.16602,1.19726 v -2.875 c -1.10917,-0.36972 -2.19339,-0.64717 -3.25391,-0.83203 -1.06052,-0.18486 -2.10144,-0.27734 -3.12305,-0.27734 z m 46.26758,0 c -2.38374,0 -4.257,0.55489 -5.61914,1.66406 -1.35241,1.10917 -2.0293,2.62628 -2.0293,4.55273 0,1.66376 0.49193,2.96245 1.47461,3.89649 0.98269,0.93404 2.57261,1.62076 4.77149,2.05859 l 1.79492,0.34961 c 1.49835,0.30162 2.57468,0.75419 3.22656,1.35742 0.66161,0.60324 0.99219,1.43952 0.99219,2.50977 0,1.22592 -0.45652,2.17042 -1.37109,2.83203 -0.91458,0.66161 -2.21523,0.99219 -3.89844,0.99219 -1.10917,0 -2.23668,-0.17119 -3.38477,-0.51172 -1.14808,-0.34053 -2.32084,-0.84624 -3.51758,-1.51758 v 3.03711 c 1.24539,0.45729 2.44766,0.80165 3.60547,1.03516 1.16755,0.23351 2.26555,0.34961 3.29688,0.34961 2.734,0 4.80796,-0.54506 6.21875,-1.63477 1.42051,-1.08971 2.13086,-2.68947 2.13086,-4.80078 0,-1.77078 -0.52538,-3.18163 -1.57617,-4.23242 -1.04107,-1.06052 -2.66245,-1.80038 -4.86133,-2.21875 l -1.7793,-0.36328 c -1.6151,-0.30162 -2.71505,-0.69712 -3.29883,-1.1836 -0.57404,-0.4962 -0.86133,-1.22623 -0.86133,-2.18945 0,-1.14809 0.4329,-2.03356 1.29883,-2.65625 0.87566,-0.62269 2.11728,-0.93359 3.72266,-0.93359 0.92431,0 1.88258,0.13183 2.875,0.39453 0.99241,0.26269 2.04712,0.66214 3.16601,1.19726 v -2.875 c -1.10916,-0.36972 -2.19338,-0.64717 -3.2539,-0.83203 -1.06052,-0.18486 -2.10145,-0.27734 -3.12305,-0.27734 z m 22.11133,0 c -2.38374,0 -4.257,0.55489 -5.61914,1.66406 -1.35241,1.10917 -2.02735,2.62628 -2.02735,4.55273 10e-6,1.66376 0.48998,2.96245 1.47266,3.89649 0.98269,0.93404 2.57456,1.62076 4.77344,2.05859 l 1.79492,0.34961 c 1.49835,0.30162 2.57273,0.75419 3.22461,1.35742 0.66161,0.60324 0.99219,1.43952 0.99219,2.50977 0,1.22592 -0.45652,2.17042 -1.3711,2.83203 -0.91457,0.66161 -2.21327,0.99219 -3.89648,0.99219 -1.10917,0 -2.23863,-0.17119 -3.38672,-0.51172 -1.14809,-0.34053 -2.32084,-0.84624 -3.51758,-1.51758 v 3.03711 c 1.24538,0.45729 2.44765,0.80165 3.60547,1.03516 1.16755,0.23351 2.2675,0.34961 3.29883,0.34961 2.734,0 4.80601,-0.54506 6.2168,-1.63477 1.42051,-1.08971 2.13086,-2.68947 2.13086,-4.80078 0,-1.77078 -0.52538,-3.18163 -1.57618,-4.23242 -1.04106,-1.06052 -2.66049,-1.80038 -4.85937,-2.21875 l -1.78125,-0.36328 c -1.61511,-0.30162 -2.71506,-0.69712 -3.29883,-1.1836 -0.57404,-0.4962 -0.86133,-1.22623 -0.86133,-2.18945 0,-1.14809 0.43485,-2.03356 1.30078,-2.65625 0.87566,-0.62269 2.11533,-0.93359 3.72071,-0.93359 0.9243,0 1.88258,0.13183 2.875,0.39453 0.99241,0.26269 2.04711,0.66214 3.16601,1.19726 v -2.875 c -1.10917,-0.36972 -2.19338,-0.64717 -3.2539,-0.83203 -1.06052,-0.18486 -2.10145,-0.27734 -3.12305,-0.27734 z m 59.56445,0 c -2.38374,0 -4.257,0.55489 -5.61914,1.66406 -1.35241,1.10917 -2.02734,2.62628 -2.02734,4.55273 0,1.66376 0.48997,2.96245 1.47265,3.89649 0.98269,0.93404 2.57456,1.62076 4.77344,2.05859 l 1.79492,0.34961 c 1.49835,0.30162 2.57273,0.75419 3.22461,1.35742 0.66161,0.60324 0.99219,1.43952 0.99219,2.50977 0,1.22592 -0.45652,2.17042 -1.37109,2.83203 -0.91458,0.66161 -2.21328,0.99219 -3.89649,0.99219 -1.10917,0 -2.23863,-0.17119 -3.38672,-0.51172 -1.14808,-0.34053 -2.32084,-0.84624 -3.51757,-1.51758 v 3.03711 c 1.24538,0.45729 2.44765,0.80165 3.60546,1.03516 1.16755,0.23351 2.2675,0.34961 3.29883,0.34961 2.73401,0 4.80601,-0.54506 6.2168,-1.63477 1.42051,-1.08971 2.13086,-2.68947 2.13086,-4.80078 0,-1.77078 -0.52538,-3.18163 -1.57617,-4.23242 -1.04106,-1.06052 -2.6605,-1.80038 -4.85938,-2.21875 l -1.78125,-0.36328 c -1.6151,-0.30162 -2.71505,-0.69712 -3.29883,-1.1836 -0.57404,-0.4962 -0.86132,-1.22623 -0.86132,-2.18945 0,-1.14809 0.43289,-2.03356 1.29882,-2.65625 0.87566,-0.62269 2.11728,-0.93359 3.72266,-0.93359 0.92431,0 1.88259,0.13183 2.875,0.39453 0.99241,0.26269 2.04712,0.66214 3.16602,1.19726 v -2.875 c -1.10917,-0.36972 -2.19339,-0.64717 -3.25391,-0.83203 -1.06052,-0.18486 -2.10144,-0.27734 -3.12305,-0.27734 z m 140.5586,0 c -3.40535,0 -6.0716,0.99763 -7.99805,2.99218 -1.91672,1.98483 -2.875,4.75735 -2.875,8.31836 0,3.55129 0.95828,6.32381 2.875,8.31836 1.92645,1.98483 4.5927,2.97657 7.99805,2.97657 1.55672,0 3.02071,-0.20269 4.39257,-0.61133 1.37187,-0.41837 2.62727,-1.03229 3.76563,-1.83985 v -9.35546 h -7.73438 v 2.42382 h 4.81641 v 5.85157 c -0.65188,0.37945 -1.3878,0.66084 -2.20508,0.8457 -0.81728,0.17513 -1.74605,0.26367 -2.78711,0.26367 -2.66589,0 -4.66904,-0.7438 -6.01172,-2.23242 -1.33294,-1.48862 -2,-3.7023 -2,-6.64063 0,-2.94805 0.66706,-5.16762 2,-6.65625 1.34268,-1.48862 3.34583,-2.23242 6.01172,-2.23242 1.35241,0 2.64127,0.23416 3.86719,0.70117 1.22592,0.46702 2.3849,1.16163 3.47461,2.08594 v -3.13672 c -1.07998,-0.68107 -2.26257,-1.19661 -3.54688,-1.54687 -1.27457,-0.35027 -2.62245,-0.52539 -4.04296,-0.52539 z m 23.38281,0 c -2.38374,0 -4.257,0.55489 -5.61914,1.66406 -1.35241,1.10917 -2.0293,2.62628 -2.0293,4.55273 0,1.66376 0.49193,2.96245 1.47461,3.89649 0.98269,0.93404 2.57261,1.62076 4.77148,2.05859 l 1.79493,0.34961 c 1.49835,0.30162 2.57468,0.75419 3.22656,1.35742 0.66161,0.60324 0.99219,1.43952 0.99219,2.50977 0,1.22592 -0.45652,2.17042 -1.3711,2.83203 -0.91457,0.66161 -2.21522,0.99219 -3.89843,0.99219 -1.10917,0 -2.23668,-0.17119 -3.38477,-0.51172 -1.14809,-0.34053 -2.32084,-0.84624 -3.51758,-1.51758 v 3.03711 c 1.24538,0.45729 2.44765,0.80165 3.60547,1.03516 1.16755,0.23351 2.26554,0.34961 3.29688,0.34961 2.734,0 4.80796,-0.54506 6.21875,-1.63477 1.42051,-1.08971 2.13086,-2.68947 2.13086,-4.80078 0,-1.77078 -0.52539,-3.18163 -1.57618,-4.23242 -1.04106,-1.06052 -2.66245,-1.80038 -4.86132,-2.21875 l -1.7793,-0.36328 c -1.61511,-0.30162 -2.71506,-0.69712 -3.29883,-1.1836 -0.57404,-0.4962 -0.86133,-1.22623 -0.86133,-2.18945 0,-1.14809 0.4329,-2.03356 1.29883,-2.65625 0.87566,-0.62269 2.11728,-0.93359 3.72266,-0.93359 0.9243,0 1.88258,0.13183 2.875,0.39453 0.99241,0.26269 2.04711,0.66214 3.16601,1.19726 v -2.875 c -1.10917,-0.36972 -2.19338,-0.64717 -3.2539,-0.83203 -1.06053,-0.18486 -2.10145,-0.27734 -3.12305,-0.27734 z m -338.634767,0.39453 -8.318359,21.78906 h 3.109375 l 1.984375,-5.58984 h 9.822265 l 1.984375,5.58984 h 3.064454 l -8.302735,-21.78906 z m 68.380857,0 -8.32031,21.78906 h 3.10937 l 1.98438,-5.58984 h 9.82227 l 1.98437,5.58984 h 3.06641 l -8.30469,-21.78906 z m 62.17578,0 v 21.78906 h 2.94922 v -21.78906 z m 11.95508,0 v 21.78906 h 2.85938 v -18.22851 l 9.66211,18.22851 h 3.96875 v -21.78906 h -2.85938 v 18.22656 l -9.66211,-18.22656 z m 102.91602,0 v 21.78906 h 2.94922 v -10.49414 l 10.46289,10.49414 h 3.88281 l -11.58789,-11.63281 10.81445,-10.15625 h -3.79492 l -9.77734,9.20898 v -9.20898 z m 22.7539,0 v 21.78906 h 2.94922 v -21.78906 z m 11.95508,0 v 21.78906 h 2.86133 v -18.22851 l 9.66016,18.22851 h 3.9707 v -21.78906 h -2.86133 v 18.22656 l -9.66016,-18.22656 z m -278.472654,2.9043 4.013672,10.84179 h -8.011719 z m 68.380854,0 4.01172,10.84179 h -8.01172 z m 136.65235,5.9707 c -1.78399,0 -3.21086,0.59798 -4.28125,1.79297 -1.06473,1.18932 -1.5957,2.78615 -1.5957,4.79101 0,2.00487 0.53097,3.60169 1.5957,4.79102 1.07039,1.18932 2.49726,1.78515 4.28125,1.78515 1.77832,0 3.20089,-0.59583 4.26562,-1.78515 1.06473,-1.19499 1.59766,-2.79182 1.59766,-4.79102 0,-2.00486 -0.53293,-3.60169 -1.59766,-4.79101 -1.06473,-1.19499 -2.4873,-1.79297 -4.26562,-1.79297 z m 11.68555,0.23047 v 12.68359 h 1.71679 v -6.05859 h 5.0293 v -1.44336 h -5.0293 v -3.73828 h 5.57227 v -1.44336 z M 286.73047,316.25 c 1.24596,0 2.23211,0.46377 2.95703,1.39258 0.73059,0.9288 1.0957,2.19412 1.0957,3.79687 0,1.5971 -0.36511,2.86026 -1.0957,3.78907 -0.72492,0.9288 -1.71107,1.39257 -2.95703,1.39257 -1.24596,0 -2.23641,-0.46377 -2.97266,-1.39257 -0.73058,-0.92881 -1.0957,-2.19197 -1.0957,-3.78907 0,-1.60275 0.36512,-2.86807 1.0957,-3.79687 0.73625,-0.92881 1.7267,-1.39258 2.97266,-1.39258 z"
         style="font-style:normal;font-variant:normal;font-weight:normal;font-stretch:normal;font-size:29.88917732px;line-height:0%;font-family:'BM HANNA_TTF';-inkscape-font-specification:'BM HANNA_TTF';letter-spacing:0px;word-spacing:0px;fill:#000000;fill-opacity:1;stroke:none;stroke-width:1.54650044px;stroke-linecap:butt;stroke-linejoin:miter;stroke-opacity:1;filter:url(#filter1402)" />
      <text
         xml:space="preserve"
         style="font-style:normal;font-variant:normal;font-weight:normal;font-stretch:normal;font-size:29.88917732px;line-height:0%;font-family:'BM HANNA_TTF';-inkscape-font-specification:'BM HANNA_TTF';letter-spacing:0px;word-spacing:0px;fill:#828282;fill-opacity:1;stroke:none;stroke-width:1px;stroke-linecap:butt;stroke-linejoin:miter;stroke-opacity:1"
         x="71.48188"
         y="870.1311"
         id="text4269-1"><tspan
           sodipodi:role="line"
           id="tspan4271-9"
           x="71.48188"
           y="870.1311"
           style="font-style:normal;font-variant:normal;font-weight:normal;font-stretch:normal;line-height:0%;font-family:'BM HANNA_TTF';-inkscape-font-specification:'BM HANNA_TTF';letter-spacing:3.13939571px;fill:#828282;fill-opacity:1"
           dx="0">ASSASSINS <tspan
   style="font-style:normal;font-variant:normal;font-weight:normal;font-stretch:normal;font-size:17.39813042px;line-height:0%;font-family:'BM HANNA_TTF';-inkscape-font-specification:'BM HANNA_TTF';letter-spacing:3.13939571px;fill:#828282;fill-opacity:1"
   id="tspan4273-1">OF</tspan> KINGS</tspan></text>
      <g
         transform="matrix(1.5465004,0,0,1.5465004,-401.40026,-440.35793)"
         id="g4389">
        <g
           id="g4263"
           transform="translate(230.53768,-19.725149)">
          <path
             style="fill:#c3151b"
             d="m 189.37527,844.01567 c -16.28262,-6.90261 -43.48446,-21.4627 -41.39736,-22.1584 0.27721,-0.0924 3.75919,1.27214 7.7377,3.03233 3.97853,1.76019 7.36672,3.20034 7.52933,3.20034 0.99491,0 21.25857,10.68157 25.63911,13.51513 6.88718,4.45498 7.03596,5.18509 0.49122,2.4106 z m 126.7496,-14.47935 c 0.46887,-5.84113 3.03073,-9.58724 11.46003,-16.75755 5.40118,-4.59447 6.55319,-7.39005 4.06901,-9.87422 -2.86878,-2.86879 -9.82374,-0.10962 -9.82374,3.89727 0,0.86239 -1.1739,0.79027 -2.41489,-0.14837 -1.58345,-1.19766 -2.02126,-1.00131 -3.7036,1.66103 -1.85929,2.94238 -2.30526,2.09174 -1.09178,-2.08246 3.56241,-12.25427 19.3007,-15.63264 24.25592,-5.20676 l 1.2621,2.65551 3.29436,-2.93451 c 4.03624,-3.59538 4.05708,-3.35561 0.30949,3.56029 -3.9463,7.28259 -5.17946,8.7612 -11.51642,13.80857 -5.18946,4.13339 -8.27633,7.10541 -8.27633,7.96839 0,0.22951 3.69474,0.41729 8.21053,0.41729 h 8.21054 v 3.17828 3.17827 h -12.2559 -12.2559 z m -147.38143,-4.57228 c -7.25142,-2.69677 -8.78976,-3.6053 -20.99137,-12.39725 -10.21698,-7.36192 -19.70074,-14.8962 -31.97038,-25.39855 -8.97823,-7.68503 12.04586,4.77772 30.18414,17.89268 2.4764,1.79058 5.57521,3.92945 6.88625,4.75305 1.31104,0.82361 3.81393,2.66028 5.56198,4.0815 1.74804,1.42121 6.26588,4.83883 10.03964,7.59468 l 6.86136,5.01065 -1.29939,-0.0297 c -0.71467,-0.0163 -3.08717,-0.69451 -5.27223,-1.50712 z"
             id="path4267"
             inkscape:connector-curvature="0" />
          <path
             style="fill:#ffffff;fill-opacity:1"
             d="m 223.30376,835.26505 v -11.89451 l -1.72156,-0.28886 c -1.62897,-0.27331 -16.96341,-1.87799 -17.94627,-1.87799 -0.25367,0 -0.46122,4.05229 -0.46122,9.0051 v 9.0051 h -3.70798 -3.70799 V 820.4562 801.69852 l -1.62978,-1.37137 -1.62977,-1.37136 h 5.33776 5.33776 v 7.38351 7.3835 l 2.25127,0.29667 c 1.23821,0.16318 4.75417,0.54182 7.81325,0.84145 3.05909,0.29962 6.57505,0.68453 7.81325,0.85535 l 2.25128,0.31059 v -8.53554 -8.53553 h 3.97284 3.97284 v 19.8853 19.88529 l -1.01478,1.98913 c -1.03645,2.03161 -5.41144,6.44406 -6.38935,6.44406 -0.35285,0 -0.54155,-4.14468 -0.54155,-11.89452 z m 84.19966,7.17886 c -4.20673,-2.76677 -13.44847,-10.91523 -18.92111,-16.6828 l -3.31914,-3.498 h -1.58069 -1.5807 v 8.47539 8.47539 h -3.97284 -3.97284 v -19.07742 -19.07741 l -1.72156,-1.04966 -1.72157,-1.04965 15.49408,-0.002 15.49407,-0.002 v 4.86502 4.86502 l -1.08226,2.23564 c -0.6362,1.31423 -2.47328,3.39449 -4.45732,5.04735 l -3.37507,2.81172 2.69767,3.11396 c 3.24066,3.74074 10.99326,10.91819 14.64485,13.55838 l 2.63757,1.90702 0.0292,3.84041 0.0292,3.84041 h -0.68667 c -0.37766,0 -2.4634,-1.16857 -4.63498,-2.59681 z m -18.32133,-30.59116 c 3.37236,-3.10803 5.09357,-5.27086 5.09957,-6.40799 l 0.003,-0.66214 h -6.09168 -6.09169 v 5.03226 5.03226 h 1.91562 1.91562 l 3.24907,-2.99439 z m -231.049342,23.81917 -7.052017,-3.4614 -2.563106,-2.56311 c -1.409712,-1.40971 -3.242081,-3.94584 -4.071933,-5.63584 l -1.508826,-3.07274 -0.170779,-10.99152 -0.170784,-10.99152 h 3.694883 3.694884 l 0.23133,9.40238 0.231331,9.40239 0.921142,2.49207 c 1.290277,3.49074 8.085157,8.89673 11.182435,8.89673 0.137365,0 0.249754,-6.79355 0.249754,-15.09678 v -15.09679 h 3.657464 3.657459 l 0.194648,9.66724 0.194643,9.66724 1.091805,2.3837 c 1.310184,2.8605 4.206463,5.51872 7.855262,7.2096 l 2.683202,1.24341 0.148267,-13.89374 0.148266,-13.89375 -1.369655,-1.19185 -1.36966,-1.19185 h 5.326661 5.326655 v 17.35513 17.35514 l -1.868066,2.77391 c -1.027434,1.52566 -2.103189,2.77392 -2.390568,2.77392 -0.879894,0 -13.894406,-6.32161 -14.913831,-7.24418 l -0.956586,-0.8657 v 1.41254 c 0,1.74477 -3.152225,6.68957 -4.237695,6.64754 -0.437012,-0.0169 -3.967976,-1.5884 -7.846585,-3.49217 z m 46.383122,0.57405 -3.57555,-2.90772 v -16.1396 -16.13959 l -1.721567,-1.04966 -1.721563,-1.04965 5.6944,-0.002 5.69441,-0.002 v 20.12905 c 0,11.07098 -0.17878,20.1155 -0.39729,20.09895 -0.21851,-0.0165 -2.00628,-1.33857 -3.97284,-2.93782 z m 24.49918,-13.71801 v -16.68592 h -7.15111 -7.15111 v -3.44313 -3.44312 h 7.46338 7.46338 l 4.18706,3.3107 c 2.30289,1.82088 3.95014,3.39015 3.66057,3.48726 -0.33393,0.112 -0.5265,6.26317 -0.5265,16.81836 v 16.64178 h -3.97283 -3.97284 z m 44.41963,15.459 c -3.37557,-1.15058 -7.14667,-3.35553 -8.47375,-4.95455 -0.64201,-0.77357 4.70352,1.53018 10.40391,4.48375 3.75934,1.94784 2.96885,2.14066 -1.93016,0.4708 z m 1.93016,-3.86907 c -5.24415,-2.7226 -10.5692,-5.35238 -11.83344,-5.84397 -2.37327,-0.92281 -2.90227,-1.69343 -3.55652,-5.18084 l -0.36238,-1.93169 3.10876,1.40659 c 1.70982,0.77363 3.82387,1.64361 4.6979,1.93329 0.87402,0.28969 2.06587,1.27523 2.64856,2.19011 0.64497,1.01268 2.38674,2.3369 4.45231,3.38498 l 3.39289,1.72156 h 5.21493 5.21493 v 3.70799 3.70798 l -1.72157,-0.0729 c -1.0309,-0.0436 -5.54676,-2.05884 -11.25637,-5.02309 z m 81.10828,4.5068 c -5.96599,-1.40058 -12.00773,-6.52279 -14.17437,-12.01708 l -1.19101,-3.02022 -0.17618,-10.32938 c -0.2072,-12.1475 -0.25528,-12.45017 -2.14046,-13.47305 l -1.44997,-0.78675 13.90493,-0.0212 13.90494,-0.0212 v 2.91341 2.91342 h -8.21054 -8.21053 v 3.97284 3.97284 h 5.56198 5.56197 v 3.70798 3.70798 h -5.59767 -5.59767 l 0.32971,1.19186 c 1.96485,7.10249 6.84718,10.99152 13.79891,10.99152 h 2.36384 v 3.44312 3.44313 l -3.3107,-0.0532 c -1.82089,-0.0293 -4.23612,-0.27046 -5.36718,-0.53599 z m -93.15923,-20.94759 -3.57555,-2.38896 v -6.79481 -6.79481 l -1.62979,-1.37137 -1.62977,-1.37136 h 14.87257 14.87258 v 3.44312 3.44313 h -9.51987 -9.51986 l -0.14738,7.11201 -0.14737,7.112 z m -17.36698,-12.58589 c -0.42661,-0.41296 -2.54628,-1.96236 -4.71038,-3.44313 l -3.93473,-2.69229 h 6.98057 6.98058 v 3.44312 3.44313 h -2.2702 c -1.24861,0 -2.61924,-0.33787 -3.04584,-0.75083 z m 40.27702,-19.31201 v -4.17148 l -1.65535,-0.33107 c -0.91044,-0.18209 -2.45985,-0.33107 -3.44313,-0.33107 h -1.78778 v 3.17827 3.17828 h -1.58913 -1.58914 v -6.71212 -6.71212 l -0.87666,-0.9687 -0.87667,-0.96871 h 2.4658 2.4658 v 2.91342 2.91341 l 1.45671,0.006 c 0.80119,0.003 2.3506,0.15358 3.44313,0.33416 l 1.98642,0.32833 v -3.24757 -3.24758 h 1.58913 1.58914 v 7.60938 7.60939 l -1.09787,1.39571 c -1.71896,2.18531 -2.0804,1.70305 -2.0804,-2.77576 z m 11.1616,0.59511 c -0.99898,-0.5094 -2.30898,-1.59779 -2.91111,-2.41864 l -1.09477,-1.49247 -0.19049,-4.33436 c -0.10476,-2.3839 -0.43295,-4.63233 -0.7293,-4.99651 l -0.53882,-0.66214 h 5.09712 5.09713 v 1.05943 1.05942 h -2.91342 -2.91342 v 1.32428 1.32428 h 2.11885 2.11885 v 1.58914 1.58913 h -1.85399 c -3.34253,0 -1.63719,2.93622 2.05315,3.53508 l 1.91969,0.31152 v 1.51983 1.51983 l -1.72157,-0.001 c -0.94686,-4.6e-4 -2.53891,-0.41761 -3.5379,-0.927 z m -32.87979,-5.42873 v -5.82683 h -2.3837 -2.3837 v -1.58913 -1.58914 h 6.62139 6.6214 v 1.58914 1.58913 h -2.64856 -2.64856 v 5.82683 5.82683 h -1.58913 -1.58914 z"
             id="path4265"
             inkscape:connector-curvature="0"
             sodipodi:nodetypes="scssscccccccccccssscccccccssscscccccccccccccccsscsscccscccccccccccccscsscccccccssscccccsscccccccccssscscsccccccccscccccccccccscsccccsssscsscscsscccccccccscsscccccccccccccccsscccccccccccccccccccccsscccccssccssccccccccccccccscccccccssccscsscccccccccccccssccccccccccccccccccccccc" />
        </g>
        <text
           xml:space="preserve"
           style="font-style:normal;font-variant:normal;font-weight:normal;font-stretch:normal;font-size:19.32697678px;line-height:0%;font-family:'BM HANNA_TTF';-inkscape-font-specification:'BM HANNA_TTF';letter-spacing:0px;word-spacing:0px;fill:#ffffff;fill-opacity:1;stroke:none;stroke-width:1px;stroke-linecap:butt;stroke-linejoin:miter;stroke-opacity:1"
           x="305.77563"
           y="846.0968"
           id="text4269"><tspan
             sodipodi:role="line"
             id="tspan4271"
             x="305.77563"
             y="846.0968"
             style="font-style:normal;font-variant:normal;font-weight:normal;font-stretch:normal;line-height:0%;font-family:'BM HANNA_TTF';-inkscape-font-specification:'BM HANNA_TTF';letter-spacing:2.02999997px;fill:#ffffff;fill-opacity:1"
             dx="0">ASSASSINS <tspan
   style="font-style:normal;font-variant:normal;font-weight:normal;font-stretch:normal;font-size:11.25px;line-height:0%;font-family:'BM HANNA_TTF';-inkscape-font-specification:'BM HANNA_TTF';letter-spacing:2.02999997px;fill:#ffffff;fill-opacity:1"
   id="tspan4273">OF</tspan> KINGS</tspan></text>
      </g>
      <path
         sodipodi:nodetypes="ccccccccccccccccccccccsccccccsccsssscssscsccsssccccccccsccsccccsccscccccccccccccccccsccccccccccccccccccccccccccccccccccccccccccccscscccscccccccccsscccsccsccccscscccsscccccccsccccccssccccsccccccccccccccccccccccccccc"
         inkscape:connector-curvature="0"
         id="path4267-9"
         d="m 260.92022,205.20717 c 1.77608,0.7364 3.4966,1.07527 4.98662,1.12734 0.90587,0.0787 1.61992,0.0386 2.61009,0.003 l -10e-4,-2.70126 -2.96874,-0.48047 c -9.34781,-2.02784 -11.92816,-11.50704 -11.35882,-4.30168 2.5504,3.84621 4.05514,4.9081 6.73216,6.35259 z m -17.79717,-7.22279 v 6 c 0,6.92646 0.55842,7.67059 3.21679,4.29101 l 1.69727,-2.15625 v -6 l -1.69727,2.15625 c -2.65837,3.37958 -3.21679,2.63545 -3.21679,-4.29101 z m -33.58789,1.5332 v 6 h 2.45507 2.45899 v -6 h -2.45899 z m 18.02343,0.82226 v 6 h 2.45508 2.45899 v -4.91796 -1.08204 h -2.45899 z m 234.98047,26.31055 c -3.47746,-0.14804 -6.26741,1.45703 -9.70312,3.84375 -1.02373,0.71117 -1.81323,1.22114 -3.73242,-0.23047 -2.4488,-1.85219 -3.12873,-1.54701 -5.73047,2.57031 -0.55989,0.88603 -1.01101,1.48306 -1.40235,1.92969 -0.0936,0.28513 -0.20037,0.55991 -0.28515,0.85156 -1.87662,6.45541 -1.18789,7.76914 1.6875,3.21875 2.60174,-4.11732 3.28167,-4.4225 5.73047,-2.57031 1.91919,1.45161 3.73242,1.56416 3.73242,0.23047 0,-6.19665 10.7568,-10.46392 15.19336,-6.02734 0.41008,0.41008 0.79014,1.70369 1.02343,1.25195 0.79492,-1.53931 1.11218,-1.11634 -1.02343,-3.25195 -1.38643,-1.38643 -3.56435,-1.73442 -5.49024,-1.81641 z m 28.36328,-3.04492 c -0.36459,-0.19444 -1.80515,0.99849 -4.25976,3.17578 -6.03501,11.12534 -7.97662,13.44201 -17.73047,21.21094 -8.02551,6.39229 -17.66603,16.5813 -17.66603,17.9159 0,0.1995 1.91128,0.37216 4.73242,0.49024 2.08913,-1.91201 9.65525,-9.79494 12.93361,-12.40614 9.80011,-7.80577 11.70759,-10.09294 17.81055,-21.35547 3.26005,-6.01619 4.67602,-8.76655 4.17968,-9.03125 z M 21,224.35938 l 0.263672,17 0.265625,17 2.332031,4.75195 c 1.28335,2.6136 4.116775,6.53277 6.296875,8.71289 l 3.962891,3.9668 10.908203,5.35156 c 5.99828,2.94419 11.456982,5.37425 12.132812,5.40039 1.67867,0.0649 6.554688,-7.58295 6.554688,-10.28125 v -2.1836 l 1.480469,1.3379 c 1.57656,1.42676 21.703683,11.20312 23.064453,11.20312 0.44442,0 2.108345,-1.92962 3.697265,-4.28906 l 2.886719,-4.28906 v -6 l -2.886719,4.28906 c -1.58892,2.35944 -3.252845,4.28906 -3.697265,4.28906 -1.36077,0 -21.487893,-9.77636 -23.064453,-11.20312 l -1.480469,-1.3379 v 2.1836 c 0,2.6983 -4.876018,10.34615 -6.554688,10.28125 -0.67583,-0.0261 -6.134532,-2.4562 -12.132812,-5.40039 l -10.908203,-5.35156 -3.962891,-3.9668 c -2.1801,-2.18012 -5.013525,-6.09929 -6.296875,-8.71289 l -2.332031,-4.75195 -0.265625,-17 -0.169922,-11 z m 306.99805,38.09605 1.84375,4.66992 c 3.35071,8.49691 12.69351,16.41798 21.91992,18.58398 1.74919,0.41063 5.48478,0.78282 8.30078,0.82813 l 5.11914,0.082 v -5.32226 -0.67774 l -5.11914,-0.082 c -2.816,-0.0453 -6.55159,-0.4175 -8.30078,-0.82813 -9.22641,-2.166 -18.56921,-10.08707 -21.91992,-18.58398 l -1.84375,-4.66992 z m 11.78906,-35.08222 v 6 h 12.69531 12.69922 v -4.50586 -1.49414 h -12.69922 z m 51.60937,2 v 4 h 9.41993 l 9.42129,-0.002 c 1.96181,-2.22894 1.98923,-1.90095 1.99472,-2.97493 l 0.006,-1.02343 H 400.81655 Z M 132.5293,229.00993 v 0.67578 5.32422 h 11.05859 11.06055 v -6 h -11.06055 z m 81.14648,0 v 6 h 14.72266 14.72461 v -5.32422 -0.67578 h -14.72461 z m 208.03125,4.39843 -1.67383,3.45899 c -0.98389,2.03246 -3.82424,5.24853 -6.89258,7.80469 l -8.30079,6.86661 3.01953,3.48438 2.19921,-1.83398 c 3.66557,-2.53227 9.21109,-8.28043 9.97463,-10.3217 l 1.67383,-3.45899 z m -298.1875,16.08203 c 0,17.12127 -0.27926,31.10949 -0.61719,31.08399 -0.33792,-0.0255 -3.10127,-2.06972 -6.14257,-4.54297 l -5.53125,-4.49805 v 6 l 5.53125,4.49805 c 3.0413,2.47325 5.80465,4.51746 6.14257,4.54297 0.33793,0.0255 0.61719,-13.96272 0.61719,-31.08399 z m 216.15625,3.63868 c -0.1898,1.48212 -0.34999,2.54921 0.001,3.99932 l 8.65514,6.8e-4 h 8.6582 v -3.73438 -0.26562 h -8.6582 z m -69.6289,-0.36133 c -0.39231,0 -0.7129,6.2682 -0.7129,13.92773 v 6 c 0,-7.65953 0.32059,-13.92773 0.7129,-13.92773 1.51999,0 25.23666,2.48162 27.75585,2.9043 l 2.66211,0.44726 v -6 l -2.66211,-0.44726 c -2.51919,-0.42268 -26.23586,-2.9043 -27.75585,-2.9043 z m 121.3496,1.63867 v 6 h 2.44336 2.44727 l 5.13086,5.41016 c 8.46345,8.91954 22.75796,21.52 29.26367,25.79882 3.35836,2.20877 6.58391,4.01758 7.16797,4.01758 h 1.05859 l -0.0449,-5.9414 v -0.0586 h -1.01367 c -0.58406,0 -3.80961,-1.80881 -7.16797,-4.01758 -6.50571,-4.27882 -20.80022,-16.87928 -29.26367,-25.79882 l -5.13086,-5.41016 h -2.44727 z m 52.70899,16.38477 c -0.0307,0.288 -0.0682,0.57063 -0.0918,0.86523 l -0.41406,5.13477 h 18.95312 18.95508 v -4.91602 -1.08398 h -18.95508 z m -143.64063,3.72265 v 6 c 0,11.98513 0.2922,18.39649 0.83789,18.39649 1.51232,0 8.27799,-6.82687 9.88086,-9.96875 l 1.57032,-3.07422 v -6 l -1.57032,3.07422 c -1.60287,3.14188 -8.36854,9.96875 -9.88086,9.96875 -0.54569,0 -0.83789,-6.41136 -0.83789,-18.39649 z m -145.8164,6.10547 v 6 h 6.14453 6.14258 v -6 h -6.14258 z m 103.21679,0 v 6 h 5.73633 5.73242 v -6 h -5.73242 z m 121.24415,0 v 6 h 6.14257 6.14453 v -6 h -6.14453 z"
         style="opacity:0.3;fill:#000000;fill-opacity:1"
         transform="translate(0,540.36219)" />
    </g>
  </g>
</svg>
