<svg xmlns="http://www.w3.org/2000/svg" xmlns:xlink="http://www.w3.org/1999/xlink" width="384pt" height="384pt" version="1.1" viewBox="0 0 384 384">
 <defs>
  <filter id="alpha" width="100%" height="100%" x="0%" y="0%" filterUnits="objectBoundingBox">
   <feColorMatrix in="SourceGraphic" type="matrix" values="0 0 0 0 1 0 0 0 0 1 0 0 0 0 1 0 0 0 1 0"/>
  </filter>
  <mask id="mask0">
   <g filter="url(#alpha)">
    <rect width="384" height="384" x="0" y="0" style="fill:rgb(0%,0%,0%);fill-opacity:0.2"/>
   </g>
  </mask>
  <clipPath id="clip1">
   <rect width="384" height="384" x="0" y="0"/>
  </clipPath>
  <g id="surface5" clip-path="url(#clip1)">
   <path style="fill:rgb(0%,0%,0%)" d="M 150 30 C 84.292969 30 30 84.292969 30 150 C 30 204.242188 67.6875 248.804688 117.5625 263.367188 C 126.421875 320.660156 174.433594 366 234 366 C 299.699219 366 353.988281 311.71875 354 246.023438 L 354 246 C 354 241.28125 353.148438 236.617188 352.59375 231.9375 C 352.992188 228.671875 353.988281 225.484375 354 222.1875 C 354 222.117188 354 222.046875 354 221.976562 C 353.976562 184.664062 328.144531 153.320312 293.34375 142.851562 C 285.582031 138.386719 277.753906 133.988281 269.25 131.367188 C 269.367188 129.621094 269.992188 127.941406 270 126.1875 C 270 126.117188 270 126.046875 270 125.976562 C 269.976562 88.664062 244.144531 57.320312 209.34375 46.851562 C 191.226562 36.433594 171.039062 30.023438 150.046875 30 C 150.03125 30 150.015625 30 150 30 Z M 150 30"/>
  </g>
  <mask id="mask1">
   <g filter="url(#alpha)">
    <rect width="384" height="384" x="0" y="0" style="fill:rgb(0%,0%,0%);fill-opacity:0.2"/>
   </g>
  </mask>
  <clipPath id="clip2">
   <rect width="384" height="384" x="0" y="0"/>
  </clipPath>
  <g id="surface8" clip-path="url(#clip2)">
   <path style="fill:rgb(0%,0%,0%)" d="M 150 78 C 110.234375 78 78 110.234375 78 150 C 78 189.765625 110.234375 222 150 222 C 189.765625 222 222 189.765625 222 150 C 222 110.234375 189.765625 78 150 78 Z M 156 90 C 185.824219 90 210 114.175781 210 144 C 210 173.824219 185.824219 198 156 198 C 126.175781 198 102 173.824219 102 144 C 102 114.175781 126.175781 90 156 90 Z M 156 90"/>
  </g>
  <mask id="mask2">
   <g filter="url(#alpha)">
    <rect width="384" height="384" x="0" y="0" style="fill:rgb(0%,0%,0%);fill-opacity:0.2"/>
   </g>
  </mask>
  <clipPath id="clip3">
   <rect width="384" height="384" x="0" y="0"/>
  </clipPath>
  <g id="surface11" clip-path="url(#clip3)">
   <path style="fill:rgb(0%,0%,0%)" d="M 234 174 C 194.234375 174 162 206.234375 162 246 C 162 285.765625 194.234375 318 234 318 C 273.765625 318 306 285.765625 306 246 C 306 206.234375 273.765625 174 234 174 Z M 240 186 C 269.824219 186 294 210.175781 294 240 C 294 269.824219 269.824219 294 240 294 C 210.175781 294 186 269.824219 186 240 C 186 210.175781 210.175781 186 240 186 Z M 240 186"/>
  </g>
  <mask id="mask3">
   <g filter="url(#alpha)">
    <rect width="384" height="384" x="0" y="0" style="fill:rgb(0%,0%,0%);fill-opacity:0.2"/>
   </g>
  </mask>
  <clipPath id="clip4">
   <rect width="384" height="384" x="0" y="0"/>
  </clipPath>
  <g id="surface14" clip-path="url(#clip4)">
   <path style="fill:rgb(0%,0%,0%)" d="M 306 222 C 306 241.882812 289.882812 258 270 258 C 250.117188 258 234 241.882812 234 222 C 234 202.117188 250.117188 186 270 186 C 289.882812 186 306 202.117188 306 222 Z M 306 222"/>
  </g>
  <mask id="mask4">
   <g filter="url(#alpha)">
    <rect width="384" height="384" x="0" y="0" style="fill:rgb(0%,0%,0%);fill-opacity:0.2"/>
   </g>
  </mask>
  <clipPath id="clip5">
   <rect width="384" height="384" x="0" y="0"/>
  </clipPath>
  <g id="surface17" clip-path="url(#clip5)">
   <path style="fill:rgb(0%,0%,0%)" d="M 222 126 C 222 145.882812 205.882812 162 186 162 C 166.117188 162 150 145.882812 150 126 C 150 106.117188 166.117188 90 186 90 C 205.882812 90 222 106.117188 222 126 Z M 222 126"/>
  </g>
  <mask id="mask5">
   <g filter="url(#alpha)">
    <rect width="384" height="384" x="0" y="0" style="fill:rgb(0%,0%,0%);fill-opacity:0.101961"/>
   </g>
  </mask>
  <clipPath id="clip6">
   <rect width="384" height="384" x="0" y="0"/>
  </clipPath>
  <g id="surface20" clip-path="url(#clip6)">
   <path style="fill:rgb(100%,100%,100%)" d="M 150 24 C 84.292969 24 30 78.292969 30 144 C 30 144.738281 30.078125 145.457031 30.09375 146.191406 C 32.144531 82.210938 85.570312 30 150 30 C 150.015625 30 150.03125 30 150.046875 30 C 171.039062 30.023438 191.226562 36.433594 209.34375 46.851562 C 242.785156 56.910156 267.875 86.257812 269.8125 121.640625 C 269.886719 121.15625 269.996094 120.679688 270 120.1875 C 270 120.117188 270 120.046875 270 119.976562 C 269.976562 82.664062 244.144531 51.320312 209.34375 40.851562 C 191.226562 30.433594 171.039062 24.023438 150.046875 24 C 150.03125 24 150.015625 24 150 24 Z M 269.988281 125.636719 C 269.988281 125.75 270 125.863281 270 125.976562 C 270 126.046875 270 126.117188 270 126.1875 C 269.992188 127.941406 269.367188 129.621094 269.25 131.367188 C 277.753906 133.988281 285.582031 138.386719 293.34375 142.851562 C 326.832031 152.921875 351.9375 182.34375 353.8125 217.792969 C 353.859375 217.257812 353.996094 216.730469 354 216.1875 C 354 216.117188 354 216.046875 354 215.976562 C 353.976562 178.664062 328.144531 147.320312 293.34375 136.851562 C 285.8125 132.519531 278.203125 128.28125 269.988281 125.636719 Z M 353.039062 229.359375 C 352.878906 230.21875 352.699219 231.070312 352.59375 231.9375 C 353.082031 236.070312 353.71875 240.191406 353.882812 244.347656 C 353.933594 242.910156 354 241.472656 354 240.023438 L 354 240 C 354 236.429688 353.515625 232.894531 353.039062 229.359375 Z M 353.039062 229.359375"/>
  </g>
 </defs>
 <g>
  <use mask="url(#mask0)" xlink:href="#surface5"/>
  <path style="fill:rgb(63.921569%,16.862745%,34.509804%)" d="M 150 24 C 84.292969 24 30 78.292969 30 144 C 30 198.242188 67.6875 242.804688 117.5625 257.367188 C 126.421875 314.660156 174.433594 360 234 360 C 299.699219 360 353.988281 305.71875 354 240.023438 L 354 240 C 354 235.28125 353.148438 230.617188 352.59375 225.9375 C 352.992188 222.671875 353.988281 219.484375 354 216.1875 C 354 216.117188 354 216.046875 354 215.976562 C 353.976562 178.664062 328.144531 147.320312 293.34375 136.851562 C 285.582031 132.386719 277.753906 127.988281 269.25 125.367188 C 269.367188 123.621094 269.992188 121.941406 270 120.1875 C 270 120.117188 270 120.046875 270 119.976562 C 269.976562 82.664062 244.144531 51.320312 209.34375 40.851562 C 191.226562 30.433594 171.039062 24.023438 150.046875 24 C 150.03125 24 150.015625 24 150 24 Z M 150 24"/>
  <use mask="url(#mask1)" xlink:href="#surface8"/>
  <use mask="url(#mask2)" xlink:href="#surface11"/>
  <path style="fill:rgb(95.294118%,67.058824%,43.529412%)" d="M 234 168 C 194.234375 168 162 200.234375 162 240 C 162 279.765625 194.234375 312 234 312 C 273.765625 312 306 279.765625 306 240 C 306 200.234375 273.765625 168 234 168 Z M 240 180 C 269.824219 180 294 204.175781 294 234 C 294 263.824219 269.824219 288 240 288 C 210.175781 288 186 263.824219 186 234 C 186 204.175781 210.175781 180 240 180 Z M 240 180"/>
  <use mask="url(#mask3)" xlink:href="#surface14"/>
  <path style="fill:rgb(96.862745%,76.470588%,60.392157%)" d="M 306 216 C 306 235.882812 289.882812 252 270 252 C 250.117188 252 234 235.882812 234 216 C 234 196.117188 250.117188 180 270 180 C 289.882812 180 306 196.117188 306 216 Z M 306 216"/>
  <path style="fill:rgb(95.294118%,67.058824%,43.529412%)" d="M 150 72 C 110.234375 72 78 104.234375 78 144 C 78 183.765625 110.234375 216 150 216 C 189.765625 216 222 183.765625 222 144 C 222 104.234375 189.765625 72 150 72 Z M 156 84 C 185.824219 84 210 108.175781 210 138 C 210 167.824219 185.824219 192 156 192 C 126.175781 192 102 167.824219 102 138 C 102 108.175781 126.175781 84 156 84 Z M 156 84"/>
  <use mask="url(#mask4)" xlink:href="#surface17"/>
  <path style="fill:rgb(96.862745%,76.470588%,60.392157%)" d="M 222 120 C 222 139.882812 205.882812 156 186 156 C 166.117188 156 150 139.882812 150 120 C 150 100.117188 166.117188 84 186 84 C 205.882812 84 222 100.117188 222 120 Z M 222 120"/>
  <use mask="url(#mask5)" xlink:href="#surface20"/>
 </g>
</svg>
