<?xml version="1.0" encoding="UTF-8" standalone="no"?>
<!-- Created with Inkscape (http://www.inkscape.org/) -->

<svg
   xmlns:dc="http://purl.org/dc/elements/1.1/"
   xmlns:cc="http://creativecommons.org/ns#"
   xmlns:rdf="http://www.w3.org/1999/02/22-rdf-syntax-ns#"
   xmlns:svg="http://www.w3.org/2000/svg"
   xmlns="http://www.w3.org/2000/svg"
   xmlns:sodipodi="http://sodipodi.sourceforge.net/DTD/sodipodi-0.dtd"
   xmlns:inkscape="http://www.inkscape.org/namespaces/inkscape"
   id="svg2"
   version="1.1"
   inkscape:version="0.91 r13725"
   width="512"
   height="512"
   sodipodi:docname="uTorrent.svg">
  <metadata
     id="metadata8">
    <rdf:RDF>
      <cc:Work
         rdf:about="">
        <dc:format>image/svg+xml</dc:format>
        <dc:type
           rdf:resource="http://purl.org/dc/dcmitype/StillImage" />
        <dc:title />
      </cc:Work>
    </rdf:RDF>
  </metadata>
  <defs
     id="defs6" />
  <sodipodi:namedview
     pagecolor="#ffffff"
     bordercolor="#666666"
     borderopacity="1"
     objecttolerance="10"
     gridtolerance="10"
     guidetolerance="10"
     inkscape:pageopacity="0"
     inkscape:pageshadow="2"
     inkscape:window-width="3840"
     inkscape:window-height="2092"
     id="namedview4"
     showgrid="false"
     inkscape:zoom="1.7753906"
     inkscape:cx="-134.62325"
     inkscape:cy="357.1106"
     inkscape:window-x="0"
     inkscape:window-y="68"
     inkscape:window-maximized="1"
     inkscape:current-layer="svg2" />
  <circle
     style="fill:#0fa15f;fill-opacity:1;fill-rule:evenodd;stroke:#ffffff;stroke-width:22.71543884;stroke-linecap:round;stroke-linejoin:miter;stroke-miterlimit:4;stroke-dasharray:none;stroke-opacity:1"
     id="path3766"
     cx="256"
     cy="256"
     r="213.64229" />
  <path
     style="color:#000000;clip-rule:nonzero;display:inline;overflow:visible;visibility:visible;opacity:0.3;isolation:auto;mix-blend-mode:normal;color-interpolation:sRGB;color-interpolation-filters:linearRGB;solid-color:#000000;solid-opacity:1;fill:#000000;fill-opacity:1;fill-rule:nonzero;stroke:none;stroke-width:1;stroke-linecap:round;stroke-linejoin:round;stroke-miterlimit:4;stroke-dasharray:none;stroke-dashoffset:0;stroke-opacity:1;color-rendering:auto;image-rendering:auto;shape-rendering:auto;text-rendering:auto;enable-background:accumulate"
     d="M 313.67773 137.00977 A 118.09072 121.47612 0 0 1 321.86133 172.54297 L 327.47461 183.69922 L 329.5957 187.91602 L 331.82031 192.33984 C 356.7106 241.82319 357.16873 242.43594 371.31836 244.99219 C 377.63505 246.1333 378.14922 246.6578 377.29883 251.11328 C 377.02405 252.553 376.62609 255.11621 376.21289 257.97852 C 375.85669 260.44598 375.48834 263.13053 375.1875 265.57031 C 374.24922 273.17942 373.03432 275.78872 369.28516 278.24414 C 362.62806 282.60403 342.97378 281.93046 331.73047 276.95703 C 327.04524 274.88455 322.46217 273.1875 321.54492 273.1875 C 320.6276 273.1875 314.40287 278.7379 307.71289 285.52148 C 306.83613 286.4105 305.97769 287.25541 305.12695 288.08008 C 304.80573 288.39119 304.48988 288.68814 304.17188 288.99023 C 303.65692 289.48002 303.14603 289.95902 302.63867 290.42578 C 302.2284 290.80263 301.81809 291.17506 301.41211 291.53711 C 301.04265 291.86719 300.6769 292.18385 300.31055 292.50195 C 299.83952 292.91015 299.36712 293.32411 298.90039 293.71289 C 298.89587 293.71666 298.89124 293.72084 298.88672 293.72461 C 298.82344 293.77741 298.76048 293.82451 298.69727 293.87695 C 297.43774 294.91983 296.19285 295.89046 294.95117 296.79883 C 294.83454 296.88431 294.71813 296.97426 294.60156 297.05859 C 293.98903 297.50098 293.37757 297.92433 292.76562 298.33594 C 292.64229 298.419 292.5179 298.50021 292.39453 298.58203 C 291.76341 299.00019 291.13139 299.40796 290.49805 299.79492 C 290.49409 299.79734 290.49029 299.80032 290.48633 299.80273 C 281.80511 305.10402 272.79617 307.50983 260.32031 308.50195 C 251.86539 309.17429 244.40098 310.06142 243.73242 310.47461 C 243.06385 310.88784 246.92709 322.21344 252.31641 335.64258 C 257.70569 349.07172 262.11328 361.1951 262.11328 362.58203 C 262.11328 363.96895 260.28158 365.59487 258.04102 366.19531 C 252.59192 367.65561 234.65933 367.24827 221.87695 365.375 C 212.43084 363.99068 205.20361 361.28154 201.25391 357.75391 L 196.0957 364.86719 L 324.59766 458.05273 A 213.64229 213.64229 0 0 0 469.64258 256 A 213.64229 213.64229 0 0 0 469.42773 249.95508 L 313.67773 137.00977 z M 292.79297 252.73633 C 285.55344 260.82235 276.36865 266.92538 266.10938 270.4668 C 274.73827 269.58667 282.37418 265.37898 289.00391 257.82812 C 290.55007 256.06714 291.82114 254.43518 292.79297 252.73633 z M 108.37109 262.24414 L 110.49219 266.46094 L 108.37109 262.24414 z "
     id="rect4143" />
  <path
     style="fill:#ffffff;fill-opacity:1;fill-rule:evenodd;stroke:#ffffff;stroke-width:17.41516876;stroke-linecap:round;stroke-linejoin:miter;stroke-miterlimit:4;stroke-dasharray:none;stroke-opacity:1"
     d="m 221.87743,365.37561 c -11.98115,-1.75583 -20.41553,-5.6382 -23.08495,-10.62605 -8.36523,-15.63053 -65.55974,-171.8041 -64.33364,-175.66731 1.32801,-4.18403 18.66853,-9.43974 39.15483,-11.86738 8.91979,-1.05698 10.613,-0.73355 13.74188,2.62492 1.96271,2.10675 9.5219,17.87096 16.79814,35.0316 21.21285,50.02943 27.23207,58.29936 46.5476,63.9532 15.18838,4.44571 27.96436,0.77785 38.30208,-10.99613 9.9079,-11.2845 8.82176,-17.11128 -13.16751,-70.64009 -6.54497,-15.93265 -11.90251,-30.29539 -11.90556,-31.91724 -0.0121,-5.17314 20.74601,-11.21544 35.35685,-10.29289 l 8.99549,0.56796 23.53687,46.7927 c 24.89029,49.48335 25.35019,50.09644 39.49982,52.65269 6.31669,1.14111 6.83044,1.66712 5.98005,6.1226 -0.51166,2.68084 -1.46196,9.18601 -2.11178,14.45599 -0.93828,7.60911 -2.15346,10.21828 -5.90262,12.6737 -6.6571,4.35989 -26.31123,3.68619 -37.55454,-1.28724 -4.68523,-2.07248 -9.26911,-3.76819 -10.18636,-3.76819 -0.91732,0 -7.14145,5.55018 -13.83143,12.33376 -15.72171,15.94158 -26.87041,21.34725 -47.39207,22.97921 -8.45492,0.67234 -15.91962,1.56055 -16.58818,1.97374 -0.66857,0.41323 3.19378,11.73881 8.5831,25.16795 5.38928,13.42914 9.79869,25.55135 9.79869,26.93828 0,1.38692 -1.83314,3.0129 -4.0737,3.61334 -5.4491,1.4603 -23.38068,1.05415 -36.16306,-0.81912 l 0,0 z"
     id="path2996"
     inkscape:connector-curvature="0" />
</svg>
