<svg xmlns="http://www.w3.org/2000/svg" width="48" height="48" version="1.1">
 <g transform="translate(0,-1004.3622)">
  <circle style="fill:#2c3e50" cx="24" cy="1028.362" r="20" d="m 44,1028.3622 c 0,11.0457 -8.954305,20 -20,20 -11.045695,0 -20,-8.9543 -20,-20 0,-11.0457 8.954305,-20 20,-20 11.045695,0 20,8.9543 20,20 z" transform="matrix(1.0913745,0,0,1.0913745,-2.2800104,-93.966042)"/>
  <g style="fill:#e74c3c" transform="matrix(0.50033594,0,0,-0.50033594,-3576.6296,4750.3728)">
   <path style="fill:#e74c3c" d="m 7204.375,7459.5542 -16.25,0 3.625,12.188 9,0 3.625,-12.188 z"/>
   <path style="fill:#e74c3c" d="m 7188.125,7418.4917 16.25,0 -3.625,-12.188 -9,0 -3.625,12.188 z"/>
   <path style="fill:#e74c3c" d="m 7216.7813,7431.1807 0,16.25 12.188,-3.625 0,-9 -12.188,-3.625 z"/>
   <path style="fill:#e74c3c" d="m 7175.7188,7447.4307 0,-16.25 -12.188,3.625 0,9 12.188,3.625 z"/>
   <path style="fill:#e74c3c" d="m 7187.6025,7459.4111 -11.491,-11.491 -6.054,11.181 6.364,6.365 11.181,-6.055 z"/>
   <path style="fill:#e74c3c" d="m 7205.1475,7418.8848 11.49,11.491 6.055,-11.181 -6.363,-6.365 -11.182,6.055 z"/>
   <path style="fill:#e74c3c" d="m 7216.3877,7447.9204 -11.49,11.491 11.181,6.054 6.364,-6.364 -6.055,-11.181 z"/>
   <path style="fill:#e74c3c" d="m 7175.8618,7430.3755 11.491,-11.491 -11.181,-6.054 -6.364,6.364 6.054,11.181 z"/>
   <path style="fill:#e74c3c" d="m 7196.5156,7427.0972 c -6.75,0 -12.225,5.474 -12.225,12.224 0,6.751 5.475,12.225 12.225,12.225 6.751,0 12.223,-5.474 12.223,-12.225 0,-6.75 -5.472,-12.224 -12.223,-12.224 m -0.266,37.47 c -14.088,0 -25.512,-11.423 -25.512,-25.512 0,-14.088 11.424,-25.512 25.512,-25.512 14.087,0 25.512,11.424 25.512,25.512 0,14.089 -11.425,25.512 -25.512,25.512"/>
  </g>
 </g>
</svg>
