<svg xmlns="http://www.w3.org/2000/svg" xmlns:xlink="http://www.w3.org/1999/xlink" width="384pt" height="384pt" version="1.1" viewBox="0 0 384 384">
 <defs>
  <filter id="alpha" width="100%" height="100%" x="0%" y="0%" filterUnits="objectBoundingBox">
   <feColorMatrix in="SourceGraphic" type="matrix" values="0 0 0 0 1 0 0 0 0 1 0 0 0 0 1 0 0 0 1 0"/>
  </filter>
  <mask id="mask0">
   <g filter="url(#alpha)">
    <rect width="384" height="384" x="0" y="0" style="fill:rgb(0%,0%,0%);fill-opacity:0.101961"/>
   </g>
  </mask>
  <clipPath id="clip1">
   <rect width="384" height="384" x="0" y="0"/>
  </clipPath>
  <g id="surface5" clip-path="url(#clip1)">
   <path style="fill:rgb(100%,100%,100%)" d="M 42 24 C 32.027344 24 24 32.027344 24 42 L 24 48 C 24 38.027344 32.027344 30 42 30 L 342 30 C 351.972656 30 360 38.027344 360 48 L 360 42 C 360 32.027344 351.972656 24 342 24 Z M 42 24"/>
  </g>
  <mask id="mask1">
   <g filter="url(#alpha)">
    <rect width="384" height="384" x="0" y="0" style="fill:rgb(0%,0%,0%);fill-opacity:0.2"/>
   </g>
  </mask>
  <clipPath id="clip2">
   <rect width="384" height="384" x="0" y="0"/>
  </clipPath>
  <g id="surface8" clip-path="url(#clip2)">
   <path style="fill:rgb(0%,0%,0%)" d="M 24 342 L 24 348 C 24 357.972656 32.027344 366 42 366 L 342 366 C 351.972656 366 360 357.972656 360 348 L 360 342 C 360 351.972656 351.972656 360 342 360 L 42 360 C 32.027344 360 24 351.972656 24 342 Z M 24 342"/>
  </g>
 </defs>
 <g>
  <path style="fill:rgb(82.352941%,82.352941%,82.352941%)" d="M 360 342 L 360 42 C 360 32.058594 351.941406 24 342 24 L 42 24 C 32.058594 24 24 32.058594 24 42 L 24 342 C 24 351.941406 32.058594 360 42 360 L 342 360 C 351.941406 360 360 351.941406 360 342 Z M 360 342"/>
  <use mask="url(#mask0)" xlink:href="#surface5"/>
  <use mask="url(#mask1)" xlink:href="#surface8"/>
  <path style="fill:rgb(83.921569%,67.45098%,7.058824%)" d="M 138 219 L 138 165 L 184.285156 138 L 230.570312 165 L 230.570312 219 L 184.285156 246 L 138.003906 219 Z M 138 219"/>
  <path style="fill:rgb(56.078431%,71.372549%,20.784314%)" d="M 192 84 L 192 128.304688 L 238.285156 153.429688 L 276.855469 130.285156 Z M 192 84"/>
  <path style="fill:rgb(21.960784%,58.431373%,74.117647%)" d="M 176.566406 84 L 176.566406 128.304688 L 130.28125 153.429688 L 91.710938 130.285156 Z M 176.566406 84"/>
  <path style="fill:rgb(81.960784%,54.901961%,23.137255%)" d="M 284.363281 141.660156 L 246 163.8125 L 247.386719 216.457031 L 286.710938 238.292969 Z M 284.363281 141.660156"/>
  <path style="fill:rgb(22.352941%,25.490196%,74.901961%)" d="M 86.34375 141.660156 L 124.714844 163.8125 L 123.324219 216.457031 L 84 238.285156 Z M 86.34375 141.660156"/>
  <path style="fill:rgb(62.745098%,17.254902%,20.784314%)" d="M 192 300 L 192 255.695312 L 238.285156 230.570312 L 276.855469 253.714844 Z M 192 300"/>
  <path style="fill:rgb(73.333333%,22.745098%,51.764706%)" d="M 176.566406 300 L 176.566406 255.695312 L 130.28125 230.570312 L 91.710938 253.714844 Z M 176.566406 300"/>
 </g>
</svg>
