<svg width="36pt" height="36pt" version="1.1" viewBox="0 0 36 36" xmlns="http://www.w3.org/2000/svg"><defs><filter id="a" x="-.192" y="-.192" width="1.384" height="1.384" color-interpolation-filters="sRGB"><feGaussianBlur stdDeviation="0.67843748"/></filter></defs><path d="m7.3477 3.9022c-0.67188 0-1.3047 0.63281-1.3047 1.3047v27.391c0 0.63281 0.67188 1.3047 1.3047 1.3047h20.871c0.63281 0 1.3047-0.67188 1.3047-1.3047v-20.215l-8.4805-8.4805z" opacity=".1"/><path d="m7.3477 3.1523c-0.67188 0-1.3047 0.63281-1.3047 1.3047v27.391c0 0.63281 0.67188 1.3047 1.3047 1.3047h20.871c0.63281 0 1.3047-0.67188 1.3047-1.3047v-20.215l-8.4805-8.4805z" fill="#d31818"/><path d="m20.668 3.5272 8.4805 8.4805h-7.1758c-0.63281 0-1.3047-0.67187-1.3047-1.3047z" filter="url(#a)" opacity=".2"/><path d="m21.043 3.1523 8.4805 8.4805h-7.1758c-0.63281 0-1.3047-0.67187-1.3047-1.3047z" fill="#e05d5d"/><path d="m20.671 13.529c-0.36066-0.04083-0.64988-0.04083-0.91529 0.01021-0.26542 0.05104-0.51038 0.17693-0.65669 0.33685-0.14631 0.15992-0.19395 0.31643-0.21436 0.39129-0.51718 1.0106-1.1229 2.0143-1.6808 2.8751-0.6873 1.0174-1.4903 2.2048-1.9088 3.1609-0.25519 0.58183-0.52739 1.2862-0.79959 2.0211-0.56141 1.5379-1.065 3.0758-1.5584 4.6206 0.79959 0.05444 0.79959 0.05104 1.4188 0.05444 0.45594-0.83702 1.2113-1.6298 1.8408-2.2117 1.0956-0.99691 2.671-2.0177 4.1783-2.2456l0.50697-0.07485c0.02722-1.5754 0.17012-3.28 0.94926-4.6615 0.31984-0.57503 0.76557-1.031 1.1773-1.5515 0.10548-0.08506 0.02382-0.18714 0.03403-0.279-0.30963-1.5311-1.3508-2.2899-2.3409-2.443-0.01021 0-0.02041-0.0034-0.03062-0.0034z" fill="#fff" fill-rule="evenodd" stroke-width=".87104"/></svg>
