<svg enable-background="new 0 0 61.2 61.2" version="1.1" viewBox="0 0 512 512" xmlns="http://www.w3.org/2000/svg" xmlns:xlink="http://www.w3.org/1999/xlink"><defs><linearGradient id="a" x1="67.112" x2="449.22" y1="312.83" y2="312.83" gradientUnits="userSpaceOnUse"><stop stop-color="#4aaee6" offset="0"/><stop stop-color="#265ab1" offset="1"/></linearGradient></defs><path d="m257.87 99.938a114.67 114.67 0 0 0-114.67 114.67 114.67 114.67 0 0 0 1.1492 16.204h227.04a114.67 114.67 0 0 0 1.1492-16.204 114.67 114.67 0 0 0-114.67-114.67zm-40.99 57.599a47.973 29.649 0 0 1 39.121 12.581 47.973 29.649 0 0 1 39.119-12.581 47.973 29.649 0 0 1 47.975 29.651 47.973 29.649 0 0 1-47.975 29.648 47.973 29.649 0 0 1-39.119-12.581 47.973 29.649 0 0 1-39.121 12.581 47.973 29.649 0 0 1-47.973-29.648 47.973 29.649 0 0 1 47.973-29.651zm0 16.474a14.825 14.825 0 0 0-14.825 14.823 14.825 14.825 0 0 0 14.825 14.825 14.825 14.825 0 0 0 14.825-14.825 14.825 14.825 0 0 0-14.825-14.823zm75.77 0a14.825 14.825 0 0 0-14.825 14.823 14.825 14.825 0 0 0 14.825 14.825 14.825 14.825 0 0 0 14.825-14.825 14.825 14.825 0 0 0-14.825-14.823z" fill-rule="evenodd" style="paint-order:stroke fill markers"/><path d="m31 412.32h42.003l9.5359-32.467h54.944l10.217 32.467h43.365l-53.809-157.57h-50.177zm62.21-67.887 16.348-54.944 17.028 54.944z" fill="#72a2f4"/><path d="m205.6 412.32h39.278v-53.809h17.483l30.651 53.809h47.225l-39.278-61.983c17.71-9.5359 28.381-26.564 28.381-47.907 0-30.424-21.797-47.679-58.805-47.679h-64.935zm39.278-87.185v-36.101h20.207c14.758 0 23.385 7.0383 23.385 18.845 0 10.671-6.3572 17.255-17.936 17.255z" fill="#72a2f4"/><path d="m357.94 412.32h39.278v-46.317h12.942c42.685 0 70.837-23.385 70.837-58.804 0-32.921-24.067-52.447-64.253-52.447h-58.805zm39.278-80.828v-42.23h16.348c15.893 0 26.564 8.6277 26.564 21.797 0 12.714-8.8547 20.435-22.932 20.435z"/><path d="m87.079 254.75-56.079 157.57h42.003l9.5347-32.465h54.947l10.217 32.465h43.365l-53.808-157.57h-50.18zm118.52 0v157.57h39.277v-53.808h17.484l30.651 53.808h47.223l-39.277-61.981c17.71-9.5359 28.381-26.566 28.381-47.908 0-30.424-21.797-47.679-58.805-47.679h-64.933zm152.35 0v157.57h39.28v-46.317h12.94c42.685 0 70.837-23.384 70.837-58.802 0-32.921-24.065-52.45-64.251-52.45h-58.805zm-113.07 34.287h20.207c14.758 0 23.387 7.0366 23.387 18.844 0 10.671-6.3579 17.255-17.937 17.255h-25.657v-36.097zm152.35 0.22644h16.346c15.893 0 26.563 8.6271 26.563 21.795 0 12.715-8.8541 20.435-22.93 20.435h-19.979zm-287.67 0.22645 17.028 54.944h-33.374z" fill="#1b3f7c"/><path d="m87.08 239.49-56.08 157.57h42.002l9.5371-32.467h54.943l10.217 32.467h43.365l-53.809-157.57h-50.176zm118.52 0.00586v157.57h39.277v-53.809h17.482l30.652 53.809h47.225l-39.279-61.982c17.71-9.5359 28.381-26.566 28.381-47.908 0-30.424-21.796-47.678-58.805-47.678h-64.934zm152.34 0v157.57h39.279v-46.316h12.941c42.685 0 70.836-23.386 70.836-58.805 0-32.921-24.066-52.447-64.252-52.447h-58.805zm-113.06 34.283h20.207c14.758 0 23.385 7.0369 23.385 18.844 0 10.671-6.357 17.256-17.936 17.256h-25.656v-36.1zm152.34 0.22656h16.348c15.893 0 26.564 8.6276 26.564 21.797 0 12.715-8.8563 20.436-22.934 20.436l-19.979-0.00195v-42.23zm-287.66 0.22852 17.027 54.943h-33.375l16.348-54.943z" fill="url(#a)"/><path d="m87.079 239.49-56.079 157.57h3.2567l52.822-148.42h50.18l50.683 148.42h3.1255l-53.808-157.57h-50.18zm118.52 0v9.1533h64.933c35.109 0 56.514 15.539 58.621 43.109 0.1117-1.5062 0.18475-3.0296 0.18475-4.5826 0-30.424-21.797-47.679-58.805-47.679h-64.933zm152.35 0v9.1533h58.805c38.276 0 61.908 17.724 64.07 47.855 0.10616-1.4991 0.18176-3.0128 0.18176-4.5588 0-32.921-24.065-52.45-64.251-52.45h-58.805zm-69.952 57.789c-1.6471 7.8862-7.6824 12.595-17.46 12.595h-25.657v9.1533h25.657c11.579 0 17.937-6.5836 17.937-17.255 0-1.589-0.17021-3.0825-0.47673-4.4932zm151.69 3.212c-1.9484 9.8932-10.236 15.741-22.484 15.741h-19.979v9.1533h19.979c14.077 0 22.93-7.7196 22.93-20.435 0-1.5544-0.15855-3.0392-0.44694-4.4604zm-343.75 28.682-2.7234 9.1533h33.374l-2.8366-9.1533h-27.814zm209.23 12.538c-1.359 0.88368-2.748 1.7367-4.2042 2.5206l33.475 52.828h5.8012l-35.072-55.348z" fill="#fff" opacity=".2"/><path d="m257.87 89.938a114.67 114.67 0 0 0-114.67 114.67 114.67 114.67 0 0 0 1.1492 16.204h227.04a114.67 114.67 0 0 0 1.1492-16.204 114.67 114.67 0 0 0-114.67-114.67zm-40.99 57.599a47.973 29.649 0 0 1 39.121 12.581 47.973 29.649 0 0 1 39.119-12.581 47.973 29.649 0 0 1 47.975 29.651 47.973 29.649 0 0 1-47.975 29.648 47.973 29.649 0 0 1-39.119-12.581 47.973 29.649 0 0 1-39.121 12.581 47.973 29.649 0 0 1-47.973-29.648 47.973 29.649 0 0 1 47.973-29.651zm0 16.474a14.825 14.825 0 0 0-14.825 14.823 14.825 14.825 0 0 0 14.825 14.825 14.825 14.825 0 0 0 14.825-14.825 14.825 14.825 0 0 0-14.825-14.823zm75.77 0a14.825 14.825 0 0 0-14.825 14.823 14.825 14.825 0 0 0 14.825 14.825 14.825 14.825 0 0 0 14.825-14.825 14.825 14.825 0 0 0-14.825-14.823z" fill="#737680" fill-rule="evenodd" style="paint-order:stroke fill markers"/></svg>
