<svg width="512" height="512" version="1.1" viewBox="0 0 384 384" xmlns="http://www.w3.org/2000/svg"><defs><linearGradient id="b" x1="195.7" x2="34.666" y1="226.81" y2="438.82" gradientTransform="matrix(.97058 -.0038652 .0038652 .97058 5.0159 10.373)" gradientUnits="userSpaceOnUse"><stop stop-color="#fd3535" offset="0"/><stop stop-color="#951212" offset="1"/></linearGradient><linearGradient id="a" x1="195.7" x2="34.666" y1="226.81" y2="438.82" gradientTransform="matrix(.97058 -.0038652 .0038652 .97058 5.0159 10.373)" gradientUnits="userSpaceOnUse"><stop stop-color="#367bf0" offset="0"/><stop stop-color="#153873" offset="1"/></linearGradient></defs><path d="m76.33 154.61 0.39135 98.271 0.05688-2.3e-4c-0.0024 0.37159-0.05399 0.72438-0.05251 1.0959 0.25293 63.512 42.092 114.48 93.825 114.27l44.484-0.17715c51.733-0.20602 93.165-51.506 92.912-115.02-1e-3 -0.37156-0.0598-0.72391-0.0612-1.0955l0.0569-2.3e-4 -0.39136-98.271z" opacity=".3" stroke-width=".97059"/><path d="m153.09 20.538a5.5221 5.5221 0 0 0-2.2786 5.5949l-0.55862-0.51026c0.0131 0.28059 0.0217 0.63594 0.0494 1.0615a5.5221 5.5221 0 0 0 1e-3 0.0074c0.054 0.88735 0.14844 1.7165 0.24934 2.4879a5.5221 5.5221 0 0 0 2e-3 0.0378c0.18386 1.332 0.44512 2.5588 0.70466 3.6907a5.5221 5.5221 0 0 0 0.0118 0.05141c0.37839 1.5778 0.82749 3.1068 1.3121 4.5904a5.5221 5.5221 0 0 0-9.6e-4 0.0031c0.48734 1.489 1.0324 2.9401 1.6063 4.3697-31.86 15.257-54.834 49.326-58.206 90.044l191.75-0.76361c-4.0314-44.345-31.277-80.618-67.753-93.158 0.31418-1.1201 0.61206-2.2491 0.87177-3.3987a5.5221 5.5221 0 0 0 9.6e-4 -0.0011 5.5221 5.5221 0 0 0-9.7e-4 -0.0011c0.34292-1.5225 0.64777-3.0871 0.87605-4.6936a5.5221 5.5221 0 0 0 6e-3 -0.05253c0.15199-1.1513 0.29588-2.3979 0.35372-3.7411a5.5221 5.5221 0 0 0-1e-3 -0.03675c0.0281-0.77744 0.044-1.612 0.0142-2.5005a5.5221 5.5221 0 0 1-1e-5 -0.0021 5.5221 5.5221 0 0 1-9.7e-4 -0.0011 5.5221 5.5221 0 0 1-1e-5 -0.0021 5.5221 5.5221 0 0 1-9.7e-4 -0.0011c-0.0125-0.42632-0.0349-0.77988-0.0483-1.0605l-0.50922 0.55757a5.5221 5.5221 0 0 0-2.7938-5.3553l-3.5274-1.5434a5.5221 5.5221 0 0 0-2.961-0.41038l-9.7e-4 -1e-3a5.5221 5.5221 0 0 0-4.648 6.6252c-0.047-0.22158-0.0248-0.14263 3e-3 0.22473l1e-3 0.0094c0.0292 0.45879 0.0315 0.9861 0.0211 1.5878l2e-5 0.0042c-0.0147 0.78622-0.096 1.6745-0.21101 2.6568-0.15808 1.2173-0.38661 2.4709-0.66027 3.7654 2.2e-4 0.0013 4.9e-4 0.0025 2e-5 0.0042-0.26725 1.2414-0.60642 2.5023-0.98049 3.7783-4.6721-0.76325-9.4497-1.1616-14.316-1.1423l-2e-3 7e-6c-8.1565 0.03248-16.059 1.2187-23.605 3.3916a5.5221 5.5221 0 0 0-0.0328-0.08284c-0.60212-1.4683-1.1439-2.9131-1.5968-4.3456-4.5e-4 -0.0015 2.5e-4 -0.0028-2e-5 -0.0042-0.39414-1.2629-0.7373-2.4903-1.0092-3.6874-0.20679-0.96714-0.3724-1.8432-0.46097-2.6247l-2e-5 -0.0042c-0.067-0.59805-0.11017-1.1226-0.12497-1.5822l-1e-3 -0.01155c-6e-3 -0.36836 8e-3 -0.44758-0.0177-0.22256a5.5221 5.5221 0 0 0-5.2513-6.155l2e-3 -0.0021a5.5221 5.5221 0 0 0-2.9073 0.68474zm-117.94 131.94c-4.2633 4.0161-6.9582 10.086-6.9311 16.892 0.04818 12.098 8.6813 21.804 19.354 21.761l289.03-1.151c10.676-0.0425 19.233-9.8165 19.185-21.915-0.0482-12.098-8.6825-21.804-19.359-21.761l-289.03 1.151c-4.6692 0.0186-8.9334 1.8998-12.249 5.0235zm9.9636 82.942c-4.2633 4.0161-6.9582 10.086-6.9311 16.892 0.04818 12.098 8.6813 21.804 19.354 21.761l85.656-0.34111-70.998 46.859c-9.2191 6.084-12.317 19.408-6.9372 29.862 5.3804 10.454 17.136 13.979 26.355 7.8911l86.462-57.071-0.28417-71.356-120.43 0.4796c-4.6692 0.0186-8.9334 1.8998-12.249 5.0235zm161.58-5.6182 0.2832 71.357 86.914 56.38c9.2712 6.0142 21 2.396 26.296-8.1008s2.0925-23.796-7.1748-29.806l-71.368-46.293 85.65-0.34012c10.676-0.0425 19.228-9.8165 19.18-21.915-0.0482-12.098-8.6775-21.804-19.354-21.761z" fill="#737680" stroke-width=".97059"/><path d="m212.25 15.8a5.5221 5.5221 0 0 0-4.648 6.6255c-0.047-0.22158-0.0247-0.14324 3e-3 0.22412l1e-3 0.01026c0.0292 0.45879 0.0309 0.9862 0.0205 1.5879v0.0044c-0.0147 0.78622-0.096 1.6735-0.21093 2.6558-0.15809 1.2173-0.38553 2.4716-0.65919 3.7661 2.2e-4 0.0013 4.7e-4 0.0027 1e-5 0.0044-0.26725 1.2414-0.60736 2.5018-0.98147 3.7779-4.6721-0.76325-9.4493-1.1619-14.316-1.1425l-2e-3 2e-6c-0.72498 0.0029-1.4368 0.06396-2.1577 0.08496l-2e-5 98.195 98.427-0.39111c-4.0314-44.345-31.276-80.618-67.752-93.159 0.31418-1.1201 0.61187-2.2489 0.87158-3.3984a5.5221 5.5221 0 0 0 2e-3 -0.0015 5.5221 5.5221 0 0 0-2e-3 -0.0014c0.34292-1.5225 0.6477-3.0869 0.87598-4.6934a5.5221 5.5221 0 0 0 6e-3 -0.05273c0.15198-1.1513 0.29665-2.398 0.35449-3.7412a5.5221 5.5221 0 0 0-1e-3 -0.03663c0.0281-0.77744 0.0445-1.612 0.0147-2.5005a5.5221 5.5221 0 0 1-1e-5 -0.0015 5.5221 5.5221 0 0 1-9.8e-4 -0.0015 5.5221 5.5221 0 0 1 0-0.0015 5.5221 5.5221 0 0 1-9.8e-4 -0.0015c-0.0125-0.42632-0.0349-0.77995-0.0484-1.0606l-0.50831 0.55811a5.5221 5.5221 0 0 0-2.7949-5.3555l-3.5274-1.544a5.5221 5.5221 0 0 0-2.9605-0.41016zm124.17 130.5-147.13 0.58594v43.678l147.3-0.58595c10.676-0.0425 19.233-9.8175 19.185-21.916-0.0482-12.098-8.6836-21.804-19.36-21.761zm-9.3032 83.02-120.43 0.47902 0.2832 71.357 86.914 56.38c9.2712 6.0142 21.001 2.3961 26.297-8.1006 5.2965-10.497 2.0925-23.797-7.1748-29.807l-71.368-46.294 85.65-0.34012c10.676-0.0425 19.227-9.8155 19.179-21.914-0.0482-12.098-8.6768-21.804-19.354-21.761z" opacity=".3" stroke-width=".97059"/><path d="m191.45 33.313c-50.121 0.1996-90.894 43.308-95.478 98.653l0.85307-3e-3c7.3957-51.795 46.756-91.18 94.655-91.37 47.9-0.19076 87.574 38.876 95.387 90.613l0.85307-3e-3c-5.0278-55.305-46.146-98.09-96.268-97.89zm-144.06 114.13c-10.672 0.0425-19.229 9.8165-19.181 21.915 0.0049 1.2414 0.10454 2.4555 0.2832 3.6386 1.4801-10.359 9.3492-18.236 18.927-18.274l289.03-1.151c9.5811-0.0382 17.512 7.7761 19.074 18.123 0.16926-1.1845 0.25916-2.3993 0.25422-3.6407-0.0482-12.098-8.681-21.804-19.358-21.761zm9.9639 82.939c-10.672 0.0425-19.229 9.8165-19.181 21.915 0.0049 1.2414 0.10454 2.4555 0.2832 3.6386 1.4801-10.359 9.3492-18.236 18.927-18.274l120.43-0.47959-0.029-7.2794zm149.34-0.59471 0.029 7.2794 120.43-0.4796c9.5811-0.0382 17.508 7.7761 19.07 18.123 0.16918-1.1845 0.26058-2.3993 0.25564-3.6408-0.0482-12.098-8.6781-21.804-19.355-21.761zm-74.6 51.253-59.9 39.536c-7.1703 4.7318-10.636 13.844-9.2926 22.578 0.90116-6.1884 4.1471-11.884 9.3216-15.299l70.996-46.86zm109.58-0.4364 71.368 46.293c5.2013 3.3733 8.4911 9.043 9.4417 15.224 1.2745-8.7448-2.2628-17.829-9.4707-22.503l-60.214-39.058z" fill="#fff" opacity=".1" stroke-width=".72794"/><path d="m96.799 124.68c-0.34296 2.402-0.62094 4.8301-0.82408 7.2828l191.75-0.7636c-0.22282-2.451-0.5198-4.8768-0.88206-7.276zm-68.332 41.037c-0.16923 1.1845-0.25916 2.3993-0.25422 3.6408 0.04818 12.098 8.6817 21.804 19.355 21.761l289.03-1.151c10.677-0.0425 19.232-9.8165 19.184-21.915-5e-3 -1.2414-0.10452-2.4555-0.2832-3.6386-1.4802 10.359-9.3485 18.236-18.93 18.274l-289.03 1.151c-9.5774 0.0381-17.509-7.7761-19.072-18.123zm9.9639 82.939c-0.16923 1.1845-0.25916 2.3993-0.25422 3.6408 0.04818 12.098 8.6817 21.804 19.355 21.761l74.526-0.29679 11.096-7.3236-85.656 0.34111c-9.5774 0.0381-17.509-7.7761-19.072-18.123zm307.76-1.2256c-1.4796 10.359-9.3441 18.236-18.925 18.274l-85.649 0.34109 11.154 7.235 74.526-0.29678c10.677-0.0425 19.229-9.8165 19.181-21.915-5e-3 -1.2414-0.10601-2.4554-0.28462-3.6386zm-168.14 46.548-86.464 57.072c-9.2192 6.0878-20.976 2.5631-26.355-7.8908-1.1957-2.3234-1.971-4.7884-2.355-7.2846-0.70448 4.8378 0.02356 9.9771 2.384 14.564 5.3799 10.454 17.136 13.979 26.355 7.8908l86.464-57.072zm28.906-0.11511 0.029 7.2794 86.916 56.381c9.271 6.0141 20.998 2.3959 26.295-8.1005 2.3238-4.6055 3.0109-9.7504 2.2679-14.583-0.36418 2.4989-1.1198 4.97-2.2969 7.3032-5.2964 10.497-17.024 14.115-26.295 8.1005z" opacity=".5" stroke-width=".72794"/><path d="m76.301 147.33 0.39135 98.271 0.05687-2.3e-4c-0.0023 0.37158-0.05398 0.72438-0.0525 1.0959 0.25293 63.513 42.092 114.48 93.825 114.27l44.484-0.17715c51.733-0.20602 93.165-51.506 92.912-115.02-1e-3 -0.37155-0.0598-0.72391-0.0612-1.0955l0.0569-2.3e-4 -0.39136-98.271z" fill="url(#a)" stroke-width=".97059"/><rect transform="rotate(-.22817)" x="182.4" y="208.78" width="17.846" height="152.87" opacity=".6" stroke-width=".7627" style="paint-order:markers stroke fill"/><path d="m76.666 238.32 0.0044 1.0947c-0.0015-0.37156 0.0501-0.7234 0.05251-1.095zm0.0044 1.0947 0.02463 6.1846 0.05687-2.3e-4c-0.0024 0.37158-0.05399 0.72342-0.05251 1.095 0.25293 63.512 42.093 114.48 93.829 114.28l28.173-0.1122-0.029-7.2794-28.173 0.1122c-51.733 0.20602-93.576-50.763-93.829-114.28zm231.16-2.0153c1e-3 0.37157 0.0597 0.72297 0.0612 1.0945l-4e-3 -1.0948zm0.0612 1.0945c0.25292 63.512-41.18 114.82-92.916 115.02l-16.303 0.0649 0.029 7.2794 16.303-0.0649c51.733-0.20602 93.169-51.506 92.916-115.02-1e-3 -0.37156-0.0597-0.72296-0.0612-1.0945l0.0569-2.3e-4z" opacity=".3" stroke-width=".72794"/><path d="m76.302 147.33 0.02899 7.2794 231.22-0.92081-0.029-7.2794z" fill="#fff" opacity=".2" stroke-width=".72794"/><path d="m76.33 154.61 0.39135 98.271 0.05688-2.3e-4c-0.0024 0.37159-0.05399 0.72438-0.05251 1.0959 0.25293 63.512 42.092 114.48 93.825 114.27l44.484-0.17715c51.733-0.20602 93.165-51.506 92.912-115.02-1e-3 -0.37156-0.0598-0.72391-0.0612-1.0955l0.0569-2.3e-4 -0.39136-98.271z" opacity=".3" stroke-width=".97059"/><path d="m191.45 33.313c-50.121 0.1996-90.894 43.308-95.478 98.653l0.85307-3e-3c7.3957-51.795 46.756-91.18 94.655-91.37 47.9-0.19076 87.574 38.876 95.387 90.613l0.85307-3e-3c-5.0278-55.305-46.146-98.09-96.268-97.89zm-144.06 114.13c-10.672 0.0425-19.229 9.8165-19.181 21.915 0.0049 1.2414 0.10454 2.4555 0.2832 3.6386 1.4801-10.359 9.3492-18.236 18.927-18.274l289.03-1.151c9.5811-0.0382 17.512 7.7761 19.074 18.123 0.16926-1.1845 0.25916-2.3993 0.25422-3.6407-0.0482-12.098-8.681-21.804-19.358-21.761zm9.9639 82.939c-10.672 0.0425-19.229 9.8165-19.181 21.915 0.0049 1.2414 0.10454 2.4555 0.2832 3.6386 1.4801-10.359 9.3492-18.236 18.927-18.274l120.43-0.47959-0.029-7.2794zm149.34-0.59471 0.029 7.2794 120.43-0.4796c9.5811-0.0382 17.508 7.7761 19.07 18.123 0.16918-1.1845 0.26058-2.3993 0.25564-3.6408-0.0482-12.098-8.6781-21.804-19.355-21.761zm-74.6 51.253-59.9 39.536c-7.1703 4.7318-10.636 13.844-9.2926 22.578 0.90116-6.1884 4.1471-11.884 9.3216-15.299l70.996-46.86zm109.58-0.4364 71.368 46.293c5.2013 3.3733 8.4911 9.043 9.4417 15.224 1.2745-8.7448-2.2628-17.829-9.4707-22.503l-60.214-39.058z" fill="#fff" opacity=".1" stroke-width=".72794"/><path d="m96.799 124.68c-0.34296 2.402-0.62094 4.8301-0.82408 7.2828l191.75-0.7636c-0.22282-2.451-0.5198-4.8768-0.88206-7.276zm-68.332 41.037c-0.16923 1.1845-0.25916 2.3993-0.25422 3.6408 0.04818 12.098 8.6817 21.804 19.355 21.761l289.03-1.151c10.677-0.0425 19.232-9.8165 19.184-21.915-5e-3 -1.2414-0.10452-2.4555-0.2832-3.6386-1.4802 10.359-9.3485 18.236-18.93 18.274l-289.03 1.151c-9.5774 0.0381-17.509-7.7761-19.072-18.123zm9.9639 82.939c-0.16923 1.1845-0.25916 2.3993-0.25422 3.6408 0.04818 12.098 8.6817 21.804 19.355 21.761l74.526-0.29679 11.096-7.3236-85.656 0.34111c-9.5774 0.0381-17.509-7.7761-19.072-18.123zm307.76-1.2256c-1.4796 10.359-9.3441 18.236-18.925 18.274l-85.649 0.34109 11.154 7.235 74.526-0.29678c10.677-0.0425 19.229-9.8165 19.181-21.915-5e-3 -1.2414-0.10601-2.4554-0.28462-3.6386zm-168.14 46.548-86.464 57.072c-9.2192 6.0878-20.976 2.5631-26.355-7.8908-1.1957-2.3234-1.971-4.7884-2.355-7.2846-0.70448 4.8378 0.02356 9.9771 2.384 14.564 5.3799 10.454 17.136 13.979 26.355 7.8908l86.464-57.072zm28.906-0.11511 0.029 7.2794 86.916 56.381c9.271 6.0141 20.998 2.3959 26.295-8.1005 2.3238-4.6055 3.0109-9.7504 2.2679-14.583-0.36418 2.4989-1.1198 4.97-2.2969 7.3032-5.2964 10.497-17.024 14.115-26.295 8.1005z" opacity=".5" stroke-width=".72794"/><path d="m76.301 147.33 0.39135 98.271 0.05687-2.3e-4c-0.0023 0.37158-0.05398 0.72438-0.0525 1.0959 0.25293 63.513 42.092 114.48 93.825 114.27l44.484-0.17715c51.733-0.20602 93.165-51.506 92.912-115.02-1e-3 -0.37155-0.0598-0.72391-0.0612-1.0955l0.0569-2.3e-4 -0.39136-98.271z" fill="url(#b)" stroke-width=".97059"/><rect transform="rotate(-.22817)" x="182.4" y="208.78" width="17.846" height="152.87" opacity=".6" stroke-width=".7627" style="paint-order:markers stroke fill"/><path d="m76.666 238.32 0.0044 1.0947c-0.0015-0.37156 0.0501-0.7234 0.05251-1.095zm0.0044 1.0947 0.02463 6.1846 0.05687-2.3e-4c-0.0024 0.37158-0.05399 0.72342-0.05251 1.095 0.25293 63.512 42.093 114.48 93.829 114.28l28.173-0.1122-0.029-7.2794-28.173 0.1122c-51.733 0.20602-93.576-50.763-93.829-114.28zm231.16-2.0153c1e-3 0.37157 0.0597 0.72297 0.0612 1.0945l-4e-3 -1.0948zm0.0612 1.0945c0.25292 63.512-41.18 114.82-92.916 115.02l-16.303 0.0649 0.029 7.2794 16.303-0.0649c51.733-0.20602 93.169-51.506 92.916-115.02-1e-3 -0.37156-0.0597-0.72296-0.0612-1.0945l0.0569-2.3e-4z" opacity=".3" stroke-width=".72794"/><path d="m76.302 147.33 0.02899 7.2794 231.22-0.92081-0.029-7.2794z" fill="#fff" opacity=".2" stroke-width=".72794"/><ellipse transform="rotate(38.159)" cx="146.95" cy="-29.299" rx="14.812" ry="23.766" fill="#fff" stroke-width="1.0139"/><ellipse transform="matrix(-.79113 .61165 .61165 .79113 0 0)" cx="-155.61" cy="204.3" rx="14.812" ry="23.766" fill="#fff" stroke-width="1.0139"/></svg>
