<svg width="512" height="512" version="1.1" viewBox="0 0 384 384" xmlns="http://www.w3.org/2000/svg" xmlns:xlink="http://www.w3.org/1999/xlink"><defs><filter id="b" x="-.25928" y="-.23729" width="1.5186" height="1.4746" color-interpolation-filters="sRGB"><feGaussianBlur stdDeviation="10.792052"/></filter><linearGradient id="a" x1="17.658" x2="372.84" y1="22.819" y2="366.23" gradientUnits="userSpaceOnUse"><stop stop-color="#367bf0" offset="0"/><stop stop-color="#439dcf" offset="1"/></linearGradient></defs><path d="m37.946 31.293c-12.198 0-22.246 9.9277-22.246 21.989v272.68c0 12.061 10.046 21.994 22.246 21.994h308.11c12.2 0 22.243-9.9338 22.243-21.994v-272.68c0-12.059-10.044-21.989-22.243-21.989zm0 14.383h308.11c4.3378 0 7.6936 3.3178 7.6936 7.6061v272.68c0 4.2884-3.3582 7.6119-7.6936 7.6119h-308.11c-4.3355 0-7.6994-3.3261-7.6994-7.6119v-272.68c0-4.2862 3.3621-7.6061 7.6994-7.6061z" color="#000000" color-rendering="auto" dominant-baseline="auto" fill="#fff" fill-rule="evenodd" image-rendering="auto" opacity=".2" shape-rendering="auto" solid-color="#000000" stroke="#000" stroke-linejoin="round" stroke-width="7.4593" style="font-feature-settings:normal;font-variant-alternates:normal;font-variant-caps:normal;font-variant-ligatures:normal;font-variant-numeric:normal;font-variant-position:normal;isolation:auto;mix-blend-mode:normal;shape-padding:0;text-decoration-color:#000000;text-decoration-line:none;text-decoration-style:solid;text-indent:0;text-orientation:mixed;text-transform:none;white-space:normal"/><path d="m37.986 39.387c-12.195 0-22.24 10.041-22.24 22.238v275.29c0 12.197 10.043 22.24 22.24 22.24h308.02c12.197 0 22.238-10.045 22.238-22.24v-275.29c0-12.195-10.043-22.238-22.238-22.238z" fill-rule="evenodd" opacity=".3"/><path d="m37.99 39.161h308.02c8.2658 0 14.965 6.6992 14.965 14.965v275.29c0 8.2658-6.6992 14.968-14.965 14.968h-308.02c-8.2658 0-14.968-6.7031-14.968-14.968v-275.29c0-8.2658 6.7031-14.965 14.968-14.965z" fill="url(#a)" fill-rule="evenodd" stroke="#fff" stroke-linejoin="round" stroke-width="14.544"/><path d="m112.04 192.32c-2.3501-0.96218-4.0167-1.8257-4.4092-4.7534-0.30517-2.2757-0.0324-3.164 1.5484-5.0434l1.9188-2.281h54.792l1.7196 1.72c3.4821 3.483 2.8535 7.1108-1.3714 9.6879-2.0413 1.2452-3.9522 1.3353-27.484 1.2957-13.909-0.0243-25.931-0.30501-26.713-0.62583zm-39.653-5.1037c-3.0091-2.6894-3.2407-6.8247-0.54552-9.7395 0.97061-1.0497 11.622-10.886 23.67-21.857 12.048-10.972 21.906-20.229 21.906-20.57 0-0.34167-7.7738-9.147-17.275-19.567-9.5014-10.421-17.887-19.977-18.635-21.239-1.7251-2.9073-1.1322-5.6225 1.8328-8.393 2.8995-2.7093 6.2203-2.7348 9.1096-0.0698 1.1685 1.0778 10.957 11.74 21.754 23.693 21.549 23.86 22.507 25.283 19.92 29.574-0.76368 1.2662-13.313 13.087-27.889 26.269-24.284 21.962-26.71 23.967-29.017 23.967-1.7723 0-3.2033-0.61187-4.829-2.0648z" fill="#fff" filter="url(#b)" opacity=".47301" stroke-width="1.172"/><path d="m112.04 192.32c-2.3501-0.96218-4.0167-1.8257-4.4092-4.7534-0.30517-2.2757-0.0324-3.164 1.5484-5.0434l1.9188-2.281h54.792l1.7196 1.72c3.4821 3.483 2.8535 7.1108-1.3714 9.6879-2.0413 1.2452-3.9522 1.3353-27.484 1.2957-13.909-0.0243-25.931-0.30501-26.713-0.62583zm-39.653-5.1037c-3.0091-2.6894-3.2407-6.8247-0.54552-9.7395 0.97061-1.0497 11.622-10.886 23.67-21.857 12.048-10.972 21.906-20.229 21.906-20.57 0-0.34167-7.7738-9.147-17.275-19.567-9.5014-10.421-17.887-19.977-18.635-21.239-1.7251-2.9073-1.1322-5.6225 1.8328-8.393 2.8995-2.7093 6.2203-2.7348 9.1096-0.0698 1.1685 1.0778 10.957 11.74 21.754 23.693 21.549 23.86 22.507 25.283 19.92 29.574-0.76368 1.2662-13.313 13.087-27.889 26.269-24.284 21.962-26.71 23.967-29.017 23.967-1.7723 0-3.2033-0.61187-4.829-2.0648z" fill="#fff" stroke-width="1.172"/></svg>
