<svg width="512" height="512" version="1.1" viewBox="0 0 384 384" xmlns="http://www.w3.org/2000/svg"><g transform="translate(-.0016875)"><path d="m360 192c0 92.785-75.215 168-168 168s-168-75.215-168-168 75.215-168 168-168 168 75.215 168 168z" style="fill:#191919"/><path d="m138 133.5v12h36v12h-48v36h-12v-36h-12v84h12v-36h12v36l24 24h78l12-12h18v12h12l12-11.996v-72l-12-12.004h-12v12l-10.5 4e-3 -24-24h-37.5v-12l36-4e-3v-12zm0 36h78l24 24h30v48h-36l-12 12h-64.5l-19.5-20.398z"/><path transform="scale(.75)" d="m32.062 251c-0.03644 1.6631-0.0625 3.3282-0.0625 5 0 123.71 100.29 224 224 224s224-100.29 224-224c0-1.6718-0.0261-3.3369-0.0625-5-2.66 121.4-101.9 219-223.94 219s-221.28-97.597-223.94-219z" style="stroke-width:1.3333"/><g transform="translate(-.0016875)"><path d="m138 126v12h36v12h-48v36h-12v-36h-12v84h12v-36h12v36l24 24h78l12-12h18v12h12l12-11.996v-72l-12-12.004h-12v12l-10.5 4e-3 -24-24h-37.5v-12l36-4e-3v-12zm0 36h78l24 24h30v48h-36l-12 12h-64.5l-19.5-20.398z" style="fill:#ffc72e"/></g><path transform="scale(.75)" d="m256 32c-123.71 0-224 100.29-224 224 0 1.6718 0.02606 3.3369 0.0625 5 2.66-121.4 101.9-219 223.94-219s221.28 97.597 223.94 219c0.0364-1.6631 0.0625-3.3282 0.0625-5 0-123.71-100.29-224-224-224z" style="fill:#fff;opacity:.1;stroke-width:1.3333"/></g></svg>
