<svg width="512" height="512" version="1.1" viewBox="0 0 135.47 135.47" xmlns="http://www.w3.org/2000/svg"><path d="m89.182 8.2166c-1.8515-0.073829-3.7345 0.12284-5.5976 0.61547-3.0451 0.80517-5.675 2.2095-7.8812 4.3124-1.7729-0.30693-3.3527-0.50363-7.353-0.50746-5.8695-6e-3 -8.4923 0.30479-13.301 1.5446-3.4263 0.8834-6.6403 2.1785-9.586 3.6835-2.574-1.2948-5.37-2.2081-8.2031-2.1931-4.4019 0.02314-8.8731 1.8802-12 4.9785-3.1496 3.121-5.1248 7.5397-5.4379 11.979-0.20511 2.9073 0.45878 5.6631 1.5332 8.2321-4.8396-0.30586-8.9512 2.9844-10.812 7.0921-0.55934 1.2346-1.2316 3.4161-0.82992 5.6601 0.17195 0.96049 0.48851 1.6976 0.8201 2.3828-0.55992 0.65339-1.1389 1.3652-1.4862 2.1895-0.82982 1.9693-0.87269 3.0254-1.309 5.2322-0.60714 3.0711-0.97562 6.3124-1.1968 10.221-0.1933 3.4154 0.15698 7.7523 0.74569 11.152 2.5902 14.96 11.856 29.161 24.485 37.457 1.2013 0.7891 2.6578 1.6494 3.9781 2.3911 0.66014 0.37086 1.2675 0.70135 1.8283 0.98599 0.28039 0.14232 0.53867 0.26893 0.88108 0.41806 0.17121 0.0746 0.35509 0.15629 0.67541 0.26562 0.32032 0.10934 0.46189 0.37724 2.2366 0.37724 0.32306 0 1.1089-0.0941 1.1095-0.0941 5.96e-4 -1e-4 1.3824-0.39254 1.3829-0.39274 9.96e-4 -4.1e-4 2.8018-2.1572 2.8024-2.158 6.04e-4 -8.1e-4 1.2204-2.7976 1.2206-2.7988 1.9063 0.6179 3.8222 1.1086 5.7402 1.5079 0.83982 2.3726 4.0128 4.2358 5.5004 4.4101 2.9893 0.35007 2.8932-0.28029 3.238-0.40618 0.34488-0.1259 0.51417-0.20165 0.709-0.28319 1.0282-0.43029 1.9453-0.93911 2.8184-1.5565 1.2293 0.7059 2.9649 1.3385 4.6405 1.156 4.003-0.43588 4.7541-2.1472 5.8555-3.2091 0.03891-0.0375 0.0054-0.0256 0.03721-0.0584 9.7339-2.0768 18.935-6.3709 26.34-12.418 5.3012-4.3289 10.306-10.159 13.185-15.859 0.61525-0.44535 1.2838-0.85744 1.8945-1.463l0.83406-0.82631c1.2906-1.4064 1.9108-3.3018 1.7012-5.1992 0.29687-0.35036 0.57359-0.68198 0.88884-1.1286 0.17533-0.2484 0.35657-0.48397 0.66404-1.0919 0.15374-0.30398 0.36508-0.657 0.57981-1.6015 0.21473-0.94446 0.84103-3.557-1.7616-6.1759-5.6e-4 -5.68e-4 -0.77694-0.68328-1.125-0.9064-0.27763-0.17798-0.51545-0.28983-0.74776-0.39843 0.0176-1.1073-0.1471-2.9289-1.8852-4.6778-0.85741-0.8627-1.537-1.2129-2.1461-1.463 0.0814-0.22906 0.25468-0.43843 0.32608-0.66766 0.22099-0.70955 0.52721-2.0818 0.55862-3.2267 0.0314-1.1449-0.0526-2.0259-0.16588-3.4375-0.83695-10.427-3.5902-20.16-8.1406-27.664l-0.79685 1.7906c0.3062-0.68902 0.38169-1.4307 0.60306-2.1425-0.22545-0.36385-0.39518-0.79403-0.62942-1.1467l0.6687 1.0061c1.9211-6.3457 0.70263-13.384-3.5838-18.566-3.6723-4.4398-8.9516-7.101-14.506-7.3225zm-41.574 10.778c0.01165 0.0044 0.06354 0.0034 0.07441 0.0078-0.01071 0.0051-0.02289 0.0084-0.03359 0.01344-0.0126-0.0088-0.02819-0.01249-0.04082-0.02119zm-37.002 37.209c0.42396 0.83133 0.89535 1.521 1.324 2.0919 0.02669 0.03556 0.054 0.06284 0.0801 0.09767-0.03668 0.05595-0.07252 0.11246-0.10749 0.1695l-1.7456-1.8981zm22.062 26.699c1.8255 2.4948 3.3884 4.6647 5.3852 7.3613 0.70328 0.94974 1.2225 1.6545 1.8278 2.4748-0.43422 0.4585-0.79745 0.99058-1.1446 1.5214-0.41833 0.27499-0.81231 0.55099-1.2242 0.87282-0.15472 0.12088-0.2594 0.20168-0.39274 0.30489-0.14355 0.05836-0.2626 0.10552-0.42375 0.17157l-1.1762 0.48266c-0.4187 0.33902-0.79441 0.72793-1.1188 1.1581-1.3088-3.7683-1.8351-7.2497-1.8361-11.969-2.4e-4 -1.0096 0.06933-1.6003 0.10335-2.3787zm10.133 9.9472c6.22e-4 5.53e-4 8.5e-4 0.0015 0.0015 0.0021l-5.17e-4 5.16e-4c-6.66e-4 3.22e-4 -0.0019 7.03e-4 -0.0026 1e-3l-5.17e-4 5.17e-4c-0.07163 0.0011-0.11878 0.0058-0.18087 0.0083 0.06421-0.0029 0.11388-0.01128 0.18294-0.0124zm-0.56224 0.03772c-0.29928 0.03293-0.48476 0.08275-0.73277 0.12454 7.66e-4 -0.01176 0.0012-0.02148 0.0021-0.03307 0.23471-0.03391 0.47381-0.0659 0.7307-0.09147zm-1.3777 0.19275c-0.0011 0.0043-3.99e-4 0.0076-0.0016 0.01189h-0.001034c-6.91e-4 -1.5e-5 -0.0019 1.4e-5 -0.0026 0h-5.17e-4c0.0011-0.0027 0.0045-0.0092 0.0057-0.01189zm-0.66404 0.19896c-0.15214 0.13158-0.26348 0.27474-0.40618 0.34778-0.34327 0.17571-0.55738 0.31172-0.77515 0.44958 0.22279-0.28899 0.51579-0.53398 1.1813-0.79737zm-2.0779 1.8051c-0.07709 0.1459-0.20696 0.23725-0.29456 0.37414 0.01797-0.02921 0.03456-0.05689 0.0956-0.14366 0.02707-0.03848 0.15606-0.17249 0.19895-0.23048zm-0.29817 0.37982c-0.01204 0.01925-0.02351 0.03912-0.03359 0.06046v-0.001551l-5.17e-4 -5.16e-4v-5.17e-4c-1.9e-4 -0.0029 0.01727-0.03021 0.03411-0.05788zm28.345 26.86c0.0204 0.0156 0.02755 0.0227 0.04909 0.0388-0.0055 0.0171-0.0147 0.0602-0.01964 0.0765-3.63e-4 1e-3 -0.0013 2e-3 -0.0015 3e-3v0.00104h-5.17e-4v-5.2e-4h-5.17e-4v5.2e-4c-2.7e-4 4.7e-4 -8.5e-4 1e-3 -0.0015 4e-3 -0.02609-6e-3 -0.03326-0.0148-0.0584-0.0212 0.01398-0.0361 0.02002-0.0666 0.03307-0.10181zm-3.0742 0.0858c0.33084 0.44587 0.90283 1.0472 1.5958 1.6717h-0.35553zm2.7693 0.83612c0.0017 3e-3 6e-3 7e-3 0.0078 0.01-0.0016-7.5e-4 -0.01958 0.0436-0.03566 0.0842 0.0061-0.0282 0.0051-0.0493 0.02791-0.0941zm0.99064 0.7891c0.03848 0.0166 0.08311 0.0305 0.12506 0.0465h-0.16795c0.01491-0.0133 0.02802-0.0331 0.04289-0.0465z" fill="#fff" opacity=".3" stop-color="#000000" stroke="#000" stroke-linecap="round" stroke-linejoin="round" stroke-width="2.6458"/><path d="m89.182 8.2166c-1.8515-0.073829-3.7345 0.12284-5.5976 0.61547-3.0451 0.80517-5.675 2.2095-7.8812 4.3124-1.7729-0.30693-3.3527-0.50363-7.353-0.50746-5.8695-6e-3 -8.4923 0.30479-13.301 1.5446-3.4263 0.8834-6.6403 2.1785-9.586 3.6835-2.574-1.2948-5.37-2.2081-8.2031-2.1931-4.4019 0.02314-8.8731 1.8802-12 4.9785-3.1496 3.121-5.1248 7.5397-5.4379 11.979-0.20511 2.9073 0.45878 5.6631 1.5332 8.2321-4.8396-0.30586-8.9512 2.9844-10.812 7.0921-0.55934 1.2346-1.2316 3.4161-0.82992 5.6601 0.17195 0.96049 0.48851 1.6976 0.8201 2.3828-0.55992 0.65339-1.1389 1.3652-1.4862 2.1895-0.82982 1.9693-0.87269 3.0254-1.309 5.2322-0.60714 3.0711-0.97562 6.3124-1.1968 10.221-0.1933 3.4154 0.15698 7.7523 0.74569 11.152 2.5902 14.96 11.856 29.161 24.485 37.457 1.2013 0.7891 2.6578 1.6494 3.9781 2.3911 0.66014 0.37086 1.2675 0.70135 1.8283 0.98599 0.28039 0.14232 0.53867 0.26893 0.88108 0.41806 0.17121 0.0746 0.35509 0.15629 0.67541 0.26562 0.32032 0.10934 0.46189 0.37724 2.2366 0.37724 0.32306 0 1.1089-0.0941 1.1095-0.0941 5.96e-4 -1e-4 1.3824-0.39254 1.3829-0.39274 9.96e-4 -4.1e-4 2.8018-2.1572 2.8024-2.158 6.04e-4 -8.1e-4 1.2204-2.7976 1.2206-2.7988 1.9063 0.6179 3.8222 1.1086 5.7402 1.5079 0.83982 2.3726 4.0128 4.2358 5.5004 4.4101 2.9893 0.35007 2.8932-0.28029 3.238-0.40618 0.34488-0.1259 0.51417-0.20165 0.709-0.28319 1.0282-0.43029 1.9453-0.93911 2.8184-1.5565 1.2293 0.7059 2.9649 1.3385 4.6405 1.156 4.003-0.43588 4.7541-2.1472 5.8555-3.2091 0.03891-0.0375 0.0054-0.0256 0.03721-0.0584 9.7339-2.0768 18.935-6.3709 26.34-12.418 5.3012-4.3289 10.306-10.159 13.185-15.859 0.61525-0.44535 1.2838-0.85744 1.8945-1.463l0.83406-0.82631c1.2906-1.4064 1.9108-3.3018 1.7012-5.1992 0.29687-0.35036 0.57359-0.68198 0.88884-1.1286 0.17533-0.2484 0.35657-0.48397 0.66404-1.0919 0.15374-0.30398 0.36508-0.657 0.57981-1.6015 0.21473-0.94446 0.84103-3.557-1.7616-6.1759-5.6e-4 -5.68e-4 -0.77694-0.68328-1.125-0.9064-0.27763-0.17798-0.51545-0.28983-0.74776-0.39843 0.0176-1.1073-0.1471-2.9289-1.8852-4.6778-0.85741-0.8627-1.537-1.2129-2.1461-1.463 0.0814-0.22906 0.25468-0.43843 0.32608-0.66766 0.22099-0.70955 0.52721-2.0818 0.55862-3.2267 0.0314-1.1449-0.0526-2.0259-0.16588-3.4375-0.83695-10.427-3.5902-20.16-8.1406-27.664l-0.79685 1.7906c0.3062-0.68902 0.38169-1.4307 0.60306-2.1425-0.22545-0.36385-0.39518-0.79403-0.62942-1.1467l0.6687 1.0061c1.9211-6.3457 0.70263-13.384-3.5838-18.566-3.6723-4.4398-8.9516-7.101-14.506-7.3225zm-41.574 10.778c0.01165 0.0044 0.06354 0.0034 0.07441 0.0078-0.01071 0.0051-0.02289 0.0084-0.03359 0.01344-0.0126-0.0088-0.02819-0.01249-0.04082-0.02119zm-37.002 37.209c0.42396 0.83133 0.89535 1.521 1.324 2.0919 0.02669 0.03556 0.054 0.06284 0.0801 0.09767-0.03668 0.05595-0.07252 0.11246-0.10749 0.1695l-1.7456-1.8981zm22.062 26.699c1.8255 2.4948 3.3884 4.6647 5.3852 7.3613 0.70328 0.94974 1.2225 1.6545 1.8278 2.4748-0.43422 0.4585-0.79745 0.99058-1.1446 1.5214-0.41833 0.27499-0.81231 0.55099-1.2242 0.87282-0.15472 0.12088-0.2594 0.20168-0.39274 0.30489-0.14355 0.05836-0.2626 0.10552-0.42375 0.17157l-1.1762 0.48266c-0.4187 0.33902-0.79441 0.72793-1.1188 1.1581-1.3088-3.7683-1.8351-7.2497-1.8361-11.969-2.4e-4 -1.0096 0.06933-1.6003 0.10335-2.3787z" fill="#fff" stop-color="#000000" stroke-linecap="round" stroke-linejoin="round"/><path d="m63.106 120.3c0.33058-0.62148 0.5975-2.0725 0.48519-2.6376-0.0998-0.50204-0.18983-0.53584-2.0488-0.76927-5.8725-0.73738-12.258-2.8892-17.969-6.0556-2.4289-1.3466-2.5386-1.4349-2.424-1.9483 0.55414-2.4825 0.74397-2.8769 2.3071-4.7933l1.1842-1.4519-0.95919-7.5e-4c-0.52756-6.1e-4 -1.309-0.0988-1.7365-0.21826l-0.77728-0.21715 1.1754-0.48172c0.64644-0.26494 1.187-0.48213 1.2012-0.48263 0.01421-5.2e-4 0.54485-0.40646 1.1792-0.90209 0.63438-0.49565 1.2695-0.90117 1.4114-0.90117 0.14187 0 0.4918-0.4974 0.77765-1.1053 0.54743-1.1643 1.6159-2.0988 2.3998-2.0988 0.52686 0 0.78711-0.30884 0.96472-1.1448 0.07527-0.3543 0.3558-0.96878 0.62337-1.3655 0.26758-0.39673 0.42299-0.82777 0.34536-0.95788-0.07764-0.1301-2.2098-3.0302-4.7382-6.4446-4.0674-5.4928-7.9292-10.772-10.955-14.977-0.63009-0.87546-1.1573-1.4002-1.4818-1.4749-0.27703-0.0638-0.97256-0.37595-1.5456-0.6937-0.57305-0.31775-1.0882-0.57772-1.1447-0.57772-0.05656 0-0.37792 0.58592-0.71421 1.302-0.33628 0.71612-0.74846 1.4399-0.91595 1.6084-0.27335 0.27503-0.23492 0.39122 0.37526 1.1348l0.67979 0.82842-0.54164 1.833c-0.85044 2.8781-1.175 5.6349-1.174 9.9709 0.0015 7.541 1.3162 13.197 4.6644 20.07 2.3805 4.8868 4.9294 8.4743 9.1415 12.867 0.97701 1.0188 1.7035 1.8524 1.6144 1.8524-0.32717 0-4.0339-2.0824-5.9671-3.3523-10.872-7.1417-19.361-20.134-21.599-33.057-0.43632-2.5199-0.77952-7.5382-0.65998-9.6503 0.20962-3.7039 0.54661-6.6045 1.0819-9.312 0.88026-4.4526 0.80175-4.2662 2.2784-5.407 0.7129-0.55071 1.6244-1.3385 2.0256-1.7506l0.72939-0.74933-0.50777-0.55235c-0.27927-0.3038-0.96847-1.166-1.5316-1.9161-1.1554-1.539-1.2828-2.2508-0.65212-3.6427 1.0973-2.4219 3.552-3.763 5.5103-3.0105 0.72734 0.27949 1.0909 0.6255 2.0005 1.9038 0.96396 1.3547 1.2083 1.578 1.8392 1.6806 0.98442 0.16017 2.0171 0.91023 2.6184 1.9019 0.27367 0.45129 0.65038 0.8722 0.83715 0.93534 0.57698 0.19508 1.3464 1.2877 1.4745 2.0939 0.09642 0.60664 0.2994 0.8961 0.96633 1.378 0.51985 0.37562 1.0644 1.0331 1.4172 1.711 0.31511 0.60554 0.78144 1.2133 1.0363 1.3505 0.25486 0.13723 0.71712 0.59669 1.0273 1.021l0.5639 0.7715 0.11935-1.1625c0.06567-0.63936 0.20843-3.6857 0.31731-6.7697 0.10887-3.084 0.24712-6.3356 0.3072-7.2258l0.10924-1.6185-1.1123-0.25044c-0.61174-0.13775-1.8467-0.61808-2.7444-1.0674-4.1501-2.0773-6.7607-6.6327-6.4363-11.231 0.22325-3.1646 1.3153-5.5841 3.4953-7.7444 2.0682-2.0494 4.4739-3.0481 7.3794-3.0633 2.7457-0.01446 4.8891 0.70112 7.0335 2.3481 0.51223 0.39339 0.9771 0.71525 1.0331 0.71525 0.05597 0 0.45866-0.22669 0.89487-0.50375 2.552-1.6209 6.5755-3.2617 10.444-4.2592 4.6581-1.201 5.8825-1.3414 11.643-1.3355 4.6925 0.0045 5.4979 0.05442 7.3007 0.44954 1.1145 0.24426 2.1538 0.49331 2.3095 0.55345 0.17933 0.06926 0.56763-0.268 1.0587-0.91951 1.3912-1.8457 3.877-3.4756 6.2632-4.1065 4.6726-1.2355 10.066 0.59811 13.316 4.527 3.4222 4.1375 4.1355 9.1285 1.9936 13.948l-0.6106 1.374 1.1208 1.6848c4.1512 6.24 7.0601 15.853 7.877 26.03 0.22174 2.7625 0.21195 3.1195-0.11432 4.1671-0.44213 1.4195-0.93779 2.4281-1.8917 3.8492-0.89439 1.3325-1.0549 1.9046-0.79742 2.8427 0.57021 2.0778 2.9357 3.0964 5.2581 2.2641 0.4337-0.15542 0.82793-0.24294 0.87608-0.19449 0.1855 0.18665-1.3791 2.2809-2.2252 2.9785-1.0676 0.88025-1.2271 1.3447-0.69506 2.0252 0.98646 1.2618 3.6452 1.8386 5.6251 1.2205 0.54223-0.1693 1.0155-0.27802 1.0517-0.24161 0.13411 0.13494-1.5212 2.0733-2.3017 2.6953-0.44422 0.35399-1.4846 0.95829-2.3119 1.3429-0.82731 0.38459-1.5042 0.7395-1.5042 0.7887 0 0.35996 1.2558 0.79852 2.5664 0.89627l1.5138 0.1129-0.83366 0.8267c-0.45852 0.45468-1.1828 1.0242-1.6096 1.2655-0.56491 0.31946-0.92583 0.7469-1.3271 1.5717-2.0778 4.2711-7.114 10.338-11.669 14.058-6.5321 5.334-14.9 9.2622-23.671 11.112-1.6536 0.34869-1.7239 0.38772-3.1136 1.7276-1.8379 1.772-2.3145 1.8239-3.3937 0.36953l-0.74296-1.0013h-3.8428l-0.49616 0.75437c-0.54334 0.82609-1.6243 1.6545-2.8019 2.1474-0.7314 0.30608-0.75031 0.30387-0.55414-0.0649zm9.3723-3.3374c-0.33893-0.49564-0.66101-0.90116-0.71574-0.90116-0.05476 0 0.17778 0.40552 0.5167 0.90116 0.33893 0.49565 0.66101 0.90116 0.71575 0.90116 0.05476 0-0.17779-0.40551-0.51671-0.90116zm0.38922-1.0514c-0.30084-0.63332-0.51543-1.2041-0.47686-1.2683 0.03859-0.0643-0.05205-0.11682-0.20145-0.11682-0.19257 0-0.09074 0.36898 0.35002 1.2683 0.34188 0.69757 0.67868 1.2683 0.74844 1.2683 0.06973 0-0.1193-0.51816-0.42015-1.1515zm1.706 0.74217c0.1407-0.22906-0.15028-0.7202-1.0626-1.7935-0.89677-1.055-0.97315-0.58819-0.12891 0.78798 0.7481 1.2195 0.95359 1.3929 1.1915 1.0055zm-3.0904-5.0422c0-0.39703-0.55326-0.0701-1.4298 0.84493-1.3442 1.4032-1.1954 1.6359 0.23562 0.36843 0.65682-0.5817 1.1942-1.1277 1.1942-1.2134zm-6.3945 1.7083c-0.15562-0.19302-0.17202-0.27778-0.03814-0.19699 0.12927 0.0781 0.29354 0.0465 0.36506-0.0698 0.07154-0.11642 0.29863-0.15784 0.50471-0.092 0.28408 0.0907 0.40558-4e-3 0.50242-0.39236 0.11418-0.45777 0.30321-0.60975 0.57456-0.46196 0.05055 0.0275 0.52077-0.37053 1.0449-0.88461 1.2862-1.2614 2.4006-1.8175 3.4825-1.7376l0.85412 0.0632 0.0619-0.75009c0.11286-1.3678-1.1413-2.5484-2.7072-2.5484-1.8118 0-4.5888 2.1545-5.6188 4.3592-0.57893 1.2392-0.46364 2.022 0.3819 2.5934 0.80585 0.54452 0.96069 0.57541 0.59204 0.11814zm21.521-0.24227c0-0.40908-2.9777-4.055-4.7592-5.8272-2.143-2.1318-3.8637-3.207-5.1209-3.1997l-0.76827 4e-3 1.0358 0.60761c1.7153 1.0061 2.9964 2.3325 4.5127 4.6718 1.4539 2.2431 2.3165 3.1658 3.408 3.6456 0.69101 0.30373 1.6918 0.36142 1.6918 0.0975zm-10.748-1.124c0-0.33778-1.3939-0.89417-2.1894-0.87392l-0.89566 0.0228 0.91879 0.15627c0.50533 0.086 1.1771 0.29703 1.4928 0.46907 0.65927 0.35929 0.67349 0.36406 0.67349 0.22577zm1.7699-1.3219c-0.33381-2.1247-0.76569-3.0088-2.1496-4.4003-0.87253-0.87736-1.7551-1.5315-2.6343-1.9525-1.6321-0.78146-1.8143-0.79542-1.5589-0.1194 0.10676 0.28253 0.19411 0.74365 0.19411 1.0247 0 0.33064 0.27299 0.77761 0.77332 1.2661 0.71649 0.69961 1.0005 1.2756 1.2968 2.6299 0.09146 0.41804 0.26952 0.55714 0.85451 0.66756 0.97293 0.18365 2.0354 0.74378 2.6333 1.3882 0.26539 0.28607 0.5431 0.52013 0.61714 0.52013 0.07403 0 0.06221-0.46098-0.02633-1.0244zm-43.157-0.06c-0.33254-0.48629-1.1743-1.9267-1.8705-3.2008-0.69625-1.2742-1.3353-2.2506-1.42-2.1698-0.08476 0.0808-0.09457-0.0483-0.02181-0.28685 0.07282-0.23854 0.04017-0.49105-0.07251-0.56111-0.1261-0.0784-0.15446 4e-3 -0.0738 0.21627 0.08832 0.23157 0.05589 0.29687-0.09952 0.20025-0.15065-0.0937-0.18949-0.0357-0.11205 0.16741 0.20546 0.53869-0.11288 0.33737-0.51282-0.32434-0.30521-0.50497-0.33872-0.72042-0.16352-1.0514 0.19813-0.37425 0.18695-0.38851-0.11078-0.14139-0.18213 0.15116-0.33114 0.22611-0.33114 0.16657 0-0.0596-0.05326-0.27335-0.11829-0.47511-0.09838-0.30507-0.08214-0.31626 0.09647-0.0664 0.11812 0.16522 0.21329 0.21027 0.21148 0.10013-0.0045-0.28726-0.50773-0.91489-0.63257-0.78928-0.05777 0.0581-0.15983-0.0381-0.22684-0.21377-0.07056-0.18503-0.03904-0.26794 0.07493-0.19707 0.10822 0.0673 0.19676 0.0185 0.19676-0.10848 0-0.12696-0.17294-0.27632-0.3843-0.33194-0.24033-0.0632-0.3418-0.21254-0.27086-0.39856 0.09298-0.24378 0.1471-0.24925 0.29993-0.0304 0.14801 0.212 0.16868 0.20513 0.10015-0.0333-0.04747-0.16522-0.23247-0.28803-0.41108-0.27293-0.17861 0.0151-0.27564-0.0525-0.21563-0.1502 0.06003-0.0977 0.03543-0.17765-0.05468-0.17765-0.09009 0-0.3711-0.43934-0.62448-0.97631-0.25338-0.53697-0.66698-1.0709-0.91911-1.1865-0.30162-0.13825-0.49413-0.43794-0.56278-0.87606-0.05739-0.36625-0.24321-1.2066-0.41294-1.8675-0.58047-2.26-0.9242-4.4065-1.2347-7.7099l-0.31056-3.3043-1.3581-1.3312c-1.0544-1.0336-1.2407-1.295-0.83333-1.1691 1.5001 0.46365 2.8878 1.023 3.3687 1.3579 1.0106 0.70373 1.1186 0.71834 0.67474 0.09124-0.24243-0.34261-0.74377-0.81128-1.1141-1.0416-0.82023-0.51005-0.91184-0.73025-0.91184-2.1918 0-1.2688-0.1191-1.4369-2.0553-2.8999-0.52836-0.39922-0.91178-0.72587-0.85204-0.72587 0.46913 0 3.4679 1.1627 4.6414 1.7996 0.79778 0.43297 1.4505 0.7123 1.4505 0.62075 0-0.23803-1.5807-1.6717-2.342-2.1242-0.60066-0.357-0.64348-0.45542-0.64348-1.479 0-0.60311 0.10152-2.1041 0.2256-3.3355 0.21456-2.1295 0.24618-2.2338 0.64686-2.1341 0.23169 0.05768 0.67273 0.2812 0.98007 0.49676 0.94838 0.66512 0.86051 0.18987-0.15709-0.84962l-0.96753-0.98835 0.35968-2.4978 0.35967-2.4978-0.7248-0.99344c-0.8425-1.1548-1.3196-2.215-1.3196-2.9327 0-0.2789-0.05717-0.50708-0.12704-0.50708-0.06988 0-0.77559 0.49981-1.5683 1.1107l-1.4412 1.1107-0.42632 2.0434c-2.1107 10.117-1.8291 18.107 0.91833 26.054 2.1778 6.2992 4.9096 11.238 9.15 16.542 1.8983 2.3744 4.5727 5.407 4.7682 5.407 0.04972 0-0.18163-0.39788-0.51417-0.88417zm30.145-2.4784c1.5776-1.4544 3.4724-2.4644 4.8784-2.6004 0.88078-0.0852 0.99039-0.14799 0.99039-0.56777 0-0.25959-0.25538-0.75958-0.56751-1.1111-0.49164-0.55361-0.72536-0.65055-1.748-0.72498-2.4178-0.17596-4.4885 1.3238-6.0662 4.3937-0.5826 1.1336-0.63032 2.7564-0.09846 3.3483l0.37685 0.41939 0.43893-0.95322c0.27137-0.58931 0.95686-1.4307 1.7956-2.204zm-21.035-0.0417c0.0053-0.45511-0.0097-0.46422-0.16521-0.10014-0.09408 0.22029-0.16842 0.67087-0.1652 1.0013 0.0061 0.58583 0.0098 0.58832 0.1652 0.10012 0.08764-0.27535 0.16199-0.72592 0.16521-1.0013zm4.2149-0.29958c0.34258 0.21303 0.4048-0.30545 0.10634-0.88615-0.16868-0.3282-0.30386-0.75888-0.3004-0.95711 0.0053-0.28519 0.10985-0.23502 0.50253 0.24038 0.69334 0.8394 0.77955 0.95398 1.0566 1.4042 0.22958 0.37315 0.23676 0.36829 0.11459-0.0775-0.08843-0.32268-0.0595-0.43159 0.09002-0.33863 0.3636 0.22611 0.25893-0.0133-0.56992-1.3036-0.43465-0.67663-1.0771-1.9361-1.4277-2.7989-0.55691-1.3705-0.68278-1.5442-0.99647-1.3753-0.69942 0.37662-0.83634 0.94935-0.5766 2.4117 0.26512 1.4926 1.6124 4.5182 1.7491 3.9279 0.04491-0.19409 0.15831-0.30528 0.25193-0.24706zm0.89434-1.1022c-0.06762-0.11015-0.03348-0.20025 0.07602-0.20025 0.10947 0 0.25439 0.0901 0.32205 0.20025 0.06763 0.11014 0.03348 0.20026-0.07602 0.20026-0.10948 0-0.25439-0.0901-0.32205-0.20026zm12.948-0.22513c0.39282-0.87648 1.8281-2.4143 2.8724-3.0776 0.96286-0.61156 2.6344-1.103 3.7516-1.103h0.89038l-0.37916-0.42817c-1.4017-1.5828-4.5116-1.1512-6.5524 0.90954-1.6118 1.6274-2.5494 3.9794-1.8621 4.6709 0.33309 0.33515 0.87967-0.08 1.2793-0.97175zm22.48-0.17547c-0.64996-0.66085-1.0865-1.2016-0.97004-1.2016 0.11644 0 0.76299 0.3585 1.4368 0.79667 0.67379 0.43816 1.2251 0.75763 1.2251 0.70993 0-0.13476-3.9496-2.9196-4.8601-3.4269-0.9826-0.54741-2.1095-0.77782-2.8511-0.58296-0.51636 0.13569-0.48421 0.16567 0.54603 0.50944 0.60208 0.2009 1.01 0.37124 0.90651 0.37853-0.2469 0.0174 3.0565 2.2901 3.4031 2.3413 0.14648 0.0217 0.6824 0.40783 1.1909 0.85822 1.3478 1.1937 1.3342 1.0014-0.02708-0.38265zm-30.033-0.81642c-1.721-1.5826-4.0933-5.4274-4.0988-6.6432-0.0015-0.30289-0.06266-0.55071-0.13612-0.55071-0.28932 0-0.86156 0.68297-0.86156 1.0283 0 1.2158 1.8774 4.2928 3.4315 5.6241 1.982 1.6979 3.4372 2.1711 1.665 0.54151zm3.4707-1.2362c0.12273-0.4681 0.43887-1.244 0.70251-1.7242 0.26365-0.48021 0.43772-0.94091 0.38682-1.0238-0.05092-0.0829 0.10665-0.13924 0.35008-0.1253 0.24344 0.0139 0.87389-0.30029 1.401-0.69826 0.79716-0.60187 1.2408-0.7678 2.6372-0.98637 0.94722-0.14826 1.6788-0.36019 1.6788-0.48632 0-0.83619-1.6806-1.7164-3.2698-1.7125-1.2091 0.0027-2.6552 0.78872-3.9174 2.1286-1.6731 1.7761-2.2347 3.1475-1.7606 4.299 0.21172 0.51429 0.98175 1.147 1.4266 1.1722 0.07788 4e-3 0.24202-0.37497 0.36476-0.84308zm-8.2806-0.11993c-0.14516-0.42393-0.40985-1.617-0.5882-2.6512-0.17834-1.0342-0.36041-1.9168-0.4046-1.9612-0.1816-0.18273-0.68706 0.45774-0.68706 0.87058 0 0.8764 1.5116 4.5126 1.8759 4.5126 0.03731 0-0.05092-0.34684-0.19608-0.77077zm36.602-0.28058c-1.2032-1.9461-1.461-2.5069-1.461-3.1778 0-1.1039 0.6835-1.5783 2.2739-1.5783 1.5269 0 3.3718 0.46876 4.3214 1.098 1.497 0.99207 3.7051 1.3272 4.4801 0.68007 0.2127-0.17761 0.1168-0.33222-0.47862-0.77157-0.40954-0.30219-1.3044-1.1401-1.9886-1.8621-1.1441-1.2073-1.244-1.3841-1.244-2.2038 0-1.0622 0.62921-1.8259 1.7661-2.1436 1.5098-0.42194 2.6412-0.14108 6.1051 1.5154 2.227 1.065 3.1041 1.3298 1.9374 0.58481-1.0574-0.67512-1.6856-1.4099-2.2624-2.6463-0.73558-1.5767-0.73525-2.1359 0.0018-2.8774 0.66422-0.6683 1.2246-0.72833 2.6725-0.28633 2.4491 0.74761 4.6302 0.56955 5.0758-0.41439 0.31399-0.69337 0.31988-0.68555-0.51802-0.68681-1.0976-0.0015-2.2061-0.36368-2.4358-0.79551-0.58607-1.1018 0.24555-2.2983 1.5974-2.2983 0.67484 0 0.80741-0.07561 0.97359-0.55526 0.21167-0.61095 0.50552-0.72058 0.68313-0.25488 0.16643 0.43635 1.1949 0.37229 1.6206-0.10094 0.29934-0.33281 0.32202-0.48736 0.13281-0.90518-0.59034-1.3037-2.5367-1.0867-5.1764 0.57707-0.94834 0.5977-2.1913 1.3217-2.7622 1.6088-1.2846 0.64614-6.0699 2.6009-5.55 2.2672 7.4215-4.7643 10.071-7.5626 10.071-10.636 0-0.79014-8e-3 -0.79905-0.30982-0.36484-0.17043 0.24479-0.43911 0.44507-0.5971 0.44507-0.158 0-0.28727 0.07961-0.28727 0.17691 0 0.0973-0.15675 0.22583-0.34831 0.28562-0.19157 0.05979-1.02 0.4906-1.8411 0.95732l-1.4928 0.8486 2.059-1.9752c1.7586-1.687 4.6308-5.0267 3.502-4.072-1.5162 1.2824-4.718 3.793-5.0984 3.9978-0.25443 0.137 0.14681-0.41319 0.89167-1.2227 3.1184-3.3889 6.1699-7.7378 7.1444-10.182 0.39273-0.98502 0.44792-1.4647 0.42957-3.7336-0.0436-5.3857-1.1901-10.707-3.1389-14.569-0.70869-1.4043-1.2531-2.5533-1.2099-2.5533 0.0433 0 0.36028 0.41186 0.7045 0.91524s0.66563 0.87521 0.71424 0.8263c0.15377-0.15471-0.94214-3.1655-1.9131-5.2559-1.1163-2.4032-2.9501-5.345-3.2638-5.2358-0.23419 0.08153-0.25425 0.75551-0.0429 1.4408 0.35131 1.139-3.8133 1.721-6.4811 0.90567-0.79668-0.24347-1.9443-0.69514-2.5502-1.0037-1.1973-0.6097-3.1916-2.1253-3.1916-2.4256 0-0.10263 0.44268 0.03913 0.98373 0.31497 0.82576 0.42102 4.1467 1.516 4.5617 1.5041 0.06988-0.0022-0.67504-0.45656-1.6553-1.0101-5.2539-2.9667-8.7215-6.1369-9.9533-9.0993-0.89324-2.1481 0.11584-5.4575 2.2348-7.3295 1.4691-1.2978 4.9074-2.4309 6.3743-2.1006l0.53878 0.1213-0.49758-0.29492c-0.27364-0.16222-0.81102-0.30711-1.1942-0.32199-0.64252-0.02497-0.65798-0.03951-0.19903-0.1874 0.80106-0.25812 2.078-0.22202 2.9374 0.08306 0.74764 0.2654 0.7921 0.26028 0.7034-0.08098-0.18514-0.71233-2.6137-1.0145-4.676-0.58181-3.3881 0.7109-6.0645 3.1319-6.8433 6.1905-0.69162 2.7163 0.11469 5.3679 2.6731 8.7909l0.52799 0.70643-1.2049-0.927c-1.7894-1.3768-2.9636-2.901-3.7874-4.9165l-0.47174-1.1542-0.05672 2.6034-0.2558-1.0013c-0.35055-1.3722-0.34975-2.6552 0.0022-3.8231 0.16302-0.54069 0.29737-1.0896 0.29856-1.2197 0.0053-0.56307-4.9935-1.2653-9.0068-1.2653-6.2769 0-12.739 1.4037-17.921 3.8925-8.2167 3.9466-11.065 9.1421-11.684 21.311-0.11004 2.1636-0.34456 6.6596-0.52115 9.9909-0.1766 3.3314-0.2822 7.4767-0.23466 9.2119 0.08071 2.9463 0.12198 3.2243 0.62425 4.2062 0.29581 0.57825 0.55872 1.0507 0.58424 1.0499 0.0255-7.56e-4 0.05837-1.2399 0.07304-2.7536 0.01467-1.5137 0.2187-4.4643 0.45344-6.557 0.23474-2.0927 0.51256-4.5709 0.61738-5.5071 0.10481-0.93621 0.28488-3.5045 0.40015-5.7074 0.21102-4.0327 0.40893-5.5529 0.89643-6.8856 0.23021-0.62939 0.26712-0.65864 0.28196-0.22352 0.0094 0.27535 0.09203 0.61959 0.18365 0.76497 0.22777 0.36143 1.0784-0.66702 1.4957-1.8084 0.17275-0.47245 0.51022-1.3997 0.74993-2.0606l0.43585-1.2015 0.22565 1.0043c0.19224 0.85555 1.0812 2.794 1.2144 2.6482 0.02399-0.02634 0.68549-0.85887 1.4699-1.8502 1.4036-1.7737 2.1098-2.9184 2.4092-3.905 0.1482-0.48843 0.1524-0.48599 0.17206 0.10013 0.04137 1.2328 0.24964 1.2214 2.0277-0.11146 2.0369-1.5268 5.7497-3.3886 6.7627-3.3912 0.97359-0.0022 1.278 0.39622 2.0867 2.7329 0.37446 1.082 0.68083 1.9953 0.68083 2.0297 0 0.03436 0.44216-0.47206 0.98258-1.1254 0.61103-0.73876 1.3388-1.3615 1.9247-1.6468 0.94048-0.45807 0.94562-0.45831 2.9483-0.13319 3.4296 0.55675 7.77 1.9896 11.12 3.6711 0.96234 0.48298 1.8244 0.87816 1.9157 0.87816 0.09131 0 0.29719-0.27252 0.45752-0.60561l0.29151-0.6056 0.5323 1.2564c0.88128 2.0801 3.0396 4.6834 5.1167 6.1715l0.54727 0.39209-0.09361-1.6523-0.09361-1.6523 0.44477 0.60077c0.24462 0.33043 2.0641 2.2235 4.0433 4.2069 3.8884 3.8966 5.531 6.0107 7.1183 9.1619 2.6525 5.2658 2.8095 8.9562 0.57289 13.466-1.1926 2.4046-2.4862 4.1733-4.886 6.6804-3.2189 3.3628-6.518 5.7459-12.671 9.1532-2.1184 1.1731-3.893 2.1723-3.9436 2.2205-0.27593 0.26274 5.232-0.72098 6.8512-1.2236 0.82543-0.25624 1.5008-0.43692 1.5008-0.40153 0 0.08316-2.2104 1.2937-5.4734 2.9976-4.6396 2.4227-7.5199 4.5203-10.322 7.5172l-1.5397 1.6468-1.732-1.6887c-2.8327-2.7619-4.5742-3.9887-6.7223-4.7353-3.2737-1.1379-3.3237-0.56043-0.10448 1.2043 3.0166 1.6537 9.7327 7.0611 10.513 8.4649 0.20462 0.36788 0.27126 0.34059 1.1432-0.46808 0.94263-0.87423 1.9768-1.429 2.6639-1.429 0.20986 0 0.52829-0.2253 0.7076-0.50065 0.37251-0.57201 0.42399-0.56126-1.5098-0.31521-2.4812 0.3157-3.7463 0.39303-3.7463 0.22898 0-0.41968 3.5845-1.91 8.1604-3.3928 2.7915-0.90456 5.5659-1.8182 6.1654-2.0303l1.09-0.3856-0.59243 0.48976c-0.32584 0.26937-1.5142 1.0361-2.6408 1.7039-1.1266 0.66778-2.4175 1.5484-2.8687 1.957-0.73087 0.66195-2.2859 2.8102-2.1156 2.9226 0.03656 0.0241 0.57526 0.19951 1.1972 0.38979 0.66162 0.20244 1.7351 0.79291 2.5874 1.4232 1.6304 1.2057 1.6401 1.2116 1.425 0.86352zm-9.2233-7.3502c0-0.48246 1.0884-1.8257 2.1542-2.6586 2.3769-1.8574 4.0799-2.7087 10.783-5.3899 1.9157-0.76628 5.0505-2.1731 6.9662-3.1263 1.9157-0.95321 3.5598-1.7704 3.6536-1.816 0.23218-0.11293-1.338 1.2987-2.5589 2.3004-1.2962 1.0635-4.0631 2.8633-5.573 3.625-0.65681 0.33134-2.8959 1.3406-4.9759 2.2429-4.4102 1.9131-9.1196 4.1328-9.9019 4.6669-0.30104 0.20556-0.54734 0.27556-0.54734 0.15555zm16.851-5.3371c1.9556-0.95172 5.8388-2.6743 5.8388-2.5901 0 0.1018-2.1299 1.4708-2.8962 1.8616-0.75266 0.38379-4.4131 1.6691-4.6517 1.6334-0.06319-0.0095 0.70591-0.41666 1.7091-0.90487zm0.56443-7.022c0.38133-0.37954 1.9999-1.6108 3.3836-2.5738 1.2493-0.86957 1.3316-0.90174 0.79614-0.31147-0.58697 0.64709-2.0135 1.6878-3.5826 2.6136-0.43787 0.25837-0.70657 0.38062-0.5971 0.27167zm12.523-14.633c0.448-1.4202 0.74364-3.8333 0.85286-6.9614 0.12237-3.5047 0.13338-3.5769 0.39705-2.6034 0.41868 1.5459 0.5521 4.492 0.26898 5.9398-0.26997 1.3806-1.1315 3.7041-1.446 3.8997-0.12035 0.07485-0.14903-0.0333-0.0729-0.27478zm-61.672-33.696c0.22252-1.1832 1.3775-3.4538 2.2692-4.461 0.77254-0.87265 2.3757-2.1475 2.7006-2.1475 0.07334 0-0.32628 0.50604-0.88809 1.1245-1.2632 1.3907-2.6547 3.3385-3.5409 4.9567-0.58791 1.0735-0.65601 1.1399-0.5408 0.52727zm9.5698 66.235c-0.04987-0.19289-0.01655-0.30463 0.07402-0.24829 0.09059 0.0563 0.45437-0.40696 0.8084-1.0295 0.35402-0.62257 0.80435-1.2704 1.0007-1.4396 0.19638-0.16918 0.30302-0.39556 0.23698-0.50308-0.06657-0.10836-0.01768-0.13179 0.10971-0.05258 0.12639 0.0786 0.22979 0.04219 0.22979-0.081 0-0.12314 0.09685-0.16368 0.2152-0.09008 0.11837 0.07363 0.45423-0.0914 0.74638-0.36666 0.94965-0.89481 2.2202-1.4022 3.7655-1.5037 0.79365-0.05213 1.443-0.1591 1.443-0.23769 0-0.27189-0.71518-0.79222-1.6777-1.2206-0.76815-0.34188-1.1726-0.40267-1.9706-0.29617-2.9035 0.38754-6.0876 3.4137-6.4497 6.1298-0.12885 0.96658 0.17594 1.3852 0.96872 1.3306 0.4546-0.0313 0.56934-0.12126 0.49951-0.39141zm16.79-0.64541c0-0.12146-1.1227-0.70878-1.3336-0.69765-0.08754 4e-3 0.15432 0.18106 0.53746 0.39212 0.78449 0.43213 0.79614 0.4366 0.79614 0.30553zm-18.27-3.009c1.2559-1.6245 2.6231-3.031 2.6407-2.7164 3e-3 0.04799 0.61655-0.21572 1.3642-0.58603 0.95147-0.47129 1.7536-0.70776 2.6734-0.78816l1.3141-0.11487-0.63272-0.59956c-0.81001-0.76755-1.6525-1.0694-3.0223-1.083-1.4574-0.01446-2.4532 0.47409-3.7117 1.8207-1.2616 1.35-2.0603 2.8815-2.0603 3.9505 0 1.0118 0.52527 1.413 0.98181 0.74987 0.16392-0.23808 0.36769-0.52299 0.45284-0.63314zm21.384-5.7993c0.56354-0.25738 1.3878-0.83337 1.8317-1.28 0.98428-0.99034 2.0156-2.7509 2.0182-3.4451 0.0022-0.51728-1.0537-2.3992-1.3372-2.384-0.08451 0.0045-0.3622 0.45557-0.61708 1.0023-0.25489 0.54676-0.92236 1.4993-1.4833 2.1169l-1.0198 1.1227-0.25405-1.1255c-0.38823-1.7199-1.3358-3.3249-1.9629-3.3249-0.26116 0-0.47254 1.0034-0.50625 2.4031l-0.02174 0.90117-0.3288-1.0013c-0.43389-1.3213-0.74512-1.8446-1.263-2.1235-0.35252-0.18983-0.47391-0.16635-0.69205 0.13382-0.31248 0.42997-0.34273 1.5178-0.06891 2.4784 0.3386 1.1879 0.05702 0.91135-0.78238-0.76836-1.0555-2.1122-1.6026-2.1523-1.6026-0.11751 0 0.47946 0.07644 1.0804 0.16989 1.3354 0.09344 0.25499 0.22651 0.6995 0.29572 0.9878l0.12584 0.52418-0.80159-0.39904c-0.44087-0.21947-0.85344-0.34686-0.91682-0.28309-0.29491 0.29671 1.8466 2.4607 3.1173 3.15 1.5844 0.85946 4.3343 0.90301 6.1 0.0966zm-22.12-2.7519c-0.485-0.78414-0.83533-1.5014-0.77849-1.5939 0.0568-0.09251 0.01722-0.16821-0.08799-0.16821-0.19428 0-0.69246-1.2038-0.5553-1.3418 0.11037-0.11105 1.3457 1.8756 1.4007 2.2526 0.02588 0.17753 0.16039 0.39323 0.29887 0.47935 0.13848 0.08611 0.23545 0.19155 0.21548 0.23431-0.07237 0.15498 0.70491 1.3755 0.93251 1.4643 0.31744 0.12381-0.19545-1.1116-0.9737-2.3454-1.0202-1.6173-0.50443-1.2289 0.62359 0.46963 1.1063 1.6658 1.3188 1.9015 1.4792 1.6404 0.11871-0.19326-2.3657-3.354-2.6363-3.354-0.10705 0-0.56944-0.58575-1.0275-1.3017-0.45808-0.71592-1.2843-1.8637-1.8361-2.5506-0.79467-0.98928-1.0595-1.2019-1.274-1.0228-0.14892 0.12436-0.29572 0.19073-0.32621 0.1475-0.4271-0.60565-0.73238-1.2361-0.7377-1.5234-0.0038-0.19662-0.24994-0.69109-0.54734-1.0988-0.95471-1.3088-3.9134-5.4686-4.2509-5.9765-0.17961-0.2703-0.37476-0.4453-0.43368-0.38888-0.05889 0.05639 0.72175 1.3631 1.7348 2.9037 1.7284 2.6286 3.4235 5.5047 3.2442 5.5047-0.09237 0-1.7757-2.1557-2.0328-2.6034-0.15339-0.26701-0.13152-0.26701 0.19678 0 0.34718 0.28236 0.35484 0.27302 0.12773-0.1558-0.13289-0.2509-0.31983-0.40754-0.41543-0.3481-0.1995 0.12406-1.0145-0.95313-1.0845-1.4335-0.02572-0.17648-0.20544-0.43758-0.39933-0.58023-0.19389-0.14265-0.3052-0.3364-0.24736-0.43058 0.05784-0.09416-0.20188-0.47329-0.57718-0.84248-0.59652-0.58684-0.77654-0.95198-0.71272-1.4456 0.02972-0.22953-0.73488 0.06024-0.83219 0.31538-0.05168 0.13552 0.88444 1.591 2.0803 3.2345 1.1958 1.6434 3.1579 4.3398 4.3602 5.9919 1.2023 1.6521 2.3171 3.1841 2.4774 3.4044 0.27124 0.37278 0.29187 0.33554 0.29776-0.53767 0.0038-0.516-0.07636-1.157-0.17744-1.4245-0.21272-0.56292-1.045-0.91024-0.88229-0.3682 0.05408 0.18028-0.03332 0.10553-0.1942-0.1661-0.16092-0.27164-0.26136-0.65704-0.22319-0.85645 0.03814-0.1994-0.01098-0.31256-0.10925-0.25147-0.09825 0.06108-0.27082-0.06221-0.38348-0.27401-0.15064-0.2832-0.13361-0.44458 0.06439-0.60989 0.37109-0.30988 0.986 0.62856 0.81462 1.2432-0.09075 0.32549-0.07184 0.36675 0.07191 0.15707 0.15326-0.22354 0.32641-0.07588 0.80917 0.69004 0.33781 0.53594 0.61419 1.0973 0.61419 1.2474 0 0.15745 0.09857 0.21171 0.23286 0.1282 0.159-0.09887 0.19033-0.03331 0.09878 0.20675-0.25286 0.66298 0.44155 2.6855 1.3096 3.8142 0.45636 0.59343 0.89807 1.0365 0.9816 0.98453 0.08353-0.05192-0.24495-0.73601-0.72994-1.5201zm6.1946 0.33406c0.43584-0.09625 0.50007-0.07562 0.27202 0.08739-0.23391 0.16719-0.14774 0.2115 0.39807 0.20468 0.618-0.0077 0.65418-0.03565 0.32057-0.24726-1.6961-1.076-2.7142-1.802-2.6365-1.8801 0.05085-0.05117 0.27398 0.0045 0.4958 0.12411 0.53618 0.28872 4.0021 1.2181 4.5071 1.2086 0.56656-0.01068-0.20606-0.40824-3.3242-1.7105-2.3357-0.97544-4.4707-2.0448-5.7231-2.8666-0.2689-0.17644 0.53719 0.96577 1.7913 2.5382 2.4677 3.094 2.1967 2.9174 3.899 2.5414zm2.9287-3.6646c0.0695-0.75245 0.18217-1.6488 0.25038-1.992l0.12401-0.62384 0.85555 1.1409c0.47055 0.62747 1.132 1.4055 1.47 1.729l0.61444 0.58818v-0.91576c0-1.0245 0.9581-3.1049 1.3849-3.0071 0.1371 0.03141 0.36696-0.04117 0.5108-0.16129 0.21395-0.17866 0.19503-0.37119-0.10402-1.0584-0.20106-0.46199-0.42678-1.2606-0.50163-1.7746-0.10584-0.72685-0.23116-0.95896-0.56379-1.0441-0.87044-0.22296-3.6117-2.1292-3.8371-2.6683-0.31634-0.75643-0.0037-1.5186 0.96476-2.3528 1.1096-0.95561 2.2846-1.3109 4.3355-1.3109 1.9438 0 3.2207 0.35221 4.0366 1.1134 0.92015 0.85846 0.74834 1.3809-1.0014 3.0451-0.84839 0.80692-1.7888 1.6176-2.0899 1.8015-0.30104 0.18389-0.54735 0.50722-0.54735 0.71852 0 0.72692 0.46629 1.9482 0.94036 2.4628 0.54552 0.59224 0.7956 0.51459 0.44791-0.13909-0.20099-0.37787-0.12171-0.3519 0.53122 0.17407 1.0882 0.8766 2.2638 1.3489 2.4932 1.0016 0.25074-0.37953 1.4566 1.0686 1.9232 2.3095l0.36568 0.97263 1.0007-1.5734c0.55037-0.86537 1.0638-1.7762 1.1409-2.024 0.07712-0.24782 0.21614-0.45058 0.30892-0.45058 0.26088 0 1.7935 2.0039 2.2505 2.9426l0.40891 0.83984 0.6771-1.0892c0.68248-1.0978 1.4438-3.0035 1.4438-3.6139 0-0.65994 0.56283 0.12409 1.0301 1.4349 0.25252 0.70845 0.52254 1.2881 0.60003 1.2881 0.07748 0 0.41453-0.5769 0.74899-1.282 0.44098-0.92966 0.65604-1.7578 0.78252-3.0133 0.09593-0.95222 0.22443-1.7816 0.28556-1.8431 0.06115-0.06153 0.2348 0.31483 0.38593 0.83632l0.27478 0.94816 0.52397-1.0772c0.62261-1.28 1.9422-2.723 2.6547-2.9029 0.33839-0.08545 0.61504-0.02248 0.82375 0.18753 0.3925 0.39492 0.54614 2.1543 0.28716 3.2885l-0.19391 0.84929 0.54945-0.39365c1.8063-1.2941 5.0977-5.8884 6.1297-8.5561 0.33197-0.85812 0.67938-1.7405 0.77201-1.9607 0.32066-0.7626 0.30863 3.0674-0.01306 4.1717-0.16351 0.56124-0.26462 1.0533-0.22467 1.0935 0.12595 0.12672 1.0594-1.6144 1.4808-2.762 0.68244-1.8586 1.003-3.5956 1.1442-6.1998 0.12981-2.3941 0.14588-2.4642 0.39745-1.7331 0.14421 0.41908 0.35273 1.4885 0.4634 2.3766 0.11067 0.88803 0.23766 1.6513 0.28219 1.6961 0.0445 0.04481 0.19105-0.57519 0.3256-1.3778 0.49669-2.9629-0.12181-6.2351-1.8664-9.8742-1.2883-2.6875-2.9896-4.9974-5.1638-7.0115-1.464-1.3561-1.6438-1.4682-1.7362-1.0822-0.09395 0.39237-0.26185 0.30147-1.8908-1.0236-0.98325-0.79981-2.2474-1.9024-2.8093-2.4502l-1.0216-0.99601-0.52885 0.34865c-0.36744 0.24223-0.90105 0.34333-1.7484 0.33124-0.67074-0.0095-1.4061 0.07624-1.6341 0.19067-0.22803 0.11444 0.14518-0.30316 0.82936-0.928 0.68418-0.62484 1.244-1.2048 1.244-1.2888 0-0.285-3.671-2.1794-5.971-3.0813-3.5786-1.4033-7.4348-2.3412-9.6258-2.3412h-1.0234l-1.2491 1.552c-0.68703 0.8536-1.3736 1.7321-1.5258 1.9522-0.15217 0.22011-0.31288 0.35529-0.35713 0.30039-0.04423-0.05488-0.60393-1.2951-1.2438-2.7561-1.0403-2.3755-1.2071-2.6432-1.5779-2.5325-1.265 0.37773-6.012 2.7514-6.5477 3.2742-0.1741 0.16987 0.9875 1.1656 1.933 1.657 0.56989 0.29618 0.55942 0.30093-0.89313 0.4055-0.93865 0.06759-1.8507 0.0061-2.524-0.17046l-1.0542-0.27628-0.64011 0.73171c-0.35206 0.40243-1.0298 1.2357-1.506 1.8516-0.47626 0.61595-0.94792 1.1199-1.0481 1.1199-0.1002 0-0.34391-0.24806-0.54158-0.55124l-0.35939-0.55123-0.92407 1.3607c-0.50824 0.7484-1.1512 1.5754-1.4287 1.8378-0.40288 0.38082-0.50466 0.66894-0.50466 1.4287v0.9517l1.1016 0.50741c0.85868 0.39553 1.1659 0.66227 1.3932 1.2098 0.38899 0.93672 0.37426 0.97919-0.2069 0.59605-0.38111-0.25125-0.5633-0.27466-0.77322-0.09936-0.21866 0.18259-0.3005 0.12564-0.40153-0.27939-0.10872-0.43584-0.20467-0.48995-0.66978-0.37772-0.29858 0.07206-0.56139 0.14444-0.584 0.16088-0.02264 0.01642-0.09321 1.378-0.15687 3.0258-0.14601 3.7793-0.43683 7.0654-0.84114 9.5043-0.19011 1.1468-0.31766 3.1354-0.32112 5.0065-0.0061 3.3078 0.23517 4.8071 1.0797 6.7087l0.44468 1.0013 0.37926-2.2 0.34 1.1056c0.52679 1.7131 1.5576 3.4923 2.8135 4.8563l1.1459 1.2445-0.1089-0.8511c-0.06778-0.52989-0.03017-0.8511 0.09982-0.8511 0.1148 0 0.91722 0.6706 1.7832 1.4902l1.5744 1.4902-0.18434-2.2365 0.57434 0.14426c1.3243 0.33266 2.5194 1.3771 3.1394 2.7435 0.38958 0.85871 0.49235 0.97384 0.51211 0.57366 0.01858-0.37696 0.14496-0.20928 0.51142 0.67874 0.59649 1.4454 2.243 3.7269 2.6897 3.7269 0.07327 0 0.19008-0.61565 0.25959-1.3681zm-5.6087-10.047c0.03979-0.84456-0.01309-1.4033-0.13294-1.4049-0.11255-0.0015-0.10259-0.06652 0.02295-0.14974 0.12208-0.08093 0.28437-0.34833 0.36063-0.59424l0.13866-0.4471-1.0572 0.49521c-1.3159 0.61638-3.0628 0.66528-4.2579 0.11918-2.1216-0.96949-3.666-3.9634-3.666-7.1064 0-1.0254-0.30173-0.76616-0.83047 0.71364l-0.38067 1.0654 0.09167-1.6021c0.07455-1.3024 0.28077-2.103 1.1027-4.2802 1.4677-3.8874 2.1488-5.172 3.4234-6.4557 1.4437-1.4541 2.4431-1.8504 4.4136-1.7503 2.7141 0.1379 3.9718 1.4768 5.7095 6.0779 0.1401 0.37096 0.20446 0.34421 0.87195-0.36249 0.82303-0.87136 1.4147-2.5875 1.2398-3.5959-0.11011-0.63474-0.10462-0.63172 0.27825 0.15353 0.86074 1.7653 0.29789 4.7163-1.1302 5.9253-0.55356 0.46865-0.60133 0.62176-0.72031 2.3083-0.1734 2.458-0.729 4.1281-2.0328 6.1106-1.1999 1.8245-1.4748 2.569-1.5064 4.0796-0.01504 0.72019-0.05883 0.8649-0.15587 0.51549-0.22864-0.82321-0.55945-0.68308-1.1229 0.47567-0.29728 0.61136-0.58213 1.1116-0.633 1.1116-0.05085 0-0.06274-0.63101-0.02641-1.4023zm25.542-3.0034c-0.74148-0.55072-1.4702-1.0013-1.6195-1.0013-0.33244 0-0.35028 0.47805-0.03972 1.0645 0.213 0.40226 0.2037 0.41423-0.11576 0.14901-0.3546-0.2944-1.3849-2.2158-1.7848-3.3286-0.123-0.34224-0.79096-1.1018-1.4988-1.7043-1.6051-1.3662-3.0728-3.4769-3.6779-5.2891-0.40947-1.2262-0.53762-1.4133-1.0401-1.5185-2.1888-0.45816-3.4575-2.2989-3.4414-4.9932l9e-3 -1.5019 0.2659 0.85674c0.47898 1.5433 1.5872 2.6226 3.2105 3.1267 0.38458 0.11942 0.43679 0.01537 0.65288-1.3012 0.46395-2.8266 2.0072-4.9697 4.1832-5.8094 2.4118-0.93061 6.0496-0.4639 8.64 1.1085 2.306 1.3998 7.4239 6.1973 8.165 7.654 0.28428 0.55876 0.77154 2.8757 0.60478 2.8757-0.03596 0-0.24236-0.34913-0.45873-0.77584-0.37027-0.73025-1.4466-1.8275-1.7927-1.8275-0.08642 0-0.0258 0.56323 0.13468 1.2516 0.50569 2.169-0.01114 4.8475-1.1761 6.0952l-0.41354 0.4429 0.48079 0.12141c0.64155 0.16201 1.3568-0.13406 2.2676-0.93872 0.41354-0.36533 0.71001-0.57413 0.65882-0.464-0.05123 0.11013-0.29869 0.63844-0.54999 1.174-0.36154 0.77056-0.43057 1.1676-0.33074 1.9025l0.12617 0.92866-0.3744-0.47436c-0.3232-0.40947-0.43481-0.44184-0.816-0.23657-0.64668 0.34821-1.5058 0.3188-2.3887-0.0818-0.74691-0.33888-0.8207-0.33809-1.8412 0.0196-1.5399 0.53974-4.4687 0.4972-5.9276-0.08609-0.59555-0.23812-1.1076-0.40799-1.1379-0.3775-0.05243 0.05276 1.5404 2.5364 2.2381 3.4896 0.18138 0.24782 0.28632 0.45058 0.2332 0.45058-0.0531 0-0.70325-0.45058-1.4447-1.0013zm-33.139 8.7423c0-0.03799-0.20152-0.24076-0.44782-0.45058l-0.44783-0.38149 0.37916 0.45058c0.35631 0.42344 0.51649 0.54174 0.51649 0.38149zm-3.8665-3.6905c-0.34389-0.33047-0.34922-0.3251-0.1213 0.12205 0.13112 0.25725 0.293 0.41281 0.35971 0.34568 0.06672-0.06713-0.04054-0.27761-0.2384-0.46773zm-3.6039-4.9606c0.45665-0.60238 0.49843-0.75806 0.27587-1.0279-0.23411-0.28382-0.27816-0.26673-0.41015 0.15919-0.12106 0.39064-0.13696 0.35916-0.08769-0.17368 0.0741-0.80179 0.02226-0.81035-0.36335-0.06002-0.31565 0.61416-0.40055 1.4478-0.17097 1.6788 0.18691 0.18806 0.16291 0.20635 0.7563-0.5764zm-1.1737-1.7207c0.28499-0.56586 0.44099-1.084 0.34668-1.1515-0.09432-0.06744-0.7041-0.87376-1.3551-1.7918-1.1801-1.6641-1.8263-1.971-0.78675-0.37357 0.38841 0.59682 0.43386 0.74013 0.1565 0.4934-0.28283-0.25158-0.45105-0.28719-0.60848-0.12878-0.15744 0.1584-0.31159 0.07462-0.55757-0.30312-0.38409-0.5898-0.69225-0.67926-0.69225-0.20098 0 0.25288 2.7468 4.447 2.9324 4.4775 0.0255 0.0045 0.27958-0.45535 0.56456-1.0212zm-0.67258-0.98709c-0.14128-0.22762-0.3469-0.65209-0.45693-0.94326-0.18226-0.48232-0.13614-0.4632 0.51846 0.21498 0.39517 0.4094 0.66353 0.83386 0.59634 0.94326-0.18584 0.30254-0.37503 0.24072-0.65787-0.21497zm-0.87429-0.43724c-0.70727-0.94803-0.86916-1.3489-0.26287-0.65084 0.54245 0.62453 0.97492 1.3017 0.83132 1.3017-0.04558 0-0.30139-0.29288-0.56845-0.65084zm-5.9879-5.9744c0.87122-1.2114 1.4016-1.6537 2.2465-1.8733l0.49759-0.12934-0.49759 0.32258c-0.35048 0.22721-0.3799 0.2821-0.09952 0.1857 0.21894-0.07531 0.89068-0.19523 1.4928-0.26655l1.0947-0.12968-0.84992-0.34806c-0.46746-0.19143-1.0496-0.3513-1.2937-0.35526-0.42695-0.0067-0.4226-0.02467 0.11455-0.46694 0.47806-0.39362 0.51639-0.49477 0.26655-0.70339-0.16048-0.13401-0.60898-0.29545-0.99665-0.35875-0.8487-0.13857-2.1665 0.5557-2.8635 1.5086-0.61033 0.8344-0.56351 0.99973 0.09538 0.33678 0.55218-0.55557 1.9872-1.4114 1.4969-0.8927-0.46179 0.48851-0.25304 0.61391 0.32845 0.19731 0.31749-0.22746 0.8101-0.39417 1.0947-0.37047 0.28459 0.02369 0.51745 0.05994 0.51745 0.08051 0 0.02059-0.39553 0.27064-0.87895 0.55569-1.4868 0.87669-3.1064 3.0947-3.0857 4.2259 0.0067 0.38727 0.01519 0.38805 0.24442 0.02392 0.1304-0.20711 0.61444-0.90127 1.0757-1.5426zm3.5402-0.15768 1.3932-0.39796-0.95849-0.01423c-1.2866-0.01907-2.4206 0.6263-2.9659 1.688-0.1339 0.26068 0.02881 0.17736 0.4661-0.23866 0.45019-0.42831 1.1315-0.77047 2.0651-1.0371zm-3.9374-4.0382c0.50743-0.32378 1.2203-0.64488 1.5841-0.71356 1.0678-0.20156 0.702-0.68106-0.51958-0.68106-1.1003 0-2.6588 1.6087-3.104 3.2041-0.10502 0.37634 0.01624 0.28693 0.48858-0.36009 0.34556-0.4734 1.0435-1.1256 1.5509-1.4494zm-3.2292-0.69371c0.86877-1.3688 1.7977-2.2336 2.8222-2.6272 0.9131-0.35086 1.0562-0.65256 0.55082-1.1611-0.28021-0.28193-0.38203-0.28234-1.0449-0.0038-1.8763 0.78738-3.9648 4.1018-3.5001 5.5545 0.13348 0.41722 0.15156 0.40867 0.33874-0.16004 0.10875-0.33042 0.48372-1.0514 0.83326-1.6021zm-2.2832-0.56253c0.0022-0.13118 0.18788-0.64403 0.41215-1.1397 0.38737-0.85606 0.42213-0.88156 0.69448-0.50936 0.28089 0.38385 0.29351 0.38182 0.6222-0.10014 0.42477-0.62281 1.3902-1.5753 2.1232-2.0947l0.56617-0.4012-0.7658-0.95154-0.88296 0.39298c-0.97737 0.435-1.962 1.4541-2.5772 2.6676-0.47928 0.94527-0.7835 2.7395-0.42688 2.5178 0.1267-0.07879 0.23232-0.25057 0.23472-0.38174zm-0.58675-3.033c0.09887 0.06145 0.12889-0.02157 0.06672-0.1846-0.16306-0.42753 1.0199-1.6185 2.307-2.3225 0.96522-0.52798 1.029-0.59923 0.53942-0.60242-0.79008-0.0053-2.0238 0.68184-2.6077 1.4521-0.74078 0.97719-1.308 2.3569-1.2952 3.1502 0.01068 0.65995 0.03468 0.63354 0.41069-0.45183 0.21964-0.634 0.48025-1.1024 0.57911-1.041zm-0.04107-2.7577c0.14024 0.03028 0.20308-0.02944 0.13965-0.13274-0.06341-0.10327 0.12256-0.36212 0.41332-0.57523 0.31823-0.23324 0.44418-0.44 0.31643-0.51944-0.3471-0.21584-1.3721 0.80654-1.9222 1.9173-0.74273 1.4996-0.62035 1.8772 0.148 0.45663 0.35743-0.66085 0.76462-1.1768 0.90485-1.1465zm-0.58714-1.4122c0.32934-0.27882 0.71406-0.54597 0.85494-0.59367 0.44948-0.15217-0.22678-0.75262-0.84764-0.75262-0.5777 0-1.6387 0.7579-1.9927 1.4234-0.257 0.48316-0.16287 0.47792 0.41101-0.02285 0.47978-0.41867 0.7464-0.40616 0.48298 0.02271-0.08388 0.13656-0.16398 0.4805-0.17798 0.76429-0.01399 0.28379-0.0913 0.74128-0.17177 1.0166-0.08048 0.27535 0.07614 0.08405 0.34803-0.42512 0.2719-0.50917 0.76381-1.1539 1.0931-1.4327zm-1.4475-1.4592c1.1642-0.85866 1.1848-0.8884 0.61501-0.8884-0.9747 0-2.5347 1.7435-2.5347 2.8329 0 0.35909 0.11606 0.26554 0.57617-0.46445 0.3169-0.50277 0.92146-1.1688 1.3435-1.48zm8.7692-14.406c-0.23903-1.6861 0.1497-3.9697 0.95905-5.6341 0.64139-1.319 2.0479-2.7311 3.3651-3.3785 1.1985-0.58905 3.1235-0.98107 4.0637-0.82757 0.6362 0.10387 0.65572 0.09016 0.35211-0.2474-0.17679-0.19655-0.32143-0.42502-0.32143-0.5077 0-0.19412 1.2173 0.066 1.5425 0.32964 0.13683 0.11091 0.24879 0.14424 0.24879 0.07403 0-0.07016-0.29109-0.30617-0.64686-0.52441-0.52796-0.32388-0.57369-0.40063-0.2488-0.41754 0.33041-0.01719 0.3135-0.04799-0.09951-0.18104-2.1977-0.70816-5.7259 0.71267-7.6567 3.0834-0.37821 0.4644-0.98214 1.4701-1.3421 2.2348-0.6218 1.3212-0.6544 1.5052-0.6544 3.6934 0 1.422 0.10276 2.5954 0.26863 3.0674 0.14774 0.42041 0.29113 0.73582 0.31864 0.7009 0.02753-0.0349-0.03942-0.6943-0.14871-1.4653zm8.1697-11.247c0.13684-0.05555 0.36074-0.05555 0.49758 0 0.13684 0.05555 0.0249 0.10101-0.24878 0.10101-0.27368 0-0.38563-0.04541-0.24879-0.10101zm2.1852 0.2119c-0.06612-0.06653-0.2378-0.07364-0.38148-0.01582-0.15877 0.06395-0.11161 0.11138 0.12026 0.12099 0.20981 0.0087 0.32737-0.0386 0.26123-0.10518z"/><path d="m63.106 121.89c0.33058-0.62148 0.5975-2.0725 0.48519-2.6376-0.0998-0.50204-0.18983-0.53584-2.0488-0.76927-5.8725-0.73738-12.258-2.8892-17.969-6.0556-2.4289-1.3466-2.5386-1.4349-2.424-1.9483 0.55414-2.4825 0.74397-2.8769 2.3071-4.7933l1.1842-1.4519-0.95919-7.5e-4c-0.52756-6.1e-4 -1.309-0.0988-1.7365-0.21826l-0.77728-0.21715 1.1754-0.48172c0.64644-0.26494 1.187-0.48213 1.2012-0.48263 0.01421-5.2e-4 0.54485-0.40646 1.1792-0.90209 0.63438-0.49565 1.2695-0.90118 1.4114-0.90118 0.14187 0 0.4918-0.49741 0.77765-1.1053 0.54743-1.1643 1.6159-2.0988 2.3998-2.0988 0.52686 0 0.78711-0.30884 0.96472-1.1448 0.07527-0.3543 0.3558-0.96878 0.62337-1.3655 0.26758-0.39673 0.42299-0.82777 0.34536-0.95788-0.07764-0.1301-2.2098-3.0302-4.7382-6.4446-4.0674-5.4928-7.9292-10.772-10.955-14.977-0.63009-0.87546-1.1573-1.4002-1.4818-1.4749-0.27703-0.0638-0.97256-0.37595-1.5456-0.6937-0.57305-0.31775-1.0882-0.57772-1.1447-0.57772-0.05656 0-0.37792 0.58592-0.71421 1.302-0.33628 0.71612-0.74846 1.4399-0.91595 1.6084-0.27335 0.27503-0.23492 0.39122 0.37526 1.1348l0.67979 0.82842-0.54164 1.833c-0.85044 2.8781-1.175 5.6349-1.174 9.9709 0.0015 7.541 1.3162 13.197 4.6644 20.07 2.3805 4.8868 4.9294 8.4743 9.1415 12.867 0.97701 1.0188 1.7035 1.8524 1.6144 1.8524-0.32717 0-4.0339-2.0824-5.9671-3.3523-10.872-7.1417-19.361-20.134-21.599-33.057-0.43632-2.5199-0.77952-7.5382-0.65998-9.6503 0.20962-3.7039 0.54661-6.6045 1.0819-9.312 0.88026-4.4526 0.80175-4.2662 2.2784-5.407 0.7129-0.55071 1.6244-1.3385 2.0256-1.7506l0.72939-0.74933-0.50777-0.55235c-0.27927-0.3038-0.96847-1.166-1.5316-1.9161-1.1554-1.539-1.2828-2.2508-0.65212-3.6427 1.0973-2.4219 3.552-3.763 5.5103-3.0105 0.72734 0.27949 1.0909 0.6255 2.0005 1.9038 0.96396 1.3547 1.2083 1.578 1.8392 1.6806 0.98442 0.16017 2.0171 0.91023 2.6184 1.9019 0.27367 0.45129 0.65038 0.8722 0.83715 0.93534 0.57698 0.19508 1.3464 1.2877 1.4745 2.0939 0.09642 0.60664 0.2994 0.8961 0.96633 1.378 0.51985 0.37562 1.0644 1.0331 1.4172 1.711 0.31511 0.60554 0.78144 1.2133 1.0363 1.3505 0.25486 0.13723 0.71712 0.59669 1.0273 1.021l0.5639 0.7715 0.11935-1.1625c0.06567-0.63936 0.20843-3.6857 0.31731-6.7697 0.10887-3.084 0.24712-6.3356 0.3072-7.2258l0.10924-1.6185-1.1123-0.25044c-0.61174-0.13775-1.8467-0.61808-2.7444-1.0674-4.1501-2.0773-6.7607-6.6327-6.4363-11.231 0.22325-3.1646 1.3153-5.5841 3.4953-7.7444 2.0682-2.0494 4.4739-3.0481 7.3794-3.0633 2.7457-0.01446 4.8891 0.70112 7.0335 2.3481 0.51223 0.39339 0.9771 0.71525 1.0331 0.71525 0.05597 0 0.45866-0.22669 0.89487-0.50375 2.552-1.6209 6.5755-3.2617 10.444-4.2592 4.6581-1.201 5.8825-1.3414 11.643-1.3355 4.6925 0.0045 5.4979 0.05442 7.3007 0.44954 1.1145 0.24426 2.1538 0.49331 2.3095 0.55345 0.17933 0.06926 0.56763-0.268 1.0587-0.91951 1.3912-1.8457 3.877-3.4756 6.2632-4.1065 4.6726-1.2355 10.066 0.59811 13.316 4.527 3.4222 4.1375 4.1355 9.1285 1.9936 13.948l-0.6106 1.374 1.1208 1.6848c4.1512 6.24 7.0601 15.853 7.877 26.03 0.22174 2.7625 0.21195 3.1195-0.11432 4.1671-0.44213 1.4195-0.93779 2.4281-1.8917 3.8492-0.89439 1.3325-1.0549 1.9046-0.79742 2.8427 0.57021 2.0778 2.9357 3.0964 5.2581 2.2641 0.4337-0.15542 0.82793-0.24294 0.87608-0.19449 0.1855 0.18665-1.3791 2.2809-2.2252 2.9785-1.0676 0.88025-1.2271 1.3447-0.69506 2.0252 0.98646 1.2618 3.6452 1.8386 5.6251 1.2205 0.54223-0.1693 1.0155-0.27802 1.0517-0.24161 0.13411 0.13494-1.5212 2.0733-2.3017 2.6953-0.44422 0.35399-1.4846 0.95829-2.3119 1.3429-0.82731 0.38459-1.5042 0.7395-1.5042 0.7887 0 0.35996 1.2558 0.79852 2.5664 0.89627l1.5138 0.1129-0.83366 0.8267c-0.45852 0.45468-1.1828 1.0242-1.6096 1.2655-0.56491 0.31946-0.92583 0.7469-1.3271 1.5717-2.0778 4.2711-7.114 10.338-11.669 14.058-6.5321 5.334-14.9 9.2622-23.671 11.112-1.6536 0.34869-1.7239 0.38772-3.1136 1.7276-1.8379 1.772-2.3145 1.8239-3.3937 0.36953l-0.74296-1.0013h-3.8428l-0.49616 0.75437c-0.54334 0.82609-1.6243 1.6545-2.8019 2.1474-0.7314 0.30608-0.75031 0.30387-0.55414-0.0649zm9.3723-3.3374c-0.33893-0.49564-0.66101-0.90116-0.71574-0.90116-0.05476 0 0.17778 0.40552 0.5167 0.90116 0.33893 0.49565 0.66101 0.90116 0.71575 0.90116 0.05476 0-0.17779-0.40551-0.51671-0.90116zm0.38922-1.0514c-0.30084-0.63332-0.51543-1.2041-0.47686-1.2683 0.03859-0.0643-0.05205-0.11682-0.20145-0.11682-0.19257 0-0.09074 0.36898 0.35002 1.2683 0.34188 0.69757 0.67868 1.2683 0.74844 1.2683 0.06973 0-0.1193-0.51816-0.42015-1.1515zm1.706 0.74217c0.1407-0.22906-0.15028-0.7202-1.0626-1.7935-0.89677-1.055-0.97315-0.58819-0.12891 0.78798 0.7481 1.2195 0.95359 1.3929 1.1915 1.0055zm-3.0904-5.0422c0-0.39703-0.55326-0.0701-1.4298 0.84493-1.3442 1.4032-1.1954 1.6359 0.23562 0.36843 0.65682-0.5817 1.1942-1.1277 1.1942-1.2134zm-6.3945 1.7083c-0.15562-0.19302-0.17202-0.27778-0.03814-0.19699 0.12927 0.0781 0.29354 0.0465 0.36506-0.0698 0.07154-0.11642 0.29863-0.15784 0.50471-0.092 0.28408 0.0907 0.40558-4e-3 0.50242-0.39236 0.11418-0.45777 0.30321-0.60975 0.57456-0.46196 0.05055 0.0275 0.52077-0.37053 1.0449-0.88461 1.2862-1.2614 2.4006-1.8175 3.4825-1.7376l0.85412 0.0632 0.0619-0.75009c0.11286-1.3678-1.1413-2.5484-2.7072-2.5484-1.8118 0-4.5888 2.1545-5.6188 4.3592-0.57893 1.2392-0.46364 2.022 0.3819 2.5934 0.80585 0.54452 0.96069 0.57541 0.59204 0.11814zm21.521-0.24227c0-0.40908-2.9777-4.055-4.7592-5.8272-2.143-2.1318-3.8637-3.207-5.1209-3.1997l-0.76827 4e-3 1.0358 0.60761c1.7153 1.0061 2.9964 2.3325 4.5127 4.6718 1.4539 2.2431 2.3165 3.1658 3.408 3.6456 0.69101 0.30373 1.6918 0.36142 1.6918 0.0975zm-10.748-1.124c0-0.33778-1.3939-0.89417-2.1894-0.87392l-0.89566 0.0228 0.91879 0.15627c0.50533 0.086 1.1771 0.29703 1.4928 0.46907 0.65927 0.35929 0.67349 0.36406 0.67349 0.22577zm1.7699-1.3219c-0.33381-2.1247-0.76569-3.0088-2.1496-4.4003-0.87253-0.87736-1.7551-1.5315-2.6343-1.9525-1.6321-0.78146-1.8143-0.79542-1.5589-0.1194 0.10676 0.28253 0.19411 0.74365 0.19411 1.0247 0 0.33064 0.27299 0.77761 0.77332 1.2661 0.71649 0.69961 1.0005 1.2756 1.2968 2.6299 0.09146 0.41804 0.26952 0.55714 0.85451 0.66756 0.97293 0.18365 2.0354 0.74378 2.6333 1.3882 0.26539 0.28607 0.5431 0.52013 0.61714 0.52013 0.07403 0 0.06221-0.46098-0.02633-1.0244zm-43.157-0.06c-0.33254-0.48629-1.1743-1.9267-1.8705-3.2008-0.69625-1.2742-1.3353-2.2506-1.42-2.1698-0.08476 0.0808-0.09457-0.0483-0.02181-0.28685 0.07282-0.23854 0.04017-0.49105-0.07251-0.56111-0.1261-0.0784-0.15446 4e-3 -0.0738 0.21627 0.08832 0.23157 0.05589 0.29687-0.09952 0.20025-0.15065-0.0937-0.18949-0.0357-0.11205 0.16741 0.20546 0.53869-0.11288 0.33737-0.51282-0.32434-0.30521-0.50497-0.33872-0.72042-0.16352-1.0514 0.19813-0.37425 0.18695-0.38851-0.11078-0.14139-0.18213 0.15116-0.33114 0.22611-0.33114 0.16657 0-0.0596-0.05326-0.27335-0.11829-0.47511-0.09838-0.30507-0.08214-0.31626 0.09647-0.0664 0.11812 0.16522 0.21329 0.21027 0.21148 0.10013-0.0045-0.28726-0.50773-0.91489-0.63257-0.78928-0.05777 0.0581-0.15983-0.0381-0.22684-0.21377-0.07056-0.18503-0.03904-0.26794 0.07493-0.19707 0.10822 0.0673 0.19676 0.0185 0.19676-0.10848 0-0.12696-0.17294-0.27632-0.3843-0.33194-0.24033-0.0632-0.3418-0.21254-0.27086-0.39856 0.09298-0.24378 0.1471-0.24925 0.29993-0.0304 0.14801 0.212 0.16868 0.20513 0.10015-0.0333-0.04747-0.16522-0.23247-0.28803-0.41108-0.27293-0.17861 0.0151-0.27564-0.0525-0.21563-0.1502 0.06003-0.0977 0.03543-0.17765-0.05468-0.17765-0.09009 0-0.3711-0.43934-0.62448-0.97632-0.25338-0.53697-0.66698-1.0709-0.91911-1.1865-0.30162-0.13825-0.49413-0.43794-0.56278-0.87606-0.05739-0.36625-0.24321-1.2066-0.41294-1.8675-0.58047-2.26-0.9242-4.4065-1.2347-7.7099l-0.31056-3.3043-1.3581-1.3312c-1.0544-1.0336-1.2407-1.295-0.83333-1.1691 1.5001 0.46365 2.8878 1.023 3.3687 1.3579 1.0106 0.70373 1.1186 0.71834 0.67474 0.09124-0.24243-0.34261-0.74377-0.81128-1.1141-1.0416-0.82023-0.51005-0.91184-0.73025-0.91184-2.1918 0-1.2688-0.1191-1.4369-2.0553-2.8999-0.52836-0.39922-0.91178-0.72587-0.85204-0.72587 0.46913 0 3.4679 1.1627 4.6414 1.7996 0.79778 0.43297 1.4505 0.7123 1.4505 0.62075 0-0.23803-1.5807-1.6717-2.342-2.1242-0.60066-0.357-0.64348-0.45542-0.64348-1.479 0-0.60311 0.10152-2.1041 0.2256-3.3355 0.21456-2.1295 0.24618-2.2338 0.64686-2.1341 0.23169 0.05768 0.67273 0.2812 0.98007 0.49676 0.94838 0.66512 0.86051 0.18987-0.15709-0.84962l-0.96753-0.98835 0.35968-2.4978 0.35967-2.4978-0.7248-0.99344c-0.8425-1.1548-1.3196-2.215-1.3196-2.9327 0-0.2789-0.05717-0.50708-0.12704-0.50708-0.06988 0-0.77559 0.49981-1.5683 1.1107l-1.4412 1.1107-0.42632 2.0434c-2.1107 10.117-1.8291 18.107 0.91833 26.054 2.1778 6.2992 4.9096 11.238 9.15 16.542 1.8983 2.3744 4.5727 5.407 4.7682 5.407 0.04972 0-0.18163-0.39788-0.51417-0.88417zm30.145-2.4784c1.5776-1.4544 3.4724-2.4644 4.8784-2.6004 0.88078-0.0852 0.99039-0.14799 0.99039-0.56777 0-0.25959-0.25538-0.75958-0.56751-1.1111-0.49164-0.55361-0.72536-0.65055-1.748-0.72498-2.4178-0.17596-4.4885 1.3238-6.0662 4.3937-0.5826 1.1336-0.63032 2.7564-0.09846 3.3483l0.37685 0.41939 0.43893-0.95322c0.27137-0.58931 0.95686-1.4307 1.7956-2.204zm-21.035-0.0417c0.0053-0.45511-0.0097-0.46422-0.16521-0.10014-0.09408 0.22029-0.16842 0.67087-0.1652 1.0013 0.0061 0.58583 0.0098 0.58832 0.1652 0.10012 0.08764-0.27535 0.16199-0.72592 0.16521-1.0013zm4.2149-0.29958c0.34258 0.21303 0.4048-0.30545 0.10634-0.88615-0.16868-0.3282-0.30386-0.75888-0.3004-0.95711 0.0053-0.28519 0.10985-0.23502 0.50253 0.24038 0.69334 0.8394 0.77955 0.95398 1.0566 1.4042 0.22958 0.37315 0.23676 0.36829 0.11459-0.0775-0.08843-0.32268-0.0595-0.43159 0.09002-0.33863 0.3636 0.22611 0.25893-0.0133-0.56992-1.3036-0.43465-0.67663-1.0771-1.9361-1.4277-2.7989-0.55691-1.3705-0.68278-1.5442-0.99647-1.3753-0.69942 0.37662-0.83634 0.94935-0.5766 2.4117 0.26512 1.4926 1.6124 4.5182 1.7491 3.9279 0.04491-0.19409 0.15831-0.30528 0.25193-0.24706zm0.89434-1.1022c-0.06762-0.11015-0.03348-0.20025 0.07602-0.20025 0.10947 0 0.25439 0.0901 0.32205 0.20025 0.06763 0.11014 0.03348 0.20026-0.07602 0.20026-0.10948 0-0.25439-0.0901-0.32205-0.20026zm12.948-0.22513c0.39282-0.87648 1.8281-2.4143 2.8724-3.0776 0.96286-0.61156 2.6344-1.103 3.7516-1.103h0.89038l-0.37916-0.42817c-1.4017-1.5828-4.5116-1.1512-6.5524 0.90954-1.6118 1.6274-2.5494 3.9794-1.8621 4.6709 0.33309 0.33515 0.87967-0.08 1.2793-0.97175zm22.48-0.17547c-0.64996-0.66085-1.0865-1.2016-0.97004-1.2016 0.11644 0 0.76299 0.3585 1.4368 0.79667 0.67379 0.43816 1.2251 0.75763 1.2251 0.70993 0-0.13476-3.9496-2.9196-4.8601-3.4269-0.9826-0.54741-2.1095-0.77782-2.8511-0.58296-0.51636 0.13569-0.48421 0.16567 0.54603 0.50944 0.60208 0.2009 1.01 0.37124 0.90651 0.37853-0.2469 0.0174 3.0565 2.2901 3.4031 2.3413 0.14648 0.0217 0.6824 0.40783 1.1909 0.85822 1.3478 1.1937 1.3342 1.0014-0.02708-0.38265zm-30.033-0.81642c-1.721-1.5826-4.0933-5.4274-4.0988-6.6432-0.0015-0.3029-0.06266-0.55072-0.13612-0.55072-0.28932 0-0.86156 0.68298-0.86156 1.0283 0 1.2158 1.8774 4.2928 3.4315 5.6241 1.982 1.6979 3.4372 2.1711 1.665 0.54151zm3.4707-1.2362c0.12273-0.4681 0.43887-1.244 0.70251-1.7242 0.26365-0.48021 0.43772-0.94091 0.38682-1.0238-0.05092-0.0829 0.10665-0.13924 0.35008-0.1253 0.24344 0.0139 0.87389-0.30029 1.401-0.69826 0.79716-0.60187 1.2408-0.7678 2.6372-0.98637 0.94722-0.14826 1.6788-0.36019 1.6788-0.48633 0-0.83619-1.6806-1.7164-3.2698-1.7125-1.2091 0.0027-2.6552 0.78872-3.9174 2.1286-1.6731 1.7761-2.2347 3.1475-1.7606 4.299 0.21172 0.51429 0.98175 1.147 1.4266 1.1722 0.07788 4e-3 0.24202-0.37497 0.36476-0.84308zm-8.2806-0.11993c-0.14516-0.42393-0.40985-1.617-0.5882-2.6512-0.17834-1.0342-0.36041-1.9168-0.4046-1.9612-0.1816-0.18273-0.68706 0.45774-0.68706 0.87058 0 0.8764 1.5116 4.5126 1.8759 4.5126 0.03731 0-0.05092-0.34684-0.19608-0.77077zm36.602-0.28058c-1.2032-1.9461-1.461-2.5069-1.461-3.1778 0-1.1039 0.6835-1.5783 2.2739-1.5783 1.5269 0 3.3718 0.46877 4.3214 1.098 1.497 0.99207 3.7051 1.3272 4.4801 0.68007 0.2127-0.17761 0.1168-0.33222-0.47862-0.77157-0.40954-0.30219-1.3044-1.1401-1.9886-1.8621-1.1441-1.2073-1.244-1.3841-1.244-2.2038 0-1.0622 0.62921-1.8259 1.7661-2.1436 1.5098-0.42194 2.6412-0.14108 6.1051 1.5154 2.227 1.065 3.1041 1.3298 1.9374 0.58481-1.0574-0.67512-1.6856-1.4099-2.2624-2.6463-0.73558-1.5767-0.73525-2.1359 0.0018-2.8774 0.66422-0.6683 1.2246-0.72833 2.6725-0.28633 2.4491 0.74761 4.6302 0.56955 5.0758-0.41439 0.31399-0.69337 0.31988-0.68555-0.51802-0.68681-1.0976-0.0015-2.2061-0.36368-2.4358-0.79551-0.58607-1.1018 0.24555-2.2983 1.5974-2.2983 0.67484 0 0.80741-0.07561 0.97359-0.55526 0.21167-0.61095 0.50552-0.72058 0.68313-0.25488 0.16643 0.43635 1.1949 0.37229 1.6206-0.10094 0.29934-0.33281 0.32202-0.48736 0.13281-0.90518-0.59034-1.3037-2.5367-1.0867-5.1764 0.57707-0.94834 0.5977-2.1913 1.3217-2.7622 1.6088-1.2846 0.64614-6.0699 2.6009-5.55 2.2672 7.4215-4.7643 10.071-7.5626 10.071-10.636 0-0.79014-8e-3 -0.79905-0.30982-0.36484-0.17043 0.24479-0.43911 0.44507-0.5971 0.44507-0.158 0-0.28727 0.07961-0.28727 0.17691 0 0.0973-0.15675 0.22583-0.34831 0.28562-0.19157 0.05979-1.02 0.4906-1.8411 0.95732l-1.4928 0.8486 2.059-1.9752c1.7586-1.687 4.6308-5.0267 3.502-4.072-1.5162 1.2824-4.718 3.793-5.0984 3.9978-0.25443 0.137 0.14681-0.41319 0.89167-1.2227 3.1184-3.3889 6.1699-7.7378 7.1444-10.182 0.39273-0.98502 0.44792-1.4647 0.42957-3.7336-0.0436-5.3857-1.1901-10.707-3.1389-14.569-0.70869-1.4043-1.2531-2.5533-1.2099-2.5533 0.0433 0 0.36028 0.41186 0.7045 0.91524s0.66563 0.87521 0.71424 0.8263c0.15377-0.15471-0.94214-3.1655-1.9131-5.2559-1.1163-2.4032-2.9501-5.345-3.2638-5.2358-0.23419 0.08153-0.25425 0.75551-0.0429 1.4408 0.35131 1.139-3.8133 1.721-6.4811 0.90567-0.79668-0.24347-1.9443-0.69514-2.5502-1.0037-1.1973-0.6097-3.1916-2.1253-3.1916-2.4256 0-0.10263 0.44268 0.03913 0.98373 0.31497 0.82576 0.42102 4.1467 1.516 4.5617 1.5041 0.06988-0.0022-0.67504-0.45656-1.6553-1.0101-5.2539-2.9667-8.7215-6.1369-9.9533-9.0993-0.89324-2.1481 0.11584-5.4575 2.2348-7.3295 1.4691-1.2978 4.9074-2.4309 6.3743-2.1006l0.53878 0.1213-0.49758-0.29492c-0.27364-0.16222-0.81102-0.30711-1.1942-0.32199-0.64252-0.02497-0.65798-0.03951-0.19903-0.1874 0.80106-0.25812 2.078-0.22202 2.9374 0.08306 0.74764 0.2654 0.7921 0.26028 0.7034-0.08098-0.18514-0.71233-2.6137-1.0145-4.676-0.58181-3.3881 0.7109-6.0645 3.1319-6.8433 6.1905-0.69162 2.7163 0.11469 5.3679 2.6731 8.7909l0.52799 0.70643-1.2049-0.927c-1.7894-1.3768-2.9636-2.901-3.7874-4.9165l-0.47174-1.1542-0.05672 2.6034-0.2558-1.0013c-0.35055-1.3722-0.34975-2.6552 0.0022-3.8231 0.16302-0.54069 0.29737-1.0896 0.29856-1.2197 0.0053-0.56307-4.9935-1.2653-9.0068-1.2653-6.2769 0-12.739 1.4037-17.921 3.8925-8.2167 3.9466-11.065 9.1421-11.684 21.311-0.11004 2.1636-0.34456 6.6596-0.52115 9.9909-0.1766 3.3314-0.2822 7.4767-0.23466 9.2119 0.08071 2.9463 0.12198 3.2243 0.62425 4.2062 0.29581 0.57825 0.55872 1.0507 0.58424 1.0499 0.0255-7.56e-4 0.05837-1.2399 0.07304-2.7536 0.01467-1.5137 0.2187-4.4643 0.45344-6.557 0.23474-2.0927 0.51256-4.5709 0.61738-5.5071 0.10481-0.93621 0.28488-3.5045 0.40015-5.7074 0.21102-4.0327 0.40893-5.5529 0.89643-6.8856 0.23021-0.62939 0.26712-0.65864 0.28196-0.22352 0.0094 0.27535 0.09203 0.61959 0.18365 0.76497 0.22777 0.36143 1.0784-0.66702 1.4957-1.8084 0.17275-0.47245 0.51022-1.3997 0.74993-2.0606l0.43585-1.2015 0.22565 1.0043c0.19224 0.85555 1.0812 2.794 1.2144 2.6482 0.02399-0.02634 0.68549-0.85887 1.4699-1.8502 1.4036-1.7737 2.1098-2.9184 2.4092-3.905 0.1482-0.48843 0.1524-0.48599 0.17206 0.10013 0.04137 1.2328 0.24964 1.2214 2.0277-0.11146 2.0369-1.5268 5.7497-3.3886 6.7627-3.3912 0.97359-0.0022 1.278 0.39622 2.0867 2.7329 0.37446 1.082 0.68083 1.9953 0.68083 2.0297 0 0.03436 0.44216-0.47206 0.98258-1.1254 0.61103-0.73876 1.3388-1.3615 1.9247-1.6468 0.94048-0.45807 0.94562-0.45831 2.9483-0.13319 3.4296 0.55675 7.77 1.9896 11.12 3.6711 0.96234 0.48298 1.8244 0.87816 1.9157 0.87816 0.09131 0 0.29719-0.27252 0.45752-0.60561l0.29151-0.6056 0.5323 1.2564c0.88128 2.0801 3.0396 4.6834 5.1167 6.1715l0.54727 0.39209-0.09361-1.6523-0.09361-1.6523 0.44477 0.60077c0.24462 0.33043 2.0641 2.2235 4.0433 4.2069 3.8884 3.8966 5.531 6.0107 7.1183 9.1619 2.6525 5.2658 2.8095 8.9562 0.57289 13.466-1.1926 2.4046-2.4862 4.1733-4.886 6.6804-3.2189 3.3628-6.518 5.7459-12.671 9.1532-2.1184 1.1731-3.893 2.1723-3.9436 2.2205-0.27593 0.26274 5.232-0.72098 6.8512-1.2236 0.82543-0.25624 1.5008-0.43692 1.5008-0.40153 0 0.08316-2.2104 1.2937-5.4734 2.9976-4.6396 2.4227-7.5199 4.5203-10.322 7.5172l-1.5397 1.6468-1.732-1.6887c-2.8327-2.7619-4.5742-3.9887-6.7223-4.7353-3.2737-1.1379-3.3237-0.56043-0.10448 1.2043 3.0166 1.6537 9.7327 7.0611 10.513 8.4649 0.20462 0.36788 0.27126 0.34059 1.1432-0.46808 0.94263-0.87423 1.9768-1.429 2.6639-1.429 0.20986 0 0.52829-0.2253 0.7076-0.50066 0.37251-0.57201 0.42399-0.56126-1.5098-0.31521-2.4812 0.3157-3.7463 0.39304-3.7463 0.22898 0-0.41968 3.5845-1.91 8.1604-3.3928 2.7915-0.90456 5.5659-1.8182 6.1654-2.0303l1.09-0.3856-0.59243 0.48976c-0.32584 0.26937-1.5142 1.0361-2.6408 1.7039-1.1266 0.66778-2.4175 1.5484-2.8687 1.957-0.73087 0.66195-2.2859 2.8103-2.1156 2.9226 0.03656 0.0241 0.57526 0.19951 1.1972 0.38979 0.66162 0.20244 1.7351 0.79291 2.5874 1.4232 1.6304 1.2057 1.6401 1.2116 1.425 0.86352zm-9.2233-7.3502c0-0.48246 1.0884-1.8257 2.1542-2.6586 2.3769-1.8574 4.0799-2.7087 10.783-5.3899 1.9157-0.76628 5.0505-2.1731 6.9662-3.1263 1.9157-0.95321 3.5598-1.7704 3.6536-1.816 0.23218-0.11293-1.338 1.2987-2.5589 2.3004-1.2962 1.0635-4.0631 2.8633-5.573 3.625-0.65681 0.33134-2.8959 1.3406-4.9759 2.2429-4.4102 1.9131-9.1196 4.1328-9.9019 4.6669-0.30104 0.20556-0.54734 0.27556-0.54734 0.15555zm16.851-5.3371c1.9556-0.95172 5.8388-2.6743 5.8388-2.5901 0 0.1018-2.1299 1.4708-2.8962 1.8616-0.75266 0.38379-4.4131 1.6691-4.6517 1.6334-0.06319-0.0095 0.70591-0.41666 1.7091-0.90487zm0.56443-7.022c0.38133-0.37954 1.9999-1.6108 3.3836-2.5738 1.2493-0.86957 1.3316-0.90174 0.79614-0.31147-0.58697 0.64709-2.0135 1.6878-3.5826 2.6136-0.43787 0.25837-0.70657 0.38062-0.5971 0.27167zm12.523-14.633c0.448-1.4202 0.74364-3.8333 0.85286-6.9614 0.12237-3.5047 0.13338-3.5769 0.39705-2.6034 0.41868 1.5459 0.5521 4.492 0.26898 5.9398-0.26997 1.3806-1.1315 3.7041-1.446 3.8997-0.12035 0.07485-0.14903-0.0333-0.0729-0.27478zm-61.672-33.696c0.22252-1.1832 1.3775-3.4538 2.2692-4.461 0.77254-0.87265 2.3757-2.1475 2.7006-2.1475 0.07334 0-0.32628 0.50604-0.88809 1.1245-1.2632 1.3907-2.6547 3.3385-3.5409 4.9567-0.58791 1.0735-0.65601 1.1399-0.5408 0.52727zm9.5698 66.235c-0.04987-0.19289-0.01655-0.30463 0.07402-0.24829 0.09059 0.0563 0.45437-0.40696 0.8084-1.0295 0.35402-0.62257 0.80435-1.2704 1.0007-1.4396 0.19638-0.16918 0.30302-0.39556 0.23698-0.50308-0.06657-0.10836-0.01768-0.13179 0.10971-0.0526 0.12639 0.0786 0.22979 0.0422 0.22979-0.081 0-0.12314 0.09685-0.16368 0.2152-0.0901 0.11837 0.0736 0.45423-0.0914 0.74638-0.36666 0.94965-0.89481 2.2202-1.4022 3.7655-1.5037 0.79365-0.05213 1.443-0.1591 1.443-0.23769 0-0.27189-0.71518-0.79222-1.6777-1.2206-0.76815-0.34188-1.1726-0.40267-1.9706-0.29617-2.9035 0.38754-6.0876 3.4137-6.4497 6.1298-0.12885 0.96658 0.17594 1.3852 0.96872 1.3306 0.4546-0.0313 0.56934-0.12126 0.49951-0.39141zm16.79-0.64541c0-0.12146-1.1227-0.70878-1.3336-0.69765-0.08754 4e-3 0.15432 0.18106 0.53746 0.39212 0.78449 0.43213 0.79614 0.4366 0.79614 0.30553zm-18.27-3.009c1.2559-1.6245 2.6231-3.031 2.6407-2.7164 3e-3 0.04799 0.61655-0.21572 1.3642-0.58603 0.95147-0.47129 1.7536-0.70776 2.6734-0.78816l1.3141-0.11487-0.63272-0.59956c-0.81001-0.76755-1.6525-1.0694-3.0223-1.083-1.4574-0.01446-2.4532 0.47409-3.7117 1.8207-1.2616 1.35-2.0603 2.8815-2.0603 3.9505 0 1.0118 0.52527 1.413 0.98181 0.74987 0.16392-0.23809 0.36769-0.523 0.45284-0.63314zm21.384-5.7993c0.56354-0.25738 1.3878-0.83337 1.8317-1.28 0.98428-0.99034 2.0156-2.7509 2.0182-3.4451 0.0022-0.51728-1.0537-2.3992-1.3372-2.384-0.08451 0.0045-0.3622 0.45557-0.61708 1.0023-0.25489 0.54676-0.92236 1.4993-1.4833 2.1169l-1.0198 1.1227-0.25405-1.1255c-0.38823-1.7199-1.3358-3.3249-1.9629-3.3249-0.26116 0-0.47254 1.0034-0.50625 2.4031l-0.02174 0.90117-0.3288-1.0013c-0.43389-1.3213-0.74512-1.8446-1.263-2.1235-0.35252-0.18983-0.47391-0.16635-0.69205 0.13382-0.31248 0.42997-0.34273 1.5178-0.06891 2.4784 0.3386 1.1879 0.05702 0.91135-0.78238-0.76836-1.0555-2.1122-1.6026-2.1523-1.6026-0.11751 0 0.47946 0.07644 1.0804 0.16989 1.3354 0.09344 0.25499 0.22651 0.6995 0.29572 0.9878l0.12584 0.52418-0.80159-0.39904c-0.44087-0.21947-0.85344-0.34686-0.91682-0.28309-0.29491 0.29671 1.8466 2.4607 3.1173 3.15 1.5844 0.85946 4.3343 0.90301 6.1 0.0966zm-22.12-2.7519c-0.485-0.78414-0.83533-1.5014-0.77849-1.5939 0.0568-0.09251 0.01722-0.16821-0.08799-0.16821-0.19428 0-0.69246-1.2038-0.5553-1.3418 0.11037-0.11105 1.3457 1.8756 1.4007 2.2526 0.02588 0.17753 0.16039 0.39323 0.29887 0.47935 0.13848 0.08611 0.23545 0.19155 0.21548 0.23431-0.07237 0.15498 0.70491 1.3755 0.93251 1.4643 0.31744 0.12381-0.19545-1.1116-0.9737-2.3454-1.0202-1.6173-0.50443-1.2289 0.62359 0.46963 1.1063 1.6658 1.3188 1.9015 1.4792 1.6404 0.11871-0.19326-2.3657-3.354-2.6363-3.354-0.10705 0-0.56944-0.58575-1.0275-1.3017-0.45808-0.71592-1.2843-1.8637-1.8361-2.5506-0.79467-0.98928-1.0595-1.2019-1.274-1.0228-0.14892 0.12436-0.29572 0.19073-0.32621 0.1475-0.4271-0.60565-0.73238-1.2361-0.7377-1.5234-0.0038-0.19662-0.24994-0.69109-0.54734-1.0988-0.95471-1.3088-3.9134-5.4686-4.2509-5.9765-0.17961-0.2703-0.37476-0.4453-0.43368-0.38888-0.05889 0.05639 0.72175 1.3631 1.7348 2.9037 1.7284 2.6286 3.4235 5.5047 3.2442 5.5047-0.09237 0-1.7757-2.1557-2.0328-2.6034-0.15339-0.26701-0.13152-0.26701 0.19678 0 0.34718 0.28236 0.35484 0.27302 0.12773-0.1558-0.13289-0.2509-0.31983-0.40754-0.41543-0.3481-0.1995 0.12406-1.0145-0.95313-1.0845-1.4335-0.02572-0.17648-0.20544-0.43758-0.39933-0.58023-0.19389-0.14265-0.3052-0.3364-0.24736-0.43058 0.05784-0.09416-0.20188-0.47329-0.57718-0.84248-0.59652-0.58684-0.77654-0.95198-0.71272-1.4456 0.02972-0.22953-0.73488 0.06024-0.83219 0.31538-0.05168 0.13552 0.88444 1.591 2.0803 3.2345 1.1958 1.6434 3.1579 4.3398 4.3602 5.9919 1.2023 1.6521 2.3171 3.1841 2.4774 3.4044 0.27124 0.37278 0.29187 0.33554 0.29776-0.53767 0.0038-0.516-0.07636-1.157-0.17744-1.4245-0.21272-0.56292-1.045-0.91024-0.88229-0.3682 0.05408 0.18028-0.03332 0.10553-0.1942-0.1661-0.16092-0.27164-0.26136-0.65704-0.22319-0.85645 0.03814-0.1994-0.01098-0.31256-0.10925-0.25147-0.09825 0.06108-0.27082-0.06221-0.38348-0.27401-0.15064-0.2832-0.13361-0.44458 0.06439-0.60989 0.37109-0.30988 0.986 0.62856 0.81462 1.2432-0.09075 0.32549-0.07184 0.36675 0.07191 0.15707 0.15326-0.22354 0.32641-0.07588 0.80917 0.69004 0.33781 0.53594 0.61419 1.0973 0.61419 1.2474 0 0.15745 0.09857 0.21171 0.23286 0.1282 0.159-0.09887 0.19033-0.03331 0.09878 0.20675-0.25286 0.66298 0.44155 2.6855 1.3096 3.8142 0.45636 0.59343 0.89807 1.0365 0.9816 0.98453 0.08353-0.05192-0.24495-0.73601-0.72994-1.5201zm6.1946 0.33406c0.43584-0.09625 0.50007-0.07562 0.27202 0.08739-0.23391 0.16719-0.14774 0.2115 0.39807 0.20468 0.618-0.0077 0.65418-0.03565 0.32057-0.24726-1.6961-1.076-2.7142-1.802-2.6365-1.8801 0.05085-0.05117 0.27398 0.0045 0.4958 0.12411 0.53618 0.28872 4.0021 1.2181 4.5071 1.2086 0.56656-0.01068-0.20606-0.40824-3.3242-1.7105-2.3357-0.97544-4.4707-2.0448-5.7231-2.8666-0.2689-0.17644 0.53719 0.96577 1.7913 2.5382 2.4677 3.094 2.1967 2.9174 3.899 2.5414zm2.9287-3.6646c0.0695-0.75245 0.18217-1.6488 0.25038-1.992l0.12401-0.62384 0.85555 1.1409c0.47055 0.62747 1.132 1.4055 1.47 1.729l0.61444 0.58818v-0.91576c0-1.0245 0.9581-3.1049 1.3849-3.0071 0.1371 0.03141 0.36696-0.04117 0.5108-0.16129 0.21395-0.17866 0.19503-0.37119-0.10402-1.0584-0.20106-0.46199-0.42678-1.2606-0.50163-1.7746-0.10584-0.72685-0.23116-0.95896-0.56379-1.0441-0.87044-0.22296-3.6117-2.1292-3.8371-2.6683-0.31634-0.75643-0.0037-1.5186 0.96476-2.3528 1.1096-0.95561 2.2846-1.3109 4.3355-1.3109 1.9438 0 3.2207 0.35221 4.0366 1.1134 0.92015 0.85846 0.74834 1.3809-1.0014 3.0451-0.84839 0.80692-1.7888 1.6176-2.0899 1.8015-0.30104 0.18389-0.54735 0.50722-0.54735 0.71852 0 0.72692 0.46629 1.9482 0.94036 2.4628 0.54552 0.59224 0.7956 0.51459 0.44791-0.13909-0.20099-0.37787-0.12171-0.3519 0.53122 0.17407 1.0882 0.8766 2.2638 1.3489 2.4932 1.0016 0.25074-0.37953 1.4566 1.0686 1.9232 2.3095l0.36568 0.97263 1.0007-1.5734c0.55037-0.86537 1.0638-1.7762 1.1409-2.024 0.07712-0.24782 0.21614-0.45058 0.30892-0.45058 0.26088 0 1.7935 2.0039 2.2505 2.9426l0.40891 0.83984 0.6771-1.0892c0.68248-1.0978 1.4438-3.0035 1.4438-3.6139 0-0.65994 0.56283 0.12409 1.0301 1.4349 0.25252 0.70845 0.52254 1.2881 0.60003 1.2881 0.07748 0 0.41453-0.5769 0.74899-1.282 0.44098-0.92966 0.65604-1.7578 0.78252-3.0133 0.09593-0.95222 0.22443-1.7816 0.28556-1.8431 0.06115-0.06153 0.2348 0.31483 0.38593 0.83632l0.27478 0.94816 0.52397-1.0772c0.62261-1.28 1.9422-2.723 2.6547-2.9029 0.33839-0.08545 0.61504-0.02248 0.82375 0.18753 0.3925 0.39492 0.54614 2.1543 0.28716 3.2885l-0.19391 0.84929 0.54945-0.39365c1.8063-1.2941 5.0977-5.8884 6.1297-8.5561 0.33197-0.85812 0.67938-1.7405 0.77201-1.9607 0.32066-0.7626 0.30863 3.0674-0.01306 4.1717-0.16351 0.56124-0.26462 1.0533-0.22467 1.0935 0.12595 0.12672 1.0594-1.6144 1.4808-2.762 0.68244-1.8586 1.003-3.5956 1.1442-6.1998 0.12981-2.3941 0.14588-2.4642 0.39745-1.7331 0.14421 0.41908 0.35273 1.4885 0.4634 2.3766 0.11067 0.88803 0.23766 1.6513 0.28219 1.6961 0.0445 0.04481 0.19105-0.57519 0.3256-1.3778 0.49669-2.9629-0.12181-6.2351-1.8664-9.8742-1.2883-2.6875-2.9896-4.9974-5.1638-7.0115-1.464-1.3561-1.6438-1.4682-1.7362-1.0822-0.09395 0.39237-0.26185 0.30147-1.8908-1.0236-0.98325-0.79981-2.2474-1.9024-2.8093-2.4502l-1.0216-0.99601-0.52885 0.34865c-0.36744 0.24223-0.90105 0.34333-1.7484 0.33124-0.67074-0.0095-1.4061 0.07624-1.6341 0.19067-0.22803 0.11444 0.14518-0.30316 0.82936-0.928 0.68418-0.62484 1.244-1.2048 1.244-1.2888 0-0.285-3.671-2.1794-5.971-3.0813-3.5786-1.4033-7.4348-2.3412-9.6258-2.3412h-1.0234l-1.2491 1.552c-0.68703 0.8536-1.3736 1.7321-1.5258 1.9522-0.15217 0.22011-0.31288 0.35529-0.35713 0.30039-0.04423-0.05488-0.60393-1.2951-1.2438-2.7561-1.0403-2.3755-1.2071-2.6432-1.5779-2.5325-1.265 0.37773-6.012 2.7514-6.5477 3.2742-0.1741 0.16987 0.9875 1.1656 1.933 1.657 0.56989 0.29618 0.55942 0.30093-0.89313 0.4055-0.93865 0.06759-1.8507 0.0061-2.524-0.17046l-1.0542-0.27628-0.64011 0.73171c-0.35206 0.40243-1.0298 1.2357-1.506 1.8516-0.47626 0.61595-0.94792 1.1199-1.0481 1.1199-0.1002 0-0.34391-0.24806-0.54158-0.55124l-0.35939-0.55123-0.92407 1.3607c-0.50824 0.7484-1.1512 1.5754-1.4287 1.8378-0.40288 0.38082-0.50466 0.66894-0.50466 1.4287v0.9517l1.1016 0.50741c0.85868 0.39553 1.1659 0.66227 1.3932 1.2098 0.38899 0.93672 0.37426 0.97919-0.2069 0.59605-0.38111-0.25125-0.5633-0.27466-0.77322-0.09936-0.21866 0.18259-0.3005 0.12564-0.40153-0.27939-0.10872-0.43584-0.20467-0.48995-0.66978-0.37772-0.29858 0.07206-0.56139 0.14444-0.584 0.16088-0.02264 0.01642-0.09321 1.378-0.15687 3.0258-0.14601 3.7793-0.43683 7.0654-0.84114 9.5043-0.19011 1.1468-0.31766 3.1354-0.32112 5.0065-0.0061 3.3078 0.23517 4.8071 1.0797 6.7087l0.44468 1.0013 0.37926-2.2 0.34 1.1056c0.52679 1.7131 1.5576 3.4923 2.8135 4.8563l1.1459 1.2445-0.1089-0.8511c-0.06778-0.52989-0.03017-0.8511 0.09982-0.8511 0.1148 0 0.91722 0.6706 1.7832 1.4902l1.5744 1.4902-0.18434-2.2365 0.57434 0.14426c1.3243 0.33266 2.5194 1.3771 3.1394 2.7435 0.38958 0.85871 0.49235 0.97384 0.51211 0.57366 0.01858-0.37696 0.14496-0.20928 0.51142 0.67874 0.59649 1.4454 2.243 3.7269 2.6897 3.7269 0.07327 0 0.19008-0.61565 0.25959-1.3681zm-5.6087-10.047c0.03979-0.84456-0.01309-1.4033-0.13294-1.4049-0.11255-0.0015-0.10259-0.06652 0.02295-0.14974 0.12208-0.08093 0.28437-0.34833 0.36063-0.59424l0.13866-0.4471-1.0572 0.49521c-1.3159 0.61638-3.0628 0.66528-4.2579 0.11918-2.1216-0.96949-3.666-3.9634-3.666-7.1064 0-1.0254-0.30173-0.76616-0.83047 0.71364l-0.38067 1.0654 0.09167-1.6021c0.07455-1.3024 0.28077-2.103 1.1027-4.2802 1.4677-3.8874 2.1488-5.172 3.4234-6.4557 1.4437-1.4541 2.4431-1.8504 4.4136-1.7503 2.7141 0.1379 3.9718 1.4768 5.7095 6.0779 0.1401 0.37096 0.20446 0.34421 0.87195-0.36249 0.82303-0.87136 1.4147-2.5875 1.2398-3.5959-0.11011-0.63474-0.10462-0.63172 0.27825 0.15353 0.86074 1.7653 0.29789 4.7163-1.1302 5.9253-0.55356 0.46865-0.60133 0.62176-0.72031 2.3083-0.1734 2.458-0.729 4.1281-2.0328 6.1106-1.1999 1.8245-1.4748 2.569-1.5064 4.0796-0.01504 0.72019-0.05883 0.8649-0.15587 0.51549-0.22864-0.82321-0.55945-0.68308-1.1229 0.47567-0.29728 0.61136-0.58213 1.1116-0.633 1.1116-0.05085 0-0.06274-0.63101-0.02641-1.4023zm25.542-3.0034c-0.74148-0.55072-1.4702-1.0013-1.6195-1.0013-0.33244 0-0.35028 0.47805-0.03972 1.0645 0.213 0.40226 0.2037 0.41423-0.11576 0.14901-0.3546-0.2944-1.3849-2.2158-1.7848-3.3286-0.123-0.34224-0.79096-1.1018-1.4988-1.7043-1.6051-1.3662-3.0728-3.4769-3.6779-5.2891-0.40947-1.2262-0.53762-1.4133-1.0401-1.5185-2.1888-0.45816-3.4575-2.2989-3.4414-4.9932l9e-3 -1.5019 0.2659 0.85674c0.47898 1.5433 1.5872 2.6226 3.2105 3.1267 0.38458 0.11942 0.43679 0.01537 0.65288-1.3012 0.46395-2.8266 2.0072-4.9697 4.1832-5.8094 2.4118-0.93061 6.0496-0.4639 8.64 1.1085 2.306 1.3998 7.4239 6.1973 8.165 7.654 0.28428 0.55876 0.77154 2.8757 0.60478 2.8757-0.03596 0-0.24236-0.34913-0.45873-0.77584-0.37027-0.73025-1.4466-1.8275-1.7927-1.8275-0.08642 0-0.0258 0.56323 0.13468 1.2516 0.50569 2.169-0.01114 4.8475-1.1761 6.0952l-0.41354 0.4429 0.48079 0.12141c0.64155 0.16201 1.3568-0.13406 2.2676-0.93872 0.41354-0.36533 0.71001-0.57413 0.65882-0.464-0.05123 0.11013-0.29869 0.63844-0.54999 1.174-0.36154 0.77056-0.43057 1.1676-0.33074 1.9025l0.12617 0.92866-0.3744-0.47436c-0.3232-0.40947-0.43481-0.44184-0.816-0.23657-0.64668 0.34821-1.5058 0.3188-2.3887-0.0818-0.74691-0.33888-0.8207-0.33809-1.8412 0.0196-1.5399 0.53974-4.4687 0.4972-5.9276-0.08609-0.59555-0.23812-1.1076-0.40799-1.1379-0.3775-0.05243 0.05276 1.5404 2.5364 2.2381 3.4896 0.18138 0.24782 0.28632 0.45058 0.2332 0.45058-0.0531 0-0.70325-0.45058-1.4447-1.0013zm-33.139 8.7423c0-0.03799-0.20152-0.24076-0.44782-0.45058l-0.44783-0.38149 0.37916 0.45058c0.35631 0.42344 0.51649 0.54174 0.51649 0.38149zm-3.8665-3.6905c-0.34389-0.33047-0.34922-0.3251-0.1213 0.12205 0.13112 0.25725 0.293 0.41281 0.35971 0.34568 0.06672-0.06713-0.04054-0.27761-0.2384-0.46773zm-3.6039-4.9606c0.45665-0.60238 0.49843-0.75806 0.27587-1.0279-0.23411-0.28382-0.27816-0.26673-0.41015 0.15919-0.12106 0.39064-0.13696 0.35916-0.08769-0.17368 0.0741-0.80179 0.02226-0.81035-0.36335-0.06002-0.31565 0.61416-0.40055 1.4478-0.17097 1.6788 0.18691 0.18806 0.16291 0.20635 0.7563-0.5764zm-1.1737-1.7207c0.28499-0.56586 0.44099-1.084 0.34668-1.1515-0.09432-0.06744-0.7041-0.87376-1.3551-1.7918-1.1801-1.6641-1.8263-1.971-0.78675-0.37357 0.38841 0.59682 0.43386 0.74013 0.1565 0.4934-0.28283-0.25158-0.45105-0.28719-0.60848-0.12878-0.15744 0.1584-0.31159 0.07462-0.55757-0.30312-0.38409-0.5898-0.69225-0.67926-0.69225-0.20098 0 0.25288 2.7468 4.447 2.9324 4.4775 0.0255 0.0045 0.27958-0.45535 0.56456-1.0212zm-0.67258-0.98709c-0.14128-0.22762-0.3469-0.65209-0.45693-0.94326-0.18226-0.48232-0.13614-0.4632 0.51846 0.21498 0.39517 0.4094 0.66353 0.83386 0.59634 0.94326-0.18584 0.30254-0.37503 0.24072-0.65787-0.21497zm-0.87429-0.43724c-0.70727-0.94803-0.86916-1.3489-0.26287-0.65084 0.54245 0.62453 0.97492 1.3017 0.83132 1.3017-0.04558 0-0.30139-0.29288-0.56845-0.65084zm-5.9879-5.9744c0.87122-1.2114 1.4016-1.6537 2.2465-1.8733l0.49759-0.12934-0.49759 0.32258c-0.35048 0.22721-0.3799 0.2821-0.09952 0.1857 0.21894-0.07531 0.89068-0.19523 1.4928-0.26655l1.0947-0.12968-0.84992-0.34806c-0.46746-0.19143-1.0496-0.3513-1.2937-0.35526-0.42695-0.0067-0.4226-0.02467 0.11455-0.46694 0.47806-0.39362 0.51639-0.49477 0.26655-0.70339-0.16048-0.13401-0.60898-0.29545-0.99665-0.35875-0.8487-0.13857-2.1665 0.5557-2.8635 1.5086-0.61033 0.8344-0.56351 0.99973 0.09538 0.33678 0.55218-0.55557 1.9872-1.4114 1.4969-0.8927-0.46179 0.48851-0.25304 0.61391 0.32845 0.19731 0.31749-0.22746 0.8101-0.39417 1.0947-0.37047 0.28459 0.02369 0.51745 0.05994 0.51745 0.08051 0 0.02059-0.39553 0.27064-0.87895 0.55569-1.4868 0.87669-3.1064 3.0947-3.0857 4.2259 0.0067 0.38727 0.01519 0.38805 0.24442 0.02392 0.1304-0.20711 0.61444-0.90127 1.0757-1.5426zm3.5402-0.15768 1.3932-0.39796-0.95849-0.01423c-1.2866-0.01907-2.4206 0.6263-2.9659 1.688-0.1339 0.26068 0.02881 0.17736 0.4661-0.23866 0.45019-0.42831 1.1315-0.77047 2.0651-1.0371zm-3.9374-4.0382c0.50743-0.32378 1.2203-0.64488 1.5841-0.71356 1.0678-0.20156 0.702-0.68106-0.51958-0.68106-1.1003 0-2.6588 1.6087-3.104 3.2041-0.10502 0.37634 0.01624 0.28693 0.48858-0.36009 0.34556-0.4734 1.0435-1.1256 1.5509-1.4494zm-3.2292-0.69371c0.86877-1.3688 1.7977-2.2336 2.8222-2.6272 0.9131-0.35086 1.0562-0.65256 0.55082-1.1611-0.28021-0.28193-0.38203-0.28234-1.0449-0.0038-1.8763 0.78738-3.9648 4.1018-3.5001 5.5545 0.13348 0.41722 0.15156 0.40867 0.33874-0.16004 0.10875-0.33042 0.48372-1.0514 0.83326-1.6021zm-2.2832-0.56253c0.0022-0.13118 0.18788-0.64403 0.41215-1.1397 0.38737-0.85606 0.42213-0.88156 0.69448-0.50936 0.28089 0.38385 0.29351 0.38182 0.6222-0.10014 0.42477-0.62281 1.3902-1.5753 2.1232-2.0947l0.56617-0.4012-0.7658-0.95154-0.88296 0.39298c-0.97737 0.435-1.962 1.4541-2.5772 2.6676-0.47928 0.94527-0.7835 2.7395-0.42688 2.5178 0.1267-0.07879 0.23232-0.25057 0.23472-0.38174zm-0.58675-3.033c0.09887 0.06145 0.12889-0.02157 0.06672-0.1846-0.16306-0.42753 1.0199-1.6185 2.307-2.3225 0.96522-0.52798 1.029-0.59923 0.53942-0.60242-0.79008-0.0053-2.0238 0.68184-2.6077 1.4521-0.74078 0.97719-1.308 2.3569-1.2952 3.1502 0.01068 0.65995 0.03468 0.63354 0.41069-0.45183 0.21964-0.634 0.48025-1.1024 0.57911-1.041zm-0.04107-2.7577c0.14024 0.03028 0.20308-0.02944 0.13965-0.13274-0.06341-0.10327 0.12256-0.36212 0.41332-0.57523 0.31823-0.23324 0.44418-0.44 0.31643-0.51944-0.3471-0.21584-1.3721 0.80654-1.9222 1.9173-0.74273 1.4996-0.62035 1.8772 0.148 0.45663 0.35743-0.66085 0.76462-1.1768 0.90485-1.1465zm-0.58714-1.4122c0.32934-0.27882 0.71406-0.54597 0.85494-0.59367 0.44948-0.15217-0.22678-0.75262-0.84764-0.75262-0.5777 0-1.6387 0.7579-1.9927 1.4234-0.257 0.48316-0.16287 0.47792 0.41101-0.02285 0.47978-0.41867 0.7464-0.40616 0.48298 0.02271-0.08388 0.13656-0.16398 0.4805-0.17798 0.76429-0.01399 0.28379-0.0913 0.74128-0.17177 1.0166-0.08048 0.27535 0.07614 0.08405 0.34803-0.42512 0.2719-0.50917 0.76381-1.1539 1.0931-1.4327zm-1.4475-1.4592c1.1642-0.85866 1.1848-0.8884 0.61501-0.8884-0.9747 0-2.5347 1.7435-2.5347 2.8329 0 0.35909 0.11606 0.26554 0.57617-0.46445 0.3169-0.50277 0.92146-1.1688 1.3435-1.48zm8.7692-14.406c-0.23903-1.6861 0.1497-3.9697 0.95905-5.6341 0.64139-1.319 2.0479-2.7311 3.3651-3.3785 1.1985-0.58905 3.1235-0.98107 4.0637-0.82757 0.6362 0.10387 0.65572 0.09016 0.35211-0.2474-0.17679-0.19655-0.32143-0.42502-0.32143-0.5077 0-0.19412 1.2173 0.066 1.5425 0.32964 0.13683 0.11091 0.24879 0.14424 0.24879 0.07403 0-0.07016-0.29109-0.30617-0.64686-0.52441-0.52796-0.32388-0.57369-0.40063-0.2488-0.41754 0.33041-0.01719 0.3135-0.04799-0.09951-0.18104-2.1977-0.70816-5.7259 0.71267-7.6567 3.0834-0.37821 0.4644-0.98214 1.4701-1.3421 2.2348-0.6218 1.3212-0.6544 1.5052-0.6544 3.6934 0 1.422 0.10276 2.5954 0.26863 3.0674 0.14774 0.42041 0.29113 0.73582 0.31864 0.7009 0.02753-0.0349-0.03942-0.6943-0.14871-1.4653zm8.1697-11.247c0.13684-0.05555 0.36074-0.05555 0.49758 0 0.13684 0.05555 0.0249 0.10101-0.24878 0.10101-0.27368 0-0.38563-0.04541-0.24879-0.10101zm2.1852 0.2119c-0.06612-0.06653-0.2378-0.07364-0.38148-0.01582-0.15877 0.06395-0.11161 0.11138 0.12026 0.12099 0.20981 0.0087 0.32737-0.0386 0.26123-0.10518z" opacity=".1"/></svg>
