<svg xmlns="http://www.w3.org/2000/svg" width="36pt" height="36pt" version="1.1" viewBox="0 0 36 36"> <g> <path style="fill:rgb(74.117%,59.215%,46.666%)" d="M 6 0.75 C 5.230469 0.75 4.5 1.480469 4.5 2.25 L 4.5 33.75 C 4.5 34.480469 5.269531 35.25 6 35.25 L 30 35.25 C 30.730469 35.25 31.5 34.480469 31.5 33.75 L 31.5 10.5 L 21.75 0.75 Z M 6 0.75"/> <path style="fill:rgb(0%,0%,0%);fill-opacity:0.196078" d="M 21.75 9 L 21.796875 9.046875 L 21.914062 9 Z M 23.25 10.5 L 31.5 18.75 L 31.5 10.5 Z M 23.25 10.5"/> <path style="fill:rgb(100.000%,100.000%,100.000%);fill-opacity:0.392157" d="M 21.75 0.75 L 31.5 10.5 L 23.25 10.5 C 22.519531 10.5 21.75 9.730469 21.75 9 Z M 21.75 0.75"/> <path style="fill:rgb(100.000%,100.000%,100.000%)" d="M 23.652344 13.511719 C 23.597656 13.539062 23.546875 13.628906 23.5 13.777344 C 23.367188 14.175781 22.453125 16.90625 17.277344 17.039062 C 14.804688 17.101562 13.753906 14.898438 13.753906 14.898438 L 13.691406 17.734375 C 13.691406 17.734375 13.957031 18.363281 13.429688 19.023438 C 13.398438 18.980469 13.382812 18.925781 13.351562 18.882812 C 13.160156 18.613281 12.9375 18.390625 12.699219 18.222656 C 12.425781 18.027344 12.140625 17.902344 11.863281 17.859375 C 11.539062 17.8125 11.226562 17.882812 10.976562 18.0625 C 10.730469 18.246094 10.582031 18.523438 10.527344 18.851562 C 10.476562 19.136719 10.496094 19.441406 10.589844 19.765625 C 10.671875 20.046875 10.800781 20.332031 10.992188 20.601562 C 11.195312 20.882812 11.445312 21.132812 11.707031 21.308594 C 12 21.507812 12.316406 21.621094 12.621094 21.640625 C 12.71875 21.644531 12.8125 21.621094 12.902344 21.609375 C 14.890625 23.210938 18.835938 24.703125 21.449219 22.996094 C 21.507812 23.015625 21.566406 23.039062 21.621094 23.058594 C 21.621094 23.085938 21.613281 23.113281 21.621094 23.136719 L 21.746094 23.089844 C 21.769531 23.097656 21.785156 23.113281 21.808594 23.121094 C 21.8125 23.121094 21.816406 23.121094 21.824219 23.121094 L 21.871094 23.167969 L 23.050781 23.59375 C 23 24.011719 23.203125 24.480469 23.714844 24.679688 C 24.640625 25.039062 25.5 25.5 25.5 25.5 C 25.058594 23.980469 24.898438 22.761719 23.746094 22.871094 C 23.53125 22.890625 23.371094 22.976562 23.25 23.105469 L 22.210938 22.429688 L 22.164062 22.429688 L 22.148438 22.414062 C 23.550781 21.011719 24.367188 18.382812 23.871094 13.808594 C 23.84375 13.582031 23.75 13.464844 23.652344 13.511719 Z M 23.652344 13.511719"/> </g> </svg>
