<svg xmlns="http://www.w3.org/2000/svg" width="512" height="512" version="1.1" viewBox="0 0 512 512">
 <defs>
  <clipPath id="clipPath-303915126">
   <g transform="translate(0,-1004.3622)">
    <path style="fill:#1890d0" d="m -24,13 c 0,1.105 -0.672,2 -1.5,2 -0.828,0 -1.5,-0.895 -1.5,-2 0,-1.105 0.672,-2 1.5,-2 0.828,0 1.5,0.895 1.5,2 z" transform="matrix(15.333333,0,0,11.5,414.99999,878.8622)"/>
   </g>
  </clipPath>
 </defs>
 <g transform="translate(0,-540.36219)">
  <path style="fill:#7b1a1a" d="M 31.000001,590.36377 151.81003,707.8122 162.24983,697.83532 31.271687,572.51599 Z m 131.249829,105.47618 0,21.94912 187.50034,0 0,-21.94912 z m 187.50034,181.18155 0,19.88164 -0.0319,-19.85096 -131.21791,123.40412 -187.50034,0 0,21.9491 187.50034,0 131.24983,-125.42997 131.24983,125.42997 0,-21.9491 -131.24983,-125.42999 z"/>
  <g style="fill:#d41a1a" transform="matrix(18.749964,0,0,17.918549,-193.99957,357.38281)">
   <g style="fill:#d41a1a" clip-path="url(#clipPath-303915126)">
    <g style="fill:#d41a1a">
     <path style="fill:#d41a1a" d="m 12,12 7,7 -7,7 0,10 10,0 7,-7 7,7 0,-24 m -17,7 10,0 0,9.996 L 19,29 m 0,-10"/>
    </g>
   </g>
  </g>
 </g>
</svg>
