<svg xmlns="http://www.w3.org/2000/svg" width="512" height="512" version="1.1" viewBox="0 0 512 512">
 <defs>
  <filter id="filter4183" style="color-interpolation-filters:sRGB" width="1.072" height="1.072" x="-.04" y="-.04">
   <feGaussianBlur stdDeviation="3.746"/>
  </filter>
 </defs>
 <g transform="matrix(0.74773208,0,0,0.74773208,17.609581,28.300018)">
  <path style="fill:#f7f7f7" d="m 248.61523,31.005859 c -13.03285,0.06025 -25.14627,0.547957 -34.51367,1.521485 C 107.60257,43.595409 40.786526,89.992033 62.914062,137.50977 c 16.149061,34.67926 85.880588,64.45327 162.337888,69.31445 118.34111,7.52416 222.56419,-31.31525 228.0625,-83.82031 l 0,-9.02539 C 451.16907,93.033661 434.43011,74.96297 402.98242,59.652344 379.94308,48.43542 359.40551,41.966882 328.49805,36.191406 310.40501,32.810463 277.28752,30.873314 248.61523,31.005859 Z M 453.31445,162.11328 c -31.3793,53.55719 -167.131,80.96855 -281.79687,57.89649 -53.18086,-10.70059 -97.905741,-29.40324 -113.521486,-53.73829 -0.164831,-0.25686 -0.309332,-0.46459 -0.46875,-0.70898 l 0,69.60742 c 21.382316,31.19044 88.676256,56.32235 158.648436,62.50391 103.27563,9.12367 206.88764,-19.09226 237.13867,-62.78321 l 0,-72.77734 z m 0,90.68945 c -0.2408,0.41202 -0.4824,0.81844 -0.72265,1.24415 -29.09146,51.54723 -165.16601,79.67491 -274.61914,58.55468 C 123.67798,302.12477 74.194027,281.1104 57.527344,255.95898 l 0,72.24805 c 2.428116,3.18647 5.587637,6.42775 9.714844,10.47852 25.015442,24.55208 86.088282,44.09682 143.371092,49.85156 101.80643,10.22764 212.39567,-17.31527 242.70117,-61.25586 l 0,-74.47852 z m 0,91.14258 c -19.05332,36.84287 -96.17614,63.04624 -183.35547,66.42774 -93.48002,3.62588 -187.075705,-23.39957 -212.431636,-64.23828 l 0,72.57421 c 13.267984,16.76689 45.389666,33.79733 76.121096,44.72852 16.51201,5.87335 43.0291,11.94253 66.76367,15.28125 28.2084,3.96803 99.32574,2.53145 126.23242,-2.55078 59.35896,-11.21202 107.71635,-31.42859 126.66992,-57.57227 l 0,-74.65039 z"/>
  <path style="opacity:0.3" d="m 453.25195,113.47266 c -6.06925,52.26651 -110.01243,90.85324 -228,83.35156 -76.4573,-4.86118 -146.188828,-34.63519 -162.337888,-69.31445 -2.059142,-4.42191 -3.343966,-8.83407 -3.902343,-13.20899 -0.955311,7.60494 0.261749,15.391 3.902343,23.20899 16.14906,34.67926 85.880578,64.45327 162.337888,69.31445 118.34111,7.52416 222.56419,-31.31525 228.0625,-83.82031 l 0,-9.02539 c -0.0173,-0.16933 -0.0433,-0.33691 -0.0625,-0.50586 z m 0.0625,111.41796 C 423.06342,268.58158 319.45141,296.7975 216.17578,287.67383 146.2036,281.49227 78.909664,256.36036 57.527344,225.16992 l 0,10 c 21.38231,31.19044 88.676246,56.32235 158.648436,62.50391 103.27563,9.12367 206.88764,-19.09225 237.13867,-62.78321 l 0,-10 z m 0,92.39063 c -30.3055,43.94059 -140.89474,71.4835 -242.70117,61.25586 -57.28281,-5.75474 -118.355642,-25.29948 -143.371092,-49.85156 -4.127201,-4.05077 -7.286724,-7.29205 -9.714844,-10.47852 l 0,10 c 2.42811,3.18647 5.587634,6.42775 9.714844,10.47852 25.015439,24.55208 86.088272,44.09682 143.371092,49.85156 101.80643,10.22764 212.39567,-17.31527 242.70117,-61.25586 l 0,-10 z m 0,91.31445 c -18.95357,26.14368 -67.31096,46.36025 -126.66992,57.57227 -26.90668,5.08223 -98.02402,6.51881 -126.23242,2.55078 -23.73457,-3.33872 -50.25166,-9.4079 -66.76367,-15.28125 -30.73143,-10.93119 -62.853116,-27.96163 -76.121096,-44.72852 l 0,10 c 13.26798,16.76689 45.389666,33.79733 76.121096,44.72852 16.51201,5.87335 43.0291,11.94253 66.76367,15.28125 28.2084,3.96803 99.32574,2.53145 126.23242,-2.55078 59.35896,-11.21202 107.71635,-31.42859 126.66992,-57.57227 l 0,-10 z"/>
 </g>
 <ellipse style="opacity:0.6;fill:#303030;filter:url(#filter4183)" cx="317.65" cy="326.567" rx="124.736" ry="124.964"/>
 <circle style="fill:#3ecdf6" cx="317.65" cy="326.567" r="123.171"/>
 <path style="opacity:0.3" d="m 312.77736,264.72266 -3.46281,17.54489 c -4.2708,1.14539 -8.33737,2.86791 -12.11095,4.9456 l -15.56487,-9.88232 -15.07653,14.57931 10.13093,15.07653 c -2.13984,3.64927 -3.75581,7.47611 -4.94559,11.61372 l -18.04212,3.46281 0,21.00769 18.04212,3.46281 c 1.18089,4.13761 2.80575,8.20419 4.94559,11.86234 l -10.13093,14.82792 15.07653,14.82791 15.56487,-10.13092 c 3.77358,2.0688 7.84015,3.8002 12.11095,4.94559 l 3.46281,17.5449 21.74466,0 3.46281,-17.5449 c 4.27079,-1.14539 8.33737,-2.86791 12.11094,-4.94559 l 15.56488,10.13092 15.07653,-14.82791 -10.13094,-14.82792 c 2.13984,-3.64927 3.75582,-7.72473 4.9456,-11.86234 l 18.04212,-3.46281 0,-21.00769 -18.04212,-3.46281 c -1.1809,-4.13761 -2.80576,-7.96445 -4.9456,-11.61372 l 10.13094,-15.07653 -15.07653,-14.57931 -15.56488,9.88232 c -3.77357,-2.0688 -7.84015,-3.80021 -12.11094,-4.9456 l -3.46281,-17.54489 -21.74466,0 z m 10.87677,43.98653 c 13.10539,0 23.72467,10.61927 23.72467,23.72467 0,13.10539 -10.61928,23.72467 -23.72467,23.72467 -13.1054,0 -23.72468,-10.61928 -23.72468,-23.72467 0,-13.1054 10.61928,-23.72467 23.72468,-23.72467 z"/>
 <path style="fill:#ffffff" d="m 306.77736,258.72266 -3.46281,17.54489 c -4.2708,1.14539 -8.33737,2.86791 -12.11095,4.9456 l -15.56487,-9.88232 -15.07653,14.57931 10.13093,15.07653 c -2.13984,3.64927 -3.75581,7.47611 -4.94559,11.61372 l -18.04212,3.46281 0,21.00769 18.04212,3.46281 c 1.18089,4.13761 2.80575,8.20419 4.94559,11.86234 l -10.13093,14.82792 15.07653,14.82791 15.56487,-10.13092 c 3.77358,2.0688 7.84015,3.8002 12.11095,4.94559 l 3.46281,17.5449 21.74466,0 3.46281,-17.5449 c 4.27079,-1.14539 8.33737,-2.86791 12.11094,-4.94559 l 15.56488,10.13092 15.07653,-14.82791 -10.13094,-14.82792 c 2.13984,-3.64927 3.75582,-7.72473 4.9456,-11.86234 l 18.04212,-3.46281 0,-21.00769 -18.04212,-3.46281 c -1.1809,-4.13761 -2.80576,-7.96445 -4.9456,-11.61372 l 10.13094,-15.07653 -15.07653,-14.57931 -15.56488,9.88232 c -3.77357,-2.0688 -7.84015,-3.80021 -12.11094,-4.9456 l -3.46281,-17.54489 -21.74466,0 z m 10.87677,43.98653 c 13.10539,0 23.72467,10.61927 23.72467,23.72467 0,13.10539 -10.61928,23.72467 -23.72467,23.72467 -13.1054,0 -23.72468,-10.61928 -23.72468,-23.72467 0,-13.1054 10.61928,-23.72467 23.72468,-23.72467 z"/>
</svg>
