<svg xmlns="http://www.w3.org/2000/svg" xmlns:xlink="http://www.w3.org/1999/xlink" width="384pt" height="384pt" version="1.1" viewBox="0 0 384 384">
 <defs>
  <filter id="alpha" width="100%" height="100%" x="0%" y="0%" filterUnits="objectBoundingBox">
   <feColorMatrix in="SourceGraphic" type="matrix" values="0 0 0 0 1 0 0 0 0 1 0 0 0 0 1 0 0 0 1 0"/>
  </filter>
  <mask id="mask0">
   <g filter="url(#alpha)">
    <rect width="384" height="384" x="0" y="0" style="fill:rgb(0%,0%,0%);fill-opacity:0.101961"/>
   </g>
  </mask>
  <clipPath id="clip1">
   <rect width="384" height="384" x="0" y="0"/>
  </clipPath>
  <g id="surface5" clip-path="url(#clip1)">
   <path style="fill:rgb(100%,100%,100%)" d="M 40.125 23.25 C 30.777344 23.25 23.25 30.777344 23.25 40.125 L 23.25 48.5625 C 23.25 39.214844 30.777344 31.6875 40.125 31.6875 L 343.875 31.6875 C 353.222656 31.6875 360.75 39.214844 360.75 48.5625 L 360.75 40.125 C 360.75 30.777344 353.222656 23.25 343.875 23.25 Z M 40.125 23.25"/>
  </g>
  <mask id="mask1">
   <g filter="url(#alpha)">
    <rect width="384" height="384" x="0" y="0" style="fill:rgb(0%,0%,0%);fill-opacity:0.2"/>
   </g>
  </mask>
  <clipPath id="clip2">
   <rect width="384" height="384" x="0" y="0"/>
  </clipPath>
  <g id="surface8" clip-path="url(#clip2)">
   <path style="fill:rgb(0%,0%,0%)" d="M 187.78125 97.6875 C 171.472656 97.6875 158.25 110.910156 158.25 127.21875 C 158.25 143.527344 171.472656 156.75 187.78125 156.75 C 204.089844 156.75 217.3125 143.527344 217.3125 127.21875 C 217.3125 110.910156 204.089844 97.6875 187.78125 97.6875 Z M 141.375 173.625 L 141.375 198.9375 L 166.6875 198.9375 L 166.6875 274.875 L 141.375 274.875 L 141.375 300.1875 L 242.625 300.1875 L 242.625 274.875 L 217.3125 274.875 L 217.3125 173.625 Z M 141.375 173.625"/>
  </g>
  <mask id="mask2">
   <g filter="url(#alpha)">
    <rect width="384" height="384" x="0" y="0" style="fill:rgb(0%,0%,0%);fill-opacity:0.2"/>
   </g>
  </mask>
  <clipPath id="clip3">
   <rect width="384" height="384" x="0" y="0"/>
  </clipPath>
  <g id="surface11" clip-path="url(#clip3)">
   <path style="fill:rgb(0%,0%,0%)" d="M 40.125 360.75 C 30.777344 360.75 23.25 353.222656 23.25 343.875 L 23.25 335.4375 C 23.25 344.785156 30.777344 352.3125 40.125 352.3125 L 343.875 352.3125 C 353.222656 352.3125 360.75 344.785156 360.75 335.4375 L 360.75 343.875 C 360.75 353.222656 353.222656 360.75 343.875 360.75 Z M 40.125 360.75"/>
  </g>
 </defs>
 <g>
  <path style="fill:rgb(21.176471%,48.235294%,94.117647%)" d="M 360.75 343.875 L 360.75 40.125 C 360.75 30.804688 353.195312 23.25 343.875 23.25 L 40.125 23.25 C 30.804688 23.25 23.25 30.804688 23.25 40.125 L 23.25 343.875 C 23.25 353.195312 30.804688 360.75 40.125 360.75 L 343.875 360.75 C 353.195312 360.75 360.75 353.195312 360.75 343.875 Z M 360.75 343.875"/>
  <use mask="url(#mask0)" xlink:href="#surface5"/>
  <use mask="url(#mask1)" xlink:href="#surface8"/>
  <path style="fill:rgb(100%,100%,100%)" d="M 187.78125 90.75 C 171.472656 90.75 158.25 103.972656 158.25 120.28125 C 158.25 136.589844 171.472656 149.8125 187.78125 149.8125 C 204.089844 149.8125 217.3125 136.589844 217.3125 120.28125 C 217.3125 103.972656 204.089844 90.75 187.78125 90.75 Z M 141.375 166.6875 L 141.375 192 L 166.6875 192 L 166.6875 267.9375 L 141.375 267.9375 L 141.375 293.25 L 242.625 293.25 L 242.625 267.9375 L 217.3125 267.9375 L 217.3125 166.6875 Z M 141.375 166.6875"/>
  <use mask="url(#mask2)" xlink:href="#surface11"/>
 </g>
</svg>
