<svg xmlns="http://www.w3.org/2000/svg" width="512" height="512" version="1.1" viewBox="0 0 512 512">
 <defs>
  <linearGradient id="linear-gradient-3" x1="64.655" x2="49.273" y1="-380.292" y2="-412.912" gradientTransform="translate(0,420.73)" gradientUnits="userSpaceOnUse">
   <stop style="stop-color:#ba174e;stop-opacity:0.99607843" offset="0" stop-color="#fe315d"/>
   <stop style="stop-color:#367bf0" offset="1" stop-color="#087cfa"/>
  </linearGradient>
  <linearGradient id="linear-gradient-4" x1="16.006" x2="41.692" y1="-409.631" y2="-360.828" gradientTransform="translate(0,420.73)" gradientUnits="userSpaceOnUse">
   <stop style="stop-color:#ba174e;stop-opacity:0.99607843" offset="0" stop-color="#fe315d"/>
   <stop style="stop-color:#8e44ad" offset="1" stop-color="#755bb4"/>
  </linearGradient>
 </defs>
 <g transform="translate(0,-540.36212)">
  <polygon style="fill:#fd7e00" points="30.5 32 16.2 49.9 16.2 49.9 .7 37.7 8.4 23.4" transform="matrix(7.03125,0,0,7.03125,31,571.36212)"/>
  <polygon style="fill:#367bf0" points="64 17.1 64 17.1 62.8 54.1 38.2 64 23.4 54.4 45 32 35.6 11.2 44.1 1" transform="matrix(7.03125,0,0,7.03125,31,571.36212)"/>
  <polygon style="opacity:0.3" points="64 17.1 44.5 40.1 35.6 11.2 44.1 1 64 17.1" transform="matrix(7.03125,0,0,7.03125,31,581.36212)"/>
  <polygon style="fill:url(#linear-gradient-3)" points="44.1 1 64 17.1 64 17.1 44.5 40.1 35.6 11.2" transform="matrix(7.03125,0,0,7.03125,31,571.36212)"/>
  <polygon style="opacity:0.3" points="30.8 53.1 30.8 53.1 5.2 62.4 9.3 48 14.6 30.2 0 25.3 9.3 0 29.3 2.4 49.1 25" transform="matrix(7.03125,0,0,7.03125,31,581.36212)"/>
  <polygon style="fill:url(#linear-gradient-4)" points="9.3 0 29.3 2.4 49.1 25 30.8 53.1 30.8 53.1 5.2 62.4 9.3 48 14.6 30.2 0 25.3" transform="matrix(7.03125,0,0,7.03125,31,571.36212)"/>
  <rect style="opacity:0.3" width="281.25" height="281.25" x="115.38" y="665.74"/>
  <rect width="281.25" height="281.25" x="115.38" y="655.74"/>
  <g transform="matrix(7.03125,0,0,7.03125,31,571.36212)">
   <rect style="fill:#ffffff" width="15" height="2.5" x="15.8" y="44.5"/>
   <polygon style="fill:#ffffff" points="26.5 20.2 26.5 20.2 26.5 17.2 18.3 17.2 18.3 20.2 20.6 20.2 20.6 30.7 18.3 30.7 18.3 33.8 26.5 33.8 26.5 30.7 24.2 30.7 24.2 20.2"/>
   <path style="fill:#ffffff" d="M 34.5,34"/>
   <path fill="#fff" d="M34.5,34a6.71,6.71,0,0,1-3.3-.7A7.87,7.87,0,0,1,29,31.5l2.3-2.6a7.47,7.47,0,0,0,1.4,1.2,2.93,2.93,0,0,0,1.6.4,1.86,1.86,0,0,0,1.6-.7,2.93,2.93,0,0,0,.6-2.1V17h3.7V27.8a6.77,6.77,0,0,1-.4,2.6,5,5,0,0,1-1.4,2.2A7.15,7.15,0,0,1,34.5,34"/>
  </g>
 </g>
</svg>
