<svg xmlns="http://www.w3.org/2000/svg" width="128" height="128" version="1.1">
 <g transform="translate(0,-924.3622)">
  <path style="fill:#9b59b6" d="m 95.003021,972.59799 c 0,-18.78409 -20.778907,-34.0336 -46.436387,-34.0336 -25.683935,0 -46.468134,15.24951 -46.468134,34.0336 0,11.56676 7.921065,21.73134 19.953466,27.89041 l -11.535019,21.9271 25.017233,-17.2972 c 4.158956,0.8942 8.487234,1.5292 13.032454,1.5292 25.662771,0 46.436387,-15.24426 46.436387,-34.04951 z m -61.029773,3.69332 h -9.810057 v -9.81535 h 9.810057 v 9.81535 z m 29.768814,-9.81535 h 9.810057 v 9.81535 h -9.810057 v -9.81535 z m -19.789435,0 h 9.804766 v 9.81535 h -9.804766 v -9.81535 z"/>
  <path style="fill:#441650" d="m 125.4015,994.01185 c 0,-12.34459 -9.50845,-23.05416 -23.45101,-28.4407 0.68787,2.53453 1.05826,5.1643 1.05826,7.87344 0,22.26576 -24.604515,40.33021 -55.008284,40.33021 -0.375682,0 -0.724907,-0.079 -1.095298,-0.079 8.016309,7.5718 20.530217,12.461 34.62093,12.461 4.29653,0 8.376116,-0.598 12.302256,-1.434 l 23.641496,16.3237 -10.90535,-20.6943 c 11.36569,-5.8257 18.837,-15.4241 18.837,-26.34005 z"/>
  <path style="fill:#ffffff" d="m 24.185656,47.138709 0,-4.772971 4.772971,0 4.77297,0 0,4.772971 0,4.772971 -4.77297,0 -4.772971,0 0,-4.772971 z" transform="translate(0,924.3622)"/>
  <path style="fill:#ffffff" d="m 43.984646,47.138709 0,-4.772971 4.772971,0 4.77297,0 0,4.772971 0,4.772971 -4.77297,0 -4.772971,0 0,-4.772971 z" transform="translate(0,924.3622)"/>
  <path style="fill:#ffffff" d="m 63.783636,47.138709 0,-4.772971 4.772971,0 4.772971,0 0,4.772971 0,4.772971 -4.772971,0 -4.772971,0 0,-4.772971 z" transform="translate(0,924.3622)"/>
 </g>
</svg>
