<svg xmlns="http://www.w3.org/2000/svg" width="512" height="512" version="1.1" viewBox="0 0 512 512">
 <defs>
  <filter id="filter4152" style="color-interpolation-filters:sRGB" width="1.134" height="1.156" x="-.07" y="-.08">
   <feGaussianBlur stdDeviation="12.752"/>
  </filter>
 </defs>
 <g transform="translate(0,-610.5196)">
  <path style="fill:#4c4c4c" d="m 174.41191,975.75803 -16.52401,-16.41455 -32.3216,-0.27171 -32.32159,-0.2717 0,-113.46653 0,-113.46662 162.75529,0 162.75529,0 0,113.46662 0,113.46653 -32.32161,0.2717 -32.32159,0.27171 -16.52402,16.41455 -16.524,16.41457 -65.06407,0 -65.06408,0 -16.52401,-16.41457 z"/>
  <path style="fill:#f1cb6d" d="m 170.4294,731.86692 0,42.78524 17.11411,0 0,-42.78524 z m 51.34236,0 0,42.78524 17.11412,0 0,-42.78524 z m 51.34237,0 0,42.78524 17.11411,0 0,-42.78524 z m 51.34236,0 0,42.78524 17.11411,0 0,-42.78524 z"/>
  <path style="opacity:0.5;filter:url(#filter4152)" d="m 54.501505,674.30352 -6.5,3.0957 c -12.1375,5.7785 -18.24403,14.35863 -20.07227,28.20313 -0.66157,5.0095 -0.91451,58.73487 -0.72265,153.70117 0.28261,139.8905 0.37406,146.20928 2.16992,150.99998 4.05011,10.8045 11.02515,17.579 22.45703,21.8066 5.24273,1.9388 8.10562,2.1198 38.16797,2.4219 17.875005,0.1796 33.596045,0.5692 34.935555,0.8653 1.33951,0.2962 9.02021,6.9901 17.06835,14.8769 12.6768,12.4227 15.22533,14.4725 19.06445,15.3281 6.57505,1.4649 182.29068,1.5325 189.09961,0.072 4.91557,-1.0542 6.2373,-2.0808 19.86328,-15.4336 8.02871,-7.8678 15.6937,-14.5515 17.03321,-14.8515 1.33951,-0.3001 17.96054,-0.6914 36.93554,-0.8711 28.81917,-0.273 35.18374,-0.5927 38.65235,-1.9414 10.09438,-3.9248 16.53276,-10.7226 20.10939,-21.2285 1.587,-4.6616 1.7419,-16.18698 2.0254,-151.54495 0.2,-95.5177 -0.049,-149.17987 -0.7129,-154.20117 -1.838,-13.8976 -7.8864,-22.44328 -19.91603,-28.14258 l -6.65821,-3.15625 -201.5,0 -201.499995,0 z m 43,65 158.499995,0 158.5,0 0,110.5 0,110.5 -31.47656,0.2656 -31.47656,0.2637 -16.0918,15.9863 -16.0918,15.9844 -63.36328,0 -63.36328,0 -16.09179,-15.9844 -16.0918,-15.9863 -31.47656,-0.2637 -31.476565,-0.2656 0,-110.5 0,-110.5 z"/>
  <path style="fill:#ffffff" d="m 49.091823,665.0356 -6.674506,3.17881 c -12.463359,5.93364 -18.733828,14.74413 -20.611152,28.96031 -0.67933,5.14399 -0.939068,60.31174 -0.742058,157.82762 0.290198,143.64618 0.384105,150.13456 2.228179,155.05386 4.158845,11.0946 11.321146,18.051 23.059941,22.3921 5.383483,1.9909 8.323232,2.1768 39.192675,2.4869 18.354898,0.1845 34.497998,0.5844 35.873478,0.8886 1.37546,0.3041 9.26238,7.1777 17.52659,15.2763 13.01714,12.7562 15.63409,14.8611 19.57628,15.7396 6.75157,1.5042 187.18468,1.5737 194.17642,0.074 5.04754,-1.0825 6.40475,-2.1366 20.39655,-15.8479 8.24426,-8.079 16.11504,-14.9423 17.49051,-15.2503 1.37547,-0.3082 18.44272,-0.71 37.92715,-0.8945 29.59289,-0.2803 36.12833,-0.6086 39.69006,-1.9935 10.36539,-4.0302 16.97662,-11.0105 20.64925,-21.7985 1.62959,-4.7867 1.78871,-16.62144 2.07977,-155.61343 0.20541,-98.08209 -0.0501,-153.18495 -0.73203,-158.34106 -1.88731,-14.27071 -8.0981,-23.04582 -20.45069,-28.89813 l -6.83697,-3.24099 -206.90972,0 -206.909727,0 z m 44.154433,66.74507 162.755294,0 162.75529,0 0,113.46663 0,113.46662 -32.32163,0.27276 -32.32161,0.27075 -16.52383,16.41552 -16.52381,16.41351 -65.06441,0 -65.06441,0 -16.52382,-16.41351 -16.52382,-16.41552 -32.32162,-0.27075 -32.321624,-0.27276 0,-113.46662 0,-113.46663 z"/>
 </g>
</svg>
