<svg xmlns="http://www.w3.org/2000/svg" xmlns:xlink="http://www.w3.org/1999/xlink" width="384pt" height="384pt" version="1.1" viewBox="0 0 384 384">
 <defs>
  <filter id="alpha" width="100%" height="100%" x="0%" y="0%" filterUnits="objectBoundingBox">
   <feColorMatrix in="SourceGraphic" type="matrix" values="0 0 0 0 1 0 0 0 0 1 0 0 0 0 1 0 0 0 1 0"/>
  </filter>
  <mask id="mask0">
   <g filter="url(#alpha)">
    <rect width="384" height="384" x="0" y="0" style="fill:rgb(0%,0%,0%);fill-opacity:0.2"/>
   </g>
  </mask>
  <clipPath id="clip1">
   <rect width="384" height="384" x="0" y="0"/>
  </clipPath>
  <g id="surface5" clip-path="url(#clip1)">
   <path style="fill:rgb(0%,0%,0%)" d="M 39.601562 30 L 344.398438 30 C 353.015625 30 360 36.984375 360 45.601562 L 360 350.398438 C 360 359.015625 353.015625 366 344.398438 366 L 39.601562 366 C 30.984375 366 24 359.015625 24 350.398438 L 24 45.601562 C 24 36.984375 30.984375 30 39.601562 30 Z M 39.601562 30"/>
  </g>
  <mask id="mask1">
   <g filter="url(#alpha)">
    <rect width="384" height="384" x="0" y="0" style="fill:rgb(0%,0%,0%);fill-opacity:0.2"/>
   </g>
  </mask>
  <clipPath id="clip2">
   <rect width="384" height="384" x="0" y="0"/>
  </clipPath>
  <g id="surface8" clip-path="url(#clip2)">
   <path style="fill:none;stroke-width:4;stroke-linecap:round;stroke:rgb(0%,0%,0%)" d="M 18 47 L 34 47" transform="matrix(6,0,0,6,0,0)"/>
  </g>
  <mask id="mask2">
   <g filter="url(#alpha)">
    <rect width="384" height="384" x="0" y="0" style="fill:rgb(0%,0%,0%);fill-opacity:0.2"/>
   </g>
  </mask>
  <clipPath id="clip3">
   <rect width="384" height="384" x="0" y="0"/>
  </clipPath>
  <g id="surface11" clip-path="url(#clip3)">
   <path style="fill:none;stroke-width:4;stroke-linecap:round;stroke-linejoin:bevel;stroke:rgb(0%,0%,0%)" d="M 34 35 C 34 35 42.087891 35.69987 42 27 C 41.91276 18.298828 34 19 34 19 M 34 35 L 34 19" transform="matrix(6,0,0,6,0,0)"/>
  </g>
  <mask id="mask3">
   <g filter="url(#alpha)">
    <rect width="384" height="384" x="0" y="0" style="fill:rgb(0%,0%,0%);fill-opacity:0.2"/>
   </g>
  </mask>
  <clipPath id="clip4">
   <rect width="384" height="384" x="0" y="0"/>
  </clipPath>
  <g id="surface14" clip-path="url(#clip4)">
   <path style="fill:none;stroke-width:4;stroke-linecap:round;stroke:rgb(0%,0%,0%)" d="M 26 35 L 22 29 M 18 27 C 18 27 26 27.929036 26 23 C 26 18.070964 18 19 18 19 M 18 35 L 18 19" transform="matrix(6,0,0,6,0,0)"/>
  </g>
  <mask id="mask4">
   <g filter="url(#alpha)">
    <rect width="384" height="384" x="0" y="0" style="fill:rgb(0%,0%,0%);fill-opacity:0.2"/>
   </g>
  </mask>
  <clipPath id="clip5">
   <rect width="384" height="384" x="0" y="0"/>
  </clipPath>
  <g id="surface17" clip-path="url(#clip5)">
   <path style="fill:rgb(100%,100%,100%)" d="M 39.597656 24 C 30.957031 24 24 30.957031 24 39.597656 L 24 45.597656 C 24 36.957031 30.957031 30 39.597656 30 L 344.398438 30 C 353.046875 30 360 36.957031 360 45.597656 L 360 39.597656 C 360 30.957031 353.046875 24 344.398438 24 Z M 39.597656 24"/>
  </g>
 </defs>
 <g>
  <use mask="url(#mask0)" xlink:href="#surface5"/>
  <path style="fill:rgb(78.039216%,14.509804%,40%)" d="M 192 24 L 40.800781 24 C 31.492188 24 24 31.492188 24 40.800781 L 24 192 L 192 192 Z M 192 24"/>
  <path style="fill:rgb(40%,33.333333%,89.411765%)" d="M 192 24 L 343.199219 24 C 352.507812 24 360 31.492188 360 40.800781 L 360 192 L 192 192 Z M 192 24"/>
  <path style="fill:rgb(100%,54.901961%,16.470588%)" d="M 192 360 L 40.800781 360 C 31.492188 360 24 352.507812 24 343.199219 L 24 192 L 192 192 Z M 192 360"/>
  <path style="fill:rgb(78.039216%,14.509804%,40%)" d="M 192 360 L 343.199219 360 C 352.507812 360 360 352.507812 360 343.199219 L 360 192 L 192 192 Z M 192 360"/>
  <path style="fill:rgb(24.705882%,24.705882%,24.705882%)" d="M 72 72 L 312 72 L 312 312 L 72 312 Z M 72 72"/>
  <use mask="url(#mask1)" xlink:href="#surface8"/>
  <path style="fill:none;stroke-width:4;stroke-linecap:round;stroke:rgb(100%,100%,100%)" d="M 18 46 L 34 46" transform="matrix(6,0,0,6,0,0)"/>
  <use mask="url(#mask2)" xlink:href="#surface11"/>
  <path style="fill:none;stroke-width:4;stroke-linecap:round;stroke-linejoin:bevel;stroke:rgb(100%,100%,100%)" d="M 34 34 C 34 34 42.087891 34.69987 42 26 C 41.91276 17.298828 34 18 34 18 M 34 34 L 34 18" transform="matrix(6,0,0,6,0,0)"/>
  <use mask="url(#mask3)" xlink:href="#surface14"/>
  <path style="fill:none;stroke-width:4;stroke-linecap:round;stroke:rgb(100%,100%,100%)" d="M 26 34 L 22 28 M 18 26 C 18 26 26 26.929036 26 22 C 26 17.070964 18 18 18 18 M 18 34 L 18 18" transform="matrix(6,0,0,6,0,0)"/>
  <use mask="url(#mask4)" xlink:href="#surface17"/>
 </g>
</svg>
