<svg xmlns="http://www.w3.org/2000/svg" width="512" height="512" version="1.1" viewBox="0 0 512 512">
 <g transform="translate(0,-610.5196)">
  <rect style="fill:#202b33" width="437.586" height="437.586" x="37.21" y="647.73"/>
  <path style="fill:#293842" d="m 142.55173,647.72665 0,105.34482 -105.344833,0 0,8.10345 105.344833,0 0,40.51724 -105.344833,0 0,8.10345 105.344833,0 0,56.72413 -105.344833,0 0,8.10345 105.344833,0 0,48.6207 -105.344833,0 0,8.10345 105.344833,0 0,40.51724 -105.344833,0 0,8.10345 105.344833,0 0,105.34487 8.10345,0 0,-105.34487 40.51724,0 0,105.34487 8.10345,0 0,-105.34487 56.72413,0 0,105.34487 8.10345,0 0,-105.34487 48.62069,0 0,105.34487 8.10344,0 0,-105.34487 40.51724,0 0,105.34487 8.10345,0 0,-105.34487 105.34484,0 0,-8.10345 -105.34484,0 0,-40.51724 105.34484,0 0,-8.10345 -105.34484,0 0,-48.6207 105.34484,0 0,-8.10345 -105.34484,0 0,-56.72413 105.34484,0 0,-8.10345 -105.34484,0 0,-40.51724 105.34484,0 0,-8.10345 -105.34484,0 0,-105.34482 -8.10345,0 0,105.34482 -40.51724,0 0,-105.34482 -8.10344,0 0,105.34482 -48.62069,0 0,-105.34482 -8.10345,0 0,105.34482 -56.72413,0 0,-105.34482 -8.10345,0 0,105.34482 -40.51724,0 0,-105.34482 z m 8.10345,113.44827 40.51724,0 0,40.51724 -40.51724,0 z m 48.62069,0 56.72413,0 0,40.51724 -56.72413,0 z m 64.82758,0 48.62069,0 0,40.51724 -48.62069,0 z m 56.72413,0 40.51724,0 0,40.51724 -40.51724,0 z m -170.1724,48.62069 40.51724,0 0,56.72413 -40.51724,0 z m 48.62069,0 56.72413,0 0,56.72413 -56.72413,0 z m 64.82758,0 48.62069,0 0,56.72413 -48.62069,0 z m 56.72413,0 40.51724,0 0,56.72413 -40.51724,0 z m -170.1724,64.82758 40.51724,0 0,48.6207 -40.51724,0 z m 48.62069,0 56.72413,0 0,48.6207 -56.72413,0 z m 64.82758,0 48.62069,0 0,48.6207 -48.62069,0 z m 56.72413,0 40.51724,0 0,48.6207 -40.51724,0 z m -170.1724,56.72415 40.51724,0 0,40.51724 -40.51724,0 z m 48.62069,0 56.72413,0 0,40.51724 -56.72413,0 z m 64.82758,0 48.62069,0 0,40.51724 -48.62069,0 z m 56.72413,0 40.51724,0 0,40.51724 -40.51724,0 z"/>
  <path style="fill:#f9de69;fill-rule:evenodd" d="m 409.96551,793.58871 -56.72413,32.41379 -48.62069,-8.10344 -40.51724,32.41379 -40.51724,-8.10345 -24.31034,8.10345 -16.2069,8.10345 -24.31034,0 -8.10345,8.10344 -40.51724,-8.10344 -16.206912,8.10344 -16.2069,8.10345 -8.10344,-8.10345 -32.413791,75.6376 0,143.15556 437.586213,0 0,-283.62074 -32.41379,0 -32.41381,-8.10345 z"/>
  <path style="fill:#1ba389;fill-rule:evenodd" d="m 328.93103,890.83009 -32.41379,8.10345 -24.31034,24.31035 -56.72414,0 -24.31034,8.10345 -16.2069,0 -32.41379,48.62069 -8.10345,-8.10345 -32.41379,64.82762 -40.517252,-16.2069 -24.310341,18.2328 0,46.5948 437.586213,0 0,-194.48281 -145.86208,0 z"/>
  <path style="fill:#51b9c3;fill-rule:evenodd" d="m 385.65517,866.51974 -56.72414,40.51726 -24.31034,24.31034 -32.41379,8.10345 -32.41379,-8.10345 -32.4138,0 -56.72413,72.93106 -16.2069,-8.10348 -32.41379,40.51728 -16.206911,0 -8.10345,8.1035 -16.20689,-8.1035 -24.310341,18.2327 0,30.388 437.586212,0 0,-210.68971 -8.10345,0 -16.2069,8.10345 -32.41379,8.10345 -32.4138,-24.31035 z"/>
  <path style="fill:#223656" d="m 21.000001,647.72665 0,421.37925 0,16.207 16.206896,0 437.586213,0 16.20689,0 0,-16.207 0,-421.37925 -16.20689,0 -437.586213,0 -16.206896,0 z m 16.206896,32.41379 437.586213,0 0,388.96546 -437.586213,0 0,-388.96546 z"/>
  <circle style="fill:#ffffff" cx="466.689" cy="663.934" r="8.103"/>
  <rect style="fill:#51b9c3" width="437.586" height="8.256" x="37.21" y="680.14"/>
 </g>
</svg>
