<svg xmlns="http://www.w3.org/2000/svg" xmlns:xlink="http://www.w3.org/1999/xlink" width="384pt" height="384pt" version="1.1" viewBox="0 0 384 384">
 <defs>
  <filter id="alpha" width="100%" height="100%" x="0%" y="0%" filterUnits="objectBoundingBox">
   <feColorMatrix in="SourceGraphic" type="matrix" values="0 0 0 0 1 0 0 0 0 1 0 0 0 0 1 0 0 0 1 0"/>
  </filter>
  <mask id="mask0">
   <g filter="url(#alpha)">
    <rect width="384" height="384" x="0" y="0" style="fill:rgb(0%,0%,0%);fill-opacity:0.2"/>
   </g>
  </mask>
  <clipPath id="clip1">
   <rect width="384" height="384" x="0" y="0"/>
  </clipPath>
  <g id="surface5" clip-path="url(#clip1)">
   <path style="fill:rgb(0%,0%,0%)" d="M 360 343.199219 L 360 40.800781 C 360 31.523438 352.476562 24 343.199219 24 L 40.800781 24 C 31.523438 24 24 31.523438 24 40.800781 L 24 343.199219 C 24 352.476562 31.523438 360 40.800781 360 L 343.199219 360 C 352.476562 360 360 352.476562 360 343.199219 Z M 360 343.199219"/>
  </g>
  <mask id="mask1">
   <g filter="url(#alpha)">
    <rect width="384" height="384" x="0" y="0" style="fill:rgb(0%,0%,0%);fill-opacity:0.2"/>
   </g>
  </mask>
  <clipPath id="clip2">
   <rect width="384" height="384" x="0" y="0"/>
  </clipPath>
  <g id="surface8" clip-path="url(#clip2)">
   <path style="fill:rgb(0%,0%,0%)" d="M 48 48 L 48 84 L 84 84 L 84 48 Z M 300 48 L 300 84 L 336 84 L 336 48 Z M 48 132 L 48 168 L 84 168 L 84 132 Z M 300 132 L 300 168 L 336 168 L 336 132 Z M 48 216 L 48 252 L 84 252 L 84 216 Z M 300 216 L 300 252 L 336 252 L 336 216 Z M 48 300 L 48 336 L 84 336 L 84 300 Z M 300 300 L 300 336 L 336 336 L 336 300 Z M 300 300"/>
  </g>
  <mask id="mask2">
   <g filter="url(#alpha)">
    <rect width="384" height="384" x="0" y="0" style="fill:rgb(0%,0%,0%);fill-opacity:0.101961"/>
   </g>
  </mask>
  <clipPath id="clip3">
   <rect width="384" height="384" x="0" y="0"/>
  </clipPath>
  <g id="surface11" clip-path="url(#clip3)">
   <path style="fill:rgb(100%,100%,100%)" d="M 40.804688 18 C 31.496094 18 24 25.496094 24 34.804688 L 24 40.804688 C 24 31.496094 31.496094 24 40.804688 24 L 343.195312 24 C 352.503906 24 360 31.496094 360 40.804688 L 360 34.804688 C 360 25.496094 352.503906 18 343.195312 18 Z M 40.804688 18"/>
  </g>
  <mask id="mask3">
   <g filter="url(#alpha)">
    <rect width="384" height="384" x="0" y="0" style="fill:rgb(0%,0%,0%);fill-opacity:0.2"/>
   </g>
  </mask>
  <clipPath id="clip4">
   <rect width="384" height="384" x="0" y="0"/>
  </clipPath>
  <g id="surface14" clip-path="url(#clip4)">
   <path style="fill:rgb(0%,0%,0%)" d="M 114 60 L 270 60 L 270 168 L 114 168 Z M 114 60"/>
  </g>
  <mask id="mask4">
   <g filter="url(#alpha)">
    <rect width="384" height="384" x="0" y="0" style="fill:rgb(0%,0%,0%);fill-opacity:0.2"/>
   </g>
  </mask>
  <clipPath id="clip5">
   <rect width="384" height="384" x="0" y="0"/>
  </clipPath>
  <g id="surface17" clip-path="url(#clip5)">
   <path style="fill:rgb(0%,0%,0%)" d="M 114 216 L 270 216 L 270 324 L 114 324 Z M 114 216"/>
  </g>
  <mask id="mask5">
   <g filter="url(#alpha)">
    <rect width="384" height="384" x="0" y="0" style="fill:rgb(0%,0%,0%);fill-opacity:0.2"/>
   </g>
  </mask>
  <clipPath id="clip6">
   <rect width="384" height="384" x="0" y="0"/>
  </clipPath>
  <g id="surface20" clip-path="url(#clip6)">
   <path style="fill:rgb(0%,0%,0%)" d="M 383.746094 269.089844 C 381.046875 320.011719 338.996094 359.9375 288 360 C 237.664062 360 195.875 321.117188 192.253906 270.910156 C 192.121094 272.605469 192.039062 274.300781 192 276 C 192 329.019531 234.980469 372 288 372 C 341.019531 372 384 329.019531 384 276 C 383.996094 273.691406 383.910156 271.386719 383.742188 269.085938 Z M 383.746094 269.089844"/>
  </g>
 </defs>
 <g>
  <use mask="url(#mask0)" xlink:href="#surface5"/>
  <path style="fill:rgb(39.215686%,17.254902%,40.784314%)" d="M 360 337.199219 L 360 34.800781 C 360 25.523438 352.476562 18 343.199219 18 L 40.800781 18 C 31.523438 18 24 25.523438 24 34.800781 L 24 337.199219 C 24 346.476562 31.523438 354 40.800781 354 L 343.199219 354 C 352.476562 354 360 346.476562 360 337.199219 Z M 360 337.199219"/>
  <use mask="url(#mask1)" xlink:href="#surface8"/>
  <path style="fill:rgb(100%,100%,100%)" d="M 48 42 L 48 78 L 84 78 L 84 42 Z M 300 42 L 300 78 L 336 78 L 336 42 Z M 48 126 L 48 162 L 84 162 L 84 126 Z M 300 126 L 300 162 L 336 162 L 336 126 Z M 48 210 L 48 246 L 84 246 L 84 210 Z M 300 210 L 300 246 L 336 246 L 336 210 Z M 48 294 L 48 330 L 84 330 L 84 294 Z M 300 294 L 300 330 L 336 330 L 336 294 Z M 300 294"/>
  <use mask="url(#mask2)" xlink:href="#surface11"/>
  <use mask="url(#mask3)" xlink:href="#surface14"/>
  <path style="fill:rgb(100%,100%,100%)" d="M 114 54 L 270 54 L 270 162 L 114 162 Z M 114 54"/>
  <use mask="url(#mask4)" xlink:href="#surface17"/>
  <path style="fill:rgb(100%,100%,100%)" d="M 114 210 L 270 210 L 270 318 L 114 318 Z M 114 210"/>
  <use mask="url(#mask5)" xlink:href="#surface20"/>
  <path style="fill:rgb(58.823529%,74.509804%,30.588235%)" d="M 384 270 C 384 323.019531 341.019531 366 288 366 C 234.980469 366 192 323.019531 192 270 C 192 216.980469 234.980469 174 288 174 C 341.019531 174 384 216.980469 384 270 Z M 384 270"/>
  <path style="fill:rgb(100%,100%,100%)" d="M 258.457031 222 C 248.269531 222 240 230.269531 240 240.457031 C 240 250.652344 248.265625 258.917969 258.460938 258.917969 C 261.757812 258.917969 264.785156 257.890625 267.460938 256.378906 L 282.007812 270 L 267.46875 283.613281 C 264.789062 282.101562 261.761719 281.078125 258.46875 281.078125 C 248.28125 281.078125 240.011719 289.34375 240.011719 299.542969 C 240.011719 309.730469 248.28125 318 258.46875 318 C 268.664062 318 276.929688 309.734375 276.929688 299.539062 C 276.929688 297.847656 276.664062 296.25 276.238281 294.691406 L 291.929688 279.460938 L 324.929688 310.617188 L 336.007812 310.617188 L 336.007812 303.230469 L 276.238281 245.308594 C 276.664062 243.75 276.929688 242.15625 276.929688 240.460938 C 276.929688 230.261719 268.660156 221.996094 258.460938 221.996094 Z M 258.457031 233.078125 C 262.535156 233.078125 265.839844 236.382812 265.839844 240.460938 C 265.839844 244.539062 262.535156 247.847656 258.457031 247.847656 C 254.378906 247.847656 251.070312 244.539062 251.070312 240.460938 C 251.070312 236.382812 254.378906 233.078125 258.457031 233.078125 Z M 324.917969 229.382812 L 295.839844 256.847656 L 305.53125 266.308594 L 335.996094 236.769531 L 335.996094 229.386719 Z M 258.457031 292.152344 C 262.535156 292.152344 265.839844 295.460938 265.839844 299.539062 C 265.839844 303.617188 262.535156 306.921875 258.457031 306.921875 C 254.378906 306.921875 251.070312 303.617188 251.070312 299.539062 C 251.070312 295.460938 254.378906 292.152344 258.457031 292.152344 Z M 258.457031 292.152344"/>
 </g>
</svg>
