<svg xmlns="http://www.w3.org/2000/svg" xmlns:xlink="http://www.w3.org/1999/xlink" width="384pt" height="384pt" version="1.1" viewBox="0 0 384 384">
 <defs>
  <filter id="alpha" width="100%" height="100%" x="0%" y="0%" filterUnits="objectBoundingBox">
   <feColorMatrix in="SourceGraphic" type="matrix" values="0 0 0 0 1 0 0 0 0 1 0 0 0 0 1 0 0 0 1 0"/>
  </filter>
  <mask id="mask0">
   <g filter="url(#alpha)">
    <rect width="384" height="384" x="0" y="0" style="fill:rgb(0%,0%,0%);fill-opacity:0.301961"/>
   </g>
  </mask>
  <clipPath id="clip1">
   <rect width="384" height="384" x="0" y="0"/>
  </clipPath>
  <g id="surface5" clip-path="url(#clip1)">
   <path style="fill:rgb(0%,0%,0%)" d="M 248.03125 263.84375 C 253.722656 262.082031 263.003906 255.949219 266.085938 251.914062 C 269.222656 247.796875 270.863281 242.0625 270.890625 235.132812 L 270.910156 229.460938 L 255.671875 221.835938 C 239.203125 213.59375 236.175781 212.390625 233.523438 213.058594 C 232.496094 213.316406 230.339844 215.4375 228.214844 218.289062 C 221.574219 227.175781 216.804688 231.941406 214.542969 231.941406 C 211.679688 231.941406 198.96875 225.835938 191.507812 220.878906 C 188.054688 218.582031 182.40625 214.023438 178.957031 210.742188 C 170.054688 202.277344 159.300781 187.609375 159.300781 183.9375 C 159.300781 183.128906 161.378906 180.023438 163.921875 177.03125 C 169.199219 170.820312 171.347656 167.035156 171.347656 163.933594 C 171.347656 160.433594 158.886719 131.15625 156.371094 128.746094 C 154.3125 126.777344 154.007812 126.710938 147.027344 126.710938 C 138.367188 126.710938 136.585938 127.558594 131.003906 134.34375 C 118.730469 149.257812 117.8125 167.40625 128.3125 187.589844 C 131.609375 193.921875 141.644531 208.34375 148.332031 216.351562 C 154.632812 223.898438 167.863281 236.617188 174.613281 241.617188 C 187.582031 251.226562 203.246094 258.347656 222.722656 263.492188 C 231.152344 265.71875 241.488281 265.863281 248.03125 263.84375 Z M 248.03125 263.84375"/>
  </g>
  <mask id="mask1">
   <g filter="url(#alpha)">
    <rect width="384" height="384" x="0" y="0" style="fill:rgb(0%,0%,0%);fill-opacity:0.501961"/>
   </g>
  </mask>
  <clipPath id="clip2">
   <rect width="384" height="384" x="0" y="0"/>
  </clipPath>
  <g id="surface8" clip-path="url(#clip2)">
   <path style="fill:rgb(0%,0%,0%);fill-opacity:0.8" d="M 56.675781 187.617188 C 55.964844 212.894531 62.390625 238.503906 76.003906 261.363281 L 78.859375 266.15625 L 80.273438 261.03125 L 76.003906 253.863281 C 63.734375 233.261719 57.308594 210.429688 56.675781 187.617188 Z M 327.316406 187.898438 C 326.972656 200.753906 324.789062 213.644531 320.675781 226.195312 C 319.199219 230.710938 316.089844 238.292969 313.765625 243.042969 C 288.183594 295.390625 231.367188 325.746094 173.691406 317.882812 C 155.992188 315.46875 135.75 308.386719 122.316406 299.90625 C 120.6875 298.878906 118.386719 298.050781 117.199219 298.0625 L 75.074219 308.648438 L 74.484375 310.804688 L 106.011719 303.277344 C 113.648438 302.792969 120.441406 306.507812 122.066406 307.535156 C 135.5 316.015625 155.992188 322.96875 173.691406 325.382812 C 231.367188 333.246094 288.183594 302.890625 313.765625 250.542969 C 316.089844 245.792969 319.199219 238.210938 320.675781 233.695312 C 325.589844 218.699219 327.761719 203.222656 327.316406 187.898438 Z M 327.316406 187.898438"/>
  </g>
 </defs>
 <g>
  <path style="fill:rgb(5.882353%,63.137255%,37.254902%);stroke-width:44.096146;stroke:rgb(100%,100%,100%);stroke-miterlimit:100" d="M 228.546875 996.351723 C 202.005208 992.731932 171.65625 982.11214 151.515625 969.398598 C 149.078125 967.856932 145.625 966.61214 143.84375 966.632973 C 142.0625 966.653807 124.838542 970.836098 105.567708 975.92464 C 86.291667 981.013182 70.088542 984.742348 69.552083 984.20589 C 69.015625 983.67464 73.057292 967.007973 78.53125 947.17464 L 88.479167 911.106932 L 82.072917 900.356932 C 42.15625 833.325682 43.453125 750.523598 85.421875 686.48714 C 116.317708 639.356932 162.057292 608.409015 217.411458 597.190265 C 228.734375 594.89339 234.125 594.528807 256.260417 594.528807 C 284.817708 594.528807 297.083333 596.263182 318.828125 603.377765 C 330.848958 607.315265 353.291667 617.617348 362.567708 623.461098 C 380.463542 634.726723 402.609375 654.26839 414.520833 669.289223 C 457.307292 723.257973 470.15625 794.070473 448.927083 858.877765 C 446.713542 865.648598 442.046875 877.013182 438.567708 884.138182 C 400.208333 962.622557 315.015625 1008.138182 228.546875 996.351723 Z M 228.546875 996.351723" transform="matrix(0.75,0,0,0.75,0,-405.271605)"/>
  <use mask="url(#mask0)" xlink:href="#surface5"/>
  <path style="fill:rgb(100%,100%,100%)" d="M 244.464844 260.273438 C 250.15625 258.515625 259.4375 252.382812 262.519531 248.347656 C 265.65625 244.230469 267.296875 238.496094 267.324219 231.5625 L 267.34375 225.894531 L 252.105469 218.269531 C 235.636719 210.027344 232.609375 208.824219 229.957031 209.492188 C 228.929688 209.75 226.773438 211.871094 224.648438 214.722656 C 218.007812 223.609375 213.238281 228.375 210.976562 228.375 C 208.113281 228.375 195.402344 222.269531 187.941406 217.3125 C 184.488281 215.015625 178.839844 210.457031 175.390625 207.175781 C 166.488281 198.710938 155.734375 184.042969 155.734375 180.371094 C 155.734375 179.5625 157.8125 176.457031 160.355469 173.464844 C 165.632812 167.253906 167.78125 163.46875 167.78125 160.367188 C 167.78125 156.867188 155.320312 127.589844 152.804688 125.179688 C 150.746094 123.210938 150.441406 123.144531 143.460938 123.144531 C 134.800781 123.144531 133.019531 123.992188 127.4375 130.777344 C 115.164062 145.691406 114.246094 163.839844 124.746094 184.023438 C 128.042969 190.355469 138.078125 204.777344 144.765625 212.785156 C 151.066406 220.332031 164.296875 233.050781 171.046875 238.050781 C 184.015625 247.660156 199.679688 254.78125 219.15625 259.925781 C 227.585938 262.152344 237.921875 262.296875 244.464844 260.273438 Z M 244.464844 260.273438"/>
  <use mask="url(#mask1)" xlink:href="#surface8"/>
 </g>
</svg>
