<svg width="512" height="512" version="1.1" viewBox="0 0 384 384" xmlns="http://www.w3.org/2000/svg"><path d="m360 192c0-92.781-75.215-168-168-168-92.781 0-168 75.215-168 168 0 92.781 75.215 168 168 168 92.781 0 168-75.215 168-168z" fill="#262933"/><path d="m192 67.504c-39.762 0-71.996 32.234-71.996 71.996 0.0352 8 1.4062 15.938 4.0547 23.484 9.1445-9.1758 20.051-16.403 32.062-21.25-0.0625-0.74218-0.10158-1.4878-0.11719-2.2339 0-19.883 16.117-36 35.996-36 19.883 0 36 16.117 36 36-0.0156 0.75391-0.0547 1.5073-0.11718 2.2573 12.016 4.832 22.93 12.043 32.086 21.204 2.6367-7.543 4-15.469 4.0312-23.461 0-39.762-32.234-71.996-72-71.996zm0.0044 47.996c-13.254 0-24 10.746-24 24s10.746 24 24 24 24-10.746 24-24-10.746-24-24-24zm71.433 48.961-0.63574 1.0547c1.5547 6.8203 2.3589 13.789 2.398 20.785-0.0312 5.1133-0.47216 10.219-1.3198 15.262 14.43 5.0469 24.101 18.652 24.12 33.938 0 19.883-16.117 36-36 36-8.9101-0.0195-17.492-3.3433-24.094-9.3237-9.8476 7.6484-21.089 13.304-33.097 16.655l-0.082 0.14502c13.586 17.934 34.772 28.484 57.272 28.523 39.766 0 72-32.238 72-72-0.0234-35.332-25.68-65.426-60.562-71.039zm-143.24 0.12158c-34.691 5.7656-60.141 35.75-60.192 70.917 0 39.762 32.234 72 72 72 22.484-0.0195 43.672-10.547 57.274-28.453-12.203-3.207-23.653-8.7886-33.696-16.425-6.5351 5.7031-14.906 8.855-23.578 8.8784-19.883 0-36-16.117-36-36 0-14.836 9.1016-28.152 22.922-33.539-0.86719-5.1758-1.3047-10.415-1.3125-15.661 0.0312-7.3164 0.89502-14.601 2.5825-21.718zm11.808 46.917c-13.254 0-24 10.746-24 24s10.746 24 24 24 24-10.746 24-24-10.746-24-24-24zm119.99 0c-13.254 0-24 10.746-24 24s10.746 24 24 24c13.258 0 24-10.746 24-24s-10.742-24-24-24z" opacity=".31"/><path d="m263.43 156.96-0.63672 1.0547c1.5547 6.8203 2.3594 13.789 2.3984 20.785-0.0312 5.1133-0.47265 10.219-1.3203 15.262 14.43 5.0469 24.102 18.652 24.121 33.938 0 19.883-16.117 36-36 36-8.9102-0.0195-17.492-3.3438-24.094-9.3242-9.8476 7.6484-21.09 13.305-33.098 16.656l-0.082 0.14453c13.586 17.934 34.773 28.484 57.273 28.523 39.766 0 72-32.238 72-72-0.0234-35.332-25.68-65.426-60.562-71.039z" fill="#357aef"/><path d="m120.19 157.08c-34.691 5.7656-60.141 35.75-60.191 70.918 0 39.762 32.234 72 72 72 22.484-0.0195 43.672-10.547 57.273-28.453-12.203-3.207-23.652-8.7891-33.695-16.426-6.5352 5.7031-14.906 8.8555-23.578 8.8789-19.883 0-36-16.117-36-36 0-14.836 9.1016-28.152 22.922-33.539-0.86719-5.1758-1.3047-10.414-1.3125-15.66 0.0312-7.3164 0.89453-14.602 2.582-21.719z" fill="#d31818"/><path d="m192 60.004c-39.762 0-71.996 32.234-71.996 71.996 0.0352 8 1.4062 15.938 4.0547 23.484 9.1445-9.1758 20.051-16.402 32.062-21.25-0.0625-0.74218-0.10157-1.4883-0.11719-2.2344 0-19.883 16.117-36 35.996-36 19.883 0 36 16.117 36 36-0.0156 0.75391-0.0547 1.5078-0.11718 2.2578 12.016 4.832 22.93 12.043 32.086 21.203 2.6367-7.543 4-15.469 4.0312-23.461 0-39.762-32.234-71.996-72-71.996z" fill="#0ba05d"/><path d="m216 132c0 13.254-10.746 24-24 24s-24-10.746-24-24 10.746-24 24-24 24 10.746 24 24z" fill="#077041"/><path d="m156 228c0 13.254-10.746 24-24 24s-24-10.746-24-24 10.746-24 24-24 24 10.746 24 24z" fill="#800f34"/><path d="m275.99 228c0 13.254-10.742 24-24 24-13.254 0-24-10.746-24-24s10.746-24 24-24c13.258 0 24 10.746 24 24z" fill="#2b4b80"/><path transform="scale(.75)" d="m256.01 32.01c-123.71 0-224 100.29-224 224 0 1.6717 0.028015 3.337 0.064453 5 2.66-121.4 101.9-219 223.93-219s221.27 97.598 223.93 219c0.03644-1.663 0.0625-3.3283 0.0625-5 0-123.71-100.29-224-223.99-224z" fill="#fff" fill-opacity=".97685" opacity=".1"/><path transform="scale(.75)" d="m32.074 251.01c-0.036438 1.663-0.064453 3.3283-0.064453 5 0 123.71 100.29 223.99 224 223.99 123.71 0 223.99-100.29 223.99-223.99 0-1.6717-0.02606-3.337-0.0625-5-2.66 121.4-101.9 218.99-223.93 218.99-122.04 0-221.27-97.596-223.93-218.99z" opacity=".3" stroke-width="1.3333"/></svg>
