<svg enable-background="new" version="1.0" viewBox="0 0 512 512" xmlns="http://www.w3.org/2000/svg"><title>Adwaita Icon Template</title><defs><linearGradient id="d" x1="-156" x2="220" y1="-256" y2="-256" gradientTransform="matrix(.2604 0 0 .28125 226.66 9.9997)" gradientUnits="userSpaceOnUse"><stop offset="0"/><stop stop-color="#4c4f5c" offset="1"/></linearGradient><radialGradient id="a" cx="-72.632" cy="88.045" r="200" gradientTransform="matrix(.08037 0 0 2.375 232.13 -273.11)" gradientUnits="userSpaceOnUse"><stop stop-color="#d5d3cf" offset="0"/><stop stop-color="#d5d3cf" stop-opacity="0" offset="1"/></radialGradient><clipPath id="f"><rect x="270.27" y="-71.789" width="288" height="229.05" rx="0" ry="0" enable-background="new" fill="#e66100" style="paint-order:normal"/></clipPath><filter id="e" x="-.23424" y="-.018493" width="1.4685" height="1.037" color-interpolation-filters="sRGB"><feGaussianBlur stdDeviation="2.3424332"/></filter><linearGradient id="c" x1="-74" x2="-16" y1="-243.12" y2="-242" gradientTransform="matrix(.93103 0 0 1.0588 290.94 192.24)" gradientUnits="userSpaceOnUse"><stop stop-color="#23bac2" offset="0"/><stop stop-color="#6bf9f4" stop-opacity="0" offset="1"/></linearGradient><linearGradient id="b" x1="72" x2="24" y1="244" y2="244" gradientTransform="rotate(-90 60.021 238.02)" gradientUnits="userSpaceOnUse"><stop stop-color="#23bac2" offset="0"/><stop stop-color="#198388" offset="1"/></linearGradient></defs><g transform="matrix(4.1998 0 0 4.1998 -698.42 -5.7647)"><g transform="translate(183.25 -173.63)" enable-background="new"><rect transform="rotate(90)" x="180" y="-88" width="111.91" height="88" rx="8" ry="8.8" enable-background="new" fill="#e6e6e6" style="paint-order:normal"/><g transform="rotate(180 54 234)"><rect transform="rotate(90)" x="186.04" y="-100" width="92" height="72" rx="4.75" ry="4.75" enable-background="new" fill="url(#d)" style="paint-order:normal"/><rect transform="rotate(90)" x="186.04" y="-100" width="92" height="72" rx="0" ry="0" enable-background="new" fill="url(#a)" opacity=".486" style="paint-order:normal"/><rect transform="rotate(-90)" x="-226.04" y="36" width="4" height="60" fill="#fff" opacity=".5"/><rect transform="rotate(90)" x="222.04" y="-100" width="54" height="72" rx="0" ry="0" enable-background="new" fill="url(#c)" opacity=".8" style="paint-order:normal"/><path transform="matrix(1.7947e-8 .33333 -.31425 0 77.44 95.953)" d="m372.27-113.05v304h24v-304z" clip-path="url(#f)" color="#000000" color-rendering="auto" dominant-baseline="auto" enable-background="new" fill="#23bac2" filter="url(#e)" image-rendering="auto" shape-rendering="auto" solid-color="#000000" style="font-feature-settings:normal;font-variant-alternates:normal;font-variant-caps:normal;font-variant-ligatures:normal;font-variant-numeric:normal;font-variant-position:normal;isolation:auto;mix-blend-mode:normal;shape-padding:0;text-decoration-color:#000000;text-decoration-line:none;text-decoration-style:solid;text-indent:0;text-orientation:mixed;text-transform:none;white-space:normal"/><path d="m95 225.04v46s0 2-2 2h-58c-2 0-2-2-2-2v-46" fill="url(#b)" stroke="#abebe9" stroke-width="2"/><g transform="matrix(0,-1,-1,0,306,300)"><path d="m75.958 210v64h12l9-15 13-7v-39c0-3-3-3-3-3z" enable-background="new" fill="#f6f5f4"/><path d="m109.96 252h-19s-3 0-3 3v19z" enable-background="new" fill="#deddda"/></g><path d="m100 222.04h-72v4h72z" color="#000000" color-rendering="auto" dominant-baseline="auto" enable-background="new" fill="#fff" image-rendering="auto" shape-rendering="auto" solid-color="#000000" style="font-feature-settings:normal;font-variant-alternates:normal;font-variant-caps:normal;font-variant-ligatures:normal;font-variant-numeric:normal;font-variant-position:normal;isolation:auto;mix-blend-mode:normal;shape-padding:0;text-decoration-color:#000000;text-decoration-line:none;text-decoration-style:solid;text-indent:0;text-orientation:mixed;text-transform:none;white-space:normal"/></g><path d="m2.2302e-6 281.53v2.3811c0 4.432 3.9254 8.0003 8.8006 8.0003h70.398c4.8752 0 8.8006-3.5683 8.8006-8.0003v-2.3638c-0.0102 4.424-3.9304 7.9831-8.7992 7.9831h-70.4c-4.8752 0-8.8002-3.5683-8.8002-8.0003z" opacity=".3" style="paint-order:normal"/><path d="m8.801 180c-4.8752 0-8.8008 3.568-8.8008 8v2c0-4.432 3.9256-8 8.8008-8h70.398c4.8752 0 8.8008 3.568 8.8008 8v-2c0-4.432-3.9256-8-8.8008-8z" enable-background="new" fill="#fff" opacity=".2" style="paint-order:normal"/></g></g></svg>
