<svg width="512" height="512" version="1.1" viewBox="0 0 384 384" xmlns="http://www.w3.org/2000/svg" xmlns:xlink="http://www.w3.org/1999/xlink"><defs><clipPath><rect width="384" height="384"/></clipPath><clipPath><rect width="384" height="384"/></clipPath><clipPath><rect width="384" height="384"/></clipPath><clipPath><rect width="384" height="384"/></clipPath><clipPath><rect width="384" height="384"/></clipPath><clipPath><rect width="384" height="384"/></clipPath><clipPath><rect width="384" height="384"/></clipPath><clipPath><rect width="384" height="384"/></clipPath><clipPath><rect width="384" height="384"/></clipPath><clipPath><rect width="384" height="384"/></clipPath><clipPath><rect width="384" height="384"/></clipPath><clipPath><rect width="384" height="384"/></clipPath><clipPath><rect width="384" height="384"/></clipPath><clipPath><rect width="384" height="384"/></clipPath><clipPath><rect width="384" height="384"/></clipPath><clipPath><rect width="384" height="384"/></clipPath><clipPath><rect width="384" height="384"/></clipPath><clipPath><rect width="384" height="384"/></clipPath><clipPath><rect width="384" height="384"/></clipPath><clipPath><rect width="384" height="384"/></clipPath><clipPath><rect width="384" height="384"/></clipPath><clipPath><rect width="384" height="384"/></clipPath><clipPath><rect width="384" height="384"/></clipPath><clipPath><rect width="384" height="384"/></clipPath><clipPath><rect width="384" height="384"/></clipPath><clipPath><rect width="384" height="384"/></clipPath><clipPath><rect width="384" height="384"/></clipPath><clipPath><rect width="384" height="384"/></clipPath><clipPath><rect width="384" height="384"/></clipPath><clipPath><rect width="384" height="384"/></clipPath><clipPath><rect width="384" height="384"/></clipPath><clipPath><rect width="384" height="384"/></clipPath><clipPath><rect width="384" height="384"/></clipPath><clipPath><rect width="384" height="384"/></clipPath><clipPath><rect width="384" height="384"/></clipPath><clipPath><rect width="384" height="384"/></clipPath><clipPath><rect width="384" height="384"/></clipPath><clipPath><rect width="384" height="384"/></clipPath><clipPath><rect width="384" height="384"/></clipPath><clipPath><rect width="384" height="384"/></clipPath><clipPath><rect width="384" height="384"/></clipPath><clipPath><rect width="384" height="384"/></clipPath><clipPath><rect width="384" height="384"/></clipPath><clipPath><rect width="384" height="384"/></clipPath><clipPath><rect width="384" height="384"/></clipPath><clipPath><rect width="384" height="384"/></clipPath><clipPath><rect width="384" height="384"/></clipPath><clipPath><rect width="384" height="384"/></clipPath><clipPath><rect width="384" height="384"/></clipPath><clipPath><rect width="384" height="384"/></clipPath><clipPath id="d"><path d="m111 119h177v23h-177z"/></clipPath><clipPath><path d="m368.64 199.88c0-93.234-75.602-168.75-168.75-168.75-93.152 0-168.75 75.516-168.75 168.75s75.598 168.75 168.75 168.75c93.148 0 168.75-75.516 168.75-168.75z"/></clipPath><clipPath id="c"><path d="m177 130h45v89h-45z"/></clipPath><clipPath><path d="m368.64 199.88c0-93.234-75.602-168.75-168.75-168.75-93.152 0-168.75 75.516-168.75 168.75s75.598 168.75 168.75 168.75c93.148 0 168.75-75.516 168.75-168.75z"/></clipPath><clipPath id="b"><path d="m111 207h177v89h-177z"/></clipPath><clipPath><path d="m368.64 199.88c0-93.234-75.602-168.75-168.75-168.75-93.152 0-168.75 75.516-168.75 168.75s75.598 168.75 168.75 168.75c93.148 0 168.75-75.516 168.75-168.75z"/></clipPath><clipPath id="e"><rect width="384" height="384"/></clipPath><g clip-path="url(#e)"><g clip-path="url(#d)"></g><g clip-path="url(#c)"></g><g clip-path="url(#b)"></g></g><clipPath><rect width="384" height="384"/></clipPath><clipPath><rect width="384" height="384"/></clipPath><clipPath><rect width="384" height="384"/></clipPath><clipPath><rect width="384" height="384"/></clipPath><clipPath><rect width="384" height="384"/></clipPath><clipPath><rect width="384" height="384"/></clipPath><clipPath><rect width="384" height="384"/></clipPath><clipPath><rect width="384" height="384"/></clipPath><clipPath><rect width="384" height="384"/></clipPath><clipPath><rect width="384" height="384"/></clipPath><clipPath><rect width="384" height="384"/></clipPath><linearGradient id="a" x1="134.43" x2="131.69" y1="300" y2="83.995" gradientTransform="matrix(1.5625 0 0 1.5625 -108 -107.99)" gradientUnits="userSpaceOnUse"><stop stop-color="#72a2f4" offset="0"/><stop stop-color="#65cfd4" offset="1"/></linearGradient></defs><path d="m41.997 59.414v57.586l131.25 77.503-131.25 72.497v57.586l60.053 36.164 239.95-133.07v-68.981l-244.23-135.45z" fill="url(#a)" stroke-width="1.5625"/><g transform="matrix(1.5625 0 0 1.5625 -108 -107.99)"><g><path d="m96 107.14 35.694-23.145 156.31 86.688-153.57 91.812-38.434-22.608 119.68-65.932z" fill="#fff" opacity=".3"/><path d="m96 239.89 38.434 22.608v37.5l-38.434-23.145z" opacity=".1"/></g></g></svg>
