<svg width="512" height="512" version="1.1" viewBox="0 0 384 384" xmlns="http://www.w3.org/2000/svg" xmlns:xlink="http://www.w3.org/1999/xlink"><defs><clipPath><rect width="192" height="152"/></clipPath><mask><g filter="url(#c)"><rect width="128" height="128" fill-opacity=".5"/></g></mask><filter id="c" x="0" y="0" width="1" height="1"><feColorMatrix in="SourceGraphic" values="0 0 0 0 1 0 0 0 0 1 0 0 0 0 1 0 0 0 1 0"/></filter><clipPath id="g"><rect width="192" height="152"/></clipPath><mask id="f"><g filter="url(#c)"><rect width="128" height="128" fill-opacity=".5"/></g></mask><clipPath id="e"><rect width="192" height="152"/></clipPath><mask id="d"><g filter="url(#c)"><rect width="128" height="128" fill-opacity=".5"/></g></mask><linearGradient id="a" x1="88.661" x2="303.31" y1="90.404" y2="317.47" gradientUnits="userSpaceOnUse"><stop stop-color="#23bac2" offset="0"/><stop stop-color="#367bf0" offset="1"/></linearGradient></defs><circle cx="192" cy="192" r="168.75" fill="url(#a)"/><g transform="matrix(2.8125 0 0 2.8125 -10.5 -30.188)" clip-path="url(#e)" mask="url(#d)"><path d="m169.5 24v1h13v-1z" fill="#2e3436"/></g><g transform="matrix(2.8125 0 0 2.8125 -10.5 -30.188)" clip-path="url(#g)" mask="url(#f)"><path d="m169.5 21v1h13v-1z" fill="#2e3436"/></g><path d="m52.695 206.38h278.5m-241.64 96.871c68.103-45.322 136.36-45.695 204.79 0m-59.936 28.655c50.307-89.696 41.999-177.76 0-264.89m-84.946 264.89c-50.307-89.696-41.999-177.76 0-264.89m42.488-6.7915v278.5m139.98-139.22c4e-5 77.277-62.646 139.92-139.92 139.92-77.277-2e-5 -139.92-62.646-139.92-139.92 1.6e-5 -77.277 62.646-139.92 139.92-139.92 77.277-3.3e-5 139.92 62.646 139.92 139.92zm-242.37-96.254c68.414 35.632 136.68 35.879 204.79 0" fill="none" opacity=".3" stroke="#000" stroke-width="15.998"/><path d="m52.695 198.88h278.5m-241.64 96.871c68.103-45.322 136.36-45.695 204.79 0m-59.936 28.655c50.307-89.696 41.999-177.76 0-264.89m-84.946 264.89c-50.307-89.696-41.999-177.76 0-264.89m42.488-6.7915v278.5m139.98-139.22c4e-5 77.277-62.646 139.92-139.92 139.92-77.277-2e-5 -139.92-62.646-139.92-139.92 1.6e-5 -77.277 62.646-139.92 139.92-139.92 77.277-3.3e-5 139.92 62.646 139.92 139.92zm-242.37-96.254c68.414 35.632 136.68 35.879 204.79 0" fill="none" stroke="#fff" stroke-width="15.998"/><path transform="scale(.75)" d="m255.75 31a225 225 0 0 0-224.75 225 225 225 0 0 0 0.056641 4.9805 225 225 0 0 1 224.94-219.98 225 225 0 0 1 224.94 220.02 225 225 0 0 0 0.05664-5.0195 225 225 0 0 0-225-225 225 225 0 0 0-0.25195 0z" fill="#fff" opacity=".2"/><path transform="scale(.75)" d="m31.057 250.98a225 225 0 0 0-0.056641 5.0195 225 225 0 0 0 225 225 225 225 0 0 0 225-225 225 225 0 0 0-0.05664-4.9805 225 225 0 0 1-224.94 219.98 225 225 0 0 1-224.94-220.02z" fill="#2656a8" opacity=".3"/><path d="m116.97 299.26 10.228-20.613 32.653 31.069 0.30174-144.35-96.085 98.886 41.553 1.6103-11.07 22.595c-6.6814 13.637-15.43 25.671-2.9101 32.267 12.52 6.5943 17.903-6.5032 25.329-21.468z" fill="#fff" stroke="#000" stroke-linecap="square" stroke-linejoin="round" stroke-width="31.995" style="paint-order:stroke fill markers"/></svg>
