<svg width="256" xmlns="http://www.w3.org/2000/svg" height="256" viewBox="0 0 256 256" xmlns:xlink="http://www.w3.org/1999/xlink">
<g style="fill-rule:evenodd">
<path style="fill:#888" d="M 22.855469 32 L 137.144531 32 C 160 32 160 32 160 56.890625 L 160 231.109375 C 160 256 160 256 137.144531 256 L 22.855469 256 C 0 256 0 256 0 231.109375 L 0 56.890625 C 0 32 0 32 22.855469 32 Z "/>
<path style="fill:#fff" d="M 86.855469 0 L 201.144531 0 C 224 0 224 0 224 24.890625 L 224 199.109375 C 224 224 224 224 201.144531 224 L 86.855469 224 C 64 224 64 224 64 199.109375 L 64 24.890625 C 64 0 64 0 86.855469 0 Z "/>
</g>
<path style="fill:#859900" d="M 256 160 L 208 160 L 208 112 L 160 112 L 160 160 L 112 160 L 112 208 L 160 208 L 160 256 L 208 256 L 208 208 L 256 208 Z "/>
</svg>
