<svg width="256" xmlns="http://www.w3.org/2000/svg" height="256" viewBox="0 0 256 256" xmlns:xlink="http://www.w3.org/1999/xlink">
<path style="fill:#fff;fill-rule:evenodd" d="M 256 128 C 256 198.695312 198.691406 256 128 256 C 57.308594 256 0 198.695312 0 128 C 0 57.308594 57.308594 0 128 0 C 198.691406 0 256 57.308594 256 128 Z "/>
<path style="fill:#268bd2" d="M 127.800781 44.601562 C 120.75 44.699219 115.101562 50.550781 115.199219 57.601562 L 115.199219 128 C 115.199219 131 116.25 133.898438 118.199219 136.199219 L 150.199219 174.601562 C 153.050781 178.449219 157.75 180.351562 162.449219 179.648438 C 167.152344 178.898438 171.050781 175.648438 172.601562 171.148438 C 174.152344 166.648438 173.050781 161.648438 169.800781 158.199219 L 140.800781 123.398438 L 140.800781 57.601562 C 140.851562 54.148438 139.5 50.800781 137.050781 48.351562 C 134.601562 45.898438 131.25 44.550781 127.800781 44.601562 Z "/>
<path style="fill:#aaa" d="M 128 0 C 57.449219 0 0 57.449219 0 128 C 0 198.550781 57.449219 256 128 256 C 198.550781 256 256 198.550781 256 128 C 256 57.449219 198.550781 0 128 0 Z M 128 25.601562 C 184.699219 25.601562 230.402344 71.300781 230.402344 128 C 230.402344 184.699219 184.699219 230.398438 128 230.398438 C 71.300781 230.398438 25.601562 184.699219 25.601562 128 C 25.601562 71.300781 71.300781 25.601562 128 25.601562 Z "/>
<path style="fill:#859900" d="M 256 160 L 208 160 L 208 112 L 160 112 L 160 160 L 112 160 L 112 208 L 160 208 L 160 256 L 208 256 L 208 208 L 256 208 Z "/>
</svg>
