<svg width="256" xmlns="http://www.w3.org/2000/svg" height="256" viewBox="0 0 256 256" xmlns:xlink="http://www.w3.org/1999/xlink">
<path style="fill:#dc322f" d="M 176 256 C 171.101562 256 166.457031 253.914062 163 250.5 L 101.5 191 C 94.296875 183.988281 94.296875 172.511719 101.5 165.5 C 108.703125 158.488281 120.296875 158.488281 127.5 165.5 L 160 197 L 160 0 L 192 0 L 192 197 L 224.5 165.5 C 229.78125 160.171875 237.992188 158.601562 245 161.5 C 252.007812 164.398438 256.238281 171.066406 256 178.5 C 255.855469 183.175781 253.910156 187.773438 250.5 191 L 189 250.5 C 185.542969 253.914062 180.898438 256 176 256 Z "/>
<g style="fill-rule:evenodd;fill:#268bd2">
<path d="M 64 192 C 64 174.328125 49.671875 160 32 160 C 14.328125 160 0 174.328125 0 192 C 0 209.671875 14.328125 224 32 224 C 49.671875 224 64 209.671875 64 192 Z "/>
<path d="M 64 112 C 64 94.328125 49.671875 80 32 80 C 14.328125 80 0 94.328125 0 112 C 0 129.671875 14.328125 144 32 144 C 49.671875 144 64 129.671875 64 112 Z "/>
<path d="M 64 32 C 64 14.328125 49.671875 0 32 0 C 14.328125 0 0 14.328125 0 32 C 0 49.671875 14.328125 64 32 64 C 49.671875 64 64 49.671875 64 32 Z "/>
</g>
</svg>
