<?xml version="1.0" encoding="UTF-8"?>
<svg xmlns="http://www.w3.org/2000/svg" xmlns:xlink="http://www.w3.org/1999/xlink" width="12pt" height="12pt" viewBox="0 0 12 12" version="1.1">
<defs>
<linearGradient id="linear0" gradientUnits="userSpaceOnUse" x1="7" y1="12" x2="17" y2="12" gradientTransform="matrix(-0.000952309,-0.545455,-0.545455,0.000952309,12.556909,12.534)">
<stop offset="0" style="stop-color:rgb(82.745098%,85.490196%,89.019608%);stop-opacity:1;"/>
<stop offset="1" style="stop-color:rgb(82.745098%,85.490196%,89.019608%);stop-opacity:0.501961;"/>
</linearGradient>
<linearGradient id="linear1" gradientUnits="userSpaceOnUse" x1="7" y1="12" x2="19" y2="5" gradientTransform="matrix(0.000952309,0.545455,0.545455,-0.000952309,-0.556964,-0.534027)">
<stop offset="0" style="stop-color:rgb(82.745098%,85.490196%,89.019608%);stop-opacity:0.501961;"/>
<stop offset="1" style="stop-color:rgb(82.745098%,85.490196%,89.019608%);stop-opacity:0;"/>
</linearGradient>
</defs>
<g id="surface1">
<path style=" stroke:none;fill-rule:nonzero;fill:url(#linear0);" d="M 5.992188 2.183594 L 5.996094 3.273438 C 7.503906 3.269531 8.722656 4.488281 8.726562 5.996094 L 8.726562 6 C 9.136719 6 9.507812 6.160156 9.792969 6.417969 C 9.808594 6.277344 9.820312 6.136719 9.816406 5.992188 C 9.8125 3.886719 8.101562 2.179688 5.992188 2.183594 Z M 6.546875 8.65625 C 6.371094 8.699219 6.191406 8.726562 6.003906 8.726562 C 5.296875 8.726562 5.296875 9.820312 6.007812 9.816406 C 6.191406 9.816406 6.367188 9.800781 6.546875 9.773438 Z M 6.546875 8.65625 "/>
<path style=" stroke:none;fill-rule:nonzero;fill:url(#linear1);" d="M 5.992188 2.183594 C 3.886719 2.183594 2.179688 3.898438 2.183594 6.007812 C 2.183594 8.117188 3.898438 9.820312 6.007812 9.816406 L 6.003906 8.726562 C 4.5 8.730469 3.277344 7.511719 3.273438 6.003906 C 3.269531 4.5 4.488281 3.273438 5.996094 3.273438 Z M 5.992188 2.183594 "/>
<path style=" stroke:none;fill-rule:nonzero;fill:rgb(82.745098%,85.490196%,89.019608%);fill-opacity:1;" d="M 8.726562 6.546875 C 8.121094 6.546875 7.636719 7.042969 7.636719 7.652344 L 7.636719 8.183594 L 7.089844 8.183594 L 7.089844 10.363281 L 10.363281 10.363281 L 10.363281 8.183594 L 9.816406 8.183594 L 9.816406 7.652344 C 9.816406 7.042969 9.332031 6.546875 8.726562 6.546875 Z M 8.726562 7.089844 C 9.03125 7.089844 9.273438 7.332031 9.273438 7.636719 L 9.273438 8.183594 L 8.183594 8.183594 L 8.183594 7.636719 C 8.183594 7.332031 8.425781 7.089844 8.726562 7.089844 Z M 8.726562 7.089844 "/>
</g>
</svg>
