<?xml version="1.0" encoding="UTF-8"?>
<svg xmlns="http://www.w3.org/2000/svg" xmlns:xlink="http://www.w3.org/1999/xlink" width="12pt" height="12pt" viewBox="0 0 12 12" version="1.1">
<defs>
<linearGradient id="linear0" gradientUnits="userSpaceOnUse" x1="7" y1="12" x2="17" y2="12" gradientTransform="matrix(0.427467,0.338809,0.338809,-0.427467,-3.195109,7.064182)">
<stop offset="0" style="stop-color:rgb(82.745098%,85.490196%,89.019608%);stop-opacity:1;"/>
<stop offset="1" style="stop-color:rgb(82.745098%,85.490196%,89.019608%);stop-opacity:0.501961;"/>
</linearGradient>
<linearGradient id="linear1" gradientUnits="userSpaceOnUse" x1="7" y1="12" x2="19" y2="5" gradientTransform="matrix(-0.427467,-0.338809,-0.338809,0.427467,15.195273,4.936364)">
<stop offset="0" style="stop-color:rgb(82.745098%,85.490196%,89.019608%);stop-opacity:0.501961;"/>
<stop offset="1" style="stop-color:rgb(82.745098%,85.490196%,89.019608%);stop-opacity:0;"/>
</linearGradient>
</defs>
<g id="surface1">
<path style=" stroke:none;fill-rule:nonzero;fill:url(#linear0);" d="M 3.390625 3.421875 C 3.253906 3.429688 3.117188 3.488281 3.007812 3.628906 C 1.699219 5.28125 1.976562 7.683594 3.628906 8.992188 C 4.484375 9.671875 5.542969 9.917969 6.546875 9.773438 L 6.546875 8.671875 C 5.785156 8.824219 4.960938 8.660156 4.304688 8.136719 C 3.125 7.203125 2.925781 5.488281 3.863281 4.304688 C 4.191406 3.890625 3.792969 3.402344 3.390625 3.421875 Z M 3.390625 3.421875 "/>
<path style=" stroke:none;fill-rule:nonzero;fill:url(#linear1);" d="M 5.925781 2.183594 C 4.828125 2.203125 3.746094 2.699219 3.007812 3.628906 L 3.863281 4.304688 C 4.796875 3.125 6.511719 2.925781 7.695312 3.863281 C 8.375 4.402344 8.71875 5.195312 8.71875 6 C 8.722656 6 8.722656 6 8.726562 6 C 9.132812 6 9.5 6.160156 9.785156 6.410156 C 9.921875 5.152344 9.4375 3.851562 8.371094 3.007812 C 7.648438 2.433594 6.785156 2.164062 5.925781 2.183594 Z M 5.925781 2.183594 "/>
<path style=" stroke:none;fill-rule:nonzero;fill:rgb(82.745098%,85.490196%,89.019608%);fill-opacity:1;" d="M 8.726562 6.546875 C 8.121094 6.546875 7.636719 7.042969 7.636719 7.652344 L 7.636719 8.183594 L 7.089844 8.183594 L 7.089844 10.363281 L 10.363281 10.363281 L 10.363281 8.183594 L 9.816406 8.183594 L 9.816406 7.652344 C 9.816406 7.042969 9.332031 6.546875 8.726562 6.546875 Z M 8.726562 7.089844 C 9.03125 7.089844 9.273438 7.332031 9.273438 7.636719 L 9.273438 8.183594 L 8.183594 8.183594 L 8.183594 7.636719 C 8.183594 7.332031 8.425781 7.089844 8.726562 7.089844 Z M 8.726562 7.089844 "/>
</g>
</svg>
