<svg width="512" height="512" version="1.1" viewBox="0 0 384 384" xmlns="http://www.w3.org/2000/svg" xmlns:xlink="http://www.w3.org/1999/xlink"><defs><clipPath><rect width="384" height="384"/></clipPath><clipPath><rect width="384" height="384"/></clipPath><clipPath><rect width="384" height="384"/></clipPath><clipPath><rect width="384" height="384"/></clipPath><clipPath><rect width="384" height="384"/></clipPath><clipPath><rect width="384" height="384"/></clipPath><clipPath><rect width="384" height="384"/></clipPath><clipPath><rect width="384" height="384"/></clipPath><clipPath><rect width="384" height="384"/></clipPath><clipPath><rect width="384" height="384"/></clipPath><clipPath><rect width="384" height="384"/></clipPath><clipPath><rect width="384" height="384"/></clipPath><clipPath><rect width="384" height="384"/></clipPath><clipPath><rect width="384" height="384"/></clipPath><clipPath><rect width="384" height="384"/></clipPath><clipPath><rect width="384" height="384"/></clipPath><clipPath><rect width="384" height="384"/></clipPath><clipPath><rect width="384" height="384"/></clipPath><clipPath><rect width="384" height="384"/></clipPath><clipPath><rect width="384" height="384"/></clipPath><clipPath><rect width="384" height="384"/></clipPath><clipPath><rect width="384" height="384"/></clipPath><clipPath><rect width="384" height="384"/></clipPath><clipPath><rect width="384" height="384"/></clipPath><clipPath><rect width="384" height="384"/></clipPath><clipPath><rect width="384" height="384"/></clipPath><clipPath><rect width="384" height="384"/></clipPath><clipPath><rect width="384" height="384"/></clipPath><clipPath><rect width="384" height="384"/></clipPath><clipPath><rect width="384" height="384"/></clipPath><clipPath><rect width="384" height="384"/></clipPath><clipPath><rect width="384" height="384"/></clipPath><clipPath><rect width="384" height="384"/></clipPath><clipPath><rect width="384" height="384"/></clipPath><clipPath><rect width="384" height="384"/></clipPath><clipPath><rect width="384" height="384"/></clipPath><clipPath><rect width="384" height="384"/></clipPath><clipPath><rect width="384" height="384"/></clipPath><clipPath><rect width="384" height="384"/></clipPath><clipPath><rect width="384" height="384"/></clipPath><clipPath><rect width="384" height="384"/></clipPath><clipPath><rect width="384" height="384"/></clipPath><clipPath><rect width="384" height="384"/></clipPath><clipPath><rect width="384" height="384"/></clipPath><clipPath><rect width="384" height="384"/></clipPath><clipPath><rect width="384" height="384"/></clipPath><clipPath><rect width="384" height="384"/></clipPath><clipPath><rect width="384" height="384"/></clipPath><clipPath><rect width="384" height="384"/></clipPath><clipPath><rect width="384" height="384"/></clipPath><clipPath><rect width="384" height="384"/></clipPath><clipPath><rect width="384" height="384"/></clipPath><clipPath id="c"><path d="m111 119h177v23h-177z"/></clipPath><clipPath><path d="m368.64 199.88c0-93.234-75.602-168.75-168.75-168.75-93.152 0-168.75 75.516-168.75 168.75s75.598 168.75 168.75 168.75c93.148 0 168.75-75.516 168.75-168.75z"/></clipPath><clipPath id="b"><path d="m177 130h45v89h-45z"/></clipPath><clipPath><path d="m368.64 199.88c0-93.234-75.602-168.75-168.75-168.75-93.152 0-168.75 75.516-168.75 168.75s75.598 168.75 168.75 168.75c93.148 0 168.75-75.516 168.75-168.75z"/></clipPath><clipPath id="a"><path d="m111 207h177v89h-177z"/></clipPath><clipPath><path d="m368.64 199.88c0-93.234-75.602-168.75-168.75-168.75-93.152 0-168.75 75.516-168.75 168.75s75.598 168.75 168.75 168.75c93.148 0 168.75-75.516 168.75-168.75z"/></clipPath><clipPath id="d"><rect width="384" height="384"/></clipPath><g clip-path="url(#d)"><g clip-path="url(#c)"></g><g clip-path="url(#b)"></g><g clip-path="url(#a)"></g></g><clipPath><rect width="384" height="384"/></clipPath><clipPath><rect width="384" height="384"/></clipPath><clipPath><rect width="384" height="384"/></clipPath><clipPath><rect width="384" height="384"/></clipPath><clipPath><rect width="384" height="384"/></clipPath><clipPath><rect width="384" height="384"/></clipPath><clipPath><rect width="384" height="384"/></clipPath><clipPath><rect width="384" height="384"/></clipPath><clipPath><rect width="384" height="384"/></clipPath><clipPath><rect width="384" height="384"/></clipPath><clipPath><rect width="384" height="384"/></clipPath></defs><path d="m192 22.404-117.5 67.838-58.749 33.918v203.51l58.749 33.92 58.75-33.92v-67.838l-58.749 33.92v-9.9e-4l58.749-33.918-58.749-33.92v-67.838l58.75-33.92 58.749-33.918 58.749 33.918 9.4e-4 9.9e-4 58.749 33.918v67.838l-58.749 33.918v3e-3l-9.4e-4 -9.8e-4v67.838l58.75 33.92 58.749-33.92v-135.68h9.9e-4v-67.838h-9.9e-4v-9.8e-4l-7.8704-4.5436-50.879-29.374v-9.88e-4l-58.749-33.92z" fill="#3db47e" style="paint-order:stroke markers fill"/><path d="m192 22.406v67.838l117.5 67.838v67.838l-58.749 33.918v67.839l58.749 33.918v-67.838l58.749-33.92v-67.838l1e-3 1e-3v-67.839l-58.75-33.918v-0.0015l-58.749-33.92zm-176.25 237.43v67.838l58.751 33.92v-67.839z" opacity=".3" style="paint-order:stroke markers fill"/><g transform="matrix(.98783 0 0 .98783 1247.1 19.079)"><path transform="scale(.75)" d="m-1582.7 279.18v91.566l79.297-45.783zm2.8711 5.1914 70.307 40.592-70.307 40.594z" fill="#2b7e58" style="paint-order:stroke markers fill"/><path d="m-1184.9 213.28v60.889l52.73-30.444z" opacity=".05" style="paint-order:stroke markers fill"/></g><g transform="matrix(.98783 0 0 .98783 1247.1 86.918)"><path transform="scale(.75)" d="m-1582.7 279.18v91.566l79.297-45.783zm2.8711 5.1914 70.307 40.592-70.307 40.594z" fill="#2b7e58" style="paint-order:stroke markers fill"/><path d="m-1184.9 213.28v60.889l52.73-30.444z" opacity=".05" style="paint-order:stroke markers fill"/></g><g transform="matrix(.98783 0 0 .98783 1188.3 52.999)"><path transform="scale(.75)" d="m-1582.7 279.18v91.566l79.297-45.783zm2.8711 5.1914 70.307 40.592-70.307 40.594z" fill="#2b7e58" style="paint-order:stroke markers fill"/><path d="m-1184.9 213.28v60.889l52.73-30.444z" opacity=".05" style="paint-order:stroke markers fill"/></g><g transform="matrix(.98783 0 0 .98783 1188.3 -14.841)"><path transform="scale(.75)" d="m-1582.7 279.18v91.566l79.297-45.783zm2.8711 5.1914 70.307 40.592-70.307 40.594z" fill="#2b7e58" style="paint-order:stroke markers fill"/><path d="m-1184.9 213.28v60.889l52.73-30.444z" opacity=".05" style="paint-order:stroke markers fill"/></g><g transform="matrix(.98783 0 0 .98783 1188.3 -82.678)"><path transform="scale(.75)" d="m-1582.7 279.18v91.566l79.297-45.783zm2.8711 5.1914 70.307 40.592-70.307 40.594z" fill="#2b7e58" style="paint-order:stroke markers fill"/><path d="m-1184.9 213.28v60.889l52.73-30.444z" opacity=".05" style="paint-order:stroke markers fill"/></g><g transform="matrix(.98783 0 0 .98783 1247.1 -116.6)"><path transform="scale(.75)" d="m-1582.7 279.18v91.566l79.297-45.783zm2.8711 5.1914 70.307 40.592-70.307 40.594z" fill="#2b7e58" style="paint-order:stroke markers fill"/><path d="m-1184.9 213.28v60.889l52.73-30.444z" opacity=".05" style="paint-order:stroke markers fill"/></g><g transform="matrix(.98783 0 0 .98783 1305.8 -150.51)"><path transform="scale(.75)" d="m-1582.7 279.18v91.566l79.297-45.783zm2.8711 5.1914 70.307 40.592-70.307 40.594z" fill="#2b7e58" style="paint-order:stroke markers fill"/><path d="m-1184.9 213.28v60.889l52.73-30.444z" opacity=".05" style="paint-order:stroke markers fill"/></g><g transform="matrix(.98783 0 0 .98783 1364.6 -184.43)"><path transform="scale(.75)" d="m-1582.7 279.18v91.566l79.297-45.783zm2.8711 5.1914 70.307 40.592-70.307 40.594z" fill="#226546" style="paint-order:stroke markers fill"/><path d="m-1184.9 213.28v60.889l52.73-30.444z" opacity=".1" style="paint-order:stroke markers fill"/></g><g transform="matrix(.98783 0 0 .98783 1423.3 -150.51)"><path transform="scale(.75)" d="m-1582.7 279.18v91.566l79.297-45.783zm2.8711 5.1914 70.307 40.592-70.307 40.594z" fill="#226546" style="paint-order:stroke markers fill"/><path d="m-1184.9 213.28v60.889l52.73-30.444z" opacity=".1" style="paint-order:stroke markers fill"/></g><g transform="matrix(.98783 0 0 .98783 1482.1 -116.6)"><path transform="scale(.75)" d="m-1582.7 279.18v91.566l79.297-45.783zm2.8711 5.1914 70.307 40.592-70.307 40.594z" fill="#226546" style="paint-order:stroke markers fill"/><path d="m-1184.9 213.28v60.889l52.73-30.444z" opacity=".1" style="paint-order:stroke markers fill"/></g><g transform="matrix(.98783 0 0 .98783 1482.1 -48.756)"><path transform="scale(.75)" d="m-1582.7 279.18v91.566l79.297-45.783zm2.8711 5.1914 70.307 40.592-70.307 40.594z" fill="#226546" style="paint-order:stroke markers fill"/><path d="m-1184.9 213.28v60.889l52.73-30.444z" opacity=".1" style="paint-order:stroke markers fill"/></g><g transform="matrix(.98783 0 0 .98783 1482.1 19.079)"><path transform="scale(.75)" d="m-1582.7 279.18v91.566l79.297-45.783zm2.8711 5.1914 70.307 40.592-70.307 40.594z" fill="#226546" style="paint-order:stroke markers fill"/><path d="m-1184.9 213.28v60.889l52.73-30.444z" opacity=".1" style="paint-order:stroke markers fill"/></g><g transform="matrix(.98783 0 0 .98783 1423.3 52.999)"><path transform="scale(.75)" d="m-1582.7 279.18v91.566l79.297-45.783zm2.8711 5.1914 70.307 40.592-70.307 40.594z" fill="#226546" style="paint-order:stroke markers fill"/><path d="m-1184.9 213.28v60.889l52.73-30.444z" opacity=".1" style="paint-order:stroke markers fill"/></g><g transform="matrix(.98783 0 0 .98783 1482.1 86.917)"><path transform="scale(.75)" d="m-1582.7 279.18v91.566l79.297-45.783zm2.8711 5.1914 70.307 40.592-70.307 40.594z" fill="#226546" style="paint-order:stroke markers fill"/><path d="m-1184.9 213.28v60.889l52.73-30.444z" opacity=".1" style="paint-order:stroke markers fill"/></g></svg>
