<svg width="384pt" height="384pt" version="1.1" viewBox="0 0 384 384" xmlns="http://www.w3.org/2000/svg"><g transform="translate(.15705 -14.205)"><path d="m13.863 159.69c98.297-98.297 257.67-98.297 355.96 0l-177.98 177.98z" opacity=".3"/><path d="m13.863 152.19c98.297-98.297 257.67-98.297 355.96 0l-177.98 177.98z" fill="#4a4a4a" opacity=".2" stroke="#000" stroke-width="7.5"/><path d="m13.863 152.19c98.297-98.297 257.67-98.297 355.96 0l-177.98 177.98z" fill="#4a4a4a"/><path d="m37.023 175.36c81.983-86.649 225.49-86.981 309.64 0l-154.82 154.82z" opacity=".3"/><path d="m41.523 179.86c83.02-83.02 217.62-83.02 300.64 0l-150.32 150.32z" fill="#fff"/></g><path d="m165.14 172.5-10.746 10.75 27.062 27.062-27.062 27.061 10.648 10.652 27.064-27.062 27.062 27.062 10.746-10.75-27.062-27.062 27.062-27.062-1.2441-1.2422-9.4023-9.4082-27.066 27.062z" color="#000000" color-rendering="auto" dominant-baseline="auto" image-rendering="auto" opacity=".3" shape-rendering="auto" solid-color="#000000" style="font-feature-settings:normal;font-variant-alternates:normal;font-variant-caps:normal;font-variant-ligatures:normal;font-variant-numeric:normal;font-variant-position:normal;isolation:auto;mix-blend-mode:normal;shape-padding:0;text-decoration-color:#000000;text-decoration-line:none;text-decoration-style:solid;text-indent:0;text-orientation:mixed;text-transform:none;white-space:normal"/><path d="m165.14 165-10.746 10.75 27.062 27.062-27.062 27.061 10.648 10.652 27.064-27.062 27.062 27.062 10.746-10.75-27.062-27.062 27.062-27.062-1.2441-1.2422-9.4023-9.4082-27.066 27.062z" color="#000000" color-rendering="auto" dominant-baseline="auto" image-rendering="auto" shape-rendering="auto" solid-color="#000000" style="font-feature-settings:normal;font-variant-alternates:normal;font-variant-caps:normal;font-variant-ligatures:normal;font-variant-numeric:normal;font-variant-position:normal;isolation:auto;mix-blend-mode:normal;shape-padding:0;text-decoration-color:#000000;text-decoration-line:none;text-decoration-style:solid;text-indent:0;text-orientation:mixed;text-transform:none;white-space:normal"/></svg>
