<svg xmlns="http://www.w3.org/2000/svg" xmlns:xlink="http://www.w3.org/1999/xlink" width="36pt" height="36pt" version="1.1" viewBox="0 0 36 36"> <defs> <filter id="alpha" width="100%" height="100%" x="0%" y="0%" filterUnits="objectBoundingBox"> <feColorMatrix in="SourceGraphic" type="matrix" values="0 0 0 0 1 0 0 0 0 1 0 0 0 0 1 0 0 0 1 0"/> </filter> <mask id="mask0"> <g filter="url(#alpha)"> <rect width="36" height="36" x="0" y="0" style="fill:rgb(0%,0%,0%);fill-opacity:0.301961"/> </g> </mask> <clipPath id="clip1"> <rect width="36" height="36" x="0" y="0"/> </clipPath> <g id="surface5" clip-path="url(#clip1)"> <path style="fill:rgb(0%,0%,0%)" d="M 3 29.832031 L 3 31.332031 C 3 32.140625 3.859375 33 4.667969 33 L 31.332031 33 C 32.140625 33 33 32.140625 33 31.332031 L 33 29.832031 C 33 30.640625 32.140625 31.5 31.332031 31.5 L 4.667969 31.5 C 3.859375 31.5 3 30.640625 3 29.832031 Z M 3 29.832031"/> </g> <mask id="mask1"> <g filter="url(#alpha)"> <rect width="36" height="36" x="0" y="0" style="fill:rgb(0%,0%,0%);fill-opacity:0.301961"/> </g> </mask> <clipPath id="clip2"> <rect width="36" height="36" x="0" y="0"/> </clipPath> <g id="surface8" clip-path="url(#clip2)"> <path style="fill:rgb(100.000%,100.000%,100.000%)" d="M 4.714844 3 C 3.855469 3 3 3.527344 3 4.054688 L 3 4.992188 C 3 4.464844 3.855469 3.9375 4.714844 3.9375 L 31.332031 3.9375 C 32.140625 3.9375 33 4.464844 33 4.964844 L 33 4.023438 C 33 3.527344 32.140625 3 31.332031 3 Z M 4.714844 3"/> </g> </defs> <g> <path style="fill:rgb(74.117%,59.215%,46.666%)" d="M 4.714844 3 C 3.855469 3 3 3.855469 3 4.714844 L 3 31.332031 C 3 32.144531 3.855469 33 4.667969 33 L 31.332031 33 C 32.144531 33 33 32.144531 33 31.332031 L 33 4.667969 C 33 3.855469 32.140625 3 31.332031 3 Z M 4.714844 3"/> <path style="fill:rgb(100.000%,100.000%,100.000%);fill-opacity:0.196078" d="M 4.714844 3 C 3.855469 3 3 3.855469 3 4.714844 L 3 13 L 33 13 L 33 4.667969 C 33 3.855469 32.140625 3 31.332031 3 Z M 4.714844 3"/> <path style="fill:rgb(100.000%,100.000%,100.000%);fill-opacity:0.392157" d="M 15.5 6.332031 L 15.5 19.667969 L 20.5 19.667969 L 20.5 6.332031 Z M 15.5 6.332031"/> <use mask="url(#mask0)" xlink:href="#surface5"/> <use mask="url(#mask1)" xlink:href="#surface8"/> <path style="fill:rgb(100.000%,100.000%,100.000%)" d="M 13.894531 27.542969 L 13.578125 26.230469 L 11.761719 26.230469 L 11.457031 27.542969 L 10.070312 27.542969 C 10.628906 25.460938 11.320312 23.453125 11.988281 21.542969 L 13.449219 21.542969 C 14.179688 23.574219 14.828125 25.628906 15.328125 27.542969 Z M 12.6875 22.691406 C 12.410156 23.492188 12.167969 24.457031 12.003906 25.242188 L 13.359375 25.242188 C 13.203125 24.394531 12.925781 23.480469 12.6875 22.691406 Z M 12.6875 22.691406"/> <path style="fill:rgb(100.000%,100.000%,100.000%)" d="M 17.722656 21.453125 C 18.53125 21.453125 19.160156 21.609375 19.605469 21.929688 C 20.050781 22.238281 20.273438 22.753906 20.273438 23.464844 C 20.273438 24.183594 20.046875 24.707031 19.59375 25.03125 C 19.148438 25.351562 18.515625 25.507812 17.691406 25.507812 L 17.238281 25.507812 L 17.238281 27.542969 L 15.976562 27.542969 L 15.976562 21.597656 C 16.425781 21.503906 16.878906 21.488281 17.320312 21.460938 C 17.472656 21.457031 17.605469 21.453125 17.722656 21.453125 Z M 17.867188 22.492188 C 17.644531 22.492188 17.460938 22.511719 17.238281 22.523438 L 17.238281 24.46875 L 17.753906 24.46875 C 18.15625 24.46875 18.464844 24.394531 18.667969 24.246094 C 18.875 24.089844 18.976562 23.824219 18.976562 23.457031 C 18.976562 23.105469 18.875 22.859375 18.667969 22.71875 C 18.46875 22.570312 18.203125 22.492188 17.867188 22.492188 Z M 17.867188 22.492188"/> <path style="fill:rgb(100.000%,100.000%,100.000%)" d="M 24.425781 27.542969 C 24.011719 26.46875 23.285156 25.589844 22.460938 24.800781 L 22.460938 27.542969 L 21.132812 27.542969 L 21.132812 21.542969 L 22.460938 21.542969 L 22.460938 24.035156 C 23.148438 23.257812 23.710938 22.429688 24.199219 21.542969 L 25.703125 21.542969 C 25.136719 22.558594 24.398438 23.457031 23.640625 24.304688 C 24.683594 25.214844 25.40625 26.332031 25.929688 27.542969 Z M 24.425781 27.542969"/> </g> </svg>
