<svg xmlns="http://www.w3.org/2000/svg" xmlns:xlink="http://www.w3.org/1999/xlink" width="36pt" height="36pt" version="1.1" viewBox="0 0 36 36"> <defs> <filter id="alpha" width="100%" height="100%" x="0%" y="0%" filterUnits="objectBoundingBox"> <feColorMatrix in="SourceGraphic" type="matrix" values="0 0 0 0 1 0 0 0 0 1 0 0 0 0 1 0 0 0 1 0"/> </filter> <mask id="mask0"> <g filter="url(#alpha)"> <rect width="36" height="36" x="0" y="0" style="fill:rgb(0%,0%,0%);fill-opacity:0.301961"/> </g> </mask> <clipPath id="clip1"> <rect width="36" height="36" x="0" y="0"/> </clipPath> <g id="surface5" clip-path="url(#clip1)"> <path style="fill:rgb(0%,0%,0%)" d="M 3 29.832031 L 3 31.332031 C 3 32.140625 3.859375 33 4.667969 33 L 31.332031 33 C 32.140625 33 33 32.140625 33 31.332031 L 33 29.832031 C 33 30.640625 32.140625 31.5 31.332031 31.5 L 4.667969 31.5 C 3.859375 31.5 3 30.640625 3 29.832031 Z M 3 29.832031"/> </g> <mask id="mask1"> <g filter="url(#alpha)"> <rect width="36" height="36" x="0" y="0" style="fill:rgb(0%,0%,0%);fill-opacity:0.301961"/> </g> </mask> <clipPath id="clip2"> <rect width="36" height="36" x="0" y="0"/> </clipPath> <g id="surface8" clip-path="url(#clip2)"> <path style="fill:rgb(100.000%,100.000%,100.000%)" d="M 4.714844 3 C 3.855469 3 3 3.527344 3 4.054688 L 3 4.992188 C 3 4.464844 3.855469 3.9375 4.714844 3.9375 L 31.332031 3.9375 C 32.140625 3.9375 33 4.464844 33 4.964844 L 33 4.023438 C 33 3.527344 32.140625 3 31.332031 3 Z M 4.714844 3"/> </g> </defs> <g> <path style="fill:rgb(74.117%,59.215%,46.666%)" d="M 4.714844 3 C 3.855469 3 3 3.855469 3 4.714844 L 3 31.332031 C 3 32.144531 3.855469 33 4.667969 33 L 31.332031 33 C 32.144531 33 33 32.144531 33 31.332031 L 33 4.667969 C 33 3.855469 32.140625 3 31.332031 3 Z M 4.714844 3"/> <path style="fill:rgb(100.000%,100.000%,100.000%);fill-opacity:0.196078" d="M 4.714844 3 C 3.855469 3 3 3.855469 3 4.714844 L 3 13 L 33 13 L 33 4.667969 C 33 3.855469 32.140625 3 31.332031 3 Z M 4.714844 3"/> <path style="fill:rgb(100.000%,100.000%,100.000%);fill-opacity:0.392157" d="M 15.5 6.332031 L 15.5 19.667969 L 20.5 19.667969 L 20.5 6.332031 Z M 15.5 6.332031"/> <use mask="url(#mask0)" xlink:href="#surface5"/> <use mask="url(#mask1)" xlink:href="#surface8"/> </g> </svg>
