<svg width="36pt" height="36pt" version="1.1" viewBox="0 0 36 36" xmlns="http://www.w3.org/2000/svg"><defs><filter id="a" x="-.192" y="-.192" width="1.384" height="1.384" color-interpolation-filters="sRGB"><feGaussianBlur stdDeviation="0.67843748"/></filter></defs><path d="m7.3477 3.9022c-0.67188 0-1.3047 0.63281-1.3047 1.3047v27.391c0 0.63281 0.67188 1.3047 1.3047 1.3047h20.871c0.63281 0 1.3047-0.67188 1.3047-1.3047v-20.215l-8.4805-8.4805z" opacity=".3"/><path d="m7.3477 3.1523c-0.67188 0-1.3047 0.63281-1.3047 1.3047v27.391c0 0.63281 0.67188 1.3047 1.3047 1.3047h20.871c0.63281 0 1.3047-0.67188 1.3047-1.3047v-20.215l-8.4805-8.4805z" fill="#8b41aa"/><path d="m20.668 3.5272 8.4805 8.4805h-7.1758c-0.63281 0-1.3047-0.67187-1.3047-1.3047z" filter="url(#a)" opacity=".2"/><path d="m21.043 3.1523 8.4805 8.4805h-7.1758c-0.63281 0-1.3047-0.67187-1.3047-1.3047z" fill="#ad79c3"/><path d="m20.172 14.086h1.4492c2.1758 0 2.1758 2.2383 2.1758 2.2383v2.2109c0 0.74609-1.4492 2.2617-1.4492 2.2617v0.74219l2.1758 1.4922v1.4922h-7.9727v-1.4922l2.8984-1.4922v-0.74219s-1.4531-1.5156-1.4492-2.2617v-2.2109s0-2.2383 2.1758-2.2383zm-5.0703 1.4922h1.4492v2.957c0 0.74609 1.4492 2.2578 1.4492 2.2578l-2.8984 1.4922v1.4922l-3.625-0.023438v-0.74609l2.8984-1.4688v-0.74219s-1.4531-1.5156-1.4492-2.2617v-0.72266c0-2.2344 2.1758-2.2344 2.1758-2.2344z" fill="#fff"/></svg>
