<svg version="1.1" viewBox="0 0 16 16" xmlns="http://www.w3.org/2000/svg"><g fill="#5c616c"><path d="M4.707 5.293L3.293 6.707 8 11.414l4.707-4.707-1.414-1.414L8 8.586z" font-family="sans-serif" font-weight="400" overflow="visible" style="font-feature-settings:normal;font-variant-alternates:normal;font-variant-caps:normal;font-variant-ligatures:normal;font-variant-numeric:normal;font-variant-position:normal;isolation:auto;mix-blend-mode:normal;shape-padding:0;text-decoration-color:#000;text-decoration-line:none;text-decoration-style:solid;text-indent:0;text-orientation:mixed;text-transform:none;white-space:normal"/><path d="M12 6V5h1v1zM3 6V5h1v1z" overflow="visible"/><path d="M3 6c0-.554.446-1 1-1s1 .446 1 1-.446 1-1 1-1-.446-1-1zM11 6c0-.554.446-1 1-1s1 .446 1 1-.446 1-1 1-1-.446-1-1z" overflow="visible"/></g></svg>
