<svg width="210mm" height="210mm" version="1.1" viewBox="0 0 210 210" xmlns="http://www.w3.org/2000/svg" xmlns:osb="http://www.openswatchbook.org/uri/2009/osb" xmlns:xlink="http://www.w3.org/1999/xlink">
	<defs>
		<clipPath>
			<rect width="384" height="384"/>
		</clipPath>
		<clipPath>
			<rect width="384" height="384"/>
		</clipPath>
		<clipPath>
			<rect width="384" height="384"/>
		</clipPath>
		<clipPath>
			<rect width="384" height="384"/>
		</clipPath>
		<clipPath>
			<rect width="384" height="384"/>
		</clipPath>
		<clipPath>
			<rect width="384" height="384"/>
		</clipPath>
		<clipPath>
			<rect width="384" height="384"/>
		</clipPath>
		<clipPath>
			<rect width="384" height="384"/>
		</clipPath>
		<clipPath>
			<rect width="384" height="384"/>
		</clipPath>
		<clipPath>
			<rect width="384" height="384"/>
		</clipPath>
		<clipPath>
			<rect width="384" height="384"/>
		</clipPath>
		<clipPath>
			<rect width="384" height="384"/>
		</clipPath>
		<clipPath>
			<rect width="384" height="384"/>
		</clipPath>
		<clipPath>
			<rect width="384" height="384"/>
		</clipPath>
		<clipPath>
			<rect width="384" height="384"/>
		</clipPath>
		<clipPath>
			<rect width="384" height="384"/>
		</clipPath>
		<clipPath>
			<rect width="384" height="384"/>
		</clipPath>
		<clipPath>
			<rect width="384" height="384"/>
		</clipPath>
		<clipPath>
			<rect width="384" height="384"/>
		</clipPath>
		<clipPath>
			<rect width="384" height="384"/>
		</clipPath>
		<clipPath>
			<rect width="384" height="384"/>
		</clipPath>
		<clipPath>
			<rect width="384" height="384"/>
		</clipPath>
		<clipPath>
			<rect width="384" height="384"/>
		</clipPath>
		<clipPath>
			<rect width="384" height="384"/>
		</clipPath>
		<clipPath>
			<rect width="384" height="384"/>
		</clipPath>
		<clipPath>
			<rect width="384" height="384"/>
		</clipPath>
		<clipPath>
			<rect width="384" height="384"/>
		</clipPath>
		<clipPath>
			<rect width="384" height="384"/>
		</clipPath>
		<clipPath>
			<rect width="384" height="384"/>
		</clipPath>
		<clipPath>
			<rect width="384" height="384"/>
		</clipPath>
		<clipPath>
			<rect width="384" height="384"/>
		</clipPath>
		<clipPath>
			<rect width="384" height="384"/>
		</clipPath>
		<clipPath>
			<rect width="384" height="384"/>
		</clipPath>
		<clipPath>
			<rect width="384" height="384"/>
		</clipPath>
		<clipPath>
			<rect width="384" height="384"/>
		</clipPath>
		<clipPath>
			<rect width="384" height="384"/>
		</clipPath>
		<clipPath>
			<rect width="384" height="384"/>
		</clipPath>
		<clipPath>
			<rect width="384" height="384"/>
		</clipPath>
		<clipPath>
			<rect width="384" height="384"/>
		</clipPath>
		<clipPath>
			<rect width="384" height="384"/>
		</clipPath>
		<clipPath>
			<rect width="384" height="384"/>
		</clipPath>
		<clipPath>
			<rect width="384" height="384"/>
		</clipPath>
		<clipPath>
			<rect width="384" height="384"/>
		</clipPath>
		<clipPath>
			<rect width="384" height="384"/>
		</clipPath>
		<clipPath>
			<rect width="384" height="384"/>
		</clipPath>
		<clipPath>
			<rect width="384" height="384"/>
		</clipPath>
		<clipPath>
			<rect width="384" height="384"/>
		</clipPath>
		<clipPath>
			<rect width="384" height="384"/>
		</clipPath>
		<clipPath>
			<rect width="384" height="384"/>
		</clipPath>
		<clipPath>
			<rect width="384" height="384"/>
		</clipPath>
		<clipPath id="c">
			<path d="m111 119h177v23h-177z"/>
		</clipPath>
		<clipPath>
			<path d="m368.64 199.88c0-93.234-75.602-168.75-168.75-168.75-93.152 0-168.75 75.516-168.75 168.75s75.598 168.75 168.75 168.75c93.148 0 168.75-75.516 168.75-168.75z"/>
		</clipPath>
		<clipPath id="b">
			<path d="m177 130h45v89h-45z"/>
		</clipPath>
		<clipPath>
			<path d="m368.64 199.88c0-93.234-75.602-168.75-168.75-168.75-93.152 0-168.75 75.516-168.75 168.75s75.598 168.75 168.75 168.75c93.148 0 168.75-75.516 168.75-168.75z"/>
		</clipPath>
		<clipPath id="a">
			<path d="m111 207h177v89h-177z"/>
		</clipPath>
		<clipPath>
			<path d="m368.64 199.88c0-93.234-75.602-168.75-168.75-168.75-93.152 0-168.75 75.516-168.75 168.75s75.598 168.75 168.75 168.75c93.148 0 168.75-75.516 168.75-168.75z"/>
		</clipPath>
		<clipPath id="d">
			<rect width="384" height="384"/>
		</clipPath>
		<g clip-path="url(#d)">
			<g clip-path="url(#c)"></g>
			<g clip-path="url(#b)"></g>
			<g clip-path="url(#a)"></g>
		</g>
		<clipPath>
			<rect width="384" height="384"/>
		</clipPath>
		<clipPath>
			<rect width="384" height="384"/>
		</clipPath>
		<clipPath>
			<rect width="384" height="384"/>
		</clipPath>
		<clipPath>
			<rect width="384" height="384"/>
		</clipPath>
		<clipPath>
			<rect width="384" height="384"/>
		</clipPath>
		<clipPath>
			<rect width="384" height="384"/>
		</clipPath>
		<clipPath>
			<rect width="384" height="384"/>
		</clipPath>
		<clipPath>
			<rect width="384" height="384"/>
		</clipPath>
		<clipPath>
			<rect width="384" height="384"/>
		</clipPath>
		<clipPath>
			<rect width="384" height="384"/>
		</clipPath>
		<clipPath>
			<rect width="384" height="384"/>
		</clipPath>
	</defs>
	<g transform="translate(0,-87)">
		<g transform="matrix(.9984 0 0 1.0532 .16816 -27.421)">
			<rect transform="translate(-1.88e-5 56.642)" x="2.7944e-5" y="115.26" width="210" height="10.471" style="fill:#0ca15e"/>
			<rect transform="translate(-1.88e-5 56.642)" x="2.7944e-5" y="83.844" width="210" height="10.471" style="fill:#4aaee6"/>
			<rect x="2.6932e-5" y="129.87" width="210" height="10.616" style="fill:#367bf0"/>
			<rect x="2.6932e-5" y="119.25" width="210" height="10.616" style="fill:#265ab1"/>
			<rect x="2.6932e-5" y="108.64" width="210" height="10.616" style="fill:#153873"/>
			<rect x="9.1441e-6" y="255.65" width="210" height="10.471" style="fill:#684c35"/>
			<rect transform="scale(1,-1)" x="9.1441e-6" y="-255.65" width="210" height="10.471" style="fill:#8c42ab"/>
			<rect transform="scale(1,-1)" x="1.1717e-5" y="-234.71" width="210" height="10.471" style="fill:#d41919"/>
			<rect transform="translate(-1.88e-5 56.642)" x="2.7944e-5" y="94.315" width="210" height="10.471" style="fill:#23bac2"/>
			<rect transform="translate(-1.88e-5 56.642)" x="2.7944e-5" y="104.79" width="210" height="10.471" style="fill:#19a187"/>
			<rect transform="translate(-1.88e-5 56.642)" x="3.3503e-5" y="219.97" width="210" height="10.471" style="fill:#383c4a"/>
			<rect transform="scale(1,-1)" x="1.4703e-5" y="-192.83" width="210" height="10.471" style="fill:#f8de68"/>
			<rect transform="scale(1,-1)" x="5.8088e-6" y="-203.3" width="210" height="10.471" style="fill:#ffc730"/>
			<rect transform="scale(1,-1)" x="9.1441e-6" y="-224.24" width="210" height="10.471" style="fill:#fd3535"/>
			<rect x="1.47e-5" y="287.08" width="210.01" height="10.47"/>
			<rect transform="scale(1,-1)" x="1.5815e-5" y="-213.77" width="210" height="10.471" style="fill:#fd7d00"/>
			<rect x="9.1441e-6" y="266.12" width="210" height="10.471" style="fill:#a16b3d"/>
			<rect transform="scale(1,-1)" x="9.1441e-6" y="-245.18" width="210" height="10.471" style="fill:#b8174c"/>
		</g>
		<g transform="matrix(1.4286 0 0 .70707 7.3761e-7 87.535)">
			<rect transform="scale(-1,1)" x="-147" y="-.75595" width="21" height="265.8" style="fill:#fff;opacity:.3"/>
			<rect transform="scale(-1,1)" x="-126" y="-.75595" width="21" height="265.8" style="fill:#fff;opacity:.2"/>
			<rect transform="scale(-1,1)" x="-105" y="-.75595" width="21" height="265.8" style="fill:#fff;opacity:.1"/>
			<path d="m-5.1633e-7 -0.73401v265.8h21v-109.21h-20.883v-46.791h20.883v-109.79z" style="opacity:.3"/>
			<path d="m21-0.73401v109.79h21v-109.79zm0 156.58v109.21h21v-109.21z" style="opacity:.2"/>
			<path d="m42-0.62543v109.68h21v-109.68zm0 156.48v109.37h21v-109.37z" style="opacity:.1"/>
		</g>
		<rect transform="scale(-1,1)" x="-209.79" y="274.96" width="29.97" height="11.029" style="fill:#fff;opacity:.6"/>
		<rect transform="scale(-1,1)" x="-180" y="274.96" width="30" height="11.029" style="fill:#fff;opacity:.5"/>
		<rect transform="scale(-1,1)" x="-150" y="274.96" width="30" height="11.029" style="fill:#fff;opacity:.4"/>
		<rect transform="scale(-1,1)" x="-120" y="274.95" width="30" height="11.029" style="fill:#fff;opacity:.3"/>
		<rect transform="scale(-1,1)" x="-90" y="274.95" width="30" height="11.029" style="fill:#fff;opacity:.2"/>
		<rect transform="scale(-1,1)" x="-60" y="274.95" width="30" height="11.029" style="fill:#fff;opacity:.1"/>
		<rect x=".16817" y="285.97" width="209.68" height="11.027"/>
		<rect transform="scale(-1,1)" x="-90" y="285.98" width="30" height="11.029" style="fill:#fff;opacity:.9"/>
		<rect transform="scale(-1,1)" x="-60" y="285.98" width="30" height="11.029" style="fill:#fff;opacity:.8"/>
		<rect transform="scale(-1,1)" x="-30" y="285.98" width="30" height="11.029" style="fill:#fff;opacity:.7"/>
		<rect transform="scale(-1,1)" x="-209.78" y="285.98" width="119.87" height="11.029" style="fill:#fff"/>
	</g>
</svg>
