<svg width="512" height="512" version="1.1" viewBox="0 0 384 384" xmlns="http://www.w3.org/2000/svg"><path d="m203.38 234.71h119.23c6.5827 0 11.923 5.3407 11.923 11.923v87.438c0 6.5827-5.3407 11.923-11.923 11.923h-119.23c-6.5827 0-11.923-5.3407-11.923-11.923v-87.438c0-6.5827 5.3407-11.923 11.923-11.923z" opacity=".3" stroke-width="10.599"/><g transform="translate(.15705 -14.205)"><path d="m13.863 159.69c98.297-98.297 257.67-98.297 355.96 0l-177.98 177.98z" opacity=".3"/><path d="m13.863 152.19c98.297-98.297 257.67-98.297 355.96 0l-177.98 177.98z" fill="#4a4a4a" opacity=".2" stroke="#000" stroke-width="7.5"/><path d="m13.863 152.19c98.297-98.297 257.67-98.297 355.96 0l-177.98 177.98z" fill="#4a4a4a"/><path d="m37.023 175.36c81.983-86.649 225.49-86.981 309.64 0l-154.82 154.82z" opacity=".3"/><path d="m41.523 179.86c83.02-83.02 217.62-83.02 300.64 0l-150.32 150.32z" fill="#e6e6e6"/><path d="m72.516 210.85c63.418-66.8 175.24-65.376 238.66 0l-119.33 119.33z" opacity=".3"/><path d="m77.016 215.35c63.418-63.418 166.24-63.418 229.66 0l-114.83 114.83z" fill="#fff"/></g><path d="m203.38 227.21h119.23c6.5827 0 11.923 5.3407 11.923 11.923v87.438c0 6.5827-5.3407 11.923-11.923 11.923h-119.23c-6.5827 0-11.923-5.3407-11.923-11.923v-87.438c0-6.5827 5.3407-11.923 11.923-11.923z" fill="#19a187" stroke-width="10.599"/><path d="m203.38 227.21c-6.5827 0-11.924 5.3411-11.924 11.924v7.5c0-6.5827 5.3411-11.924 11.924-11.924h119.23c6.5827 0 11.922 5.3411 11.922 11.924v-7.5c0-6.5827-5.3396-11.924-11.922-11.924z" fill="#fff" opacity=".3" stroke-width="10.599"/><g transform="matrix(3.5511 0 0 3.5511 676.25 -625.05)" opacity=".3" stroke-width=".75" aria-label="75"><path d="m-130.67 268.05h5.46l8.31-17.7v-3.12h-15.45v4.5h9.45z"/><path d="m-109.39 268.35c5.49 0 9-2.7 9-7.2 0-3.96-2.82-6.18-7.86-6.18-0.45 0-0.84 0.03-1.17 0.06l0.15-3.27h7.77v-4.53h-12.84l-0.54 12.21c1.29-0.24 2.94-0.42 4.17-0.42 3.12 0 4.92 0.99 4.92 2.67 0 1.41-1.29 2.16-3.63 2.16-1.8 0-3.81-0.42-5.31-1.14l-1.41 4.08c2.01 1.02 4.29 1.56 6.75 1.56z"/></g><g transform="matrix(3.5511 0 0 3.5511 676.25 -632.55)" fill="#fff7f7" stroke-width=".75" aria-label="75"><path d="m-130.67 268.05h5.46l8.31-17.7v-3.12h-15.45v4.5h9.45z"/><path d="m-109.39 268.35c5.49 0 9-2.7 9-7.2 0-3.96-2.82-6.18-7.86-6.18-0.45 0-0.84 0.03-1.17 0.06l0.15-3.27h7.77v-4.53h-12.84l-0.54 12.21c1.29-0.24 2.94-0.42 4.17-0.42 3.12 0 4.92 0.99 4.92 2.67 0 1.41-1.29 2.16-3.63 2.16-1.8 0-3.81-0.42-5.31-1.14l-1.41 4.08c2.01 1.02 4.29 1.56 6.75 1.56z"/></g></svg>
