<?xml version="1.0" encoding="UTF-8" standalone="no"?>
<!-- Created with Inkscape (http://www.inkscape.org/) -->

<svg
   xmlns:dc="http://purl.org/dc/elements/1.1/"
   xmlns:cc="http://creativecommons.org/ns#"
   xmlns:rdf="http://www.w3.org/1999/02/22-rdf-syntax-ns#"
   xmlns:svg="http://www.w3.org/2000/svg"
   xmlns="http://www.w3.org/2000/svg"
   xmlns:sodipodi="http://sodipodi.sourceforge.net/DTD/sodipodi-0.dtd"
   xmlns:inkscape="http://www.inkscape.org/namespaces/inkscape"
   id="svg2987"
   version="1.1"
   inkscape:version="0.91+devel r"
   width="512"
   height="512"
   sodipodi:docname="media-flash-sd-mmc.svg"
   viewBox="0 0 512 512">
  <metadata
     id="metadata2993">
    <rdf:RDF>
      <cc:Work
         rdf:about="">
        <dc:format>image/svg+xml</dc:format>
        <dc:type
           rdf:resource="http://purl.org/dc/dcmitype/StillImage" />
        <dc:title></dc:title>
      </cc:Work>
    </rdf:RDF>
  </metadata>
  <defs
     id="defs2991" />
  <sodipodi:namedview
     pagecolor="#ffffff"
     bordercolor="#666666"
     borderopacity="1"
     objecttolerance="10"
     gridtolerance="10"
     guidetolerance="10"
     inkscape:pageopacity="0"
     inkscape:pageshadow="2"
     inkscape:window-width="1920"
     inkscape:window-height="1027"
     id="namedview2989"
     showgrid="false"
     inkscape:zoom="0.45205322"
     inkscape:cx="413.85332"
     inkscape:cy="584.63082"
     inkscape:window-x="0"
     inkscape:window-y="27"
     inkscape:window-maximized="1"
     inkscape:current-layer="svg2987"
     inkscape:document-units="px" />
  <path
     style="fill:#ffffff;fill-opacity:1;fill-rule:nonzero;stroke:none;stroke-width:0.47732446"
     d="m 137.90345,451.00695 c -6.3927,-0.40432 -9.74882,-1.86039 -13.51521,-5.86362 -3.53173,-3.75381 -5.2112,-7.73654 -5.77827,-13.70265 -0.55049,-5.79188 -0.68411,-126.88238 -0.15174,-137.51322 l 0.3528,-7.0447 135.82046,0 135.82047,0 0,72.30545 c 0,46.60064 -0.19575,73.35663 -0.55061,75.26232 -1.18553,6.36638 -4.52616,10.90706 -10.75757,14.62198 l -4.13129,2.46291 -115.84186,-0.0927 c -63.71302,-0.051 -118.28325,-0.24707 -121.26718,-0.4358 z"
     id="path3787"
     inkscape:connector-curvature="0" />
  <path
     style="fill:#f9de69;fill-opacity:1;fill-rule:nonzero;stroke:none;stroke-width:0.47732446"
     d="m 261.1194,61.714098 c -1.8677,-0.005 -3.92908,0.0058 -6.14183,0.03265 -14.44876,0.175459 -14.45054,0.175684 -16.08919,1.556898 -0.90136,0.759762 -1.88885,1.968076 -2.19457,2.68495 -0.62596,1.467802 -0.78553,94.400984 -0.16688,97.200784 0.47548,2.15188 2.81084,4.36915 5.3671,5.09581 1.09402,0.31102 7.62855,0.44931 15.45805,0.32723 12.50973,-0.19505 13.72539,-0.30215 15.65009,-1.37884 1.14772,-0.64205 2.29307,-1.72398 2.5451,-2.40433 0.52544,-1.41837 1.34866,-44.71774 1.44596,-76.050278 l 0.0662,-21.214833 -1.67902,-2.420183 c -1.18991,-1.715203 -2.30138,-2.587848 -3.8158,-2.996332 -0.98151,-0.264743 -4.84212,-0.418623 -10.4452,-0.433506 z m -74.78612,2.007187 -2.6402,2.170332 -2.6402,2.170337 -0.19205,47.695146 c -0.12853,31.88168 0.0238,48.3484 0.45962,49.66319 0.88288,2.66353 3.27805,4.50843 6.4793,4.9914 1.46195,0.22056 8.44202,0.36087 15.51118,0.31231 12.08672,-0.0831 12.98549,-0.16133 15.08606,-1.31265 4.27845,-2.345 4.03675,0.78145 4.03675,-52.03954 0,-26.316679 -0.21352,-48.469946 -0.47453,-49.22968 -0.261,-0.759719 -1.50597,-2.06554 -2.76605,-2.90124 l -2.2906,-1.519605 -15.28464,0 -15.28464,0 z m 107.17985,0.518346 -2.6402,2.127449 -2.6402,2.12838 -0.19019,46.50184 c -0.10456,25.57588 -0.0319,47.24415 0.16129,48.15197 0.19322,0.90782 1.14975,2.47747 2.12559,3.48764 1.4038,1.45317 2.41708,1.91891 4.85435,2.23187 1.69421,0.21755 8.72349,0.3533 15.62025,0.30112 13.90752,-0.10526 15.22833,-0.39117 17.62745,-3.8158 1.13428,-1.61909 1.18212,-3.59985 1.18212,-48.82787 0,-44.528426 -0.0635,-47.239724 -1.13924,-48.943467 -1.93511,-3.064704 -3.61983,-3.343132 -20.18281,-3.343132 l -14.77841,0 z m -145.45064,1.011517 c -7.82968,-0.04043 -15.71274,0.1483 -17.27131,0.598517 -1.35451,0.391273 -2.53207,1.407305 -3.71232,3.204227 l -1.72843,2.631814 0.0755,29.600644 c 0.0412,16.28047 0.26231,37.62052 0.49224,47.42292 l 0.41859,17.82322 2.07804,1.72005 c 1.22676,1.01591 3.11024,1.8862 4.59891,2.12465 3.21363,0.51476 19.26163,0.55768 26.33861,0.0699 4.95715,-0.34166 5.60005,-0.52448 7.55609,-2.14517 l 2.13863,-1.77132 0.18087,-47.92822 c 0.20257,-53.475801 0.40342,-50.977255 -4.21575,-52.576545 -1.34365,-0.46521 -9.12,-0.734278 -16.94968,-0.774717 z m 216.4368,24.973763 c -13.73748,0 -14.48367,0.05564 -16.01834,1.195177 -3.08786,2.292823 -3.01869,1.441172 -3.01311,37.002892 0.003,18.18678 0.2372,34.06473 0.52022,35.28472 0.62724,2.70389 1.47874,3.60924 4.36304,4.63714 2.72914,0.9726 23.31207,1.15272 26.62389,0.23306 1.19258,-0.33117 2.98869,-1.33398 3.99107,-2.22906 l 1.82259,-1.62776 0.36452,-16.43879 c 0.20036,-9.04127 0.39219,-24.4606 0.42698,-34.26574 0.0632,-17.811714 0.0628,-17.829699 -1.28374,-19.962791 -2.50002,-3.960289 -1.88794,-3.828848 -17.79712,-3.828848 z"
     id="path3777"
     inkscape:connector-curvature="0" />
  <path
     inkscape:connector-curvature="0"
     id="path2984"
     d="m 97.74247,480.4499 c -3.22529,-0.87026 -5.99981,-3.05105 -7.70392,-6.05531 l -1.4601,-2.57407 0,-215.75065 0,-215.750642 1.03883,-1.909298 c 1.54091,-2.832109 3.68428,-4.93237 6.23635,-6.110951 l 2.27131,-1.048916 136.03018,-0.125035 136.03017,-0.125035 26.61813,26.614943 26.61813,26.614942 -0.003,192.840672 c -0.002,129.77661 -0.16209,193.41469 -0.49018,194.59594 -0.84015,3.0249 -3.33674,6.15126 -6.1897,7.75106 l -2.62528,1.47214 -157.03974,0.0893 c -127.29554,0.0724 -157.47382,-0.0278 -159.33151,-0.52908 z m 276.11969,-34.53096 c 5.78756,-2.84927 9.62714,-7.48018 11.18438,-13.48945 0.74355,-2.86933 0.77704,-11.38461 0.46719,-118.81327 -0.18357,-63.64733 -0.44132,-115.89646 -0.57278,-116.10917 -0.30999,-0.50156 -258.76131,-0.50791 -259.07128,-0.006 -0.1293,0.20922 -0.38609,51.92135 -0.57065,114.91586 -0.25258,86.21194 -0.19815,115.40534 0.22008,118.05301 1.23136,7.79524 6.43151,13.96717 13.74165,16.3096 2.68263,0.85961 6.70445,0.88688 117.10735,0.79401 l 114.32931,-0.0962 3.16475,-1.55803 z M 160.71045,166.30339 c 0.72434,-0.54128 1.75984,-1.57724 2.30112,-2.30212 0.97576,-1.30674 0.9852,-1.70519 1.10788,-46.7483 0.11593,-42.561948 0.0707,-45.533665 -0.71598,-47.067037 -0.46185,-0.900186 -1.44569,-2.081564 -2.18629,-2.625284 -1.27049,-0.932725 -2.06602,-0.996095 -14.08107,-1.121631 -14.66809,-0.15326 -15.22003,-0.03322 -17.14976,3.730114 l -1.07398,2.094451 0,44.173847 c 0,27.30097 0.17796,44.79439 0.46592,45.79844 0.25626,0.89353 0.95434,2.15457 1.55131,2.80233 2.18025,2.36578 3.03182,2.49006 16.2066,2.36535 11.53727,-0.10921 12.33463,-0.17383 13.57425,-1.10016 z m 54.1276,0.12988 c 1.3482,-0.71294 2.41149,-1.75012 3.05835,-2.98327 0.98365,-1.87517 0.99162,-2.2536 0.99162,-47.08176 0,-45.105773 -0.002,-45.19394 -0.99854,-46.53913 -0.54919,-0.741257 -1.70864,-1.831031 -2.57654,-2.42172 -1.53731,-1.046286 -1.90052,-1.07398 -14.08592,-1.07398 -12.18541,0 -12.54861,0.02768 -14.08593,1.07398 -0.8679,0.590689 -2.02734,1.680339 -2.57654,2.421443 -0.9941,1.341472 -0.99911,1.544626 -1.1275,45.736367 -0.0848,29.18183 0.0384,45.01051 0.35961,46.20334 0.26872,0.99793 0.95292,2.40475 1.52046,3.12625 1.89616,2.41058 2.99017,2.59246 15.71549,2.61272 11.3322,0.018 11.81028,-0.0192 13.80544,-1.07424 z m 55.25022,-0.25735 c 3.4275,-2.44468 3.20035,0.88504 3.34327,-49.00746 l 0.12854,-44.868495 -1.08319,-2.112643 c -1.94021,-3.784185 -2.47815,-3.901697 -17.15896,-3.748304 -12.01505,0.125536 -12.81059,0.188906 -14.08107,1.121631 -0.74061,0.54372 -1.72212,1.725098 -2.18114,2.625284 -0.77699,1.523787 -0.83463,4.730138 -0.83532,46.473837 -9.5e-4,44.2324 0.0125,44.86439 0.97815,46.85923 0.69434,1.4343 1.56155,2.31511 2.98328,3.03005 1.90696,0.95894 2.59605,1.00138 14.17616,0.87321 11.87416,-0.13144 12.20988,-0.16191 13.73028,-1.24634 z m 52.94474,0.84115 c 1.82897,-0.69298 3.4848,-2.2887 4.25851,-4.10394 0.52412,-1.22964 0.65003,-9.86616 0.6773,-46.45594 0.0317,-42.433902 -0.0145,-45.027368 -0.82465,-46.410759 -0.47198,-0.805901 -1.4641,-1.917317 -2.20471,-2.469816 -1.27784,-0.953278 -1.99729,-1.011722 -14.0981,-1.145249 -12.62355,-0.139288 -12.76769,-0.129708 -14.36126,0.954649 -0.88534,0.602446 -2.05905,1.701714 -2.60825,2.442818 -0.9941,1.341472 -0.99911,1.544626 -1.1275,45.736367 -0.0848,29.18183 0.0384,45.01051 0.35961,46.20334 0.62775,2.33127 2.16279,4.26846 4.02479,5.07918 1.8646,0.81185 23.82952,0.95545 25.90426,0.16935 z m 55.52731,-0.56486 c 1.25481,-0.63603 2.5126,-1.75525 3.08442,-2.74462 0.9378,-1.62258 0.96933,-2.54922 1.09627,-32.2194 l 0.13071,-30.54876 -1.08536,-2.112641 c -1.94417,-3.784324 -2.48149,-3.901688 -17.16113,-3.748305 -12.08994,0.126319 -12.80267,0.183899 -14.08107,1.137598 -0.74061,0.552498 -1.73674,1.670788 -2.21363,2.485085 -0.81507,1.391743 -0.8643,3.335413 -0.82088,32.406833 0.0519,34.78681 -0.11208,33.19421 3.63944,35.33636 1.79142,1.02291 2.34185,1.06645 13.57974,1.07398 11.20858,0.007 11.80383,-0.0384 13.83149,-1.06613 z"
     style="fill:#000000;stroke-width:0.47732446" />
  <rect
     style="fill:#d41a1a;fill-opacity:1;fill-rule:evenodd;stroke:none;stroke-width:0.47732446"
     id="rect3005"
     width="260.02026"
     height="95.924141"
     x="125.37857"
     y="197.10602" />
</svg>
