<svg xmlns="http://www.w3.org/2000/svg" width="512" height="512" version="1.1" viewBox="0 0 384 384">
 <g>
  <path style="fill:rgb(6.666%,17.647%,36.078%)" d="M 192 23.25 C 285.199219 23.25 360.75 98.800781 360.75 192 C 360.75 285.199219 285.199219 360.75 192 360.75 C 98.800781 360.75 23.25 285.199219 23.25 192 C 23.25 98.800781 98.800781 23.25 192 23.25 Z M 192 23.25"/>
  <path style="fill:rgb(100.000%,100.000%,100.000%)" d="M 124.5 116.0625 L 124.5 124.582031 C 125.34375 124.539062 126.191406 124.511719 127.039062 124.5 C 161.988281 124.5 190.320312 152.832031 190.320312 187.78125 C 190.3125 213.9375 174.21875 237.398438 149.8125 246.8125 L 149.8125 234.1875 L 116.0625 234.1875 L 116.0625 267.9375 L 149.8125 267.9375 L 149.8125 255.726562 C 150.191406 255.582031 150.570312 255.433594 150.949219 255.28125 L 234.746094 255.28125 C 236.667969 262.722656 243.375 267.925781 251.0625 267.9375 C 260.382812 267.9375 267.9375 260.382812 267.9375 251.0625 C 267.9375 241.742188 260.382812 234.1875 251.0625 234.1875 C 243.371094 234.191406 236.65625 239.394531 234.730469 246.84375 L 167.527344 246.84375 C 187.03125 233.503906 198.710938 211.410156 198.757812 187.78125 C 198.730469 161.265625 184.078125 136.929688 160.65625 124.5 L 242.625 124.5 L 242.625 116.0625 Z M 124.5 242.625 L 141.375 242.625 L 141.375 259.5 L 124.5 259.5 Z M 251.0625 242.625 C 255.722656 242.625 259.5 246.402344 259.5 251.0625 C 259.5 255.722656 255.722656 259.5 251.0625 259.5 C 246.402344 259.5 242.625 255.722656 242.625 251.0625 C 242.625 246.402344 246.402344 242.625 251.0625 242.625 Z M 251.0625 242.625"/>
 </g>
 <path style="fill:#ffffff;opacity:0.3" d="M 256 31 C 131.73439 31 31 131.73437 31 256 C 31 257.67192 31.028171 259.33678 31.064453 261 C 33.724845 139.04478 133.4063 41 256 41 C 378.59369 41 478.27515 139.04478 480.93555 261 C 480.97183 259.33678 481 257.67192 481 256 C 481 131.73437 380.26563 31 256 31 z" transform="scale(0.75)"/>
 <path style="opacity:0.3" d="M 31.064453 251 C 31.028171 252.66322 31 254.32808 31 256 C 31 380.26563 131.73437 481 256 481 C 380.26561 481 481 380.26563 481 256 C 481 254.32808 480.97183 252.66322 480.93555 251 C 478.27516 372.95528 378.5937 471 256 471 C 133.40632 471 33.724845 372.95528 31.064453 251 z" transform="scale(0.75)"/>
</svg>
