<svg xmlns="http://www.w3.org/2000/svg" width="12pt" height="12pt" version="1.1" viewBox="0 0 12 12">
 <g>
  <path style="fill:rgb(36.078431%,38.039216%,42.352941%)" d="M 3.5 2.503906 C 3.5 2.503906 3 2.503906 3 3.003906 L 3 9.003906 C 3 9.503906 3.5 9.503906 3.5 9.503906 L 8.5 9.503906 C 9 9.503906 9 9.003906 9 9.003906 L 9 6.878906 L 8 7.503906 L 8 8.503906 L 4 8.503906 L 4 3.507812 L 8 3.507812 L 8 4.503906 L 9 5.128906 L 9 3.003906 C 9 2.503906 8.5 2.503906 8.5 2.503906 Z M 7 4.503906 L 7 5.503906 L 5 5.503906 L 5 6.503906 L 7 6.503906 L 7 7.503906 L 9.25 6.003906 Z M 7 4.503906"/>
 </g>
</svg>
