<svg xmlns="http://www.w3.org/2000/svg" width="12pt" height="12pt" version="1.1" viewBox="0 0 12 12">
 <g>
  <path style="fill:rgb(36.078431%,38.039216%,42.352941%)" d="M 3 3 C 2.445312 3 2 3.445312 2 4 L 2 8 C 2 8.554688 2.445312 9 3 9 L 6 9 L 6 6.5 L 3 5 L 3 4 L 6 5.5 L 9 4 L 9 5 L 8 5.5 L 9.5 5.5 C 9.683594 5.5 9.851562 5.554688 10 5.640625 L 10 4 C 10 3.445312 9.554688 3 9 3 Z M 7 6 C 6.722656 6 6.5 6.222656 6.5 6.5 L 6.5 9 C 6.5 9.277344 6.722656 9.5 7 9.5 L 9.5 9.5 C 9.777344 9.5 10 9.277344 10 9 L 10 6.5 C 10 6.222656 9.777344 6 9.5 6 Z M 7 6.5 L 7.5 6.5 L 7.5 7 L 8 7 L 8 7.5 L 8.5 7.5 L 8.5 7 L 9 7 L 9 6.5 L 9.5 6.5 L 9.5 9 L 9 9 L 9 7.5 L 8.5 7.5 L 8.5 8 L 8 8 L 8 7.5 L 7.5 7.5 L 7.5 9 L 7 9 Z M 7 6.5"/>
 </g>
</svg>
