<svg xmlns="http://www.w3.org/2000/svg" width="12pt" height="12pt" version="1.1" viewBox="0 0 12 12">
 <g>
  <path style="fill:rgb(36.078431%,38.039216%,42.352941%)" d="M 6.015625 2 L 4.015625 3.5 L 6.015625 5 L 6.015625 4 C 7.121094 4 8.015625 4.894531 8.015625 6 C 8.015625 7.105469 7.121094 8 6.015625 8 C 4.910156 8 4.015625 7.105469 4.015625 6 C 4.015625 5.726562 3.789062 5.5 3.515625 5.5 C 3.238281 5.5 3.015625 5.726562 3.015625 6 C 3.015625 6.019531 3.015625 6.035156 3.015625 6.050781 C 3.042969 7.683594 4.375 9 6.015625 9 C 7.671875 9 9.015625 7.65625 9.015625 6 C 9.015625 4.34375 7.671875 3 6.015625 3 Z M 6.015625 2"/>
 </g>
</svg>
