<svg xmlns="http://www.w3.org/2000/svg" width="12pt" height="12pt" version="1.1" viewBox="0 0 12 12">
 <g>
  <path style="fill:rgb(36.078431%,38.039216%,42.352941%)" d="M 5.75 2 L 5.75 2.90625 L 6.25 2.90625 L 6.25 2 Z M 3.34375 2.984375 L 2.984375 3.34375 L 3.625 4 L 3.984375 3.625 Z M 8.65625 2.984375 L 8.015625 3.625 L 8.375 4 L 9.015625 3.34375 Z M 6 3.5 C 4.621094 3.5 3.5 4.621094 3.5 6 C 3.5 7.378906 4.621094 8.5 6 8.5 C 7.378906 8.5 8.5 7.378906 8.5 6 C 8.5 4.621094 7.378906 3.5 6 3.5 Z M 6 4.5 C 6.828125 4.5 7.5 5.171875 7.5 6 C 7.5 6.828125 6.828125 7.5 6 7.5 C 5.171875 7.5 4.5 6.828125 4.5 6 C 4.5 5.171875 5.171875 4.5 6 4.5 Z M 2 5.75 L 2 6.25 L 2.90625 6.25 L 2.90625 5.75 Z M 9.09375 5.75 L 9.09375 6.25 L 10 6.25 L 10 5.75 Z M 3.625 8.015625 L 2.984375 8.65625 L 3.34375 9.015625 L 3.984375 8.375 Z M 8.375 8.015625 L 8.015625 8.375 L 8.65625 9.015625 L 9.015625 8.65625 Z M 5.75 9.09375 L 5.75 10 L 6.25 10 L 6.25 9.09375 Z M 5.75 9.09375"/>
 </g>
</svg>
