<svg xmlns="http://www.w3.org/2000/svg" width="12pt" height="12pt" version="1.1" viewBox="0 0 12 12">
 <g>
  <path style="fill:rgb(36.078431%,38.039216%,42.352941%)" d="M 3.59375 3 C 3.261719 3 3 3.277344 3 3.609375 L 3 5.5 L 4 5.5 L 4 4 L 5.5 4 L 5.5 3 Z M 6.5 3 L 6.5 4 L 8 4 L 8 5.5 L 9 5.5 L 9 3.609375 C 9 3.277344 8.738281 3 8.40625 3 Z M 4.996094 5 L 4.996094 7 L 6.996094 7 L 6.996094 5 Z M 3 6.5 L 3 8.390625 C 3 8.726562 3.261719 9 3.59375 9 L 5.5 9 L 5.5 8 L 4 8 L 4 6.5 Z M 8 6.5 L 8 8 L 6.5 8 L 6.5 9 L 8.40625 9 C 8.738281 9 9 8.726562 9 8.390625 L 9 6.5 Z M 8 6.5"/>
 </g>
</svg>
